<?xml version="1.0" encoding="UTF-8" standalone="no"?>
<svg
   xmlns:dc="http://purl.org/dc/elements/1.1/"
   xmlns:cc="http://creativecommons.org/ns#"
   xmlns:rdf="http://www.w3.org/1999/02/22-rdf-syntax-ns#"
   xmlns:svg="http://www.w3.org/2000/svg"
   xmlns="http://www.w3.org/2000/svg"
   xmlns:sodipodi="http://sodipodi.sourceforge.net/DTD/sodipodi-0.dtd"
   xmlns:inkscape="http://www.inkscape.org/namespaces/inkscape"
   version="1.1"
   x="0px"
   y="0px"
   viewBox="-38.309 -11.5 118.48313 179.494"
   enable-background="new -38.309 -11.5 200 200"
   xml:space="preserve"
   id="svg16"
   sodipodi:docname="204712-hiker.svg"
   inkscape:version="0.92.0 r"
   width="118.48313"
   height="179.494"><metadata
     id="metadata22"><rdf:RDF><cc:Work
         rdf:about=""><dc:format>image/svg+xml</dc:format><dc:type
           rdf:resource="http://purl.org/dc/dcmitype/StillImage" /><dc:title></dc:title><cc:license
           rdf:resource="http://creativecommons.org/licenses/by/4.0/" /><dc:source>https://thenounproject.com/icon/204712/</dc:source><dc:creator><cc:Agent><dc:title>Mariia Nisiforova</dc:title></cc:Agent></dc:creator></cc:Work><cc:License
         rdf:about="http://creativecommons.org/licenses/by/4.0/"><cc:permits
           rdf:resource="http://creativecommons.org/ns#Reproduction" /><cc:permits
           rdf:resource="http://creativecommons.org/ns#Distribution" /><cc:requires
           rdf:resource="http://creativecommons.org/ns#Notice" /><cc:requires
           rdf:resource="http://creativecommons.org/ns#Attribution" /><cc:permits
           rdf:resource="http://creativecommons.org/ns#DerivativeWorks" /></cc:License></rdf:RDF></metadata><defs
     id="defs20" /><sodipodi:namedview
     pagecolor="#ffffff"
     bordercolor="#666666"
     borderopacity="1"
     objecttolerance="10"
     gridtolerance="10"
     guidetolerance="10"
     inkscape:pageopacity="0"
     inkscape:pageshadow="2"
     inkscape:window-width="1920"
     inkscape:window-height="1135"
     id="namedview18"
     showgrid="false"
     inkscape:zoom="2.6700352"
     inkscape:cx="-29.316738"
     inkscape:cy="51.430443"
     inkscape:window-x="0"
     inkscape:window-y="36"
     inkscape:window-maximized="1"
     inkscape:current-layer="svg16"
     fit-margin-top="0"
     fit-margin-left="0"
     fit-margin-right="0"
     fit-margin-bottom="0" /><path
     d="m 36.799131,23.483 c 4.82,0 8.939,-1.709 12.359,-5.132 3.422,-3.419 5.132,-7.539 5.132,-12.36 0,-4.821 -1.71,-8.94 -5.132,-12.36 -3.42,-3.422 -7.54,-5.131 -12.359,-5.131 -4.821,0 -9.019,1.709 -12.596,5.13 -3.577,3.42 -5.364,7.541 -5.364,12.36 0,4.821 1.787,8.94 5.364,12.36 3.577,3.423 7.775,5.133 12.596,5.133 z"
     id="path2"
     inkscape:connector-curvature="0"
     style="fill:#000000" /><path
     d="m -1.9078686,26.444 c 0,0 -12.9790004,3.513 -15.5650004,5.339 -6.528,4.607 -4.952,8.738 -1.188,9.504 -1.603,4.114 -12.474,8.911 -16.226,24.787 -3.469,14.678 -7.422,18.864 5.393,19.971 l 13.228,0.242 c 5.163,0.459 8.3570004,-1.121 9.5850004,-4.742 l 10.023,-42.221 c 0.008,-0.029 1.355,-7.711 1.362,-7.739 l 0.269,-2.994 c -1.592,-2.953 -2.955,-3.181 -6.881,-2.147 z"
     id="path4"
     inkscape:connector-curvature="0"
     style="fill:#000000" /><path
     d="m 34.083131,162.135 -0.021,0.363 c -0.108,1.931 1.129,2.968 3.712,3.116 2.297,0.127 3.636,-0.643 4.018,-2.314 l 33.863,-118.117 0.611,-2.651 c 0.11,-1.931 -1.13,-2.968 -3.712,-3.115 -2.009,-0.112 -3.347,0.659 -4.018,2.315 z"
     id="path6"
     inkscape:connector-curvature="0"
     style="fill:#000000" /><path
     d="m -3.9278686,96.046 -14.4910004,58.351 v 2.012 c 0,2.949 1.004,5.494 3.017,7.642 2.009,2.144 4.49,3.215 7.4390004,3.215 5.36,0 8.84599998,-2.547 10.453,-7.64 l 8.1359996,-30.61 z"
     id="path8"
     inkscape:connector-curvature="0"
     style="fill:#000000" /><path
     d="m 74.545131,68.215 -25.988,-5.428 -7.752,-24.217 c -0.806,-3.752 -2.48,-6.701 -5.026,-8.845 -2.548,-2.144 -4.895,-3.351 -7.038,-3.62 l -3.618,-0.402 c -3.484,0 -6.568,1.005 -9.249,3.017 -2.681,2.009 -4.422,4.088 -5.227,6.233 L 9.8431314,38.169 0.95713138,77.225 c 0,0 -2.17899998,5.749 -1.915,10.505 0.265,4.757 4.19300002,10.829 4.19300002,10.829 l 27.7289996,61.393 c 0.537,2.144 1.743,4.021 3.62,5.63 1.876,1.608 4.155,2.412 6.835,2.412 2.949,0 5.428,-1.071 7.439,-3.215 2.009,-2.146 3.016,-4.692 3.016,-7.642 v -2.012 l -23.942,-64.985 5.231,-26.638 3.33,7.73 c 0.27,1.34 0.872,2.412 1.809,3.216 0.939,0.805 1.811,1.207 2.615,1.207 l 1.205,0.402 29.205,6.233 h 1.206 c 2.145,0 3.955,-0.67 5.43,-2.011 1.474,-1.341 2.211,-2.949 2.211,-4.826 0,-3.752 -1.877,-6.164 -5.629,-7.238 z"
     id="path10"
     inkscape:connector-curvature="0"
     style="fill:#000000" /></svg>