<?xml version="1.0" encoding="UTF-8" standalone="no"?>
<svg
   xmlns:dc="http://purl.org/dc/elements/1.1/"
   xmlns:cc="http://creativecommons.org/ns#"
   xmlns:rdf="http://www.w3.org/1999/02/22-rdf-syntax-ns#"
   xmlns:svg="http://www.w3.org/2000/svg"
   xmlns="http://www.w3.org/2000/svg"
   xmlns:sodipodi="http://sodipodi.sourceforge.net/DTD/sodipodi-0.dtd"
   xmlns:inkscape="http://www.inkscape.org/namespaces/inkscape"
   version="1.1"
   x="0px"
   y="0px"
   viewBox="0 0 65.289 100.001"
   enable-background="new 0 0 65.289 100"
   xml:space="preserve"
   id="svg8"
   sodipodi:docname="21636-gondola.svg"
   width="65.289001"
   height="100.001"
   inkscape:version="0.92.0 r"><metadata
     id="metadata14"><rdf:RDF><cc:Work
         rdf:about=""><dc:format>image/svg+xml</dc:format><dc:type
           rdf:resource="http://purl.org/dc/dcmitype/StillImage" /><dc:title></dc:title><dc:creator><cc:Agent><dc:title>Enzet</dc:title></cc:Agent></dc:creator><dc:source>https://thenounproject.com/icon/21636/</dc:source></cc:Work></rdf:RDF></metadata><defs
     id="defs12" /><sodipodi:namedview
     pagecolor="#ffffff"
     bordercolor="#666666"
     borderopacity="1"
     objecttolerance="10"
     gridtolerance="10"
     guidetolerance="10"
     inkscape:pageopacity="0"
     inkscape:pageshadow="2"
     inkscape:window-width="1920"
     inkscape:window-height="1135"
     id="namedview10"
     showgrid="false"
     fit-margin-top="0"
     fit-margin-left="0"
     fit-margin-right="0"
     fit-margin-bottom="0"
     inkscape:zoom="1.888"
     inkscape:cx="-106.65635"
     inkscape:cy="37.501"
     inkscape:window-x="0"
     inkscape:window-y="36"
     inkscape:window-maximized="1"
     inkscape:current-layer="svg8" /><path
     d="m 51.904,49.946 h -12.84 c 4.25,-5.939 6.5,-12.684 7.182,-18.825 0.768,-6.908 -0.201,-13.224 -3.373,-17.628 L 65.289,2.285 64.201,0 41.239,11.534 C 40.49,10.853 39.402,10.56 38.412,10.772 38.145,10.848 37.889,10.958 37.65,11.099 L 24.81,17.519 25.681,19.26 0,32.1 l 1.088,2.285 25.68,-12.84 0.871,1.741 10.12,-5.005 c 1.517,2.69 2.767,6.882 2.177,12.187 -0.718,6.462 -3.655,13.666 -9.358,19.478 -5.881,0 -11.197,0 -17.041,0 -1.064,0.014 -2.091,0.684 -2.437,1.415 -6.872,13.742 -6.872,33.481 0,47.225 0.422,0.907 1.287,1.41 2.285,1.415 h 38.52 c 1,-0.005 1.861,-0.513 2.285,-1.415 6.871,-13.743 6.871,-33.482 0,-47.225 -0.443,-0.878 -1.302,-1.422 -2.286,-1.415 z m -22.416,24.7 c -6.123,0 -12.533,0 -18.171,0 0.018,-6.964 1.293,-13.946 3.809,-19.587 h 14.363 v 19.587 z m 6.312,0 V 55.06 h 14.363 c 2.506,5.639 3.699,12.642 3.809,19.587 C 47.912,74.645 41.985,74.645 35.8,74.646 Z"
     id="path2"
     inkscape:connector-curvature="0"
     style="fill:#010101" /></svg>