<?xml version="1.0" encoding="UTF-8" standalone="no"?>
<svg
   xmlns:dc="http://purl.org/dc/elements/1.1/"
   xmlns:cc="http://creativecommons.org/ns#"
   xmlns:rdf="http://www.w3.org/1999/02/22-rdf-syntax-ns#"
   xmlns:svg="http://www.w3.org/2000/svg"
   xmlns="http://www.w3.org/2000/svg"
   xmlns:sodipodi="http://sodipodi.sourceforge.net/DTD/sodipodi-0.dtd"
   xmlns:inkscape="http://www.inkscape.org/namespaces/inkscape"
   version="1.0"
   x="0px"
   y="0px"
   viewBox="0 0 81.771 100"
   enable-background="new 0 0 81.771 100"
   xml:space="preserve"
   id="svg12"
   sodipodi:docname="231-chair-lift.svg"
   inkscape:version="0.92.0 r"><metadata
     id="metadata18"><rdf:RDF><cc:Work
         rdf:about=""><dc:format>image/svg+xml</dc:format><dc:type
           rdf:resource="http://purl.org/dc/dcmitype/StillImage" /><dc:title></dc:title><cc:license
           rdf:resource="http://creativecommons.org/publicdomain/zero/1.0/" /><dc:source>https://thenounproject.com/icon/231/</dc:source></cc:Work><cc:License
         rdf:about="http://creativecommons.org/publicdomain/zero/1.0/"><cc:permits
           rdf:resource="http://creativecommons.org/ns#Reproduction" /><cc:permits
           rdf:resource="http://creativecommons.org/ns#Distribution" /><cc:permits
           rdf:resource="http://creativecommons.org/ns#DerivativeWorks" /></cc:License></rdf:RDF></metadata><defs
     id="defs16" /><sodipodi:namedview
     pagecolor="#ffffff"
     bordercolor="#666666"
     borderopacity="1"
     objecttolerance="10"
     gridtolerance="10"
     guidetolerance="10"
     inkscape:pageopacity="0"
     inkscape:pageshadow="2"
     inkscape:window-width="1920"
     inkscape:window-height="1135"
     id="namedview14"
     showgrid="false"
     inkscape:zoom="2.36"
     inkscape:cx="40.885502"
     inkscape:cy="50"
     inkscape:window-x="0"
     inkscape:window-y="36"
     inkscape:window-maximized="1"
     inkscape:current-layer="svg12" /><path
     d="M76.863,75.347c3.758-1.248,5.786-5.326,4.542-9.123l-2.721,0.886c0.738,2.284-0.494,4.729-2.732,5.486  L4.351,97.261L5.272,100L76.863,75.347z"
     id="path2" /><path
     d="M10.919,32.728c3.93-1.166,6.178-5.347,5.026-9.33c-1.141-3.987-5.28-6.26-9.208-5.094  c-3.942,1.155-6.212,5.348-5.049,9.333C2.841,31.61,6.955,33.892,10.919,32.728"
     id="path4" /><path
     d="M7.877,43.155c-3.918-7.561,7.33-13.677,11.467-6.349l8.091,15.518l15.373-4.415  c2.536-0.733,6.052,2.074,6.052,5.373l0.094,22.111c0.021,5.486-8.046,5.511-8.046-0.046c-0.012-5.138-0.15-16.113-0.15-16.113  l-16.053,4.87c-3.504,1.023-6.409-0.745-7.791-3.366L7.877,43.155z"
     id="path6" /><path
     d="M32.737,46.65V0h-3.217v47.547L32.737,46.65z"
     id="path8" /><path
     d="M0.502,53.232c-2.213-4.39,3.48-7.303,5.693-2.912l6.937,13.749c1.51,2.844,4.461,4.776,7.86,4.776  c1.061,0,2.052-0.278,3.02-0.479l8.748-2.597c4.644-1.411,6.443,4.776,1.762,6.162l-9.208,2.717  c-1.372,0.43-2.857,0.648-4.391,0.648c-5.924,0-11.041-3.387-13.566-8.339L0.502,53.232z"
     id="path10" /></svg>