<?xml version="1.0" encoding="UTF-8" standalone="no"?>
<svg
   xmlns:dc="http://purl.org/dc/elements/1.1/"
   xmlns:cc="http://creativecommons.org/ns#"
   xmlns:rdf="http://www.w3.org/1999/02/22-rdf-syntax-ns#"
   xmlns:svg="http://www.w3.org/2000/svg"
   xmlns="http://www.w3.org/2000/svg"
   xmlns:sodipodi="http://sodipodi.sourceforge.net/DTD/sodipodi-0.dtd"
   xmlns:inkscape="http://www.inkscape.org/namespaces/inkscape"
   version="1.1"
   x="0px"
   y="0px"
   viewBox="0 0 100 84.211"
   enable-background="new 0 0 100 84.211"
   xml:space="preserve"
   id="svg6"
   sodipodi:docname="2412-skiing-downhill.svg"
   inkscape:version="0.92.0 r"><metadata
     id="metadata12"><rdf:RDF><cc:Work
         rdf:about=""><dc:format>image/svg+xml</dc:format><dc:type
           rdf:resource="http://purl.org/dc/dcmitype/StillImage" /><dc:title></dc:title><cc:license
           rdf:resource="http://creativecommons.org/publicdomain/zero/1.0/" /></cc:Work><cc:License
         rdf:about="http://creativecommons.org/publicdomain/zero/1.0/"><cc:permits
           rdf:resource="http://creativecommons.org/ns#Reproduction" /><cc:permits
           rdf:resource="http://creativecommons.org/ns#Distribution" /><cc:permits
           rdf:resource="http://creativecommons.org/ns#DerivativeWorks" /></cc:License></rdf:RDF></metadata><defs
     id="defs10" /><sodipodi:namedview
     pagecolor="#ffffff"
     bordercolor="#666666"
     borderopacity="1"
     objecttolerance="10"
     gridtolerance="10"
     guidetolerance="10"
     inkscape:pageopacity="0"
     inkscape:pageshadow="2"
     inkscape:window-width="1920"
     inkscape:window-height="1135"
     id="namedview8"
     showgrid="false"
     inkscape:zoom="2.8024843"
     inkscape:cx="-43.845308"
     inkscape:cy="42.105499"
     inkscape:window-x="0"
     inkscape:window-y="36"
     inkscape:window-maximized="1"
     inkscape:current-layer="svg6" /><path
     d="M47.368,0c-5.263,0-10.526,2.631-10.526,10.526c0,2.825,0.23,3.306,0.822,5.757l3.619,14.966L21.71,43.257L3.947,32.895  c-0.591-0.347-1.362-0.357-2.303-0.164c-0.94,0.195-1.646,1.31-1.645,2.467c0.001,1.158,0.507,1.828,1.316,2.302L77.63,82.237  c2.398,1.384,4.562,1.941,6.58,1.974c1.411,0,2.798-0.185,3.947-0.658c2.79-1.147,4.534-3.22,5.756-4.441  c0.611-0.611,0.821-1.356,0.821-2.138c0-1.113-0.677-2.295-2.137-2.466c-0.942-0.11-1.708,0.23-2.304,0.987  c-1.235,1.565-2.777,2.741-4.11,3.288c-1.335,0.548-2.81,0.646-5.921-1.151L31.415,49.014l18.914-11.019  c1.751-1.2,2.642-3.53,2.138-5.592l-2.138-8.717l18.818,11.079l3.551,13.529c0.405,1.515,1.525,2.821,2.96,3.454l12.008,5.264  c8.452,3.704,9.656-4.348,4.275-6.68l-9.868-4.275l-8.389-32.892l-16.117-9.21C53.426,1.564,50,0.006,47.368,0.006V0z"
     id="path2" /><circle
     cx="89.473"
     cy="21.052"
     r="10.526"
     id="circle4" /></svg>