<?xml version="1.0" encoding="UTF-8" standalone="no"?>
<svg
   xmlns:dc="http://purl.org/dc/elements/1.1/"
   xmlns:cc="http://creativecommons.org/ns#"
   xmlns:rdf="http://www.w3.org/1999/02/22-rdf-syntax-ns#"
   xmlns:svg="http://www.w3.org/2000/svg"
   xmlns="http://www.w3.org/2000/svg"
   xmlns:sodipodi="http://sodipodi.sourceforge.net/DTD/sodipodi-0.dtd"
   xmlns:inkscape="http://www.inkscape.org/namespaces/inkscape"
   version="1.0"
   x="0px"
   y="0px"
   viewBox="0 0 92.746 100"
   enable-background="new 0 0 92.746 100"
   xml:space="preserve"
   id="svg8"
   sodipodi:docname="245-ski-jump.svg"
   inkscape:version="0.92.0 r"><metadata
     id="metadata14"><rdf:RDF><cc:Work
         rdf:about=""><dc:format>image/svg+xml</dc:format><dc:type
           rdf:resource="http://purl.org/dc/dcmitype/StillImage" /><dc:title></dc:title><cc:license
           rdf:resource="http://creativecommons.org/publicdomain/zero/1.0/" /><dc:source>https://thenounproject.com/icon/245/</dc:source></cc:Work><cc:License
         rdf:about="http://creativecommons.org/publicdomain/zero/1.0/"><cc:permits
           rdf:resource="http://creativecommons.org/ns#Reproduction" /><cc:permits
           rdf:resource="http://creativecommons.org/ns#Distribution" /><cc:permits
           rdf:resource="http://creativecommons.org/ns#DerivativeWorks" /></cc:License></rdf:RDF></metadata><defs
     id="defs12" /><sodipodi:namedview
     pagecolor="#ffffff"
     bordercolor="#666666"
     borderopacity="1"
     objecttolerance="10"
     gridtolerance="10"
     guidetolerance="10"
     inkscape:pageopacity="0"
     inkscape:pageshadow="2"
     inkscape:window-width="1920"
     inkscape:window-height="1135"
     id="namedview10"
     showgrid="false"
     inkscape:zoom="2.36"
     inkscape:cx="-65.067677"
     inkscape:cy="50"
     inkscape:window-x="0"
     inkscape:window-y="36"
     inkscape:window-maximized="1"
     inkscape:current-layer="svg8" /><path
     d="M73.631,15.788c4.396,0,7.919-3.523,7.919-7.883C81.55,3.546,78.028,0,73.631,0  c-4.358,0-7.883,3.546-7.883,7.905C65.749,12.265,69.273,15.788,73.631,15.788"
     id="path2" /><path
     d="M33.631,47.82l28.414-18.356c3.701-2.365,4.824-7.261,2.471-10.964c-2.34-3.715-7.261-4.837-10.964-2.472  L32.604,29.559c-1.193,0.764-2.126,1.767-2.735,2.938L8.073,75.456C6.795,78,7.798,81.082,10.318,82.36  c2.52,1.289,5.614,0.287,6.903-2.234L33.631,47.82z"
     id="path4" /><path
     d="M88.964,44.81c3.75-2.353,4.921-7.297,2.556-11.06l-2.747,1.685c1.421,2.257,0.729,5.219-1.539,6.617  L0,97.266L1.731,100L88.964,44.81z"
     id="path6" /></svg>