<?xml version="1.0" encoding="UTF-8" standalone="no"?>
<svg
   xmlns:dc="http://purl.org/dc/elements/1.1/"
   xmlns:cc="http://creativecommons.org/ns#"
   xmlns:rdf="http://www.w3.org/1999/02/22-rdf-syntax-ns#"
   xmlns:svg="http://www.w3.org/2000/svg"
   xmlns="http://www.w3.org/2000/svg"
   xmlns:sodipodi="http://sodipodi.sourceforge.net/DTD/sodipodi-0.dtd"
   xmlns:inkscape="http://www.inkscape.org/namespaces/inkscape"
   version="1.1"
   x="0px"
   y="0px"
   viewBox="0 0 83.169472 90"
   enable-background="new 0 0 100 100"
   xml:space="preserve"
   id="svg16"
   sodipodi:docname="29366-skitour.svg"
   inkscape:version="0.92.0 r"
   width="83.169472"
   height="90"><metadata
     id="metadata22"><rdf:RDF><cc:Work
         rdf:about=""><dc:format>image/svg+xml</dc:format><dc:type
           rdf:resource="http://purl.org/dc/dcmitype/StillImage" /><dc:title></dc:title><cc:license
           rdf:resource="http://creativecommons.org/licenses/by/4.0/" /><dc:creator><cc:Agent><dc:title>Felix Grossar</dc:title></cc:Agent></dc:creator><dc:source>https://thenounproject.com/term/ski-touring/29366/</dc:source></cc:Work><cc:License
         rdf:about="http://creativecommons.org/licenses/by/4.0/"><cc:permits
           rdf:resource="http://creativecommons.org/ns#Reproduction" /><cc:permits
           rdf:resource="http://creativecommons.org/ns#Distribution" /><cc:requires
           rdf:resource="http://creativecommons.org/ns#Notice" /><cc:requires
           rdf:resource="http://creativecommons.org/ns#Attribution" /><cc:permits
           rdf:resource="http://creativecommons.org/ns#DerivativeWorks" /></cc:License></rdf:RDF></metadata><defs
     id="defs20" /><sodipodi:namedview
     pagecolor="#ffffff"
     bordercolor="#666666"
     borderopacity="1"
     objecttolerance="10"
     gridtolerance="10"
     guidetolerance="10"
     inkscape:pageopacity="0"
     inkscape:pageshadow="2"
     inkscape:window-width="1920"
     inkscape:window-height="1135"
     id="namedview18"
     showgrid="false"
     inkscape:zoom="3.776"
     inkscape:cx="-9.0364395"
     inkscape:cy="22.324617"
     inkscape:window-x="0"
     inkscape:window-y="36"
     inkscape:window-maximized="1"
     inkscape:current-layer="svg16"
     fit-margin-top="0"
     fit-margin-left="0"
     fit-margin-right="0"
     fit-margin-bottom="0" /><g
     id="g10"
     transform="translate(-7.387,-5.342)"><path
       d="m 21.118,43.226 c -2.512,0 -4.548,-2.098 -4.548,-4.609 V 24.746 c 0,-2.512 2.036,-4.548 4.548,-4.548 2.512,0 4.548,2.036 4.548,4.548 v 13.871 c 0,2.511 -2.037,4.609 -4.548,4.609 z"
       id="path2"
       inkscape:connector-curvature="0" /><circle
       cx="32.335999"
       cy="11.785"
       r="6.4429998"
       id="circle4" /><path
       d="m 89.746,49.797 -2.363,1.364 c 0.918,1.589 0.371,3.629 -1.218,4.547 L 61.487,69.956 c 0.059,-0.136 0.119,-0.272 0.163,-0.419 0.449,-1.513 -0.143,-3.076 -1.347,-3.958 L 72.38,58.607 c 2.892,-1.669 3.886,-5.381 2.217,-8.274 l -2.363,1.364 c 0.917,1.589 0.37,3.629 -1.219,4.547 L 56.967,64.355 54.915,63.746 52.186,46.861 c -0.279,-1.725 -1.744,-3.008 -3.49,-3.056 L 37.793,43.5 V 31.049 l 6.124,6.124 c 0.622,0.621 1.436,0.932 2.251,0.932 0.815,0 1.63,-0.311 2.251,-0.932 l 7.277,-7.276 c 1.244,-1.243 1.244,-3.259 0,-4.502 -1.243,-1.243 -3.258,-1.243 -4.502,0 l -5.026,5.026 -9.724,-9.725 C 35.937,20.19 35.301,19.901 34.643,19.807 33.941,19.479 33.161,19.29 32.336,19.29 c -3.014,0 -5.457,2.444 -5.457,5.457 v 20.421 13.12 l -10.2,15.46 c -0.543,0.823 -0.729,1.832 -0.514,2.795 0.214,0.963 0.811,1.797 1.653,2.312 l 5.4,3.304 c 0.592,0.362 1.248,0.536 1.895,0.536 0.033,0 0.066,-0.005 0.099,-0.006 l -17.825,10.29 1.364,2.363 43.137,-24.905 5.24,1.554 c 0.207,0.061 0.415,0.098 0.623,0.121 L 33.7,85.998 l 1.364,2.363 52.465,-30.29 c 2.893,-1.67 3.887,-5.382 2.217,-8.274 z M 28.222,80.95 C 29.267,79.236 28.728,77 27.015,75.952 l -2.189,-1.339 8.728,-13.229 c 0.392,-0.595 0.601,-1.292 0.601,-2.004 v -8.702 l 11.328,0.317 2.613,16.17 c 0.111,0.688 0.414,1.313 0.856,1.817 z"
       id="path6"
       inkscape:connector-curvature="0" /><path
       stroke-miterlimit="10"
       d="M 48.594,45.622"
       id="path8"
       inkscape:connector-curvature="0"
       style="stroke:#000000;stroke-width:8;stroke-linecap:round;stroke-miterlimit:10" /></g></svg>