<?xml version="1.0" encoding="UTF-8" standalone="no"?>
<svg
   xmlns:dc="http://purl.org/dc/elements/1.1/"
   xmlns:cc="http://creativecommons.org/ns#"
   xmlns:rdf="http://www.w3.org/1999/02/22-rdf-syntax-ns#"
   xmlns:svg="http://www.w3.org/2000/svg"
   xmlns="http://www.w3.org/2000/svg"
   xmlns:sodipodi="http://sodipodi.sourceforge.net/DTD/sodipodi-0.dtd"
   xmlns:inkscape="http://www.inkscape.org/namespaces/inkscape"
   version="1.1"
   x="0px"
   y="0px"
   viewBox="0 0 280.80179 261.353"
   enable-background="new 0 0 360 360"
   xml:space="preserve"
   id="svg12"
   sodipodi:docname="365217-sled.svg"
   width="280.80179"
   height="261.353"
   inkscape:version="0.92.0 r"><metadata
     id="metadata18"><rdf:RDF><cc:Work
         rdf:about=""><dc:format>image/svg+xml</dc:format><dc:type
           rdf:resource="http://purl.org/dc/dcmitype/StillImage" /><dc:title></dc:title><cc:license
           rdf:resource="http://creativecommons.org/licenses/by-sa/4.0/" /><dc:creator><cc:Agent><dc:title>Marc Serre</dc:title></cc:Agent></dc:creator><dc:source>https://thenounproject.com/term/sledding/365217/</dc:source></cc:Work><cc:License
         rdf:about="http://creativecommons.org/licenses/by-sa/4.0/"><cc:permits
           rdf:resource="http://creativecommons.org/ns#Reproduction" /><cc:permits
           rdf:resource="http://creativecommons.org/ns#Distribution" /><cc:requires
           rdf:resource="http://creativecommons.org/ns#Notice" /><cc:requires
           rdf:resource="http://creativecommons.org/ns#Attribution" /><cc:permits
           rdf:resource="http://creativecommons.org/ns#DerivativeWorks" /><cc:requires
           rdf:resource="http://creativecommons.org/ns#ShareAlike" /></cc:License></rdf:RDF></metadata><defs
     id="defs16" /><sodipodi:namedview
     pagecolor="#ffffff"
     bordercolor="#666666"
     borderopacity="1"
     objecttolerance="10"
     gridtolerance="10"
     guidetolerance="10"
     inkscape:pageopacity="0"
     inkscape:pageshadow="2"
     inkscape:window-width="1920"
     inkscape:window-height="1135"
     id="namedview14"
     showgrid="false"
     fit-margin-top="0"
     fit-margin-left="0"
     fit-margin-right="0"
     fit-margin-bottom="0"
     inkscape:zoom="1.4833529"
     inkscape:cx="167.28082"
     inkscape:cy="68.014149"
     inkscape:window-x="0"
     inkscape:window-y="36"
     inkscape:window-maximized="1"
     inkscape:current-layer="svg12" /><g
     id="g6"
     transform="translate(-37.375707,-59.551)"><path
       d="m 317.461,299.842 c -2.016,-4.754 -7.443,-6.988 -12.199,-5.043 -23.078,9.727 -40.08,9.848 -56.795,0.48 -2.809,-1.561 -8.908,-5.115 -17.193,-9.99 l 18.154,-12.943 c 3.723,2.232 7.229,4.299 10.518,6.195 1.441,0.912 3.123,1.297 4.707,1.297 3.219,0 6.316,-1.633 8.021,-4.562 2.643,-4.443 1.152,-10.135 -3.289,-12.752 -5.572,-3.266 -11.889,-7.012 -18.684,-11.07 0.648,-1.609 1.08,-3.434 1.08,-5.332 V 190.6 c 0,-7.709 -6.291,-13.977 -14,-13.977 h -33.789 l 14.721,-12.607 c 12.729,-10.855 14.193,-29.971 3.289,-42.676 -10.854,-12.703 -29.945,-14.191 -42.674,-3.312 l -41.713,35.686 c -7.301,6.291 -10.855,15.273 -10.494,24.207 -18.611,-11.07 -31.172,-18.564 -31.557,-18.779 -4.418,-2.666 -10.133,-1.201 -12.775,3.193 -2.641,4.418 -1.201,10.109 3.219,12.775 0.287,0.145 5.475,3.266 13.951,8.334 L 81.756,196.436 C 63.914,185.797 51.93,178.641 51.475,178.375 c -4.42,-2.641 -10.135,-1.199 -12.777,3.219 -2.641,4.395 -1.199,10.135 3.195,12.752 7.275,4.371 177.564,106.049 197.449,117.191 11.166,6.244 22.406,9.367 34.533,9.367 11.863,0 24.494,-2.979 38.592,-8.861 4.73,-2.018 6.965,-7.445 4.994,-12.201 z M 223.805,235.531 C 206.994,225.517 188.91,214.806 171.813,204.599 h 51.992 z M 117.49,193.889 c 30.643,18.275 77.928,46.445 114.359,68.059 l -18.156,12.969 c -32.18,-19.02 -79.248,-47.07 -114.479,-68.059 z"
       id="path2"
       inkscape:connector-curvature="0" /><path
       d="m 261.459,122.35 c 17.314,0 31.387,-14.025 31.387,-31.387 0,-17.34 -14.072,-31.412 -31.387,-31.412 -17.363,0 -31.387,14.072 -31.387,31.412 0,17.361 14.024,31.387 31.387,31.387 z"
       id="path4"
       inkscape:connector-curvature="0" /></g></svg>