<?xml version="1.0" encoding="UTF-8" standalone="no"?>
<svg
   xmlns:dc="http://purl.org/dc/elements/1.1/"
   xmlns:cc="http://creativecommons.org/ns#"
   xmlns:rdf="http://www.w3.org/1999/02/22-rdf-syntax-ns#"
   xmlns:svg="http://www.w3.org/2000/svg"
   xmlns="http://www.w3.org/2000/svg"
   xmlns:sodipodi="http://sodipodi.sourceforge.net/DTD/sodipodi-0.dtd"
   xmlns:inkscape="http://www.inkscape.org/namespaces/inkscape"
   version="1.0"
   x="0px"
   y="0px"
   viewBox="0 0 20 20"
   enable-background="new 0 0 24 24"
   xml:space="preserve"
   id="svg24"
   sodipodi:docname="61698-mountain-biking.svg"
   width="20"
   height="20"
   inkscape:version="0.92.1 r"><metadata
     id="metadata30"><rdf:RDF><cc:Work
         rdf:about=""><dc:format>image/svg+xml</dc:format><dc:type
           rdf:resource="http://purl.org/dc/dcmitype/StillImage" /><dc:title></dc:title></cc:Work></rdf:RDF></metadata><defs
     id="defs28" /><sodipodi:namedview
     pagecolor="#ffffff"
     bordercolor="#666666"
     borderopacity="1"
     objecttolerance="10"
     gridtolerance="10"
     guidetolerance="10"
     inkscape:pageopacity="0"
     inkscape:pageshadow="2"
     inkscape:window-width="1920"
     inkscape:window-height="1135"
     id="namedview26"
     showgrid="false"
     fit-margin-top="0"
     fit-margin-left="0"
     fit-margin-right="0"
     fit-margin-bottom="0"
     inkscape:zoom="9.8333333"
     inkscape:cx="10"
     inkscape:cy="10"
     inkscape:window-x="0"
     inkscape:window-y="36"
     inkscape:window-maximized="1"
     inkscape:current-layer="svg24" /><circle
     cx="11"
     cy="2"
     r="2"
     id="circle2" /><g
     id="g8"
     transform="translate(-2,-2)"><g
       id="g6"><path
         d="m 18,12.6 c 1.3,0 2.4,1.1 2.4,2.4 0,1.3 -1.1,2.4 -2.4,2.4 -1.3,0 -2.4,-1.1 -2.4,-2.4 0,-1.3 1.1,-2.4 2.4,-2.4 M 18,11 c -2.2,0 -4,1.8 -4,4 0,2.2 1.8,4 4,4 2.2,0 4,-1.8 4,-4 0,-2.2 -1.8,-4 -4,-4 z"
         id="path4"
         inkscape:connector-curvature="0" /></g></g><g
     id="g14"
     transform="translate(-2,-2)"><g
       id="g12"><path
         d="m 6,15.6 c 1.3,0 2.4,1.1 2.4,2.4 0,1.3 -1.1,2.4 -2.4,2.4 C 4.7,20.4 3.6,19.3 3.6,18 3.6,16.7 4.7,15.6 6,15.6 M 6,14 c -2.2,0 -4,1.8 -4,4 0,2.2 1.8,4 4,4 2.2,0 4,-1.8 4,-4 0,-2.2 -1.8,-4 -4,-4 z"
         id="path10"
         inkscape:connector-curvature="0" /></g></g><path
     d="M 9.6,12.1 9.5,10.3 6.5,9 9.2,5.7 12.2,6 8.6,3.3 C 8,2.8 7.2,2.9 6.8,3.5 5.8,4.6 4.3,6.4 3.5,7.4 2.6,8.5 3,10.2 4.4,10.6 Z"
     id="path16"
     inkscape:connector-curvature="0" /><polyline
     stroke-miterlimit="10"
     points="17,9 13.2,8.6 9.9,6.1 "
     id="polyline18"
     style="fill:none;stroke:#000000;stroke-width:2;stroke-miterlimit:10"
     transform="translate(-2,-2)" /><polyline
     stroke-miterlimit="10"
     points="13,18 11.3,13 7.5,11.1 "
     id="polyline20"
     style="fill:none;stroke:#000000;stroke-width:2;stroke-miterlimit:10"
     transform="translate(-2,-2)" /><path
     d="m 0.8,6.8 v 0 C 0.1,6.3 0.1,5.3 0.6,4.6 L 1.9,3 C 2.9,1.8 4.6,1.6 5.8,2.6 L 6,2.8 3,6.6 C 2.4,7.3 1.5,7.4 0.8,6.8 Z"
     id="path22"
     inkscape:connector-curvature="0" /></svg>