<?xml version="1.0" encoding="UTF-8" standalone="no"?>
<svg
   xmlns:dc="http://purl.org/dc/elements/1.1/"
   xmlns:cc="http://creativecommons.org/ns#"
   xmlns:rdf="http://www.w3.org/1999/02/22-rdf-syntax-ns#"
   xmlns:svg="http://www.w3.org/2000/svg"
   xmlns="http://www.w3.org/2000/svg"
   xmlns:sodipodi="http://sodipodi.sourceforge.net/DTD/sodipodi-0.dtd"
   xmlns:inkscape="http://www.inkscape.org/namespaces/inkscape"
   version="1.1"
   x="0px"
   y="0px"
   viewBox="0 0 25.90711 30.215117"
   enable-background="new 0 0 40 40"
   xml:space="preserve"
   id="svg4"
   sodipodi:docname="8803-platter-lift.svg"
   inkscape:version="0.92.0 r"
   width="25.90711"
   height="30.215117"><metadata
     id="metadata10"><rdf:RDF><cc:Work
         rdf:about=""><dc:format>image/svg+xml</dc:format><dc:type
           rdf:resource="http://purl.org/dc/dcmitype/StillImage" /><dc:title></dc:title><cc:license
           rdf:resource="http://creativecommons.org/publicdomain/zero/1.0/" /><dc:source>https://thenounproject.com/term/chair-lift/8803/</dc:source><dc:creator><cc:Agent><dc:title>georges reuland</dc:title></cc:Agent></dc:creator></cc:Work><cc:License
         rdf:about="http://creativecommons.org/publicdomain/zero/1.0/"><cc:permits
           rdf:resource="http://creativecommons.org/ns#Reproduction" /><cc:permits
           rdf:resource="http://creativecommons.org/ns#Distribution" /><cc:permits
           rdf:resource="http://creativecommons.org/ns#DerivativeWorks" /></cc:License></rdf:RDF></metadata><defs
     id="defs8" /><sodipodi:namedview
     pagecolor="#ffffff"
     bordercolor="#666666"
     borderopacity="1"
     objecttolerance="10"
     gridtolerance="10"
     guidetolerance="10"
     inkscape:pageopacity="0"
     inkscape:pageshadow="2"
     inkscape:window-width="1920"
     inkscape:window-height="1135"
     id="namedview6"
     showgrid="false"
     inkscape:zoom="5.9"
     inkscape:cx="-32.553271"
     inkscape:cy="14.502"
     inkscape:window-x="0"
     inkscape:window-y="36"
     inkscape:window-maximized="1"
     inkscape:current-layer="svg4"
     fit-margin-top="0"
     fit-margin-left="0"
     fit-margin-right="0"
     fit-margin-bottom="0" /><path
     d="m 6.306,5.439116 c -1.041,0.117 -1.789,1.059 -1.67,2.1 l 0.787,6.863 c 0.055,0.48 0.293,0.895 0.627,1.194 0.123,0.219 0.291,0.414 0.514,0.559 l 3.973,2.617 v 5.293 c 0,0.725 0.586,1.311 1.311,1.311 0.723,0 1.307,-0.586 1.307,-1.311 v -6.686 c 0,-0.01 -0.002,-0.02 -0.002,-0.027 0.004,-0.531 -0.25,-1.053 -0.725,-1.367 l -3.246,-2.136 -0.621,-5.415 h 5.455 c 0.59,0 1.066,-0.479 1.066,-1.066 0,-0.587 -0.477,-1.065 -1.066,-1.065 H 8.113 c -0.377,-0.59 -1.065,-0.951 -1.807,-0.864 z m 9.694,0.973 4.545,-5.05 L 19.803,0.68911603 15.362,5.625116 c 0.268,0.209 0.487,0.477 0.638,0.787 z m -5.399,5.961 2.537,-2.802 h -1.35 l -1.93,2.13 z m 15.24,8.936 -0.906,0.213 c 0.18,0.76 -0.287,1.52 -1.033,1.705 l -23.902,6.074 0.227,0.914 23.896,-6.07 c 1.254,-0.303 2.021,-1.573 1.718,-2.836 z m -18.777,-1.418 c 0.275,0.219 0.674,0.172 0.893,-0.104 0.219,-0.273 0.174,-0.674 -0.102,-0.893 l -4.117,-3.266 c -0.275,-0.216 -0.676,-0.17 -0.893,0.104 -0.219,0.277 -0.174,0.678 0.102,0.895 z m -0.838,-14.999 c 1.336,-0.014 2.414,-1.12 2.412,-2.473 0,-1.351 -1.092,-2.43199997 -2.428,-2.41899996736 C 4.872,0.01011603 3.786,1.116116 3.794,2.469116 c 0.004,1.349 1.088,2.433 2.432,2.423 z"
     id="path2"
     inkscape:connector-curvature="0" /></svg>