<?xml version="1.0" encoding="UTF-8" standalone="no"?>
<svg
   xmlns:dc="http://purl.org/dc/elements/1.1/"
   xmlns:cc="http://creativecommons.org/ns#"
   xmlns:rdf="http://www.w3.org/1999/02/22-rdf-syntax-ns#"
   xmlns:svg="http://www.w3.org/2000/svg"
   xmlns="http://www.w3.org/2000/svg"
   xmlns:sodipodi="http://sodipodi.sourceforge.net/DTD/sodipodi-0.dtd"
   xmlns:inkscape="http://www.inkscape.org/namespaces/inkscape"
   version="1.0"
   x="0px"
   y="0px"
   viewBox="0 0 93.280851 100.2162"
   enable-background="new 0 0 92.746 100"
   xml:space="preserve"
   id="svg8"
   sodipodi:docname="sports-245-ski-jump.svg"
   inkscape:version="0.92.0 r"
   width="93.280853"
   height="100.2162"><metadata
     id="metadata14"><rdf:RDF><cc:Work
         rdf:about=""><dc:format>image/svg+xml</dc:format><dc:type
           rdf:resource="http://purl.org/dc/dcmitype/StillImage" /><dc:title></dc:title><cc:license
           rdf:resource="http://creativecommons.org/publicdomain/zero/1.0/" /><dc:source>https://thenounproject.com/icon/245/</dc:source></cc:Work><cc:License
         rdf:about="http://creativecommons.org/publicdomain/zero/1.0/"><cc:permits
           rdf:resource="http://creativecommons.org/ns#Reproduction" /><cc:permits
           rdf:resource="http://creativecommons.org/ns#Distribution" /><cc:permits
           rdf:resource="http://creativecommons.org/ns#DerivativeWorks" /></cc:License></rdf:RDF></metadata><defs
     id="defs12" /><sodipodi:namedview
     pagecolor="#ffffff"
     bordercolor="#666666"
     borderopacity="1"
     objecttolerance="10"
     gridtolerance="10"
     guidetolerance="10"
     inkscape:pageopacity="0"
     inkscape:pageshadow="2"
     inkscape:window-width="1920"
     inkscape:window-height="1135"
     id="namedview10"
     showgrid="false"
     inkscape:zoom="5.6568542"
     inkscape:cx="-1.075133"
     inkscape:cy="41.445459"
     inkscape:window-x="0"
     inkscape:window-y="36"
     inkscape:window-maximized="1"
     inkscape:current-layer="svg8"
     fit-margin-top="0"
     fit-margin-left="0"
     fit-margin-right="0"
     fit-margin-bottom="0" /><g
     style="fill:#000000;fill-opacity:1;stroke:#ffffff;stroke-width:4.19036388;stroke-miterlimit:4;stroke-dasharray:none;stroke-opacity:1"
     transform="matrix(0.95457105,0,0,0.95457105,2.7598065,2)"
     id="g4495"><path
       inkscape:connector-curvature="0"
       d="m 73.631,15.788 c 4.396,0 7.919,-3.523 7.919,-7.883 C 81.55,3.546 78.028,0 73.631,0 c -4.358,0 -7.883,3.546 -7.883,7.905 10e-4,4.36 3.525,7.883 7.883,7.883"
       id="path4489"
       style="fill:#000000;fill-opacity:1;stroke:#ffffff;stroke-width:4.19036388;stroke-miterlimit:4;stroke-dasharray:none;stroke-opacity:1" /><path
       inkscape:connector-curvature="0"
       d="M 33.631,47.82 62.045,29.464 C 65.746,27.099 66.869,22.203 64.516,18.5 62.176,14.785 57.255,13.663 53.552,16.028 L 32.604,29.559 c -1.193,0.764 -2.126,1.767 -2.735,2.938 L 8.073,75.456 C 6.795,78 7.798,81.082 10.318,82.36 c 2.52,1.289 5.614,0.287 6.903,-2.234 z"
       id="path4491"
       style="fill:#000000;fill-opacity:1;stroke:#ffffff;stroke-width:4.19036388;stroke-miterlimit:4;stroke-dasharray:none;stroke-opacity:1" /><path
       inkscape:connector-curvature="0"
       d="m 88.964,44.81 c 3.75,-2.353 4.921,-7.297 2.556,-11.06 l -2.747,1.685 c 1.421,2.257 0.729,5.219 -1.539,6.617 L 0,97.266 1.731,100 Z"
       id="path4493"
       style="fill:#000000;fill-opacity:1;stroke:#ffffff;stroke-width:4.19036388;stroke-miterlimit:4;stroke-dasharray:none;stroke-opacity:1" /></g><g
     id="g4487"
     transform="matrix(0.95457105,0,0,0.95457105,2.7598065,2)"
     style="fill:#000000;fill-opacity:1"><path
       style="fill:#000000;fill-opacity:1"
       id="path2"
       d="m 73.631,15.788 c 4.396,0 7.919,-3.523 7.919,-7.883 C 81.55,3.546 78.028,0 73.631,0 c -4.358,0 -7.883,3.546 -7.883,7.905 10e-4,4.36 3.525,7.883 7.883,7.883"
       inkscape:connector-curvature="0" /><path
       style="fill:#000000;fill-opacity:1"
       id="path4"
       d="M 33.631,47.82 62.045,29.464 C 65.746,27.099 66.869,22.203 64.516,18.5 62.176,14.785 57.255,13.663 53.552,16.028 L 32.604,29.559 c -1.193,0.764 -2.126,1.767 -2.735,2.938 L 8.073,75.456 C 6.795,78 7.798,81.082 10.318,82.36 c 2.52,1.289 5.614,0.287 6.903,-2.234 z"
       inkscape:connector-curvature="0" /><path
       style="fill:#000000;fill-opacity:1"
       id="path6"
       d="m 88.964,44.81 c 3.75,-2.353 4.921,-7.297 2.556,-11.06 l -2.747,1.685 c 1.421,2.257 0.729,5.219 -1.539,6.617 L 0,97.266 1.731,100 Z"
       inkscape:connector-curvature="0" /></g></svg>