<?xml version="1.0" encoding="UTF-8" standalone="no"?>
<svg
   xmlns:dc="http://purl.org/dc/elements/1.1/"
   xmlns:cc="http://creativecommons.org/ns#"
   xmlns:rdf="http://www.w3.org/1999/02/22-rdf-syntax-ns#"
   xmlns:svg="http://www.w3.org/2000/svg"
   xmlns="http://www.w3.org/2000/svg"
   xmlns:sodipodi="http://sodipodi.sourceforge.net/DTD/sodipodi-0.dtd"
   xmlns:inkscape="http://www.inkscape.org/namespaces/inkscape"
   version="1.1"
   x="0px"
   y="0px"
   viewBox="0 0 31.999999 32"
   enable-background="new 0 0 40 40"
   xml:space="preserve"
   id="svg4"
   sodipodi:docname="transportation-8803-platter-lift.svg"
   inkscape:version="0.92.0 r"
   width="32"
   height="32"><metadata
     id="metadata10"><rdf:RDF><cc:Work
         rdf:about=""><dc:format>image/svg+xml</dc:format><dc:type
           rdf:resource="http://purl.org/dc/dcmitype/StillImage" /><dc:title></dc:title><cc:license
           rdf:resource="http://creativecommons.org/publicdomain/zero/1.0/" /><dc:source>https://thenounproject.com/term/chair-lift/8803/</dc:source><dc:creator><cc:Agent><dc:title>georges reuland</dc:title></cc:Agent></dc:creator></cc:Work><cc:License
         rdf:about="http://creativecommons.org/publicdomain/zero/1.0/"><cc:permits
           rdf:resource="http://creativecommons.org/ns#Reproduction" /><cc:permits
           rdf:resource="http://creativecommons.org/ns#Distribution" /><cc:permits
           rdf:resource="http://creativecommons.org/ns#DerivativeWorks" /></cc:License></rdf:RDF></metadata><defs
     id="defs8" /><sodipodi:namedview
     pagecolor="#e6e6e6"
     bordercolor="#666666"
     borderopacity="1"
     objecttolerance="10"
     gridtolerance="10"
     guidetolerance="10"
     inkscape:pageopacity="0"
     inkscape:pageshadow="2"
     inkscape:window-width="1920"
     inkscape:window-height="1135"
     id="namedview6"
     showgrid="true"
     inkscape:zoom="23.6"
     inkscape:cx="8.5241021"
     inkscape:cy="18.081953"
     inkscape:window-x="0"
     inkscape:window-y="36"
     inkscape:window-maximized="1"
     inkscape:current-layer="svg4"
     fit-margin-top="0"
     fit-margin-left="0"
     fit-margin-right="0"
     fit-margin-bottom="0"><inkscape:grid
       type="xygrid"
       id="grid4483" /></sodipodi:namedview><g
     id="g4487"
     transform="translate(0.08828691,-0.06415323)"><path
       d="M 9.967432,7.3003715 C 9.0290944,7.405833 8.3548621,8.2549327 8.4621264,9.1932701 l 0.709386,6.1861709 c 0.049576,0.432662 0.2641044,0.806736 0.5651654,1.076249 0.1108702,0.197403 0.2623022,0.373171 0.4633092,0.503871 l 3.581184,2.358912 v 4.771005 c 0,0.6535 0.528209,1.181709 1.18171,1.181709 0.651697,0 1.178103,-0.528209 1.178103,-1.181709 V 18.06285 c 0,-0.0091 -0.0018,-0.01802 -0.0018,-0.02435 0.0036,-0.478631 -0.225345,-0.949153 -0.6535,-1.232186 L 12.559757,14.880974 12,10 h 4.917029 c 0.531814,0 0.96087,-0.4317594 0.96087,-0.96087 0,-0.5291105 -0.429957,-0.9599702 -0.96087,-0.9599702 H 11.596226 C 11.256405,7.5473496 10.636255,7.2219513 9.967432,7.3003715 Z M 18.70541,8.1774148 22.802184,3.6254446 22.133359,3.0188158 18.13033,7.4680281 c 0.24157,0.1883885 0.438972,0.4299587 0.57508,0.7093867 z m -4.86655,5.3731272 2.2868,-2.525668 h -1.216862 l -1.739664,1.91994 z m 13.737033,8.054733 -0.81665,0.191994 c 0.162247,0.685048 -0.258697,1.370098 -0.931127,1.536853 L 4.283328,28.809105 4.4879413,29.632966 26.027322,24.161588 c 1.130331,-0.273117 1.821689,-1.41787 1.548571,-2.556313 z M 10.650677,20.327117 c 0.24788,0.197402 0.60753,0.155038 0.804933,-0.09375 0.197403,-0.246076 0.15684,-0.60753 -0.09194,-0.804931 L 7.6526868,16.484534 C 7.4048073,16.289835 7.043354,16.331299 6.8477544,16.57828 6.6503522,16.827961 6.6909143,17.189415 6.9396953,17.385014 Z M 9.895321,6.8073165 c 1.204244,-0.012619 2.175932,-1.0095457 2.17413,-2.2291132 0,-1.2177645 -0.984309,-2.1921563 -2.188552,-2.1804384 -1.206047,0.00902 -2.1849458,1.0059401 -2.1777348,2.2255076 0.0036,1.2159617 0.9807015,2.1930578 2.1921568,2.184044 z"
       id="path4482"
       inkscape:connector-curvature="0"
       style="fill:#0092da;fill-opacity:1;stroke:#ffffff;stroke-width:0.90138012;stroke-miterlimit:4;stroke-dasharray:none;stroke-opacity:1" /><path
       style="fill:#0092da;fill-opacity:1;stroke-width:0.90138012"
       inkscape:connector-curvature="0"
       id="path2"
       d="M 9.967432,7.3003715 C 9.0290944,7.405833 8.3548621,8.2549327 8.4621264,9.1932701 l 0.709386,6.1861709 c 0.049576,0.432662 0.2641044,0.806736 0.5651654,1.076249 0.1108702,0.197403 0.2623022,0.373171 0.4633092,0.503871 l 3.581184,2.358912 v 4.771005 c 0,0.6535 0.528209,1.181709 1.18171,1.181709 0.651697,0 1.178103,-0.528209 1.178103,-1.181709 V 18.06285 c 0,-0.0091 -0.0018,-0.01802 -0.0018,-0.02435 0.0036,-0.478631 -0.225345,-0.949153 -0.6535,-1.232186 L 12.559757,14.880974 12,10 h 4.917029 c 0.531814,0 0.96087,-0.4317594 0.96087,-0.96087 0,-0.5291105 -0.429957,-0.9599702 -0.96087,-0.9599702 H 11.596226 C 11.256405,7.5473496 10.636255,7.2219513 9.967432,7.3003715 Z M 18.70541,8.1774148 22.802184,3.6254446 22.133359,3.0188158 18.13033,7.4680281 c 0.24157,0.1883885 0.438972,0.4299587 0.57508,0.7093867 z m -4.86655,5.3731272 2.2868,-2.525668 h -1.216862 l -1.739664,1.91994 z m 13.737033,8.054733 -0.81665,0.191994 c 0.162247,0.685048 -0.258697,1.370098 -0.931127,1.536853 L 4.283328,28.809105 4.4879413,29.632966 26.027322,24.161588 c 1.130331,-0.273117 1.821689,-1.41787 1.548571,-2.556313 z M 10.650677,20.327117 c 0.24788,0.197402 0.60753,0.155038 0.804933,-0.09375 0.197403,-0.246076 0.15684,-0.60753 -0.09194,-0.804931 L 7.6526868,16.484534 C 7.4048073,16.289835 7.043354,16.331299 6.8477544,16.57828 6.6503522,16.827961 6.6909143,17.189415 6.9396953,17.385014 Z M 9.895321,6.8073165 c 1.204244,-0.012619 2.175932,-1.0095457 2.17413,-2.2291132 0,-1.2177645 -0.984309,-2.1921563 -2.188552,-2.1804384 -1.206047,0.00902 -2.1849458,1.0059401 -2.1777348,2.2255076 0.0036,1.2159617 0.9807015,2.1930578 2.1921568,2.184044 z" /></g></svg>