<?xml version="1.0" encoding="UTF-8" standalone="no"?>
<!-- Created with Inkscape (http://www.inkscape.org/) -->

<svg
   xmlns:dc="http://purl.org/dc/elements/1.1/"
   xmlns:cc="http://creativecommons.org/ns#"
   xmlns:rdf="http://www.w3.org/1999/02/22-rdf-syntax-ns#"
   xmlns:svg="http://www.w3.org/2000/svg"
   xmlns="http://www.w3.org/2000/svg"
   xmlns:sodipodi="http://sodipodi.sourceforge.net/DTD/sodipodi-0.dtd"
   xmlns:inkscape="http://www.inkscape.org/namespaces/inkscape"
   version="1.0"
   width="16"
   height="16"
   id="svg2"
   sodipodi:version="0.32"
   inkscape:version="0.91 r13725"
   sodipodi:docname="golf.svg"
   inkscape:output_extension="org.inkscape.output.svg.inkscape">
  <metadata
     id="metadata2975">
    <rdf:RDF>
      <cc:Work
         rdf:about="">
        <dc:format>image/svg+xml</dc:format>
        <dc:type
           rdf:resource="http://purl.org/dc/dcmitype/StillImage" />
        <cc:license
           rdf:resource="http://web.resource.org/cc/PublicDomain" />
        <dc:language>en</dc:language>
        <dc:title></dc:title>
      </cc:Work>
    </rdf:RDF>
  </metadata>
  <g
     style="stroke:#ffffff;stroke-width:1;stroke-miterlimit:4;stroke-dasharray:none;stroke-opacity:1"
     id="g4270">
    <path
       style="fill:#39ac39;fill-opacity:1;fill-rule:evenodd;stroke:#ffffff;stroke-width:1;stroke-linecap:butt;stroke-linejoin:miter;stroke-miterlimit:4;stroke-dasharray:none;stroke-opacity:1"
       d="m 2.0058594,2.0390625 0,0.25 0,11.7050785 0.7890625,0 0,-8.5625004 3.9707031,-1.6171875 -3.9707031,-1.4765625 0,-0.2988281 -0.7890625,0 z"
       id="path4272"
       inkscape:connector-curvature="0" />
    <path
       style="font-style:normal;font-weight:normal;font-size:40px;font-family:'Bitstream Vera Sans';fill:#39ac39;fill-opacity:1;stroke:#ffffff;stroke-width:1;stroke-linecap:butt;stroke-linejoin:miter;stroke-miterlimit:4;stroke-dasharray:none;stroke-opacity:1"
       d="M 10.204867,4.5988767 C 10.20486,4.342377 10.112257,4.1262296 9.9270568,3.9504337 9.7418424,3.7746543 9.5209849,3.6867602 9.2644829,3.6867523 9.0082594,3.6867602 8.7898651,3.7746543 8.6093006,3.9504337 8.4287251,4.1262296 8.3384409,4.342377 8.3384458,4.5988767 c -4.9e-6,0.2562258 0.090279,0.4722288 0.2708548,0.6480088 0.1805645,0.1757943 0.3989588,0.2636884 0.6551823,0.2636823 0.256502,6.1e-6 0.4773595,-0.087888 0.6625739,-0.2636823 0.1852002,-0.17578 0.2778032,-0.391783 0.2778102,-0.6480088 l 0,0 z M 7.7545645,14.08663 c 0.1994044,-2e-6 0.3608442,-0.09493 0.4843212,-0.284767 l 2.6781183,-4.031958 0.1426,0.555621 -0.398673,3.020274 c -0.01914,0.151874 0.01405,0.287229 0.09956,0.406065 0.08549,0.118832 0.204185,0.192451 0.356069,0.220857 0.152157,0.0284 0.292294,-0.0025 0.420413,-0.0926 0.128099,-0.09015 0.201718,-0.211295 0.220857,-0.363459 l 0.413021,-3.091141 c 0.0096,-0.104634 9.8e-5,-0.213899 -0.02826,-0.327808 l -0.912122,-3.6328489 2.379438,-0.427368 c 0.12346,-0.018834 0.223165,-0.082888 0.299114,-0.1921644 0.07592,-0.1092623 0.104336,-0.225633 0.08521,-0.349111 C 13.965821,5.3727568 13.894661,5.2682699 13.780764,5.18276 L 8.310187,1.5786036 7.8115177,2.3050873 c -0.123476,0.1710145 -0.094927,0.318253 0.085648,0.4417149 0.1707108,0.1043516 0.3178038,0.075802 0.4412806,-0.085648 L 8.6236477,2.233786 13.068193,5.1544992 9.4357787,5.8096815 C 9.3027361,5.838093 9.1958578,5.9069297 9.1151434,6.0161929 9.0344171,6.1254683 9.0130418,6.2418389 9.0510167,6.365304 l 0.7834358,3.0628806 -2.56421,3.8324024 c -0.047537,0.08521 -0.071305,0.175351 -0.071301,0.27042 -4e-6,0.151874 0.054631,0.282448 0.1639043,0.391718 0.1092654,0.109267 0.2398378,0.163903 0.3917189,0.163905 l 0,0 z"
       id="path4274"
       inkscape:connector-curvature="0" />
  </g>
  <g
     id="g4158"
     style="stroke:#ffffff;stroke-opacity:1;stroke-width:0;stroke-miterlimit:4;stroke-dasharray:none">
    <path
       id="path2998"
       d="M 2.0058594 2.0390625 L 2.0058594 2.2890625 L 2.0058594 13.994141 L 2.7949219 13.994141 L 2.7949219 5.4316406 L 6.765625 3.8144531 L 2.7949219 2.3378906 L 2.7949219 2.0390625 L 2.0058594 2.0390625 z "
       style="fill:#39ac39;fill-opacity:1;fill-rule:evenodd;stroke:#ffffff;stroke-width:0;stroke-linecap:butt;stroke-linejoin:miter;stroke-opacity:1;stroke-miterlimit:4;stroke-dasharray:none" />
    <path
       inkscape:connector-curvature="0"
       id="flowRoot2383"
       d="M 10.204867,4.5988767 C 10.20486,4.342377 10.112257,4.1262296 9.9270568,3.9504337 9.7418424,3.7746543 9.5209849,3.6867602 9.2644829,3.6867523 9.0082594,3.6867602 8.7898651,3.7746543 8.6093006,3.9504337 8.4287251,4.1262296 8.3384409,4.342377 8.3384458,4.5988767 c -4.9e-6,0.2562258 0.090279,0.4722288 0.2708548,0.6480088 0.1805645,0.1757943 0.3989588,0.2636884 0.6551823,0.2636823 0.256502,6.1e-6 0.4773595,-0.087888 0.6625739,-0.2636823 0.1852002,-0.17578 0.2778032,-0.391783 0.2778102,-0.6480088 l 0,0 z M 7.7545645,14.08663 c 0.1994044,-2e-6 0.3608442,-0.09493 0.4843212,-0.284767 l 2.6781183,-4.031958 0.1426,0.555621 -0.398673,3.020274 c -0.01914,0.151874 0.01405,0.287229 0.09956,0.406065 0.08549,0.118832 0.204185,0.192451 0.356069,0.220857 0.152157,0.0284 0.292294,-0.0025 0.420413,-0.0926 0.128099,-0.09015 0.201718,-0.211295 0.220857,-0.363459 l 0.413021,-3.091141 c 0.0096,-0.104634 9.8e-5,-0.213899 -0.02826,-0.327808 l -0.912122,-3.6328489 2.379438,-0.427368 c 0.12346,-0.018834 0.223165,-0.082888 0.299114,-0.1921644 0.07592,-0.1092623 0.104336,-0.225633 0.08521,-0.349111 C 13.965821,5.3727568 13.894661,5.2682699 13.780764,5.18276 L 8.310187,1.5786036 7.8115177,2.3050873 c -0.123476,0.1710145 -0.094927,0.318253 0.085648,0.4417149 0.1707108,0.1043516 0.3178038,0.075802 0.4412806,-0.085648 L 8.6236477,2.233786 13.068193,5.1544992 9.4357787,5.8096815 C 9.3027361,5.838093 9.1958578,5.9069297 9.1151434,6.0161929 9.0344171,6.1254683 9.0130418,6.2418389 9.0510167,6.365304 l 0.7834358,3.0628806 -2.56421,3.8324024 c -0.047537,0.08521 -0.071305,0.175351 -0.071301,0.27042 -4e-6,0.151874 0.054631,0.282448 0.1639043,0.391718 0.1092654,0.109267 0.2398378,0.163903 0.3917189,0.163905 l 0,0 z"
       style="font-style:normal;font-weight:normal;font-size:40px;font-family:'Bitstream Vera Sans';fill:#39ac39;fill-opacity:1;stroke:#ffffff;stroke-width:0;stroke-linecap:butt;stroke-linejoin:miter;stroke-opacity:1;stroke-miterlimit:4;stroke-dasharray:none" />
  </g>
</svg>
