<?xml version="1.0" encoding="UTF-8" standalone="no"?>
<!-- Created with Inkscape (http://www.inkscape.org/) -->

<svg
   xmlns:dc="http://purl.org/dc/elements/1.1/"
   xmlns:cc="http://creativecommons.org/ns#"
   xmlns:rdf="http://www.w3.org/1999/02/22-rdf-syntax-ns#"
   xmlns:svg="http://www.w3.org/2000/svg"
   xmlns="http://www.w3.org/2000/svg"
   xmlns:sodipodi="http://sodipodi.sourceforge.net/DTD/sodipodi-0.dtd"
   xmlns:inkscape="http://www.inkscape.org/namespaces/inkscape"
   version="1.0"
   width="16"
   height="16"
   id="svg2"
   sodipodi:version="0.32"
   inkscape:version="0.91 r13725"
   sodipodi:docname="minature_golf.svg"
   inkscape:output_extension="org.inkscape.output.svg.inkscape"
   shape-rendering="crispEdges">
  <metadata
     id="metadata10">
    <rdf:RDF>
      <cc:Work
         rdf:about="">
        <dc:format>image/svg+xml</dc:format>
        <dc:type
           rdf:resource="http://purl.org/dc/dcmitype/StillImage" />
        <cc:license
           rdf:resource="http://web.resource.org/cc/PublicDomain" />
        <dc:language>en</dc:language>
        <dc:title></dc:title>
      </cc:Work>
    </rdf:RDF>
  </metadata>
  <g
     transform="translate(2.6000281e-6,-8.5e-7)"
     id="g4519"
     style="stroke:#ffffff;stroke-opacity:1;stroke-width:1.00000002;stroke-miterlimit:4;stroke-dasharray:none">
    <path
       inkscape:connector-curvature="0"
       style="opacity:1;fill:#509450;fill-opacity:1;fill-rule:evenodd;stroke:#ffffff;stroke-opacity:1;stroke-width:1.00000002;stroke-miterlimit:4;stroke-dasharray:none"
       d="M 2.4945317,13.969825 3.4626809,7.6083284 4.2217057,7.153847 4.9641809,7.6204496 c 0,0 0.8418041,6.4264694 0.762772,6.3879224 -0.079032,-0.03855 -3.2166146,0.01927 -3.2324212,-0.03855 z"
       id="path4521"
       sodipodi:nodetypes="ccccsc" />
    <path
       inkscape:connector-curvature="0"
       id="path4523"
       style="fill:#39ac39;fill-opacity:1;fill-rule:evenodd;stroke:#ffffff;stroke-width:1.00000002;stroke-linecap:round;stroke-linejoin:round;stroke-miterlimit:4;stroke-dasharray:none;stroke-opacity:1"
       d="M 1.1121887,10.606775 1.9932263,11.431248 4.1282197,8.5204084 3.8562487,8.2572939 Z m 6.2085694,0 -0.8810376,0.824473 -2.1349933,-2.9108396 0.271971,-0.2631145 z m 0,-4.7175466 -0.8810376,-0.8244729 -2.1349933,2.9108392 0.271971,0.2631146 z m -6.2085694,0 0.8810376,-0.8244729 2.1349934,2.9108392 -0.271971,0.2631146 z" />
    <path
       inkscape:connector-curvature="0"
       style="font-style:normal;font-weight:normal;font-size:40px;font-family:'Bitstream Vera Sans';fill:#39ac39;fill-opacity:1;stroke:#ffffff;stroke-opacity:1;stroke-width:1.00000002;stroke-miterlimit:4;stroke-dasharray:none"
       d="M 10.883759,4.4361679 C 10.883752,4.1534852 10.781696,3.9152738 10.57759,3.721533 10.37347,3.5278108 10.130068,3.4309447 9.847382,3.4309358 9.565004,3.4309447 9.324317,3.5278108 9.12532,3.721533 8.926312,3.9152738 8.826812,4.1534852 8.826817,4.4361679 c -5e-6,0.2823804 0.09949,0.5204326 0.298503,0.7141562 0.198997,0.1937386 0.439684,0.2906047 0.722062,0.2905983 0.282686,6.4e-6 0.526088,-0.09686 0.730208,-0.2905983 0.204106,-0.1937236 0.306162,-0.4317758 0.306169,-0.7141562 l 0,0 z M 8.183335,14.89241 c 0.219758,-2e-6 0.397678,-0.104614 0.533759,-0.313836 l 2.951495,-4.443531 0.157157,0.612339 -0.43937,3.328576 c -0.02109,0.167377 0.01548,0.316549 0.109722,0.447515 0.09422,0.130963 0.225028,0.212096 0.392416,0.243402 0.167689,0.0313 0.322131,-0.0027 0.463327,-0.102055 0.141176,-0.09934 0.22231,-0.232864 0.243402,-0.400561 l 0.455181,-3.406675 c 0.01053,-0.115311 1.08e-4,-0.235734 -0.03114,-0.361271 L 12.014047,6.4926308 14.636373,6.021638 c 0.136064,-0.020756 0.245946,-0.091349 0.329648,-0.21178 0.08368,-0.1204156 0.114981,-0.2486648 0.09391,-0.3847473 -0.03131,-0.1360679 -0.109734,-0.2512208 -0.235257,-0.3454592 l -6.029,-3.9720598 -0.549572,0.8006415 c -0.136081,0.1884716 -0.104618,0.3507396 0.09439,0.4868047 0.188136,0.1150033 0.350244,0.08354 0.486325,-0.09439 l 0.314315,-0.470994 4.898235,3.2188529 -4.003203,0.7220621 C 9.88954,5.8018799 9.771752,5.8777438 9.682798,5.9981605 9.593828,6.1185903 9.570274,6.2468398 9.612128,6.3829078 l 0.863407,3.3755325 -2.8259587,4.2236067 c -0.05239,0.09391 -0.078584,0.193251 -0.07858,0.298024 -4.3e-6,0.167377 0.060208,0.311278 0.1806353,0.431704 0.1204189,0.120421 0.2643204,0.180633 0.4317044,0.180635 l 0,0 z"
       id="path4525" />
  </g>
  <path
     inkscape:connector-curvature="0"
     style="opacity:1;fill:#63ab63;fill-opacity:1;fill-rule:evenodd;stroke:none"
     d="M 2.4945343,13.969824 3.4626835,7.6083275 4.2217083,7.1538461 4.9641835,7.6204487 c 0,0 0.8418041,6.4264693 0.762772,6.3879223 -0.079032,-0.03855 -3.2166146,0.01927 -3.2324212,-0.03855 z"
     id="path3457"
     sodipodi:nodetypes="ccccsc" />
  <path
     inkscape:connector-curvature="0"
     id="path4196"
     style="fill:#39ac39;fill-opacity:1;fill-rule:evenodd;stroke:#39ac39;stroke-width:0.35698384;stroke-linecap:round;stroke-linejoin:round;stroke-miterlimit:4;stroke-dasharray:none;stroke-opacity:1"
     d="M 1.1121913,10.606774 1.9932289,11.431247 4.1282223,8.5204076 3.8562513,8.2572931 Z m 6.2085694,0 -0.8810376,0.824473 -2.1349933,-2.9108394 0.271971,-0.2631145 z m 0,-4.7175465 -0.8810376,-0.8244729 -2.1349933,2.9108392 0.271971,0.2631147 z m -6.2085694,0 0.8810376,-0.8244729 2.1349934,2.9108392 -0.271971,0.2631147 z" />
  <path
     inkscape:connector-curvature="0"
     style="font-style:normal;font-weight:normal;font-size:40px;font-family:'Bitstream Vera Sans';fill:#39ac39;fill-opacity:1;stroke:none"
     d="M 10.883762,4.436167 C 10.883755,4.1534843 10.781699,3.915273 10.577593,3.7215321 10.373473,3.52781 10.130071,3.4309438 9.8473846,3.4309349 c -0.282378,8.9e-6 -0.523065,0.096875 -0.722062,0.2905972 -0.199008,0.1937409 -0.298508,0.4319522 -0.298503,0.7146349 -5e-6,0.2823804 0.09949,0.5204326 0.298503,0.7141562 0.198997,0.1937386 0.439684,0.2906047 0.722062,0.2905983 0.2826864,6.4e-6 0.5260884,-0.09686 0.7302084,-0.2905983 0.204106,-0.1937236 0.306162,-0.4317758 0.306169,-0.7141562 l 0,0 z M 8.1833376,14.892409 c 0.219758,-2e-6 0.397678,-0.104614 0.533759,-0.313836 l 2.9514954,-4.443531 0.157157,0.612339 -0.43937,3.328576 c -0.02109,0.167377 0.01548,0.316549 0.109722,0.447515 0.09422,0.130963 0.225028,0.212096 0.392416,0.243402 0.167689,0.0313 0.322131,-0.0027 0.463327,-0.102055 0.141176,-0.09934 0.22231,-0.232864 0.243402,-0.400561 l 0.455181,-3.406675 c 0.01053,-0.115311 1.08e-4,-0.235734 -0.03114,-0.361271 L 12.01405,6.4926299 14.636376,6.0216371 c 0.136064,-0.020756 0.245946,-0.091349 0.329648,-0.21178 0.08368,-0.1204156 0.114981,-0.2486648 0.09391,-0.3847473 C 15.028624,5.289042 14.9502,5.1738891 14.824677,5.0796507 L 8.7956766,1.1075909 8.2461046,1.9082324 c -0.136081,0.1884716 -0.104618,0.3507396 0.09439,0.4868047 0.188136,0.1150033 0.350244,0.08354 0.486325,-0.09439 L 9.1411346,1.8296531 14.03937,5.0485059 10.036167,5.7705681 C 9.8895426,5.801879 9.7717546,5.8777429 9.6828006,5.9981596 9.5938306,6.1185894 9.5702766,6.2468389 9.6121306,6.3829069 L 10.475538,9.7584395 7.6495789,13.982046 c -0.05239,0.09391 -0.078584,0.193251 -0.07858,0.298024 -4.3e-6,0.167377 0.060208,0.311278 0.1806353,0.431704 0.1204189,0.120421 0.2643204,0.180633 0.4317044,0.180635 l 0,0 z"
     id="flowRoot2383" />
</svg>
