<?xml version="1.0" encoding="UTF-8" standalone="no"?>
<!-- Created with Inkscape (http://www.inkscape.org/) -->

<svg
   xmlns:dc="http://purl.org/dc/elements/1.1/"
   xmlns:cc="http://creativecommons.org/ns#"
   xmlns:rdf="http://www.w3.org/1999/02/22-rdf-syntax-ns#"
   xmlns:svg="http://www.w3.org/2000/svg"
   xmlns="http://www.w3.org/2000/svg"
   xmlns:sodipodi="http://sodipodi.sourceforge.net/DTD/sodipodi-0.dtd"
   xmlns:inkscape="http://www.inkscape.org/namespaces/inkscape"
   width="16"
   height="16"
   id="svg6369"
   version="1.1"
   inkscape:version="0.48.3.1 r9886"
   sodipodi:docname="New document 3">
  <defs
     id="defs6371">
    <clipPath
       clipPathUnits="userSpaceOnUse"
       id="clipPath660">
      <path
         inkscape:connector-curvature="0"
         d="m 0,1600 612,0 L 612,0 0,0 0,1600 z"
         id="path662" />
    </clipPath>
  </defs>
  <sodipodi:namedview
     id="base"
     pagecolor="#ffffff"
     bordercolor="#666666"
     borderopacity="1.0"
     inkscape:pageopacity="0.0"
     inkscape:pageshadow="2"
     inkscape:zoom="6.4182757"
     inkscape:cx="3.0493158"
     inkscape:cy="8.801807"
     inkscape:document-units="px"
     inkscape:current-layer="layer1"
     showgrid="false"
     fit-margin-top="0"
     fit-margin-left="0"
     fit-margin-right="0"
     fit-margin-bottom="0"
     inkscape:window-width="782"
     inkscape:window-height="582"
     inkscape:window-x="473"
     inkscape:window-y="216"
     inkscape:window-maximized="0" />
  <metadata
     id="metadata6374">
    <rdf:RDF>
      <cc:Work
         rdf:about="">
        <dc:format>image/svg+xml</dc:format>
        <dc:type
           rdf:resource="http://purl.org/dc/dcmitype/StillImage" />
        <dc:title></dc:title>
      </cc:Work>
    </rdf:RDF>
  </metadata>
  <g
     inkscape:label="Layer 1"
     inkscape:groupmode="layer"
     id="layer1"
     transform="translate(-285.9142,-598.10125)">
    <g
       transform="matrix(1.8134421,0,0,-1.8134421,-303.4465,2813.9888)"
       id="g656">
      <g
         id="g658"
         clip-path="url(#clipPath660)">
        <g
           id="g664"
           transform="translate(332.3486,1219.355)">
          <path
             inkscape:connector-curvature="0"
             d="m 0,0 -1.843,0 0,1.834 L 0,0 z m 0,-2.029 -5.883,0 0,3.499 c 0,0.098 0.035,0.184 0.108,0.257 0.071,0.071 0.16,0.107 0.265,0.107 l 3.116,0 0,-1.834 c 0,-0.156 0.055,-0.289 0.164,-0.396 0.108,-0.11 0.237,-0.164 0.387,-0.164 l 1.843,0 0,-1.469 z m 0.188,-2.384 c 0,0.051 -0.019,0.095 -0.056,0.131 C 0.096,-4.245 0.052,-4.227 0,-4.227 l -5.883,0 c -0.052,0 -0.096,-0.017 -0.132,-0.052 -0.037,-0.035 -0.055,-0.08 -0.055,-0.134 l 0,-0.183 c 0,-0.05 0.018,-0.092 0.055,-0.127 0.036,-0.033 0.08,-0.049 0.132,-0.049 l 5.883,0 c 0.052,0 0.096,0.015 0.132,0.047 0.037,0.033 0.056,0.076 0.056,0.129 l 0,0.183 z M 0.374,-2.58 C 0.523,-2.58 0.666,-2.608 0.8,-2.666 0.934,-2.724 1.05,-2.802 1.146,-2.9 1.244,-3 1.322,-3.116 1.382,-3.25 1.44,-3.385 1.47,-3.526 1.47,-3.676 l 0,-1.657 C 1.47,-5.457 1.408,-5.52 1.283,-5.52 l -8.449,0 c -0.125,0 -0.187,0.063 -0.187,0.187 l 0,1.657 c 0,0.15 0.03,0.291 0.088,0.426 0.06,0.134 0.14,0.25 0.24,0.35 0.1,0.098 0.218,0.176 0.352,0.234 0.134,0.058 0.276,0.086 0.426,0.086 l 6.621,0 z"
             style="fill:#333333;fill-opacity:1;fill-rule:nonzero;stroke:none"
             id="path666" />
        </g>
      </g>
    </g>
  </g>
</svg>
