<?xml version="1.0" encoding="UTF-8" standalone="no"?>
<svg
   xmlns:dc="http://purl.org/dc/elements/1.1/"
   xmlns:cc="http://creativecommons.org/ns#"
   xmlns:rdf="http://www.w3.org/1999/02/22-rdf-syntax-ns#"
   xmlns:svg="http://www.w3.org/2000/svg"
   xmlns="http://www.w3.org/2000/svg"
   version="1.1"
   width="100%"
   height="100%"
   viewBox="0 0 16 16"
   id="svg2">
  <metadata
     id="metadata8">
    <rdf:RDF>
      <cc:Work
         rdf:about="">
        <dc:format>image/svg+xml</dc:format>
        <dc:type
           rdf:resource="http://purl.org/dc/dcmitype/StillImage" />
        <dc:title />
      </cc:Work>
    </rdf:RDF>
  </metadata>
  <defs
     id="defs6" />
  <rect
     width="16"
     height="16"
     x="0"
     y="0"
     id="canvas"
     style="visibility:hidden;fill:none;stroke:none" />
  <path
     style="color:#000000;display:inline;overflow:visible;visibility:visible;opacity:1;fill:#0092da;fill-opacity:1;fill-rule:nonzero;stroke:#ffffff;stroke-width:0.666;stroke-linecap:round;stroke-linejoin:round;stroke-miterlimit:4;stroke-dasharray:none;stroke-opacity:1;marker:none;enable-background:accumulate"
     d="m 7.928,1.140 c -0.087684,0.00514 -0.172824,0.031411 -0.248157,0.076574 L 1.358,5.003 C 0.735,5.376 1.295,6.311 1.918,5.937 l 0.6834967,-0.2467395 0,7.9835844 1.7796447,0 0,-8.62454 3.5763058,-1.2875835 3.694,1.354 0,8.557892 1.781062,0 0,-7.905592 0.629,0.231 c 0.629,0.410 1.218813,-0.5652344 0.562963,-0.9316546 L 8.240,1.218 C 8.146,1.161 8.038,1.134 7.928,1.140 Z m 1.161,4.458 C 8.622,5.598 8.243,5.977 8.243,6.445 8.243,6.912 8.622,7.291 9.089,7.291 9.557,7.291 9.936,6.912 9.936,6.445 9.936,5.977 9.557,5.598 9.089,5.598 Z M 7.067,6.880 C 6.856,6.890 6.613,7.042 6.541,7.111 L 5.110,8.392 C 4.711,8.815 5.393,9.648 6.019,9.271 L 7.405,7.498 C 7.459,7.002 7.279,6.870 7.067,6.880 Z M 8.280,7.339 C 8.014,7.337 7.768,7.479 7.639,7.711 L 6.195,9.634 c -0.091042,0.165582 -0.122966,0.301766 -0.1191189,0.4906462 l 0.215,2.327 -1.0989838,1.690307 c -0.3536794,0.494493 0.423,0.998 0.730,0.473 l 1.2251899,-1.883161 0.025527,-1.583954 0.869,0.931 0.028,2.334 c -0.014136,0.602319 0.900,0.590 0.8706789,-0.01135 L 8.911,11.73 7.775,10.37 8.624,8.905 10.14,9.881 c 0.007,0.005 0.015,0.006 0.022,0.011 l 0,4.5462472 c -0.0035,0.24546 0.366,0.245 0.363019,0 l 0,-4.5193052 c 0.206121,-0.111688 0.30898,-0.4178368 0.06097,-0.6111764 L 8.999,8.066 l 0,-0.00142 C 8.997,7.689 8.700,7.344 8.280,7.339 Z"
     id="rect4321-4" />
  <path
     style="color:#000000;display:inline;overflow:visible;visibility:visible;opacity:1;fill:#0092da;fill-opacity:1;fill-rule:nonzero;stroke:none;stroke-width:0.666;stroke-linecap:round;stroke-linejoin:round;stroke-miterlimit:4;stroke-dasharray:none;stroke-opacity:1;marker:none;enable-background:accumulate"
     d="m 7.928,1.140 c -0.087684,0.00514 -0.172824,0.031411 -0.248157,0.076574 L 1.358,5.003 C 0.735,5.376 1.295,6.311 1.918,5.937 l 0.6834967,-0.2467395 0,7.9835842 1.7796447,0 0,-8.6245398 3.5763058,-1.2875835 3.694,1.354 0,8.5578918 1.781062,0 0,-7.9055918 0.629,0.231 c 0.629,0.410 1.218813,-0.5652344 0.562963,-0.9316546 L 8.240,1.218 C 8.146,1.161 8.038,1.134 7.928,1.140 Z m 1.161,4.458 C 8.622,5.598 8.243,5.977 8.243,6.445 8.243,6.912 8.622,7.291 9.089,7.291 9.557,7.291 9.936,6.912 9.936,6.445 9.936,5.977 9.557,5.598 9.089,5.598 Z M 7.067,6.880 C 6.856,6.890 6.613,7.042 6.541,7.111 L 5.110,8.392 C 4.711,8.815 5.393,9.648 6.019,9.271 L 7.405,7.498 C 7.459,7.002 7.279,6.870 7.067,6.880 Z M 8.280,7.339 C 8.014,7.337 7.768,7.479 7.639,7.711 L 6.195,9.634 c -0.091042,0.165582 -0.122966,0.301766 -0.1191189,0.4906457 l 0.215,2.327 -1.0989838,1.690307 c -0.3536794,0.494493 0.423,0.998 0.730,0.473 l 1.2251899,-1.883161 0.025527,-1.583954 0.869,0.931 0.028,2.334 c -0.014136,0.602319 0.900,0.590 0.8706789,-0.01135 L 8.911,11.73 7.775,10.37 8.624,8.905 10.14,9.881 c 0.007,0.005 0.015,0.006 0.022,0.011 l 0,4.5462467 c -0.0035,0.24546 0.366,0.245 0.363019,0 l 0,-4.5193047 c 0.206121,-0.111688 0.30898,-0.4178371 0.06097,-0.6111767 l -1.5967165,-1.2422124 0,-0.00142 C 8.998,7.689 8.700,7.344 8.280,7.339 Z"
     id="rect4321" />
</svg>
