<?xml version="1.0" encoding="UTF-8" standalone="no"?>
<svg
   xmlns:dc="http://purl.org/dc/elements/1.1/"
   xmlns:cc="http://creativecommons.org/ns#"
   xmlns:rdf="http://www.w3.org/1999/02/22-rdf-syntax-ns#"
   xmlns:svg="http://www.w3.org/2000/svg"
   xmlns="http://www.w3.org/2000/svg"
   id="svg2"
   viewBox="0 0 16 16"
   height="100%"
   width="100%"
   version="1.1">
  <metadata
     id="metadata8">
    <rdf:RDF>
      <cc:Work
         rdf:about="">
        <dc:format>image/svg+xml</dc:format>
        <dc:type
           rdf:resource="http://purl.org/dc/dcmitype/StillImage" />
        <dc:title></dc:title>
      </cc:Work>
    </rdf:RDF>
  </metadata>
  <defs
     id="defs6" />
  <rect
     style="visibility:hidden;fill:none;stroke:none"
     id="canvas"
     y="0"
     x="0"
     height="16"
     width="16" />
  <path
     id="rect4321-4"
     d="m 7.9285935,1.1403055 c -0.087684,0.00514 -0.172824,0.031411 -0.248157,0.076574 L 1.3587979,5.0030555 C 0.73575479,5.376461 1.2959157,6.3110139 1.9189255,5.9375461 l 0.6834967,-0.2467395 0,7.9835844 1.7796447,0 0,-8.62454 3.5763058,-1.2875835 3.6940033,1.3542315 0,8.557892 1.781062,0 0,-7.905592 0.629611,0.2311411 c 0.629394,0.4102034 1.218813,-0.5652344 0.562963,-0.9316546 L 8.2405634,1.2182979 C 8.1467948,1.1614905 8.0380633,1.1343079 7.9285935,1.1403055 Z m 1.161378,4.4583287 C 8.6224067,5.5985954 8.2433608,5.9776412 8.2433993,6.4452061 8.2433607,6.912771 8.6224066,7.2918168 9.0899715,7.2917781 9.5575362,7.2918165 9.9365816,6.9127707 9.9365426,6.4452061 9.9365816,5.9776415 9.5575361,5.5985958 9.0899715,5.5986342 Z M 7.0678417,6.8805454 C 6.8562521,6.8904733 6.6137241,7.042191 6.5417468,7.1116865 L 5.1109411,8.3921798 C 4.711326,8.8154646 5.3937032,9.6484998 6.0199068,9.2713666 L 7.4053355,7.4988124 C 7.4599409,7.0024159 7.2794303,6.8706175 7.0678417,6.8805454 Z M 8.2802683,7.3399915 C 8.0147568,7.337327 7.7689638,7.4797992 7.639313,7.7115189 L 6.1957446,9.6343858 c -0.091042,0.165582 -0.122966,0.301766 -0.1191189,0.4906462 l 0.2155426,2.32701 -1.0989838,1.690307 c -0.3536794,0.494493 0.4230443,0.998231 0.7302928,0.473626 l 1.2251899,-1.883161 0.025527,-1.583954 0.8692609,0.931654 0.028359,2.3341 c -0.014136,0.602319 0.9005067,0.590402 0.8706789,-0.01135 L 8.9112957,11.73309 7.775443,10.373186 8.6248511,8.9055108 10.149248,9.8811248 c 0.0075,0.0058 0.01519,0.0062 0.02269,0.01135 l 0,4.5462472 c -0.0035,0.24546 0.36649,0.24546 0.363019,0 l 0,-4.5193052 c 0.206121,-0.111688 0.30898,-0.4178368 0.06097,-0.6111764 L 8.9992103,8.066028 l 0,-0.00142 C 8.9979774,7.6892461 8.7007359,7.3443937 8.2802683,7.3399915 Z"
     style="color:#000000;display:inline;overflow:visible;visibility:visible;opacity:1;fill:#0092da;fill-opacity:1;fill-rule:nonzero;stroke:#ffffff;stroke-width:0.66600001;stroke-linecap:round;stroke-linejoin:round;stroke-miterlimit:4;stroke-dasharray:none;stroke-opacity:1;marker:none;enable-background:accumulate" />
  <path
     id="rect4321"
     d="m 7.9286187,1.1403067 c -0.087684,0.00514 -0.172824,0.031411 -0.248157,0.076574 L 1.3588231,5.0030567 C 0.73577989,5.3764622 1.2959409,6.3110151 1.9189507,5.9375473 l 0.6834967,-0.2467395 0,7.9835842 1.7796447,0 0,-8.6245398 3.5763058,-1.2875835 3.6940031,1.3542315 0,8.5578918 1.781062,0 0,-7.9055918 0.629611,0.2311411 c 0.629394,0.4102034 1.218813,-0.5652344 0.562963,-0.9316546 L 8.2405886,1.2182991 C 8.14682,1.1614917 8.0380885,1.1343091 7.9286187,1.1403067 Z m 1.161378,4.4583287 C 8.6224319,5.5985966 8.243386,5.9776424 8.2434245,6.4452073 8.2433859,6.9127722 8.6224318,7.291818 9.0899967,7.2917793 9.5575614,7.2918177 9.9366068,6.9127719 9.9365678,6.4452073 9.9366068,5.9776427 9.5575613,5.598597 9.0899967,5.5986354 Z M 7.0678669,6.8805466 C 6.8562773,6.8904745 6.6137493,7.0421922 6.541772,7.1116877 L 5.1109663,8.392181 C 4.7113512,8.8154658 5.3937284,9.6485013 6.019932,9.2713678 L 7.4053607,7.4988136 C 7.4599661,7.0024171 7.2794555,6.8706187 7.0678669,6.8805466 Z M 8.2802935,7.3399927 C 8.014782,7.3373282 7.768989,7.4798004 7.6393382,7.7115201 L 6.1957698,9.6343873 c -0.091042,0.165582 -0.122966,0.301766 -0.1191189,0.4906457 l 0.2155426,2.32701 -1.0989838,1.690307 c -0.3536794,0.494493 0.4230443,0.998231 0.7302928,0.473626 l 1.2251899,-1.883161 0.025527,-1.583954 0.8692609,0.931654 0.028359,2.3341 c -0.014136,0.602319 0.9005067,0.590402 0.8706789,-0.01135 L 8.9113209,11.733091 7.7754682,10.373187 8.6248763,8.905512 10.149273,9.8811263 c 0.0075,0.0058 0.01519,0.0062 0.02269,0.01135 l 0,4.5462467 c -0.0035,0.24546 0.36649,0.24546 0.363019,0 l 0,-4.5193047 c 0.206121,-0.111688 0.30898,-0.4178371 0.06097,-0.6111767 l -1.5967165,-1.2422124 0,-0.00142 C 8.9980026,7.6892473 8.7007611,7.3443949 8.2802935,7.3399927 Z"
     style="color:#000000;display:inline;overflow:visible;visibility:visible;opacity:1;fill:#0092da;fill-opacity:1;fill-rule:nonzero;stroke:none;stroke-width:0.66600001;stroke-linecap:round;stroke-linejoin:round;stroke-miterlimit:4;stroke-dasharray:none;stroke-opacity:1;marker:none;enable-background:accumulate" />
</svg>
