<?xml version="1.0" encoding="UTF-8" standalone="no"?>
<svg
   xmlns:dc="http://purl.org/dc/elements/1.1/"
   xmlns:cc="http://creativecommons.org/ns#"
   xmlns:rdf="http://www.w3.org/1999/02/22-rdf-syntax-ns#"
   xmlns:svg="http://www.w3.org/2000/svg"
   xmlns="http://www.w3.org/2000/svg"
   id="svg2"
   viewBox="0 0 12 12"
   height="100%"
   width="100%"
   version="1.1">
  <metadata
     id="metadata9">
    <rdf:RDF>
      <cc:Work
         rdf:about="">
        <dc:format>image/svg+xml</dc:format>
        <dc:type
           rdf:resource="http://purl.org/dc/dcmitype/StillImage" />
        <dc:title />
      </cc:Work>
    </rdf:RDF>
  </metadata>
  <defs
     id="defs7" />
  <path
     style="fill:#0092da;fill-opacity:1;stroke:#ffffff;stroke-width:0.6;stroke-miterlimit:4;stroke-dasharray:none;stroke-linejoin:round;stroke-linecap:round"
     id="bus-stop"
     d="m 3,1 -1,1 0,8 0.65625,0 c 0,0 0.1011489,1 0.81275,1 0.6891295,0 0.781,-1 0.781,-1 l 3.5,0 c 0,0 0.1143421,1 0.781,1 0.8164686,0 0.81275,-1 0.81275,-1 L 10,10 10,2 9,1 Z M 4,2 8,2 8,3 4,3 Z M 3,4 9,4 9,7 3,7 Z M 3,8 4,8 4,9 3,9 Z M 8,8 9,8 9,9 8,9 Z" />
  <rect
     style="visibility:hidden;fill:none;stroke:none"
     id="canvas"
     y="0"
     x="0"
     height="12"
     width="12" />
  <path
     style="fill:#0092da;fill-opacity:1;stroke:none"
     id="bus-stop-3"
     d="m 3,1 -1,1 0,8 0.65625,0 c 0,0 0.1011489,1 0.81275,1 0.6891295,0 0.781,-1 0.781,-1 l 3.5,0 c 0,0 0.1143421,1 0.781,1 0.8164686,0 0.81275,-1 0.81275,-1 L 10,10 10,2 9,1 Z M 4,2 8,2 8,3 4,3 Z M 3,4 9,4 9,7 3,7 Z M 3,8 4,8 4,9 3,9 Z M 8,8 9,8 9,9 8,9 Z" />
</svg>
