<?xml version="1.0" encoding="UTF-8" standalone="no"?>
<svg
   xmlns:dc="http://purl.org/dc/elements/1.1/"
   xmlns:cc="http://creativecommons.org/ns#"
   xmlns:rdf="http://www.w3.org/1999/02/22-rdf-syntax-ns#"
   xmlns:svg="http://www.w3.org/2000/svg"
   xmlns="http://www.w3.org/2000/svg"
   xmlns:sodipodi="http://sodipodi.sourceforge.net/DTD/sodipodi-0.dtd"
   xmlns:inkscape="http://www.inkscape.org/namespaces/inkscape"
   version="1.1"
   width="100%"
   height="100%"
   viewBox="0 0 12 12"
   id="svg2"
   inkscape:version="0.91 r"
   sodipodi:docname="bus_stop.12.svg">
  <sodipodi:namedview
     pagecolor="#dadada"
     bordercolor="#666666"
     borderopacity="1"
     objecttolerance="10"
     gridtolerance="10"
     guidetolerance="10"
     inkscape:pageopacity="0"
     inkscape:pageshadow="2"
     inkscape:window-width="706"
     inkscape:window-height="480"
     id="namedview7"
     showgrid="false"
     inkscape:zoom="19.666667"
     inkscape:cx="6.0000001"
     inkscape:cy="6.0000001"
     inkscape:window-x="0"
     inkscape:window-y="0"
     inkscape:window-maximized="0"
     inkscape:current-layer="svg2" />
  <metadata
     id="metadata9">
    <rdf:RDF>
      <cc:Work
         rdf:about="">
        <dc:format>image/svg+xml</dc:format>
        <dc:type
           rdf:resource="http://purl.org/dc/dcmitype/StillImage" />
        <dc:title />
      </cc:Work>
    </rdf:RDF>
  </metadata>
  <defs
     id="defs7" />
  <path
     inkscape:connector-curvature="0"
     d="m 3,1 -1,1 0,8 0.65625,0 c 0,0 0.1011489,1 0.81275,1 0.6891295,0 0.781,-1 0.781,-1 l 3.5,0 c 0,0 0.1143421,1 0.781,1 0.8164686,0 0.81275,-1 0.81275,-1 L 10,10 10,2 9,1 Z M 4,2 8,2 8,3 4,3 Z M 3,4 9,4 9,7 3,7 Z M 3,8 4,8 4,9 3,9 Z M 8,8 9,8 9,9 8,9 Z"
     id="bus-stop"
     style="fill:#0092da;fill-opacity:1;stroke:#ffffff;stroke-width:0.6;stroke-miterlimit:4;stroke-dasharray:none;stroke-linejoin:round;stroke-linecap:round" />
  <rect
     width="12"
     height="12"
     x="0"
     y="0"
     id="canvas"
     style="visibility:hidden;fill:none;stroke:none" />
  <path
     inkscape:connector-curvature="0"
     d="m 3,1 -1,1 0,8 0.65625,0 c 0,0 0.1011489,1 0.81275,1 0.6891295,0 0.781,-1 0.781,-1 l 3.5,0 c 0,0 0.1143421,1 0.781,1 0.8164686,0 0.81275,-1 0.81275,-1 L 10,10 10,2 9,1 Z M 4,2 8,2 8,3 4,3 Z M 3,4 9,4 9,7 3,7 Z M 3,8 4,8 4,9 3,9 Z M 8,8 9,8 9,9 8,9 Z"
     id="bus-stop-3"
     style="fill:#0092da;fill-opacity:1;stroke:none" />
</svg>
