<?xml version="1.0" encoding="UTF-8" standalone="no"?>
<svg
   xmlns:dc="http://purl.org/dc/elements/1.1/"
   xmlns:cc="http://creativecommons.org/ns#"
   xmlns:rdf="http://www.w3.org/1999/02/22-rdf-syntax-ns#"
   xmlns:svg="http://www.w3.org/2000/svg"
   xmlns="http://www.w3.org/2000/svg"
   id="svg2"
   viewBox="0 0 12 12"
   height="100%"
   width="100%"
   version="1.1">
  <metadata
     id="metadata9">
    <rdf:RDF>
      <cc:Work
         rdf:about="">
        <dc:format>image/svg+xml</dc:format>
        <dc:type
           rdf:resource="http://purl.org/dc/dcmitype/StillImage" />
        <dc:title />
      </cc:Work>
    </rdf:RDF>
  </metadata>
  <defs
     id="defs7" />
  <rect
     ry="0.86440676"
     y="0.6212911"
     x="0.6212911"
     height="10.757418"
     width="10.757418"
     id="rect6363"
     style="color:#000000;display:inline;overflow:visible;visibility:visible;opacity:1;fill:#0092da;fill-opacity:1;fill-rule:nonzero;stroke:#ffffff;stroke-width:0.622;stroke-linecap:round;stroke-linejoin:round;stroke-miterlimit:4;stroke-dasharray:none;stroke-opacity:1;marker:none;enable-background:accumulate" />
  <rect
     style="visibility:hidden;fill:none;stroke:none"
     id="canvas"
     y="0"
     x="0"
     height="12"
     width="12" />
  <path
     style="fill:#ffffff;fill-opacity:1;stroke:none"
     id="bus-stop-3"
     d="m 3.533,1.991 -0.8220338,0.8220339 0,6.5762705 0.5394597,0 c 0,0 0.083,0.822 0.668,0.822 0.5664883,0 0.6420087,-0.8220342 0.6420087,-0.8220342 l 2.8771185,0 c 0,0 0.093,0.822 0.642,0.822 0.6711644,0 0.6681081,-0.8220342 0.6681081,-0.8220342 l 0.5394598,0 0,-6.5762705 -0.822034,-0.8220339 z m 0.822,0.822 3.2881357,0 0,0.8220337 -3.2881357,0 z m -0.8220338,1.6440676 4.9322035,0 0,2.4661014 -4.9322035,0 z m 0,3.2881355 0.8220338,0 0,0.8220338 -0.8220338,0 z m 4.1101695,0 0.822034,0 0,0.8220338 -0.822034,0 z" />
</svg>
