<?xml version="1.0" encoding="UTF-8" standalone="no"?>
<svg
   xmlns:dc="http://purl.org/dc/elements/1.1/"
   xmlns:cc="http://creativecommons.org/ns#"
   xmlns:rdf="http://www.w3.org/1999/02/22-rdf-syntax-ns#"
   xmlns:svg="http://www.w3.org/2000/svg"
   xmlns="http://www.w3.org/2000/svg"
   id="svg2"
   viewBox="0 0 16 16"
   height="100%"
   width="100%"
   version="1.1">
  <metadata
     id="metadata10">
    <rdf:RDF>
      <cc:Work
         rdf:about="">
        <dc:format>image/svg+xml</dc:format>
        <dc:type
           rdf:resource="http://purl.org/dc/dcmitype/StillImage" />
        <dc:title />
      </cc:Work>
    </rdf:RDF>
  </metadata>
  <defs
     id="defs8" />
  <path
     id="path4-0"
     d="m 5.419,1.335 c -0.5713429,0 -1.0332031,0.4618601 -1.0332031,1.0332031 0,0.5713428 0.461,1.035 1.033,1.035 0.5713428,0 1.0351562,-0.4638135 1.0351562,-1.0351563 0,-0.571343 -0.4638134,-1.0332031 -1.0351562,-1.0332031 z m 5.1562503,0 c -0.571347,0 -1.0351566,0.4618602 -1.0351566,1.0332031 0,0.5713429 0.463,1.035 1.035,1.035 0.571342,0 1.033203,-0.4638134 1.033203,-1.0351563 0,-0.5713429 -0.461861,-1.0332031 -1.033203,-1.0332031 z M 4.386,3.603 c -0.3608771,0 -0.684471,0.3265354 -0.6894532,0.6816406 l -0.00391,0 0.117,3.056 3.2246093,0 0.1171876,-3.0566407 -0.00781,0 C 7.139,3.907 6.832,3.603 6.455,3.603 l -2.0683593,0 z m 5.1542968,0 c -0.3608767,0 -0.6844709,0.3265354 -0.6894531,0.6816406 l -0.00391,0 0.117,3.056 3.2246091,0 0.117188,-3.0566407 -0.0078,0 c -0.0046,-0.377707 -0.312077,-0.6816406 -0.689462,-0.6816406 l -2.0683596,0 z M 5.609,8.423 4.814,10.81 c -0.3765306,0 -0.796875,0.304445 -0.796875,0.794922 l 0,2.390625 0.796875,0 c 0,0 -0.00169,0.796875 0.794,0.796 0.7966102,0 0.796875,-0.796875 0.796875,-0.796875 l 3.1875,0 c 0,0 2.643e-4,0.796875 0.796,0.796 0.79661,0 0.794922,-0.796875 0.794922,-0.796875 l 0.796875,0 0,-2.390625 c 0,-0.41472 -0.363061,-0.794922 -0.796875,-0.794922 l -0.794922,-2.3906254 -4.7812502,0 z m 0.796,0.796 3.1875,0 0.498,1.593 -4.1835941,0 0.4980469,-1.5937504 z m -0.796875,2.5878904 c 0.3299668,0 0.597,0.267 0.597,0.597 0,0.329967 -0.2676894,0.597656 -0.5976562,0.597656 -0.3299668,0 -0.5957031,-0.267689 -0.5957031,-0.597656 0,-0.329967 0.2657363,-0.597657 0.5957031,-0.597657 z m 4.7812502,0 c 0.329967,0 0.595,0.267 0.595,0.597 0,0.329967 -0.265736,0.597656 -0.595703,0.597656 -0.329968,0 -0.5976564,-0.267689 -0.5976564,-0.597656 0,-0.329967 0.2676884,-0.597657 0.5976564,-0.597657 z"
     style="fill:#0092da;fill-opacity:1;stroke:#ffffff;stroke-width:0.6;stroke-miterlimit:4;stroke-dasharray:none;stroke-linejoin:round;stroke-linecap:round" />
  <path
     id="path4"
     d="M 5.4199219 1.3359375 C 4.848579 1.3359375 4.3867188 1.7977976 4.3867188 2.3691406 C 4.3867188 2.9404834 4.848579 3.4042969 5.4199219 3.4042969 C 5.9912647 3.4042969 6.4550781 2.9404834 6.4550781 2.3691406 C 6.4550781 1.7977976 5.9912647 1.3359375 5.4199219 1.3359375 z M 10.576172 1.3359375 C 10.004825 1.3359375 9.5410156 1.7977977 9.5410156 2.3691406 C 9.5410156 2.9404835 10.004825 3.4042969 10.576172 3.4042969 C 11.147514 3.4042969 11.609375 2.9404835 11.609375 2.3691406 C 11.609375 1.7977977 11.147514 1.3359375 10.576172 1.3359375 z M 4.3867188 3.6035156 C 4.0258417 3.6035156 3.7022478 3.930051 3.6972656 4.2851562 L 3.6933594 4.2851562 L 3.8105469 7.3417969 L 7.0351562 7.3417969 L 7.1523438 4.2851562 L 7.1445312 4.2851562 C 7.1399747 3.9074491 6.8324638 3.6035156 6.4550781 3.6035156 L 4.3867188 3.6035156 z M 9.5410156 3.6035156 C 9.1801389 3.6035156 8.8565447 3.930051 8.8515625 4.2851562 L 8.8476562 4.2851562 L 8.9648438 7.3417969 L 12.189453 7.3417969 L 12.306641 4.2851562 L 12.298828 4.2851562 C 12.294228 3.9074492 11.98676 3.6035156 11.609375 3.6035156 L 9.5410156 3.6035156 z M 5.609375 8.4238281 L 4.8144531 10.814453 C 4.4379225 10.814453 4.0175781 11.118898 4.0175781 11.609375 L 4.0175781 14 L 4.8144531 14 C 4.8144531 14 4.8127648 14.796875 5.609375 14.796875 C 6.4059852 14.796875 6.40625 14 6.40625 14 L 9.59375 14 C 9.59375 14 9.5940143 14.796875 10.390625 14.796875 C 11.187235 14.796875 11.185547 14 11.185547 14 L 11.982422 14 L 11.982422 11.609375 C 11.982422 11.194655 11.619361 10.814453 11.185547 10.814453 L 10.390625 8.4238281 L 5.609375 8.4238281 z M 6.40625 9.2207031 L 9.59375 9.2207031 L 10.091797 10.814453 L 5.9082031 10.814453 L 6.40625 9.2207031 z M 5.609375 11.808594 C 5.9393418 11.808594 6.2070312 12.076283 6.2070312 12.40625 C 6.2070312 12.736217 5.9393418 13.003906 5.609375 13.003906 C 5.2794082 13.003906 5.0136719 12.736217 5.0136719 12.40625 C 5.0136719 12.076283 5.2794082 11.808594 5.609375 11.808594 z M 10.390625 11.808594 C 10.720592 11.808594 10.986328 12.076283 10.986328 12.40625 C 10.986328 12.736217 10.720592 13.003906 10.390625 13.003906 C 10.060657 13.003906 9.7929688 12.736217 9.7929688 12.40625 C 9.7929688 12.076283 10.060657 11.808594 10.390625 11.808594 z "
     style="fill:#0092da;fill-opacity:1" />
</svg>
