<?xml version="1.0" encoding="UTF-8" standalone="no"?>
<svg
   xmlns:dc="http://purl.org/dc/elements/1.1/"
   xmlns:cc="http://creativecommons.org/ns#"
   xmlns:rdf="http://www.w3.org/1999/02/22-rdf-syntax-ns#"
   xmlns:svg="http://www.w3.org/2000/svg"
   xmlns="http://www.w3.org/2000/svg"
   id="svg2"
   viewBox="0 0 16 16"
   height="100%"
   width="100%"
   version="1.1">
  <metadata
     id="metadata8">
    <rdf:RDF>
      <cc:Work
         rdf:about="">
        <dc:format>image/svg+xml</dc:format>
        <dc:type
           rdf:resource="http://purl.org/dc/dcmitype/StillImage" />
        <dc:title />
      </cc:Work>
    </rdf:RDF>
  </metadata>
  <defs
     id="defs6" />
  <rect
     style="visibility:hidden;fill:none;stroke:none"
     id="canvas"
     y="0"
     x="0"
     height="16"
     width="16" />
  <path
     style="fill:#0092da;fill-opacity:1;stroke:#ffffff;stroke-width:0.6;stroke-miterlimit:4;stroke-dasharray:none;stroke-linejoin:round;stroke-linecap:round"
     id="caravan-9"
     d="M 3,3 C 2,3 1,4 1,5 l 0,4 c 0,1 1,2 2,2 l 1.0625,0 C 4.295,9.860 5.291877,9 6.5,9 7.708123,9 8.704,9.860 8.9375,11 L 15,11 c 0,0 0,-1 -1,-1 l -1.5,0 0,-5 c 0,-0.9606645 -1.024338,-2 -2,-2 z M 3.84375,5 C 3.937,4.984 4,5 4,5 L 6,5 C 6,5 7,5 7,6 7,7 6,7 6,7 L 4,7 C 4,7 3,7 3,6 3,5.25 3.562,5.046 3.84375,5 Z M 9,5 9.5,5 c 0,0 1,0 1,1 0,1 -1,1 -1,1 L 9,7 C 9,7 8,7 8,6 8,5 9,5 9,5 Z M 6.5,10 C 5.671573,10 5,10.671573 5,11.5 5,12.328427 5.671573,13 6.5,13 7.328427,13 8,12.328427 8,11.5 8,10.671573 7.328427,10 6.5,10 Z" />
  <path
     style="fill:#0092da;fill-opacity:1;stroke:none"
     id="caravan"
     d="M 3,3 C 2,3 1,4 1,5 l 0,4 c 0,1 1,2 2,2 l 1.0625,0 C 4.295,9.860 5.291877,9 6.5,9 7.708123,9 8.704,9.860 8.9375,11 L 15,11 c 0,0 0,-1 -1,-1 l -1.5,0 0,-5 c 0,-0.9606645 -1.024338,-2 -2,-2 z M 3.84375,5 C 3.937,4.984 4,5 4,5 L 6,5 C 6,5 7,5 7,6 7,7 6,7 6,7 L 4,7 C 4,7 3,7 3,6 3,5.25 3.562,5.046 3.84375,5 Z M 9,5 9.5,5 c 0,0 1,0 1,1 0,1 -1,1 -1,1 L 9,7 C 9,7 8,7 8,6 8,5 9,5 9,5 Z M 6.5,10 C 5.671573,10 5,10.671573 5,11.5 5,12.328427 5.671573,13 6.5,13 7.328427,13 8,12.328427 8,11.5 8,10.671573 7.328427,10 6.5,10 Z" />
</svg>
