<?xml version="1.0" encoding="UTF-8" standalone="no"?>
<svg
   xmlns:dc="http://purl.org/dc/elements/1.1/"
   xmlns:cc="http://creativecommons.org/ns#"
   xmlns:rdf="http://www.w3.org/1999/02/22-rdf-syntax-ns#"
   xmlns:svg="http://www.w3.org/2000/svg"
   xmlns="http://www.w3.org/2000/svg"
   version="1.1"
   width="100%"
   height="100%"
   viewBox="0 0 16 16"
   id="svg2">
  <metadata
     id="metadata10">
    <rdf:RDF>
      <cc:Work
         rdf:about="">
        <dc:format>image/svg+xml</dc:format>
        <dc:type
           rdf:resource="http://purl.org/dc/dcmitype/StillImage" />
        <dc:title></dc:title>
      </cc:Work>
    </rdf:RDF>
  </metadata>
  <defs
     id="defs8" />
  <path
     d="m 3.2499579,1.5 c -1.1655277,0 -2,0.7955215 -2,2 l 0,11 7,0 0,-7.875 c 0,0 0.875,-0.125 0.875,0.875 l 0,4 c 0,2 1.8646981,2.125 2.1250001,2.125 0.275652,0 2.124999,-0.124975 2.124999,-2.125 l 0,-4 c 0,0 1.387558,0.017377 1.375,-2.96875 l -0.75,0 0,-2 c 0,-0.5671583 -0.75,-0.5637421 -0.75,-0.03125 l 0,2 -1,0 0,-2 c 0,-0.5461843 -0.749999,-0.5451872 -0.749999,0 l 0,2 -0.75,0 c 0.01252,2.9863904 1.375,3 1.375,3 l 0,4 c 0,0.874159 -0.767136,0.875 -0.875,0.875 -0.107864,0 -0.875,-0.04279 -0.875,-0.875 l 0,-4 c 0,-1.2809084 -1.1250001,-2.125 -2.1250001,-2.125 l 0,-1.875 c 0,-1.2224558 -0.8164954,-2 -2,-2 z m 0.96875,2 2.75,0 -1.71875,2.6666667 2.0625,0 -3.78125,5.3333333 -0.6875,0 1.375,-4 -1.71875,0 z"
     id="charging-station-0"
     style="fill:#0092da;fill-opacity:1;stroke:#ffffff;stroke-width:0.6;stroke-miterlimit:4;stroke-dasharray:none" />
  <rect
     width="14"
     height="14"
     x="2.7627118"
     y="-5.1694913"
     id="canvas"
     style="visibility:hidden;fill:none;stroke:none" />
  <path
     d="m 3.2499579,1.5 c -1.1655277,0 -2,0.7955215 -2,2 l 0,11 7,0 0,-7.875 c 0,0 0.875,-0.125 0.875,0.875 l 0,4 c 0,2 1.8646981,2.125 2.1250001,2.125 0.275652,0 2.124999,-0.124975 2.124999,-2.125 l 0,-4 c 0,0 1.387558,0.017377 1.375,-2.96875 l -0.75,0 0,-2 c 0,-0.5671583 -0.75,-0.5637421 -0.75,-0.03125 l 0,2 -1,0 0,-2 c 0,-0.5461843 -0.749999,-0.5451872 -0.749999,0 l 0,2 -0.75,0 c 0.01252,2.9863904 1.375,3 1.375,3 l 0,4 c 0,0.874159 -0.767136,0.875 -0.875,0.875 -0.107864,0 -0.875,-0.04279 -0.875,-0.875 l 0,-4 c 0,-1.2809084 -1.1250001,-2.125 -2.1250001,-2.125 l 0,-1.875 c 0,-1.2224558 -0.8164954,-2 -2,-2 z m 0.96875,2 2.75,0 -1.71875,2.6666667 2.0625,0 -3.78125,5.3333333 -0.6875,0 1.375,-4 -1.71875,0 z"
     id="charging-station"
     style="fill:#0092da;fill-opacity:1;stroke:none" />
</svg>
