<?xml version="1.0" encoding="UTF-8" standalone="no"?>
<svg
   xmlns:dc="http://purl.org/dc/elements/1.1/"
   xmlns:cc="http://creativecommons.org/ns#"
   xmlns:rdf="http://www.w3.org/1999/02/22-rdf-syntax-ns#"
   xmlns:svg="http://www.w3.org/2000/svg"
   xmlns="http://www.w3.org/2000/svg"
   version="1.1"
   width="100%"
   height="100%"
   viewBox="0 0 16 16"
   id="svg2">
  <metadata
     id="metadata8">
    <rdf:RDF>
      <cc:Work
         rdf:about="">
        <dc:format>image/svg+xml</dc:format>
        <dc:type
           rdf:resource="http://purl.org/dc/dcmitype/StillImage" />
        <dc:title />
      </cc:Work>
    </rdf:RDF>
  </metadata>
  <defs
     id="defs6" />
  <rect
     style="visibility:hidden;fill:none;stroke:none"
     id="canvas"
     y="0"
     x="0"
     height="12"
     width="12" />
  <path
     d="m 7.847,0.457 0,0.9237288 1.8474577,0 0,9.2372882 -1.6110581,0 -0.024993,0.923729 3.4835088,0 0,-11.084746 z M 3.228,6.923 6,11.542373 8.771,6.923 l -1.8474576,0 0,-1.8474576 1.8474576,0 L 6,0.457627 3.228,5.076 l 1.8474576,0 0,1.8474576 z m 0.537,4.618 0.037491,-0.923729 -1.498586,0 0,-9.2372882 1.8474577,0 0,-0.9237288 -3.69491528,0 0,11.084746 z"
     style="fill:#0092da;fill-opacity:1;fill-rule:evenodd;stroke:#ffffff;stroke-width:0.6;stroke-linecap:round;stroke-linejoin:round;stroke-opacity:1;stroke-miterlimit:4;stroke-dasharray:none"
     id="path3339-7" />
  <path
     d="m 7.847,0.457 0,0.92372878 1.8474577,0 0,9.2372881 -1.6110581,0 -0.024993,0.923729 3.4835091,0 0,-11.08474588 z M 3.228,6.923 6,11.542373 8.771,6.923 l -1.8474576,0 0,-1.8474576 1.8474576,0 L 6,0.45762712 3.228,5.076 l 1.8474576,0 0,1.8474576 z m 0.537,4.618 0.037491,-0.923729 -1.498586,0 0,-9.2372881 1.8474577,0 0,-0.92372878 -3.69491528,0 0,11.08474588 z"
     style="fill:#0092da;fill-opacity:1;fill-rule:evenodd;stroke:none;stroke-width:1px;stroke-linecap:butt;stroke-linejoin:miter;stroke-opacity:1"
     id="path3339" />
</svg>
