<?xml version="1.0" encoding="UTF-8" standalone="no"?>
<svg
   xmlns:dc="http://purl.org/dc/elements/1.1/"
   xmlns:cc="http://creativecommons.org/ns#"
   xmlns:rdf="http://www.w3.org/1999/02/22-rdf-syntax-ns#"
   xmlns:svg="http://www.w3.org/2000/svg"
   xmlns="http://www.w3.org/2000/svg"
   xmlns:sodipodi="http://sodipodi.sourceforge.net/DTD/sodipodi-0.dtd"
   xmlns:inkscape="http://www.inkscape.org/namespaces/inkscape"
   version="1.1"
   width="12"
   height="12"
   viewBox="-110 0 0 10"
   id="svg2"
   inkscape:version="0.91 r"
   sodipodi:docname="elevator-12.svg">
  <sodipodi:namedview
     pagecolor="#dadada"
     bordercolor="#666666"
     borderopacity="1"
     objecttolerance="10"
     gridtolerance="10"
     guidetolerance="10"
     inkscape:pageopacity="0"
     inkscape:pageshadow="2"
     inkscape:window-width="706"
     inkscape:window-height="480"
     id="namedview7"
     showgrid="false"
     inkscape:zoom="19.666667"
     inkscape:cx="6.0000001"
     inkscape:cy="6.0000001"
     inkscape:window-x="0"
     inkscape:window-y="0"
     inkscape:window-maximized="0"
     inkscape:current-layer="svg2" />
  <metadata
     id="metadata8">
    <rdf:RDF>
      <cc:Work
         rdf:about="">
        <dc:format>image/svg+xml</dc:format>
        <dc:type
           rdf:resource="http://purl.org/dc/dcmitype/StillImage" />
        <dc:title />
      </cc:Work>
    </rdf:RDF>
  </metadata>
  <defs
     id="defs6" />
  <rect
     width="12"
     height="12"
     x="0"
     y="0"
     id="canvas"
     style="visibility:hidden;fill:none;stroke:none" />
  <path
     inkscape:connector-curvature="0"
     id="path3339-7"
     style="fill:#0092da;fill-opacity:1;fill-rule:evenodd;stroke:#ffffff;stroke-width:0.6;stroke-linecap:round;stroke-linejoin:round;stroke-opacity:1;stroke-miterlimit:4;stroke-dasharray:none"
     d="m 7.8474576,0.457627 0,0.9237288 1.8474577,0 0,9.2372882 -1.6110581,0 -0.024993,0.923729 3.4835088,0 0,-11.084746 z M 3.2288136,6.9237287 6,11.542373 8.7711864,6.9237287 l -1.8474576,0 0,-1.8474576 1.8474576,0 L 6,0.457627 3.2288136,5.0762711 l 1.8474576,0 0,1.8474576 z m 0.5373664,4.6186443 0.037491,-0.923729 -1.498586,0 0,-9.2372882 1.8474577,0 0,-0.9237288 -3.69491528,0 0,11.084746 z" />
  <path
     inkscape:connector-curvature="0"
     id="path3339"
     style="fill:#0092da;fill-opacity:1;fill-rule:evenodd;stroke:none;stroke-width:1px;stroke-linecap:butt;stroke-linejoin:miter;stroke-opacity:1"
     d="m 7.8474576,0.45762712 0,0.92372878 1.8474577,0 0,9.2372881 -1.6110581,0 -0.024993,0.923729 3.4835091,0 0,-11.08474588 z M 3.2288136,6.9237288 6,11.542373 8.7711864,6.9237288 l -1.8474576,0 0,-1.8474576 1.8474576,0 L 6,0.45762712 3.2288136,5.0762712 l 1.8474576,0 0,1.8474576 z m 0.5373664,4.6186442 0.037491,-0.923729 -1.498586,0 0,-9.2372881 1.8474577,0 0,-0.92372878 -3.69491528,0 0,11.08474588 z" />
</svg>
