<?xml version="1.0" encoding="UTF-8" standalone="no"?>
<!-- Created with Inkscape (http://www.inkscape.org/) -->

<svg
   xmlns:dc="http://purl.org/dc/elements/1.1/"
   xmlns:cc="http://creativecommons.org/ns#"
   xmlns:rdf="http://www.w3.org/1999/02/22-rdf-syntax-ns#"
   xmlns:svg="http://www.w3.org/2000/svg"
   xmlns="http://www.w3.org/2000/svg"
   xmlns:sodipodi="http://sodipodi.sourceforge.net/DTD/sodipodi-0.dtd"
   xmlns:inkscape="http://www.inkscape.org/namespaces/inkscape"
   version="1.1"
   width="100%"
   height="100%"
   viewBox="0 0 16 16"
   id="svg2"
   inkscape:version="0.91 r"
   sodipodi:docname="embassy.16.svg">
  <metadata
     id="metadata10">
    <rdf:RDF>
      <cc:Work
         rdf:about="">
        <dc:format>image/svg+xml</dc:format>
        <dc:type
           rdf:resource="http://purl.org/dc/dcmitype/StillImage" />
      </cc:Work>
    </rdf:RDF>
  </metadata>
  <defs
     id="defs8" />
  <sodipodi:namedview
     pagecolor="#dadada"
     bordercolor="#666666"
     borderopacity="1"
     objecttolerance="10"
     gridtolerance="10"
     guidetolerance="10"
     inkscape:pageopacity="0"
     inkscape:pageshadow="2"
     inkscape:window-width="706"
     inkscape:window-height="480"
     id="namedview6"
     showgrid="false"
     inkscape:zoom="14.75"
     inkscape:cx="8"
     inkscape:cy="8"
     inkscape:window-x="0"
     inkscape:window-y="0"
     inkscape:window-maximized="0"
     inkscape:current-layer="svg2" />
  <path
     inkscape:connector-curvature="0"
     d="m 9,1.9999999 c -3,2 -5,0 -5,0 l 0,7 c 0,0 2,2.0000001 5,0 3,-2 5,0 5,0 l 0,-7 c 0,0 -2,-2.00000000555556 -5,0 z m -6.5,-0.75 c -0.25,0 -0.5,0.25 -0.5,0.75 L 2,14 c 0,1 1,1 1,0 L 3,1.9999999 c 0,-0.5 -0.25,-0.75 -0.5,-0.75 z"
     id="path4-3"
     style="fill:#0092da;fill-opacity:1;stroke:#ffffff;stroke-width:0.6;stroke-miterlimit:4;stroke-dasharray:none;stroke-linejoin:round;stroke-linecap:round" />
  <path
     inkscape:connector-curvature="0"
     d="m 9,1.9999999 c -3,2 -5,0 -5,0 l 0,7 c 0,0 2,2.0000001 5,0 3,-2 5,0 5,0 l 0,-7 c 0,0 -2,-2.00000000555556 -5,0 z m -6.5,-0.75 c -0.25,0 -0.5,0.25 -0.5,0.75 L 2,14 c 0,1 1,1 1,0 L 3,1.9999999 c 0,-0.5 -0.25,-0.75 -0.5,-0.75 z"
     id="path4"
     style="fill:#0092da;fill-opacity:1" />
</svg>
