<?xml version="1.0" encoding="UTF-8" standalone="no"?>
<svg
   xmlns:dc="http://purl.org/dc/elements/1.1/"
   xmlns:cc="http://creativecommons.org/ns#"
   xmlns:rdf="http://www.w3.org/1999/02/22-rdf-syntax-ns#"
   xmlns:svg="http://www.w3.org/2000/svg"
   xmlns="http://www.w3.org/2000/svg"
   id="svg2"
   viewBox="0 0 16 16"
   height="100%"
   width="100%"
   version="1.1">
  <metadata
     id="metadata10">
    <rdf:RDF>
      <cc:Work
         rdf:about="">
        <dc:format>image/svg+xml</dc:format>
        <dc:type
           rdf:resource="http://purl.org/dc/dcmitype/StillImage" />
      </cc:Work>
    </rdf:RDF>
  </metadata>
  <defs
     id="defs8" />
  <path
     style="fill:#0092da;fill-opacity:1;stroke:#ffffff;stroke-width:0.6;stroke-miterlimit:4;stroke-dasharray:none;stroke-linejoin:round;stroke-linecap:round"
     id="path4-3"
     d="m 9,1.9999999 c -3,2 -5,0 -5,0 l 0,7 c 0,0 2,2.0000001 5,0 3,-2 5,0 5,0 l 0,-7 c 0,0 -2,-2.00000000555556 -5,0 z m -6.5,-0.75 c -0.25,0 -0.5,0.25 -0.5,0.75 L 2,14 c 0,1 1,1 1,0 L 3,1.9999999 c 0,-0.5 -0.25,-0.75 -0.5,-0.75 z" />
  <path
     style="fill:#0092da;fill-opacity:1"
     id="path4"
     d="m 9,1.9999999 c -3,2 -5,0 -5,0 l 0,7 c 0,0 2,2.0000001 5,0 3,-2 5,0 5,0 l 0,-7 c 0,0 -2,-2.00000000555556 -5,0 z m -6.5,-0.75 c -0.25,0 -0.5,0.25 -0.5,0.75 L 2,14 c 0,1 1,1 1,0 L 3,1.9999999 c 0,-0.5 -0.25,-0.75 -0.5,-0.75 z" />
</svg>
