<?xml version="1.0" encoding="UTF-8" standalone="no"?>
<svg
   xmlns:dc="http://purl.org/dc/elements/1.1/"
   xmlns:cc="http://creativecommons.org/ns#"
   xmlns:rdf="http://www.w3.org/1999/02/22-rdf-syntax-ns#"
   xmlns:svg="http://www.w3.org/2000/svg"
   xmlns="http://www.w3.org/2000/svg"
   xmlns:sodipodi="http://sodipodi.sourceforge.net/DTD/sodipodi-0.dtd"
   xmlns:inkscape="http://www.inkscape.org/namespaces/inkscape"
   version="1.1"
   width="100%"
   height="100%"
   viewBox="0 0 16 16"
   id="svg2"
   inkscape:version="0.91 r"
   sodipodi:docname="ford.16.svg">
  <sodipodi:namedview
     pagecolor="#dadada"
     bordercolor="#666666"
     borderopacity="1"
     objecttolerance="10"
     gridtolerance="10"
     guidetolerance="10"
     inkscape:pageopacity="0"
     inkscape:pageshadow="2"
     inkscape:window-width="706"
     inkscape:window-height="480"
     id="namedview7"
     showgrid="false"
     inkscape:zoom="14.75"
     inkscape:cx="8"
     inkscape:cy="8"
     inkscape:window-x="0"
     inkscape:window-y="0"
     inkscape:window-maximized="0"
     inkscape:current-layer="svg2" />
  <metadata
     id="metadata8">
    <rdf:RDF>
      <cc:Work
         rdf:about="">
        <dc:format>image/svg+xml</dc:format>
        <dc:type
           rdf:resource="http://purl.org/dc/dcmitype/StillImage" />
        <dc:title />
      </cc:Work>
    </rdf:RDF>
  </metadata>
  <defs
     id="defs6" />
  <rect
     width="16"
     height="16"
     x="0"
     y="0"
     id="canvas"
     style="visibility:hidden;fill:none;stroke:none" />
  <path
     inkscape:connector-curvature="0"
     d="M 5.5,2 2,5 l 3.5,3 0,-2 5,0 0,2 3.5,-3 -3.5,-3 0,2 -5,0 z M 4,8.5 c -0.5338983,0 -1.4922852,1 -2,1 L 2,11 c 0.5371839,0 1.5254237,-1 2,-1 0.5042373,0 1.4661017,1 2,1 0.4755023,0 1.4922852,-1 2,-1 0.5042373,0 1.5217305,1 2,1 0.504237,0 1.525424,-1 2,-1 0.474576,0 1.495763,1 2,1 l 0,-1.5 c -0.415254,0 -1.466102,-1.029661 -2,-1 -0.47827,0 -1.465278,1 -2,1 -0.4449153,0 -1.4957627,-1 -2,-1 -0.5042373,0 -1.5540971,1 -2,1 -0.4755023,0 -1.4661017,-1 -2,-1 z m 0,3 c -0.5338983,0 -1.4922852,1 -2,1 L 2,14 c 0.5371839,0 1.5254237,-1 2,-1 0.5042373,0 1.4661017,1 2,1 0.4755023,0 1.4922852,-1 2,-1 0.5042373,0 1.5217305,1 2,1 0.504237,0 1.525424,-1 2,-1 0.474576,0 1.495763,1 2,1 l 0,-1.5 c -0.415254,0 -1.466102,-1.029661 -2,-1 -0.47827,0 -1.465278,1 -2,1 -0.4449153,0 -1.4957627,-1 -2,-1 -0.5042373,0 -1.5540971,1 -2,1 -0.4755023,0 -1.4661017,-1 -2,-1 z"
     id="ford-8"
     style="color:#000000;fill:#0092da;fill-opacity:1;stroke:#ffffff;stroke-width:0.6;stroke-miterlimit:4;stroke-dasharray:none;stroke-linejoin:round;stroke-linecap:round" />
  <path
     inkscape:connector-curvature="0"
     d="M 5.5,2 2,5 l 3.5,3 0,-2 5,0 0,2 3.5,-3 -3.5,-3 0,2 -5,0 z M 4,8.5 c -0.5338983,0 -1.4922852,1 -2,1 L 2,11 c 0.5371839,0 1.5254237,-1 2,-1 0.5042373,0 1.4661017,1 2,1 0.4755023,0 1.4922852,-1 2,-1 0.5042373,0 1.5217305,1 2,1 0.504237,0 1.525424,-1 2,-1 0.474576,0 1.495763,1 2,1 l 0,-1.5 c -0.415254,0 -1.466102,-1.029661 -2,-1 -0.47827,0 -1.465278,1 -2,1 -0.4449153,0 -1.4957627,-1 -2,-1 -0.5042373,0 -1.5540971,1 -2,1 -0.4755023,0 -1.4661017,-1 -2,-1 z m 0,3 c -0.5338983,0 -1.4922852,1 -2,1 L 2,14 c 0.5371839,0 1.5254237,-1 2,-1 0.5042373,0 1.4661017,1 2,1 0.4755023,0 1.4922852,-1 2,-1 0.5042373,0 1.5217305,1 2,1 0.504237,0 1.525424,-1 2,-1 0.474576,0 1.495763,1 2,1 l 0,-1.5 c -0.415254,0 -1.466102,-1.029661 -2,-1 -0.47827,0 -1.465278,1 -2,1 -0.4449153,0 -1.4957627,-1 -2,-1 -0.5042373,0 -1.5540971,1 -2,1 -0.4755023,0 -1.4661017,-1 -2,-1 z"
     id="ford"
     style="color:#000000;fill:#0092da;fill-opacity:1" />
</svg>
