<?xml version="1.0" encoding="UTF-8" standalone="no"?>
<svg
   xmlns:dc="http://purl.org/dc/elements/1.1/"
   xmlns:cc="http://creativecommons.org/ns#"
   xmlns:rdf="http://www.w3.org/1999/02/22-rdf-syntax-ns#"
   xmlns:svg="http://www.w3.org/2000/svg"
   xmlns="http://www.w3.org/2000/svg"
   id="svg2"
   viewBox="0 0 16 16"
   height="100%"
   width="100%"
   version="1.1">
  <metadata
     id="metadata8">
    <rdf:RDF>
      <cc:Work
         rdf:about="">
        <dc:format>image/svg+xml</dc:format>
        <dc:type
           rdf:resource="http://purl.org/dc/dcmitype/StillImage" />
        <dc:title />
      </cc:Work>
    </rdf:RDF>
  </metadata>
  <defs
     id="defs6" />
  <rect
     style="visibility:hidden;fill:none;stroke:none"
     id="canvas"
     y="0"
     x="0"
     height="16"
     width="16" />
  <path
     style="fill:#0092da;fill-opacity:1;stroke:#ffffff;stroke-width:0.6;stroke-miterlimit:4;stroke-dasharray:none;stroke-linejoin:round;stroke-linecap:round"
     id="hotel-4"
     d="M 1.625,4 C 1.25,4 1,4.25 1,4.75 l 0,7.25 1.25,0 0,-1.75 c 0,0 10.38,0.018 11.5,0 L 13.75,12 15,12 15,9.625 15,5.75 C 15,5.4202582 14.86199,5 14.375,5 13.88801,5 13.75,5.4202582 13.75,5.75 l 0,3.25 -11.5,0 0,-4.25 C 2.25,4.25 2,4 1.625,4 Z M 4.5,5 C 3.671573,5 3,5.671573 3,6.5 3,7.328427 3.671573,8 4.5,8 5.328427,8 6,7.328427 6,6.5 6,5.671573 5.328427,5 4.5,5 Z m 2,1 0,2 6.5,0 C 13,7 11.963825,6 11,6 Z" />
  <path
     style="fill:#0092da;fill-opacity:1;stroke:none"
     id="hotel"
     d="M 1.625,4 C 1.25,4 1,4.25 1,4.75 l 0,7.25 1.25,0 0,-1.75 c 0,0 10.38,0.018 11.5,0 L 13.75,12 15,12 15,9.625 15,5.75 C 15,5.4202582 14.86199,5 14.375,5 13.88801,5 13.75,5.4202582 13.75,5.75 l 0,3.25 -11.5,0 0,-4.25 C 2.25,4.25 2,4 1.625,4 Z M 4.5,5 C 3.671573,5 3,5.671573 3,6.5 3,7.328427 3.671573,8 4.5,8 5.328427,8 6,7.328427 6,6.5 6,5.671573 5.328427,5 4.5,5 Z m 2,1 0,2 6.5,0 C 13,7 11.963825,6 11,6 Z" />
</svg>
