<?xml version="1.0" encoding="UTF-8" standalone="no"?>
<svg
   xmlns:dc="http://purl.org/dc/elements/1.1/"
   xmlns:cc="http://creativecommons.org/ns#"
   xmlns:rdf="http://www.w3.org/1999/02/22-rdf-syntax-ns#"
   xmlns:svg="http://www.w3.org/2000/svg"
   xmlns="http://www.w3.org/2000/svg"
   id="svg2"
   viewBox="0 0 16 16"
   height="100%"
   width="100%"
   version="1.1">
  <metadata
     id="metadata8">
    <rdf:RDF>
      <cc:Work
         rdf:about="">
        <dc:format>image/svg+xml</dc:format>
        <dc:type
           rdf:resource="http://purl.org/dc/dcmitype/StillImage" />
        <dc:title />
      </cc:Work>
    </rdf:RDF>
  </metadata>
  <defs
     id="defs6" />
  <rect
     style="visibility:hidden;fill:none;stroke:none"
     id="canvas"
     y="0"
     x="0"
     height="16"
     width="16" />
  <path
     style="fill:#0092da;fill-opacity:1;stroke:#ffffff;stroke-width:0.6;stroke-miterlimit:4;stroke-dasharray:none;stroke-linejoin:round;stroke-linecap:round"
     id="lighthouse-5"
     d="m 8.0003065,1 -3,1.5 c -0.465049,1.5 -0.465049,2.5 0,4.5 l 1,0 -1,8 6.0000005,0 -1,-8 1,0 c 0.530187,-2 0.530187,-3 0,-4.5 L 8.0003065,1 Z m -6.28125,1.46875 c -0.167266,0.084188 -0.229367,0.3762768 0,0.46875 l 1.875,0.75 c 0.306,0.123 0.493322,-0.3454524 0.1875,-0.46875 l -1.875,-0.75 c -0.07646,-0.030824 -0.131745,-0.028062 -0.1875,0 z m 12.3750005,0 -1.875,0.75 c -0.305822,0.1232976 -0.118929,0.5922921 0.187,0.468 l 1.875,-0.75 C 14.58,2.814 14.39,2.345 14.09,2.468 Z M 5.5003065,3 10.500307,3 c 0.259083,1 0.259083,2 0,3 L 5.5003065,6 c -0.259083,-1 -0.259083,-2 0,-3 z m -3.75,1.25 c -0.329742,0 -0.329742,0.5 0,0.5 l 2,0 c 0.330396,0 0.329742,-0.5 0,-0.5 l -2,0 z m 10.5000005,0 c -0.329742,0 -0.330396,0.5 0,0.5 l 2,0 c 0.329741,0 0.329741,-0.5 0,-0.5 l -2,0 z m -8.6562505,1.125 -1.875,0.75 c -0.305822,0.1232976 -0.118929,0.5922921 0.187,0.468 l 1.875,-0.75 C 4.087,5.720 3.899,5.251 3.5940565,5.375 Z m 8.6250005,0 c -0.167266,0.084187 -0.229367,0.3762768 0,0.46875 l 1.875,0.75 c 0.306,0.123 0.493322,-0.3454524 0.1875,-0.46875 l -1.875,-0.75 c -0.07645,-0.030824 -0.131745,-0.028062 -0.1875,0 z" />
  <path
     style="fill:#0092da;fill-opacity:1;stroke:none"
     id="lighthouse"
     d="m 8.0003065,1 -3,1.5 c -0.465049,1.5 -0.465049,2.5 0,4.5 l 1,0 -1,8 6.0000005,0 -1,-8 1,0 c 0.530187,-2 0.530187,-3 0,-4.5 L 8.0003065,1 Z m -6.28125,1.46875 c -0.167266,0.084188 -0.229367,0.3762768 0,0.46875 l 1.875,0.75 c 0.306,0.123 0.493322,-0.3454524 0.1875,-0.46875 l -1.875,-0.75 c -0.07646,-0.030824 -0.131745,-0.028062 -0.1875,0 z m 12.3750005,0 -1.875,0.75 c -0.305822,0.1232976 -0.118929,0.5922921 0.187,0.468 l 1.875,-0.75 C 14.58,2.814 14.39,2.345 14.09,2.468 Z M 5.5003065,3 10.500307,3 c 0.259083,1 0.259083,2 0,3 L 5.5003065,6 c -0.259083,-1 -0.259083,-2 0,-3 z m -3.75,1.25 c -0.329742,0 -0.329742,0.5 0,0.5 l 2,0 c 0.330396,0 0.329742,-0.5 0,-0.5 l -2,0 z m 10.5000005,0 c -0.329742,0 -0.330396,0.5 0,0.5 l 2,0 c 0.329741,0 0.329741,-0.5 0,-0.5 l -2,0 z m -8.6562505,1.125 -1.875,0.75 c -0.305822,0.1232976 -0.118929,0.5922921 0.187,0.468 l 1.875,-0.75 C 4.087,5.720 3.899,5.251 3.5940565,5.375 Z m 8.6250005,0 c -0.167266,0.084187 -0.229367,0.3762768 0,0.46875 l 1.875,0.75 c 0.306,0.123 0.493322,-0.3454524 0.1875,-0.46875 l -1.875,-0.75 c -0.07645,-0.030824 -0.131745,-0.028062 -0.1875,0 z" />
</svg>
