<?xml version="1.0" encoding="UTF-8" standalone="no"?>
<svg
   xmlns:dc="http://purl.org/dc/elements/1.1/"
   xmlns:cc="http://creativecommons.org/ns#"
   xmlns:rdf="http://www.w3.org/1999/02/22-rdf-syntax-ns#"
   xmlns:svg="http://www.w3.org/2000/svg"
   xmlns="http://www.w3.org/2000/svg"
   id="svg2"
   viewBox="0 0 16 16"
   height="100%"
   width="100%"
   version="1.1">
  <metadata
     id="metadata8">
    <rdf:RDF>
      <cc:Work
         rdf:about="">
        <dc:format>image/svg+xml</dc:format>
        <dc:type
           rdf:resource="http://purl.org/dc/dcmitype/StillImage" />
        <dc:title />
      </cc:Work>
    </rdf:RDF>
  </metadata>
  <defs
     id="defs6" />
  <rect
     style="visibility:hidden;fill:none;stroke:none"
     id="canvas"
     y="0"
     x="0"
     height="16"
     width="16" />
  <path
     style="fill:#0092da;fill-opacity:1;stroke:#ffffff;stroke-width:0.6;stroke-miterlimit:4;stroke-dasharray:none;stroke-linejoin:round;stroke-linecap:round"
     id="motel-7"
     d="M 1.625,1 C 1.25,1 1,1.25 1,1.75 l 0,5.75 1.25,0 0,-1.5 c 0,0 10.38,0.018 11.5,0 l 0,1.5 1.25,0 c -9.7e-5,0 0,-4.75 0,-4.75 C 15,2.4202582 14.861987,2 14.375,2 13.88801,2 13.71,2.422 13.75,2.75 l 0,2 -11.5,0 0,-3 C 2.25,1.25 2,1 1.625,1 Z M 4.5,1 C 3.671573,1 3,1.671573 3,2.5 3,3.328427 3.671573,4 4.5,4 5.328427,4 6,3.328427 6,2.5 6,1.671573 5.328427,1 4.5,1 Z m 2,1 0,2 6.5,0 C 13,3 11.963825,2 11,2 Z M 5,7 4,10 c -0.472666,0 -1,0.384295 -1,1 l 0,3 1,0 c 0,0 0,1 1,1 1,0 1,-1 1,-1 l 4,0 c 0,0 0,1 1,1 1,0 1,-1 1,-1 l 1,0 0,-3 c 0,-0.520606 -0.455425,-1 -1,-1 L 11,7 Z m 1,1 4,0 0.625,2 -5.25,0 z m -1,3.25 c 0.414214,0 0.75,0.335786 0.75,0.75 0,0.414214 -0.335786,0.75 -0.75,0.75 -0.414214,0 -0.75,-0.335786 -0.75,-0.75 0,-0.414214 0.335786,-0.75 0.75,-0.75 z m 6,0 c 0.414214,0 0.75,0.335786 0.75,0.75 0,0.414214 -0.335786,0.75 -0.75,0.75 -0.414214,0 -0.75,-0.335786 -0.75,-0.75 0,-0.414214 0.335786,-0.75 0.75,-0.75 z" />
  <path
     style="fill:#0092da;stroke:none;fill-opacity:1"
     id="motel"
     d="M 1.625,1 C 1.25,1 1,1.25 1,1.75 l 0,5.75 1.25,0 0,-1.5 c 0,0 10.38,0.018 11.5,0 l 0,1.5 1.25,0 c -9.7e-5,0 0,-4.75 0,-4.75 C 15,2.4202582 14.861987,2 14.375,2 13.88801,2 13.71,2.422 13.75,2.75 l 0,2 -11.5,0 0,-3 C 2.25,1.25 2,1 1.625,1 Z M 4.5,1 C 3.671573,1 3,1.671573 3,2.5 3,3.328427 3.671573,4 4.5,4 5.328427,4 6,3.328427 6,2.5 6,1.671573 5.328427,1 4.5,1 Z m 2,1 0,2 6.5,0 C 13,3 11.963825,2 11,2 Z M 5,7 4,10 c -0.472666,0 -1,0.384295 -1,1 l 0,3 1,0 c 0,0 0,1 1,1 1,0 1,-1 1,-1 l 4,0 c 0,0 0,1 1,1 1,0 1,-1 1,-1 l 1,0 0,-3 c 0,-0.520606 -0.455425,-1 -1,-1 L 11,7 Z m 1,1 4,0 0.625,2 -5.25,0 z m -1,3.25 c 0.414214,0 0.75,0.335786 0.75,0.75 0,0.414214 -0.335786,0.75 -0.75,0.75 -0.414214,0 -0.75,-0.335786 -0.75,-0.75 0,-0.414214 0.335786,-0.75 0.75,-0.75 z m 6,0 c 0.414214,0 0.75,0.335786 0.75,0.75 0,0.414214 -0.335786,0.75 -0.75,0.75 -0.414214,0 -0.75,-0.335786 -0.75,-0.75 0,-0.414214 0.335786,-0.75 0.75,-0.75 z" />
</svg>
