<?xml version="1.0" encoding="UTF-8" standalone="no"?>
<svg
   xmlns:dc="http://purl.org/dc/elements/1.1/"
   xmlns:cc="http://creativecommons.org/ns#"
   xmlns:rdf="http://www.w3.org/1999/02/22-rdf-syntax-ns#"
   xmlns:svg="http://www.w3.org/2000/svg"
   xmlns="http://www.w3.org/2000/svg"
   version="1.1"
   width="100%"
   height="100%"
   viewBox="0 0 16 16"
   id="svg2">
  <metadata
     id="metadata8">
    <rdf:RDF>
      <cc:Work
         rdf:about="">
        <dc:format>image/svg+xml</dc:format>
        <dc:type
           rdf:resource="http://purl.org/dc/dcmitype/StillImage" />
        <dc:title />
      </cc:Work>
    </rdf:RDF>
  </metadata>
  <defs
     id="defs6" />
  <rect
     style="visibility:hidden;fill:none;stroke:none"
     id="canvas"
     y="0"
     x="0"
     height="16"
     width="16" />
  <path
     id="parking-motorcycle-8"
     style="fill:#0092da;fill-opacity:1;fill-rule:evenodd;stroke:#ffffff;stroke-width:0.6;stroke-miterlimit:4;stroke-dasharray:none;stroke-linejoin:round;stroke-linecap:round"
     d="m 13.10,9.592 c 0.230,0.143 0.364,0.301 0.429,0.501 0.021,0.065 0.022,0.079 0.023,0.214 5.18e-4,0.124653 -9.69e-4,0.157343 -0.01758,0.226563 -0.0326,0.135857 -0.09294,0.287657 -0.164063,0.419922 l -0.03125,0.06055 -0.107422,0.0059 c -0.390788,0.02031 -0.705242,0.09063 -0.978515,0.220703 -0.586101,0.278965 -0.954254,0.803082 -1.136719,1.615234 l -0.01563,0.06445 -0.07617,0.07031 c -0.04224,0.03811 -0.09913,0.08395 -0.126953,0.101562 -0.25285,0.159974 -0.61576,0.255702 -1.1308592,0.300782 -0.231244,0.02027 -0.386206,0.02425 -1.1328129,0.03125 -0.437753,0.0041 -0.79828,0.0095 -0.800781,0.01172 -0.0024,0.0022 -0.01933,0.0039 -0.03711,0.0039 -0.03876,0 -0.03611,0.01501 -0.01367,-0.164063 0.03467,-0.276763 0.03081,-0.597928 -0.0098,-0.830078 -0.116705,-0.667751 -0.529609,-1.106155 -1.230468,-1.30664 -0.307931,-0.08809 -0.578847,-0.119854 -1.041015,-0.126954 l -0.294922,-0.0059 -0.01953,-0.01953 c -0.09851,-0.107393 -0.148973,-0.271617 -0.121093,-0.396485 0.01318,-0.05897 0.05869,-0.14436 0.09766,-0.18164 L 6,9.56708 c 1.800073,-0.0057 2.280,0.002 4,0.018038 0.095,0.022 0.530,0.893 0.576,0.966 0.024,0.039 0.058,0.125 0.066,0.167 0.003,0.017 0.006,0.031 0.007,0.031 0.01158,0 0.172029,-0.06386 0.253906,-0.101562 0.2191,-0.10089 0.493987,-0.496233 0.632984,-0.6581773 C 11.66,8.432 9.500,4.296 13.10,9.592 Z m -0.08398,1.6074226 c 0.523975,-0.03617 1.039,0.151 1.406,0.511 0.509,0.500 0.629,1.249 0.298,1.867 -0.274749,0.513212 -0.817804,0.859649 -1.425781,0.910156 -0.228152,0.01895 -0.501646,-0.01028 -0.716797,-0.07813 -0.532054,-0.167785 -0.946151,-0.556792 -1.11914,-1.050781 -0.159622,-0.455811 -0.09845,-0.963138 0.164062,-1.365235 0.302901,-0.463965 0.811688,-0.754832 1.392578,-0.794917 z m -7.1308591,0.0039 c 0.21405,2.09e-4 0.274,0.006 0.429,0.042 0.699,0.165 1.220,0.708 1.320312,1.375 0.018,0.123 0.018,0.338 0,0.455078 -0.08894,0.555696 -0.453095,1.016019 -0.992188,1.257813 -0.171038,0.07671 -0.385955,0.134507 -0.580078,0.154297 -0.111584,0.01137 -0.351707,0.0031 -0.46875,-0.01563 -0.751784,-0.120297 -1.321792,-0.651835 -1.455078,-1.357422 -0.02528,-0.133428 -0.02834,-0.378255 -0.0059,-0.511719 0.06045,-0.358874 0.231586,-0.670689 0.503906,-0.923828 0.264009,-0.245414 0.575625,-0.397401 0.957031,-0.462891 0.0674,-0.01168 0.125886,-0.01386 0.291016,-0.01367 z m 7.197,0.564 c -0.346496,0.01551 -0.659813,0.171497 -0.871093,0.43164 -0.06588,0.08111 -0.15436,0.245759 -0.183594,0.341797 -0.118945,0.390768 -0.0035,0.795222 0.306,1.076 0.078,0.071 0.195,0.151 0.279,0.191 0.06567,0.031 0.201,0.075 0.281,0.091 0.099,0.020 0.325,0.026 0.423,0.011 0.472284,-0.07286 0.840454,-0.398574 0.949218,-0.835938 0.02497,-0.100427 0.03054,-0.297319 0.01172,-0.40039 -0.100713,-0.551529 -0.605424,-0.934703 -1.197267,-0.908207 z m -7.1933591,0.0039 c -0.208258,-4.04e-4 -0.359351,0.03295 -0.533203,0.117187 -0.121062,0.05866 -0.209687,0.118618 -0.304687,0.210938 -0.156024,0.151631 -0.250332,0.317708 -0.300782,0.527344 -0.02082,0.08654 -0.02455,0.291915 -0.0078,0.390625 0.043,0.253 0.196,0.503 0.408,0.662 0.162,0.122 0.348,0.201 0.542,0.230 0.096,0.014 0.298,0.014 0.384765,0 0.685663,-0.116446 1.104889,-0.74447 0.914063,-1.369141 -0.09845,-0.32227 -0.378411,-0.597567 -0.722656,-0.710937 -0.131809,-0.0434 -0.229492,-0.05828 -0.38086,-0.05859 z M 2,1 l 0,10 2,0 0,-3.5 2.5,0 c 1.9760775,3e-7 3.5,-1 3.5,-3.25 C 10,2 8.486,1.000 6.96875,1 Z M 4,3 6.5,3 C 7.4635709,3 8,3.5254308 8,4.25 8,4.9745692 7.3682202,5.5 6.5,5.5 L 4,5.5 Z" />
  <path
     id="parking-motorcycle"
     style="fill:#0092da;fill-rule:evenodd;fill-opacity:1"
     d="m 13.10,9.592 c 0.230,0.143 0.364,0.301 0.429,0.501 0.021,0.065 0.022,0.079 0.023,0.214 5.18e-4,0.124653 -9.69e-4,0.157343 -0.01758,0.226563 -0.0326,0.135857 -0.09294,0.287657 -0.164063,0.419922 l -0.03125,0.06055 -0.107422,0.0059 c -0.390788,0.02031 -0.705242,0.09063 -0.978515,0.220703 -0.586101,0.278965 -0.954254,0.803082 -1.136719,1.615234 l -0.01563,0.06445 -0.07617,0.07031 c -0.04224,0.03811 -0.09913,0.08395 -0.126953,0.101562 -0.25285,0.159974 -0.61576,0.255702 -1.1308592,0.300782 -0.231244,0.02027 -0.386206,0.02425 -1.1328129,0.03125 -0.437753,0.0041 -0.79828,0.0095 -0.800781,0.01172 -0.0024,0.0022 -0.01933,0.0039 -0.03711,0.0039 -0.03876,0 -0.03611,0.01501 -0.01367,-0.164063 0.03467,-0.276763 0.03081,-0.597928 -0.0098,-0.830078 -0.116705,-0.667751 -0.529609,-1.106155 -1.230468,-1.30664 -0.307931,-0.08809 -0.578847,-0.119854 -1.041015,-0.126954 l -0.294922,-0.0059 -0.01953,-0.01953 c -0.09851,-0.107393 -0.148973,-0.271617 -0.121093,-0.396485 0.01318,-0.05897 0.05869,-0.14436 0.09766,-0.18164 L 6,9.56708 c 1.800073,-0.0057 2.280,0.002 4,0.018038 0.095,0.022 0.530,0.893 0.576,0.966 0.024,0.039 0.058,0.125 0.066,0.167 0.003,0.017 0.006,0.031 0.007,0.031 0.01158,0 0.172029,-0.06386 0.253906,-0.101562 0.2191,-0.10089 0.493987,-0.496233 0.632984,-0.6581773 C 11.66,8.432 9.500,4.296 13.10,9.592 Z m -0.08398,1.6074226 c 0.523975,-0.03617 1.039,0.151 1.406,0.511 0.509,0.500 0.629,1.249 0.298,1.867 -0.274749,0.513212 -0.817804,0.859649 -1.425781,0.910156 -0.228152,0.01895 -0.501646,-0.01028 -0.716797,-0.07813 -0.532054,-0.167785 -0.946151,-0.556792 -1.11914,-1.050781 -0.159622,-0.455811 -0.09845,-0.963138 0.164062,-1.365235 0.302901,-0.463965 0.811688,-0.754832 1.392578,-0.794917 z m -7.1308591,0.0039 c 0.21405,2.09e-4 0.274,0.006 0.429,0.042 0.699,0.165 1.220,0.708 1.320312,1.375 0.018,0.123 0.018,0.338 0,0.455078 -0.08894,0.555696 -0.453095,1.016019 -0.992188,1.257813 -0.171038,0.07671 -0.385955,0.134507 -0.580078,0.154297 -0.111584,0.01137 -0.351707,0.0031 -0.46875,-0.01563 -0.751784,-0.120297 -1.321792,-0.651835 -1.455078,-1.357422 -0.02528,-0.133428 -0.02834,-0.378255 -0.0059,-0.511719 0.06045,-0.358874 0.231586,-0.670689 0.503906,-0.923828 0.264009,-0.245414 0.575625,-0.397401 0.957031,-0.462891 0.0674,-0.01168 0.125886,-0.01386 0.291016,-0.01367 z m 7.197,0.564 c -0.346496,0.01551 -0.659813,0.171497 -0.871093,0.43164 -0.06588,0.08111 -0.15436,0.245759 -0.183594,0.341797 -0.118945,0.390768 -0.0035,0.795222 0.306,1.076 0.078,0.071 0.195,0.151 0.279,0.191 0.06567,0.031 0.201,0.075 0.281,0.091 0.099,0.020 0.325,0.026 0.423,0.011 0.472284,-0.07286 0.840454,-0.398574 0.949218,-0.835938 0.02497,-0.100427 0.03054,-0.297319 0.01172,-0.40039 -0.100713,-0.551529 -0.605424,-0.934703 -1.197267,-0.908207 z m -7.1933591,0.0039 c -0.208258,-4.04e-4 -0.359351,0.03295 -0.533203,0.117187 -0.121062,0.05866 -0.209687,0.118618 -0.304687,0.210938 -0.156024,0.151631 -0.250332,0.317708 -0.300782,0.527344 -0.02082,0.08654 -0.02455,0.291915 -0.0078,0.390625 0.043,0.253 0.196,0.503 0.408,0.662 0.162,0.122 0.348,0.201 0.542,0.230 0.096,0.014 0.298,0.014 0.384765,0 0.685663,-0.116446 1.104889,-0.74447 0.914063,-1.369141 -0.09845,-0.32227 -0.378411,-0.597567 -0.722656,-0.710937 -0.131809,-0.0434 -0.229492,-0.05828 -0.38086,-0.05859 z M 2,1 l 0,10 2,0 0,-3.5 2.5,0 c 1.9760775,3e-7 3.5,-1 3.5,-3.25 C 10,2 8.486,1.000 6.96875,1 Z M 4,3 6.5,3 C 7.4635709,3 8,3.5254308 8,4.25 8,4.9745692 7.3682202,5.5 6.5,5.5 L 4,5.5 Z" />
</svg>
