<?xml version="1.0" encoding="UTF-8" standalone="no"?>
<svg
   xmlns:dc="http://purl.org/dc/elements/1.1/"
   xmlns:cc="http://creativecommons.org/ns#"
   xmlns:rdf="http://www.w3.org/1999/02/22-rdf-syntax-ns#"
   xmlns:svg="http://www.w3.org/2000/svg"
   xmlns="http://www.w3.org/2000/svg"
   id="svg2"
   viewBox="0 0 16 16"
   height="100%"
   width="100%"
   version="1.1">
  <metadata
     id="metadata10">
    <rdf:RDF>
      <cc:Work
         rdf:about="">
        <dc:format>image/svg+xml</dc:format>
        <dc:type
           rdf:resource="http://purl.org/dc/dcmitype/StillImage" />
      </cc:Work>
    </rdf:RDF>
  </metadata>
  <defs
     id="defs8" />
  <path
     style="fill:#0092da;fill-opacity:1;stroke:#ffffff;stroke-width:0.6;stroke-miterlimit:4;stroke-dasharray:none;stroke-linejoin:round;stroke-linecap:round"
     id="path4-2"
     d="M 4.5,1 C 3.1192881,1 2,2.1192881 2,3.5 2,4.8807119 3.1192881,6 4.5,6 5.4253425,6 6.223,5.497 6.65625,4.75 L 8,4.75 l 1,-1 1,1 1,-1 1,1 0.5,0 L 14,3.5 12.5,2.25 6.65625,2.25 C 6.223,1.502 5.4253425,1 4.5,1 Z m -1,2 C 3.7761424,3 4,3.2238576 4,3.5 4,3.7761424 3.7761424,4 3.5,4 3.2238576,4 3,3.7761424 3,3.5 3,3.2238576 3.2238576,3 3.5,3 Z m 5.5,3.4375 0.03125,1 L 10,8 10,9 6.25,9 6,9 6,8 6.5,8 c 1,0 1,-1 0,-1 l -2,0 c -1,0 -1,1 0,1 L 5,8 5,9 4.437,10.37 c -0.041654,-0.0023 -0.082838,0 -0.125,0 C 3.042,10.37 2,11.417004 2,12.6875 2,13.957996 3.0420041,15 4.3125,15 5.5829959,15 6.625,13.957996 6.625,12.6875 6.625,12.447485 6.569,12.21 6.5,12 l 0.5,0 1,0 2.156,-2 2.5e-4,0 0.281,0.718 C 9.797,11.13 9.375,11.877559 9.375,12.6875 9.375,13.957996 10.417004,15 11.6875,15 c 1.270496,0 2.34375,-1.042004 2.34375,-2.3125 0,-1.270496 -1.073254,-2.3125 -2.34375,-2.3125 -0.04216,0 -0.08335,-0.0023 -0.125,0 L 11,9 11,7.625 Z M 5.84375,10 8.956,10 7.65,11.25 l -1.55625,0 C 5.939,11.06 5.766,10.85 5.562,10.71 Z M 4.3125,11.5 C 4.9750008,11.5 5.5,12.024999 5.5,12.6875 5.5,13.350001 4.975,13.87 4.312,13.87 3.649,13.87 3.125,13.350001 3.125,12.6875 3.125,12.024999 3.6499993,11.5 4.3125,11.5 Z m 7.375,0 c 0.662501,0 1.187,0.524 1.187,1.187 0,0.662501 -0.524999,1.1875 -1.1875,1.1875 -0.662501,0 -1.15625,-0.524999 -1.15625,-1.1875 0,-0.662501 0.493749,-1.1875 1.15625,-1.1875 z" />
  <path
     style="fill:#0092da;fill-opacity:1"
     id="path4"
     d="M 4.5,1 C 3.1192881,1 2,2.1192881 2,3.5 2,4.8807119 3.1192881,6 4.5,6 5.4253425,6 6.223,5.497 6.65625,4.75 L 8,4.75 l 1,-1 1,1 1,-1 1,1 0.5,0 L 14,3.5 12.5,2.25 6.65625,2.25 C 6.223,1.502 5.4253425,1 4.5,1 Z m -1,2 C 3.7761424,3 4,3.2238576 4,3.5 4,3.7761424 3.7761424,4 3.5,4 3.2238576,4 3,3.7761424 3,3.5 3,3.2238576 3.2238576,3 3.5,3 Z m 5.5,3.4375 0.03125,1 L 10,8 10,9 6.25,9 6,9 6,8 6.5,8 c 1,0 1,-1 0,-1 l -2,0 c -1,0 -1,1 0,1 L 5,8 5,9 4.437,10.37 c -0.041654,-0.0023 -0.082838,0 -0.125,0 C 3.042,10.37 2,11.417004 2,12.6875 2,13.957996 3.0420041,15 4.3125,15 5.5829959,15 6.625,13.957996 6.625,12.6875 6.625,12.447485 6.569,12.21 6.5,12 l 0.5,0 1,0 2.156,-2 2.5e-4,0 0.281,0.718 C 9.797,11.13 9.375,11.877559 9.375,12.6875 9.375,13.957996 10.417004,15 11.6875,15 c 1.270496,0 2.34375,-1.042004 2.34375,-2.3125 0,-1.270496 -1.073254,-2.3125 -2.34375,-2.3125 -0.04216,0 -0.08335,-0.0023 -0.125,0 L 11,9 11,7.625 Z M 5.84375,10 8.956,10 7.65,11.25 l -1.55625,0 C 5.939,11.06 5.766,10.85 5.562,10.71 Z M 4.3125,11.5 C 4.9750008,11.5 5.5,12.024999 5.5,12.6875 5.5,13.350001 4.975,13.87 4.312,13.87 3.649,13.87 3.125,13.350001 3.125,12.6875 3.125,12.024999 3.6499993,11.5 4.3125,11.5 Z m 7.375,0 c 0.662501,0 1.187,0.524 1.187,1.187 0,0.662501 -0.524999,1.1875 -1.1875,1.1875 -0.662501,0 -1.15625,-0.524999 -1.15625,-1.1875 0,-0.662501 0.493749,-1.1875 1.15625,-1.1875 z" />
</svg>
