<?xml version="1.0" encoding="UTF-8" standalone="no"?>
<svg
   xmlns:dc="http://purl.org/dc/elements/1.1/"
   xmlns:cc="http://creativecommons.org/ns#"
   xmlns:rdf="http://www.w3.org/1999/02/22-rdf-syntax-ns#"
   xmlns:svg="http://www.w3.org/2000/svg"
   xmlns="http://www.w3.org/2000/svg"
   xmlns:sodipodi="http://sodipodi.sourceforge.net/DTD/sodipodi-0.dtd"
   xmlns:inkscape="http://www.inkscape.org/namespaces/inkscape"
   id="svg2"
   viewBox="0 0 16 16"
   height="100%"
   width="100%"
   version="1.1"
   inkscape:version="0.91 r13725"
   sodipodi:docname="rental_ski.16.svg">
  <sodipodi:namedview
     pagecolor="#ffffff"
     bordercolor="#666666"
     borderopacity="1"
     objecttolerance="10"
     gridtolerance="10"
     guidetolerance="10"
     inkscape:pageopacity="0"
     inkscape:pageshadow="2"
     inkscape:window-width="1920"
     inkscape:window-height="1135"
     id="namedview7"
     showgrid="false"
     inkscape:zoom="30.670757"
     inkscape:cx="5.3617543"
     inkscape:cy="11.429836"
     inkscape:window-x="1920"
     inkscape:window-y="36"
     inkscape:window-maximized="1"
     inkscape:current-layer="svg2">
    <inkscape:grid
       type="xygrid"
       id="grid4167" />
  </sodipodi:namedview>
  <metadata
     id="metadata10">
    <rdf:RDF>
      <cc:Work
         rdf:about="">
        <dc:format>image/svg+xml</dc:format>
        <dc:type
           rdf:resource="http://purl.org/dc/dcmitype/StillImage" />
        <dc:title></dc:title>
      </cc:Work>
    </rdf:RDF>
  </metadata>
  <defs
     id="defs8" />
  <path
     id="path4165"
     d="m 11.970273,14.403259 -7.1801413,0 0,0.302037 7.1801413,0 c 0.201341,-1e-6 0.373919,-0.07189 0.517689,-0.215669 0.143771,-0.143782 0.215678,-0.316352 0.215678,-0.517708 l -0.291202,0 c 0,0.12217 -0.04297,0.224607 -0.129295,0.307301 -0.08619,0.08268 -0.190487,0.124035 -0.312866,0.124035 l 0,0 z M 10.266966,7.2876259 c 0.194106,5.5e-6 0.363021,-0.070076 0.506837,-0.210241 C 10.917571,6.9372338 10.989434,6.7665794 10.989479,6.5654353 10.989434,6.3640837 10.917569,6.193325 10.773803,6.053157 10.629987,5.9130057 10.461072,5.8429231 10.266966,5.8429146 c -0.20116,8.5e-6 -0.3718412,0.07009 -0.5119934,0.2102424 -0.1401519,0.1401653 -0.2102519,0.3109267 -0.2102059,0.5122783 -4.6e-5,0.2011441 0.07005,0.3717952 0.2102059,0.5119496 0.1401522,0.1401653 0.3108334,0.2102465 0.5119934,0.210241 l 0,0 z M 5.5231837,13.756412 c 0.07919,0.07194 0.176242,0.10792 0.291158,0.10792 0.129435,-2e-6 0.265968,-0.05034 0.409648,-0.151019 L 6.0084927,13.48695 c -0.06471,0.04299 -0.125818,0.0645 -0.183252,0.0645 -0.05748,0 -0.100716,-0.01436 -0.129661,-0.0431 l -0.01042,-0.01042 -2.393575,-2.40445 0,0.420483 2.231715,2.242574 z m 0.237205,-4.7977118 -2.447212,0 0,0.29118 2.447212,0 0,-0.29118 z m 4.1400271,5.0240768 2.7923712,-5.6061078 -0.280349,-0.118777 -2.8245733,5.7248818 0.3125511,0 z M 4.2834317,10.68373 c -0.136616,3e-6 -0.251677,0.04316 -0.34511,0.129463 -0.09343,0.08632 -0.140151,0.197688 -0.140151,0.334117 0,0.129421 0.04672,0.239032 0.140151,0.328851 0.09343,0.08982 0.204869,0.134736 0.334256,0.134736 l 1.951412,0 c 0.07919,4e-6 0.151006,-0.0071 0.215496,-0.02139 0.165389,-0.02873 0.280439,-0.07907 0.345157,-0.151021 l 0.959401,-1.067327 1.121308,1.078186 -0.452747,2.015883 c -0.01448,0.04322 -0.02172,0.07918 -0.02172,0.10792 0,0.129408 0.04672,0.24084 0.140151,0.334282 0.09343,0.09344 0.204869,0.140164 0.334303,0.140164 0.244305,0 0.395356,-0.125787 0.453018,-0.377381 l 0.5497998,-2.447221 c 0.06472,-0.258823 0.03617,-0.449322 -0.08619,-0.5715 L 8.800857,9.6703682 9.8681655,8.4306332 10.55812,9.1205812 c 0.07195,0.07173 0.154622,0.107599 0.248057,0.107599 0.122198,5e-6 0.240732,-0.05385 0.355695,-0.161547 l 1.121263,-1.1212879 c 0.05748,-0.071942 0.08619,-0.1510125 0.08619,-0.2372209 0,-0.1076935 -0.03753,-0.1975136 -0.113155,-0.2694638 -0.07547,-0.071942 -0.163533,-0.1079055 -0.264203,-0.1079192 -0.100731,6.9e-6 -0.17977,0.02874 -0.237206,0.086206 L 10.82757,8.3444372 9.7063047,7.2231498 C 9.6200577,7.1367322 9.5122907,7.0935304 9.3828567,7.0935164 l -1.757261,0 c -0.107909,7e-6 -0.201385,0.043216 -0.280304,0.1296334 l -1.207506,1.3907514 c -0.08619,0.07173 -0.129293,0.161552 -0.129293,0.269465 0,0.100681 0.03573,0.186941 0.107725,0.258772 0.07185,0.07184 0.158107,0.10776 0.258778,0.107749 0.107726,4e-6 0.20116,-0.0431 0.28035,-0.129309 l 1.121261,-1.3045493 0.646853,0.010881 -2.468919,2.8677051 -1.671108,-0.01088 z"
     style="font-style:normal;font-variant:normal;font-weight:normal;font-stretch:normal;font-size:40px;line-height:125%;font-family:NPSPICT3;-inkscape-font-specification:NPSPICT3;text-align:start;writing-mode:lr-tb;text-anchor:start;fill:#0092da;fill-opacity:1;stroke:#ffffff;stroke-width:0.53149605;stroke-linecap:butt;stroke-linejoin:miter;stroke-miterlimit:4;stroke-dasharray:none;stroke-opacity:1"
     inkscape:connector-curvature="0" />
  <path
     inkscape:connector-curvature="0"
     style="font-style:normal;font-variant:normal;font-weight:normal;font-stretch:normal;font-size:40px;line-height:125%;font-family:NPSPICT3;-inkscape-font-specification:NPSPICT3;text-align:start;writing-mode:lr-tb;text-anchor:start;fill:#0092da;fill-opacity:1;stroke:none;stroke-width:1px;stroke-linecap:butt;stroke-linejoin:miter;stroke-opacity:1"
     d="m 11.997551,14.403259 -7.1801413,0 0,0.302037 7.1801413,0 c 0.201341,-1e-6 0.373919,-0.07189 0.517689,-0.215669 0.143771,-0.143782 0.215678,-0.316352 0.215678,-0.517708 l -0.291202,0 c 0,0.12217 -0.04297,0.224607 -0.129295,0.307301 -0.08619,0.08268 -0.190487,0.124035 -0.312866,0.124035 l 0,0 z M 10.294244,7.2876262 c 0.194106,5.5e-6 0.363021,-0.070076 0.506837,-0.210241 C 10.944849,6.9372341 11.016712,6.7665797 11.016757,6.5654356 11.016712,6.364084 10.944847,6.1933253 10.801081,6.0531573 10.657265,5.913006 10.48835,5.8429234 10.294244,5.8429149 c -0.20116,8.5e-6 -0.3718409,0.07009 -0.5119931,0.2102424 -0.1401522,0.1401653 -0.2102522,0.3109267 -0.2102062,0.5122783 -4.6e-5,0.2011441 0.07005,0.3717952 0.2102062,0.5119496 0.1401522,0.1401653 0.3108331,0.2102465 0.5119931,0.210241 l 0,0 z M 5.5504617,13.756412 c 0.07919,0.07194 0.176242,0.10792 0.291158,0.10792 0.129435,-2e-6 0.265968,-0.05034 0.409648,-0.151019 L 6.0357707,13.48695 c -0.06471,0.04299 -0.125818,0.0645 -0.183252,0.0645 -0.05748,0 -0.100716,-0.01436 -0.129661,-0.0431 l -0.01042,-0.01042 -2.393575,-2.40445 0,0.420483 2.231715,2.242574 z m 0.237205,-4.7977118 -2.447212,0 0,0.29118 2.447212,0 0,-0.29118 z m 4.1400274,5.0240768 2.7923709,-5.6061078 -0.280349,-0.118777 -2.8245733,5.7248818 0.3125514,0 z M 4.3107097,10.68373 c -0.136616,3e-6 -0.251677,0.04316 -0.34511,0.129463 -0.09343,0.08632 -0.140151,0.197688 -0.140151,0.334117 0,0.129421 0.04672,0.239032 0.140151,0.328851 0.09343,0.08982 0.204869,0.134736 0.334256,0.134736 l 1.951412,0 c 0.07919,4e-6 0.151006,-0.0071 0.215496,-0.02139 0.165389,-0.02873 0.280439,-0.07907 0.345157,-0.151021 l 0.959401,-1.067327 1.121308,1.078186 -0.452747,2.015883 c -0.01448,0.04322 -0.02172,0.07918 -0.02172,0.10792 0,0.129408 0.04672,0.24084 0.140151,0.334282 0.09343,0.09344 0.204869,0.140164 0.334303,0.140164 0.244305,0 0.395356,-0.125787 0.453018,-0.377381 l 0.5498001,-2.447221 c 0.06472,-0.258823 0.03617,-0.449322 -0.08619,-0.5715 L 8.8281353,9.6703682 9.8954441,8.4306332 10.585398,9.1205812 c 0.07195,0.07173 0.154622,0.107599 0.248057,0.107599 0.122198,5e-6 0.240732,-0.05385 0.355695,-0.161547 l 1.121263,-1.1212876 c 0.05748,-0.071942 0.08619,-0.1510125 0.08619,-0.2372209 0,-0.1076935 -0.03753,-0.1975136 -0.113155,-0.2694638 -0.07547,-0.071942 -0.163533,-0.1079055 -0.264203,-0.1079192 -0.100731,6.9e-6 -0.17977,0.02874 -0.237206,0.086206 L 10.854848,8.3444372 9.7335827,7.2231501 C 9.6473357,7.1367325 9.5395687,7.0935307 9.4101347,7.0935167 l -1.757261,0 c -0.107909,7e-6 -0.201385,0.043216 -0.280304,0.1296334 l -1.207506,1.3907511 c -0.08619,0.07173 -0.129293,0.161553 -0.129293,0.269465 0,0.100681 0.03573,0.186941 0.107725,0.258772 0.07185,0.07184 0.158107,0.10776 0.258778,0.107749 0.107726,4e-6 0.20116,-0.0431 0.28035,-0.129309 l 1.121261,-1.304549 0.646853,0.010881 -2.468919,2.8677048 -1.671108,-0.01088 z"
     id="flowRoot3192" />
  <g
     id="g2303"
     transform="matrix(0.03396131,0,0,0.03396131,1.9737191,0.95553364)"
     style="fill:#0092da;fill-opacity:1;stroke:#ffffff;stroke-width:10.01139259;stroke-linecap:round;stroke-linejoin:round;stroke-miterlimit:4;stroke-dasharray:none;stroke-opacity:1">
    <g
       id="g2305"
       style="fill:#0092da;fill-opacity:1;stroke:#ffffff;stroke-width:10.01139259;stroke-linecap:round;stroke-linejoin:round;stroke-miterlimit:4;stroke-dasharray:none;stroke-opacity:1">
      <path
         inkscape:connector-curvature="0"
         style="fill:#0092da;fill-opacity:1;stroke:#ffffff;stroke-width:10.01139259;stroke-linecap:round;stroke-linejoin:round;stroke-miterlimit:4;stroke-dasharray:none;stroke-opacity:1"
         d="M 100.25,5.75 C 60.335317,5.4974281 26.826507,47.079175 35.324049,86.079571 c 5.57579,32.628219 37.203485,59.513449 70.832201,56.201679 22.48284,-1.38839 43.50902,-14.78319 54.8125,-34.09375 10.25433,-8.04484 25.57155,2.6096 35.65625,-6.0625 6.89511,-7.134767 12.65993,-16.629284 22.375,-19.84375 7.79207,2.201331 11.2873,10.646529 17.71875,14.5625 6.4579,-4.13743 10.19115,-13.979468 19.03125,-13.9375 6.25373,3.764238 10.21886,10.40689 16.125,14.34375 6.70904,-4.292637 10.68564,-14.550643 19.8125,-14.5625 6.3804,3.59771 9.90619,11.109119 16.5625,13.96875 9.26043,-8.352172 18.73735,-16.999679 26.46875,-26.9375 -0.0281,-5.622835 -7.6363,-8.738413 -10.65641,-13.336982 C 317.78098,50.838171 312.47635,40.600972 302.59375,42.71875 289.22865,43.785674 275.56059,42.397209 262.0625,42.9375 229.36594,42.923262 196.41274,43.721279 163.875,42.125 154.95723,34.457888 150.20766,22.500694 139.25,17.0625 127.86772,9.4689786 114.03062,5.323508 100.25,5.75 Z M 73.09375,50.53125 c 19.527198,-0.486224 31.18454,27.24599 17,40.71875 -11.479386,12.63316 -36.049436,8.571659 -40.875,-8.375 -5.349057,-15.155352 7.109688,-34.021744 23.875,-32.34375 z"
         id="path2307" />
      <path
         inkscape:connector-curvature="0"
         style="fill:#0092da;fill-opacity:1;stroke:#ffffff;stroke-width:10.01139259;stroke-linecap:round;stroke-linejoin:round;stroke-miterlimit:4;stroke-dasharray:none;stroke-opacity:1"
         id="path2309"
         d="" />
    </g>
  </g>
</svg>
