<?xml version="1.0" encoding="UTF-8" standalone="no"?>
<svg
   xmlns:dc="http://purl.org/dc/elements/1.1/"
   xmlns:cc="http://creativecommons.org/ns#"
   xmlns:rdf="http://www.w3.org/1999/02/22-rdf-syntax-ns#"
   xmlns:svg="http://www.w3.org/2000/svg"
   xmlns="http://www.w3.org/2000/svg"
   version="1.1"
   width="100%"
   height="100%"
   viewBox="0 0 16 16"
   id="svg2">
  <metadata
     id="metadata10">
    <rdf:RDF>
      <cc:Work
         rdf:about="">
        <dc:format>image/svg+xml</dc:format>
        <dc:type
           rdf:resource="http://purl.org/dc/dcmitype/StillImage" />
        <dc:title></dc:title>
      </cc:Work>
    </rdf:RDF>
  </metadata>
  <defs
     id="defs8" />
  <path
     style="fill:#0092da;fill-opacity:1;fill-rule:evenodd;stroke:#ffffff;stroke-opacity:1;stroke-width:0.6;stroke-miterlimit:4;stroke-dasharray:none"
     d="m 5.007813,1.000088 -1,2 0.46875,0 1.046875,-2 -0.515625,0 z m 4,0 -1,2 0.46875,0 1.046875,-2 -0.515625,0 z m 3.999999,0 -1,2 0.46875,0 1.046876,-2 -0.515626,0 z m -11.007812,2 -1,2 0.46875,0 1.048829,-2 -0.517579,0 z m 4.007813,0 -1,2 0.46875,0 1.046875,-2 -0.515625,0 z m 4,0 -1,2 0.46875,0 1.046875,-2 -0.515625,0 z m 3.999999,0 -1,2 0.46875,0 1.046876,-2 -0.515626,0 z m -10.507812,2 -1,2 0.46875,0 1.048829,-2 -0.517579,0 z m 7.982422,0 -1,2 0.46875,0 1.048828,-2 -0.517578,0 z m -3.482422,1 -7,4 2,0 1,-0.4003906 0,4.8828126 0,0.01758 a 0.5,0.5 0 0 0 0.240235,0.427734 0.5,0.5 0 0 0 0.503906,0.0078 A 0.5,0.5 0 0 0 5,14.500088 L 5,9.1993068 8,8.000088 l 3,1.1992188 0,5.3007812 a 0.5,0.5 0 0 0 0.240234,0.427734 0.5,0.5 0 0 0 0.503907,0.0078 A 0.5,0.5 0 0 0 12,14.500088 l 0,-4.9003906 1,0.4003906 2,0 -7,-4 z"
     id="rect4777-4" />
  <path
     style="fill:#0092da;fill-opacity:1;fill-rule:evenodd;stroke:none;stroke-opacity:1"
     d="m 5.007813,1.0000878 -1,2 0.46875,0 1.046875,-2 -0.515625,0 z m 4,0 -1,2 0.46875,0 1.046875,-2 -0.515625,0 z m 3.999999,0 -1,2 0.46875,0 1.046876,-2 -0.515626,0 z m -11.007812,2 -1,2 0.46875,0 1.048829,-2 -0.517579,0 z m 4.007813,0 -1,2 0.46875,0 1.046875,-2 -0.515625,0 z m 4,0 -1,2 0.46875,0 1.046875,-2 -0.515625,0 z m 3.999999,0 -1,2 0.46875,0 1.046876,-2 -0.515626,0 z m -10.507812,2 -1,2 0.46875,0 1.048829,-2 -0.517579,0 z m 7.982422,0 -1,2 0.46875,0 1.048828,-2 -0.517578,0 z m -3.482422,1 -7,4.0000002 2,0 1,-0.4003908 0,4.8828128 0,0.01758 a 0.5,0.5 0 0 0 0.240235,0.427734 0.5,0.5 0 0 0 0.503906,0.0078 A 0.5,0.5 0 0 0 5,14.500088 l 0,-5.3007814 3,-1.1992188 3,1.1992188 0,5.3007814 a 0.5,0.5 0 0 0 0.240234,0.427734 0.5,0.5 0 0 0 0.503907,0.0078 A 0.5,0.5 0 0 0 12,14.500088 l 0,-4.9003908 1,0.4003908 2,0 -7,-4.0000002 z"
     id="rect4777" />
  <rect
     width="14"
     height="14"
     x="2.7627118"
     y="-5.1694913"
     id="canvas"
     style="visibility:hidden;fill:none;stroke:none" />
  <rect
     style="visibility:hidden;fill:none;stroke:none"
     id="canvas-2"
     y="-5.6440678"
     x="14.830508"
     height="14"
     width="14" />
</svg>
