<?xml version="1.0" encoding="UTF-8" standalone="no"?>
<svg
   xmlns:dc="http://purl.org/dc/elements/1.1/"
   xmlns:cc="http://creativecommons.org/ns#"
   xmlns:rdf="http://www.w3.org/1999/02/22-rdf-syntax-ns#"
   xmlns:svg="http://www.w3.org/2000/svg"
   xmlns="http://www.w3.org/2000/svg"
   xmlns:sodipodi="http://sodipodi.sourceforge.net/DTD/sodipodi-0.dtd"
   xmlns:inkscape="http://www.inkscape.org/namespaces/inkscape"
   version="1.1"
   width="100%"
   height="100%"
   viewBox="0 0 16 16"
   id="svg2"
   inkscape:version="0.91 r"
   sodipodi:docname="taxi.16.svg">
  <sodipodi:namedview
     pagecolor="#dadada"
     bordercolor="#666666"
     borderopacity="1"
     objecttolerance="10"
     gridtolerance="10"
     guidetolerance="10"
     inkscape:pageopacity="0"
     inkscape:pageshadow="2"
     inkscape:window-width="706"
     inkscape:window-height="480"
     id="namedview7"
     showgrid="false"
     inkscape:zoom="14.75"
     inkscape:cx="8"
     inkscape:cy="8"
     inkscape:window-x="0"
     inkscape:window-y="0"
     inkscape:window-maximized="0"
     inkscape:current-layer="svg2" />
  <metadata
     id="metadata8">
    <rdf:RDF>
      <cc:Work
         rdf:about="">
        <dc:format>image/svg+xml</dc:format>
        <dc:type
           rdf:resource="http://purl.org/dc/dcmitype/StillImage" />
        <dc:title />
      </cc:Work>
    </rdf:RDF>
  </metadata>
  <defs
     id="defs6" />
  <rect
     width="16"
     height="16"
     x="0"
     y="0"
     id="canvas"
     style="visibility:hidden;fill:none;stroke:none" />
  <path
     inkscape:connector-curvature="0"
     d="M 6.96875,1 C 6.429431,1 6,1.4876472 6,2 L 5.96875,3 4,3 2.75,7 C 1.989697,7 1,7.4966359 1,9 l 0,4 2,0 0,1 c 0,0 0,1 1,1 1,0 1,-1 1,-1 L 5,13 11,12.96875 11,14 c 0,0 0,1 1,1 1,0 1,-1 1,-1 l 0,-1 2,0 0,-4 C 15,7.4726661 14,7 13,7 L 12,3 10,3 10,2 C 10,1.4337153 9.566285,1 9,1 L 6.96875,1 Z M 7,2 9,2 9,3 7,3 7,2 Z M 5,4.5 11,4.5 11.59375,7 4.3125,7 5,4.5 Z M 4,9 C 4.552285,9 5,9.447715 5,10 5,10.552285 4.552285,11 4,11 3.447715,11 3,10.552285 3,10 3,9.447715 3.447715,9 4,9 Z m 8,0 c 0.552285,0 1,0.447715 1,1 0,0.552285 -0.447715,1 -1,1 -0.552285,0 -1,-0.447715 -1,-1 0,-0.552285 0.447715,-1 1,-1 z"
     id="taxi-7"
     style="fill:#0092da;fill-opacity:1;stroke:#ffffff;stroke-width:0.6;stroke-miterlimit:4;stroke-dasharray:none;stroke-linejoin:round;stroke-linecap:round" />
  <path
     inkscape:connector-curvature="0"
     d="M 6.96875,1 C 6.429431,1 6,1.4876472 6,2 L 5.96875,3 4,3 2.75,7 C 1.989697,7 1,7.4966359 1,9 l 0,4 2,0 0,1 c 0,0 0,1 1,1 1,0 1,-1 1,-1 L 5,13 11,12.96875 11,14 c 0,0 0,1 1,1 1,0 1,-1 1,-1 l 0,-1 2,0 0,-4 C 15,7.4726661 14,7 13,7 L 12,3 10,3 10,2 C 10,1.4337153 9.566285,1 9,1 L 6.96875,1 Z M 7,2 9,2 9,3 7,3 7,2 Z M 5,4.5 11,4.5 11.59375,7 4.3125,7 5,4.5 Z M 4,9 C 4.552285,9 5,9.447715 5,10 5,10.552285 4.552285,11 4,11 3.447715,11 3,10.552285 3,10 3,9.447715 3.447715,9 4,9 Z m 8,0 c 0.552285,0 1,0.447715 1,1 0,0.552285 -0.447715,1 -1,1 -0.552285,0 -1,-0.447715 -1,-1 0,-0.552285 0.447715,-1 1,-1 z"
     id="taxi"
     style="fill:#0092da;fill-opacity:1" />
</svg>
