<?xml version="1.0" encoding="UTF-8" standalone="no"?>
<svg
   xmlns:dc="http://purl.org/dc/elements/1.1/"
   xmlns:cc="http://creativecommons.org/ns#"
   xmlns:rdf="http://www.w3.org/1999/02/22-rdf-syntax-ns#"
   xmlns:svg="http://www.w3.org/2000/svg"
   xmlns="http://www.w3.org/2000/svg"
   xmlns:sodipodi="http://sodipodi.sourceforge.net/DTD/sodipodi-0.dtd"
   xmlns:inkscape="http://www.inkscape.org/namespaces/inkscape"
   viewBox="0 0 16 16"
   id="svg4217"
   version="1.1"
   inkscape:version="0.91 r13725"
   sodipodi:docname="traffic_light_crossing.svg">
  <metadata
     id="metadata4245">
    <rdf:RDF>
      <cc:Work
         rdf:about="">
        <dc:format>image/svg+xml</dc:format>
        <dc:type
           rdf:resource="http://purl.org/dc/dcmitype/StillImage" />
      </cc:Work>
    </rdf:RDF>
  </metadata>
  <defs
     id="defs4243" />
  <sodipodi:namedview
     pagecolor="#ffffff"
     bordercolor="#666666"
     borderopacity="1"
     objecttolerance="10"
     gridtolerance="10"
     guidetolerance="10"
     inkscape:pageopacity="0"
     inkscape:pageshadow="2"
     inkscape:window-width="1920"
     inkscape:window-height="1015"
     id="namedview4241"
     showgrid="true"
     inkscape:zoom="29.5"
     inkscape:cx="8.8569937"
     inkscape:cy="8.6756989"
     inkscape:window-x="0"
     inkscape:window-y="36"
     inkscape:window-maximized="1"
     inkscape:current-layer="svg4217">
    <inkscape:grid
       type="xygrid"
       id="grid4799" />
  </sodipodi:namedview>
  <g
     style="fill:#0092da;stroke:#ffffff;stroke-width:16.02499962"
     id="g4219"
     transform="matrix(1.1731278,0,0,1.1731278,-1.0476029,-0.36799998)">
    <path
       style="stroke-width:0.599976"
       inkscape:connector-curvature="0"
       d="m 8.497,3.66 c 0,0.402 -0.325,0.726 -0.725,0.726 -0.4,0 -0.725,-0.324 -0.725,-0.725 0,-0.4 0.324,-0.724 0.725,-0.724 0.4,0 0.725,0.325 0.725,0.725 z"
       id="path4221" />
    <path
       style="fill-rule:evenodd;stroke-width:0.599976"
       inkscape:connector-curvature="0"
       d="m 2,13.047 1.6,0 1.14,-2.575 -1.207,0 L 2,13.047 Z m 2.587,0.013 1.585,0 0.245,-1.312 c -0.51,0.3 -0.857,0.188 -1.182,0.004 l 0.708,-1.282 -0.49,0 -0.866,2.59 z m 2.603,-0.013 1.627,0 -0.245,-2.58 -1.16,0 -0.223,2.58 z m 2.598,0.005 1.615,0.012 -0.904,-2.61 -0.18,0.023 c 0.234,0.493 0.475,1.036 -0.395,1.522 l -0.403,-0.757 -0.054,-0.04 0.32,1.85 z m 2.625,0.012 1.587,0 -1.577,-2.61 -1.176,0.012 1.166,2.598 z"
       id="path4223" />
    <path
       style="fill-rule:evenodd;stroke-width:0.599976"
       inkscape:connector-curvature="0"
       d="m 7.413,7.968 1.44,0 0.007,0.13 1.53,2.864 c 0.03,0.47 -0.184,0.648 -0.397,0.827 L 8.14,8.38 6.354,11.572 c -0.504,0.32 -0.69,0.186 -0.91,0.1 L 7.4,8.123 7.413,7.967 Z M 5.608,7.666 7.415,4.953 c 0.22,-0.292 0.552,-0.435 1.1,-0.292 l 1.425,1.169 0.153,0.28 0,1.124 C 9.955,7.527 9.757,7.727 9.433,7.724 l 0,-1.442 -0.568,-0.502 0,2.03 -1.468,0 0,-1.63 -1.01,1.48 C 6.094,7.824 5.822,7.89 5.607,7.666 Z"
       id="path4225" />
  </g>
  <g
     id="g4229"
     style="fill:#0a0a0a;fill-opacity:1;stroke-width:2.671"
     transform="matrix(1.1731278,0,0,1.1731278,-1.3865859,-0.30020336)">
    <path
       inkscape:connector-curvature="0"
       d="m 8.497,3.66 c 0,0.402 -0.325,0.726 -0.725,0.726 -0.4,0 -0.725,-0.324 -0.725,-0.725 0,-0.4 0.324,-0.724 0.725,-0.724 0.4,0 0.725,0.325 0.725,0.725 z"
       id="path4231"
       style="fill:#0a0a0a;fill-opacity:1" />
    <path
       inkscape:connector-curvature="0"
       d="m 2,13.047 1.6,0 1.14,-2.575 -1.207,0 L 2,13.047 Z m 2.587,0.013 1.585,0 0.245,-1.312 c -0.51,0.3 -0.857,0.188 -1.182,0.004 l 0.708,-1.282 -0.49,0 -0.866,2.59 z m 2.603,-0.013 1.627,0 -0.245,-2.58 -1.16,0 -0.223,2.58 z m 2.598,0.005 1.615,0.012 -0.904,-2.61 -0.18,0.023 c 0.234,0.493 0.475,1.036 -0.395,1.522 l -0.403,-0.757 -0.054,-0.04 0.32,1.85 z m 2.625,0.012 1.587,0 -1.577,-2.61 -1.176,0.012 1.166,2.598 z"
       id="path4233"
       style="fill:#0a0a0a;fill-opacity:1;fill-rule:evenodd" />
    <path
       inkscape:connector-curvature="0"
       d="m 7.413,7.968 1.44,0 0.007,0.13 1.53,2.864 c 0.03,0.47 -0.184,0.648 -0.397,0.827 L 8.14,8.38 6.354,11.572 c -0.504,0.32 -0.69,0.186 -0.91,0.1 L 7.4,8.123 7.413,7.967 Z M 5.608,7.666 7.415,4.953 c 0.22,-0.292 0.552,-0.435 1.1,-0.292 l 1.425,1.169 0.153,0.28 0,1.124 C 9.955,7.527 9.757,7.727 9.433,7.724 l 0,-1.442 -0.568,-0.502 0,2.03 -1.468,0 0,-1.63 -1.01,1.48 C 6.094,7.824 5.822,7.89 5.607,7.666 Z"
       id="path4235"
       style="fill:#0a0a0a;fill-opacity:1;fill-rule:evenodd" />
  </g>
  <path
     style="fill:#0a0a0a;stroke:#ffffff;stroke-width:0.70387673;stroke-linecap:round;stroke-linejoin:round"
     inkscape:connector-curvature="0"
     d="m 0.99600649,2.4757842 0,4.9036742 c 0,1.9626428 2.70992501,1.9626428 2.70992501,0 l 0,-4.9036742 c 0,-1.96146968 -2.70992501,-1.96146968 -2.70992501,0 z M 2.3509689,1.4950494 c 0.4974062,0 0.9033084,0.441096 0.9033084,0.9807348 0,0.5396388 -0.4059022,0.9807349 -0.9033084,0.9807349 -0.4974062,0 -0.9033084,-0.4422692 -0.9033084,-0.981908 0,-0.5396388 0.4059022,-0.9807349 0.9033084,-0.9807349 z m 0,2.4518371 c 0.4974062,0 0.9033084,0.441096 0.9033084,0.9819079 0,0.5396388 -0.4059022,0.9807349 -0.9033084,0.9807349 -0.4962331,0 -0.9033084,-0.4422692 -0.9033084,-0.9807349 0,-0.5396387 0.4059022,-0.9819079 0.9033084,-0.9807348 z m 0,2.4518371 c 0.4974062,0 0.9033084,0.4422692 0.9033084,0.9819079 0,0.5396388 -0.4059022,0.9807349 -0.9033084,0.9807349 -0.4962331,0 -0.9033084,-0.4410961 -0.9033084,-0.9807349 0,-0.5396387 0.4070753,-0.9807348 0.9033084,-0.9807348 z"
     id="path4237" />
  <path
     inkscape:connector-curvature="0"
     d="m 0.99600689,2.4757842 0,4.9036742 c 0,1.9626428 2.70992481,1.9626428 2.70992481,0 l 0,-4.9036742 c 0,-1.96146968 -2.70992481,-1.96146968 -2.70992481,0 z M 2.3509687,1.4950494 c 0.497406,0 0.903309,0.441096 0.903309,0.9807348 0,0.5396388 -0.405903,0.9807349 -0.903309,0.9807349 -0.497406,0 -0.9033079,-0.4422692 -0.9033079,-0.981908 0,-0.5396388 0.4059019,-0.9807349 0.9033079,-0.9807349 z m 0,2.4518371 c 0.497406,0 0.903309,0.441096 0.903309,0.9819079 0,0.5396388 -0.405903,0.9807349 -0.903309,0.9807349 -0.497406,0 -0.9033079,-0.4422692 -0.9033079,-0.9807349 0,-0.5396387 0.4059019,-0.9819079 0.9033079,-0.9807348 z m 0,2.4518371 c 0.497406,0 0.903309,0.4422692 0.903309,0.9819079 0,0.5396388 -0.405903,0.9807349 -0.903309,0.9807349 -0.496233,0 -0.9033079,-0.4410961 -0.9033079,-0.9807349 0,-0.5396387 0.4070749,-0.9807348 0.9033079,-0.9807348 z"
     id="path4239"
     style="fill:#0a0a0a;fill-opacity:1" />
</svg>
