<?xml version="1.0" encoding="UTF-8" standalone="no"?>
<svg
   xmlns:dc="http://purl.org/dc/elements/1.1/"
   xmlns:cc="http://creativecommons.org/ns#"
   xmlns:rdf="http://www.w3.org/1999/02/22-rdf-syntax-ns#"
   xmlns:svg="http://www.w3.org/2000/svg"
   xmlns="http://www.w3.org/2000/svg"
   id="svg2"
   viewBox="0 0 16 16"
   height="100%"
   width="100%"
   version="1.1">
  <metadata
     id="metadata8">
    <rdf:RDF>
      <cc:Work
         rdf:about="">
        <dc:format>image/svg+xml</dc:format>
        <dc:type
           rdf:resource="http://purl.org/dc/dcmitype/StillImage" />
        <dc:title />
      </cc:Work>
    </rdf:RDF>
  </metadata>
  <defs
     id="defs6" />
  <rect
     style="visibility:hidden;fill:none;stroke:none"
     id="canvas"
     y="0"
     x="0"
     height="16"
     width="16" />
  <path
     style="fill:#744a08;fill-opacity:1;stroke:#ffffff;stroke-width:0.6;stroke-miterlimit:4;stroke-dasharray:none;stroke-linejoin:round;stroke-linecap:round"
     id="bench-7"
     d="M 2,6 C 1,6 1,7.5 2,7.5 l 12,0 C 15,7.5 15,6 14,6 L 2,6 Z m 1,2 0,3 1.5,0 0,-3 L 3,8 Z m 8.5,0 0,3 1.5,0 0,-3 -1.5,0 z" />
  <path
     style="fill:#744a08;fill-opacity:1;stroke:none"
     id="bench"
     d="M 2,6 C 1,6 1,7.5 2,7.5 l 12,0 C 15,7.5 15,6 14,6 L 2,6 Z m 1,2 0,3 1.5,0 0,-3 L 3,8 Z m 8.5,0 0,3 1.5,0 0,-3 -1.5,0 z" />
</svg>
