<?xml version="1.0" encoding="UTF-8" standalone="no"?>
<!-- Created with Inkscape (http://www.inkscape.org/) -->

<svg
   xmlns:dc="http://purl.org/dc/elements/1.1/"
   xmlns:cc="http://creativecommons.org/ns#"
   xmlns:rdf="http://www.w3.org/1999/02/22-rdf-syntax-ns#"
   xmlns:svg="http://www.w3.org/2000/svg"
   xmlns="http://www.w3.org/2000/svg"
   xmlns:sodipodi="http://sodipodi.sourceforge.net/DTD/sodipodi-0.dtd"
   xmlns:inkscape="http://www.inkscape.org/namespaces/inkscape"
   version="1.1"
   width="12"
   height="12"
   viewBox="-120 0 0 10"
   id="svg2"
   inkscape:version="0.91 r"
   sodipodi:docname="entrance.10.svg">
  <sodipodi:namedview
     pagecolor="#dadada"
     bordercolor="#666666"
     borderopacity="1"
     objecttolerance="10"
     gridtolerance="10"
     guidetolerance="10"
     inkscape:pageopacity="0"
     inkscape:pageshadow="2"
     inkscape:window-width="1600"
     inkscape:window-height="845"
     id="namedview7"
     showgrid="false"
     inkscape:zoom="23.6"
     inkscape:cx="5"
     inkscape:cy="5"
     inkscape:window-x="-2"
     inkscape:window-y="-3"
     inkscape:window-maximized="1"
     inkscape:current-layer="svg2" />
  <metadata
     id="metadata8">
    <rdf:RDF>
      <cc:Work
         rdf:about="">
        <dc:format>image/svg+xml</dc:format>
        <dc:type
           rdf:resource="http://purl.org/dc/dcmitype/StillImage" />
        <dc:title></dc:title>
      </cc:Work>
    </rdf:RDF>
  </metadata>
  <defs
     id="defs6" />
  <rect
     width="10"
     height="10"
     x="1"
     y="1"
     id="canvas"
     style="visibility:hidden;fill:none;stroke:none" />
  <path
     inkscape:connector-curvature="0"
     d="m 3.25,1 0,2.5 1.25,0 0,-1.25 4.75,0 0,7.5 -4.75,0 0,-1.25 -1.25,0 0,2.5 7.25,0 0,-10 z m 2.25,2.5 0,1.75 -4,0 0,1.5 4,0 0,1.75 3,-2.5 z"
     id="entrance-1"
     style="fill:#000000;fill-opacity:1;stroke:#ffffff;stroke-width:0.6;stroke-miterlimit:4;stroke-dasharray:none;stroke-linejoin:round;stroke-linecap:round" />
  <path
     inkscape:connector-curvature="0"
     d="m 3.25,1 0,2.5 1.25,0 0,-1.25 4.75,0 0,7.5 -4.75,0 0,-1.25 -1.25,0 0,2.5 7.25,0 0,-10 z m 2.25,2.5 0,1.75 -4,0 0,1.5 4,0 0,1.75 3,-2.5 z"
     id="entrance"
     style="fill:#000000;fill-opacity:1;stroke:none" />
</svg>
