<?xml version="1.0" encoding="UTF-8" standalone="no"?>
<svg
   xmlns:dc="http://purl.org/dc/elements/1.1/"
   xmlns:cc="http://creativecommons.org/ns#"
   xmlns:rdf="http://www.w3.org/1999/02/22-rdf-syntax-ns#"
   xmlns:svg="http://www.w3.org/2000/svg"
   xmlns="http://www.w3.org/2000/svg"
   id="svg2"
   viewBox="0 0 16 16"
   height="100%"
   width="100%"
   version="1.1">
  <metadata
     id="metadata8">
    <rdf:RDF>
      <cc:Work
         rdf:about="">
        <dc:format>image/svg+xml</dc:format>
        <dc:type
           rdf:resource="http://purl.org/dc/dcmitype/StillImage" />
        <dc:title />
      </cc:Work>
    </rdf:RDF>
  </metadata>
  <defs
     id="defs6" />
  <rect
     style="visibility:hidden;fill:none;stroke:none"
     id="canvas"
     y="1"
     x="1"
     height="10"
     width="10" />
  <path
     style="fill:#000000;fill-opacity:1;stroke:#ffffff;stroke-width:0.6;stroke-miterlimit:4;stroke-dasharray:none;stroke-linejoin:round;stroke-linecap:round"
     id="entrance-1"
     d="m 3.25,1 0,2.5 1.25,0 0,-1.25 4.75,0 0,7.5 -4.75,0 0,-1.25 -1.25,0 0,2.5 7.25,0 0,-10 z m 2.25,2.5 0,1.75 -4,0 0,1.5 4,0 0,1.75 3,-2.5 z" />
  <path
     style="fill:#000000;fill-opacity:1;stroke:none"
     id="entrance"
     d="m 3.25,1 0,2.5 1.25,0 0,-1.25 4.75,0 0,7.5 -4.75,0 0,-1.25 -1.25,0 0,2.5 7.25,0 0,-10 z m 2.25,2.5 0,1.75 -4,0 0,1.5 4,0 0,1.75 3,-2.5 z" />
</svg>
