<?xml version="1.0" encoding="UTF-8" standalone="no"?>
<svg
   xmlns:dc="http://purl.org/dc/elements/1.1/"
   xmlns:cc="http://creativecommons.org/ns#"
   xmlns:rdf="http://www.w3.org/1999/02/22-rdf-syntax-ns#"
   xmlns:svg="http://www.w3.org/2000/svg"
   xmlns="http://www.w3.org/2000/svg"
   xmlns:sodipodi="http://sodipodi.sourceforge.net/DTD/sodipodi-0.dtd"
   xmlns:inkscape="http://www.inkscape.org/namespaces/inkscape"
   width="100%"
   height="100%"
   viewBox="0 0 7 7"
   id="svg2"
   version="1.1"
   inkscape:version="0.91 r"
   sodipodi:docname="level_crossing.svg">
  <metadata
     id="metadata10">
    <rdf:RDF>
      <cc:Work
         rdf:about="">
        <dc:format>image/svg+xml</dc:format>
        <dc:type
           rdf:resource="http://purl.org/dc/dcmitype/StillImage" />
      </cc:Work>
    </rdf:RDF>
  </metadata>
  <defs
     id="defs8" />
  <sodipodi:namedview
     pagecolor="#dadada"
     bordercolor="#666666"
     borderopacity="1"
     objecttolerance="10"
     gridtolerance="10"
     guidetolerance="10"
     inkscape:pageopacity="0"
     inkscape:pageshadow="2"
     inkscape:window-width="640"
     inkscape:window-height="480"
     id="namedview6"
     showgrid="false"
     inkscape:zoom="33.714286"
     inkscape:cx="3.5"
     inkscape:cy="3.5"
     inkscape:window-x="0"
     inkscape:window-y="0"
     inkscape:window-maximized="0"
     inkscape:current-layer="svg2" />
  <path
     inkscape:connector-curvature="0"
     style="fill:#ffffff"
     d="m 0,0 1.5,0 2,2 2,-2 1.5,0 0,1.5 -2,2 2,2 L 7,7 5.5,7 3.5,5 1.5,7 0,7 0,5.5 2,3.5 0,1.5 Z"
     id="halo" />
  <path
     inkscape:connector-curvature="0"
     style="fill:#4d4d4d"
     d="M 0.5,0.5 0.5,1 3,3.5 0.5,6 0.5,6.5 1,6.5 3.5,4 6,6.5 6.5,6.5 6.5,6 4,3.5 6.5,1 6.5,0.5 6,0.5 3.5,3 1,0.5 Z"
     id="crossing" />
</svg>
