<?xml version="1.0" encoding="UTF-8" standalone="no"?>
<svg
   xmlns:dc="http://purl.org/dc/elements/1.1/"
   xmlns:cc="http://creativecommons.org/ns#"
   xmlns:rdf="http://www.w3.org/1999/02/22-rdf-syntax-ns#"
   xmlns:svg="http://www.w3.org/2000/svg"
   xmlns="http://www.w3.org/2000/svg"
   version="1.1"
   id="svg2"
   viewBox="0 0 7 7"
   height="100%"
   width="100%">
  <metadata
     id="metadata10">
    <rdf:RDF>
      <cc:Work
         rdf:about="">
        <dc:format>image/svg+xml</dc:format>
        <dc:type
           rdf:resource="http://purl.org/dc/dcmitype/StillImage" />
      </cc:Work>
    </rdf:RDF>
  </metadata>
  <defs
     id="defs8" />
  <path
     id="halo"
     d="m 0,0 1.5,0 2,2 2,-2 1.5,0 0,1.5 -2,2 2,2 L 7,7 5.5,7 3.5,5 1.5,7 0,7 0,5.5 2,3.5 0,1.5 Z"
     style="fill:#ffffff" />
  <path
     id="crossing"
     d="M 0.5,0.5 0.5,1 3,3.5 0.5,6 0.5,6.5 1,6.5 3.5,4 6,6.5 6.5,6.5 6.5,6 4,3.5 6.5,1 6.5,0.5 6,0.5 3.5,3 1,0.5 Z"
     style="fill:#4d4d4d" />
</svg>
