<?xml version="1.0" encoding="UTF-8" standalone="no"?>
<svg
   xmlns:dc="http://purl.org/dc/elements/1.1/"
   xmlns:cc="http://creativecommons.org/ns#"
   xmlns:rdf="http://www.w3.org/1999/02/22-rdf-syntax-ns#"
   xmlns:svg="http://www.w3.org/2000/svg"
   xmlns="http://www.w3.org/2000/svg"
   version="1.1"
   id="svg2"
   viewBox="0 0 11 11"
   height="100%"
   width="100%">
  <metadata
     id="metadata10">
    <rdf:RDF>
      <cc:Work
         rdf:about="">
        <dc:format>image/svg+xml</dc:format>
        <dc:type
           rdf:resource="http://purl.org/dc/dcmitype/StillImage" />
      </cc:Work>
    </rdf:RDF>
  </metadata>
  <defs
     id="defs8" />
  <path
     id="halo"
     d="m 0.5,0.5 2,0 3,3 3,-3 2,0 0,2 -3,3 3,3 0,2 -2,0 -3,-3 -3,3 -2,0 0,-2 3,-3 -3,-3 z"
     style="fill:#ffffff" />
  <path
     id="crossing"
     d="M 1,1 1,2 4.5,5.5 1,9 1,10 2,10 5.5,6.5 9,10 10,10 10,9 6.5,5.5 10,2 10,1 9,1 5.5,4.5 2,1 Z"
     style="fill:#4d4d4d" />
</svg>
