<svg xmlns="http://www.w3.org/2000/svg" width="13.614" height="11.96"><path d="M6.256.318L.086 11.005c-.056.097-.086.207-.086.32 0 .35.286.635.637.635h12.34c.112 0 .222-.03.32-.085.303-.176.407-.565.232-.87L7.357.318C7.303.22 7.222.14 7.125.085c-.303-.175-.693-.07-.87.233" fill="#fff"/><path d="M.637 11.73c-.224 0-.406-.183-.406-.406 0-.07.02-.14.056-.203L6.456.434c.112-.193.36-.26.554-.148.06.036.112.087.148.148l6.17 10.688c.112.195.046.443-.148.555-.06.035-.13.054-.202.054M2.04 10.513h9.534L6.807 2.257z" fill="#df485c"/><path d="M7.955 8.266c0 .456-.37.826-.827.826-.456 0-.826-.37-.826-.826 0-.457.37-.827.826-.827.457 0 .826.37.826.825zM5.138 5.934h.342c.324.006.324.336.335.498l-.985.01c-.016-.17-.016-.502.31-.508zm1.99 1.003c.73 0 1.32.59 1.32 1.32 0 .73-.592 1.323-1.322 1.323-.73 0-1.322-.592-1.322-1.322 0-.73.592-1.322 1.322-1.322zm-2.017-.34c-.627.004-.627.07-.627.662l.005 1.996c-.005.65-.005.65.633.662l3.346-.012c.643 0 .643 0 .66-.667V7.26c-.018-.66-.018-.66-.662-.66zm2.845 1.67c0 .455-.37.825-.827.825-.456 0-.826-.37-.826-.826 0-.457.37-.827.826-.827.457 0 .826.37.826.825zM5.138 5.933h.342c.324.006.324.336.335.498l-.985.01c-.016-.17-.016-.502.31-.508zm1.99 1.003c.73 0 1.32.59 1.32 1.32 0 .73-.592 1.323-1.322 1.323-.73 0-1.322-.592-1.322-1.322 0-.73.592-1.322 1.322-1.322zm-2.017-.34c-.627.004-.627.07-.627.662l.005 1.994c-.005.65-.005.65.633.662l3.346-.012c.643 0 .643 0 .66-.667V7.26c-.018-.66-.018-.66-.662-.66z"/></svg>
