<?xml version="1.0" encoding="UTF-8" standalone="no"?>
<svg
   xmlns:dc="http://purl.org/dc/elements/1.1/"
   xmlns:cc="http://creativecommons.org/ns#"
   xmlns:rdf="http://www.w3.org/1999/02/22-rdf-syntax-ns#"
   xmlns:svg="http://www.w3.org/2000/svg"
   xmlns="http://www.w3.org/2000/svg"
   id="svg2"
   height="16"
   width="16"
   version="1.1">
  <metadata
     id="metadata10">
    <rdf:RDF>
      <cc:Work
         rdf:about="">
        <dc:format>image/svg+xml</dc:format>
        <dc:type
           rdf:resource="http://purl.org/dc/dcmitype/StillImage" />
        <dc:title />
      </cc:Work>
    </rdf:RDF>
  </metadata>
  <defs
     id="defs8" />
  <path
     style="fill:#0a0a0a;fill-opacity:1;stroke-width:0.6;stroke-miterlimit:4;stroke-dasharray:none;stroke:#ffffff;stroke-linejoin:round;stroke-linecap:round"
     id="path4-9"
     d="m 5.220,3.367 0,9.265537 c 0,3.706214 5.559,3.706 5.559322,0 l 0,-9.265537 c 0,-3.70621466 -5.559322,-3.70621466 -5.559322,0 z M 8,1.5141247 c 1.019209,0 1.853,0.833 1.853,1.853 C 9.853,4.386 9.019,5.220 8,5.2203394 6.980,5.220 6.146,4.386 6.146,3.367 6.146,2.348 6.980,1.514 8,1.5141247 Z M 8,6.146893 c 1.019209,0 1.853,0.833 1.853,1.853 0,1.019209 -0.8338984,1.8531074 -1.8531074,1.8531074 -1.019209,0 -1.8531074,-0.8338984 -1.8531074,-1.8531074 C 6.146,6.980 6.980,6.146 8,6.146893 Z m 0,4.632768 c 1.019209,0 1.853,0.833 1.853,1.853 0,1.019209 -0.8338984,1.853107 -1.8531074,1.853107 -1.019209,0 -1.8531074,-0.833898 -1.8531074,-1.853107 0,-1.01921 0.8338984,-1.853108 1.8531074,-1.853108 z" />
  <path
     style="fill:#0a0a0a;fill-opacity:1"
     id="path4"
     d="m 5.220,3.367 0,9.2655374 c 0,3.706214 5.559,3.706 5.559322,0 l 0,-9.2655374 c 0,-3.70621466 -5.559322,-3.70621466 -5.559322,0 z M 8,1.5141243 c 1.019209,0 1.853,0.833 1.853,1.853 C 9.853,4.386 9.019,5.220 8,5.220339 6.980,5.220 6.146,4.386 6.146,3.367 6.146,2.348 6.980,1.514 8,1.5141243 Z M 8,6.1468926 C 9.019,6.146 9.853,6.980 9.8531074,8 9.853,9.019 9.019,9.853 8,9.8531074 6.980,9.853 6.146,9.019 6.1468926,8 6.146,6.980 6.980,6.146 8,6.1468926 Z m 0,4.6327684 c 1.019209,0 1.853,0.833 1.853,1.853 0,1.019209 -0.8338984,1.853107 -1.8531074,1.853107 -1.019209,0 -1.8531074,-0.833898 -1.8531074,-1.853107 0,-1.01921 0.8338984,-1.853108 1.8531074,-1.853108 z" />
</svg>
