<?xml version="1.0" encoding="UTF-8" standalone="no"?>
<svg
   xmlns:dc="http://purl.org/dc/elements/1.1/"
   xmlns:cc="http://creativecommons.org/ns#"
   xmlns:rdf="http://www.w3.org/1999/02/22-rdf-syntax-ns#"
   xmlns:svg="http://www.w3.org/2000/svg"
   xmlns="http://www.w3.org/2000/svg"
   xmlns:sodipodi="http://sodipodi.sourceforge.net/DTD/sodipodi-0.dtd"
   xmlns:inkscape="http://www.inkscape.org/namespaces/inkscape"
   version="1.1"
   width="16"
   height="16"
   id="svg2"
   inkscape:version="0.91 r"
   sodipodi:docname="traffic_light.svg">
  <metadata
     id="metadata10">
    <rdf:RDF>
      <cc:Work
         rdf:about="">
        <dc:format>image/svg+xml</dc:format>
        <dc:type
           rdf:resource="http://purl.org/dc/dcmitype/StillImage" />
        <dc:title></dc:title>
      </cc:Work>
    </rdf:RDF>
  </metadata>
  <defs
     id="defs8" />
  <sodipodi:namedview
     pagecolor="#dadada"
     bordercolor="#666666"
     borderopacity="1"
     objecttolerance="10"
     gridtolerance="10"
     guidetolerance="10"
     inkscape:pageopacity="0"
     inkscape:pageshadow="2"
     inkscape:window-width="1600"
     inkscape:window-height="845"
     id="namedview6"
     showgrid="false"
     inkscape:zoom="14.75"
     inkscape:cx="8"
     inkscape:cy="8"
     inkscape:window-x="-2"
     inkscape:window-y="-3"
     inkscape:window-maximized="1"
     inkscape:current-layer="svg2" />
  <path
     inkscape:connector-curvature="0"
     d="m 5.220339,3.367232 0,9.265537 c 0,3.706214 5.559322,3.706214 5.559322,0 l 0,-9.265537 c 0,-3.70621466 -5.559322,-3.70621466 -5.559322,0 z M 8,1.5141247 c 1.019209,0 1.8531074,0.8338983 1.8531074,1.8531073 C 9.8531074,4.3864411 9.019209,5.2203394 8,5.2203394 6.980791,5.2203394 6.1468926,4.3864411 6.1468926,3.367232 6.1468926,2.348023 6.980791,1.5141247 8,1.5141247 Z M 8,6.146893 c 1.019209,0 1.8531074,0.8338984 1.8531074,1.8531074 0,1.019209 -0.8338984,1.8531074 -1.8531074,1.8531074 -1.019209,0 -1.8531074,-0.8338984 -1.8531074,-1.8531074 C 6.1468926,6.9807914 6.980791,6.146893 8,6.146893 Z m 0,4.632768 c 1.019209,0 1.8531074,0.833898 1.8531074,1.853108 0,1.019209 -0.8338984,1.853107 -1.8531074,1.853107 -1.019209,0 -1.8531074,-0.833898 -1.8531074,-1.853107 0,-1.01921 0.8338984,-1.853108 1.8531074,-1.853108 z"
     id="path4-9"
     style="fill:#0a0a0a;fill-opacity:1;stroke-width:0.6;stroke-miterlimit:4;stroke-dasharray:none;stroke:#ffffff;stroke-linejoin:round;stroke-linecap:round" />
  <path
     inkscape:connector-curvature="0"
     d="m 5.220339,3.3672316 0,9.2655374 c 0,3.706214 5.559322,3.706214 5.559322,0 l 0,-9.2655374 c 0,-3.70621466 -5.559322,-3.70621466 -5.559322,0 z M 8,1.5141243 c 1.019209,0 1.8531074,0.8338983 1.8531074,1.8531073 C 9.8531074,4.3864407 9.019209,5.220339 8,5.220339 6.980791,5.220339 6.1468926,4.3864407 6.1468926,3.3672316 6.1468926,2.3480226 6.980791,1.5141243 8,1.5141243 Z M 8,6.1468926 C 9.019209,6.1468926 9.8531074,6.980791 9.8531074,8 9.8531074,9.019209 9.019209,9.8531074 8,9.8531074 6.980791,9.8531074 6.1468926,9.019209 6.1468926,8 6.1468926,6.980791 6.980791,6.1468926 8,6.1468926 Z m 0,4.6327684 c 1.019209,0 1.8531074,0.833898 1.8531074,1.853108 0,1.019209 -0.8338984,1.853107 -1.8531074,1.853107 -1.019209,0 -1.8531074,-0.833898 -1.8531074,-1.853107 0,-1.01921 0.8338984,-1.853108 1.8531074,-1.853108 z"
     id="path4"
     style="fill:#0a0a0a;fill-opacity:1" />
</svg>
