<?xml version="1.0" encoding="UTF-8" standalone="no"?>
<svg
   xmlns:dc="http://purl.org/dc/elements/1.1/"
   xmlns:cc="http://creativecommons.org/ns#"
   xmlns:rdf="http://www.w3.org/1999/02/22-rdf-syntax-ns#"
   xmlns:svg="http://www.w3.org/2000/svg"
   xmlns="http://www.w3.org/2000/svg"
   version="1.1"
   id="svg2"
   viewBox="0 0 48 48"
   height="48"
   width="48">
  <metadata
     id="metadata14">
    <rdf:RDF>
      <cc:Work
         rdf:about="">
        <dc:format>image/svg+xml</dc:format>
        <dc:type
           rdf:resource="http://purl.org/dc/dcmitype/StillImage" />
        <dc:title></dc:title>
      </cc:Work>
    </rdf:RDF>
  </metadata>
  <defs
     id="defs4">
    <path
       d="M0 0h48v48H0z"
       id="a" />
  </defs>
  <path
     id="path10"
     d="M27 9c2.2 0 4-1.8 4-4s-1.8-4-4-4-4 1.8-4 4 1.8 4 4 4zm-7.5 6.8L14 44h4.2l3.5-16 4.3 4v12h4V28.9l-4.1-4.1 1.2-6C29.7 22 33.6 24 38 24v-4c-3.7 0-6.9-2-8.7-4.9l-1.9-3.2c-.7-1.2-2-1.9-3.4-1.9-.5 0-1 .1-1.5.3L12 14.6V24h4v-6.7l3.5-1.5"
     clip-path="url(#b)" />
</svg>
