<?xml version="1.0" encoding="UTF-8" standalone="no"?>
<svg
   xmlns:dc="http://purl.org/dc/elements/1.1/"
   xmlns:cc="http://creativecommons.org/ns#"
   xmlns:rdf="http://www.w3.org/1999/02/22-rdf-syntax-ns#"
   xmlns:svg="http://www.w3.org/2000/svg"
   xmlns="http://www.w3.org/2000/svg"
   version="1.1"
   id="svg2"
   viewBox="0 0 48 48"
   height="48"
   width="48">
  <metadata
     id="metadata14">
    <rdf:RDF>
      <cc:Work
         rdf:about="">
        <dc:format>image/svg+xml</dc:format>
        <dc:type
           rdf:resource="http://purl.org/dc/dcmitype/StillImage" />
        <dc:title></dc:title>
      </cc:Work>
    </rdf:RDF>
  </metadata>
  <defs
     id="defs4">
    <path
       d="M0 0h48v48H0z"
       id="a" />
  </defs>
  <path
     id="path10"
     d="M31 11c2.2 0 4-1.8 4-4s-1.8-4-4-4-4 1.8-4 4 1.8 4 4 4zM10 24C4.5 24 0 28.5 0 34s4.5 10 10 10 10-4.5 10-10-4.5-10-10-10zm0 17c-3.9 0-7-3.1-7-7s3.1-7 7-7 7 3.1 7 7-3.1 7-7 7zm11.6-19.9l4.7-4.8 1.5 1.5c2.5 2.6 6 4.1 10.1 4.1v-4c-3 0-5.5-1.1-7.3-2.9l-3.9-3.8c-.6-.7-1.6-1.2-2.7-1.2s-2.1.4-2.8 1.2l-5.5 5.5c-.7.7-1.2 1.7-1.2 2.8 0 1.1.5 2.1 1.2 2.9L22 28v10h4V25.5l-4.4-4.4zM38 24c-5.5 0-10 4.5-10 10s4.5 10 10 10 10-4.5 10-10-4.5-10-10-10zm0 17c-3.9 0-7-3.1-7-7s3.1-7 7-7 7 3.1 7 7-3.1 7-7 7z"
     clip-path="url(#b)" />
</svg>
