<?xml version="1.0" encoding="UTF-8" standalone="no"?>
<svg
   xmlns:dc="http://purl.org/dc/elements/1.1/"
   xmlns:cc="http://creativecommons.org/ns#"
   xmlns:rdf="http://www.w3.org/1999/02/22-rdf-syntax-ns#"
   xmlns:svg="http://www.w3.org/2000/svg"
   xmlns="http://www.w3.org/2000/svg"
   version="1.1"
   width="100%"
   height="100%"
   viewBox="0 0 16 16"
   id="svg2">
  <metadata
     id="metadata10">
    <rdf:RDF>
      <cc:Work
         rdf:about="">
        <dc:format>image/svg+xml</dc:format>
        <dc:type
           rdf:resource="http://purl.org/dc/dcmitype/StillImage" />
        <dc:title></dc:title>
      </cc:Work>
    </rdf:RDF>
  </metadata>
  <defs
     id="defs8" />
  <g
     transform="matrix(1.0007155,0,0,0.97093723,-0.00571257,0.02552466)"
     id="g5307">
    <path
       style="color:#000000;clip-rule:nonzero;display:inline;overflow:visible;visibility:visible;opacity:1;isolation:auto;mix-blend-mode:normal;color-interpolation:sRGB;color-interpolation-filters:linearRGB;solid-color:#000000;solid-opacity:1;fill:#734a08;fill-opacity:1;fill-rule:nonzero;stroke:#ffffff;stroke-width:0.53195149;stroke-linecap:round;stroke-linejoin:bevel;stroke-miterlimit:4;stroke-dasharray:none;stroke-dashoffset:0;stroke-opacity:1;color-rendering:auto;image-rendering:auto;shape-rendering:auto;text-rendering:auto;enable-background:accumulate"
       d="M 4.5181621,1.0191425 C 4.191595,0.94340563 3.9201442,1.1305298 3.920144,1.4313853 l 0,9.7410167 c 0,0.300856 0.2714503,0.613891 0.5980181,0.689626 l 8.4472179,1.959066 c 0.326568,0.07573 0.598019,-0.111386 0.598019,-0.412243 l 0,-9.7410178 c 0,-0.3008561 -0.271452,-0.6138889 -0.598019,-0.6896257 L 4.5181621,1.0191425 Z"
       id="rect6386-3" />
    <g
       id="g5292"
       transform="translate(0,0.61538464)">
      <path
         id="rect6386"
         d="m 3.1197878,3.4527411 c -0.3761272,0 -0.6887736,0.2610681 -0.6887738,0.5751446 l 0,10.1690803 c 0,0.314077 0.3126458,0.575145 0.6887738,0.575145 l 9.7291742,0 c 0.376128,0 0.688774,-0.261067 0.688774,-0.575145 l 0,-10.1690803 c 0,-0.314077 -0.312647,-0.5751446 -0.688774,-0.5751446 l -9.7291742,0 z"
         style="color:#000000;clip-rule:nonzero;display:inline;overflow:visible;visibility:visible;opacity:1;isolation:auto;mix-blend-mode:normal;color-interpolation:sRGB;color-interpolation-filters:linearRGB;solid-color:#000000;solid-opacity:1;fill:#734a08;fill-opacity:1;fill-rule:nonzero;stroke:#ffffff;stroke-width:0.58329982;stroke-linecap:round;stroke-linejoin:bevel;stroke-miterlimit:4;stroke-dasharray:none;stroke-dashoffset:0;stroke-opacity:1;color-rendering:auto;image-rendering:auto;shape-rendering:auto;text-rendering:auto;enable-background:accumulate" />
      <g
         transform="translate(-1.9881657,0.61538462)"
         id="g5270">
        <path
           style="color:#000000;clip-rule:nonzero;display:inline;overflow:visible;visibility:visible;opacity:1;isolation:auto;mix-blend-mode:normal;color-interpolation:sRGB;color-interpolation-filters:linearRGB;solid-color:#000000;solid-opacity:1;fill:#ffffff;fill-opacity:1;fill-rule:nonzero;stroke:#ffffff;stroke-width:0.22555888;stroke-linecap:round;stroke-linejoin:bevel;stroke-miterlimit:4;stroke-dasharray:none;stroke-dashoffset:0;stroke-opacity:1;color-rendering:auto;image-rendering:auto;shape-rendering:auto;text-rendering:auto;enable-background:accumulate"
           d="m 6.4834932,6.3159149 1.1581273,0 c 0.1097369,0 0.198081,0.088344 0.198081,0.198081 l 0,3.5345081 c 0,0.109737 -0.088344,0.198081 -0.198081,0.198081 l -1.1581273,0 c -0.1097369,0 -0.1980811,-0.08834 -0.1980811,-0.198081 l 0,-3.5345081 c 0,-0.1097368 0.088344,-0.198081 0.1980811,-0.198081 z"
           id="rect6384" />
        <path
           style="color:#000000;clip-rule:nonzero;display:inline;overflow:visible;visibility:visible;opacity:1;isolation:auto;mix-blend-mode:normal;color-interpolation:sRGB;color-interpolation-filters:linearRGB;solid-color:#000000;solid-opacity:1;fill:#729fcf;fill-opacity:1;fill-rule:nonzero;stroke:#734a08;stroke-width:0.56786239;stroke-linecap:round;stroke-linejoin:bevel;stroke-miterlimit:4;stroke-dasharray:none;stroke-dashoffset:0;stroke-opacity:1;color-rendering:auto;image-rendering:auto;shape-rendering:auto;text-rendering:auto;enable-background:accumulate"
           d="M 7.5490455,7.3696311 A 0.44246966,0.44246966 0 0 1 7.1065758,7.8121008 0.44246966,0.44246966 0 0 1 6.6641061,7.3696311 0.44246966,0.44246966 0 0 1 7.1065758,6.9271615 0.44246966,0.44246966 0 0 1 7.5490455,7.3696311 Z"
           id="path6365-3" />
        <path
           style="color:#000000;clip-rule:nonzero;display:inline;overflow:visible;visibility:visible;opacity:1;isolation:auto;mix-blend-mode:normal;color-interpolation:sRGB;color-interpolation-filters:linearRGB;solid-color:#000000;solid-opacity:1;fill:#729fcf;fill-opacity:1;fill-rule:nonzero;stroke:#734a08;stroke-width:0.56786239;stroke-linecap:round;stroke-linejoin:bevel;stroke-miterlimit:4;stroke-dasharray:none;stroke-dashoffset:0;stroke-opacity:1;color-rendering:auto;image-rendering:auto;shape-rendering:auto;text-rendering:auto;enable-background:accumulate"
           d="m 7.1892216,7.0182583 c 0,0 1.2135548,-0.4424756 1.647961,-0.4294559 0.565702,-0.010775 1.3971594,0.1722262 1.3920814,0.4684866 -0.002,0.1181647 -0.176172,0.3974993 -0.4752582,0.403439 C 9.5406693,7.4692074 8.9169771,7.2457226 8.5640921,7.2499158 7.6896407,7.2603067 7.1195895,7.6299076 7.1195895,7.6299076 Z"
           id="rect6367-6" />
        <path
           style="color:#000000;clip-rule:nonzero;display:inline;overflow:visible;visibility:visible;opacity:1;isolation:auto;mix-blend-mode:normal;color-interpolation:sRGB;color-interpolation-filters:linearRGB;solid-color:#000000;solid-opacity:1;fill:#ffffff;fill-opacity:1;fill-rule:nonzero;stroke:none;stroke-width:0.05;stroke-linecap:round;stroke-linejoin:bevel;stroke-miterlimit:4;stroke-dasharray:none;stroke-dashoffset:0;stroke-opacity:1;color-rendering:auto;image-rendering:auto;shape-rendering:auto;text-rendering:auto;enable-background:accumulate"
           d="M 7.5490455,7.3696311 A 0.44246966,0.44246966 0 0 1 7.1065758,7.8121008 0.44246966,0.44246966 0 0 1 6.6641061,7.3696311 0.44246966,0.44246966 0 0 1 7.1065758,6.9271615 0.44246966,0.44246966 0 0 1 7.5490455,7.3696311 Z"
           id="path6365" />
        <path
           style="color:#000000;clip-rule:nonzero;display:inline;overflow:visible;visibility:visible;opacity:1;isolation:auto;mix-blend-mode:normal;color-interpolation:sRGB;color-interpolation-filters:linearRGB;solid-color:#000000;solid-opacity:1;fill:#ffffff;fill-opacity:1;fill-rule:nonzero;stroke:none;stroke-width:0.05;stroke-linecap:round;stroke-linejoin:bevel;stroke-miterlimit:4;stroke-dasharray:none;stroke-dashoffset:0;stroke-opacity:1;color-rendering:auto;image-rendering:auto;shape-rendering:auto;text-rendering:auto;enable-background:accumulate"
           d="m 7.1892216,7.0182582 c 0,0 1.2135548,-0.4424756 1.647961,-0.4294559 0.565702,-0.010775 1.3971594,0.1722262 1.3920814,0.4684866 -0.002,0.1181647 -0.176172,0.3974993 -0.4752582,0.403439 C 9.5406693,7.4692073 8.9169771,7.2457225 8.5640921,7.2499157 7.6896407,7.2603066 7.1195895,7.6299075 7.1195895,7.6299075 Z"
           id="rect6367" />
      </g>
    </g>
  </g>
</svg>
