<?xml version="1.0" encoding="UTF-8" standalone="no"?>
<svg
   xmlns:dc="http://purl.org/dc/elements/1.1/"
   xmlns:cc="http://creativecommons.org/ns#"
   xmlns:rdf="http://www.w3.org/1999/02/22-rdf-syntax-ns#"
   xmlns:svg="http://www.w3.org/2000/svg"
   xmlns="http://www.w3.org/2000/svg"
   xmlns:sodipodi="http://sodipodi.sourceforge.net/DTD/sodipodi-0.dtd"
   xmlns:inkscape="http://www.inkscape.org/namespaces/inkscape"
   id="svg2"
   viewBox="0 0 16 16"
   height="100%"
   width="100%"
   version="1.1"
   inkscape:version="0.91 r13725"
   sodipodi:docname="wall_b.16.svg">
  <sodipodi:namedview
     pagecolor="#ffffff"
     bordercolor="#666666"
     borderopacity="1"
     objecttolerance="10"
     gridtolerance="10"
     guidetolerance="10"
     inkscape:pageopacity="0"
     inkscape:pageshadow="2"
     inkscape:window-width="1600"
     inkscape:window-height="841"
     id="namedview4713"
     showgrid="false"
     showguides="true"
     inkscape:guide-bbox="true"
     inkscape:zoom="22.627417"
     inkscape:cx="3.2847942"
     inkscape:cy="5.031755"
     inkscape:window-x="0"
     inkscape:window-y="0"
     inkscape:window-maximized="1"
     inkscape:current-layer="svg2" />
  <metadata
     id="metadata10">
    <rdf:RDF>
      <cc:Work
         rdf:about="">
        <dc:format>image/svg+xml</dc:format>
        <dc:type
           rdf:resource="http://purl.org/dc/dcmitype/StillImage" />
        <dc:title></dc:title>
      </cc:Work>
    </rdf:RDF>
  </metadata>
  <defs
     id="defs8" />
  <path
     style="fill:#734a08;fill-opacity:1;stroke:#ffffff;stroke-width:0.69999999;stroke-linecap:round;stroke-linejoin:bevel;stroke-miterlimit:4;stroke-dasharray:none"
     d="m 1.408547,7.5000002 0,7.0802618 C 1.408547,14.802917 1.60517,15 1.809005,15 l 12.389376,0 c 0.189102,0 0.39359,-0.210002 0.39359,-0.414063 l 0,-7.0859368 0.475809,-0.4772537 -0.0035,-0.9485185 c 0,-0.1914824 -0.188889,-0.405869 -0.391401,-0.405869 l -13.348954,0 c -0.183266,0 -0.382839,0.1672232 -0.382839,0.3980148 l 0.0082,0.9636434 z"
     id="path4723-2"
     inkscape:connector-curvature="0"
     sodipodi:nodetypes="ccccccccccccc" />
  <path
     style="fill:#734a08;fill-opacity:1;stroke:none;stroke-width:0.5;stroke-linecap:round;stroke-linejoin:bevel;stroke-miterlimit:4;stroke-dasharray:none"
     d="m 1.408547,7.5000004 0,7.0802616 C 1.408547,14.802917 1.60517,15 1.809005,15 l 12.389376,0 c 0.189102,0 0.39359,-0.210002 0.39359,-0.414063 l 0,-7.0859366 0.475809,-0.4772537 -0.0035,-0.9485185 c 0,-0.1914824 -0.188889,-0.405869 -0.391401,-0.405869 l -13.348954,0 c -0.183266,0 -0.382839,0.1672232 -0.382839,0.3980148 l 0.0082,0.9636434 z"
     id="path4723-7-0"
     inkscape:connector-curvature="0"
     sodipodi:nodetypes="ccccccccccccc" />
  <path
     style="color:#000000;font-style:normal;font-variant:normal;font-weight:normal;font-stretch:normal;font-size:medium;line-height:normal;font-family:sans-serif;text-indent:0;text-align:start;text-decoration:none;text-decoration-line:none;text-decoration-style:solid;text-decoration-color:#000000;letter-spacing:normal;word-spacing:normal;text-transform:none;direction:ltr;block-progression:tb;writing-mode:lr-tb;baseline-shift:baseline;text-anchor:start;white-space:normal;clip-rule:nonzero;display:inline;overflow:visible;visibility:visible;opacity:1;isolation:auto;mix-blend-mode:normal;color-interpolation:sRGB;color-interpolation-filters:linearRGB;solid-color:#000000;solid-opacity:1;fill:#ffffff;fill-opacity:1;fill-rule:nonzero;stroke:none;stroke-width:0.05;stroke-linecap:round;stroke-linejoin:bevel;stroke-miterlimit:4;stroke-dasharray:none;stroke-dashoffset:0;stroke-opacity:1;color-rendering:auto;image-rendering:auto;shape-rendering:auto;text-rendering:auto;enable-background:accumulate"
     d="m 3.00333,8.0093056 c -0.231328,0 -0.423044,0.2109296 -0.423044,0.4654399 -0.01145,1.8712145 0,3.4237595 0,5.2475715 0,0.254509 0.191814,0.46369 0.423044,0.46369 l 2.988353,0 c 0.103434,0 0.194299,-0.0505 0.267185,-0.118985 0.07343,0.06901 0.164957,0.118985 0.268777,0.118985 l 2.988353,0 c 0.101245,0 0.188504,-0.04805 0.260825,-0.113735 0.07232,0.06569 0.159579,0.113735 0.260824,0.113735 l 2.988353,0 c 0.231231,0 0.421456,-0.209289 0.421456,-0.46369 0.0062,-1.747733 0,-3.498917 0,-5.2475715 0,-0.2544025 -0.190127,-0.4654397 -0.421456,-0.4654399 l -2.988353,0 c -0.100998,0 -0.188518,0.047944 -0.260824,0.1137354 C 9.704513,8.057249 9.616995,8.0093058 9.515998,8.0093056 l -2.988353,0 c -0.103557,0 -0.195346,0.049896 -0.268777,0.1189847 C 6.186008,8.0597533 6.094863,8.0093058 5.991683,8.0093056 l -2.988353,0 z m 0,0.341206 2.988353,0 c 0.06583,0 0.112918,0.051809 0.112918,0.1242339 l 0,1.3578244 c 0,0.069108 -0.04456,0.1164062 -0.106557,0.1207344 l -1.230966,0 c -0.01162,0 -0.01591,0.00302 -0.0159,0.0035 l -0.502565,0 -0.0016,0 c 2.4e-5,-4.831e-4 -0.0042,-0.0035 -0.0159,-0.0035 l -1.234147,0 C 2.936246,9.9490643 2.89366,9.9033863 2.892002,9.8360694 l 0,-0.4181959 -0.0016,0 0,-0.00175 0,-0.9413782 c 0,-0.072425 0.0471,-0.1242339 0.112918,-0.1242339 z m 3.524315,0 2.988353,0 c 0.05684,0 0.09278,0.041533 0.103375,0.1014868 -0.0012,0.00378 -0.0048,0.00895 -0.0048,0.022747 l 0,1.3578244 c 0,0.013734 0.0036,0.018875 0.0048,0.022747 -0.01003,0.056786 -0.04384,0.094276 -0.09701,0.097987 l -1.246869,0 c -0.01162,0 -0.01591,0.00302 -0.01591,0.0035 l -0.486661,0 -0.0016,0 c 2.4e-5,-4.831e-4 -0.0042,-0.0035 -0.0159,-0.0035 l -1.234147,0 C 6.459266,9.9489738 6.414724,9.9016768 6.414724,9.8325689 l 0,-1.3578244 c 0,-0.072425 0.04709,-0.1242339 0.112918,-0.1242339 z m 3.510002,0 2.988353,0 c 0.06582,0 0.112919,0.051809 0.112919,0.1242339 l 0,1.2038443 0,0.1539801 c 0,0.069109 -0.04456,0.1164062 -0.106557,0.1207344 l -1.226194,0 c -0.01162,0 -0.01592,0.00302 -0.0159,0.0035 l -0.507337,0 -0.0016,0 c 4.4e-5,-4.82e-4 -0.0043,-0.0035 -0.0159,-0.0035 l -1.234144,0 -0.0016,0 c -0.052355,-0.0043 -0.085472,-0.041709 -0.095423,-0.097987 0.0013,-0.00379 0.0048,-0.00895 0.0048,-0.022747 l 0,-1.3578244 c 0,-0.013734 -0.0036,-0.018875 -0.0048,-0.022747 0.01066,-0.059951 0.04653,-0.1014867 0.1033733,-0.1014867 z M 2.892003,10.29451 c 0.447428,0.0059 0.896579,0.0035 1.345474,0.0035 0.06178,0.0044 0.104966,0.05139 0.104966,0.120735 l 0,1.359575 c 0,0.07131 -0.04368,0.118902 -0.108147,0.120734 -0.447344,-0.0014 -0.896099,6.1e-4 -1.342293,0.0017 l 0,-1.606293 z m 3.115583,0 0.0016,0 0.502565,0 c 1e-6,4.83e-4 0.0043,0.0035 0.0159,0.0035 l 1.235737,0 c 0.05235,0.0043 0.08548,0.0417 0.09542,0.09799 -0.0012,0.0038 -0.0048,0.009 -0.0048,0.02275 l 0,1.359575 c 0,0.01375 0.0036,0.01895 0.0048,0.02275 -0.01037,0.05753 -0.04393,0.09582 -0.0986,0.09799 l -1.232556,0 c -7e-4,0 -0.0047,0.0014 -0.0064,0.0017 0,0 -0.0016,0 -0.0016,0 l -0.518468,0 c -6.81e-4,-2.34e-4 -0.0015,4.14e-4 -0.0032,0 -0.0017,-4.15e-4 -0.0056,-0.0017 -0.0064,-0.0017 l -1.227785,0 c -0.06456,-0.0018 -0.109735,-0.04972 -0.109735,-0.120741 l 0,-1.359574 c 0,-0.06911 0.04455,-0.116408 0.106557,-0.120735 l 1.230966,0 c 0.01159,0 0.01586,-0.003 0.0159,-0.0035 z m 3.524316,0 0.0016,0 0.488251,0 c -2.9e-5,4.81e-4 0.0043,0.0035 0.0159,0.0035 l 1.234145,0 c 0.06177,0.0044 0.104968,0.05139 0.104968,0.120735 l 0,1.359575 c 0,0.07131 -0.04367,0.118902 -0.108147,0.120734 l -1.230966,0 c -6.92e-4,0 -0.0048,0.0014 -0.0063,0.0017 0,0 -0.0016,0 -0.0016,0 l -0.502563,0 c 0,0 -0.0016,0 -0.0016,0 -6.81e-4,-2.33e-4 -0.0015,4.14e-4 -0.0032,0 -0.0017,-4.15e-4 -0.0056,-0.0017 -0.0064,-0.0017 l -1.243689,0 c -0.05612,-0.0017 -0.08922,-0.04245 -0.09861,-0.101487 0.0013,-0.0024 0.0032,-0.006 0.0032,-0.01925 l 0,-1.359575 c 0,-0.0144 -0.0021,-0.01926 -0.0032,-0.021 0.0093,-0.05644 0.04135,-0.09539 0.09383,-0.09974 l 1.24846,0 c 0.01159,0 0.01587,-0.003 0.01591,-0.0035 z m 3.607017,0 0,1.606293 c -0.4448,-0.0029 -0.89036,-0.0017 -1.335932,-0.0017 -0.06456,-0.0017 -0.109735,-0.0497 -0.109739,-0.120734 l 0,-1.359575 c 0,-0.06912 0.04456,-0.116408 0.106558,-0.120735 0.446802,0.0024 0.894336,-0.0014 1.339113,-0.0035 z m -8.8919,1.943999 0.0016,0 0.502565,0 c -6e-6,4.83e-4 0.0043,0.0035 0.0159,0.0035 l 1.230966,0 c 0.06201,0.0044 0.106556,0.05162 0.106556,0.120735 l 0,1.359574 c 0,0.07242 -0.04709,0.124235 -0.112918,0.124235 l -2.988352,0 c -0.06583,0 -0.112918,-0.05181 -0.112918,-0.124235 l 0,-1.272086 0,-0.0018 0.0016,0 0,-0.08924 c 0.0017,-0.06732 0.04425,-0.112996 0.104966,-0.117235 l 1.234146,0 c 0.01159,0 0.01587,-0.003 0.0159,-0.0035 z m 3.524315,0 0.0016,0 0.48666,0 c -1.4e-5,4.83e-4 0.0043,0.0035 0.01591,0.0035 l 1.24846,0 c 0.05236,0.0043 0.08548,0.0417 0.09542,0.09799 -0.0012,0.0038 -0.0048,0.0089 -0.0048,0.02275 l 0,1.359574 c 0,0.01373 0.0035,0.01888 0.0048,0.02275 -0.01059,0.05995 -0.04653,0.101488 -0.103376,0.101488 l -2.988352,0 c -0.06583,0 -0.112918,-0.05181 -0.112918,-0.124234 l 0,-1.359574 c 0,-0.06912 0.04456,-0.116406 0.106557,-0.120735 l 1.234146,0 c 0.01159,0 0.01587,-0.003 0.0159,-0.0035 z m 3.510002,0 0.0016,0 0.507338,0 c -3.6e-5,4.81e-4 0.0043,0.0035 0.0159,0.0035 l 1.226194,0 c 0.06202,0.0044 0.106558,0.05162 0.106558,0.120735 l 0,0.573926 0,0.785648 c 0,0.07242 -0.0471,0.124235 -0.11292,0.124235 l -2.988352,0 c -0.056839,0 -0.092784,-0.04153 -0.103376,-0.101489 0.0013,-0.0038 0.0048,-0.0089 0.0048,-0.02275 l 0,-1.359574 c 0,-0.01373 -0.0036,-0.01888 -0.0048,-0.02275 0.0099,-0.05628 0.04305,-0.09369 0.095423,-0.09799 l 1.235737,0 c 0.01158,0 0.01589,-0.003 0.0159,-0.0035 z"
     id="rect4727-9"
     inkscape:connector-curvature="0" />
</svg>
