<?xml version="1.0" encoding="UTF-8" standalone="no"?>
<svg
   xmlns:dc="http://purl.org/dc/elements/1.1/"
   xmlns:cc="http://creativecommons.org/ns#"
   xmlns:rdf="http://www.w3.org/1999/02/22-rdf-syntax-ns#"
   xmlns:svg="http://www.w3.org/2000/svg"
   xmlns="http://www.w3.org/2000/svg"
   id="svg2"
   viewBox="0 0 16 16"
   height="100%"
   width="100%"
   version="1.1">
  <metadata
     id="metadata30">
    <rdf:RDF>
      <cc:Work
         rdf:about="">
        <dc:format>image/svg+xml</dc:format>
        <dc:type
           rdf:resource="http://purl.org/dc/dcmitype/StillImage" />
        <dc:title></dc:title>
      </cc:Work>
    </rdf:RDF>
  </metadata>
  <defs
     id="defs28" />
  <path
     d="m 8.0197391,1.029282 c -3.8129634,0 -6.9047619,3.0704757 -6.9047619,6.8571429 0,3.7866671 3.0917985,6.8571421 6.9047619,6.8571421 0.6367731,0 1.150151,-0.509839 1.150151,-1.14222 0,-0.297142 -0.1106517,-0.565315 -0.2986151,-0.767219 -0.1802903,-0.201905 -0.2870566,-0.464318 -0.2870566,-0.757652 0,-0.632381 0.5133789,-1.14222 1.1501518,-1.14222 l 1.3543658,0 c 2.11746,0 3.835765,-1.7064535 3.835765,-3.8093109 0,-3.3676191 -3.0918,-6.0956631 -6.9047619,-6.0956631 z M 9.9270256,2.3073432 A 1.3702782,1.360828 0 0 1 11.296804,3.6676748 1.3702782,1.360828 0 0 1 9.9270256,5.0299197 1.3702782,1.360828 0 0 1 8.5572474,3.6676748 1.3702782,1.360828 0 0 1 9.9270256,2.3073432 Z M 6.085481,2.3264759 A 1.3702782,1.360828 0 0 1 7.457186,3.6887208 1.3702782,1.360828 0 0 1 6.085481,5.0490523 1.3702782,1.360828 0 0 1 4.7157026,3.6887208 1.3702782,1.360828 0 0 1 6.085481,2.3264759 Z M 3.785178,5.385787 A 1.3702782,1.360828 0 0 1 5.1549564,6.7480314 1.3702782,1.360828 0 0 1 3.785178,8.1083632 1.3702782,1.360828 0 0 1 2.4153997,6.7480314 1.3702782,1.360828 0 0 1 3.785178,5.385787 Z m 8.44215,0 A 1.3702782,1.360828 0 0 1 13.597107,6.7480314 1.3702782,1.360828 0 0 1 12.227328,8.1083632 1.3702782,1.360828 0 0 1 10.85755,6.7480314 1.3702782,1.360828 0 0 1 12.227328,5.385787 Z"
     id="path4-0"
     style="fill:#ac39ac;stroke:#ffffff;stroke-width:0.6;stroke-miterlimit:4;stroke-dasharray:none" />
  <path
     d="m 8.019739,1.0292818 c -3.812963,0 -6.904762,3.0704757 -6.904762,6.8571429 0,3.7866673 3.091799,6.8571423 6.904762,6.8571423 0.636773,0 1.150151,-0.509839 1.150151,-1.14222 0,-0.297142 -0.110652,-0.565315 -0.298615,-0.767219 -0.18029,-0.201905 -0.287057,-0.464318 -0.287057,-0.757652 0,-0.632381 0.513379,-1.14222 1.150152,-1.14222 l 1.354366,0 c 2.11746,0 3.835765,-1.7064537 3.835765,-3.8093111 0,-3.3676191 -3.0918,-6.0956631 -6.904762,-6.0956631 z M 9.927026,2.307343 A 1.3702782,1.360828 0 0 1 11.296804,3.6676746 1.3702782,1.360828 0 0 1 9.927026,5.0299195 1.3702782,1.360828 0 0 1 8.557247,3.6676746 1.3702782,1.360828 0 0 1 9.927026,2.307343 Z M 6.085481,2.326476 A 1.3702782,1.360828 0 0 1 7.457186,3.6887206 1.3702782,1.360828 0 0 1 6.085481,5.0490521 1.3702782,1.360828 0 0 1 4.715703,3.6887206 1.3702782,1.360828 0 0 1 6.085481,2.3264757 Z M 3.785178,5.3857868 A 1.3702782,1.360828 0 0 1 5.154956,6.7480312 1.3702782,1.360828 0 0 1 3.785178,8.108363 1.3702782,1.360828 0 0 1 2.4154,6.7480312 1.3702782,1.360828 0 0 1 3.785178,5.3857868 Z m 8.44215,0 A 1.3702782,1.360828 0 0 1 13.597107,6.7480312 1.3702782,1.360828 0 0 1 12.227328,8.108363 1.3702782,1.360828 0 0 1 10.85755,6.7480312 1.3702782,1.360828 0 0 1 12.227328,5.3857868 Z"
     id="path4"
     style="fill:#ac39ac" />
</svg>
