<?xml version="1.0" encoding="UTF-8" standalone="no"?>
<svg
   xmlns:dc="http://purl.org/dc/elements/1.1/"
   xmlns:cc="http://creativecommons.org/ns#"
   xmlns:rdf="http://www.w3.org/1999/02/22-rdf-syntax-ns#"
   xmlns:svg="http://www.w3.org/2000/svg"
   xmlns="http://www.w3.org/2000/svg"
   xmlns:sodipodi="http://sodipodi.sourceforge.net/DTD/sodipodi-0.dtd"
   xmlns:inkscape="http://www.inkscape.org/namespaces/inkscape"
   width="16"
   height="16"
   viewBox="-224 0 0 13"
   id="svg2"
   version="1.1"
   inkscape:version="0.91 r"
   sodipodi:docname="bag-14.svg"
   inkscape:export-filename="/home/tackat/marble/sources/data/bitmaps/osmcarto/symbols/48/shop/bag-14.png"
   inkscape:export-xdpi="270"
   inkscape:export-ydpi="270">
  <metadata
     id="metadata30">
    <rdf:RDF>
      <cc:Work
         rdf:about="">
        <dc:format>image/svg+xml</dc:format>
        <dc:type
           rdf:resource="http://purl.org/dc/dcmitype/StillImage" />
        <dc:title></dc:title>
      </cc:Work>
    </rdf:RDF>
  </metadata>
  <defs
     id="defs28" />
  <sodipodi:namedview
     pagecolor="#dadada"
     bordercolor="#666666"
     borderopacity="1"
     objecttolerance="10"
     gridtolerance="10"
     guidetolerance="10"
     inkscape:pageopacity="0"
     inkscape:pageshadow="2"
     inkscape:window-width="1600"
     inkscape:window-height="845"
     id="namedview26"
     showgrid="false"
     inkscape:zoom="18.153846"
     inkscape:cx="-10.827508"
     inkscape:cy="7.3262711"
     inkscape:window-x="-2"
     inkscape:window-y="-3"
     inkscape:window-maximized="1"
     inkscape:current-layer="svg2" />
  <path
     d="m 7.0988697,2.59322 c -0.90113,0 -1.8022599,0.9200298 -1.8022599,1.8022599 l 0,0.90113 -0.6758475,0 0,8.1101701 6.7584747,0 0,-8.1101701 -0.675848,0 0,-0.90113 C 10.703389,3.49435 9.7928095,2.59322 8.9011295,2.59322 Z m 0.4505649,1.1264125 0.90113,0 c 0.774894,0 1.1264124,0.5401537 1.1264124,1.1264124 l 0,0.450565 -3.1539548,0 0,-0.450565 c 0,-0.5669956 0.2755557,-1.1264124 1.1264124,-1.1264124 z M 3.4943499,5.2966099 c -1.2224275,0 -1.8022599,0.5798324 -1.8022599,1.8022599 l 0,4.5056502 c 0,1.222428 0.6743317,1.80226 1.8022599,1.80226 z m 9.0113001,0 0,8.1101701 c 1.127928,0 1.80226,-0.674332 1.80226,-1.80226 l 0,-4.5056502 c 0,-1.1846278 -0.560933,-1.8022599 -1.80226,-1.8022599 z"
     id="luggage-1"
     style="fill:#ac39ac;fill-opacity:1;stroke:#ffffff;stroke-width:0.6;stroke-miterlimit:4;stroke-dasharray:none"
     inkscape:connector-curvature="0" />
  <path
     d="m 7.0988697,2.59322 c -0.90113,0 -1.8022599,0.9200298 -1.8022599,1.8022599 l 0,0.90113 -0.6758475,0 0,8.1101701 6.7584747,0 0,-8.1101701 -0.675848,0 0,-0.90113 C 10.703389,3.49435 9.7928095,2.59322 8.9011295,2.59322 Z m 0.4505649,1.1264125 0.90113,0 c 0.774894,0 1.1264124,0.5401537 1.1264124,1.1264124 l 0,0.450565 -3.1539548,0 0,-0.450565 c 0,-0.5669956 0.2755557,-1.1264124 1.1264124,-1.1264124 z M 3.4943499,5.2966099 c -1.2224275,0 -1.8022599,0.5798324 -1.8022599,1.8022599 l 0,4.5056502 c 0,1.222428 0.6743317,1.80226 1.8022599,1.80226 z m 9.0113001,0 0,8.1101701 c 1.127928,0 1.80226,-0.674332 1.80226,-1.80226 l 0,-4.5056502 c 0,-1.1846278 -0.560933,-1.8022599 -1.80226,-1.8022599 z"
     id="luggage"
     style="fill:#ac39ac;fill-opacity:1;stroke:none"
     inkscape:connector-curvature="0" />
</svg>
