<?xml version="1.0" encoding="UTF-8" standalone="no"?>
<svg
   xmlns:dc="http://purl.org/dc/elements/1.1/"
   xmlns:cc="http://creativecommons.org/ns#"
   xmlns:rdf="http://www.w3.org/1999/02/22-rdf-syntax-ns#"
   xmlns:svg="http://www.w3.org/2000/svg"
   xmlns="http://www.w3.org/2000/svg"
   id="svg2"
   viewBox="0 0 16 16"
   height="100%"
   width="100%"
   version="1.1">
  <metadata
     id="metadata30">
    <rdf:RDF>
      <cc:Work
         rdf:about="">
        <dc:format>image/svg+xml</dc:format>
        <dc:type
           rdf:resource="http://purl.org/dc/dcmitype/StillImage" />
        <dc:title />
      </cc:Work>
    </rdf:RDF>
  </metadata>
  <defs
     id="defs28" />
  <path
     style="fill:#ac39ac;fill-opacity:1;stroke:#ffffff;stroke-width:0.6;stroke-miterlimit:4;stroke-dasharray:none"
     id="luggage-1"
     d="m 7.098,2.593 c -0.90113,0 -1.8022599,0.9200298 -1.8022599,1.8022599 l 0,0.90113 -0.6758475,0 0,8.1101701 6.7584747,0 0,-8.1101701 -0.675848,0 0,-0.90113 C 10.70,3.494 9.792,2.593 8.901,2.593 Z m 0.450,1.126 0.90113,0 c 0.774894,0 1.126,0.540 1.126,1.126 l 0,0.450565 -3.1539548,0 0,-0.450565 c 0,-0.5669956 0.2755557,-1.1264124 1.1264124,-1.1264124 z M 3.494,5.296 c -1.2224275,0 -1.8022599,0.5798324 -1.8022599,1.8022599 l 0,4.5056502 c 0,1.222428 0.674,1.802 1.802,1.802 z m 9.0113001,0 0,8.1101701 c 1.127928,0 1.80226,-0.674332 1.80226,-1.80226 l 0,-4.5056502 c 0,-1.1846278 -0.560933,-1.8022599 -1.80226,-1.8022599 z" />
  <path
     style="fill:#ac39ac;fill-opacity:1;stroke:none"
     id="luggage"
     d="m 7.098,2.593 c -0.90113,0 -1.8022599,0.9200298 -1.8022599,1.8022599 l 0,0.90113 -0.6758475,0 0,8.1101701 6.7584747,0 0,-8.1101701 -0.675848,0 0,-0.90113 C 10.70,3.494 9.792,2.593 8.901,2.593 Z m 0.450,1.126 0.90113,0 c 0.774894,0 1.126,0.540 1.126,1.126 l 0,0.450565 -3.1539548,0 0,-0.450565 c 0,-0.5669956 0.2755557,-1.1264124 1.1264124,-1.1264124 z M 3.494,5.296 c -1.2224275,0 -1.8022599,0.5798324 -1.8022599,1.8022599 l 0,4.5056502 c 0,1.222428 0.674,1.802 1.802,1.802 z m 9.0113001,0 0,8.1101701 c 1.127928,0 1.80226,-0.674332 1.80226,-1.80226 l 0,-4.5056502 c 0,-1.1846278 -0.560933,-1.8022599 -1.80226,-1.8022599 z" />
</svg>
