<?xml version="1.0" encoding="UTF-8" standalone="no"?>
<svg
   xmlns:dc="http://purl.org/dc/elements/1.1/"
   xmlns:cc="http://creativecommons.org/ns#"
   xmlns:rdf="http://www.w3.org/1999/02/22-rdf-syntax-ns#"
   xmlns:svg="http://www.w3.org/2000/svg"
   xmlns="http://www.w3.org/2000/svg"
   id="svg2"
   viewBox="0 0 14 14"
   height="100%"
   width="100%"
   version="1.1">
  <defs
     id="defs3053" />
  <metadata
     id="metadata8">
    <rdf:RDF>
      <cc:Work
         rdf:about="">
        <dc:format>image/svg+xml</dc:format>
        <dc:type
           rdf:resource="http://purl.org/dc/dcmitype/StillImage" />
        <dc:title />
      </cc:Work>
    </rdf:RDF>
  </metadata>
  <rect
     style="visibility:hidden;fill:none;stroke:none"
     id="canvas"
     y="1.2407733e-07"
     x="0"
     height="14"
     width="14" />
  <path
     style="fill:#ac39ac;fill-opacity:1;stroke:#ffffff;stroke-width:0.6;stroke-miterlimit:4;stroke-dasharray:none;stroke-linejoin:round;stroke-linecap:round"
     id="path3003-0"
     d="m 5.257,0.771 c -0.8714714,0 -1.7429429,0.40850228 -2.6144144,1.27997378 -0.8714715,0.8714714 -1.74294293,1.7429429 -1.74294293,2.6144144 0.58098103,0 1.161,0.326 1.742,0.326 1.3279396,0 1.6856023,-1.1409326 2.6144144,-2.0697448 C 5.726,2.616 6.119,2.306 7.408,2.459 8.767,2.750 11.35,3.786 13.10,5.019 11.69,3.581 10.05,2.000 7.871,1.179 7,0.7483932 6.128,0.771 5.257,0.771 Z M 11.65,5.264 8.143,6.789 C 5.234,7.266 1.889,6.148 1.989,6.272 c 0.038,0.047 0.071,0.088 0.108,0.136 l 0,0.027234 L 0.899,9.485 3.160,7.742 3.514,11.22 5.229,8.450 c 0.158,0.027 0.312,0.062 0.490,0.081 L 7,11.228814 7.953,8.532 C 8.246,8.481 8.507,8.383 8.770,8.287 l 1.715,2.069 0.02723,-3.1863178 c 0.0498,-0.051108 0.08903,-0.1104157 0.136168,-0.1634009 L 13.10,8.614 11.46,5.754 c 0.06962,-0.1576984 0.138808,-0.3285477 0.190635,-0.4902027 z" />
  <path
     style="fill:#ac39ac;fill-opacity:1;stroke:none"
     id="path3003"
     d="m 5.257,0.771 c -0.8714714,0 -1.7429429,0.40850224 -2.6144144,1.27997374 -0.8714715,0.8714714 -1.74294293,1.7429429 -1.74294293,2.6144144 0.58098103,0 1.161,0.326 1.742,0.326 1.3279396,0 1.6856023,-1.1409326 2.6144144,-2.0697448 C 5.726,2.616 6.119,2.306 7.408,2.459 8.767,2.750 11.35,3.786 13.10,5.019 11.69,3.581 10.05,2.000 7.871,1.179 7,0.74839364 6.128,0.771 5.257,0.771 Z M 11.65,5.264 8.143,6.789 C 5.234,7.266 1.889,6.148 1.989,6.272 c 0.038,0.047 0.071,0.088 0.108,0.136 l 0,0.027234 L 0.899,9.485 3.160,7.742 3.514,11.22 5.229,8.450 c 0.158,0.027 0.312,0.062 0.490,0.081 L 7,11.228814 7.953,8.532 C 8.246,8.481 8.507,8.383 8.770,8.287 l 1.715,2.069 0.02723,-3.1863174 c 0.0498,-0.051108 0.08903,-0.1104157 0.136168,-0.1634009 L 13.10,8.614 11.46,5.754 c 0.06962,-0.1576984 0.138808,-0.3285477 0.190635,-0.4902027 z" />
</svg>
