<?xml version="1.0" encoding="UTF-8" standalone="no"?>
<!-- Created with Inkscape (http://www.inkscape.org/) -->

<svg
   xmlns:dc="http://purl.org/dc/elements/1.1/"
   xmlns:cc="http://creativecommons.org/ns#"
   xmlns:rdf="http://www.w3.org/1999/02/22-rdf-syntax-ns#"
   xmlns:svg="http://www.w3.org/2000/svg"
   xmlns="http://www.w3.org/2000/svg"
   xmlns:sodipodi="http://sodipodi.sourceforge.net/DTD/sodipodi-0.dtd"
   xmlns:inkscape="http://www.inkscape.org/namespaces/inkscape"
   version="1.1"
   width="100%"
   height="100%"
   viewBox="0 0 14 14"
   id="svg2"
   inkscape:version="0.91 r"
   sodipodi:docname="beauty-14.svg">
  <sodipodi:namedview
     pagecolor="#dadada"
     bordercolor="#666666"
     borderopacity="1"
     objecttolerance="10"
     gridtolerance="10"
     guidetolerance="10"
     inkscape:pageopacity="0"
     inkscape:pageshadow="2"
     inkscape:window-width="1036"
     inkscape:window-height="659"
     id="namedview7"
     showgrid="false"
     inkscape:zoom="16.857143"
     inkscape:cx="7.0000001"
     inkscape:cy="7.0000001"
     inkscape:window-x="0"
     inkscape:window-y="0"
     inkscape:window-maximized="0"
     inkscape:current-layer="svg2" />
  <defs
     id="defs3053" />
  <metadata
     id="metadata8">
    <rdf:RDF>
      <cc:Work
         rdf:about="">
        <dc:format>image/svg+xml</dc:format>
        <dc:type
           rdf:resource="http://purl.org/dc/dcmitype/StillImage" />
        <dc:title />
      </cc:Work>
    </rdf:RDF>
  </metadata>
  <rect
     width="14"
     height="14"
     x="0"
     y="1.2407733e-07"
     id="canvas"
     style="visibility:hidden;fill:none;stroke:none" />
  <path
     inkscape:connector-curvature="0"
     d="m 5.257057,0.77115552 c -0.8714714,0 -1.7429429,0.40850228 -2.6144144,1.27997378 -0.8714715,0.8714714 -1.74294293,1.7429429 -1.74294293,2.6144144 0.58098103,0 1.16196193,0.3268018 1.74294293,0.3268018 1.3279396,0 1.6856023,-1.1409326 2.6144144,-2.0697448 C 5.7267441,2.6165424 6.1196784,2.3066024 7.4085023,2.4596315 8.7676942,2.7502225 11.357357,3.7864603 13.1003,5.019579 11.698192,3.5819671 10.059096,2.0006745 7.8714715,1.1796578 7,0.7483932 6.1285285,0.77115552 5.257057,0.77115552 Z M 11.656926,5.2646803 8.1438063,6.7897554 C 5.2342641,7.2667295 1.8890639,6.1489458 1.989039,6.2723192 c 0.038826,0.047913 0.071128,0.088742 0.1089339,0.1361674 l 0,0.027234 L 0.89969967,9.4858702 3.1600788,7.7429273 3.5141141,11.228814 5.2298236,8.4509979 c 0.1583972,0.02703 0.3120122,0.062762 0.4902027,0.081701 L 7,11.228814 7.9531719,8.5326984 C 8.2469432,8.48119 8.5078258,8.3833029 8.7701764,8.287597 l 1.7157096,2.069745 0.02723,-3.1863178 c 0.0498,-0.051108 0.08903,-0.1104157 0.136168,-0.1634009 L 13.1003,8.6143988 11.466291,5.754883 c 0.06962,-0.1576984 0.138808,-0.3285477 0.190635,-0.4902027 z"
     id="path3003-0"
     style="fill:#ac39ac;fill-opacity:1;stroke:#ffffff;stroke-width:0.6;stroke-miterlimit:4;stroke-dasharray:none;stroke-linejoin:round;stroke-linecap:round" />
  <path
     inkscape:connector-curvature="0"
     d="m 5.257057,0.77115596 c -0.8714714,0 -1.7429429,0.40850224 -2.6144144,1.27997374 -0.8714715,0.8714714 -1.74294293,1.7429429 -1.74294293,2.6144144 0.58098103,0 1.16196193,0.3268018 1.74294293,0.3268018 1.3279396,0 1.6856023,-1.1409326 2.6144144,-2.0697448 C 5.7267441,2.6165428 6.1196784,2.3066028 7.4085023,2.4596319 8.7676942,2.7502229 11.357357,3.7864607 13.1003,5.0195794 11.698192,3.5819675 10.059096,2.0006749 7.8714715,1.1796582 7,0.74839364 6.1285285,0.77115596 5.257057,0.77115596 Z M 11.656926,5.2646807 8.1438063,6.7897558 C 5.2342641,7.2667299 1.8890639,6.1489462 1.989039,6.2723196 c 0.038826,0.047913 0.071128,0.088742 0.1089339,0.1361674 l 0,0.027234 L 0.89969967,9.4858706 3.1600788,7.7429277 3.5141141,11.228814 5.2298236,8.4509983 c 0.1583972,0.02703 0.3120122,0.062762 0.4902027,0.081701 L 7,11.228814 7.9531719,8.5326988 C 8.2469432,8.4811904 8.5078258,8.3833033 8.7701764,8.2875974 l 1.7157096,2.0697446 0.02723,-3.1863174 c 0.0498,-0.051108 0.08903,-0.1104157 0.136168,-0.1634009 L 13.1003,8.6143992 11.466291,5.7548834 c 0.06962,-0.1576984 0.138808,-0.3285477 0.190635,-0.4902027 z"
     id="path3003"
     style="fill:#ac39ac;fill-opacity:1;stroke:none" />
</svg>
