<?xml version="1.0" encoding="UTF-8" standalone="no"?>
<svg
   xmlns:dc="http://purl.org/dc/elements/1.1/"
   xmlns:cc="http://creativecommons.org/ns#"
   xmlns:rdf="http://www.w3.org/1999/02/22-rdf-syntax-ns#"
   xmlns:svg="http://www.w3.org/2000/svg"
   xmlns="http://www.w3.org/2000/svg"
   id="svg2"
   viewBox="0 0 14 14"
   height="100%"
   width="100%"
   version="1.1">
  <metadata
     id="metadata8">
    <rdf:RDF>
      <cc:Work
         rdf:about="">
        <dc:format>image/svg+xml</dc:format>
        <dc:type
           rdf:resource="http://purl.org/dc/dcmitype/StillImage" />
        <dc:title />
      </cc:Work>
    </rdf:RDF>
  </metadata>
  <defs
     id="defs6" />
  <rect
     style="fill:none;stroke:none;visibility:hidden"
     id="canvas"
     y="0"
     x="0"
     height="14"
     width="14" />
  <path
     style="fill:#ac39ac;fill-opacity:1"
     id="butcher"
     d="M 6.362,0.693 C 6.135,0.694 5.907,0.697 5.665,0.722 4.697,0.822 3.651,1.128 2.876,1.942 2.039,2.821 2.148,4.028 2.353,4.962 c 0.102,0.467 0.210,0.873 0.290,1.219 0.080,0.346 0.094,0.613 0.087,0.638 -0.074323,0.2531174 -0.5398557,0.9144061 -0.98752,1.5974589 -0.4476644,0.6830529 -0.92070202,1.4264205 -0.90038599,2.2945318 0.018,0.787 0.459,1.548 1.219,1.975 0.759,0.426 1.800,0.588 3.136,0.464 1.4633037,-0.135745 3.4378676,-1.026254 5.1118685,-2.294532 1.674001,-1.2682791 3.101238,-2.9770075 2.846381,-4.8795112 L 13.12,5.863 C 12.86,4.187 11.85,2.991 10.80,2.203 9.730,1.395 8.620,0.999 8.046,0.867 7.644,0.774 7.042,0.691 6.362,0.693 Z m 0.058,1.161 c 0.5845461,-0.0085 1.098,0.048 1.394,0.116 0.355,0.082 1.382,0.476 2.294,1.161 0.911,0.685 1.705,1.656 1.887,3.020 0.161,1.204 -0.864315,2.6262162 -2.3816659,3.7758121 C 8.097,11.07 6.142,11.89 5.084,11.99 3.898,12.10 3.105,11.93 2.644,11.67 2.182,11.41 2.015,11.13 2.005,10.71 1.997,10.37 2.310,9.699 2.731,9.058 3.152,8.416 3.636,7.846 3.835,7.170 3.964,6.731 3.870,6.323 3.777,5.921 3.683,5.518 3.577,5.112 3.486,4.701 3.305,3.879 3.252,3.215 3.690,2.755 4.189,2.230 5.005,1.967 5.810,1.884 c 0.201174,-0.020841 0.4150902,-0.02621 0.6099389,-0.029045 z m 0.493,1.016 C 6.199,2.849 5.488,2.985 4.967,3.597 c -0.6946801,0.8169405 0.186,2.792 0,3.4272755 C 4.781,7.659 3.699,8.727 3.719,9.551 3.738,10.37 4.001,10.96 5.723,10.80 7.444,10.64 11.09,8.478 10.80,6.357 10.70,5.577 10.36,4.841 9.934,4.411 9.739,4.215 9.306,4.542 9.063,4.904 L 7.001,7.983 C 6.651,8.503 5.867,8.009 6.216,7.489 L 8.308,4.382 C 8.648,3.874 8.622,3.326 8.337,3.162 8.073,3.010 7.806,2.961 7.611,2.929 7.384,2.893 7.152,2.879 6.913,2.871 Z" />
  <path
     style="fill:#ac39ac;fill-opacity:1;stroke:#ffffff;stroke-width:0.6;stroke-miterlimit:4;stroke-dasharray:none;stroke-linejoin:round;stroke-linecap:round"
     id="butcher-5"
     d="M 6.362,0.693 C 6.135,0.694 5.907,0.697 5.665,0.722 4.697,0.822 3.651,1.128 2.876,1.942 2.039,2.821 2.148,4.028 2.353,4.962 2.456,5.430 2.564,5.836 2.644,6.182 2.724,6.529 2.739,6.796 2.731,6.821 2.657,7.074 2.191,7.736 1.744,8.419 1.296,9.102 0.823,9.845 0.843,10.71 c 0.018,0.787 0.459,1.548 1.219,1.975 0.759,0.426 1.800,0.588 3.136,0.464 1.4633037,-0.135745 3.4378676,-1.026254 5.1118687,-2.294532 1.674001,-1.2682787 3.101238,-2.9770071 2.846381,-4.8795108 L 13.12,5.863 C 12.86,4.187 11.85,2.991 10.80,2.203 9.730,1.395 8.620,0.999 8.046,0.867 7.644,0.774 7.042,0.691 6.362,0.693 Z m 0.058,1.161 c 0.5845461,-0.0085 1.098,0.048 1.394,0.116 0.355,0.082 1.382,0.476 2.294,1.161 0.911,0.685 1.705,1.656 1.887,3.020 0.161,1.204 -0.864315,2.6262162 -2.3816664,3.7758121 C 8.097,11.07 6.142,11.89 5.084,11.99 3.898,12.10 3.105,11.93 2.644,11.67 2.182,11.41 2.015,11.13 2.005,10.71 1.997,10.37 2.310,9.699 2.731,9.058 3.152,8.416 3.636,7.846 3.835,7.170 3.964,6.731 3.870,6.323 3.777,5.921 3.683,5.518 3.577,5.112 3.486,4.701 3.305,3.879 3.252,3.215 3.690,2.755 4.189,2.230 5.005,1.967 5.810,1.884 c 0.201174,-0.020841 0.4150902,-0.02621 0.6099389,-0.029045 z m 0.493,1.016 c -0.7143524,-0.022561 -1.424985,0.1134122 -1.945995,0.7261177 -0.6946801,0.8169405 0.186,2.792 0,3.4272755 C 4.781,7.659 3.699,8.727 3.719,9.551 3.738,10.37 4.001,10.96 5.723,10.80 7.444,10.64 11.09,8.478 10.80,6.357 10.70,5.577 10.36,4.841 9.934,4.411 9.739,4.215 9.306,4.542 9.063,4.904 L 7.001,7.983 C 6.651,8.503 5.867,8.009 6.216,7.489 L 8.308,4.382 C 8.648,3.874 8.622,3.326 8.337,3.162 8.073,3.010 7.806,2.961 7.611,2.929 7.384,2.893 7.152,2.879 6.913,2.871 Z" />
</svg>
