<?xml version="1.0" encoding="UTF-8" standalone="no"?>
<!-- Created with Inkscape (http://www.inkscape.org/) -->

<svg
   xmlns:dc="http://purl.org/dc/elements/1.1/"
   xmlns:cc="http://creativecommons.org/ns#"
   xmlns:rdf="http://www.w3.org/1999/02/22-rdf-syntax-ns#"
   xmlns:svg="http://www.w3.org/2000/svg"
   xmlns="http://www.w3.org/2000/svg"
   xmlns:sodipodi="http://sodipodi.sourceforge.net/DTD/sodipodi-0.dtd"
   xmlns:inkscape="http://www.inkscape.org/namespaces/inkscape"
   version="1.1"
   width="100%"
   height="100%"
   viewBox="0 0 14 14"
   id="svg2"
   inkscape:version="0.91 r"
   sodipodi:docname="butcher-14.svg">
  <sodipodi:namedview
     pagecolor="#dadada"
     bordercolor="#666666"
     borderopacity="1"
     objecttolerance="10"
     gridtolerance="10"
     guidetolerance="10"
     inkscape:pageopacity="0"
     inkscape:pageshadow="2"
     inkscape:window-width="1341"
     inkscape:window-height="838"
     id="namedview5306"
     showgrid="false"
     inkscape:zoom="16.857143"
     inkscape:cx="7"
     inkscape:cy="7"
     inkscape:window-x="0"
     inkscape:window-y="0"
     inkscape:window-maximized="0"
     inkscape:current-layer="svg2" />
  <metadata
     id="metadata8">
    <rdf:RDF>
      <cc:Work
         rdf:about="">
        <dc:format>image/svg+xml</dc:format>
        <dc:type
           rdf:resource="http://purl.org/dc/dcmitype/StillImage" />
        <dc:title></dc:title>
      </cc:Work>
    </rdf:RDF>
  </metadata>
  <defs
     id="defs6" />
  <rect
     width="14"
     height="14"
     x="0"
     y="0"
     id="canvas"
     style="fill:none;stroke:none;visibility:hidden" />
  <path
     d="M 6.3621168,0.69332298 C 6.135326,0.69406491 5.9070011,0.69730221 5.6650438,0.72236769 4.6972148,0.8226296 3.6516369,1.1284473 2.8767519,1.9422454 2.0399173,2.821104 2.1481376,4.0285731 2.3539471,4.962895 c 0.1029048,0.4671611 0.2101272,0.8731999 0.2904471,1.2198777 0.08032,0.3466779 0.094673,0.6133081 0.087134,0.6389836 -0.074323,0.2531174 -0.5398557,0.9144061 -0.98752,1.5974589 -0.4476644,0.6830529 -0.92070202,1.4264205 -0.90038599,2.2945318 0.0184247,0.787294 0.45992479,1.548074 1.21987769,1.97504 0.7599529,0.426967 1.8006311,0.588668 3.1368285,0.464716 1.4633037,-0.135745 3.4378676,-1.026254 5.1118685,-2.294532 1.674001,-1.2682791 3.101238,-2.9770075 2.846381,-4.8795112 L 13.129534,5.863281 C 12.862933,4.1875421 11.854531,2.9916261 10.805957,2.2036478 9.7307746,1.3956743 8.620212,0.99990309 8.0467098,0.86759123 7.6448791,0.77488543 7.0424892,0.69109721 6.3621168,0.69332298 Z m 0.058089,1.16178832 c 0.5845461,-0.0085 1.0989038,0.048061 1.394146,0.1161788 0.3559285,0.082116 1.3825345,0.4764444 2.2945318,1.1617883 0.911997,0.685344 1.705225,1.6569296 1.887906,3.0206496 0.1613,1.2041054 -0.864315,2.6262162 -2.3816659,3.7758121 C 8.0977728,11.079136 6.1424835,11.893538 5.0841497,11.991714 3.8987095,12.101683 3.1058328,11.931474 2.6443942,11.672223 2.1829556,11.412971 2.0152276,11.133227 2.0054106,10.713747 1.9974851,10.375085 2.3109286,9.6999562 2.7315283,9.0581988 3.152128,8.4164415 3.636642,7.846606 3.8352272,7.1702928 3.9641421,6.731253 3.8704166,6.3239815 3.7771378,5.9213704 3.683859,5.5187592 3.5772465,5.1125921 3.4866907,4.7014927 3.3055793,3.8792938 3.2520623,3.2154311 3.6900037,2.7554972 4.1898946,2.2305028 5.0055714,1.9675182 5.8102673,1.884156 c 0.201174,-0.020841 0.4150902,-0.02621 0.6099389,-0.029045 z m 0.49376,1.0165648 C 6.1996134,2.8491155 5.4889808,2.9850883 4.9679708,3.5977938 c -0.6946801,0.8169405 0.1862781,2.7924658 0,3.4272755 C 4.7816927,7.659879 3.6997715,8.7277215 3.7190484,9.5519589 3.7383251,10.376197 4.001945,10.960651 5.7231332,10.800881 7.4443215,10.64111 11.090012,8.4788837 10.805957,6.357041 10.70154,5.5770638 10.365396,4.8418252 9.9346158,4.4110456 9.7390735,4.2155032 9.3065318,4.5428326 9.0632746,4.9048056 L 7.0011004,7.9835446 C 6.6518279,8.5032709 5.8676209,8.0095107 6.2168933,7.4897846 L 8.3081122,4.3820009 C 8.648989,3.8747673 8.6223541,3.3267818 8.3371569,3.1621231 8.073975,3.010175 7.8065795,2.9613293 7.6110392,2.9297655 7.3842124,2.8931515 7.1520839,2.8791963 6.9139662,2.8716761 Z"
     id="butcher"
     style="fill:#ac39ac;fill-opacity:1"
     inkscape:connector-curvature="0" />
  <path
     d="M 6.3621167,0.69332337 C 6.1353259,0.6940653 5.907001,0.6973026 5.6650437,0.72236808 4.6972147,0.82262999 3.6516368,1.1284477 2.8767518,1.9422458 2.0399172,2.8211044 2.1481375,4.0285735 2.353947,4.9628954 2.4568518,5.4300565 2.5640742,5.8360953 2.6443941,6.1827731 2.7247141,6.529451 2.7390671,6.7960812 2.7315281,6.8217567 2.6572051,7.0748741 2.1916724,7.7361628 1.7440082,8.4192156 1.2963438,9.1022685 0.82330618,9.8456361 0.8436222,10.713747 c 0.0184247,0.787294 0.4599248,1.548074 1.2198776,1.97504 0.7599529,0.426967 1.8006311,0.588668 3.1368285,0.464716 1.4633037,-0.135745 3.4378676,-1.026254 5.1118687,-2.294532 1.674001,-1.2682787 3.101238,-2.9770071 2.846381,-4.8795108 L 13.129534,5.8632814 C 12.862933,4.1875425 11.854531,2.9916265 10.805957,2.2036482 9.7307745,1.3956747 8.6202119,0.99990348 8.0467097,0.86759162 7.644879,0.77488582 7.0424891,0.6910976 6.3621167,0.69332337 Z m 0.058089,1.16178833 c 0.5845461,-0.0085 1.0989038,0.048061 1.394146,0.1161788 0.3559285,0.082116 1.3825345,0.4764444 2.2945323,1.1617883 0.911997,0.685344 1.705225,1.6569296 1.887906,3.0206496 0.1613,1.2041054 -0.864315,2.6262162 -2.3816664,3.7758121 C 8.0977727,11.079136 6.1424834,11.893538 5.0841496,11.991714 3.8987094,12.101683 3.1058327,11.931474 2.6443941,11.672223 2.1829555,11.412971 2.0152275,11.133227 2.0054105,10.713747 1.997485,10.375085 2.3109285,9.6999566 2.7315282,9.0581992 3.1521279,8.4164419 3.6366419,7.8466064 3.8352271,7.1702932 3.964142,6.7312534 3.8704165,6.3239819 3.7771377,5.9213708 3.6838589,5.5187596 3.5772464,5.1125925 3.4866906,4.7014931 3.3055792,3.8792942 3.2520622,3.2154315 3.6900036,2.7554976 4.1898945,2.2305032 5.0055713,1.9675186 5.8102672,1.8841564 c 0.201174,-0.020841 0.4150902,-0.02621 0.6099389,-0.029045 z m 0.49376,1.0165648 c -0.7143524,-0.022561 -1.424985,0.1134122 -1.945995,0.7261177 -0.6946801,0.8169405 0.1862781,2.7924658 0,3.4272755 C 4.7816926,7.6598794 3.6997714,8.7277219 3.7190483,9.5519593 3.738325,10.376197 4.0019449,10.960651 5.7231331,10.800881 7.4443214,10.64111 11.090012,8.4788841 10.805957,6.3570414 10.70154,5.5770642 10.365396,4.8418256 9.9346157,4.411046 9.7390734,4.2155036 9.3065317,4.542833 9.0632745,4.904806 L 7.0011003,7.983545 C 6.6518278,8.5032713 5.8676208,8.0095111 6.2168932,7.489785 L 8.3081121,4.3820013 C 8.6489889,3.8747677 8.622354,3.3267822 8.3371568,3.1621235 8.0739749,3.0101754 7.8065794,2.9613297 7.6110391,2.9297659 7.3842123,2.8931519 7.1520838,2.8791967 6.9139661,2.8716765 Z"
     id="butcher-5"
     style="fill:#ac39ac;fill-opacity:1;stroke:#ffffff;stroke-width:0.6;stroke-miterlimit:4;stroke-dasharray:none;stroke-linejoin:round;stroke-linecap:round"
     inkscape:connector-curvature="0"
     inkscape:export-filename="/home/tackat/marble/sources/data/bitmaps/osmcarto/symbols/48/shop/butcher-14.png"
     inkscape:export-xdpi="270"
     inkscape:export-ydpi="270" />
</svg>
