<?xml version="1.0" encoding="UTF-8" standalone="no"?>
<!-- Created with Inkscape (http://www.inkscape.org/) -->

<svg
   xmlns:dc="http://purl.org/dc/elements/1.1/"
   xmlns:cc="http://creativecommons.org/ns#"
   xmlns:rdf="http://www.w3.org/1999/02/22-rdf-syntax-ns#"
   xmlns:svg="http://www.w3.org/2000/svg"
   xmlns="http://www.w3.org/2000/svg"
   xmlns:sodipodi="http://sodipodi.sourceforge.net/DTD/sodipodi-0.dtd"
   xmlns:inkscape="http://www.inkscape.org/namespaces/inkscape"
   version="1.1"
   width="100%"
   height="100%"
   viewBox="0 0 14 14"
   id="svg2"
   inkscape:version="0.91 r"
   sodipodi:docname="car_parts-14.svg">
  <sodipodi:namedview
     pagecolor="#dadada"
     bordercolor="#666666"
     borderopacity="1"
     objecttolerance="10"
     gridtolerance="10"
     guidetolerance="10"
     inkscape:pageopacity="0"
     inkscape:pageshadow="2"
     inkscape:window-width="706"
     inkscape:window-height="480"
     id="namedview7"
     showgrid="false"
     inkscape:zoom="16.857143"
     inkscape:cx="7.0000001"
     inkscape:cy="7.0000001"
     inkscape:window-x="0"
     inkscape:window-y="0"
     inkscape:window-maximized="0"
     inkscape:current-layer="svg2" />
  <defs
     id="defs3053" />
  <metadata
     id="metadata8">
    <rdf:RDF>
      <cc:Work
         rdf:about="">
        <dc:format>image/svg+xml</dc:format>
        <dc:type
           rdf:resource="http://purl.org/dc/dcmitype/StillImage" />
        <dc:title />
      </cc:Work>
    </rdf:RDF>
  </metadata>
  <rect
     width="14"
     height="14"
     x="0"
     y="0"
     id="canvas"
     style="visibility:hidden;fill:none;stroke:none" />
  <path
     inkscape:connector-curvature="0"
     d="m 8.7118644,3.5762714 0,-1.7118644 2.5677966,0 0,1.7118644 z m -5.9915254,0 0,-1.7118644 2.5677966,0 0,1.7118644 z m -1.7118644,0 0,8.5593216 11.9830504,0 0,-8.5593216 z m 2.9491667,1.7118644 1.3304943,0 0,1.7118644 1.7118644,0 0,1.3505664 -1.7118644,0 0,1.7319364 -1.3377495,0.02818 0.020919,-1.801104 -1.7720807,0.013664 0.026481,-1.3232424 1.7182728,0 z m 4.7542231,1.7118644 3.4237286,0 0,1.3787406 -3.4237286,-0.013664 z"
     id="path2991-9"
     style="fill:#ac39ac;fill-opacity:1;fill-rule:evenodd;stroke:#ffffff;stroke-width:0.6;stroke-miterlimit:4;stroke-dasharray:none;stroke-linejoin:round;stroke-linecap:round" />
  <path
     inkscape:connector-curvature="0"
     d="m 8.7118644,3.5762712 0,-1.7118644 2.5677966,0 0,1.7118644 z m -5.9915254,0 0,-1.7118644 2.5677966,0 0,1.7118644 z m -1.7118644,0 0,8.5593218 11.9830504,0 0,-8.5593218 z m 2.9491667,1.7118644 1.3304943,0 L 5.2881356,7 7,7 l 0,1.3505664 -1.7118644,0 0,1.7319366 -1.3377495,0.02818 L 3.9713046,8.3095788 2.1992239,8.3232424 2.2257048,7 3.9439776,7 Z M 8.7118644,7 l 3.4237286,0 0,1.3787406 -3.4237286,-0.013664 z"
     id="path2991"
     style="fill:#ac39ac;fill-opacity:1;fill-rule:evenodd;stroke:none" />
</svg>
