<?xml version="1.0" encoding="UTF-8" standalone="no"?>
<svg
   xmlns:dc="http://purl.org/dc/elements/1.1/"
   xmlns:cc="http://creativecommons.org/ns#"
   xmlns:rdf="http://www.w3.org/1999/02/22-rdf-syntax-ns#"
   xmlns:svg="http://www.w3.org/2000/svg"
   xmlns="http://www.w3.org/2000/svg"
   id="svg2"
   viewBox="0 0 14 14"
   height="100%"
   width="100%"
   version="1.1">
  <defs
     id="defs3053" />
  <metadata
     id="metadata8">
    <rdf:RDF>
      <cc:Work
         rdf:about="">
        <dc:format>image/svg+xml</dc:format>
        <dc:type
           rdf:resource="http://purl.org/dc/dcmitype/StillImage" />
        <dc:title />
      </cc:Work>
    </rdf:RDF>
  </metadata>
  <rect
     style="visibility:hidden;fill:none;stroke:none"
     id="canvas"
     y="0"
     x="0"
     height="14"
     width="14" />
  <path
     style="fill:#ac39ac;fill-opacity:1;fill-rule:evenodd;stroke:#ffffff;stroke-width:0.6;stroke-miterlimit:4;stroke-dasharray:none;stroke-linejoin:round;stroke-linecap:round"
     id="path2991-9"
     d="m 8.711,3.576 0,-1.7118644 2.5677966,0 0,1.7118644 z m -5.9915254,0 0,-1.7118644 2.5677966,0 0,1.7118644 z m -1.7118644,0 0,8.5593216 11.9830504,0 0,-8.5593216 z m 2.949,1.711 1.3304943,0 0,1.7118644 1.7118644,0 0,1.3505664 -1.7118644,0 0,1.7319364 -1.3377495,0.02818 0.020919,-1.801104 -1.7720807,0.013664 0.026481,-1.3232424 1.7182728,0 z m 4.754,1.711 3.4237286,0 0,1.3787406 -3.4237286,-0.013664 z" />
  <path
     style="fill:#ac39ac;fill-opacity:1;fill-rule:evenodd;stroke:none"
     id="path2991"
     d="m 8.711,3.576 0,-1.7118644 2.5677966,0 0,1.7118644 z m -5.9915254,0 0,-1.7118644 2.5677966,0 0,1.7118644 z m -1.7118644,0 0,8.5593218 11.9830504,0 0,-8.5593218 z m 2.949,1.711 1.3304943,0 L 5.2881356,7 7,7 l 0,1.3505664 -1.7118644,0 0,1.7319366 -1.3377495,0.02818 L 3.971,8.309 2.199,8.323 2.2257048,7 3.9439776,7 Z M 8.7118644,7 l 3.4237286,0 0,1.3787406 -3.4237286,-0.013664 z" />
</svg>
