<?xml version="1.0" encoding="UTF-8" standalone="no"?>
<!-- Created with Inkscape (http://www.inkscape.org/) -->

<svg
   xmlns:dc="http://purl.org/dc/elements/1.1/"
   xmlns:cc="http://creativecommons.org/ns#"
   xmlns:rdf="http://www.w3.org/1999/02/22-rdf-syntax-ns#"
   xmlns:svg="http://www.w3.org/2000/svg"
   xmlns="http://www.w3.org/2000/svg"
   xmlns:sodipodi="http://sodipodi.sourceforge.net/DTD/sodipodi-0.dtd"
   xmlns:inkscape="http://www.inkscape.org/namespaces/inkscape"
   version="1.1"
   width="100%"
   height="100%"
   viewBox="0 0 14 14"
   id="svg2"
   inkscape:version="0.91 r"
   sodipodi:docname="confectionery-14.svg">
  <sodipodi:namedview
     pagecolor="#dadada"
     bordercolor="#666666"
     borderopacity="1"
     objecttolerance="10"
     gridtolerance="10"
     guidetolerance="10"
     inkscape:pageopacity="0"
     inkscape:pageshadow="2"
     inkscape:window-width="706"
     inkscape:window-height="480"
     id="namedview6"
     showgrid="false"
     inkscape:zoom="16.857143"
     inkscape:cx="7.0000001"
     inkscape:cy="7.0000001"
     inkscape:window-x="0"
     inkscape:window-y="0"
     inkscape:window-maximized="0"
     inkscape:current-layer="svg2" />
  <defs
     id="defs3053" />
  <metadata
     id="metadata8">
    <rdf:RDF>
      <cc:Work
         rdf:about="">
        <dc:format>image/svg+xml</dc:format>
        <dc:type
           rdf:resource="http://purl.org/dc/dcmitype/StillImage" />
        <dc:title />
      </cc:Work>
    </rdf:RDF>
  </metadata>
  <path
     inkscape:connector-curvature="0"
     d="m 1.0150786,6.9999996 c -0.011718,-0.9067797 1.4498803,-2.720339 3.2634396,-2.720339 0.9067797,0.028951 1.8135593,1.4392672 2.720339,1.395841 0.9067796,0.1061528 1.8135593,-1.400666 2.720339,-1.395841 1.8135598,0 3.2385208,1.8135593 3.2412788,2.720339 -0.279858,0 -0.666038,0 -0.945896,0 C 11.532756,6.0932199 10.625976,5.6283778 9.7191962,5.590466 8.8124165,5.6869686 7.9056368,7.0048247 6.9988572,6.9999996 6.0920775,7.0241254 5.1852979,5.7382508 4.2785182,5.6755241 3.3717385,5.6507092 2.4649589,6.0932199 2.0835658,6.9999996 c -0.3136333,0 -0.7548538,0 -1.0684872,0 z M 8.8124165,2.4661013 c 0,1.0016012 -0.8119582,1.8135593 -1.8135593,1.8135593 -1.0016012,0 -1.8135593,-0.8119581 -1.8135593,-1.8135593 0,-1.0016012 0.8119581,-1.8135593 1.8135593,-1.8135593 0.8314701,0 1.5564333,0.5654186 1.7589458,1.3718499 M 3.3717385,12.440678 1.5581793,7.9067793 C 2.2109027,8.037324 2.8155444,8.720602 3.3717385,8.8135589 3.7390792,8.8749529 4.8484872,7.874317 5.1852979,7.9067793 c 0.8483933,0.081769 1.1570864,0.8314873 1.8135593,0.9067796 0.6872872,0.078826 0.970001,-0.7319135 1.8135593,-0.9067796 0.4073929,-0.084451 1.2498925,0.8584958 1.8135595,0.9067796 0.696377,0.059652 1.135255,-0.7711188 1.813559,-0.9067796 l -1.813559,4.5338987 c -0.9067798,0.90678 -1.8135595,0.90678 -3.6271188,0.90678 -1.8135593,0 -2.720339,0 -3.6271187,-0.90678 z"
     id="path2986-3"
     style="fill:#ac39ac;fill-opacity:1;stroke:#ffffff;stroke-width:0.6;stroke-miterlimit:4;stroke-dasharray:none;stroke-linejoin:round;stroke-linecap:round" />
  <path
     inkscape:connector-curvature="0"
     d="M 1.0150786,7 C 1.0033604,6.0932203 2.4649589,4.279661 4.2785182,4.279661 5.1852979,4.3086118 6.0920775,5.7189282 6.9988572,5.675502 7.9056368,5.7816548 8.8124165,4.274836 9.7191962,4.279661 11.532756,4.279661 12.957717,6.0932203 12.960475,7 12.680617,7 12.294437,7 12.014579,7 11.532756,6.0932203 10.625976,5.6283782 9.7191962,5.5904664 8.8124165,5.686969 7.9056368,7.0048251 6.9988572,7 6.0920775,7.0241258 5.1852979,5.7382512 4.2785182,5.6755245 3.3717385,5.6507096 2.4649589,6.0932203 2.0835658,7 1.7699325,7 1.328712,7 1.0150786,7 Z M 8.8124165,2.4661017 c 0,1.0016012 -0.8119582,1.8135593 -1.8135593,1.8135593 -1.0016012,0 -1.8135593,-0.8119581 -1.8135593,-1.8135593 0,-1.0016012 0.8119581,-1.81355933 1.8135593,-1.81355933 0.8314701,0 1.5564333,0.56541863 1.7589458,1.37184993 M 3.3717385,12.440678 1.5581793,7.9067797 c 0.6527234,0.1305447 1.2573651,0.8138227 1.8135592,0.9067796 0.3673407,0.061394 1.4767487,-0.9392419 1.8135594,-0.9067796 0.8483933,0.081769 1.1570864,0.8314873 1.8135593,0.9067796 0.6872872,0.078826 0.970001,-0.7319135 1.8135593,-0.9067796 0.4073929,-0.084451 1.2498925,0.8584958 1.8135595,0.9067796 0.696377,0.059652 1.135255,-0.7711188 1.813559,-0.9067796 l -1.813559,4.5338983 c -0.9067798,0.90678 -1.8135595,0.90678 -3.6271188,0.90678 -1.8135593,0 -2.720339,0 -3.6271187,-0.90678 z"
     id="path2986"
     style="fill:#ac39ac;fill-opacity:1;stroke:none" />
</svg>
