<?xml version="1.0" encoding="UTF-8" standalone="no"?>
<svg
   xmlns:dc="http://purl.org/dc/elements/1.1/"
   xmlns:cc="http://creativecommons.org/ns#"
   xmlns:rdf="http://www.w3.org/1999/02/22-rdf-syntax-ns#"
   xmlns:svg="http://www.w3.org/2000/svg"
   xmlns="http://www.w3.org/2000/svg"
   id="svg2"
   viewBox="0 0 14 14"
   height="100%"
   width="100%"
   version="1.1">
  <defs
     id="defs3053" />
  <metadata
     id="metadata8">
    <rdf:RDF>
      <cc:Work
         rdf:about="">
        <dc:format>image/svg+xml</dc:format>
        <dc:type
           rdf:resource="http://purl.org/dc/dcmitype/StillImage" />
        <dc:title />
      </cc:Work>
    </rdf:RDF>
  </metadata>
  <path
     style="fill:#ac39ac;fill-opacity:1;stroke:#ffffff;stroke-width:0.6;stroke-miterlimit:4;stroke-dasharray:none;stroke-linejoin:round;stroke-linecap:round"
     id="path2986-3"
     d="m 1.015,6.999 c -0.011718,-0.9067797 1.4498803,-2.720339 3.2634396,-2.720339 0.906,0.028 1.813,1.439 2.720,1.395 0.906,0.106 1.8135593,-1.400666 2.720339,-1.395841 1.8135598,0 3.238,1.813 3.241,2.720 -0.279858,0 -0.666038,0 -0.945896,0 C 11.53,6.093 10.62,5.628 9.719,5.590 8.812,5.686 7.905,7.004 6.998,6.999 6.092,7.024 5.185,5.738 4.278,5.675 3.371,5.650 2.464,6.093 2.083,6.999 c -0.3136333,0 -0.7548538,0 -1.0684872,0 z M 8.812,2.466 c 0,1.0016012 -0.8119582,1.8135593 -1.8135593,1.8135593 -1.0016012,0 -1.8135593,-0.8119581 -1.8135593,-1.8135593 0,-1.0016012 0.8119581,-1.8135593 1.8135593,-1.8135593 0.8314701,0 1.556,0.565 1.758,1.371 M 3.371,12.44 1.558,7.906 C 2.210,8.037 2.815,8.720 3.371,8.813 3.739,8.874 4.848,7.874 5.185,7.906 c 0.848,0.081 1.157,0.831 1.813,0.906 0.687,0.078 0.970001,-0.7319135 1.8135593,-0.9067796 0.4073929,-0.084451 1.249,0.858 1.813,0.906 0.696,0.059 1.135255,-0.7711188 1.813559,-0.9067796 l -1.813559,4.5338987 c -0.9067798,0.90678 -1.8135595,0.90678 -3.6271188,0.90678 -1.8135593,0 -2.720339,0 -3.6271187,-0.90678 z" />
  <path
     style="fill:#ac39ac;fill-opacity:1;stroke:none"
     id="path2986"
     d="M 1.0150786,7 C 1.003,6.093 2.464,4.279 4.278,4.279 5.185,4.308 6.092,5.718 6.998,5.675 7.905,5.781 8.812,4.274 9.719,4.279 11.53,4.279 12.95,6.093 12.960475,7 12.680617,7 12.294437,7 12.014579,7 11.53,6.093 10.62,5.628 9.719,5.590 8.812,5.686 7.905,7.004 6.9988572,7 6.092,7.024 5.185,5.738 4.278,5.675 3.371,5.650 2.464,6.093 2.0835658,7 1.7699325,7 1.328712,7 1.0150786,7 Z M 8.812,2.466 c 0,1.0016012 -0.8119582,1.8135593 -1.8135593,1.8135593 -1.0016012,0 -1.8135593,-0.8119581 -1.8135593,-1.8135593 0,-1.0016012 0.8119581,-1.81355933 1.8135593,-1.81355933 0.8314701,0 1.556,0.565 1.758,1.371 M 3.371,12.44 1.558,7.906 c 0.652,0.130 1.257,0.813 1.813,0.906 0.367,0.061 1.4767487,-0.9392419 1.8135594,-0.9067796 0.848,0.081 1.157,0.831 1.813,0.906 0.687,0.078 0.970001,-0.7319135 1.8135593,-0.9067796 0.4073929,-0.084451 1.249,0.858 1.813,0.906 0.696,0.059 1.135255,-0.7711188 1.813559,-0.9067796 l -1.813559,4.5338983 c -0.9067798,0.90678 -1.8135595,0.90678 -3.6271188,0.90678 -1.8135593,0 -2.720339,0 -3.6271187,-0.90678 z" />
</svg>
