<?xml version="1.0" encoding="UTF-8" standalone="no"?>
<svg
   xmlns:dc="http://purl.org/dc/elements/1.1/"
   xmlns:cc="http://creativecommons.org/ns#"
   xmlns:rdf="http://www.w3.org/1999/02/22-rdf-syntax-ns#"
   xmlns:svg="http://www.w3.org/2000/svg"
   xmlns="http://www.w3.org/2000/svg"
   version="1.1"
   width="100%"
   height="100%"
   viewBox="0 0 16 16"
   id="svg2">
  <metadata
     id="metadata30">
    <rdf:RDF>
      <cc:Work
         rdf:about="">
        <dc:format>image/svg+xml</dc:format>
        <dc:type
           rdf:resource="http://purl.org/dc/dcmitype/StillImage" />
        <dc:title></dc:title>
      </cc:Work>
    </rdf:RDF>
  </metadata>
  <defs
     id="defs28" />
  <path
     style="fill:#ac39ac;fill-opacity:1;stroke:#ffffff;stroke-width:0.6;stroke-miterlimit:4;stroke-dasharray:none"
     id="copyshop-9"
     d="m 10.078869,0.984375 -8.0312503,0.03125 0,10 3,0 0,-1 -2,0 0,-8 6,0 0,2 1.0312503,0 0,-3.03125 z m -6.0312503,2.03125 0,0.5 4,0 0,-0.5 -4,0 z m 0,1 0,0.5 1,0 0,-0.5 -1,0 z m 0,1 0,0.5 1,0 0,-0.5 -1,0 z m 2,0 0,10 8.0000003,0 0,-6.71875 -3.28125,-3.28125 -4.7187503,0 z m -2,1 0,0.5 1,0 0,-0.5 -1,0 z m 3,0 3.0000003,0 0,3 3,0 0,5 -6.0000003,0 0,-8 z m 4.0000003,0.6875 1.3125,1.3125 -1.3125,0 0,-1.3125 z m -7.0000003,0.3125 0,0.5 1,0 0,-0.5 -1,0 z m 4,0 0,0.5 1,0 0,-0.5 -1,0 z m -4,1 0,0.5 1,0 0,-0.5 -1,0 z m 4,0 0,0.5 1,0 0,-0.5 -1,0 z m 0,1 0,0.5 1,0 0,-0.5 -1,0 z m 0,1 0,0.5 4.0000003,0 0,-0.5 -4.0000003,0 z m 0,1 0,0.5 4.0000003,0 0,-0.5 -4.0000003,0 z m 0,1 0,0.5 4.0000003,0 0,-0.5 -4.0000003,0 z" />
  <path
     style="fill:#ac39ac;fill-opacity:1"
     id="copyshop"
     d="m 10.078869,0.984375 -8.0312503,0.03125 0,10 3,0 0,-1 -2,0 0,-8 6,0 0,2 1.0312503,0 0,-3.03125 z m -6.0312503,2.03125 0,0.5 4,0 0,-0.5 -4,0 z m 0,1 0,0.5 1,0 0,-0.5 -1,0 z m 0,1 0,0.5 1,0 0,-0.5 -1,0 z m 2,0 0,10 8.0000003,0 0,-6.71875 -3.28125,-3.28125 -4.7187503,0 z m -2,1 0,0.5 1,0 0,-0.5 -1,0 z m 3,0 3.0000003,0 0,3 3,0 0,5 -6.0000003,0 0,-8 z m 4.0000003,0.6875 1.3125,1.3125 -1.3125,0 0,-1.3125 z m -7.0000003,0.3125 0,0.5 1,0 0,-0.5 -1,0 z m 4,0 0,0.5 1,0 0,-0.5 -1,0 z m -4,1 0,0.5 1,0 0,-0.5 -1,0 z m 4,0 0,0.5 1,0 0,-0.5 -1,0 z m 0,1 0,0.5 1,0 0,-0.5 -1,0 z m 0,1 0,0.5 4.0000003,0 0,-0.5 -4.0000003,0 z m 0,1 0,0.5 4.0000003,0 0,-0.5 -4.0000003,0 z m 0,1 0,0.5 4.0000003,0 0,-0.5 -4.0000003,0 z" />
</svg>
