<?xml version="1.0" encoding="UTF-8" standalone="no"?>
<svg
   xmlns:dc="http://purl.org/dc/elements/1.1/"
   xmlns:cc="http://creativecommons.org/ns#"
   xmlns:rdf="http://www.w3.org/1999/02/22-rdf-syntax-ns#"
   xmlns:svg="http://www.w3.org/2000/svg"
   xmlns="http://www.w3.org/2000/svg"
   id="svg2"
   viewBox="0 0 16 16"
   height="100%"
   width="100%"
   version="1.1">
  <metadata
     id="metadata30">
    <rdf:RDF>
      <cc:Work
         rdf:about="">
        <dc:format>image/svg+xml</dc:format>
        <dc:type
           rdf:resource="http://purl.org/dc/dcmitype/StillImage" />
        <dc:title></dc:title>
      </cc:Work>
    </rdf:RDF>
  </metadata>
  <defs
     id="defs28" />
  <path
     d="M 6.9999999,0.952381 9,0.952381 c 2,0 3,0 3,1.0000001 l 0,1 -8.0000003,0 0,-1 c 0,-1.0000001 1.0000001,-1.0000001 3.0000002,-1.0000001 z M 5,3.952381 c -1e-7,1.9999997 -1.5124998,1.0000396 -1.5,3 l 0.03125,5 c 0.00625,0.999981 0.4687504,3 2.46875,3 l 4,0 c 2,0 2.5,-2 2.5,-3 l 0,-5 c 0,-1.9999994 -1.5,-1.0000003 -1.5,-3 l -6,0 z m 3,4 c 1.0424134,0 3.126953,0.6074219 3.126953,0.6074219 l 0,1.3925781 0,1.392578 c 0,0 -2.0845395,0.607422 -3.126953,0.607422 -1.0424133,0 -3.1269531,-0.607422 -3.1269531,-0.607422 l 0,-1.392578 0,-1.3925781 c 0,0 2.0845398,-0.6074219 3.1269531,-0.6074219 z"
     style="opacity:1;fill:#ac39ac;fill-opacity:1;fill-rule:evenodd;stroke:#ffffff;stroke-opacity:1;stroke-width:0.6;stroke-miterlimit:4;stroke-dasharray:none"
     id="path4173-9" />
  <path
     d="m 6.9999999,0.95238095 2.0000001,0 c 2,0 3,0 3,1.00000015 l 0,1 -8.0000003,0 0,-1 c 0,-1.00000015 1.0000001,-1.00000015 3.0000002,-1.00000015 z M 5,3.952381 c -1e-7,1.9999997 -1.5124998,1.0000396 -1.5,3 l 0.03125,5 c 0.00625,0.999981 0.4687504,3 2.46875,3 l 4,0 c 2,0 2.5,-2 2.5,-3 l 0,-5 c 0,-1.9999994 -1.5,-1.0000003 -1.5,-3 l -6,0 z m 3,4 c 1.0424134,0 3.126953,0.6074219 3.126953,0.6074219 l 0,1.3925781 0,1.392578 c 0,0 -2.0845395,0.607422 -3.126953,0.607422 -1.0424133,0 -3.1269531,-0.607422 -3.1269531,-0.607422 l 0,-1.392578 0,-1.3925781 c 0,0 2.0845398,-0.6074219 3.1269531,-0.6074219 z"
     style="opacity:1;fill:#ac39ac;fill-opacity:1;fill-rule:evenodd;stroke:none;stroke-opacity:1"
     id="path4173" />
</svg>
