<?xml version="1.0" encoding="UTF-8" standalone="no"?>
<svg
   xmlns:dc="http://purl.org/dc/elements/1.1/"
   xmlns:cc="http://creativecommons.org/ns#"
   xmlns:rdf="http://www.w3.org/1999/02/22-rdf-syntax-ns#"
   xmlns:svg="http://www.w3.org/2000/svg"
   xmlns="http://www.w3.org/2000/svg"
   id="svg2"
   viewBox="0 0 16 16"
   height="100%"
   width="100%"
   version="1.1">
  <metadata
     id="metadata30">
    <rdf:RDF>
      <cc:Work
         rdf:about="">
        <dc:format>image/svg+xml</dc:format>
        <dc:type
           rdf:resource="http://purl.org/dc/dcmitype/StillImage" />
        <dc:title />
      </cc:Work>
    </rdf:RDF>
  </metadata>
  <defs
     id="defs28" />
  <g
     id="g7615">
    <path
       id="clothes-3"
       style="fill:#ac39ac;fill-opacity:1;stroke:#ffffff;stroke-width:0.600;stroke-miterlimit:4;stroke-dasharray:none;stroke-linejoin:round;stroke-linecap:round"
       d="m 4.487,9.228 -1.4300849,0.9533897 0.476,1.596 0.9533899,-0.643538 0,3.813559 3.8135591,0 0,-3.813559 0.953,0.643 0.476695,-1.596928 -1.430085,-0.9533897 -0.95339,0 c 0,0.4766947 -0.476695,0.9533897 -0.95339,0.9533897 -0.476695,0 -0.9533891,-0.476695 -0.9533891,-0.9533897 z m 9.465,4.869 c 0.141414,0 0.256,0.114 0.256,0.256 0,0.141414 -0.114639,0.256053 -0.256053,0.256053 -0.141415,0 -0.256054,-0.114639 -0.256054,-0.256053 0,-0.141414 0.114639,-0.256054 0.256054,-0.256054 z M 11.11,5.622 c -0.282935,0 -0.512106,0.1948316 -0.512106,0.3840799 l -0.7681627,0 -0.6401331,0.8961864 0.640,0.896 0.7681627,0 0,6.683413 c 0,0.35074 0.192,0.640 0.512,0.640 0.319121,0 0.512107,-0.270513 0.512107,-0.640133 l 0,-6.683413 1.024213,0 0,-1.7923731 -1.024213,0 c 0,-0.1933321 -0.192986,-0.3840799 -0.512107,-0.3840799 z m 2.064,9.499 c -0.38469,-0.251402 -0.640133,-0.690397 -0.640133,-1.184246 0,-0.544984 0.31528,-1.014128 0.76816,-1.24826 l 0,-6.299334 c 0,-0.449503 0.266902,-0.768159 0.640133,-0.768159 0.37323,0 0.640,0.309 0.640,0.768 l 0,6.299334 c 0.452,0.234 0.768,0.703 0.768,1.248 0,0.493849 -0.255443,0.932844 -0.640134,1.184246 l 0,-0.76816 -0.768159,-0.76816 -0.76816,0.76816 z M 9.959,0.582 a 0.374,0.374 0 0 0 -0.109722,0.019829 l -1.003368,0.37147103 -0.181108,0.84605415 -7.7836988,0 0.676,4.061 6.091,0.609 0,0.744263 -5.7531687,0 a 0.338,0.338 0 1 0 0,0.6768434 l 0.690063,0 a 0.676,0.676 0 0 1 0,0.00132 0.676,0.676 0 0 0 -0.01322,0.1348401 0.676,0.676 0 0 0 0.676,0.676 0.676,0.676 0 0 0 0.6768433,-0.6768404 0.676,0.676 0 0 0 -0.015864,-0.1361619 l 2.7364564,0 a 0.676,0.676 0 0 1 0,0.00132 0.676,0.676 0 0 0 -0.01322,0.1348401 0.676,0.676 0 0 0 0.676,0.676 0.676,0.676 0 0 0 0.6768433,-0.6768404 0.676,0.676 0 0 0 -0.015864,-0.1361619 l 0.3542859,0 0,-1.3536867 1.015265,-4.7379033 0.06742,-0.2696797 L 10.08,1.311 A 0.374,0.374 0 0 0 9.959,0.582 Z M 1.671,2.496 l 1.5797418,0 0,0.6768433 -1.4594435,0 L 1.671,2.496 Z m 1.9181634,0 1.015265,0 0,0.6768433 -1.015265,0 0,-0.6768433 z m 1.3536867,0 1.015265,0 0,0.6768433 -1.015265,0 0,-0.6768433 z m 1.3536867,0 1.0152653,0 0,0.6768433 -1.0152653,0 0,-0.6768433 z m 1.353687,0 0.869849,0 -0.142772,0.6768433 -0.727077,0 0,-0.6768433 z m -5.7981154,1.015265 1.3986334,0 0,1.015265 -1.2175248,0 -0.1811086,-1.015265 z m 1.737055,0 1.015265,0 0,1.015265 -1.015265,0 0,-1.015265 z m 1.3536867,0 1.015265,0 0,1.015265 -1.015265,0 0,-1.015265 z m 1.3536867,0 1.0152653,0 0,1.015265 -1.0152653,0 0,-1.015265 z m 1.353687,0 0.655692,0 -0.214158,1.015265 -0.441534,0 0,-1.015265 z m -5.5561967,1.3536866 1.1567147,0 0,0.5102765 L 2.166,5.272 2.094,4.865 Z m 1.4951363,0 1.015265,0 0,0.6398285 -1.015265,-0.096503 0,-0.5433255 z m 1.3536867,0 1.015265,0 0,0.7693806 -1.015265,-0.096503 0,-0.6728775 z m 1.3536867,0 1.0152653,0 0,0.8989325 -1.0152653,-0.096503 0,-0.8024295 z m 1.353687,0 0.3688261,0 -0.1996153,0.9478453 -0.1692108,-0.015864 0,-0.9319814 z" />
    <path
       id="clothes"
       style="fill:#ac39ac;fill-opacity:1;stroke:none"
       d="m 4.487,9.228 -1.4300849,0.9533893 0.476,1.596 0.9533899,-0.643538 0,3.813559 3.8135591,0 0,-3.813559 0.953,0.643 0.476695,-1.596928 -1.430085,-0.9533893 -0.95339,0 c 0,0.4766947 -0.476695,0.9533893 -0.95339,0.9533893 -0.476695,0 -0.9533891,-0.4766946 -0.9533891,-0.9533893 z m 9.465,4.869 c 0.141414,0 0.256,0.114 0.256,0.256 0,0.141414 -0.114639,0.256053 -0.256053,0.256053 -0.141415,0 -0.256054,-0.114639 -0.256054,-0.256053 0,-0.141414 0.114639,-0.256054 0.256054,-0.256054 z M 11.11,5.622 c -0.282935,0 -0.512106,0.1948316 -0.512106,0.3840799 l -0.7681627,0 -0.6401331,0.8961864 0.640,0.896 0.7681627,0 0,6.6834126 c 0,0.35074 0.192,0.640 0.512,0.640 0.319121,0 0.512107,-0.270513 0.512107,-0.640133 l 0,-6.6834126 1.024213,0 0,-1.7923731 -1.024213,0 c 0,-0.1933321 -0.192986,-0.3840799 -0.512107,-0.3840799 z m 2.064,9.499 c -0.38469,-0.251402 -0.640133,-0.690397 -0.640133,-1.184246 0,-0.544984 0.31528,-1.014128 0.76816,-1.24826 l 0,-6.2993336 c 0,-0.449503 0.266902,-0.768159 0.640133,-0.768159 0.37323,0 0.640,0.309 0.640,0.768 l 0,6.2993336 c 0.452,0.234 0.768,0.703 0.768,1.248 0,0.493849 -0.255443,0.932844 -0.640134,1.184246 l 0,-0.76816 -0.768159,-0.76816 -0.76816,0.76816 z M 9.959,0.582 a 0.374,0.374 0 0 0 -0.109722,0.019829 l -1.003368,0.37147105 -0.181108,0.84605415 -7.7836988,0 0.676,4.061 6.091,0.609 0,0.744263 -5.7531687,0 a 0.338,0.338 0 1 0 0,0.6768434 l 0.690063,0 a 0.676,0.676 0 0 1 0,0.00132 0.676,0.676 0 0 0 -0.01322,0.1348401 0.676,0.676 0 0 0 0.676,0.676 0.676,0.676 0 0 0 0.6768433,-0.6768404 0.676,0.676 0 0 0 -0.015864,-0.1361619 l 2.7364564,0 a 0.676,0.676 0 0 1 0,0.00132 A 0.676,0.676 0 0 0 6.635,8.047 0.676,0.676 0 0 0 7.312,8.724 0.676,0.676 0 0 0 7.988,8.047 0.676,0.676 0 0 0 7.973,7.911 l 0.3542859,0 0,-1.3536867 1.015265,-4.7379033 0.06742,-0.2696797 0.6768422,-0.2379528 A 0.374,0.374 0 0 0 9.959,0.582 Z m -8.2886868,1.914198 1.5797418,0 0,0.6768433 -1.4594435,0 L 1.671,2.496 Z m 1.9181634,0 1.015265,0 0,0.6768433 -1.015265,0 0,-0.6768433 z m 1.3536867,0 1.015265,0 0,0.6768433 -1.015265,0 0,-0.6768433 z m 1.3536867,0 1.0152653,0 0,0.6768433 -1.0152653,0 0,-0.6768433 z m 1.353687,0 0.869849,0 -0.142772,0.6768433 -0.727077,0 0,-0.6768433 z m -5.7981154,1.015265 1.3986334,0 0,1.015265 -1.2175248,0 -0.1811086,-1.015265 z m 1.737055,0 1.015265,0 0,1.015265 -1.015265,0 0,-1.015265 z m 1.3536867,0 1.015265,0 0,1.015265 -1.015265,0 0,-1.015265 z m 1.3536867,0 1.0152653,0 0,1.015265 -1.0152653,0 0,-1.015265 z m 1.353687,0 0.655692,0 -0.214158,1.015265 -0.441534,0 0,-1.015265 z m -5.5561967,1.3536866 1.1567147,0 0,0.5102765 L 2.166,5.272 2.094,4.865 Z m 1.4951363,0 1.015265,0 0,0.6398285 -1.015265,-0.096503 0,-0.5433255 z m 1.3536867,0 1.015265,0 0,0.7693806 -1.015265,-0.096503 0,-0.6728775 z m 1.3536867,0 1.0152653,0 0,0.8989325 -1.0152653,-0.096503 0,-0.8024295 z m 1.353687,0 0.3688261,0 -0.1996153,0.9478453 -0.1692108,-0.015864 0,-0.9319814 z" />
  </g>
</svg>
