<?xml version="1.0" encoding="UTF-8" standalone="no"?>
<svg
   xmlns:dc="http://purl.org/dc/elements/1.1/"
   xmlns:cc="http://creativecommons.org/ns#"
   xmlns:rdf="http://www.w3.org/1999/02/22-rdf-syntax-ns#"
   xmlns:svg="http://www.w3.org/2000/svg"
   xmlns="http://www.w3.org/2000/svg"
   xmlns:sodipodi="http://sodipodi.sourceforge.net/DTD/sodipodi-0.dtd"
   xmlns:inkscape="http://www.inkscape.org/namespaces/inkscape"
   width="16"
   height="16"
   viewBox="-224 0 0 13"
   id="svg2"
   version="1.1"
   inkscape:version="0.91 r"
   sodipodi:docname="department_store-16.svg"
   inkscape:export-filename="/home/tackat/marble/sources/data/bitmaps/osmcarto/symbols/48/shop/department_store-16.png"
   inkscape:export-xdpi="270"
   inkscape:export-ydpi="270">
  <metadata
     id="metadata30">
    <rdf:RDF>
      <cc:Work
         rdf:about="">
        <dc:format>image/svg+xml</dc:format>
        <dc:type
           rdf:resource="http://purl.org/dc/dcmitype/StillImage" />
        <dc:title />
      </cc:Work>
    </rdf:RDF>
  </metadata>
  <defs
     id="defs28" />
  <sodipodi:namedview
     pagecolor="#dadada"
     bordercolor="#666666"
     borderopacity="1"
     objecttolerance="10"
     gridtolerance="10"
     guidetolerance="10"
     inkscape:pageopacity="0"
     inkscape:pageshadow="2"
     inkscape:window-width="1600"
     inkscape:window-height="845"
     id="namedview26"
     showgrid="false"
     inkscape:zoom="30.903112"
     inkscape:cx="7.6843221"
     inkscape:cy="7.4639831"
     inkscape:window-x="-2"
     inkscape:window-y="-3"
     inkscape:window-maximized="1"
     inkscape:current-layer="svg2" />
  <g
     id="g7615">
    <path
       d="m 4.4872881,9.2288133 -1.4300849,0.9533897 0.476695,1.596928 0.9533899,-0.643538 0,3.813559 3.8135591,0 0,-3.813559 0.95339,0.643538 0.476695,-1.596928 -1.430085,-0.9533897 -0.95339,0 c 0,0.4766947 -0.476695,0.9533897 -0.95339,0.9533897 -0.476695,0 -0.9533891,-0.476695 -0.9533891,-0.9533897 z m 9.4651939,4.8698537 c 0.141414,0 0.256053,0.11464 0.256053,0.256054 0,0.141414 -0.114639,0.256053 -0.256053,0.256053 -0.141415,0 -0.256054,-0.114639 -0.256054,-0.256053 0,-0.141414 0.114639,-0.256054 0.256054,-0.256054 z M 11.119554,5.622881 c -0.282935,0 -0.512106,0.1948316 -0.512106,0.3840799 l -0.7681627,0 -0.6401331,0.8961864 0.6401331,0.8961867 0.7681627,0 0,6.683413 c 0,0.35074 0.192986,0.640133 0.512106,0.640133 0.319121,0 0.512107,-0.270513 0.512107,-0.640133 l 0,-6.683413 1.024213,0 0,-1.7923731 -1.024213,0 c 0,-0.1933321 -0.192986,-0.3840799 -0.512107,-0.3840799 z m 2.064768,9.499999 c -0.38469,-0.251402 -0.640133,-0.690397 -0.640133,-1.184246 0,-0.544984 0.31528,-1.014128 0.76816,-1.24826 l 0,-6.299334 c 0,-0.449503 0.266902,-0.768159 0.640133,-0.768159 0.37323,0 0.640133,0.309021 0.640133,0.768159 l 0,6.299334 c 0.452879,0.234132 0.76816,0.703276 0.76816,1.24826 0,0.493849 -0.255443,0.932844 -0.640134,1.184246 l 0,-0.76816 -0.768159,-0.76816 -0.76816,0.76816 z M 9.9599148,0.58215492 a 0.37456415,0.37456415 0 0 0 -0.109722,0.019829 l -1.003368,0.37147103 -0.181108,0.84605415 -7.7836988,0 0.6768434,4.06106 6.0915904,0.6094236 0,0.744263 -5.7531687,0 a 0.338422,0.338422 0 1 0 0,0.6768434 l 0.690063,0 a 0.67684333,0.67684333 0 0 1 0,0.00132 0.67684333,0.67684333 0 0 0 -0.01322,0.1348401 0.67684333,0.67684333 0 0 0 0.6768437,0.6768426 0.67684333,0.67684333 0 0 0 0.6768433,-0.6768404 0.67684333,0.67684333 0 0 0 -0.015864,-0.1361619 l 2.7364564,0 a 0.67684333,0.67684333 0 0 1 0,0.00132 0.67684333,0.67684333 0 0 0 -0.01322,0.1348401 0.67684333,0.67684333 0 0 0 0.6768441,0.6768422 0.67684333,0.67684333 0 0 0 0.6768433,-0.6768404 0.67684333,0.67684333 0 0 0 -0.015864,-0.1361619 l 0.3542859,0 0,-1.3536867 1.015265,-4.7379033 0.06742,-0.2696797 L 10.086822,1.311877 A 0.37456415,0.37456415 0 0 0 9.9599148,0.58215492 Z M 1.671228,2.4963529 l 1.5797418,0 0,0.6768433 -1.4594435,0 L 1.671228,2.4963529 Z m 1.9181634,0 1.015265,0 0,0.6768433 -1.015265,0 0,-0.6768433 z m 1.3536867,0 1.015265,0 0,0.6768433 -1.015265,0 0,-0.6768433 z m 1.3536867,0 1.0152653,0 0,0.6768433 -1.0152653,0 0,-0.6768433 z m 1.353687,0 0.869849,0 -0.142772,0.6768433 -0.727077,0 0,-0.6768433 z m -5.7981154,1.015265 1.3986334,0 0,1.015265 -1.2175248,0 -0.1811086,-1.015265 z m 1.737055,0 1.015265,0 0,1.015265 -1.015265,0 0,-1.015265 z m 1.3536867,0 1.015265,0 0,1.015265 -1.015265,0 0,-1.015265 z m 1.3536867,0 1.0152653,0 0,1.015265 -1.0152653,0 0,-1.015265 z m 1.353687,0 0.655692,0 -0.214158,1.015265 -0.441534,0 0,-1.015265 z m -5.5561967,1.3536866 1.1567147,0 0,0.5102765 L 2.1669629,5.2724681 2.0942551,4.8653045 Z m 1.4951363,0 1.015265,0 0,0.6398285 -1.015265,-0.096503 0,-0.5433255 z m 1.3536867,0 1.015265,0 0,0.7693806 -1.015265,-0.096503 0,-0.6728775 z m 1.3536867,0 1.0152653,0 0,0.8989325 -1.0152653,-0.096503 0,-0.8024295 z m 1.353687,0 0.3688261,0 -0.1996153,0.9478453 -0.1692108,-0.015864 0,-0.9319814 z"
       style="fill:#ac39ac;fill-opacity:1;stroke:#ffffff;stroke-width:0.60000002;stroke-miterlimit:4;stroke-dasharray:none;stroke-linejoin:round;stroke-linecap:round"
       id="clothes-3"
       inkscape:connector-curvature="0" />
    <path
       inkscape:connector-curvature="0"
       d="m 4.4872881,9.2288137 -1.4300849,0.9533893 0.476695,1.596928 0.9533899,-0.643538 0,3.813559 3.8135591,0 0,-3.813559 0.95339,0.643538 0.476695,-1.596928 -1.430085,-0.9533893 -0.95339,0 c 0,0.4766947 -0.476695,0.9533893 -0.95339,0.9533893 -0.476695,0 -0.9533891,-0.4766946 -0.9533891,-0.9533893 z m 9.4651939,4.8698533 c 0.141414,0 0.256053,0.11464 0.256053,0.256054 0,0.141414 -0.114639,0.256053 -0.256053,0.256053 -0.141415,0 -0.256054,-0.114639 -0.256054,-0.256053 0,-0.141414 0.114639,-0.256054 0.256054,-0.256054 z M 11.119554,5.6228814 c -0.282935,0 -0.512106,0.1948316 -0.512106,0.3840799 l -0.7681627,0 -0.6401331,0.8961864 0.6401331,0.8961867 0.7681627,0 0,6.6834126 c 0,0.35074 0.192986,0.640133 0.512106,0.640133 0.319121,0 0.512107,-0.270513 0.512107,-0.640133 l 0,-6.6834126 1.024213,0 0,-1.7923731 -1.024213,0 c 0,-0.1933321 -0.192986,-0.3840799 -0.512107,-0.3840799 z m 2.064768,9.4999986 c -0.38469,-0.251402 -0.640133,-0.690397 -0.640133,-1.184246 0,-0.544984 0.31528,-1.014128 0.76816,-1.24826 l 0,-6.2993336 c 0,-0.449503 0.266902,-0.768159 0.640133,-0.768159 0.37323,0 0.640133,0.309021 0.640133,0.768159 l 0,6.2993336 c 0.452879,0.234132 0.76816,0.703276 0.76816,1.24826 0,0.493849 -0.255443,0.932844 -0.640134,1.184246 l 0,-0.76816 -0.768159,-0.76816 -0.76816,0.76816 z M 9.9599148,0.5821553 a 0.37456415,0.37456415 0 0 0 -0.109722,0.019829 l -1.003368,0.37147105 -0.181108,0.84605415 -7.7836988,0 0.6768434,4.06106 6.0915904,0.6094236 0,0.744263 -5.7531687,0 a 0.338422,0.338422 0 1 0 0,0.6768434 l 0.690063,0 a 0.67684333,0.67684333 0 0 1 0,0.00132 0.67684333,0.67684333 0 0 0 -0.01322,0.1348401 0.67684333,0.67684333 0 0 0 0.6768437,0.6768426 0.67684333,0.67684333 0 0 0 0.6768433,-0.6768404 0.67684333,0.67684333 0 0 0 -0.015864,-0.1361619 l 2.7364564,0 a 0.67684333,0.67684333 0 0 1 0,0.00132 A 0.67684333,0.67684333 0 0 0 6.6351855,8.04726 0.67684333,0.67684333 0 0 0 7.3120296,8.7241022 0.67684333,0.67684333 0 0 0 7.9888729,8.0472618 0.67684333,0.67684333 0 0 0 7.9730089,7.9110999 l 0.3542859,0 0,-1.3536867 1.015265,-4.7379033 0.06742,-0.2696797 0.6768422,-0.2379528 A 0.37456415,0.37456415 0 0 0 9.9599148,0.5821553 Z m -8.2886868,1.914198 1.5797418,0 0,0.6768433 -1.4594435,0 L 1.671228,2.4963533 Z m 1.9181634,0 1.015265,0 0,0.6768433 -1.015265,0 0,-0.6768433 z m 1.3536867,0 1.015265,0 0,0.6768433 -1.015265,0 0,-0.6768433 z m 1.3536867,0 1.0152653,0 0,0.6768433 -1.0152653,0 0,-0.6768433 z m 1.353687,0 0.869849,0 -0.142772,0.6768433 -0.727077,0 0,-0.6768433 z m -5.7981154,1.015265 1.3986334,0 0,1.015265 -1.2175248,0 -0.1811086,-1.015265 z m 1.737055,0 1.015265,0 0,1.015265 -1.015265,0 0,-1.015265 z m 1.3536867,0 1.015265,0 0,1.015265 -1.015265,0 0,-1.015265 z m 1.3536867,0 1.0152653,0 0,1.015265 -1.0152653,0 0,-1.015265 z m 1.353687,0 0.655692,0 -0.214158,1.015265 -0.441534,0 0,-1.015265 z m -5.5561967,1.3536866 1.1567147,0 0,0.5102765 L 2.1669629,5.2724685 2.0942551,4.8653049 Z m 1.4951363,0 1.015265,0 0,0.6398285 -1.015265,-0.096503 0,-0.5433255 z m 1.3536867,0 1.015265,0 0,0.7693806 -1.015265,-0.096503 0,-0.6728775 z m 1.3536867,0 1.0152653,0 0,0.8989325 -1.0152653,-0.096503 0,-0.8024295 z m 1.353687,0 0.3688261,0 -0.1996153,0.9478453 -0.1692108,-0.015864 0,-0.9319814 z"
       style="fill:#ac39ac;fill-opacity:1;stroke:none"
       id="clothes" />
  </g>
</svg>
