<?xml version="1.0" encoding="UTF-8" standalone="no"?>
<svg
   xmlns:dc="http://purl.org/dc/elements/1.1/"
   xmlns:cc="http://creativecommons.org/ns#"
   xmlns:rdf="http://www.w3.org/1999/02/22-rdf-syntax-ns#"
   xmlns:svg="http://www.w3.org/2000/svg"
   xmlns="http://www.w3.org/2000/svg"
   version="1.1"
   width="100%"
   height="100%"
   viewBox="0 0 16 16"
   id="svg2">
  <metadata
     id="metadata30">
    <rdf:RDF>
      <cc:Work
         rdf:about="">
        <dc:format>image/svg+xml</dc:format>
        <dc:type
           rdf:resource="http://purl.org/dc/dcmitype/StillImage" />
        <dc:title></dc:title>
      </cc:Work>
    </rdf:RDF>
  </metadata>
  <defs
     id="defs28" />
  <g
     id="g4924">
    <path
       id="rect3477-5"
       d="m 7.989337,0.571429 c -0.666602,0 -1.332757,0.16826035 -1.931431,0.5053637 C 4.88447,1.7376954 4.141366,2.9601009 4.112154,4.2931153 l -1.955983,0 -0.521731,9.8678897 0,1.0762 12.638195,0 -0.579019,-10.9440897 -1.827085,0 C 11.837305,2.9601009 11.094225,1.7376954 9.920767,1.0767927 9.322094,0.73968935 8.655939,0.571429 7.989337,0.571429 Z m 0,1.5999773 c 0.396668,0 0.793715,0.099471 1.14781,0.2987169 0.683448,0.3849766 1.100939,1.0727328 1.129399,1.8229921 l -4.554415,0 C 5.740541,3.542856 6.158077,2.8550998 6.841527,2.4701232 7.19562,2.2707734 7.592669,2.1714063 7.989337,2.1714063 Z m -0.31304,3.8485386 c 0.811872,0 1.408972,0.1591283 1.790256,0.4746736 0.381284,0.3155451 0.570837,0.693039 0.570837,1.1334876 0,0.2465197 -0.05763,0.4831662 -0.175957,0.7099643 C 9.74639,8.5648687 9.606347,8.7491543 9.442002,8.8904922 9.277655,9.0318303 8.984187,9.2412733 8.560172,9.5206624 8.911874,9.8723639 9.277594,10.200348 9.658878,10.502745 9.760773,10.298955 9.848454,10.083005 9.920767,9.8562074 l 1.567254,0.3498666 c -0.08217,0.28925 -0.161738,0.521435 -0.237338,0.695642 -0.0756,0.174209 -0.181125,0.37919 -0.319177,0.615849 l 0.752931,0.517639 c 0.09204,0.05917 0.211381,0.130612 0.356005,0.212785 L 10.96015,13.489915 C 10.762935,13.384734 10.557951,13.263777 10.344295,13.125726 10.133928,12.987675 9.94518,12.868329 9.777547,12.769721 c -0.348415,0.230084 -0.697095,0.398136 -1.04551,0.503318 -0.483179,0.144624 -1.03238,0.216876 -1.647036,0.216876 -0.96307,0 -1.680322,-0.20052 -2.150352,-0.601526 -0.470031,-0.401006 -0.703827,-0.886876 -0.703827,-1.458803 0,-0.410866 0.137191,-0.799329 0.413294,-1.164177 C 4.920218,9.8972727 5.372814,9.5875694 6.000618,9.3344758 5.737664,9.0156436 5.557034,8.7392151 5.458426,8.5058431 5.359816,8.2691841 5.311114,8.0288815 5.311114,7.7856487 c 0,-0.5127611 0.194013,-0.9344983 0.585158,-1.2664782 0.391144,-0.33198 0.984589,-0.4992256 1.780025,-0.4992256 z m 0.08389,1.0843835 c -0.203789,0 -0.368989,0.059673 -0.497179,0.1780026 -0.12819,0.1183294 -0.192325,0.2583718 -0.192325,0.4194314 0,0.2037896 0.18063,0.5001092 0.542192,0.8879669 C 7.872543,8.4483914 8.073063,8.2957703 8.214401,8.1314238 8.355739,7.9637903 8.42514,7.8046621 8.42514,7.6567503 8.42514,7.5022645 8.36751,7.3731907 8.249183,7.268009 8.13085,7.1595403 7.96726,7.1043284 7.760184,7.1043284 Z M 6.896772,10.345203 c -0.276102,0.193929 -0.458341,0.359128 -0.550375,0.497179 -0.08875,0.138051 -0.135037,0.283361 -0.135037,0.437846 0,0.239945 0.103917,0.455091 0.310993,0.642447 0.207077,0.187354 0.478239,0.280302 0.810219,0.280302 0.358275,0 0.760122,-0.140042 1.207144,-0.419432 -0.4273,-0.328692 -0.975696,-0.807252 -1.642943,-1.438342 z"
       style="opacity:1;fill:#ac39ac;fill-opacity:1;stroke:#ffffff;stroke-width:0.6;stroke-miterlimit:4;stroke-dasharray:none;stroke-dashoffset:0;stroke-opacity:1" />
    <path
       id="rect3477"
       d="m 7.989337,0.5714286 c -0.666602,0 -1.332757,0.16826035 -1.931431,0.5053637 C 4.88447,1.737695 4.141366,2.9601005 4.112154,4.2931149 l -1.955983,0 -0.521731,9.8678901 0,1.0762 12.638195,0 -0.579019,-10.9440901 -1.827085,0 C 11.837305,2.9601005 11.094225,1.737695 9.920767,1.0767923 9.322094,0.73968895 8.655939,0.5714286 7.989337,0.5714286 Z m 0,1.5999773 c 0.396668,0 0.793715,0.099471 1.14781,0.2987169 0.683448,0.3849766 1.100939,1.0727328 1.129399,1.8229921 l -4.554415,0 C 5.740541,3.5428556 6.158077,2.8550994 6.841527,2.4701228 7.19562,2.270773 7.592669,2.1714059 7.989337,2.1714059 Z m -0.31304,3.8485386 c 0.811872,0 1.408972,0.1591283 1.790256,0.4746736 0.381284,0.3155451 0.570837,0.693039 0.570837,1.1334876 0,0.2465197 -0.05763,0.4831662 -0.175957,0.7099643 C 9.74639,8.5648683 9.606347,8.7491539 9.442002,8.8904918 9.277655,9.0318299 8.984187,9.2412729 8.560172,9.520662 c 0.351702,0.3517015 0.717422,0.679686 1.098706,0.982083 0.101895,-0.20379 0.189576,-0.41974 0.261889,-0.646538 l 1.567254,0.349867 c -0.08217,0.28925 -0.161738,0.521435 -0.237338,0.695642 -0.0756,0.174209 -0.181125,0.37919 -0.319177,0.615849 l 0.752931,0.517639 c 0.09204,0.05917 0.211381,0.130612 0.356005,0.212785 L 10.96015,13.489915 C 10.762935,13.384734 10.557951,13.263777 10.344295,13.125726 10.133928,12.987675 9.94518,12.868329 9.777547,12.769721 c -0.348415,0.230084 -0.697095,0.398136 -1.04551,0.503318 -0.483179,0.144624 -1.03238,0.216876 -1.647036,0.216876 -0.96307,0 -1.680322,-0.20052 -2.150352,-0.601526 -0.470031,-0.401006 -0.703827,-0.886876 -0.703827,-1.458803 0,-0.410866 0.137191,-0.799329 0.413294,-1.164177 C 4.920218,9.8972723 5.372814,9.587569 6.000618,9.3344754 5.737664,9.0156432 5.557034,8.7392147 5.458426,8.5058427 5.359816,8.2691837 5.311114,8.0288811 5.311114,7.7856483 5.311114,7.2728872 5.505127,6.85115 5.896272,6.5191701 6.287416,6.1871901 6.880861,6.0199445 7.676297,6.0199445 Z m 0.08389,1.0843835 c -0.203789,0 -0.368989,0.059673 -0.497179,0.1780026 C 7.134818,7.40066 7.070683,7.5407024 7.070683,7.701762 c 0,0.2037896 0.18063,0.5001092 0.542192,0.8879669 C 7.872543,8.448391 8.073063,8.2957699 8.214401,8.1314234 8.355739,7.9637899 8.42514,7.8046617 8.42514,7.6567499 8.42514,7.5022641 8.36751,7.3731903 8.249183,7.2680086 8.13085,7.1595399 7.96726,7.104328 7.760184,7.104328 Z m -0.863415,3.240875 c -0.276102,0.193929 -0.458341,0.359128 -0.550375,0.497179 -0.08875,0.138051 -0.135037,0.283361 -0.135037,0.437846 0,0.239945 0.103917,0.455091 0.310993,0.642447 0.207077,0.187354 0.478239,0.280302 0.810219,0.280302 0.358275,0 0.760122,-0.140042 1.207144,-0.419432 -0.4273,-0.328692 -0.975696,-0.807252 -1.642943,-1.438342 z"
       style="opacity:1;fill:#ac39ac;fill-opacity:1;stroke:none;stroke-width:8;stroke-miterlimit:4;stroke-dasharray:none;stroke-dashoffset:0;stroke-opacity:1" />
  </g>
</svg>
