<?xml version="1.0" encoding="UTF-8" standalone="no"?>
<svg
   xmlns:dc="http://purl.org/dc/elements/1.1/"
   xmlns:cc="http://creativecommons.org/ns#"
   xmlns:rdf="http://www.w3.org/1999/02/22-rdf-syntax-ns#"
   xmlns:svg="http://www.w3.org/2000/svg"
   xmlns="http://www.w3.org/2000/svg"
   id="svg2"
   viewBox="0 0 16 16"
   height="100%"
   width="100%"
   version="1.1">
  <metadata
     id="metadata8">
    <rdf:RDF>
      <cc:Work
         rdf:about="">
        <dc:format>image/svg+xml</dc:format>
        <dc:type
           rdf:resource="http://purl.org/dc/dcmitype/StillImage" />
        <dc:title />
      </cc:Work>
    </rdf:RDF>
  </metadata>
  <defs
     id="defs6" />
  <rect
     style="visibility:hidden;fill:none;stroke:none"
     id="canvas"
     y="0"
     x="0"
     height="16"
     width="16" />
  <path
     style="fill:#ac39ac;fill-opacity:1;stroke:#ffffff;stroke-width:0.6;stroke-miterlimit:4;stroke-dasharray:none;stroke-linejoin:round;stroke-linecap:round"
     id="florist-6"
     d="M 4,1 C 4.944,3.833 3.233,7.433 7.25,7.938 l 0,5.562 C 7.25,12.033993 4.997226,9 2,9 c 3,2 1,6 5,6 2,0 0,0 2,0 4,0 2,-4 5,-6 -2.997226,0 -5.25,2.944994 -5.25,4.5 l 0,-5.562 C 12.75,7.450 11.05,3.833 12,1 11,1 9.75,4 9.75,4 9.75,4 9,2 8,1 7,2 6.25,4 6.25,4 6.25,4 5,1 4,1 Z" />
  <path
     style="fill:#ac39ac;fill-opacity:1;stroke:none"
     id="florist"
     d="M 4,1 C 4.944,3.833 3.233,7.433 7.25,7.938 l 0,5.562 C 7.25,12.033993 4.997226,9 2,9 c 3,2 1,6 5,6 2,0 0,0 2,0 4,0 2,-4 5,-6 -2.997226,0 -5.25,2.944994 -5.25,4.5 l 0,-5.562 C 12.75,7.450 11.05,3.833 12,1 11,1 9.75,4 9.75,4 9.75,4 9,2 8,1 7,2 6.25,4 6.25,4 6.25,4 5,1 4,1 Z" />
</svg>
