<?xml version="1.0" encoding="UTF-8" standalone="no"?>
<!-- Created with Inkscape (http://www.inkscape.org/) -->

<svg
   xmlns:dc="http://purl.org/dc/elements/1.1/"
   xmlns:cc="http://creativecommons.org/ns#"
   xmlns:rdf="http://www.w3.org/1999/02/22-rdf-syntax-ns#"
   xmlns:svg="http://www.w3.org/2000/svg"
   xmlns="http://www.w3.org/2000/svg"
   xmlns:sodipodi="http://sodipodi.sourceforge.net/DTD/sodipodi-0.dtd"
   xmlns:inkscape="http://www.inkscape.org/namespaces/inkscape"
   version="1.1"
   width="100%"
   height="100%"
   viewBox="0 0 16 16"
   id="svg2"
   inkscape:version="0.91 r"
   sodipodi:docname="florist.16.svg">
  <sodipodi:namedview
     pagecolor="#dadada"
     bordercolor="#666666"
     borderopacity="1"
     objecttolerance="10"
     gridtolerance="10"
     guidetolerance="10"
     inkscape:pageopacity="0"
     inkscape:pageshadow="2"
     inkscape:window-width="706"
     inkscape:window-height="480"
     id="namedview7"
     showgrid="false"
     inkscape:zoom="14.75"
     inkscape:cx="8"
     inkscape:cy="8"
     inkscape:window-x="0"
     inkscape:window-y="0"
     inkscape:window-maximized="0"
     inkscape:current-layer="svg2" />
  <metadata
     id="metadata8">
    <rdf:RDF>
      <cc:Work
         rdf:about="">
        <dc:format>image/svg+xml</dc:format>
        <dc:type
           rdf:resource="http://purl.org/dc/dcmitype/StillImage" />
        <dc:title />
      </cc:Work>
    </rdf:RDF>
  </metadata>
  <defs
     id="defs6" />
  <rect
     width="16"
     height="16"
     x="0"
     y="0"
     id="canvas"
     style="visibility:hidden;fill:none;stroke:none" />
  <path
     inkscape:connector-curvature="0"
     d="M 4,1 C 4.944406,3.8332196 3.233819,7.4334035 7.25,7.938 l 0,5.562 C 7.25,12.033993 4.997226,9 2,9 c 3,2 1,6 5,6 2,0 0,0 2,0 4,0 2,-4 5,-6 -2.997226,0 -5.25,2.944994 -5.25,4.5 l 0,-5.562 C 12.753428,7.4504075 11.055593,3.8332196 12,1 11,1 9.75,4 9.75,4 9.75,4 9,2 8,1 7,2 6.25,4 6.25,4 6.25,4 5,1 4,1 Z"
     id="florist-6"
     style="fill:#ac39ac;fill-opacity:1;stroke:#ffffff;stroke-width:0.6;stroke-miterlimit:4;stroke-dasharray:none;stroke-linejoin:round;stroke-linecap:round" />
  <path
     inkscape:connector-curvature="0"
     d="M 4,1 C 4.944406,3.8332196 3.233819,7.4334035 7.25,7.938 l 0,5.562 C 7.25,12.033993 4.997226,9 2,9 c 3,2 1,6 5,6 2,0 0,0 2,0 4,0 2,-4 5,-6 -2.997226,0 -5.25,2.944994 -5.25,4.5 l 0,-5.562 C 12.753428,7.4504075 11.055593,3.8332196 12,1 11,1 9.75,4 9.75,4 9.75,4 9,2 8,1 7,2 6.25,4 6.25,4 6.25,4 5,1 4,1 Z"
     id="florist"
     style="fill:#ac39ac;fill-opacity:1;stroke:none" />
</svg>
