<?xml version="1.0" encoding="UTF-8" standalone="no"?>
<svg
   xmlns:dc="http://purl.org/dc/elements/1.1/"
   xmlns:cc="http://creativecommons.org/ns#"
   xmlns:rdf="http://www.w3.org/1999/02/22-rdf-syntax-ns#"
   xmlns:svg="http://www.w3.org/2000/svg"
   xmlns="http://www.w3.org/2000/svg"
   id="svg2"
   viewBox="0 0 14 14"
   height="100%"
   width="100%"
   version="1.1">
  <defs
     id="defs3053" />
  <metadata
     id="metadata8">
    <rdf:RDF>
      <cc:Work
         rdf:about="">
        <dc:format>image/svg+xml</dc:format>
        <dc:type
           rdf:resource="http://purl.org/dc/dcmitype/StillImage" />
        <dc:title />
      </cc:Work>
    </rdf:RDF>
  </metadata>
  <rect
     style="visibility:hidden;fill:none;stroke:none"
     id="canvas"
     y="0"
     x="0"
     height="14"
     width="14" />
  <path
     style="fill:#ac39ac;fill-opacity:1;fill-rule:evenodd;stroke:#ffffff;stroke-width:0.6;stroke-miterlimit:4;stroke-dasharray:none;stroke-linejoin:round;stroke-linecap:round"
     id="garden_centre-5"
     d="M 9.644,1.770 C 7.882,1.710 5.689,2.997 6.118,6.177 L 6.780,8.821 3.949,7.059 3.910,5.296 3.205,4.415 c -0.6126823,0 -2.37543577,2.0747539 -2.37543577,2.8641053 L 1.981,7.940 3.474,7.679 7.881,13.22 c 1.3976046,0 2.4999413,0 3.8975463,0 l 1.390714,-7.0510147 c 0,-4.4068836 -2.920206,-4.3862149 -3.5255068,-4.4068836 z m 0,1.2327463 C 11.40,3.020 12.28,4.415 11.87,6.177 l -4.4201704,0 C 7,4.4150459 7.405,3.003 9.644,3.003 Z" />
  <path
     style="fill:#ac39ac;fill-opacity:1;fill-rule:evenodd;stroke:none"
     id="garden_centre"
     d="M 9.644,1.770 C 7.882,1.710 5.689,2.997 6.118,6.177 L 6.780,8.821 3.949,7.059 3.910,5.296 3.205,4.415 c -0.6126823,0 -2.37543577,2.0747539 -2.37543577,2.8641053 L 1.981,7.940 3.474,7.679 7.881,13.22 c 1.3976046,0 2.4999413,0 3.8975463,0 l 1.390714,-7.0510144 c 0,-4.4068836 -2.920206,-4.3862149 -3.5255068,-4.4068836 z m 0,1.2327463 c 1.762,0.016 2.644,1.411 2.230,3.174 l -4.4201704,0 C 7,4.4150462 7.405,3.003 9.644,3.003 Z" />
</svg>
