<?xml version="1.0" encoding="UTF-8" standalone="no"?>
<svg
   xmlns:dc="http://purl.org/dc/elements/1.1/"
   xmlns:cc="http://creativecommons.org/ns#"
   xmlns:rdf="http://www.w3.org/1999/02/22-rdf-syntax-ns#"
   xmlns:svg="http://www.w3.org/2000/svg"
   xmlns="http://www.w3.org/2000/svg"
   id="svg2"
   viewBox="0 0 14 14"
   height="100%"
   width="100%"
   version="1.1">
  <metadata
     id="metadata8">
    <rdf:RDF>
      <cc:Work
         rdf:about="">
        <dc:format>image/svg+xml</dc:format>
        <dc:type
           rdf:resource="http://purl.org/dc/dcmitype/StillImage" />
        <dc:title />
      </cc:Work>
    </rdf:RDF>
  </metadata>
  <defs
     id="defs6" />
  <rect
     style="visibility:hidden;fill:none;stroke:none"
     id="canvas"
     y="0"
     x="0"
     height="14"
     width="14" />
  <path
     style="fill:#ac39ac;fill-opacity:1;stroke:#ffffff;stroke-width:0.6;stroke-miterlimit:4;stroke-dasharray:none;stroke-linejoin:round;stroke-linecap:round"
     id="greengrocer-3"
     d="M 7.628,0.757 C 7.087,1.298 6.649,2.074 6.514,2.752 6.440,3.123 6.406,4.003 6.396,4.432 6.592,4.547 6.788,4.638 6.985,4.786 7.194,4.629 7.396,4.523 7.604,4.403 7.621,4.030 7.640,3.250 7.693,2.988 7.793,2.488 8.051,1.985 8.453,1.583 Z M 0.855,1.338 C 1.361,3.224 3.547,4.167 5.571,3.224 4.719,1.338 3.213,0.736 0.855,1.338 Z M 2.270,5.346 C 1.691,5.953 1.327,6.996 1.327,7.939 c 0,1.8861017 1.886,5.186 3.772,5.186 0.5314651,0 0.9430509,-0.235763 1.8861017,-0.707288 0.943,0.471 1.354,0.707 1.886,0.707 1.8861016,0 3.7722036,-3.3006785 3.7722036,-5.1867802 0,-0.9430508 -0.30769,-1.9860011 -0.943051,-2.5933898 C 10.73,4.424 8.871,4.403 6.985,5.817 5.099,4.484 3.213,4.303 2.270,5.346 Z" />
  <path
     style="fill:#ac39ac;fill-opacity:1;stroke:none"
     id="greengrocer"
     d="M 7.628,0.757 C 7.087,1.298 6.649,2.074 6.514,2.752 6.440,3.123 6.406,4.003 6.396,4.432 6.592,4.547 6.788,4.638 6.985,4.786 7.194,4.629 7.396,4.523 7.604,4.403 7.621,4.030 7.640,3.250 7.693,2.988 7.793,2.488 8.051,1.985 8.453,1.583 Z M 0.855,1.338 C 1.361,3.224 3.547,4.167 5.571,3.224 4.719,1.338 3.213,0.736 0.855,1.338 Z M 2.270,5.346 C 1.691,5.953 1.327,6.996 1.327,7.939 c 0,1.8861017 1.886,5.186 3.772,5.186 0.5314651,0 0.9430509,-0.235763 1.8861017,-0.707288 0.943,0.471 1.354,0.707 1.886,0.707 1.8861016,0 3.7722036,-3.3006783 3.7722036,-5.18678 0,-0.9430508 -0.30769,-1.9860011 -0.943051,-2.5933898 C 10.73,4.424 8.871,4.403 6.985,5.817 5.099,4.484 3.213,4.303 2.270,5.346 Z" />
</svg>
