<?xml version="1.0" encoding="UTF-8" standalone="no"?>
<svg
   xmlns:dc="http://purl.org/dc/elements/1.1/"
   xmlns:cc="http://creativecommons.org/ns#"
   xmlns:rdf="http://www.w3.org/1999/02/22-rdf-syntax-ns#"
   xmlns:svg="http://www.w3.org/2000/svg"
   xmlns="http://www.w3.org/2000/svg"
   xmlns:sodipodi="http://sodipodi.sourceforge.net/DTD/sodipodi-0.dtd"
   xmlns:inkscape="http://www.inkscape.org/namespaces/inkscape"
   id="svg2"
   viewBox="0 0 14 14"
   height="100%"
   width="100%"
   version="1.1"
   inkscape:version="0.91 r"
   sodipodi:docname="hifi-14.svg">
  <sodipodi:namedview
     pagecolor="#dadada"
     bordercolor="#666666"
     borderopacity="1"
     objecttolerance="10"
     gridtolerance="10"
     guidetolerance="10"
     inkscape:pageopacity="0"
     inkscape:pageshadow="2"
     inkscape:window-width="706"
     inkscape:window-height="480"
     id="namedview7"
     showgrid="false"
     inkscape:zoom="16.857143"
     inkscape:cx="7.0000001"
     inkscape:cy="7.0000001"
     inkscape:window-x="0"
     inkscape:window-y="0"
     inkscape:window-maximized="0"
     inkscape:current-layer="svg2" />
  <defs
     id="defs8" />
  <metadata
     id="metadata8">
    <rdf:RDF>
      <cc:Work
         rdf:about="">
        <dc:format>image/svg+xml</dc:format>
        <dc:type
           rdf:resource="http://purl.org/dc/dcmitype/StillImage" />
        <dc:title />
      </cc:Work>
    </rdf:RDF>
  </metadata>
  <rect
     style="visibility:hidden;fill:none;stroke:none"
     id="canvas"
     y="0"
     x="0"
     height="14"
     width="14" />
  <path
     inkscape:connector-curvature="0"
     d="M 8.3965279,9.3416054 A 1.3855932,1.3855932 0 0 1 7.0109346,10.727199 1.3855932,1.3855932 0 0 1 5.6253414,9.3416054 1.3855932,1.3855932 0 0 1 7.0109346,7.9560122 1.3855932,1.3855932 0 0 1 8.3965279,9.3416054 Z m -6.015172,-8.8077074 0,12.932204 9.2372881,0 0,-12.932204 -9.2372881,0 z m 4.6835938,0.8948623 c 1.0203227,0 1.8474576,0.8271349 1.8474576,1.8474576 0,1.0203227 -0.8271349,1.8474576 -1.8474576,1.8474576 -1.0203227,0 -1.8474576,-0.8271349 -1.8474576,-1.8474576 0,-1.0203227 0.8271349,-1.8474576 1.8474576,-1.8474576 z M 7.0090207,6.0654459 A 3.2330508,3.2330508 0 0 1 10.242072,9.2984967 3.2330508,3.2330508 0 0 1 7.0090207,12.531548 3.2330508,3.2330508 0 0 1 3.7759698,9.2984967 3.2330508,3.2330508 0 0 1 7.0090207,6.0654459 Z"
     style="fill:#ac39ac;fill-opacity:1;fill-rule:evenodd;stroke:#ffffff;stroke-opacity:1;stroke-width:0.6;stroke-miterlimit:4;stroke-dasharray:none;stroke-linejoin:round;stroke-linecap:round"
     id="path3337-3" />
  <path
     inkscape:connector-curvature="0"
     d="M 8.3965279,9.3416057 A 1.3855932,1.3855932 0 0 1 7.0109346,10.727199 1.3855932,1.3855932 0 0 1 5.6253414,9.3416057 1.3855932,1.3855932 0 0 1 7.0109346,7.9560125 1.3855932,1.3855932 0 0 1 8.3965279,9.3416057 Z m -6.015172,-8.80770739 0,12.93220369 9.2372881,0 0,-12.93220369 -9.2372881,0 z M 7.0649497,1.4287606 c 1.0203227,0 1.8474576,0.8271349 1.8474576,1.8474576 0,1.0203227 -0.8271349,1.8474576 -1.8474576,1.8474576 -1.0203227,0 -1.8474576,-0.8271349 -1.8474576,-1.8474576 0,-1.0203227 0.8271349,-1.8474576 1.8474576,-1.8474576 z M 7.0090207,6.0654462 A 3.2330508,3.2330508 0 0 1 10.242072,9.298497 3.2330508,3.2330508 0 0 1 7.0090207,12.531548 3.2330508,3.2330508 0 0 1 3.7759698,9.298497 3.2330508,3.2330508 0 0 1 7.0090207,6.0654462 Z"
     style="fill:#ac39ac;fill-opacity:1;fill-rule:evenodd;stroke:none;stroke-opacity:1"
     id="path3337" />
</svg>
