<?xml version="1.0" encoding="UTF-8" standalone="no"?>
<!-- Created with Inkscape (http://www.inkscape.org/) -->

<svg
   xmlns:dc="http://purl.org/dc/elements/1.1/"
   xmlns:cc="http://creativecommons.org/ns#"
   xmlns:rdf="http://www.w3.org/1999/02/22-rdf-syntax-ns#"
   xmlns:svg="http://www.w3.org/2000/svg"
   xmlns="http://www.w3.org/2000/svg"
   xmlns:sodipodi="http://sodipodi.sourceforge.net/DTD/sodipodi-0.dtd"
   xmlns:inkscape="http://www.inkscape.org/namespaces/inkscape"
   version="1.1"
   width="100%"
   height="100%"
   viewBox="0 0 14 14"
   id="svg2"
   inkscape:version="0.91 r"
   sodipodi:docname="kiosk-14.svg">
  <sodipodi:namedview
     pagecolor="#dadada"
     bordercolor="#666666"
     borderopacity="1"
     objecttolerance="10"
     gridtolerance="10"
     guidetolerance="10"
     inkscape:pageopacity="0"
     inkscape:pageshadow="2"
     inkscape:window-width="1600"
     inkscape:window-height="845"
     id="namedview6662"
     showgrid="false"
     inkscape:zoom="16.857143"
     inkscape:cx="10.292373"
     inkscape:cy="7"
     inkscape:window-x="-2"
     inkscape:window-y="-3"
     inkscape:window-maximized="1"
     inkscape:current-layer="svg2" />
  <metadata
     id="metadata8">
    <rdf:RDF>
      <cc:Work
         rdf:about="">
        <dc:format>image/svg+xml</dc:format>
        <dc:type
           rdf:resource="http://purl.org/dc/dcmitype/StillImage" />
        <dc:title></dc:title>
      </cc:Work>
    </rdf:RDF>
  </metadata>
  <defs
     id="defs6" />
  <rect
     width="14"
     height="14"
     x="0"
     y="0"
     id="canvas"
     style="fill:none;stroke:none;visibility:hidden" />
  <path
     d="M 2.5508475,0.771186 0.77118644,3.4406776 c 0,0.9271766 0.2048639,1.779661 1.55720336,1.779661 1.3523395,0 1.5543337,-0.8895551 1.5572034,-1.779661 l 1.1122882,-2.6694916 -2.4470339,0 z m 3.559322,0 -0.6673729,2.6694916 c 0,0.9047291 0.1416059,1.779661 1.5572034,1.779661 1.4155975,0 1.5544022,-0.9106479 1.5572034,-1.779661 L 7.8898305,0.771186 l -1.779661,0 z m 2.8919491,0 1.1122884,2.6694916 c 0,0.9100878 0.288217,1.779661 1.557203,1.779661 1.268987,0 1.557204,-0.9047481 1.557204,-1.779661 l -1.779661,-2.6694916 -2.4470344,0 z m -7.3411017,5.3389831 0,7.1186449 10.6779661,0 0,-7.1186449 -10.6779661,0 z m 2.6694916,1.779661 5.338983,0 c 0.5029965,0 0.8898305,0.4497088 0.8898305,0.8898305 l 0,1.7796614 -7.118644,0 0,-1.7796614 c 0,-0.4820381 0.4497087,-0.8898305 0.8898305,-0.8898305 z"
     id="kiosk-1"
     style="fill:#ac39ac;fill-opacity:1;stroke:#ffffff;stroke-width:1;stroke-miterlimit:4;stroke-dasharray:none"
     inkscape:connector-curvature="0" />
  <path
     d="M 2.5508475,0.77118644 0.77118644,3.440678 c 0,0.9271766 0.2048639,1.779661 1.55720336,1.779661 1.3523395,0 1.5543337,-0.8895551 1.5572034,-1.779661 l 1.1122882,-2.66949156 -2.4470339,0 z m 3.559322,0 L 5.4427966,3.440678 c 0,0.9047291 0.1416059,1.779661 1.5572034,1.779661 1.4155975,0 1.5544022,-0.9106479 1.5572034,-1.779661 l -0.6673729,-2.66949156 -1.779661,0 z m 2.8919491,0 1.1122884,2.66949156 c 0,0.9100878 0.288217,1.779661 1.557203,1.779661 1.268987,0 1.557204,-0.9047481 1.557204,-1.779661 l -1.779661,-2.66949156 -2.4470344,0 z m -7.3411017,5.33898306 0,7.1186445 10.6779661,0 0,-7.1186445 -10.6779661,0 z m 2.6694916,1.779661 5.338983,0 c 0.5029965,0 0.8898305,0.4497088 0.8898305,0.8898305 l 0,1.779661 -7.118644,0 0,-1.779661 c 0,-0.4820381 0.4497087,-0.8898305 0.8898305,-0.8898305 z"
     id="kiosk"
     style="fill:#ac39ac;fill-opacity:1;stroke:none"
     inkscape:connector-curvature="0" />
</svg>
