<?xml version="1.0" encoding="UTF-8" standalone="no"?>
<svg
   xmlns:dc="http://purl.org/dc/elements/1.1/"
   xmlns:cc="http://creativecommons.org/ns#"
   xmlns:rdf="http://www.w3.org/1999/02/22-rdf-syntax-ns#"
   xmlns:svg="http://www.w3.org/2000/svg"
   xmlns="http://www.w3.org/2000/svg"
   id="svg2"
   viewBox="0 0 14 14"
   height="100%"
   width="100%"
   version="1.1">
  <metadata
     id="metadata8">
    <rdf:RDF>
      <cc:Work
         rdf:about="">
        <dc:format>image/svg+xml</dc:format>
        <dc:type
           rdf:resource="http://purl.org/dc/dcmitype/StillImage" />
        <dc:title />
      </cc:Work>
    </rdf:RDF>
  </metadata>
  <defs
     id="defs6" />
  <rect
     style="fill:none;stroke:none;visibility:hidden"
     id="canvas"
     y="0"
     x="0"
     height="14"
     width="14" />
  <path
     style="fill:#ac39ac;fill-opacity:1;stroke:#ffffff;stroke-width:1;stroke-miterlimit:4;stroke-dasharray:none"
     id="kiosk-1"
     d="M 2.550,0.771 0.771,3.440 c 0,0.9271766 0.204,1.779 1.557,1.779 1.3523395,0 1.5543337,-0.8895551 1.5572034,-1.779661 l 1.1122882,-2.6694916 -2.4470339,0 z m 3.559322,0 -0.6673729,2.6694916 c 0,0.9047291 0.141,1.779 1.557,1.779 1.4155975,0 1.5544022,-0.9106479 1.5572034,-1.779661 L 7.889,0.771 l -1.779661,0 z m 2.8919491,0 1.112,2.669 c 0,0.9100878 0.288,1.779 1.557,1.779 1.268987,0 1.557204,-0.9047481 1.557204,-1.779661 l -1.779661,-2.6694916 -2.4470344,0 z m -7.3411017,5.3389831 0,7.1186449 10.6779661,0 0,-7.1186449 -10.6779661,0 z m 2.669,1.779 5.338983,0 c 0.5029965,0 0.889,0.449 0.889,0.889 l 0,1.7796614 -7.118644,0 0,-1.7796614 c 0,-0.4820381 0.4497087,-0.8898305 0.8898305,-0.8898305 z" />
  <path
     style="fill:#ac39ac;fill-opacity:1;stroke:none"
     id="kiosk"
     d="M 2.550,0.771 0.771,3.440 c 0,0.9271766 0.204,1.779 1.557,1.779 1.3523395,0 1.5543337,-0.8895551 1.5572034,-1.779661 l 1.1122882,-2.66949156 -2.4470339,0 z m 3.559322,0 L 5.442,3.440 c 0,0.9047291 0.141,1.779 1.557,1.779 1.4155975,0 1.5544022,-0.9106479 1.5572034,-1.779661 l -0.6673729,-2.66949156 -1.779661,0 z m 2.8919491,0 1.112,2.669 c 0,0.9100878 0.288,1.779 1.557,1.779 1.268987,0 1.557204,-0.9047481 1.557204,-1.779661 l -1.779661,-2.66949156 -2.4470344,0 z m -7.3411017,5.33898306 0,7.1186445 10.6779661,0 0,-7.1186445 -10.6779661,0 z m 2.669,1.779 5.338983,0 c 0.5029965,0 0.889,0.449 0.889,0.889 l 0,1.779661 -7.118644,0 0,-1.779661 c 0,-0.4820381 0.4497087,-0.8898305 0.8898305,-0.8898305 z" />
</svg>
