<?xml version="1.0" encoding="UTF-8" standalone="no"?>
<svg
   xmlns:dc="http://purl.org/dc/elements/1.1/"
   xmlns:cc="http://creativecommons.org/ns#"
   xmlns:rdf="http://www.w3.org/1999/02/22-rdf-syntax-ns#"
   xmlns:svg="http://www.w3.org/2000/svg"
   xmlns="http://www.w3.org/2000/svg"
   id="svg2"
   viewBox="0 0 14 14"
   height="100%"
   width="100%"
   version="1.1">
  <defs
     id="defs3053" />
  <metadata
     id="metadata8">
    <rdf:RDF>
      <cc:Work
         rdf:about="">
        <dc:format>image/svg+xml</dc:format>
        <dc:type
           rdf:resource="http://purl.org/dc/dcmitype/StillImage" />
        <dc:title />
      </cc:Work>
    </rdf:RDF>
  </metadata>
  <rect
     style="visibility:hidden;fill:none;stroke:none"
     id="canvas"
     y="0"
     x="0"
     height="14"
     width="14" />
  <path
     style="fill:#000000;fill-opacity:1;fill-rule:evenodd;stroke:none"
     id="path3855"
     d="m 8.348,7.891 a 1.477,1.442 0 0 1 -3.19e-5,0.00947" />
  <path
     style="fill:#ac39ac;fill-opacity:1;fill-rule:evenodd;stroke:#ffffff;stroke-width:0.6;stroke-miterlimit:4;stroke-dasharray:none;stroke-linejoin:round;stroke-linecap:round"
     id="path3051-3"
     d="M 9.245,8.347 C 9.245,9.587 8.240,10.59 7,10.59322 5.759,10.59 4.754,9.588 4.754,8.347 Z M 1.610,0.711 l 0,12.576272 10.7796625,0 0,-12.576272 z m 1.796,0.898 4.4915255,0 0,1.7966101 -4.4915255,0 z m 6.2881357,0 1.7966107,0 0,1.7966101 -1.7966107,0 z M 7,5.2033895 c 1.4414742,0 2.708,0.988 3.059,2.386 l 0.084,0.757 C 10.14,10.08 8.736,11.49 7,11.491526 5.263,11.49 3.855,10.08 3.855,8.347 3.855,6.611 5.263,5.203 7,5.2033895 Z" />
  <path
     style="fill:#ac39ac;fill-opacity:1;fill-rule:evenodd;stroke:none"
     id="path3051"
     d="M 9.245,8.347 C 9.245,9.587 8.240,10.59 7,10.59322 5.759,10.59 4.754,9.588 4.754,8.347 Z M 1.610,0.711 l 0,12.576272 10.7796625,0 0,-12.576272 z m 1.796,0.898 4.4915255,0 0,1.7966101 -4.4915255,0 z m 6.2881357,0 1.7966107,0 0,1.7966101 -1.7966107,0 z M 7,5.2033895 c 1.4414742,0 2.708,0.988 3.059,2.386 l 0.084,0.757 C 10.14,10.08 8.736,11.49 7,11.491526 5.263,11.49 3.855,10.08 3.855,8.347 3.855,6.611 5.263,5.203 7,5.2033895 Z" />
</svg>
