<?xml version="1.0" encoding="UTF-8" standalone="no"?>
<svg
   xmlns:dc="http://purl.org/dc/elements/1.1/"
   xmlns:cc="http://creativecommons.org/ns#"
   xmlns:rdf="http://www.w3.org/1999/02/22-rdf-syntax-ns#"
   xmlns:svg="http://www.w3.org/2000/svg"
   xmlns="http://www.w3.org/2000/svg"
   id="svg2"
   viewBox="0 0 16 16"
   height="100%"
   width="100%"
   version="1.1">
  <metadata
     id="metadata30">
    <rdf:RDF>
      <cc:Work
         rdf:about="">
        <dc:format>image/svg+xml</dc:format>
        <dc:type
           rdf:resource="http://purl.org/dc/dcmitype/StillImage" />
        <dc:title></dc:title>
      </cc:Work>
    </rdf:RDF>
  </metadata>
  <defs
     id="defs28" />
  <path
     style="fill:#ac39ac;stroke-width:0.6;stroke-miterlimit:4;stroke-dasharray:none;stroke:#ffffff"
     id="mobile-phone-4"
     d="m 6.9661017,1 c -0.482836,0 -1,0.387623 -1,1 l 0,1 c -1.1185,0.0818 -2,0.90528 -2,2 l 0,8 c 0,1.1488 0.803333,2 2,2 l 4.0000003,0 c 1.196673,0 2.000006,-0.8512 2.000006,-2 l 0,-8 c 0,-1.1488 -0.803333,-2 -2.000006,-2 l -2.0000003,0 0,-1 c 0,-0.63593 -0.517164,-1 -1,-1 z m -2,4 6.0000063,0 0,7 -6.0000063,0 0,-7 z m 2,8 2,0 0,1 -2,0 0,-1 z" />
  <path
     style="fill:#ac39ac"
     id="mobile-phone"
     d="m 6.9661017,0.99999969 c -0.482836,0 -1,0.38762301 -1,1.00000001 l 0,1 c -1.1185,0.0818 -2,0.90528 -2,2 l 0,8.0000003 c 0,1.1488 0.803333,2 2,2 l 4.0000003,0 c 1.196673,0 2.000006,-0.8512 2.000006,-2 l 0,-8.0000003 c 0,-1.1488 -0.803333,-2 -2.000006,-2 l -2.0000003,0 0,-1 c 0,-0.63593 -0.517164,-1.00000001 -1,-1.00000001 z m -2,4.00000001 6.0000063,0 0,7.0000003 -6.0000063,0 0,-7.0000003 z m 2,8.0000003 2,0 0,1 -2,0 0,-1 z" />
</svg>
