<?xml version="1.0" encoding="UTF-8" standalone="no"?>
<svg
   xmlns:dc="http://purl.org/dc/elements/1.1/"
   xmlns:cc="http://creativecommons.org/ns#"
   xmlns:rdf="http://www.w3.org/1999/02/22-rdf-syntax-ns#"
   xmlns:svg="http://www.w3.org/2000/svg"
   xmlns="http://www.w3.org/2000/svg"
   xmlns:sodipodi="http://sodipodi.sourceforge.net/DTD/sodipodi-0.dtd"
   xmlns:inkscape="http://www.inkscape.org/namespaces/inkscape"
   id="svg2"
   viewBox="-240 0 0 16"
   height="14"
   width="14"
   version="1.1"
   inkscape:version="0.91 r"
   sodipodi:docname="motorcycle-14.svg">
  <sodipodi:namedview
     pagecolor="#dadada"
     bordercolor="#666666"
     borderopacity="1"
     objecttolerance="10"
     gridtolerance="10"
     guidetolerance="10"
     inkscape:pageopacity="0"
     inkscape:pageshadow="2"
     inkscape:window-width="706"
     inkscape:window-height="480"
     id="namedview7"
     showgrid="false"
     inkscape:zoom="16.857143"
     inkscape:cx="7.0000001"
     inkscape:cy="7.0000001"
     inkscape:window-x="0"
     inkscape:window-y="0"
     inkscape:window-maximized="0"
     inkscape:current-layer="svg2" />
  <metadata
     id="metadata8">
    <rdf:RDF>
      <cc:Work
         rdf:about="">
        <dc:format>image/svg+xml</dc:format>
        <dc:type
           rdf:resource="http://purl.org/dc/dcmitype/StillImage" />
        <dc:title />
      </cc:Work>
    </rdf:RDF>
  </metadata>
  <defs
     id="defs6" />
  <rect
     y="0"
     x="0"
     width="14"
     height="14"
     id="canvas"
     style="visibility:hidden;fill:none;stroke:none" />
  <path
     inkscape:connector-curvature="0"
     d="m 11.358455,5.9327354 c 0.279497,0.1966259 0.442464,0.4132483 0.521964,0.6878165 0.02613,0.090274 0.02777,0.1088141 0.02848,0.2943983 6.29e-4,0.1708097 -0.0012,0.2156042 -0.02136,0.3104552 -0.03961,0.1861623 -0.112898,0.3941712 -0.199295,0.5754115 l -0.03796,0.08297 -0.130493,0.00808 C 11.045086,7.9197039 10.6631,8.0160621 10.33114,8.1942988 9.6191695,8.5765597 9.1719544,9.2947467 8.9503033,10.407625 l -0.018977,0.08831 -0.092531,0.09635 C 8.7874843,10.644505 8.7183764,10.70732 8.6845781,10.731454 8.377427,10.950663 7.9365795,11.081838 7.3108592,11.14361 7.029954,11.17139 6.841713,11.17684 5.9347672,11.18643 5.4030036,11.19213 4.9650511,11.19944 4.962013,11.2025 4.959103,11.2055 4.938532,11.208 4.916934,11.208 4.86985,11.208 4.87307,11.22857 4.900329,10.983188 4.942433,10.603919 4.937744,10.163835 4.888412,9.8457211 4.7466392,8.9305711 4.2450613,8.3298348 3.3936882,8.0551138 3.0196268,7.9344056 2.6905299,7.8908801 2.1291081,7.881151 L 1.7708496,7.8730673 1.7471262,7.846305 C 1.6274596,7.6991461 1.5661596,7.474113 1.6000268,7.3030085 1.6160374,7.222203 1.671321,7.1051946 1.7186599,7.0541104 L 2.7271682,5.8979023 c 2.1866508,-0.00782 2.7702515,0.004 4.8590271,0.024717 0.1160335,0.030886 0.6445184,1.2250266 0.6997837,1.3241623 0.029872,0.053592 0.071318,0.1718458 0.080671,0.2301636 0.00376,0.023692 0.0079,0.042821 0.00948,0.042821 0.014068,0 0.2089734,-0.087507 0.3084339,-0.1391688 C 8.950716,7.2423504 9.2846388,6.7006192 9.4534852,6.4787097 9.6142694,4.3435204 6.9793305,-1.3242717 11.358458,5.9327356 Z m -0.102017,2.2026222 c 0.636504,-0.049562 1.263101,0.2074071 1.708252,0.7011988 0.618875,0.6864904 0.764393,1.7128176 0.363003,2.5585746 -0.333754,0.703247 -0.993433,1.177963 -1.731977,1.247172 -0.27715,0.02596 -0.609378,-0.01408 -0.870734,-0.107061 C 10.078666,12.305329 9.575639,11.772279 9.3655007,11.095375 9.1715986,10.470787 9.2459065,9.7756037 9.564794,9.2246182 9.9327454,8.5888555 10.550799,8.1902853 11.256438,8.1353576 Z m -8.6622592,0.00534 c 0.2600189,2.863e-4 0.3336198,0.00864 0.5219666,0.05888 0.8493007,0.2266666 1.4821126,0.9706029 1.6038577,1.8841394 0.022412,0.168555 0.022619,0.464182 0,0.623584 -0.1080403,0.76146 -0.5504001,1.392234 -1.2052668,1.72356 -0.2077697,0.105116 -0.4688415,0.184314 -0.7046539,0.211432 -0.1355474,0.01559 -0.4272383,0.0041 -0.5694172,-0.02142 C 1.3274305,12.456031 0.63500942,11.727674 0.47309944,10.76082 0.44239073,10.577987 0.43867328,10.242505 0.46593387,10.059621 0.53936578,9.5678588 0.74725435,9.1405844 1.0780569,8.7937127 1.3987621,8.4574307 1.7772998,8.2491661 2.2406154,8.1594262 2.3224898,8.143421 2.3935362,8.1404348 2.5941289,8.1406948 Z m 8.7429272,0.7734623 c -0.42091,0.021258 -0.801512,0.2350005 -1.058166,0.5914686 -0.08003,0.111143 -0.187511,0.3367591 -0.223023,0.4683586 -0.1444899,0.5354609 -0.0042,1.0896789 0.372496,1.4746599 0.09541,0.09749 0.237138,0.207908 0.339274,0.26228 0.07977,0.04248 0.244214,0.103044 0.341651,0.12579 0.12065,0.02836 0.395449,0.03686 0.514848,0.01607 0.573712,-0.09984 1.02095,-0.546159 1.153071,-1.145472 0.03033,-0.137613 0.03709,-0.40741 0.01425,-0.548645 C 12.669163,9.4029168 12.056062,8.8778603 11.337118,8.9141676 Z M 2.5989236,8.919494 C 2.345941,8.9189388 2.1623998,8.9646371 1.9512118,9.0800701 1.8041509,9.1604494 1.6964931,9.2426045 1.5810913,9.3691101 1.3915599,9.5768871 1.2769987,9.8044587 1.2157143,10.09172 c -0.025292,0.118584 -0.029822,0.400005 -0.00948,0.535266 0.052295,0.347697 0.2389827,0.689317 0.4958674,0.907276 0.1977139,0.167754 0.4233574,0.275465 0.6595753,0.315808 0.1169933,0.02004 0.3621737,0.02016 0.4673959,0 C 3.6619912,11.690498 4.1712489,10.829927 3.9394417,9.9739514 3.8198491,9.532386 3.4797646,9.1551504 3.0615906,8.9998011 2.9014747,8.9403361 2.7828136,8.9199421 2.5989383,8.9195125 Z"
     style="fill:#ac39ac;fill-opacity:1;fill-rule:evenodd;stroke:#ffffff;stroke-width:0.6;stroke-miterlimit:4;stroke-dasharray:none;stroke-linejoin:round;stroke-linecap:round"
     id="motorcycle-6" />
  <path
     inkscape:connector-curvature="0"
     d="m 11.358455,5.9327354 c 0.279497,0.1966259 0.442464,0.4132483 0.521964,0.6878165 0.02613,0.090274 0.02777,0.1088141 0.02848,0.2943983 6.29e-4,0.1708097 -0.0012,0.2156042 -0.02136,0.3104552 -0.03961,0.1861623 -0.112898,0.3941712 -0.199295,0.5754115 l -0.03796,0.08297 -0.130493,0.00808 C 11.045086,7.9197039 10.6631,8.0160621 10.33114,8.1942988 9.6191695,8.5765597 9.1719544,9.2947467 8.9503033,10.407625 l -0.018977,0.08831 -0.092531,0.09635 c -0.051311,0.05222 -0.1204189,0.115035 -0.1542172,0.139169 -0.3071511,0.219209 -0.7479986,0.350384 -1.3737189,0.412156 -0.2809052,0.02778 -0.4691462,0.03323 -1.376092,0.04282 -0.5317636,0.0057 -0.9697161,0.01301 -0.9727542,0.01607 -0.00291,0.003 -0.023481,0.0055 -0.045079,0.0055 -0.047084,0 -0.043864,0.02057 -0.016605,-0.224812 0.042104,-0.379269 0.037415,-0.819353 -0.011917,-1.1374669 C 4.7466392,8.9305711 4.2450613,8.3298348 3.3936882,8.0551138 3.0196268,7.9344056 2.6905299,7.8908801 2.1291081,7.881151 L 1.7708496,7.8730673 1.7471262,7.846305 C 1.6274596,7.6991461 1.5661596,7.474113 1.6000268,7.3030085 1.6160374,7.222203 1.671321,7.1051946 1.7186599,7.0541104 L 2.7271682,5.8979023 c 2.1866508,-0.00782 2.7702515,0.004 4.8590271,0.024717 0.1160335,0.030886 0.6445184,1.2250266 0.6997837,1.3241623 0.029872,0.053592 0.071318,0.1718458 0.080671,0.2301636 0.00376,0.023692 0.0079,0.042821 0.00948,0.042821 0.014068,0 0.2089734,-0.087507 0.3084339,-0.1391688 C 8.950716,7.2423504 9.2846388,6.7006192 9.4534852,6.4787097 9.6142694,4.3435204 6.9793305,-1.3242717 11.358458,5.9327356 Z m -0.102017,2.2026222 c 0.636504,-0.049562 1.263101,0.2074071 1.708252,0.7011988 0.618875,0.6864904 0.764393,1.7128176 0.363003,2.5585746 -0.333754,0.703247 -0.993433,1.177963 -1.731977,1.247172 -0.27715,0.02596 -0.609378,-0.01408 -0.870734,-0.107061 C 10.078666,12.305329 9.575639,11.772279 9.3655007,11.095375 9.1715986,10.470787 9.2459065,9.7756037 9.564794,9.2246182 9.9327454,8.5888555 10.550799,8.1902853 11.256438,8.1353576 Z m -8.6622592,0.00534 c 0.2600189,2.863e-4 0.3336198,0.00864 0.5219666,0.05888 0.8493007,0.2266666 1.4821126,0.9706029 1.6038577,1.8841391 0.022412,0.168555 0.022619,0.464182 0,0.623584 -0.1080403,0.76146 -0.5504001,1.392234 -1.2052668,1.72356 -0.2077697,0.105116 -0.4688415,0.184314 -0.7046539,0.211432 -0.1355474,0.01559 -0.4272383,0.0041 -0.5694172,-0.02142 C 1.3274305,12.456031 0.63500942,11.727674 0.47309944,10.76082 0.44239073,10.577987 0.43867328,10.242505 0.46593387,10.059621 0.53936578,9.5678588 0.74725435,9.1405844 1.0780569,8.7937127 1.3987621,8.4574307 1.7772998,8.2491661 2.2406154,8.1594262 2.3224898,8.143421 2.3935362,8.1404348 2.5941289,8.1406948 Z m 8.7429272,0.7734623 c -0.42091,0.021258 -0.801512,0.2350005 -1.058166,0.5914686 -0.08003,0.111143 -0.187511,0.3367591 -0.223023,0.4683586 -0.1444899,0.5354609 -0.0042,1.0896789 0.372496,1.4746599 0.09541,0.09749 0.237138,0.207908 0.339274,0.26228 0.07977,0.04248 0.244214,0.103044 0.341651,0.12579 0.12065,0.02836 0.395449,0.03686 0.514848,0.01607 0.573712,-0.09984 1.02095,-0.546159 1.153071,-1.145472 0.03033,-0.137613 0.03709,-0.40741 0.01425,-0.548645 C 12.669163,9.4029168 12.056062,8.8778603 11.337118,8.9141676 Z M 2.5989236,8.919494 C 2.345941,8.9189388 2.1623998,8.9646371 1.9512118,9.0800701 1.8041509,9.1604494 1.6964931,9.2426045 1.5810913,9.3691101 1.3915599,9.5768871 1.2769987,9.8044587 1.2157143,10.09172 c -0.025292,0.118584 -0.029822,0.400005 -0.00948,0.535266 0.052295,0.347697 0.2389827,0.689317 0.4958674,0.907276 0.1977139,0.167754 0.4233574,0.275465 0.6595753,0.315808 0.1169933,0.02004 0.3621737,0.02016 0.4673959,0 C 3.6619912,11.690498 4.1712489,10.829927 3.9394417,9.9739514 3.8198491,9.532386 3.4797646,9.1551504 3.0615906,8.9998011 2.9014747,8.9403361 2.7828136,8.9199421 2.5989383,8.9195125 Z"
     style="fill:#ac39ac;fill-rule:evenodd;fill-opacity:1"
     id="motorcycle" />
</svg>
