<?xml version="1.0" encoding="UTF-8" standalone="no"?>
<svg
   xmlns:dc="http://purl.org/dc/elements/1.1/"
   xmlns:cc="http://creativecommons.org/ns#"
   xmlns:rdf="http://www.w3.org/1999/02/22-rdf-syntax-ns#"
   xmlns:svg="http://www.w3.org/2000/svg"
   xmlns="http://www.w3.org/2000/svg"
   id="svg2"
   viewBox="0 0 16 16"
   height="100%"
   width="100%"
   version="1.1">
  <metadata
     id="metadata8">
    <rdf:RDF>
      <cc:Work
         rdf:about="">
        <dc:format>image/svg+xml</dc:format>
        <dc:type
           rdf:resource="http://purl.org/dc/dcmitype/StillImage" />
        <dc:title />
      </cc:Work>
    </rdf:RDF>
  </metadata>
  <defs
     id="defs6" />
  <rect
     style="visibility:hidden;fill:none;stroke:none"
     id="canvas"
     height="14"
     width="14"
     x="0"
     y="0" />
  <path
     id="motorcycle-6"
     style="fill:#ac39ac;fill-opacity:1;fill-rule:evenodd;stroke:#ffffff;stroke-width:0.6;stroke-miterlimit:4;stroke-dasharray:none;stroke-linejoin:round;stroke-linecap:round"
     d="m 11.35,5.932 c 0.279,0.196 0.442,0.413 0.521,0.687 0.026,0.090 0.027,0.108 0.028,0.294 6.29e-4,0.1708097 -0.0012,0.2156042 -0.02136,0.3104552 -0.03961,0.1861623 -0.112898,0.3941712 -0.199295,0.5754115 l -0.03796,0.08297 -0.130493,0.00808 C 11.04,7.919 10.66,8.016 10.33,8.194 9.619,8.576 9.171,9.294 8.950,10.40 l -0.018977,0.08831 -0.092531,0.09635 C 8.787,10.64 8.718,10.70 8.684,10.73 8.377,10.95 7.936,11.08 7.310,11.14 7.029,11.17 6.841,11.17 5.934,11.18 5.403,11.19 4.965,11.19 4.962,11.20 4.959,11.20 4.938,11.20 4.916,11.20 4.869,11.20 4.873,11.22 4.900,10.98 4.942,10.60 4.937,10.16 4.888,9.845 4.746,8.930 4.245,8.329 3.393,8.055 3.019,7.934 2.690,7.890 2.129,7.881 L 1.770,7.873 1.747,7.846 C 1.627,7.699 1.566,7.474 1.600,7.303 1.616,7.222 1.671,7.105 1.718,7.054 L 2.727,5.897 c 2.1866508,-0.00782 2.7702515,0.004 4.859,0.024 0.116,0.030 0.644,1.225 0.699,1.324 0.029,0.053 0.071,0.171 0.080,0.230 0.003,0.023 0.007,0.042 0.009,0.042 0.014068,0 0.2089734,-0.087507 0.3084339,-0.1391688 C 8.950,7.242 9.284,6.700 9.453,6.478 9.614,4.343 6.9793305,-1.3242717 11.35,5.932 Z m -0.102017,2.2026222 c 0.636504,-0.049562 1.263,0.207 1.708,0.701 0.618,0.686 0.764,1.712 0.363,2.558 -0.333754,0.703247 -0.993433,1.177963 -1.731977,1.247172 -0.27715,0.02596 -0.609378,-0.01408 -0.870734,-0.107061 C 10.07,12.30 9.575,11.77 9.365,11.09 9.171,10.47 9.245,9.775 9.564,9.224 9.932,8.588 10.55,8.190 11.25,8.135 Z m -8.6622592,0.00534 c 0.2600189,2.863e-4 0.333,0.008 0.521,0.058 0.849,0.226 1.482,0.970 1.603,1.884 0.022,0.168 0.022,0.464 0,0.623584 -0.1080403,0.76146 -0.5504001,1.392234 -1.2052668,1.72356 -0.2077697,0.105116 -0.4688415,0.184314 -0.7046539,0.211432 -0.1355474,0.01559 -0.4272383,0.0041 -0.5694172,-0.02142 C 1.327,12.45 0.635,11.72 0.473,10.76 0.442,10.57 0.438,10.24 0.465,10.05 0.539,9.567 0.747,9.140 1.078,8.793 1.398,8.457 1.777,8.249 2.240,8.159 2.322,8.143 2.393,8.140 2.594,8.140 Z m 8.742,0.773 c -0.42091,0.021258 -0.801512,0.2350005 -1.058166,0.5914686 -0.08003,0.111143 -0.187511,0.3367591 -0.223023,0.4683586 -0.1444899,0.5354609 -0.0042,1.0896789 0.372,1.474 0.095,0.097 0.237,0.207 0.339,0.262 0.079,0.042 0.244,0.103 0.341,0.125 0.120,0.028 0.395,0.036 0.514,0.016 0.573712,-0.09984 1.02095,-0.546159 1.153071,-1.145472 0.03033,-0.137613 0.03709,-0.40741 0.01425,-0.548645 C 12.66,9.402 12.05,8.877 11.33,8.914 Z M 2.598,8.919 C 2.345,8.918 2.162,8.964 1.951,9.080 1.804,9.160 1.696,9.242 1.581,9.369 1.391,9.576 1.276,9.804 1.215,10.09 c -0.025292,0.118584 -0.029822,0.400005 -0.00948,0.535266 0.052,0.347 0.238,0.689 0.495,0.907 0.197,0.167 0.423,0.275 0.659,0.315 0.116,0.020 0.362,0.020 0.4673959,0 C 3.661,11.69 4.171,10.82 3.939,9.973 3.819,9.532 3.479,9.155 3.061,8.999 2.901,8.940 2.782,8.919 2.598,8.919 Z" />
  <path
     id="motorcycle"
     style="fill:#ac39ac;fill-rule:evenodd;fill-opacity:1"
     d="m 11.35,5.932 c 0.279,0.196 0.442,0.413 0.521,0.687 0.026,0.090 0.027,0.108 0.028,0.294 6.29e-4,0.1708097 -0.0012,0.2156042 -0.02136,0.3104552 -0.03961,0.1861623 -0.112898,0.3941712 -0.199295,0.5754115 l -0.03796,0.08297 -0.130493,0.00808 C 11.04,7.919 10.66,8.016 10.33,8.194 9.619,8.576 9.171,9.294 8.950,10.40 l -0.018977,0.08831 -0.092531,0.09635 c -0.051311,0.05222 -0.1204189,0.115035 -0.1542172,0.139169 -0.3071511,0.219209 -0.7479986,0.350384 -1.3737189,0.412156 -0.2809052,0.02778 -0.4691462,0.03323 -1.376092,0.04282 -0.5317636,0.0057 -0.9697161,0.01301 -0.9727542,0.01607 -0.00291,0.003 -0.023481,0.0055 -0.045079,0.0055 -0.047084,0 -0.043864,0.02057 -0.016605,-0.224812 0.042104,-0.379269 0.037415,-0.819353 -0.011917,-1.1374669 C 4.746,8.930 4.245,8.329 3.393,8.055 3.019,7.934 2.690,7.890 2.129,7.881 L 1.770,7.873 1.747,7.846 C 1.627,7.699 1.566,7.474 1.600,7.303 1.616,7.222 1.671,7.105 1.718,7.054 L 2.727,5.897 c 2.1866508,-0.00782 2.7702515,0.004 4.859,0.024 0.116,0.030 0.644,1.225 0.699,1.324 0.029,0.053 0.071,0.171 0.080,0.230 0.003,0.023 0.007,0.042 0.009,0.042 0.014068,0 0.2089734,-0.087507 0.3084339,-0.1391688 C 8.950,7.242 9.284,6.700 9.453,6.478 9.614,4.343 6.9793305,-1.3242717 11.35,5.932 Z m -0.102017,2.2026222 c 0.636504,-0.049562 1.263,0.207 1.708,0.701 0.618,0.686 0.764,1.712 0.363,2.558 -0.333754,0.703247 -0.993433,1.177963 -1.731977,1.247172 -0.27715,0.02596 -0.609378,-0.01408 -0.870734,-0.107061 C 10.07,12.30 9.575,11.77 9.365,11.09 9.171,10.47 9.245,9.775 9.564,9.224 9.932,8.588 10.55,8.190 11.25,8.135 Z m -8.6622592,0.00534 c 0.2600189,2.863e-4 0.333,0.008 0.521,0.058 0.849,0.226 1.482,0.970 1.603,1.884 0.022,0.168 0.022,0.464 0,0.623584 -0.1080403,0.76146 -0.5504001,1.392234 -1.2052668,1.72356 -0.2077697,0.105116 -0.4688415,0.184314 -0.7046539,0.211432 -0.1355474,0.01559 -0.4272383,0.0041 -0.5694172,-0.02142 C 1.327,12.45 0.635,11.72 0.473,10.76 0.442,10.57 0.438,10.24 0.465,10.05 0.539,9.567 0.747,9.140 1.078,8.793 1.398,8.457 1.777,8.249 2.240,8.159 2.322,8.143 2.393,8.140 2.594,8.140 Z m 8.742,0.773 c -0.42091,0.021258 -0.801512,0.2350005 -1.058166,0.5914686 -0.08003,0.111143 -0.187511,0.3367591 -0.223023,0.4683586 -0.1444899,0.5354609 -0.0042,1.0896789 0.372,1.474 0.095,0.097 0.237,0.207 0.339,0.262 0.079,0.042 0.244,0.103 0.341,0.125 0.120,0.028 0.395,0.036 0.514,0.016 0.573712,-0.09984 1.02095,-0.546159 1.153071,-1.145472 0.03033,-0.137613 0.03709,-0.40741 0.01425,-0.548645 C 12.66,9.402 12.05,8.877 11.33,8.914 Z M 2.598,8.919 C 2.345,8.918 2.162,8.964 1.951,9.080 1.804,9.160 1.696,9.242 1.581,9.369 1.391,9.576 1.276,9.804 1.215,10.09 c -0.025292,0.118584 -0.029822,0.400005 -0.00948,0.535266 0.052,0.347 0.238,0.689 0.495,0.907 0.197,0.167 0.423,0.275 0.659,0.315 0.116,0.020 0.362,0.020 0.4673959,0 C 3.661,11.69 4.171,10.82 3.939,9.973 3.819,9.532 3.479,9.155 3.061,8.999 2.901,8.940 2.782,8.919 2.598,8.919 Z" />
</svg>
