<?xml version="1.0" encoding="UTF-8" standalone="no"?>
<svg
   xmlns:dc="http://purl.org/dc/elements/1.1/"
   xmlns:cc="http://creativecommons.org/ns#"
   xmlns:rdf="http://www.w3.org/1999/02/22-rdf-syntax-ns#"
   xmlns:svg="http://www.w3.org/2000/svg"
   xmlns="http://www.w3.org/2000/svg"
   version="1.1"
   id="svg2"
   x="0px"
   y="0px"
   width="14"
   height="14"
   viewBox="0 0 14 14"
   enable-background="new 0 0 580 580"
   xml:space="preserve"><metadata
     id="metadata13"><rdf:RDF><cc:Work
         rdf:about=""><dc:format>image/svg+xml</dc:format><dc:type
           rdf:resource="http://purl.org/dc/dcmitype/StillImage" /><dc:title /></cc:Work></rdf:RDF></metadata><defs
     id="defs11" /><path
     id="path3389-5"
     style="fill:#ac39ac;fill-opacity:1;fill-rule:evenodd;stroke:#ffffff;stroke-opacity:1;stroke-width:0.6;stroke-miterlimit:4;stroke-dasharray:none;stroke-linejoin:round;stroke-linecap:round"
     d="m 10.52,6.059 c 0.881356,0 1.762,0.881 1.762,1.762 l 0,1.7627119 c 0.003,0.8342926 -0.881356,1.7627126 -1.762712,1.7627126 l -4.4067799,0 c -0.881356,0 -1.7627119,-0.881356 -1.7627119,-1.7627126 l 0,-1.7627119 c 0,-0.8813559 0.8813559,-1.7627119 1.7627119,-1.7627119 l 0.8813559,0 c -1.7627119,0.881356 -1.7627119,0.881356 -1.7627119,2.6440678 0,0.4918504 0.453,0.847 0.881,0.881 l 4.4067799,0 c 0.533583,0 0.881356,-0.3895056 0.881356,-0.881356 0,-1.7627118 0,-1.7627118 -1.7627122,-2.6482409 z M 7,3.4152538 l 0,1.7523835 -1.7627119,0.010328 0,0.8813559 1.7627119,0 0,1.7627119 0.8813559,0 0,-1.7627119 0.881356,0 0,1.7627119 0.8813559,0 0,-1.7627119 2.6440682,0 c 0,0.881356 0.881,0.881 0.881,0.881 l 0,-2.6440678 c 0,0 -0.881356,4.195e-4 -0.881356,0.8400423 l -2.6440682,0.015493 0,-1.7368909 -0.8813559,0 0,1.7420551 -0.881356,0.00516 0,-1.7472193 -0.8813559,0 z m -6.16949153,6.1694916 0,-7.9322034 c 2.64406783,0 2.644,3.525 4.406,3.525 l 0,0.8813559 c -1.7627118,0 -1.7627118,3.5254238 -4.40677963,3.5254238 z" /><path
     id="path3389"
     style="fill:#ac39ac;fill-opacity:1;fill-rule:evenodd;stroke:none;stroke-opacity:1"
     d="m 10.52,6.059 c 0.881356,0 1.762,0.881 1.762,1.762 l 0,1.7627119 c 0.003,0.8342922 -0.881356,1.7627122 -1.762712,1.7627122 l -4.4067799,0 c -0.881356,0 -1.7627119,-0.881356 -1.7627119,-1.7627122 l 0,-1.7627119 c 0,-0.8813559 0.8813559,-1.7627119 1.7627119,-1.7627119 L 7,6.059322 C 5.237,6.940 5.237,6.940 5.237,8.703 c 0,0.4918504 0.453,0.847 0.881,0.881 l 4.4067799,0 c 0.533583,0 0.881356,-0.3895056 0.881356,-0.881356 0,-1.7627118 0,-1.7627118 -1.7627122,-2.6482409 z M 7,3.4152542 l 0,1.7523835 -1.7627119,0.010328 0,0.8813559 1.7627119,0 0,1.7627119 0.8813559,0 0,-1.7627119 0.881356,0 0,1.7627119 0.8813559,0 0,-1.7627119 2.6440682,0 c 0,0.881356 0.881,0.881 0.881,0.881 l 0,-2.6440678 c 0,0 -0.881356,4.195e-4 -0.881356,0.8400423 l -2.6440682,0.015493 0,-1.7368909 -0.8813559,0 0,1.7420551 -0.881356,0.00516 0,-1.7472193 -0.8813559,0 z m -6.16949153,6.1694916 0,-7.9322034 c 2.64406783,0 2.644,3.525 4.406,3.525 l 0,0.8813559 c -1.7627118,0 -1.7627118,3.5254238 -4.40677963,3.5254238 z" /></svg>