<?xml version="1.0" encoding="UTF-8" standalone="no"?>
<svg
   xmlns:dc="http://purl.org/dc/elements/1.1/"
   xmlns:cc="http://creativecommons.org/ns#"
   xmlns:rdf="http://www.w3.org/1999/02/22-rdf-syntax-ns#"
   xmlns:svg="http://www.w3.org/2000/svg"
   xmlns="http://www.w3.org/2000/svg"
   xmlns:sodipodi="http://sodipodi.sourceforge.net/DTD/sodipodi-0.dtd"
   xmlns:inkscape="http://www.inkscape.org/namespaces/inkscape"
   xml:space="preserve"
   enable-background="new 0 0 580 580"
   viewBox="0 0 14 14"
   height="14"
   width="14"
   y="0px"
   x="0px"
   id="svg2"
   version="1.1"
   inkscape:version="0.91 r"
   sodipodi:docname="musical_instrument-14.svg"><sodipodi:namedview
   pagecolor="#dadada"
   bordercolor="#666666"
   borderopacity="1"
   objecttolerance="10"
   gridtolerance="10"
   guidetolerance="10"
   inkscape:pageopacity="0"
   inkscape:pageshadow="2"
   inkscape:window-width="706"
   inkscape:window-height="480"
   id="namedview6"
   showgrid="false"
   inkscape:zoom="16.857143"
   inkscape:cx="7.0000001"
   inkscape:cy="7.0000001"
   inkscape:window-x="0"
   inkscape:window-y="0"
   inkscape:window-maximized="0"
   inkscape:current-layer="svg2" /><metadata
   id="metadata13"><rdf:RDF><cc:Work
       rdf:about=""><dc:format>image/svg+xml</dc:format><dc:type
         rdf:resource="http://purl.org/dc/dcmitype/StillImage" /><dc:title /></cc:Work></rdf:RDF></metadata><defs
   id="defs11" />
<path
   inkscape:connector-curvature="0"
   d="m 10.525424,6.0593216 c 0.881356,0 1.762712,0.881356 1.762712,1.7627119 l 0,1.7627119 c 0.003,0.8342926 -0.881356,1.7627126 -1.762712,1.7627126 l -4.4067799,0 c -0.881356,0 -1.7627119,-0.881356 -1.7627119,-1.7627126 l 0,-1.7627119 c 0,-0.8813559 0.8813559,-1.7627119 1.7627119,-1.7627119 l 0.8813559,0 c -1.7627119,0.881356 -1.7627119,0.881356 -1.7627119,2.6440678 0,0.4918504 0.4538843,0.8474185 0.881356,0.881356 l 4.4067799,0 c 0.533583,0 0.881356,-0.3895056 0.881356,-0.881356 0,-1.7627118 0,-1.7627118 -1.7627122,-2.6482409 z M 7,3.4152538 l 0,1.7523835 -1.7627119,0.010328 0,0.8813559 1.7627119,0 0,1.7627119 0.8813559,0 0,-1.7627119 0.881356,0 0,1.7627119 0.8813559,0 0,-1.7627119 2.6440682,0 c 0,0.881356 0.881356,0.881356 0.881356,0.881356 l 0,-2.6440678 c 0,0 -0.881356,4.195e-4 -0.881356,0.8400423 l -2.6440682,0.015493 0,-1.7368909 -0.8813559,0 0,1.7420551 -0.881356,0.00516 0,-1.7472193 -0.8813559,0 z m -6.16949153,6.1694916 0,-7.9322034 c 2.64406783,0 2.64406783,3.5254237 4.40677963,3.5254237 l 0,0.8813559 c -1.7627118,0 -1.7627118,3.5254238 -4.40677963,3.5254238 z"
   style="fill:#ac39ac;fill-opacity:1;fill-rule:evenodd;stroke:#ffffff;stroke-opacity:1;stroke-width:0.6;stroke-miterlimit:4;stroke-dasharray:none;stroke-linejoin:round;stroke-linecap:round"
   id="path3389-5" /><path
   inkscape:connector-curvature="0"
   d="m 10.525424,6.059322 c 0.881356,0 1.762712,0.881356 1.762712,1.7627119 l 0,1.7627119 c 0.003,0.8342922 -0.881356,1.7627122 -1.762712,1.7627122 l -4.4067799,0 c -0.881356,0 -1.7627119,-0.881356 -1.7627119,-1.7627122 l 0,-1.7627119 c 0,-0.8813559 0.8813559,-1.7627119 1.7627119,-1.7627119 L 7,6.059322 C 5.2372881,6.940678 5.2372881,6.940678 5.2372881,8.7033898 c 0,0.4918504 0.4538843,0.8474185 0.881356,0.881356 l 4.4067799,0 c 0.533583,0 0.881356,-0.3895056 0.881356,-0.881356 0,-1.7627118 0,-1.7627118 -1.7627122,-2.6482409 z M 7,3.4152542 l 0,1.7523835 -1.7627119,0.010328 0,0.8813559 1.7627119,0 0,1.7627119 0.8813559,0 0,-1.7627119 0.881356,0 0,1.7627119 0.8813559,0 0,-1.7627119 2.6440682,0 c 0,0.881356 0.881356,0.881356 0.881356,0.881356 l 0,-2.6440678 c 0,0 -0.881356,4.195e-4 -0.881356,0.8400423 l -2.6440682,0.015493 0,-1.7368909 -0.8813559,0 0,1.7420551 -0.881356,0.00516 0,-1.7472193 -0.8813559,0 z m -6.16949153,6.1694916 0,-7.9322034 c 2.64406783,0 2.64406783,3.5254237 4.40677963,3.5254237 l 0,0.8813559 c -1.7627118,0 -1.7627118,3.5254238 -4.40677963,3.5254238 z"
   style="fill:#ac39ac;fill-opacity:1;fill-rule:evenodd;stroke:none;stroke-opacity:1"
   id="path3389" /></svg>