<?xml version="1.0" encoding="UTF-8" standalone="no"?>
<svg
   xmlns:dc="http://purl.org/dc/elements/1.1/"
   xmlns:cc="http://creativecommons.org/ns#"
   xmlns:rdf="http://www.w3.org/1999/02/22-rdf-syntax-ns#"
   xmlns:svg="http://www.w3.org/2000/svg"
   xmlns="http://www.w3.org/2000/svg"
   id="svg2"
   viewBox="0 0 16 16"
   height="100%"
   width="100%"
   version="1.1">
  <metadata
     id="metadata30">
    <rdf:RDF>
      <cc:Work
         rdf:about="">
        <dc:format>image/svg+xml</dc:format>
        <dc:type
           rdf:resource="http://purl.org/dc/dcmitype/StillImage" />
        <dc:title />
      </cc:Work>
    </rdf:RDF>
  </metadata>
  <defs
     id="defs28" />
  <path
     style="fill:#ac39ac;fill-opacity:1;fill-rule:evenodd;stroke:#ffffff;stroke-opacity:1;stroke-linejoin:round;stroke-linecap:round;stroke-width:0.6;stroke-miterlimit:4;stroke-dasharray:none"
     d="m 6.487,1.410 a 1.5,1.5 0 0 0 -1.5,1.5 1.5,1.5 0 0 0 1.5,1.5 1.5,1.5 0 0 0 1.5,-1.5 1.5,1.5 0 0 0 -1.5,-1.5 z m 4.499,0.984 -1.9999997,1 2.9999997,6 2,-1 -3,-6 z m -1.9999997,2 -2,1 0.294,1.470 -2.294922,1.529297 -3,-1 0,1 3,2 2.646484,-1.765625 0.353,1.765 2.9999997,-1 -1.9999997,-5 z m -7,5 0,5 1,0 0,-5 -1,0 z m 8.9999997,1 -2.9999997,1 -2,3 1.833984,0 1.53125,-2 0.634766,2 1.9999997,0 -1,-4 z"
     id="path4166-3" />
  <path
     style="fill:#ac39ac;fill-opacity:1;fill-rule:evenodd;stroke:none;stroke-opacity:1"
     d="m 6.487,1.410 a 1.5,1.5 0 0 0 -1.5,1.5 1.5,1.5 0 0 0 1.5,1.5 1.5,1.5 0 0 0 1.5,-1.5 1.5,1.5 0 0 0 -1.5,-1.5 z m 4.499,0.984 -1.9999997,1 2.9999997,6 2,-1 -3,-6 z m -1.9999997,2 -2,1 0.294,1.470 -2.294922,1.529297 -3,-1 0,1 3,2.0000001 2.646484,-1.7656251 0.353,1.765 2.9999997,-1.0000001 -1.9999997,-5 z m -7,5 0,5.0000001 1,0 0,-5.0000001 -1,0 z m 8.999,1.000 -2.9999997,1 -2,3 1.833984,0 1.53125,-2 0.634766,2 1.9999997,0 -1,-4 z"
     id="path4166" />
</svg>
