<?xml version="1.0" encoding="UTF-8" standalone="no"?>
<svg
   xmlns:dc="http://purl.org/dc/elements/1.1/"
   xmlns:cc="http://creativecommons.org/ns#"
   xmlns:rdf="http://www.w3.org/1999/02/22-rdf-syntax-ns#"
   xmlns:svg="http://www.w3.org/2000/svg"
   xmlns="http://www.w3.org/2000/svg"
   xmlns:sodipodi="http://sodipodi.sourceforge.net/DTD/sodipodi-0.dtd"
   xmlns:inkscape="http://www.inkscape.org/namespaces/inkscape"
   width="16"
   height="16"
   viewBox="-224 0 0 13"
   id="svg2"
   version="1.1"
   inkscape:version="0.91 r"
   sodipodi:docname="outdoor-14.svg"
   inkscape:export-filename="/home/tackat/marble/sources/data/bitmaps/osmcarto/symbols/48/shop/bag-14.png"
   inkscape:export-xdpi="270"
   inkscape:export-ydpi="270">
  <metadata
     id="metadata30">
    <rdf:RDF>
      <cc:Work
         rdf:about="">
        <dc:format>image/svg+xml</dc:format>
        <dc:type
           rdf:resource="http://purl.org/dc/dcmitype/StillImage" />
        <dc:title></dc:title>
      </cc:Work>
    </rdf:RDF>
  </metadata>
  <defs
     id="defs28" />
  <sodipodi:namedview
     pagecolor="#dadada"
     bordercolor="#666666"
     borderopacity="1"
     objecttolerance="10"
     gridtolerance="10"
     guidetolerance="10"
     inkscape:pageopacity="0"
     inkscape:pageshadow="2"
     inkscape:window-width="1600"
     inkscape:window-height="845"
     id="namedview26"
     showgrid="false"
     inkscape:zoom="18.153846"
     inkscape:cx="-10.827508"
     inkscape:cy="7.3262711"
     inkscape:window-x="-2"
     inkscape:window-y="-3"
     inkscape:window-maximized="1"
     inkscape:current-layer="svg2" />
  <path
     inkscape:connector-curvature="0"
     id="path4166-3"
     d="m 6.4872883,1.410355 a 1.5,1.5 0 0 0 -1.5,1.5 1.5,1.5 0 0 0 1.5,1.5 1.5,1.5 0 0 0 1.5,-1.5 1.5,1.5 0 0 0 -1.5,-1.5 z m 4.4999997,0.984375 -1.9999997,1 2.9999997,6 2,-1 -3,-6 z m -1.9999997,2 -2,1 0.294922,1.470703 -2.294922,1.529297 -3,-1 0,1 3,2 2.646484,-1.765625 0.353516,1.765625 2.9999997,-1 -1.9999997,-5 z m -7,5 0,5 1,0 0,-5 -1,0 z m 8.9999997,1 -2.9999997,1 -2,3 1.833984,0 1.53125,-2 0.634766,2 1.9999997,0 -1,-4 z"
     style="fill:#ac39ac;fill-opacity:1;fill-rule:evenodd;stroke:#ffffff;stroke-opacity:1;stroke-linejoin:round;stroke-linecap:round;stroke-width:0.6;stroke-miterlimit:4;stroke-dasharray:none"
     inkscape:export-filename="/home/tackat/marble/sources/data/bitmaps/osmcarto/symbols/48/shop/outdoor-14.png"
     inkscape:export-xdpi="270"
     inkscape:export-ydpi="270" />
  <path
     inkscape:connector-curvature="0"
     id="path4166"
     d="m 6.4872883,1.4103549 a 1.5,1.5 0 0 0 -1.5,1.5 1.5,1.5 0 0 0 1.5,1.5 1.5,1.5 0 0 0 1.5,-1.5 1.5,1.5 0 0 0 -1.5,-1.5 z m 4.4999997,0.984375 -1.9999997,1 2.9999997,6 2,-1 -3,-6 z m -1.9999997,2 -2,1 0.294922,1.470703 -2.294922,1.529297 -3,-1 0,1 3,2.0000001 2.646484,-1.7656251 0.353516,1.7656251 2.9999997,-1.0000001 -1.9999997,-5 z m -7,5 0,5.0000001 1,0 0,-5.0000001 -1,0 z m 8.9999997,1.0000001 -2.9999997,1 -2,3 1.833984,0 1.53125,-2 0.634766,2 1.9999997,0 -1,-4 z"
     style="fill:#ac39ac;fill-opacity:1;fill-rule:evenodd;stroke:none;stroke-opacity:1" />
</svg>
