<?xml version="1.0" encoding="UTF-8" standalone="no"?>
<svg
   xmlns:dc="http://purl.org/dc/elements/1.1/"
   xmlns:cc="http://creativecommons.org/ns#"
   xmlns:rdf="http://www.w3.org/1999/02/22-rdf-syntax-ns#"
   xmlns:svg="http://www.w3.org/2000/svg"
   xmlns="http://www.w3.org/2000/svg"
   version="1.1"
   width="100%"
   height="100%"
   viewBox="0 0 14 14"
   id="svg2">
  <defs
     id="defs3053" />
  <metadata
     id="metadata8">
    <rdf:RDF>
      <cc:Work
         rdf:about="">
        <dc:format>image/svg+xml</dc:format>
        <dc:type
           rdf:resource="http://purl.org/dc/dcmitype/StillImage" />
        <dc:title />
      </cc:Work>
    </rdf:RDF>
  </metadata>
  <path
     d="m 13.16,3.033 c 0,1.0228471 -0.986492,1.8520286 -2.20339,1.8520286 -1.216899,0 -2.2033901,-0.8291815 -2.2033901,-1.8520286 0,-1.0228471 0.9864911,-1.8520285 2.2033901,-1.8520285 1.216898,0 2.203,0.829 2.203,1.852 z m -5.2881361,-0.440678 1.7627119,0 0,0.881356 -1.7627119,0 z M 3.474,0.830 l 0.8813559,0 0,0.8813559 -0.8813559,0 z m -1.7627119,5e-8 0.8813559,0 0,0.88135585 -0.8813559,0 z m 0,3.52542365 0.8813559,0 0,0.8813559 -0.8813559,0 z m 1.7627119,0 0.8813559,0 0,0.8813559 -0.8813559,0 z m 0.8813559,-1.7627119 0.8813559,0 0,0.881356 -0.8813559,0 z m -1.7627119,0 0.881356,0 0,0.881356 -0.881356,0 z m -1.76271183,0 0.88135593,0 0,0.881356 -0.88135593,0 z m 5.288,3.016 1.7627118,-0.020668 0,-2.9954292 c 0,-0.8813559 0,-0.8813559 -0.8813559,-0.8813559 -0.8517421,0.014807 -0.8813559,0 -0.8813559,0.8813559 z M 5.237,6.118 C 3.474,6.118 2.125,8.7627114 2.125,10.525424 c 0,0.881356 2.230,2.644 3.112,2.644 l 3.5254238,0 c 0.8813559,0 3.0090051,-1.762712 3.0090041,-2.644068 0,-1.7627126 -1.246292,-4.4067804 -3.0090041,-4.4067804 z"
     style="fill:#ac39ac;fill-opacity:1;stroke:#ffffff;stroke-width:0.6;stroke-miterlimit:4;stroke-dasharray:none;stroke-linejoin:round;stroke-linecap:round"
     id="perfumery-7" />
  <path
     d="m 13.16,3.033 c 0,1.0228471 -0.986492,1.8520286 -2.20339,1.8520286 -1.216899,0 -2.2033901,-0.8291815 -2.2033901,-1.8520286 0,-1.0228471 0.9864911,-1.8520285 2.2033901,-1.8520285 1.216898,0 2.203,0.829 2.203,1.852 z m -5.2881361,-0.440678 1.7627119,0 0,0.881356 -1.7627119,0 z m -4.4067796,-1.76271183 0.8813559,0 0,0.88135593 -0.8813559,0 z m -1.7627119,5e-8 0.8813559,0 0,0.88135588 -0.8813559,0 z m 0,3.52542368 0.8813559,0 0,0.8813559 -0.8813559,0 z m 1.7627119,0 0.8813559,0 0,0.8813559 -0.8813559,0 z m 0.8813559,-1.7627119 0.8813559,0 0,0.881356 -0.8813559,0 z m -1.7627119,0 0.881356,0 0,0.881356 -0.881356,0 z m -1.76271183,0 0.88135593,0 0,0.881356 -0.88135593,0 z m 5.288,3.016 1.7627118,-0.020668 0,-2.9954292 c 0,-0.8813559 0,-0.8813559 -0.8813559,-0.8813559 -0.8517421,0.014807 -0.8813559,0 -0.8813559,0.8813559 z M 5.237,6.118 C 3.474,6.118 2.125,8.7627119 2.125,10.525424 c 0,0.881356 2.230,2.644 3.112,2.644 l 3.5254238,0 c 0.8813559,0 3.0090051,-1.762712 3.0090041,-2.644068 0,-1.7627121 -1.246292,-4.4067799 -3.0090041,-4.4067799 z"
     style="fill:#ac39ac;fill-opacity:1;stroke:none"
     id="perfumery" />
</svg>
