<?xml version="1.0" encoding="UTF-8" standalone="no"?>
<svg
   xmlns:dc="http://purl.org/dc/elements/1.1/"
   xmlns:cc="http://creativecommons.org/ns#"
   xmlns:rdf="http://www.w3.org/1999/02/22-rdf-syntax-ns#"
   xmlns:svg="http://www.w3.org/2000/svg"
   xmlns="http://www.w3.org/2000/svg"
   xmlns:sodipodi="http://sodipodi.sourceforge.net/DTD/sodipodi-0.dtd"
   xmlns:inkscape="http://www.inkscape.org/namespaces/inkscape"
   id="svg2"
   viewBox="0 0 14 14"
   height="100%"
   width="100%"
   version="1.1"
   inkscape:version="0.91 r"
   sodipodi:docname="perfumery-14.svg">
  <sodipodi:namedview
     pagecolor="#dadada"
     bordercolor="#666666"
     borderopacity="1"
     objecttolerance="10"
     gridtolerance="10"
     guidetolerance="10"
     inkscape:pageopacity="0"
     inkscape:pageshadow="2"
     inkscape:window-width="706"
     inkscape:window-height="480"
     id="namedview6"
     showgrid="false"
     inkscape:zoom="16.857143"
     inkscape:cx="7.0000001"
     inkscape:cy="7.0000001"
     inkscape:window-x="0"
     inkscape:window-y="0"
     inkscape:window-maximized="0"
     inkscape:current-layer="svg2" />
  <defs
     id="defs3053" />
  <metadata
     id="metadata8">
    <rdf:RDF>
      <cc:Work
         rdf:about="">
        <dc:format>image/svg+xml</dc:format>
        <dc:type
           rdf:resource="http://purl.org/dc/dcmitype/StillImage" />
        <dc:title />
      </cc:Work>
    </rdf:RDF>
  </metadata>
  <path
     inkscape:connector-curvature="0"
     id="perfumery-7"
     style="fill:#ac39ac;fill-opacity:1;stroke:#ffffff;stroke-width:0.6;stroke-miterlimit:4;stroke-dasharray:none;stroke-linejoin:round;stroke-linecap:round"
     d="m 13.169492,3.0338978 c 0,1.0228471 -0.986492,1.8520286 -2.20339,1.8520286 -1.216899,0 -2.2033901,-0.8291815 -2.2033901,-1.8520286 0,-1.0228471 0.9864911,-1.8520285 2.2033901,-1.8520285 1.216898,0 2.20339,0.8291814 2.20339,1.8520285 z m -5.2881361,-0.440678 1.7627119,0 0,0.881356 -1.7627119,0 z M 3.4745763,0.830508 l 0.8813559,0 0,0.8813559 -0.8813559,0 z m -1.7627119,5e-8 0.8813559,0 0,0.88135585 -0.8813559,0 z m 0,3.52542365 0.8813559,0 0,0.8813559 -0.8813559,0 z m 1.7627119,0 0.8813559,0 0,0.8813559 -0.8813559,0 z m 0.8813559,-1.7627119 0.8813559,0 0,0.881356 -0.8813559,0 z m -1.7627119,0 0.881356,0 0,0.881356 -0.881356,0 z m -1.76271183,0 0.88135593,0 0,0.881356 -0.88135593,0 z m 5.28813563,3.0160975 1.7627118,-0.020668 0,-2.9954292 c 0,-0.8813559 0,-0.8813559 -0.8813559,-0.8813559 -0.8517421,0.014807 -0.8813559,0 -0.8813559,0.8813559 z M 5.2372881,6.1186436 C 3.4745763,6.1186436 2.125,8.7627114 2.125,10.525424 c 0,0.881356 2.2309322,2.644068 3.1122881,2.644068 l 3.5254238,0 c 0.8813559,0 3.0090051,-1.762712 3.0090041,-2.644068 0,-1.7627126 -1.246292,-4.4067804 -3.0090041,-4.4067804 z" />
  <path
     inkscape:connector-curvature="0"
     id="perfumery"
     style="fill:#ac39ac;fill-opacity:1;stroke:none"
     d="m 13.169492,3.0338983 c 0,1.0228471 -0.986492,1.8520286 -2.20339,1.8520286 -1.216899,0 -2.2033901,-0.8291815 -2.2033901,-1.8520286 0,-1.0228471 0.9864911,-1.8520285 2.2033901,-1.8520285 1.216898,0 2.20339,0.8291814 2.20339,1.8520285 z m -5.2881361,-0.440678 1.7627119,0 0,0.881356 -1.7627119,0 z m -4.4067796,-1.76271183 0.8813559,0 0,0.88135593 -0.8813559,0 z m -1.7627119,5e-8 0.8813559,0 0,0.88135588 -0.8813559,0 z m 0,3.52542368 0.8813559,0 0,0.8813559 -0.8813559,0 z m 1.7627119,0 0.8813559,0 0,0.8813559 -0.8813559,0 z m 0.8813559,-1.7627119 0.8813559,0 0,0.881356 -0.8813559,0 z m -1.7627119,0 0.881356,0 0,0.881356 -0.881356,0 z m -1.76271183,0 0.88135593,0 0,0.881356 -0.88135593,0 z m 5.28813563,3.0160975 1.7627118,-0.020668 0,-2.9954292 c 0,-0.8813559 0,-0.8813559 -0.8813559,-0.8813559 -0.8517421,0.014807 -0.8813559,0 -0.8813559,0.8813559 z M 5.2372881,6.1186441 C 3.4745763,6.1186441 2.125,8.7627119 2.125,10.525424 c 0,0.881356 2.2309322,2.644068 3.1122881,2.644068 l 3.5254238,0 c 0.8813559,0 3.0090051,-1.762712 3.0090041,-2.644068 0,-1.7627121 -1.246292,-4.4067799 -3.0090041,-4.4067799 z" />
</svg>
