<?xml version="1.0" encoding="UTF-8" standalone="no"?>
<svg
   xmlns:dc="http://purl.org/dc/elements/1.1/"
   xmlns:cc="http://creativecommons.org/ns#"
   xmlns:rdf="http://www.w3.org/1999/02/22-rdf-syntax-ns#"
   xmlns:svg="http://www.w3.org/2000/svg"
   xmlns="http://www.w3.org/2000/svg"
   version="1.1"
   width="100%"
   height="100%"
   viewBox="0 0 14 14"
   id="svg2">
  <defs
     id="defs3053" />
  <metadata
     id="metadata8">
    <rdf:RDF>
      <cc:Work
         rdf:about="">
        <dc:format>image/svg+xml</dc:format>
        <dc:type
           rdf:resource="http://purl.org/dc/dcmitype/StillImage" />
        <dc:title />
      </cc:Work>
    </rdf:RDF>
  </metadata>
  <path
     id="photo-1"
     style="fill:#ac39ac;fill-opacity:1;stroke:#ffffff;stroke-width:0.6;stroke-miterlimit:4;stroke-dasharray:none;stroke-linejoin:round;stroke-linecap:round"
     d="M 2.549,4.367 C 0.890,4.382 0.890,4.554 0.891,6.120 L 0.904,11.39 C 0.890,13.11 0.890,13.11 2.576,13.14 l 8.8381787,-0.03174 c 1.700,0.001 1.700,0.001 1.744399,-1.761529 l -0.0011,-5.2253062 C 13.11,4.382 13.11,4.382 11.41,4.375 Z m 5.326,0.901 c 1.9289782,10e-8 3.492,1.563 3.492,3.492 0,1.9289796 -1.5637464,3.4927246 -3.4927246,3.4927246 -1.9289782,0 -3.4927239,-1.563745 -3.4927239,-3.4927246 0,-1.9289781 1.5637457,-3.492724 3.4927239,-3.492724 z m -5.2533835,-2.6495265 0.9017763,-1e-7 c 0.858,0.016 0.858,0.889 0.886,1.316 L 1.808,3.965 C 1.764,3.509 1.764,2.636 2.623,2.620 Z m 7.441,6.161 c 0,1.2056115 -0.9773411,2.1829523 -2.1829526,2.1829523 -1.2056115,0 -2.1829526,-0.9773399 -2.1829525,-2.1829523 0,-1.2056113 0.9773412,-2.1829523 2.1829525,-2.1829523 1.2056113,10e-8 2.182,0.977 2.182,2.182 z M 8.750,1.747 8.735,4.021 13.12,4.008 13.14,1.647 C 13.11,0.890 13.11,0.890 12.25,0.891 l -2.5854474,0.010729 C 8.749,0.890 8.749,0.890 8.750,1.747 Z m 0.963,0.042 2.5440189,-0.014951 0.029,1.734 -2.545328,0.013902 z" />
  <path
     id="photo"
     style="fill:#ac39ac;fill-opacity:1;stroke:none"
     d="M 2.549,4.367 C 0.890,4.382 0.890,4.554 0.891,6.120 l 0.012,5.276 c -0.0136435,1.717687 -0.0136435,1.717687 1.672,1.748 l 8.8381787,-0.03174 c 1.700,0.001 1.700,0.001 1.744399,-1.761529 l -0.0011,-5.2253067 C 13.11,4.382 13.11,4.382 11.41,4.375 Z m 5.326,0.901 c 1.9289782,1e-7 3.492,1.563 3.492,3.492 0,1.9289791 -1.5637464,3.4927251 -3.4927246,3.4927251 -1.9289782,0 -3.4927239,-1.563746 -3.4927239,-3.4927251 0,-1.9289781 1.5637457,-3.492724 3.4927239,-3.492724 z m -5.2533835,-2.6495265 0.9017763,-10e-8 c 0.858,0.016 0.858,0.889 0.886,1.316 L 1.808,3.965 C 1.764,3.509 1.764,2.636 2.623,2.620 Z m 7.441,6.161 c 0,1.2056115 -0.9773411,2.1829528 -2.1829526,2.1829528 -1.2056115,0 -2.1829526,-0.9773404 -2.1829525,-2.1829528 0,-1.2056113 0.9773412,-2.1829523 2.1829525,-2.1829523 1.2056113,1e-7 2.182,0.977 2.182,2.182 z M 8.750,1.747 8.735,4.021 13.12,4.008 13.14,1.647 C 13.11,0.890 13.11,0.890 12.25,0.891 l -2.5854474,0.010729 C 8.749,0.890 8.749,0.890 8.750,1.747 Z m 0.963,0.042 2.5440189,-0.014951 0.029,1.734 -2.545328,0.013902 z" />
</svg>
