<?xml version="1.0" encoding="UTF-8" standalone="no"?>
<svg
   xmlns:dc="http://purl.org/dc/elements/1.1/"
   xmlns:cc="http://creativecommons.org/ns#"
   xmlns:rdf="http://www.w3.org/1999/02/22-rdf-syntax-ns#"
   xmlns:svg="http://www.w3.org/2000/svg"
   xmlns="http://www.w3.org/2000/svg"
   xmlns:sodipodi="http://sodipodi.sourceforge.net/DTD/sodipodi-0.dtd"
   xmlns:inkscape="http://www.inkscape.org/namespaces/inkscape"
   id="svg2"
   viewBox="0 0 14 14"
   height="100%"
   width="100%"
   version="1.1"
   inkscape:version="0.91 r"
   sodipodi:docname="photo-14.svg">
  <sodipodi:namedview
     pagecolor="#dadada"
     bordercolor="#666666"
     borderopacity="1"
     objecttolerance="10"
     gridtolerance="10"
     guidetolerance="10"
     inkscape:pageopacity="0"
     inkscape:pageshadow="2"
     inkscape:window-width="706"
     inkscape:window-height="412"
     id="namedview6"
     showgrid="false"
     inkscape:zoom="16.857143"
     inkscape:cx="7.0000001"
     inkscape:cy="7.0000001"
     inkscape:window-x="0"
     inkscape:window-y="0"
     inkscape:window-maximized="0"
     inkscape:current-layer="svg2" />
  <defs
     id="defs3053" />
  <metadata
     id="metadata8">
    <rdf:RDF>
      <cc:Work
         rdf:about="">
        <dc:format>image/svg+xml</dc:format>
        <dc:type
           rdf:resource="http://purl.org/dc/dcmitype/StillImage" />
        <dc:title />
      </cc:Work>
    </rdf:RDF>
  </metadata>
  <path
     inkscape:connector-curvature="0"
     d="M 2.5495168,4.3678281 C 0.89098361,4.3827801 0.89098361,4.5543524 0.891751,6.1202825 L 0.9046271,11.396903 C 0.8909836,13.11459 0.8909836,13.11459 2.5769643,13.145024 l 8.8381787,-0.03174 c 1.700374,0.0013 1.700374,0.0013 1.744399,-1.761529 l -0.0011,-5.2253062 C 13.115517,4.3827801 13.115517,4.3827801 11.414585,4.375714 Z m 5.3269146,0.9017763 c 1.9289782,10e-8 3.4927246,1.5637459 3.4927246,3.492724 0,1.9289796 -1.5637464,3.4927246 -3.4927246,3.4927246 -1.9289782,0 -3.4927239,-1.563745 -3.4927239,-3.4927246 0,-1.9289781 1.5637457,-3.492724 3.4927239,-3.492724 z m -5.2533835,-2.6495265 0.9017763,-1e-7 c 0.8588833,0.01634 0.8588833,0.8895213 0.8864574,1.31641 L 1.8080789,3.9650834 C 1.7641646,3.5095991 1.7641646,2.6364181 2.6230479,2.6200779 Z m 7.4419531,6.1617978 c 0,1.2056115 -0.9773411,2.1829523 -2.1829526,2.1829523 -1.2056115,0 -2.1829526,-0.9773399 -2.1829525,-2.1829523 0,-1.2056113 0.9773412,-2.1829523 2.1829525,-2.1829523 1.2056113,10e-8 2.1829526,0.9773411 2.1829526,2.1829523 z M 8.7506337,1.7479182 8.7356822,4.0219566 13.129161,4.0080556 13.144111,1.6478343 C 13.115518,0.89005617 13.115518,0.89005617 12.257662,0.89175974 l -2.5854474,0.010729 C 8.7496124,0.89005617 8.7496124,0.89005617 8.7506337,1.7479182 Z m 0.9630324,0.042209 2.5440189,-0.014951 0.02925,1.7340568 -2.545328,0.013902 z"
     style="fill:#ac39ac;fill-opacity:1;stroke:#ffffff;stroke-width:0.6;stroke-miterlimit:4;stroke-dasharray:none;stroke-linejoin:round;stroke-linecap:round"
     id="photo-1" />
  <path
     inkscape:connector-curvature="0"
     d="M 2.5495168,4.3678276 C 0.89098361,4.3827796 0.89098361,4.5543519 0.891751,6.120282 l 0.0128761,5.276621 c -0.0136435,1.717687 -0.0136435,1.717687 1.67233719,1.748121 l 8.8381787,-0.03174 c 1.700374,0.0013 1.700374,0.0013 1.744399,-1.761529 l -0.0011,-5.2253067 C 13.115517,4.3827796 13.115517,4.3827796 11.414585,4.3757135 Z m 5.3269146,0.9017763 c 1.9289782,1e-7 3.4927246,1.5637459 3.4927246,3.492724 0,1.9289791 -1.5637464,3.4927251 -3.4927246,3.4927251 -1.9289782,0 -3.4927239,-1.563746 -3.4927239,-3.4927251 0,-1.9289781 1.5637457,-3.492724 3.4927239,-3.492724 z m -5.2533835,-2.6495265 0.9017763,-10e-8 c 0.8588833,0.01634 0.8588833,0.8895213 0.8864574,1.31641 L 1.8080789,3.9650829 C 1.7641646,3.5095986 1.7641646,2.6364176 2.6230479,2.6200774 Z m 7.4419531,6.1617978 c 0,1.2056115 -0.9773411,2.1829528 -2.1829526,2.1829528 -1.2056115,0 -2.1829526,-0.9773404 -2.1829525,-2.1829528 0,-1.2056113 0.9773412,-2.1829523 2.1829525,-2.1829523 1.2056113,1e-7 2.1829526,0.9773411 2.1829526,2.1829523 z M 8.7506337,1.7479177 8.7356822,4.0219561 13.129161,4.0080551 13.144111,1.6478338 C 13.115518,0.89005569 13.115518,0.89005569 12.257662,0.89175926 l -2.5854474,0.010729 C 8.7496124,0.89005569 8.7496124,0.89005569 8.7506337,1.7479177 Z m 0.9630324,0.042209 2.5440189,-0.014951 0.02925,1.7340568 -2.545328,0.013902 z"
     style="fill:#ac39ac;fill-opacity:1;stroke:none"
     id="photo" />
</svg>
