<?xml version="1.0" encoding="UTF-8" standalone="no"?>
<svg
   xmlns:dc="http://purl.org/dc/elements/1.1/"
   xmlns:cc="http://creativecommons.org/ns#"
   xmlns:rdf="http://www.w3.org/1999/02/22-rdf-syntax-ns#"
   xmlns:svg="http://www.w3.org/2000/svg"
   xmlns="http://www.w3.org/2000/svg"
   version="1.1"
   id="svg2"
   x="0px"
   y="0px"
   width="14"
   height="14"
   viewBox="0 0 14 14"
   enable-background="new 0 0 580 580"
   xml:space="preserve"><metadata
     id="metadata13"><rdf:RDF><cc:Work
         rdf:about=""><dc:format>image/svg+xml</dc:format><dc:type
           rdf:resource="http://purl.org/dc/dcmitype/StillImage" /><dc:title /></cc:Work></rdf:RDF></metadata><defs
     id="defs11" /><path
     id="path4139-8"
     style="fill:#ac39ac;fill-opacity:1;fill-rule:evenodd;stroke:#ffffff;stroke-width:0.6;stroke-linecap:round;stroke-linejoin:round;stroke-opacity:1;stroke-miterlimit:4;stroke-dasharray:none"
     d="m 6.103,3.415 c -2.6885594,0 -5.37711868,1.7923729 -5.37711868,3.5847458 0,1.7923729 2.688,3.584 5.377,3.584 2.0104232,-0.02044 4.4809324,-1.7923733 4.4809324,-3.5847462 0,-1.7923729 -2.6885596,-3.5847458 -4.4809324,-3.5847458 z m 4.480,3.584 c 0,1.7923729 1.464,2.934 2.688,3.584 0,-1.7923733 -0.597458,-2.389831 -0.896186,-3.5847462 0.298728,-1.1949152 0.896186,-1.7923729 0.896186,-3.5847458 -1.100973,0.5958324 -2.688559,1.7923729 -2.688559,3.5847458 z M 3.399,5.207 A 0.896,0.896 0 0 1 4.311,6.082 l 0,0.021004 A 0.896,0.896 0 0 1 3.420,6.999 0.896,0.896 0 0 1 2.519,6.114 0.896,0.896 0 0 1 3.399,5.207 Z" /><path
     id="path4139"
     style="fill:#ac39ac;fill-opacity:1;fill-rule:evenodd;stroke:none;stroke-width:1px;stroke-linecap:butt;stroke-linejoin:miter;stroke-opacity:1"
     d="M 6.103,3.415 C 3.415,3.415 0.726,5.207 0.72669492,7 c 0,1.7923729 2.688,3.584 5.377,3.584 C 8.114,10.56 10.58,8.792 10.584746,7 c 0,-1.7923729 -2.6885596,-3.5847458 -4.4809324,-3.5847458 z M 10.584746,7 c 0,1.7923729 1.464,2.934 2.688,3.584 C 13.27,8.792 12.67,8.194 12.377119,7 12.67,5.805 13.27,5.207 13.27,3.415 12.17,4.011 10.58,5.207 10.584746,7 Z M 3.399,5.207 a 0.896,0.896 0 0 1 0.911,0.875 l 0,0.021004 A 0.896,0.896 0 0 1 3.4205054,7 0.896,0.896 0 0 1 2.519,6.114 0.896,0.896 0 0 1 3.399,5.207 Z" /></svg>