<?xml version="1.0" encoding="UTF-8" standalone="no"?>
<svg
   xmlns:dc="http://purl.org/dc/elements/1.1/"
   xmlns:cc="http://creativecommons.org/ns#"
   xmlns:rdf="http://www.w3.org/1999/02/22-rdf-syntax-ns#"
   xmlns:svg="http://www.w3.org/2000/svg"
   xmlns="http://www.w3.org/2000/svg"
   xmlns:sodipodi="http://sodipodi.sourceforge.net/DTD/sodipodi-0.dtd"
   xmlns:inkscape="http://www.inkscape.org/namespaces/inkscape"
   xml:space="preserve"
   enable-background="new 0 0 580 580"
   viewBox="0 0 14 14"
   height="14"
   width="14"
   y="0px"
   x="0px"
   id="svg2"
   version="1.1"
   inkscape:version="0.91 r"
   sodipodi:docname="seafood-14.svg"><sodipodi:namedview
   pagecolor="#dadada"
   bordercolor="#666666"
   borderopacity="1"
   objecttolerance="10"
   gridtolerance="10"
   guidetolerance="10"
   inkscape:pageopacity="0"
   inkscape:pageshadow="2"
   inkscape:window-width="706"
   inkscape:window-height="480"
   id="namedview6"
   showgrid="false"
   inkscape:zoom="16.857143"
   inkscape:cx="7.0000001"
   inkscape:cy="7.0000001"
   inkscape:window-x="0"
   inkscape:window-y="0"
   inkscape:window-maximized="0"
   inkscape:current-layer="svg2" /><metadata
   id="metadata13"><rdf:RDF><cc:Work
       rdf:about=""><dc:format>image/svg+xml</dc:format><dc:type
         rdf:resource="http://purl.org/dc/dcmitype/StillImage" /><dc:title /></cc:Work></rdf:RDF></metadata><defs
   id="defs11" />
    <path
   inkscape:connector-curvature="0"
   d="m 6.1038136,3.415254 c -2.6885594,0 -5.37711868,1.7923729 -5.37711868,3.5847458 0,1.7923729 2.68855928,3.5847462 5.37711868,3.5847462 2.0104232,-0.02044 4.4809324,-1.7923733 4.4809324,-3.5847462 0,-1.7923729 -2.6885596,-3.5847458 -4.4809324,-3.5847458 z m 4.4809324,3.5847458 c 0,1.7923729 1.464713,2.9343035 2.688559,3.5847462 0,-1.7923733 -0.597458,-2.389831 -0.896186,-3.5847462 0.298728,-1.1949152 0.896186,-1.7923729 0.896186,-3.5847458 -1.100973,0.5958324 -2.688559,1.7923729 -2.688559,3.5847458 z M 3.399501,5.2076269 A 0.89618644,0.89618644 0 0 1 4.3114407,6.082809 l 0,0.021004 A 0.89618644,0.89618644 0 0 1 3.4205054,6.9999998 0.89618644,0.89618644 0 0 1 2.5190678,6.1143156 0.89618644,0.89618644 0 0 1 3.399501,5.2076269 Z"
   style="fill:#ac39ac;fill-opacity:1;fill-rule:evenodd;stroke:#ffffff;stroke-width:0.6;stroke-linecap:round;stroke-linejoin:round;stroke-opacity:1;stroke-miterlimit:4;stroke-dasharray:none"
   id="path4139-8" /><path
   inkscape:connector-curvature="0"
   d="M 6.1038136,3.4152542 C 3.4152542,3.4152542 0.72669492,5.2076271 0.72669492,7 c 0,1.7923729 2.68855928,3.584746 5.37711868,3.584746 C 8.1142368,10.564303 10.584746,8.7923729 10.584746,7 c 0,-1.7923729 -2.6885596,-3.5847458 -4.4809324,-3.5847458 z M 10.584746,7 c 0,1.7923729 1.464713,2.9343035 2.688559,3.584746 C 13.273305,8.7923729 12.675847,8.1949152 12.377119,7 12.675847,5.8050848 13.273305,5.2076271 13.273305,3.4152542 12.172332,4.0110866 10.584746,5.2076271 10.584746,7 Z M 3.399501,5.2076271 a 0.89618644,0.89618644 0 0 1 0.9119397,0.8751821 l 0,0.021004 A 0.89618644,0.89618644 0 0 1 3.4205054,7 0.89618644,0.89618644 0 0 1 2.5190678,6.1143158 0.89618644,0.89618644 0 0 1 3.399501,5.2076271 Z"
   style="fill:#ac39ac;fill-opacity:1;fill-rule:evenodd;stroke:none;stroke-width:1px;stroke-linecap:butt;stroke-linejoin:miter;stroke-opacity:1"
   id="path4139" /></svg>