<?xml version="1.0" encoding="UTF-8" standalone="no"?>
<svg
   xmlns:dc="http://purl.org/dc/elements/1.1/"
   xmlns:cc="http://creativecommons.org/ns#"
   xmlns:rdf="http://www.w3.org/1999/02/22-rdf-syntax-ns#"
   xmlns:svg="http://www.w3.org/2000/svg"
   xmlns="http://www.w3.org/2000/svg"
   id="svg2"
   viewBox="0 0 16 16"
   height="100%"
   width="100%"
   version="1.1">
  <metadata
     id="metadata8">
    <rdf:RDF>
      <cc:Work
         rdf:about="">
        <dc:format>image/svg+xml</dc:format>
        <dc:type
           rdf:resource="http://purl.org/dc/dcmitype/StillImage" />
        <dc:title />
      </cc:Work>
    </rdf:RDF>
  </metadata>
  <defs
     id="defs6" />
  <rect
     style="visibility:hidden;fill:none;stroke:none"
     id="canvas"
     y="0"
     x="0"
     height="16"
     width="16" />
  <path
     style="fill:#ac39ac;fill-opacity:1;stroke:#ffffff;stroke-width:0.6;stroke-miterlimit:4;stroke-dasharray:none;stroke-linejoin:round;stroke-linecap:round"
     id="optician-0"
     d="M 6,4 1,7 c 0,2 0.25,5 1.25,5 L 6,12 C 7,12 7.25,8.5 7.25,8.5 7.76702,8.25 8.23298,8.25 8.75,8.5 8.75,8.5 9,12 10,12 l 3.75,0 C 14.75,12 15,9 15,7 L 10,4 C 9.521,3.723 9.127,4.746 10,5.25 L 13,7 3,7 6,5.25 C 6.922,4.717 6.364,3.789 6,4 Z m -3.75,4.25 3.75,0 -0.5,2.5 -2.75,0 z m 7.75,0 3.75,0 -0.5,2.5 -2.75,0 z" />
  <path
     style="fill:#ac39ac;fill-opacity:1;stroke:none"
     id="optician"
     d="M 6,4 1,7 c 0,2 0.25,5 1.25,5 L 6,12 C 7,12 7.25,8.5 7.25,8.5 7.76702,8.25 8.23298,8.25 8.75,8.5 8.75,8.5 9,12 10,12 l 3.75,0 C 14.75,12 15,9 15,7 L 10,4 C 9.521,3.723 9.127,4.746 10,5.25 L 13,7 3,7 6,5.25 C 6.922,4.717 6.364,3.789 6,4 Z m -3.75,4.25 3.75,0 -0.5,2.5 -2.75,0 z m 7.75,0 3.75,0 -0.5,2.5 -2.75,0 z" />
</svg>
