<?xml version="1.0" encoding="UTF-8" standalone="no"?>
<!-- Created with Inkscape (http://www.inkscape.org/) -->

<svg
   xmlns:dc="http://purl.org/dc/elements/1.1/"
   xmlns:cc="http://creativecommons.org/ns#"
   xmlns:rdf="http://www.w3.org/1999/02/22-rdf-syntax-ns#"
   xmlns:svg="http://www.w3.org/2000/svg"
   xmlns="http://www.w3.org/2000/svg"
   xmlns:sodipodi="http://sodipodi.sourceforge.net/DTD/sodipodi-0.dtd"
   xmlns:inkscape="http://www.inkscape.org/namespaces/inkscape"
   version="1.1"
   width="100%"
   height="100%"
   viewBox="0 0 16 16"
   id="svg2"
   inkscape:version="0.91 r"
   sodipodi:docname="shop_pet.16.svg">
  <sodipodi:namedview
     pagecolor="#dadada"
     bordercolor="#666666"
     borderopacity="1"
     objecttolerance="10"
     gridtolerance="10"
     guidetolerance="10"
     inkscape:pageopacity="0"
     inkscape:pageshadow="2"
     inkscape:window-width="734"
     inkscape:window-height="480"
     id="namedview7"
     showgrid="false"
     inkscape:zoom="14.75"
     inkscape:cx="-1.6949153"
     inkscape:cy="8"
     inkscape:window-x="0"
     inkscape:window-y="0"
     inkscape:window-maximized="0"
     inkscape:current-layer="svg2" />
  <metadata
     id="metadata8">
    <rdf:RDF>
      <cc:Work
         rdf:about="">
        <dc:format>image/svg+xml</dc:format>
        <dc:type
           rdf:resource="http://purl.org/dc/dcmitype/StillImage" />
        <dc:title />
      </cc:Work>
    </rdf:RDF>
  </metadata>
  <defs
     id="defs6" />
  <rect
     width="16"
     height="16"
     x="0"
     y="0"
     id="canvas"
     style="visibility:hidden;fill:none;stroke:none" />
  <path
     inkscape:connector-curvature="0"
     d="M 10.412959,1.0021525 C 9.1693111,1.1458805 8.4631991,2.5093567 8.3733471,3.6936531 8.2264421,4.7464951 8.6860601,6.089949 9.7918901,6.3320391 10.750208,6.4175151 11.512633,5.5171935 11.825819,4.658366 12.195679,3.5833915 12.206482,2.1478459 11.309038,1.3425077 11.059753,1.1264717 10.739671,0.99523664 10.412959,1.0021525 Z m -5.0729339,0.056367 c -1.034807,0.074858 -1.5652,1.2774426 -1.493223,2.2427639 0.0088,1.2907239 0.717612,2.7424122 2.010186,3.0488129 0.963956,0.1042448 1.606661,-0.9181087 1.66656,-1.812036 C 7.6465591,3.170006 7.0404161,1.5127548 5.6677831,1.0997104 5.5610961,1.0702454 5.4504511,1.0556214 5.3400251,1.0585194 Z m 8.3150179,4.145106 c -1.388365,0.1017608 -2.266355,1.5813816 -2.326691,2.9184062 -0.07305,0.8707439 0.489487,1.9657603 1.436683,1.9057493 C 14.181597,9.8776261 15.035636,8.2988179 15.00043,6.9270576 14.99133,6.1373285 14.490879,5.2365398 13.655043,5.2036255 Z M 1.0107561,7.0085272 c -0.12855096,1.481506 0.908149,3.1560198 2.414136,3.2493008 0.912778,-0.06096 1.343188,-1.1210929 1.238576,-1.9598353 -0.08336,-1.2375515 -0.910818,-2.504836 -1.985899,-2.6703939 -1.07508,-0.165558 -1.68385896,0.5939701 -1.666813,1.3809284 z m 7.148609,1.2638209 c -1.411887,0.00329 -2.70277,0.926469 -3.392913,2.1755309 -0.578235,0.933425 -1.050947,1.990156 -1.140853,3.105342 0.01967,0.860048 0.840276,1.575842 1.663122,1.404534 1.173683,-0.152345 2.222485,-0.967418 3.44297,-0.8147 1.014283,0.08097 1.8507729,0.867482 2.8748439,0.856051 0.994345,0.03734 1.56796,-1.102139 1.188753,-1.994632 C 12.387234,11.726579 11.596107,10.615194 10.746977,9.6142471 10.069618,8.8764309 9.1824521,8.2396826 8.1593651,8.2723481 Z"
     id="pet-5"
     style="fill:#ac39ac;fill-opacity:1;stroke:#ffffff;stroke-width:0.6;stroke-miterlimit:4;stroke-dasharray:none;stroke-linejoin:round;stroke-linecap:round" />
  <path
     inkscape:connector-curvature="0"
     d="M 10.412959,1.002152 C 9.1693111,1.14588 8.4631991,2.5093562 8.3733471,3.6936526 8.2264421,4.7464946 8.6860601,6.0899485 9.7918901,6.3320386 10.750208,6.4175146 11.512633,5.517193 11.825819,4.6583655 12.195679,3.583391 12.206482,2.1478454 11.309038,1.3425072 11.059753,1.1264712 10.739671,0.99523614 10.412959,1.002152 Z M 5.3400251,1.058519 c -1.034807,0.074858 -1.5652,1.2774426 -1.493223,2.2427639 0.0088,1.2907239 0.717612,2.7424122 2.010186,3.0488129 0.963956,0.1042448 1.606661,-0.9181087 1.66656,-1.812036 0.123011,-1.3680543 -0.483132,-3.0253055 -1.855765,-3.4383499 -0.106687,-0.029465 -0.217332,-0.044089 -0.327758,-0.041191 z m 8.3150179,4.145106 c -1.388365,0.1017608 -2.266355,1.5813816 -2.326691,2.9184062 -0.07305,0.8707439 0.489487,1.9657608 1.436683,1.9057498 C 14.181597,9.8776256 15.035636,8.2988174 15.00043,6.9270571 14.99133,6.137328 14.490879,5.2365393 13.655043,5.203625 Z M 1.0107561,7.0085267 c -0.12855096,1.481506 0.908149,3.1560203 2.414136,3.2493013 0.912778,-0.06096 1.343188,-1.1210934 1.238576,-1.9598358 -0.08336,-1.2375515 -0.910818,-2.504836 -1.985899,-2.6703939 -1.07508,-0.165558 -1.68385896,0.5939701 -1.666813,1.3809284 z m 7.148609,1.2638209 c -1.411887,0.00329 -2.70277,0.926469 -3.392913,2.1755314 -0.578235,0.933425 -1.050947,1.990156 -1.140853,3.105342 0.01967,0.860048 0.840276,1.575842 1.663122,1.404534 1.173683,-0.152345 2.222485,-0.967418 3.44297,-0.8147 1.014283,0.08097 1.8507729,0.867482 2.8748439,0.856051 0.994345,0.03734 1.56796,-1.102139 1.188753,-1.994632 C 12.387234,11.726579 11.596107,10.615194 10.746977,9.6142466 10.069618,8.8764304 9.1824521,8.2396821 8.1593651,8.2723476 Z"
     id="pet"
     style="fill:#ac39ac;fill-opacity:1;stroke:none" />
</svg>
