<?xml version="1.0" encoding="UTF-8" standalone="no"?>
<!-- Created with Inkscape (http://www.inkscape.org/) -->

<svg
   xmlns:dc="http://purl.org/dc/elements/1.1/"
   xmlns:cc="http://creativecommons.org/ns#"
   xmlns:rdf="http://www.w3.org/1999/02/22-rdf-syntax-ns#"
   xmlns:svg="http://www.w3.org/2000/svg"
   xmlns="http://www.w3.org/2000/svg"
   xmlns:sodipodi="http://sodipodi.sourceforge.net/DTD/sodipodi-0.dtd"
   xmlns:inkscape="http://www.inkscape.org/namespaces/inkscape"
   version="1.1"
   width="100%"
   height="100%"
   viewBox="0 0 16 16"
   id="svg2"
   inkscape:version="0.91 r"
   sodipodi:docname="shop_shoes.16.svg">
  <sodipodi:namedview
     pagecolor="#dadada"
     bordercolor="#666666"
     borderopacity="1"
     objecttolerance="10"
     gridtolerance="10"
     guidetolerance="10"
     inkscape:pageopacity="0"
     inkscape:pageshadow="2"
     inkscape:window-width="734"
     inkscape:window-height="480"
     id="namedview7"
     showgrid="false"
     inkscape:zoom="14.75"
     inkscape:cx="-1.6949153"
     inkscape:cy="8"
     inkscape:window-x="0"
     inkscape:window-y="0"
     inkscape:window-maximized="0"
     inkscape:current-layer="svg2" />
  <metadata
     id="metadata8">
    <rdf:RDF>
      <cc:Work
         rdf:about="">
        <dc:format>image/svg+xml</dc:format>
        <dc:type
           rdf:resource="http://purl.org/dc/dcmitype/StillImage" />
        <dc:title />
      </cc:Work>
    </rdf:RDF>
  </metadata>
  <defs
     id="defs6" />
  <rect
     width="16"
     height="16"
     x="0"
     y="0"
     id="canvas"
     style="visibility:hidden;fill:none;stroke:none" />
  <path
     inkscape:connector-curvature="0"
     d="M 1.75,4 C 1.75,4 1,6.25 1,9.25 l 5.5,0 c 0.5,0 1.306389,1 1.3,1 l 7.2,0 C 15,7.25 12,7 11,7 L 9,7 C 8,5 6,4 6,4 L 5.75,4 C 5,5.508412 3.016472,5.508412 2,4 Z M 6.5,5 C 6.776142,5 7,5.2238577 7,5.5 7,5.7761423 6.776142,6 6.5,6 6.223858,6 6,5.7761423 6,5.5 6,5.2238577 6.223858,5 6.5,5 Z m 1,1 C 7.776142,6 8,6.2238577 8,6.5 8,6.7761423 7.776142,7 7.5,7 7.223858,7 7,6.7761423 7,6.5 7,6.2238577 7.223858,6 7.5,6 Z m -6.5,4 0,2 5.25,0 0,-2 z m 7.3,1 c 0,0 0.7,1 1.2,1 l 5.5,0 0,-1 z"
     id="shoes-5"
     style="fill:#ac39ac;fill-opacity:1;stroke:#ffffff;stroke-width:0.6;stroke-miterlimit:4;stroke-dasharray:none;stroke-linejoin:round;stroke-linecap:round" />
  <path
     inkscape:connector-curvature="0"
     d="M 1.75,4 C 1.75,4 1,6.25 1,9.25 l 5.5,0 c 0.5,0 1.306389,1 1.3,1 l 7.2,0 C 15,7.25 12,7 11,7 L 9,7 C 8,5 6,4 6,4 L 5.75,4 C 5,5.508412 3.016472,5.508412 2,4 Z M 6.5,5 C 6.776142,5 7,5.2238577 7,5.5 7,5.7761423 6.776142,6 6.5,6 6.223858,6 6,5.7761423 6,5.5 6,5.2238577 6.223858,5 6.5,5 Z m 1,1 C 7.776142,6 8,6.2238577 8,6.5 8,6.7761423 7.776142,7 7.5,7 7.223858,7 7,6.7761423 7,6.5 7,6.2238577 7.223858,6 7.5,6 Z m -6.5,4 0,2 5.25,0 0,-2 z m 7.3,1 c 0,0 0.7,1 1.2,1 l 5.5,0 0,-1 z"
     id="shoes"
     style="fill:#ac39ac;fill-opacity:1;stroke:none" />
</svg>
