<?xml version="1.0" encoding="UTF-8" standalone="no"?>
<svg
   xmlns:dc="http://purl.org/dc/elements/1.1/"
   xmlns:cc="http://creativecommons.org/ns#"
   xmlns:rdf="http://www.w3.org/1999/02/22-rdf-syntax-ns#"
   xmlns:svg="http://www.w3.org/2000/svg"
   xmlns="http://www.w3.org/2000/svg"
   id="svg2"
   viewBox="0 0 16 16"
   height="100%"
   width="100%"
   version="1.1">
  <metadata
     id="metadata8">
    <rdf:RDF>
      <cc:Work
         rdf:about="">
        <dc:format>image/svg+xml</dc:format>
        <dc:type
           rdf:resource="http://purl.org/dc/dcmitype/StillImage" />
        <dc:title />
      </cc:Work>
    </rdf:RDF>
  </metadata>
  <defs
     id="defs6" />
  <rect
     style="visibility:hidden;fill:none;stroke:none"
     id="canvas"
     y="0"
     x="0"
     height="16"
     width="16" />
  <path
     style="fill:#ac39ac;fill-opacity:1;stroke:#ffffff;stroke-width:0.6;stroke-miterlimit:4;stroke-dasharray:none;stroke-linejoin:round;stroke-linecap:round"
     id="alcohol-3"
     d="M 4,1 C 3,1 3,1.4670568 3,2 L 3,4 C 3,5 1,5 1,7 l 0,7 c 0,0.566252 0.467057,1 1,1 l 4,0 c 0.599561,0 1,-0.400439 1,-1 L 7,7 C 7,5 5,5 5,4 L 5,2 C 5,1.4337479 5,1 4,1 Z m 4,5 c 0,3 0.47106,5 3,5 l 0,2 c 0,0.666911 -1,1 -1.5,1 -1,0 -1.5,0 -1.5,1 l 7,0 C 15,14 14.5,14 13.5,14 13,14 12,13.633602 12,13 l 0,-2 c 2.47106,0 3,-2 3,-5 L 8,6 Z" />
  <path
     style="fill:#ac39ac;fill-opacity:1;stroke:none"
     id="alcohol"
     d="M 4,1 C 3,1 3,1.4670568 3,2 L 3,4 C 3,5 1,5 1,7 l 0,7 c 0,0.566252 0.467057,1 1,1 l 4,0 c 0.599561,0 1,-0.400439 1,-1 L 7,7 C 7,5 5,5 5,4 L 5,2 C 5,1.4337479 5,1 4,1 Z m 4,5 c 0,3 0.47106,5 3,5 l 0,2 c 0,0.666911 -1,1 -1.5,1 -1,0 -1.5,0 -1.5,1 l 7,0 C 15,14 14.5,14 13.5,14 13,14 12,13.633602 12,13 l 0,-2 c 2.47106,0 3,-2 3,-5 L 8,6 Z" />
</svg>
