<?xml version="1.0" encoding="UTF-8" standalone="no"?>
<svg
   xmlns:dc="http://purl.org/dc/elements/1.1/"
   xmlns:cc="http://creativecommons.org/ns#"
   xmlns:rdf="http://www.w3.org/1999/02/22-rdf-syntax-ns#"
   xmlns:svg="http://www.w3.org/2000/svg"
   xmlns="http://www.w3.org/2000/svg"
   id="svg2"
   viewBox="0 0 16 16"
   height="100%"
   width="100%"
   version="1.1">
  <metadata
     id="metadata8">
    <rdf:RDF>
      <cc:Work
         rdf:about="">
        <dc:format>image/svg+xml</dc:format>
        <dc:type
           rdf:resource="http://purl.org/dc/dcmitype/StillImage" />
        <dc:title />
      </cc:Work>
    </rdf:RDF>
  </metadata>
  <defs
     id="defs6" />
  <rect
     style="visibility:hidden;fill:none;stroke:none"
     id="canvas"
     y="0"
     x="0"
     height="16"
     width="16" />
  <path
     style="fill:#ac39ac;fill-opacity:1;stroke:#ffffff;stroke-width:0.6;stroke-miterlimit:4;stroke-dasharray:none;stroke-linejoin:round;stroke-linecap:round"
     id="clothes-5"
     d="M 4,2 1,4 2,7.35 4,6 4,14 12,14 12,6 14,7.35 15,4 12,2 10,2 C 10,3 9,4 8,4 7,4 6,3 6,2 Z" />
  <path
     style="fill:#ac39ac;fill-opacity:1;stroke:none"
     id="clothes"
     d="M 4,2 1,4 2,7.35 4,6 4,14 12,14 12,6 14,7.35 15,4 12,2 10,2 C 10,3 9,4 8,4 7,4 6,3 6,2 Z" />
</svg>
