<?xml version="1.0" encoding="UTF-8" standalone="no"?>
<svg
   xmlns:dc="http://purl.org/dc/elements/1.1/"
   xmlns:cc="http://creativecommons.org/ns#"
   xmlns:rdf="http://www.w3.org/1999/02/22-rdf-syntax-ns#"
   xmlns:svg="http://www.w3.org/2000/svg"
   xmlns="http://www.w3.org/2000/svg"
   id="svg2"
   viewBox="0 0 16 16"
   height="100%"
   width="100%"
   version="1.1">
  <metadata
     id="metadata30">
    <rdf:RDF>
      <cc:Work
         rdf:about="">
        <dc:format>image/svg+xml</dc:format>
        <dc:type
           rdf:resource="http://purl.org/dc/dcmitype/StillImage" />
        <dc:title />
      </cc:Work>
    </rdf:RDF>
  </metadata>
  <defs
     id="defs28" />
  <path
     d="m 14.40,2.454 a 0.553,0.553 0 0 0 -0.16211,0.029297 l -1.482421,0.5488281 -0.267579,1.25 -11.5000005,0 1,6.0000002 9.000,0.900 0,1.099609 -8.5000005,0 a 0.500,0.500 0 1 0 0,1 l 1.0195313,0 a 1,1 0 0 1 0,0.002 1,1 0 0 0 -0.019531,0.199219 1,1 0 0 0 1,1 1,1 0 0 0 1,-1 1,1 0 0 0 -0.023438,-0.201172 l 4.0429688,0 a 1,1 0 0 1 0,0.002 1,1 0 0 0 -0.019531,0.199219 1,1 0 0 0 1.0000004,1 1,1 0 0 0 0.999999,-1 1,1 0 0 0 -0.02344,-0.201172 l 0.523438,0 0,-2 1.5,-7.0000002 0.09961,-0.3984375 1,-0.3515625 a 0.553,0.553 0 0 0 -0.187499,-1.078125 z m -12.2460949,2.828125 2.3339844,0 0,1 -2.15625,0 -0.1777344,-1 z m 2.8339844,0 1.5,0 0,1 -1.5,0 0,-1 z m 2,0 1.5,0 0,1 -1.5,0 0,-1 z m 2,0 1.5000005,0 0,1 -1.5000005,0 0,-1 z m 2.0000015,0 1.285156,0 -0.210938,1 -1.074218,0 0,-1 z m -8.5664078,1.5 2.0664063,0 0,1.5 -1.7988281,0 -0.2675782,-1.5 z m 2.5664063,0 1.5,0 0,1.5 -1.5,0 0,-1.5 z m 2,0 1.5,0 0,1.5 -1.5,0 0,-1.5 z m 2,0 1.5000005,0 0,1.5 -1.5000005,0 0,-1.5 z m 2.0000015,0 0.96875,0 -0.316407,1.5 -0.652343,0 0,-1.5 z m -8.2089859,2 1.7089844,0 0,0.7539063 L 2.890,9.384 2.783,8.783 Z m 2.2089844,0 1.5,0 0,0.9453125 -1.5,-0.1425781 0,-0.8027344 z m 2,0 1.5,0 0,1.1367188 -1.5,-0.1425781 0,-0.9941407 z m 2,0 1.5000005,0 0,1.3281253 -1.5000005,-0.1425784 0,-1.1855469 z m 2.0000015,0 0.544921,0 -0.294921,1.4003913 -0.25,-0.02344 0,-1.3769533 z"
     id="rect5-9"
     style="fill:#ac39ac;fill-opacity:1;stroke:#ffffff;stroke-width:0.6;stroke-miterlimit:4;stroke-dasharray:none;stroke-linejoin:round;stroke-linecap:round" />
  <path
     d="M 14.404297 2.4550781 A 0.5533986 0.5533986 0 0 0 14.242188 2.484375 L 12.759766 3.0332031 L 12.492188 4.2832031 L 0.9921875 4.2832031 L 1.9921875 10.283203 L 10.992188 11.183594 L 10.992188 12.283203 L 2.4921875 12.283203 A 0.5000005 0.5000005 0 1 0 2.4921875 13.283203 L 3.5117188 13.283203 A 1 1 0 0 1 3.5117188 13.285156 A 1 1 0 0 0 3.4921875 13.484375 A 1 1 0 0 0 4.4921875 14.484375 A 1 1 0 0 0 5.4921875 13.484375 A 1 1 0 0 0 5.46875 13.283203 L 9.5117188 13.283203 A 1 1 0 0 1 9.5117188 13.285156 A 1 1 0 0 0 9.4921875 13.484375 A 1 1 0 0 0 10.492188 14.484375 A 1 1 0 0 0 11.492188 13.484375 A 1 1 0 0 0 11.46875 13.283203 L 11.992188 13.283203 L 11.992188 11.283203 L 13.492188 4.2832031 L 13.591797 3.8847656 L 14.591797 3.5332031 A 0.5533986 0.5533986 0 0 0 14.404297 2.4550781 z M 2.1582031 5.2832031 L 4.4921875 5.2832031 L 4.4921875 6.2832031 L 2.3359375 6.2832031 L 2.1582031 5.2832031 z M 4.9921875 5.2832031 L 6.4921875 5.2832031 L 6.4921875 6.2832031 L 4.9921875 6.2832031 L 4.9921875 5.2832031 z M 6.9921875 5.2832031 L 8.4921875 5.2832031 L 8.4921875 6.2832031 L 6.9921875 6.2832031 L 6.9921875 5.2832031 z M 8.9921875 5.2832031 L 10.492188 5.2832031 L 10.492188 6.2832031 L 8.9921875 6.2832031 L 8.9921875 5.2832031 z M 10.992188 5.2832031 L 12.277344 5.2832031 L 12.066406 6.2832031 L 10.992188 6.2832031 L 10.992188 5.2832031 z M 2.4257812 6.7832031 L 4.4921875 6.7832031 L 4.4921875 8.2832031 L 2.6933594 8.2832031 L 2.4257812 6.7832031 z M 4.9921875 6.7832031 L 6.4921875 6.7832031 L 6.4921875 8.2832031 L 4.9921875 8.2832031 L 4.9921875 6.7832031 z M 6.9921875 6.7832031 L 8.4921875 6.7832031 L 8.4921875 8.2832031 L 6.9921875 8.2832031 L 6.9921875 6.7832031 z M 8.9921875 6.7832031 L 10.492188 6.7832031 L 10.492188 8.2832031 L 8.9921875 8.2832031 L 8.9921875 6.7832031 z M 10.992188 6.7832031 L 11.960938 6.7832031 L 11.644531 8.2832031 L 10.992188 8.2832031 L 10.992188 6.7832031 z M 2.7832031 8.7832031 L 4.4921875 8.7832031 L 4.4921875 9.5371094 L 2.890625 9.3847656 L 2.7832031 8.7832031 z M 4.9921875 8.7832031 L 6.4921875 8.7832031 L 6.4921875 9.7285156 L 4.9921875 9.5859375 L 4.9921875 8.7832031 z M 6.9921875 8.7832031 L 8.4921875 8.7832031 L 8.4921875 9.9199219 L 6.9921875 9.7773438 L 6.9921875 8.7832031 z M 8.9921875 8.7832031 L 10.492188 8.7832031 L 10.492188 10.111328 L 8.9921875 9.96875 L 8.9921875 8.7832031 z M 10.992188 8.7832031 L 11.537109 8.7832031 L 11.242188 10.183594 L 10.992188 10.160156 L 10.992188 8.7832031 z "
     id="rect5"
     style="fill:#ac39ac;fill-opacity:1" />
</svg>
