<?xml version="1.0" encoding="UTF-8" standalone="no"?>
<svg
   xmlns:dc="http://purl.org/dc/elements/1.1/"
   xmlns:cc="http://creativecommons.org/ns#"
   xmlns:rdf="http://www.w3.org/1999/02/22-rdf-syntax-ns#"
   xmlns:svg="http://www.w3.org/2000/svg"
   xmlns="http://www.w3.org/2000/svg"
   version="1.1"
   id="svg2"
   viewBox="-196 1 0 12"
   height="16"
   width="16">
  <metadata
     id="metadata15">
    <rdf:RDF>
      <cc:Work
         rdf:about="">
        <dc:format>image/svg+xml</dc:format>
        <dc:type
           rdf:resource="http://purl.org/dc/dcmitype/StillImage" />
        <dc:title></dc:title>
      </cc:Work>
    </rdf:RDF>
  </metadata>
  <defs
     id="defs13" />
  <path
     id="body-6"
     d="m 4.5,2.025391 a 1.5,1.5 0 0 0 -1.5,1.5 l 0,2.4492188 -0.5,0 a 1.5,1.5 0 0 0 -1.5,1.5 l 0,2.9999992 a 1.5,1.5 0 0 0 1,1.412109 l 0,2.087891 2,0 0,-2 8,0 0,2 2,0 0,-2.087891 a 1.5,1.5 0 0 0 1,-1.412109 l 0,-2.9999992 a 1.5,1.5 0 0 0 -1.5,-1.5 l -0.5,0 0,-2.4492188 a 1.5,1.5 0 0 0 -1.5,-1.5 l -7,0 z m 1,1.5 5,0 a 1,1 0 0 1 1,1 l 0,1.4492188 -7,0 0,-1.4492188 a 1,1 0 0 1 1,-1 z M 3.53125,7.5800788 a 0.9,0.9 0 1 1 -0.9316406,0.904297 l 0,-0.0098 A 0.9,0.9 0 0 1 3.53125,7.5800788 Z m 9,0 a 0.9,0.9 0 1 1 -0.931641,0.904297 l 0,-0.0098 a 0.9,0.9 0 0 1 0.931641,-0.894527 z"
     style="fill:#ac39ac;fill-opacity:1;fill-rule:evenodd;stroke:#ffffff;stroke-width:0.6;stroke-miterlimit:4;stroke-dasharray:none;stroke-linejoin:round;stroke-linecap:round" />
  <path
     id="body"
     d="m 4.5,2.0253906 a 1.5,1.5 0 0 0 -1.5,1.5 l 0,2.4492188 -0.5,0 a 1.5,1.5 0 0 0 -1.5,1.5 l 0,2.9999996 a 1.5,1.5 0 0 0 1,1.412109 l 0,2.087891 2,0 0,-2 8,0 0,2 2,0 0,-2.087891 a 1.5,1.5 0 0 0 1,-1.412109 l 0,-2.9999996 a 1.5,1.5 0 0 0 -1.5,-1.5 l -0.5,0 0,-2.4492188 a 1.5,1.5 0 0 0 -1.5,-1.5 l -7,0 z m 1,1.5 5,0 a 1,1 0 0 1 1,1 l 0,1.4492188 -7,0 0,-1.4492188 a 1,1 0 0 1 1,-1 z M 3.53125,7.5800784 a 0.9,0.9 0 1 1 -0.9316406,0.904297 l 0,-0.0098 A 0.9,0.9 0 0 1 3.53125,7.5800784 Z m 9,0 a 0.9,0.9 0 1 1 -0.931641,0.904297 l 0,-0.0098 a 0.9,0.9 0 0 1 0.931641,-0.894527 z"
     style="fill-rule:evenodd;fill:#ac39ac;fill-opacity:1" />
</svg>
