<?xml version="1.0" encoding="UTF-8" standalone="no"?>
<!-- Created with Inkscape (http://www.inkscape.org/) -->

<svg
   xmlns:dc="http://purl.org/dc/elements/1.1/"
   xmlns:cc="http://creativecommons.org/ns#"
   xmlns:rdf="http://www.w3.org/1999/02/22-rdf-syntax-ns#"
   xmlns:svg="http://www.w3.org/2000/svg"
   xmlns="http://www.w3.org/2000/svg"
   xmlns:sodipodi="http://sodipodi.sourceforge.net/DTD/sodipodi-0.dtd"
   xmlns:inkscape="http://www.inkscape.org/namespaces/inkscape"
   version="1.1"
   width="100%"
   height="100%"
   viewBox="0 0 16 16"
   id="svg2"
   inkscape:version="0.91 r"
   sodipodi:docname="shop_bicycle.16.svg">
  <sodipodi:namedview
     pagecolor="#dadada"
     bordercolor="#666666"
     borderopacity="1"
     objecttolerance="10"
     gridtolerance="10"
     guidetolerance="10"
     inkscape:pageopacity="0"
     inkscape:pageshadow="2"
     inkscape:window-width="1600"
     inkscape:window-height="845"
     id="namedview7"
     showgrid="false"
     inkscape:zoom="14.75"
     inkscape:cx="-3.9322034"
     inkscape:cy="8"
     inkscape:window-x="-2"
     inkscape:window-y="-3"
     inkscape:window-maximized="1"
     inkscape:current-layer="svg2" />
  <metadata
     id="metadata8">
    <rdf:RDF>
      <cc:Work
         rdf:about="">
        <dc:format>image/svg+xml</dc:format>
        <dc:type
           rdf:resource="http://purl.org/dc/dcmitype/StillImage" />
        <dc:title />
      </cc:Work>
    </rdf:RDF>
  </metadata>
  <defs
     id="defs6" />
  <rect
     width="16"
     height="16"
     x="0"
     y="0"
     id="canvas"
     style="visibility:hidden;fill:none;stroke:none" />
  <path
     inkscape:connector-curvature="0"
     d="m 9.0278616,2.3537262 0,0.8993789 1.2848274,0.8030169 0,1.1242236 -4.3684122,0 0,-0.7708962 0.5139308,0 c 1.0278616,0 1.0278616,-1.0278616 0,-1.0278616 l -2.0557233,0 c -1.0278616,0 -1.0278616,1.0278616 0,1.0278616 l 0.5139308,0 0,0.7708962 -0.9636202,1.7987579 c -0.021482,-4.787e-4 -0.042677,0 -0.064241,0 -1.6572038,0 -3.08358484,1.426381 -3.08358484,3.0835845 0,1.657204 1.42638104,3.083585 3.08358484,3.083585 1.6572038,0 3.0835849,-1.426381 3.0835849,-3.083585 0,-0.3556079 -0.073564,-0.7057099 -0.1927241,-1.0278613 l 0.4496895,0 C 8,9.0348267 8.177559,8.5681817 8.4496895,8.2960512 L 10.280568,6.2082073 10.826619,7.2681896 C 9.7755919,7.7663589 9.0278616,8.8548225 9.0278616,10.062688 c 0,1.657204 1.4263814,3.083585 3.0835844,3.083585 1.657204,0 3.083585,-1.426381 3.083585,-3.083585 0,-1.6572035 -1.426381,-3.0835845 -3.083585,-3.0835845 -0.03235,0 -0.0642,-0.00108 -0.09636,0 l -0.931499,-1.7987579 0,-1.6381544 -2.0557234,-1.188465 z m -3.3084296,3.8544811 3.2120676,0 -1.6060338,1.7987578 -1.1563443,0 c -0.018995,0 -0.044805,0.00218 -0.064241,0 C 5.8341383,7.7161344 5.5326408,7.4728667 5.1733805,7.3003102 5.1607892,7.2811612 5.1527308,7.2551316 5.1412599,7.2360689 L 5.719432,6.2082073 Z M 3.8885535,8.0069651 c 1.0337318,0 2.0557233,1.0219925 2.0557233,2.0557229 0,1.033732 -1.0219915,2.055724 -2.0557233,2.055724 -1.0337317,0 -2.0557232,-1.021992 -2.0557232,-2.055724 0,-1.0337304 1.0219915,-2.0557229 2.0557232,-2.0557229 z m 8.2228925,0 c 1.033731,0 2.055724,1.0219925 2.055724,2.0557229 0,1.033732 -1.021993,2.055724 -2.055724,2.055724 -1.033731,0 -2.055723,-1.021992 -2.055723,-2.055724 0,-1.0337304 1.021992,-2.0557229 2.055723,-2.0557229 z"
     id="bicycle-3"
     style="fill:#ac39ac;fill-opacity:1;stroke:#ffffff;stroke-width:0.61671698;stroke-linecap:round;stroke-linejoin:round;stroke-miterlimit:4;stroke-dasharray:none" />
  <path
     inkscape:connector-curvature="0"
     d="m 9.0278616,2.3537262 0,0.8993789 1.2848274,0.8030169 0,1.1242236 -4.3684122,0 0,-0.7708962 0.5139308,0 c 1.0278616,0 1.0278616,-1.0278616 0,-1.0278616 l -2.0557233,0 c -1.0278616,0 -1.0278616,1.0278616 0,1.0278616 l 0.5139308,0 0,0.7708962 -0.9636202,1.7987579 c -0.021482,-4.787e-4 -0.042677,0 -0.064241,0 -1.6572038,0 -3.08358484,1.426381 -3.08358484,3.0835845 0,1.657204 1.42638104,3.083585 3.08358484,3.083585 1.6572038,0 3.0835849,-1.426381 3.0835849,-3.083585 0,-0.3556079 -0.073564,-0.7057099 -0.1927241,-1.0278613 l 0.4496895,0 C 8,9.0348267 8.177559,8.5681817 8.4496895,8.2960512 L 10.280568,6.2082073 10.826619,7.2681896 C 9.7755919,7.7663589 9.0278616,8.8548225 9.0278616,10.062688 c 0,1.657204 1.4263814,3.083585 3.0835844,3.083585 1.657204,0 3.083585,-1.426381 3.083585,-3.083585 0,-1.6572035 -1.426381,-3.0835845 -3.083585,-3.0835845 -0.03235,0 -0.0642,-0.00108 -0.09636,0 l -0.931499,-1.7987579 0,-1.6381544 -2.0557234,-1.188465 z m -3.3084296,3.8544811 3.2120676,0 -1.6060338,1.7987578 -1.1563443,0 c -0.018995,0 -0.044805,0.00218 -0.064241,0 C 5.8341383,7.7161344 5.5326408,7.4728667 5.1733805,7.3003102 5.1607892,7.2811612 5.1527308,7.2551316 5.1412599,7.2360689 L 5.719432,6.2082073 Z M 3.8885535,8.0069651 c 1.0337318,0 2.0557233,1.0219925 2.0557233,2.0557229 0,1.033732 -1.0219915,2.055724 -2.0557233,2.055724 -1.0337317,0 -2.0557232,-1.021992 -2.0557232,-2.055724 0,-1.0337304 1.0219915,-2.0557229 2.0557232,-2.0557229 z m 8.2228925,0 c 1.033731,0 2.055724,1.0219925 2.055724,2.0557229 0,1.033732 -1.021993,2.055724 -2.055724,2.055724 -1.033731,0 -2.055723,-1.021992 -2.055723,-2.055724 0,-1.0337304 1.021992,-2.0557229 2.055723,-2.0557229 z"
     id="bicycle"
     style="fill:#ac39ac;fill-opacity:1;stroke:none" />
</svg>
