<?xml version="1.0" encoding="UTF-8" standalone="no"?>
<svg
   xmlns:dc="http://purl.org/dc/elements/1.1/"
   xmlns:cc="http://creativecommons.org/ns#"
   xmlns:rdf="http://www.w3.org/1999/02/22-rdf-syntax-ns#"
   xmlns:svg="http://www.w3.org/2000/svg"
   xmlns="http://www.w3.org/2000/svg"
   id="svg2"
   viewBox="0 0 16 16"
   height="100%"
   width="100%"
   version="1.1">
  <metadata
     id="metadata8">
    <rdf:RDF>
      <cc:Work
         rdf:about="">
        <dc:format>image/svg+xml</dc:format>
        <dc:type
           rdf:resource="http://purl.org/dc/dcmitype/StillImage" />
        <dc:title />
      </cc:Work>
    </rdf:RDF>
  </metadata>
  <defs
     id="defs6" />
  <rect
     style="visibility:hidden;fill:none;stroke:none"
     id="canvas"
     y="0"
     x="0"
     height="16"
     width="16" />
  <path
     style="fill:#ac39ac;fill-opacity:1;stroke:#ffffff;stroke-width:0.6;stroke-miterlimit:4;stroke-dasharray:none;stroke-linejoin:round;stroke-linecap:round"
     id="pet-5"
     d="M 10.41,1.002 C 9.169,1.145 8.463,2.509 8.373,3.693 8.226,4.746 8.686,6.089 9.791,6.332 10.75,6.417 11.51,5.517 11.82,4.658 12.19,3.583 12.20,2.147 11.30,1.342 11.05,1.126 10.73,0.995 10.41,1.002 Z m -5.0729339,0.056367 c -1.034807,0.074858 -1.5652,1.2774426 -1.493223,2.2427639 0.008,1.290 0.717,2.742 2.010,3.048 0.963,0.104 1.606661,-0.9181087 1.66656,-1.812036 C 7.646,3.170 7.040,1.512 5.667,1.099 5.561,1.070 5.450,1.055 5.340,1.058 Z m 8.315,4.145 c -1.388365,0.1017608 -2.266355,1.5813816 -2.326691,2.9184062 -0.07305,0.8707439 0.489,1.965 1.436,1.905 C 14.18,9.877 15.03,8.298 15.00,6.927 14.99,6.137 14.49,5.236 13.65,5.203 Z M 1.010,7.008 c -0.12855096,1.481506 0.908,3.156 2.414,3.249 0.912778,-0.06096 1.343188,-1.1210929 1.238576,-1.9598353 -0.08336,-1.2375515 -0.910818,-2.504836 -1.985899,-2.6703939 -1.07508,-0.165558 -1.68385896,0.5939701 -1.666813,1.3809284 z m 7.148,1.263 c -1.411887,0.00329 -2.70277,0.926469 -3.392913,2.1755309 -0.578235,0.933425 -1.050947,1.990156 -1.140853,3.105342 0.019,0.860 0.840,1.575 1.663,1.404 1.173683,-0.152345 2.222485,-0.967418 3.44297,-0.8147 1.014,0.080 1.850,0.867 2.874,0.856 0.994,0.037 1.56796,-1.102139 1.188753,-1.994632 C 12.38,11.72 11.59,10.61 10.74,9.614 10.06,8.876 9.182,8.239 8.159,8.272 Z" />
  <path
     style="fill:#ac39ac;fill-opacity:1;stroke:none"
     id="pet"
     d="M 10.41,1.002 C 9.169,1.145 8.463,2.509 8.373,3.693 8.226,4.746 8.686,6.089 9.791,6.332 10.75,6.417 11.51,5.517 11.82,4.658 12.19,3.583 12.20,2.147 11.30,1.342 11.05,1.126 10.73,0.995 10.41,1.002 Z M 5.340,1.058 c -1.034807,0.074858 -1.5652,1.2774426 -1.493223,2.2427639 0.008,1.290 0.717,2.742 2.010,3.048 0.963,0.104 1.606661,-0.9181087 1.66656,-1.812036 0.123011,-1.3680543 -0.483132,-3.0253055 -1.855765,-3.4383499 -0.106687,-0.029465 -0.217332,-0.044089 -0.327758,-0.041191 z m 8.315,4.145 c -1.388365,0.1017608 -2.266355,1.5813816 -2.326691,2.9184062 -0.07305,0.8707439 0.489,1.965 1.436,1.905 C 14.18,9.877 15.03,8.298 15.00,6.927 14.99,6.137 14.49,5.236 13.65,5.203 Z M 1.010,7.008 c -0.12855096,1.481506 0.908,3.156 2.414,3.249 0.912778,-0.06096 1.343188,-1.1210934 1.238576,-1.9598358 -0.08336,-1.2375515 -0.910818,-2.504836 -1.985899,-2.6703939 -1.07508,-0.165558 -1.68385896,0.5939701 -1.666813,1.3809284 z m 7.148,1.263 c -1.411887,0.00329 -2.70277,0.926469 -3.392913,2.1755314 -0.578235,0.933425 -1.050947,1.990156 -1.140853,3.105342 0.019,0.860 0.840,1.575 1.663,1.404 1.173683,-0.152345 2.222485,-0.967418 3.44297,-0.8147 1.014,0.080 1.850,0.867 2.874,0.856 0.994,0.037 1.56796,-1.102139 1.188753,-1.994632 C 12.38,11.72 11.59,10.61 10.74,9.614 10.06,8.876 9.182,8.239 8.159,8.272 Z" />
</svg>
