<?xml version="1.0" encoding="UTF-8" standalone="no"?>
<svg
   xmlns:dc="http://purl.org/dc/elements/1.1/"
   xmlns:cc="http://creativecommons.org/ns#"
   xmlns:rdf="http://www.w3.org/1999/02/22-rdf-syntax-ns#"
   xmlns:svg="http://www.w3.org/2000/svg"
   xmlns="http://www.w3.org/2000/svg"
   id="svg2"
   viewBox="0 0 16 16"
   height="100%"
   width="100%"
   version="1.1">
  <metadata
     id="metadata8">
    <rdf:RDF>
      <cc:Work
         rdf:about="">
        <dc:format>image/svg+xml</dc:format>
        <dc:type
           rdf:resource="http://purl.org/dc/dcmitype/StillImage" />
        <dc:title />
      </cc:Work>
    </rdf:RDF>
  </metadata>
  <defs
     id="defs6" />
  <rect
     style="visibility:hidden;fill:none;stroke:none"
     id="canvas"
     y="0"
     x="0"
     height="16"
     width="16" />
  <path
     style="fill:#ac39ac;fill-opacity:1;stroke:#ffffff;stroke-width:0.6;stroke-miterlimit:4;stroke-dasharray:none;stroke-linejoin:round;stroke-linecap:round"
     id="electronics-6"
     d="M 10.37,1.031 C 10.22,1.014 10.06,1.055 9.937,1.187 L 7.03125,4.125 5.125,2.1875 C 4.913,1.901 4.437,1.872 4.1875,2.125 3.937,2.377 3.966,2.848 4.25,3.0625 L 6.15625,5 3,5 C 2,5 1,6 1,7 l 0,6 c 0,1 1,2 2,2 l 10,0 c 1,0 2,-1 2,-2 L 15,7 C 15,6 14,5 13,5 L 7.90625,5 10.81,2.062 C 11.20,1.674 10.81,1.081 10.37,1.031 Z M 7,7 c 3,0 4,0 4,3 0,3 -1,3 -4,3 C 4,13 3,13 3,10 3,7 4,7 7,7 Z m 6,0.125 c 0.483249,0 0.875,0.3917508 0.875,0.875 0,0.4832492 -0.391751,0.875 -0.875,0.875 -0.483249,0 -0.875,-0.3917508 -0.875,-0.875 0,-0.4832492 0.391751,-0.875 0.875,-0.875 z m 0,3 c 0.483249,0 0.875,0.391751 0.875,0.875 0,0.483249 -0.391751,0.875 -0.875,0.875 -0.483249,0 -0.875,-0.391751 -0.875,-0.875 0,-0.483249 0.391751,-0.875 0.875,-0.875 z" />
  <path
     style="fill:#ac39ac;fill-opacity:1;stroke:none"
     id="electronics"
     d="M 10.37,1.031 C 10.22,1.014 10.06,1.055 9.937,1.187 L 7.03125,4.125 5.125,2.1875 C 4.913,1.901 4.437,1.872 4.1875,2.125 3.937,2.377 3.966,2.848 4.25,3.0625 L 6.15625,5 3,5 C 2,5 1,6 1,7 l 0,6 c 0,1 1,2 2,2 l 10,0 c 1,0 2,-1 2,-2 L 15,7 C 15,6 14,5 13,5 L 7.90625,5 10.81,2.062 C 11.20,1.674 10.81,1.081 10.37,1.031 Z M 7,7 c 3,0 4,0 4,3 0,3 -1,3 -4,3 C 4,13 3,13 3,10 3,7 4,7 7,7 Z m 6,0.125 c 0.483249,0 0.875,0.3917508 0.875,0.875 0,0.4832492 -0.391751,0.875 -0.875,0.875 -0.483249,0 -0.875,-0.3917508 -0.875,-0.875 0,-0.4832492 0.391751,-0.875 0.875,-0.875 z m 0,3 c 0.483249,0 0.875,0.391751 0.875,0.875 0,0.483249 -0.391751,0.875 -0.875,0.875 -0.483249,0 -0.875,-0.391751 -0.875,-0.875 0,-0.483249 0.391751,-0.875 0.875,-0.875 z" />
</svg>
