<?xml version="1.0" encoding="UTF-8" standalone="no"?>
<!-- Created with Inkscape (http://www.inkscape.org/) -->

<svg
   xmlns:dc="http://purl.org/dc/elements/1.1/"
   xmlns:cc="http://creativecommons.org/ns#"
   xmlns:rdf="http://www.w3.org/1999/02/22-rdf-syntax-ns#"
   xmlns:svg="http://www.w3.org/2000/svg"
   xmlns="http://www.w3.org/2000/svg"
   xmlns:sodipodi="http://sodipodi.sourceforge.net/DTD/sodipodi-0.dtd"
   xmlns:inkscape="http://www.inkscape.org/namespaces/inkscape"
   version="1.1"
   width="100%"
   height="100%"
   viewBox="0 0 16 16"
   id="svg2"
   inkscape:version="0.91 r"
   sodipodi:docname="shop_bakery.16.svg">
  <metadata
     id="metadata10">
    <rdf:RDF>
      <cc:Work
         rdf:about="">
        <dc:format>image/svg+xml</dc:format>
        <dc:type
           rdf:resource="http://purl.org/dc/dcmitype/StillImage" />
      </cc:Work>
    </rdf:RDF>
  </metadata>
  <defs
     id="defs8" />
  <sodipodi:namedview
     pagecolor="#dadada"
     bordercolor="#666666"
     borderopacity="1"
     objecttolerance="10"
     gridtolerance="10"
     guidetolerance="10"
     inkscape:pageopacity="0"
     inkscape:pageshadow="2"
     inkscape:window-width="706"
     inkscape:window-height="480"
     id="namedview6"
     showgrid="false"
     inkscape:zoom="14.75"
     inkscape:cx="8"
     inkscape:cy="8"
     inkscape:window-x="0"
     inkscape:window-y="0"
     inkscape:window-maximized="0"
     inkscape:current-layer="svg2" />
  <path
     inkscape:connector-curvature="0"
     d="M 7.75,4 9.25,8 7.75,8 6.25,4 C 6.25,4 4.4948328,4 4.5,4 L 6,8 4.5,8 3.1769068,4.5762712 C 2.2910439,5.2640693 1,7.1983848 1,9 l 0,2 c 0,0.59322 0.4237288,1 1,1 l 12,0 c 0.576271,0 1,-0.423729 1,-1 L 15,9 C 15,6.5355945 13.272623,4.5853602 11,4 L 12.5,8 11,8 9.5,4 c 0,0 -1.743955,0 -1.75,0 z"
     id="path4-5"
     style="fill:#ac39ac;fill-opacity:1;stroke:#ffffff;stroke-width:0.6;stroke-miterlimit:4;stroke-dasharray:none;stroke-linejoin:round;stroke-linecap:round" />
  <path
     inkscape:connector-curvature="0"
     d="M 7.75,4 9.25,8 7.75,8 6.25,4 C 6.25,4 4.4948328,4 4.5,4 L 6,8 4.5,8 3.1769068,4.5762712 C 2.2910439,5.2640693 1,7.1983848 1,9 l 0,2 c 0,0.59322 0.4237288,1 1,1 l 12,0 c 0.576271,0 1,-0.423729 1,-1 L 15,9 C 15,6.5355945 13.272623,4.5853602 11,4 L 12.5,8 11,8 9.5,4 c 0,0 -1.743955,0 -1.75,0 z"
     id="path4"
     style="fill:#ac39ac;fill-opacity:1" />
</svg>
