<?xml version="1.0" encoding="UTF-8" standalone="no"?>
<svg
   xmlns:dc="http://purl.org/dc/elements/1.1/"
   xmlns:cc="http://creativecommons.org/ns#"
   xmlns:rdf="http://www.w3.org/1999/02/22-rdf-syntax-ns#"
   xmlns:svg="http://www.w3.org/2000/svg"
   xmlns="http://www.w3.org/2000/svg"
   id="svg2"
   viewBox="0 0 16 16"
   height="100%"
   width="100%"
   version="1.1">
  <metadata
     id="metadata8">
    <rdf:RDF>
      <cc:Work
         rdf:about="">
        <dc:format>image/svg+xml</dc:format>
        <dc:type
           rdf:resource="http://purl.org/dc/dcmitype/StillImage" />
        <dc:title />
      </cc:Work>
    </rdf:RDF>
  </metadata>
  <defs
     id="defs6" />
  <rect
     style="visibility:hidden;fill:none;stroke:none"
     id="canvas"
     y="0"
     x="0"
     height="16"
     width="16" />
  <path
     style="fill:#ac39ac;fill-opacity:1;stroke:#ffffff;stroke-width:0.6;stroke-miterlimit:4;stroke-dasharray:none;stroke-linejoin:round;stroke-linecap:round"
     id="mobile-phone-7"
     d="M 7,1 C 6.517164,1 6,1.3876224 6,2 L 6,3 C 4.881,3.081 4,3.90528 4,5 l 0,8 c 0,1.1488 0.803333,2 2,2 l 4,0 c 1.196667,0 2,-0.8512 2,-2 L 12,5 C 12,3.8512 11.196667,3 10,3 L 8,3 8,2 C 8,1.3640694 7.482836,1 7,1 Z m -2,4 6,0 0,7 -6,0 0,-7 z m 2,8 2,0 0,1 -2,0 0,-1 z" />
  <path
     style="fill:#ac39ac;fill-opacity:1"
     id="mobile-phone"
     d="M 7,1 C 6.517164,1 6,1.3876224 6,2 L 6,3 C 4.881,3.081 4,3.90528 4,5 l 0,8 c 0,1.1488 0.803333,2 2,2 l 4,0 c 1.196667,0 2,-0.8512 2,-2 L 12,5 C 12,3.8512 11.196667,3 10,3 L 8,3 8,2 C 8,1.3640694 7.482836,1 7,1 Z m -2,4 6,0 0,7 -6,0 0,-7 z m 2,8 2,0 0,1 -2,0 0,-1 z" />
</svg>
