<?xml version="1.0" encoding="UTF-8" standalone="no"?>
<svg
   xmlns:dc="http://purl.org/dc/elements/1.1/"
   xmlns:cc="http://creativecommons.org/ns#"
   xmlns:rdf="http://www.w3.org/1999/02/22-rdf-syntax-ns#"
   xmlns:svg="http://www.w3.org/2000/svg"
   xmlns="http://www.w3.org/2000/svg"
   xmlns:sodipodi="http://sodipodi.sourceforge.net/DTD/sodipodi-0.dtd"
   xmlns:inkscape="http://www.inkscape.org/namespaces/inkscape"
   version="1.1"
   width="100%"
   height="100%"
   viewBox="0 0 16 16"
   id="svg2"
   inkscape:version="0.91 r"
   sodipodi:docname="shop_gift.16.svg">
  <sodipodi:namedview
     pagecolor="#dadada"
     bordercolor="#666666"
     borderopacity="1"
     objecttolerance="10"
     gridtolerance="10"
     guidetolerance="10"
     inkscape:pageopacity="0"
     inkscape:pageshadow="2"
     inkscape:window-width="734"
     inkscape:window-height="480"
     id="namedview7"
     showgrid="false"
     inkscape:zoom="14.75"
     inkscape:cx="-1.6949153"
     inkscape:cy="8"
     inkscape:window-x="0"
     inkscape:window-y="0"
     inkscape:window-maximized="0"
     inkscape:current-layer="svg2" />
  <metadata
     id="metadata8">
    <rdf:RDF>
      <cc:Work
         rdf:about="">
        <dc:format>image/svg+xml</dc:format>
        <dc:type
           rdf:resource="http://purl.org/dc/dcmitype/StillImage" />
        <dc:title />
      </cc:Work>
    </rdf:RDF>
  </metadata>
  <defs
     id="defs6" />
  <rect
     width="16"
     height="16"
     x="0"
     y="0"
     id="canvas"
     style="visibility:hidden;fill:none;stroke:none" />
  <path
     inkscape:connector-curvature="0"
     d="M 5.375,1.5 C 4.5,1.5 3.625,2.1125001 3.625,3.25 3.625,4.386625 4.144625,5 5.28125,5 l 2.5625,0 0.25,0 2.5625,0 C 11.792,5 12.375,4.4169999 12.375,3.28125 12.374125,2.14375 11.499999,1.5 10.625,1.5 9.2985,1.5 8.333375,2.3032501 8,3.46875 7.66575,2.3032501 6.730375,1.5 5.375,1.5 Z m 0,0.875 c 1.416625,0 1.656375,1.120875 1.75,1.75 l -1.75,0 C 4.455375,4.125 4.5,3.287625 4.5,3.25 4.5,3.212375 4.45538,2.375 5.375,2.375 Z m 5.25,0 c 0.874999,0 0.875,0.837375 0.875,0.875 0,0.037625 0.04462,0.875 -0.875,0.875 l -1.75,0 c 0.09363,-0.629125 0.331625,-1.75 1.75,-1.75 z M 5,6 C 4,6 3,7 3,8 l 0,1.75 4.25,0 L 7.25,6 5,6 Z m 3.75,0 0,3.75 4.25,0 L 13,8 C 13,7 12,6 11,6 L 8.75,6 Z M 3,11.25 3,13 c 0,1 1,2 2,2 l 2.25,0 0,-3.75 -4.25,0 z m 5.75,0 0,3.75 2.25,0 c 1,0 2,-1 2,-2 l 0,-1.75 -4.25,0 z"
     id="gift-1"
     style="fill:#ac39ac;fill-opacity:1;stroke:#ffffff;stroke-width:0.6;stroke-miterlimit:4;stroke-dasharray:none;stroke-linejoin:round;stroke-linecap:round" />
  <path
     inkscape:connector-curvature="0"
     d="M 5.375,1.5 C 4.5,1.5 3.625,2.1125001 3.625,3.25 3.625,4.386625 4.144625,5 5.28125,5 l 2.5625,0 0.25,0 2.5625,0 C 11.792,5 12.375,4.4169999 12.375,3.28125 12.374125,2.14375 11.499999,1.5 10.625,1.5 9.2985,1.5 8.333375,2.3032501 8,3.46875 7.66575,2.3032501 6.730375,1.5 5.375,1.5 Z m 0,0.875 c 1.416625,0 1.656375,1.120875 1.75,1.75 l -1.75,0 C 4.455375,4.125 4.5,3.287625 4.5,3.25 4.5,3.212375 4.45538,2.375 5.375,2.375 Z m 5.25,0 c 0.874999,0 0.875,0.837375 0.875,0.875 0,0.037625 0.04462,0.875 -0.875,0.875 l -1.75,0 c 0.09363,-0.629125 0.331625,-1.75 1.75,-1.75 z M 5,6 C 4,6 3,7 3,8 l 0,1.75 4.25,0 L 7.25,6 5,6 Z m 3.75,0 0,3.75 4.25,0 L 13,8 C 13,7 12,6 11,6 L 8.75,6 Z M 3,11.25 3,13 c 0,1 1,2 2,2 l 2.25,0 0,-3.75 -4.25,0 z m 5.75,0 0,3.75 2.25,0 c 1,0 2,-1 2,-2 l 0,-1.75 -4.25,0 z"
     id="gift"
     style="fill:#ac39ac;fill-opacity:1;stroke:none" />
</svg>
