<?xml version="1.0" encoding="UTF-8" standalone="no"?>
<!-- Created with Inkscape (http://www.inkscape.org/) -->

<svg
   xmlns:dc="http://purl.org/dc/elements/1.1/"
   xmlns:cc="http://creativecommons.org/ns#"
   xmlns:rdf="http://www.w3.org/1999/02/22-rdf-syntax-ns#"
   xmlns:svg="http://www.w3.org/2000/svg"
   xmlns="http://www.w3.org/2000/svg"
   xmlns:sodipodi="http://sodipodi.sourceforge.net/DTD/sodipodi-0.dtd"
   xmlns:inkscape="http://www.inkscape.org/namespaces/inkscape"
   version="1.1"
   width="100%"
   height="100%"
   viewBox="0 0 16 16"
   id="svg2"
   inkscape:version="0.91 r"
   sodipodi:docname="shop_diy.16.svg">
  <sodipodi:namedview
     pagecolor="#dadada"
     bordercolor="#666666"
     borderopacity="1"
     objecttolerance="10"
     gridtolerance="10"
     guidetolerance="10"
     inkscape:pageopacity="0"
     inkscape:pageshadow="2"
     inkscape:window-width="1600"
     inkscape:window-height="845"
     id="namedview7"
     showgrid="false"
     inkscape:zoom="14.75"
     inkscape:cx="-1.6949153"
     inkscape:cy="8"
     inkscape:window-x="-2"
     inkscape:window-y="-3"
     inkscape:window-maximized="1"
     inkscape:current-layer="svg2" />
  <metadata
     id="metadata8">
    <rdf:RDF>
      <cc:Work
         rdf:about="">
        <dc:format>image/svg+xml</dc:format>
        <dc:type
           rdf:resource="http://purl.org/dc/dcmitype/StillImage" />
        <dc:title />
      </cc:Work>
    </rdf:RDF>
  </metadata>
  <defs
     id="defs6" />
  <rect
     width="16"
     height="16"
     x="0"
     y="0"
     id="canvas"
     style="visibility:hidden;fill:none;stroke:none" />
  <path
     inkscape:connector-curvature="0"
     d="M 10,1 C 9.248808,1.4909181 8.75,2.3481516 8.75,3.3125 c 0,1.0641992 0.615654,1.9803063 1.5,2.4375 l 0,7.75 c 0,0.877754 0.521186,1.5 1.25,1.5 0.728813,0 1.25,-0.603432 1.25,-1.5 l 0,-7.75 C 13.634346,5.2928063 14.25,4.3766992 14.25,3.3125 14.25,2.3481516 13.751192,1.4909181 13,1 L 13,2.5 11.5,4 10,2.5 c 0,0 0,-1.5023227 0,-1.5 z M 5,1 C 4.447507,1 4,1.3804513 4,1.75 l -1.5,0 -1.25,1.75 1.25,1.75 1.5,0 0,8.5 C 4,14.434896 4.376848,15 5,15 5.623152,15 6,14.471763 6,13.75 l 0,-8.5 2,0 0,-3.5 -2,0 C 6,1.3724769 5.623152,1 5,1 Z m 6.5,12 C 11.776142,13 12,13.223858 12,13.5 12,13.776142 11.776142,14 11.5,14 11.223857,14 11,13.776142 11,13.5 11,13.223858 11.223857,13 11.5,13 Z"
     id="doityourself-6"
     style="fill:#ac39ac;fill-opacity:1;stroke:#ffffff;stroke-width:0.6;stroke-miterlimit:4;stroke-dasharray:none;stroke-linejoin:round;stroke-linecap:round" />
  <path
     inkscape:connector-curvature="0"
     d="M 10,1 C 9.248808,1.4909181 8.75,2.3481516 8.75,3.3125 c 0,1.0641992 0.615654,1.9803063 1.5,2.4375 l 0,7.75 c 0,0.877754 0.521186,1.5 1.25,1.5 0.728813,0 1.25,-0.603432 1.25,-1.5 l 0,-7.75 C 13.634346,5.2928063 14.25,4.3766992 14.25,3.3125 14.25,2.3481516 13.751192,1.4909181 13,1 L 13,2.5 11.5,4 10,2.5 c 0,0 0,-1.5023227 0,-1.5 z M 5,1 C 4.447507,1 4,1.3804513 4,1.75 l -1.5,0 -1.25,1.75 1.25,1.75 1.5,0 0,8.5 C 4,14.434896 4.376848,15 5,15 5.623152,15 6,14.471763 6,13.75 l 0,-8.5 2,0 0,-3.5 -2,0 C 6,1.3724769 5.623152,1 5,1 Z m 6.5,12 C 11.776142,13 12,13.223858 12,13.5 12,13.776142 11.776142,14 11.5,14 11.223857,14 11,13.776142 11,13.5 11,13.223858 11.223857,13 11.5,13 Z"
     id="doityourself"
     style="fill:#ac39ac;fill-opacity:1;stroke:none" />
</svg>
