<?xml version="1.0" encoding="UTF-8" standalone="no"?>
<svg
   xmlns:dc="http://purl.org/dc/elements/1.1/"
   xmlns:cc="http://creativecommons.org/ns#"
   xmlns:rdf="http://www.w3.org/1999/02/22-rdf-syntax-ns#"
   xmlns:svg="http://www.w3.org/2000/svg"
   xmlns="http://www.w3.org/2000/svg"
   xmlns:sodipodi="http://sodipodi.sourceforge.net/DTD/sodipodi-0.dtd"
   xmlns:inkscape="http://www.inkscape.org/namespaces/inkscape"
   width="16"
   height="16"
   viewBox="-208 0 0 11"
   id="svg2"
   version="1.1"
   inkscape:version="0.91 r"
   sodipodi:docname="shop_convenience.svg">
  <metadata
     id="metadata24">
    <rdf:RDF>
      <cc:Work
         rdf:about="">
        <dc:format>image/svg+xml</dc:format>
        <dc:type
           rdf:resource="http://purl.org/dc/dcmitype/StillImage" />
        <dc:title></dc:title>
      </cc:Work>
    </rdf:RDF>
  </metadata>
  <defs
     id="defs22" />
  <sodipodi:namedview
     pagecolor="#dadada"
     bordercolor="#666666"
     borderopacity="1"
     objecttolerance="10"
     gridtolerance="10"
     guidetolerance="10"
     inkscape:pageopacity="0"
     inkscape:pageshadow="2"
     inkscape:window-width="1099"
     inkscape:window-height="693"
     id="namedview20"
     showgrid="false"
     inkscape:zoom="21.454545"
     inkscape:cx="5.8474575"
     inkscape:cy="5.4999999"
     inkscape:window-x="0"
     inkscape:window-y="0"
     inkscape:window-maximized="0"
     inkscape:current-layer="svg2" />
  <path
     d="M 9.9908226,2.5512056 A 0.53522481,0.53522481 0 0 0 9.4807259,2.8754371 l -2.1147327,3.1720991 -6.2388746,0 2.1147328,7.4015648 9.5162976,0 2.114732,-7.4015648 -6.2388742,0 1.8297392,-2.7487395 A 0.53522481,0.53522481 0 0 0 9.9908226,2.5512056 Z m -7.541996,4.5536969 1.8503911,0 0,1.0573664 -1.5323552,0 -0.3180359,-1.0573664 z m 2.3790743,0 1.5860496,0 0,1.0573664 -1.5860496,0 0,-1.0573664 z m 2.1147327,0 2.1147328,0 0,1.0573664 -2.1147328,0 0,-1.0573664 z m 2.6434159,0 1.5860495,0 0,1.0573664 -1.5860495,0 0,-1.0573664 z m 2.1147325,0 1.850391,0 -0.318035,1.0573664 -1.532356,0 0,-1.0573664 z m -8.7769666,1.5860496 1.3754023,0 0,1.5860489 -0.8983484,0 -0.4770539,-1.5860489 z m 1.9040855,0 1.5860496,0 0,1.5860489 -1.5860496,0 0,-1.5860489 z m 2.1147327,0 2.1147328,0 0,1.5860489 -2.1147328,0 0,-1.5860489 z m 2.6434159,0 1.5860495,0 0,1.5860489 -1.5860495,0 0,-1.5860489 z m 2.1147325,0 1.375402,0 -0.477054,1.5860489 -0.898348,0 0,-1.5860489 z m -8.1408947,2.1147329 0.7393304,0 0,1.586049 -0.2643416,0 -0.4749888,-1.586049 z m 1.2680136,0 1.5860496,0 0,1.586049 -1.5860496,0 0,-1.586049 z m 2.1147327,0 2.1147328,0 0,1.586049 -2.1147328,0 0,-1.586049 z m 2.6434159,0 1.5860495,0 0,1.586049 -1.5860495,0 0,-1.586049 z m 2.1147325,0 0.739331,0 -0.474989,1.586049 -0.264342,0 0,-1.586049 z"
     id="rect5-3"
     inkscape:connector-curvature="0"
     style="fill:#ac39ac;fill-opacity:1;stroke:#ffffff;stroke-width:0.6;stroke-miterlimit:4;stroke-dasharray:none;stroke-linejoin:round;stroke-linecap:round" />
  <path
     d="M 9.9908226,2.5512052 A 0.53522481,0.53522481 0 0 0 9.4807259,2.8754367 l -2.1147327,3.1720991 -6.2388746,0 2.1147328,7.4015652 9.5162976,0 2.114732,-7.4015652 -6.2388742,0 1.8297392,-2.7487395 A 0.53522481,0.53522481 0 0 0 9.9908226,2.5512052 Z m -7.541996,4.5536969 1.8503911,0 0,1.0573664 -1.5323552,0 -0.3180359,-1.0573664 z m 2.3790743,0 1.5860496,0 0,1.0573664 -1.5860496,0 0,-1.0573664 z m 2.1147327,0 2.1147328,0 0,1.0573664 -2.1147328,0 0,-1.0573664 z m 2.6434159,0 1.5860495,0 0,1.0573664 -1.5860495,0 0,-1.0573664 z m 2.1147325,0 1.850391,0 -0.318035,1.0573664 -1.532356,0 0,-1.0573664 z m -8.7769666,1.5860496 1.3754023,0 0,1.5860493 -0.8983484,0 -0.4770539,-1.5860493 z m 1.9040855,0 1.5860496,0 0,1.5860493 -1.5860496,0 0,-1.5860493 z m 2.1147327,0 2.1147328,0 0,1.5860493 -2.1147328,0 0,-1.5860493 z m 2.6434159,0 1.5860495,0 0,1.5860493 -1.5860495,0 0,-1.5860493 z m 2.1147325,0 1.375402,0 -0.477054,1.5860493 -0.898348,0 0,-1.5860493 z m -8.1408947,2.1147333 0.7393304,0 0,1.586049 -0.2643416,0 -0.4749888,-1.586049 z m 1.2680136,0 1.5860496,0 0,1.586049 -1.5860496,0 0,-1.586049 z m 2.1147327,0 2.1147328,0 0,1.586049 -2.1147328,0 0,-1.586049 z m 2.6434159,0 1.5860495,0 0,1.586049 -1.5860495,0 0,-1.586049 z m 2.1147325,0 0.739331,0 -0.474989,1.586049 -0.264342,0 0,-1.586049 z"
     id="rect5"
     inkscape:connector-curvature="0"
     style="fill:#ac39ac;fill-opacity:1" />
</svg>
