<?xml version="1.0" encoding="UTF-8" standalone="no"?>
<svg
   xmlns:dc="http://purl.org/dc/elements/1.1/"
   xmlns:cc="http://creativecommons.org/ns#"
   xmlns:rdf="http://www.w3.org/1999/02/22-rdf-syntax-ns#"
   xmlns:svg="http://www.w3.org/2000/svg"
   xmlns="http://www.w3.org/2000/svg"
   id="svg2"
   viewBox="0 0 16 16"
   height="100%"
   width="100%"
   version="1.1">
  <metadata
     id="metadata8">
    <rdf:RDF>
      <cc:Work
         rdf:about="">
        <dc:format>image/svg+xml</dc:format>
        <dc:type
           rdf:resource="http://purl.org/dc/dcmitype/StillImage" />
        <dc:title />
      </cc:Work>
    </rdf:RDF>
  </metadata>
  <defs
     id="defs6" />
  <rect
     style="visibility:hidden;fill:none;stroke:none"
     id="canvas"
     y="0"
     x="0"
     height="16"
     width="16" />
  <path
     style="fill:#ac39ac;fill-opacity:1;stroke:#ffffff;stroke-width:0.6;stroke-miterlimit:4;stroke-dasharray:none;stroke-linejoin:round;stroke-linecap:round"
     id="gift-1"
     d="M 5.375,1.5 C 4.5,1.5 3.625,2.1125001 3.625,3.25 3.625,4.386625 4.144625,5 5.28125,5 l 2.5625,0 0.25,0 2.5625,0 C 11.792,5 12.37,4.416 12.37,3.281 12.37,2.143 11.499999,1.5 10.625,1.5 9.2985,1.5 8.333,2.303 8,3.46875 7.665,2.303 6.730375,1.5 5.375,1.5 Z m 0,0.875 c 1.416625,0 1.656,1.120 1.75,1.75 l -1.75,0 C 4.455375,4.125 4.5,3.287625 4.5,3.25 4.5,3.212375 4.45538,2.375 5.375,2.375 Z m 5.25,0 c 0.874999,0 0.875,0.837375 0.875,0.875 0,0.037625 0.04462,0.875 -0.875,0.875 l -1.75,0 c 0.09363,-0.629125 0.331625,-1.75 1.75,-1.75 z M 5,6 C 4,6 3,7 3,8 l 0,1.75 4.25,0 L 7.25,6 5,6 Z m 3.75,0 0,3.75 4.25,0 L 13,8 C 13,7 12,6 11,6 L 8.75,6 Z M 3,11.25 3,13 c 0,1 1,2 2,2 l 2.25,0 0,-3.75 -4.25,0 z m 5.75,0 0,3.75 2.25,0 c 1,0 2,-1 2,-2 l 0,-1.75 -4.25,0 z" />
  <path
     style="fill:#ac39ac;fill-opacity:1;stroke:none"
     id="gift"
     d="M 5.375,1.5 C 4.5,1.5 3.625,2.1125001 3.625,3.25 3.625,4.386625 4.144625,5 5.28125,5 l 2.5625,0 0.25,0 2.5625,0 C 11.792,5 12.37,4.416 12.37,3.281 12.37,2.143 11.499999,1.5 10.625,1.5 9.2985,1.5 8.333,2.303 8,3.46875 7.665,2.303 6.730375,1.5 5.375,1.5 Z m 0,0.875 c 1.416625,0 1.656,1.120 1.75,1.75 l -1.75,0 C 4.455375,4.125 4.5,3.287625 4.5,3.25 4.5,3.212375 4.45538,2.375 5.375,2.375 Z m 5.25,0 c 0.874999,0 0.875,0.837375 0.875,0.875 0,0.037625 0.04462,0.875 -0.875,0.875 l -1.75,0 c 0.09363,-0.629125 0.331625,-1.75 1.75,-1.75 z M 5,6 C 4,6 3,7 3,8 l 0,1.75 4.25,0 L 7.25,6 5,6 Z m 3.75,0 0,3.75 4.25,0 L 13,8 C 13,7 12,6 11,6 L 8.75,6 Z M 3,11.25 3,13 c 0,1 1,2 2,2 l 2.25,0 0,-3.75 -4.25,0 z m 5.75,0 0,3.75 2.25,0 c 1,0 2,-1 2,-2 l 0,-1.75 -4.25,0 z" />
</svg>
