<?xml version="1.0" encoding="UTF-8" standalone="no"?>
<svg
   xmlns:dc="http://purl.org/dc/elements/1.1/"
   xmlns:cc="http://creativecommons.org/ns#"
   xmlns:rdf="http://www.w3.org/1999/02/22-rdf-syntax-ns#"
   xmlns:svg="http://www.w3.org/2000/svg"
   xmlns="http://www.w3.org/2000/svg"
   id="svg2"
   viewBox="0 0 16 16"
   height="100%"
   width="100%"
   version="1.1">
  <metadata
     id="metadata10">
    <rdf:RDF>
      <cc:Work
         rdf:about="">
        <dc:format>image/svg+xml</dc:format>
        <dc:type
           rdf:resource="http://purl.org/dc/dcmitype/StillImage" />
      </cc:Work>
    </rdf:RDF>
  </metadata>
  <defs
     id="defs8" />
  <path
     style="fill:#ac39ac;fill-opacity:1;stroke:#ffffff;stroke-width:0.6;stroke-miterlimit:4;stroke-dasharray:none;stroke-linejoin:round;stroke-linecap:round"
     id="path4-5"
     d="M 7.75,4 9.25,8 7.75,8 6.25,4 C 6.25,4 4.4948328,4 4.5,4 L 6,8 4.5,8 3.176,4.576 C 2.291,5.264 1,7.1983848 1,9 l 0,2 c 0,0.59322 0.4237288,1 1,1 l 12,0 c 0.576271,0 1,-0.423729 1,-1 L 15,9 C 15,6.5355945 13.27,4.585 11,4 L 12.5,8 11,8 9.5,4 c 0,0 -1.743955,0 -1.75,0 z" />
  <path
     style="fill:#ac39ac;fill-opacity:1"
     id="path4"
     d="M 7.75,4 9.25,8 7.75,8 6.25,4 C 6.25,4 4.4948328,4 4.5,4 L 6,8 4.5,8 3.176,4.576 C 2.291,5.264 1,7.1983848 1,9 l 0,2 c 0,0.59322 0.4237288,1 1,1 l 12,0 c 0.576271,0 1,-0.423729 1,-1 L 15,9 C 15,6.5355945 13.27,4.585 11,4 L 12.5,8 11,8 9.5,4 c 0,0 -1.743955,0 -1.75,0 z" />
</svg>
