<?xml version="1.0" encoding="UTF-8" standalone="no"?>
<svg
   xmlns:dc="http://purl.org/dc/elements/1.1/"
   xmlns:cc="http://creativecommons.org/ns#"
   xmlns:rdf="http://www.w3.org/1999/02/22-rdf-syntax-ns#"
   xmlns:svg="http://www.w3.org/2000/svg"
   xmlns="http://www.w3.org/2000/svg"
   id="svg2"
   viewBox="0 0 16 16"
   height="100%"
   width="100%"
   version="1.1">
  <metadata
     id="metadata8">
    <rdf:RDF>
      <cc:Work
         rdf:about="">
        <dc:format>image/svg+xml</dc:format>
        <dc:type
           rdf:resource="http://purl.org/dc/dcmitype/StillImage" />
        <dc:title />
      </cc:Work>
    </rdf:RDF>
  </metadata>
  <defs
     id="defs6" />
  <rect
     style="visibility:hidden;fill:none;stroke:none"
     id="canvas"
     y="0"
     x="0"
     height="16"
     width="16" />
  <path
     style="fill:#ac39ac;fill-opacity:1;stroke:#ffffff;stroke-width:0.616;stroke-linecap:round;stroke-linejoin:round;stroke-miterlimit:4;stroke-dasharray:none"
     id="bicycle-3"
     d="m 9.027,2.353 0,0.8993789 1.284,0.803 0,1.1242236 -4.3684122,0 0,-0.7708962 0.5139308,0 c 1.0278616,0 1.0278616,-1.0278616 0,-1.0278616 l -2.0557233,0 c -1.0278616,0 -1.0278616,1.0278616 0,1.0278616 l 0.5139308,0 0,0.7708962 -0.9636202,1.7987579 c -0.021482,-4.787e-4 -0.042677,0 -0.064241,0 -1.6572038,0 -3.08358484,1.426381 -3.08358484,3.0835845 0,1.657204 1.426,3.083 3.083,3.083 1.6572038,0 3.0835849,-1.426381 3.0835849,-3.083585 0,-0.3556079 -0.073564,-0.7057099 -0.1927241,-1.0278613 l 0.4496895,0 C 8,9.0348267 8.177,8.568 8.449,8.296 L 10.28,6.208 10.82,7.268 C 9.775,7.766 9.027,8.854 9.027,10.06 c 0,1.657204 1.426,3.083 3.083,3.083 1.657204,0 3.083585,-1.426381 3.083585,-3.083585 0,-1.6572035 -1.426381,-3.0835845 -3.083585,-3.0835845 -0.03235,0 -0.0642,-0.00108 -0.09636,0 l -0.931499,-1.7987579 0,-1.6381544 -2.0557234,-1.188465 z m -3.3084296,3.8544811 3.2120676,0 -1.6060338,1.7987578 -1.1563443,0 c -0.018995,0 -0.044805,0.00218 -0.064241,0 C 5.834,7.716 5.532,7.472 5.173,7.300 5.160,7.281 5.152,7.255 5.141,7.236 L 5.719,6.208 Z M 3.888,8.006 c 1.0337318,0 2.055,1.021 2.055,2.055 0,1.033732 -1.0219915,2.055724 -2.0557233,2.055724 -1.0337317,0 -2.0557232,-1.021992 -2.0557232,-2.055724 0,-1.0337304 1.0219915,-2.0557229 2.0557232,-2.0557229 z m 8.2228925,0 c 1.033731,0 2.055,1.021 2.055,2.055 0,1.033732 -1.021993,2.055724 -2.055724,2.055724 -1.033731,0 -2.055723,-1.021992 -2.055723,-2.055724 0,-1.0337304 1.021992,-2.0557229 2.055723,-2.0557229 z" />
  <path
     style="fill:#ac39ac;fill-opacity:1;stroke:none"
     id="bicycle"
     d="m 9.027,2.353 0,0.8993789 1.284,0.803 0,1.1242236 -4.3684122,0 0,-0.7708962 0.5139308,0 c 1.0278616,0 1.0278616,-1.0278616 0,-1.0278616 l -2.0557233,0 c -1.0278616,0 -1.0278616,1.0278616 0,1.0278616 l 0.5139308,0 0,0.7708962 -0.9636202,1.7987579 c -0.021482,-4.787e-4 -0.042677,0 -0.064241,0 -1.6572038,0 -3.08358484,1.426381 -3.08358484,3.0835845 0,1.657204 1.426,3.083 3.083,3.083 1.6572038,0 3.0835849,-1.426381 3.0835849,-3.083585 0,-0.3556079 -0.073564,-0.7057099 -0.1927241,-1.0278613 l 0.4496895,0 C 8,9.0348267 8.177,8.568 8.449,8.296 L 10.28,6.208 10.82,7.268 C 9.775,7.766 9.027,8.854 9.027,10.06 c 0,1.657204 1.426,3.083 3.083,3.083 1.657204,0 3.083585,-1.426381 3.083585,-3.083585 0,-1.6572035 -1.426381,-3.0835845 -3.083585,-3.0835845 -0.03235,0 -0.0642,-0.00108 -0.09636,0 l -0.931499,-1.7987579 0,-1.6381544 -2.0557234,-1.188465 z m -3.3084296,3.8544811 3.2120676,0 -1.6060338,1.7987578 -1.1563443,0 c -0.018995,0 -0.044805,0.00218 -0.064241,0 C 5.834,7.716 5.532,7.472 5.173,7.300 5.160,7.281 5.152,7.255 5.141,7.236 L 5.719,6.208 Z M 3.888,8.006 c 1.0337318,0 2.055,1.021 2.055,2.055 0,1.033732 -1.0219915,2.055724 -2.0557233,2.055724 -1.0337317,0 -2.0557232,-1.021992 -2.0557232,-2.055724 0,-1.0337304 1.0219915,-2.0557229 2.0557232,-2.0557229 z m 8.2228925,0 c 1.033731,0 2.055,1.021 2.055,2.055 0,1.033732 -1.021993,2.055724 -2.055724,2.055724 -1.033731,0 -2.055723,-1.021992 -2.055723,-2.055724 0,-1.0337304 1.021992,-2.0557229 2.055723,-2.0557229 z" />
</svg>
