<?xml version="1.0" encoding="UTF-8" standalone="no"?>
<svg
   xmlns:dc="http://purl.org/dc/elements/1.1/"
   xmlns:cc="http://creativecommons.org/ns#"
   xmlns:rdf="http://www.w3.org/1999/02/22-rdf-syntax-ns#"
   xmlns:svg="http://www.w3.org/2000/svg"
   xmlns="http://www.w3.org/2000/svg"
   id="svg2"
   viewBox="0 0 16 16"
   height="100%"
   width="100%"
   version="1.1">
  <metadata
     id="metadata30">
    <rdf:RDF>
      <cc:Work
         rdf:about="">
        <dc:format>image/svg+xml</dc:format>
        <dc:type
           rdf:resource="http://purl.org/dc/dcmitype/StillImage" />
        <dc:title></dc:title>
      </cc:Work>
    </rdf:RDF>
  </metadata>
  <defs
     id="defs28" />
  <path
     d="M 6.2996503,2.3433874 A 1.2677165,1.2598426 0 0 1 5.0319339,3.6032301 1.2677165,1.2598426 0 0 1 3.7642173,2.3433874 1.2677165,1.2598426 0 0 1 5.0319339,1.083545 1.2677165,1.2598426 0 0 1 6.2996503,2.3433874 Z m 6.8521547,8.5590566 -2.681077,0.689109 c -0.10951,0.02815 -0.352075,0.0033 -0.443903,-0.01932 -0.2353378,-0.04564 -0.3030073,-0.15495 -0.3951012,-0.269258 L 8.3624066,9.211484 6.7666575,10.924357 7.4109527,14.126902 c 0.020606,0.06867 0.030909,0.125809 0.030909,0.171443 0,0.205576 -0.06647,0.382584 -0.1994434,0.531025 -0.1329742,0.148441 -0.2915382,0.222679 -0.4757603,0.222679 -0.3477056,0 -0.562604,-0.199862 -0.6447278,-0.59955 L 5.3395091,10.564738 C 5.2474149,10.153549 5.2882941,9.8509171 5.4621798,9.6568059 L 6.8584194,8.0980875 5.3394762,6.1285883 4.3575791,7.2246593 C 4.2552149,7.3385961 4.1375293,7.3955832 4.0045225,7.3955832 c -0.1738526,0 -0.3425539,-0.085555 -0.5061367,-0.256627 L 1.9026358,5.3575961 C 1.8208768,5.2432884 1.7800316,5.1176647 1.7799651,4.9807253 1.7800382,4.8096534 1.8336731,4.6669635 1.9410886,4.5526558 2.0484381,4.4383851 2.1738008,4.3812132 2.317044,4.3812132 c 0.1433097,0 0.2558438,0.045634 0.3376019,0.1369386 L 3.9741458,5.9916122 5.5698951,4.2102892 C 5.6925658,4.0729786 5.849995,3.9641995 6.0301681,4.0043053 l 3.4739056,0.7732794 c 0.1502629,0.033448 0.2602345,0.1751076 0.3726022,0.3124179 l 0.7716401,1.3297166 c 0.12267,0.1139369 0.184056,0.2566264 0.184022,0.4280696 2.5e-5,0.1599419 -0.05108,0.2969925 -0.153346,0.4111144 -0.102198,0.1140852 -0.224968,0.1711462 -0.368278,0.1711462 -0.153247,0 -0.286254,-0.068488 -0.3989206,-0.2054272 l -0.8959802,-1.50064 -1.45563,-0.246662 3.0196588,4.6877938 2.460462,-0.706398 c 0.194458,0 0.371896,0.039275 0.504903,0.1763999 0.132939,0.1370874 0.268048,0.2586702 0.268048,0.4754131 0,0.205576 -0.08475,0.384035 -0.217687,0.526763 -0.132974,0.142726 -0.264714,0.219132 -0.443763,0.265152 z"
     style="fill:#ac39ac;fill-opacity:1;fill-rule:evenodd;stroke:#ffffff;stroke-opacity:1;stroke-width:0.6;stroke-miterlimit:4;stroke-dasharray:none"
     id="path4286-8" />
  <path
     d="M 6.2996503,2.3433871 A 1.2677165,1.2598426 0 0 1 5.0319339,3.6032298 1.2677165,1.2598426 0 0 1 3.7642173,2.3433871 1.2677165,1.2598426 0 0 1 5.0319339,1.0835447 1.2677165,1.2598426 0 0 1 6.2996503,2.3433871 Z m 6.8521547,8.5590569 -2.681077,0.689109 c -0.10951,0.02815 -0.352075,0.0033 -0.443903,-0.01932 -0.2353378,-0.04564 -0.3030073,-0.15495 -0.3951012,-0.269258 L 8.3624066,9.2114837 6.7666575,10.924357 7.4109527,14.126902 c 0.020606,0.06867 0.030909,0.125809 0.030909,0.171443 0,0.205576 -0.06647,0.382584 -0.1994434,0.531025 -0.1329742,0.148441 -0.2915382,0.222679 -0.4757603,0.222679 -0.3477056,0 -0.562604,-0.199862 -0.6447278,-0.59955 L 5.3395091,10.564738 C 5.2474149,10.153549 5.2882941,9.8509168 5.4621798,9.6568056 L 6.8584194,8.0980872 5.3394762,6.128588 4.3575791,7.224659 C 4.2552149,7.3385958 4.1375293,7.3955829 4.0045225,7.3955829 c -0.1738526,0 -0.3425539,-0.085555 -0.5061367,-0.256627 L 1.9026358,5.3575958 C 1.8208768,5.2432881 1.7800316,5.1176644 1.7799651,4.980725 1.7800382,4.8096531 1.8336731,4.6669632 1.9410886,4.5526555 2.0484381,4.4383848 2.1738008,4.3812129 2.317044,4.3812129 c 0.1433097,0 0.2558438,0.045634 0.3376019,0.1369386 L 3.9741458,5.9916119 5.5698951,4.2102889 C 5.6925658,4.0729783 5.849995,3.9641992 6.0301681,4.004305 l 3.4739056,0.7732794 c 0.1502629,0.033448 0.2602345,0.1751076 0.3726022,0.3124179 l 0.7716401,1.3297166 c 0.12267,0.1139369 0.184056,0.2566264 0.184022,0.4280696 2.5e-5,0.1599419 -0.05108,0.2969925 -0.153346,0.4111144 -0.102198,0.1140852 -0.224968,0.1711462 -0.368278,0.1711462 -0.153247,0 -0.286254,-0.068488 -0.3989206,-0.2054272 l -0.8959802,-1.50064 -1.45563,-0.246662 3.0196588,4.6877941 2.460462,-0.7063983 c 0.194458,0 0.371896,0.039275 0.504903,0.1763999 0.132939,0.1370874 0.268048,0.2586702 0.268048,0.4754134 0,0.205576 -0.08475,0.384035 -0.217687,0.526763 -0.132974,0.142726 -0.264714,0.219132 -0.443763,0.265152 z"
     style="fill:#ac39ac;fill-opacity:1;fill-rule:evenodd;stroke:none;stroke-opacity:1"
     id="path4286" />
</svg>
