<?xml version="1.0" encoding="UTF-8" standalone="no"?>
<svg
   xmlns:dc="http://purl.org/dc/elements/1.1/"
   xmlns:cc="http://creativecommons.org/ns#"
   xmlns:rdf="http://www.w3.org/1999/02/22-rdf-syntax-ns#"
   xmlns:svg="http://www.w3.org/2000/svg"
   xmlns="http://www.w3.org/2000/svg"
   id="svg2"
   viewBox="0 0 16 16"
   height="100%"
   width="100%"
   version="1.1">
  <metadata
     id="metadata30">
    <rdf:RDF>
      <cc:Work
         rdf:about="">
        <dc:format>image/svg+xml</dc:format>
        <dc:type
           rdf:resource="http://purl.org/dc/dcmitype/StillImage" />
        <dc:title></dc:title>
      </cc:Work>
    </rdf:RDF>
  </metadata>
  <defs
     id="defs28" />
  <path
     id="path4153-5"
     d="M 7.8324045,2.743877 A 1.2055479,0.94874388 0 0 0 6.6273264,3.6930957 1.2055479,0.94874388 0 0 0 7.4671702,4.5973926 c -1.3777887,0.1110045 -2.5676639,0.8192062 -3.265625,1.8652345 -0.014037,-0.00629 -0.026946,-0.019665 -0.041016,-0.025391 -0.648797,-0.26404 -1.6220121,-0.3965713 -2.251953,0.011719 -0.61339,0.39758 -0.87117,1.1088738 -0.90625,1.9960937 -0.07125,1.8029602 1.2801281,2.1642532 2.626953,2.3457032 0.109103,0.0147 0.2167003,0.0067 0.3242188,0.002 0.295793,0.85379 0.7371669,1.655654 1.3066406,2.056641 l 5.1464854,0 c 0.61296,-0.432304 1.076317,-1.329351 1.369141,-2.25586 0.233932,0.04686 0.48724,0.0018 0.83789,-0.277343 0.609155,-0.4849506 1.2457,-1.4462862 1.453125,-1.9160162 0.37426,-0.8113667 0.933594,-3.7246062 0.933594,-3.7246062 0,0 -0.881381,0.2391938 -1.583984,-0.00391 -0.154784,0.52722 -0.346971,1.5225269 -0.638672,1.998047 C 12.526589,7.0790583 12.35813,7.4345827 11.943733,7.4997365 11.462525,5.9150603 9.9927287,4.7419069 8.1956858,4.5973926 A 1.2055479,0.94874388 0 0 0 9.0374827,3.6930957 1.2055479,0.94874388 0 0 0 7.8324045,2.743877 Z M 2.9788889,6.9938771 C 3.3017678,6.9838336 3.5708987,7.0861781 3.8128733,7.2243458 3.6445604,7.657907 3.5374051,8.1206236 3.5374827,8.6091114 3.5381283,9.0006021 3.603739,9.4815699 3.7191233,9.9802051 2.9450549,9.9670455 2.0328802,9.8686284 2.0863108,8.5173145 2.1161108,7.7637146 2.3189477,7.1087034 2.6937327,7.0290334 2.7929807,7.0079354 2.8874684,6.9967204 2.9788889,6.9938774 Z"
     style="opacity:1;fill:#ac39ac;fill-opacity:1;stroke:#ffffff;stroke-width:0.6;stroke-linejoin:miter;stroke-miterlimit:4;stroke-dasharray:none;stroke-dashoffset:0;stroke-opacity:1" />
  <path
     id="path4153"
     d="M 7.8324045,2.7438771 A 1.2055479,0.94874388 0 0 0 6.6273264,3.6930958 1.2055479,0.94874388 0 0 0 7.4671702,4.5973927 c -1.3777887,0.1110045 -2.5676639,0.8192062 -3.265625,1.8652345 -0.014037,-0.00629 -0.026946,-0.019665 -0.041016,-0.025391 -0.648797,-0.26404 -1.6220121,-0.3965713 -2.251953,0.011719 -0.61339,0.39758 -0.87117,1.1088738 -0.90625,1.9960937 -0.07125,1.8029601 1.2801281,2.1642531 2.626953,2.3457031 0.109103,0.0147 0.2167003,0.0067 0.3242188,0.002 0.295793,0.85379 0.7371669,1.655654 1.3066406,2.056641 l 5.1464854,0 c 0.61296,-0.432304 1.076317,-1.329351 1.369141,-2.25586 0.233932,0.04686 0.48724,0.0018 0.83789,-0.277343 0.609155,-0.4849505 1.2457,-1.4462861 1.453125,-1.9160161 0.37426,-0.8113667 0.933594,-3.7246062 0.933594,-3.7246062 0,0 -0.881381,0.2391938 -1.583984,-0.00391 -0.154784,0.52722 -0.346971,1.5225269 -0.638672,1.998047 C 12.526589,7.0790584 12.35813,7.4345828 11.943733,7.4997366 11.462525,5.9150604 9.9927287,4.741907 8.1956858,4.5973927 A 1.2055479,0.94874388 0 0 0 9.0374827,3.6930958 1.2055479,0.94874388 0 0 0 7.8324045,2.7438771 Z M 2.9788889,6.9938772 C 3.3017678,6.9838337 3.5708987,7.0861782 3.8128733,7.2243459 3.6445604,7.6579071 3.5374051,8.1206237 3.5374827,8.6091115 3.5381283,9.0006022 3.603739,9.48157 3.7191233,9.9802052 2.9450549,9.9670456 2.0328802,9.8686285 2.0863108,8.5173146 2.1161108,7.7637147 2.3189477,7.1087035 2.6937327,7.0290335 2.7929807,7.0079355 2.8874684,6.9967205 2.9788889,6.9938775 Z"
     style="opacity:1;fill:#ac39ac;fill-opacity:1;stroke:none;stroke-width:5;stroke-linejoin:miter;stroke-miterlimit:4;stroke-dasharray:none;stroke-dashoffset:0;stroke-opacity:1" />
</svg>
