<?xml version="1.0" encoding="UTF-8" standalone="no"?>
<svg
   xmlns:dc="http://purl.org/dc/elements/1.1/"
   xmlns:cc="http://creativecommons.org/ns#"
   xmlns:rdf="http://www.w3.org/1999/02/22-rdf-syntax-ns#"
   xmlns:svg="http://www.w3.org/2000/svg"
   xmlns="http://www.w3.org/2000/svg"
   id="svg2"
   viewBox="0 0 16 16"
   height="100%"
   width="100%"
   version="1.1">
  <metadata
     id="metadata30">
    <rdf:RDF>
      <cc:Work
         rdf:about="">
        <dc:format>image/svg+xml</dc:format>
        <dc:type
           rdf:resource="http://purl.org/dc/dcmitype/StillImage" />
        <dc:title></dc:title>
      </cc:Work>
    </rdf:RDF>
  </metadata>
  <defs
     id="defs28" />
  <path
     id="path3357-4-1"
     style="fill:#ac39ac;fill-opacity:1;fill-rule:evenodd;stroke:#ffffff;stroke-opacity:1;stroke-width:0.6;stroke-miterlimit:4;stroke-dasharray:none"
     d="m 3.1937046,11.602905 0.9612591,0 0,2.854722 -0.9612591,0 z M 2.2324455,10.651332 C 2.8732849,9.6997576 4.1549637,8.7481837 4.1549637,7.7966099 c 0,-0.9515739 -2.8837773,-1.9031477 -2.8837773,-3.8062954 0,-1.9031477 1.9225182,-1.9031477 3.8450364,-2.8547215 -0.3204197,1.2687651 -1.9225182,1.9031476 -1.9225182,2.8547215 0.9612591,0.9515738 2.8837772,1.9031477 2.8837772,3.8062954 0,1.9031477 -0.961259,1.9031477 -3.8450363,2.8547221 z m -0.9612591,0.951573 0.9612591,0 0,2.854722 -0.9612591,0 z m 13.4576276,2.854722 -9.6125912,0 0,-2.854722 9.6125912,0 z" />
  <path
     id="path3357-4"
     style="fill:#ac39ac;fill-opacity:1;fill-rule:evenodd;stroke:none;stroke-opacity:1"
     d="m 3.1937046,11.602905 0.9612591,0 0,2.854722 -0.9612591,0 z M 2.2324455,10.651332 C 2.8732849,9.6997579 4.1549637,8.748184 4.1549637,7.7966102 c 0,-0.9515739 -2.8837773,-1.9031477 -2.8837773,-3.8062954 0,-1.9031477 1.9225182,-1.9031477 3.8450364,-2.8547215 -0.3204197,1.2687651 -1.9225182,1.9031476 -1.9225182,2.8547215 0.9612591,0.9515738 2.8837772,1.9031477 2.8837772,3.8062954 0,1.9031477 -0.961259,1.9031477 -3.8450363,2.8547218 z m -0.9612591,0.951573 0.9612591,0 0,2.854722 -0.9612591,0 z m 13.4576276,2.854722 -9.6125912,0 0,-2.854722 9.6125912,0 z" />
</svg>
