<?xml version="1.0" encoding="UTF-8" standalone="no"?>
<svg
   xmlns:dc="http://purl.org/dc/elements/1.1/"
   xmlns:cc="http://creativecommons.org/ns#"
   xmlns:rdf="http://www.w3.org/1999/02/22-rdf-syntax-ns#"
   xmlns:svg="http://www.w3.org/2000/svg"
   xmlns="http://www.w3.org/2000/svg"
   xml:space="preserve"
   id="svg2"
   viewBox="0 0 16 16"
   height="16"
   width="16"
   version="1.1"><metadata
     id="metadata19"><rdf:RDF><cc:Work
         rdf:about=""><dc:format>image/svg+xml</dc:format><dc:type
           rdf:resource="http://purl.org/dc/dcmitype/StillImage" /><dc:title /></cc:Work></rdf:RDF></metadata><defs
     id="defs4" /><g
     style="display:none"
     id="layer3"
     transform="matrix(48.14969,0,0,48.14969,-536.27327,-597.30675)"><rect
       style="fill:none;stroke:none"
       id="rect4134"
       y="1"
       x="1"
       height="10"
       width="10" /><rect
       style="fill:none;stroke:none"
       id="rect4136"
       y="2"
       x="2"
       height="8"
       width="8" /></g><path
     style="fill:#ac39ac;fill-opacity:1;stroke:#ffffff;stroke-width:0.639;stroke-linecap:round;stroke-linejoin:round;stroke-miterlimit:4;stroke-dasharray:none"
     id="path2529-1"
     d="m 3.646,0.702 0,2.13154351 C 2.903,3.224 1.004,4.688 0.782,4.965 0.569,5.230 0.549,7.154 0.915,7.096 1.556,6.998 3.723,5.246 4.279,5.631 4.834,6.014 4.675,7.818 4.712,9.228 3.954,10.20 3.698,11.26 2.980,12.05 2.627,11.73 2.252,11.43 1.848,11.02 c -0.082946,-0.09679 -0.4830117,-0.333197 -0.85790615,0.0084 -0.23618802,0.32463 -0.26743379,0.721177 0.016,0.982 2.147,2.147 4.188,3.280 7.202,3.280 2.9092623,0 4.3494433,-1.151904 6.5027483,-3.305209 0.233092,-0.157879 0.315662,-0.783578 0.116596,-0.982648 -0.199074,-0.199069 -0.699804,-0.216467 -0.857683,0.01663 -0.372289,0.372289 -0.699322,0.664419 -1.032466,0.965856 -0.999838,-1.349317 -0.86924,-1.69221 -1.831795,-4.8958903 2.27253,-0.583012 2.764,1.823 4.263,2.497 l 0,-2.4975125 c 0,-1.0657718 -2.448078,-1.0353973 -4.263087,-0.5994966 C 10.75,6.030 10.04,4.965 7.518,5.414 7.202,3.899 6.678,3.524 5.262,2.833 Z M 5.778,9.228 c 1.065,0.708 3.522,0.649 4.2630872,0 0.894,0.576 1.650,2.199 2.164,3.397 -1.258474,0.987558 -2.4461146,1.465436 -4.2963927,1.465436 -1.8264803,0 -2.969171,-0.41749 -4.1298656,-1.298909 0.8727405,-1.354671 1.0028775,-1.572785 1.9983221,-3.5636745 z" /><path
     style="fill:#ac39ac;fill-opacity:1;stroke:none"
     id="path2529"
     d="m 3.646,0.702 0,2.13154351 C 2.903,3.224 1.004,4.688 0.782,4.965 0.569,5.230 0.549,7.154 0.915,7.096 1.556,6.998 3.723,5.246 4.279,5.631 4.834,6.014 4.675,7.818 4.712,9.228 3.954,10.20 3.698,11.26 2.980,12.05 2.627,11.73 2.252,11.43 1.848,11.02 c -0.082946,-0.09679 -0.4830117,-0.333197 -0.85790615,0.0084 -0.23618802,0.32463 -0.26743379,0.721177 0.016,0.982 2.147,2.147 4.188,3.280 7.202,3.280 2.9092613,0 4.3494433,-1.151904 6.5027483,-3.305209 0.233091,-0.157879 0.315662,-0.783578 0.116596,-0.982648 -0.199074,-0.199069 -0.699804,-0.216467 -0.857683,0.01663 -0.372289,0.372289 -0.699322,0.664419 -1.032466,0.965856 -0.999838,-1.349317 -0.869241,-1.69221 -1.831796,-4.8958903 2.272531,-0.583012 2.764,1.823 4.263,2.497 l 0,-2.4975125 c 0,-1.0657718 -2.448078,-1.0353973 -4.263088,-0.5994966 C 10.75,6.030 10.04,4.965 7.518,5.414 7.202,3.899 6.678,3.524 5.262,2.833 Z M 5.778,9.228 c 1.065,0.708 3.522,0.649 4.2630872,0 0.894,0.576 1.650,2.199 2.164,3.397 -1.258474,0.987558 -2.4461146,1.465436 -4.2963927,1.465436 -1.8264803,0 -2.969171,-0.41749 -4.1298656,-1.298909 0.8727405,-1.354671 1.0028775,-1.572785 1.9983221,-3.5636745 z" /></svg>