<?xml version="1.0" encoding="UTF-8" standalone="no"?>
<!-- Created with Inkscape (http://www.inkscape.org/) -->

<svg
   xmlns:dc="http://purl.org/dc/elements/1.1/"
   xmlns:cc="http://creativecommons.org/ns#"
   xmlns:rdf="http://www.w3.org/1999/02/22-rdf-syntax-ns#"
   xmlns:svg="http://www.w3.org/2000/svg"
   xmlns="http://www.w3.org/2000/svg"
   xmlns:sodipodi="http://sodipodi.sourceforge.net/DTD/sodipodi-0.dtd"
   xmlns:inkscape="http://www.inkscape.org/namespaces/inkscape"
   version="1.1"
   width="16"
   height="16"
   viewBox="0 0 16 16"
   id="svg2"
   xml:space="preserve"
   inkscape:version="0.91 r"
   sodipodi:docname="toys-14.svg"><sodipodi:namedview
     pagecolor="#dadada"
     bordercolor="#666666"
     borderopacity="1"
     objecttolerance="10"
     gridtolerance="10"
     guidetolerance="10"
     inkscape:pageopacity="0"
     inkscape:pageshadow="2"
     inkscape:window-width="1600"
     inkscape:window-height="845"
     id="namedview9"
     showgrid="false"
     inkscape:zoom="16.857143"
     inkscape:cx="-3.4406778"
     inkscape:cy="7.0000001"
     inkscape:window-x="-2"
     inkscape:window-y="-3"
     inkscape:window-maximized="1"
     inkscape:current-layer="svg2" /><metadata
     id="metadata19"><rdf:RDF><cc:Work
         rdf:about=""><dc:format>image/svg+xml</dc:format><dc:type
           rdf:resource="http://purl.org/dc/dcmitype/StillImage" /><dc:title /></cc:Work></rdf:RDF></metadata><defs
     id="defs4" /><g
     transform="matrix(48.14969,0,0,48.14969,-536.27327,-597.30675)"
     id="layer3"
     style="display:none"><rect
       width="10"
       height="10"
       x="1"
       y="1"
       id="rect4134"
       style="fill:none;stroke:none" /><rect
       width="8"
       height="8"
       x="2"
       y="2"
       id="rect4136"
       style="fill:none;stroke:none" /></g><path
     inkscape:connector-curvature="0"
     d="m 3.6468342,0.70205029 0,2.13154351 C 2.9039913,3.2247321 1.0042531,4.6880367 0.78257258,4.9651374 0.56941822,5.2305146 0.54916856,7.1542326 0.91579405,7.0966809 1.5563229,6.9986299 3.7233033,5.2465011 4.2796362,5.6312447 4.8349033,6.0149226 4.675304,7.8182084 4.712606,9.2282245 3.9543971,10.203982 3.6987118,11.268892 2.9807269,12.059181 2.6276079,11.738421 2.252953,11.431323 1.8483444,11.026714 c -0.082946,-0.09679 -0.4830117,-0.333197 -0.85790615,0.0084 -0.23618802,0.32463 -0.26743379,0.721177 0.0168477,0.982593 2.1474826,2.147482 4.1881482,3.280215 7.2025508,3.280215 2.9092623,0 4.3494433,-1.151904 6.5027483,-3.305209 0.233092,-0.157879 0.315662,-0.783578 0.116596,-0.982648 -0.199074,-0.199069 -0.699804,-0.216467 -0.857683,0.01663 -0.372289,0.372289 -0.699322,0.664419 -1.032466,0.965856 -0.999838,-1.349317 -0.86924,-1.69221 -1.831795,-4.8958903 2.27253,-0.583012 2.764077,1.8232704 4.263087,2.4975125 l 0,-2.4975125 c 0,-1.0657718 -2.448078,-1.0353973 -4.263087,-0.5994966 C 10.757335,6.0309049 10.041465,4.9651331 7.5189596,5.4145603 7.2029772,3.8993656 6.6781248,3.524471 5.2624514,2.8335938 Z M 5.7783778,9.2282245 c 1.0657717,0.7089492 3.5222239,0.649817 4.2630872,0 0.894291,0.5768735 1.65047,2.1991045 2.164849,3.3971475 -1.258474,0.987558 -2.4461146,1.465436 -4.2963927,1.465436 -1.8264803,0 -2.969171,-0.41749 -4.1298656,-1.298909 0.8727405,-1.354671 1.0028775,-1.572785 1.9983221,-3.5636745 z"
     id="path2529-1"
     style="fill:#ac39ac;fill-opacity:1;stroke:#ffffff;stroke-width:0.63946307;stroke-linecap:round;stroke-linejoin:round;stroke-miterlimit:4;stroke-dasharray:none" /><path
     inkscape:connector-curvature="0"
     d="m 3.6468342,0.70205029 0,2.13154351 C 2.9039913,3.2247321 1.0042531,4.6880367 0.78257258,4.9651374 0.56941822,5.2305146 0.54916856,7.1542326 0.91579405,7.0966809 1.5563229,6.9986299 3.7233033,5.2465011 4.2796362,5.6312447 4.8349033,6.0149226 4.675304,7.8182084 4.712606,9.2282245 3.9543971,10.203982 3.6987118,11.268892 2.9807269,12.059181 2.6276079,11.738421 2.252953,11.431323 1.8483444,11.026714 c -0.082946,-0.09679 -0.4830117,-0.333197 -0.85790615,0.0084 -0.23618802,0.32463 -0.26743379,0.721177 0.0168477,0.982593 2.1474825,2.147482 4.1881482,3.280215 7.2025507,3.280215 2.9092613,0 4.3494433,-1.151904 6.5027483,-3.305209 0.233091,-0.157879 0.315662,-0.783578 0.116596,-0.982648 -0.199074,-0.199069 -0.699804,-0.216467 -0.857683,0.01663 -0.372289,0.372289 -0.699322,0.664419 -1.032466,0.965856 -0.999838,-1.349317 -0.869241,-1.69221 -1.831796,-4.8958903 2.272531,-0.583012 2.764077,1.8232704 4.263088,2.4975125 l 0,-2.4975125 c 0,-1.0657718 -2.448078,-1.0353973 -4.263088,-0.5994966 C 10.757335,6.0309049 10.041465,4.9651331 7.5189596,5.4145603 7.2029772,3.8993656 6.6781248,3.524471 5.2624514,2.8335938 Z M 5.7783778,9.2282245 c 1.0657717,0.7089492 3.5222239,0.649817 4.2630872,0 0.894291,0.5768735 1.65047,2.1991045 2.164849,3.3971475 -1.258474,0.987558 -2.4461146,1.465436 -4.2963927,1.465436 -1.8264803,0 -2.969171,-0.41749 -4.1298656,-1.298909 0.8727405,-1.354671 1.0028775,-1.572785 1.9983221,-3.5636745 z"
     id="path2529"
     style="fill:#ac39ac;fill-opacity:1;stroke:none" /></svg>