<?xml version="1.0" encoding="UTF-8" standalone="no"?>
<!-- Created with Inkscape (http://www.inkscape.org/) -->

<svg
   xmlns:dc="http://purl.org/dc/elements/1.1/"
   xmlns:cc="http://creativecommons.org/ns#"
   xmlns:rdf="http://www.w3.org/1999/02/22-rdf-syntax-ns#"
   xmlns:svg="http://www.w3.org/2000/svg"
   xmlns="http://www.w3.org/2000/svg"
   xmlns:sodipodi="http://sodipodi.sourceforge.net/DTD/sodipodi-0.dtd"
   xmlns:inkscape="http://www.inkscape.org/namespaces/inkscape"
   version="1.1"
   width="16"
   height="16"
   viewBox="-224 0 0 14"
   id="svg2"
   inkscape:version="0.91 r"
   sodipodi:docname="travel_agency-14.svg">
  <sodipodi:namedview
     pagecolor="#dadada"
     bordercolor="#666666"
     borderopacity="1"
     objecttolerance="10"
     gridtolerance="10"
     guidetolerance="10"
     inkscape:pageopacity="0"
     inkscape:pageshadow="2"
     inkscape:window-width="1600"
     inkscape:window-height="845"
     id="namedview6"
     showgrid="false"
     inkscape:zoom="16.857143"
     inkscape:cx="7.0000001"
     inkscape:cy="7.0000001"
     inkscape:window-x="-2"
     inkscape:window-y="-3"
     inkscape:window-maximized="1"
     inkscape:current-layer="svg2" />
  <defs
     id="defs3053" />
  <metadata
     id="metadata8">
    <rdf:RDF>
      <cc:Work
         rdf:about="">
        <dc:format>image/svg+xml</dc:format>
        <dc:type
           rdf:resource="http://purl.org/dc/dcmitype/StillImage" />
        <dc:title></dc:title>
      </cc:Work>
    </rdf:RDF>
  </metadata>
  <path
     inkscape:connector-curvature="0"
     d="m 0.636516,10.256441 c 0,-1.000001 0,-1.000001 1,-1.000001 2.3333333,0 4.6666667,0 7,0 1,0 1,0 1,1.000001 0,1.333332 0,2.666666 0,3.999999 0,1 0,1 -1,1 -2.3333333,0 -4.6666667,0 -7,0 -1,0 -1,0 -1,-1 0,-1.333333 0,-2.666667 0,-3.999999 z m 13,-4.9687508 0,2.96875 1,0 0,-2.96875 -1,0 z m -1.78125,-0.34375 -1.625,2.46875 0.8125,0.53125 1.65625,-2.4375 -0.84375,-0.5625 z m -1.28125,-1.65625 -2.8125,1.15625 0.375,0.90625 2.8125,-1.125 -0.375,-0.9375 z m -2.9375,-2.0625 0,1 3.09375,0.03125 0,-1 -3.09375,-0.03125 z m -4,8.0312498 0,-1.7035174 3,0 0,1.7035174 1,0 0,-1.9999998 c 0,-1 0,-1 -1,-1 -1,0 -2,0 -3,0 -1,0 -1,0 -1,1 l 0,1.9999998 z M 15.363484,2.743559 c 0,1.1045695 -0.89543,2 -2,2 -1.104569,0 -2,-0.8954305 -2,-2 0,-1.1045695 0.895431,-2 2,-2 0.916949,0 1.716441,0.6235458 1.939772,1.5128812"
     id="path2996-2"
     style="fill:#ac39ac;fill-opacity:1;fill-rule:evenodd;stroke:#ffffff;stroke-width:0.6;stroke-miterlimit:4;stroke-dasharray:none;stroke-linejoin:round;stroke-linecap:round" />
  <path
     inkscape:connector-curvature="0"
     d="m 0.636516,10.256441 c 0,-1.0000005 0,-1.0000005 1,-1.0000005 2.3333333,0 4.6666667,0 7,0 1,0 1,0 1,1.0000005 0,1.333333 0,2.666667 0,4 0,1 0,1 -1,1 -2.3333333,0 -4.6666667,0 -7,0 -1,0 -1,0 -1,-1 0,-1.333333 0,-2.666667 0,-4 z m 13,-4.9687503 0,2.96875 1,0 0,-2.96875 -1,0 z m -1.78125,-0.34375 -1.625,2.46875 0.8125,0.53125 1.65625,-2.4375 -0.84375,-0.5625 z m -1.28125,-1.65625 -2.8125,1.15625 0.375,0.90625 2.8125,-1.125 -0.375,-0.9375 z m -2.9375,-2.0625 0,1 3.09375,0.03125 0,-1 -3.09375,-0.03125 z m -4,8.0312498 0,-1.7035174 3,0 0,1.7035174 1,0 0,-1.9999998 c 0,-1 0,-1 -1,-1 -1,0 -2,0 -3,0 -1,0 -1,0 -1,1 l 0,1.9999998 z m 11.726968,-6.512881 c 0,1.1045695 -0.89543,2 -2,2 -1.104569,0 -2,-0.8954305 -2,-2 0,-1.1045695 0.895431,-2 2,-2 0.916949,0 1.716441,0.6235458 1.939772,1.5128812"
     id="path2996"
     style="fill:#ac39ac;fill-opacity:1;fill-rule:evenodd;stroke:none" />
</svg>
