<?xml version="1.0" encoding="UTF-8" standalone="no"?>
<svg
   xmlns:dc="http://purl.org/dc/elements/1.1/"
   xmlns:cc="http://creativecommons.org/ns#"
   xmlns:rdf="http://www.w3.org/1999/02/22-rdf-syntax-ns#"
   xmlns:svg="http://www.w3.org/2000/svg"
   xmlns="http://www.w3.org/2000/svg"
   id="svg2"
   viewBox="0 0 16 16"
   height="100%"
   width="100%"
   version="1.1">
  <defs
     id="defs3053" />
  <metadata
     id="metadata8">
    <rdf:RDF>
      <cc:Work
         rdf:about="">
        <dc:format>image/svg+xml</dc:format>
        <dc:type
           rdf:resource="http://purl.org/dc/dcmitype/StillImage" />
        <dc:title />
      </cc:Work>
    </rdf:RDF>
  </metadata>
  <path
     style="fill:#ac39ac;fill-opacity:1;fill-rule:evenodd;stroke:#ffffff;stroke-width:0.6;stroke-miterlimit:4;stroke-dasharray:none;stroke-linejoin:round;stroke-linecap:round"
     id="path2996-2"
     d="m 0.636,10.25 c 0,-1.000001 0,-1.000001 1,-1.000001 2.3333333,0 4.6666667,0 7,0 1,0 1,0 1,1.000001 0,1.333332 0,2.666666 0,3.999999 0,1 0,1 -1,1 -2.3333333,0 -4.6666667,0 -7,0 -1,0 -1,0 -1,-1 0,-1.333333 0,-2.666667 0,-3.999999 z m 13,-4.9687508 0,2.96875 1,0 0,-2.96875 -1,0 z m -1.78125,-0.34375 -1.625,2.46875 0.812,0.531 1.65625,-2.4375 -0.84375,-0.5625 z m -1.28125,-1.65625 -2.8125,1.15625 0.375,0.90625 2.8125,-1.125 -0.375,-0.9375 z m -2.9375,-2.0625 0,1 3.093,0.031 0,-1 -3.09375,-0.03125 z m -4,8.0312498 0,-1.7035174 3,0 0,1.7035174 1,0 0,-1.9999998 c 0,-1 0,-1 -1,-1 -1,0 -2,0 -3,0 -1,0 -1,0 -1,1 l 0,1.9999998 z M 15.36,2.743 c 0,1.1045695 -0.89543,2 -2,2 -1.104569,0 -2,-0.8954305 -2,-2 0,-1.1045695 0.895431,-2 2,-2 0.916949,0 1.716,0.623 1.939,1.512" />
  <path
     style="fill:#ac39ac;fill-opacity:1;fill-rule:evenodd;stroke:none"
     id="path2996"
     d="m 0.636,10.25 c 0,-1.0000005 0,-1.0000005 1,-1.0000005 2.3333333,0 4.6666667,0 7,0 1,0 1,0 1,1.0000005 0,1.333333 0,2.666667 0,4 0,1 0,1 -1,1 -2.3333333,0 -4.6666667,0 -7,0 -1,0 -1,0 -1,-1 0,-1.333333 0,-2.666667 0,-4 z m 13,-4.9687503 0,2.96875 1,0 0,-2.96875 -1,0 z m -1.78125,-0.34375 -1.625,2.46875 0.812,0.531 1.65625,-2.4375 -0.84375,-0.5625 z m -1.28125,-1.65625 -2.8125,1.15625 0.375,0.90625 2.8125,-1.125 -0.375,-0.9375 z m -2.9375,-2.0625 0,1 3.093,0.031 0,-1 -3.09375,-0.03125 z m -4,8.0312498 0,-1.7035174 3,0 0,1.7035174 1,0 0,-1.9999998 c 0,-1 0,-1 -1,-1 -1,0 -2,0 -3,0 -1,0 -1,0 -1,1 l 0,1.9999998 z m 11.726968,-6.512881 c 0,1.1045695 -0.89543,2 -2,2 -1.104569,0 -2,-0.8954305 -2,-2 0,-1.1045695 0.895431,-2 2,-2 0.916949,0 1.716,0.623 1.939,1.512" />
</svg>
