<?xml version="1.0" encoding="UTF-8" standalone="no"?>
<svg xmlns:svg="http://www.w3.org/2000/svg" xmlns="http://www.w3.org/2000/svg" version="1.0" width="1200" height="600" viewBox="0 0 6400 3200">
<path d="M 0,0 L 0,3200 L 6400,3200 L 6400,0 L 0,0 z" fill="red"/>
<rect width="3200" height="3200" x="1600" fill="#fff"/>
<path d="M 3199.9526,290 L 2990.,698.7 C 2966.,743.1 2923.,739.0 2881.3566,714.2 L 2729.,632.0 L 2842.,1259. C 2866.,1374. 2790.,1374. 2752.,1324. L 2487.,1014. L 2444.,1172. C 2439.,1193. 2417.,1214. 2385.,1209. L 2050.,1135. L 2138.,1470. C 2157.,1544. 2171.,1575. 2119.,1595. L 2000,1653.75 L 2576.,2143. C 2599.,2161. 2610.,2195. 2602.,2225. L 2552.,2398. C 2750.,2374. 2928.,2353. 3127.,2329. C 3144.,2328. 3173.,2344. 3173.,2365. L 3147.5581,3000 L 3244.0581,3000 L 3228.,2367. C 3228.,2345. 3255.,2328. 3272.,2329. C 3471.,2353. 3649.,2374. 3847.,2398. L 3797.,2225. C 3789.,2195. 3800.,2161. 3823.,2143. L 4400,1653.75 L 4280.,1595. C 4228.,1575. 4242.,1544. 4261.,1470. L 4349.,1135. L 4014.,1209. C 3982.,1214. 3960.,1193. 3955.,1172. L 3912.,1014. L 3647.,1324. C 3609.,1374. 3533.,1374. 3557.,1259. L 3670.,632.0 L 3518.6434,714.2 C 3476.,739.0 3433.,743.1 3409.,698.7" fill="red" id="maple_leaf"/>
</svg>
