<?xml version="1.0" encoding="UTF-8" standalone="no"?>
<!-- Created with Sodipodi ("http://www.sodipodi.com/") -->
<svg
   xmlns:dc="http://purl.org/dc/elements/1.1/"
   xmlns:cc="http://web.resource.org/cc/"
   xmlns:rdf="http://www.w3.org/1999/02/22-rdf-syntax-ns#"
   xmlns:svg="http://www.w3.org/2000/svg"
   xmlns="http://www.w3.org/2000/svg"
   xmlns:sodipodi="http://inkscape.sourceforge.net/DTD/sodipodi-0.dtd"
   xmlns:inkscape="http://www.inkscape.org/namespaces/inkscape"
   height="500"
   id="svg571"
   sodipodi:docbase="C:\Documents and Settings\David Nelson\Archives\Svg"
   sodipodi:docname="Flag_of_Norfolk_Island.svg"
   sodipodi:version="0.32"
   width="1000"
   inkscape:version="0.43"
   version="1.0">
  <metadata
     id="metadata14809">
    <rdf:RDF>
      <cc:Work
         rdf:about="">
        <dc:title>Australia - Norfolk Islands</dc:title>
        <dc:description />
        <dc:subject>
          <rdf:Bag>
            <rdf:li />
            <rdf:li>oceania</rdf:li>
            <rdf:li>australia</rdf:li>
            <rdf:li>flag</rdf:li>
            <rdf:li>sign</rdf:li>
          </rdf:Bag>
        </dc:subject>
        <dc:publisher>
          <cc:Agent
             rdf:about="http://www.openclipart.org">
            <dc:title>Tobias Jakobs</dc:title>
          </cc:Agent>
        </dc:publisher>
        <dc:creator>
          <cc:Agent>
            <dc:title>Tobias Jakobs</dc:title>
          </cc:Agent>
        </dc:creator>
        <dc:rights>
          <cc:Agent>
            <dc:title>Tobias Jakobs</dc:title>
          </cc:Agent>
        </dc:rights>
        <dc:date />
        <dc:format>image/svg+xml</dc:format>
        <dc:type
           rdf:resource="http://purl.org/dc/dcmitype/StillImage" />
        <cc:license
           rdf:resource="http://web.resource.org/cc/PublicDomain" />
        <dc:language>en</dc:language>
      </cc:Work>
      <cc:License
         rdf:about="http://web.resource.org/cc/PublicDomain">
        <cc:permits
           rdf:resource="http://web.resource.org/cc/Reproduction" />
        <cc:permits
           rdf:resource="http://web.resource.org/cc/Distribution" />
        <cc:permits
           rdf:resource="http://web.resource.org/cc/DerivativeWorks" />
      </cc:License>
    </rdf:RDF>
  </metadata>
  <defs
     id="defs573" />
  <sodipodi:namedview
     id="base"
     inkscape:zoom="0.5"
     inkscape:cx="499.42081"
     inkscape:cy="272.22819"
     inkscape:window-width="756"
     inkscape:window-height="540"
     inkscape:window-x="22"
     inkscape:window-y="29"
     inkscape:current-layer="svg571" />
  <rect
     height="499.99976"
     id="rect609"
     style="font-size:12px;fill:#ffffff;fill-opacity:1;fill-rule:evenodd;stroke-width:1pt"
     width="391.32126"
     x="304.35699"
     y="0.00014240025" />
  <path
     style="fill:#198200;fill-opacity:1;fill-rule:evenodd;stroke:#198200;stroke-width:1.25;stroke-linecap:round;stroke-linejoin:round;stroke-dasharray:none;stroke-opacity:1"
     d="M 499.71577,22.647197 C 498.84492,32.126634 497.97229,41.610455 497.10144,51.089891 C 493.90931,51.573601 490.71818,52.055192 487.52604,52.538799 C 487.52603,52.538798 494.17641,56.294419 495.33755,60.066821 C 495.52335,60.671011 495.44909,61.171084 495.18006,61.547227 C 495.09188,61.664927 494.95636,61.795494 494.83358,61.893705 C 492.90711,63.382597 487.21106,62.681155 487.21106,62.681155 C 487.21105,62.681154 494.75698,69.084522 495.33755,71.406101 C 495.35113,71.460511 495.36793,71.51108 495.36905,71.563591 C 495.3683,71.60709 495.37801,71.678878 495.36905,71.721081 C 495.3606,71.754639 495.31952,71.814334 495.30605,71.847073 C 495.2546,71.960953 495.16171,72.089408 495.05407,72.193551 C 493.27999,73.841562 484.91171,74.303917 484.91171,74.303917 C 484.9117,74.303919 494.19001,80.957353 494.77058,84.729755 C 495.29672,88.148587 494.85536,90.151039 494.77058,90.493889 C 494.1222,89.936918 479.16004,77.291514 469.50919,80.981493 C 469.02849,81.23263 468.74401,81.471943 468.62724,81.705947 C 468.57594,81.82277 468.56509,81.968148 468.59575,82.083923 C 469.27188,84.187267 482.9201,86.342055 492.43973,94.620127 C 492.20357,96.69179 465.30698,88.030297 464.31202,93.454701 C 465.1533,94.984229 493.25827,99.058121 495.33755,102.74661 C 484.98705,103.13366 463.60445,100.45567 464.31202,103.88054 C 462.14899,107.83467 484.50778,105.60134 493.88864,108.82573 C 496.6383,111.95033 496.37295,114.57524 491.58929,114.90484 C 482.54809,110.5818 462.31303,107.36951 462.26465,112.88897 C 462.26513,112.89472 462.26354,112.91478 462.26465,112.92047 C 462.26638,112.92608 462.2938,112.94643 462.29615,112.95196 C 462.30506,112.96836 462.31326,112.99918 462.32764,113.01496 C 462.36001,113.04612 462.43167,113.08056 462.48513,113.10945 C 464.77019,114.25572 483.61354,113.69659 490.70734,118.40112 C 480.64915,120.68913 446.54236,113.75957 446.32666,117.1412 C 447.2983,118.72063 452.69505,125.65246 461.98117,125.36218 C 471.26729,125.07189 492.75219,129.1379 494.20362,132.03975 C 494.24895,132.13044 494.24837,132.2235 494.23512,132.29174 C 493.60632,134.31556 465.94275,126.11831 455.30359,131.15781 C 444.27676,136.38195 486.9238,133.215 493.88864,139.59927 C 500.85349,145.98354 479.96652,139.00081 479.96652,139.00081 C 479.96653,139.00081 450.96241,134.95395 446.61014,136.98494 C 442.25686,139.01694 437.31823,143.66251 437.31823,143.66251 C 437.31823,143.66251 440.21202,149.45285 443.11386,148.29272 C 443.55594,148.11583 443.8581,148.07962 444.02731,148.13523 C 444.03134,148.13691 444.05492,148.13343 444.0588,148.13523 C 444.06253,148.13715 444.08672,148.16467 444.0903,148.16673 C 444.09658,148.17156 444.11611,148.19292 444.1218,148.19823 C 444.12721,148.20376 444.14844,148.22374 444.1533,148.22972 C 444.15531,148.23305 444.18291,148.25779 444.1848,148.26122 C 444.19773,148.29037 444.21146,148.35166 444.21629,148.38721 C 444.28467,149.25775 442.23192,151.789 442.23192,151.789 C 442.23191,151.78901 482.87694,161.63578 491.87277,170.34132 C 500.86859,179.04787 440.21605,156.70269 440.21605,156.70269 C 440.21605,156.70268 415.83861,165.69751 441.66496,166.27808 C 438.78642,170.48946 442.85725,173.08154 443.11386,173.23914 C 443.11386,173.23914 486.07159,182.24378 490.42386,189.20862 C 494.77713,196.17346 461.11661,182.52298 453.5712,178.75129 C 446.29202,175.11122 426.03039,180.67641 424.87652,182.37356 C 424.86844,182.38704 424.85058,182.42358 424.84502,182.43655 C 424.84289,182.4429 424.84652,182.46183 424.84502,182.46805 C 424.84334,182.48022 424.84408,182.51943 424.84502,182.53105 C 424.84616,182.53672 424.84359,182.55686 424.84502,182.56254 C 424.84676,182.56825 424.843,182.58832 424.84502,182.59404 C 424.84734,182.59979 424.87391,182.61978 424.87652,182.62554 C 424.87942,182.63131 424.87334,182.65124 424.87652,182.65704 C 424.89039,182.68028 424.9212,182.72801 424.93952,182.75153 C 424.94437,182.75743 424.9659,182.77711 424.97102,182.78303 C 426.26902,184.21336 435.31352,186.18312 435.58584,188.64166 C 435.58697,188.65186 435.58511,188.66301 435.58584,188.67316 C 435.5903,188.8044 435.54981,188.95981 435.49135,189.08263 C 434.35209,191.29166 423.56141,192.23133 423.11263,194.3113 C 423.1065,194.34687 423.08114,194.40102 423.08114,194.43729 C 423.08113,196.75958 477.36353,208.07769 491.87277,220.26565 C 506.382,232.45361 449.22448,205.74507 449.22448,205.74507 C 449.22449,205.74507 452.41661,210.09608 449.22448,211.25722 C 446.03235,212.41736 434.69231,195.00753 416.12008,205.74507 C 412.73744,210.16285 432.336,213.66921 437.31823,214.15504 C 435.61684,218.52948 434.13315,219.97662 441.09799,224.32889 C 441.85966,224.80503 442.28728,225.09268 442.45241,225.24233 C 442.45763,225.2473 442.47936,225.26923 442.4839,225.27383 C 442.48778,225.27807 442.51218,225.30145 442.5154,225.30533 C 442.51732,225.30849 442.51413,225.33402 442.5154,225.33683 C 442.51478,225.3386 442.51664,225.36688 442.5154,225.36833 C 442.51234,225.36877 442.48756,225.36821 442.4839,225.36833 C 442.47965,225.36811 442.45724,225.36886 442.45241,225.36833 C 441.37362,225.19961 428.86107,218.76929 427.55385,218.50176 C 427.54185,218.4997 427.50055,218.50256 427.49086,218.50176 C 427.48719,218.50201 427.46243,218.50119 427.45936,218.50176 C 427.45936,219.08232 428.90827,226.06128 428.90827,226.06128 C 422.47864,220.83816 414.70695,219.26326 407.42663,224.61237 C 407.41673,224.92182 407.36254,229.92996 414.67117,233.02234 C 410.55174,241.43961 419.32632,238.82629 433.25499,246.66097 C 412.55299,241.25036 410.89595,251.30075 425.69547,253.62203 C 440.49498,255.94331 481.13094,257.39776 490.70734,269.875 C 492.72737,272.50713 493.27558,273.83069 492.8807,274.25322 C 491.28352,275.70074 476.58848,265.07256 474.45437,264.67783 C 474.44984,264.6808 474.42741,264.67417 474.42288,264.67783 C 474.41834,264.68217 474.39591,264.70432 474.39138,264.70933 C 474.3642,264.74334 474.3239,264.81057 474.29688,264.86682 C 473.77537,266.0213 473.28895,271.04043 473.28895,271.04043 C 467.0982,267.4572 461.41748,264.2429 454.01217,262.72495 C 453.4316,263.88508 453.55331,265.53357 452.97274,266.6937 C 446.25283,261.84753 440.39848,258.44047 430.64066,257.96876 C 430.25362,259.51695 429.86228,261.08227 429.47523,262.63046 C 429.47525,262.63045 421.33993,252.47349 405.37926,262.63046 C 396.4671,269.01976 439.04684,264.94392 446.01168,272.48933 C 452.97652,280.03375 447.46059,281.18278 447.46059,281.18278 C 441.6569,279.05502 435.87739,276.94794 430.07369,274.82019 C 430.07369,274.8202 409.45057,271.02808 403.64687,275.67063 C 397.84317,280.31419 488.37926,291.63508 490.99082,304.11333 C 492.75169,310.88061 469.71934,297.02703 449.79144,291.07315 C 449.02059,293.28831 448.23143,295.50406 447.46059,297.71923 C 446.98801,297.25167 439.2792,289.75357 430.64066,288.45882 C 430.63724,288.46259 430.6115,288.48291 430.60916,288.49032 C 430.60788,288.50125 430.60943,288.53897 430.60916,288.55331 C 430.62277,289.5057 432.37305,296.30182 432.37305,296.30182 C 432.37304,296.30183 410.05029,285.84323 398.73318,291.35664 C 387.41508,296.87005 438.18783,299.77114 442.83038,304.99527 C 443.33816,305.56655 443.5495,305.983 443.52334,306.25519 C 443.51563,306.30212 443.48283,306.37393 443.46034,306.41268 C 442.33888,308.05522 427.19819,301.98896 425.69547,304.99527 C 423.95375,308.47768 399.29334,298.62033 399.58363,303.26288 C 399.87392,307.90643 403.07991,310.50742 403.07991,310.50742 C 403.0799,310.50741 454.44382,315.43774 456.18553,321.53172 C 457.92625,327.62569 427.74284,318.06694 427.74284,318.06694 C 427.74284,318.06694 424.8231,322.39854 427.14438,324.42954 C 427.23505,324.50891 427.3074,324.58469 427.33337,324.61852 C 427.33412,324.62063 427.33321,324.64833 427.33337,324.65002 C 427.33001,324.64931 427.30579,324.65112 427.30187,324.65002 C 426.25276,324.30394 409.89875,313.59245 411.48987,321.8152 C 405.09048,319.26713 388.5689,311.3745 390.89018,317.46848 C 393.17732,323.47285 436.27048,332.02267 437.53872,332.27254 C 436.39912,332.36228 418.17425,333.88697 419.01789,338.66663 C 394.59218,323.78578 394.64969,332.70961 395.20541,333.40647 C 395.20653,333.40745 395.20428,333.43705 395.20541,333.43796 C 393.8332,333.22091 363.78297,325.73469 387.67738,338.66663 C 400.49224,345.60138 403.61466,348.30493 403.67837,349.34445 C 403.67878,349.36734 403.68092,349.41771 403.67837,349.43895 C 403.6737,349.46655 403.65641,349.50861 403.64687,349.53344 C 403.6442,349.53948 403.61833,349.55906 403.61537,349.56494 C 403.60567,349.58207 403.59598,349.61223 403.58387,349.62794 C 403.57958,349.63302 403.55692,349.6545 403.55238,349.65943 C 403.54759,349.66421 403.52591,349.6863 403.52088,349.69093 C 403.51562,349.69542 403.49486,349.71809 403.48938,349.72243 C 403.48368,349.72663 403.46381,349.74987 403.45788,349.75393 C 402.96111,350.07171 401.76069,349.93867 401.41051,349.94292 C 401.39528,349.94347 401.35835,349.94157 401.34752,349.94292 C 401.34144,349.94518 401.31697,349.97109 401.31602,349.97441 C 401.32055,349.97895 401.342,349.99845 401.34752,350.00591 C 401.68844,350.51274 403.5632,355.63079 403.45788,356.526 C 403.45542,356.54039 403.43009,356.57728 403.42638,356.58899 C 403.42422,356.59415 403.42888,356.61603 403.42638,356.62049 C 403.42489,356.62218 403.39647,356.61898 403.39489,356.62049 C 403.39322,356.62182 403.39663,356.65085 403.39489,356.65199 C 403.39288,356.65256 403.36548,356.65161 403.36339,356.65199 C 403.36065,356.65173 403.33511,356.65251 403.33189,356.65199 C 402.28472,356.38821 386.45857,347.93059 381.03131,347.36008 C 375.51688,346.7795 349.3932,354.60638 377.25155,366.79435 C 405.1099,378.9823 422.22162,363.88721 437.60171,365.62892 C 452.98181,367.36961 460.25029,369.98698 458.79987,374.92083 C 457.34845,379.85368 443.06699,358.74799 428.05782,376.9997 C 410.9844,373.62111 399.40069,371.66595 408.21408,384.21274 C 380.33154,373.79271 363.30474,387.39177 398.4182,392.90619 C 432.92289,393.92319 454.13816,384.49622 454.13816,384.49622 C 454.13816,384.49623 459.95899,395.25443 468.37526,387.70902 C 476.39605,380.51825 477.027,389.66996 477.32069,390.54384 C 477.32542,390.55591 477.34758,390.56793 477.35219,390.57534 C 477.35448,390.57784 477.34992,390.60557 477.35219,390.60683 C 477.35445,390.60683 477.38051,390.60726 477.38369,390.60683 C 478.00339,390.45115 485.47867,387.11056 485.47867,387.11056 C 486.15602,387.11057 486.84871,387.11056 487.52604,387.11056 C 487.52603,410.32535 487.52604,433.53785 487.52604,456.75263 C 496.90891,456.84939 506.27088,456.93935 515.65376,457.03612 C 515.65375,457.03612 506.65768,396.40095 511.59052,388.27598 C 516.37018,380.40492 520.88893,381.25456 521.16591,381.31492 C 521.1659,381.31492 539.45113,386.81599 541.48212,385.94513 C 541.50593,385.93493 541.55397,385.92525 541.57661,385.91363 C 541.59146,385.90558 541.62525,385.8908 541.63961,385.88213 C 541.67489,385.85973 541.73317,385.81368 541.7656,385.78764 C 541.77198,385.78229 541.79083,385.76163 541.7971,385.75614 C 543.28312,384.39949 541.76895,379.04619 551.05751,379.86602 C 553.92544,378.8228 552.83115,374.2507 554.67978,373.12544 C 554.71238,373.10639 554.77132,373.07937 554.80577,373.06245 C 554.87561,373.0297 554.98001,372.99167 555.05776,372.96795 C 555.16606,372.93695 555.31104,372.91744 555.43573,372.90496 C 558.33761,372.61467 614.33876,388.56173 626.52672,373.47192 C 623.3346,365.05667 612.29365,372.89815 609.39181,373.18844 C 606.78022,373.18845 595.74435,367.96531 589.35908,373.18844 C 583.55539,368.83618 557.16812,365.9439 557.16812,365.9439 C 553.68568,362.46149 620.13968,367.67352 623.91238,365.06196 C 631.74709,357.22627 609.40944,358.10367 605.92703,360.71523 C 599.73627,356.94254 591.95754,357.22173 587.21721,359.83329 C 584.94431,354.39647 563.36693,356.75127 551.37249,355.20308 C 547.53323,352.95136 548.17255,351.65893 550.77403,350.2579 C 575.82731,351.32228 600.75304,354.59353 625.92826,353.47069 C 632.73283,344.59985 617.36206,341.25451 607.9429,348.80899 C 602.41334,339.71539 591.10885,348.51341 583.56345,347.64356 C 576.01905,346.7727 579.5002,337.49969 589.0756,338.95011 C 598.65203,340.40154 615.77506,338.3582 618.9672,334.00493 C 622.15832,329.65267 617.06169,325.24319 601.26532,329.37472 C 595.91922,324.14958 584.16317,329.36641 578.64976,331.10711 C 571.31398,327.0149 554.24687,330.53763 548.44318,331.98906 C 542.76144,328.45725 578.33478,322.69715 578.33478,322.69715 C 592.0659,322.45424 599.81087,320.07853 604.16314,318.91739 C 624.92059,307.79178 603.87411,306.60998 592.98135,314.69665 C 586.22012,309.41809 579.79855,315.153 573.70457,317.185 C 567.99149,319.08906 557.42635,320.47599 556.12869,319.92532 C 556.11344,319.91824 556.07801,319.90152 556.06569,319.89382 C 556.06225,319.89112 556.0373,319.8651 556.03419,319.86233 C 556.03211,319.85934 556.00444,319.83388 556.0027,319.83083 C 556.00164,319.82764 556.0034,319.80258 556.0027,319.79933 C 556.0027,319.79593 556.00219,319.77151 556.0027,319.76783 C 556.00718,319.75511 556.02532,319.72001 556.03419,319.70484 C 556.89001,318.37799 572.53915,308.77503 572.53915,308.77503 C 572.53915,308.77502 592.85561,307.30823 596.9186,306.72766 C 599.39447,306.37387 608.0715,302.2661 608.06889,300.74304 C 607.99614,299.79762 604.38081,299.88445 593.42232,302.66442 C 583.55563,303.53528 577.76076,302.97259 573.98805,303.26288 C 567.92053,302.63558 565.36423,301.99599 564.85363,301.436 C 564.83447,301.4124 564.80272,301.3649 564.79064,301.3415 C 564.74828,301.2404 564.77569,301.12355 564.85363,301.02652 C 564.87358,301.00421 564.92245,300.9541 564.94813,300.93203 C 566.43547,299.74409 576.03542,298.88466 576.03542,298.88466 C 576.03541,298.88467 605.34312,296.19693 607.28144,294.66393 C 607.28833,294.65781 607.30693,294.63851 607.31294,294.63243 C 607.32315,294.62034 607.33787,294.58136 607.34444,294.56943 C 607.34679,294.5635 607.37451,294.54382 607.37593,294.53793 C 607.979,282.55521 582.51223,288.0885 581.83106,288.17534 C 581.90389,279.74962 558.84659,288.05164 557.76658,288.17534 C 557.7644,288.17503 557.73655,288.17591 557.73509,288.17534 C 556.74308,287.59088 556.31076,286.9742 556.22318,286.41145 C 556.19469,286.19693 556.22193,285.95547 556.28618,285.74999 C 556.86373,284.01267 560.34942,282.66319 560.34942,282.66319 C 566.73367,281.11601 576.27909,280.63295 578.77575,278.59995 C 578.77574,278.59994 596.79462,278.44145 598.93447,273.65476 C 594.51269,261.45572 560.80072,275.81426 556.28618,278.00148 C 555.38161,278.00148 554.82764,277.77422 554.55379,277.40302 C 553.07151,275.23726 560.38683,268.10519 560.6329,267.85913 C 560.63517,267.85686 560.65883,267.83001 560.6644,267.82763 C 561.77924,267.51136 588.69502,266.13413 601.5488,248.70834 C 602.45598,237.9335 586.17778,254.78746 586.17778,254.78746 C 584.96221,240.81343 568.47691,255.67369 558.90051,256.83483 C 549.32511,257.99496 549.04466,252.47702 555.71921,251.60616 C 562.39276,250.73631 569.93187,251.30579 573.70457,241.14882 C 577.4763,230.99184 588.80849,241.74023 590.83948,237.96753 C 592.80701,234.31272 587.13176,231.19727 586.77624,231.00647 C 586.77625,231.00648 595.18596,222.27472 581.54757,222.565 C 568.04643,222.85236 550.59152,220.87292 550.23856,220.83261 C 551.08527,220.50944 564.83684,215.32273 577.76781,215.60395 C 591.11692,215.89422 583.85877,206.02855 571.09024,206.02855 C 558.32272,206.02854 551.65597,201.68183 551.65597,201.68183 C 558.91111,198.9735 566.16597,196.26367 573.42109,193.55535 C 572.93727,191.52435 572.45599,189.50722 571.97218,187.47623 C 571.97217,187.47623 584.73517,177.31195 566.74351,179.63323 C 548.75186,181.95551 546.71079,182.24756 546.71079,182.24756 C 546.71078,182.24756 511.29361,187.6749 510.45659,187.75971 C 510.45432,187.75971 510.42848,187.76007 510.42509,187.75971 C 510.08227,187.70602 506.57423,186.61603 505.92088,185.27137 C 505.90075,185.22731 505.87163,185.15849 505.85788,185.11388 C 505.84297,185.06023 505.83131,184.97924 505.82638,184.92489 C 505.82265,184.86136 505.8153,184.76872 505.82638,184.70441 C 505.97248,183.99578 507.06503,183.22954 509.85813,182.53105 C 519.14426,180.20978 551.9518,173.54479 556.88464,175.28651 C 557.52065,175.51089 557.98488,175.4602 558.27055,175.22351 C 560.12025,173.54974 553.96646,162.87478 538.86778,161.36439 C 521.45668,159.62369 510.74007,165.71111 510.74007,165.71111 C 510.74008,165.71112 499.41087,161.63401 509.85813,158.15159 C 520.30439,154.67018 536.85191,159.31702 536.85191,159.31702 C 536.8519,159.31702 555.41331,153.79529 540.03321,151.47402 C 524.65311,149.15173 519.80343,153.56196 512.75594,153.80487 C 509.94278,150.29323 536.90206,149.46419 538.5843,146.56033 C 535.74091,141.33519 519.06109,146.56033 509.29116,146.56033 C 505.13544,144.79745 504.86053,141.92912 509.57464,140.16624 C 519.5381,139.77919 528.90434,140.36429 538.86778,139.97725 C 538.57751,134.65736 538.87459,128.35121 538.5843,123.03132 C 525.9468,120.72214 511.12586,124.72239 504.031,124.38574 C 505.92894,118.58103 533.21553,117.08274 536.25345,115.5033 C 542.52281,107.66682 510.08216,115.38229 509.29116,115.5033 C 503.53282,114.6526 503.88157,111.01295 507.52727,108.82573 C 515.94252,107.85811 534.81437,110.05894 533.38713,104.35301 C 532.29355,99.006208 520.30311,101.86895 515.37028,103.03009 C 510.43745,104.19023 503.18055,103.31358 503.18055,103.31358 C 500.02167,99.060588 531.62904,100.79888 531.33976,97.517943 C 530.92754,93.750983 511.30401,96.345714 504.62946,96.635999 C 499.49588,93.093991 528.76419,90.738996 530.14284,90.273403 C 530.15024,90.269947 530.17054,90.245123 530.17434,90.241905 C 531.26795,80.595152 509.85787,90.241905 505.79488,90.241905 C 505.09656,90.241905 504.56797,90.067597 504.18849,89.769435 C 504.10367,89.700458 504.00756,89.597762 503.9365,89.517451 C 502.54172,87.890183 503.77901,84.162791 503.77901,84.162791 C 503.77901,84.162789 511.40864,80.734367 511.874,79.910561 C 511.87732,79.903985 511.90315,79.885283 511.9055,79.879063 C 511.90642,79.876044 511.90482,79.850494 511.9055,79.847565 C 511.90541,79.844915 511.90584,79.818622 511.9055,79.816067 C 511.90323,79.811534 511.87697,79.789278 511.874,79.784569 C 511.85568,79.760161 511.81432,79.718538 511.7795,79.690075 C 510.88386,79.000392 505.63594,77.259468 504.94444,77.201733 C 504.93924,77.201487 504.91748,77.201733 504.91294,77.201733 C 504.9087,77.20013 504.88555,77.172622 504.88144,77.170235 C 504.87349,77.163921 504.85736,77.148056 504.84994,77.138737 C 504.84637,77.133346 504.82189,77.11335 504.81845,77.107239 C 504.42318,76.295993 504.91294,70.524157 504.91294,70.524157 C 504.91294,70.524157 510.95851,65.993813 511.33853,64.193059 C 511.34132,64.17812 511.33655,64.144611 511.33853,64.130063 C 511.3401,64.115714 511.33779,64.081011 511.33853,64.067067 C 511.33885,64.053329 511.33907,64.017392 511.33853,64.004071 C 511.33757,63.990963 511.34037,63.953753 511.33853,63.941075 C 511.33739,63.934845 511.33989,63.915697 511.33853,63.909577 C 511.33377,63.891552 511.31384,63.863584 511.30703,63.846581 C 511.30477,63.840914 511.30951,63.820628 511.30703,63.815083 C 511.30434,63.809662 511.27843,63.788885 511.27554,63.783585 C 511.26933,63.773229 511.25106,63.761964 511.24404,63.752087 C 511.2329,63.737629 511.22546,63.702495 511.21254,63.689091 C 511.20803,63.684739 511.18574,63.661831 511.18104,63.657593 C 511.15662,63.636976 511.11562,63.612424 511.08655,63.594597 C 511.07456,63.587686 511.03625,63.569579 511.02355,63.563099 C 509.49676,62.829997 503.18055,65.012007 503.18055,65.012007 C 503.18054,63.077376 503.18055,61.151008 503.18055,59.216375 C 503.18054,59.216374 508.71059,58.615242 509.29116,56.003579 C 509.32518,55.850546 509.30791,55.700108 509.29116,55.562607 C 509.2832,55.508009 509.275,55.425832 509.25966,55.373619 C 509.22383,55.261342 509.16944,55.128653 509.10217,55.027141 C 509.09148,55.011648 509.05056,54.979391 509.03918,54.964145 C 507.77385,53.330759 502.61359,53.105763 502.61359,53.105763 C 501.64598,42.949196 500.68339,32.803765 499.71577,22.647197 z M 494.5501,122.11788 L 494.5501,126.11813 C 494.55011,126.11813 488.04235,125.7848 486.83309,124.76371 C 486.82749,124.75874 486.80693,124.73721 486.80159,124.73222 C 486.7965,124.72719 486.77492,124.70578 486.77009,124.70072 C 486.76553,124.69562 486.7429,124.67435 486.73859,124.66922 C 486.73455,124.66406 486.71088,124.64292 486.7071,124.63772 C 486.69658,124.62203 486.68363,124.59072 486.6756,124.57473 C 486.6732,124.56936 486.67771,124.54863 486.6756,124.54323 C 486.67377,124.53779 486.64564,124.5172 486.6441,124.51173 C 486.64285,124.50623 486.64505,124.48576 486.6441,124.48023 C 486.64279,124.46908 486.64421,124.42851 486.6441,124.41724 C 486.64435,124.41156 486.64355,124.39145 486.6441,124.38574 C 486.64497,124.37999 486.64292,124.36002 486.6441,124.35424 C 486.65009,124.33098 486.66445,124.28357 486.6756,124.25975 C 486.67871,124.25375 486.70365,124.23427 486.7071,124.22825 C 486.72223,124.204 486.74951,124.15858 486.77009,124.13375 C 486.77559,124.12751 486.79574,124.10853 486.80159,124.10226 C 486.81399,124.08963 486.85077,124.05204 486.86459,124.03926 C 486.90821,124.00071 486.96512,123.95314 487.02208,123.91327 C 489.20539,122.38467 493.5647,122.4207 494.42411,122.18088 C 494.43105,122.17875 494.4492,122.18305 494.4556,122.18088 C 494.46146,122.17865 494.48179,122.15166 494.4871,122.14938 C 494.49185,122.14705 494.51442,122.15177 494.5186,122.14938 C 494.52221,122.14694 494.54707,122.12038 494.5501,122.11788 z M 503.77901,127.44104 C 504.00389,127.44104 516.74233,127.55071 517.85862,129.20493 C 517.86721,129.219 517.88321,129.25363 517.89012,129.26793 C 517.8992,129.28954 517.91643,129.34031 517.92161,129.36242 C 517.92419,129.37728 517.92082,129.41033 517.92161,129.42542 C 517.92145,129.44822 517.92591,129.49659 517.92161,129.51991 C 517.91593,129.54341 517.90006,129.59038 517.89012,129.61441 C 516.91746,131.68067 504.031,132.92171 504.031,132.9217 L 503.77901,127.44104 z M 503.05456,135.34704 C 503.05836,135.34894 503.08144,135.34516 503.08606,135.34704 C 503.09149,135.34892 503.11134,135.34519 503.11755,135.34704 C 503.87379,135.54672 509.14961,135.71786 509.79513,136.60696 C 509.80071,136.61526 509.82185,136.63003 509.82663,136.63846 C 509.82882,136.6427 509.82465,136.66568 509.82663,136.66996 C 509.83017,136.67858 509.85543,136.6927 509.85813,136.70146 C 509.85925,136.70587 509.85721,136.72851 509.85813,136.73295 C 509.85861,136.73747 509.85786,136.75991 509.85813,136.76445 C 509.85817,136.76903 509.85831,136.79133 509.85813,136.79595 C 509.85771,136.8006 509.85876,136.82276 509.85813,136.82745 C 509.85726,136.83216 509.85922,136.8542 509.85813,136.85895 C 509.85656,136.86376 509.82843,136.88559 509.82663,136.89044 C 509.82458,136.89534 509.82892,136.91701 509.82663,136.92194 C 509.81905,136.93684 509.80492,136.96972 509.79513,136.98494 C 509.79162,136.99005 509.76739,137.01128 509.76363,137.01644 C 509.75961,137.02162 509.76791,137.04271 509.76363,137.04793 C 508.67002,138.38446 503.80143,138.74884 503.55853,138.74883 C 503.55663,138.74841 503.52892,138.74964 503.52703,138.74883 C 503.52513,138.74761 503.52892,138.71894 503.52703,138.71733 C 503.52325,138.71183 503.49931,138.69278 503.49553,138.68583 C 503.27296,138.23397 503.05455,135.34704 503.05456,135.34704 z M 464.21752,145.86737 C 468.37653,145.65136 476.63005,146.63076 492.12475,150.90705 C 492.12475,151.23681 492.4385,155.25451 492.31374,155.91524 C 492.3126,155.92043 492.28344,155.94206 492.28224,155.94673 C 492.28091,155.95036 492.28364,155.97515 492.28224,155.97823 C 492.27903,155.98104 492.25425,156.00924 492.25074,156.00973 C 492.00783,155.88777 464.06079,147.85679 461.5087,147.97774 C 461.43894,147.98108 461.35457,147.98394 461.28821,147.97774 C 461.23184,147.97133 461.15205,147.95893 461.09922,147.94624 C 461.02969,147.928 460.93996,147.87977 460.87874,147.85175 C 460.85622,147.84082 460.80536,147.83239 460.78424,147.82025 C 460.77737,147.81607 460.75946,147.79306 460.75274,147.78875 C 460.66775,147.73116 460.58372,147.64371 460.53226,147.56827 C 460.52853,147.56238 460.50427,147.54274 460.50076,147.53677 C 460.49422,147.52465 460.47485,147.48619 460.46926,147.47377 C 460.46671,147.46749 460.47156,147.44862 460.46926,147.44227 C 460.46517,147.42943 460.44082,147.39238 460.43776,147.37928 C 460.4365,147.37267 460.43875,147.35444 460.43776,147.34778 C 460.43632,147.33433 460.43809,147.29843 460.43776,147.28478 C 460.43801,147.27105 460.43636,147.2357 460.43776,147.22179 C 460.44275,147.18683 460.45657,147.13151 460.46926,147.0958 C 460.50355,147.00983 460.57428,146.89895 460.65825,146.81231 C 461.08561,146.39435 462.15579,145.97446 464.21752,145.86737 z M 478.7066,157.74212 C 483.16133,157.58229 493.83465,160.15017 494.42411,160.00998 C 494.4241,160.86106 494.89638,164.88377 494.36111,165.71111 C 494.35617,165.71799 494.33471,165.73626 494.32961,165.74261 C 494.32434,165.74844 494.30355,165.76883 494.29811,165.77411 C 494.29251,165.77885 494.27239,165.80143 494.26662,165.80561 C 494.25472,165.81282 494.21622,165.83221 494.20362,165.83711 C 494.19714,165.83896 494.17878,165.83586 494.17212,165.83711 C 494.15843,165.83839 494.12356,165.83832 494.10913,165.83711 C 494.10172,165.83586 494.08523,165.839 494.07763,165.83711 C 493.17049,165.61033 477.41961,160.60762 476.81672,158.56107 C 476.80876,158.52723 476.816,158.46721 476.81672,158.43508 C 476.82335,158.36376 476.85795,158.27659 476.91122,158.21459 C 476.91774,158.20783 476.9356,158.18973 476.94272,158.18309 C 476.94983,158.17645 476.96667,158.15807 476.97421,158.15159 C 477.27658,157.91192 477.90051,157.77104 478.7066,157.74212 z M 522.55182,168.76642 C 526.80592,168.68326 529.80942,169.04744 528.69393,170.34132 C 525.65601,173.86506 504.66096,176.76691 504.66096,176.76691 L 504.28298,170.34132 C 504.73387,170.27495 515.4013,168.90619 522.55182,168.76642 z M 462.45364,188.79915 C 466.02373,188.60907 474.3374,190.56973 492.84921,198.40604 L 492.9752,203.03624 C 492.97521,203.03624 461.62587,193.52838 460.53226,191.94895 C 459.99399,191.17157 458.99339,188.98338 462.45364,188.79915 z M 523.87474,195.69721 C 524.82851,195.64872 525.49985,195.74523 525.73312,195.98069 C 525.73865,195.98712 525.7597,196.00553 525.76462,196.01219 C 525.77753,196.03288 525.78885,196.08383 525.79611,196.10668 C 525.80147,196.13026 525.82811,196.17538 525.82761,196.20118 C 525.81522,196.33389 525.71499,196.51291 525.54413,196.70515 C 522.62716,199.98698 506.9603,203.25673 506.96031,203.25673 C 506.96031,203.25673 506.9603,199.12646 506.96031,199.0045 C 506.96289,199.00472 506.98859,199.00446 506.99181,199.0045 C 507.706,198.98013 519.20628,195.93458 523.87474,195.69721 z M 455.1461,196.26417 C 459.82628,196.01601 470.39413,198.49832 494.07763,209.71382 C 494.07762,209.83006 494.28845,213.69812 494.20362,214.06054 C 494.20186,214.06009 494.17517,214.06145 494.17212,214.06054 C 492.76799,213.60797 451.55533,199.13049 451.55533,199.13049 C 451.51151,198.97177 450.89139,196.48978 455.1461,196.26417 z M 533.60762,214.37552 C 534.80526,214.32544 535.59097,214.42874 535.78098,214.6905 C 535.7984,214.72071 535.81017,214.78171 535.81248,214.8165 C 535.80706,214.94231 535.70354,215.10288 535.4975,215.28897 C 531.76027,218.66417 507.93301,222.75324 507.0863,222.81699 C 507.0825,222.81699 507.05845,222.81746 507.0548,222.81699 C 507.05145,222.8156 507.02652,222.81883 507.02331,222.81699 C 507.02036,222.81427 506.99461,222.78863 506.99181,222.78549 C 506.9842,222.77355 506.96676,222.73803 506.96031,222.72249 C 506.95828,222.71693 506.96221,222.69693 506.96031,222.691 C 506.95675,222.67838 506.9319,222.64206 506.92881,222.628 C 506.77755,221.84569 507.27063,219.10601 507.30679,218.72225 C 507.30714,218.7167 507.30679,218.69455 507.30679,218.69075 C 507.30821,218.69217 507.33591,218.68955 507.33829,218.69075 C 507.34254,218.6915 507.36461,218.72172 507.36978,218.72225 C 507.37587,218.72255 507.39428,218.72217 507.40128,218.72225 C 508.92637,218.6969 527.18696,214.64402 533.60762,214.37552 z M 463.55607,224.92735 C 470.64939,224.56092 492.14245,234.41647 493.19568,234.72323 C 493.1989,234.7238 493.22503,234.72316 493.22718,234.72323 C 493.11666,235.16351 493.09844,238.72175 493.0067,239.29044 C 493.00343,239.30647 493.01016,239.34496 493.0067,239.35344 C 493.00582,239.35506 492.9761,239.35231 492.9752,239.35344 C 492.39576,239.0431 462.93883,226.81756 461.63469,227.79367 C 460.82213,225.86805 461.66451,225.02507 463.55607,224.92735 z M 526.93004,227.51019 C 528.40603,227.44507 529.48638,227.51089 529.82786,227.69918 C 529.86915,227.72519 529.90723,227.76207 529.92235,227.79367 C 529.92413,227.79909 529.92133,227.81959 529.92235,227.82517 C 529.9226,227.83091 529.92287,227.85076 529.92235,227.85667 C 529.91977,227.86881 529.92807,227.90686 529.92235,227.91966 C 529.9187,227.92624 529.89531,227.94443 529.89085,227.95116 C 529.86983,227.97879 529.83054,228.01528 529.79636,228.04566 C 527.60914,229.98996 507.30678,233.99878 507.30679,233.99878 C 507.30679,233.99878 507.21228,230.23741 507.21229,229.87254 C 507.7889,229.74938 520.89486,227.77646 526.93004,227.51019 z M 525.29215,240.51886 C 526.72059,240.47144 527.73338,240.55275 527.96948,240.80235 C 527.97359,240.80749 527.99748,240.82856 528.00097,240.83384 C 528.00673,240.84471 527.99772,240.88538 528.00097,240.89684 C 528.00196,240.90272 528.03212,240.92231 528.03247,240.92834 C 528.03218,240.93453 528.00192,240.9535 528.00097,240.95984 C 527.99778,240.97282 528.00682,241.00922 528.00097,241.02283 C 527.99738,241.0298 527.97375,241.0472 527.96948,241.05433 C 527.95239,241.0828 527.93192,241.11936 527.90648,241.14882 C 527.88587,241.1711 527.83711,241.22052 527.81199,241.24332 C 525.62071,243.13468 508.40922,246.75547 508.40922,246.75547 C 508.40922,246.75547 507.93675,242.6252 507.93675,242.50324 C 508.4142,242.51348 519.92119,240.69716 525.29215,240.51886 z M 452.65776,241.5583 C 456.81049,241.29574 467.10047,243.00693 492.50273,252.23612 L 493.35317,257.2128 C 493.35318,257.21281 451.05907,243.56004 449.85444,243.1332 C 449.85633,243.1332 449.85355,243.10509 449.85444,243.1017 C 449.85549,243.07552 449.84821,243.01152 449.85444,242.94421 C 449.86943,242.81927 449.93283,242.62239 450.07492,242.44024 C 450.37298,242.07484 451.05394,241.6597 452.65776,241.5583 z M 508.37772,252.36211 C 508.88739,252.47096 515.97925,252.70642 517.29165,253.81102 C 517.29756,253.81624 517.31751,253.83726 517.32315,253.84252 C 517.32854,253.84782 517.34952,253.86867 517.35465,253.87402 C 517.35951,253.8794 517.38155,253.90009 517.38615,253.90551 C 517.39912,253.9219 517.40715,253.95176 517.41765,253.96851 C 517.42086,253.97413 517.44621,253.99434 517.44914,254.00001 C 517.45975,254.02283 517.47471,254.07102 517.48064,254.0945 C 517.48183,254.10042 517.47976,254.12004 517.48064,254.126 C 517.48123,254.132 517.48037,254.15146 517.48064,254.1575 C 517.48058,254.16966 517.48195,254.20816 517.48064,254.22049 C 517.47967,254.2267 517.48193,254.24574 517.48064,254.25199 C 517.47742,254.26458 517.45367,254.30223 517.44914,254.31499 C 517.44655,254.32141 517.45207,254.34001 517.44914,254.34649 C 517.44263,254.35951 517.42551,254.39628 517.41765,254.40948 C 516.32404,256.11088 508.9132,256.74033 508.91319,256.74033 C 508.91319,256.74033 508.54908,253.40633 508.37772,252.36211 z M 525.54413,262.0635 C 527.19554,262.02391 528.38074,262.21285 528.63093,262.69346 C 528.77186,263.01915 528.50071,263.50025 527.71749,264.14236 C 521.64165,269.12459 508.40922,270.09549 508.40922,270.09549 C 508.40922,270.09549 508.40922,264.73578 508.40922,264.61483 C 508.41229,264.61509 508.43463,264.61525 508.44072,264.61483 C 509.19241,264.5255 520.06143,262.19491 525.54413,262.0635 z M 542.39556,267.16617 C 544.493,267.08671 545.39675,267.43831 545.67135,267.92212 C 545.69348,267.96504 545.72159,268.0345 545.73435,268.07961 C 545.7541,268.16154 545.77266,268.27579 545.76585,268.3631 C 545.69826,268.98737 545.02223,269.7354 544.50593,270.22148 C 542.43966,272.16579 509.51166,282.6002 509.51165,282.60019 C 509.51165,282.60019 509.26371,275.67896 509.38566,275.07217 C 528.63757,269.23778 538.05348,267.33068 542.39556,267.16617 z M 521.10291,286.75793 C 523.19635,286.67986 524.83328,286.80352 525.32364,287.29339 C 525.35355,287.32585 525.39813,287.38361 525.41814,287.41939 C 525.42892,287.44126 525.44255,287.49078 525.44964,287.51388 C 525.45547,287.5374 525.44761,287.58359 525.44964,287.60837 C 525.45088,287.65039 525.45935,287.72022 525.44964,287.76586 C 525.42574,287.85862 525.36239,287.97284 525.29215,288.08084 C 522.47496,290.84561 508.78718,291.26214 508.78719,291.26214 L 508.78719,287.82886 C 511.35754,287.74204 517.07915,286.90798 521.10291,286.75793 z M 534.80454,292.39607 C 535.4553,292.38013 535.85214,292.48642 535.90697,292.67955 C 535.90918,292.6945 535.90853,292.7263 535.90697,292.74255 C 535.87403,292.9032 535.68285,293.14689 535.27701,293.4355 C 529.80896,297.32311 509.25967,301.31 509.25966,301.31 C 509.25966,301.31 509.51429,298.59314 509.63764,297.93972 C 510.20922,297.93049 529.88774,292.51646 534.80454,292.39607 z M 546.33281,296.7113 C 548.75423,296.68846 550.60239,297.04576 551.65597,297.81373 C 551.65788,297.81373 551.68575,297.81321 551.68747,297.81373 C 551.68825,297.81671 551.68689,297.84177 551.68747,297.84522 C 551.68785,297.84915 551.6873,297.87233 551.68747,297.87672 C 551.68698,297.88731 551.68883,297.92736 551.68747,297.93972 C 551.58446,298.69292 550.04499,302.23627 544.63192,303.76685 C 537.8805,303.16381 509.22746,311.63464 508.6612,311.76734 C 508.6596,311.76565 508.63101,311.77068 508.6297,311.76734 C 508.62763,311.7575 508.63073,311.72021 508.6297,311.70434 C 508.61449,311.16172 509.00769,308.23955 509.00768,308.23956 C 518.88462,302.33284 536.83341,296.80088 546.33281,296.7113 z M 472.97397,313.34224 C 473.03729,313.34092 473.09566,313.34202 473.16296,313.34224 C 485.55754,314.67876 490.18648,319.31852 491.49479,321.18524 C 489.02342,325.52209 469.43555,315.79591 471.49356,313.72022 C 471.72916,313.50971 472.21414,313.35807 472.97397,313.34224 z M 544.00196,314.16119 C 544.49422,314.14242 544.94376,314.24314 545.26188,314.44467 C 545.39188,314.53163 545.52005,314.65635 545.60836,314.79115 C 545.72777,314.98461 545.80726,315.24638 545.82884,315.5471 C 544.53409,317.54782 537.83776,316.67444 537.41888,316.61803 C 537.75623,316.49772 541.62265,314.25187 544.00196,314.16119 z M 517.44914,327.64233 C 518.36814,327.60454 519.13167,327.69737 519.55951,327.95731 C 519.61126,327.99077 519.67606,328.04384 519.717,328.0833 C 519.73002,328.0968 519.76823,328.13211 519.78,328.1463 C 519.79669,328.16811 519.82924,328.21739 519.84299,328.24079 C 519.85574,328.26474 519.86478,328.30969 519.87449,328.33529 C 519.95251,328.5707 519.92206,328.89572 519.717,329.28023 C 517.77269,332.92593 509.25967,331.57957 509.25966,331.57958 L 509.25966,329.02824 C 509.26134,329.02896 509.28914,329.02765 509.29116,329.02824 C 509.77065,329.06893 514.46242,327.76516 517.44914,327.64233 z M 467.30433,337.24922 C 469.92346,337.11705 472.21268,338.83514 474.61186,340.21003 C 479.95796,339.11642 490.92782,341.06048 490.92783,341.06048 C 490.92783,341.06048 490.92782,345.54631 490.92783,345.91117 C 490.92783,345.91497 490.90296,345.93926 490.89633,345.94267 C 490.89139,345.94428 490.87137,345.94116 490.86483,345.94267 C 489.86632,346.11654 477.0112,345.55483 474.13939,343.73781 C 471.79758,343.73781 465.16825,340.23909 464.6585,338.44615 C 464.65461,338.43101 464.62999,338.39804 464.627,338.38315 C 464.6232,338.36102 464.62872,338.31021 464.627,338.28866 C 464.62631,338.27442 464.62674,338.23962 464.627,338.22566 C 464.62774,338.21184 464.62528,338.1762 464.627,338.16266 C 464.6281,338.15597 464.62566,338.13779 464.627,338.13117 C 464.63018,338.11806 464.65431,338.08097 464.6585,338.06817 C 464.66083,338.06185 464.6559,338.04292 464.6585,338.03667 C 465.57464,337.54846 466.46729,337.29146 467.30433,337.24922 z M 523.52826,339.64307 C 525.53919,339.53472 526.39173,340.15643 524.81968,342.3834 C 520.44523,348.58019 509.13367,346.03717 509.13367,346.03716 L 508.6612,342.19441 C 512.65104,342.35002 519.94355,339.83622 523.52826,339.64307 z M 481.25794,352.21077 C 485.83189,351.99755 490.80183,353.81718 490.80184,353.81717 C 490.91903,354.0506 493.26006,358.66555 491.17981,360.21126 C 491.10238,360.2669 491.01755,360.32176 490.92783,360.36875 C 488.37573,361.70528 476.17793,359.32428 475.46231,354.41563 C 476.89767,352.90056 479.02415,352.3149 481.25794,352.21077 z M 434.10544,354.60462 C 438.28853,354.3536 442.96102,356.93052 443.49184,357.18746 C 443.49888,357.19063 443.51934,357.18602 443.52334,357.18746 C 443.52333,357.33261 443.36585,361.84916 443.36585,361.84916 C 443.36585,361.84916 435.08515,359.54073 432.46754,354.8881 C 432.99241,354.745 433.55296,354.63777 434.10544,354.60462 z M 513.76388,355.23458 C 518.42931,355.20497 524.06572,356.30095 524.88267,357.88041 C 525.03693,358.20343 524.99122,358.55955 524.69368,358.91985 C 522.3845,361.71384 509.25967,359.17182 509.25966,359.17183 L 509.25966,355.77005 C 510.42738,355.42845 512.03594,355.24555 513.76388,355.23458 z "
     id="path575" />
  <rect
     height="499.99976"
     id="rect608"
     style="font-size:12px;fill:#198200;fill-opacity:1;fill-rule:evenodd;stroke-width:1pt"
     width="304.35699"
     x="0"
     y="6.2773302e-005" />
  <rect
     height="499.99976"
     id="rect610"
     style="font-size:12px;fill:#198200;fill-opacity:1;fill-rule:evenodd;stroke-width:1pt"
     width="304.32129"
     x="695.67822"
     y="2.8127428e-007" />
</svg>
