<?xml version="" encoding="UTF-8" standalone="no"?>
<svg width="450" height="300">
  <defs id="defs19404"/>
  <rect id="saffron" width="450" height="100" x="0" y="200" fill="#138808"/> <rect id="white" width="450" height="100" x="0" y="100" fill="#fff"/> <rect id="saffron" width="450" height="100" x="0" y="0" fill="#ff9933"/>
  <g transform="matrix(0.833333,0,0,0.833333,37.50011,25.00004)">
    <path d="M 269.9,150.0 C 269.9,174.8 249.8,195.0 224.9,195.0 C 200.1,195.0 179.9,174.8 179.9,150.0 C 179.9,125.1 200.1,104.9 224.9,104.9 C 249.8,104.9 269.9,125.1 269.9,150.0 L 269.9,150.0 z " fill="#000080" fill-opacity="1" fill-rule="nonzero" stroke="none" stroke-width="1.875" stroke-linecap="round" stroke-linejoin="round" stroke-miterlimit="4" stroke-opacity="1"/>
    <path d="M 224.9,149.9 L 223.6,165.7 L 224.8,189.6 C 223.9,189.6 223.1,189.6 222.3,189.5 C 222.5,188.1 221.5,186.9 220.1,186.7 C 218.7,186.5 217.5,187.5 217.3,188.8 C 216.5,188.7 215.7,188.5 214.9,188.3 L 222.2,165.6 L 224.9,149.9 z M 224.9,149.9 L 219.5,164.9 L 214.5,188.2 C 213.7,188.0 212.9,187.7 212.1,187.5 C 212.7,186.2 212.0,184.7 210.8,184.2 C 209.5,183.7 208.0,184.3 207.5,185.5 C 206.7,185.2 206.0,184.8 205.3,184.4 L 218.2,164.3 L 224.9,149.9 z M 224.9,149.9 L 215.9,162.9 L 205.0,184.2 C 204.3,183.8 203.5,183.3 202.9,182.9 C 203.7,181.8 203.5,180.2 202.4,179.3 C 201.3,178.5 199.7,178.7 198.9,179.8 C 198.2,179.3 197.6,178.7 197.0,178.1 L 214.7,162.1 L 224.9,149.9 z M 224.9,149.9 L 212.8,160.2 L 196.8,177.9 C 196.2,177.3 195.6,176.7 195.1,176.0 C 196.2,175.2 196.4,173.6 195.6,172.5 C 194.7,171.4 193.1,171.2 192.0,172.0 C 191.6,171.4 191.1,170.6 190.7,169.9 L 212.0,159.0 L 224.9,149.9 z M 224.9,149.9 L 210.6,156.7 L 190.5,169.6 C 190.1,168.9 189.7,168.2 189.4,167.4 C 190.6,166.9 191.2,165.4 190.7,164.1 C 190.2,162.9 188.7,162.2 187.4,162.8 C 187.2,162.0 186.9,161.2 186.7,160.4 L 210.0,155.4 L 224.9,149.9 z M 224.9,149.9 L 209.3,152.7 L 186.6,160.0 C 186.4,159.2 186.2,158.4 186.1,157.6 C 187.4,157.4 188.4,156.2 188.2,154.8 C 188.0,153.4 186.8,152.4 185.4,152.6 C 185.3,151.8 185.3,151.0 185.3,150.1 L 209.2,151.3 L 224.9,149.9 z M 224.9,149.9 L 209.2,148.6 L 185.3,149.8 C 185.3,148.9 185.3,148.1 185.4,147.3 C 186.8,147.5 188.0,146.5 188.2,145.1 C 188.4,143.7 187.4,142.5 186.1,142.3 C 186.2,141.5 186.4,140.7 186.6,139.9 L 209.3,147.2 L 224.9,149.9 z M 224.9,149.9 L 210.0,144.5 L 186.7,139.5 C 186.9,138.7 187.2,137.9 187.4,137.1 C 188.7,137.7 190.2,137.0 190.7,135.8 C 191.2,134.5 190.6,133.0 189.4,132.5 C 189.7,131.7 190.1,131.0 190.5,130.3 L 210.6,143.2 L 224.9,149.9 z M 224.9,149.9 L 212.0,140.9 L 190.7,130.0 C 191.1,129.3 191.6,128.5 192.0,127.9 C 193.1,128.7 194.7,128.5 195.6,127.4 C 196.4,126.3 196.2,124.7 195.1,123.9 C 195.6,123.2 196.2,122.6 196.8,122.0 L 212.8,139.7 L 224.9,149.9 z M 224.9,149.9 L 214.7,137.8 L 197.0,121.8 C 197.6,121.2 198.2,120.6 198.9,120.1 C 199.7,121.2 201.3,121.4 202.4,120.6 C 203.5,119.7 203.7,118.1 202.9,117.0 C 203.5,116.6 204.3,116.1 205.0,115.7 L 215.9,137.0 L 224.9,149.9 z M 224.9,149.9 L 218.2,135.6 L 205.3,115.5 C 206.0,115.1 206.7,114.7 207.5,114.4 C 208.0,115.6 209.5,116.2 210.8,115.7 C 212.0,115.2 212.7,113.7 212.1,112.4 C 212.9,112.2 213.7,111.9 214.5,111.7 L 219.5,135.0 L 224.9,149.9 z M 224.9,149.9 L 222.2,134.3 L 214.9,111.6 C 215.7,111.4 216.5,111.2 217.3,111.1 C 217.5,112.4 218.7,113.4 220.1,113.2 C 221.5,113.0 222.5,111.8 222.3,110.4 C 223.1,110.3 223.9,110.3 224.8,110.3 L 223.6,134.2 L 224.9,149.9 z M 224.9,149.9 L 226.3,134.2 L 225.1,110.3 C 226.0,110.3 226.8,110.3 227.6,110.4 C 227.4,111.8 228.4,113.0 229.8,113.2 C 231.2,113.4 232.4,112.4 232.6,111.1 C 233.4,111.2 234.2,111.4 235.0,111.6 L 227.7,134.3 L 224.9,149.9 z M 224.9,149.9 L 230.4,135.0 L 235.4,111.7 C 236.2,111.9 237.0,112.2 237.8,112.4 C 237.2,113.7 237.9,115.2 239.1,115.7 C 240.4,116.2 241.9,115.6 242.4,114.4 C 243.2,114.7 243.9,115.1 244.6,115.5 L 231.7,135.6 L 224.9,149.9 z M 224.9,149.9 L 234.0,137.0 L 244.9,115.7 C 245.6,116.1 246.4,116.6 247.0,117.0 C 246.2,118.1 246.4,119.7 247.5,120.6 C 248.6,121.4 250.2,121.2 251.0,120.1 C 251.7,120.6 252.3,121.2 252.9,121.8 L 235.2,137.8 L 224.9,149.9 z M 224.9,149.9 L 237.1,139.7 L 253.1,122.0 C 253.7,122.6 254.3,123.2 254.8,123.9 C 253.7,124.7 253.5,126.3 254.3,127.4 C 255.2,128.5 256.8,128.7 257.9,127.9 C 258.3,128.5 258.8,129.3 259.2,130.0 L 237.9,140.9 L 224.9,149.9 z M 224.9,149.9 L 239.3,143.2 L 259.4,130.3 C 259.8,131.0 260.2,131.7 260.5,132.5 C 259.3,133.0 258.7,134.5 259.2,135.8 C 259.7,137.0 261.2,137.7 262.5,137.1 C 262.7,137.9 263.0,138.7 263.2,139.5 L 239.9,144.5 L 224.9,149.9 z M 224.9,149.9 L 240.6,147.2 L 263.3,139.9 C 263.5,140.7 263.7,141.5 263.8,142.3 C 262.5,142.5 261.5,143.7 261.7,145.1 C 261.9,146.5 263.1,147.5 264.5,147.3 C 264.6,148.1 264.6,148.9 264.6,149.8 L 240.7,148.6 L 224.9,149.9 z M 224.9,149.9 L 240.7,151.3 L 264.6,150.1 C 264.6,151.0 264.6,151.8 264.5,152.6 C 263.1,152.4 261.9,153.4 261.7,154.8 C 261.5,156.2 262.5,157.4 263.8,157.6 C 263.7,158.4 263.5,159.2 263.3,160.0 L 240.6,152.7 L 224.9,149.9 z M 224.9,149.9 L 239.9,155.4 L 263.2,160.4 C 263.0,161.2 262.7,162.0 262.5,162.8 C 261.2,162.2 259.7,162.9 259.2,164.1 C 258.7,165.4 259.3,166.9 260.5,167.4 C 260.2,168.2 259.8,168.9 259.4,169.6 L 239.3,156.7 L 224.9,149.9 z M 224.9,149.9 L 237.9,159.0 L 259.2,169.9 C 258.8,170.6 258.3,171.4 257.9,172.0 C 256.8,171.2 255.2,171.4 254.3,172.5 C 253.5,173.6 253.7,175.2 254.8,176.0 C 254.3,176.7 253.7,177.3 253.1,177.9 L 237.1,160.2 L 224.9,149.9 z M 224.9,149.9 L 235.2,162.1 L 252.9,178.1 C 252.3,178.7 251.7,179.3 251.0,179.8 C 250.2,178.7 248.6,178.5 247.5,179.3 C 246.4,180.2 246.2,181.8 247.0,182.9 C 246.4,183.3 245.6,183.8 244.9,184.2 L 234.0,162.9 L 224.9,149.9 z M 224.9,149.9 L 231.7,164.3 L 244.6,184.4 C 243.9,184.8 243.2,185.2 242.4,185.5 C 241.9,184.3 240.4,183.7 239.1,184.2 C 237.9,184.7 237.2,186.2 237.8,187.5 C 237.0,187.7 236.2,188.0 235.4,188.2 L 230.4,164.9 L 224.9,149.9 z M 224.9,149.9 L 227.7,165.6 L 235.0,188.3 C 234.2,188.5 233.4,188.7 232.6,188.8 C 232.4,187.5 231.2,186.5 229.8,186.7 C 228.4,186.9 227.4,188.1 227.6,189.5 C 226.8,189.6 226.0,189.6 225.1,189.6 L 226.3,165.7 L 224.9,149.9 z " fill="#ffffff" fill-opacity="1" fill-rule="evenodd" stroke="none" stroke-width="0.25pt" stroke-linecap="butt" stroke-linejoin="miter" stroke-opacity="1"/>
    <path d="M 233.0,149.9 C 233.0,154.4 229.4,158.0 224.9,158.0 C 220.5,158.0 216.9,154.4 216.9,149.9 C 216.9,145.5 220.5,141.9 224.9,141.9 C 229.4,141.9 233.0,145.5 233.0,149.9 z " fill="#000080" fill-opacity="1" fill-rule="nonzero" stroke="none" stroke-width="1.875" stroke-linecap="round" stroke-linejoin="round" stroke-miterlimit="4" stroke-opacity="1"/>
  </g>
</svg>
