<?xml version="1.0" encoding="UTF-8" standalone="no"?>
<svg xmlns="http://www.w3.org/2000/svg" xmlns:xlink="http://www.w3.org/1999/xlink" version="1.1" width="1000" height="600" viewBox="0 0 500 300" id="Kyrgyzstan_svg">
<desc>Flag of Kyrgyzstan</desc>
<defs>
<clipPath id="clip">
<circle cy="-39" r="46"/>
</clipPath>
</defs>
<rect width="500" height="300" fill="#e8112d"/>
<g transform="translate(250,150)">
<g id="quarter" fill="#f9d616">
<path id="b" d="M4.2,-54 C0,-65 9,-82 0,-90 C3,-78 -7,-65 -4.2,-54 C-1.4,-43 8.4,-43 4.2,-54 z"/>
<use xlink:href="#b" transform="rotate(9)"/>
<use xlink:href="#b" transform="rotate(18)"/>
<use xlink:href="#b" transform="rotate(27)"/>
<use xlink:href="#b" transform="rotate(36)"/>
<use xlink:href="#b" transform="rotate(45)"/>
<use xlink:href="#b" transform="rotate(54)"/>
<use xlink:href="#b" transform="rotate(63)"/>
<use xlink:href="#b" transform="rotate(72)"/>
<use xlink:href="#b" transform="rotate(81)"/>
</g>
<use xlink:href="#quarter" transform="rotate(90)"/>
<use xlink:href="#quarter" transform="rotate(180)"/>
<use xlink:href="#quarter" transform="rotate(270)"/>
<circle r="54" fill="#e8112d"/>
<circle cy="-3" r="45" fill="#f9d616"/>
<g transform="translate(0,36)" clip-path="url(#clip)">
<g id="arches" fill="#e8112d">
<path d="M45,-63.63961 A63.63961,63.63961 0 0,0 45,63.63961 L41.4,66.10471 A66.10471,66.10471 0 0,1 41.4,-66.10471 z"/>
<path d="M39,-67.84916 A67.84916,67.84916 0 0,0 39,67.84916 L35.4,70.60241  A70.60241,70.60241 0 0,1 35.4,-70.60241 z"/>
<path d="M33,-72.52090 A72.52090,72.52090 0 0,0 33,72.52090 L29.4,75.51047 A75.51047,75.51047 0 0,1 29.4,-75.51047 z"/>
</g>
<use xlink:href="#arches" transform="scale(-1,1)"/>
</g>
</g>
</svg>
