<?xml version="1.0" encoding="UTF-8" standalone="no"?>
<!-- Created with Inkscape (http://www.inkscape.org/) -->
<svg
   xmlns:dc="http://purl.org/dc/elements/1.1/"
   xmlns:cc="http://web.resource.org/cc/"
   xmlns:rdf="http://www.w3.org/1999/02/22-rdf-syntax-ns#"
   xmlns:svg="http://www.w3.org/2000/svg"
   xmlns="http://www.w3.org/2000/svg"
   xmlns:sodipodi="http://inkscape.sourceforge.net/DTD/sodipodi-0.dtd"
   xmlns:inkscape="http://www.inkscape.org/namespaces/inkscape"
   version="1.0"
   x="0.0000000"
   y="0.0000000"
   width="450.00000"
   height="300.00000"
   id="svg6084"
   sodipodi:version="0.32"
   inkscape:version="0.43"
   sodipodi:docname="Flag_of_Saint_Kitts_and_Nevis.svg"
   sodipodi:docbase="C:\Documents and Settings\David Nelson\Archives\Svg">
  <metadata
     id="metadata4448">
    <rdf:RDF>
      <cc:Work
         rdf:about="">
        <dc:format>image/svg+xml</dc:format>
        <dc:type
           rdf:resource="http://purl.org/dc/dcmitype/StillImage" />
      </cc:Work>
    </rdf:RDF>
  </metadata>
  <sodipodi:namedview
     inkscape:window-height="540"
     inkscape:window-width="756"
     inkscape:pageshadow="2"
     inkscape:pageopacity="0.0"
     borderopacity="1.0"
     bordercolor="#666666"
     pagecolor="#ffffff"
     id="base"
     inkscape:zoom="1"
     inkscape:cx="225"
     inkscape:cy="150"
     inkscape:window-x="58"
     inkscape:window-y="123"
     inkscape:current-layer="svg6084" />
  <defs
     id="defs3" />
  <rect
     id="rect6094"
     style="fill:#ce1126;fill-opacity:1;stroke:none;stroke-width:2.5;stroke-linecap:butt;stroke-linejoin:miter;stroke-miterlimit:4;stroke-opacity:1"
     y="0.00023828125"
     x="0"
     height="300"
     width="450" />
  <path
     id="path6716"
     style="fill:#009e49;fill-opacity:1;fill-rule:evenodd;stroke:none;stroke-width:0.25pt;stroke-linecap:butt;stroke-linejoin:miter;stroke-opacity:1"
     d="M -1.110223e-014,0.000232 L 450,0.000232 L -1.110223e-014,300.00023 L -1.110223e-014,0.000232 z " />
  <path
     sodipodi:type="star"
     style="opacity:1;fill:#d61517;fill-opacity:1;fill-rule:evenodd;stroke:none;stroke-width:1;stroke-linecap:round;stroke-linejoin:miter;stroke-miterlimit:4;stroke-dasharray:none;stroke-dashoffset:0.99999998;stroke-opacity:1"
     id="path4456"
     sodipodi:sides="10"
     sodipodi:cx="115.0134"
     sodipodi:cy="189.00804"
     sodipodi:r1="32.181633"
     sodipodi:r2="12.293383"
     sodipodi:arg1="-1.5707963"
     sodipodi:arg2="-1.256637"
     inkscape:flatsided="false"
     inkscape:rounded="0"
     inkscape:randomized="0"
     d="M 115.0134,156.82641 L 118.81226,177.31634 L 133.92929,162.97255 L 124.95895,181.78217 L 145.61995,179.06337 L 127.30678,189.00804 L 145.61995,198.95271 L 124.95895,196.23391 L 133.92929,215.04353 L 118.81226,200.69974 L 115.0134,221.18967 L 111.21453,200.69974 L 96.097507,215.04353 L 105.06784,196.23391 L 84.406845,198.95271 L 102.72001,189.00804 L 84.406846,179.06337 L 105.06784,181.78217 L 96.097509,162.97255 L 111.21453,177.31634 L 115.0134,156.82641 z "
     transform="matrix(1.553681e-5,0,0,1.553681e-5,84.40553,221.1862)" />
  <path
     style="opacity:1;fill:#fcd116;fill-opacity:1;fill-rule:evenodd;stroke:none;stroke-width:1;stroke-linecap:round;stroke-linejoin:miter;stroke-miterlimit:4;stroke-dasharray:none;stroke-dashoffset:0.99999998;stroke-opacity:1"
     d="M 355.375 0 L 0 236.9375 L 0 300 L 94.625 300 L 450 63.0625 L 450 0 L 355.375 0 z "
     id="rect4470" />
  <path
     style="opacity:1;fill:#000000;fill-opacity:1;fill-rule:evenodd;stroke:none;stroke-width:1;stroke-linecap:round;stroke-linejoin:miter;stroke-miterlimit:4;stroke-dasharray:none;stroke-dashoffset:0.99999998;stroke-opacity:1"
     d="M 382.40625 0 L 0 254.9375 L 0 300 L 67.59375 300 L 450 45.0625 L 450 0 L 382.40625 0 z "
     id="rect4472" />
  <path
     sodipodi:type="star"
     style="fill:#ffffff;fill-opacity:1;fill-rule:evenodd;stroke:none;stroke-width:1;stroke-linecap:round;stroke-linejoin:miter;stroke-miterlimit:4;stroke-dasharray:none;stroke-dashoffset:0.99999998;stroke-opacity:1"
     id="path4458"
     sodipodi:sides="5"
     sodipodi:cx="92"
     sodipodi:cy="180"
     sodipodi:r1="56"
     sodipodi:r2="21.391998"
     sodipodi:arg1="-1.5707963"
     sodipodi:arg2="-0.94247777"
     inkscape:flatsided="false"
     inkscape:rounded="0"
     inkscape:randomized="0"
     d="M 92.000002,124 L 104.5739,162.69351 L 145.25917,162.69505 L 112.345,186.61049 L 124.91597,225.30495 L 91.999999,201.392 L 59.084025,225.30495 L 71.655,186.61049 L 38.740836,162.69505 L 79.426099,162.69351 L 92.000002,124 z "
     transform="matrix(0.445741,-0.29716,0.29716,0.445741,30.65676,163.6693)" />
  <path
     transform="matrix(0.445741,-0.29716,0.29716,0.445741,230.3491,30.54139)"
     d="M 92.000002,124 L 104.5739,162.69351 L 145.25917,162.69505 L 112.345,186.61049 L 124.91597,225.30495 L 91.999999,201.392 L 59.084025,225.30495 L 71.655,186.61049 L 38.740836,162.69505 L 79.426099,162.69351 L 92.000002,124 z "
     inkscape:randomized="0"
     inkscape:rounded="0"
     inkscape:flatsided="false"
     sodipodi:arg2="-0.94247777"
     sodipodi:arg1="-1.5707963"
     sodipodi:r2="21.391998"
     sodipodi:r1="56"
     sodipodi:cy="180"
     sodipodi:cx="92"
     sodipodi:sides="5"
     id="path4460"
     style="fill:#ffffff;fill-opacity:1;fill-rule:evenodd;stroke:none;stroke-width:1;stroke-linecap:round;stroke-linejoin:miter;stroke-miterlimit:4;stroke-dasharray:none;stroke-dashoffset:0.99999998;stroke-opacity:1"
     sodipodi:type="star" />
</svg>
