<?xml version="1.0" encoding="UTF-8" standalone="no"?>
<!DOCTYPE svg PUBLIC "-//W3C//DTD SVG 1.0//EN"
"http://www.w3.org/TR/2001/REC-SVG-20010904/DTD/svg10.dtd">
<!-- Created with Inkscape (http://www.inkscape.org/) -->
<svg
   xmlns="http://www.w3.org/2000/svg"
   xmlns:xlink="http://www.w3.org/1999/xlink"
   version="1.0"
   x="0.0000000"
   y="0.0000000"
   width="600.00000"
   height="300.00000"
   id="svg3005">
  <defs
     id="defs3" />
  <g
     id="layer1">
    <rect
       width="875.00000"
       height="437.50000"
       x="125.00000"
       y="239.86218"
       transform="matrix(0.685714,0.000000,0.000000,0.685714,-85.71425,-164.4769)"
       style="fill:#ce1126;fill-opacity:1.0000000;fill-rule:nonzero;stroke:none;stroke-width:7.0866141;stroke-linecap:round;stroke-linejoin:miter;stroke-miterlimit:4.0000000;stroke-opacity:1.0000000"
       id="rect3015" />
    <path
       d="M 634.52786,445.91180 C 647.30015,449.33408 666.63003,448.48295 675.30752,458.61219 C 662.53524,455.18991 646.79573,475.83517 634.52786,471.31258 C 645.35936,478.89697 476.96463,471.31258 490.47215,471.31258 C 477.69986,467.89029 458.36998,468.74143 449.69248,458.61219 C 462.46476,462.03447 478.20427,441.38921 490.47215,445.91180 C 479.64064,438.32740 460.84927,432.45523 456.49564,420.02978 C 467.32716,427.61404 489.36106,413.54322 499.15982,422.04272 C 491.57556,411.21121 475.72498,399.32378 476.08448,386.10087 C 483.66874,396.93238 509.19535,391.13320 515.48716,402.58453 C 512.06487,389.81225 501.75748,373.34346 506.09624,360.91802 C 509.51853,373.69032 535.22785,376.86205 537.48499,389.88402 C 538.63749,376.71157 533.98821,357.64772 542.91116,347.51847 C 541.75879,360.69105 564.97929,372.45129 562.50000,385.47324 C 568.08819,373.48924 571.17751,354.12986 582.08884,347.51847 C 576.50065,359.50247 594.73072,378.43269 587.51502,389.88402 C 596.86502,380.53414 605.88751,363.21409 618.90377,360.91802 C 609.55377,370.26803 619.52358,394.08504 609.51285,402.58453 C 621.49684,396.99623 635.63895,383.80481 648.91552,386.10087 C 636.93165,391.68919 638.11823,417.52025 625.84019,422.04272 C 639.01277,420.89022 656.71287,413.41827 668.50436,420.02978 C 655.33191,421.18216 648.03538,445.91180 634.52786,445.91180 z "
       transform="matrix(0.685714,0.000000,0.000000,0.685714,-85.71425,-164.4769)"
       style="fill:#fcd116;fill-opacity:1.0000000;fill-rule:evenodd;stroke:#bd9c08;stroke-width:2.7343779;stroke-linecap:butt;stroke-linejoin:miter;stroke-miterlimit:4.0000000;stroke-opacity:1.0000000"
       id="path6046" />
    <path
       d="M 501.77384,458.61504 L 455.70985,439.78550 L 505.43593,437.84636 L 468.59001,404.39757 L 515.98046,419.58269 L 492.79678,375.54908 L 532.13562,406.02689 L 525.41048,356.71954 L 551.95286,398.81399 L 562.49739,350.18012 L 573.04193,398.81399 L 599.58431,356.71954 L 592.85917,406.02689 L 632.19801,375.54908 L 609.01434,419.58269 L 656.40477,404.39757 L 619.55886,437.84636 L 669.28494,439.78550 L 623.22093,458.61504 L 669.28494,477.44456 L 455.70985,477.44456 L 501.77384,458.61504 z "
       transform="matrix(0.685714,0.000000,0.000000,0.685714,-85.71425,-164.4769)"
       style="fill:#fcd116;fill-opacity:1.0000000;fill-rule:evenodd;stroke:#bd9c08;stroke-width:2.7343752;stroke-linecap:butt;stroke-linejoin:miter;stroke-miterlimit:4.0000000;stroke-opacity:1.0000000"
       id="path4182" />
    <path
       d="M 127.10440 382.09833 A 83.888901 83.888901 0 1 1  -40.673405,382.09833 A 83.888901 83.888901 0 1 1  127.10440 382.09833 z"
       transform="matrix(0.493004,0.000000,0.000000,0.493004,278.6945,-38.37602)"
       style="fill:#fcd116;fill-opacity:1.0000000;fill-rule:nonzero;stroke:#bd9c08;stroke-width:3.8008418;stroke-linecap:round;stroke-linejoin:miter;stroke-miterlimit:4.0000000;stroke-opacity:1.0000000"
       id="path1076" />
    <rect
       width="875.00000"
       height="198.75000"
       x="125.00000"
       y="478.61218"
       transform="matrix(0.685714,0.000000,0.000000,0.685714,-85.71425,-164.4769)"
       style="fill:#003f87;fill-opacity:1.0000000;fill-rule:nonzero;stroke:none;stroke-width:7.0866141;stroke-linecap:round;stroke-linejoin:miter;stroke-miterlimit:4.0000000;stroke-opacity:1.0000000"
       id="rect4894" />
    <path
       d="M 125.00000,489.86218 C 154.16667,489.86218 183.33333,508.61218 212.50000,508.61218 C 241.66667,508.61218 270.83333,489.86218 300.00000,489.86218 C 329.16667,489.86218 358.33333,508.61218 387.50000,508.61218 C 416.66667,508.61218 445.83333,489.86218 475.00000,489.86218 C 504.16667,489.86218 533.33333,508.61218 562.50000,508.61218 C 591.66667,508.61218 620.83333,489.86218 650.00000,489.86218 C 679.16667,489.86218 708.33333,508.61218 737.50000,508.61218 C 766.66667,508.61218 795.83333,489.86218 825.00000,489.86218 C 854.16667,489.86218 883.33333,508.61218 912.50000,508.61218 C 941.66667,508.61218 970.83333,489.86218 1000.0000,489.86218 L 1000.0000,458.61218 C 970.83333,458.61218 941.66667,477.36218 912.50000,477.36218 C 883.33333,477.36218 854.16667,458.61218 825.00000,458.61218 C 795.83333,458.61218 766.66667,477.36218 737.50000,477.36218 C 708.33333,477.36218 679.16667,458.61218 650.00000,458.61218 C 620.83333,458.61218 591.66667,477.36218 562.50000,477.36218 C 533.33333,477.36218 504.16667,458.61218 475.00000,458.61218 C 445.83333,458.61218 416.66667,477.36218 387.50000,477.36218 C 358.33333,477.36218 329.16667,458.61218 300.00000,458.61218 C 270.83333,458.61218 241.66667,477.36218 212.50000,477.36218 C 183.33333,477.36218 154.16667,458.61218 125.00000,458.61218 L 125.00000,489.86218 z "
       transform="matrix(0.685714,0.000000,0.000000,0.685714,-85.71425,-164.4769)"
       style="fill:#ffffff;fill-opacity:1.0000000;fill-rule:evenodd;stroke:none;stroke-width:0.25000000pt;stroke-linecap:butt;stroke-linejoin:miter;stroke-opacity:1.0000000"
       id="path3647" />
    <path
       d="M 125.00000,552.36218 C 154.16667,552.36218 183.33333,571.11218 212.50000,571.11218 C 241.66667,571.11218 270.83334,552.36218 300.00001,552.36218 C 329.16668,552.36218 358.33334,571.11218 387.50001,571.11218 C 416.66668,571.11218 445.83334,552.36218 475.00000,552.36218 C 504.16667,552.36218 533.33333,571.11218 562.50000,571.11218 C 591.66667,571.11218 620.83333,552.36218 650.00000,552.36218 C 679.16667,552.36218 708.33333,571.11218 737.50000,571.11218 C 766.66667,571.11218 795.83333,552.36218 825.00000,552.36218 C 854.16667,552.36218 883.33333,571.11218 912.50000,571.11218 C 941.66667,571.11218 970.83333,552.36218 1000.0000,552.36218 L 1000.0000,521.11218 C 970.83333,521.11218 941.66667,539.86218 912.50000,539.86218 C 883.33333,539.86218 854.16667,521.11218 825.00000,521.11218 C 795.83333,521.11218 766.66667,539.86218 737.50000,539.86218 C 708.33333,539.86218 679.16667,521.11218 650.00000,521.11218 C 620.83333,521.11218 591.66667,539.86218 562.50000,539.86218 C 533.33333,539.86218 504.16667,521.11218 475.00000,521.11218 C 445.83334,521.11218 416.66668,539.86218 387.50001,539.86218 C 358.33334,539.86218 329.16668,521.11218 300.00001,521.11218 C 270.83334,521.11218 241.66667,539.86218 212.50000,539.86218 C 183.33333,539.86218 154.16667,521.11218 125.00000,521.11218 L 125.00000,552.36218 z "
       transform="matrix(0.685714,0.000000,0.000000,0.685714,-85.71425,-164.4769)"
       style="fill:#ffffff;fill-opacity:1.0000000;fill-rule:evenodd;stroke:none;stroke-width:0.25000000pt;stroke-linecap:butt;stroke-linejoin:miter;stroke-opacity:1.0000000"
       id="path6137" />
    <path
       d="M 125.00000,614.86218 C 154.16667,614.86218 183.33332,633.61218 212.49999,633.61218 C 241.66666,633.61218 270.83331,614.86218 299.99998,614.86218 C 329.16665,614.86218 358.33330,633.61218 387.49997,633.61218 C 416.66664,633.61218 445.83329,614.86218 474.99996,614.86218 C 504.16663,614.86218 533.33328,633.61218 562.49995,633.61218 C 591.66662,633.61218 620.83327,614.86218 649.99994,614.86218 C 679.16661,614.86218 708.33326,633.61218 737.49993,633.61218 C 766.66660,633.61218 795.83325,614.86218 824.99992,614.86218 C 854.16659,614.86218 883.33324,633.61218 912.49991,633.61218 C 941.66658,633.61218 970.83327,614.86218 1000.0000,614.86218 L 1000.0000,583.61218 C 970.83327,583.61218 941.66658,602.36218 912.49991,602.36218 C 883.33324,602.36218 854.16659,583.61218 824.99992,583.61218 C 795.83325,583.61218 766.66660,602.36218 737.49993,602.36218 C 708.33326,602.36218 679.16661,583.61218 649.99994,583.61218 C 620.83327,583.61218 591.66662,602.36218 562.49995,602.36218 C 533.33328,602.36218 504.16663,583.61218 474.99996,583.61218 C 445.83329,583.61218 416.66664,602.36218 387.49997,602.36218 C 358.33330,602.36218 329.16665,583.61218 299.99998,583.61218 C 270.83331,583.61218 241.66666,602.36218 212.49999,602.36218 C 183.33332,602.36218 154.16667,583.61218 125.00000,583.61218 L 125.00000,614.86218 z "
       transform="matrix(0.685714,0.000000,0.000000,0.685714,-85.71425,-164.4769)"
       style="fill:#ffffff;fill-opacity:1.0000000;fill-rule:evenodd;stroke:none;stroke-width:0.25000000pt;stroke-linecap:butt;stroke-linejoin:miter;stroke-opacity:1.0000000"
       id="path6138" />
    <g
       transform="matrix(0.685714,0.000000,0.000000,0.685714,-94.48282,-164.4769)"
       id="g18553">
      <path
         d="M 595.12121,312.57820 L 627.46402,312.79211 C 627.67063,311.42473 624.68888,308.70175 622.14965,308.30298 C 613.96038,307.01690 607.82068,309.66798 597.88261,309.76996 L 595.12121,312.57820 z "
         style="fill:#fcd116;fill-opacity:1.0000000;fill-rule:evenodd;stroke:#bd9c08;stroke-width:2.7343750;stroke-linecap:butt;stroke-linejoin:miter;stroke-miterlimit:4.0000000;stroke-opacity:1.0000000"
         id="path18554" />
      <path
         d="M 530.70721,304.96690 C 538.30224,314.56303 553.02727,321.23113 567.09528,321.31829 C 586.05425,321.43575 607.07295,306.09289 632.50298,301.39511 L 549.49761,299.68631 C 538.75799,292.32861 530.60942,293.26224 525.05189,297.82333 L 509.18230,298.30299 C 506.93566,299.52642 511.03707,304.63641 514.36117,304.82342 L 530.70721,304.96690 z "
         style="fill:#fcd116;fill-opacity:1.0000000;fill-rule:evenodd;stroke:#bd9c08;stroke-width:2.7343750;stroke-linecap:butt;stroke-linejoin:miter;stroke-miterlimit:4.0000000;stroke-opacity:1.0000000"
         id="path18555" />
      <path
         d="M 568.22968,299.46099 C 565.21053,285.58128 554.07446,279.59874 540.67992,277.82374 C 525.21268,275.77408 489.60592,273.67240 465.95589,266.87931 C 476.18746,276.94315 497.61643,281.96761 512.50116,284.23944 C 528.26608,286.64561 543.61520,290.15195 555.77568,299.33520 L 568.22968,299.46099 z "
         style="fill:#fcd116;fill-opacity:1.0000000;fill-rule:evenodd;stroke:#bd9c08;stroke-width:2.7343750;stroke-linecap:butt;stroke-linejoin:miter;stroke-miterlimit:4.0000000;stroke-opacity:1.0000000"
         id="path18556" />
      <path
         d="M 558.17707,308.72677 C 563.12682,315.07576 570.80106,314.71656 579.05052,309.17728 C 587.27421,303.65530 596.20795,288.10781 600.52464,287.85332 C 630.70241,286.09974 667.20615,273.36370 684.61911,263.52599 C 662.54431,266.65159 640.66016,270.19497 618.39472,270.28358 C 580.40526,270.43477 575.90978,287.73575 560.42960,299.86682"
         style="fill:#fcd116;fill-opacity:1.0000000;fill-rule:evenodd;stroke:#bd9c08;stroke-width:2.7343750;stroke-linecap:round;stroke-linejoin:miter;stroke-miterlimit:4.0000000;stroke-opacity:1.0000000"
         id="path18557" />
      <path
         d="M 564.07105,301.26276 C 572.16928,296.10523 578.74926,289.37587 586.32987,283.75429 C 598.88173,274.44617 613.38183,274.17400 628.94737,273.98213 C 642.74356,273.81207 666.93086,268.04761 680.05090,264.97119"
         style="fill:none;fill-opacity:1.0000000;fill-rule:evenodd;stroke:#bd9c08;stroke-width:2.7343750;stroke-linecap:round;stroke-linejoin:miter;stroke-miterlimit:4.0000000;stroke-opacity:1.0000000"
         id="path18558" />
      <path
         d="M 555.64988,298.83201 C 553.25972,286.41994 541.64357,282.69487 526.96793,280.46549 C 510.99900,278.03965 494.71365,276.69021 478.78729,272.28862 C 474.83756,271.19703 471.15554,269.26947 467.33967,267.75989"
         style="fill:none;fill-opacity:0.75000000;fill-rule:evenodd;stroke:#bd9c08;stroke-width:2.7343750;stroke-linecap:butt;stroke-linejoin:miter;stroke-miterlimit:4.0000000;stroke-opacity:1.0000000"
         id="path18559" />
      <path
         d="M 560.73731,317.12931 C 575.71814,318.22815 586.85304,313.72291 599.63620,307.34965"
         style="fill:none;fill-opacity:0.75000000;fill-rule:evenodd;stroke:#bd9c08;stroke-width:2.7343750;stroke-linecap:round;stroke-linejoin:miter;stroke-miterlimit:4.0000000;stroke-opacity:1.0000000"
         id="path18560" />
      <path
         d="M 509.12500,300.86650 L 528.02503,300.86650"
         style="fill:none;fill-opacity:0.75000000;fill-rule:evenodd;stroke:#bd9c08;stroke-width:2.7343750;stroke-linecap:round;stroke-linejoin:miter;stroke-miterlimit:4.0000000;stroke-opacity:1.0000000"
         id="path18561" />
      <path
         d="M 542.93614 302.24005 A 5.4392509 5.4392509 0 1 1  532.05764,302.24005 A 5.4392509 5.4392509 0 1 1  542.93614 302.24005 z"
         transform="matrix(0.434343,0.000000,0.000000,0.434343,300.6322,167.5576)"
         style="fill:#bd9c08;fill-opacity:1.0000000;fill-rule:nonzero;stroke:#bd9c08;stroke-width:2.7343750;stroke-linecap:round;stroke-linejoin:round;stroke-miterlimit:4.0000000;stroke-opacity:1.0000000"
         id="path18562" />
    </g>
  </g>
</svg>
