<?xml version="1.0" encoding="UTF-8" standalone="no"?>
<svg version="1.0" width="900" height="600">
 <rect width="900" height="600" fill="#f00"/>
 <rect x="0" y="0" width="450" height="300" fill="#009"/>
 <path d="M 225.0,262.5 L 168.7,52.57 L 322.4,206.2 L 112.5,150.0 L 322.4,93.75 L 168.7,247.4 L 225.0,37.50 L 281.2,247.4 L 127.5,93.75 L 337.5,150.0 L 127.5,206.2 L 281.2,52.57 L 225.0,262.5 z " fill="#fff"/>
 <path d="M 288.7,149.9 C 288.7,185.2 260.2,213.7 225.0,213.7 C 189.7,213.7 161.2,185.2 161.2,149.9 C 161.2,114.7 189.7,86.24 225.0,86.24 C 260.2,86.24 288.7,114.7 288.7,149.9 z " fill="#009"/>
 <path d="M 281.2,150.0 C 281.2,181.0 256.0,206.2 225,206.25004 C 193.9,206.2 168.7,181.0 168.7,150.0 C 168.7,118.9 193.9,93.75 225,93.750067 C 256.0,93.75 281.2,118.9 281.2,150.0 z " fill="#fff"/>
</svg>
