<?xml version="1.0" encoding="UTF-8" standalone="no"?>
<svg xmlns:svg="http://www.w3.org/2000/svg" xmlns="http://www.w3.org/2000/svg" version="1.0" width="1500" height="1000" id="svg1910">
  <defs id="defs1912"/>
  <g id="layer1">
    <rect width="1500" height="1000" x="0" y="7.0052904e-014" fill="#006a4e"/>
    <g transform="matrix(1.693333,0,0,2.15829,102,-3.078702e-5)">
      <rect width="159.44881" height="463.3299" x="46.063" y="-7.0000001e-006" font-size="12px" fill="#b31b34" fill-rule="evenodd" stroke-width="1pt"/>
      <g transform="matrix(0.374999,0,0,0.499997,-54.25661,-146.1604)" font-size="12px" fill="#ff9a00">
        <path d="M 265.8,605.9 L 265.8,598.8 L 283.4,581.1 L 279.9,577.5 L 290.5,566.9 L 287.0,563.3 L 279.9,570.4 L 276.3,566.9 L 301.1,542.1 L 304.7,545.6 L 301.1,549.2 L 308.4,556.3 L 325.9,538.5 L 308.1,521.3 L 301.1,527.9 L 304.7,531.4 L 301.1,535.0 L 276.3,510.2 L 279.9,506.6 L 287.0,513.7 L 290.5,510.2 L 279.9,499.6 L 283.4,496.0 L 265.8,478.3 L 265.8,471.2 L 290.5,496.0 L 287.0,499.6 L 297.6,510.2 L 290.5,517.3 L 297.6,524.4 L 308.2,513.7 L 333.2,539.0 L 308.2,563.3 L 297.6,552.7 L 290.5,559.8 L 297.6,566.9 L 297.6,566.9 L 287.0,577.5 L 290.5,581.1 L 265.8,605.9 z " transform="translate(1.631851,-54.92076)" font-size="12px" fill="#ff9a00" fill-opacity="1" fill-rule="evenodd" stroke="none" stroke-width="1pt"/>
        <path d="M 269.2,517.3 L 272.8,524.4 L 272.8,535.0 L 283.4,535.0 L 290.5,538.5 L 283.4,542.1 L 272.8,542.1 L 272.8,552.7 L 269.2,559.8 L 269.2,517.3 z " transform="translate(-1.771317,-54.92091)" fill="#ff9a00" fill-opacity="1" fill-rule="evenodd" stroke="none" stroke-width="1pt" stroke-linecap="butt" stroke-linejoin="miter" stroke-opacity="1"/>
      </g>
      <g transform="matrix(0.374999,0,0,0.499997,-54.25661,-61.12112)" font-size="12px" fill="#ff9a00">
        <path d="M 265.8,605.9 L 265.8,598.8 L 283.4,581.1 L 279.9,577.5 L 290.5,566.9 L 287.0,563.3 L 279.9,570.4 L 276.3,566.9 L 301.1,542.1 L 304.7,545.6 L 301.1,549.2 L 308.4,556.3 L 325.9,538.5 L 308.1,521.3 L 301.1,527.9 L 304.7,531.4 L 301.1,535.0 L 276.3,510.2 L 279.9,506.6 L 287.0,513.7 L 290.5,510.2 L 279.9,499.6 L 283.4,496.0 L 265.8,478.3 L 265.8,471.2 L 290.5,496.0 L 287.0,499.6 L 297.6,510.2 L 290.5,517.3 L 297.6,524.4 L 308.2,513.7 L 333.2,539.0 L 308.2,563.3 L 297.6,552.7 L 290.5,559.8 L 297.6,566.9 L 297.6,566.9 L 287.0,577.5 L 290.5,581.1 L 265.8,605.9 z " transform="translate(1.631851,-54.92076)" font-size="12px" fill="#ff9a00" fill-opacity="1" fill-rule="evenodd" stroke="none" stroke-width="1pt"/>
        <path d="M 269.2,517.3 L 272.8,524.4 L 272.8,535.0 L 283.4,535.0 L 290.5,538.5 L 283.4,542.1 L 272.8,542.1 L 272.8,552.7 L 269.2,559.8 L 269.2,517.3 z " transform="translate(-1.771317,-54.92091)" fill="#ff9a00" fill-opacity="1" fill-rule="evenodd" stroke="none" stroke-width="1pt" stroke-linecap="butt" stroke-linejoin="miter" stroke-opacity="1"/>
      </g>
      <g transform="matrix(0.374999,0,0,0.499997,-54.25647,23.91929)" font-size="12px" fill="#ff9a00">
        <path d="M 265.8,605.9 L 265.8,598.8 L 283.4,581.1 L 279.9,577.5 L 290.5,566.9 L 287.0,563.3 L 279.9,570.4 L 276.3,566.9 L 301.1,542.1 L 304.7,545.6 L 301.1,549.2 L 308.4,556.3 L 325.9,538.5 L 308.1,521.3 L 301.1,527.9 L 304.7,531.4 L 301.1,535.0 L 276.3,510.2 L 279.9,506.6 L 287.0,513.7 L 290.5,510.2 L 279.9,499.6 L 283.4,496.0 L 265.8,478.3 L 265.8,471.2 L 290.5,496.0 L 287.0,499.6 L 297.6,510.2 L 290.5,517.3 L 297.6,524.4 L 308.2,513.7 L 333.2,539.0 L 308.2,563.3 L 297.6,552.7 L 290.5,559.8 L 297.6,566.9 L 297.6,566.9 L 287.0,577.5 L 290.5,581.1 L 265.8,605.9 z " transform="translate(1.631851,-54.92076)" font-size="12px" fill="#ff9a00" fill-opacity="1" fill-rule="evenodd" stroke="none" stroke-width="1pt"/>
        <path d="M 269.2,517.3 L 272.8,524.4 L 272.8,535.0 L 283.4,535.0 L 290.5,538.5 L 283.4,542.1 L 272.8,542.1 L 272.8,552.7 L 269.2,559.8 L 269.2,517.3 z " transform="translate(-1.771317,-54.92091)" fill="#ff9a00" fill-opacity="1" fill-rule="evenodd" stroke="none" stroke-width="1pt" stroke-linecap="butt" stroke-linejoin="miter" stroke-opacity="1"/>
      </g>
      <g transform="matrix(0.374999,0,0,0.499997,-54.25647,103.6429)" font-size="12px" fill="#ff9a00">
        <path d="M 265.8,605.9 L 265.8,598.8 L 283.4,581.1 L 279.9,577.5 L 290.5,566.9 L 287.0,563.3 L 279.9,570.4 L 276.3,566.9 L 301.1,542.1 L 304.7,545.6 L 301.1,549.2 L 308.4,556.3 L 325.9,538.5 L 308.1,521.3 L 301.1,527.9 L 304.7,531.4 L 301.1,535.0 L 276.3,510.2 L 279.9,506.6 L 287.0,513.7 L 290.5,510.2 L 279.9,499.6 L 283.4,496.0 L 265.8,478.3 L 265.8,471.2 L 290.5,496.0 L 287.0,499.6 L 297.6,510.2 L 290.5,517.3 L 297.6,524.4 L 308.2,513.7 L 333.2,539.0 L 308.2,563.3 L 297.6,552.7 L 290.5,559.8 L 297.6,566.9 L 297.6,566.9 L 287.0,577.5 L 290.5,581.1 L 265.8,605.9 z " transform="translate(1.631851,-54.92076)" font-size="12px" fill="#ff9a00" fill-opacity="1" fill-rule="evenodd" stroke="none" stroke-width="1pt"/>
        <path d="M 269.2,517.3 L 272.8,524.4 L 272.8,535.0 L 283.4,535.0 L 290.5,538.5 L 283.4,542.1 L 272.8,542.1 L 272.8,552.7 L 269.2,559.8 L 269.2,517.3 z " transform="translate(-1.771317,-54.92091)" fill="#ff9a00" fill-opacity="1" fill-rule="evenodd" stroke="none" stroke-width="1pt" stroke-linecap="butt" stroke-linejoin="miter" stroke-opacity="1"/>
      </g>
      <g transform="matrix(-0.374999,0,0,0.499997,305.8314,-146.1604)" font-size="12px" fill="#ff9a00">
        <path d="M 265.8,605.9 L 265.8,598.8 L 283.4,581.1 L 279.9,577.5 L 290.5,566.9 L 287.0,563.3 L 279.9,570.4 L 276.3,566.9 L 301.1,542.1 L 304.7,545.6 L 301.1,549.2 L 308.4,556.3 L 325.9,538.5 L 308.1,521.3 L 301.1,527.9 L 304.7,531.4 L 301.1,535.0 L 276.3,510.2 L 279.9,506.6 L 287.0,513.7 L 290.5,510.2 L 279.9,499.6 L 283.4,496.0 L 265.8,478.3 L 265.8,471.2 L 290.5,496.0 L 287.0,499.6 L 297.6,510.2 L 290.5,517.3 L 297.6,524.4 L 308.2,513.7 L 333.2,539.0 L 308.2,563.3 L 297.6,552.7 L 290.5,559.8 L 297.6,566.9 L 297.6,566.9 L 287.0,577.5 L 290.5,581.1 L 265.8,605.9 z " transform="translate(1.631851,-54.92076)" font-size="12px" fill="#ff9a00" fill-opacity="1" fill-rule="evenodd" stroke="none" stroke-width="1pt"/>
        <path d="M 269.2,517.3 L 272.8,524.4 L 272.8,535.0 L 283.4,535.0 L 290.5,538.5 L 283.4,542.1 L 272.8,542.1 L 272.8,552.7 L 269.2,559.8 L 269.2,517.3 z " transform="translate(-1.771317,-54.92091)" fill="#ff9a00" fill-opacity="1" fill-rule="evenodd" stroke="none" stroke-width="1pt" stroke-linecap="butt" stroke-linejoin="miter" stroke-opacity="1"/>
      </g>
      <g transform="matrix(-0.374999,0,0,0.499997,306.2744,-61.12039)" font-size="12px" fill="#ff9a00">
        <path d="M 268.7,550.9 L 268.7,543.8 L 286.2,526.1 L 282.7,522.6 L 293.3,512.0 L 289.8,508.4 L 282.7,515.5 L 279.1,512.0 L 303.9,487.2 L 307.5,490.7 L 303.9,494.2 L 311.2,501.4 L 328.7,483.6 L 311.0,466.4 L 303.9,473.0 L 307.5,476.5 L 303.9,480.1 L 279.1,455.3 L 282.7,451.7 L 289.8,458.8 L 293.3,455.3 L 282.7,444.6 L 286.2,441.1 L 268.7,423.4 L 268.7,416.3 L 293.3,441.1 L 289.8,444.6 L 300.4,455.3 L 293.3,462.4 L 300.4,469.4 L 311.0,458.8 L 336.0,484.0 L 311.0,508.4 L 300.4,497.8 L 293.3,504.9 L 300.4,512.0 L 300.4,512.0 L 289.8,522.6 L 293.3,526.1 L 268.7,550.9 z " font-size="12px" fill="#ff9a00" fill-opacity="1" fill-rule="evenodd" stroke="none" stroke-width="1pt"/>
        <path d="M 268.7,462.4 L 272.2,469.4 L 272.2,480.1 L 282.8,480.1 L 289.9,483.6 L 282.8,487.2 L 272.2,487.2 L 272.2,497.8 L 268.7,504.9 L 268.7,462.4 z " fill="#ff9a00" fill-opacity="1" fill-rule="evenodd" stroke="none" stroke-width="1pt" stroke-linecap="butt" stroke-linejoin="miter" stroke-opacity="1"/>
      </g>
      <g transform="matrix(-0.374999,0,0,0.499997,305.8313,23.91929)" font-size="12px" fill="#ff9a00">
        <path d="M 265.8,605.9 L 265.8,598.8 L 283.4,581.1 L 279.9,577.5 L 290.5,566.9 L 287.0,563.3 L 279.9,570.4 L 276.3,566.9 L 301.1,542.1 L 304.7,545.6 L 301.1,549.2 L 308.4,556.3 L 325.9,538.5 L 308.1,521.3 L 301.1,527.9 L 304.7,531.4 L 301.1,535.0 L 276.3,510.2 L 279.9,506.6 L 287.0,513.7 L 290.5,510.2 L 279.9,499.6 L 283.4,496.0 L 265.8,478.3 L 265.8,471.2 L 290.5,496.0 L 287.0,499.6 L 297.6,510.2 L 290.5,517.3 L 297.6,524.4 L 308.2,513.7 L 333.2,539.0 L 308.2,563.3 L 297.6,552.7 L 290.5,559.8 L 297.6,566.9 L 297.6,566.9 L 287.0,577.5 L 290.5,581.1 L 265.8,605.9 z " transform="translate(1.631851,-54.92076)" font-size="12px" fill="#ff9a00" fill-opacity="1" fill-rule="evenodd" stroke="none" stroke-width="1pt"/>
        <path d="M 269.2,517.3 L 272.8,524.4 L 272.8,535.0 L 283.4,535.0 L 290.5,538.5 L 283.4,542.1 L 272.8,542.1 L 272.8,552.7 L 269.2,559.8 L 269.2,517.3 z " transform="translate(-1.771317,-54.92091)" fill="#ff9a00" fill-opacity="1" fill-rule="evenodd" stroke="none" stroke-width="1pt" stroke-linecap="butt" stroke-linejoin="miter" stroke-opacity="1"/>
      </g>
      <g transform="matrix(-0.374999,0,0,0.499997,305.8313,103.6429)" font-size="12px" fill="#ff9a00">
        <path d="M 265.8,605.9 L 265.8,598.8 L 283.4,581.1 L 279.9,577.5 L 290.5,566.9 L 287.0,563.3 L 279.9,570.4 L 276.3,566.9 L 301.1,542.1 L 304.7,545.6 L 301.1,549.2 L 308.4,556.3 L 325.9,538.5 L 308.1,521.3 L 301.1,527.9 L 304.7,531.4 L 301.1,535.0 L 276.3,510.2 L 279.9,506.6 L 287.0,513.7 L 290.5,510.2 L 279.9,499.6 L 283.4,496.0 L 265.8,478.3 L 265.8,471.2 L 290.5,496.0 L 287.0,499.6 L 297.6,510.2 L 290.5,517.3 L 297.6,524.4 L 308.2,513.7 L 333.2,539.0 L 308.2,563.3 L 297.6,552.7 L 290.5,559.8 L 297.6,566.9 L 297.6,566.9 L 287.0,577.5 L 290.5,581.1 L 265.8,605.9 z " transform="translate(1.631851,-54.92076)" font-size="12px" fill="#ff9a00" fill-opacity="1" fill-rule="evenodd" stroke="none" stroke-width="1pt"/>
        <path d="M 269.2,517.3 L 272.8,524.4 L 272.8,535.0 L 283.4,535.0 L 290.5,538.5 L 283.4,542.1 L 272.8,542.1 L 272.8,552.7 L 269.2,559.8 L 269.2,517.3 z " transform="translate(-1.771317,-54.92091)" fill="#ff9a00" fill-opacity="1" fill-rule="evenodd" stroke="none" stroke-width="1pt" stroke-linecap="butt" stroke-linejoin="miter" stroke-opacity="1"/>
      </g>
      <g transform="matrix(0.75,0,0,1,46.063,2.365112e-4)" font-size="12px" fill="#ff9a00">
        <path d="M 265.8,605.9 L 265.8,598.8 L 283.4,581.1 L 279.9,577.5 L 290.5,566.9 L 287.0,563.3 L 279.9,570.4 L 276.3,566.9 L 301.1,542.1 L 304.7,545.6 L 301.1,549.2 L 308.4,556.3 L 325.9,538.5 L 333.2,538.5 L 308.2,563.3 L 297.6,552.7 L 290.5,559.8 L 297.6,566.9 L 297.6,566.9 L 287.0,577.5 L 290.5,581.1 L 265.8,605.9 z " transform="matrix(0.499998,0,0,0.500003,-132.9434,-269.2928)" font-size="12px" fill="#ff9a00" fill-opacity="1" fill-rule="evenodd" stroke-width="1pt"/>
        <path d="M 269.2,538.5 L 290.5,538.5 L 283.4,542.1 L 272.8,542.1 L 272.8,552.7 L 269.2,559.8 L 269.2,538.5 z " transform="matrix(0.499998,0,0,0.500003,-134.6449,-269.2929)" font-size="12px" fill="#ff9a00" fill-opacity="1" fill-rule="evenodd" stroke-width="1pt"/>
      </g>
      <g transform="matrix(-0.75,0,0,1,205.5118,2.212524e-4)" font-size="12px" fill="#ff9a00">
        <path d="M 265.8,605.9 L 265.8,598.8 L 283.4,581.1 L 279.9,577.5 L 290.5,566.9 L 287.0,563.3 L 279.9,570.4 L 276.3,566.9 L 301.1,542.1 L 304.7,545.6 L 301.1,549.2 L 308.4,556.3 L 325.9,538.5 L 333.2,538.5 L 308.2,563.3 L 297.6,552.7 L 290.5,559.8 L 297.6,566.9 L 297.6,566.9 L 287.0,577.5 L 290.5,581.1 L 265.8,605.9 z " transform="matrix(0.499998,0,0,0.500003,-132.9434,-269.2928)" font-size="12px" fill="#ff9a00" fill-opacity="1" fill-rule="evenodd" stroke-width="1pt"/>
        <path d="M 269.2,538.5 L 290.5,538.5 L 283.4,542.1 L 272.8,542.1 L 272.8,552.7 L 269.2,559.8 L 269.2,538.5 z " transform="matrix(0.499998,0,0,0.500003,-134.6449,-269.2929)" font-size="12px" fill="#ff9a00" fill-opacity="1" fill-rule="evenodd" stroke-width="1pt"/>
      </g>
      <path d="M 112.5,459.6 C 112.5,459.6 118.2,452.7 132.6,450.6 C 147.0,448.6 149.5,455.2 157.8,455.2 C 166.0,455.2 179.0,450.6 179.0,450.6 C 179.0,450.6 166.0,459.4 155.9,459.2 C 145.9,459.0 142.4,454.6 132.1,455.2 C 121.8,455.8 112.5,459.8 112.5,459.6 z " font-size="12px" fill="#ff9a00" fill-rule="evenodd" stroke-width="1pt"/>
      <path d="M 140.3,459.6 C 140.3,459.6 134.6,452.7 120.2,450.6 C 105.7,448.6 103.2,455.2 95.03,455.2 C 86.79,455.2 73.75,450.6 73.75,450.6 C 73.75,450.6 86.79,459.4 96.86,459.2 C 106.9,459.0 110.3,454.6 120.6,455.2 C 130.9,455.8 140.3,459.8 140.3,459.6 z " font-size="12px" fill="#ff9a00" fill-rule="evenodd" stroke-width="1pt"/>
      <g transform="matrix(0.75,0,0,1,46.063,2.365112e-4)" font-size="12px" fill="#ff9a00">
        <path d="M 62.84,448.2 C 61.15,446.4 56.92,438.5 59.17,437.5 C 62.56,436.9 71.58,444.9 70.74,452.2 C 64.81,453.8 44.79,451.5 45.07,449.4 C 46.48,446.4 57.76,447.4 62.84,448.2 z " fill="#ff9a00" fill-opacity="1" fill-rule="evenodd" stroke="none" stroke-width="1pt" stroke-linecap="butt" stroke-linejoin="miter" stroke-opacity="1"/>
        <path d="M 50.74,441.3 C 49.64,439.3 47.89,431.0 50.40,430.3 C 53.91,430.2 60.29,439.3 57.27,446.3 C 50.98,447.1 32.08,442.0 33.01,440.0 C 35.28,437.3 46.02,439.8 50.74,441.3 z " fill="#ff9a00" fill-opacity="1" fill-rule="evenodd" stroke="none" stroke-width="1pt" stroke-linecap="butt" stroke-linejoin="miter" stroke-opacity="1"/>
        <path d="M 40.91,433.6 C 40.16,431.5 39.88,423.1 42.48,422.6 C 45.99,422.8 50.74,432.4 46.53,439.1 C 40.14,439.3 22.26,432.8 23.54,430.8 C 26.27,428.3 36.49,431.7 40.91,433.6 z " fill="#ff9a00" fill-opacity="1" fill-rule="evenodd" stroke="none" stroke-width="1pt" stroke-linecap="butt" stroke-linejoin="miter" stroke-opacity="1"/>
        <path d="M 33.16,425.4 C 32.89,423.2 34.52,414.9 37.19,414.7 C 40.64,415.2 43.14,425.2 37.46,431.4 C 31.09,430.9 14.92,422.6 16.63,420.7 C 19.90,418.6 29.22,423.0 33.16,425.4 z " fill="#ff9a00" fill-opacity="1" fill-rule="evenodd" stroke="none" stroke-width="1pt" stroke-linecap="butt" stroke-linejoin="miter" stroke-opacity="1"/>
        <path d="M 27.76,416.7 C 27.95,414.6 31.32,406.5 34.00,406.6 C 37.30,407.4 37.67,417.5 30.76,423.1 C 24.54,422.1 10.30,412.2 12.37,410.5 C 16.07,408.7 24.35,414.0 27.76,416.7 z " fill="#ff9a00" fill-opacity="1" fill-rule="evenodd" stroke="none" stroke-width="1pt" stroke-linecap="butt" stroke-linejoin="miter" stroke-opacity="1"/>
        <path d="M 29.27,406.9 C 28.81,415.5 25.76,415.6 20.19,409.2 C 17.72,406.8 17.42,396.9 19.64,396.5 C 22.85,396.5 29.18,403.6 29.27,406.9 z " fill="#ff9a00" fill-opacity="1" fill-rule="evenodd" stroke="none" stroke-width="1pt" stroke-linecap="butt" stroke-linejoin="miter" stroke-opacity="1"/>
      </g>
      <g transform="matrix(-0.75,0,0,1,206.073,1.326058)" font-size="12px" fill="#ff9a00">
        <path d="M 62.84,447.8 C 61.15,446.0 56.92,438.1 59.17,437.1 C 62.56,436.5 71.58,444.5 70.74,451.8 C 64.81,453.4 44.79,451.1 45.07,449.0 C 46.48,446.0 57.76,447.0 62.84,447.8 z " fill="#ff9a00" fill-opacity="1" fill-rule="evenodd" stroke="none" stroke-width="1pt" stroke-linecap="butt" stroke-linejoin="miter" stroke-opacity="1"/>
        <path d="M 50.74,440.9 C 49.64,438.9 47.89,430.6 50.40,429.9 C 53.91,429.7 60.29,438.9 57.27,445.9 C 50.98,446.7 32.08,441.6 33.01,439.5 C 35.28,436.8 46.02,439.4 50.74,440.9 z " fill="#ff9a00" fill-opacity="1" fill-rule="evenodd" stroke="none" stroke-width="1pt" stroke-linecap="butt" stroke-linejoin="miter" stroke-opacity="1"/>
        <path d="M 40.91,433.2 C 40.16,431.1 39.88,422.7 42.48,422.2 C 45.99,422.3 50.74,432.0 46.53,438.6 C 40.14,438.9 22.26,432.3 23.54,430.4 C 26.27,427.9 36.49,431.3 40.91,433.2 z " fill="#ff9a00" fill-opacity="1" fill-rule="evenodd" stroke="none" stroke-width="1pt" stroke-linecap="butt" stroke-linejoin="miter" stroke-opacity="1"/>
        <path d="M 33.16,424.9 C 32.89,422.8 34.52,414.4 37.19,414.3 C 40.64,414.8 43.14,424.8 37.46,430.9 C 31.09,430.5 14.92,422.1 16.63,420.3 C 19.90,418.1 29.22,422.6 33.16,424.9 z " fill="#ff9a00" fill-opacity="1" fill-rule="evenodd" stroke="none" stroke-width="1pt" stroke-linecap="butt" stroke-linejoin="miter" stroke-opacity="1"/>
        <path d="M 27.76,416.3 C 27.95,414.2 31.32,406.1 34.00,406.2 C 37.30,407.0 37.67,417.1 30.76,422.7 C 24.54,421.6 10.30,411.7 12.37,410.1 C 16.07,408.3 24.35,413.6 27.76,416.3 z " fill="#ff9a00" fill-opacity="1" fill-rule="evenodd" stroke="none" stroke-width="1pt" stroke-linecap="butt" stroke-linejoin="miter" stroke-opacity="1"/>
        <path d="M 29.27,406.5 C 28.81,415.1 25.76,415.2 20.19,408.8 C 17.72,406.4 17.42,396.5 19.64,396.1 C 22.85,396.1 29.18,403.2 29.27,406.5 z " fill="#ff9a00" fill-opacity="1" fill-rule="evenodd" stroke="none" stroke-width="1pt" stroke-linecap="butt" stroke-linejoin="miter" stroke-opacity="1"/>
      </g>
      <g transform="matrix(0.96875,0,0,1.225808,182.4249,-74.63857)" font-size="12px">
        <path d="M -3.5433,290.551 L -8.85824,290.551 L -8.85824,294.094 L -14.1732,294.094 L -14.1732,297.637 L -35.4331,297.637 L -38.9764,301.181 L -37.2047,302.952 L -28.3465,302.952 L -26.5748,301.181 L -35.4331,301.181 L -33.6614,299.409 L -21.2598,299.409 L -26.5748,304.724 L -38.9764,304.724 L -42.5197,302.952 L -46.0631,304.723 L -58.4646,304.724 L -63.7797,299.407 L -51.378,299.409 L -49.6063,301.181 L -58.4646,301.179 L -56.6929,302.952 L -47.8346,302.952 L -46.063,301.181 L -49.6063,297.637 L -69.0944,297.637 L -69.0944,294.094 L -74.4094,294.094 L -74.4094,290.551 L -79.7244,290.551 L -79.7244,274.606 L -74.4094,274.606 L -74.4094,271.063 L -69.0944,271.063 L -69.0944,267.52 L -49.6063,267.52 L -46.063,263.976 L -47.8346,262.205 L -56.6929,262.205 L -58.4646,263.978 L -49.6063,263.976 L -51.378,265.748 L -63.7797,265.75 L -58.4646,260.433 L -46.0631,260.434 L -42.5197,262.205 L -38.9764,260.433 L -26.5748,260.433 L -21.2598,265.748 L -33.6614,265.748 L -35.4331,263.976 L -26.5748,263.976 L -28.3465,262.205 L -37.2047,262.205 L -38.9764,263.976 L -35.4331,267.52 L -14.1732,267.52 L -14.1732,271.063 L -8.85824,271.063 L -8.85824,274.606 L -3.5433,274.606 L -3.5433,290.551 z " transform="matrix(1.488372,0,0,1.240008,3.502076,-39.4744)" font-size="12px" fill="#b31b34" fill-rule="evenodd" stroke="black" stroke-width="0.125"/>
        <path d="M 375.5,499.6 L 375.5,524.4 L 386.2,524.4 L 386.2,531.4 L 396.8,531.4 L 396.8,538.5 L 432.2,538.5 L 446.4,549.2 L 460.6,538.5 L 499.6,538.5 L 499.6,531.5 L 510.2,531.4 L 510.2,524.4 L 520.8,524.4 L 520.8,499.6 L 510.2,499.6 L 510.2,492.5 L 499.6,492.5 L 499.6,485.4 L 460.6,485.4 L 446.4,474.8 L 432.2,485.4 L 396.8,485.4 L 396.8,492.5 L 386.2,492.5 L 386.2,499.6 L 375.5,499.6 z " transform="matrix(0.744189,0,0,0.620003,-392.0314,-6.521002)" font-size="12px" fill="#006a4e" fill-rule="evenodd" stroke="#ff9a00" stroke-width="1pt" stroke-opacity="1"/>
        <path d="M 425.1,492.5 L 403.9,510.2 L 403.9,492.5 L 425.1,492.5 z " transform="matrix(0.744189,0,0,0.620003,-392.0314,-8.718029)" font-size="12px" fill="#b31b34" fill-opacity="1" fill-rule="evenodd" stroke-width="1pt"/>
        <path d="M 425.1,492.5 L 403.9,510.2 L 403.9,492.5 L 425.1,492.5 z " transform="matrix(-0.744189,0,0,0.620003,272.4649,-8.718359)" font-size="12px" fill="#b31b34" fill-opacity="1" fill-rule="evenodd" stroke-width="1pt"/>
        <path d="M 425.1,492.5 L 403.9,510.2 L 403.9,492.5 L 425.1,492.5 z " transform="matrix(0.744189,0,0,-0.620003,-392.0314,630.5686)" font-size="12px" fill="#b31b34" fill-opacity="1" fill-rule="evenodd" stroke-width="1pt"/>
        <path d="M 425.1,492.5 L 403.9,510.2 L 403.9,492.5 L 425.1,492.5 z " transform="matrix(-0.744184,0,0,-0.620003,272.4628,630.5693)" font-size="12px" fill="#b31b34" fill-opacity="1" fill-rule="evenodd" stroke-width="1pt"/>
        <path d="M 474.8,506.6 L 467.7,513.7 L 481.8,513.7 L 474.8,506.6 z " transform="matrix(0.744189,0,0,0.620003,-392.0314,-10.91466)" font-size="12px" fill="#b31b34" fill-opacity="1" fill-rule="evenodd" stroke-width="1pt"/>
        <path d="M 418.1,506.6 L 411.0,513.7 L 425.1,513.7 L 418.1,506.6 z " transform="matrix(0.744189,0,0,0.620003,-392.0315,-10.91476)" font-size="12px" fill="#b31b34" fill-opacity="1" fill-rule="evenodd" stroke-width="1pt"/>
        <path d="M 418.1,506.6 L 411.0,513.7 L 425.1,513.7 L 418.1,506.6 z " transform="matrix(0.744189,0,0,-0.620003,-392.0317,632.7654)" font-size="12px" fill="#b31b34" fill-opacity="1" fill-rule="evenodd" stroke-width="1pt"/>
        <path d="M 418.1,506.6 L 411.0,513.7 L 425.1,513.7 L 418.1,506.6 z " transform="matrix(0.744189,0,0,-0.620003,-349.8415,632.7654)" font-size="12px" fill="#b31b34" fill-opacity="1" fill-rule="evenodd" stroke-width="1pt"/>
        <path d="M 418.1,506.6 L 411.0,513.7 L 425.1,513.7 L 418.1,506.6 z " transform="matrix(0.744189,0,0,-0.620003,-370.9364,643.7498)" font-size="12px" fill="#ff9a00" fill-opacity="1" fill-rule="evenodd" stroke-width="1pt"/>
        <path d="M 418.1,506.6 L 411.0,513.7 L 425.1,513.7 L 418.1,506.6 z " transform="matrix(0.744189,0,0,-0.620003,-370.9366,621.7813)" font-size="12px" fill="#ff9a00" fill-opacity="1" fill-rule="evenodd" stroke-width="1pt"/>
        <path d="M 418.1,506.6 L 411.0,513.7 L 425.1,513.7 L 418.1,506.6 z " transform="matrix(0.744189,0,0,0.620003,-370.9366,-21.89934)" font-size="12px" fill="#ff9a00" fill-opacity="1" fill-rule="evenodd" stroke-width="1pt"/>
        <path d="M 418.1,506.6 L 411.0,513.7 L 425.1,513.7 L 418.1,506.6 z " transform="matrix(0.744189,0,0,0.620003,-370.9364,6.925201e-2)" font-size="12px" fill="#ff9a00" fill-opacity="1" fill-rule="evenodd" stroke-width="1pt"/>
        <rect width="14.173218" height="3.543335" x="467.71655" y="506.6929" transform="matrix(0.744189,0,0,0.620003,-392.0314,-6.521002)" font-size="12px" fill="#ff9a00" fill-opacity="1" fill-rule="evenodd" stroke="black" stroke-width="0.125"/>
        <rect width="7.0866389" height="3.543335" x="414.56693" y="510.2363" transform="matrix(0.744189,0,0,0.620003,-392.0314,-6.521002)" font-size="12px" fill="#c00" fill-rule="evenodd" stroke="black" stroke-width="0.125"/>
        <rect width="7.0866389" height="3.543335" x="471.25983" y="510.23621" transform="matrix(0.744189,0,0,0.620003,-392.0314,-6.521002)" font-size="12px" fill="#c00" fill-rule="evenodd" stroke="black" stroke-width="0.125"/>
        <rect width="14.173231" height="3.5432169" x="439.37012" y="488.97644" transform="matrix(0.744189,0,0,0.620003,-392.0314,-6.521002)" font-size="12px" fill="#900" fill-rule="evenodd" stroke="black" stroke-width="0.125"/>
        <rect width="14.173231" height="3.5432169" x="439.37009" y="496.06296" transform="matrix(0.744189,0,0,0.620003,-392.0314,-6.521002)" font-size="12px" fill="#900" fill-rule="evenodd" stroke="black" stroke-width="0.125"/>
        <rect width="21.259829" height="3.5432169" x="435.82678" y="492.51971" transform="matrix(0.744189,0,0,0.620003,-392.0314,-6.521002)" font-size="12px" fill="#900" fill-rule="evenodd" stroke="black" stroke-width="0.125"/>
        <rect width="14.173231" height="3.5432169" x="439.37009" y="524.40961" transform="matrix(0.744189,0,0,0.620003,-392.0314,-6.521002)" font-size="12px" fill="#900" fill-rule="evenodd" stroke="black" stroke-width="0.125"/>
        <rect width="14.173231" height="3.5432169" x="439.37006" y="531.49603" transform="matrix(0.744189,0,0,0.620003,-392.0314,-6.521002)" font-size="12px" fill="#900" fill-rule="evenodd" stroke="black" stroke-width="0.125"/>
        <rect width="21.259829" height="3.5432169" x="435.82675" y="527.95288" transform="matrix(0.744189,0,0,0.620003,-392.0314,-6.521002)" font-size="12px" fill="#900" fill-rule="evenodd" stroke="black" stroke-width="0.125"/>
        <rect width="14.173218" height="3.543335" x="467.71652" y="513.77948" transform="matrix(0.744189,0,0,0.620003,-392.0314,-6.521002)" font-size="12px" fill="#ff9a00" fill-opacity="1" fill-rule="evenodd" stroke="black" stroke-width="0.125"/>
        <rect width="14.173218" height="3.543335" x="411.02362" y="506.69287" transform="matrix(0.744189,0,0,0.620003,-392.0314,-6.521002)" font-size="12px" fill="#ff9a00" fill-opacity="1" fill-rule="evenodd" stroke="black" stroke-width="0.125"/>
        <rect width="14.173218" height="3.543335" x="411.02362" y="513.77948" transform="matrix(0.744189,0,0,0.620003,-392.0314,-6.521002)" font-size="12px" fill="#ff9a00" fill-opacity="1" fill-rule="evenodd" stroke="black" stroke-width="0.125"/>
        <rect width="7.0866089" height="3.543335" x="407.48032" y="510.23608" transform="matrix(0.744189,0,0,0.620003,-392.0314,-6.521002)" font-size="12px" fill="#ff9a00" fill-opacity="1" fill-rule="evenodd" stroke="black" stroke-width="0.125"/>
        <rect width="7.0866089" height="3.543335" x="421.65356" y="510.23621" transform="matrix(0.744189,0,0,0.620003,-392.0314,-6.521002)" font-size="12px" fill="#ff9a00" fill-opacity="1" fill-rule="evenodd" stroke="black" stroke-width="0.125"/>
        <rect width="7.0866089" height="3.543335" x="464.17325" y="510.23621" transform="matrix(0.744189,0,0,0.620003,-392.0314,-6.521002)" font-size="12px" fill="#ff9a00" fill-opacity="1" fill-rule="evenodd" stroke="black" stroke-width="0.125"/>
        <rect width="7.0866089" height="3.543335" x="478.34647" y="510.23618" transform="matrix(0.744189,0,0,0.620003,-392.0314,-6.521002)" font-size="12px" fill="#ff9a00" fill-opacity="1" fill-rule="evenodd" stroke="black" stroke-width="0.125"/>
        <path d="M 414.56693 581.98816 A 0.88583398 0.88583398 0 1 1  412.7,581.9 A 0.88583398 0.88583398 0 1 1  414.56693 581.98816 z" transform="matrix(0.744189,0,0,0.620003,-374.1408,-38.9122)" font-size="12px" fill="white" fill-rule="evenodd" stroke-width="1pt"/>
        <path d="M 414.56693 581.98816 A 0.88583398 0.88583398 0 1 1  412.7,581.9 A 0.88583398 0.88583398 0 1 1  414.56693 581.98816 z" transform="matrix(0.744189,0,0,0.620003,-367.5691,-38.9122)" font-size="12px" fill="white" fill-rule="evenodd" stroke-width="1pt"/>
        <path d="M 414.56693 581.98816 A 0.88583398 0.88583398 0 1 1  412.7,581.9 A 0.88583398 0.88583398 0 1 1  414.56693 581.98816 z" transform="matrix(0.744189,0,0,0.620003,-360.9974,-38.95784)" font-size="12px" fill="white" fill-rule="evenodd" stroke-width="1pt"/>
        <path d="M 414.56693 581.98816 A 0.88583398 0.88583398 0 1 1  412.7,581.9 A 0.88583398 0.88583398 0 1 1  414.56693 581.98816 z" transform="matrix(0.744189,0,0,0.620003,-371.5121,-41.10225)" font-size="12px" fill="white" fill-rule="evenodd" stroke-width="1pt"/>
        <path d="M 414.56693 581.98816 A 0.88583398 0.88583398 0 1 1  412.7,581.9 A 0.88583398 0.88583398 0 1 1  414.56693 581.98816 z" transform="matrix(0.744189,0,0,0.620003,-363.6808,-41.14785)" font-size="12px" fill="white" fill-rule="evenodd" stroke-width="1pt"/>
        <path d="M 414.56693 581.98816 A 0.88583398 0.88583398 0 1 1  412.7,581.9 A 0.88583398 0.88583398 0 1 1  414.56693 581.98816 z" transform="matrix(0.744189,0,0,0.620003,-371.5669,-36.76774)" font-size="12px" fill="white" fill-rule="evenodd" stroke-width="1pt"/>
        <path d="M 414.56693 581.98816 A 0.88583398 0.88583398 0 1 1  412.7,581.9 A 0.88583398 0.88583398 0 1 1  414.56693 581.98816 z" transform="matrix(0.744189,0,0,0.620003,-363.6808,-36.67654)" font-size="12px" fill="white" fill-rule="evenodd" stroke-width="1pt"/>
        <path d="M 414.56693 581.98816 A 0.88583398 0.88583398 0 1 1  412.7,581.9 A 0.88583398 0.88583398 0 1 1  414.56693 581.98816 z" transform="matrix(0.744189,0,0,0.620003,-353.1661,-49.99918)" font-size="12px" fill="white" fill-rule="evenodd" stroke-width="1pt"/>
        <path d="M 414.56693 581.98816 A 0.88583398 0.88583398 0 1 1  412.7,581.9 A 0.88583398 0.88583398 0 1 1  414.56693 581.98816 z" transform="matrix(0.744189,0,0,0.620003,-346.5944,-49.99918)" font-size="12px" fill="white" fill-rule="evenodd" stroke-width="1pt"/>
        <path d="M 414.56693 581.98816 A 0.88583398 0.88583398 0 1 1  412.7,581.9 A 0.88583398 0.88583398 0 1 1  414.56693 581.98816 z" transform="matrix(0.744189,0,0,0.620003,-340.0227,-50.04488)" font-size="12px" fill="white" fill-rule="evenodd" stroke-width="1pt"/>
        <path d="M 414.56693 581.98816 A 0.88583398 0.88583398 0 1 1  412.7,581.9 A 0.88583398 0.88583398 0 1 1  414.56693 581.98816 z" transform="matrix(0.744189,0,0,0.620003,-350.5374,-52.18929)" font-size="12px" fill="white" fill-rule="evenodd" stroke-width="1pt"/>
        <path d="M 414.56693 581.98816 A 0.88583398 0.88583398 0 1 1  412.7,581.9 A 0.88583398 0.88583398 0 1 1  414.56693 581.98816 z" transform="matrix(0.744189,0,0,0.620003,-342.7061,-52.23489)" font-size="12px" fill="white" fill-rule="evenodd" stroke-width="1pt"/>
        <path d="M 414.56693 581.98816 A 0.88583398 0.88583398 0 1 1  412.7,581.9 A 0.88583398 0.88583398 0 1 1  414.56693 581.98816 z" transform="matrix(0.744189,0,0,0.620003,-350.5922,-47.85478)" font-size="12px" fill="white" fill-rule="evenodd" stroke-width="1pt"/>
        <path d="M 414.56693 581.98816 A 0.88583398 0.88583398 0 1 1  412.7,581.9 A 0.88583398 0.88583398 0 1 1  414.56693 581.98816 z" transform="matrix(0.744189,0,0,0.620003,-342.7061,-47.76358)" font-size="12px" fill="white" fill-rule="evenodd" stroke-width="1pt"/>
        <path d="M 414.56693 581.98816 A 0.88583398 0.88583398 0 1 1  412.7,581.9 A 0.88583398 0.88583398 0 1 1  414.56693 581.98816 z" transform="matrix(0.744189,0,0,0.620003,-374.1956,-60.90373)" font-size="12px" fill="white" fill-rule="evenodd" stroke-width="1pt"/>
        <path d="M 414.56693 581.98816 A 0.88583398 0.88583398 0 1 1  412.7,581.9 A 0.88583398 0.88583398 0 1 1  414.56693 581.98816 z" transform="matrix(0.744189,0,0,0.620003,-367.6239,-60.90373)" font-size="12px" fill="white" fill-rule="evenodd" stroke-width="1pt"/>
        <path d="M 414.56693 581.98816 A 0.88583398 0.88583398 0 1 1  412.7,581.9 A 0.88583398 0.88583398 0 1 1  414.56693 581.98816 z" transform="matrix(0.744189,0,0,0.620003,-361.0521,-60.94933)" font-size="12px" fill="white" fill-rule="evenodd" stroke-width="1pt"/>
        <path d="M 414.56693 581.98816 A 0.88583398 0.88583398 0 1 1  412.7,581.9 A 0.88583398 0.88583398 0 1 1  414.56693 581.98816 z" transform="matrix(0.744189,0,0,0.620003,-371.5669,-63.09374)" font-size="12px" fill="white" fill-rule="evenodd" stroke-width="1pt"/>
        <path d="M 414.56693 581.98816 A 0.88583398 0.88583398 0 1 1  412.7,581.9 A 0.88583398 0.88583398 0 1 1  414.56693 581.98816 z" transform="matrix(0.744189,0,0,0.620003,-363.7356,-63.13934)" font-size="12px" fill="white" fill-rule="evenodd" stroke-width="1pt"/>
        <path d="M 414.56693 581.98816 A 0.88583398 0.88583398 0 1 1  412.7,581.9 A 0.88583398 0.88583398 0 1 1  414.56693 581.98816 z" transform="matrix(0.744189,0,0,0.620003,-371.6217,-58.75922)" font-size="12px" fill="white" fill-rule="evenodd" stroke-width="1pt"/>
        <path d="M 414.56693 581.98816 A 0.88583398 0.88583398 0 1 1  412.7,581.9 A 0.88583398 0.88583398 0 1 1  414.56693 581.98816 z" transform="matrix(0.744189,0,0,0.620003,-363.7356,-58.66803)" font-size="12px" fill="white" fill-rule="evenodd" stroke-width="1pt"/>
        <path d="M 414.56693 581.98816 A 0.88583398 0.88583398 0 1 1  412.7,581.9 A 0.88583398 0.88583398 0 1 1  414.56693 581.98816 z" transform="matrix(0.744189,0,0,0.620003,-395.2799,-49.81669)" font-size="12px" fill="white" fill-rule="evenodd" stroke-width="1pt"/>
        <path d="M 414.56693 581.98816 A 0.88583398 0.88583398 0 1 1  412.7,581.9 A 0.88583398 0.88583398 0 1 1  414.56693 581.98816 z" transform="matrix(0.744189,0,0,0.620003,-388.7082,-49.81669)" font-size="12px" fill="white" fill-rule="evenodd" stroke-width="1pt"/>
        <path d="M 414.56693 581.98816 A 0.88583398 0.88583398 0 1 1  412.7,581.9 A 0.88583398 0.88583398 0 1 1  414.56693 581.98816 z" transform="matrix(0.744189,0,0,0.620003,-382.1364,-49.86234)" font-size="12px" fill="white" fill-rule="evenodd" stroke-width="1pt"/>
        <path d="M 414.56693 581.98816 A 0.88583398 0.88583398 0 1 1  412.7,581.9 A 0.88583398 0.88583398 0 1 1  414.56693 581.98816 z" transform="matrix(0.744189,0,0,0.620003,-392.6512,-52.00675)" font-size="12px" fill="white" fill-rule="evenodd" stroke-width="1pt"/>
        <path d="M 414.56693 581.98816 A 0.88583398 0.88583398 0 1 1  412.7,581.9 A 0.88583398 0.88583398 0 1 1  414.56693 581.98816 z" transform="matrix(0.744189,0,0,0.620003,-384.8199,-52.05235)" font-size="12px" fill="white" fill-rule="evenodd" stroke-width="1pt"/>
        <path d="M 414.56693 581.98816 A 0.88583398 0.88583398 0 1 1  412.7,581.9 A 0.88583398 0.88583398 0 1 1  414.56693 581.98816 z" transform="matrix(0.744189,0,0,0.620003,-392.7059,-47.67223)" font-size="12px" fill="white" fill-rule="evenodd" stroke-width="1pt"/>
        <path d="M 414.56693 581.98816 A 0.88583398 0.88583398 0 1 1  412.7,581.9 A 0.88583398 0.88583398 0 1 1  414.56693 581.98816 z" transform="matrix(0.744189,0,0,0.620003,-384.8199,-47.58104)" font-size="12px" fill="white" fill-rule="evenodd" stroke-width="1pt"/>
      </g>
      <g transform="matrix(1,0,0,1.162161,193.1102,-34.28362)" font-size="12px">
        <path d="M -79.7244,145.276 L -76.1811,148.819 L -72.6378,145.276 L -79.7244,145.276 z " transform="matrix(1.24,0,0,-0.499962,40.32284,315.349)" font-size="12px" fill="white" fill-rule="evenodd" stroke-width="1pt"/>
        <path d="M -79.7244,145.276 L -76.1811,148.819 L -72.6378,145.276 L -79.7244,145.276 z " transform="matrix(1.24,0,0,-0.499962,27.14174,315.3487)" font-size="12px" fill="white" fill-rule="evenodd" stroke-width="1pt"/>
        <path d="M -79.7244,145.276 L -76.1811,148.819 L -72.6378,145.276 L -79.7244,145.276 z " transform="matrix(1.24,0,0,-0.499962,13.96062,315.3486)" font-size="12px" fill="white" fill-rule="evenodd" stroke-width="1pt"/>
        <path d="M -79.7244,145.276 L -76.1811,148.819 L -72.6378,145.276 L -79.7244,145.276 z " transform="matrix(1.24,0,0,0.499962,40.32283,129.3362)" font-size="12px" fill="white" fill-rule="evenodd" stroke-width="1pt"/>
        <path d="M -79.7244,145.276 L -76.1811,148.819 L -72.6378,145.276 L -79.7244,145.276 z " transform="matrix(1.24,0,0,0.499962,27.14173,129.3362)" font-size="12px" fill="white" fill-rule="evenodd" stroke-width="1pt"/>
        <path d="M -79.7244,145.276 L -76.1811,148.819 L -72.6378,145.276 L -79.7244,145.276 z " transform="matrix(1.24,0,0,0.499962,13.96062,129.3362)" font-size="12px" fill="white" fill-rule="evenodd" stroke-width="1pt"/>
        <path d="M -62.196979,241.91408 L -67.322897,244.67922 L -72.449103,241.91408 L -77.575117,244.67922 L -82.700745,241.91408 L -82.700745,243.29587 L -79.28366,244.67922 L -80.992685,246.061 L -80.992685,247.44357 L -79.28366,247.44357 L -77.575117,246.061 L -75.866671,247.44357 L -74.157646,247.44357 L -74.157646,246.061 L -75.866671,244.67922 L -72.449103,243.29665 L -69.031439,244.67922 L -70.740368,246.061 L -70.740368,247.44357 L -69.031439,247.44357 L -67.322897,246.061 L -65.61445,247.44357 L -63.905522,247.44357 L -63.905522,246.061 L -65.61445,244.67922 L -62.196979,243.29665 L -58.779122,244.67844 L -60.488147,246.061 L -60.488147,247.44357 L -58.779122,247.44357 L -57.070676,246.061 L -55.36223,247.44357 L -53.653301,247.44357 L -53.653301,246.061 L -55.36223,244.67844 L -51.944855,243.29587 L -51.944855,241.91408 L -57.070676,244.67844 L -62.196979,241.91408 z " font-size="12px" fill="#006a4e" fill-rule="evenodd" stroke-width="0"/>
        <path d="M -62.197052,201.82472 L -67.322991,199.05958 L -72.449219,201.82472 L -77.575254,199.05958 L -82.700903,201.82472 L -82.700903,200.44293 L -79.283804,199.05958 L -80.992836,197.67779 L -80.992836,196.29522 L -79.283804,196.29522 L -77.575254,197.67779 L -75.866801,196.29522 L -74.157769,196.29522 L -74.157769,197.67779 L -75.866801,199.05958 L -72.449219,200.44215 L -69.031541,199.05958 L -70.740476,197.67779 L -70.740476,196.29522 L -69.031541,196.29522 L -67.322991,197.67779 L -65.614538,196.29522 L -63.905602,196.29522 L -63.905602,197.67779 L -65.614538,199.05958 L -62.197052,200.44215 L -58.779181,199.06036 L -60.488213,197.67779 L -60.488213,196.29522 L -58.779181,196.29522 L -57.070728,197.67779 L -55.362275,196.29522 L -53.653339,196.29522 L -53.653339,197.67779 L -55.362275,199.06036 L -51.944886,200.44293 L -51.944886,201.82472 L -57.070728,199.06036 L -62.197052,201.82472 z " font-size="12px" fill="#006a4e" fill-rule="evenodd" stroke-width="0"/>
        <path d="M -23.385816,224.86444 L -17.89291,221.8693 L -23.385816,218.87397 L -17.89291,215.87878 L -23.385816,212.8838 L -20.640913,212.8838 L -17.89291,214.88045 L -15.148007,213.88184 L -12.401554,213.88184 L -12.401554,214.88045 L -15.148007,215.87878 L -12.401554,216.87705 L -12.401554,217.87565 L -15.148007,217.87565 L -17.89291,216.87705 L -20.639363,218.87397 L -17.89291,220.87097 L -15.148007,219.87242 L -12.401554,219.87242 L -12.401554,220.87097 L -15.148007,221.8693 L -12.401554,222.86756 L -12.401554,223.86612 L -15.148007,223.86612 L -17.89291,222.86756 L -20.639363,224.86444 L -17.89446,226.86154 L -15.148007,225.86293 L -12.401554,225.86293 L -12.401554,226.86154 L -15.148007,227.85981 L -12.401554,228.85808 L -12.401554,229.85663 L -15.148007,229.85663 L -17.89446,228.85808 L -20.640913,230.8549 L -23.385816,230.8549 L -17.89446,227.85981 L -23.385816,224.86444 z " font-size="12px" fill="#006a4e" fill-rule="evenodd" stroke-width="0"/>
        <path d="M -111.25978,224.86444 L -116.75269,221.8693 L -111.25978,218.87397 L -116.75269,215.87878 L -111.25978,212.8838 L -114.00469,212.8838 L -116.75269,214.88045 L -119.49759,213.88184 L -122.24405,213.88184 L -122.24405,214.88045 L -119.49759,215.87878 L -122.24405,216.87705 L -122.24405,217.87565 L -119.49759,217.87565 L -116.75269,216.87705 L -114.00624,218.87397 L -116.75269,220.87097 L -119.49759,219.87242 L -122.24405,219.87242 L -122.24405,220.87097 L -119.49759,221.8693 L -122.24405,222.86756 L -122.24405,223.86612 L -119.49759,223.86612 L -116.75269,222.86756 L -114.00624,224.86444 L -116.75114,226.86154 L -119.49759,225.86293 L -122.24405,225.86293 L -122.24405,226.86154 L -119.49759,227.85981 L -122.24405,228.85808 L -122.24405,229.85663 L -119.49759,229.85663 L -116.75114,228.85808 L -114.00469,230.8549 L -111.25978,230.8549 L -116.75114,227.85981 L -111.25978,224.86444 z " font-size="12px" fill="#006a4e" fill-rule="evenodd" stroke-width="0"/>
        <rect width="2.1968484" height="1.3823736" x="-21.188974" y="235.00203" font-size="12px" fill="#006a4e" fill-rule="evenodd" stroke="black" stroke-width="0.245"/>
        <rect width="2.1968534" height="1.3823855" x="-23.385828" y="236.38441" font-size="12px" fill="#006a4e" fill-rule="evenodd" stroke="black" stroke-width="0.245"/>
        <rect width="2.1968489" height="1.3823736" x="-34.370075" y="243.29636" font-size="12px" fill="#006a4e" fill-rule="evenodd" stroke="black" stroke-width="0.245"/>
        <rect width="2.1968489" height="1.3823855" x="-32.173229" y="241.91397" font-size="12px" fill="#006a4e" fill-rule="evenodd" stroke="black" stroke-width="0.245"/>
        <rect width="2.1968393" height="1.3823855" x="-104.66929" y="241.91397" font-size="12px" fill="#006a4e" fill-rule="evenodd" stroke="black" stroke-width="0.245"/>
        <rect width="2.1968489" height="1.3823736" x="-115.65355" y="235.00204" font-size="12px" fill="#006a4e" fill-rule="evenodd" stroke="black" stroke-width="0.245"/>
        <rect width="2.1968489" height="1.3823855" x="-113.4567" y="236.38441" font-size="12px" fill="#006a4e" fill-rule="evenodd" stroke="black" stroke-width="0.245"/>
        <rect width="2.1968489" height="1.3823736" x="-113.4567" y="205.97194" font-size="12px" fill="#006a4e" fill-rule="evenodd" stroke="black" stroke-width="0.245"/>
        <rect width="2.1968489" height="1.3823973" x="-115.65355" y="207.35429" font-size="12px" fill="#006a4e" fill-rule="evenodd" stroke="black" stroke-width="0.245"/>
        <rect width="2.1968677" height="1.3823617" x="-102.47245" y="199.06" font-size="12px" fill="#006a4e" fill-rule="evenodd" stroke="black" stroke-width="0.245"/>
        <rect width="2.1968393" height="1.3823855" x="-104.66929" y="200.44235" font-size="12px" fill="#006a4e" fill-rule="evenodd" stroke="black" stroke-width="0.245"/>
        <rect width="2.1968489" height="1.3823617" x="-34.370075" y="199.06" font-size="12px" fill="#006a4e" fill-rule="evenodd" stroke="black" stroke-width="0.245"/>
        <rect width="2.1968489" height="1.3823855" x="-32.173229" y="200.44235" font-size="12px" fill="#006a4e" fill-rule="evenodd" stroke="black" stroke-width="0.245"/>
        <rect width="2.1968534" height="1.3823736" x="-23.385828" y="205.97194" font-size="12px" fill="#006a4e" fill-rule="evenodd" stroke="black" stroke-width="0.245"/>
        <rect width="2.1968489" height="1.3823973" x="-21.188974" y="207.35429" font-size="12px" fill="#006a4e" fill-rule="evenodd" stroke="black" stroke-width="0.245"/>
        <rect width="2.1968677" height="1.3823736" x="-102.47245" y="243.29636" font-size="12px" fill="#006a4e" fill-rule="evenodd" stroke="black" stroke-width="0.245"/>
        <path d="M -74.02731,221.86926 L -80.502648,221.86864 L -80.503866,219.15181 L -76.186162,219.15334 L -76.186162,216.60569 L -71.868458,216.60569 L -71.868458,214.26617 L -67.550754,214.26617 L -67.550754,217.1905 C -71.125959,217.1905 -74.02731,219.17142 -74.02731,221.86926 z " font-size="12px" fill="white" fill-rule="evenodd" stroke-width="1.25"/>
        <path d="M -61.07449,221.86917 L -54.599152,221.86856 L -54.597934,219.15173 L -58.915638,219.15326 L -58.915638,216.60562 L -63.233342,216.60562 L -63.233342,214.26609 L -67.551046,214.26609 L -67.551046,217.19043 C -63.975841,217.19043 -61.07449,219.17135 -61.07449,221.86917 z " font-size="12px" fill="#ff9a00" fill-rule="evenodd" stroke-width="1.25"/>
        <path d="M -61.07449,221.86933 L -54.599152,221.86995 L -54.597934,224.58678 L -58.915638,224.58525 L -58.915638,227.13289 L -63.233342,227.13289 L -63.233342,229.47242 L -67.551046,229.47242 L -67.551046,226.54808 C -63.975841,226.54808 -61.07449,224.56716 -61.07449,221.86933 z " font-size="12px" fill="white" fill-rule="evenodd" stroke-width="1.25"/>
        <path d="M -74.02731,221.86941 L -80.502648,221.87002 L -80.503866,224.58686 L -76.186162,224.58532 L -76.186162,227.13297 L -71.868458,227.13297 L -71.868458,229.4725 L -67.550754,229.4725 L -67.550754,226.54816 C -71.125959,226.54816 -74.02731,224.56724 -74.02731,221.86941 z " font-size="12px" fill="#ff9a00" fill-rule="evenodd" stroke-width="1.25"/>
        <path d="M -61.074469,221.86917 C -61.074469,221.86917 -67.550635,221.86917 -67.550635,221.86917 C -67.550635,221.86917 -67.550635,217.19035 -67.550635,217.19035 C -63.975827,217.19035 -61.074469,219.28664 -61.074469,221.86917 z " font-size="12px" fill="#006a4e" fill-rule="evenodd" stroke-width="1pt"/>
        <path d="M -61.074569,221.86926 C -61.074569,221.86926 -67.550735,221.86926 -67.550735,221.86926 C -67.550735,221.86926 -67.550735,226.54807 -67.550735,226.54807 C -63.975927,226.54807 -61.074569,224.45179 -61.074569,221.86926 z " font-size="12px" fill="#b31b34" fill-opacity="1" fill-rule="evenodd" stroke-width="1pt"/>
        <path d="M -74.027331,221.86926 C -74.027331,221.86926 -67.551165,221.86926 -67.551165,221.86926 C -67.551165,221.86926 -67.551165,226.54807 -67.551165,226.54807 C -71.125973,226.54807 -74.027331,224.45179 -74.027331,221.86926 z " font-size="12px" fill="#006a4e" fill-rule="evenodd" stroke-width="1pt"/>
        <path d="M -74.027031,221.86917 C -74.027031,221.86917 -67.550865,221.86917 -67.550865,221.86917 C -67.550865,221.86917 -67.550865,217.19035 -67.550865,217.19035 C -71.125673,217.19035 -74.027031,219.28664 -74.027031,221.86917 z " font-size="12px" fill="#b31b34" fill-opacity="1" fill-rule="evenodd" stroke-width="1pt"/>
        <path d="M -60.731658,239.14983 L -67.32201,236.38452 L -73.912734,239.14983 L -80.50321,236.38452 L -87.09319,239.14983 L -87.09319,237.76796 L -82.69987,236.38452 L -84.89715,235.00265 L -84.89715,233.61998 L -82.69987,233.61998 L -80.50321,235.00265 L -78.306674,233.61998 L -76.109394,233.61998 L -76.109394,235.00265 L -78.306674,236.38452 L -73.912734,237.76718 L -69.51867,236.38452 L -71.715826,235.00265 L -71.715826,233.61998 L -69.51867,233.61998 L -67.32201,235.00265 L -65.125474,233.61998 L -62.928318,233.61998 L -62.928318,235.00265 L -65.125474,236.38452 L -60.731658,237.76718 L -56.337346,236.3853 L -58.534626,235.00265 L -58.534626,233.61998 L -56.337346,233.61998 L -54.14081,235.00265 L -51.944274,233.61998 L -49.747118,233.61998 L -49.747118,235.00265 L -51.944274,236.3853 L -47.550582,237.76796 L -47.550582,239.14983 L -54.14081,236.3853 L -60.731658,239.14983 z " font-size="12px" fill="#006a4e" fill-rule="evenodd" stroke-width="0"/>
        <path d="M -60.731678,204.5901 L -67.32203,207.35541 L -73.912754,204.5901 L -80.50323,207.35541 L -87.09321,204.5901 L -87.09321,205.97198 L -82.69989,207.35541 L -84.89717,208.73729 L -84.89717,210.11995 L -82.69989,210.11995 L -80.50323,208.73729 L -78.306694,210.11995 L -76.109414,210.11995 L -76.109414,208.73729 L -78.306694,207.35541 L -73.912754,205.97276 L -69.51869,207.35541 L -71.715846,208.73729 L -71.715846,210.11995 L -69.51869,210.11995 L -67.32203,208.73729 L -65.125494,210.11995 L -62.928338,210.11995 L -62.928338,208.73729 L -65.125494,207.35541 L -60.731678,205.97276 L -56.337366,207.35463 L -58.534646,208.73729 L -58.534646,210.11995 L -56.337366,210.11995 L -54.14083,208.73729 L -51.944294,210.11995 L -49.747138,210.11995 L -49.747138,208.73729 L -51.944294,207.35463 L -47.550602,205.97198 L -47.550602,204.5901 L -54.14083,207.35463 L -60.731678,204.5901 z " font-size="12px" fill="#006a4e" fill-rule="evenodd" stroke-width="0"/>
        <path d="M -36.565917,225.32579 L -39.861915,221.86985 L -36.565917,218.41373 L -39.861915,214.95774 L -36.565917,211.502 L -38.212986,211.502 L -39.861915,213.80582 L -41.508984,212.65359 L -43.156983,212.65359 L -43.156983,213.80582 L -41.508984,214.95774 L -43.156983,216.10958 L -43.156983,217.26182 L -41.508984,217.26182 L -39.861915,216.10958 L -38.213916,218.41373 L -39.861915,220.71794 L -41.508984,219.56578 L -43.156983,219.56578 L -43.156983,220.71794 L -41.508984,221.86985 L -43.156983,223.02171 L -43.156983,224.17387 L -41.508984,224.17387 L -39.861915,223.02171 L -38.213916,225.32579 L -39.860985,227.63013 L -41.508984,226.47789 L -43.156983,226.47789 L -43.156983,227.63013 L -41.508984,228.78198 L -43.156983,229.93383 L -43.156983,231.086 L -41.508984,231.086 L -39.860985,229.93383 L -38.212986,232.23785 L -36.565917,232.23785 L -39.860985,228.78198 L -36.565917,225.32579 z " font-size="12px" fill="#006a4e" fill-rule="evenodd" stroke-width="0"/>
        <path d="M -87.09356,205.97298 L -95.88144,211.50204 L -95.88144,232.23799 L -87.09356,237.76784 L -47.550952,237.76784 L -38.763444,232.23799 L -38.763444,211.50204 L -47.550952,205.97298 L -87.09356,205.97298 z M -89.29084,201.825 L -111.25992,215.64845 L -111.25992,228.09002 L -89.29084,241.91425 L -45.354292,241.91425 L -23.385832,228.09002 L -23.385832,215.64845 L -45.354292,201.825 L -89.29084,201.825 z " font-size="12px" fill="#006a4e" fill-rule="evenodd" stroke="black" stroke-width="0.393"/>
        <path d="M -77.867697,239.14927 L -74.352736,241.91403 L -70.837776,239.14927 L -77.867697,239.14927 z " font-size="12px" fill="#ff9a00" fill-rule="evenodd" stroke="black" stroke-width="0.179"/>
        <path d="M -77.867717,204.58955 L -74.352756,201.82479 L -70.837796,204.58955 L -77.867717,204.58955 z " font-size="12px" fill="#ff9a00" fill-rule="evenodd" stroke="black" stroke-width="0.179"/>
        <path d="M -63.807847,204.58955 L -60.292886,201.82479 L -56.777926,204.58955 L -63.807847,204.58955 z " font-size="12px" fill="#ff9a00" fill-rule="evenodd" stroke="black" stroke-width="0.179"/>
        <path d="M -63.807837,239.14927 L -60.292876,241.91403 L -56.777916,239.14927 L -63.807837,239.14927 z " font-size="12px" fill="#ff9a00" fill-rule="evenodd" stroke="black" stroke-width="0.179"/>
        <path d="M -84.89764,204.58955 L -81.382679,201.82479 L -77.867719,204.58955 L -84.89764,204.58955 z " font-size="12px" fill="#b31b34" fill-rule="evenodd" stroke="black" stroke-width="0.179"/>
        <path d="M -70.837777,204.58955 L -67.322816,201.82479 L -63.807856,204.58955 L -70.837777,204.58955 z " font-size="12px" fill="#b31b34" fill-rule="evenodd" stroke="black" stroke-width="0.179"/>
        <path d="M -56.777917,204.58955 L -53.262956,201.82479 L -49.747996,204.58955 L -56.777917,204.58955 z " font-size="12px" fill="#b31b34" fill-rule="evenodd" stroke="black" stroke-width="0.179"/>
        <path d="M -93.685037,235.0021 L -87.093622,239.1498 L -93.685037,239.1498 L -93.685037,235.0021 z " font-size="12px" fill="#b31b34" fill-rule="evenodd" stroke="black" stroke-width="0.368"/>
        <path d="M -98.078083,225.32579 L -94.782085,221.86985 L -98.078083,218.41373 L -94.782085,214.95774 L -98.078083,211.502 L -96.431014,211.502 L -94.782085,213.80582 L -93.135016,212.65359 L -91.487017,212.65359 L -91.487017,213.80582 L -93.135016,214.95774 L -91.487017,216.10958 L -91.487017,217.26182 L -93.135016,217.26182 L -94.782085,216.10958 L -96.430084,218.41373 L -94.782085,220.71794 L -93.135016,219.56578 L -91.487017,219.56578 L -91.487017,220.71794 L -93.135016,221.86985 L -91.487017,223.02171 L -91.487017,224.17387 L -93.135016,224.17387 L -94.782085,223.02171 L -96.430084,225.32579 L -94.783015,227.63013 L -93.135016,226.47789 L -91.487017,226.47789 L -91.487017,227.63013 L -93.135016,228.78198 L -91.487017,229.93383 L -91.487017,231.086 L -93.135016,231.086 L -94.783015,229.93383 L -96.431014,232.23785 L -98.078083,232.23785 L -94.783015,228.78198 L -98.078083,225.32579 z " font-size="12px" fill="#006a4e" fill-rule="evenodd" stroke-width="0"/>
        <path d="M -34.370024,218.13719 L -25.58264,218.13719 L -23.385732,219.3816 L -25.58264,220.62532 L -34.370024,220.62532 L -34.370024,218.13719 z " font-size="12px" fill="#b31b34" fill-rule="evenodd" stroke="black" stroke-width="0.233"/>
        <path d="M -93.68498,208.73652 L -98.0783,211.50183 L -98.0783,232.23778 L -93.68498,235.00232 L -100.27682,235.00232 L -100.27558,208.73652 L -93.68498,208.73652 z " font-size="12px" fill="#b31b34" fill-rule="evenodd" stroke="black" stroke-width="0.368"/>
        <path d="M -84.897623,239.14927 L -81.382662,241.91403 L -77.867702,239.14927 L -84.897623,239.14927 z " font-size="12px" fill="#b31b34" fill-rule="evenodd" stroke="black" stroke-width="0.179"/>
        <path d="M -70.837757,239.14927 L -67.322796,241.91403 L -63.807836,239.14927 L -70.837757,239.14927 z " font-size="12px" fill="#b31b34" fill-rule="evenodd" stroke="black" stroke-width="0.179"/>
        <path d="M -56.777897,239.14927 L -53.262936,241.91403 L -49.747976,239.14927 L -56.777897,239.14927 z " font-size="12px" fill="#b31b34" fill-rule="evenodd" stroke="black" stroke-width="0.179"/>
        <path d="M -40.960648,208.73652 L -36.56646,211.50183 L -36.56646,232.23778 L -40.960648,235.00232 L -34.37042,235.00232 L -34.37042,208.73652 L -40.960648,208.73652 z " font-size="12px" fill="#b31b34" fill-rule="evenodd" stroke="black" stroke-width="0.368"/>
        <path d="M -40.959663,235.00147 L -47.551078,239.14917 L -40.959663,239.14917 L -40.959663,235.00147 z " font-size="12px" fill="#b31b34" fill-rule="evenodd" stroke="black" stroke-width="0.368"/>
        <path d="M -40.959663,208.73676 L -47.551078,204.58905 L -40.959663,204.58905 L -40.959663,208.73676 z " font-size="12px" fill="#b31b34" fill-rule="evenodd" stroke="black" stroke-width="0.368"/>
        <path d="M -93.685937,208.73723 L -87.094522,204.58953 L -93.685937,204.58953 L -93.685937,208.73723 z " font-size="12px" fill="#b31b34" fill-rule="evenodd" stroke="black" stroke-width="0.368"/>
        <path d="M -87.09356,205.97298 L -95.88144,211.50204 L -95.88144,232.23799 L -87.09356,237.76784 L -47.550952,237.76784 L -38.763444,232.23799 L -38.763444,211.50204 L -47.550952,205.97298 L -87.09356,205.97298 z M -87.0948,204.58953 L -98.07872,211.50126 L -98.07872,232.23721 L -87.09356,239.14894 L -47.5512,239.14894 L -36.566908,232.23721 L -36.566908,211.50126 L -47.552068,204.58953 L -87.0948,204.58953 z " font-size="12px" fill="#006a4e" fill-rule="evenodd" stroke="black" stroke-width="0.393"/>
        <path d="M -34.370074,220.62527 L -25.58269,220.62527 L -23.385782,221.86978 L -25.58269,223.11358 L -34.370074,223.11358 L -34.370074,220.62527 z " font-size="12px" fill="#ff9a00" fill-rule="evenodd" stroke="black" stroke-width="0.233"/>
        <path d="M -34.369974,223.11363 L -25.58259,223.11363 L -23.385682,224.35805 L -25.58259,225.60176 L -34.369974,225.60176 L -34.369974,223.11363 z " font-size="12px" fill="#b31b34" fill-rule="evenodd" stroke="black" stroke-width="0.233"/>
        <path d="M -34.370024,225.60176 L -25.58264,225.60176 L -23.385732,226.84628 L -25.58264,228.09008 L -34.370024,228.09008 L -34.370024,225.60176 z " font-size="12px" fill="#ff9a00" fill-rule="evenodd" stroke="black" stroke-width="0.233"/>
        <path d="M -34.370024,215.64856 L -25.58264,215.64856 L -23.385732,216.89307 L -25.58264,218.13688 L -34.370024,218.13688 L -34.370024,215.64856 z " font-size="12px" fill="#ff9a00" fill-rule="evenodd" stroke="black" stroke-width="0.233"/>
        <path d="M -100.27554,218.13727 L -109.06292,218.13727 L -111.25983,219.38169 L -109.06292,220.6254 L -100.27554,220.6254 L -100.27554,218.13727 z " font-size="12px" fill="#b31b34" fill-rule="evenodd" stroke="black" stroke-width="0.233"/>
        <path d="M -100.27544,220.62536 L -109.06282,220.62536 L -111.25973,221.86986 L -109.06282,223.11367 L -100.27544,223.11367 L -100.27544,220.62536 z " font-size="12px" fill="#ff9a00" fill-rule="evenodd" stroke="black" stroke-width="0.233"/>
        <path d="M -100.27554,223.11369 L -109.06292,223.11369 L -111.25983,224.3581 L -109.06292,225.60181 L -100.27554,225.60181 L -100.27554,223.11369 z " font-size="12px" fill="#b31b34" fill-rule="evenodd" stroke="black" stroke-width="0.233"/>
        <path d="M -100.27554,225.60182 L -109.06292,225.60182 L -111.25983,226.84632 L -109.06292,228.09013 L -100.27554,228.09013 L -100.27554,225.60182 z " font-size="12px" fill="#ff9a00" fill-rule="evenodd" stroke="black" stroke-width="0.233"/>
        <path d="M -100.27554,215.64865 L -109.06292,215.64865 L -111.25983,216.89316 L -109.06292,218.13696 L -100.27554,218.13696 L -100.27554,215.64865 z " font-size="12px" fill="#ff9a00" fill-rule="evenodd" stroke="black" stroke-width="0.233"/>
        <path d="M -113.45638,207.3543 L -113.45638,236.38463 L -102.47246,236.38463 L -102.47246,243.29636 L -32.173264,243.29636 L -32.173264,236.38463 L -21.188972,236.38463 L -21.188972,207.3543 L -32.173264,207.3543 L -32.173264,200.44258 L -102.47246,200.44258 L -102.47246,207.3543 L -113.45638,207.3543 z M -111.25984,208.73696 L -111.25984,235.00198 L -100.27555,235.00198 L -100.27555,241.9137 L -34.370048,241.9137 L -34.370048,235.00198 L -23.38588,235.00198 L -23.38588,208.73696 L -34.370048,208.73696 L -34.370048,201.82446 L -100.27555,201.82446 L -100.27555,208.73696 L -111.25984,208.73696 z " font-size="12px" fill="#970000" fill-rule="evenodd" stroke="black" stroke-width="0.245"/>
      </g>
      <g transform="matrix(1.148147,0,0,1.117647,217.3228,-7.816101)">
        <path d="M -28.3466,69.0943 L -33.6616,62.0077 L -33.6616,56.6927 L -38.9766,51.378 L -49.6063,51.378 L -58.4646,46.063 L -86.8111,46.0632 L -95.6694,51.3782 L -106.299,51.3782 L -111.614,56.6929 L -111.614,62.0079 L -116.929,69.0945 L -116.929,83.2677 L -111.614,90.3543 L -111.614,95.6693 L -106.299,100.984 L -95.6693,100.984 L -86.811,106.299 L -58.4645,106.299 L -49.6062,100.984 L -38.9765,100.984 L -33.6615,95.6695 L -33.6615,90.3545 L -28.3465,83.2679 L -28.3466,69.0943 z " transform="matrix(1.080003,0,0,1.000004,-1.275457,-24.80337)" font-size="12px" fill="#b31b34" fill-rule="evenodd" stroke="black" stroke-width="0.25"/>
        <path d="M 345.4,251.5 L 345.4,256.8 L 350.7,263.9 L 350.7,269.2 L 356.1,274.6 L 366.7,274.6 L 375.5,279.9 L 387.9,279.9 L 387.9,251.5 L 345.4,251.5 z " transform="matrix(1.079964,0,0,1.000018,-498.7432,-200.2014)" font-size="12px" fill="#ff9a00" fill-rule="evenodd" stroke-width="1pt"/>
        <path d="M 328.3,268.9 L 319.9,276.8 L 314.9,276.8 L 316.5,279.5 L 313.2,284.8 L 314.9,287.4 L 319.9,284.8 L 321.6,287.4 L 322.3,280.3 L 331.6,271.9 L 328.3,268.9 z " transform="matrix(0.830448,0,0,0.571998,-368.559,-90.03357)" font-size="12px" fill="#b31b34" fill-rule="evenodd" stroke-width="1pt"/>
        <path d="M 328.3,268.9 L 319.9,276.8 L 314.9,276.8 L 316.5,279.5 L 313.2,284.8 L 314.9,287.4 L 319.9,284.8 L 321.6,287.4 L 322.3,280.3 L 331.6,271.9 L 328.3,268.9 z " transform="matrix(0.830448,0,0,0.571998,-376.213,-93.57686)" font-size="12px" fill="#b31b34" fill-rule="evenodd" stroke-width="1pt"/>
        <path d="M 328.3,268.9 L 319.9,276.8 L 314.9,276.8 L 316.5,279.5 L 313.2,284.8 L 314.9,287.4 L 319.9,284.8 L 321.6,287.4 L 322.3,280.3 L 331.6,271.9 L 328.3,268.9 z " transform="matrix(0.830448,0,0,0.571998,-380.0393,-100.6634)" font-size="12px" fill="#b31b34" fill-rule="evenodd" stroke-width="1pt"/>
        <path d="M 345.4,251.5 L 345.4,256.8 L 350.7,263.9 L 350.7,269.2 L 356.1,274.6 L 366.7,274.6 L 375.5,279.9 L 387.9,279.9 L 387.9,251.5 L 345.4,251.5 z " transform="matrix(-1.079964,0,0,-1.000018,339.2942,302.9575)" font-size="12px" fill="#ff9a00" fill-rule="evenodd" stroke-width="1pt"/>
        <path d="M -72.6378,47.8349 L -69.3569,47.8349 L -65.5512,51.378 L -59.5144,51.3782 L -56.2336,53.1498 L -57.874,54.9215 L -61.1549,53.1498 L -64.4357,53.1498 L -67.7165,58.4648 L -72.6378,56.6931 L -72.6378,53.1498 L -67.7165,53.1498 L -72.6378,47.8349 z " transform="matrix(-1.080003,0,0,-1.000004,-158.1734,127.5595)" font-size="12px" fill="#b31b34" fill-rule="evenodd" stroke-width="1pt"/>
        <path d="M 345.4,251.5 L 345.4,256.8 L 350.7,263.9 L 350.7,269.2 L 356.1,274.6 L 366.7,274.6 L 375.5,279.9 L 387.9,279.9 L 387.9,251.5 L 345.4,251.5 z " transform="matrix(1.079964,0,0,-1.000018,-498.7432,302.9575)" font-size="12px" fill="white" fill-rule="evenodd" stroke-width="1pt"/>
        <path d="M -72.6378,47.8349 L -69.3569,47.8349 L -65.5512,51.378 L -59.5144,51.3782 L -56.2336,53.1498 L -57.874,54.9215 L -61.1549,53.1498 L -64.4357,53.1498 L -67.7165,58.4648 L -72.6378,56.6931 L -72.6378,53.1498 L -67.7165,53.1498 L -72.6378,47.8349 z " transform="matrix(-1.080003,0,0,1.000004,-158.1734,-24.80363)" font-size="12px" fill="#b31b34" fill-rule="evenodd" stroke-width="1pt"/>
        <path d="M -72.6378,47.8349 L -69.3569,47.8349 L -65.5512,51.378 L -59.5144,51.3782 L -56.2336,53.1498 L -57.874,54.9215 L -61.1549,53.1498 L -64.4357,53.1498 L -67.7165,58.4648 L -72.6378,56.6931 L -72.6378,53.1498 L -67.7165,53.1498 L -72.6378,47.8349 z " transform="matrix(1.080003,0,0,1.000004,-1.27542,-24.80363)" font-size="12px" fill="#b31b34" fill-rule="evenodd" stroke-width="1pt"/>
        <path d="M 345.4,251.5 L 345.4,256.8 L 350.7,263.9 L 350.7,269.2 L 356.1,274.6 L 366.7,274.6 L 375.5,279.9 L 387.9,279.9 L 387.9,251.5 L 345.4,251.5 z " transform="matrix(-1.079964,0,0,1.000018,339.2942,-200.2016)" font-size="12px" fill="white" fill-rule="evenodd" stroke-width="1pt"/>
        <path d="M -72.6378,47.8349 L -69.3569,47.8349 L -65.5512,51.378 L -59.5144,51.3782 L -56.2336,53.1498 L -57.874,54.9215 L -61.1549,53.1498 L -64.4357,53.1498 L -67.7165,58.4648 L -72.6378,56.6931 L -72.6378,53.1498 L -67.7165,53.1498 L -72.6378,47.8349 z " transform="matrix(1.080003,0,0,-1.000004,-1.275401,127.5595)" font-size="12px" fill="#b31b34" fill-rule="evenodd" stroke-width="1pt"/>
        <path d="M 328.3,268.9 L 319.9,276.8 L 314.9,276.8 L 316.5,279.5 L 313.2,284.8 L 314.9,287.4 L 319.9,284.8 L 321.6,287.4 L 322.3,280.3 L 331.6,271.9 L 328.3,268.9 z " transform="matrix(0.830448,0,0,-0.571998,-376.2125,196.333)" font-size="12px" fill="#b31b34" fill-rule="evenodd" stroke-width="1pt"/>
        <path d="M 328.3,268.9 L 319.9,276.8 L 314.9,276.8 L 316.5,279.5 L 313.2,284.8 L 314.9,287.4 L 319.9,284.8 L 321.6,287.4 L 322.3,280.3 L 331.6,271.9 L 328.3,268.9 z " transform="matrix(-0.830448,0,0,-0.571998,209.1097,192.7897)" font-size="12px" fill="#b31b34" fill-rule="evenodd" stroke-width="1pt"/>
        <path d="M 328.3,268.9 L 319.9,276.8 L 314.9,276.8 L 316.5,279.5 L 313.2,284.8 L 314.9,287.4 L 319.9,284.8 L 321.6,287.4 L 322.3,280.3 L 331.6,271.9 L 328.3,268.9 z " transform="matrix(0.830448,0,0,-0.571998,-368.5587,192.7897)" font-size="12px" fill="#b31b34" fill-rule="evenodd" stroke-width="1pt"/>
        <path d="M 328.3,268.9 L 319.9,276.8 L 314.9,276.8 L 316.5,279.5 L 313.2,284.8 L 314.9,287.4 L 319.9,284.8 L 321.6,287.4 L 322.3,280.3 L 331.6,271.9 L 328.3,268.9 z " transform="matrix(0.830448,0,0,-0.571998,-380.039,203.4196)" font-size="12px" fill="#b31b34" fill-rule="evenodd" stroke-width="1pt"/>
        <path d="M 334.7,269.2 L 336.3,269.2 L 337.8,270.9 L 339.4,269.2 L 372.0,269.2 L 372.0,292.1 L 370.4,292.1 L 372.0,293.8 L 372.0,295.4 L 367.3,290.5 L 367.3,288.9 L 368.9,288.9 L 368.9,290.5 L 370.4,290.5 L 370.4,288.9 L 357.8,281.6 L 347.2,281.6 L 347.2,274.6 L 342.5,270.9 L 339.4,270.9 L 337.8,272.5 L 339.4,274.1 L 337.8,274.1 L 334.7,269.2 z " transform="matrix(1.139986,0,0,1.08336,-503.8528,-240.3619)" font-size="12px" fill="white" fill-rule="evenodd" stroke-width="0"/>
        <path d="M 334.7,269.2 L 336.3,269.2 L 337.8,270.9 L 339.4,269.2 L 372.0,269.2 L 372.0,292.1 L 370.4,292.1 L 372.0,293.8 L 372.0,295.4 L 367.3,290.5 L 367.3,288.9 L 368.9,288.9 L 368.9,290.5 L 370.4,290.5 L 370.4,288.9 L 357.8,281.6 L 347.2,281.6 L 347.2,274.6 L 342.5,270.9 L 339.4,270.9 L 337.8,272.5 L 339.4,274.1 L 337.8,274.1 L 334.7,269.2 z " transform="matrix(1.139986,0,0,-1.08336,-503.8529,343.1169)" font-size="12px" fill="#ff9a00" fill-opacity="1" fill-rule="evenodd" stroke-width="0"/>
        <path d="M 340.1,269.2 L 372.0,269.2 L 372.0,290.5 L 357.8,281.6 L 347.2,281.6 L 347.2,274.6 L 340.1,269.2 z " transform="matrix(1.079983,0,0,1.000028,-481.5291,-217.9204)" font-size="12px" fill="#006a4e" fill-rule="evenodd" stroke-width="0"/>
        <path d="M 328.3,268.9 L 319.9,276.8 L 314.9,276.8 L 316.5,279.5 L 313.2,284.8 L 314.9,287.4 L 319.9,284.8 L 321.6,287.4 L 322.3,280.3 L 331.6,271.9 L 328.3,268.9 z " transform="matrix(-0.830448,0,0,-0.571998,216.7636,196.333)" font-size="12px" fill="#b31b34" fill-rule="evenodd" stroke-width="1pt"/>
        <path d="M 328.3,268.9 L 319.9,276.8 L 314.9,276.8 L 316.5,279.5 L 313.2,284.8 L 314.9,287.4 L 319.9,284.8 L 321.6,287.4 L 322.3,280.3 L 331.6,271.9 L 328.3,268.9 z " transform="matrix(-0.830448,0,0,-0.571998,220.59,203.4196)" font-size="12px" fill="#b31b34" fill-rule="evenodd" stroke-width="1pt"/>
        <path d="M 334.7,269.2 L 336.3,269.2 L 337.8,270.9 L 339.4,269.2 L 372.0,269.2 L 372.0,292.1 L 370.4,292.1 L 372.0,293.8 L 372.0,295.4 L 367.3,290.5 L 367.3,288.9 L 368.9,288.9 L 368.9,290.5 L 370.4,290.5 L 370.4,288.9 L 357.8,281.6 L 347.2,281.6 L 347.2,274.6 L 342.5,270.9 L 339.4,270.9 L 337.8,272.5 L 339.4,274.1 L 337.8,274.1 L 334.7,269.2 z " transform="matrix(-1.139986,0,0,-1.08336,344.4038,343.1179)" font-size="12px" fill="white" fill-rule="evenodd" stroke-width="0"/>
        <path d="M 340.1,269.2 L 372.0,269.2 L 372.0,290.5 L 357.8,281.6 L 347.2,281.6 L 347.2,274.6 L 340.1,269.2 z " transform="matrix(-1.079983,0,0,-1.000028,322.08,320.6771)" font-size="12px" fill="#006a4e" fill-rule="evenodd" stroke-width="0"/>
        <path d="M 328.3,268.9 L 319.9,276.8 L 314.9,276.8 L 316.5,279.5 L 313.2,284.8 L 314.9,287.4 L 319.9,284.8 L 321.6,287.4 L 322.3,280.3 L 331.6,271.9 L 328.3,268.9 z " transform="matrix(-0.830448,0,0,0.571998,209.11,-90.0336)" font-size="12px" fill="#b31b34" fill-rule="evenodd" stroke-width="1pt"/>
        <path d="M 328.3,268.9 L 319.9,276.8 L 314.9,276.8 L 316.5,279.5 L 313.2,284.8 L 314.9,287.4 L 319.9,284.8 L 321.6,287.4 L 322.3,280.3 L 331.6,271.9 L 328.3,268.9 z " transform="matrix(-0.830448,0,0,0.571998,216.7641,-93.57689)" font-size="12px" fill="#b31b34" fill-rule="evenodd" stroke-width="1pt"/>
        <path d="M 328.3,268.9 L 319.9,276.8 L 314.9,276.8 L 316.5,279.5 L 313.2,284.8 L 314.9,287.4 L 319.9,284.8 L 321.6,287.4 L 322.3,280.3 L 331.6,271.9 L 328.3,268.9 z " transform="matrix(-0.830448,0,0,0.571998,220.5903,-100.6634)" font-size="12px" fill="#b31b34" fill-rule="evenodd" stroke-width="1pt"/>
        <path d="M 334.7,269.2 L 336.3,269.2 L 337.8,270.9 L 339.4,269.2 L 372.0,269.2 L 372.0,292.1 L 370.4,292.1 L 372.0,293.8 L 372.0,295.4 L 367.3,290.5 L 367.3,288.9 L 368.9,288.9 L 368.9,290.5 L 370.4,290.5 L 370.4,288.9 L 357.8,281.6 L 347.2,281.6 L 347.2,274.6 L 342.5,270.9 L 339.4,270.9 L 337.8,272.5 L 339.4,274.1 L 337.8,274.1 L 334.7,269.2 z " transform="matrix(-1.139986,0,0,1.08336,344.404,-240.3611)" font-size="12px" fill="#ff9a00" fill-opacity="1" fill-rule="evenodd" stroke-width="0"/>
        <path d="M 340.1,269.2 L 372.0,269.2 L 372.0,290.5 L 357.8,281.6 L 347.2,281.6 L 347.2,274.6 L 340.1,269.2 z " transform="matrix(-1.079983,0,0,1.000028,322.08,-217.9201)" font-size="12px" fill="#b31b34" fill-rule="evenodd" stroke-width="0"/>
        <path d="M 340.1,269.2 L 372.0,269.2 L 372.0,290.5 L 357.8,281.6 L 347.2,281.6 L 347.2,274.6 L 340.1,269.2 z " transform="matrix(1.079983,0,0,-1.000028,-481.5291,320.6772)" font-size="12px" fill="#b31b34" fill-rule="evenodd" stroke-width="0"/>
        <path d="M 328.3,268.9 L 319.9,276.8 L 314.9,276.8 L 316.5,279.5 L 313.2,284.8 L 314.9,287.4 L 319.9,284.8 L 321.6,287.4 L 322.3,280.3 L 331.6,271.9 L 328.3,268.9 z " transform="matrix(-1.14187,0,0,-0.667349,299.0075,230.8318)" font-size="12px" fill="#b31b34" fill-rule="evenodd" stroke-width="1pt"/>
        <path d="M 328.3,268.9 L 319.9,276.8 L 314.9,276.8 L 316.5,279.5 L 313.2,284.8 L 314.9,287.4 L 319.9,284.8 L 321.6,287.4 L 322.3,280.3 L 331.6,271.9 L 328.3,268.9 z " transform="matrix(1.14187,0,0,0.667349,-458.4568,-128.0753)" font-size="12px" fill="#b31b34" fill-rule="evenodd" stroke-width="1pt"/>
        <path d="M 328.3,268.9 L 319.9,276.8 L 314.9,276.8 L 316.5,279.5 L 313.2,284.8 L 314.9,287.4 L 319.9,284.8 L 321.6,287.4 L 322.3,280.3 L 331.6,271.9 L 328.3,268.9 z " transform="matrix(1.14187,0,0,-0.667349,-458.4568,230.8318)" font-size="12px" fill="#006a4e" fill-rule="evenodd" stroke-width="1pt"/>
        <path d="M 328.3,268.9 L 319.9,276.8 L 314.9,276.8 L 316.5,279.5 L 313.2,284.8 L 314.9,287.4 L 319.9,284.8 L 321.6,287.4 L 322.3,280.3 L 331.6,271.9 L 328.3,268.9 z " transform="matrix(-1.14187,0,0,0.667349,299.0075,-128.0753)" font-size="12px" fill="#006a4e" fill-rule="evenodd" stroke-width="1pt"/>
        <path d="M 311.8,217.9 L 320.6,212.5 L 329.5,217.9 L 320.6,223.2 L 311.8,217.9 z " transform="matrix(1.295992,0,0,1.666655,-495.3101,-311.8079)" font-size="12px" fill="white" fill-opacity="1" fill-rule="evenodd" stroke="none" stroke-width="1.245" stroke-dasharray="none"/>
        <path d="M -66.0761,53.1499 L -67.7165,51.3783 L -66.0761,49.6066 L -64.4357,49.6066 L -59.5144,56.6932 L -61.1549,56.6932 L -64.4357,51.3783 L -66.0761,51.3783 L -64.4357,53.1499 L -66.0761,54.9216 L -69.3569,54.9216 L -69.3569,53.1499 L -66.0761,53.1499 z " transform="matrix(-1.080003,0,0,-1.000004,-188.2915,108.0714)" font-size="12px" fill="#b31b34" fill-rule="evenodd" stroke-width="1pt"/>
        <path d="M -66.0761,53.1499 L -67.7165,51.3783 L -66.0761,49.6066 L -64.4357,49.6066 L -59.5144,56.6932 L -61.1549,56.6932 L -64.4357,51.3783 L -66.0761,51.3783 L -64.4357,53.1499 L -66.0761,54.9216 L -69.3569,54.9216 L -69.3569,53.1499 L -66.0761,53.1499 z " transform="matrix(-1.080003,0,0,1.000004,-188.2915,-5.315414)" font-size="12px" fill="#b31b34" fill-rule="evenodd" stroke-width="1pt"/>
        <path d="M -66.0761,53.1499 L -67.7165,51.3783 L -66.0761,49.6066 L -64.4357,49.6066 L -59.5144,56.6932 L -61.1549,56.6932 L -64.4357,51.3783 L -66.0761,51.3783 L -64.4357,53.1499 L -66.0761,54.9216 L -69.3569,54.9216 L -69.3569,53.1499 L -66.0761,53.1499 z " transform="matrix(1.080003,0,0,-1.000004,28.8427,108.0714)" font-size="12px" fill="#b31b34" fill-rule="evenodd" stroke-width="1pt"/>
        <path d="M -66.0761,53.1499 L -67.7165,51.3783 L -66.0761,49.6066 L -64.4357,49.6066 L -59.5144,56.6932 L -61.1549,56.6932 L -64.4357,51.3783 L -66.0761,51.3783 L -64.4357,53.1499 L -66.0761,54.9216 L -69.3569,54.9216 L -69.3569,53.1499 L -66.0761,53.1499 z " transform="matrix(1.080003,0,0,1.000004,28.8427,-5.315414)" font-size="12px" fill="#b31b34" fill-rule="evenodd" stroke-width="1pt"/>
        <rect width="3.543309" height="14.17324" x="-81.496063" y="44.291325" font-size="12px" fill="#b31b34" fill-opacity="1" fill-rule="evenodd" stroke-width="1pt"/>
        <rect width="14.173241" height="7.086638" x="-86.811035" y="47.834629" font-size="12px" fill="#b31b34" fill-opacity="1" fill-rule="evenodd" stroke="none" stroke-width="1pt" stroke-opacity="1"/>
      </g>
      <g transform="translate(267.5199,-5.314919)">
        <path d="M -160.03959,364.88305 L -196.65377,381.63686 L -196.65377,409.55882 L -160.03959,426.31262 L -123.4254,426.31262 L -86.811217,409.55882 L -86.811217,381.63686 L -123.4254,364.88305 L -160.03959,364.88305 z " font-size="12px" fill="#006a4e" fill-rule="evenodd" stroke="black" stroke-width="0.217"/>
        <path d="M 302.9,233.8 L 304.7,233.8 L 304.7,228.5 L 308.2,228.5 L 308.2,233.8 L 310.0,233.8 L 310.0,221.4 L 308.2,221.4 L 308.2,226.7 L 304.7,226.7 L 304.7,221.4 L 302.9,221.4 L 302.9,233.8 z " transform="matrix(1.250074,0,0,0.764012,-561.7838,210.5929)" font-size="12px" fill="#c00" fill-rule="evenodd" stroke-width="1pt"/>
        <path d="M 302.9,233.8 L 304.7,233.8 L 304.7,228.5 L 308.2,228.5 L 308.2,233.8 L 310.0,233.8 L 310.0,221.4 L 308.2,221.4 L 308.2,226.7 L 304.7,226.7 L 304.7,221.4 L 302.9,221.4 L 302.9,233.8 z " transform="matrix(1.250074,0,0,0.764012,-505.6817,242.1744)" font-size="12px" fill="#c00" fill-rule="evenodd" stroke-width="1pt"/>
        <path d="M 302.9,233.8 L 304.7,233.8 L 304.7,228.5 L 308.2,228.5 L 308.2,233.8 L 310.0,233.8 L 310.0,221.4 L 308.2,221.4 L 308.2,226.7 L 304.7,226.7 L 304.7,221.4 L 302.9,221.4 L 302.9,233.8 z " transform="matrix(1.250074,0,0,0.764012,-487.9651,210.5929)" font-size="12px" fill="#c00" fill-rule="evenodd" stroke-width="1pt"/>
        <path d="M 302.9,233.8 L 304.7,233.8 L 304.7,228.5 L 308.2,228.5 L 308.2,233.8 L 310.0,233.8 L 310.0,221.4 L 308.2,221.4 L 308.2,226.7 L 304.7,226.7 L 304.7,221.4 L 302.9,221.4 L 302.9,233.8 z " transform="matrix(1.250074,0,0,0.764012,-487.9651,226.3837)" font-size="12px" fill="#c00" fill-rule="evenodd" stroke-width="1pt"/>
        <path d="M -141.73238,424.97735 L -141.73238,395.5975 L -88.582485,395.5975 L -88.582485,408.95211 L -124.01541,424.97735 L -141.73238,424.97735 z " font-size="12px" fill="#ff9a00" fill-rule="evenodd" stroke-width="1pt"/>
        <path d="M -141.73161,366.21819 L -141.73161,395.59804 L -194.8815,395.59804 L -194.8815,382.24342 L -159.44858,366.21819 L -141.73161,366.21819 z " font-size="12px" fill="#ff9a00" fill-rule="evenodd" stroke-width="1pt"/>
        <path d="M -141.73238,366.21805 L -141.73238,395.5979 L -88.582485,395.5979 L -88.582485,382.24328 L -124.01541,366.21805 L -141.73238,366.21805 z " font-size="12px" fill="white" fill-rule="evenodd" stroke-width="1pt"/>
        <path d="M -141.73161,424.97684 L -141.73261,395.59774 L -194.8815,395.59699 L -194.8815,408.9516 L -159.44858,424.97684 L -141.73161,424.97684 z " font-size="12px" fill="white" fill-rule="evenodd" stroke-width="1pt"/>
        <path d="M -113.38544,383.57945 L -92.126478,383.57945 L -113.38544,375.56683 L -113.38544,383.57945 z M -88.582485,382.24376 L -88.583485,395.59838 L -122.24442,395.59838 L -122.24442,384.91514 L -129.3304,384.91514 L -138.18839,380.90883 L -138.18839,371.56052 L -132.8744,367.55422 L -139.96038,367.55422 L -139.96038,380.90883 L -141.73238,380.90883 L -141.73238,366.21853 L -124.01541,366.21853 L -88.582485,382.24376 z " font-size="12px" fill="#ff9a00" fill-rule="evenodd" stroke="black" stroke-width="0.108"/>
        <path d="M -159.44843,386.25089 L -159.44843,404.94494 L -154.13518,404.94494 L -141.73202,410.28783 L -129.32887,404.94494 L -124.01561,404.94494 L -124.01561,386.25089 L -129.32887,386.25089 L -141.73202,380.90801 L -154.13518,386.25089 L -159.44843,386.25089 z " font-size="12px" fill="#b31b34" fill-rule="evenodd" stroke-width="0.625"/>
        <path d="M -170.07855,407.61642 L -191.33751,407.61642 L -170.07855,415.62904 L -170.07855,407.61642 z M -194.8815,408.95211 L -194.8805,395.5975 L -161.21957,395.5975 L -161.21957,406.28073 L -154.13359,406.28073 L -145.2756,410.28704 L -145.2756,419.63535 L -150.58959,423.64166 L -143.50361,423.64166 L -143.50361,410.28704 L -141.73161,410.28704 L -141.73161,424.97735 L -159.44858,424.97735 L -194.8815,408.95211 z " font-size="12px" fill="#ff9a00" fill-rule="evenodd" stroke="black" stroke-width="0.108"/>
        <path d="M -170.07855,383.57945 L -191.33751,383.57945 L -170.07855,375.56683 L -170.07855,383.57945 z M -194.8815,382.24376 L -194.8805,395.59838 L -161.21957,395.59838 L -161.21957,384.91514 L -154.13359,384.91514 L -145.2756,380.90883 L -145.2756,371.56052 L -150.58959,367.55422 L -143.50361,367.55422 L -143.50361,380.90883 L -141.73161,380.90883 L -141.73161,366.21853 L -159.44858,366.21853 L -194.8815,382.24376 z " font-size="12px" fill="white" fill-rule="evenodd" stroke="black" stroke-width="0.108"/>
        <path d="M -113.38505,407.61685 L -92.126088,407.61685 L -113.38505,415.62946 L -113.38505,407.61685 z M -88.582095,408.95253 L -88.583095,395.59792 L -122.24403,395.59792 L -122.24403,406.28116 L -129.33001,406.28116 L -138.188,410.28747 L -138.188,419.63577 L -132.87401,423.64208 L -139.95999,423.64208 L -139.95999,410.28747 L -141.73199,410.28747 L -141.73199,424.97777 L -124.01502,424.97777 L -88.582095,408.95253 z " font-size="12px" fill="white" fill-rule="evenodd" stroke="black" stroke-width="0.108"/>
        <path d="M -184.25133,406.28128 L -182.03745,406.28128 L -182.03745,402.27479 L -177.60719,402.27479 L -177.60719,406.28128 L -175.39331,406.28128 L -175.39331,396.9333 L -177.60719,396.9333 L -177.60719,400.93979 L -182.03745,400.93979 L -182.03745,396.9333 L -184.25133,396.9333 L -184.25133,406.28128 z " font-size="12px" fill="#b31b34" fill-rule="evenodd" stroke-width="1pt"/>
        <path d="M -162.99163,419.63571 L -160.77775,419.63571 L -160.77775,415.6292 L -156.34749,415.6292 L -156.34749,419.63571 L -154.13361,419.63571 L -154.13361,410.28769 L -156.34749,410.28769 L -156.34749,414.2942 L -160.77775,414.2942 L -160.77775,410.28769 L -162.99163,410.28769 L -162.99163,419.63571 z " font-size="12px" fill="#b31b34" fill-rule="evenodd" stroke-width="1pt"/>
        <path d="M -184.25133,384.91459 L -182.03745,384.91459 L -182.03745,388.92107 L -177.60719,388.92107 L -177.60719,384.91459 L -175.39331,384.91459 L -175.39331,394.26254 L -177.60719,394.26254 L -177.60719,390.25606 L -182.03745,390.25606 L -182.03745,394.26254 L -184.25133,394.26254 L -184.25133,384.91459 z " font-size="12px" fill="#b31b34" fill-rule="evenodd" stroke-width="1pt"/>
        <path d="M -162.99173,371.56035 L -160.77785,371.56035 L -160.77785,375.56685 L -156.34759,375.56685 L -156.34759,371.56035 L -154.13371,371.56035 L -154.13371,380.90833 L -156.34759,380.90833 L -156.34759,376.90184 L -160.77785,376.90184 L -160.77785,380.90833 L -162.99173,380.90833 L -162.99173,371.56035 z " font-size="12px" fill="#b31b34" fill-rule="evenodd" stroke-width="1pt"/>
        <path d="M -108.07033,394.2626 L -105.85645,394.2626 L -105.85645,390.25609 L -101.42619,390.25609 L -101.42619,394.2626 L -99.212307,394.2626 L -99.212307,384.91458 L -101.42619,384.91458 L -101.42619,388.92109 L -105.85645,388.92109 L -105.85645,384.91458 L -108.07033,384.91458 L -108.07033,394.2626 z " font-size="12px" fill="#b31b34" fill-rule="evenodd" stroke-width="1pt"/>
        <path d="M -129.33023,419.63571 L -127.11635,419.63571 L -127.11635,415.6292 L -122.68609,415.6292 L -122.68609,419.63571 L -120.47221,419.63571 L -120.47221,410.28769 L -122.68609,410.28769 L -122.68609,414.2942 L -127.11635,414.2942 L -127.11635,410.28769 L -129.33023,410.28769 L -129.33023,419.63571 z " font-size="12px" fill="#b31b34" fill-rule="evenodd" stroke-width="1pt"/>
        <path d="M -108.07043,406.28148 L -105.85655,406.28148 L -105.85655,402.27497 L -101.42629,402.27497 L -101.42629,406.28148 L -99.212407,406.28148 L -99.212407,396.93345 L -101.42629,396.93345 L -101.42629,400.93997 L -105.85655,400.93997 L -105.85655,396.93345 L -108.07043,396.93345 L -108.07043,406.28148 z " font-size="12px" fill="#b31b34" fill-rule="evenodd" stroke-width="1pt"/>
        <path d="M -129.33023,380.90828 L -127.11635,380.90828 L -127.11635,376.90177 L -122.68609,376.90177 L -122.68609,380.90828 L -120.47221,380.90828 L -120.47221,371.56026 L -122.68609,371.56026 L -122.68609,375.56677 L -127.11635,375.56677 L -127.11635,371.56026 L -129.33023,371.56026 L -129.33023,380.90828 z " font-size="12px" fill="#b31b34" fill-rule="evenodd" stroke-width="1pt"/>
        <path d="M -139.96105,395.59831 L -132.87405,390.72804 L -129.33105,390.72804 L -129.33105,393.16249 L -132.87405,393.16249 L -132.87405,394.38005 L -127.56005,394.38005 L -127.56005,389.51116 L -132.87405,389.51047 L -132.87405,385.85915 L -139.96105,385.85915 L -139.96105,389.51047 L -138.18905,389.51047 L -138.18905,387.07534 L -134.64605,387.07534 L -134.64605,389.51047 L -141.73205,394.38005 L -148.81905,389.51116 L -148.81905,387.07672 L -145.27605,387.07672 L -145.27605,389.51116 L -143.50405,389.51116 L -143.50405,385.85915 L -150.59105,385.85984 L -150.59105,389.51116 L -155.90605,389.51116 L -155.90605,394.38143 L -150.59105,394.38143 L -150.59105,393.16386 L -154.13505,393.16386 L -154.13505,390.72873 L -150.59105,390.72873 L -143.50405,395.59762 L -150.59105,400.46651 L -154.13405,400.46651 L -154.13405,398.03207 L -150.59105,398.03207 L -150.59105,396.8145 L -155.90505,396.8145 L -155.90505,401.68408 L -150.59105,401.68408 L -150.59105,405.33541 L -143.50405,405.33678 L -143.50405,401.68408 L -145.27505,401.68408 L -145.27505,404.11922 L -148.81805,404.11922 L -148.81805,401.68408 L -141.73305,396.81519 L -134.64505,401.68546 L -134.64505,404.1199 L -138.18805,404.1199 L -138.18805,401.68546 L -139.96005,401.68546 L -139.96005,405.33678 L -132.87405,405.33678 L -132.87405,401.68546 L -127.55905,401.68408 L -127.55905,396.81519 L -132.87405,396.81519 L -132.87405,398.03276 L -129.33005,398.03276 L -129.33005,400.46789 L -132.87405,400.46789 L -139.96105,395.59831 z " font-size="12px" fill="#006a4e" fill-rule="evenodd" stroke-width="1.246"/>
      </g>
      <g transform="matrix(1,0,0,0.928572,198.4251,17.5899)">
        <path d="M 372.0,391.5 L 375.5,387.9 L 396.8,387.9 L 412.7,372.0 L 434.0,372.0 L 450,387.992 L 471.2,387.9 L 474.8,391.5 L 471.2,395.0 L 450,395.079 L 434.0,411.0 L 412.7,411.0 L 396.8,395.0 L 375.5,395.0 L 372.0,391.5 z " transform="matrix(0.967743,0,0,1.052628,-482.4045,-277.8495)" font-size="12px" fill="#b31b34" fill-rule="evenodd" stroke-width="1pt"/>
        <path d="M -120.47242,129.84348 L -118.70066,128.26876 L -97.441409,128.26876 L -81.496503,112.52239 L -63.779838,112.52239 L -47.834933,128.26876 L -26.574749,128.26876 L -24.802989,129.84348 L -26.574749,131.41738 L -47.834933,131.41738 L -62.008079,145.58904 L -83.267332,145.58904 L -97.441409,131.41738 L -118.70066,131.41738 L -120.47242,129.84348 z " font-size="12px" fill="#b31b34" fill-opacity="1" fill-rule="evenodd" stroke="black" stroke-width="0.235" stroke-dasharray="none" stroke-opacity="1"/>
        <path d="M -64.066766,131.18762 L -57.208372,137.8169 L -60.637085,141.13155 L -62.351926,139.47376 L -64.065798,139.47376 L -64.065798,141.13155 L -62.351926,142.78933 L -58.922244,142.78933 L -55.493531,139.47376 L -55.493531,136.15912 L -62.350958,129.52983 L -55.493531,122.89961 L -55.493531,119.58498 L -58.922244,116.27033 L -62.350958,116.27033 L -64.065798,117.92718 L -64.065798,119.58498 L -62.350958,119.58498 L -60.637085,117.92718 L -57.208372,121.24276 L -64.065798,127.87205 L -70.924193,121.24276 L -64.065798,114.61254 L -64.065798,112.95569 L -65.780639,112.95569 L -72.638066,119.58498 L -79.496461,112.95476 L -81.211301,112.95476 L -81.211301,114.61161 L -74.352907,121.24183 L -81.211301,127.87205 L -88.069696,121.24276 L -84.640982,117.92718 L -82.926142,119.58498 L -81.211301,119.58498 L -81.211301,117.92718 L -82.926142,116.27033 L -86.354855,116.27033 L -89.784536,119.58498 L -89.784536,122.89961 L -82.926142,129.52983 L -89.784536,136.16005 L -89.784536,139.47469 L -86.354855,142.78933 L -82.926142,142.78933 L -81.211301,141.13248 L -81.211301,139.47469 L -82.926142,139.47469 L -84.640982,141.13248 L -88.069696,137.8169 L -81.211301,131.18762 L -74.353874,137.8169 L -81.211301,144.44713 L -81.212269,146.10491 L -79.497428,146.10491 L -72.639034,139.47469 L -65.780639,146.10491 L -64.066766,146.10491 L -64.066766,144.44713 L -70.924193,137.8169 L -64.066766,131.18762 z M -72.639034,122.89961 L -79.497428,129.52983 L -72.639034,136.16005 L -65.780639,129.52983 L -72.639034,122.89961 z " font-size="12px" fill="#ff9a00" fill-rule="evenodd" stroke="black" stroke-width="0"/>
        <path d="M -82.925028,147.76095 L -82.925028,161.02044 L -81.210188,159.36266 L -79.495347,161.02044 L -77.781474,159.36266 L -76.066634,161.02044 L -74.351793,159.36266 L -72.63792,161.02044 L -70.92308,159.36266 L -69.208239,161.02044 L -67.494366,159.36266 L -65.779526,161.02044 L -64.065653,159.36266 L -62.350812,161.02044 L -62.350812,147.76095 L -82.925028,147.76095 z " font-size="12px" fill="#ff9a00" fill-rule="evenodd" stroke-width="1pt"/>
        <path d="M -62.350772,111.29644 L -62.350772,98.036948 L -64.065612,99.694736 L -65.780453,98.036948 L -67.494326,99.694736 L -69.209166,98.036948 L -70.924007,99.694736 L -72.63788,98.036948 L -74.35272,99.694736 L -76.067561,98.036948 L -77.781434,99.694736 L -79.496274,98.036948 L -81.210147,99.694736 L -82.924988,98.036948 L -82.924988,111.29644 L -62.350772,111.29644 z " font-size="12px" fill="#ff9a00" fill-rule="evenodd" stroke-width="1pt"/>
        <path d="M -33.204366,126.21333 L -33.204366,112.95384 L -34.919207,114.61162 L -36.63308,112.95384 L -38.34792,114.61162 L -40.062761,112.95384 L -41.776634,114.61162 L -43.491474,112.95384 L -45.205347,114.61162 L -46.920188,112.95384 L -46.920188,126.21333 L -33.204366,126.21333 z " font-size="12px" fill="#ff9a00" fill-rule="evenodd" stroke-width="1pt"/>
        <path d="M -98.355566,126.21333 L -98.355566,112.95384 L -100.07041,114.61162 L -101.78428,112.95384 L -103.49912,114.61162 L -105.21396,112.95384 L -106.92783,114.61162 L -108.64267,112.95384 L -110.35655,114.61162 L -112.07139,112.95384 L -112.07139,126.21333 L -98.355566,126.21333 z " font-size="12px" fill="#ff9a00" fill-rule="evenodd" stroke-width="1pt"/>
        <path d="M -33.204366,132.84344 L -33.204366,146.10294 L -34.919207,144.44515 L -36.63308,146.10294 L -38.34792,144.44515 L -40.062761,146.10294 L -41.776634,144.44515 L -43.491474,146.10294 L -45.205347,144.44515 L -46.920188,146.10294 L -46.920188,132.84344 L -33.204366,132.84344 z " font-size="12px" fill="#ff9a00" fill-rule="evenodd" stroke-width="1pt"/>
        <path d="M -98.355566,132.84371 L -98.355566,146.1032 L -100.07041,144.44541 L -101.78428,146.1032 L -103.49912,144.44541 L -105.21396,146.1032 L -106.92783,144.44541 L -108.64267,146.1032 L -110.35655,144.44541 L -112.07139,146.1032 L -112.07139,132.84371 L -98.355566,132.84371 z " font-size="12px" fill="#ff9a00" fill-rule="evenodd" stroke-width="1pt"/>
        <path d="M -62.350828,147.76085 L -62.351796,156.04792 L -60.636955,154.39014 L -58.922115,156.04792 L -57.208242,154.39014 L -55.493401,156.04792 L -53.778561,154.39014 L -52.064688,156.04792 L -50.349847,154.39014 L -48.635975,156.04792 L -46.921134,154.39014 L -46.921134,132.84356 L -62.350828,147.76085 z " font-size="12px" fill="#006a4e" fill-rule="evenodd" stroke-width="1pt"/>
        <path d="M -82.924972,147.76067 L -82.924972,156.04868 L -84.639812,154.39089 L -86.354653,156.04868 L -88.068526,154.39089 L -89.783366,156.04868 L -91.498207,154.39089 L -93.21208,156.04868 L -94.92692,154.39089 L -96.640793,156.04868 L -98.355634,154.39089 L -98.354666,132.84338 L -82.924972,147.76067 z " font-size="12px" fill="#006a4e" fill-rule="evenodd" stroke-width="1pt"/>
        <path d="M -82.925772,111.29609 L -82.924804,103.00902 L -84.639645,104.66681 L -86.354485,103.00902 L -88.068358,104.66681 L -89.783199,103.00902 L -91.498039,104.66681 L -93.211912,103.00902 L -94.926753,104.66681 L -96.640625,103.00902 L -98.355466,104.66681 L -98.355466,126.21338 L -82.925772,111.29609 z " font-size="12px" fill="#006a4e" fill-rule="evenodd" stroke-width="1pt"/>
        <path d="M -62.350728,111.29636 L -62.351696,103.00929 L -60.636855,104.66707 L -58.922015,103.00929 L -57.208142,104.66707 L -55.493301,103.00929 L -53.778461,104.66707 L -52.064588,103.00929 L -50.349747,104.66707 L -48.635875,103.00929 L -46.921034,104.66707 L -46.921034,126.21365 L -62.350728,111.29636 z " font-size="12px" fill="#006a4e" fill-rule="evenodd" stroke-width="1pt"/>
        <path d="M -112.07145,142.78797 L -113.78629,141.13017 L -115.4992,142.78797 L -117.21404,141.13017 L -118.92888,142.78797 L -120.64372,141.13017 L -122.35856,142.78797 L -124.07147,141.13017 L -125.78631,142.78797 L -125.78727,116.26802 L -124.07243,117.92581 L -122.35856,116.26802 L -120.64372,117.92581 L -118.92985,116.26802 L -117.21501,117.92581 L -115.50017,116.26802 L -113.78629,117.92581 L -112.07145,116.26802 L -112.07145,126.21382 L -118.92888,126.21382 L -122.35856,129.52846 L -118.92888,132.8431 L -112.07145,132.8431 L -112.07145,142.78797 z " font-size="12px" fill="#006a4e" fill-rule="evenodd" stroke-width="1pt"/>
        <path d="M -33.204047,142.78876 L -31.489207,141.13098 L -29.776302,142.78876 L -28.061461,141.13098 L -26.346621,142.78876 L -24.63178,141.13098 L -22.916939,142.78876 L -21.204034,141.13098 L -19.489194,142.78876 L -19.488226,116.26883 L -21.203066,117.92661 L -22.916939,116.26883 L -24.63178,117.92661 L -26.345653,116.26883 L -28.060493,117.92661 L -29.775334,116.26883 L -31.489207,117.92661 L -33.204047,116.26883 L -33.204047,126.21462 L -26.346621,126.21462 L -22.916939,129.52926 L -26.346621,132.8439 L -33.204047,132.8439 L -33.204047,142.78876 z " font-size="12px" fill="#006a4e" fill-rule="evenodd" stroke-width="1pt"/>
        <path d="M -91.354472,148.80299 C -91.354472,148.80299 -92.783091,150.11315 -92.783091,150.76787 C -92.811317,151.37859 -91.259311,152.74717 -90.639961,152.73276 C -89.830692,152.74717 -88.496831,151.42295 -88.496831,150.76787 C -88.496831,150.11315 -89.925853,148.80299 -89.925853,148.80299 L -89.925853,146.18339 C -89.925853,146.18339 -86.822649,150.68728 -86.822649,148.72239 C -86.822649,147.31315 -89.925853,144.87322 -89.925853,144.87322 L -91.354472,144.87322 C -91.354472,144.87322 -94.457676,147.72978 -94.457676,148.72239 C -94.457676,150.68728 -91.354472,146.18339 -91.354472,146.18339 C -91.354472,146.18339 -91.354472,148.80299 -91.354472,148.80299 z " font-size="12px" fill="white" fill-rule="evenodd" stroke-width="1pt"/>
        <path d="M -73.495381,153.86078 C -73.495381,153.86078 -75.209722,155.69501 -75.209722,156.6116 C -75.243593,157.46662 -73.381189,159.38261 -72.637969,159.36243 C -71.666848,159.38261 -70.066216,157.52872 -70.066216,156.6116 C -70.066216,155.69501 -71.78104,153.86078 -71.78104,153.86078 L -71.78104,150.19336 C -71.78104,150.19336 -68.744291,156.19342 -68.744291,153.44259 C -68.744291,151.66375 -71.78104,148.35914 -71.78104,148.35914 L -73.495381,148.35914 C -73.495381,148.35914 -77.000514,152.49649 -76.531647,153.44208 C -76.531647,156.1929 -73.495381,150.19336 -73.495381,150.19336 C -73.495381,150.19336 -73.495381,153.86078 -73.495381,153.86078 z " font-size="12px" fill="#b31b34" fill-rule="evenodd" stroke-width="1pt"/>
        <path d="M 407.48032 391.5354 A 3.543304 1.771652 0 1 1  400.3,391.5 A 3.543304 1.771652 0 1 1  407.48032 391.5354 z" transform="matrix(0.967743,0,0,0.935546,-482.4045,-236.7711)" font-size="12px" fill="#006a4e" fill-rule="evenodd" stroke-width="1pt"/>
        <path d="M 407.48032 391.5354 A 3.543304 1.771652 0 1 1  400.3,391.5 A 3.543304 1.771652 0 1 1  407.48032 391.5354 z" transform="matrix(0.967743,0,0,0.935546,-463.5449,-236.771)" font-size="12px" fill="#006a4e" fill-rule="evenodd" stroke-width="1pt"/>
        <path d="M 407.48032 391.5354 A 3.543304 1.771652 0 1 1  400.3,391.5 A 3.543304 1.771652 0 1 1  407.48032 391.5354 z" transform="matrix(0.967743,0,0,0.935546,-444.6854,-236.771)" font-size="12px" fill="#006a4e" fill-rule="evenodd" stroke-width="1pt"/>
        <path d="M -91.715572,110.38822 C -91.715572,110.38822 -93.144191,109.07806 -93.144191,108.42335 C -93.172417,107.81263 -91.620411,106.44406 -91.001061,106.45847 C -90.191792,106.44406 -88.857931,107.76827 -88.857931,108.42335 C -88.857931,109.07806 -90.286953,110.38822 -90.286953,110.38822 L -90.286953,113.00781 C -90.286953,113.00781 -87.183749,108.50394 -87.183749,110.46882 C -87.183749,111.87806 -90.286953,114.31797 -90.286953,114.31797 L -91.715572,114.31797 C -91.715572,114.31797 -94.818776,111.46142 -94.818776,110.46882 C -94.818776,108.50394 -91.715572,113.00781 -91.715572,113.00781 C -91.715572,113.00781 -91.715572,110.38822 -91.715572,110.38822 z " font-size="12px" fill="white" fill-rule="evenodd" stroke-width="1pt"/>
        <path d="M -73.856581,105.33101 C -73.856581,105.33101 -75.570922,103.49679 -75.570922,102.5802 C -75.604793,101.7252 -73.742389,99.809198 -72.999169,99.829383 C -72.028048,99.809198 -70.427416,101.66309 -70.427416,102.5802 C -70.427416,103.49679 -72.14224,105.33101 -72.14224,105.33101 L -72.14224,108.99843 C -72.14224,108.99843 -69.105491,102.99839 -69.105491,105.7492 C -69.105491,107.52804 -72.14224,110.83265 -72.14224,110.83265 L -73.856581,110.83265 C -73.856581,110.83265 -77.361714,106.6953 -76.892847,105.74971 C -76.892847,102.9989 -73.856581,108.99843 -73.856581,108.99843 C -73.856581,108.99843 -73.856581,105.33101 -73.856581,105.33101 z " font-size="12px" fill="#b31b34" fill-rule="evenodd" stroke-width="1pt"/>
        <path d="M -54.858372,148.80298 C -54.858372,148.80298 -56.286991,150.11315 -56.286991,150.76786 C -56.315217,151.37859 -54.763211,152.74717 -54.143861,152.73275 C -53.334592,152.74717 -52.000731,151.42295 -52.000731,150.76786 C -52.000731,150.11315 -53.429753,148.80298 -53.429753,148.80298 L -53.429753,146.18338 C -53.429753,146.18338 -50.326549,150.68728 -50.326549,148.72239 C -50.326549,147.31315 -53.429753,144.87321 -53.429753,144.87321 L -54.858372,144.87321 C -54.858372,144.87321 -57.961576,147.72978 -57.961576,148.72239 C -57.961576,150.68728 -54.858372,146.18338 -54.858372,146.18338 C -54.858372,146.18338 -54.858372,148.80298 -54.858372,148.80298 z " font-size="12px" fill="white" fill-rule="evenodd" stroke-width="1pt"/>
        <path d="M -55.219572,110.38822 C -55.219572,110.38822 -56.648191,109.07806 -56.648191,108.42335 C -56.676417,107.81263 -55.124411,106.44406 -54.505061,106.45847 C -53.695792,106.44406 -52.361931,107.76827 -52.361931,108.42335 C -52.361931,109.07806 -53.790953,110.38822 -53.790953,110.38822 L -53.790953,113.00781 C -53.790953,113.00781 -50.687749,108.50394 -50.687749,110.46882 C -50.687749,111.87806 -53.790953,114.31797 -53.790953,114.31797 L -55.219572,114.31797 C -55.219572,114.31797 -58.322776,111.46142 -58.322776,110.46882 C -58.322776,108.50394 -55.219572,113.00781 -55.219572,113.00781 C -55.219572,113.00781 -55.219572,110.38822 -55.219572,110.38822 z " font-size="12px" fill="white" fill-rule="evenodd" stroke-width="1pt"/>
        <path d="M -106.26958,139.57141 C -106.26958,139.57141 -108.1689,140.80055 -108.1689,141.41478 C -108.20643,141.98772 -106.14307,143.27166 -105.31965,143.25813 C -104.24374,143.27166 -102.4704,142.02934 -102.4704,141.41478 C -102.4704,140.80055 -104.37026,139.57141 -104.37026,139.57141 L -104.37026,137.11382 C -104.37026,137.11382 -101.00584,141.13454 -101.00584,139.29117 C -101.00584,138.09915 -104.37026,135.88468 -104.37026,135.88468 L -106.26958,135.88468 C -106.26958,135.88468 -110.15292,138.65718 -109.63346,139.29083 C -109.63346,141.13419 -106.26958,137.11382 -106.26958,137.11382 C -106.26958,137.11382 -106.26958,139.57141 -106.26958,139.57141 z " font-size="12px" fill="#b31b34" fill-rule="evenodd" stroke-width="1pt"/>
        <path d="M -106.66978,120.79891 C -106.66978,120.79891 -108.5691,119.56978 -108.5691,118.95557 C -108.60663,118.38261 -106.54327,117.09868 -105.71985,117.1122 C -104.64394,117.09868 -102.8706,118.34099 -102.8706,118.95557 C -102.8706,119.56978 -104.77046,120.79891 -104.77046,120.79891 L -104.77046,123.2565 C -104.77046,123.2565 -101.40604,119.23579 -101.40604,121.07915 C -101.40604,122.27117 -104.77046,124.48563 -104.77046,124.48563 L -106.66978,124.48563 C -106.66978,124.48563 -110.55312,121.71314 -110.03366,121.0795 C -110.03366,119.23614 -106.66978,123.2565 -106.66978,123.2565 C -106.66978,123.2565 -106.66978,120.79891 -106.66978,120.79891 z " font-size="12px" fill="#b31b34" fill-rule="evenodd" stroke-width="1pt"/>
        <path d="M -40.42008,139.1786 C -40.42008,139.1786 -42.319401,140.40774 -42.319401,141.02196 C -42.356926,141.59492 -40.293566,142.87886 -39.470151,142.86533 C -38.394245,142.87886 -36.620902,141.63653 -36.620902,141.02196 C -36.620902,140.40774 -38.520759,139.1786 -38.520759,139.1786 L -38.520759,136.72102 C -38.520759,136.72102 -35.15634,140.74174 -35.15634,138.89836 C -35.15634,137.70633 -38.520759,135.49187 -38.520759,135.49187 L -40.42008,135.49187 C -40.42008,135.49187 -44.303421,138.26438 -43.783963,138.89802 C -43.783963,140.74139 -40.42008,136.72102 -40.42008,136.72102 C -40.42008,136.72102 -40.42008,139.1786 -40.42008,139.1786 z " font-size="12px" fill="#b31b34" fill-rule="evenodd" stroke-width="1pt"/>
        <path d="M -40.82038,120.40607 C -40.82038,120.40607 -42.719701,119.17694 -42.719701,118.56273 C -42.757226,117.98978 -40.693866,116.70584 -39.870451,116.71937 C -38.794545,116.70584 -37.021202,117.94816 -37.021202,118.56273 C -37.021202,119.17694 -38.921059,120.40607 -38.921059,120.40607 L -38.921059,122.86366 C -38.921059,122.86366 -35.55664,118.84295 -35.55664,120.68631 C -35.55664,121.87834 -38.921059,124.09279 -38.921059,124.09279 L -40.82038,124.09279 C -40.82038,124.09279 -44.703721,121.3203 -44.184263,120.68666 C -44.184263,118.8433 -40.82038,122.86366 -40.82038,122.86366 C -40.82038,122.86366 -40.82038,120.40607 -40.82038,120.40607 z " font-size="12px" fill="#b31b34" fill-rule="evenodd" stroke-width="1pt"/>
        <path d="M -120.28421,139.37285 C -120.89953,138.23791 -120.73703,137.71888 -120.73703,137.06416 C -120.76566,136.45344 -119.02091,135.26454 -118.40156,135.27895 C -117.59229,135.26454 -116.25843,136.58875 -116.25843,137.24383 C -116.25843,137.89854 -116.22456,138.46416 -116.55601,139.59319 L -117.44915,137.67895 C -118.53341,140.39466 -118.59229,140.45787 -119.23583,137.61315 L -120.28421,139.37285 z " font-size="12px" fill="white" fill-rule="evenodd" stroke-width="1pt"/>
        <path d="M -120.22891,120.31856 C -120.84423,121.45349 -120.68173,121.97252 -120.68173,122.62725 C -120.71036,123.23796 -118.96561,124.42686 -118.34626,124.41245 C -117.53699,124.42686 -116.20313,123.10266 -116.20313,122.44758 C -116.20313,121.79286 -116.16926,121.22725 -116.50071,120.09823 L -117.39385,122.01245 C -118.47811,119.29675 -118.53699,119.23353 -119.18053,122.07825 L -120.22891,120.31856 z " font-size="12px" fill="white" fill-rule="evenodd" stroke-width="1pt"/>
        <path d="M -27.807409,139.12737 C -28.422727,137.99243 -28.260229,137.47339 -28.260229,136.81868 C -28.288857,136.20796 -26.544111,135.01907 -25.924761,135.03348 C -25.115492,135.01907 -23.781631,136.34327 -23.781631,136.99835 C -23.781631,137.65306 -23.74776,138.21868 -24.079209,139.34771 L -24.972348,137.43347 C -26.056615,140.14919 -26.115485,140.21239 -26.759029,137.36767 L -27.807409,139.12737 z " font-size="12px" fill="white" fill-rule="evenodd" stroke-width="1pt"/>
        <path d="M -27.752209,120.07305 C -28.367527,121.20799 -28.205029,121.72703 -28.205029,122.38174 C -28.233657,122.99246 -26.488911,124.18135 -25.869561,124.16695 C -25.060292,124.18135 -23.726431,122.85715 -23.726431,122.20207 C -23.726431,121.54736 -23.69256,120.98174 -24.024009,119.85272 L -24.917148,121.76695 C -26.001415,119.05124 -26.060285,118.98803 -26.703829,121.83275 L -27.752209,120.07305 z " font-size="12px" fill="white" fill-rule="evenodd" stroke-width="1pt"/>
        <path d="M -83.2681,161.3348 L -83.2681,156.61102 L -99.2125,156.61102 L -99.2125,147.16344 L -113.3857,147.16344 L -113.3857,144.01454 L -125.7873,144.01454 L -125.7873,115.67179 L -113.3857,115.67179 L -113.3857,112.5229 L -99.2125,112.5229 L -99.2125,103.07531 L -83.2681,103.07531 L -83.2681,98.351523 L -62.0081,98.351523 L -62.0081,103.07531 L -46.0631,103.07531 L -46.0631,112.5229 L -31.8901,112.5229 L -31.8901,115.67179 L -19.4881,115.67179 L -19.4881,144.01454 L -31.8901,144.01454 L -31.8901,147.16344 L -46.0631,147.16344 L -46.0631,156.61102 L -62.0081,156.61102 L -62.0081,161.3348 L -83.2681,161.3348 z M -85.0401,162.9097 L -85.0401,158.18592 L -100.9842,158.18592 L -100.9842,148.73833 L -115.1574,148.73833 L -115.1574,145.58944 L -127.559,145.58944 L -127.559,114.09779 L -115.1574,114.09779 L -115.1574,110.948 L -100.9842,110.948 L -100.9842,101.50042 L -85.0391,101.50042 L -85.0391,96.77663 L -60.2361,96.77663 L -60.2361,101.50042 L -44.2911,101.50042 L -44.2911,110.948 L -30.1181,110.948 L -30.1181,114.09779 L -17.7161,114.09779 L -17.7161,145.58944 L -30.1181,145.58944 L -30.1181,148.73833 L -44.2911,148.73833 L -44.2911,158.18592 L -60.2361,158.18592 L -60.2361,162.9097 L -85.0401,162.9097 z " font-size="12px" fill="#b31b34" fill-rule="evenodd" stroke="black" stroke-width="0.117"/>
      </g>
    </g>
    <circle cx="694.49902" cy="223.83299" r="124.667" transform="translate(1.898,0.417)" fill="white"/>
    <circle cx="662.49902" cy="204.5" r="123.333" transform="translate(1.898,0.417)" fill="#006a4e"/>
    <polygon points="711.227,153.867 693.8,154.2 688.5,170.8 682.3,154.2 664.9,153.8 678.5,143.2 673.0,126.4 687.6,136.4 701.6,126.4 697.0,143.2 711.2,153.8 " transform="translate(1.898,0.417)" fill="#feffff"/>
    <polygon points="648.102,122.117 630.6,122.4 625.4,139.0 619.2,122.4 601.8,122.1 615.4,111.5 609.9,94.67 624.4,104.7 638.5,94.67 633.9,111.4 648.1,122.1 " transform="translate(1.898,0.417)" fill="#feffff"/>
    <polygon points="648.102,185.617 630.6,185.9 625.4,202.5 619.2,185.9 601.8,185.6 615.4,175.0 609.9,158.1 624.4,168.2 638.5,158.1 633.9,174.9 648.1,185.6 " transform="translate(1.898,0.417)" fill="#feffff"/>
    <polygon points="648.102,249.242 630.6,249.6 625.4,266.2 619.2,249.6 601.8,249.2 615.4,238.6 609.9,221.8 624.4,231.8 638.5,221.7 633.9,238.6 648.1,249.2 " transform="translate(1.898,0.417)" fill="#feffff"/>
    <polygon points="585.227,216.742 567.8,217.1 562.5,233.7 556.3,217.1 538.9,216.7 552.5,206.1 547.0,189.3 561.6,199.3 575.6,189.2 571.0,206.1 585.2,216.7 " transform="translate(1.898,0.417)" fill="#feffff"/>
    <path d="M 336.0,894.2 L 339.7,894.2 L 339.7,885.5 L 347.2,885.5 L 347.2,894.2 L 351,894.22439 L 351,874.04865 L 347.2,874.0 L 347.2,882.6 L 339.7,882.6 L 339.7,874.0 L 336.0,874.0 L 336.0,894.2 z " font-size="12px" fill="#b31b34" fill-rule="evenodd" stroke-width="1pt"/>
  </g>
</svg>
