<?xml version="1.0"?>
<svg version="1.0" width="900" height="600">
 <rect width="900" height="600" style="fill:#f00" />
 <rect x="0" y="0" width="450" height="300" style="fill:#009" />
 <path style="fill:#fff"
  d="M 225.00002,262.50026 L 168.75002,52.57243 L 322.42789,206.25026 L 112.50002,150.00029 L 322.42789,93.750286 L 168.75002,247.42814 L 225.00002,37.500286 L 281.25001,247.42814 L 127.57216,93.750286 L 337.50001,150.00029 L 127.57216,206.25026 L 281.25001,52.57243 L 225.00002,262.50026 z " />
 <path style="fill:#009"
  d="M 288.74998,149.99974 C 288.74998,185.20788 260.20812,213.74972 225.00001,213.74972 C 189.79184,213.74972 161.24999,185.20788 161.24999,149.99974 C 161.24999,114.7916 189.79184,86.249758 225.00001,86.249758 C 260.20812,86.249758 288.74998,114.7916 288.74998,149.99974 z " />
 <path style="fill:#fff"
  d="M 281.25001,150.00006 C 281.25001,181.06606 256.06601,206.25004 225,206.25004 C 193.93395,206.25004 168.74995,181.06606 168.74995,150.00006 C 168.74995,118.93405 193.93395,93.750067 225,93.750067 C 256.06601,93.750067 281.25001,118.93405 281.25001,150.00006 z " />
</svg>