<?xml version="1.0" encoding="UTF-8" standalone="no"?>
<svg xmlns="http://www.w3.org/2000/svg" xmlns:xlink="http://www.w3.org/1999/xlink" version="1.0" x="0.0000000" y="0.0000000" width="500.00000" height="300.00000" id="svg1">
  <defs id="defs3"/>
  <g id="layer1">
    <rect width="500.00000" height="300.00000" x="125.00000" y="377.36218" transform="translate(-125.0000,-377.3622)" fill="#ffc61e" fill-opacity="1.0000000" stroke="none" stroke-width="1.250" stroke-linecap="butt" stroke-linejoin="miter" stroke-miterlimit="4.0000000" stroke-opacity="1.0000000"/>
    <rect width="500.00000" height="225.00000" x="125.00000" y="452.36218" transform="translate(-125.0000,-377.3622)" fill="#ffffff" fill-opacity="1.0000000" stroke="none" stroke-width="1.250" stroke-linecap="butt" stroke-linejoin="miter" stroke-miterlimit="4.0000000" stroke-opacity="1.0000000"/>
    <rect width="500.00000" height="150.00000" x="125.00000" y="527.36218" transform="translate(-125.0000,-377.3622)" fill="#ce1126" fill-opacity="1.0000000" stroke="none" stroke-width="1.250" stroke-linecap="butt" stroke-linejoin="miter" stroke-miterlimit="4.0000000" stroke-opacity="1.0000000"/>
    <rect width="500.00000" height="75.000000" x="125.00000" y="602.36218" transform="translate(-125.0000,-377.3622)" fill="#3a75c4" fill-opacity="1.0000000" stroke="none" stroke-width="1.250" stroke-linecap="butt" stroke-linejoin="miter" stroke-miterlimit="4.0000000" stroke-opacity="1.0000000"/>
    <path d="M 125.0,677.3 L 375.0,527.3 L 125.0,377.3 L 125.0,677.3 z " transform="translate(-125.0000,-377.3622)" fill="#3d8e33" fill-opacity="1.0000000" fill-rule="evenodd" stroke="none" stroke-width="0.250pt" stroke-linecap="butt" stroke-linejoin="miter" stroke-opacity="1.0000000"/>
    <path d="M 302.78550 421.47113 A 89.675148 89.675148 0 1 1  123.4,421.4 A 89.675148 89.675148 0 1 1  302.78550 421.47113 z" transform="matrix(0.752717,0.000000,0.000000,0.752717,-75.41178,-167.2485)" fill="#ffffff" fill-opacity="1.0000000" stroke="none" stroke-width="1.250" stroke-linecap="butt" stroke-linejoin="miter" stroke-miterlimit="4.0000000" stroke-opacity="1.0000000"/>
    <path d="M 302.78550 421.47113 A 89.675148 89.675148 0 1 1  123.4,421.4 A 89.675148 89.675148 0 1 1  302.78550 421.47113 z" transform="matrix(0.752717,0.000000,0.000000,0.752717,-45.41178,-167.2485)" fill="#3d8e33" fill-opacity="1.0000000" stroke="none" stroke-width="1.250" stroke-linecap="butt" stroke-linejoin="miter" stroke-miterlimit="4.0000000" stroke-opacity="1.0000000"/>
    <path d="M 186.3,571.2 L 195.3,571.2 L 198.2,562.6 L 201.0,571.2 L 210.0,571.2 L 202.7,576.5 L 205.5,585.2 L 198.2,579.8 L 190.8,585.2 L 193.6,576.5 L 186.3,571.2 z " transform="translate(-98.20038,-376.8013)" fill="#ffffff" fill-opacity="1.0000000" fill-rule="evenodd" stroke="none" stroke-width="1.000pt" stroke-linecap="butt" stroke-linejoin="miter" stroke-opacity="1.0000000"/>
    <path d="M 186.3,571.2 L 195.3,571.2 L 198.2,562.6 L 201.0,571.2 L 210.0,571.2 L 202.7,576.5 L 205.5,585.2 L 198.2,579.8 L 190.8,585.2 L 193.6,576.5 L 186.3,571.2 z " transform="translate(-98.20038,-473.4263)" fill="#ffffff" fill-opacity="1.0000000" fill-rule="evenodd" stroke="none" stroke-width="1.000pt" stroke-linecap="butt" stroke-linejoin="miter" stroke-opacity="1.0000000"/>
    <path d="M 186.3,571.2 L 195.3,571.2 L 198.2,562.6 L 201.0,571.2 L 210.0,571.2 L 202.7,576.5 L 205.5,585.2 L 198.2,579.8 L 190.8,585.2 L 193.6,576.5 L 186.3,571.2 z " transform="translate(-98.20038,-441.2180)" fill="#ffffff" fill-opacity="1.0000000" fill-rule="evenodd" stroke="none" stroke-width="1.000pt" stroke-linecap="butt" stroke-linejoin="miter" stroke-opacity="1.0000000"/>
    <path d="M 186.3,571.2 L 195.3,571.2 L 198.2,562.6 L 201.0,571.2 L 210.0,571.2 L 202.7,576.5 L 205.5,585.2 L 198.2,579.8 L 190.8,585.2 L 193.6,576.5 L 186.3,571.2 z " transform="translate(-98.20038,-409.0097)" fill="#ffffff" fill-opacity="1.0000000" fill-rule="evenodd" stroke="none" stroke-width="1.000pt" stroke-linecap="butt" stroke-linejoin="miter" stroke-opacity="1.0000000"/>
  </g>
</svg>
