<?xml version="1.0" encoding="UTF-8" standalone="no"?>
<svg xmlns="http://www.w3.org/2000/svg" width="600" height="300" version="1.1">
  <rect width="600" height="300" fill="#e23d28"/>
  <rect width="600" height="200" fill="#f9dd16"/>
  <rect width="600" height="100" fill="#006b3f"/>
  <path d="M 296.21690 563.24799 A 27.229561 27.993006 0 1 1  241.7,563.2 A 27.229561 27.993006 0 1 1  296.21690 563.24799 z" transform="matrix(2.754360,0,0,2.679241,-440.8878,-1359.077)" fill="#00a5db"/>
  <path d="M 367.9,508.5 L 411.5,508.5 L 421.3,478.2 L 424.0,486.3 L 409.6,530.4 L 405.4,527.3 L 409.9,513.5 L 374.8,513.5 L 367.9,508.5 M 389.7,575.6 L 403.2,534.2 L 377.3,515.4 L 385.9,515.4 L 423.4,542.7 L 419.1,545.7 L 407.4,537.3 L 396.6,570.6 L 389.7,575.6 M 460.2,575.6 L 425.0,550.0 L 399.1,568.7 L 401.8,560.7 L 439.3,533.4 L 440.9,538.4 L 429.2,546.9 L 457.6,567.5 L 460.2,575.6 M 482.0,508.5 L 446.7,534.2 L 456.6,564.5 L 449.7,559.5 L 435.4,515.4 L 440.7,515.4 L 445.1,529.2 L 473.5,508.5 L 482.0,508.5 M 425.0,467.1 L 438.4,508.5 L 470.3,508.5 L 463.4,513.5 L 417.1,513.5 L 418.7,508.5 L 433.2,508.5 L 422.3,475.2 L 425.0,467.1 z " transform="translate(-125,-377.3622)" fill="#f9dd16"/>
  <path d="M 425.0,554.8 L 425.0,587.3 M 398.8,535.8 L 367.9,545.9 M 408.8,505.1 L 389.7,478.8 M 441.1,505.1 L 460.2,478.8 M 451.1,535.8 L 482.0,545.9 L 451.1,535.8 z " transform="translate(-125,-377.3622)" stroke="#f9dd16" stroke-width="2.5"/>
</svg>
