<?xml version="1.0" encoding="UTF-8" standalone="no"?>
<!-- Created with Sodipodi ("http://www.sodipodi.com/") -->
<svg
   xmlns:dc="http://purl.org/dc/elements/1.1/"
   xmlns:cc="http://web.resource.org/cc/"
   xmlns:rdf="http://www.w3.org/1999/02/22-rdf-syntax-ns#"
   xmlns:svg="http://www.w3.org/2000/svg"
   xmlns="http://www.w3.org/2000/svg"
   xmlns:xlink="http://www.w3.org/1999/xlink"
   height="500"
   id="svg797"
   width="750"
   version="1.0">
  <defs
     id="defs799" />
  <sodipodi:namedview
     id="base"
     showgrid="true"
     snaptogrid="true"
     gridspacingx="15px"
     gridspacingy="15px"
     gridtolerance="3px"
     showguides="true" />
  <metadata
     id="metadata8437">
    <rdf:RDF>
      <cc:Work
         rdf:about="">
        <dc:title>Barbados</dc:title>
        <dc:description />
        <dc:subject>
          <rdf:Bag>
            <rdf:li>flags</rdf:li>
            <rdf:li>caribbean</rdf:li>
            <rdf:li>sign</rdf:li>
            <rdf:li>signs_and_symbols</rdf:li>
            <rdf:li />
            <rdf:li>united_nations_member</rdf:li>
            <rdf:li>america</rdf:li>
          </rdf:Bag>
        </dc:subject>
        <dc:publisher>
          <cc:Agent
             rdf:about="http://www.openclipart.org">
            <dc:title>Cezary Biele</dc:title>
          </cc:Agent>
        </dc:publisher>
        <dc:creator>
          <cc:Agent
             rdf:about="">
            <dc:title>Cezary Biele</dc:title>
          </cc:Agent>
        </dc:creator>
        <dc:rights>
          <cc:Agent
             rdf:about="">
            <dc:title>Cezary Biele</dc:title>
          </cc:Agent>
        </dc:rights>
        <dc:date />
        <dc:format>image/svg+xml</dc:format>
        <dc:type
           rdf:resource="http://purl.org/dc/dcmitype/StillImage" />
        <cc:license
           rdf:resource="http://web.resource.org/cc/PublicDomain">
          <dc:date />
        </cc:license>
        <dc:language>en</dc:language>
      </cc:Work>
      <cc:License
         rdf:about="http://web.resource.org/cc/PublicDomain">
        <cc:permits
           rdf:resource="http://web.resource.org/cc/Reproduction" />
        <cc:permits
           rdf:resource="http://web.resource.org/cc/Distribution" />
        <cc:permits
           rdf:resource="http://web.resource.org/cc/DerivativeWorks" />
      </cc:License>
    </rdf:RDF>
  </metadata>
  <rect
     height="500.00024"
     id="rect807"
     style="font-size:12px;fill:#00267f;fill-opacity:1;fill-rule:evenodd;stroke-width:1pt"
     width="250.00012"
     x="0"
     y="-0.00024021922" />
  <rect
     height="500.00024"
     id="rect808"
     style="font-size:12px;fill:#00267f;fill-opacity:1;fill-rule:evenodd;stroke-width:1pt"
     width="250.00012"
     x="500.00024"
     y="-0.00024021922" />
  <rect
     height="500.00024"
     id="rect809"
     style="font-size:12px;fill:#ffc726;fill-rule:evenodd;stroke-width:1pt"
     width="250.00012"
     x="250.00012"
     y="-0.00024021922" />
  <g
     id="g8472">
    <path
       style="fill:#000000;fill-opacity:1;fill-rule:evenodd;stroke:none;stroke-width:1pt;stroke-linecap:butt;stroke-linejoin:miter;stroke-opacity:1"
       id="path806"
       d="M 375,371.12873 L 362.1,371.1 C 361.9,355.2 362.3,321.2 362.1,305.3 C 351.9,305.3 327.0,311.4 316.8,311.4 C 316.9,254.6 294.9,206.6 268.5,166.0 C 266.9,164.0 268.0,163.1 269.7,163.6 C 289.6,166.7 310.1,177.1 324.1,191.6 C 325.7,193.6 315.4,189.4 314.5,189.3 C 306.8,187.0 316.8,200.1 317.3,203.6 C 325.2,228.7 332.0,253.0 334.6,281.9 C 334.6,284.0 334.9,285.4 335.8,285.5 L 362.1,281.6 L 362.1,188.4 C 356.0,188.3 346.3,189.9 340.8,191.7 C 358.6,174.0 366.8,151.0 375,128.87106 C 375,134.43064 375,371.12873 375,371.12873 z " />
    <use
       height="496.06299"
       width="744.09448"
       transform="matrix(-1,0,0,1,750,1.140581e-16)"
       id="use8450"
       xlink:href="#path806"
       y="0"
       x="0" />
  </g>
</svg>
