<?xml version="1.0" encoding="UTF-8" standalone="no"?>
<svg xmlns="http://www.w3.org/2000/svg" xmlns:xlink="http://www.w3.org/1999/xlink" version="1.0" x="0.0000000" y="0.0000000" width="570.00000" height="300.00000" id="svg1">
  <defs id="defs3"/>
  <g id="layer1">
    <rect width="237.50000" height="125.00000" x="125.00000" y="552.36218" transform="matrix(2.400000,0.000000,0.000000,2.400000,-300.0000,-1325.669)" fill="#003893" fill-opacity="1.0000000" stroke="none" stroke-width="1.250" stroke-linecap="butt" stroke-linejoin="miter" stroke-miterlimit="4.0000000" stroke-opacity="1.0000000"/>
    <path d="M 170.6,636.7 L 169.0,610.1 L 163.4,624.8 L 165.9,609.3 L 156.7,622.0 L 163.1,607.7 L 151.0,617.6 L 160.9,605.4 L 146.6,611.8 L 159.3,602.6 L 143.8,605.1 L 158.4,599.5 L 131.8,597.9 L 158.4,596.4 L 143.8,590.8 L 159.3,593.3 L 146.6,584.1 L 160.9,590.5 L 151.0,578.3 L 163.1,588.2 L 156.7,573.9 L 165.9,586.6 L 163.4,571.1 L 169.0,585.8 L 170.6,559.2 L 172.2,585.8 L 177.8,571.1 L 175.3,586.6 L 184.5,573.9 L 178.0,588.2 L 190.2,578.3 L 180.3,590.5 L 194.6,584.1 L 181.9,593.3 L 197.4,590.8 L 182.7,596.4 L 209.3,597.9 L 182.7,599.5 L 197.4,605.1 L 181.9,602.6 L 194.6,611.8 L 180.3,605.4 L 190.2,617.6 L 178.0,607.7 L 184.5,622.0 L 175.3,609.3 L 177.8,624.8 L 172.2,610.1 L 170.6,636.7 z " transform="matrix(2.400000,0.000000,0.000000,2.400000,-300.0000,-1325.669)" fill="#ffffff" fill-opacity="1.0000000" fill-rule="evenodd" stroke="none" stroke-width="0.250pt" stroke-linecap="butt" stroke-linejoin="miter" stroke-opacity="1.0000000"/>
    <path d="M 125.0,675.3 L 362.5,603.3 L 362.5,554.3 L 125.0,671.3 L 125.0,675.3 z " transform="matrix(2.400000,0.000000,0.000000,2.400000,-300.0000,-1325.669)" fill="#ffffff" fill-opacity="1.0000000" fill-rule="evenodd" stroke="none" stroke-width="0.250pt" stroke-linecap="butt" stroke-linejoin="miter" stroke-opacity="1.0000000"/>
    <path d="M 125.0,673.3 L 362.5,578.8 L 362.5,554.3 L 125.0,671.3 L 125.0,673.3 z " transform="matrix(2.400000,0.000000,0.000000,2.400000,-300.0000,-1325.669)" fill="#dd7500" fill-opacity="1.0000000" fill-rule="evenodd" stroke="none" stroke-width="0.250pt" stroke-linecap="butt" stroke-linejoin="miter" stroke-opacity="1.0000000"/>
  </g>
</svg>
