<?xml version="1.0" encoding="UTF-8" standalone="no"?>
<svg xmlns:dc="http://purl.org/dc/elements/1.1/" xmlns:cc="http://web.resource.org/cc/" xmlns:rdf="http://www.w3.org/1999/02/22-rdf-syntax-ns#" xmlns:svg="http://www.w3.org/2000/svg" xmlns="http://www.w3.org/2000/svg" xmlns:xlink="http://www.w3.org/1999/xlink" version="1.0" width="750" height="500" id="svg672">
  
  <sodipodi:namedview borderopacity="1.0" bordercolor="#666666" pagecolor="#ffffff" id="base" showguides="true"/>
  <defs id="defs674"/>
  <rect width="750.00037" height="500.00024" x="-750.00037" y="1.7807617e-006" transform="scale(-1,1)" font-size="12px" fill="#00785e" fill-opacity="1" fill-rule="evenodd" stroke="none" stroke-width="1pt" stroke-opacity="1"/>
  <g transform="matrix(0.944693,0,0,0.932422,20.74013,19.0312)">
    <path d="M 375,284.23006 C 361.5,293.5 347.4,313.8 314.8,313.8 C 268.7,313.8 251.5,300.1 237.8,289.7 C 237.3,288.2 249.6,282.6 249.6,282.6 C 268.1,295.7 288.6,307.2 327.0,305.5 C 279.6,301.3 247.5,275.1 237.8,251.0 C 263.5,233.0 306.0,233.3 340.8,258.1 C 329.9,244.5 293.6,229.4 266.4,233.7 C 262.5,229.6 259.1,224.5 255.2,220.4 C 286.4,213.4 329.9,233.5 345.9,250.0 C 329.1,222.9 316.8,192.4 336.7,155.2 C 340.6,158.9 345.0,162.6 349.0,166.4 C 334.0,193.7 339.4,225.7 351.5,247.9 C 330.6,204.8 347.4,162.1 375,141.43796 C 402.5,162.1 419.3,204.8 398.4,247.9 C 410.5,225.7 415.9,193.7 400.9,166.4 C 404.9,162.6 409.3,158.9 413.2,155.2 C 433.1,192.4 420.8,222.9 404.0,250.0 C 420.0,233.5 463.5,213.4 494.7,220.4 C 490.8,224.5 487.4,229.6 483.5,233.7 C 456.3,229.4 420.0,244.5 409.1,258.1 C 443.9,233.3 486.4,233.0 512.1,251.0 C 502.4,275.1 470.3,301.3 422.9,305.5 C 461.3,307.2 481.8,295.7 500.3,282.6 C 500.3,282.6 512.6,288.2 512.1,289.7 C 498.4,300.1 481.2,313.8 435.1,313.8 C 402.5,313.8 388.4,293.5 375,284.23006 z " font-size="12px" fill="white" fill-opacity="1" fill-rule="evenodd" stroke-width="1pt" stroke-linejoin="round"/>
    <path d="M 375,293.25 C 355.7,309.3 344.2,319.5 318.7,319.5 L 242.0,319.4 C 243.9,323.1 246.0,326.7 248.3,330.2 L 320.9,330.4 C 355.8,330.4 374.9,308.0 375,308.03125 C 375.0,308.0 394.1,330.4 429.0,330.4 L 501.6,330.3 C 503.9,326.8 505.9,323.1 507.9,319.4 L 431.2,319.5 C 405.7,319.5 394.2,309.3 375,293.25 z " font-size="12px" fill="white" fill-rule="evenodd" stroke-width="1pt"/>
    <path transform="matrix(1.61999,0,0,1.61999,-159.2124,-67.29344)" d="M 329.7,83.22 L 334.0,96.55 L 348.1,96.56 L 336.7,104.8 L 341.1,118.1 L 329.7,109.8 L 318.4,118.1 L 322.7,104.8 L 311.4,96.56 L 325.4,96.55 L 329.7,83.22 z " sodipodi:arg2="-0.9424778" sodipodi:arg1="-1.5707963" sodipodi:r2="7.3714867" sodipodi:r1="19.297085" opacity="1" color="black" fill="#fbd116" fill-opacity="1" fill-rule="nonzero" stroke="none" stroke-width="8" stroke-linecap="square" stroke-linejoin="miter" marker="none" marker-start="none" marker-mid="none" marker-end="none" stroke-miterlimit="4" stroke-dasharray="none" stroke-dashoffset="0" stroke-opacity="1" visibility="visible" display="inline" overflow="visible"/>
    <use x="0" y="0" xlink:href="#path2195" id="use2231" transform="matrix(0.31094,-0.538565,0.538565,0.31094,85.50943,345.075)" width="750" height="500"/>
    <use height="500" width="750" transform="matrix(0.538564,-0.310941,0.310941,0.538564,63.47041,181.4695)" id="use2233" xlink:href="#path2195" y="0" x="0"/>
    <use height="500" width="750" transform="matrix(-0.31094,-0.538565,-0.538565,0.31094,664.4909,345.075)" id="use2253" xlink:href="#path2195" y="0" x="0"/>
    <use x="0" y="0" xlink:href="#path2195" id="use2255" transform="matrix(-0.538564,-0.310941,-0.310941,0.538564,686.53,181.4695)" width="750" height="500"/>
    <path d="M 255.03125,340 C 255.9,341.2 256.9,342.5 257.9,343.7 L 492.0,343.7 C 493.0,342.5 494.0,341.2 494.96875,340 L 255.03125,340 z M 267.90625,355 C 270.4,357.5 273.0,360.0 275.8125,362.5 L 474.1875,362.5 C 476.9,360.0 479.5,357.5 482.09375,355 L 267.90625,355 z M 285.03125,370 C 290.5,374.1 296.3,377.8 302.3,381.2 L 447.6,381.2 C 453.6,377.8 459.4,374.1 464.96875,370 L 285.03125,370 z M 309.5625,385 C 328.7,394.3 350.3,399.7 373.0625,400 L 376.9375,400 C 399.6,399.7 421.2,394.3 440.4375,385 L 309.5625,385 z " color="black" fill="white" fill-opacity="1" fill-rule="nonzero" stroke="none" stroke-width="8" stroke-linecap="square" stroke-linejoin="miter" marker="none" marker-start="none" marker-mid="none" marker-end="none" stroke-miterlimit="4" stroke-dashoffset="0" stroke-opacity="1" visibility="visible" display="inline" overflow="visible"/>
  </g>
</svg>
