<?xml version="1.0" encoding="UTF-8" standalone="no"?>
<svg xmlns:svg="http://www.w3.org/2000/svg" xmlns="http://www.w3.org/2000/svg" version="1.0" width="600" height="300">
  <g id="layer1">
    <rect width="600" height="300" x="0" y="7.6293945e-006" opacity="1" fill="#f7d900" fill-opacity="1" fill-rule="evenodd" stroke="none" stroke-width="1" stroke-linecap="round" stroke-linejoin="round" stroke-miterlimit="4" stroke-dasharray="none" stroke-dashoffset="0.99999998" stroke-opacity="1"/>
    <rect width="200" height="300" x="0" y="3.8146973e-006" opacity="1" fill="#0000b3" fill-opacity="1" fill-rule="evenodd" stroke="none" stroke-width="1" stroke-linecap="round" stroke-linejoin="round" stroke-miterlimit="4" stroke-dasharray="none" stroke-dashoffset="0.99999998" stroke-opacity="1"/>
    <rect width="200" height="300" x="400" y="3.8146973e-006" opacity="1" fill="#e32110" fill-opacity="1" fill-rule="evenodd" stroke="none" stroke-width="1" stroke-linecap="round" stroke-linejoin="round" stroke-miterlimit="4" stroke-dasharray="none" stroke-dashoffset="0.99999998" stroke-opacity="1"/>
    <g>
      <path d="M 286.3,91.36 C 287.4,91.36 288.6,91.36 289.1,90.68 C 289.9,91.70 290.1,92.96 289.1,94.21 C 288.6,93.53 287.4,93.53 286.3,93.53 L 286.3,99.45 C 286.3,100.2 286.3,101.1 286.9,101.8 L 285.3,104.0 L 283.7,101.8 C 284.3,101.1 284.3,100.2 284.3,99.45 L 284.3,93.53 C 283.3,93.53 282.1,93.53 281.6,94.21 C 280.8,93.18 280.5,91.93 281.6,90.68 C 282.1,91.36 283.3,91.36 284.3,91.36 C 284.3,90.34 284.3,89.20 283.6,88.74 C 284.9,87.72 286.0,87.95 287.1,88.74 C 286.3,89.20 286.3,90.34 286.3,91.36 z " id="21211408" fill="#ffea36" stroke="black" stroke-width="0.341"/>
      <path d="M 299.4,211.9 C 301.8,210.1 305.8,207.8 308.1,206.4 C 305.9,202.4 302.3,194.7 302.2,188.8 C 303.9,193.3 307.6,199.7 311.1,204.7 C 312.6,203.8 316.7,201.8 319.4,200.4 C 314.7,195.5 307.3,186.3 305.0,179.2 C 303.0,180.2 300.6,181.5 299.4,183.0 C 298.3,181.5 295.9,180.2 293.9,179.2 C 291.6,186.3 284.2,195.5 279.5,200.4 C 282.1,201.8 286.2,203.8 287.8,204.7 C 291.2,199.7 295.0,193.3 296.7,188.8 C 296.6,194.7 292.9,202.4 290.8,206.4 C 293.1,207.8 297.0,210.1 299.4,211.9 z " id="21211320" fill="#963" fill-opacity="1" stroke="black" stroke-width="0.341"/>
      <path d="M 272.1,124.9 C 272.1,124.9 272.1,156.0 272.1,164.5 C 272.1,173.1 271.1,175.7 267.3,179.3 C 267.0,185.7 265.2,188.2 260.7,190.0 C 259.8,193.4 257.8,196.1 253.8,197.7 C 253.8,197.7 253.8,135.5 253.8,118.0 C 253.8,110.9 255.3,109.1 257.2,106.8 C 260.2,103.3 260.7,103.6 262.2,103.7 C 265.4,104.0 269.5,106.6 270.6,107.5 C 273.1,109.3 273.3,109.5 272.1,112.4 C 271.1,114.9 270.7,116.3 271.3,118.2 C 277.1,117.2 277.7,121.9 282.5,123.1 C 289.3,124.7 293.2,121.0 293.9,114.9 L 305.0,114.9 C 305.7,121.0 309.6,124.7 316.4,123.1 C 321.2,121.9 321.8,117.2 327.6,118.2 C 328.1,116.3 327.8,114.9 326.8,112.4 C 325.6,109.5 325.7,109.3 328.2,107.5 C 329.4,106.6 333.5,104.0 336.7,103.7 C 338.1,103.6 338.7,103.3 341.7,106.8 C 343.6,109.1 345.1,110.9 345.1,118.0 C 345.1,135.5 345.1,197.7 345.1,197.7 C 341.1,196.1 339.1,193.4 338.1,190.0 C 333.7,188.2 331.9,185.7 331.5,179.3 C 327.8,175.7 326.8,173.1 326.8,164.5 C 326.8,156.0 326.8,124.9 326.8,124.9 L 272.1,124.9 z " id="21211232" fill="#963" fill-opacity="1" stroke="black" stroke-width="0.341"/>
      <path d="M 308.7,122.3 C 307.5,122.1 305.9,121.8 304.8,121.0 C 305.0,121.7 305.4,122.2 305.8,122.7 C 303.9,122.7 302.7,122.1 301.9,120.8 C 301.3,121.5 300.2,123.1 299.4,124.2 C 298.4,123.1 297.4,121.8 296.8,121.0 C 296.4,122.7 294.0,122.9 292.6,122.9 C 292.7,122.6 292.8,122.4 292.9,122.2 C 292.0,123.1 289.9,123.5 288.7,123.5 C 291.0,120.6 293.1,114.1 293.3,107.9 C 293.4,103.7 292.4,102.2 291.2,101.0 C 290.7,100.4 290.2,96.71 290.3,96.49 C 294.0,92.27 299.4,93.53 300.8,94.09 C 302.3,94.55 304.2,96.03 306.8,95.23 C 306.7,95.92 306.2,96.60 305.6,96.83 C 307.0,97.62 306.6,98.65 307.9,99.33 C 307.6,99.79 306.8,99.90 306.4,99.79 C 307.4,100.3 307.0,101.9 308.3,102.7 C 307.7,102.8 307.4,103.2 306.6,102.7 C 307.7,104.0 307.2,108.2 307.7,109.3 C 307.4,109.2 306.6,108.7 306.6,107.7 C 306.7,111.7 306.4,118.3 308.7,122.3 z " id="21211144" fill="#963" fill-opacity="1" stroke="black" stroke-width="0.341"/>
      <path d="M 293.1,96.37 C 293.9,96.49 294.1,96.94 295.3,96.94 C 297.0,97.06 297.6,96.37 298.4,96.37 C 299.1,96.37 300.0,96.60 300.7,97.06" id="21210968" fill="none" stroke="black" stroke-width="0.341" stroke-linecap="round"/>
      <g transform="matrix(0.113852,0,0,0.113852,299.4876,87.83811)">
        <path d="M -36,191 C -37,223 -39,272 -56,302" id="21210792" fill="none" stroke="black" stroke-width="3"/>
        <path d="M -12,193 C -15,223 -16,270 -22,292" id="21210704" fill="none" stroke="black" stroke-width="3"/>
        <path d="M 9,195 C 10,224 9,269 23,290" id="21210616" fill="none" stroke="black" stroke-width="3"/>
        <path d="M 35,204 C 37,231 38,270 48,292" id="21210528" fill="none" stroke="black" stroke-width="3"/>
      </g>
      <g transform="matrix(0.113852,0,0,0.113852,299.4876,87.83811)">
        <path d="M -282,804 C -282,797 -282,789 -282,781 C -282,708 -282,340 -282,340" id="21210352" fill="none" stroke="black" stroke-width="3"/>
        <path d="M -340,898 C -332,867 -332,830 -332,784 C -332,707 -332,333 -332,333" id="21210264" fill="none" stroke="black" stroke-width="3"/>
        <path d="M -239,185 C -285,214 -309,270 -279,348 C -275,333 -258,302 -242,282" id="21210176" fill="none" stroke="black" stroke-width="3"/>
        <path d="M -217,325 C -216,306 -188,297 -185,290" id="21210088" fill="none" stroke="black" stroke-width="3"/>
        <path d="M -188,293 C -183,303 -175,315 -165,324 C -163,318 -159,313 -156,308" id="21210000" fill="none" stroke="black" stroke-width="3"/>
        <path d="M -285,153 C -304,177 -301,227 -285,240" id="21209912" fill="none" stroke="black" stroke-width="3"/>
        <path d="M -293,167 C -327,202 -347,239 -293,278" id="21209824" fill="none" stroke="black" stroke-width="3"/>
        <path d="M -342,141 C -352,157 -344,204 -326,216" id="21209736" fill="none" stroke="black" stroke-width="3"/>
        <path d="M -386,187 C -389,209 -383,225 -370,240 C -364,227 -352,210 -337,203" id="21209648" fill="none" stroke="black" stroke-width="3"/>
        <path d="M -325,237 C -357,275 -356,300 -326,343 C -320,316 -312,288 -295,277" id="21209560" fill="none" stroke="black" stroke-width="3"/>
        <path d="M -364,229 C -368,248 -361,267 -348,276" id="21209472" fill="none" stroke="black" stroke-width="3"/>
        <path d="M -373,237 C -397,264 -416,290 -379,346 C -362,325 -366,298 -349,287" id="21209384" fill="none" stroke="black" stroke-width="3"/>
        <path d="M -247,267 C -243,279 -234,309 -216,326" id="21209296" fill="none" stroke="black" stroke-width="3"/>
      </g>
      <g transform="matrix(0.113852,0,0,0.113852,299.4876,87.83811)">
        <path d="M 282,804 C 282,797 282,789 282,781 C 282,708 282,340 282,340" id="21209120" fill="none" stroke="black" stroke-width="3"/>
        <path d="M 340,898 C 332,867 332,830 332,784 C 332,707 332,333 332,333" id="21209032" fill="none" stroke="black" stroke-width="3"/>
        <path d="M 239,185 C 285,214 309,270 279,348 C 275,333 258,302 242,282" id="21208944" fill="none" stroke="black" stroke-width="3"/>
        <path d="M 217,325 C 216,306 188,297 185,290" id="21208856" fill="none" stroke="black" stroke-width="3"/>
        <path d="M 188,293 C 183,303 175,315 165,324 C 163,318 159,313 156,308" id="21208768" fill="none" stroke="black" stroke-width="3"/>
        <path d="M 285,153 C 304,177 301,227 285,240" id="21208680" fill="none" stroke="black" stroke-width="3"/>
        <path d="M 293,167 C 327,202 347,239 293,278" id="21208592" fill="none" stroke="black" stroke-width="3"/>
        <path d="M 342,141 C 352,157 344,204 326,216" id="21208504" fill="none" stroke="black" stroke-width="3"/>
        <path d="M 386,187 C 389,209 383,225 370,240 C 364,227 352,210 337,203" id="21208416" fill="none" stroke="black" stroke-width="3"/>
        <path d="M 325,237 C 357,275 356,300 326,343 C 320,316 312,288 295,277" id="21208328" fill="none" stroke="black" stroke-width="3"/>
        <path d="M 364,229 C 368,248 360,267 348,276" id="21208240" fill="none" stroke="black" stroke-width="3"/>
        <path d="M 373,237 C 397,264 416,290 379,346 C 362,325 366,298 349,287" id="21208152" fill="none" stroke="black" stroke-width="3"/>
        <path d="M 247,267 C 243,279 234,309 216,326" id="21208064" fill="none" stroke="black" stroke-width="3"/>
      </g>
      <path d="M 272.1,150.4 C 272.1,139.5 272.1,124.9 272.1,124.9 L 326.8,124.9 C 326.8,124.9 326.8,139.5 326.8,150.4 L 272.1,150.4 z " id="21207976" fill="#be0027" fill-opacity="1" stroke="black" stroke-width="0.341"/>
      <path d="M 326.8,150.4 C 326.8,155.8 326.8,160.3 326.8,161.6 C 326.8,168.2 325.4,171.9 319.5,173.9 C 313.4,175.9 302.2,179.4 299.4,183.0 C 296.7,179.4 285.4,175.9 279.4,173.9 C 273.5,171.9 272.1,168.2 272.1,161.6 C 272.1,160.3 272.1,155.8 272.1,150.4 L 326.8,150.4 z " id="21207888" fill="#3b5aa3" fill-opacity="1" stroke="black" stroke-width="0.341"/>
      <path d="M 299.4,178.4 C 300.8,178.4 302.6,178.0 303.0,177.2 C 303.3,176.4 303.7,175.7 305.6,175.6 C 306.7,175.6 307.6,174.9 307.6,173.5 C 307.6,172.0 307.6,171.5 305.8,170.0 C 304.1,168.5 304.2,167.5 304.2,166.1 C 304.2,164.8 304.2,160.8 304.2,159.4 C 304.2,153.1 309.7,152.9 313.3,152.9 C 312.5,151.9 311.7,150.6 310.9,149.5 C 320.2,145.9 323.7,132.0 310.3,127.3 C 315.8,133.3 313.8,142.0 309.9,142.2 C 308.5,142.3 308.7,142.8 308.3,143.3 C 308.0,144.0 307.1,144.4 306.4,144.4 C 304.3,144.4 304.7,143.0 303.1,143.0 C 301.5,143.0 301.0,144.4 299.4,144.4 C 297.8,144.4 297.4,143.0 295.8,143.0 C 294.2,143.0 294.5,144.4 292.5,144.4 C 291.8,144.4 290.9,144.0 290.6,143.3 C 290.2,142.8 290.3,142.3 289.0,142.2 C 285.1,142.0 283.0,133.3 288.6,127.3 C 275.2,132.0 278.7,145.9 287.9,149.5 C 287.1,150.6 286.3,151.9 285.5,152.9 C 289.2,152.9 294.7,153.1 294.7,159.4 C 294.7,160.8 294.7,164.8 294.7,166.1 C 294.7,167.5 294.8,168.5 293.1,170.0 C 291.2,171.5 291.2,172.0 291.2,173.5 C 291.2,174.9 292.2,175.6 293.3,175.6 C 295.2,175.7 295.6,176.4 295.9,177.2 C 296.2,178.0 298.1,178.4 299.4,178.4 z " id="21207712" fill="#ffea36" stroke="black" stroke-width="0.341"/>
      <path d="M 278.5,167.0 C 277.0,167.1 275.8,166.0 275.6,164.5 C 275.6,163.0 276.7,161.8 278.1,161.7 C 277.6,160.3 278.3,158.8 279.6,158.3 C 281.0,157.7 282.6,158.4 283.0,159.7 C 284.2,158.7 285.9,158.9 286.8,160.1 C 287.8,161.2 287.6,162.8 286.5,163.8 C 287.7,164.5 288.2,166.2 287.4,167.5 C 286.6,168.7 285.0,169.1 283.7,168.3 C 283.3,169.8 281.9,170.6 280.4,170.2 C 279.1,169.9 278.1,168.4 278.5,167.0 z " id="21207624" fill="#ffea36" stroke="black" stroke-width="0.342" stroke-miterlimit="4" stroke-dasharray="none"/>
      <path d="M 321.4,159.6 C 318.6,156.9 314.0,157.1 311.6,160.5 C 309.9,163.0 309.9,167.8 314.2,169.9 C 312.2,165.7 315.0,159.4 321.4,159.6 z " id="21207536" fill="#ffea36" stroke="black" stroke-width="0.341"/>
      <path d="M 299.4,128.1 L 300.8,130.3 L 303.3,129.7 L 302.7,132.2 L 304.9,133.6 L 302.7,134.9 L 303.3,137.4 L 300.8,136.9 L 299.4,139.0 L 298.1,136.9 L 295.6,137.4 L 296.1,134.9 L 294.0,133.6 L 296.1,132.2 L 295.6,129.7 L 298.1,130.3 L 299.4,128.1 z " id="21207448" fill="#ffea36" stroke="black" stroke-width="0.341"/>
      <path d="M 292.5,158.7 C 292.5,159.9 292.5,165.5 292.5,166.3 C 292.5,167.0 292.3,168.1 291.5,168.3 L 289.8,158.9 L 292.5,158.7 z " id="21207360" fill="#ffea36" stroke="black" stroke-width="0.341"/>
      <path d="M 291.0,157.8 L 292.3,156.4 L 291.0,155.2 L 289.6,156.4 L 291.0,157.8 z " id="21207272" fill="#ffea36" stroke="black" stroke-width="0.341"/>
      <path d="M 306.4,158.7 C 306.4,159.9 306.4,165.5 306.4,166.3 C 306.4,167.0 306.6,168.1 307.4,168.3 L 309.1,158.9 L 306.4,158.7 z " id="21207184" fill="#ffea36" stroke="black" stroke-width="0.341"/>
      <path d="M 307.9,157.8 L 306.6,156.4 L 307.9,155.2 L 309.2,156.4 L 307.9,157.8 z " id="21207096" fill="#ffea36" stroke="black" stroke-width="0.341"/>
      <path d="M 285.7,150.4 C 282.8,151.5 280.0,153.7 280.0,153.7 C 280.0,153.7 277.1,151.5 274.2,150.4 C 277.1,149.2 280.0,147.0 280.0,147.0 C 280.0,147.0 282.8,149.2 285.7,150.4 z " id="21207008" fill="#ffea36" stroke="black" stroke-width="0.341"/>
      <path d="M 313.2,150.4 C 316.1,151.5 318.9,153.7 318.9,153.7 C 318.9,153.7 321.8,151.5 324.7,150.4 C 321.8,149.2 318.9,147.0 318.9,147.0 C 318.9,147.0 316.1,149.2 313.2,150.4 z " id="21206920" fill="#ffea36" stroke="black" stroke-width="0.341"/>
      <path d="M 291.2,101.0 C 291.2,99.56 292.6,98.99 295.5,100.4 C 295.7,99.45 292.2,98.88 291.4,96.94 C 290.4,95.01 285.0,94.44 283.8,98.31 C 285.8,96.94 290.0,97.28 290.4,98.76 C 289.8,98.19 287.1,98.88 286.3,98.54 L 286.3,99.45 C 286.8,99.67 289.9,99.22 291.2,101.0 z " id="21206744" fill="#be0027" fill-opacity="1" stroke="black" stroke-width="0.341"/>
      <path d="M 298.2,97.85 C 297.6,96.94 296.6,96.94 295.7,96.94 C 294.5,97.06 294.5,97.62 294.0,97.74 C 294.4,97.97 294.8,98.76 295.9,98.88 C 296.9,98.88 297.2,97.85 298.2,97.85 z " id="21206832" fill="black"/>
      <path d="M 296.2,98.42 C 296.1,98.54 295.9,98.65 295.7,98.65 C 295.3,98.65 295.0,98.31 295.0,97.97 C 295.0,97.51 295.3,97.17 295.7,97.17 C 295.9,97.17 296.1,97.28 296.4,97.51 C 296.0,97.51 295.9,97.97 295.7,97.97 C 295.9,97.97 295.9,98.42 296.2,98.42 z " id="21206656" fill="white"/>
      <path d="M 270.7,190.4 C 271.9,192.8 274.0,195.7 275.9,196.9 C 277.5,197.8 274.6,199.0 274.2,198.6 C 273.1,197.7 271.0,194.8 269.8,192.3 C 266.9,185.6 262.8,178.5 259.7,175.2 C 256.6,172.0 248.3,158.9 245.5,156.1 C 244.6,155.3 244.3,153.4 247.2,157.0 C 250.0,160.7 259.5,172.9 262.0,176.1 C 264.4,179.4 269.0,186.8 270.7,190.4 z " id="21206480" fill="#058101" fill-opacity="1" stroke="black" stroke-width="0.341"/>
      <path d="M 240.1,151.4 C 240.7,152.8 242.3,156.1 245.8,156.6 C 245.2,153.5 241.6,151.2 240.1,151.4 z " id="21206392" fill="#058101" fill-opacity="1" stroke="black" stroke-width="0.341"/>
      <path d="M 242.3,149.8 C 242.2,151.7 243.8,155.2 246.3,156.1 C 246.5,154.0 244.4,150.2 242.3,149.8 z " id="21206304" fill="#058101" fill-opacity="1" stroke="black" stroke-width="0.341"/>
      <path d="M 246.6,156.2 C 246.6,158.7 248.3,161.9 250.7,162.6 C 250.7,160.3 248.8,156.8 246.6,156.2 z " id="21206216" fill="#058101" fill-opacity="1" stroke="black" stroke-width="0.341"/>
      <path d="M 253.2,164.2 C 253.0,161.3 251.2,157.4 248.7,156.7 C 248.9,159.4 249.7,163.8 253.2,164.2 z " id="21206128" fill="#058101" fill-opacity="1" stroke="black" stroke-width="0.341"/>
      <path d="M 245.8,159.7 C 248.2,159.3 250.8,161.8 251.8,163.7 C 247.7,163.2 246.6,161.5 245.8,159.7 z " id="21206040" fill="#058101" fill-opacity="1" stroke="black" stroke-width="0.341"/>
      <path d="M 253.2,164.6 C 250.5,160.8 253.3,157.9 253.0,156.9 C 254.6,158.7 255.1,162.6 253.2,164.6 z " id="21205952" fill="#058101" fill-opacity="1" stroke="black" stroke-width="0.341"/>
      <path d="M 253.2,164.6 C 250.8,161.1 247.5,161.8 245.5,162.4 C 247.5,164.6 250.8,165.5 253.2,164.6 z " id="21205864" fill="#058101" fill-opacity="1" stroke="black" stroke-width="0.341"/>
      <path d="M 252.8,165.7 C 257.1,167.0 260.3,171.8 260.7,175.3 C 256.6,174.0 252.9,168.7 252.8,165.7 z " id="21205776" fill="#058101" fill-opacity="1" stroke="black" stroke-width="0.341"/>
      <path d="M 261.2,176.1 C 259.7,173.1 256.6,170.4 251.8,170.9 C 253.9,174.3 258.3,176.7 261.2,176.1 z " id="21205688" fill="#058101" fill-opacity="1" stroke="black" stroke-width="0.341"/>
      <path d="M 258.6,166.2 C 261.9,169.1 261.9,173.7 261.2,176.1 C 256.3,172.0 259.1,168.5 258.6,166.2 z " id="21205600" fill="#058101" fill-opacity="1" stroke="black" stroke-width="0.341"/>
      <path d="M 261.8,176.9 C 262.1,180.5 264.1,184.1 267.2,184.1 C 267.2,180.5 264.9,177.7 261.8,176.9 z " id="21205512" fill="#058101" fill-opacity="1" stroke="black" stroke-width="0.341"/>
      <path d="M 267.6,184.3 C 264.8,181.8 260.6,182.4 259.2,183.3 C 262.1,185.9 266.1,185.1 267.6,184.3 z " id="21205424" fill="#058101" fill-opacity="1" stroke="black" stroke-width="0.341"/>
      <path d="M 267.3,184.6 C 266.1,182.1 265.7,179.7 267.2,177.2 C 267.7,178.9 270.6,181.3 267.3,184.4" id="21205336" fill="#058101" fill-opacity="1" stroke="black" stroke-width="0.341"/>
      <path d="M 260.3,175.8 C 258.5,176.0 258.9,178.6 260.7,178.4 C 262.5,178.1 262.2,175.6 260.3,175.8 z " id="21205248" fill="#058101" fill-opacity="1" stroke="black" stroke-width="0.341"/>
      <path d="M 262.2,174.3 C 260.4,174.5 260.7,177.2 262.5,176.9 C 264.4,176.6 264.0,174.0 262.2,174.3 z " id="21205160" fill="#058101" fill-opacity="1" stroke="black" stroke-width="0.341"/>
      <path d="M 251.2,164.6 C 249.3,164.9 249.7,167.5 251.6,167.3 C 253.4,166.9 253.0,164.4 251.2,164.6 z " id="21205072" fill="#058101" fill-opacity="1" stroke="black" stroke-width="0.341"/>
      <path d="M 253.7,163.8 C 251.8,164.1 252.2,166.7 254.0,166.3 C 255.8,166.1 255.5,163.5 253.7,163.8 z " id="21348792" fill="#058101" fill-opacity="1" stroke="black" stroke-width="0.341"/>
      <path d="M 245.4,155.4 C 243.9,155.6 244.2,157.8 245.7,157.6 C 247.3,157.4 247.0,155.2 245.4,155.4 z " id="21348704" fill="#058101" fill-opacity="1" stroke="black" stroke-width="0.341"/>
      <path d="M 246.6,154.4 C 245.2,154.6 245.5,156.6 246.8,156.3 C 248.3,156.1 248.0,154.2 246.6,154.4 z " id="21348616" fill="#058101" fill-opacity="1" stroke="black" stroke-width="0.341"/>
      <path d="M 268.4,183.1 C 266.4,183.4 266.9,186.0 268.7,185.7 C 270.5,185.5 270.2,182.9 268.4,183.1 z " id="21348528" fill="#058101" fill-opacity="1" stroke="black" stroke-width="0.341"/>
      <path d="M 266.3,184.1 C 264.5,184.4 264.9,187.1 266.8,186.7 C 268.6,186.5 268.2,183.9 266.3,184.1 z " id="21348440" fill="#058101" fill-opacity="1" stroke="black" stroke-width="0.341"/>
      <path d="M 332.9,187.1 C 333.0,188.3 331.2,189.7 329.8,191.3 C 328.0,193.6 327.1,196.6 325.6,197.4 C 325.9,198.0 325.6,198.8 325.1,199.4 C 324.4,200.2 323.3,199.7 322.4,200.3 C 322.8,199.2 321.9,198.5 322.4,197.5 C 322.8,196.9 323.5,196.3 324.1,196.4 C 324.4,194.7 326.9,192.8 328.4,190.3 C 329.5,188.5 330.1,186.3 331.4,186.0" id="21348264" fill="none" stroke="black" stroke-width="0.341"/>
      <path d="M 332.0,186.7 C 332.9,187.4 334.3,187.2 335.0,186.3 C 335.5,185.2 335.3,184.0 334.4,183.3 C 333.5,182.6 332.2,182.9 331.5,183.9 C 330.9,184.8 331.1,186.0 332.0,186.7 z " id="21348176" fill="#ffea36" stroke="black" stroke-width="0.341"/>
      <path d="M 344.2,171.1 L 340.1,176.8 C 338.4,179.2 338.6,181.1 337.1,183.3 C 336.4,184.2 335.1,184.6 334.0,183.8 C 333.0,183.1 332.8,181.7 333.6,180.7 C 335.0,178.6 336.9,178.2 338.6,175.8 L 342.7,170.1 L 344.2,171.1 z " id="21348088" fill="#ffea36" stroke="black" stroke-width="0.341"/>
      <path d="M 340.4,171.9 C 339.9,172.7 342.6,174.5 343.0,173.9 C 343.6,173.1 340.9,171.2 340.4,171.9 z " id="21348000" fill="#ffea36" stroke="black" stroke-width="0.341"/>
      <path d="M 341.1,171.0 C 340.5,171.7 343.3,173.6 343.7,172.8 C 344.3,172.2 341.6,170.2 341.1,171.0 z " id="21347912" fill="#ffea36" stroke="black" stroke-width="0.341"/>
      <path d="M 341.8,170.0 C 341.2,170.8 344.0,172.6 344.5,171.9 C 345.0,171.1 342.2,169.3 341.8,170.0 z " id="21347824" fill="#ffea36" stroke="black" stroke-width="0.341"/>
      <path d="M 343.4,170.7 C 344.3,171.4 345.8,171.1 346.5,170.1 C 347.9,168.1 347.1,166.8 348.8,164.3 C 349.6,163.3 350.7,162.4 351.7,162.4 C 351.6,161.7 351.0,160.8 350.6,160.4 C 350.1,160.1 349.1,159.9 348.4,160.0 C 348.6,161.0 348.2,162.2 347.4,163.3 C 345.7,165.8 344.3,165.4 342.8,167.6 C 342.1,168.5 342.4,170.0 343.4,170.7 z " id="21347736" fill="#ffea36" stroke="black" stroke-width="0.341"/>
      <path d="M 350.3,160.8 C 351.1,161.3 352.4,161.2 353.3,160.8 C 353.5,158.1 357.3,155.5 359.6,155.9 C 359.7,154.2 358.4,152.0 357.0,151.1 C 355.8,150.2 353.3,149.7 351.8,150.4 C 352.8,152.5 351.7,156.8 349.3,157.9 C 349.2,158.9 349.5,160.2 350.3,160.8 z " id="21347648" fill="#ffea36" stroke="black" stroke-width="0.341"/>
      <path d="M 350.3,160.8 C 350.8,161.1 351.7,160.8 352.4,160.2 C 353.2,157.8 356.2,154.8 357.8,154.7 C 358.3,153.3 357.8,151.7 357.0,151.1 C 356.4,150.6 354.8,150.7 353.5,151.7 C 353.9,153.1 352.0,157.1 350.2,158.6 C 349.9,159.4 349.9,160.4 350.3,160.8 z " id="21347560" fill="#ffea36" stroke="black" stroke-width="0.341"/>
      <path d="M 356.5,150.4 C 355.9,151.2 357.4,152.2 358.0,151.5 C 358.4,150.7 356.9,149.7 356.5,150.4 z " id="21347472" fill="#ffea36" stroke="black" stroke-width="0.341"/>
      <path d="M 357.4,150.7 C 359.9,151.1 358.8,148.8 359.8,147.3 C 358.8,148.8 356.2,148.5 357.4,150.7 z " id="21347384" fill="#ffea36" stroke="black" stroke-width="0.341"/>
      <g transform="matrix(0.113852,0,0,0.113852,299.4876,87.83811)" fill="#be0027" fill-opacity="1">
        <path d="M -276,916 C -285,930 -300,918 -293,909 C -289,904 -283,892 -276,883 C -270,875 -263,870 -256,870 C -248,871 -243,871 -239,868 C -221,850 -205,817 -190,792 C -177,773 -149,798 -154,805 C -169,835 -211,900 -226,919 C -234,931 -268,907 -276,916 z " id="21347120" fill="#be0027" fill-opacity="1" stroke="black" stroke-width="3"/>
        <path d="M -271,909 C -282,923 -283,926 -277,931 C -272,935 -268,933 -257,921 C -247,908 -243,904 -249,898 C -253,893 -260,896 -271,909 z " id="21347032" fill="#be0027" fill-opacity="1" stroke="black" stroke-width="3"/>
        <path d="M -258,922 C -265,929 -273,934 -264,943 C -259,947 -254,945 -244,933 C -234,920 -227,914 -234,908 C -243,900 -252,915 -258,922 z " id="21346944" fill="#be0027" fill-opacity="1" stroke="black" stroke-width="3"/>
        <path d="M -243,932 C -254,943 -260,945 -250,952 C -247,955 -243,953 -232,941 C -220,927 -219,919 -223,915 C -230,909 -236,925 -243,932 z " id="21346856" fill="#be0027" fill-opacity="1" stroke="black" stroke-width="3"/>
      </g>
      <g transform="matrix(0.113852,0,0,0.113852,299.4876,87.83811)" fill="#be0027" fill-opacity="1">
        <path d="M 276,916 C 285,930 300,918 293,909 C 289,904 283,892 276,883 C 270,875 263,870 255,870 C 248,871 243,871 239,868 C 221,850 205,817 190,792 C 177,773 149,798 154,805 C 169,835 210,900 226,919 C 234,931 268,907 276,916 z " id="21346680" fill="#be0027" fill-opacity="1" stroke="black" stroke-width="3"/>
        <path d="M 271,909 C 282,923 283,926 277,931 C 272,935 268,933 257,921 C 247,908 243,904 249,898 C 253,893 260,896 271,909 z " id="21346592" fill="#be0027" fill-opacity="1" stroke="black" stroke-width="3"/>
        <path d="M 258,922 C 265,929 273,934 264,943 C 259,947 254,945 244,933 C 234,920 227,914 234,908 C 243,900 252,915 258,922 z " id="21346504" fill="#be0027" fill-opacity="1" stroke="black" stroke-width="3"/>
        <path d="M 243,932 C 254,943 260,945 250,952 C 247,955 243,953 232,941 C 220,927 219,919 223,915 C 230,909 236,925 243,932 z " id="21346416" fill="#be0027" fill-opacity="1" stroke="black" stroke-width="3"/>
      </g>
      <path d="M 286.5,176.3 C 284.5,178.4 283.7,181.7 282.4,182.7 C 282.4,182.2 282.1,181.0 282.0,180.5 C 281.3,180.9 280.3,181.3 279.4,181.5 C 279.5,181.0 279.2,179.2 278.8,178.4 C 278.4,178.9 276.7,179.8 276.1,179.6 C 277.0,178.4 276.6,177.4 278.7,173.6 C 280.4,174.3 284.8,175.6 286.5,176.3 z " id="21346240" fill="#963" fill-opacity="1" stroke="black" stroke-width="0.341"/>
      <path d="M 312.4,176.3 C 314.4,178.4 315.1,181.7 316.5,182.7 C 316.5,182.2 316.7,181.0 316.9,180.5 C 317.5,180.9 318.6,181.3 319.5,181.5 C 319.4,181.0 319.7,179.2 320.0,178.4 C 320.5,178.9 322.2,179.8 322.8,179.6 C 321.9,178.4 322.3,177.4 320.2,173.6 C 318.5,174.3 314.1,175.6 312.4,176.3 z " id="21346152" fill="#963" fill-opacity="1" stroke="black" stroke-width="0.341"/>
      <path d="M 270.7,190.9 C 271.5,191.2 272.3,189.2 271.2,188.5 C 271.3,189.6 270.3,189.5 270.2,190.0 C 270.1,190.5 270.4,190.9 270.7,190.9 z " id="21345976" fill="#be0027" fill-opacity="1" stroke="black" stroke-width="0.341"/>
      <path d="M 266.0,191.5 C 265.2,192.8 266.9,194.8 268.6,193.9 C 267.2,193.3 268.0,192.0 267.7,191.5 C 267.2,190.9 266.3,190.9 266.0,191.5 z " id="21345888" fill="#be0027" fill-opacity="1" stroke="black" stroke-width="0.341"/>
      <path d="M 272.3,192.1 C 273.1,192.3 273.9,190.4 272.8,189.7 C 272.9,190.7 271.8,190.6 271.8,191.1 C 271.7,191.6 271.9,192.0 272.3,192.1 z " id="21345800" fill="#be0027" fill-opacity="1" stroke="black" stroke-width="0.341"/>
      <path d="M 273.8,193.2 C 274.6,193.3 275.4,191.4 274.3,190.8 C 274.4,191.7 273.3,191.7 273.1,192.2 C 273.1,192.8 273.4,193.1 273.8,193.2 z " id="21345712" fill="#be0027" fill-opacity="1" stroke="black" stroke-width="0.341"/>
      <path d="M 328.0,190.9 C 327.3,191.2 326.5,189.2 327.7,188.5 C 327.6,189.6 328.6,189.5 328.7,190.0 C 328.8,190.5 328.5,190.9 328.0,190.9 z " id="21345624" fill="#be0027" fill-opacity="1" stroke="black" stroke-width="0.341"/>
      <path d="M 332.9,191.5 C 333.7,192.8 332.0,194.8 330.3,193.9 C 331.7,193.3 330.9,192.0 331.2,191.5 C 331.7,190.9 332.6,190.9 332.9,191.5 z " id="21345536" fill="#be0027" fill-opacity="1" stroke="black" stroke-width="0.341"/>
      <path d="M 326.5,192.1 C 325.7,192.3 324.9,190.4 326.1,189.7 C 326.0,190.7 327.0,190.6 327.1,191.1 C 327.2,191.6 327.0,192.0 326.5,192.1 z " id="21345448" fill="#be0027" fill-opacity="1" stroke="black" stroke-width="0.341"/>
      <path d="M 325.1,193.2 C 324.3,193.3 323.5,191.4 324.6,190.8 C 324.5,191.7 325.6,191.7 325.6,192.2 C 325.7,192.8 325.5,193.1 325.1,193.2 z " id="21345360" fill="#be0027" fill-opacity="1" stroke="black" stroke-width="0.341"/>
      <path d="M 294.3,173.5 C 295.7,173.3 296.8,172.9 296.8,173.7 C 296.8,174.4 296.1,174.4 294.7,174.3 C 293.1,174.3 292.8,173.9 294.3,173.5 z " id="21345184" fill="black"/>
      <path d="M 304.6,173.5 C 303.2,173.3 302.1,172.9 302.1,173.7 C 301.9,174.4 302.7,174.4 304.2,174.3 C 305.8,174.3 306.0,173.9 304.6,173.5 z " id="21345096" fill="black"/>
      <path d="M 285.38371 164.05209 A 3.5364552 3.5364552 0 1 1  278.3,164.0 A 3.5364552 3.5364552 0 1 1  285.38371 164.05209 z" transform="matrix(0.702484,0,0,0.702484,83.85395,48.80805)" opacity="1" fill="none" fill-opacity="1" fill-rule="evenodd" stroke="black" stroke-width="0.486" stroke-linecap="round" stroke-linejoin="round" stroke-miterlimit="4" stroke-dasharray="none" stroke-dashoffset="0.99999998" stroke-opacity="1"/>
    </g>
  </g>
</svg>
