<?xml version="1.0" encoding="UTF-8" standalone="no"?>
<svg xmlns:svg="http://www.w3.org/2000/svg" xmlns="http://www.w3.org/2000/svg" xmlns:xlink="http://www.w3.org/1999/xlink" version="1.0" width="1280" height="640" viewBox="0 0 30240 15120" id="Flag of Australia">
  <rect width="30240" height="15120" x="0" y="0" fill="#002b7f"/>
  <g transform="scale(10.08,10.08)" id="Flag of the United Kingdom">
    <rect width="1500" height="750" x="0" y="0" fill="#002b7f"/>
    <g id="upper_half">
      <polygon points="0,0 167.7051,0 625,228.64745 625,0 675,0 750,325 0,300 0,250 332.2949,250 0,83.852549 0,0 " id="upper_left_white" fill="white"/>
      <use transform="matrix(-1,0,0,1,1500,0)" id="use2292" x="0" y="0" width="30240" height="15120" xlink:href="#upper_left_white"/>
      <path d="M 0,0 L 500,250 L 388.1966,250 L 0,55.901699 L 0,0 z M 1500,0 L 1000,250 L 888.1966,250 L 1388.1966,0 L 1500,0 z " id="upper_red_diagonals" fill="#ce1126"/>
    </g>
    <use transform="matrix(-1,0,0,-1,1500,750)" id="use2295" x="0" y="0" width="30240" height="15120" xlink:href="#upper_half"/>
    <path d="M 675,0 L 825,0 L 825,300 L 1500,300 L 1500,450 L 825,450 L 825,750 L 675,750 L 675,450 L 0,450 L 0,300 L 675,300 L 675,0 z " fill="#ce1126"/>
  </g>
  <defs id="defs2299">
    <polygon points="0,-9 1.735535,-3.6038755 7.0364833,-5.6114082 3.8997116,-0.89008374 8.774,2.002 3.127,2.493 3.904,8.108 0,4 -3.9049537,8.1087198 -3.1273259,2.4939592 -8.7743512,2.0026884 -3.8997116,-0.89008374 -7.0364833,-5.6114082 -1.735535,-3.6038755 0,-9 " id="7star"/>
    <polygon points="0,-9 2.351141,-3.236068 8.5595086,-2.7811529 3.804,1.236 5.290,7.281 0,4 -5.2900673,7.2811529 -3.8042261,1.236068 -8.5595086,-2.7811529 -2.351141,-3.236068 0,-9 " id="5star"/>
  </defs>
  <g fill="white">
    <use transform="matrix(252,0,0,252,7560,11340)" id="Commonwealth star" x="0" y="0" width="30240" height="15120" xlink:href="#7star"/>
    <use transform="matrix(120,0,0,120,22680,12600)" id="Alpha crucis" x="0" y="0" width="30240" height="15120" xlink:href="#7star"/>
    <use transform="matrix(120,0,0,120,18900,6615)" id="Beta crucis" x="0" y="0" width="30240" height="15120" xlink:href="#7star"/>
    <use transform="matrix(120,0,0,120,22680,2520)" id="Gamma crucis" x="0" y="0" width="30240" height="15120" xlink:href="#7star"/>
    <use transform="matrix(120,0,0,120,26040,5607)" id="Delta crucis" x="0" y="0" width="30240" height="15120" xlink:href="#7star"/>
    <use transform="matrix(70,0,0,70,24192,8190)" id="Epsilon crucis" x="0" y="0" width="30240" height="15120" xlink:href="#5star"/>
  </g>
</svg>
