<?xml version="1.0" encoding="UTF-8" standalone="no"?>
<svg
   xmlns:svg="http://www.w3.org/2000/svg"
   xmlns="http://www.w3.org/2000/svg"
   xmlns:xlink="http://www.w3.org/1999/xlink"
   version="1.0"
   width="896"
   height="448"
   viewBox="0 0 448 224">
   
<rect width="448" height="224" fill="#fff" id="white_background"/>
<path d="M0,8 h448 m -448,32 h448 m -448,32 h448 m -448,32 h448 m -448,32 h448 m -448,32 h448 m -448,32 h448"
      stroke="#ce1126" stroke-width="16" id="red_stripes"/>
<rect width="224" height="128" fill="#002b7f" id="blue_canton"/>

<circle cx="92" cy="64" r="48" fill="#fcd116" id="outer_circle"/>
<circle cx="102" cy="64" r="42" fill="#002b7f" id="inner_circle"/>

 <g id="star" fill="#FCD116" transform="translate(140,64) scale(40)">
  <g id="cone">
    <polygon id="triangle" points="0,0 0,1 .286,1" transform="translate(0,-1) rotate(7.75)"/>
    <use xlink:href="#triangle" transform="scale(-1,1)"/>
  </g>
  <use xlink:href="#cone" transform="rotate(25.7142857)"/>
  <use xlink:href="#cone" transform="rotate(-25.7142857)"/>
  <use xlink:href="#cone" transform="rotate(51.4285714)"/>
  <use xlink:href="#cone" transform="rotate(-51.4285714)"/>
  <use xlink:href="#cone" transform="rotate(77.1428571)"/>
  <use xlink:href="#cone" transform="rotate(-77.1428571)"/>
  <use xlink:href="#cone" transform="rotate(102.857143)"/>
  <use xlink:href="#cone" transform="rotate(-102.857143)"/>
  <use xlink:href="#cone" transform="rotate(128.571429)"/>
  <use xlink:href="#cone" transform="rotate(-128.571429)"/>
  <use xlink:href="#cone" transform="rotate(154.285714)"/>
  <use xlink:href="#cone" transform="rotate(-154.285714)"/>
  <use xlink:href="#cone" transform="rotate(180)"/>
 </g>
</svg>