<?xml version="1.0" standalone="yes"?>
<!DOCTYPE svg PUBLIC "-//W3C//DTD SVG 1.1//EN" "http://www.w3.org/Graphics/SVG/1.1/DTD/svg11.dtd">
<svg xmlns="http://www.w3.org/2000/svg" xmlns:xlink="http://www.w3.org/1999/xlink" version="1.1"
    width="1280" height="640" viewBox="0,0 30240,15120" id="Flag of Australia">
<rect width="100%" height="100%" fill="#002b7f" />

<g id="Flag of the United Kingdom" transform="scale(10.08)">
<rect width="1500" height="750" fill="#002b7f" />
<g id="upper_half">
  <polygon fill="white" id="upper_left_white" points="0,0
	167.705098312484227230688025154845717658046377,0
	625,228.647450843757886384655987422577141170976812
	625,0
	675,0
	750,325
	0,300
	0,250
	332.294901687515772769311974845154282341953623,250
	0,83.852549156242113615344012577422858829023188" />
  <use xlink:href="#upper_left_white" transform="translate(1500) scale(-1,1)" />
  <path fill="#ce1126" id="upper_red_diagonals" d="M 0,0
	l 500,250
	h -111.803398874989484820458683436563811772030918
	L 0,55.901699437494742410229341718281905886015459 z
	M 1500,0
	l -500,250
	h -111.803398874989484820458683436563811772030918
	L 1388.196601125010515179541316563436188227969082,0 z" />
</g>
<use xlink:href="#upper_half" transform="translate(1500,750) scale(-1)" />
<path fill="#ce1126" d="M 675,0 h 150 v 300 h 675 v 150 h -675 v 300 h -150 v -300 h -675 v -150 h 675 z" />
</g>

<defs>
	<!-- 7star and 5star have radius 9, centered at the origin -->
  <polygon id="7star" points="0, -9
	1.735534956470232481903073331393435018439963, -3.603875471609676504944409278029780204663677
	7.036483342212268278376000740066519752091011, -5.611408216728601774725043956038158295690473
	3.899711648727294428072526731975724868931143, -.890083735825257617155610257987179037865422
	8.774351209636412463163185146945380955095072, 2.002688405606829638600123080471152835197200
	3.127325929872119234833778106696231000929338, 2.493959207434934122100019536016959242529099
	3.904953652058023084281914995635228791489917, 8.108719811121772136124920875567005460493272
	0, 4
	-3.904953652058023084281914995635228791489917, 8.108719811121772136124920875567005460493272
	-3.127325929872119234833778106696231000929338, 2.493959207434934122100019536016959242529099
	-8.774351209636412463163185146945380955095072, 2.002688405606829638600123080471152835197200
	-3.899711648727294428072526731975724868931143, -.890083735825257617155610257987179037865422
	-7.036483342212268278376000740066519752091011, -5.611408216728601774725043956038158295690473
	-1.735534956470232481903073331393435018439963, -3.603875471609676504944409278029780204663677" />
  <polygon id="5star" points="0, -9
	2.351141009169892516674823818556291074390610, -3.236067977499789696409173668731276235440618
	8.559508646656382149047954000414439290651288, -2.781152949374526816920640754645371529741391
	3.804226065180614288465757333517528573622795, 1.236067977499789696409173668731276235440618
	5.290067270632258162518353591751654917378872, 7.281152949374526816920640754645371529741391
	0, 4
	-5.290067270632258162518353591751654917378872, 7.281152949374526816920640754645371529741391
	-3.804226065180614288465757333517528573622795, 1.236067977499789696409173668731276235440618
	-8.559508646656382149047954000414439290651288, -2.781152949374526816920640754645371529741391
	-2.351141009169892516674823818556291074390610, -3.236067977499789696409173668731276235440618" />
</defs>

<g fill="white">
  <use xlink:href="#7star" id="Commonwealth star" transform="translate(7560, 11340) scale(252)" />
  <use xlink:href="#7star" id="Alpha crucis" transform="translate(22680, 12600) scale(120)" />
  <use xlink:href="#7star" id="Beta crucis" transform="translate(18900, 6615) scale(120)" />
  <use xlink:href="#7star" id="Gamma crucis" transform="translate(22680, 2520) scale(120)" />
  <use xlink:href="#7star" id="Delta crucis" transform="translate(26040, 5607) scale(120)" />
  <use xlink:href="#5star" id="Epsilon crucis" transform="translate(24192,8190) scale(70)" />
</g>
</svg>
