<?xml version="1.0" encoding="UTF-8" standalone="no"?>
<svg xmlns:svg="http://www.w3.org/2000/svg" xmlns="http://www.w3.org/2000/svg" xmlns:xlink="http://www.w3.org/1999/xlink" version="1.0" width="1200" height="600" id="svg1579">
  <defs id="defs1594"/>
  <rect width="1200" height="399.99902" x="-9.5072937e-005" y="0" fill="#ed1c24"/>
  <rect width="1200" height="199.99966" x="-9.5072937e-005" y="400.00034" fill="#00a651"/>
  <rect width="133.33359" height="599.99805" x="0.00025275443" y="0.00091552734" fill="#ffffff"/>
  <g transform="matrix(1.47058,0,0,-1.382478,-248.13,427.2197)">
    <path d="M 196.06308,-18.978121 L 196.06308,-8.9781309 L 192.06307,-8.9781309 L 192.0,1.021 L 188.0,1.021 L 188.0,11.02 L 184.0,11.02 L 184.0,19.02 L 184.0,21.02 L 180.0,21.02 L 180.0,31.02 L 184.0,31.02 L 184.0,41.02 L 188.0,41.02 L 188.0,51.02 L 192.0,51.02 L 192.0,61.02 L 196.0,61.02 L 196.0,51.02 L 200.0,51.02 L 200.0,41.02 L 204.0,41.02 L 204.0,31.02 L 200.0,31.02 L 200.0,19.02 L 204.0,19.02 L 204.0,21.02 L 204.0,27.02 L 208.0,27.02 L 208.0,43.02 L 210.0,43.02 L 210.0,52.92 L 204.0,53.02 L 204.0,61.02 L 200.0,61.02 L 200.0,67.02 L 196.0,67.02 L 196.0,77.02 L 192.0,77.02 L 192.0,67.02 L 188.0,67.02 L 188.0,61.02 L 184.0,61.02 L 184.0,55.02 L 180.0,55.02 L 180.0,73.02 L 184.0,73.02 L 184.0,81.02 L 188.0,81.02 L 188.0,88.02 L 192.0,88.02 L 192.0,92.08 L 196.0,92.11 L 196.0,88.02 L 200.0,88.02 L 200.0,81.02 L 204.0,81.02 L 204.0,73.02 L 210.0,73.02 L 210.0,63.61 L 212.0,63.61 L 212.0,59.02 L 214.0,59.02 L 216.0,59.02 L 216.0,63.52 L 218.0,63.52 L 218.0,73.02 L 224.0,73.02 L 224.0,77.02 L 224.0,81.02 L 228.0,81.02 L 228.0,88.02 L 232.0,88.02 L 232.0,92.08 L 236.0,92.08 L 236.0,88.02 L 240.0,88.02 L 240.0,81.02 L 244.0,81.02 L 244.0,73.02 L 248.0,73.02 L 248.0,55.02 L 244.0,55.02 L 244.0,61.02 L 240.0,61.02 L 240.0,67.02 L 236.0,67.02 L 236.0,77.02 L 232.0,77.02 L 232.0,67.02 L 228.0,67.02 L 228.0,61.02 L 224.0,61.02 L 224.0,53.02 L 222.0,53.02 L 220.5,53.02 L 219.5,53.02 L 218.0,53.02 L 218.0,43.02 L 219.5,43.02 L 220.0,43.02 L 220.0,27.02 L 224.0,27.02 L 224.0,21.02 L 224.0,19.02 L 228.0,19.02 L 228.0,21.02 L 228.0,31.02 L 224.0,31.02 L 224.0,41.02 L 228.0,41.02 L 228.0,51.02 L 232.0,51.02 L 232.0,61.02 L 236.0,61.02 L 236.0,51.02 L 240.0,51.02 L 240.0,41.02 L 244.0,41.02 L 244.0,31.02 L 248.0,31.02 L 248.0,21.02 L 244.0,21.02 L 244.0,11.02 L 240.0,11.02 L 240.0,1.021 L 236.0,1.021 L 236.06324,-8.9781309 L 232.06323,-8.9781309 L 232.06323,-18.978121 L 228.06321,-18.978121 L 228.06321,-8.9781309 L 224.0632,-8.9781309 L 224.0,1.021 L 220.0,1.021 L 220.0,11.02 L 216.0,11.02 L 216.0,19.02 L 216.0,21.02 L 212.0,21.02 L 212.0,11.02 L 208.0,11.02 L 208.0,1.021 L 204.0,1.021 L 204.06312,-8.9781309 L 200.0631,-8.9781309 L 200.0631,-18.978121 L 196.06308,-18.978121 z " fill="#ed1c24" fill-opacity="1"/>
    <rect width="4.0000162" height="6.0383167" x="180.06302" y="86.021774" fill="#ed1c24" fill-opacity="1"/>
    <rect width="4.0000162" height="11.999988" x="180.06302" y="-116.97802" fill="#ed1c24" fill-opacity="1"/>
    <rect width="4.0000162" height="11.999988" x="244.06328" y="-116.97802" fill="#ed1c24" fill-opacity="1"/>
    <rect width="4.0000162" height="11.999988" x="212.06316" y="-116.97802" fill="#ed1c24" fill-opacity="1"/>
    <rect width="4.0000162" height="9.9999905" x="196.06308" y="-84.97805" fill="#ed1c24" fill-opacity="1"/>
    <rect width="4.0000162" height="9.9999905" x="228.06322" y="-84.97805" fill="#ed1c24" fill-opacity="1"/>
    <rect width="4.0000162" height="11.999988" x="180.06302" y="-58.978081" fill="#ed1c24" fill-opacity="1"/>
    <rect width="4.0000162" height="11.999988" x="244.06328" y="-58.978081" fill="#ed1c24" fill-opacity="1"/>
    <rect width="4.0000162" height="11.999988" x="212.06316" y="-58.978081" fill="#ed1c24" fill-opacity="1"/>
    <path d="M 196.06308,-124.97801 L 196.06308,-114.97802 L 192.06307,-114.97802 L 192.06307,-104.97803 L 188.06305,-104.97803 L 188.06305,-94.978044 L 184.06304,-94.978044 L 184.06304,-84.978054 L 180.06302,-84.978054 L 180.06302,-74.978064 L 184.06304,-74.978064 L 184.06304,-64.978074 L 188.06305,-64.978074 L 188.06305,-54.978084 L 192.06307,-54.978084 L 192.06307,-44.978094 L 196.06308,-44.978094 L 196.06308,-34.978104 L 200.0631,-34.978104 L 200.0631,-44.978094 L 204.06312,-44.978094 L 204.06312,-54.978084 L 208.06313,-54.978084 L 208.06313,-64.978074 L 212.06315,-64.978074 L 212.06315,-74.978064 L 216.06316,-74.978064 L 216.06316,-64.978074 L 220.06318,-64.978074 L 220.06318,-54.978084 L 224.0632,-54.978084 L 224.0632,-44.978094 L 228.06321,-44.978094 L 228.06321,-34.978104 L 232.06323,-34.978104 L 232.06323,-44.978094 L 236.06324,-44.978094 L 236.06324,-54.978084 L 240.06326,-54.978084 L 240.06326,-64.978074 L 244.06328,-64.978074 L 244.06328,-74.978064 L 248.06329,-74.978064 L 248.06329,-84.978054 L 244.06328,-84.978054 L 244.06328,-94.978044 L 240.06326,-94.978044 L 240.06326,-104.97803 L 236.06324,-104.97803 L 236.06324,-114.97802 L 232.06323,-114.97802 L 232.06323,-124.97801 L 228.06321,-124.97801 L 228.06321,-114.97802 L 224.0632,-114.97802 L 224.0632,-104.97803 L 220.06318,-104.97803 L 220.06318,-94.978044 L 216.06316,-94.978044 L 216.06316,-84.978054 L 212.06315,-84.978054 L 212.06315,-94.978044 L 208.06313,-94.978044 L 208.06313,-104.97803 L 204.06312,-104.97803 L 204.06312,-114.97802 L 200.0631,-114.97802 L 200.0631,-124.97801 L 196.06308,-124.97801 z M 196.06308,-104.97803 L 200.0631,-104.97803 L 200.0631,-94.978044 L 204.06312,-94.978044 L 204.06312,-84.978054 L 208.06313,-84.978054 L 208.06313,-74.978064 L 204.06312,-74.978064 L 204.06312,-64.978074 L 200.0631,-64.978074 L 200.0631,-54.978084 L 196.06308,-54.978084 L 196.06308,-64.978074 L 192.06307,-64.978074 L 192.06307,-74.978064 L 188.06305,-74.978064 L 188.06305,-84.978054 L 192.06307,-84.978054 L 192.06307,-94.978044 L 196.06308,-94.978044 L 196.06308,-104.97803 z M 228.06321,-104.97803 L 232.06323,-104.97803 L 232.06323,-94.978044 L 236.06324,-94.978044 L 236.06324,-84.978054 L 240.06326,-84.978054 L 240.06326,-74.978064 L 236.06324,-74.978064 L 236.06324,-64.978074 L 232.06323,-64.978074 L 232.06323,-54.978084 L 228.06321,-54.978084 L 228.06321,-64.978074 L 224.0632,-64.978074 L 224.0632,-74.978064 L 220.06318,-74.978064 L 220.06318,-84.978054 L 224.0632,-84.978054 L 224.0632,-94.978044 L 228.06321,-94.978044 L 228.06321,-104.97803 z " fill="#ed1c24" fill-opacity="1"/>
    <path d="M 184.06304,-42.978096 L 184.06304,-36.978102 L 182.06303,-36.978102 L 182.06303,-30.978108 L 180.06302,-30.978108 L 180.06302,-22.978111 L 182.06303,-22.978111 L 182.06303,-16.978121 L 184.06304,-16.978121 L 184.06304,-10.978131 L 190.06306,-10.978131 L 190.06306,-16.978121 L 192.06307,-16.978121 L 192.06307,-22.978111 L 194.06308,-22.978111 L 194.06308,-30.978108 L 192.06307,-30.978108 L 192.06307,-36.978102 L 190.06306,-36.978102 L 190.06306,-42.978096 L 184.06304,-42.978096 z M 186.06304,-32.978106 L 188.06305,-32.978106 L 188.06305,-28.97811 L 190.06306,-28.97811 L 190.06306,-24.978111 L 188.06305,-24.978111 L 188.06305,-20.978121 L 186.06304,-20.978121 L 186.06304,-24.978111 L 184.06304,-24.978111 L 184.06304,-28.97811 L 186.06304,-28.97811 L 186.06304,-32.978106 z " fill="#ed1c24" fill-opacity="1"/>
    <path d="M 206.06312,-42.978096 L 206.06312,-36.978102 L 204.06312,-36.978102 L 204.06312,-30.978108 L 202.06311,-30.978108 L 202.06311,-22.978111 L 204.06312,-22.978111 L 204.06312,-16.978121 L 206.06312,-16.978121 L 206.06312,-10.978131 L 212.06315,-10.978131 L 212.06315,-16.978121 L 216.06316,-16.978121 L 216.06316,-10.978131 L 222.06319,-10.978131 L 222.06319,-16.978121 L 224.0632,-16.978121 L 224.0632,-22.978111 L 226.0632,-22.978111 L 226.0632,-30.978108 L 224.0632,-30.978108 L 224.0632,-36.978102 L 222.06319,-36.978102 L 222.06319,-42.978096 L 216.06316,-42.978096 L 216.06316,-36.978102 L 212.06315,-36.978102 L 212.06315,-42.978096 L 206.06312,-42.978096 z M 208.06313,-32.978106 L 210.06314,-32.978106 L 210.06314,-28.97811 L 212.06315,-28.97811 L 212.06315,-24.978111 L 210.06314,-24.978111 L 210.06314,-20.978121 L 208.06313,-20.978121 L 208.06313,-24.978111 L 206.06312,-24.978111 L 206.06312,-28.97811 L 208.06313,-28.97811 L 208.06313,-32.978106 z M 218.06317,-32.978106 L 220.06318,-32.978106 L 220.06318,-28.97811 L 222.06319,-28.97811 L 222.06319,-24.978111 L 220.06318,-24.978111 L 220.06318,-20.978121 L 218.06317,-20.978121 L 218.06317,-24.978111 L 216.06316,-24.978111 L 216.06316,-28.97811 L 218.06317,-28.97811 L 218.06317,-32.978106 z " fill="#ed1c24" fill-opacity="1"/>
    <rect width="4.0000162" height="11.999988" x="244.06328" y="-6.9781327" fill="#ed1c24" fill-opacity="1"/>
    <rect width="4.0000162" height="11.999988" x="212.06316" y="-6.9781327" fill="#ed1c24" fill-opacity="1"/>
    <rect width="4.0000162" height="11.999988" x="180.06302" y="-6.9781327" fill="#ed1c24" fill-opacity="1"/>
    <rect width="4.0000162" height="7.9999919" x="180.06302" y="43.02182" fill="#ed1c24" fill-opacity="1"/>
    <rect width="4.0000162" height="7.9999919" x="244.06328" y="43.02182" fill="#ed1c24" fill-opacity="1"/>
    <rect width="4.0000162" height="9.9999905" x="212.06316" y="71.02179" fill="#ed1c24" fill-opacity="1"/>
    <rect width="4.0000162" height="6.051744" x="244.06328" y="86.021774" fill="#ed1c24" fill-opacity="1"/>
    <rect width="4.0000162" height="6.051744" x="222.06319" y="86.021774" fill="#ed1c24" fill-opacity="1"/>
    <rect width="4.0000162" height="6.051744" x="202.06311" y="86.021774" fill="#ed1c24" fill-opacity="1"/>
    <path d="M 206.0,79.02 L 206.0,85.02 L 208.0,85.02 L 208.0,88.02 L 210.0,88.02 L 210.0,92.08 L 218.0,92.08 L 218.0,88.02 L 220.0,88.02 L 220.0,85.02 L 222.0,85.02 L 222.0,79.02 L 218.0,79.02 L 218.0,83.02 L 216.0,83.02 L 216.0,86.02 L 212.0,86.02 L 212.0,83.02 L 210.0,83.02 L 210.0,79.02 L 206.0,79.02 z " fill="#ed1c24" fill-opacity="1"/>
    <rect width="4.0000162" height="9.9999905" x="212.06316" y="71.02179" fill="#ed1c24" fill-opacity="1"/>
    <use transform="translate(53.94997,-4.478992e-2)" id="use3731" x="0" y="0" width="868" height="434" xlink:href="#rect2094" fill="#ed1c24" fill-opacity="1"/>
  </g>
  <use transform="matrix(1,0,0,-0.999569,6.870044e-7,599.7408)" id="use2632" x="0" y="0" width="868" height="434" xlink:href="#g2605"/>
</svg>
