<?xml version="1.0" encoding="UTF-8" standalone="no"?>
<!DOCTYPE svg PUBLIC "-//W3C//DTD SVG 1.1//EN" "http://www.w3.org/Graphics/SVG/1.1/DTD/svg11.dtd">
<svg xmlns="http://www.w3.org/2000/svg" xmlns:xlink="http://www.w3.org/1999/xlink" version="1.1" width="570" height="300" viewBox="0 0 209 110">
<desc>Flag of Liberia</desc>
	<path id="red_stripes" fill="#ce1126" d="M 50,0 h159 v10 l-5,5 l5,5 v10 l-5,5 l5,5 v10 l-5,5 l5,5 v10 l-5,5 l5,5 v10 l-5,5 l5,5 v10 h-209 v-10 l5,-5 l-5,-5 v-10 l5,-5 l-5,-5 v-10 z"/>
	<path id="white_stripes" fill="#ffffff" d="M 50,10 h159 v10 h-169 v10 h169 v10 h-169 l10,10 h159 v10 h-209 v-10 z M 0,70 h209 v10 h-209 z M 0,90 h209 v10 h-209 z"/>
	<rect id="blue_field" fill="#00337f" height="50" width="50"/>
 <g id="white_star" fill="#ffffff" transform="translate(25,25) scale(15)">
    <g id="cone">
	<path id="triangle" d="M 0,0 v 1 h 0.6 z" transform="translate(0,-1) rotate(18)"/>
	<use xlink:href="#triangle" transform="scale(-1,1)"/>
    </g>
	<use xlink:href="#cone" transform="rotate(72)"/>
	<use xlink:href="#cone" transform="rotate(144)"/>
	<use xlink:href="#cone" transform="rotate(216)"/>
	<use xlink:href="#cone" transform="rotate(288)"/>
 </g>
</svg>
