<?xml version="1.0" encoding="UTF-8" standalone="no"?>
<svg xmlns="http://www.w3.org/2000/svg" xmlns:xlink="http://www.w3.org/1999/xlink" version="1.0" x="0.0000000" y="0.0000000" width="500.00000" height="300.00000" id="svg1022">
  <defs id="defs1024"/>
  
  <g transform="matrix(0.800000,0.000000,0.000000,0.800000,-100.0000,-241.8897)">
    <rect width="625.00000" height="375.00000" x="125.00000" y="302.36218" fill="#ce1126" fill-opacity="1.0000000" fill-rule="evenodd" stroke="none" stroke-width="1.000pt" stroke-linecap="butt" stroke-linejoin="miter" stroke-opacity="1.0000000"/>
    <rect width="520.00000" height="270.00000" x="177.50000" y="354.86218" fill="#007a5e" fill-opacity="1.0000000" fill-rule="evenodd" stroke="none" stroke-width="1.000pt" stroke-linecap="butt" stroke-linejoin="miter" stroke-opacity="1.0000000"/>
    <path d="M 177.5,624.8 L 437.5,489.8 L 697.5,624.8 L 177.5,624.8 z " fill="#fcd116" fill-opacity="1.0000000" fill-rule="evenodd" stroke="none" stroke-width="1.000pt" stroke-linecap="butt" stroke-linejoin="miter" stroke-opacity="1.0000000"/>
    <path d="M 177.5,354.8 L 437.5,489.8 L 697.5,354.8 L 177.5,354.8 z " fill="#fcd116" fill-opacity="1.0000000" fill-rule="evenodd" stroke="none" stroke-width="1.000pt" stroke-linecap="butt" stroke-linejoin="miter" stroke-opacity="1.0000000"/>
    <path d="M 387.50000 197.36218 A 62.500000 50.000000 0 1 0 262.5,197.3 A 62.500000 50.000000 0 1 0 387.50000 197.36218 z" transform="matrix(0.720000,0.000000,0.000000,0.900000,203.5000,312.2362)" fill="#ce1126" fill-opacity="1.0000000" fill-rule="evenodd" stroke="none" stroke-width="1.000pt" stroke-linecap="butt" stroke-linejoin="miter" stroke-opacity="1.0000000"/>
    <path d="M 399.5,485.8 L 429.4,485.8 L 438.7,457.3 L 448.0,485.8 L 477.9,485.8 L 453.7,503.4 L 462.9,531.9 L 438.7,514.3 L 414.5,531.9 L 423.7,503.4 L 399.5,485.8 z " transform="translate(-1.250000,-8.750016)" fill="#fcd116" fill-opacity="1.0000000" fill-rule="evenodd" stroke="none" stroke-width="1.000pt" stroke-linecap="butt" stroke-linejoin="miter" stroke-opacity="1.0000000"/>
    <path d="M 330.2,747.4 L 347.9,747.4 L 353.3,730.6 L 358.8,747.4 L 376.5,747.4 L 362.2,757.8 L 367.7,774.7 L 353.3,764.3 L 339.0,774.7 L 344.5,757.8 L 330.2,747.4 z " transform="translate(-40.88640,-426.3829)" fill="#fcd116" fill-opacity="1.0000000" fill-rule="evenodd" stroke="none" stroke-width="1.000pt" stroke-linecap="butt" stroke-linejoin="miter" stroke-opacity="1.0000000"/>
    <path d="M 330.2,747.4 L 347.9,747.4 L 353.3,730.6 L 358.8,747.4 L 376.5,747.4 L 362.2,757.8 L 367.7,774.7 L 353.3,764.3 L 339.0,774.7 L 344.5,757.8 L 330.2,747.4 z " transform="translate(84.11360,-426.3829)" fill="#fcd116" fill-opacity="1.0000000" fill-rule="evenodd" stroke="none" stroke-width="1.000pt" stroke-linecap="butt" stroke-linejoin="miter" stroke-opacity="1.0000000"/>
    <path d="M 330.2,747.4 L 347.9,747.4 L 353.3,730.6 L 358.8,747.4 L 376.5,747.4 L 362.2,757.8 L 367.7,774.7 L 353.3,764.3 L 339.0,774.7 L 344.5,757.8 L 330.2,747.4 z " transform="translate(209.1136,-426.3829)" fill="#fcd116" fill-opacity="1.0000000" fill-rule="evenodd" stroke="none" stroke-width="1.000pt" stroke-linecap="butt" stroke-linejoin="miter" stroke-opacity="1.0000000"/>
    <path d="M 330.2,747.4 L 347.9,747.4 L 353.3,730.6 L 358.8,747.4 L 376.5,747.4 L 362.2,757.8 L 367.7,774.7 L 353.3,764.3 L 339.0,774.7 L 344.5,757.8 L 330.2,747.4 z " transform="translate(-40.88640,-103.8829)" fill="#fcd116" fill-opacity="1.0000000" fill-rule="evenodd" stroke="none" stroke-width="1.000pt" stroke-linecap="butt" stroke-linejoin="miter" stroke-opacity="1.0000000"/>
    <path d="M 330.2,747.4 L 347.9,747.4 L 353.3,730.6 L 358.8,747.4 L 376.5,747.4 L 362.2,757.8 L 367.7,774.7 L 353.3,764.3 L 339.0,774.7 L 344.5,757.8 L 330.2,747.4 z " transform="translate(84.11360,-103.8829)" fill="#fcd116" fill-opacity="1.0000000" fill-rule="evenodd" stroke="none" stroke-width="1.000pt" stroke-linecap="butt" stroke-linejoin="miter" stroke-opacity="1.0000000"/>
    <path d="M 330.2,747.4 L 347.9,747.4 L 353.3,730.6 L 358.8,747.4 L 376.5,747.4 L 362.2,757.8 L 367.7,774.7 L 353.3,764.3 L 339.0,774.7 L 344.5,757.8 L 330.2,747.4 z " transform="translate(209.1136,-103.8829)" fill="#fcd116" fill-opacity="1.0000000" fill-rule="evenodd" stroke="none" stroke-width="1.000pt" stroke-linecap="butt" stroke-linejoin="miter" stroke-opacity="1.0000000"/>
    <path d="M 209.6,490.3 C 215.3,500.8 226.2,512.2 235.8,516.2 C 235.9,505.6 232.2,491.9 227.0,481.1 L 209.6,490.3 z " fill="#ce1126" fill-opacity="1.0000000" fill-rule="evenodd" stroke="none" stroke-width="1.000pt" stroke-linecap="butt" stroke-linejoin="miter" stroke-opacity="1.0000000"/>
    <path d="M 200.1,454.3 C 208.3,471.4 178.9,511.9 227.8,521.5 C 221.8,513.2 217.9,499.7 219.3,488.8 C 229.6,492.7 240.4,504.1 244.7,512.8 C 257.5,466.4 211.9,469.2 200.1,454.3 z " fill="#fcd116" fill-opacity="1.0000000" fill-rule="evenodd" stroke="none" stroke-width="1.000pt" stroke-linecap="butt" stroke-linejoin="miter" stroke-opacity="1.0000000"/>
  </g>
</svg>
