<?xml version="1.0" encoding="UTF-8" standalone="no"?>
<svg xmlns="http://www.w3.org/2000/svg" xmlns:xlink="http://www.w3.org/1999/xlink" version="1.0" x="0.0000000" y="0.0000000" width="300.00000" height="365.70001" id="svg1">
  <defs id="defs3"/>
  <path d="M 92.72,959.6 L 952.9,959.6 L 422.5,429.3 L 987.3,429.3 L 92.725000,-130.92532 L 92.72,959.6 z " transform="matrix(0.335336,0.000000,0.000000,0.335332,-31.09403,43.90320)" fill="#003893" fill-opacity="1.0000000" fill-rule="evenodd" stroke="none" stroke-width="1.000pt" stroke-linecap="butt" stroke-linejoin="miter" stroke-opacity="1.0000000"/>
  <path d="M 125.0,927.3 L 875.0,927.3 L 125.0,177.3 L 125.0,927.3 z " transform="matrix(0.335336,0.000000,0.000000,0.335332,-31.09403,43.90320)" fill="#ce1126" fill-opacity="1.0000000" fill-rule="evenodd" stroke="none" stroke-width="1.000pt" stroke-linecap="butt" stroke-linejoin="miter" stroke-opacity="1.0000000"/>
  <path d="M 125.0,397.0 L 875.0,397.0 L 125.00000,-72.637817 L 125.0,397.0 z " transform="matrix(0.335336,0.000000,0.000000,0.335332,-31.09403,43.90320)" fill="#ce1126" fill-opacity="1.0000000" fill-rule="evenodd" stroke="none" stroke-width="1.000pt" stroke-linecap="butt" stroke-linejoin="miter" stroke-opacity="1.0000000"/>
  <path d="M 293.6,195.7 L 285.9,226.2 L 258.8,210.1 L 263.3,241.2 L 232.2,236.7 L 248.2,263.8 L 217.8,271.5 L 243.0,290.4 L 217.8,309.2 L 248.2,317.0 L 240.2,330.5 L 384.7,330.5 L 376.7,317.0 L 407.1,309.2 L 382.0,290.4 L 407.1,271.5 L 376.7,263.8 L 392.7,236.7 L 361.6,241.2 L 366.1,210.1 L 339.0,226.2 L 331.3,195.7 L 312.5,220.9 L 293.6,195.7 z " transform="matrix(0.335336,0.000000,0.000000,0.335332,-31.09403,43.90320)" fill="#ffffff" fill-opacity="1.0000000" fill-rule="evenodd" stroke="none" stroke-width="1.000pt" stroke-linecap="butt" stroke-linejoin="miter" stroke-opacity="1.0000000"/>
  <path d="M 163.1,220.5 C 163.1,220.6 163.1,220.8 163.1,220.9 C 163.1,303.3 230.0,370.2 312.5,370.2 C 394.9,370.2 461.8,303.3 461.8,220.9 C 461.8,220.8 461.8,220.6 461.8,220.5 C 438.4,280.3 380.4,322.6 312.5,322.6 C 244.5,322.6 186.5,280.3 163.1,220.5 z " transform="matrix(0.335336,0.000000,0.000000,0.335332,-31.09403,43.90320)" fill="#ffffff" fill-opacity="1.0000000" fill-rule="evenodd" stroke="none" stroke-width="1.000pt" stroke-linecap="butt" stroke-linejoin="miter" stroke-opacity="1.0000000"/>
  <path d="M -436.41595,485.80598 L -457.49155,436.06128 L -500.61595,468.60368 L -493.99565,414.98568 L -547.61365,421.60598 L -515.07125,378.48158 L -564.81595,357.40598 L -515.07125,336.33038 L -547.61365,293.20598 L -493.99565,299.82628 L -500.61595,246.20828 L -457.49155,278.75068 L -436.41595,229.00598 L -415.34035,278.75068 L -372.21595,246.20828 L -378.83625,299.82628 L -325.21825,293.20598 L -357.76065,336.33038 L -308.01595,357.40598 L -357.76065,378.48158 L -325.21825,421.60598 L -378.83625,414.98568 L -372.21595,468.60368 L -415.34035,436.06128 L -436.41595,485.80598 z " transform="matrix(0.419170,0.000000,0.000000,0.419165,256.6309,116.1479)" fill="#ffffff" fill-opacity="1.0000000" fill-rule="evenodd" stroke="none" stroke-width="1.000pt" stroke-linecap="butt" stroke-linejoin="miter" stroke-opacity="1.0000000"/>
</svg>
