<?xml version="1.0" encoding="UTF-8" standalone="no"?>
<svg
   xmlns:dc="http://purl.org/dc/elements/1.1/"
   xmlns:cc="http://web.resource.org/cc/"
   xmlns:rdf="http://www.w3.org/1999/02/22-rdf-syntax-ns#"
   xmlns:svg="http://www.w3.org/2000/svg"
   xmlns="http://www.w3.org/2000/svg"
   xmlns:sodipodi="http://inkscape.sourceforge.net/DTD/sodipodi-0.dtd"
   xmlns:inkscape="http://www.inkscape.org/namespaces/inkscape"
   width="900"
   height="450"
   id="svg1307"
   sodipodi:version="0.32"
   inkscape:version="0.43"
   sodipodi:docname="Flag_of_the_Philippines.svg"
   sodipodi:docbase="C:\Documents and Settings\David Nelson\Archives\Svg"
   version="1.0">
  <metadata
     id="metadata1328">
    <rdf:RDF>
      <cc:Work
         rdf:about="">
        <dc:format>image/svg+xml</dc:format>
        <dc:type
           rdf:resource="http://purl.org/dc/dcmitype/StillImage" />
      </cc:Work>
    </rdf:RDF>
  </metadata>
  <defs
     id="defs1326" />
  <sodipodi:namedview
     inkscape:window-height="540"
     inkscape:window-width="756"
     inkscape:pageshadow="2"
     inkscape:pageopacity="0.0"
     borderopacity="1.0"
     bordercolor="#666666"
     pagecolor="#ffffff"
     id="base"
     inkscape:zoom="0.73888889"
     inkscape:cx="450"
     inkscape:cy="225"
     inkscape:window-x="50"
     inkscape:window-y="137"
     inkscape:current-layer="svg1307" />
  <rect
     id="blue"
     width="900"
     height="225"
     x="0"
     y="0"
     style="fill:#0038a8" />
  <rect
     id="red"
     width="900"
     height="225"
     x="0"
     y="225"
     style="fill:#ce1126" />
  <path
     id="path279"
     d="M 391.6665,225.00039 L 0,450 L 0.00078479994,0 L 391.6665,225.00039 z "
     style="fill:#ffffff" />
  <path
     id="path205"
     d="M 18.354929,409.77833 L 22.302908,392.44386 L 6.7359012,383.84218 L 24.83058,381.58313 L 28.946934,364.27878 L 36.182112,380.21906 L 54.292199,378.12534 L 40.668882,390.23515 L 47.745745,406.24564 L 32.091783,397.79034 L 18.354929,409.77833 z "
     style="fill:#fcd116" />
  <path
     id="path433"
     d="M 320.3627,248.21615 L 310.05888,233.72815 L 293.27583,239.61456 L 303.63916,224.61049 L 293.46995,210.01693 L 310.18014,215.2332 L 320.6771,200.32771 L 320.64044,218.5552 L 337.2976,223.93633 L 320.56586,229.98507 L 320.3627,248.21615 z "
     style="fill:#fcd116" />
  <path
     id="path434"
     d="M 28.263202,86.363655 L 25.067993,68.87475 L 7.3717239,67.096245 L 23.115799,57.89595 L 20.087226,40.36845 L 33.013619,52.173075 L 48.836955,43.118715 L 41.081275,59.613945 L 53.889786,71.545455 L 36.171209,69.935715 L 28.263202,86.363655 z "
     style="fill:#fcd116" />
  <g
     id="g1330"
     transform="scale(1.5,1.5)">
    <path
       d="M 67.157602,124.06265 L 57.891121,108.15097 L 52.56223,107.54749 L 65.250409,125.56597 L 67.157602,124.06265 z M 59.96491,131.353 L 40.481564,116.36187 L 39.783601,107.63426 L 47.66247,107.368 L 63.769473,127.06701 L 59.96491,131.353 z M 57.006209,134.78105 L 40.971009,125.72999 L 40.295723,120.40972 L 58.483672,132.85375 L 57.006209,134.78105 z "
       id="path425"
       style="fill:#fcd116" />
    <path
       d="M 90.089402,120.79079 L 94.925886,103.02402 L 91.617068,98.803469 L 87.680085,120.48655 L 90.089402,120.79079 z M 79.848106,120.7806 L 76.860347,96.379598 L 82.589566,89.758841 L 88.307227,95.186171 L 85.571459,120.48446 L 79.848106,120.7806 z M 75.329563,121.07752 L 70.528424,103.30117 L 73.84563,99.08721 L 77.73948,120.77808 L 75.329563,121.07752 z "
       id="path426"
       style="fill:#fcd116" />
    <path
       d="M 108.66953,135.1155 L 124.81881,126.26965 L 125.56188,120.95843 L 107.21677,133.16953 L 108.66953,135.1155 z M 101.57039,127.73404 L 117.06748,108.6507 L 125.81038,108.18194 L 125.86985,116.06508 L 105.75509,131.64973 L 101.57039,127.73404 z M 98.221154,124.68643 L 107.68975,108.89422 L 113.0259,108.35874 L 100.10902,126.21394 L 98.221154,124.68643 z "
       id="path427"
       style="fill:#fcd116" />
    <path
       d="M 111.54251,157.38192 L 129.30674,162.22773 L 133.52903,158.92113 L 111.848,154.97276 L 111.54251,157.38192 z M 111.55807,147.14062 L 135.96065,144.16568 L 142.5784,149.89837 L 137.14807,155.61319 L 111.85121,152.86413 L 111.55807,147.14062 z M 111.26352,142.62192 L 129.0424,137.83011 L 133.25462,141.14954 L 111.5617,145.032 L 111.26352,142.62192 z "
       id="path428"
       style="fill:#fcd116" />
    <path
       d="M 98.015889,175.48437 L 107.35254,191.355 L 112.68405,191.93494 L 99.916429,173.97264 L 98.015889,175.48437 z M 105.17633,168.16232 L 124.72569,183.06731 L 125.46218,191.79176 L 117.58456,192.09281 L 101.39073,172.46507 L 105.17633,168.16232 z M 108.11987,164.72125 L 124.19489,173.70143 L 124.89366,179.01867 L 106.65093,166.65505 L 108.11987,164.72125 z "
       id="path429"
       style="fill:#fcd116" />
    <path
       d="M 75.170261,178.87528 L 70.456059,196.67489 L 73.793822,200.87259 L 77.581614,179.16294 L 75.170261,178.87528 z M 85.411388,178.81504 L 88.566865,203.19493 L 82.883306,209.85493 L 77.128459,204.46704 L 79.690206,179.15054 L 85.411388,178.81504 z M 89.927784,178.48706 L 94.851045,196.22998 L 91.562893,200.46665 L 87.519982,178.80306 L 89.927784,178.48706 z "
       id="path430"
       style="fill:#fcd116" />
    <path
       d="M 56.630016,164.91712 L 40.624962,174.02137 L 39.967347,179.34385 L 58.11387,166.8395 L 56.630016,164.91712 z M 63.846876,172.18355 L 48.658459,191.51349 L 39.92421,192.1227 L 39.73805,184.24153 L 59.599782,168.33561 L 63.846876,172.18355 z M 67.244663,175.17694 L 58.031071,191.11931 L 52.704214,191.74047 L 65.332488,173.67997 L 67.244663,175.17694 z "
       id="path431"
       style="fill:#fcd116" />
    <path
       d="M 53.464051,142.43899 L 35.665909,137.71937 L 31.467202,141.05584 L 53.175657,144.85025 L 53.464051,142.43899 z M 53.521166,152.68012 L 29.140359,155.82815 L 22.482107,150.14257 L 27.871739,144.38938 L 53.187417,146.95884 L 53.521166,152.68012 z M 53.847773,157.1966 L 36.10338,162.11445 L 31.86772,158.82501 L 53.532503,154.78871 L 53.847773,157.1966 z "
       id="path432"
       style="fill:#fcd116" />
    <circle
       id="circle1323"
       r="30.915501"
       cy="149.8075"
       cx="82.530502"
       sodipodi:cx="82.530502"
       sodipodi:cy="149.8075"
       sodipodi:rx="30.915501"
       sodipodi:ry="30.915501"
       style="fill:#fcd116" />
  </g>
</svg>
