<?xml version="1.0" encoding="UTF-8" standalone="no"?>
<!-- Created with Inkscape (http://www.inkscape.org/) -->
<svg
   xmlns:dc="http://purl.org/dc/elements/1.1/"
   xmlns:cc="http://web.resource.org/cc/"
   xmlns:rdf="http://www.w3.org/1999/02/22-rdf-syntax-ns#"
   xmlns:svg="http://www.w3.org/2000/svg"
   xmlns="http://www.w3.org/2000/svg"
   xmlns:sodipodi="http://inkscape.sourceforge.net/DTD/sodipodi-0.dtd"
   xmlns:inkscape="http://www.inkscape.org/namespaces/inkscape"
   width="1200"
   height="600"
   id="svg9226"
   sodipodi:version="0.32"
   inkscape:version="0.43"
   version="1.0"
   sodipodi:docbase="D:\Kuvat\Wikipedia"
   sodipodi:docname="Flag_of_Dominica.svg">
  <defs
     id="defs9228" />
  <sodipodi:namedview
     id="base"
     pagecolor="#ffffff"
     bordercolor="#666666"
     borderopacity="1.0"
     inkscape:pageopacity="0.0"
     inkscape:pageshadow="2"
     inkscape:zoom="0.99083333"
     inkscape:cx="600"
     inkscape:cy="299.99999"
     inkscape:document-units="px"
     inkscape:current-layer="layer1"
     showgrid="true"
     inkscape:window-width="1280"
     inkscape:window-height="968"
     inkscape:window-x="-4"
     inkscape:window-y="-4" />
  <metadata
     id="metadata9231">
    <rdf:RDF>
      <cc:Work
         rdf:about="">
        <dc:format>image/svg+xml</dc:format>
        <dc:type
           rdf:resource="http://purl.org/dc/dcmitype/StillImage" />
      </cc:Work>
    </rdf:RDF>
  </metadata>
  <g
     inkscape:label="Layer 1"
     inkscape:groupmode="layer"
     id="layer1">
    <rect
       style="fill:#009543;fill-opacity:1;stroke:none;stroke-opacity:1"
       id="rect10982"
       width="1200"
       height="600"
       x="0"
       y="0" />
    <rect
       style="fill:#ffffff;fill-opacity:1;stroke:none;stroke-opacity:1"
       id="rect10984"
       width="1200"
       height="50"
       x="0"
       y="325" />
    <rect
       style="fill:#000000;fill-opacity:1;stroke:none;stroke-opacity:1"
       id="rect11859"
       width="1200"
       height="50"
       x="0"
       y="275" />
    <rect
       style="fill:#ffce00;fill-opacity:1;stroke:none;stroke-opacity:1"
       id="rect12734"
       width="1200"
       height="50"
       x="0"
       y="225" />
    <rect
       style="fill:#ffce00;fill-opacity:1;stroke:none;stroke-opacity:1"
       id="rect13609"
       width="50"
       height="600"
       x="525"
       y="1.2934208e-005" />
    <rect
       style="fill:#000000;fill-opacity:1;stroke:none;stroke-opacity:1"
       id="rect13611"
       width="50"
       height="600"
       x="575"
       y="1.2934208e-005" />
    <rect
       style="fill:#ffffff;fill-opacity:1;stroke:none;stroke-opacity:1"
       id="rect14486"
       width="50"
       height="600"
       x="625"
       y="1.2934208e-005" />
    <path
       sodipodi:type="arc"
       style="fill:#ea0437;fill-opacity:1;stroke:none;stroke-opacity:1"
       id="path15361"
       sodipodi:cx="600.50464"
       sodipodi:cy="300.25232"
       sodipodi:rx="150.37846"
       sodipodi:ry="150.37846"
       d="M 750.8831 300.25232 A 150.37846 150.37846 0 1 1  450.12617,300.25232 A 150.37846 150.37846 0 1 1  750.8831 300.25232 z"
       transform="matrix(0.997483,0,0,0.997483,1.006676,0.503455)" />
    <path
       d="M 595.18996,181.59265 C 595.18996,181.37136 599.99995,167.87384 599.99995,167.87384 L 604.37264,181.37136 C 604.37264,181.37136 619.021,181.81394 619.021,181.59265 C 619.021,181.37136 607.43345,190.44366 607.43345,190.44366 C 607.43345,190.44366 612.89912,205.9328 612.68074,205.49022 C 612.46208,205.04764 599.99995,196.19663 599.99995,196.19663 C 599.99995,196.19663 587.31943,205.04764 587.53807,205.04764 C 587.75671,205.04764 592.3478,190.44366 592.3478,190.44366 L 580.979,181.81394 L 595.18996,181.59265 z "
       id="path601"
       style="font-size:12px;fill:#009543;fill-opacity:1;fill-rule:evenodd;stroke-width:1;stroke:#000000;stroke-opacity:1;stroke-miterlimit:4;stroke-dasharray:none" />
    <path
       d="M 604.81004,418.74918 C 604.81004,418.97047 600.00005,432.46799 600.00005,432.46799 L 595.62736,418.97047 C 595.62736,418.97047 580.979,418.52789 580.979,418.74918 C 580.979,418.97047 592.56655,409.89817 592.56655,409.89817 C 592.56655,409.89817 587.10088,394.40903 587.31926,394.85161 C 587.53792,395.29419 600.00005,404.1452 600.00005,404.1452 C 600.00005,404.1452 612.68057,395.29419 612.46193,395.29419 C 612.24329,395.29419 607.6522,409.89817 607.6522,409.89817 L 619.021,418.52789 L 604.81004,418.74918 z "
       id="path16237"
       style="font-size:12px;fill:#009543;fill-opacity:1;fill-rule:evenodd;stroke-width:1;stroke:#000000;stroke-opacity:1;stroke-miterlimit:4;stroke-dasharray:none" />
    <path
       d="M 669.71606,215.45816 C 669.71606,215.67945 664.90607,229.17697 664.90607,229.17697 L 660.53338,215.67945 C 660.53338,215.67945 645.88502,215.23687 645.88502,215.45816 C 645.88502,215.67945 657.47257,206.60715 657.47257,206.60715 C 657.47257,206.60715 652.0069,191.11801 652.22528,191.56059 C 652.44394,192.00317 664.90607,200.85418 664.90607,200.85418 C 664.90607,200.85418 677.58659,192.00317 677.36795,192.00317 C 677.14931,192.00317 672.55822,206.60715 672.55822,206.60715 L 683.92702,215.23687 L 669.71606,215.45816 z "
       id="path16244"
       style="font-size:12px;fill:#009543;fill-opacity:1;fill-rule:evenodd;stroke-width:1;stroke:#000000;stroke-opacity:1;stroke-miterlimit:4;stroke-dasharray:none" />
    <path
       d="M 711.81231,338.50867 C 711.81231,338.72996 707.00232,352.22748 707.00232,352.22748 L 702.62963,338.72996 C 702.62963,338.72996 687.98127,338.28738 687.98127,338.50867 C 687.98127,338.72996 699.56882,329.65766 699.56882,329.65766 C 699.56882,329.65766 694.10315,314.16852 694.32153,314.6111 C 694.54019,315.05368 707.00232,323.90469 707.00232,323.90469 C 707.00232,323.90469 719.68284,315.05368 719.4642,315.05368 C 719.24556,315.05368 714.65447,329.65766 714.65447,329.65766 L 726.02327,338.28738 L 711.81231,338.50867 z "
       id="path16246"
       style="font-size:12px;fill:#009543;fill-opacity:1;fill-rule:evenodd;stroke-width:1;stroke:#000000;stroke-opacity:1;stroke-miterlimit:4;stroke-dasharray:none" />
    <path
       d="M 497.78904,342.02509 C 497.78904,342.24638 492.97905,355.7439 492.97905,355.7439 L 488.60636,342.24638 C 488.60636,342.24638 473.958,341.8038 473.958,342.02509 C 473.958,342.24638 485.54555,333.17408 485.54555,333.17408 C 485.54555,333.17408 480.07988,317.68494 480.29826,318.12752 C 480.51692,318.5701 492.97905,327.42111 492.97905,327.42111 C 492.97905,327.42111 505.65957,318.5701 505.44093,318.5701 C 505.22229,318.5701 500.6312,333.17408 500.6312,333.17408 L 512,341.8038 L 497.78904,342.02509 z "
       id="path16248"
       style="font-size:12px;fill:#009543;fill-opacity:1;fill-rule:evenodd;stroke-width:1;stroke:#000000;stroke-opacity:1;stroke-miterlimit:4;stroke-dasharray:none" />
    <path
       d="M 295.97865,173.69348 C 295.97865,173.91477 291.16866,187.41229 291.16866,187.41229 L 286.79597,173.91477 C 286.79597,173.91477 272.14761,173.47219 272.14761,173.69348 C 272.14761,173.91477 283.73516,164.84247 283.73516,164.84247 C 283.73516,164.84247 278.26949,149.35333 278.48787,149.79591 C 278.70653,150.23849 291.16866,159.0895 291.16866,159.0895 C 291.16866,159.0895 303.84918,150.23849 303.63054,150.23849 C 303.4119,150.23849 298.82081,164.84247 298.82081,164.84247 L 310.18961,173.47219 L 295.97865,173.69348 z "
       id="path16250"
       style="font-size:12px;fill:#009543;fill-opacity:1;fill-rule:evenodd;stroke-width:1pt" />
    <path
       d="M 536.64606,216.89725 C 536.64606,217.11854 531.83607,230.61606 531.83607,230.61606 L 527.46338,217.11854 C 527.46338,217.11854 512.81502,216.67596 512.81502,216.89725 C 512.81502,217.11854 524.40257,208.04624 524.40257,208.04624 C 524.40257,208.04624 518.9369,192.5571 519.15528,192.99968 C 519.37394,193.44226 531.83607,202.29327 531.83607,202.29327 C 531.83607,202.29327 544.51659,193.44226 544.29795,193.44226 C 544.07931,193.44226 539.48822,208.04624 539.48822,208.04624 L 550.85702,216.67596 L 536.64606,216.89725 z "
       id="path16252"
       style="font-size:12px;fill:#009543;fill-opacity:1;fill-rule:evenodd;stroke-width:1;stroke:#000000;stroke-opacity:1;stroke-miterlimit:4;stroke-dasharray:none" />
    <path
       d="M 487.3174,261.86347 C 487.3174,261.64218 492.12739,248.14466 492.12739,248.14466 L 496.50008,261.64218 C 496.50008,261.64218 511.14844,262.08476 511.14844,261.86347 C 511.14844,261.64218 499.56089,270.71448 499.56089,270.71448 C 499.56089,270.71448 505.02656,286.20362 504.80818,285.76104 C 504.58952,285.31846 492.12739,276.46745 492.12739,276.46745 C 492.12739,276.46745 479.44687,285.31846 479.66551,285.31846 C 479.88415,285.31846 484.47524,270.71448 484.47524,270.71448 L 473.10644,262.08476 L 487.3174,261.86347 z "
       id="path16254"
       style="font-size:12px;fill:#009543;fill-opacity:1;fill-rule:evenodd;stroke-width:1;stroke:#000000;stroke-opacity:1;stroke-miterlimit:4;stroke-dasharray:none" />
    <path
       d="M 529.14168,384.68572 C 529.14168,384.46443 533.95167,370.96691 533.95167,370.96691 L 538.32436,384.46443 C 538.32436,384.46443 552.97272,384.90701 552.97272,384.68572 C 552.97272,384.46443 541.38517,393.53673 541.38517,393.53673 C 541.38517,393.53673 546.85084,409.02587 546.63246,408.58329 C 546.4138,408.14071 533.95167,399.2897 533.95167,399.2897 C 533.95167,399.2897 521.27115,408.14071 521.48979,408.14071 C 521.70843,408.14071 526.29952,393.53673 526.29952,393.53673 L 514.93072,384.90701 L 529.14168,384.68572 z "
       id="path16256"
       style="font-size:12px;fill:#009543;fill-opacity:1;fill-rule:evenodd;stroke-width:1;stroke:#000000;stroke-opacity:1;stroke-miterlimit:4;stroke-dasharray:none" />
    <path
       d="M 701.43052,258.58508 C 701.43052,258.36379 706.24051,244.86627 706.24051,244.86627 L 710.6132,258.36379 C 710.6132,258.36379 725.26156,258.80637 725.26156,258.58508 C 725.26156,258.36379 713.67401,267.43609 713.67401,267.43609 C 713.67401,267.43609 719.13968,282.92523 718.9213,282.48265 C 718.70264,282.04007 706.24051,273.18906 706.24051,273.18906 C 706.24051,273.18906 693.55999,282.04007 693.77863,282.04007 C 693.99727,282.04007 698.58836,267.43609 698.58836,267.43609 L 687.21956,258.80637 L 701.43052,258.58508 z "
       id="path16258"
       style="font-size:12px;fill:#009543;fill-opacity:1;fill-rule:evenodd;stroke-width:1;stroke:#000000;stroke-opacity:1;stroke-miterlimit:4;stroke-dasharray:none" />
    <path
       d="M 662.45045,383.52994 C 662.45045,383.30865 667.26044,369.81113 667.26044,369.81113 L 671.63313,383.30865 C 671.63313,383.30865 686.28149,383.75123 686.28149,383.52994 C 686.28149,383.30865 674.69394,392.38095 674.69394,392.38095 C 674.69394,392.38095 680.15961,407.87009 679.94123,407.42751 C 679.72257,406.98493 667.26044,398.13392 667.26044,398.13392 C 667.26044,398.13392 654.57992,406.98493 654.79856,406.98493 C 655.0172,406.98493 659.60829,392.38095 659.60829,392.38095 L 648.23949,383.75123 L 662.45045,383.52994 z "
       id="path16260"
       style="font-size:12px;fill:#009543;fill-opacity:1;fill-rule:evenodd;stroke-width:1;stroke:#000000;stroke-opacity:1;stroke-miterlimit:4;stroke-dasharray:none" />
    <rect
       y="267.31921"
       x="499.07614"
       width="0.71601367"
       style="font-size:12px;fill:#009543;fill-rule:evenodd;stroke-width:1pt"
       id="rect600"
       height="0" />
    <rect
       y="358.22455"
       x="628.20496"
       width="0.71601367"
       style="font-size:12px;fill:#009543;fill-rule:evenodd;stroke-width:1pt"
       id="rect628"
       height="0" />
    <rect
       y="502.50558"
       x="590.57172"
       width="0.71601367"
       style="font-size:12px;fill:#009543;fill-rule:evenodd;stroke-width:1pt"
       id="rect634"
       height="0" />
    <rect
       y="502.50558"
       x="410.0369"
       width="0.71601367"
       style="font-size:12px;fill:#009543;fill-rule:evenodd;stroke-width:1pt"
       id="rect640"
       height="0" />
    <rect
       y="354.50027"
       x="377.06885"
       width="0.71601367"
       style="font-size:12px;fill:#009543;fill-rule:evenodd;stroke-width:1pt"
       id="rect646"
       height="0" />
    <rect
       y="-86.095032"
       x="-772.57104"
       width="0.71601367"
       style="font-size:12px;fill:#009543;fill-rule:evenodd;stroke-width:1pt"
       id="rect652"
       height="0"
       transform="scale(-1,-1)" />
    <rect
       y="-227.08905"
       x="-824.4071"
       width="0.71601367"
       style="font-size:12px;fill:#009543;fill-rule:evenodd;stroke-width:1pt"
       id="rect599"
       height="0"
       transform="scale(-1,-1)" />
    <rect
       y="-330.24283"
       x="-695.85376"
       width="0.71601367"
       style="font-size:12px;fill:#009543;fill-rule:evenodd;stroke-width:1pt"
       id="rect607"
       height="0"
       transform="scale(-1,-1)" />
    <rect
       y="-227.08905"
       x="-575.07568"
       width="0.71601367"
       style="font-size:12px;fill:#009543;fill-rule:evenodd;stroke-width:1pt"
       id="rect613"
       height="0"
       transform="scale(-1,-1)" />
    <rect
       y="-88.168472"
       x="-619.65466"
       width="0.71601367"
       style="font-size:12px;fill:#009543;fill-rule:evenodd;stroke-width:1pt"
       id="rect619"
       height="0"
       transform="scale(-1,-1)" />
    <g
       id="g13518"
       transform="matrix(1.260717,0,0,1.260717,-31.14955,-15.98474)">
      <g
         id="g1112"
         transform="translate(7.403947,348.7255)"
         style="font-size:12px">
        <g
           id="g1014"
           transform="matrix(0.163503,-1.627543e-2,1.182242e-2,0.184363,429.835,-215.6278)">
          <ellipse
             cx="680.20569"
             cy="586.12573"
             id="path1011"
             rx="30.804932"
             ry="189.82486"
             style="fill:#009543;fill-rule:evenodd;stroke:#000000;stroke-width:2.5"
             transform="matrix(1.405124,-5.812161e-3,8.166948e-3,0.999983,-534.2869,263.7234)"
             sodipodi:cx="680.20569"
             sodipodi:cy="586.12573"
             sodipodi:rx="30.804932"
             sodipodi:ry="189.82486" />
          <ellipse
             cx="680.20569"
             cy="586.12573"
             id="path1012"
             rx="30.804932"
             ry="189.82486"
             style="fill:#009543;fill-rule:evenodd;stroke:#000000;stroke-width:2.5"
             transform="matrix(1.486152,-5.812161e-3,8.637901e-3,0.999983,-547.2176,267.0538)"
             sodipodi:cx="680.20569"
             sodipodi:cy="586.12573"
             sodipodi:rx="30.804932"
             sodipodi:ry="189.82486" />
          <ellipse
             cx="680.20569"
             cy="586.12573"
             id="path1013"
             rx="30.804932"
             ry="189.82486"
             style="fill:#009543;fill-rule:evenodd;stroke:#000000;stroke-width:2.5"
             transform="matrix(1.18905,-6.423977e-3,6.911065e-3,1.105246,-364.9289,214.0982)"
             sodipodi:cx="680.20569"
             sodipodi:cy="586.12573"
             sodipodi:rx="30.804932"
             sodipodi:ry="189.82486" />
        </g>
        <g
           id="g1105"
           transform="translate(72.86526,-9.797035)">
          <path
             d="M 238.342,971.79 C 268.314,970.125 254.993,955.138 269.979,946.813 C 284.965,938.487 306.612,943.483 313.272,953.473 C 319.933,963.464 314.938,973.455 323.263,973.455 C 331.589,973.455 557.819,960.78 566.144,969.106 C 574.47,977.431 576.135,994.083 567.809,1000.74 C 559.484,1007.4 273.309,1015.08 263.319,1008.42 C 253.328,1001.76 238.342,973.455 238.342,971.79 z "
             id="path1010"
             style="fill:#a95600;fill-rule:evenodd;stroke:#000000;stroke-width:2.50539994"
             transform="matrix(0.202443,3.486294e-3,-3.936657e-3,0.21385,340.8638,-247.3115)" />
          <path
             d="M 529.59,405.459 C 529.59,445.442 575.152,433.338 576.4,466.708 C 575.676,502.116 499.694,470.175 497.765,405.459 C 499.694,340.743 572.872,307.53 574.47,344.448 C 575.716,375.134 529.59,365.476 529.59,405.459 z "
             id="path1506"
             style="fill:#ffce00;fill-rule:evenodd;stroke:#000000;stroke-width:3.85272002"
             transform="matrix(0.147992,1.951432e-3,-2.754835e-3,0.114586,340.4216,-81.69088)" />
          <path
             d="M 529.59,405.459 C 529.59,445.442 575.152,433.338 576.4,466.708 C 575.676,502.116 499.694,470.175 497.765,405.459 C 499.694,340.743 572.872,307.53 574.47,344.448 C 575.716,375.134 529.59,365.476 529.59,405.459 z "
             id="path1507"
             style="fill:#ffce00;fill-rule:evenodd;stroke:#000000;stroke-width:3.85272002"
             transform="matrix(0.147992,1.951432e-3,-2.754835e-3,0.114586,344.4198,-81.63816)" />
          <path
             d="M 529.59,405.459 C 529.59,445.442 575.152,433.338 576.4,466.708 C 575.676,502.116 499.694,470.175 497.765,405.459 C 499.694,340.743 572.872,307.53 574.47,344.448 C 575.716,375.134 529.59,365.476 529.59,405.459 z "
             id="path1508"
             style="fill:#ffce00;fill-rule:evenodd;stroke:#000000;stroke-width:3.85272002"
             transform="matrix(0.147992,1.951432e-3,-2.754835e-3,0.114586,348.7088,-81.79968)" />
          <path
             d="M 529.59,405.459 C 529.59,445.442 575.152,433.338 576.4,466.708 C 575.676,502.116 499.694,470.175 497.765,405.459 C 499.694,340.743 572.872,307.53 574.47,344.448 C 575.716,375.134 529.59,365.476 529.59,405.459 z "
             id="path1509"
             style="fill:#ffce00;fill-rule:evenodd;stroke:#000000;stroke-width:3.85272002"
             transform="matrix(0.147992,1.951432e-3,-2.754835e-3,0.114586,352.7069,-81.74693)" />
          <ellipse
             cx="478.38174"
             cy="-41.085754"
             id="path1091"
             rx="3.533875"
             ry="3.402977"
             style="fill:#a95600;fill-rule:evenodd;stroke:#000000;stroke-width:0.39908299"
             transform="matrix(1.094549,1.648336e-2,-2.428555e-2,1.153662,-75.5714,4.677567)"
             sodipodi:cx="478.38174"
             sodipodi:cy="-41.085754"
             sodipodi:rx="3.533875"
             sodipodi:ry="3.402977" />
        </g>
        <g
           id="g1048"
           transform="matrix(0.994885,-0.101022,0.101022,0.994885,66.68384,66.33841)">
          <ellipse
             cx="427.1059"
             cy="904.99817"
             id="path1049"
             rx="20.814133"
             ry="24.144409"
             style="fill:#009543;fill-rule:evenodd;stroke:#000000;stroke-width:2.5"
             transform="matrix(0.166193,-8.072795e-3,1.687537e-3,0.315205,369.7997,-361.6541)"
             sodipodi:cx="427.1059"
             sodipodi:cy="904.99817"
             sodipodi:rx="20.814133"
             sodipodi:ry="24.144409" />
          <ellipse
             cx="427.1059"
             cy="904.99817"
             id="path1050"
             rx="20.814133"
             ry="24.144409"
             style="fill:#009543;fill-rule:evenodd;stroke:#000000;stroke-width:2.5"
             transform="matrix(0.166193,-8.072795e-3,1.687537e-3,0.315205,364.0408,-362.7012)"
             sodipodi:cx="427.1059"
             sodipodi:cy="904.99817"
             sodipodi:rx="20.814133"
             sodipodi:ry="24.144409" />
          <ellipse
             cx="427.1059"
             cy="904.99817"
             id="path1052"
             rx="20.814133"
             ry="24.144409"
             style="fill:#009543;fill-rule:evenodd;stroke:#000000;stroke-width:2.5"
             transform="matrix(0.166193,-8.072776e-3,1.687537e-3,0.315204,360.6378,-370.5537)"
             sodipodi:cx="427.1059"
             sodipodi:cy="904.99817"
             sodipodi:rx="20.814133"
             sodipodi:ry="24.144409" />
          <ellipse
             cx="427.1059"
             cy="904.99817"
             id="path1053"
             rx="20.814133"
             ry="24.144409"
             style="fill:#009543;fill-rule:evenodd;stroke:#000000;stroke-width:2.5"
             transform="matrix(0.159905,-8.905569e-3,1.623691e-3,0.347721,369.2988,-399.3517)"
             sodipodi:cx="427.1059"
             sodipodi:cy="904.99817"
             sodipodi:rx="20.814133"
             sodipodi:ry="24.144409" />
          <ellipse
             cx="427.1059"
             cy="904.99817"
             id="path1054"
             rx="20.814133"
             ry="24.144409"
             style="fill:#009543;fill-rule:evenodd;stroke:#000000;stroke-width:2.5"
             transform="matrix(0.159905,-8.350374e-3,1.623691e-3,0.326043,377.4103,-379.0724)"
             sodipodi:cx="427.1059"
             sodipodi:cy="904.99817"
             sodipodi:rx="20.814133"
             sodipodi:ry="24.144409" />
          <ellipse
             cx="427.1059"
             cy="904.99817"
             id="path1055"
             rx="20.814133"
             ry="24.144409"
             style="fill:#009543;fill-rule:evenodd;stroke:#000000;stroke-width:2.5"
             transform="matrix(0.159905,-8.350374e-3,1.623691e-3,0.326043,373.222,-382.2137)"
             sodipodi:cx="427.1059"
             sodipodi:cy="904.99817"
             sodipodi:rx="20.814133"
             sodipodi:ry="24.144409" />
          <ellipse
             cx="427.1059"
             cy="904.99817"
             id="path1056"
             rx="20.814133"
             ry="24.144409"
             style="fill:#009543;fill-rule:evenodd;stroke:#000000;stroke-width:2.5"
             transform="matrix(0.159905,-8.350374e-3,1.623691e-3,0.326043,367.9866,-386.6638)"
             sodipodi:cx="427.1059"
             sodipodi:cy="904.99817"
             sodipodi:rx="20.814133"
             sodipodi:ry="24.144409" />
          <ellipse
             cx="427.1059"
             cy="904.99817"
             id="path1057"
             rx="20.814133"
             ry="24.144409"
             style="fill:#009543;fill-rule:evenodd;stroke:#000000;stroke-width:2.5"
             transform="matrix(0.159905,-8.350374e-3,1.623691e-3,0.326043,363.0129,-389.5432)"
             sodipodi:cx="427.1059"
             sodipodi:cy="904.99817"
             sodipodi:rx="20.814133"
             sodipodi:ry="24.144409" />
        </g>
        <path
           d="M 173.174,346.347 C 173.174,346.347 118.976,411.24 151.922,555.162 C 185.88,699.752 330.887,744.945 330.887,744.945 C 330.887,744.945 357.383,697.522 332.613,580.904 C 292.65,411.061 216.467,346.347 216.467,346.347 L 173.174,346.347 z "
           id="path851"
           style="fill:#962399;fill-rule:evenodd;stroke:#000000;stroke-width:2.5"
           transform="matrix(0.176889,3.219125e-2,-3.142231e-2,0.182359,461.7877,-208.6117)" />
        <g
           id="g1026"
           transform="matrix(0.996961,7.791016e-2,-7.791016e-2,0.996961,60.53158,-11.75977)">
          <ellipse
             cx="427.1059"
             cy="904.99817"
             id="path1025"
             rx="20.814133"
             ry="24.144409"
             style="fill:#009543;fill-rule:evenodd;stroke:#000000;stroke-width:2.5"
             transform="matrix(0.166193,-8.072795e-3,1.687537e-3,0.315205,369.7997,-361.6541)"
             sodipodi:cx="427.1059"
             sodipodi:cy="904.99817"
             sodipodi:rx="20.814133"
             sodipodi:ry="24.144409" />
          <ellipse
             cx="427.1059"
             cy="904.99817"
             id="path1017"
             rx="20.814133"
             ry="24.144409"
             style="fill:#009543;fill-rule:evenodd;stroke:#000000;stroke-width:2.5"
             transform="matrix(0.166193,-8.072795e-3,1.687537e-3,0.315205,364.0408,-362.7012)"
             sodipodi:cx="427.1059"
             sodipodi:cy="904.99817"
             sodipodi:rx="20.814133"
             sodipodi:ry="24.144409" />
          <ellipse
             cx="427.1059"
             cy="904.99817"
             id="path1016"
             rx="20.814133"
             ry="24.144409"
             style="fill:#009543;fill-rule:evenodd;stroke:#000000;stroke-width:2.5"
             transform="matrix(0.166193,-8.072776e-3,1.687537e-3,0.315204,360.6378,-370.5537)"
             sodipodi:cx="427.1059"
             sodipodi:cy="904.99817"
             sodipodi:rx="20.814133"
             sodipodi:ry="24.144409" />
          <ellipse
             cx="427.1059"
             cy="904.99817"
             id="path1018"
             rx="20.814133"
             ry="24.144409"
             style="fill:#009543;fill-rule:evenodd;stroke:#000000;stroke-width:2.5"
             transform="matrix(0.159905,-8.905569e-3,1.623691e-3,0.347721,369.2988,-399.3517)"
             sodipodi:cx="427.1059"
             sodipodi:cy="904.99817"
             sodipodi:rx="20.814133"
             sodipodi:ry="24.144409" />
          <ellipse
             cx="427.1059"
             cy="904.99817"
             id="path1020"
             rx="20.814133"
             ry="24.144409"
             style="fill:#009543;fill-rule:evenodd;stroke:#000000;stroke-width:2.5"
             transform="matrix(0.159905,-8.350374e-3,1.623691e-3,0.326043,377.4103,-379.0724)"
             sodipodi:cx="427.1059"
             sodipodi:cy="904.99817"
             sodipodi:rx="20.814133"
             sodipodi:ry="24.144409" />
          <ellipse
             cx="427.1059"
             cy="904.99817"
             id="path1019"
             rx="20.814133"
             ry="24.144409"
             style="fill:#009543;fill-rule:evenodd;stroke:#000000;stroke-width:2.5"
             transform="matrix(0.159905,-8.350374e-3,1.623691e-3,0.326043,373.222,-382.2137)"
             sodipodi:cx="427.1059"
             sodipodi:cy="904.99817"
             sodipodi:rx="20.814133"
             sodipodi:ry="24.144409" />
          <ellipse
             cx="427.1059"
             cy="904.99817"
             id="path1005"
             rx="20.814133"
             ry="24.144409"
             style="fill:#009543;fill-rule:evenodd;stroke:#000000;stroke-width:2.5"
             transform="matrix(0.159905,-8.350374e-3,1.623691e-3,0.326043,367.9866,-386.6638)"
             sodipodi:cx="427.1059"
             sodipodi:cy="904.99817"
             sodipodi:rx="20.814133"
             sodipodi:ry="24.144409" />
          <ellipse
             cx="427.1059"
             cy="904.99817"
             id="path988"
             rx="20.814133"
             ry="24.144409"
             style="fill:#009543;fill-rule:evenodd;stroke:#000000;stroke-width:2.5"
             transform="matrix(0.159905,-8.350374e-3,1.623691e-3,0.326043,363.0129,-389.5432)"
             sodipodi:cx="427.1059"
             sodipodi:cy="904.99817"
             sodipodi:rx="20.814133"
             sodipodi:ry="24.144409" />
        </g>
        <ellipse
           cx="624.42383"
           cy="606.1073"
           id="path985"
           rx="58.279541"
           ry="186.49458"
           style="fill:#ea0437;fill-opacity:1;fill-rule:evenodd;stroke:#000000;stroke-width:1pt"
           transform="matrix(0.156948,-6.062813e-2,6.364226e-2,0.148405,369.6128,-145.0546)"
           sodipodi:cx="624.42383"
           sodipodi:cy="606.1073"
           sodipodi:rx="58.279541"
           sodipodi:ry="186.49458" />
        <g
           id="g1072"
           transform="matrix(0.999842,1.780211e-2,-1.780211e-2,0.999842,-34.81445,-4.628464)">
          <ellipse
             cx="218.13208"
             cy="356.75403"
             id="path872"
             rx="10.823341"
             ry="12.90477"
             style="fill:#009543;fill-rule:evenodd;stroke:#000000;stroke-width:1.46349001"
             transform="matrix(0.395296,0,0,0.292704,445.0725,-230.5263)"
             sodipodi:cx="218.13208"
             sodipodi:cy="356.75403"
             sodipodi:rx="10.823341"
             sodipodi:ry="12.90477" />
          <ellipse
             cx="218.13208"
             cy="356.75403"
             id="path888"
             rx="10.823341"
             ry="12.90477"
             style="fill:#009543;fill-rule:evenodd;stroke:#000000;stroke-width:1.54622996"
             transform="matrix(0.35412,0,0,0.292704,457.1741,-235.9224)"
             sodipodi:cx="218.13208"
             sodipodi:cy="356.75403"
             sodipodi:rx="10.823341"
             sodipodi:ry="12.90477" />
          <ellipse
             cx="218.13208"
             cy="356.75403"
             id="path887"
             rx="10.823341"
             ry="12.90477"
             style="fill:#009543;fill-rule:evenodd;stroke:#000000;stroke-width:1.54622996"
             transform="matrix(0.35412,0,0,0.292704,452.0043,-235.9224)"
             sodipodi:cx="218.13208"
             sodipodi:cy="356.75403"
             sodipodi:rx="10.823341"
             sodipodi:ry="12.90477" />
          <ellipse
             cx="218.13208"
             cy="356.75403"
             id="path879"
             rx="10.823341"
             ry="12.90477"
             style="fill:#009543;fill-rule:evenodd;stroke:#000000;stroke-width:1.55999005"
             transform="matrix(0.370591,0,0,0.274783,449.4811,-233.4606)"
             sodipodi:cx="218.13208"
             sodipodi:cy="356.75403"
             sodipodi:rx="10.823341"
             sodipodi:ry="12.90477" />
          <ellipse
             cx="218.13208"
             cy="356.75403"
             id="path878"
             rx="10.823341"
             ry="12.90477"
             style="fill:#009543;fill-rule:evenodd;stroke:#000000;stroke-width:1.55999005"
             transform="matrix(0.370591,0,0,0.274783,448.9463,-237.9316)"
             sodipodi:cx="218.13208"
             sodipodi:cy="356.75403"
             sodipodi:rx="10.823341"
             sodipodi:ry="12.90477" />
          <ellipse
             cx="218.13208"
             cy="356.75403"
             id="path867"
             rx="10.823341"
             ry="12.90477"
             style="fill:#009543;fill-rule:evenodd;stroke:#000000;stroke-width:1.54622996"
             transform="matrix(0.35412,0,0,0.292704,447.0128,-238.8517)"
             sodipodi:cx="218.13208"
             sodipodi:cy="356.75403"
             sodipodi:rx="10.823341"
             sodipodi:ry="12.90477" />
          <ellipse
             cx="218.13208"
             cy="356.75403"
             id="path877"
             rx="10.823341"
             ry="12.90477"
             style="fill:#009543;fill-rule:evenodd;stroke:#000000;stroke-width:1.56226003"
             transform="matrix(0.35412,0,0,0.28673,448.0824,-241.577)"
             sodipodi:cx="218.13208"
             sodipodi:cy="356.75403"
             sodipodi:rx="10.823341"
             sodipodi:ry="12.90477" />
          <ellipse
             cx="218.13208"
             cy="356.75403"
             id="path876"
             rx="10.823341"
             ry="12.90477"
             style="fill:#009543;fill-rule:evenodd;stroke:#000000;stroke-width:1.46349001"
             transform="matrix(0.395296,0,0,0.292704,432.772,-243.4769)"
             sodipodi:cx="218.13208"
             sodipodi:cy="356.75403"
             sodipodi:rx="10.823341"
             sodipodi:ry="12.90477" />
          <ellipse
             cx="218.13208"
             cy="356.75403"
             id="path874"
             rx="10.823341"
             ry="12.90477"
             style="fill:#009543;fill-rule:evenodd;stroke:#000000;stroke-width:1.55999005"
             transform="matrix(0.370591,0,0,0.274783,445.9157,-243.4819)"
             sodipodi:cx="218.13208"
             sodipodi:cy="356.75403"
             sodipodi:rx="10.823341"
             sodipodi:ry="12.90477" />
          <ellipse
             cx="218.13208"
             cy="356.75403"
             id="path873"
             rx="10.823341"
             ry="12.90477"
             style="fill:#009543;fill-rule:evenodd;stroke:#000000;stroke-width:1.56226003"
             transform="matrix(0.35412,0,0,0.28673,444.1605,-246.9731)"
             sodipodi:cx="218.13208"
             sodipodi:cy="356.75403"
             sodipodi:rx="10.823341"
             sodipodi:ry="12.90477" />
          <ellipse
             cx="218.13208"
             cy="356.75403"
             id="path871"
             rx="10.823341"
             ry="12.90477"
             style="fill:#009543;fill-rule:evenodd;stroke:#000000;stroke-width:1.54622996"
             transform="matrix(0.35412,0,0,0.292704,436.1385,-243.1686)"
             sodipodi:cx="218.13208"
             sodipodi:cy="356.75403"
             sodipodi:rx="10.823341"
             sodipodi:ry="12.90477" />
          <ellipse
             cx="218.13208"
             cy="356.75403"
             id="path1070"
             rx="10.823341"
             ry="12.90477"
             style="fill:#009543;fill-rule:evenodd;stroke:#000000;stroke-width:1.56226003"
             transform="matrix(0.35412,0,0,0.28673,437.4203,-243.8784)"
             sodipodi:cx="218.13208"
             sodipodi:cy="356.75403"
             sodipodi:rx="10.823341"
             sodipodi:ry="12.90477" />
          <ellipse
             cx="218.13208"
             cy="356.75403"
             id="path869"
             rx="10.823341"
             ry="12.90477"
             style="fill:#009543;fill-rule:evenodd;stroke:#000000;stroke-width:1.56226003"
             transform="matrix(0.35412,0,0,0.28673,438.9908,-247.0197)"
             sodipodi:cx="218.13208"
             sodipodi:cy="356.75403"
             sodipodi:rx="10.823341"
             sodipodi:ry="12.90477" />
        </g>
        <g
           id="g946"
           transform="matrix(0.179609,-4.521057e-3,4.192619e-3,0.185123,420.9863,-216.8024)">
          <ellipse
             cx="528.67889"
             cy="564.479"
             id="path889"
             rx="67.437759"
             ry="205.6436"
             style="fill:#009543;fill-rule:evenodd;stroke:#000000;stroke-width:2.54485989"
             transform="matrix(0.97574,-0.307929,0.363045,0.874481,-245.8061,324.3975)"
             sodipodi:cx="528.67889"
             sodipodi:cy="564.479"
             sodipodi:rx="67.437759"
             sodipodi:ry="205.6436" />
          <ellipse
             cx="528.67883"
             cy="646.07043"
             id="path894"
             rx="13.321075"
             ry="40.795685"
             style="fill:#009543;fill-rule:evenodd;stroke:#000000;stroke-width:2.5"
             transform="matrix(0.917882,-0.396852,0.396852,0.917882,-210.4826,304.4884)"
             sodipodi:cx="528.67883"
             sodipodi:cy="646.07043"
             sodipodi:rx="13.321075"
             sodipodi:ry="40.795685" />
          <path
             d="M 139.87,643.988 C 139.87,701.665 121.115,730.159 105.319,754.303 C 112.836,721.833 118.224,701.666 118.224,643.989 C 118.224,586.312 147.803,558.652 158.603,542 C 154.417,558.652 139.87,586.312 139.87,643.988 z "
             id="path893"
             style="fill:#009543;fill-rule:evenodd;stroke:#000000;stroke-width:1.53268003"
             transform="matrix(1.882818,-0.455977,0.953423,1.182187,-352.2551,-10.01956)" />
          <path
             d="M 139.87,643.988 C 139.87,701.665 121.115,730.159 105.319,754.303 C 112.836,721.833 118.224,701.666 118.224,643.989 C 118.224,586.312 147.803,558.652 158.603,542 C 154.417,558.652 139.87,586.312 139.87,643.988 z "
             id="path892"
             style="fill:#009543;fill-rule:evenodd;stroke:#000000;stroke-width:1.53268003"
             transform="matrix(1.882818,-0.455977,0.953423,1.182187,-348.4234,44.05751)" />
          <path
             d="M 139.87,643.988 C 139.87,701.665 121.115,730.159 105.319,754.303 C 112.836,721.833 118.224,701.666 118.224,643.989 C 118.224,586.312 147.803,558.652 158.603,542 C 154.417,558.652 139.87,586.312 139.87,643.988 z "
             id="path891"
             style="fill:#009543;fill-rule:evenodd;stroke:#000000;stroke-width:1.53268003"
             transform="matrix(1.87302,-0.494682,0.977582,1.162287,-361.9242,105.7834)" />
          <ellipse
             cx="528.67883"
             cy="646.07043"
             id="path895"
             rx="13.321075"
             ry="40.795685"
             style="fill:#009543;fill-rule:evenodd;stroke:#000000;stroke-width:1.38874996"
             transform="matrix(1.810478,-0.400515,0.699068,1.635286,-915.63,-221.0144)"
             sodipodi:cx="528.67883"
             sodipodi:cy="646.07043"
             sodipodi:rx="13.321075"
             sodipodi:ry="40.795685" />
          <ellipse
             cx="528.67883"
             cy="646.07043"
             id="path896"
             rx="13.321075"
             ry="40.795685"
             style="fill:#009543;fill-rule:evenodd;stroke:#000000;stroke-width:1.63984001"
             transform="matrix(1.625675,-0.230684,0.541575,1.352842,-739.4891,-91.77486)"
             sodipodi:cx="528.67883"
             sodipodi:cy="646.07043"
             sodipodi:rx="13.321075"
             sodipodi:ry="40.795685" />
          <ellipse
             cx="528.67883"
             cy="646.07043"
             id="path897"
             rx="13.321075"
             ry="40.795685"
             style="fill:#009543;fill-rule:evenodd;stroke:#000000;stroke-width:1.63984001"
             transform="matrix(1.630439,-0.197194,0.512514,1.363529,-750.6206,-91.82552)"
             sodipodi:cx="528.67883"
             sodipodi:cy="646.07043"
             sodipodi:rx="13.321075"
             sodipodi:ry="40.795685" />
          <ellipse
             cx="528.67883"
             cy="646.07043"
             id="path898"
             rx="13.321075"
             ry="40.795685"
             style="fill:#009543;fill-rule:evenodd;stroke:#000000;stroke-width:2.09662008"
             transform="matrix(1.31445,-0.200604,0.468889,1.010117,-531.0563,47.56802)"
             sodipodi:cx="528.67883"
             sodipodi:cy="646.07043"
             sodipodi:rx="13.321075"
             sodipodi:ry="40.795685" />
          <ellipse
             cx="528.67883"
             cy="646.07043"
             id="path899"
             rx="13.321075"
             ry="40.795685"
             style="fill:#009543;fill-rule:evenodd;stroke:#000000;stroke-width:2.09662008"
             transform="matrix(1.325781,-0.130444,0.403422,1.032739,-517.8685,12.21143)"
             sodipodi:cx="528.67883"
             sodipodi:cy="646.07043"
             sodipodi:rx="13.321075"
             sodipodi:ry="40.795685" />
          <path
             d="M 145.698,569.474 C 145.698,603.48 138.986,631.084 130.713,631.084 C 122.441,631.084 115.727,603.48 115.727,569.474"
             id="path945"
             style="fill:#009543;fill-rule:evenodd;stroke:#000000;stroke-width:2.08615994"
             transform="matrix(1.025425,-0.492771,0.464381,1.177331,12.76656,-14.519)" />
          <ellipse
             cx="528.67883"
             cy="646.07043"
             id="path902"
             rx="13.321075"
             ry="40.795685"
             style="fill:#009543;fill-rule:evenodd;stroke:#000000;stroke-width:2.09662008"
             transform="matrix(1.325781,-0.130444,0.403422,1.032739,-519.5336,-34.41226)"
             sodipodi:cx="528.67883"
             sodipodi:cy="646.07043"
             sodipodi:rx="13.321075"
             sodipodi:ry="40.795685" />
          <ellipse
             cx="528.67883"
             cy="646.07043"
             id="path903"
             rx="13.321075"
             ry="40.795685"
             style="fill:#009543;fill-rule:evenodd;stroke:#000000;stroke-width:2.09662008"
             transform="matrix(1.328753,-0.105107,0.379547,1.040012,-533.9751,-40.12073)"
             sodipodi:cx="528.67883"
             sodipodi:cy="646.07043"
             sodipodi:rx="13.321075"
             sodipodi:ry="40.795685" />
          <path
             d="M 145.698,569.474 C 145.698,603.48 138.986,631.084 130.713,631.084 C 122.441,631.084 115.727,603.48 115.727,569.474"
             id="path909"
             style="fill:#009543;fill-rule:evenodd;stroke:#000000;stroke-width:2.8796699"
             transform="matrix(0.672197,-0.471822,0.458936,0.799103,39.48589,143.278)" />
          <path
             d="M 145.698,569.474 C 145.698,603.48 138.986,631.084 130.713,631.084 C 122.441,631.084 115.727,603.48 115.727,569.474"
             id="path906"
             style="fill:#009543;fill-rule:evenodd;stroke:#000000;stroke-width:2.8796699"
             transform="matrix(0.672197,-0.471822,0.458936,0.799103,51.14178,125.7941)" />
          <path
             d="M 145.698,569.474 C 145.698,603.48 138.986,631.084 130.713,631.084 C 122.441,631.084 115.727,603.48 115.727,569.474"
             id="path907"
             style="fill:#009543;fill-rule:evenodd;stroke:#000000;stroke-width:2.08615994"
             transform="matrix(0.937396,-0.644677,0.639998,1.091861,-40.19822,-10.74352)" />
          <path
             d="M 145.698,569.474 C 145.698,603.48 138.986,631.084 130.713,631.084 C 122.441,631.084 115.727,603.48 115.727,569.474"
             id="path908"
             style="fill:#009543;fill-rule:evenodd;stroke:#000000;stroke-width:2.74245"
             transform="matrix(0.672197,-0.520221,0.458936,0.881076,68.62559,71.17856)" />
        </g>
        <g
           id="g919"
           transform="matrix(1.101444,0.275869,-0.265588,0.974374,-85.41525,-157.9016)">
          <path
             d="M 276.266,345.409 C 263.988,354.583 276.675,370.553 288.288,376.088 C 301.348,383.76 374.891,434.273 424.605,388.087 C 383.81,388.92 305.942,324.904 276.266,345.409 z "
             id="path875"
             style="fill:#962399;fill-rule:evenodd;stroke:#000000;stroke-width:2.5"
             transform="matrix(0.134413,-3.04485e-2,4.851113e-2,0.216811,448.7474,-184.9145)" />
          <path
             d="M 276.266,345.409 C 263.988,354.583 276.675,370.553 288.288,376.088 C 301.348,383.76 374.891,434.273 424.605,388.087 C 383.81,388.92 305.942,324.904 276.266,345.409 z "
             id="path870"
             style="fill:#962399;fill-rule:evenodd;stroke:#000000;stroke-width:2.5"
             transform="matrix(0.134413,-3.04485e-2,4.851113e-2,0.216811,446.2043,-190.218)" />
          <path
             d="M 276.266,345.409 C 263.988,354.583 276.675,370.553 288.288,376.088 C 301.348,383.76 374.891,434.273 424.605,388.087 C 383.81,388.92 305.942,324.904 276.266,345.409 z "
             id="path868"
             style="fill:#962399;fill-rule:evenodd;stroke:#000000;stroke-width:2.5"
             transform="matrix(0.134413,-3.04485e-2,4.851113e-2,0.216811,443.3872,-195.1923)" />
          <path
             d="M 276.266,345.409 C 263.988,354.583 276.675,370.553 288.288,376.088 C 301.348,383.76 374.891,434.273 424.605,388.087 C 383.81,388.92 305.942,324.904 276.266,345.409 z "
             id="path866"
             style="fill:#962399;fill-rule:evenodd;stroke:#000000;stroke-width:2.5"
             transform="matrix(0.134413,-3.04485e-2,4.851113e-2,0.216811,438.6063,-200.4414)" />
        </g>
        <g
           id="g907"
           transform="matrix(0.999842,1.780211e-2,-1.780211e-2,0.999842,12.04015,10.60534)">
          <path
             d="M 211.167,247.301 C 232.94,235.236 267.785,237.552 290.901,258.466 C 310.261,275.409 336.208,333.66 361.223,351.3 C 340.996,351.319 329.925,345.531 318.982,336.12 C 290.215,351.562 280.855,352.844 255.092,351.752 C 219.211,350.418 192.633,334.098 186.914,311.148 C 180.748,289.344 191.839,258.65 211.167,247.301 z "
             id="path852"
             style="fill:#962399;fill-rule:evenodd;stroke:#000000;stroke-width:2.5"
             transform="matrix(0.208828,-4.091126e-2,4.730467e-2,0.180604,407.8048,-213.6359)" />
          <ellipse
             cx="287.23499"
             cy="323.03516"
             id="path1051"
             rx="14.15361"
             ry="14.98616"
             style="fill:#ea0437;fill-opacity:1;fill-rule:evenodd;stroke:#000000;stroke-width:2.5"
             transform="matrix(0.24521,0,0,0.134333,401.8211,-215.1804)"
             sodipodi:cx="287.23499"
             sodipodi:cy="323.03516"
             sodipodi:rx="14.15361"
             sodipodi:ry="14.98616" />
          <ellipse
             cx="204.57761"
             cy="348.26199"
             id="path1062"
             rx="23.254143"
             ry="15.895233"
             style="fill:#ffce00;fill-rule:evenodd;stroke:#000000;stroke-width:2.5"
             transform="matrix(0.19364,-7.598685e-2,6.759024e-2,0.17273,398.6623,-208.0622)"
             sodipodi:cx="204.57761"
             sodipodi:cy="348.26199"
             sodipodi:rx="23.254143"
             sodipodi:ry="15.895233" />
          <ellipse
             cx="283.90472"
             cy="333.85846"
             id="path1059"
             rx="5.8279572"
             ry="5.8279419"
             style="fill-rule:evenodd;stroke-width:1pt"
             transform="matrix(0.214119,0,0,0.18518,411.2866,-233.7407)"
             sodipodi:cx="283.90472"
             sodipodi:cy="333.85846"
             sodipodi:rx="5.8279572"
             sodipodi:ry="5.8279419" />
          <path
             d="M 516.796,260.294 C 521.221,278.401 510.122,303.377 483.663,312.903 C 456.888,326.076 437.584,354.734 428.022,400.92 C 380.778,297.65 404.915,252.645 448.622,240.574 C 485.999,226.211 509.042,227.203 516.796,260.294 z "
             id="path1061"
             style="fill:#ffce00;fill-rule:evenodd;stroke:#000000;stroke-width:6.55976009"
             transform="matrix(9.228922e-2,8.874689e-4,-3.397048e-3,8.481727e-2,417.8523,-191.4926)" />
          <ellipse
             cx="198.98488"
             cy="362.39093"
             id="path1113"
             rx="4.709702"
             ry="4.709702"
             style="fill-rule:evenodd;stroke-width:1pt"
             transform="matrix(0.186968,-1.313064e-2,1.398806e-2,0.19143,418.6864,-234.9767)"
             sodipodi:cx="198.98488"
             sodipodi:cy="362.39093"
             sodipodi:rx="4.709702"
             sodipodi:ry="4.709702" />
        </g>
      </g>
    </g>
  </g>
</svg>
