<?xml version="1.0" encoding="UTF-8" standalone="no"?>
<!-- Created with Inkscape (http://www.inkscape.org/) -->
<svg
   xmlns:svg="http://www.w3.org/2000/svg"
   xmlns="http://www.w3.org/2000/svg"
   version="1.0"
   width="1000"
   height="500"
 viewBox="0 0 72 36"  id="svg2">
  <defs
     id="defs4" />
  <g
     id="layer1">
    <rect
       width="72"
       height="36"
       x="0"
       y="0"
       style="fill:#0047ba"
       id="rect1872" />
    <rect
       width="72"
       height="12"
       x="0"
       y="12"
       style="fill:white"
       id="rect1874" />
    <path
       d="M 36,16 L 36.449028,17.381966 L 37.902113,17.381966 L 36.726543,18.236068 L 37.17557,19.618034 L 36,18.763932 L 34.824429,19.618034 L 35.273457,18.236068 L 34.097887,17.381966 L 35.550972,17.381966 L 36,16 z "
       style="opacity:1;fill:#0047ba;fill-opacity:1;fill-rule:nonzero;stroke:none;stroke-width:0.25;stroke-linecap:square;stroke-miterlimit:4;stroke-dasharray:none;stroke-opacity:1"
       id="path1888" />
    <path
       d="M 26,13 L 26.449028,14.381966 L 27.902113,14.381966 L 26.726543,15.236068 L 27.17557,16.618034 L 26,15.763932 L 24.824429,16.618034 L 25.273457,15.236068 L 24.097887,14.381966 L 25.550972,14.381966 L 26,13 z "
       style="opacity:1;fill:#0047ba;fill-opacity:1;fill-rule:nonzero;stroke:none;stroke-width:0.25;stroke-linecap:square;stroke-miterlimit:4;stroke-dasharray:none;stroke-opacity:1"
       id="path1891" />
    <path
       d="M 26,19 L 26.449028,20.381966 L 27.902113,20.381966 L 26.726543,21.236068 L 27.17557,22.618034 L 26,21.763932 L 24.824429,22.618034 L 25.273457,21.236068 L 24.097887,20.381966 L 25.550972,20.381966 L 26,19 z "
       style="opacity:1;fill:#0047ba;fill-opacity:1;fill-rule:nonzero;stroke:none;stroke-width:0.25;stroke-linecap:square;stroke-miterlimit:4;stroke-dasharray:none;stroke-opacity:1"
       id="path1893" />
    <path
       d="M 46,13 L 46.449028,14.381966 L 47.902113,14.381966 L 46.726543,15.236068 L 47.17557,16.618034 L 46,15.763932 L 44.824429,16.618034 L 45.273457,15.236068 L 44.097887,14.381966 L 45.550972,14.381966 L 46,13 z "
       style="opacity:1;fill:#0047ba;fill-opacity:1;fill-rule:nonzero;stroke:none;stroke-width:0.25;stroke-linecap:square;stroke-miterlimit:4;stroke-dasharray:none;stroke-opacity:1"
       id="path1895" />
    <path
       d="M 46,19 L 46.449028,20.381966 L 47.902113,20.381966 L 46.726543,21.236068 L 47.17557,22.618034 L 46,21.763932 L 44.824429,22.618034 L 45.273457,21.236068 L 44.097887,20.381966 L 45.550972,20.381966 L 46,19 z "
       style="opacity:1;fill:#0047ba;fill-opacity:1;fill-rule:nonzero;stroke:none;stroke-width:0.25;stroke-linecap:square;stroke-miterlimit:4;stroke-dasharray:none;stroke-opacity:1"
       id="path1897" />
  </g>
</svg>
