<?xml version="1.0" encoding="UTF-8" standalone="no"?>
<svg xmlns:dc="http://purl.org/dc/elements/1.1/" xmlns:cc="http://web.resource.org/cc/" xmlns:rdf="http://www.w3.org/1999/02/22-rdf-syntax-ns#" xmlns:svg="http://www.w3.org/2000/svg" xmlns="http://www.w3.org/2000/svg" version="1.0" x="0" y="0" width="2000" height="1000" id="svg378">
  
  <sodipodi:namedview id="base" showguides="true"/>
  <defs id="defs380"/>
  <rect width="2000" height="1000" x="0" y="0" font-size="12px" fill="#e8112d" fill-opacity="1" fill-rule="evenodd" stroke-width="1pt"/>
  <g transform="translate(-836.4944,-605.2644)">
    <path transform="matrix(2.402454,0,0,2.402454,-17.21325,7.103897)" d="M 238.8,224.5 C 238.9,224.1 239.2,220.3 239.1,220.3 C 238.9,220.3 233.3,213.7 233.5,213.7 C 233.6,213.7 240.6,215.3 240.6,215.1 C 240.6,214.8 243.4,208.1 243.4,208.0 C 243.4,207.9 246.8,216.2 246.8,216.2 L 253.8,219.2 L 248.9,223.2 C 248.9,223.2 250.0,231.0 250.062,231.2 C 250.0,231.3 245.1,226.5 245.1,226.5 L 239.8,227.1 C 239.8,227.1 239.1,224.7 238.8,224.5 z " font-size="12px" fill="#f9dd16" fill-opacity="0.98823499" fill-rule="evenodd" stroke="#000000" stroke-width="1pt"/>
    <path transform="matrix(2.402454,0,0,2.402454,-17.21325,7.103897)" d="M 201.1,122.1 C 196.5,124.5 178.7,144.8 176.3,148.0 C 174.2,152.6 170.2,158.4 166.1,162.1 C 161.7,165.5 159.3,170.0 159.9,174.3 C 159.9,179.6 162.9,183.3 165.2,187.0 C 166.7,188.7 168.6,189.8 170.6,190.0 C 174.7,190.5 175.1,191.8 177.2,192.6 C 185.3,203.7 197.5,211.9 206.3,218.4 C 211.9,221.4 215.8,224.3 217.1,225.9 C 219.7,230.8 219.2,235.6 218.9,238.0 C 216.7,246.2 214.5,254.4 212.3,262.6 C 211.3,269.3 217.121,267.8 217.4,266.4 C 220.0,263.0 223.9,265.4 229.5,245.7 C 232.1,242.2 234.7,238.8 237.2,235.3 C 237.2,235.3 240.2,234.1 240.2,233.8 C 244.7,228.4 241.3,225.3 238.7,224.3 C 236.8,223.7 235.0,223.0 233.1,222.3 C 233.1,222.3 226.6,215.8 226.3,215.8 C 223.2,206.7 208.0,187.5 204.4,184.8 C 202.0,182.3 200.8,181.2 198.5,179.8 C 194.9,178.1 193.8,177.5 191.6,176.7 C 189.8,175.9 191.1,173.9 192.2,173.0 C 204.3,166.5 213.8,159.2 225.4,151.8 C 226.0,151.4 226.6,151.0 227.2,150.6 C 225.8,142.7 224.4,134.8 223.0,126.9 C 216.6,124.6 210.2,122.3 203.8,120.1 C 202.7,120.8 202.0,121.5 201.1,122.1 z " font-size="12px" fill="#ffffff" fill-rule="evenodd" stroke="#000000" stroke-width="1.594"/>
    <path transform="matrix(2.402454,0,0,2.402454,-17.21325,7.103897)" d="M 217.2,246.9 C 217.3,246.7 229.3,244.5 229.3,244.5 C 229.3,244.5 227.9,248.9 227.8,248.9 L 215.9,252.5 L 217.2,246.9 z " font-size="12px" fill="#f9dd16" fill-opacity="1" fill-rule="evenodd" stroke-width="1pt"/>
    <path transform="matrix(2.402454,0,0,2.402454,-17.21325,7.103897)" d="M 186.0,201.8 C 188.3,195.6 194.738,190.8 199.0,189.4" font-size="12px" fill="none" fill-rule="evenodd" stroke="#000000" stroke-width="1pt"/>
    <path transform="matrix(2.402454,0,0,2.402454,-17.21325,7.103897)" d="M 216.8,247.0 C 217.5,246.8 221.0,245.8 222.0,245.6 C 223.1,245.4 224.1,245.1 225.1,244.8 C 226.3,244.5 227.1,244.3 228.3,244.1 C 229.3,243.7 230.2,243.5 231.2,243.2 M 214.6,254.4 C 214.7,254.3 215.5,253.6 216.1,253.2 C 216.8,253.0 219.2,252.0 220.1,251.9 C 221.0,251.6 222.0,251.3 222.9,251.0 C 223.9,250.8 224.6,250.5 225.7,250.3 C 226.6,249.9 227.4,249.7 228.3,249.4" font-size="12px" fill="none" fill-rule="evenodd" stroke="#000000" stroke-width="1.105pt"/>
    <path transform="matrix(2.402454,0,0,2.402454,-17.21325,7.103897)" d="M 219.5,203.5 C 219.4,203.5 219.4,203.5 219.3,203.5 C 219.8,203.5 219.5,203.5 218.8,204.4 C 218.5,205.1 216.3,206.6 214.6,206.6 C 213.8,206.7 212.6,206.8 211.8,206.8 C 211.6,206.8 211.3,206.6 211.0,206.6" font-size="12px" fill="none" fill-rule="evenodd" stroke="#000000" stroke-width="1pt"/>
    <path transform="matrix(2.402454,0,0,2.402454,-17.21325,7.103897)" d="M 219.3,239.0 C 219.4,239.0 219.4,239.0 219.5,239.0 C 219.2,239.0 219.9,239.0 220.2,239.0 C 221.1,239.024 221.9,239.1 222.7,239.1 C 223.6,239.1 224.5,239.4 225.3,239.4 C 226.2,239.5 227.2,239.5 228.1,239.6 C 229.1,239.6 230.0,239.8 231.0,239.8 C 231.9,239.916 232.3,240.0 233.2,240.0 L 231.0,239.8 C 231.9,239.916 232.3,240.0 233.2,240.0" font-size="12px" fill="none" fill-rule="evenodd" stroke="#000000" stroke-width="1pt"/>
    <path transform="matrix(2.402454,0,0,2.402454,-17.21325,7.103897)" d="M 213.4,260.0 C 213.5,259.8 214.3,259.1 214.8,258.8 C 215.5,258.6 217.6,257.6 218.4,257.4 C 219.3,257.1 220.2,256.9 221.0,256.5 C 222.0,256.3 222.6,256.1 223.6,255.8 C 224.4,255.5 225.2,255.2 226.0,255.0" font-size="12px" fill="none" fill-rule="evenodd" stroke="#000000" stroke-width="1pt"/>
    <path transform="matrix(2.402454,0,0,2.402454,-17.21325,7.103897)" d="M 229.6,230.1 C 229.1,231.5 229.7,231.8 230.0,232.4 C 230.4,233.0 231.6,233.9 233.4,234.5 C 234.1,234.7 234.7,234.9 235.5,235.2 C 236.0,235.2 236.3,235.4 236.7,235.5" font-size="12px" fill="none" fill-rule="evenodd" stroke="#000000" stroke-width="1pt"/>
    <path transform="matrix(2.402454,0,0,2.402454,-17.21325,7.103897)" d="M 161.4,178.2 C 161.5,178.2 161.6,178.2 161.6,178.2 C 161.1,178.2 161.4,178.2 162.3,177.5 C 162.9,176.9 163.3,176.6 163.9,176.0" font-size="12px" fill="none" fill-rule="evenodd" stroke="#000000" stroke-width="1pt"/>
    <path transform="matrix(2.402454,0,0,2.402454,-17.21325,7.103897)" d="M 172.6,190.5 C 172.7,190.5 182.6,185.5 183.7,184.4 C 184.4,183.9 185.0,183.3 185.9,182.7 C 186.5,182.4 186.9,182.0 187.4,181.6 C 187.9,181.0 188.5,180.6 188.8,180.0 C 189.4,179.5 189.2,178.9 189.7,178.2 C 189.9,177.6 190.3,176.5 190.5,175.9" font-size="12px" fill="none" fill-rule="evenodd" stroke="#000000" stroke-width="1pt"/>
    <path transform="matrix(2.402454,0,0,2.402454,-17.21325,7.103897)" d="M 203.1,183.3 C 203.1,183.7 202.9,184.8 202.9,185.6 C 202.9,186.6 201.7,189.6 200.2,190.5" font-size="12px" fill="none" fill-rule="evenodd" stroke="#000000" stroke-width="1pt"/>
    <path transform="matrix(2.402454,0,0,2.402454,-17.21325,7.103897)" d="M 185.3,183.2 C 185.4,183.2 186.9,183.7 189.4,184.5 C 192.4,185.6 198.7,189.5 199.3,190.1 C 200.0,190.6 201.1,191.0 201.6,191.6 C 202.2,192.2 202.8,192.951 203.3,193.5 C 203.9,194.3 204.5,194.986 204.8,195.6 C 206.7,197.1 211.9,207.9 212.1,208.5 C 212.4,209.1 212.7,209.9 212.9,210.4 C 213.3,210.8 213.6,211.5 214.0,212.1 C 214.3,213.0 214.7,213.4 215.2,214.0 C 215.7,214.4 216.5,215.2 217.2,215.6 C 218.0,216.2 218.7,216.5 219.3,216.9 C 220.1,217.3 229.2,223.0 229.6,223.3 C 230.4,224.0 233.0,226.6 231.2,228.5 C 230.4,229.1 229.8,230.0 229.1,230.4 C 228.5,231.0 227.5,231.3 226.8,231.7 C 222.7,232.9 220.6,232.4 219.8,232.4 C 219.5,232.4 219.2,232.4 219.0,232.4" font-size="12px" fill="none" fill-rule="evenodd" stroke="#000000" stroke-width="1pt"/>
    <path transform="matrix(2.402454,0,0,2.402454,-17.21325,7.103897)" d="M 165.3,162.9 C 166.4,163.4 165.9,163.0 167.0,163.5 C 167.7,163.8 168.2,163.8 168.9,164.129 C 169.6,164.3 171.6,164.7 172.6,165.7 C 173.3,166.3 173.9,166.9 174.731,167.4 C 175.6,168.0 176.3,168.3 177.5,168.8 C 178.4,169.1 179.5,169.5 180.5,169.6 C 181.6,169.6 181.8,169.6 182.8,169.6 C 183.6,169.6 184.4,169.6 185.2,169.6 L 182.8,169.6 C 183.6,169.6 184.4,169.6 185.2,169.6" font-size="12px" fill="none" fill-rule="evenodd" stroke="#000000" stroke-width="1pt"/>
    <path transform="matrix(2.402454,0,0,2.402454,-17.21325,7.103897)" d="M 165.0,174.4 C 167.6,174.2 171.9,175.0 171.9,175.0 C 172,175.062 177.6,174.9 177.6,174.9 C 180.6,174.6 181.3,173.5 181.8,172.7 C 182.9,171.0 183.7,170.4 184.5,169.1 C 185.9,168.0 187.8,170.4 187.9,170.4 C 192.7,175.0 188.8,180.6 188.6,180.8 C 186.2,183.0 185.6,183.1 184.2,181.7 C 182.7,180.0 182.3,179.2 181.1,178.6 C 178.8,177.5 173.9,178.4 173.8,178.4 C 173.8,178.4 171.3,179.3 171.3,179.3 C 170.2,179.7 169.4,180.8 167.4,181.1 C 165.3,181.3 164.6,181.1 163.6,179.4 C 162.272,177.3 162.9,174.7 165.0,174.4 z " font-size="12px" fill="#ffe606" fill-rule="evenodd" stroke="#000000" stroke-width="1pt"/>
    <path transform="matrix(-1.177409,-2.094158,2.094157,-1.177409,514.1974,939.9071)" d="M 238.8,224.5 C 238.9,224.1 239.2,220.3 239.1,220.3 C 238.9,220.3 233.3,213.7 233.5,213.7 C 233.6,213.7 240.6,215.3 240.6,215.1 C 240.6,214.8 243.4,208.1 243.4,208.0 C 243.4,207.9 246.8,216.2 246.8,216.2 L 253.8,219.2 L 248.9,223.2 C 248.9,223.2 250.0,231.0 250.062,231.2 C 250.0,231.3 245.1,226.5 245.1,226.5 L 239.8,227.1 C 239.8,227.1 239.1,224.7 238.8,224.5 z " font-size="12px" fill="#f9dd16" fill-opacity="0.98823499" fill-rule="evenodd" stroke="#000000" stroke-width="1pt"/>
    <path transform="matrix(-1.177409,-2.094158,2.094157,-1.177409,514.1974,939.9071)" d="M 201.1,122.1 C 196.5,124.5 178.7,144.8 176.3,148.0 C 174.2,152.6 170.2,158.4 166.1,162.1 C 161.7,165.5 159.3,170.0 159.9,174.3 C 159.9,179.6 162.9,183.3 165.2,187.0 C 166.7,188.7 168.6,189.8 170.6,190.0 C 174.7,190.5 175.1,191.8 177.2,192.6 C 185.3,203.7 197.5,211.9 206.3,218.4 C 211.9,221.4 215.8,224.3 217.1,225.9 C 219.7,230.8 219.2,235.6 218.9,238.0 C 216.7,246.2 214.5,254.4 212.3,262.6 C 211.3,269.3 217.121,267.8 217.4,266.4 C 220.0,263.0 223.9,265.4 229.5,245.7 C 232.1,242.2 234.7,238.8 237.2,235.3 C 237.2,235.3 240.2,234.1 240.2,233.8 C 244.7,228.4 241.3,225.3 238.7,224.3 C 236.8,223.7 235.0,223.0 233.1,222.3 C 233.1,222.3 226.6,215.8 226.3,215.8 C 223.2,206.7 207.9,187.3 204.4,184.701 C 200.9,182.4 202.3,181.4 198.6,179.8 C 195.9,178.3 197.8,178.9 191.6,176.7 C 189.8,175.9 191.1,173.9 192.2,173.0 C 204.3,166.5 213.8,159.2 225.4,151.8 C 226.0,151.4 226.6,151.0 227.2,150.6 C 225.8,142.7 224.4,134.8 223.0,126.9 C 216.6,124.6 210.2,122.3 203.8,120.1 C 202.7,120.8 202.0,121.5 201.1,122.1 z " font-size="12px" fill="#ffffff" fill-rule="evenodd" stroke="#000000" stroke-width="1.594"/>
    <path transform="matrix(-1.177409,-2.094158,2.094157,-1.177409,514.1974,939.9071)" d="M 217.2,246.9 C 217.3,246.7 229.3,244.5 229.3,244.5 C 229.3,244.5 227.9,248.9 227.8,248.9 L 215.9,252.5 L 217.2,246.9 z " font-size="12px" fill="#f9dd16" fill-opacity="1" fill-rule="evenodd" stroke-width="1pt"/>
    <path transform="matrix(-1.177409,-2.094158,2.094157,-1.177409,514.1974,939.9071)" d="M 186.0,201.8 C 188.3,195.6 194.738,190.8 199.0,189.4" font-size="12px" fill="none" fill-rule="evenodd" stroke="#000000" stroke-width="1pt"/>
    <path transform="matrix(-1.177409,-2.094158,2.094157,-1.177409,514.1974,939.9071)" d="M 216.8,247.0 C 217.5,246.8 221.0,245.8 222.0,245.6 C 223.1,245.4 224.1,245.1 225.1,244.8 C 226.3,244.5 227.1,244.3 228.3,244.1 C 229.3,243.7 230.2,243.5 231.2,243.2 M 214.6,254.4 C 214.7,254.3 215.5,253.6 216.1,253.2 C 216.8,253.0 219.2,252.0 220.1,251.9 C 221.0,251.6 222.0,251.3 222.9,251.0 C 223.9,250.8 224.6,250.5 225.7,250.3 C 226.6,249.9 227.4,249.7 228.3,249.4" font-size="12px" fill="none" fill-rule="evenodd" stroke="#000000" stroke-width="1.105pt"/>
    <path transform="matrix(-1.177409,-2.094158,2.094157,-1.177409,514.1974,939.9071)" d="M 219.5,203.5 C 219.4,203.5 219.4,203.5 219.3,203.5 C 219.8,203.5 219.5,203.5 218.8,204.4 C 218.5,205.1 216.3,206.6 214.6,206.6 C 213.8,206.7 212.6,206.8 211.8,206.8 C 211.6,206.8 211.3,206.6 211.0,206.6" font-size="12px" fill="none" fill-rule="evenodd" stroke="#000000" stroke-width="1pt"/>
    <path transform="matrix(-1.177409,-2.094158,2.094157,-1.177409,514.1974,939.9071)" d="M 219.3,239.0 C 219.4,239.0 219.4,239.0 219.5,239.0 C 219.2,239.0 219.9,239.0 220.2,239.0 C 221.1,239.024 221.9,239.1 222.7,239.1 C 223.6,239.1 224.5,239.4 225.3,239.4 C 226.2,239.5 227.2,239.5 228.1,239.6 C 229.1,239.6 230.0,239.8 231.0,239.8 C 231.9,239.916 232.3,240.0 233.2,240.0 L 231.0,239.8 C 231.9,239.916 232.3,240.0 233.2,240.0" font-size="12px" fill="none" fill-rule="evenodd" stroke="#000000" stroke-width="1pt"/>
    <path transform="matrix(-1.177409,-2.094158,2.094157,-1.177409,514.1974,939.9071)" d="M 213.4,260.0 C 213.5,259.8 214.3,259.1 214.8,258.8 C 215.5,258.6 217.6,257.6 218.4,257.4 C 219.3,257.1 220.2,256.9 221.0,256.5 C 222.0,256.3 222.6,256.1 223.6,255.8 C 224.4,255.5 225.2,255.2 226.0,255.0" font-size="12px" fill="none" fill-rule="evenodd" stroke="#000000" stroke-width="1pt"/>
    <path transform="matrix(-1.177409,-2.094158,2.094157,-1.177409,514.1974,939.9071)" d="M 229.6,230.1 C 229.1,231.5 229.7,231.8 230.0,232.4 C 230.4,233.0 231.6,233.9 233.4,234.5 C 234.1,234.7 234.7,234.9 235.5,235.2 C 236.0,235.2 236.3,235.4 236.7,235.5" font-size="12px" fill="none" fill-rule="evenodd" stroke="#000000" stroke-width="1pt"/>
    <path transform="matrix(-1.177409,-2.094158,2.094157,-1.177409,514.1974,939.9071)" d="M 161.4,178.2 C 161.5,178.2 161.6,178.2 161.6,178.2 C 161.1,178.2 161.4,178.2 162.3,177.5 C 162.9,176.9 163.3,176.6 163.9,176.0" font-size="12px" fill="none" fill-rule="evenodd" stroke="#000000" stroke-width="1pt"/>
    <path transform="matrix(-1.177409,-2.094158,2.094157,-1.177409,514.1974,939.9071)" d="M 172.6,190.5 C 172.7,190.5 182.6,185.5 183.7,184.4 C 184.4,183.9 185.0,183.3 185.9,182.7 C 186.5,182.4 186.9,182.0 187.4,181.6 C 187.9,181.0 188.5,180.6 188.8,180.0 C 189.4,179.5 189.2,178.9 189.7,178.2 C 189.9,177.6 190.3,176.5 190.5,175.9" font-size="12px" fill="none" fill-rule="evenodd" stroke="#000000" stroke-width="1pt"/>
    <path transform="matrix(-1.177409,-2.094158,2.094157,-1.177409,514.1974,939.9071)" d="M 203.1,183.3 C 203.1,183.7 202.9,184.8 202.9,185.6 C 202.9,186.6 201.7,189.6 200.2,190.5" font-size="12px" fill="none" fill-rule="evenodd" stroke="#000000" stroke-width="1pt"/>
    <path transform="matrix(-1.177409,-2.094158,2.094157,-1.177409,514.1974,939.9071)" d="M 185.3,183.2 C 185.4,183.2 186.9,183.7 189.4,184.5 C 192.4,185.6 198.7,189.5 199.3,190.1 C 200.0,190.6 201.1,191.0 201.6,191.6 C 202.2,192.2 202.8,192.951 203.3,193.5 C 203.9,194.3 204.5,194.986 204.8,195.6 C 206.7,197.1 211.9,207.9 212.1,208.5 C 212.4,209.1 212.7,209.9 212.9,210.4 C 213.3,210.8 213.6,211.5 214.0,212.1 C 214.3,213.0 214.7,213.4 215.2,214.0 C 215.7,214.4 216.5,215.2 217.2,215.6 C 218.0,216.2 218.7,216.5 219.3,216.9 C 220.1,217.3 229.2,223.0 229.6,223.3 C 230.4,224.0 233.0,226.6 231.2,228.5 C 230.4,229.1 229.8,230.0 229.1,230.4 C 228.5,231.0 227.5,231.3 226.8,231.7 C 222.7,232.9 220.6,232.4 219.8,232.4 C 219.5,232.4 219.2,232.4 219.0,232.4" font-size="12px" fill="none" fill-rule="evenodd" stroke="#000000" stroke-width="1pt"/>
    <path transform="matrix(-1.177409,-2.094158,2.094157,-1.177409,514.1974,939.9071)" d="M 165.6,163.0 C 165.6,163.0 165.7,163.0 165.8,163.0 C 165.3,163.0 165.5,163.0 166.4,163.2 C 167.1,163.5 168.2,163.8 168.9,164.129 C 169.6,164.3 170.5,164.4 170.9,164.8 C 171.7,164.9 172.2,165.4 172.8,165.8 C 173.5,166.5 174.1,166.9 174.926,167.4 C 175.8,168.0 176.6,168.3 177.5,168.9 C 178.4,169.1 179.0,169.4 180.0,169.4 C 181.0,169.5 181.8,169.6 182.8,169.6 C 183.6,169.6 184.4,169.6 185.2,169.6 L 182.8,169.6 C 183.6,169.6 184.4,169.6 185.2,169.6" font-size="12px" fill="none" fill-rule="evenodd" stroke="#000000" stroke-width="1pt"/>
    <path transform="matrix(-1.177409,-2.094158,2.094157,-1.177409,514.1974,939.9071)" d="M 165.0,174.4 C 167.6,174.2 171.9,175.0 171.9,175.0 C 172,175.062 177.6,174.9 177.6,174.9 C 180.6,174.6 181.3,173.5 181.8,172.7 C 182.9,171.0 183.7,170.4 184.5,169.1 C 185.9,168.0 187.8,170.4 187.9,170.4 C 192.7,175.0 188.8,180.6 188.6,180.8 C 186.2,183.0 185.6,183.1 184.2,181.7 C 182.7,180.0 182.3,179.2 181.1,178.6 C 178.8,177.5 173.9,178.4 173.8,178.4 C 173.8,178.4 171.3,179.3 171.3,179.3 C 170.2,179.7 169.4,180.8 167.4,181.1 C 165.3,181.3 164.6,181.1 163.6,179.4 C 162.272,177.3 162.9,174.7 165.0,174.4 z " font-size="12px" fill="#f9dd16" fill-opacity="1" fill-rule="evenodd" stroke="#000000" stroke-width="1pt"/>
    <g transform="matrix(-1.107009,2.132209,-2.132209,-1.10701,1044.277,-15.62964)">
      <path d="M 238.8,224.5 C 238.9,224.1 239.2,220.3 239.1,220.3 C 238.9,220.3 233.3,213.7 233.5,213.7 C 233.6,213.7 240.6,215.3 240.6,215.1 C 240.6,214.8 243.4,208.1 243.4,208.0 C 243.4,207.9 246.8,216.2 246.8,216.2 L 253.8,219.2 L 248.9,223.2 C 248.9,223.2 250.0,231.0 250.062,231.2 C 250.0,231.3 245.1,226.5 245.1,226.5 L 239.8,227.1 C 239.8,227.1 239.1,224.7 238.8,224.5 z " fill="#f9dd16" fill-opacity="0.98823499" fill-rule="evenodd" stroke="#000000" stroke-width="1pt" stroke-linecap="butt" stroke-linejoin="miter" stroke-opacity="1"/>
      <path d="M 201.1,122.1 C 196.5,124.5 178.7,144.8 176.3,148.0 C 174.2,152.6 170.2,158.4 166.1,162.1 C 161.7,165.5 159.3,170.0 159.9,174.3 C 159.9,179.6 162.9,183.3 165.2,187.0 C 166.7,188.7 168.6,189.8 170.6,190.0 C 174.7,190.5 175.1,191.8 177.2,192.6 C 185.3,203.7 197.5,211.9 206.3,218.4 C 211.9,221.4 215.8,224.3 217.1,225.9 C 219.7,230.8 219.2,235.6 218.9,238.0 C 216.7,246.2 214.5,254.4 212.3,262.6 C 211.3,269.3 217.121,267.8 217.4,266.4 C 220.0,263.0 223.9,265.4 229.5,245.7 C 232.1,242.2 234.7,238.8 237.2,235.3 C 237.2,235.3 240.2,234.1 240.2,233.8 C 244.7,228.4 241.3,225.3 238.7,224.3 C 236.8,223.7 235.0,223.0 233.1,222.3 C 233.1,222.3 226.6,215.8 226.3,215.8 C 223.2,206.7 207.9,187.3 204.4,184.701 C 200.9,182.4 202.3,181.4 198.6,179.8 C 195.9,178.3 197.8,178.9 191.6,176.7 C 189.8,175.9 191.1,173.9 192.2,173.0 C 204.3,166.5 213.8,159.2 225.4,151.8 C 226.0,151.4 226.6,151.0 227.2,150.6 C 225.8,142.7 224.4,134.8 223.0,126.9 C 216.6,124.6 210.2,122.3 203.8,120.1 C 202.7,120.8 202.0,121.5 201.1,122.1 z " fill="#ffffff" fill-opacity="1" fill-rule="evenodd" stroke="#000000" stroke-width="1.594" stroke-linecap="butt" stroke-linejoin="miter" stroke-dasharray="none" stroke-opacity="1"/>
      <path d="M 217.2,246.9 C 217.3,246.7 229.3,244.5 229.3,244.5 C 229.3,244.5 227.9,248.9 227.8,248.9 L 215.9,252.5 L 217.2,246.9 z " fill="#f9dd16" fill-opacity="1" fill-rule="evenodd" stroke="none" stroke-width="1pt" stroke-linecap="butt" stroke-linejoin="miter" stroke-opacity="1"/>
      <path d="M 186.0,201.8 C 188.3,195.6 194.738,190.8 199.0,189.4" fill="none" fill-opacity="1" fill-rule="evenodd" stroke="#000000" stroke-width="1pt" stroke-linecap="butt" stroke-linejoin="miter" stroke-opacity="1"/>
      <path d="M 216.8,247.0 C 217.5,246.8 221.0,245.8 222.0,245.6 C 223.1,245.4 224.1,245.1 225.1,244.8 C 226.3,244.5 227.1,244.3 228.3,244.1 C 229.3,243.7 230.2,243.5 231.2,243.2 M 214.6,254.4 C 214.7,254.3 215.5,253.6 216.1,253.2 C 216.8,253.0 219.2,252.0 220.1,251.9 C 221.0,251.6 222.0,251.3 222.9,251.0 C 223.9,250.8 224.6,250.5 225.7,250.3 C 226.6,249.9 227.4,249.7 228.3,249.4" font-size="12px" fill="none" fill-rule="evenodd" stroke="#000000" stroke-width="1.105pt"/>
      <path d="M 219.5,203.5 C 219.4,203.5 219.4,203.5 219.3,203.5 C 219.8,203.5 219.5,203.5 218.8,204.4 C 218.5,205.1 216.3,206.6 214.6,206.6 C 213.8,206.7 212.6,206.8 211.8,206.8 C 211.6,206.8 211.3,206.6 211.0,206.6" fill="none" fill-opacity="1" fill-rule="evenodd" stroke="#000000" stroke-width="1pt" stroke-linecap="butt" stroke-linejoin="miter" stroke-opacity="1"/>
      <path d="M 219.3,239.0 C 219.4,239.0 219.4,239.0 219.5,239.0 C 219.2,239.0 219.9,239.0 220.2,239.0 C 221.1,239.024 221.9,239.1 222.7,239.1 C 223.6,239.1 224.5,239.4 225.3,239.4 C 226.2,239.5 227.2,239.5 228.1,239.6 C 229.1,239.6 230.0,239.8 231.0,239.8 C 231.9,239.916 232.3,240.0 233.2,240.0 L 231.0,239.8 C 231.9,239.916 232.3,240.0 233.2,240.0" fill="none" fill-opacity="1" fill-rule="evenodd" stroke="#000000" stroke-width="1pt" stroke-linecap="butt" stroke-linejoin="miter" stroke-opacity="1"/>
      <path d="M 213.4,260.0 C 213.5,259.8 214.3,259.1 214.8,258.8 C 215.5,258.6 217.6,257.6 218.4,257.4 C 219.3,257.1 220.2,256.9 221.0,256.5 C 222.0,256.3 222.6,256.1 223.6,255.8 C 224.4,255.5 225.2,255.2 226.0,255.0" fill="none" fill-opacity="1" fill-rule="evenodd" stroke="#000000" stroke-width="1pt" stroke-linecap="butt" stroke-linejoin="miter" stroke-opacity="1"/>
      <path d="M 229.6,230.1 C 229.1,231.5 229.7,231.8 230.0,232.4 C 230.4,233.0 231.6,233.9 233.4,234.5 C 234.1,234.7 234.7,234.9 235.5,235.2 C 236.0,235.2 236.3,235.4 236.7,235.5" fill="none" fill-opacity="1" fill-rule="evenodd" stroke="#000000" stroke-width="1pt" stroke-linecap="butt" stroke-linejoin="miter" stroke-opacity="1"/>
      <path d="M 161.4,178.2 C 161.5,178.2 161.6,178.2 161.6,178.2 C 161.1,178.2 161.4,178.2 162.3,177.5 C 162.9,176.9 163.3,176.6 163.9,176.0" fill="none" fill-opacity="1" fill-rule="evenodd" stroke="#000000" stroke-width="1pt" stroke-linecap="butt" stroke-linejoin="miter" stroke-opacity="1"/>
      <path d="M 172.6,190.5 C 172.7,190.5 182.6,185.5 183.7,184.4 C 184.4,183.9 185.0,183.3 185.9,182.7 C 186.5,182.4 186.9,182.0 187.4,181.6 C 187.9,181.0 188.5,180.6 188.8,180.0 C 189.4,179.5 189.2,178.9 189.7,178.2 C 189.9,177.6 190.3,176.5 190.5,175.9" fill="none" fill-opacity="1" fill-rule="evenodd" stroke="#000000" stroke-width="1pt" stroke-linecap="butt" stroke-linejoin="miter" stroke-opacity="1"/>
      <path d="M 203.1,183.3 C 203.1,183.7 202.9,184.8 202.9,185.6 C 202.9,186.6 201.7,189.6 200.2,190.5" fill="none" fill-opacity="1" fill-rule="evenodd" stroke="#000000" stroke-width="1pt" stroke-linecap="butt" stroke-linejoin="miter" stroke-opacity="1"/>
      <path d="M 185.3,183.2 C 185.4,183.2 186.9,183.7 189.4,184.5 C 192.4,185.6 198.7,189.5 199.3,190.1 C 200.0,190.6 201.1,191.0 201.6,191.6 C 202.2,192.2 202.8,192.951 203.3,193.5 C 203.9,194.3 204.5,194.986 204.8,195.6 C 206.7,197.1 211.9,207.9 212.1,208.5 C 212.4,209.1 212.7,209.9 212.9,210.4 C 213.3,210.8 213.6,211.5 214.0,212.1 C 214.3,213.0 214.7,213.4 215.2,214.0 C 215.7,214.4 216.5,215.2 217.2,215.6 C 218.0,216.2 218.7,216.5 219.3,216.9 C 220.1,217.3 229.2,223.0 229.6,223.3 C 230.4,224.0 233.0,226.6 231.2,228.5 C 230.4,229.1 229.8,230.0 229.1,230.4 C 228.5,231.0 227.5,231.3 226.8,231.7 C 222.7,232.9 220.6,232.4 219.8,232.4 C 219.5,232.4 219.2,232.4 219.0,232.4" fill="none" fill-opacity="1" fill-rule="evenodd" stroke="#000000" stroke-width="1pt" stroke-linecap="butt" stroke-linejoin="miter" stroke-opacity="1"/>
      <path d="M 165.6,163.0 C 165.6,163.0 165.7,163.0 165.8,163.0 C 165.3,163.0 165.5,163.0 166.4,163.2 C 167.1,163.5 168.2,163.8 168.9,164.129 C 169.6,164.3 170.5,164.4 170.9,164.8 C 171.7,164.9 172.2,165.4 172.8,165.8 C 173.5,166.5 174.1,166.9 174.926,167.4 C 175.8,168.0 176.6,168.3 177.5,168.9 C 178.4,169.1 179.0,169.4 180.0,169.4 C 181.0,169.5 181.8,169.6 182.8,169.6 C 183.6,169.6 184.4,169.6 185.2,169.6 L 182.8,169.6 C 183.6,169.6 184.4,169.6 185.2,169.6" fill="none" fill-opacity="1" fill-rule="evenodd" stroke="#000000" stroke-width="1pt" stroke-linecap="butt" stroke-linejoin="miter" stroke-opacity="1"/>
      <path d="M 221.2,142.9 C 221.1,142.9 221.0,142.9 220.8,142.9 C 221.5,142.9 221.3,142.9 220.3,143.1 C 219.3,143.6 218.0,144.0 217.1,144.5 C 216.0,144.8 214.9,145.2 214.0,145.7 C 212.9,146.3 211.9,146.8 210.91,147.6 C 209.9,148.1 208.9,148.7 207.9,149.3 C 207.0,149.8 206.2,150.3 205.4,151.0 C 204.7,151.4 203.7,151.9 202.9,152.5 C 202.2,152.8 201.7,153.3 201.2,153.7 C 200.3,154.6 199.8,155.025 198.8,155.8 C 198.3,156.3 197.7,156.8 196.9,157.5 C 196.1,158.1 195.3,159.1 194.7,159.6 C 194.3,160.1 193.7,160.7 193.1,161.2 C 192.7,161.7 192.2,162.4 191.6,162.9 C 191.2,163.4 190.6,164.1 190.0,164.8 C 189.6,165.3 188.9,165.9 188.5,166.5 C 187.9,167.2 187.4,167.8 186.8,168.4 C 186.6,168.8 186.4,169.0 186.2,169.2" fill="none" fill-opacity="1" fill-rule="evenodd" stroke="#000000" stroke-width="1pt" stroke-linecap="butt" stroke-linejoin="miter" stroke-opacity="1"/>
      <path d="M 165.0,174.4 C 167.6,174.2 171.9,175.0 171.9,175.0 C 172,175.062 177.6,174.9 177.6,174.9 C 180.6,174.6 181.3,173.5 181.8,172.7 C 182.9,171.0 183.7,170.4 184.5,169.1 C 185.9,168.0 187.8,170.4 187.9,170.4 C 192.7,175.0 188.8,180.6 188.6,180.8 C 186.2,183.0 185.6,183.1 184.2,181.7 C 182.7,180.0 182.3,179.2 181.1,178.6 C 178.8,177.5 173.9,178.4 173.8,178.4 C 173.8,178.4 171.3,179.3 171.3,179.3 C 170.2,179.7 169.4,180.8 167.4,181.1 C 165.3,181.3 164.6,181.1 163.6,179.4 C 162.272,177.3 162.9,174.7 165.0,174.4 z " fill="#f9dd16" fill-opacity="1" fill-rule="evenodd" stroke="#000000" stroke-width="1pt" stroke-linecap="butt" stroke-linejoin="miter" stroke-opacity="1"/>
    </g>
    <path d="M 469.8,290.1 C 467.5,288.0 512.6,306.4 518.8,306.6 C 527.3,303.5 562.2,274.0 562.2,274.0 C 562.6,276.9 563.8,284.4 567.2,286.0 C 553.7,296.9 541.4,307.5 527.9,318.4 C 528.9,335.8 525.7,354.2 534.5,373.7 C 534.5,373.7 524.0,373.9 524.0,373.7 C 514.7,364.3 511.4,319.5 511.4,319.5 C 496.5,312.8 481.7,306.4 466.9,299.8 C 469.0,298.4 470.8,294.2 469.8,290.1 z " font-size="12px" fill="#f9dd16" fill-opacity="0.98742095" fill-rule="evenodd" stroke="#000000" stroke-width="2.402pt"/>
    <path d="M 512.7,336.1 C 513.4,335.6 504.6,340.2 502.3,341.4 C 461.3,363.2 440.2,395.0 438.9,396.2 C 438.2,397.6 436.9,399.4 435.7,401.1 C 434.8,402.6 433.4,404.2 432.5,405.7 C 431.2,407.4 428.6,410.8 427.1,412.4 C 427.0,413.3 427.8,412.0 427.5,412.7" font-size="12px" fill="none" fill-rule="evenodd" stroke="#000000" stroke-width="2.402pt"/>
    <path d="M 540.7,310.1 C 539.9,309.7 548.1,315.5 550.1,317.0 C 588.3,343.4 626.2,347.6 627.9,348.2 C 629.4,348.2 631.6,348.6 633.7,348.8 C 635.5,349.0 637.5,349.5 639.2,349.6 C 641.3,350.0 645.6,350.7 647.6,351.3 C 648.6,351.0 647.0,350.9 647.7,350.8" font-size="12px" fill="none" fill-rule="evenodd" stroke="#000000" stroke-width="2.402pt"/>
  </g>
  <g transform="translate(471.5057,164.7357)">
    <path transform="matrix(2.402454,0,0,2.402454,-17.21325,7.103897)" d="M 238.8,224.5 C 238.9,224.1 239.2,220.3 239.1,220.3 C 238.9,220.3 233.3,213.7 233.5,213.7 C 233.6,213.7 240.6,215.3 240.6,215.1 C 240.6,214.8 243.4,208.1 243.4,208.0 C 243.4,207.9 246.8,216.2 246.8,216.2 L 253.8,219.2 L 248.9,223.2 C 248.9,223.2 250.0,231.0 250.062,231.2 C 250.0,231.3 245.1,226.5 245.1,226.5 L 239.8,227.1 C 239.8,227.1 239.1,224.7 238.8,224.5 z " font-size="12px" fill="#f9dd16" fill-opacity="0.98823499" fill-rule="evenodd" stroke="#000000" stroke-width="1pt"/>
    <path transform="matrix(2.402454,0,0,2.402454,-17.21325,7.103897)" d="M 201.1,122.1 C 196.5,124.5 178.7,144.8 176.3,148.0 C 174.2,152.6 170.2,158.4 166.1,162.1 C 161.7,165.5 159.3,170.0 159.9,174.3 C 159.9,179.6 162.9,183.3 165.2,187.0 C 166.7,188.7 168.6,189.8 170.6,190.0 C 174.7,190.5 175.1,191.8 177.2,192.6 C 185.3,203.7 197.5,211.9 206.3,218.4 C 211.9,221.4 215.8,224.3 217.1,225.9 C 219.7,230.8 219.2,235.6 218.9,238.0 C 216.7,246.2 214.5,254.4 212.3,262.6 C 211.3,269.3 217.121,267.8 217.4,266.4 C 220.0,263.0 223.9,265.4 229.5,245.7 C 232.1,242.2 234.7,238.8 237.2,235.3 C 237.2,235.3 240.2,234.1 240.2,233.8 C 244.7,228.4 241.3,225.3 238.7,224.3 C 236.8,223.7 235.0,223.0 233.1,222.3 C 233.1,222.3 226.6,215.8 226.3,215.8 C 223.2,206.7 208.0,187.5 204.4,184.8 C 202.0,182.3 200.8,181.2 198.5,179.8 C 194.9,178.1 193.8,177.5 191.6,176.7 C 189.8,175.9 191.1,173.9 192.2,173.0 C 204.3,166.5 213.8,159.2 225.4,151.8 C 226.0,151.4 226.6,151.0 227.2,150.6 C 225.8,142.7 224.4,134.8 223.0,126.9 C 216.6,124.6 210.2,122.3 203.8,120.1 C 202.7,120.8 202.0,121.5 201.1,122.1 z " font-size="12px" fill="#ffffff" fill-rule="evenodd" stroke="#000000" stroke-width="1.594"/>
    <path transform="matrix(2.402454,0,0,2.402454,-17.21325,7.103897)" d="M 217.2,246.9 C 217.3,246.7 229.3,244.5 229.3,244.5 C 229.3,244.5 227.9,248.9 227.8,248.9 L 215.9,252.5 L 217.2,246.9 z " font-size="12px" fill="#f9dd16" fill-opacity="1" fill-rule="evenodd" stroke-width="1pt"/>
    <path transform="matrix(2.402454,0,0,2.402454,-17.21325,7.103897)" d="M 186.0,201.8 C 188.3,195.6 194.738,190.8 199.0,189.4" font-size="12px" fill="none" fill-rule="evenodd" stroke="#000000" stroke-width="1pt"/>
    <path transform="matrix(2.402454,0,0,2.402454,-17.21325,7.103897)" d="M 216.8,247.0 C 217.5,246.8 221.0,245.8 222.0,245.6 C 223.1,245.4 224.1,245.1 225.1,244.8 C 226.3,244.5 227.1,244.3 228.3,244.1 C 229.3,243.7 230.2,243.5 231.2,243.2 M 214.6,254.4 C 214.7,254.3 215.5,253.6 216.1,253.2 C 216.8,253.0 219.2,252.0 220.1,251.9 C 221.0,251.6 222.0,251.3 222.9,251.0 C 223.9,250.8 224.6,250.5 225.7,250.3 C 226.6,249.9 227.4,249.7 228.3,249.4" font-size="12px" fill="none" fill-rule="evenodd" stroke="#000000" stroke-width="1.105pt"/>
    <path transform="matrix(2.402454,0,0,2.402454,-17.21325,7.103897)" d="M 219.5,203.5 C 219.4,203.5 219.4,203.5 219.3,203.5 C 219.8,203.5 219.5,203.5 218.8,204.4 C 218.5,205.1 216.3,206.6 214.6,206.6 C 213.8,206.7 212.6,206.8 211.8,206.8 C 211.6,206.8 211.3,206.6 211.0,206.6" font-size="12px" fill="none" fill-rule="evenodd" stroke="#000000" stroke-width="1pt"/>
    <path transform="matrix(2.402454,0,0,2.402454,-17.21325,7.103897)" d="M 219.3,239.0 C 219.4,239.0 219.4,239.0 219.5,239.0 C 219.2,239.0 219.9,239.0 220.2,239.0 C 221.1,239.024 221.9,239.1 222.7,239.1 C 223.6,239.1 224.5,239.4 225.3,239.4 C 226.2,239.5 227.2,239.5 228.1,239.6 C 229.1,239.6 230.0,239.8 231.0,239.8 C 231.9,239.916 232.3,240.0 233.2,240.0 L 231.0,239.8 C 231.9,239.916 232.3,240.0 233.2,240.0" font-size="12px" fill="none" fill-rule="evenodd" stroke="#000000" stroke-width="1pt"/>
    <path transform="matrix(2.402454,0,0,2.402454,-17.21325,7.103897)" d="M 213.4,260.0 C 213.5,259.8 214.3,259.1 214.8,258.8 C 215.5,258.6 217.6,257.6 218.4,257.4 C 219.3,257.1 220.2,256.9 221.0,256.5 C 222.0,256.3 222.6,256.1 223.6,255.8 C 224.4,255.5 225.2,255.2 226.0,255.0" font-size="12px" fill="none" fill-rule="evenodd" stroke="#000000" stroke-width="1pt"/>
    <path transform="matrix(2.402454,0,0,2.402454,-17.21325,7.103897)" d="M 229.6,230.1 C 229.1,231.5 229.7,231.8 230.0,232.4 C 230.4,233.0 231.6,233.9 233.4,234.5 C 234.1,234.7 234.7,234.9 235.5,235.2 C 236.0,235.2 236.3,235.4 236.7,235.5" font-size="12px" fill="none" fill-rule="evenodd" stroke="#000000" stroke-width="1pt"/>
    <path transform="matrix(2.402454,0,0,2.402454,-17.21325,7.103897)" d="M 161.4,178.2 C 161.5,178.2 161.6,178.2 161.6,178.2 C 161.1,178.2 161.4,178.2 162.3,177.5 C 162.9,176.9 163.3,176.6 163.9,176.0" font-size="12px" fill="none" fill-rule="evenodd" stroke="#000000" stroke-width="1pt"/>
    <path transform="matrix(2.402454,0,0,2.402454,-17.21325,7.103897)" d="M 172.6,190.5 C 172.7,190.5 182.6,185.5 183.7,184.4 C 184.4,183.9 185.0,183.3 185.9,182.7 C 186.5,182.4 186.9,182.0 187.4,181.6 C 187.9,181.0 188.5,180.6 188.8,180.0 C 189.4,179.5 189.2,178.9 189.7,178.2 C 189.9,177.6 190.3,176.5 190.5,175.9" font-size="12px" fill="none" fill-rule="evenodd" stroke="#000000" stroke-width="1pt"/>
    <path transform="matrix(2.402454,0,0,2.402454,-17.21325,7.103897)" d="M 203.1,183.3 C 203.1,183.7 202.9,184.8 202.9,185.6 C 202.9,186.6 201.7,189.6 200.2,190.5" font-size="12px" fill="none" fill-rule="evenodd" stroke="#000000" stroke-width="1pt"/>
    <path transform="matrix(2.402454,0,0,2.402454,-17.21325,7.103897)" d="M 185.3,183.2 C 185.4,183.2 186.9,183.7 189.4,184.5 C 192.4,185.6 198.7,189.5 199.3,190.1 C 200.0,190.6 201.1,191.0 201.6,191.6 C 202.2,192.2 202.8,192.951 203.3,193.5 C 203.9,194.3 204.5,194.986 204.8,195.6 C 206.7,197.1 211.9,207.9 212.1,208.5 C 212.4,209.1 212.7,209.9 212.9,210.4 C 213.3,210.8 213.6,211.5 214.0,212.1 C 214.3,213.0 214.7,213.4 215.2,214.0 C 215.7,214.4 216.5,215.2 217.2,215.6 C 218.0,216.2 218.7,216.5 219.3,216.9 C 220.1,217.3 229.2,223.0 229.6,223.3 C 230.4,224.0 233.0,226.6 231.2,228.5 C 230.4,229.1 229.8,230.0 229.1,230.4 C 228.5,231.0 227.5,231.3 226.8,231.7 C 222.7,232.9 220.6,232.4 219.8,232.4 C 219.5,232.4 219.2,232.4 219.0,232.4" font-size="12px" fill="none" fill-rule="evenodd" stroke="#000000" stroke-width="1pt"/>
    <path transform="matrix(2.402454,0,0,2.402454,-17.21325,7.103897)" d="M 165.3,162.9 C 166.4,163.4 165.9,163.0 167.0,163.5 C 167.7,163.8 168.2,163.8 168.9,164.129 C 169.6,164.3 171.6,164.7 172.6,165.7 C 173.3,166.3 173.9,166.9 174.731,167.4 C 175.6,168.0 176.3,168.3 177.5,168.8 C 178.4,169.1 179.5,169.5 180.5,169.6 C 181.6,169.6 181.8,169.6 182.8,169.6 C 183.6,169.6 184.4,169.6 185.2,169.6 L 182.8,169.6 C 183.6,169.6 184.4,169.6 185.2,169.6" font-size="12px" fill="none" fill-rule="evenodd" stroke="#000000" stroke-width="1pt"/>
    <path transform="matrix(2.402454,0,0,2.402454,-17.21325,7.103897)" d="M 165.0,174.4 C 167.6,174.2 171.9,175.0 171.9,175.0 C 172,175.062 177.6,174.9 177.6,174.9 C 180.6,174.6 181.3,173.5 181.8,172.7 C 182.9,171.0 183.7,170.4 184.5,169.1 C 185.9,168.0 187.8,170.4 187.9,170.4 C 192.7,175.0 188.8,180.6 188.6,180.8 C 186.2,183.0 185.6,183.1 184.2,181.7 C 182.7,180.0 182.3,179.2 181.1,178.6 C 178.8,177.5 173.9,178.4 173.8,178.4 C 173.8,178.4 171.3,179.3 171.3,179.3 C 170.2,179.7 169.4,180.8 167.4,181.1 C 165.3,181.3 164.6,181.1 163.6,179.4 C 162.272,177.3 162.9,174.7 165.0,174.4 z " font-size="12px" fill="#ffe606" fill-rule="evenodd" stroke="#000000" stroke-width="1pt"/>
    <path transform="matrix(-1.177409,-2.094158,2.094157,-1.177409,514.1974,939.9071)" d="M 238.8,224.5 C 238.9,224.1 239.2,220.3 239.1,220.3 C 238.9,220.3 233.3,213.7 233.5,213.7 C 233.6,213.7 240.6,215.3 240.6,215.1 C 240.6,214.8 243.4,208.1 243.4,208.0 C 243.4,207.9 246.8,216.2 246.8,216.2 L 253.8,219.2 L 248.9,223.2 C 248.9,223.2 250.0,231.0 250.062,231.2 C 250.0,231.3 245.1,226.5 245.1,226.5 L 239.8,227.1 C 239.8,227.1 239.1,224.7 238.8,224.5 z " font-size="12px" fill="#f9dd16" fill-opacity="0.98823499" fill-rule="evenodd" stroke="#000000" stroke-width="1pt"/>
    <path transform="matrix(-1.177409,-2.094158,2.094157,-1.177409,514.1974,939.9071)" d="M 201.1,122.1 C 196.5,124.5 178.7,144.8 176.3,148.0 C 174.2,152.6 170.2,158.4 166.1,162.1 C 161.7,165.5 159.3,170.0 159.9,174.3 C 159.9,179.6 162.9,183.3 165.2,187.0 C 166.7,188.7 168.6,189.8 170.6,190.0 C 174.7,190.5 175.1,191.8 177.2,192.6 C 185.3,203.7 197.5,211.9 206.3,218.4 C 211.9,221.4 215.8,224.3 217.1,225.9 C 219.7,230.8 219.2,235.6 218.9,238.0 C 216.7,246.2 214.5,254.4 212.3,262.6 C 211.3,269.3 217.121,267.8 217.4,266.4 C 220.0,263.0 223.9,265.4 229.5,245.7 C 232.1,242.2 234.7,238.8 237.2,235.3 C 237.2,235.3 240.2,234.1 240.2,233.8 C 244.7,228.4 241.3,225.3 238.7,224.3 C 236.8,223.7 235.0,223.0 233.1,222.3 C 233.1,222.3 226.6,215.8 226.3,215.8 C 223.2,206.7 207.9,187.3 204.4,184.701 C 200.9,182.4 202.3,181.4 198.6,179.8 C 195.9,178.3 197.8,178.9 191.6,176.7 C 189.8,175.9 191.1,173.9 192.2,173.0 C 204.3,166.5 213.8,159.2 225.4,151.8 C 226.0,151.4 226.6,151.0 227.2,150.6 C 225.8,142.7 224.4,134.8 223.0,126.9 C 216.6,124.6 210.2,122.3 203.8,120.1 C 202.7,120.8 202.0,121.5 201.1,122.1 z " font-size="12px" fill="#ffffff" fill-rule="evenodd" stroke="#000000" stroke-width="1.594"/>
    <path transform="matrix(-1.177409,-2.094158,2.094157,-1.177409,514.1974,939.9071)" d="M 217.2,246.9 C 217.3,246.7 229.3,244.5 229.3,244.5 C 229.3,244.5 227.9,248.9 227.8,248.9 L 215.9,252.5 L 217.2,246.9 z " font-size="12px" fill="#f9dd16" fill-opacity="1" fill-rule="evenodd" stroke-width="1pt"/>
    <path transform="matrix(-1.177409,-2.094158,2.094157,-1.177409,514.1974,939.9071)" d="M 186.0,201.8 C 188.3,195.6 194.738,190.8 199.0,189.4" font-size="12px" fill="none" fill-rule="evenodd" stroke="#000000" stroke-width="1pt"/>
    <path transform="matrix(-1.177409,-2.094158,2.094157,-1.177409,514.1974,939.9071)" d="M 216.8,247.0 C 217.5,246.8 221.0,245.8 222.0,245.6 C 223.1,245.4 224.1,245.1 225.1,244.8 C 226.3,244.5 227.1,244.3 228.3,244.1 C 229.3,243.7 230.2,243.5 231.2,243.2 M 214.6,254.4 C 214.7,254.3 215.5,253.6 216.1,253.2 C 216.8,253.0 219.2,252.0 220.1,251.9 C 221.0,251.6 222.0,251.3 222.9,251.0 C 223.9,250.8 224.6,250.5 225.7,250.3 C 226.6,249.9 227.4,249.7 228.3,249.4" font-size="12px" fill="none" fill-rule="evenodd" stroke="#000000" stroke-width="1.105pt"/>
    <path transform="matrix(-1.177409,-2.094158,2.094157,-1.177409,514.1974,939.9071)" d="M 219.5,203.5 C 219.4,203.5 219.4,203.5 219.3,203.5 C 219.8,203.5 219.5,203.5 218.8,204.4 C 218.5,205.1 216.3,206.6 214.6,206.6 C 213.8,206.7 212.6,206.8 211.8,206.8 C 211.6,206.8 211.3,206.6 211.0,206.6" font-size="12px" fill="none" fill-rule="evenodd" stroke="#000000" stroke-width="1pt"/>
    <path transform="matrix(-1.177409,-2.094158,2.094157,-1.177409,514.1974,939.9071)" d="M 219.3,239.0 C 219.4,239.0 219.4,239.0 219.5,239.0 C 219.2,239.0 219.9,239.0 220.2,239.0 C 221.1,239.024 221.9,239.1 222.7,239.1 C 223.6,239.1 224.5,239.4 225.3,239.4 C 226.2,239.5 227.2,239.5 228.1,239.6 C 229.1,239.6 230.0,239.8 231.0,239.8 C 231.9,239.916 232.3,240.0 233.2,240.0 L 231.0,239.8 C 231.9,239.916 232.3,240.0 233.2,240.0" font-size="12px" fill="none" fill-rule="evenodd" stroke="#000000" stroke-width="1pt"/>
    <path transform="matrix(-1.177409,-2.094158,2.094157,-1.177409,514.1974,939.9071)" d="M 213.4,260.0 C 213.5,259.8 214.3,259.1 214.8,258.8 C 215.5,258.6 217.6,257.6 218.4,257.4 C 219.3,257.1 220.2,256.9 221.0,256.5 C 222.0,256.3 222.6,256.1 223.6,255.8 C 224.4,255.5 225.2,255.2 226.0,255.0" font-size="12px" fill="none" fill-rule="evenodd" stroke="#000000" stroke-width="1pt"/>
    <path transform="matrix(-1.177409,-2.094158,2.094157,-1.177409,514.1974,939.9071)" d="M 229.6,230.1 C 229.1,231.5 229.7,231.8 230.0,232.4 C 230.4,233.0 231.6,233.9 233.4,234.5 C 234.1,234.7 234.7,234.9 235.5,235.2 C 236.0,235.2 236.3,235.4 236.7,235.5" font-size="12px" fill="none" fill-rule="evenodd" stroke="#000000" stroke-width="1pt"/>
    <path transform="matrix(-1.177409,-2.094158,2.094157,-1.177409,514.1974,939.9071)" d="M 161.4,178.2 C 161.5,178.2 161.6,178.2 161.6,178.2 C 161.1,178.2 161.4,178.2 162.3,177.5 C 162.9,176.9 163.3,176.6 163.9,176.0" font-size="12px" fill="none" fill-rule="evenodd" stroke="#000000" stroke-width="1pt"/>
    <path transform="matrix(-1.177409,-2.094158,2.094157,-1.177409,514.1974,939.9071)" d="M 172.6,190.5 C 172.7,190.5 182.6,185.5 183.7,184.4 C 184.4,183.9 185.0,183.3 185.9,182.7 C 186.5,182.4 186.9,182.0 187.4,181.6 C 187.9,181.0 188.5,180.6 188.8,180.0 C 189.4,179.5 189.2,178.9 189.7,178.2 C 189.9,177.6 190.3,176.5 190.5,175.9" font-size="12px" fill="none" fill-rule="evenodd" stroke="#000000" stroke-width="1pt"/>
    <path transform="matrix(-1.177409,-2.094158,2.094157,-1.177409,514.1974,939.9071)" d="M 203.1,183.3 C 203.1,183.7 202.9,184.8 202.9,185.6 C 202.9,186.6 201.7,189.6 200.2,190.5" font-size="12px" fill="none" fill-rule="evenodd" stroke="#000000" stroke-width="1pt"/>
    <path transform="matrix(-1.177409,-2.094158,2.094157,-1.177409,514.1974,939.9071)" d="M 185.3,183.2 C 185.4,183.2 186.9,183.7 189.4,184.5 C 192.4,185.6 198.7,189.5 199.3,190.1 C 200.0,190.6 201.1,191.0 201.6,191.6 C 202.2,192.2 202.8,192.951 203.3,193.5 C 203.9,194.3 204.5,194.986 204.8,195.6 C 206.7,197.1 211.9,207.9 212.1,208.5 C 212.4,209.1 212.7,209.9 212.9,210.4 C 213.3,210.8 213.6,211.5 214.0,212.1 C 214.3,213.0 214.7,213.4 215.2,214.0 C 215.7,214.4 216.5,215.2 217.2,215.6 C 218.0,216.2 218.7,216.5 219.3,216.9 C 220.1,217.3 229.2,223.0 229.6,223.3 C 230.4,224.0 233.0,226.6 231.2,228.5 C 230.4,229.1 229.8,230.0 229.1,230.4 C 228.5,231.0 227.5,231.3 226.8,231.7 C 222.7,232.9 220.6,232.4 219.8,232.4 C 219.5,232.4 219.2,232.4 219.0,232.4" font-size="12px" fill="none" fill-rule="evenodd" stroke="#000000" stroke-width="1pt"/>
    <path transform="matrix(-1.177409,-2.094158,2.094157,-1.177409,514.1974,939.9071)" d="M 165.6,163.0 C 165.6,163.0 165.7,163.0 165.8,163.0 C 165.3,163.0 165.5,163.0 166.4,163.2 C 167.1,163.5 168.2,163.8 168.9,164.129 C 169.6,164.3 170.5,164.4 170.9,164.8 C 171.7,164.9 172.2,165.4 172.8,165.8 C 173.5,166.5 174.1,166.9 174.926,167.4 C 175.8,168.0 176.6,168.3 177.5,168.9 C 178.4,169.1 179.0,169.4 180.0,169.4 C 181.0,169.5 181.8,169.6 182.8,169.6 C 183.6,169.6 184.4,169.6 185.2,169.6 L 182.8,169.6 C 183.6,169.6 184.4,169.6 185.2,169.6" font-size="12px" fill="none" fill-rule="evenodd" stroke="#000000" stroke-width="1pt"/>
    <path transform="matrix(-1.177409,-2.094158,2.094157,-1.177409,514.1974,939.9071)" d="M 165.0,174.4 C 167.6,174.2 171.9,175.0 171.9,175.0 C 172,175.062 177.6,174.9 177.6,174.9 C 180.6,174.6 181.3,173.5 181.8,172.7 C 182.9,171.0 183.7,170.4 184.5,169.1 C 185.9,168.0 187.8,170.4 187.9,170.4 C 192.7,175.0 188.8,180.6 188.6,180.8 C 186.2,183.0 185.6,183.1 184.2,181.7 C 182.7,180.0 182.3,179.2 181.1,178.6 C 178.8,177.5 173.9,178.4 173.8,178.4 C 173.8,178.4 171.3,179.3 171.3,179.3 C 170.2,179.7 169.4,180.8 167.4,181.1 C 165.3,181.3 164.6,181.1 163.6,179.4 C 162.272,177.3 162.9,174.7 165.0,174.4 z " font-size="12px" fill="#f9dd16" fill-opacity="1" fill-rule="evenodd" stroke="#000000" stroke-width="1pt"/>
    <g transform="matrix(-1.107009,2.132209,-2.132209,-1.10701,1044.277,-15.62964)">
      <path d="M 238.8,224.5 C 238.9,224.1 239.2,220.3 239.1,220.3 C 238.9,220.3 233.3,213.7 233.5,213.7 C 233.6,213.7 240.6,215.3 240.6,215.1 C 240.6,214.8 243.4,208.1 243.4,208.0 C 243.4,207.9 246.8,216.2 246.8,216.2 L 253.8,219.2 L 248.9,223.2 C 248.9,223.2 250.0,231.0 250.062,231.2 C 250.0,231.3 245.1,226.5 245.1,226.5 L 239.8,227.1 C 239.8,227.1 239.1,224.7 238.8,224.5 z " fill="#f9dd16" fill-opacity="0.98823499" fill-rule="evenodd" stroke="#000000" stroke-width="1pt" stroke-linecap="butt" stroke-linejoin="miter" stroke-opacity="1"/>
      <path d="M 201.1,122.1 C 196.5,124.5 178.7,144.8 176.3,148.0 C 174.2,152.6 170.2,158.4 166.1,162.1 C 161.7,165.5 159.3,170.0 159.9,174.3 C 159.9,179.6 162.9,183.3 165.2,187.0 C 166.7,188.7 168.6,189.8 170.6,190.0 C 174.7,190.5 175.1,191.8 177.2,192.6 C 185.3,203.7 197.5,211.9 206.3,218.4 C 211.9,221.4 215.8,224.3 217.1,225.9 C 219.7,230.8 219.2,235.6 218.9,238.0 C 216.7,246.2 214.5,254.4 212.3,262.6 C 211.3,269.3 217.121,267.8 217.4,266.4 C 220.0,263.0 223.9,265.4 229.5,245.7 C 232.1,242.2 234.7,238.8 237.2,235.3 C 237.2,235.3 240.2,234.1 240.2,233.8 C 244.7,228.4 241.3,225.3 238.7,224.3 C 236.8,223.7 235.0,223.0 233.1,222.3 C 233.1,222.3 226.6,215.8 226.3,215.8 C 223.2,206.7 207.9,187.3 204.4,184.701 C 200.9,182.4 202.3,181.4 198.6,179.8 C 195.9,178.3 197.8,178.9 191.6,176.7 C 189.8,175.9 191.1,173.9 192.2,173.0 C 204.3,166.5 213.8,159.2 225.4,151.8 C 226.0,151.4 226.6,151.0 227.2,150.6 C 225.8,142.7 224.4,134.8 223.0,126.9 C 216.6,124.6 210.2,122.3 203.8,120.1 C 202.7,120.8 202.0,121.5 201.1,122.1 z " fill="#ffffff" fill-opacity="1" fill-rule="evenodd" stroke="#000000" stroke-width="1.594" stroke-linecap="butt" stroke-linejoin="miter" stroke-dasharray="none" stroke-opacity="1"/>
      <path d="M 217.2,246.9 C 217.3,246.7 229.3,244.5 229.3,244.5 C 229.3,244.5 227.9,248.9 227.8,248.9 L 215.9,252.5 L 217.2,246.9 z " fill="#f9dd16" fill-opacity="1" fill-rule="evenodd" stroke="none" stroke-width="1pt" stroke-linecap="butt" stroke-linejoin="miter" stroke-opacity="1"/>
      <path d="M 186.0,201.8 C 188.3,195.6 194.738,190.8 199.0,189.4" fill="none" fill-opacity="1" fill-rule="evenodd" stroke="#000000" stroke-width="1pt" stroke-linecap="butt" stroke-linejoin="miter" stroke-opacity="1"/>
      <path d="M 216.8,247.0 C 217.5,246.8 221.0,245.8 222.0,245.6 C 223.1,245.4 224.1,245.1 225.1,244.8 C 226.3,244.5 227.1,244.3 228.3,244.1 C 229.3,243.7 230.2,243.5 231.2,243.2 M 214.6,254.4 C 214.7,254.3 215.5,253.6 216.1,253.2 C 216.8,253.0 219.2,252.0 220.1,251.9 C 221.0,251.6 222.0,251.3 222.9,251.0 C 223.9,250.8 224.6,250.5 225.7,250.3 C 226.6,249.9 227.4,249.7 228.3,249.4" font-size="12px" fill="none" fill-rule="evenodd" stroke="#000000" stroke-width="1.105pt"/>
      <path d="M 219.5,203.5 C 219.4,203.5 219.4,203.5 219.3,203.5 C 219.8,203.5 219.5,203.5 218.8,204.4 C 218.5,205.1 216.3,206.6 214.6,206.6 C 213.8,206.7 212.6,206.8 211.8,206.8 C 211.6,206.8 211.3,206.6 211.0,206.6" fill="none" fill-opacity="1" fill-rule="evenodd" stroke="#000000" stroke-width="1pt" stroke-linecap="butt" stroke-linejoin="miter" stroke-opacity="1"/>
      <path d="M 219.3,239.0 C 219.4,239.0 219.4,239.0 219.5,239.0 C 219.2,239.0 219.9,239.0 220.2,239.0 C 221.1,239.024 221.9,239.1 222.7,239.1 C 223.6,239.1 224.5,239.4 225.3,239.4 C 226.2,239.5 227.2,239.5 228.1,239.6 C 229.1,239.6 230.0,239.8 231.0,239.8 C 231.9,239.916 232.3,240.0 233.2,240.0 L 231.0,239.8 C 231.9,239.916 232.3,240.0 233.2,240.0" fill="none" fill-opacity="1" fill-rule="evenodd" stroke="#000000" stroke-width="1pt" stroke-linecap="butt" stroke-linejoin="miter" stroke-opacity="1"/>
      <path d="M 213.4,260.0 C 213.5,259.8 214.3,259.1 214.8,258.8 C 215.5,258.6 217.6,257.6 218.4,257.4 C 219.3,257.1 220.2,256.9 221.0,256.5 C 222.0,256.3 222.6,256.1 223.6,255.8 C 224.4,255.5 225.2,255.2 226.0,255.0" fill="none" fill-opacity="1" fill-rule="evenodd" stroke="#000000" stroke-width="1pt" stroke-linecap="butt" stroke-linejoin="miter" stroke-opacity="1"/>
      <path d="M 229.6,230.1 C 229.1,231.5 229.7,231.8 230.0,232.4 C 230.4,233.0 231.6,233.9 233.4,234.5 C 234.1,234.7 234.7,234.9 235.5,235.2 C 236.0,235.2 236.3,235.4 236.7,235.5" fill="none" fill-opacity="1" fill-rule="evenodd" stroke="#000000" stroke-width="1pt" stroke-linecap="butt" stroke-linejoin="miter" stroke-opacity="1"/>
      <path d="M 161.4,178.2 C 161.5,178.2 161.6,178.2 161.6,178.2 C 161.1,178.2 161.4,178.2 162.3,177.5 C 162.9,176.9 163.3,176.6 163.9,176.0" fill="none" fill-opacity="1" fill-rule="evenodd" stroke="#000000" stroke-width="1pt" stroke-linecap="butt" stroke-linejoin="miter" stroke-opacity="1"/>
      <path d="M 172.6,190.5 C 172.7,190.5 182.6,185.5 183.7,184.4 C 184.4,183.9 185.0,183.3 185.9,182.7 C 186.5,182.4 186.9,182.0 187.4,181.6 C 187.9,181.0 188.5,180.6 188.8,180.0 C 189.4,179.5 189.2,178.9 189.7,178.2 C 189.9,177.6 190.3,176.5 190.5,175.9" fill="none" fill-opacity="1" fill-rule="evenodd" stroke="#000000" stroke-width="1pt" stroke-linecap="butt" stroke-linejoin="miter" stroke-opacity="1"/>
      <path d="M 203.1,183.3 C 203.1,183.7 202.9,184.8 202.9,185.6 C 202.9,186.6 201.7,189.6 200.2,190.5" fill="none" fill-opacity="1" fill-rule="evenodd" stroke="#000000" stroke-width="1pt" stroke-linecap="butt" stroke-linejoin="miter" stroke-opacity="1"/>
      <path d="M 185.3,183.2 C 185.4,183.2 186.9,183.7 189.4,184.5 C 192.4,185.6 198.7,189.5 199.3,190.1 C 200.0,190.6 201.1,191.0 201.6,191.6 C 202.2,192.2 202.8,192.951 203.3,193.5 C 203.9,194.3 204.5,194.986 204.8,195.6 C 206.7,197.1 211.9,207.9 212.1,208.5 C 212.4,209.1 212.7,209.9 212.9,210.4 C 213.3,210.8 213.6,211.5 214.0,212.1 C 214.3,213.0 214.7,213.4 215.2,214.0 C 215.7,214.4 216.5,215.2 217.2,215.6 C 218.0,216.2 218.7,216.5 219.3,216.9 C 220.1,217.3 229.2,223.0 229.6,223.3 C 230.4,224.0 233.0,226.6 231.2,228.5 C 230.4,229.1 229.8,230.0 229.1,230.4 C 228.5,231.0 227.5,231.3 226.8,231.7 C 222.7,232.9 220.6,232.4 219.8,232.4 C 219.5,232.4 219.2,232.4 219.0,232.4" fill="none" fill-opacity="1" fill-rule="evenodd" stroke="#000000" stroke-width="1pt" stroke-linecap="butt" stroke-linejoin="miter" stroke-opacity="1"/>
      <path d="M 165.6,163.0 C 165.6,163.0 165.7,163.0 165.8,163.0 C 165.3,163.0 165.5,163.0 166.4,163.2 C 167.1,163.5 168.2,163.8 168.9,164.129 C 169.6,164.3 170.5,164.4 170.9,164.8 C 171.7,164.9 172.2,165.4 172.8,165.8 C 173.5,166.5 174.1,166.9 174.926,167.4 C 175.8,168.0 176.6,168.3 177.5,168.9 C 178.4,169.1 179.0,169.4 180.0,169.4 C 181.0,169.5 181.8,169.6 182.8,169.6 C 183.6,169.6 184.4,169.6 185.2,169.6 L 182.8,169.6 C 183.6,169.6 184.4,169.6 185.2,169.6" fill="none" fill-opacity="1" fill-rule="evenodd" stroke="#000000" stroke-width="1pt" stroke-linecap="butt" stroke-linejoin="miter" stroke-opacity="1"/>
      <path d="M 221.2,142.9 C 221.1,142.9 221.0,142.9 220.8,142.9 C 221.5,142.9 221.3,142.9 220.3,143.1 C 219.3,143.6 218.0,144.0 217.1,144.5 C 216.0,144.8 214.9,145.2 214.0,145.7 C 212.9,146.3 211.9,146.8 210.91,147.6 C 209.9,148.1 208.9,148.7 207.9,149.3 C 207.0,149.8 206.2,150.3 205.4,151.0 C 204.7,151.4 203.7,151.9 202.9,152.5 C 202.2,152.8 201.7,153.3 201.2,153.7 C 200.3,154.6 199.8,155.025 198.8,155.8 C 198.3,156.3 197.7,156.8 196.9,157.5 C 196.1,158.1 195.3,159.1 194.7,159.6 C 194.3,160.1 193.7,160.7 193.1,161.2 C 192.7,161.7 192.2,162.4 191.6,162.9 C 191.2,163.4 190.6,164.1 190.0,164.8 C 189.6,165.3 188.9,165.9 188.5,166.5 C 187.9,167.2 187.4,167.8 186.8,168.4 C 186.6,168.8 186.4,169.0 186.2,169.2" fill="none" fill-opacity="1" fill-rule="evenodd" stroke="#000000" stroke-width="1pt" stroke-linecap="butt" stroke-linejoin="miter" stroke-opacity="1"/>
      <path d="M 165.0,174.4 C 167.6,174.2 171.9,175.0 171.9,175.0 C 172,175.062 177.6,174.9 177.6,174.9 C 180.6,174.6 181.3,173.5 181.8,172.7 C 182.9,171.0 183.7,170.4 184.5,169.1 C 185.9,168.0 187.8,170.4 187.9,170.4 C 192.7,175.0 188.8,180.6 188.6,180.8 C 186.2,183.0 185.6,183.1 184.2,181.7 C 182.7,180.0 182.3,179.2 181.1,178.6 C 178.8,177.5 173.9,178.4 173.8,178.4 C 173.8,178.4 171.3,179.3 171.3,179.3 C 170.2,179.7 169.4,180.8 167.4,181.1 C 165.3,181.3 164.6,181.1 163.6,179.4 C 162.272,177.3 162.9,174.7 165.0,174.4 z " fill="#f9dd16" fill-opacity="1" fill-rule="evenodd" stroke="#000000" stroke-width="1pt" stroke-linecap="butt" stroke-linejoin="miter" stroke-opacity="1"/>
    </g>
    <path d="M 469.8,290.1 C 467.5,288.0 512.6,306.4 518.8,306.6 C 527.3,303.5 562.2,274.0 562.2,274.0 C 562.6,276.9 563.8,284.4 567.2,286.0 C 553.7,296.9 541.4,307.5 527.9,318.4 C 528.9,335.8 525.7,354.2 534.5,373.7 C 534.5,373.7 524.0,373.9 524.0,373.7 C 514.7,364.3 511.4,319.5 511.4,319.5 C 496.5,312.8 481.7,306.4 466.9,299.8 C 469.0,298.4 470.8,294.2 469.8,290.1 z " font-size="12px" fill="#f9dd16" fill-opacity="0.98742095" fill-rule="evenodd" stroke="#000000" stroke-width="2.402pt"/>
    <path d="M 512.7,336.1 C 513.4,335.6 504.6,340.2 502.3,341.4 C 461.3,363.2 440.2,395.0 438.9,396.2 C 438.2,397.6 436.9,399.4 435.7,401.1 C 434.8,402.6 433.4,404.2 432.5,405.7 C 431.2,407.4 428.6,410.8 427.1,412.4 C 427.0,413.3 427.8,412.0 427.5,412.7" font-size="12px" fill="none" fill-rule="evenodd" stroke="#000000" stroke-width="2.402pt"/>
    <path d="M 540.7,310.1 C 539.9,309.7 548.1,315.5 550.1,317.0 C 588.3,343.4 626.2,347.6 627.9,348.2 C 629.4,348.2 631.6,348.6 633.7,348.8 C 635.5,349.0 637.5,349.5 639.2,349.6 C 641.3,350.0 645.6,350.7 647.6,351.3 C 648.6,351.0 647.0,350.9 647.7,350.8" font-size="12px" fill="none" fill-rule="evenodd" stroke="#000000" stroke-width="2.402pt"/>
  </g>
</svg>
