<?xml version="1.0" encoding="UTF-8" standalone="no"?>
<svg xmlns:svg="http://www.w3.org/2000/svg" xmlns="http://www.w3.org/2000/svg" width="1000" height="600" version="1.0">
<rect width="1000" height="600" fill="#002b7f"/>
<rect width="1000" height="300" y="300" fill="#ce1126"/>

  <g transform="matrix(4.167382,0,0,4.167382,-5.460146,-5.458094)">
    <path d="M 31.92,40.60 C 31.20,40.96 30.00,41.48 29.58,41.96 C 32.21,43.33 33.82,51.41 36.15,53.85 C 36.38,57.76 71.26,57.94 71.38,54.45 C 71.43,52.84 73.55,52.91 74.13,51.70 C 75.44,48.96 77.61,44.18 79.44,43.52 C 80.28,43.23 79.86,42.75 79.14,42.27 C 78.43,41.79 77.71,41.31 76.75,41.14 C 77.71,40.42 77.71,39.46 77.05,38.63 C 78.51,37.59 78.27,36.36 77.27,35.80 C 78.74,34.57 78.07,33.09 76.99,33.05 C 77.99,31.62 77.55,30.07 75.80,30.15 C 76.32,28.64 75.00,27.60 73.77,28.08 C 73.5743,26.81 72.49,25.73 71.22,26.88 C 70.50,25.21 69.11,24.89 68.35,26.17 C 67.52,25.01 66.13,24.81 65.53,25.97 C 64.61,25.29 63.30,25.53 62.94,26.45 C 62.18,25.69 60.83,25.57 60.23,26.65 C 59.24,26.05 58.12,26.17 57.73,27.08 C 57.53,26.75 57.05,26.65 56.69,26.77 C 57.77,25.37 57.19,23.22 55.62,22.78 C 55.83,22.37 55.91,22.16 56.01,21.95 C 56.12,21.74 56.04,21.58 55.91,21.34 C 55.81,21.16 55.489,20.64 55.30,20.33 L 55.80,19.81 C 56.27,20.08 56.80,20.38 57.01,20.49 C 57.22,20.60 57.41,20.69 57.75,20.45 C 58.10,20.21 58.77,19.72 59.08,19.52 C 59.39,19.3264 59.23,19.16 58.99,18.98 C 58.75,18.79 58.02,18.29 57.75,18.11 C 57.49,17.94 57.30,17.98 56.98,18.14 C 56.66,18.30 56.19,18.54 55.79,18.74 C 55.64,18.58 55.43,18.39 55.21,18.31 C 55.76,17.25 55.97,16.81 56.11,16.57 C 56.24,16.34 56.29,16.14 56.15,15.84 C 56.00,15.55 55.36,14.31 55.19,14.03 C 55.02,13.75 54.85,13.81 54.62,14.13 C 54.24,14.66 53.76,15.38 53.57,15.66 C 53.39,15.94 53.32,16.06 53.49,16.43 C 53.72,16.91 54.08,17.77 54.26,18.14 C 54.14,18.21 53.88,18.43 53.79,18.60 C 53.27,18.35 52.72,18.10 52.49,17.98 C 52.25,17.86 52.09,17.90 51.84,18.0393 C 51.34,18.30 50.44,18.88 50.20,19.02 C 49.96,19.15 50.19,19.27 50.47,19.48 C 50.75,19.69 51.53,20.20 51.74,20.34 C 51.95,20.49 52.10,20.49 52.39,20.34 C 52.68,20.20 53.35,19.93 53.53,19.84 C 53.65,20.04 53.89,20.26 54.06,20.34 C 53.84,20.70 53.61,21.10 53.44,21.40 C 53.27,21.71 53.28,21.79 53.40,22.01 C 53.52,22.24 53.59,22.44 53.75,22.74 C 51.59,23.33 51.70,25.71 52.35,26.98 C 52.07,26.92 51.64,27.02 51.44,27.28 C 50.74,26.41 49.55,26.17 48.99,26.86 C 48.37,25.90 47.10,25.58 46.25,26.33 C 45.53,25.11 44.34,25.00 43.57,25.93 C 43.12,25.05 41.53,24.76 40.89,25.85 C 39.99,24.89 38.79,25.24 38.18,26.25 C 37.15,25.45 35.77,25.69 35.45,27.47 C 33.94,27.20 32.79,28.11 33.25,29.70 C 31.36,29.80 31.20,31.26 32.24,32.40 C 30.33,32.83 30.43,34.45 31.63,35.38 C 30.09,36.01 30.57,37.63 31.65,38.14 C 30.88,38.77 30.88,39.95 31.92,40.60 z " fill="#000"/>
    <g>
      <path d="M 32.16,35.80 C 30.84,35.80 30.8494,37.77 32.169,37.77 C 33.4887,37.77 33.48,35.80 32.16,35.80 z " fill="#ffd83d"/>
      <path d="M 32.64,38.29 C 31.32,38.29 31.32,40.26 32.64,40.26 C 33.96,40.26 33.96,38.29 32.64,38.29 z " fill="#ffd83d"/>
      <path d="M 32.19,32.96 C 30.87,32.96 30.87,34.93 32.19,34.93 C 33.51,34.93 33.51,32.96 32.19,32.96 z " fill="#ffd83d"/>
      <path d="M 33.01,30.20 C 31.69,30.20 31.69,32.17 33.01,32.17 C 34.33,32.17 34.33,30.20 33.01,30.20 z " fill="#ffd83d"/>
      <path d="M 34.58,27.92 C 33.26,27.92 33.26,29.88 34.58,29.88 C 35.90,29.88 35.90,27.92 34.58,27.92 z " fill="#ffd83d"/>
      <path d="M 36.97,26.29 C 35.59,26.29 35.59,28.33 36.97,28.33 C 38.34,28.33 38.34,26.29 36.97,26.29 z " fill="#ffd83d"/>
      <path d="M 39.51,25.74 C 38.14,25.74 38.14,27.79 39.51,27.79 C 40.89,27.79 40.89,25.74 39.51,25.74 z " fill="#ffd83d"/>
      <path d="M 42.12,25.58 C 40.74,25.58 40.74,27.63 42.12,27.63 C 43.49,27.63 43.49,25.58 42.12,25.58 z " fill="#ffd83d"/>
      <path d="M 44.77,25.93 C 43.40,25.93 43.40,27.97 44.77,27.97 C 46.14,27.97 46.14,25.93 44.77,25.93 z " fill="#ffd83d"/>
      <path d="M 47.42,26.38 C 46.05,26.38 46.05,28.42 47.42,28.42 C 48.80,28.42 48.80,26.38 47.42,26.38 z " fill="#ffd83d"/>
      <path d="M 49.94,26.94 C 48.57,26.94 48.57,28.98 49.94,28.98 C 51.32,28.98 51.32,26.94 49.94,26.94 z " fill="#ffd83d"/>
      <path d="M 52.39,27.39 C 51.01,27.39 51.01,29.43 52.39,29.43 C 53.76,29.43 53.76,27.39 52.39,27.39 z " fill="#ffd83d"/>
      <path d="M 56.79,27.19 C 55.42,27.19 55.42,29.23 56.79,29.23 C 58.16,29.23 58.16,27.19 56.79,27.19 z " fill="#ffd83d"/>
      <path d="M 59.14,26.71 C 57.77,26.71 57.77,28.76 59.14,28.76 C 60.51,28.76 60.51,26.71 59.14,26.71 z " fill="#ffd83d"/>
      <path d="M 61.61,26.27 C 60.23,26.27 60.23,28.32 61.61,28.32 C 62.98,28.32 62.98,26.27 61.61,26.27 z " fill="#ffd83d"/>
      <path d="M 54.70,18.56 C 53.67,18.56 53.67,20.09 54.70,20.09 C 55.72,20.09 55.72,18.56 54.70,18.56 z " fill="#ffd83d"/>
      <path d="M 64.27,25.99 C 62.90,25.99 62.90,28.04 64.27,28.04 C 65.65,28.04 65.65,25.99 64.27,25.99 z " fill="#ffd83d"/>
      <path d="M 66.86,25.72 C 65.49,25.72 65.49,27.76 66.86,27.76 C 68.24,27.7653 68.24,25.7201 66.86,25.72 z " fill="#ffd83d"/>
      <path d="M 69.61,25.95 C 68.24,25.95 68.24,28.00 69.61,28.00 C 70.98,28.00 70.98,25.95 69.61,25.95 z " fill="#ffd83d"/>
      <path d="M 72.28,26.83 C 70.90,26.83 70.90,28.87 72.28,28.87 C 73.65,28.87 73.65,26.83 72.28,26.83 z " fill="#ffd83d"/>
      <path d="M 74.47,28.4668 C 73.09,28.46 73.09,30.51 74.47,30.512 C 75.84,30.51 75.84,28.46 74.47,28.4668 z " fill="#ffd83d"/>
      <path d="M 76.10,30.61 C 74.72,30.61 74.72,32.66 76.10,32.66 C 77.47,32.66 77.47,30.61 76.10,30.61 z " fill="#ffd83d"/>
      <path d="M 76.73,33.51 C 75.44,33.51 75.44,35.44 76.73,35.44 C 78.03,35.44 78.03,33.51 76.73,33.51 z " fill="#ffd83d"/>
      <path d="M 76.65,36.14 C 75.36,36.14 75.36,38.07 76.65,38.07 C 77.95,38.07 77.95,36.14 76.65,36.14 z " fill="#ffd83d"/>
      <path d="M 76.06,38.81 C 74.76,38.81 74.76,40.74 76.06,40.74 C 77.35,40.74 77.35,38.81 76.06,38.81 z " fill="#ffd83d"/>
      <path d="M 54.46,30.01 C 53.54,30.01 53.54,31.37 54.46,31.37 C 55.37,31.37 55.37,30.01 54.46,30.01 z " fill="#ffd83d"/>
      <path d="M 54.56,28.07 C 53.72,28.07 53.72,29.43 54.56,29.43 C 55.40,29.43 55.40,28.07 54.56,28.07 z " fill="#ffd83d"/>
      <path d="M 54.40,31.95 C 53.33,31.95 53.33,33.55 54.40,33.55 C 55.47,33.55 55.47,31.95 54.40,31.95 z " fill="#ffd83d"/>
      <path d="M 54.46,34.06 C 53.23,34.06 53.23,35.88 54.46,35.88 C 55.68,35.88 55.68,34.06 54.46,34.06 z " fill="#ffd83d"/>
      <path d="M 54.43,36.34 C 53.21,36.34 53.21,38.16 54.43,38.16 C 55.65,38.16 55.65,36.34 54.43,36.34 z " fill="#ffd83d"/>
      <path d="M 36.78,53.53 C 37.07,53.45 37.27,53.55 37.12,52.97 C 36.97,52.39 37.18,52.10 37.44,52.89 C 37.61,53.41 37.59,53.30 37.86,53.24 C 38.14,53.17 38.21,53.26 38.14,52.81 C 38.08,52.36 38.26,52.12 38.43,52.69 C 38.57,53.12 38.58,53.06 38.82,53.01 C 39.06,52.95 39.24,53.08 39.12,52.57 C 39.00,52.07 39.20,52.04 39.35,52.51 C 39.48,52.92 39.48,52.87 39.75,52.81 C 40.01,52.75 40.15,52.84 40.08,52.37 C 40.01,51.91 40.14,51.78 40.33,52.31 C 40.50,52.79 40.56,52.65 40.86,52.59 C 41.16,52.53 41.34,52.59 41.26,52.14 C 41.18,51.68 41.32,51.35 41.58,52.08 C 41.72,52.49 41.75,52.45 42.15,52.38 C 42.55,52.30 42.68,52.37 42.61,51.98 C 42.55,51.58 42.76,51.43 42.89,51.91 C 42.98,52.25 43.03,52.26 43.40,52.19 C 43.77,52.13 43.89,52.23 43.86,51.67 C 43.83,51.11 44.03,50.79 44.13,51.66 C 44.19,52.23 44.2237,52.09 44.60,52.05 C 44.99,52.01 45.13,52.03 45.09,51.59 C 45.05,51.15 45.26,50.94 45.33,51.55 C 45.40,52.07 45.45,51.94 45.76,51.92 C 46.07,51.91 46.22,52.02 46.20,51.47 C 46.17,50.93 46.46,50.73 46.51,51.45 C 46.55,51.98 46.65,51.84 46.94,51.82 C 47.31,51.79 47.35,51.91 47.35,51.45 C 47.35,50.76 47.64,50.74 47.67,51.33 C 47.70,51.87 47.79,51.76 48.09,51.74 C 48.52,51.72 48.64,51.82 48.61,51.29 C 48.59,50.84 48.85,50.83 48.93,51.26 C 49.01,51.69 48.89,51.70 49.34,51.67 C 49.79,51.65 49.71,51.70 49.73,51.21 C 49.74,50.72 50.04,50.68 50.06,51.19 C 50.07,51.71 50.02,51.64 50.49,51.63 C 50.97,51.62 50.99,51.72 50.96,51.21 C 50.93,50.69 51.29,50.48 51.33,51.17 C 51.36,51.61 51.22,51.61 51.83,51.61 C 52.44,51.61 52.42,51.71 52.45,51.15 C 52.47,50.60 52.79,50.45 52.80,51.10 C 52.82,51.75 52.98,51.60 53.23,51.61 C 53.48,51.61 53.75,51.60 53.96,51.61 C 54.17,51.63 54.14,51.64 54.14,51.17 C 54.14,50.69 54.45,50.50 54.45,51.18 C 54.4532,51.63 54.32,51.60 54.86,51.64 C 55.40,51.67 55.29,51.7155 55.30,51.22 C 55.31,50.73 55.59,50.63 55.60,51.23 C 55.62,51.75 55.63,51.66 55.91,51.67 C 56.19,51.69 56.30,51.75 56.28,51.33 C 56.25,50.81 56.72,50.44 56.69,51.34 C 56.68,51.79 56.61,51.71 57.05,51.73 C 57.49,51.76 57.39,51.80 57.42,51.34 C 57.46,50.81 57.85,50.57 57.79,51.35 C 57.77,51.71 57.71,51.74 58.15,51.81 C 58.59,51.87 58.63,51.86 58.64,51.39 C 58.67,50.65 59.0052,50.8 58.99,51.37 C 58.97,51.94 58.89,51.85 59.36,51.90 C 59.82,51.96 59.91,52.06 59.96,51.50 C 60.01,50.81 60.31,50.86 60.29,51.51 C 60.26,52.16 60.34,52.00 60.59,52.03 C 60.84,52.05 60.96,52.20 61.00,51.67 C 61.04,51.14 61.44,50.92 61.34,51.66 C 61.27,52.10 61.35,52.10 61.67,52.15 C 61.98,52.20 62.12,52.33 62.18,51.82 C 62.25,51.30 62.60,51.21 62.52,51.82 C 62.45,52.32 62.49,52.24 62.79,52.29 C 63.08,52.35 63.20,52.51 63.26,51.99 C 63.34,51.33 63.71,51.34 63.63,52.02 C 63.59,52.36 63.63,52.41 63.84,52.45 C 64.05,52.49 64.27,52.52 64.40,52.54 C 64.53,52.55 64.59,52.59 64.64,52.12 C 64.69,51.66 65.04,51.52 65.00,52.16 C 64.96,52.80 65.01,52.64 65.29,52.69 C 65.56,52.73 65.61,52.79 65.69,52.32 C 65.77,51.86 66.07,51.75 65.99,52.33 C 65.91,52.92 65.97,52.78 66.24,52.86 C 66.52,52.94 66.55,52.97 66.66,52.53 C 66.76,52.10 67.20,51.96 67.03,52.59 C 66.88,53.13 66.91,52.96 67.21,53.06 C 67.52,53.15 67.65,53.25 67.76,52.81 C 67.86,52.37 68.18,52.21 68.04,52.84 C 67.93,53.32 68.05,53.24 68.34,53.30 C 68.63,53.36 68.70,53.54 68.82,53.02 C 68.94,52.51 69.30,52.53 69.14,53.05 C 68.98,53.57 68.98,53.45 69.36,53.54 C 69.75,53.63 69.73,53.75 69.88,53.24 C 70.03,52.72 70.41,52.76 70.25,53.32 C 70.09,53.87 70.15,53.73 70.45,53.81 C 70.74,53.90 70.77,54.01 70.94,53.49 C 71.11,52.97 71.33,53.01 71.19,53.55 C 71.10,53.93 71.01,54.01 71.54,54.01 C 72.07,54.01 72.38,53.80 73.09,52.64 C 74.84,49.77 75.92,45.17 78.94,43.34 C 79.49,43.00 79.16,42.58 78.15,42.22 C 74.62,40.98 71.14,41.16 69.34,45.83 C 69.06,46.54 68.77,46.35 68.94,45.73 C 69.63,43.15 69.31,40.06 67.11,39.44 C 64.21,38.61 60.87,41.21 59.86,44.29 C 59.70,44.79 59.48,44.58 59.39,43.9267 C 58.77,39.81 56.81,38.59 54.46,38.63 C 52.11,38.67 49.45,39.51 49.13,43.64 C 49.09,44.16 48.86,43.74 48.57,43.40 C 45.29,39.58 43.73,38.39 41.82,38.91 C 40.04,39.39 38.86,42.18 39.18,44.28 C 39.23,44.6023 39.00,44.91 38.82,44.32 C 37.68,40.68 33.59,39.49 30.57,41.69 C 30.31,41.88 30.09,41.80 30.78,42.46 C 32.81,44.40 33.59,49.37 36.19,53.28 C 36.38,53.55 36.45,53.62 36.78,53.53 z " fill="#ffd83d"/>
      <path d="M 36.27,32.20 C 35.30,33.45 35.48,36.87 36.27,38.54 L 36.27,32.20 z " fill="#ffd83d"/>
      <path d="M 36.65,39.11 C 36.89,39.50 37.19,39.82 37.50,40.02 L 37.50,31.07 C 37.17,31.29 36.87,31.55 36.65,31.87 L 36.65,39.11 z " fill="#ffd83d"/>
      <path d="M 37.87,40.23 C 38.23,40.31 38.53,40.30 38.86,40.18 L 38.86,30.37 C 38.54,30.49 38.23,30.63 37.87,30.80 L 37.87,40.23 z " fill="#ffd83d"/>
      <path d="M 39.22,40.01 C 39.48,39.87 39.75,39.66 40.05,39.38 C 40.08,39.36 40.11,39.34 40.13,39.31 L 40.13,30.00 C 39.82,30.06 39.51,30.14 39.22,30.24 L 39.22,40.01 z " fill="#ffd83d"/>
      <path d="M 40.49,39.02 C 40.76,38.81 41.04,38.65 41.33,38.52 L 41.33,29.83 C 41.04,29.85 40.76,29.88 40.49,29.93 L 40.49,39.02 z " fill="#ffd83d"/>
      <path d="M 41.68,38.39 C 41.91,38.32 42.15,38.27 42.40,38.26 L 42.40,29.79 C 42.16,29.79 41.92,29.79 41.68,29.80 L 41.68,38.39 z " fill="#ffd83d"/>
      <path d="M 42.76,38.26 C 43.00,38.27 43.25,38.32 43.52,38.39 L 43.52,29.87 C 43.26,29.84 43.01,29.82 42.76,29.81 L 42.76,38.26 z " fill="#ffd83d"/>
      <path d="M 43.83,38.50 C 44.14,38.61 44.46,38.77 44.79,38.98 L 44.79,30.07 C 44.47,30.00 44.15,29.95 43.83,29.90 L 43.83,38.50 z " fill="#ffd83d"/>
      <path d="M 45.15,39.22 C 45.43,39.42 45.72,39.65 45.96,39.92 L 45.96,30.40 C 45.73,30.30 45.44,30.22 45.15,30.15 L 45.15,39.22 z " fill="#ffd83d"/>
      <path d="M 46.35,40.22 C 46.63,40.48 46.91,40.68 47.18,40.81 L 47.18,30.82 C 46.89,30.70 46.60,30.59 46.35,30.53 L 46.35,40.22 z " fill="#ffd83d"/>
      <path d="M 47.54,40.93 C 47.85,41.00 48.13,40.95 48.41,40.81 L 48.41,31.43 C 48.13,31.27 47.84,31.12 47.54,30.98 L 47.54,40.93 z " fill="#ffd83d"/>
      <path d="M 48.75,40.52 C 49.12,40.30 49.41,40.02 49.73,39.70 L 49.73,32.31 C 49.45,32.09 49.16,31.88 48.75,31.69 L 48.75,40.52 z " fill="#ffd83d"/>
      <path d="M 50.04,39.29 C 50.71,38.03 51.96,34.61 50.04,32.58 L 50.04,39.29 z " fill="#ffd83d"/>
      <path d="M 58.54,32.31 L 58.54,39.82 C 58.83,40.23 59.16,40.55 59.54,40.78 L 59.54,31.66 C 59.15,31.84 58.82,32.06 58.54,32.31 z " fill="#ffd83d"/>
      <path d="M 66.07,38.60 C 66.29,38.61 66.56,38.66 66.86,38.79 L 66.86,30.18 C 66.56,30.14 66.30,30.15 66.07,30.17 L 66.07,38.60 z " fill="#ffd83d"/>
      <path d="M 67.26,38.92 C 67.55,39.05 67.84,39.24 68.14,39.47 L 68.14,30.21 C 67.85,30.17 67.56,30.15 67.26,30.14 L 67.26,38.92 z " fill="#ffd83d"/>
      <path d="M 69.37,30.47 C 69.08,30.38 68.77,30.31 68.49,30.26 L 68.49,39.74 C 68.78,40.04 69.08,40.32 69.3748,40.55 L 69.37,30.47 z " fill="#ffd83d"/>
      <path d="M 69.77,40.82 C 70.07,40.99 70.37,41.07 70.68,41.01 L 70.68,31.04 C 70.39,30.87 70.09,30.72 69.77,30.60 L 69.77,40.82 z " fill="#ffd83d"/>
      <path d="M 59.90,40.96 C 60.22,41.08 60.52,41.10 60.81,41.00 L 60.81,31.18 C 60.48,31.28 60.18,31.3898 59.90,31.50 L 59.90,40.96 z " fill="#ffd83d"/>
      <path d="M 62.01,30.86 C 61.7165,30.94 61.43,31.01 61.17,31.08 L 61.17,40.82 C 61.46,40.61 61.74,40.42 62.01,40.24 L 62.01,30.86 z " fill="#ffd83d"/>
      <path d="M 62.36,40.00 C 62.66,39.81 62.96,39.63 63.24,39.46 L 63.24,30.59 C 62.93,30.65 62.64,30.72 62.36,30.78 L 62.36,40.00 z " fill="#ffd83d"/>
      <path d="M 63.58,39.25 C 63.88,39.09 64.17,38.96 64.46,38.86 L 64.46,30.35 C 64.17,30.39 63.88,30.44 63.58,30.50 L 63.58,39.25 z " fill="#ffd83d"/>
      <path d="M 64.83,38.76 C 65.13,38.67 65.42,38.62 65.71,38.60 L 65.71,30.19 C 65.42,30.22 65.13,30.25 64.83,30.30 L 64.83,38.76 z " fill="#ffd83d"/>
      <path d="M 58.22,32.65 C 57.78,33.22 57.55,33.97 57.51,35.01 C 57.44,36.82 57.71,38.25 58.22,39.28 L 58.22,32.65 z " fill="#ffd83d"/>
      <path d="M 71.04,31.26 L 71.04,40.86 C 71.33,40.70 71.63,40.41 71.96,39.94 L 71.96,32.02 C 71.67,31.73 71.36,31.48 71.04,31.26 z " fill="#ffd83d"/>
      <path d="M 72.31,39.20 C 73.3408,37.33 73.69,34.41 72.31,32.55 L 72.31,39.20 z " fill="#ffd83d"/>
      <path d="M 57.07,29.83 C 67.34,27.56 71.18,27.58 73.75,30.75 C 76.32,33.91 75.18,38.09 74.23,41.02 C 73.71,41.10 72.59,41.37 72.08,41.65 C 74.29,36.48 74.47,33.9154 71.90,31.22 C 69.33,28.54 62.88,29.23 57.19,31.10 C 57.11,30.68 57.0281,30.24 57.07,29.83 z " fill="#ffd83d"/>
      <path d="M 56.67,29.79 C 56.71,32.74 56.75,36.48 57.55,38.95 C 57.08,38.64 56.66,38.51 56.23,38.43 C 55.76,33.68 55.48,30.55 55.52,29.83 C 55.92,29.75 56.27,29.75 56.67,29.79 z " fill="#ffd83d"/>
      <path d="M 52.25,29.87 C 52.13,32.74 51.70,36.92 50.85,38.96 C 51.52,38.68 51.97,38.31 52.49,38.23 C 53.01,36.40 53.33,31.62 53.53,29.99 C 53.09,29.87 52.85,29.83 52.25,29.87 z " fill="#ffd83d"/>
      <path d="M 51.66,30.03 C 42.28,27.10 37.39,27.82 35.59,29.91 C 33.80,32.00 32.73,34.57 34.46,40.00 C 35.22,40.14 36.05,40.22 36.69,40.70 C 33.82,34.73 34.79,32.07 37.41,30.39 C 40.75,28.24 46.84,29.75 51.48,31.04 C 51.66,30.67 51.66,30.27 51.66,30.03 z " fill="#ffd83d"/>
      <path d="M 53.75,23.16 C 53.27,23.29 52.83,23.78 52.69,24.20 C 52.65,24.32 52.64,24.33 52.98,24.34 C 53.32,24.35 53.46,24.33 53.65,24.33 C 53.85,24.33 53.81,24.24 53.81,24.07 C 53.81,23.90 53.85,23.39 53.86,23.26 C 53.87,23.13 53.86,23.13 53.75,23.16 z " fill="#ffd83d"/>
      <path d="M 54.25,23.10 C 54.25,23.58 54.18,24.27 54.17,24.48 C 54.16,24.69 54.17,24.70 53.86,24.71 C 53.54,24.72 52.67,24.80 52.51,24.81 C 52.35,24.82 52.36,24.89 52.35,25.02 C 52.34,25.15 52.35,25.42 52.37,25.58 C 52.39,25.74 52.51,25.71 52.82,25.66 C 53.91,25.49 55.33,25.52 56.42,25.74 C 56.64,25.78 56.72,25.67 56.73,25.48 C 56.74,25.29 56.78,25.11 56.75,24.94 C 56.72,24.77 56.69,24.77 56.4775,24.75 C 56.25,24.72 55.59,24.67 55.37,24.68 C 55.15,24.69 55.05,24.61 55.04,24.37 C 55.03,24.13 55.05,23.57 55.03,23.30 C 55.01,23.03 55.04,23.01 54.87,22.98 C 54.70,22.95 54.54,22.93 54.37,22.95 C 54.20,22.97 54.25,23.02 54.25,23.10 z " fill="#ffd83d"/>
      <path d="M 55.41,23.47 C 55.41,23.62 55.42,23.98 55.42,24.09 C 55.42,24.20 55.45,24.31 55.62,24.30 C 55.79,24.29 56.21,24.34 56.37,24.35 C 56.53,24.36 56.69,24.41 56.52,24.13 C 56.30,23.77 55.97,23.47 55.69,23.34 C 55.40,23.21 55.41,23.31 55.41,23.47 z " fill="#ffd83d"/>
      <path d="M 52.70,26.06 C 52.54,26.10 52.47,26.10 52.60,26.40 C 52.86,26.97 53.36,27.76 54.41,27.76 C 55.47,27.76 56.16,27.09 56.46,26.38 C 56.54,26.19 56.42,26.12 56.00,26.05 C 55.34,25.94 53.56,25.86 52.70,26.06 z " fill="#ffd83d"/>
      <path d="M 54.15,22.63 C 53.98,22.40 53.85,22.15 53.77,21.99 C 53.69,21.83 53.73,21.70 53.89,21.38 C 54.04,21.06 54.16,20.75 54.24,20.62 C 54.32,20.49 54.35,20.43 54.45,20.44 C 54.55,20.45 54.67,20.46 54.76,20.45 C 54.85,20.44 54.91,20.45 55.04,20.67 C 55.17,20.90 55.47,21.43 55.58,21.63 C 55.69,21.83 55.68,21.88 55.57,22.04 C 55.46,22.20 55.26,22.47 55.12,22.66 C 54.78,22.60 54.50,22.60 54.15,22.63 z " fill="#ffd83d"/>
      <path d="M 53.37,19.49 C 53.09,19.64 52.48,19.88 52.2846,19.95 C 52.08,20.01 51.99,20.09 51.66,19.87 C 51.32,19.64 51.06,19.45 50.89,19.33 C 50.71,19.22 50.59,19.14 50.97,18.94 C 51.34,18.74 51.59,18.58 51.83,18.46 C 52.07,18.34 52.24,18.29 52.57,18.43 C 52.90,18.58 53.16,18.68 53.43,18.80 C 53.38,18.99 53.31,19.29 53.37,19.49 z " fill="#ffd83d"/>
      <path d="M 54.72,18.09 C 54.46,17.50 54.03,16.67 53.91,16.38 C 53.79,16.08 53.75,16.03 53.99,15.73 C 54.23,15.42 54.52,14.85 54.67,14.65 C 54.81,14.45 54.86,14.30 55.04,14.61 C 55.32,15.10 55.50,15.47 55.66,15.81 C 55.82,16.14 55.87,16.26 55.73,16.51 C 55.42,17.04 55.01,17.85 54.89,18.09 L 54.72,18.09 z " fill="#ffd83d"/>
      <path d="M 55.93,19.04 C 55.96,19.1804 55.92,19.44 55.86,19.57 C 56.23,19.75 56.80,20.00 57.02,20.08 C 57.23,20.16 57.40,20.25 57.71,20.05 C 58.01,19.85 58.49,19.53 58.65,19.44 C 58.81,19.35 58.74,19.25 58.50,19.07 C 58.28,18.90 58.02,18.71 57.73,18.50 C 57.54,18.36 57.45,18.33 57.16,18.46 C 56.87,18.59 56.29,18.91 55.93,19.04 z " fill="#ffd83d"/>
    </g>
    <g>
      <path d="M 32.81,43.48 C 32.55,43.28 32.29,43.11 32.07,42.95 C 31.85,42.79 31.95,42.51 32.35,42.71 C 32.75,42.91 32.91,43.11 33.07,43.30 C 33.23,43.50 33.11,43.72 32.81,43.48 z " fill="#000"/>
      <path d="M 33.80,43.44 C 33.55,43.22 33.40,43.07 33.19,42.79 C 32.97,42.51 33.18,42.0297 33.52,42.55 C 33.72,42.85 33.86,43.03 33.96,43.21 C 34.06,43.38 34.00,43.62 33.80,43.44 z " fill="#000"/>
      <path d="M 34.34,42.87 C 34.48,43.19 34.67,43.54 34.79,43.78 C 34.91,44.01 35.27,44.09 35.12,43.72 C 34.98,43.35 34.95,43.17 34.82,42.82 C 34.69,42.48 34.14,42.44 34.34,42.87 z " fill="#000"/>
      <path d="M 35.56,43.21 C 35.66,43.52 35.85,43.87 35.92,44.07 C 35.99,44.27 36.20,44.17 36.16,43.90 C 36.12,43.62 36.10,43.46 36.05,43.15 C 36.00,42.85 35.44,42.81 35.56,43.21 z " fill="#000"/>
      <path d="M 36.64,43.71 C 36.69,43.98 36.77,44.20 36.83,44.45 C 36.90,44.70 37.07,44.66 37.07,44.43 C 37.07,44.19 37.03,43.92 36.99,43.67 C 36.95,43.42 36.56,43.32 36.64,43.71 z " fill="#000"/>
      <path d="M 40.70,45.28 C 40.52,44.99 40.26,44.65 40.14,44.44 C 40.02,44.23 39.53,44.37 39.81,44.73 C 40.09,45.09 40.39,45.34 40.50,45.47 C 40.60,45.61 40.87,45.55 40.70,45.28 z " fill="#000"/>
      <path d="M 40.86,44.33 C 40.61,44.04 40.38,43.79 40.20,43.58 C 40.03,43.36 40.13,42.74 40.4488,43.25 C 40.76,43.75 40.93,43.96 41.05,44.16 C 41.17,44.36 41.05,44.57 40.86,44.33 z " fill="#000"/>
      <path d="M 40.75,42.52 C 40.90,42.79 41.16,43.14 41.28,43.34 C 41.40,43.54 41.61,43.40 41.47,43.15 C 41.32,42.90 41.27,42.61 41.09,42.25 C 40.92,41.89 40.52,42.10 40.75,42.52 z " fill="#000"/>
      <path d="M 41.85,42.44 C 41.72,42.15 41.64,42.06 41.51,41.80 C 41.37,41.53 41.76,41.13 41.89,41.65 C 41.96,41.92 42.02,42.13 42.08,42.32 C 42.13,42.50 41.98,42.73 41.85,42.44 z " fill="#000"/>
      <path d="M 42.81,42.22 C 42.66,41.88 42.50,41.68 42.35,41.36 C 42.21,41.04 42.54,40.78 42.74,41.23 C 42.94,41.68 43.00,41.92 43.07,42.13 C 43.14,42.34 42.94,42.53 42.81,42.22 z " fill="#000"/>
      <path d="M 43.76,42.21 C 43.64,41.89 43.47,41.60 43.35,41.31 C 43.23,41.02 43.60,40.80 43.76,41.28 C 43.92,41.76 43.95,41.90 44.03,42.16 C 44.11,42.41 43.87,42.49 43.76,42.21 z " fill="#000"/>
      <path d="M 44.52,41.68 C 44.37,41.27 44.77,41.00 44.93,41.53 C 45.09,42.06 45.15,42.42 45.21,42.63 C 45.26,42.85 45.03,42.91 44.90,42.58 C 44.77,42.25 44.62,41.97 44.52,41.68 z " fill="#000"/>
      <path d="M 45.75,42.21 C 45.80,42.45 45.96,42.93 46.03,43.15 C 46.10,43.38 46.37,43.32 46.31,43.02 C 46.24,42.71 46.24,42.62 46.16,42.28 C 46.08,41.93 45.68,41.85 45.75,42.21 z " fill="#000"/>
      <path d="M 50.34,43.96 C 50.29,43.67 50.20,43.38 50.12,43.10 C 50.04,42.82 50.40,42.65 50.49,43.03 C 50.58,43.42 50.61,43.74 50.66,43.99 C 50.71,44.24 50.40,44.24 50.34,43.96 z " fill="#000"/>
      <path d="M 50.98,42.77 C 50.89,42.41 50.77,42.16 50.69,41.88 C 50.61,41.60 51.03,41.31 51.13,41.76 C 51.22,42.21 51.26,42.50 51.27,42.71 C 51.28,42.93 51.06,43.09 50.98,42.77 z " fill="#000"/>
      <path d="M 51.89,41.67 C 51.89,41.36 51.83,41.02 51.76,40.71 C 51.70,40.41 52.17,40.18 52.17,40.71 C 52.17,41.07 52.15,41.47 52.13,41.65 C 52.12,41.84 51.89,41.93 51.89,41.67 z " fill="#000"/>
      <path d="M 52.85,41.14 C 52.82,40.78 52.76,40.49 52.74,40.25 C 52.73,40.01 53.17,39.80 53.20,40.21 C 53.22,40.62 53.20,40.94 53.17,41.15 C 53.14,41.36 52.88,41.51 52.85,41.14 z " fill="#000"/>
      <path d="M 53.77,41.20 C 53.72,40.89 53.67,40.42 53.63,40.17 C 53.57,39.74 54.14,39.70 54.12,40.22 C 54.11,40.74 54.14,40.91 54.08,41.19 C 54.03,41.47 53.82,41.56 53.77,41.20 z " fill="#000"/>
      <path d="M 54.71,41.24 C 54.69,40.90 54.65,40.46 54.69,40.19 C 54.73,39.93 55.23,39.85 55.15,40.29 C 55.07,40.72 54.97,41.03 54.95,41.27 C 54.92,41.51 54.72,41.53 54.71,41.24 z " fill="#000"/>
      <path d="M 55.66,41.28 C 55.68,40.91 55.70,40.76 55.72,40.49 C 55.73,40.21 56.05,40.05 56.03,40.50 C 56.02,40.95 56.01,41.11 55.99,41.32 C 55.98,41.53 55.65,41.60 55.66,41.28 z " fill="#000"/>
      <path d="M 56.37,42.18 C 56.43,41.895 56.51,41.40 56.58,41.11 C 56.65,40.8218 57.03,40.80 56.98,41.20 C 56.92,41.60 56.78,42.09 56.71,42.32 C 56.65,42.5468 56.26,42.71 56.37,42.18 z " fill="#000"/>
      <path d="M 57.12,42.71 C 57.19,42.52 57.26,42.32 57.30,42.20 C 57.34,42.0824 57.64,42.01 57.60,42.24 C 57.56,42.46 57.44,42.70 57.36,42.85 C 57.28,42.99 57.04,42.95 57.12,42.71 z " fill="#000"/>
      <path d="M 61.14,44.49 C 61.11,44.21 61.12,44.07 61.09,43.80 C 61.06,43.54 61.54,43.19 61.51,43.72 C 61.49,44.25 61.46,44.35 61.44,44.5239 C 61.41,44.69 61.17,44.73 61.14,44.49 z " fill="#000"/>
      <path d="M 62.23,43.58 C 62.28,43.21 62.30,42.93 62.35,42.61 C 62.40,42.29 62.92,42.26 62.80,42.62 C 62.68,42.98 62.55,43.38 62.50,43.60 C 62.44,43.83 62.19,43.90 62.23,43.58 z " fill="#000"/>
      <path d="M 63.29,43.06 C 63.34,42.76 63.35,42.52 63.36,42.13 C 63.37,41.75 64.05,41.40 63.94,41.85 C 63.84,42.30 63.68,42.79 63.58,43.02 C 63.4967,43.25 63.25,43.31 63.29,43.06 z " fill="#000"/>
      <path d="M 64.23,42.65 C 64.30,42.31 64.34,42.00 64.45,41.65 C 64.55,41.31 65.11,41.20 64.94,41.72 C 64.77,42.24 64.59,42.50 64.50,42.71 C 64.41,42.93 64.17,42.99 64.23,42.65 z " fill="#000"/>
      <path d="M 65.43,42.32 C 65.49,41.93 65.51,41.68 65.59,41.45 C 65.67,41.23 66.20,41.16 66.04,41.57 C 65.88,41.98 65.80,42.25 65.69,42.45 C 65.59,42.65 65.38,42.65 65.43,42.32 z " fill="#000"/>
      <path d="M 66.25,42.91 C 66.34,42.58 66.45,42.10 66.52,41.81 C 66.58,41.52 67.10,41.36 66.93,41.98 C 66.76,42.61 66.65,42.78 66.57,42.99 C 66.49,43.21 66.17,43.21 66.25,42.91 z " fill="#000"/>
      <path d="M 66.88,43.59 C 67.01,43.2489 67.14,42.90 67.27,42.59 C 67.41,42.29 67.78,42.33 67.61,42.7325 C 67.43,43.13 67.23,43.48 67.13,43.71 C 67.0262,43.94 66.76,43.91 66.88,43.59 z " fill="#000"/>
      <path d="M 67.19,44.48 C 67.43,44.16 67.50,44.00 67.64,43.83 C 67.79,43.66 68.20,43.78 67.99,44.04 C 67.78,44.31 67.55,44.57 67.41,44.72 C 67.26,44.86 67.01,44.73 67.19,44.48 z " fill="#000"/>
      <path d="M 71.72,44.65 C 71.7344,44.39 71.86,44.11 72.02,43.92 C 72.18,43.74 72.49,43.78 72.33,44.05 C 72.17,44.33 72.05,44.52 72.01,44.70 C 71.97,44.89 71.71,44.97 71.72,44.65 z " fill="#000"/>
      <path d="M 72.69,44.39 C 72.81,44.03 72.95,43.48 73.1298,43.25 C 73.30,43.01 73.74,43.11 73.52,43.46 C 73.31,43.80 73.02,44.27 72.93,44.45 C 72.83,44.64 72.59,44.66 72.69,44.39 z " fill="#000"/>
      <path d="M 73.78,44.0462 C 73.94,43.64 74.09,43.22 74.28,42.98 C 74.47,42.7458 75.01,42.79 74.70,43.14 C 74.40,43.48 74.19,43.92 74.09,44.13 C 74.00,44.35 73.67,44.29 73.78,44.0462 z " fill="#000"/>
      <path d="M 74.90,43.87 C 75.06,43.56 75.21,43.28 75.35,43.03 C 75.50,42.78 76.11,42.79 75.8101,43.25 C 75.50,43.70 75.2661,43.94 75.14,44.08 C 75.02,44.23 74.73,44.21 74.90,43.87 z " fill="#000"/>
      <path d="M 75.88,43.67 C 76.06,43.45 76.1949,43.25 76.46,43.06 C 76.72,42.87 77.09,42.99 76.88,43.26 C 76.67,43.52 76.27,43.78 76.0888,43.94 C 75.90,44.09 75.69,43.92 75.88,43.67 z " fill="#000"/>
      <path d="M 70.59,51.30 C 71.52,49.77 72.47,48.31 73.75,47.56 C 74.33,47.21 74.47,46.8127 73.69,47.23 C 72.91,47.64 72.40,47.42 72.75,46.79 C 73.11,46.15 73.33,45.59 73.49,45.35 C 73.65,45.12 73.52,44.76 73.21,45.24 C 72.71,46.01 72.00,46.73 71.74,47.03 C 71.48,47.33 71.10,47.46 71.00,47.11 C 70.92,46.83 70.78,46.63 70.68,46.46 C 70.59,46.28 70.40,46.29 70.43,46.71 C 70.58,48.47 70.51,50.11 70.25,51.15 C 70.11,51.68 70.50,51.45 70.59,51.30 z " fill="#000"/>
      <path d="M 63.66,49.79 C 64.22,47.96 64.86,46.96 65.59,46.17 C 65.85,45.89 66.32,45.51 66.42,45.35 C 66.52,45.20 66.48,45.04 66.19,45.16 C 65.89,45.28 65.67,45.49 65.33,45.61 C 64.99,45.73 64.83,45.67 64.91,45.12 C 64.99,44.56 65.31,43.86 65.35,43.56 C 65.39,43.26 65.35,43.22 65.15,43.42 C 64.85,43.72 64.50,45.00 64.12,45.43 C 63.84,45.75 63.62,45.57 63.52,45.28 C 63.42,44.98 63.24,44.60 63.08,44.36 C 62.92,44.12 62.67,44.21 62.88,44.90 C 63.24,46.07 63.36,47.84 63.36,48.40 C 63.36,48.96 63.30,49.51 63.36,49.77 C 63.42,50.03 63.58,50.05 63.66,49.79 z " fill="#000"/>
      <path d="M 54.40,49.28 C 54.83,46.70 55.34,45.62 56.39,43.55 C 56.75,42.85 56.42,42.89 56.10,43.31 C 55.53,44.07 55.28,44.21 54.96,43.72 C 54.61,43.19 54.57,42.67 54.55,42.20 C 54.53,41.72 54.16,41.61 54.14,42.23 C 54.12,42.85 53.87,43.44 53.65,43.74 C 53.43,44.04 53.11,43.96 52.81,43.80 C 52.51,43.64 52.33,43.52 52.01,43.28 C 51.70,43.05 51.46,43.1861 51.84,43.7277 C 52.94,45.30 54.08,46.71 54.08,49.28 C 54.08,49.68 54.30,49.92 54.40,49.28 z " fill="#000"/>
      <path d="M 45.21,49.77 C 44.88,47.69 44.81,45.97 45.31,44.90 C 45.49,44.49 45.31,44.10 45.01,44.76 C 44.81,45.20 44.49,45.37 44.23,45.00 C 43.97,44.62 43.44,43.60 43.28,43.15 C 43.12,42.69 42.87,42.88 42.98,43.28 C 43.32,44.50 43.42,45.14 43.36,45.43 C 43.30,45.73 43.14,45.77 42.92,45.67 C 42.70,45.57 42.44,45.43 42.24,45.30 C 42.04,45.16 41.84,45.32 42.12,45.55 C 43.58,46.75 44.58,48.12 44.97,49.77 C 45.05,50.11 45.27,50.15 45.21,49.77 z " fill="#000"/>
      <path d="M 38.12,50.37 C 37.57,49.09 37.45,48.0069 37.56,47.35 C 37.68,46.69 37.84,46.25 37.82,45.87 C 37.80,45.49 37.59,45.52 37.50,45.87 C 37.45,46.1161 37.33,46.43 37.25,46.55 C 37.17,46.67 36.85,46.73 36.54,46.32 C 36.24,45.91 35.47,45.12 35.22,44.92 C 34.96,44.72 34.70,44.74 34.95,45.09 C 35.31,45.58 35.71,46.32 35.73,46.64 C 35.76,46.96 35.60,46.96 35.45,46.96 C 35.02,46.96 34.80,46.64 34.41,46.55 C 34.01,46.46 33.95,46.66 34.23,46.87 C 35.69,47.93 37.16,49.12 37.74,50.19 C 37.98,50.63 38.30,50.79 38.12,50.37 z " fill="#000"/>
    </g>
  </g>
</svg>
