<?xml version="1.0" encoding="UTF-8" standalone="no"?>
<svg xmlns="http://www.w3.org/2000/svg" xmlns:xlink="http://www.w3.org/1999/xlink" version="1.0" x="0.0000000" y="0.0000000" width="600.00000" height="300.00000" id="svg3005">
  <defs id="defs3"/>
  <g id="layer1">
    <rect width="875.00000" height="437.50000" x="125.00000" y="239.86218" transform="matrix(0.685714,0.000000,0.000000,0.685714,-85.71425,-164.4769)" fill="#ce1126" fill-opacity="1.0000000" fill-rule="nonzero" stroke="none" stroke-width="7.086" stroke-linecap="round" stroke-linejoin="miter" stroke-miterlimit="4.0000000" stroke-opacity="1.0000000"/>
    <path d="M 634.5,445.9 C 647.3,449.3 666.6,448.4 675.3,458.6 C 662.5,455.1 646.7,475.8 634.5,471.3 C 645.3,478.8 476.9,471.3 490.4,471.3 C 477.6,467.8 458.3,468.7 449.6,458.6 C 462.4,462.0 478.2,441.3 490.4,445.9 C 479.6,438.3 460.8,432.4 456.4,420.0 C 467.3,427.6 489.3,413.5 499.1,422.0 C 491.5,411.2 475.7,399.3 476.0,386.1 C 483.6,396.9 509.1,391.1 515.4,402.5 C 512.0,389.8 501.7,373.3 506.0,360.9 C 509.5,373.6 535.2,376.8 537.4,389.8 C 538.6,376.7 533.9,357.6 542.9,347.5 C 541.7,360.6 564.9,372.4 562.5,385.4 C 568.0,373.4 571.1,354.1 582.0,347.5 C 576.5,359.5 594.7,378.4 587.5,389.8 C 596.8,380.5 605.8,363.2 618.9,360.9 C 609.5,370.2 619.5,394.0 609.5,402.5 C 621.4,396.9 635.6,383.8 648.9,386.1 C 636.9,391.6 638.1,417.5 625.8,422.0 C 639.0,420.8 656.7,413.4 668.5,420.0 C 655.3,421.1 648.0,445.9 634.5,445.9 z " transform="matrix(0.685714,0.000000,0.000000,0.685714,-85.71425,-164.4769)" fill="#fcd116" fill-opacity="1.0000000" fill-rule="evenodd" stroke="#bd9c08" stroke-width="2.734" stroke-linecap="butt" stroke-linejoin="miter" stroke-miterlimit="4.0000000" stroke-opacity="1.0000000"/>
    <path d="M 501.7,458.6 L 455.7,439.7 L 505.4,437.8 L 468.5,404.3 L 515.9,419.5 L 492.7,375.5 L 532.1,406.0 L 525.4,356.7 L 551.9,398.8 L 562.4,350.1 L 573.0,398.8 L 599.5,356.7 L 592.8,406.0 L 632.1,375.5 L 609.0,419.5 L 656.4,404.3 L 619.5,437.8 L 669.2,439.7 L 623.2,458.6 L 669.2,477.4 L 455.7,477.4 L 501.7,458.6 z " transform="matrix(0.685714,0.000000,0.000000,0.685714,-85.71425,-164.4769)" fill="#fcd116" fill-opacity="1.0000000" fill-rule="evenodd" stroke="#bd9c08" stroke-width="2.734" stroke-linecap="butt" stroke-linejoin="miter" stroke-miterlimit="4.0000000" stroke-opacity="1.0000000"/>
    <path d="M 127.10440 382.09833 A 83.888901 83.888901 0 1 1  -40.673405,382.09833 A 83.888901 83.888901 0 1 1  127.10440 382.09833 z" transform="matrix(0.493004,0.000000,0.000000,0.493004,278.6945,-38.37602)" fill="#fcd116" fill-opacity="1.0000000" fill-rule="nonzero" stroke="#bd9c08" stroke-width="3.800" stroke-linecap="round" stroke-linejoin="miter" stroke-miterlimit="4.0000000" stroke-opacity="1.0000000"/>
    <rect width="875.00000" height="198.75000" x="125.00000" y="478.61218" transform="matrix(0.685714,0.000000,0.000000,0.685714,-85.71425,-164.4769)" fill="#003f87" fill-opacity="1.0000000" fill-rule="nonzero" stroke="none" stroke-width="7.086" stroke-linecap="round" stroke-linejoin="miter" stroke-miterlimit="4.0000000" stroke-opacity="1.0000000"/>
    <path d="M 125.0,489.8 C 154.1,489.8 183.3,508.6 212.5,508.6 C 241.6,508.6 270.8,489.8 300.0,489.8 C 329.1,489.8 358.3,508.6 387.5,508.6 C 416.6,508.6 445.8,489.8 475.0,489.8 C 504.1,489.8 533.3,508.6 562.5,508.6 C 591.6,508.6 620.8,489.8 650.0,489.8 C 679.1,489.8 708.3,508.6 737.5,508.6 C 766.6,508.6 795.8,489.8 825.0,489.8 C 854.1,489.8 883.3,508.6 912.5,508.6 C 941.6,508.6 970.8,489.8 1000.,489.8 L 1000.,458.6 C 970.8,458.6 941.6,477.3 912.5,477.3 C 883.3,477.3 854.1,458.6 825.0,458.6 C 795.8,458.6 766.6,477.3 737.5,477.3 C 708.3,477.3 679.1,458.6 650.0,458.6 C 620.8,458.6 591.6,477.3 562.5,477.3 C 533.3,477.3 504.1,458.6 475.0,458.6 C 445.8,458.6 416.6,477.3 387.5,477.3 C 358.3,477.3 329.1,458.6 300.0,458.6 C 270.8,458.6 241.6,477.3 212.5,477.3 C 183.3,477.3 154.1,458.6 125.0,458.6 L 125.0,489.8 z " transform="matrix(0.685714,0.000000,0.000000,0.685714,-85.71425,-164.4769)" fill="#ffffff" fill-opacity="1.0000000" fill-rule="evenodd" stroke="none" stroke-width="0.250pt" stroke-linecap="butt" stroke-linejoin="miter" stroke-opacity="1.0000000"/>
    <path d="M 125.0,552.3 C 154.1,552.3 183.3,571.1 212.5,571.1 C 241.6,571.1 270.8,552.3 300.0,552.3 C 329.1,552.3 358.3,571.1 387.5,571.1 C 416.6,571.1 445.8,552.3 475.0,552.3 C 504.1,552.3 533.3,571.1 562.5,571.1 C 591.6,571.1 620.8,552.3 650.0,552.3 C 679.1,552.3 708.3,571.1 737.5,571.1 C 766.6,571.1 795.8,552.3 825.0,552.3 C 854.1,552.3 883.3,571.1 912.5,571.1 C 941.6,571.1 970.8,552.3 1000.,552.3 L 1000.,521.1 C 970.8,521.1 941.6,539.8 912.5,539.8 C 883.3,539.8 854.1,521.1 825.0,521.1 C 795.8,521.1 766.6,539.8 737.5,539.8 C 708.3,539.8 679.1,521.1 650.0,521.1 C 620.8,521.1 591.6,539.8 562.5,539.8 C 533.3,539.8 504.1,521.1 475.0,521.1 C 445.8,521.1 416.6,539.8 387.5,539.8 C 358.3,539.8 329.1,521.1 300.0,521.1 C 270.8,521.1 241.6,539.8 212.5,539.8 C 183.3,539.8 154.1,521.1 125.0,521.1 L 125.0,552.3 z " transform="matrix(0.685714,0.000000,0.000000,0.685714,-85.71425,-164.4769)" fill="#ffffff" fill-opacity="1.0000000" fill-rule="evenodd" stroke="none" stroke-width="0.250pt" stroke-linecap="butt" stroke-linejoin="miter" stroke-opacity="1.0000000"/>
    <path d="M 125.0,614.8 C 154.1,614.8 183.3,633.6 212.4,633.6 C 241.6,633.6 270.8,614.8 299.9,614.8 C 329.1,614.8 358.3,633.6 387.4,633.6 C 416.6,633.6 445.8,614.8 474.9,614.8 C 504.1,614.8 533.3,633.6 562.4,633.6 C 591.6,633.6 620.8,614.8 649.9,614.8 C 679.1,614.8 708.3,633.6 737.4,633.6 C 766.6,633.6 795.8,614.8 824.9,614.8 C 854.1,614.8 883.3,633.6 912.4,633.6 C 941.6,633.6 970.8,614.8 1000.,614.8 L 1000.,583.6 C 970.8,583.6 941.6,602.3 912.4,602.3 C 883.3,602.3 854.1,583.6 824.9,583.6 C 795.8,583.6 766.6,602.3 737.4,602.3 C 708.3,602.3 679.1,583.6 649.9,583.6 C 620.8,583.6 591.6,602.3 562.4,602.3 C 533.3,602.3 504.1,583.6 474.9,583.6 C 445.8,583.6 416.6,602.3 387.4,602.3 C 358.3,602.3 329.1,583.6 299.9,583.6 C 270.8,583.6 241.6,602.3 212.4,602.3 C 183.3,602.3 154.1,583.6 125.0,583.6 L 125.0,614.8 z " transform="matrix(0.685714,0.000000,0.000000,0.685714,-85.71425,-164.4769)" fill="#ffffff" fill-opacity="1.0000000" fill-rule="evenodd" stroke="none" stroke-width="0.250pt" stroke-linecap="butt" stroke-linejoin="miter" stroke-opacity="1.0000000"/>
    <g transform="matrix(0.685714,0.000000,0.000000,0.685714,-94.48282,-164.4769)">
      <path d="M 595.1,312.5 L 627.4,312.7 C 627.6,311.4 624.6,308.7 622.1,308.3 C 613.9,307.0 607.8,309.6 597.8,309.7 L 595.1,312.5 z " fill="#fcd116" fill-opacity="1.0000000" fill-rule="evenodd" stroke="#bd9c08" stroke-width="2.734" stroke-linecap="butt" stroke-linejoin="miter" stroke-miterlimit="4.0000000" stroke-opacity="1.0000000"/>
      <path d="M 530.7,304.9 C 538.3,314.5 553.0,321.2 567.0,321.3 C 586.0,321.4 607.0,306.0 632.5,301.3 L 549.4,299.6 C 538.7,292.3 530.6,293.2 525.0,297.8 L 509.1,298.3 C 506.9,299.5 511.0,304.6 514.3,304.8 L 530.7,304.9 z " fill="#fcd116" fill-opacity="1.0000000" fill-rule="evenodd" stroke="#bd9c08" stroke-width="2.734" stroke-linecap="butt" stroke-linejoin="miter" stroke-miterlimit="4.0000000" stroke-opacity="1.0000000"/>
      <path d="M 568.2,299.4 C 565.2,285.5 554.0,279.5 540.6,277.8 C 525.2,275.7 489.6,273.6 465.9,266.8 C 476.1,276.9 497.6,281.9 512.5,284.2 C 528.2,286.6 543.6,290.1 555.7,299.3 L 568.2,299.4 z " fill="#fcd116" fill-opacity="1.0000000" fill-rule="evenodd" stroke="#bd9c08" stroke-width="2.734" stroke-linecap="butt" stroke-linejoin="miter" stroke-miterlimit="4.0000000" stroke-opacity="1.0000000"/>
      <path d="M 558.1,308.7 C 563.1,315.0 570.8,314.7 579.0,309.1 C 587.2,303.6 596.2,288.1 600.5,287.8 C 630.7,286.0 667.2,273.3 684.6,263.5 C 662.5,266.6 640.6,270.1 618.3,270.2 C 580.4,270.4 575.9,287.7 560.4,299.8" fill="#fcd116" fill-opacity="1.0000000" fill-rule="evenodd" stroke="#bd9c08" stroke-width="2.734" stroke-linecap="round" stroke-linejoin="miter" stroke-miterlimit="4.0000000" stroke-opacity="1.0000000"/>
      <path d="M 564.0,301.2 C 572.1,296.1 578.7,289.3 586.3,283.7 C 598.8,274.4 613.3,274.1 628.9,273.9 C 642.7,273.8 666.9,268.0 680.0,264.9" fill="none" fill-opacity="1.0000000" fill-rule="evenodd" stroke="#bd9c08" stroke-width="2.734" stroke-linecap="round" stroke-linejoin="miter" stroke-miterlimit="4.0000000" stroke-opacity="1.0000000"/>
      <path d="M 555.6,298.8 C 553.2,286.4 541.6,282.6 526.9,280.4 C 510.9,278.0 494.7,276.6 478.7,272.2 C 474.8,271.1 471.1,269.2 467.3,267.7" fill="none" fill-opacity="0.75000000" fill-rule="evenodd" stroke="#bd9c08" stroke-width="2.734" stroke-linecap="butt" stroke-linejoin="miter" stroke-miterlimit="4.0000000" stroke-opacity="1.0000000"/>
      <path d="M 560.7,317.1 C 575.7,318.2 586.8,313.7 599.6,307.3" fill="none" fill-opacity="0.75000000" fill-rule="evenodd" stroke="#bd9c08" stroke-width="2.734" stroke-linecap="round" stroke-linejoin="miter" stroke-miterlimit="4.0000000" stroke-opacity="1.0000000"/>
      <path d="M 509.1,300.8 L 528.0,300.8" fill="none" fill-opacity="0.75000000" fill-rule="evenodd" stroke="#bd9c08" stroke-width="2.734" stroke-linecap="round" stroke-linejoin="miter" stroke-miterlimit="4.0000000" stroke-opacity="1.0000000"/>
      <path d="M 542.93614 302.24005 A 5.4392509 5.4392509 0 1 1  532.0,302.2 A 5.4392509 5.4392509 0 1 1  542.93614 302.24005 z" transform="matrix(0.434343,0.000000,0.000000,0.434343,300.6322,167.5576)" fill="#bd9c08" fill-opacity="1.0000000" fill-rule="nonzero" stroke="#bd9c08" stroke-width="2.734" stroke-linecap="round" stroke-linejoin="round" stroke-miterlimit="4.0000000" stroke-opacity="1.0000000"/>
    </g>
  </g>
</svg>
