<?xml version="1.0" encoding="UTF-8" standalone="no"?>
<!-- Created with Inkscape (http://www.inkscape.org/) -->
<svg
   xmlns:dc="http://purl.org/dc/elements/1.1/"
   xmlns:cc="http://web.resource.org/cc/"
   xmlns:rdf="http://www.w3.org/1999/02/22-rdf-syntax-ns#"
   xmlns:svg="http://www.w3.org/2000/svg"
   xmlns="http://www.w3.org/2000/svg"
   xmlns:sodipodi="http://sodipodi.sourceforge.net/DTD/sodipodi-0.dtd"
   xmlns:inkscape="http://www.inkscape.org/namespaces/inkscape"
   id="svg2"
   sodipodi:version="0.32"
   inkscape:version="0.44.1"
   width="750"
   height="500"
   sodipodi:docbase="C:\Documents and Settings\David Nelson\Archives\Svg"
   sodipodi:docname="Flag_of_Lebanon.svg"
   version="1.0">
  <metadata
     id="metadata7">
    <rdf:RDF>
      <cc:Work
         rdf:about="">
        <dc:format>image/svg+xml</dc:format>
        <dc:type
           rdf:resource="http://purl.org/dc/dcmitype/StillImage" />
      </cc:Work>
    </rdf:RDF>
  </metadata>
  <defs
     id="defs5" />
  <sodipodi:namedview
     inkscape:window-height="725"
     inkscape:window-width="1020"
     inkscape:pageshadow="2"
     inkscape:pageopacity="1"
     borderopacity="1.0"
     bordercolor="#666666"
     pagecolor="#ffffff"
     id="base"
     inkscape:zoom="1.058"
     inkscape:cx="375"
     inkscape:cy="250"
     inkscape:window-x="-2"
     inkscape:window-y="0"
     inkscape:current-layer="layer1"
     showguides="true"
     inkscape:guide-bbox="true"
     height="500px"
     width="750px" />
  <g
     inkscape:groupmode="layer"
     id="layer1"
     inkscape:label="background">
    <rect
       style="opacity:1;fill:white;fill-opacity:1;fill-rule:nonzero;stroke:none;stroke-width:3.81373978;stroke-linecap:butt;stroke-linejoin:round;stroke-miterlimit:4;stroke-dasharray:none;stroke-dashoffset:0;stroke-opacity:0.66049386"
       id="rect1883"
       width="750"
       height="500"
       x="0"
       y="-1.6499939"
       transform="translate(0,1.649994)" />
    <rect
       style="fill:#f93f26;fill-opacity:1;stroke:none"
       id="rect3643"
       width="750"
       height="125"
       x="0"
       y="373.35001"
       transform="translate(0,1.649994)" />
    <rect
       y="-1.6499939"
       x="0"
       height="125"
       width="750"
       id="rect3645"
       style="fill:#f93f26;fill-opacity:1;stroke:none"
       transform="translate(0,1.649994)" />
    <path
       style="fill:#009e3f;fill-opacity:1;stroke:none"
       d="M 371.5894,123.35001 L 367.48923,130.17972 C 365.23424,133.93668 359.77095,139.57583 355.36568,142.70087 C 350.96038,145.82588 345.65053,150.47903 343.53712,153.04299 L 339.67293,157.69372 L 343.7731,156.62046 C 346.0193,156.02698 348.94553,155.0762 350.29208,154.5065 C 351.63866,153.93681 352.74038,154.2537 352.74039,155.22203 C 352.74039,155.24795 352.74241,155.29261 352.74039,155.31958 C 352.73501,155.37415 352.72414,155.45631 352.7109,155.51472 C 352.11704,157.9238 345.07973,163.44474 339.49593,165.75927 C 334.15146,167.97461 326.22769,173.75854 325.18957,176.06887 C 325.16495,176.12615 325.14633,176.21128 325.13056,176.26401 C 325.12345,176.29001 325.10593,176.33677 325.10108,176.36159 C 325.09701,176.38598 325.10283,176.43599 325.10108,176.45914 C 325.10076,176.46675 325.10113,176.48423 325.10108,176.49167 C 325.10104,176.49806 325.10085,176.51791 325.10108,176.5242 C 325.10153,176.53044 325.10038,176.55057 325.10108,176.55674 C 325.10203,176.5628 325.09987,176.58325 325.10108,176.58925 C 325.10683,176.61295 325.12101,176.6643 325.13056,176.68679 C 325.13846,176.70349 325.15008,176.73589 325.16007,176.75185 C 325.16363,176.75711 325.18579,176.77922 325.18957,176.78437 C 325.1976,176.79458 325.21014,176.80701 325.21907,176.81689 C 325.22376,176.82177 325.24366,176.84463 325.24857,176.84943 C 325.26906,176.86829 325.31311,176.89687 325.33704,176.91448 C 325.96288,177.35149 327.68523,177.41791 329.67323,176.97953 C 333.16029,176.21056 334.59782,176.68786 335.74974,179.06095 C 337.51178,182.69096 336.50178,184.3296 332.446,184.32959 C 327.54088,184.32959 320.55869,189.25562 319.61452,193.40337 C 318.98143,196.18437 316.30535,198.45253 310.55873,201.07864 C 301.17658,205.36609 289.069,213.55199 288.22899,216.07149 C 288.20778,216.1416 288.20219,216.23841 288.1995,216.29916 C 288.1995,219.87057 296.10175,219.62154 307.54996,215.68121 C 310.11671,214.79776 311.24822,215.6974 313.18401,220.10427 C 315.58034,225.55949 315.54246,225.69309 309.96878,232.88559 C 306.07646,237.9084 302.65426,240.49862 298.93664,241.27639 C 291.52983,242.82592 289.22773,244.33024 279.61569,253.92763 C 275.01567,258.52055 270.39824,262.32129 269.35048,262.35094 C 268.93968,262.36255 268.66679,262.42479 268.52456,262.54605 C 268.51993,262.55037 268.49937,262.57416 268.49506,262.57859 C 268.49102,262.58309 268.4693,262.60649 268.46555,262.61109 C 268.46237,262.61593 268.43896,262.6387 268.43607,262.64363 C 268.43344,262.64867 268.43839,262.67101 268.43607,262.67617 C 268.43398,262.6814 268.40834,262.70331 268.40656,262.70869 C 268.40503,262.71414 268.40782,262.73562 268.40656,262.7412 C 268.40559,262.74687 268.40726,262.76796 268.40656,262.77373 C 268.40611,262.77957 268.40674,262.80029 268.40656,262.80626 C 268.40672,262.81831 268.40538,262.85884 268.40656,262.87128 C 268.4074,262.87758 268.40545,262.89741 268.40656,262.90382 C 268.41197,262.92974 268.42669,262.97408 268.43607,263.00137 C 268.44125,263.01521 268.45942,263.0523 268.46555,263.06642 C 268.47215,263.08071 268.4875,263.11687 268.49506,263.13147 C 269.26823,264.55385 274.34218,267.35939 277.19685,267.35939 C 279.28601,267.35939 284.37728,264.97116 288.49447,262.05824 C 295.7199,256.94627 296.0772,256.8697 298.99564,259.78166 C 300.65861,261.44096 302.03391,264.65775 302.03391,266.90407 C 302.03391,270.32808 300.1939,271.89306 290.70679,276.72586 C 283.68739,280.30157 275.44388,286.44753 268.99653,292.88951 C 260.33115,301.54766 257.87276,303.14484 254.18869,302.54867 C 251.86271,302.17228 250.56213,302.01524 250.1475,302.25597 C 250.13424,302.26478 250.09969,302.27865 250.08849,302.28849 C 250.08343,302.29368 250.06359,302.31556 250.059,302.32099 C 250.05494,302.32671 250.03306,302.34757 250.02953,302.35354 C 250.01427,302.38476 250.00273,302.44547 250.00001,302.48363 C 249.99743,302.92686 250.77987,303.8313 252.18283,305.37811 C 253.51125,306.84277 256.59424,308.04499 259.0263,308.04497 C 265.66119,308.04497 286.63455,300.22783 293.0961,295.3612 C 299.09513,290.84295 304.92746,289.97159 309.76229,292.82446 C 317.24218,297.23807 304.73452,306.12563 281.17907,313.151 C 272.5137,315.7354 265.00517,318.25054 264.04088,318.87494 C 264.02695,318.88458 263.99238,318.89881 263.98191,318.90745 C 263.97756,318.91153 263.95585,318.93618 263.9524,318.93998 C 263.94918,318.94404 263.926,318.96828 263.92291,318.97251 C 263.91993,318.97684 263.92579,319.00059 263.92291,319.00501 C 263.58568,319.56341 264.08363,321.03337 265.10282,322.38735 C 267.56232,325.65475 279.93914,325.81241 290.50031,322.68008 C 294.72709,321.42645 305.25352,317.16769 313.89197,313.24855 C 329.56051,306.13999 329.61862,306.15239 335.10079,309.02063 C 347.83892,315.68513 346.66203,327.34696 331.35458,346.51902 C 324.68834,354.8683 318.77379,358.59228 308.02193,361.21915 C 304.04413,362.19099 295.86888,369.89388 295.86888,372.66707 C 295.86888,372.94079 295.92224,373.15684 295.98688,373.35001 L 298.73017,373.35001 C 299.33268,372.90987 299.94788,372.27559 300.55902,371.46372 C 303.94827,366.96117 310.78354,363.95743 317.69715,363.91853 C 325.20934,363.87622 334.41224,359.75109 341.32478,353.31621 C 347.39788,347.66277 353.49853,345.97756 358.10897,348.69802 C 360.66315,350.20514 362.98695,350.35552 366.07333,349.18584 C 371.5617,347.10595 374.27367,348.11129 374.27368,352.21044 C 374.27368,354.05384 376.20528,356.52644 378.84584,358.03196 C 381.37051,359.47139 385.87538,362.99459 388.84554,365.86986 C 391.10768,368.05972 392.75598,369.05984 393.62417,369.05706 C 393.65729,369.05618 393.71134,369.06102 393.74214,369.05706 C 393.76482,369.05354 393.8093,369.06233 393.83064,369.05706 C 393.84459,369.05316 393.87628,369.02919 393.88963,369.02457 C 393.90268,369.01953 393.9362,368.9978 393.94863,368.99202 C 393.9851,368.97352 394.03556,368.95221 394.06661,368.92696 C 394.07166,368.92258 394.09123,368.89903 394.09613,368.89446 C 394.10084,368.88969 394.12105,368.8669 394.12563,368.86193 C 394.13003,368.8568 394.15084,368.83472 394.15512,368.8294 C 394.15923,368.8239 394.18064,368.80257 394.18463,368.79688 C 394.19604,368.77924 394.20407,368.75116 394.21412,368.73183 C 394.22052,368.71859 394.23785,368.68078 394.24361,368.66679 C 394.24907,368.65245 394.26827,368.61684 394.27311,368.60174 C 394.27992,368.57861 394.29721,368.52899 394.3026,368.50418 C 394.30918,368.47039 394.29854,368.41076 394.3026,368.3741 C 394.39078,367.41125 393.64483,365.47331 391.91328,362.74771 C 390.89558,361.14576 390.37728,359.54908 390.52692,358.74746 C 390.5349,358.70891 390.54508,358.65195 390.5564,358.61737 C 390.56119,358.60385 390.58058,358.56518 390.58591,358.55233 C 390.58871,358.54606 390.58296,358.52587 390.58591,358.51979 C 390.58897,358.51388 390.61219,358.49303 390.61541,358.48727 C 390.63214,358.45938 390.65418,358.41316 390.67439,358.3897 C 390.67858,358.38519 390.69957,358.3615 390.70388,358.35719 C 390.71727,358.34476 390.74825,358.3354 390.76288,358.32465 C 390.76791,358.32127 390.7868,358.29546 390.79238,358.29213 C 390.80467,358.28564 390.83689,358.26579 390.85137,358.2596 C 391.8097,357.88896 396.88796,358.07794 402.44396,358.71493 C 412.21712,359.83537 413.40178,360.42282 419.16913,367.10572 C 422.01728,370.40596 424.3544,372.47925 426.24858,373.35001 L 430.17177,373.35001 C 431.00815,372.97339 431.59819,372.4278 431.73514,371.88651 C 431.73853,371.87189 431.76194,371.8361 431.76463,371.82146 C 431.76818,371.79951 431.76266,371.74586 431.76463,371.7239 C 431.7656,371.70928 431.76436,371.67346 431.76463,371.65888 C 431.76454,371.64428 431.76543,371.6084 431.76463,371.59382 C 431.76435,371.59017 431.76511,371.56507 431.76463,371.56128 C 431.76338,371.55344 431.76665,371.53719 431.76463,371.52877 C 431.42873,370.40638 425.64168,364.90077 418.69718,359.1052 C 402.91412,345.9334 400.49412,341.11992 400.43812,322.8752 C 400.40464,311.96418 400.92253,309.16953 403.47638,306.35378 C 407.45473,301.96749 409.64001,302.0735 419.40513,307.16683 C 426.77957,311.01326 429.07058,311.33447 445.83503,310.97198 C 463.83904,310.58269 464.36594,310.69512 473.41535,316.01296 C 478.48751,318.99356 484.68418,322.9851 487.22027,324.8916 C 492.81882,329.10026 498.50377,329.39645 499.84526,325.54205 C 501.42953,320.99013 490.78645,312.16126 470.79005,301.50795 C 450.90531,290.9141 448.82248,287.95176 457.98807,283.13275 C 463.20127,280.39187 463.56238,280.44383 471.82247,285.05159 C 478.44389,288.74523 481.47221,289.53931 485.71588,288.6616 L 491.14347,287.5233 L 479.19688,277.73404 C 472.62816,272.35126 466.274,266.64104 465.06751,265.01779 C 461.579,260.32416 454.83171,257.21241 448.19485,257.21238 C 445.08486,257.21238 442.17967,256.61623 441.38088,255.87896 C 441.35503,255.85387 441.31328,255.80682 441.29238,255.78139 C 441.28747,255.77503 441.26749,255.75528 441.26289,255.74889 C 441.25436,255.73603 441.24064,255.69674 441.2334,255.68384 C 439.36676,252.35382 444.9881,250.77255 460.67236,250.155 C 481.80242,249.32307 484.70927,246.86096 470.1411,242.15451 C 464.32389,240.27517 455.60723,237.89685 450.76113,236.85332 C 444.8523,235.58095 441.57673,234.1938 440.76143,232.59289 C 440.67201,232.41042 440.61099,232.19653 440.58447,232.00748 C 440.56733,231.86793 440.56773,231.69554 440.58447,231.55218 C 440.65679,231.00842 440.97979,230.43332 441.52838,229.82849 C 442.52068,228.73441 447.2617,228.85645 455.33328,230.21875 C 464.38118,231.74588 469.33382,232.08794 470.2296,231.03183 C 471.16155,229.81735 466.99168,226.79358 457.78158,221.69788 C 449.39027,217.05517 438.80009,209.54173 433.97697,204.7862 C 429.19737,200.07358 422.09765,194.71312 418.22522,192.88299 C 413.11412,190.46746 411.45897,188.82842 412.11919,186.93138 C 413.27098,183.62217 421.31344,183.58853 426.51407,186.86634 C 428.62745,188.19834 434.16512,189.27316 438.81458,189.24047 L 447.28043,189.17541 L 441.67586,186.89887 C 436.07797,184.62849 420.85055,173.79772 419.67059,171.35314 C 419.64894,171.30484 419.62138,171.2317 419.61161,171.19053 C 419.60865,171.17463 419.61259,171.14018 419.61161,171.12549 C 419.61161,171.12103 419.61114,171.09735 419.61161,171.09296 C 419.61253,171.08859 419.61023,171.06476 419.61161,171.06045 C 419.61388,171.05619 419.63837,171.03212 419.6411,171.0279 C 419.64747,171.01958 419.66247,171.00354 419.67059,170.99537 C 419.67511,170.99134 419.69516,170.96689 419.70011,170.96287 C 420.32294,170.50286 423.83436,170.30628 428.04795,170.54009 L 436.51377,171.0279 L 424.33123,161.62893 C 415.39329,154.7419 409.88532,151.77735 403.59436,150.44121 C 398.88,149.43991 393.47536,148.24967 391.58882,147.80689 C 386.53638,146.62102 378.05152,137.7777 374.59816,130.08217 L 371.5894,123.35001 z M 343.8321,170.76772 C 344.01638,170.76101 344.2183,170.76772 344.42205,170.76772 C 345.99271,170.76772 347.13417,171.15065 347.60779,171.74341 C 347.61846,171.75729 347.65688,171.7943 347.66678,171.80845 C 347.67636,171.82272 347.68748,171.85898 347.69629,171.87349 C 347.74698,171.9612 347.79103,172.0705 347.81428,172.16618 C 347.81951,172.19028 347.84031,172.23922 347.84379,172.26376 C 347.84762,172.29669 347.84317,172.36009 347.84379,172.39386 C 347.84363,172.41931 347.84576,172.46554 347.84379,172.49141 C 347.83945,172.53477 347.82379,172.60952 347.81428,172.654 C 347.80794,172.68084 347.793,172.72439 347.78479,172.7516 C 347.45666,173.8369 345.68782,175.81613 343.8321,177.17466 C 342.41343,178.21319 341.56673,178.77837 341.08882,178.7032 C 341.05613,178.69638 341.00023,178.68378 340.97083,178.6707 C 340.9565,178.66332 340.92536,178.6471 340.91183,178.63817 C 340.88552,178.6187 340.84668,178.56656 340.82334,178.54058 C 340.50059,178.14749 340.43986,177.09154 340.43986,175.22329 C 340.43986,171.80334 341.06792,170.86845 343.8321,170.76772 z M 384.92234,174.99565 C 384.95942,174.99512 384.97338,174.99565 385.01084,174.99565 C 387.40831,174.99565 389.02026,176.11691 389.34701,177.9877 C 389.75173,180.30476 388.78963,180.94727 385.01084,180.94725 C 382.88528,180.94725 381.6544,180.72612 381.05814,180.1342 C 380.61603,179.67379 380.53029,178.98332 380.70418,177.9877 C 381.02584,176.14612 382.58715,175.02923 384.92234,174.99565 z M 372.88731,176.00385 C 374.9707,175.84168 375.80757,177.07424 375.80757,179.71139 C 375.80757,182.8857 374.59353,183.87515 368.87562,185.33778 C 365.26874,186.26043 361.96142,186.68445 361.26522,186.346 C 361.24903,186.33727 361.21917,186.32311 361.20623,186.31346 C 361.20228,186.31013 361.18031,186.28438 361.17673,186.28091 C 359.19725,184.09849 360.93228,181.29763 365.86685,178.7032 C 369.04115,177.03428 371.31763,176.12604 372.88731,176.00385 z M 400.58563,176.03638 C 403.63815,175.93549 404.02382,177.37784 402.53244,181.66275 C 402.01933,183.13706 399.89459,184.3296 397.81283,184.32959 C 394.76681,184.32959 394.11383,183.59294 394.50908,180.52446 C 394.86076,177.7944 396.20231,176.55039 399.22871,176.16646 C 399.73024,176.10283 400.1804,176.04976 400.58563,176.03638 z M 353.8613,184.32959 C 353.96633,184.32055 354.08619,184.32959 354.18578,184.32959 C 357.88816,184.32959 355.57918,191.31185 350.82304,194.50912 C 346.5877,197.35625 342.08643,198.57835 340.82334,197.46868 C 340.81763,197.46342 340.7994,197.44148 340.79384,197.43614 C 340.71241,197.35457 340.63598,197.24784 340.58736,197.14344 C 340.58117,197.12931 340.56343,197.09292 340.55785,197.07838 C 340.54997,197.05629 340.53485,197.00385 340.52838,196.98082 C 340.52434,196.96524 340.50226,196.93177 340.49886,196.91579 C 340.49427,196.89149 340.50203,196.84342 340.49886,196.81821 C 340.49436,196.77564 340.46978,196.70079 340.46937,196.65559 C 340.46946,196.64643 340.46913,196.63233 340.46937,196.62307 C 340.57191,192.80929 349.48628,184.70634 353.8613,184.32959 z M 388.63905,200.49326 C 390.40284,200.28031 391.52108,202.21449 390.91039,205.76189 C 390.57034,207.73711 388.80713,209.10019 386.16126,209.43691 C 384.13912,209.69424 382.89271,209.60397 382.41506,209.04663 C 382.4106,209.0412 382.38986,209.01967 382.38556,209.01412 C 382.3647,208.98598 382.34391,208.94692 382.32654,208.91654 C 382.3199,208.90422 382.30314,208.8642 382.29704,208.85152 C 382.29416,208.84508 382.27032,208.82551 382.26755,208.81899 C 382.25443,208.78591 382.24769,208.72427 382.23806,208.68891 C 382.0022,207.74218 382.97338,205.98181 385.12883,203.12756 C 386.37616,201.47586 387.61562,200.61678 388.63905,200.49326 z M 374.80463,201.27377 C 374.89034,201.26715 374.96793,201.27377 375.04063,201.27377 C 378.58318,201.27377 379.1563,204.39331 375.95506,206.28223 C 374.47765,207.154 373.04246,207.80527 372.56283,207.87584 C 372.54715,207.87758 372.51713,207.90814 372.50383,207.90836 C 372.49174,207.90782 372.45445,207.87795 372.44483,207.87584 C 372.17792,207.78293 370.22208,207.15318 368.10868,206.44486 L 364.27399,205.14396 L 368.61013,203.1926 C 370.84115,202.19622 373.5191,201.37319 374.80463,201.27377 z M 404.62678,205.17648 C 406.30104,205.08768 408.11318,205.41263 409.87736,206.15214 C 413.07903,207.49424 413.70137,208.65779 413.09262,212.1688 C 412.26597,216.93656 409.66263,217.47224 400.7626,214.64051 C 396.39047,213.2494 395.9408,212.58138 397.34086,209.69708 C 398.67656,206.94539 401.43047,205.34597 404.62678,205.17648 z M 338.611,206.34726 C 338.71137,206.34623 338.80294,206.34726 338.90599,206.34726 C 345.38245,206.34726 346.27592,207.47316 343.12417,211.61593 C 342.06744,213.00485 340.06092,215.11964 338.6405,216.29916 C 336.46978,218.10169 335.80434,217.9104 334.42235,215.06329 C 332.77734,211.67441 332.26419,209.44503 333.06546,208.1035 C 333.80563,206.90587 335.62505,206.37835 338.611,206.34726 z M 321.56135,209.20926 C 324.32364,209.13438 326.02578,210.43883 328.22783,214.21773 L 331.32509,219.55138 L 326.69395,221.34011 C 322.46713,222.9647 321.75575,222.65829 318.2576,217.73015 C 316.05274,214.62391 315.20936,212.56379 315.80933,211.25818 C 315.86455,211.14307 315.93741,211.00435 316.01581,210.90041 C 316.03589,210.87467 316.08276,210.82794 316.10429,210.80285 C 316.12632,210.778 316.16929,210.72948 316.19278,210.70527 C 316.98377,209.91434 318.57554,209.48471 321.0009,209.27432 C 321.19519,209.25743 321.3772,209.21425 321.56135,209.20926 z M 423.56431,225.17778 C 426.63297,224.92967 429.76584,227.09129 429.31634,230.57649 C 428.74538,235.00338 423.90995,236.28445 419.93607,233.08073 C 417.56286,231.16743 417.47534,230.45834 419.31664,227.682 C 420.37132,226.09174 421.95691,225.30771 423.56431,225.17778 z M 365.66037,233.47101 C 365.77328,233.46379 365.89601,233.47101 366.01436,233.47101 C 366.27369,233.47101 366.51468,233.5259 366.72229,233.60108 C 366.85288,233.65108 366.99646,233.71644 367.10576,233.79621 C 367.13654,233.81962 367.1947,233.86799 367.22375,233.8938 C 367.23807,233.90699 367.26888,233.94503 367.28274,233.95884 C 367.29638,233.97293 367.32853,234.00917 367.34173,234.02389 C 367.35472,234.03886 367.38818,234.07334 367.40072,234.08894 C 367.86886,234.69233 368.03273,235.72581 367.84319,237.14604 C 367.23425,241.70883 364.21271,243.04761 362.91709,239.32504 C 361.76029,236.00137 362.88322,233.64857 365.66037,233.47101 z M 346.3099,236.98341 C 347.61008,236.80696 349.74571,237.6713 351.88495,239.45514 C 353.33875,240.66736 353.94113,241.84375 353.92031,242.70739 C 353.91705,242.78709 353.90448,242.89306 353.89079,242.96756 C 353.88146,243.0137 353.87458,243.0862 353.8613,243.13016 C 353.85008,243.16498 353.81598,243.22688 353.8023,243.26025 C 353.78088,243.30975 353.74057,243.3768 353.71383,243.42288 C 353.7046,243.43803 353.69411,243.47313 353.68433,243.48793 C 353.67424,243.50249 353.63597,243.53878 353.62533,243.55297 C 353.57615,243.6158 353.5086,243.69381 353.44833,243.74808 C 353.43467,243.75993 353.40353,243.80173 353.38933,243.81312 C 352.50057,244.50101 350.61748,244.33844 348.46323,242.67484 C 346.68313,241.30018 345.20503,239.50304 345.071,238.57701 C 345.06913,238.56209 345.07209,238.52646 345.071,238.51198 C 345.07025,238.49774 345.071,238.46068 345.071,238.44692 C 345.071,237.56514 345.52978,237.08929 346.3099,236.98341 z M 377.07598,237.63386 C 377.67637,237.58193 378.29948,238.16979 379.34728,239.32504 C 380.6623,240.77487 382.20696,243.55187 382.76903,245.50429 C 384.11947,250.1956 381.98578,252.15534 377.8134,250.02492 C 373.33369,247.73756 372.2443,244.11725 374.83414,240.04052 C 375.82277,238.48436 376.43683,237.68917 377.07598,237.63386 z M 387.81313,244.00827 C 388.95195,243.85274 390.49728,245.55708 390.88088,248.43132 C 391.10458,250.10753 390.87188,251.53634 390.34992,251.97626 C 390.34494,251.98023 390.32544,252.005 390.32043,252.00877 C 390.30519,252.01966 390.27709,252.03206 390.26142,252.04132 C 390.24034,252.05289 390.19477,252.06524 390.17293,252.07383 C 390.16741,252.07579 390.149,252.10461 390.14343,252.10637 C 390.13784,252.10793 390.11958,252.10498 390.11394,252.10637 C 390.10255,252.10874 390.06651,252.10477 390.05493,252.10637 C 390.04909,252.10694 390.03132,252.10596 390.02546,252.10637 C 390.01953,252.10655 390.00191,252.10637 389.99594,252.10637 C 387.80101,252.10637 386.54471,250.12717 386.54471,246.61006 C 386.54471,244.92763 387.10674,244.10472 387.81313,244.00827 z M 320.38146,250.77294 C 322.64016,250.77057 324.62211,250.8933 325.92701,251.16322 C 328.08098,251.60873 329.51368,252.22402 330.20419,252.95196 C 330.3501,253.1105 330.48097,253.30114 330.55814,253.4723 C 330.59483,253.55823 330.62713,253.67598 330.64663,253.765 C 330.68183,253.94373 330.68017,254.15951 330.64663,254.35041 C 330.38939,255.67009 328.49523,257.27997 324.98309,259.1312 C 322.07038,260.66647 317.1422,262.43768 314.00996,263.03388 C 308.80909,264.0239 308.09591,263.65672 305.92758,259.03362 C 304.64213,256.29288 303.60045,253.68495 303.56779,253.1796 C 303.56779,253.17336 303.56725,253.1533 303.56779,253.14707 C 303.56983,253.13461 303.56368,253.09448 303.56779,253.08202 C 303.57033,253.07582 303.59423,253.05572 303.59728,253.0495 C 303.60436,253.03709 303.61772,252.99685 303.62678,252.98447 C 303.63178,252.97827 303.65078,252.95814 303.65628,252.95196 C 304.74325,251.82708 313.75103,250.77989 320.38146,250.77294 z M 424.98018,265.99344 C 431.03685,265.72575 434.30478,269.82212 427.72348,274.90457 C 423.4895,278.17427 417.27249,278.3055 413.41711,275.19728 C 410.64312,272.96091 410.78453,272.6409 415.83589,269.24569 C 419.02986,267.09893 422.27691,266.11291 424.98018,265.99344 z M 447.04443,270.77423 C 447.15173,270.76108 447.27175,270.77461 447.36893,270.77423 C 448.26403,270.77074 450.32961,271.82542 451.97054,273.14839 C 454.89338,275.50478 454.88343,275.66141 451.23313,279.94556 C 449.34379,282.16289 447.4178,283.90162 446.74944,284.04339 C 446.74398,284.04435 446.72527,284.04266 446.71997,284.04339 C 446.71483,284.0439 446.69539,284.04314 446.69046,284.04339 C 446.68573,284.04345 446.66553,284.0436 446.66096,284.04339 C 446.65658,284.04295 446.63564,284.04407 446.63147,284.04339 C 446.14479,283.89424 443.47935,283.47614 440.73193,283.10024 C 437.67553,282.68206 435.74682,281.45042 435.74683,279.94556 C 435.74683,279.87871 435.76388,279.79094 435.77633,279.71791 C 436.26214,277.1849 443.82584,271.16881 447.04443,270.77423 z M 336.10372,277.53891 C 336.38462,277.52317 336.71985,277.53891 337.07713,277.53891 C 341.24162,277.53891 343.53712,280.96673 343.53712,287.19808 C 343.53712,295.571 338.43208,294.8992 336.0742,286.22241 C 334.02135,278.66798 333.81629,277.66712 336.10372,277.53891 z M 367.81369,279.91306 C 370.32443,279.83337 376.40098,281.23452 377.19396,282.18962 C 377.19763,282.19435 377.22004,282.21744 377.22345,282.22216 C 377.22634,282.2268 377.25036,282.25003 377.25295,282.25465 C 377.25528,282.25929 377.25088,282.28259 377.25295,282.28718 C 377.25475,282.29175 377.28096,282.31514 377.28246,282.31971 C 377.28338,282.32421 377.2818,282.34778 377.28246,282.35223 C 377.28281,282.35667 377.28238,282.38035 377.28246,282.38475 C 377.28222,282.38938 377.28288,282.41239 377.28246,282.41728 C 377.20308,283.06476 375.57778,285.70353 373.62474,288.33635 L 370.02603,293.1822 L 368.13818,286.93789 C 367.20604,283.82391 366.63232,281.01872 366.75178,280.30333 C 366.75292,280.29745 366.75055,280.27634 366.75178,280.27079 C 366.75448,280.26034 366.77818,280.24744 366.78126,280.23825 C 366.78295,280.234 366.77952,280.2097 366.78126,280.20575 C 366.78503,280.19852 366.8066,280.17915 366.81078,280.1732 C 366.81815,280.16592 366.83187,280.14766 366.84027,280.1407 C 366.84473,280.13732 366.86506,280.11148 366.86978,280.10818 C 366.87476,280.10497 366.89404,280.11131 366.89928,280.10818 C 366.90475,280.10514 366.92307,280.07861 366.92877,280.07566 C 366.94071,280.06994 366.97485,280.04851 366.98776,280.04314 C 367.17513,279.97042 367.46394,279.92415 367.81369,279.91306 z M 352.38642,282.67744 C 352.84125,282.63243 353.55357,282.75035 354.53975,282.9051 C 356.51658,283.21535 358.33646,284.85818 358.63993,286.61266 C 359.00829,288.74237 358.80376,290.22902 358.28594,291.00323 C 358.24511,291.06219 358.18313,291.14791 358.13847,291.19834 C 358.08682,291.25459 358.01778,291.31592 357.96148,291.36094 C 357.94017,291.37728 357.89492,291.41123 357.873,291.42601 C 357.76968,291.4924 357.63455,291.55708 357.51902,291.5886 C 357.46916,291.60104 357.39388,291.61516 357.34203,291.62115 C 357.25506,291.62929 357.13898,291.63106 357.04704,291.62115 C 356.02145,291.49076 354.69415,290.21844 353.53683,287.75095 C 352.2029,284.90694 351.59048,283.55879 351.82597,283.00267 C 351.84514,282.96348 351.88592,282.90361 351.91445,282.8726 C 352.01786,282.77245 352.17163,282.69871 352.38642,282.67744 z "
       id="path2386"
       transform="translate(0,1.649994)" />
  </g>
</svg>
