<?xml version="1.0" encoding="UTF-8" standalone="no"?>
<svg xmlns="http://www.w3.org/2000/svg" version="1.1" xmlns:xlink="http://www.w3.org/1999/xlink" width="1200" height="600" viewBox="0 0 120 60">

<clipPath id="l">
 <rect width="20" height="60"/>
</clipPath>
<clipPath id="r">
 <rect width="20" height="60" x="20"/>
</clipPath>
<clipPath id="c">
 <circle cx="20" cy="39" r="5"/>
</clipPath>

<rect id="red_background" width="120" height="60" fill="#DC171C"/>
<rect id="blue_stripe" width="40" height="60" fill="#47AECF" x="40"/>


<g fill="#FBEA0F">

<circle id="lower_bow_of_crescent" cx="20" cy="20.5" r="5.5"/>
<circle id="upper_bow_of_crescent" cx="20" cy="18" r="6" fill="#DC171C"/>
<circle id="upper_circle" cx="20" cy="19" r="4"/>

<path id="flame" d="M 19.90,6.047 C 19.14,6.599 19.71,7.488 19.65,7.962 C 19.59,8.473 19.34,8.576 19.22,8.994 C 19.07,9.523 19.15,10.07 19.26,10.29 C 19.35,10.48 19.43,10.66 19.46,10.81 C 19.46,10.82 19.47,10.83 19.47,10.84 C 19.47,10.84 19.47,10.85 19.47,10.85 C 19.47,10.85 19.47,10.86 19.47,10.86 C 19.47,10.86 19.48,10.87 19.48,10.87 C 19.48,10.88 19.48,10.88 19.48,10.89 C 19.49,10.89 19.48,10.90 19.48,10.90 C 19.48,10.90 19.48,10.90 19.48,10.90 C 19.48,10.91 19.48,10.91 19.48,10.91 C 19.49,10.94 19.50,10.96 19.50,10.99 C 19.50,11.27 19.273086,11.5 18.99656,11.5 C 18.72,11.50 18.49,11.27 18.49,10.99 C 18.49,10.99 18.49,10.98 18.49,10.98 C 18.49,10.97 18.49,10.97 18.49,10.97 C 18.49,10.96 18.50,10.96 18.50,10.96 C 18.50,10.95 18.50,10.95 18.50,10.95 C 18.50,10.95 18.50,10.94 18.50,10.94 C 18.50,10.94 18.50,10.94 18.50,10.93 C 18.50,10.93 18.50,10.93 18.50,10.93 C 18.50,10.92 18.50,10.92 18.50,10.92 C 18.50,10.91 18.50,10.90 18.50,10.89 C 18.50,10.89 18.50,10.89 18.50,10.89 C 18.50,10.89 18.50,10.88 18.50,10.88 C 18.50,10.88 18.50,10.88 18.50,10.88 C 18.50,10.87 18.51,10.87 18.51,10.87 C 18.51,10.87 18.51,10.87 18.51,10.86 C 18.51,10.86 18.51,10.85 18.52,10.85 C 18.52,10.85 18.52,10.84 18.52,10.84 C 18.52,10.84 18.52,10.83 18.52,10.83 C 18.52,10.83 18.52,10.82 18.52,10.81 C 18.60,10.55 18.84,10.32 18.84,9.986 C 18.84,9.537 18.53,9.311 18.46,9.172 C 18.42,9.073 18.34,8.796 18.45,8.518 C 18.24,8.778 18.00,8.977 18.01,9.263 C 18.01,9.477 18.13,9.692 18.11,10.00 C 18.10,10.36 17.52,10.59 17.5,11.5 C 17.5,12.881866 18.61,14.00 20,14 C 21.381864,14 22.5,12.881866 22.5,11.5 C 22.47,10.59 21.89,10.36 21.88,10.00 C 21.86,9.692 21.98,9.477 21.98,9.263 C 21.99,8.977 21.75,8.778 21.54,8.518 C 21.65,8.796 21.57,9.073 21.53,9.172 C 21.46,9.311 21.15,9.537 21.15,9.986 C 21.15,10.32 21.39,10.55 21.47,10.81 C 21.47,10.81 21.47,10.82 21.47,10.82 C 21.47,10.82 21.47,10.82 21.47,10.82 C 21.47,10.83 21.47,10.83 21.47,10.83 C 21.47,10.83 21.47,10.84 21.47,10.84 C 21.48,10.85 21.48,10.86 21.48,10.86 C 21.48,10.87 21.48,10.88 21.49,10.89 C 21.49,10.90 21.49,10.90 21.49,10.91 C 21.49,10.92 21.49,10.93 21.49,10.94 C 21.49,10.94 21.49,10.95 21.49,10.96 C 21.49,10.96 21.50,10.96 21.50,10.97 C 21.50,10.97 21.50,10.97 21.50,10.97 C 21.50,10.98 21.50,10.98 21.50,10.98 C 21.50,10.98 21.50,10.99 21.50,10.99 C 21.50,11.27 21.279967,11.5 21.00344,11.5 C 20.78,11.50 20.60,11.35 20.53,11.16 C 20.53,11.16 20.53,11.16 20.53,11.16 C 20.51,11.10 20.49,11.05 20.49,10.99 C 20.49,10.96 20.50,10.93 20.51,10.90 C 20.51,10.90 20.50,10.90 20.51,10.89 C 20.51,10.89 20.51,10.88 20.51,10.88 C 20.51,10.87 20.52,10.86 20.52,10.86 C 20.52,10.85 20.52,10.85 20.52,10.84 C 20.52,10.84 20.52,10.83 20.52,10.83 C 20.52,10.82 20.53,10.82 20.53,10.81 C 20.53,10.81 20.53,10.81 20.53,10.81 C 20.58,10.63 20.68,10.46 20.72,10.34 C 20.80,10.12 20.97,9.771 20.97,9.315 C 20.97,8.970 20.89,8.198 20.47,7.600 C 20.13,7.122 19.91,6.917 19.79,6.608 C 19.74,6.451 19.78,6.248 19.90,6.047 z"/>

<rect id="left_beam" x="9" y="27" width="5" height="24"/>
<rect id="right_beam" x="26" y="27" width="5" height="24"/>

<path id="upper_triangle" d="M15,27 h10 l-5,3"/>
<rect id="upper_crossbeam" x="15" y="31" width="10" height="2"/>
<rect id="lower_crossbeam" x="15" y="45" width="10" height="2"/>
<path id="lower_triangle" d="M15,48 h10 l-5,3"/>

<circle id="background_circle_of_yin_yang" cx="20" cy="39" r="5"/>

<g clip-path="url(#c)">
 <g clip-path="url(#r)">
  <circle cx="20" cy="36.35" r="2.85" fill="#DC171C"/>
 </g>
 <circle cx="20" cy="36.35" r="2.45"/>
 <circle cx="20" cy="36.35" r="1" fill="#DC171C"/>

 <g clip-path="url(#l)">
  <circle cx="20" cy="41.65" r="2.85" fill="#DC171C"/>
 </g>
 <circle cx="20" cy="41.65" r="2.45"/>
 <circle cx="20" cy="41.65" r="1" fill="#DC171C"/>
 </g>
</g>
</svg>
