<?xml version="1.0" encoding="UTF-8" standalone="no"?>
<svg
   xmlns:dc="http://purl.org/dc/elements/1.1/"
   xmlns:cc="http://web.resource.org/cc/"
   xmlns:rdf="http://www.w3.org/1999/02/22-rdf-syntax-ns#"
   xmlns:svg="http://www.w3.org/2000/svg"
   xmlns="http://www.w3.org/2000/svg"
   xmlns:sodipodi="http://inkscape.sourceforge.net/DTD/sodipodi-0.dtd"
   xmlns:inkscape="http://www.inkscape.org/namespaces/inkscape"
   sodipodi:docbase="C:\Documents and Settings\David Nelson\Archives\Svg"
   sodipodi:docname="Flag_of_Albania.svg"
   inkscape:version="0.43"
   sodipodi:version="0.32"
   id="svg2"
   preserveAspectRatio="xMidYMid meet"
   viewBox="0 0 468 313"
   height="500"
   width="750"
   version="1.0">
  <defs
     id="defs13" />
  <sodipodi:namedview
     inkscape:current-layer="svg2"
     inkscape:window-y="125"
     inkscape:window-x="-2"
     inkscape:zoom="0.746"
     inkscape:cx="375"
     inkscape:cy="250"
     inkscape:window-height="540"
     inkscape:window-width="756"
     inkscape:pageshadow="2"
     inkscape:pageopacity="0.0"
     borderopacity="1.0"
     bordercolor="#666666"
     pagecolor="#ffffff"
     id="base" />
  <metadata
     id="metadata4">
Created by potrace 1.7, written by Peter Selinger 2001-2005
<rdf:RDF>
  <cc:Work
     rdf:about="">
    <dc:format>image/svg+xml</dc:format>
    <dc:type
       rdf:resource="http://purl.org/dc/dcmitype/StillImage" />
  </cc:Work>
</rdf:RDF>
</metadata>
  <rect
     y="-5.5948891e-005"
     x="-0.75000012"
     height="313.00006"
     width="469.5"
     id="rect1302"
     style="fill:#d81126;fill-opacity:1;fill-rule:nonzero;stroke:none;stroke-width:1.25;stroke-linecap:butt;stroke-linejoin:miter;stroke-miterlimit:4;stroke-opacity:1" />
  <path
     style="fill:#000000;stroke:none"
     d="M 198.77031,61.070079 C 198.33218,61.309059 197.61524,61.82685 197.13728,62.26498 C 196.5,62.822601 195.54408,63.021751 192.55682,63.141242 C 188.29501,63.260732 186.58231,63.937843 185.62639,65.809856 C 184.94928,67.124248 184.95098,67.243471 184.51037,68.350619 C 186.48739,67.787103 188.85263,66.964927 189.92804,67.164078 C 191.40175,67.482718 192.99495,68.39881 192.99495,68.95643 C 192.99495,69.155581 192.51699,69.633541 191.95937,70.031842 C 190.30892,70.437611 189.77681,70.437611 186.86113,70.031842 C 183.03744,69.434391 182.75863,69.314901 181.48407,67.881019 C 180.76713,67.044588 179.73154,65.889516 179.17392,65.252235 C 178.05868,64.017503 176.46548,63.818353 175.90786,64.893764 C 175.35024,65.889516 176.77665,67.338338 178.92748,68.891711 C 180.79949,70.245933 182.12135,71.186914 185.5069,71.545384 C 186.5624,71.664874 194.60616,71.638738 195.00446,71.867761 C 195.40277,72.096784 190.87586,74.027908 186.35268,72.679298 C 187.42809,74.869952 191.91954,76.563972 196.34068,76.962272 C 201.27961,77.440233 204.66516,78.515645 208.17021,80.825788 C 211.8744,83.255422 213.82608,85.406245 215.49894,88.951121 C 217.21163,92.456166 217.80908,95.40359 217.60993,98.868805 C 217.37095,103.13062 215.33962,105.32128 211.63542,105.32128 C 209.0863,105.32128 208.09055,104.84331 206.85582,103.13062 C 206.05921,101.93572 205.93972,101.3781 205.89989,96.837472 C 205.89989,92.575656 205.74057,91.619735 205.02363,90.225682 C 203.58975,87.397748 201.55842,86.083356 195.50425,83.932533 C 192.47716,82.857121 188.4145,81.303749 186.42299,80.427488 C 182.43999,78.754625 182.28067,78.794455 181.32475,81.502899 C 181.00611,82.418991 180.44849,83.135932 180.09001,83.215592 C 178.93494,83.454572 172.76128,81.343579 168.89777,79.431736 C 162.24615,76.086011 158.78093,73.138587 155.35555,67.761529 C 153.32421,64.575124 151.8505,63.659032 149.859,64.216653 C 147.58869,64.853934 146.31412,66.805607 146.27429,69.713202 C 146.23446,72.262325 147.4692,74.373319 150.69543,77.360573 C 156.15215,82.418991 166.34864,87.039278 175.15109,88.47316 C 178.05868,88.91129 179.45273,90.026532 179.45273,91.858715 C 179.45273,94.527329 176.54514,95.602741 169.45539,95.642571 C 162.80377,95.642571 158.62161,94.009538 154.39963,89.707892 C 151.69118,86.879957 150.73526,86.441827 148.98274,87.118938 C 148.10648,87.477408 147.19039,89.389251 147.19039,90.862963 C 147.19039,93.890048 151.17339,98.749315 155.27589,100.62133 C 158.3428,102.05521 161.17074,102.53317 165.87068,102.33402 C 169.37573,102.21453 170.69012,101.93572 173.67738,100.86031 C 179.65188,98.669655 180.16968,98.589995 180.88662,99.306936 C 181.44424,99.864557 181.44424,100.02388 180.84679,101.25861 C 179.8112,103.25011 175.90786,106.95431 173.63755,108.10938 C 168.22066,110.85765 162.88343,110.2602 155.1564,106.03822 C 151.21322,103.88739 149.14206,103.80773 147.98699,105.67975 C 147.54886,106.39669 147.19039,107.4721 147.19039,108.06955 C 147.19039,109.58309 149.18189,111.73391 152.2488,113.40678 C 156.19198,115.63726 158.98008,116.3542 163.56054,116.3542 C 167.66304,116.3542 170.25199,115.71692 175.66888,113.40678 C 178.41715,112.25171 179.53239,112.13222 180.24934,112.92882 C 180.92645,113.80508 179.73154,116.11522 177.26208,118.58469 C 173.55789,122.28888 166.18932,125.07698 161.17074,124.59902 C 159.73685,124.47953 157.98433,123.92191 156.43096,123.16514 C 153.24455,121.57194 150.41662,121.45245 148.98274,122.92616 C 147.15056,124.71851 147.8675,127.50662 150.77509,129.97608 C 152.68693,131.64894 154.67844,132.28623 157.78518,132.28623 C 161.29023,132.28623 163.44105,131.52945 170.88927,127.7456 C 177.70021,124.32021 179.29341,123.80242 179.69171,124.91766 C 180.16968,126.07274 178.89511,128.02441 175.31041,131.68877 C 167.94185,139.137 163.75969,140.61071 155.75385,138.61921 C 150.09798,137.18532 148.14631,138.14124 148.46495,142.04459 C 148.70393,144.79286 149.62002,146.10726 152.20897,147.42165 C 153.88184,148.29791 154.67844,148.4174 157.9445,148.4174 C 161.01142,148.37757 162.08683,148.21825 163.71986,147.50131 C 166.54779,146.18692 172.76128,141.9251 176.26633,138.85819 C 180.56798,135.07433 182.24084,134.35739 182.24084,136.2294 C 182.24084,138.06158 175.23075,147.70046 171.04859,151.56397 C 169.45539,153.03769 167.06559,154.75038 165.59187,155.46732 C 163.16224,156.66222 162.64445,156.78171 159.33855,156.74188 C 157.38688,156.74188 154.47929,156.66222 152.92591,156.54273 C 149.50053,156.34358 148.38529,157.02069 148.38529,159.29101 C 148.38529,161.402 151.37254,164.22993 154.51912,165.14603 C 161.01142,167.05787 168.10117,163.75197 176.86378,154.83004 C 183.35608,148.21825 184.27217,148.61655 180.44849,156.5029 C 176.38582,164.94687 171.24774,170.96121 165.95034,173.47051 C 163.20207,174.74507 162.48513,174.82473 155.35555,174.50609 C 152.20897,174.34677 150.77509,175.1832 150.77509,177.13487 C 150.77509,178.13062 151.13356,178.80774 152.2488,179.92298 C 156.31147,183.98564 163.04275,184.14496 169.89352,180.36111 C 173.75704,178.21028 183.15693,167.8943 188.37467,160.04778 C 191.16277,155.86562 191.87971,155.34783 192.83563,156.82154 C 193.43309,157.6978 193.47292,158.17576 193.11444,160.08761 C 191.9992,165.98246 189.17127,170.48325 184.90945,173.27136 C 182.16118,175.02388 181.5239,176.05946 182.04169,177.69249 C 182.67897,179.72383 186.58231,180.71958 188.97212,179.48485 C 191.80005,178.05096 195.38476,172.63408 198.8898,164.54857 C 201.3991,158.77322 201.55842,158.57407 202.79315,158.57407 C 206.01938,158.57407 204.90414,165.34518 200.96097,169.84597 C 199.20844,171.83748 198.92963,173.1917 200.16437,174.30694 C 201.19995,175.26286 202.75332,174.90439 205.50159,173.15187 C 208.05072,171.51883 209.44477,169.8858 211.31678,166.26127 C 213.66676,161.76047 214.62268,162.91554 212.71083,167.93413 C 210.04222,175.10354 203.66941,181.47635 194.70765,186.01698 C 193.31359,186.69409 192.19835,187.3712 192.19835,187.49069 C 192.19835,187.61018 192.99495,188.64576 193.99071,189.72117 C 194.98646,190.83641 195.78306,191.83217 195.78306,192.03132 C 195.78306,192.42962 190.32634,194.89908 183.87387,197.36854 L 178.09851,199.59903 L 175.11126,197.72701 C 171.00876,195.21772 168.73845,193.34571 168.26049,192.07115 C 167.30457,189.60168 164.23765,187.96865 161.96734,188.76525 C 161.17074,189.04406 160.21482,189.00423 158.70127,188.60593 C 155.19623,187.68984 153.06513,190.49267 152.51766,191.9417 C 153.72999,192.12203 153.14498,192.07115 154.00133,192.03132 C 157.58603,191.872 157.9445,191.99149 159.49787,193.58469 C 161.13091,195.25755 163.32156,196.09398 165.07408,195.77534 C 165.87068,195.61602 166.90627,196.05415 169.37573,197.68718 C 171.20791,198.84226 172.68162,199.91767 172.68162,200.07699 C 172.68162,200.47529 170.80961,200.47529 164.99442,199.99733 C 160.8521,199.67869 160.17498,199.51937 159.09957,198.64311 C 157.46654,197.24905 155.59453,196.97024 153.80218,197.80667 C 153.00557,198.20498 151.57169,198.52362 150.57594,198.56345 C 149.50053,198.60328 148.38529,198.96175 147.70818,199.43971 C 146.5531,200.31597 145.77019,200.76282 145.23871,202.50662 C 147.40197,202.47053 146.71242,202.46679 148.2658,202.26764 C 150.93441,201.86934 151.21322,201.90917 152.04965,202.66594 C 152.56744,203.10407 153.36404,203.70152 153.84201,203.9405 C 155.03691,204.53795 157.78518,204.49812 159.09957,203.78118 C 159.936,203.38288 161.80802,203.22356 166.14949,203.18373 C 169.41556,203.1439 172.28332,203.1439 172.48247,203.18373 C 172.72145,203.18373 171.40706,204.05999 169.61471,205.13541 C 166.54779,207.00742 166.26898,207.08708 163.6402,207.04725 C 160.13515,207.00742 158.14365,208.043 157.58603,210.27348 C 157.38688,211.07008 157.02841,212.50397 156.78943,213.38023 C 156.23181,215.49122 156.01405,215.81249 157.56612,219.45929 C 159.26268,215.46371 158.70127,216.68612 159.21906,215.92935 C 160.05549,214.69462 160.37414,214.49547 162.36564,214.33615 C 165.11391,214.09717 166.38847,213.26074 167.42406,211.07008 C 168.10117,209.55654 168.85794,208.91926 172.5223,206.64895 C 177.54089,203.5422 177.22225,203.5422 182.87812,206.17099 C 185.66622,207.48538 186.7018,208.16249 187.17977,209.07858 C 188.0162,210.75144 189.80855,211.38872 191.80005,210.79127 C 193.67207,210.23365 194.5085,210.55229 195.78306,212.34465 C 196.32076,213.12133 196.35073,212.96987 197.14664,213.69598 C 197.36959,212.58044 197.37626,212.42431 197.37626,211.30906 C 197.37626,209.67603 197.17711,209.35739 195.06612,207.20657 C 192.59665,204.7371 191.08311,204.05999 189.29076,204.7371 C 188.45433,205.05575 187.77722,204.93626 185.62639,203.9405 C 183.23659,202.86509 182.3205,201.98883 183.55523,201.98883 C 183.79421,201.98883 187.65773,200.55495 192.07886,198.84226 L 200.12454,195.73551 L 201.31944,196.69143 C 203.51009,198.40413 206.97531,199.99733 208.48885,199.99733 C 209.8829,199.99733 210.04222,199.87784 210.48035,198.44396 C 211.15746,196.17364 215.81758,187.21188 218.32687,183.38819 C 222.50903,176.93572 224.81917,175.26286 226.69119,177.33402 C 227.28864,178.01113 227.44796,178.76791 227.40813,181.23737 C 227.32847,188.52627 223.18614,198.04565 217.72942,203.42271 C 214.86166,206.29048 211.71508,207.84385 207.8914,208.40147 C 204.94397,208.79977 202.95247,209.55654 202.95247,210.31331 C 202.95247,211.10991 204.90414,213.42006 206.13887,214.05734 C 207.21429,214.61496 208.24987,214.73445 210.52018,214.65479 C 213.26845,214.5353 213.78625,214.37598 216.41503,212.78278 C 219.00398,211.2294 219.40228,211.10991 219.92007,211.62771 C 220.43787,212.1455 220.4777,212.50397 220.0794,213.93785 C 219.24296,217.04459 217.01248,218.47848 211.83457,219.11576 C 206.53717,219.79287 204.74482,221.38607 206.49734,223.85553 C 207.65242,225.44874 209.64392,226.28517 212.39219,226.28517 C 215.49894,226.28517 218.16755,224.93095 221.71243,221.58522 C 223.22597,220.19117 224.62002,219.15559 224.859,219.31491 C 225.41662,219.63355 225.37679,222.81995 224.77934,224.77163 C 224.22172,226.64364 221.71243,229.59106 220.19889,230.18851 C 219.60143,230.42749 218.08789,230.90545 216.85316,231.22409 C 212.51168,232.419 211.8744,234.09186 214.94132,236.12319 C 216.93282,237.43758 220.23872,237.55707 222.66835,236.402 C 224.26155,235.68506 228.64286,231.58257 229.47929,230.10885 C 230.19623,228.79446 230.953,229.75038 230.71402,231.70206 C 230.5547,233.33509 229.59878,235.16727 227.44796,238.19436 C 225.69543,240.58416 226.29288,243.81039 229.28014,248.1917 C 231.63011,251.65692 233.82077,253.96706 234.37839,253.60859 C 235.37414,252.97131 239.75544,247.11629 240.63171,245.20445 C 241.22916,243.92988 241.58763,242.45617 241.58763,241.18161 C 241.58763,239.38926 241.38848,238.87147 239.99443,237.11894 C 238.16224,234.8088 237.00717,231.90121 237.36564,230.46732 C 237.72411,229.1131 238.16224,229.23259 239.19782,230.86562 C 240.27324,232.57832 243.30032,235.28676 245.37148,236.36217 C 248.63755,238.03504 253.25784,237.11894 254.73155,234.56982 C 255.24934,233.6139 255.24934,233.41475 254.57223,232.73764 C 254.21376,232.29951 252.70021,231.6224 251.2265,231.22409 C 249.75279,230.86562 248.11976,230.308 247.56214,230.02919 C 246.24774,229.39191 244.65454,227.63939 243.77828,225.88687 C 242.90202,224.214 242.50372,219.75304 243.141,219.35474 C 243.41981,219.15559 244.69437,220.07168 246.3274,221.62505 C 249.75279,224.85129 252.10276,226.00636 255.60781,226.20551 C 257.83829,226.36483 258.5154,226.24534 259.7103,225.48857 C 262.29926,223.89536 263.09586,221.70471 261.423,220.54964 C 260.6264,219.95219 259.90946,219.79287 253.97478,218.67763 C 251.86378,218.27933 251.10701,217.92085 249.67313,216.5268 C 248.19942,215.09292 247.96044,214.65479 247.96044,213.22091 C 247.96044,212.34465 248.15959,211.46839 248.35874,211.34889 C 248.59772,211.18957 250.07143,211.86669 251.66463,212.82261 C 254.45274,214.49547 254.61206,214.5353 257.95778,214.5353 C 260.86538,214.5353 261.62215,214.41581 262.53824,213.69887 C 264.25093,212.42431 265.20685,210.95059 264.92804,210.0345 C 264.6094,209.03875 264.13144,208.87943 260.34759,208.40147 C 253.77563,207.56504 248.55789,203.18373 244.57488,195.0584 C 239.91477,185.65851 239.23765,176.49759 243.18083,176.49759 C 244.65454,176.49759 246.44689,178.32978 249.47398,182.83057 C 252.10276,186.81358 257.91795,198.04565 257.91795,199.20073 C 257.91795,200.99308 262.37892,199.87784 266.24243,197.08973 L 268.07462,195.73551 L 276.04063,198.84226 C 280.42194,200.51512 284.36511,202.02866 284.80324,202.18798 C 285.44052,202.38713 285.00239,202.70577 282.69225,203.78118 C 280.30245,204.89643 279.62533,205.05575 278.74907,204.7371 C 277.03638,204.09982 275.48301,204.7371 273.37202,206.88793 C 272.2966,208.00317 271.22119,209.2379 271.02204,209.59637 C 270.54408,210.51246 270.2565,212.13892 271.06187,213.71421 C 272.28088,212.34941 271.94909,212.88254 272.50671,212.08594 C 273.70161,210.37325 274.4076,210.31331 275.24403,210.55229 C 278.35077,211.42856 279.82449,211.07008 281.01939,208.99892 C 281.65667,207.92351 282.61259,207.32606 285.71933,205.97184 C 287.83033,205.01592 290.14047,204.21931 290.77775,204.25914 C 291.57435,204.25914 293.32688,205.13541 295.99549,206.88793 C 299.34121,209.07858 300.17765,209.79552 300.89459,211.30906 C 301.93017,213.38023 303.5632,214.33615 306.19198,214.33615 C 307.74536,214.33615 308.02417,214.49547 308.70128,215.61071 C 309.13941,216.32765 309.69703,217.44289 309.93601,218.12001 C 310.23474,218.91661 310.61641,219.58147 310.83936,220.21746 C 311.14416,219.46198 311.29023,218.67763 311.60887,217.7217 C 312.047,216.40731 312.047,215.84969 311.48938,214.25649 C 311.17074,213.22091 310.89193,212.02601 310.89193,211.54805 C 310.89193,210.15399 309.77669,208.40147 308.42247,207.72436 C 307.62587,207.28623 306.07249,207.04725 304.31997,207.00742 C 301.73102,206.96759 301.25306,206.80827 298.62427,205.21507 C 297.0709,204.25914 295.75651,203.38288 295.75651,203.22356 C 295.75651,202.7456 308.26315,203.34305 309.17924,203.86084 C 309.6572,204.13965 310.93176,204.37863 312.047,204.37863 C 313.71987,204.37863 314.27749,204.17948 315.47239,203.10407 L 316.9461,201.86934 L 319.77404,202.26764 C 321.36724,202.46679 321.61647,202.46241 322.76129,202.54645 C 322.22707,200.41941 318.81811,198.32447 317.14525,198.44396 C 316.42831,198.52362 315.15375,198.24481 314.31732,197.8465 C 312.4453,196.97024 310.89193,197.20922 308.98009,198.64311 C 307.82502,199.5592 307.06825,199.75835 303.36405,200.03716 C 301.05391,200.19648 298.2658,200.3558 297.19039,200.3558 C 294.76076,200.39563 294.99974,200.07699 299.14206,197.4482 C 301.53187,195.93466 302.40813,195.57619 303.32422,195.73551 C 305.07674,196.09398 306.90893,195.37704 308.58179,193.62452 C 310.17499,191.99149 310.53346,191.872 313.99868,192.03132 C 315.39273,192.07115 315.22136,192.07334 316.03987,192.17382 C 315.46691,190.28427 314.50526,189.29673 313.11121,188.6526 C 311.87337,188.18585 310.59134,188.57668 309.39644,188.89532 C 307.84306,189.29362 306.8691,189.04406 306.15215,188.76525 C 304.04116,187.96865 299.73952,190.27879 299.73952,192.23047 C 299.73952,193.02707 297.03107,195.25755 293.32688,197.52786 L 289.94132,199.5592 L 284.96256,197.64735 C 279.06771,195.37704 272.25677,192.42962 272.25677,192.11098 C 272.25677,192.03132 273.05338,190.9559 274.04913,189.80083 C 275.04488,188.68559 275.84148,187.65001 275.84148,187.53052 C 275.84148,187.41103 274.44743,186.5746 272.77456,185.61868 C 263.97212,180.83907 259.27217,176.25861 256.04594,169.4875 C 253.57648,164.26976 254.29342,161.52149 256.84254,166.42059 C 258.63489,169.84597 261.10436,172.51459 263.85263,173.86881 C 266.16277,175.06371 267.15853,175.14337 268.03479,174.26711 C 269.07037,173.23153 268.79156,171.79765 267.1187,169.80614 C 264.92804,167.17736 263.85263,164.78755 263.61365,162.07911 C 263.37467,159.52999 263.8128,158.57407 265.28651,158.57407 C 266.44159,158.57407 267.15853,159.49016 268.27377,162.35792 C 269.78731,166.26127 273.01354,172.55442 274.92539,175.22303 C 278.27111,179.92298 281.57701,181.23737 284.64392,179.16621 C 287.23288,177.45351 286.75492,175.54167 283.09055,173.11204 C 279.14737,170.48325 276.59825,166.65957 275.28386,161.28251 C 274.60675,158.57407 274.72624,156.94103 275.6025,156.22409 C 276.3991,155.54698 277.55417,156.66222 280.02364,160.36642 C 282.37361,163.91129 286.63543,169.20869 291.53452,174.62558 C 298.78359,182.71108 308.10383,185.3797 314.35715,181.15771 C 319.17658,177.89164 318.30032,174.22728 312.76394,174.50609 C 305.79368,174.86456 304.83776,174.7849 301.93017,173.35102 C 296.11498,170.48325 289.34387,161.84013 285.99814,152.9182 C 285.44052,151.36482 285.40069,150.88686 285.79899,150.4089 C 286.23712,149.89111 286.9939,150.52839 291.13622,154.71055 C 298.6641,162.39775 304.00133,165.46467 309.89618,165.5045 C 312.60462,165.54433 313.40123,165.38501 315.31307,164.46891 C 317.94185,163.15452 318.73845,162.35792 319.45539,160.32659 C 320.57064,157.10035 318.37998,155.82579 313.20208,156.62239 C 305.03691,157.89695 300.09799,155.66647 293.4862,147.70046 C 289.90149,143.39881 285.79899,137.30481 285.79899,136.2294 C 285.79899,134.43705 287.75067,135.15399 291.21588,138.30056 C 293.96416,140.80986 298.38529,144.03609 301.81068,146.10726 C 306.39114,148.85553 311.96734,149.33349 315.99018,147.34199 C 318.49947,146.10726 319.65455,144.3149 319.65455,141.60646 C 319.65455,139.81411 319.49522,139.37598 318.61896,138.69887 C 317.30457,137.66328 315.91052,137.66328 312.08683,138.65904 C 304.63861,140.61071 300.29714,139.05734 293.16756,131.96759 C 289.42353,128.26339 287.98965,126.11257 288.42778,124.95749 C 288.54727,124.59902 289.02523,124.32021 289.46336,124.32021 C 289.94132,124.32021 293.52603,125.91342 297.50903,127.86509 C 305.63436,131.8481 306.90893,132.28623 310.33431,132.28623 C 314.35715,132.28623 317.66304,130.69302 319.17658,127.94475 C 322.00452,122.92616 317.54355,120.09823 311.6487,123.16514 C 310.01567,124.0414 308.50213,124.47953 306.78944,124.59902 C 299.93867,125.11681 290.53877,120.33721 288.1888,115.07964 C 287.63118,113.80508 287.55152,113.24746 287.90999,112.84916 C 288.50744,112.13222 290.85741,112.49069 293.28705,113.72542 C 300.81493,117.50927 310.01567,117.23046 316.62746,113.00848 C 320.6503,110.45935 321.64605,108.30853 320.05285,105.67975 C 318.85794,103.72807 317.26474,103.92722 311.88768,106.59584 C 303.32422,110.89748 298.10648,110.89748 292.13197,106.55601 C 289.66251,104.76365 286.87441,101.13912 287.07356,99.944217 C 287.27271,98.589995 288.50744,98.589995 292.05231,100.02388 C 296.51328,101.81623 299.42087,102.41368 303.76235,102.41368 C 308.50213,102.41368 311.80802,101.49759 315.27324,99.147616 C 320.13251,95.921381 322.36299,90.385003 319.8537,87.875709 C 318.10117,86.083356 316.66729,86.601147 313.08259,90.265512 C 309.33856,94.129028 305.19623,95.642571 298.58444,95.642571 C 294.20314,95.642571 290.53877,94.96546 289.50319,93.969708 C 287.63118,92.217185 288.94557,89.110441 291.69384,88.67231 C 305.79368,86.362167 319.8537,78.356325 321.68588,71.625044 C 322.80112,67.482718 319.73421,63.220902 316.34865,64.216653 C 314.75545,64.654784 314.27749,65.132745 312.8436,67.642038 C 310.01567,72.541136 304.3598,77.241083 297.74801,80.148677 C 293.64552,81.98086 288.50744,83.494402 287.71084,83.175762 C 287.35237,83.056272 286.9939,82.339331 286.83458,81.582559 C 286.71509,80.825788 286.23712,79.909697 285.83882,79.551226 C 285.12188,78.913945 285.00239,78.913945 283.72783,79.551226 C 283.01089,79.949527 278.90839,81.542729 274.64658,83.175762 C 270.38476,84.768964 266.44159,86.401997 265.88396,86.800297 C 265.32634,87.238428 264.37042,88.31384 263.69331,89.229931 C 262.53824,90.862963 262.49841,91.101944 262.29926,96.399342 C 262.13994,100.70099 261.94079,102.09504 261.38317,102.93147 C 260.34759,104.5645 258.9137,105.28145 256.80271,105.32128 C 254.21376,105.36111 252.38157,104.28569 251.2265,102.01538 C 249.91211,99.466256 250.15109,95.12478 251.90361,90.663813 C 253.97478,85.326585 257.12135,81.98086 262.49841,79.352076 C 265.52549,77.838534 267.1187,77.440233 271.93813,76.962272 C 274.4076,76.723292 277.71908,76.905638 280.36778,72.57725 C 276.53416,73.920885 271.80624,75.036736 272.37693,72.439697 C 272.82937,71.422787 281.73633,71.219901 283.64817,70.980921 C 287.03373,70.58262 288.21867,70.010059 290.807,67.859236 C 292.40021,66.106713 292.88874,65.331895 292.01248,64.575124 C 290.93707,63.738693 289.66251,64.336143 288.02948,66.447137 C 285.99814,68.99626 284.86486,69.090861 280.52338,69.688312 C 276.77935,70.245933 275.44318,70.390313 275.44318,68.95643 C 275.44318,68.119999 276.19995,67.602208 278.07196,67.203908 C 279.14737,66.964927 280.40639,66.547974 283.01089,68.040339 C 282.97106,64.694614 280.93973,63.340392 275.56267,63.061582 C 272.53558,62.902261 271.57966,62.703111 270.98221,62.10566 C 268.63224,59.755687 263.69331,60.153987 256.76288,63.181072 C 253.13835,64.774274 249.83245,65.013254 245.84944,63.977673 C 243.18083,63.300562 242.38423,63.220902 242.38423,63.778523 C 242.38423,64.614954 244.81386,66.845437 246.72571,67.761529 C 247.84095,68.319149 248.71721,68.95643 248.75704,69.235241 C 248.75704,69.992012 245.9291,72.103005 243.77828,72.899606 C 242.70287,73.297907 241.78678,73.895358 241.78678,74.174168 C 241.78678,74.452979 242.54355,75.05043 243.49947,75.48856 C 244.41556,75.966521 245.17233,76.524142 245.17233,76.802952 C 245.17233,77.639383 241.90627,80.108847 240.43256,80.347828 C 237.80377,80.785958 237.68428,80.865618 238.91901,81.94103 C 239.51646,82.458821 240.39273,82.896951 240.83086,82.896951 C 241.9461,82.896951 241.78678,83.494402 240.15375,85.127435 C 238.83935,86.401997 238.52071,86.521487 237.20632,86.322337 C 236.40972,86.202846 235.61312,86.202846 235.49363,86.322337 C 235.37414,86.441827 235.57329,87.198598 235.93176,87.955369 C 236.56904,89.269761 236.56904,89.389251 235.81227,89.907042 C 234.85635,90.623983 233.18348,90.623983 232.18773,89.867212 C 231.47079,89.349421 231.47079,89.269761 232.1479,88.074859 C 232.98433,86.521487 232.70552,85.963866 231.23181,86.282506 C 229.91742,86.561317 228.72252,86.043526 227.40813,84.529984 C 226.21322,83.215592 226.21322,83.056272 227.56745,82.777461 C 229.99708,82.25967 230.83351,80.507148 228.60303,80.507148 C 226.81068,80.507148 222.82767,77.918194 222.8675,76.763122 C 222.90733,76.524142 223.6641,75.966521 224.58019,75.52839 C 226.65136,74.532639 226.69119,73.775868 224.77934,73.098757 C 222.90733,72.461476 219.84041,70.390313 219.5616,69.553881 C 219.36245,69.155581 219.80058,68.71745 220.91583,68.159829 C 222.94716,67.124248 225.6556,64.654784 225.6556,63.898013 C 225.6556,63.260732 225.05815,63.300562 221.87175,64.136993 C 220.99549,64.375973 219.00398,64.575124 217.41078,64.575124 C 215.10064,64.575124 214.10489,64.336143 211.8744,63.340392 C 206.45751,60.950588 200.80165,59.954837 198.77031,61.070079 z M 205.05508,68.584426 C 206.09066,69.261537 208.62587,65.762032 207.13463,69.753032 C 206.29819,70.430143 201.91689,70.111502 201.12029,69.275071 C 200.32369,68.47847 200.96097,67.084418 202.23553,66.845437 C 206.66028,65.58441 204.0195,67.907315 205.05508,68.584426 z M 266.99921,67.522548 C 268.3136,68.83694 266.44159,70.151332 263.33484,70.151332 C 261.18402,70.151332 259.90946,69.314901 260.54674,68.279319 C 262.66173,64.536066 260.87631,69.730121 262.61661,68.283916 C 264.14402,67.014619 264.70498,65.392026 266.99921,67.522548 z "
     id="path10"
     sodipodi:nodetypes="ccccccccccccccsccccccccccccccccccccccccccccccccccccccccccccccccccccccccccccccccccccccccccccccccccccccccccccccccccccccccccccccccccccccccccccccccccccccccccccccccccccccccccccccccccccccccccccccccccccccccccccccccccccccccccccccccccccccccccccccccccccccccccccccccccccccccccccccccccccccccccccccccccccccccccccccccccccccccccccccccccccccccccccccccccccccccccccccccccccccccccccccccccccccccccccccccsc" />
</svg>
