<?xml version="1.0" encoding="UTF-8" standalone="no"?>
<svg xmlns:svg="http://www.w3.org/2000/svg" xmlns="http://www.w3.org/2000/svg" xmlns:xlink="http://www.w3.org/1999/xlink" version="1.0" width="600" height="300">
    <rect width="600" height="300" fill="#fff"/>
    <rect width="600" height="200" y="100" fill="#005be6"/>
    <rect width="600" height="100" y="200" fill="#f00"/>
    <g transform="matrix(1.050006,0,0,1.050006,-5.324168,171.2953)">
      <path d="M 147.93486,-115.51866 C 133.8387,-115.50101 120.4866,-111.14292 111.11762,-106.92839 L 113.95988,-62.409037 C 115.92918,-39.144595 131.08959,-25.599947 147.93486,-20.281087 C 164.78013,-25.599947 179.94055,-39.144595 181.90984,-62.409037 L 184.73639,-106.78701 C 175.30457,-111.66915 162.03102,-115.40675 147.93486,-115.51866 z " fill="#ff0000" fill-opacity="1" fill-rule="evenodd" stroke="none" stroke-width="1pt" stroke-linecap="butt" stroke-linejoin="miter" stroke-opacity="0.43220341"/>
      <path d="M 147.92701,-115.51866 C 134.84124,-115.50149 122.44621,-112.17309 113.74879,-108.07554 L 116.38732,-63.883164 C 118.21546,-41.264457 132.28919,-28.095757 147.92701,-22.924529 C 163.56483,-28.095757 177.63855,-41.264457 179.46669,-63.883164 L 182.10522,-108.07554 C 173.4078,-112.17309 161.01277,-115.50149 147.92701,-115.51866 z " fill="#005be6" fill-opacity="1" fill-rule="evenodd" stroke="none" stroke-width="1pt" stroke-linecap="butt" stroke-linejoin="miter" stroke-opacity="0.43220341"/>
      <path d="M 147.93437,-84.711566 L 139.61992,-68.475379 L 134.24468,-75.458289 L 120.19909,-56.896511 C 120.45293,-55.744321 120.75104,-54.632143 121.07655,-53.546187 C 122.64524,-50.898744 125.65971,-47.876405 129.52599,-47.876407 C 132.59406,-47.876407 135.66212,-50.330855 138.73018,-50.330857 C 141.79825,-50.330857 144.86631,-47.876405 147.93437,-47.876407 C 151.00243,-47.876407 154.07049,-50.330855 157.13856,-50.330857 C 160.20662,-50.330857 163.27468,-47.876405 166.34275,-47.876407 C 170.17409,-47.876407 173.16847,-50.842581 174.74924,-53.472553 C 175.08664,-54.587616 175.3897,-55.736118 175.65125,-56.921056 L 161.62406,-75.458289 L 156.24882,-68.475379 L 147.93437,-84.711566 z M 138.73018,-47.876407 C 135.66212,-47.876407 132.59406,-45.421955 129.52599,-45.421957 C 127.09781,-45.421957 125.01187,-46.281957 123.39601,-47.502104 C 123.96663,-46.291025 124.57023,-45.113182 125.23071,-43.998376 C 126.49646,-43.211324 127.93497,-42.679107 129.52599,-42.679109 C 132.59406,-42.679109 135.66212,-45.133561 138.73018,-45.133559 C 141.79825,-45.133559 144.86631,-42.679105 147.93437,-42.679109 C 151.00243,-42.679109 154.07049,-45.133561 157.13856,-45.133559 C 160.20662,-45.133559 163.27468,-42.679105 166.34275,-42.679109 C 167.91132,-42.679109 169.32978,-43.199459 170.58281,-43.967696 C 171.24299,-45.078894 171.84617,-46.252688 172.41751,-47.459151 C 170.80931,-46.261793 168.74264,-45.421957 166.34275,-45.421957 C 163.27468,-45.421957 160.20662,-47.876405 157.13856,-47.876407 C 154.07049,-47.876407 151.00243,-45.421955 147.93437,-45.421957 C 144.86631,-45.421957 141.79825,-47.876405 138.73018,-47.876407 z M 138.73018,-42.679109 C 135.66212,-42.679109 132.59406,-40.224655 129.52599,-40.224659 C 128.85942,-40.224659 128.22555,-40.302744 127.61152,-40.421015 C 132.91943,-33.329937 140.16104,-28.583366 147.92823,-25.853855 C 155.67939,-28.578869 162.90955,-33.328831 168.21426,-40.408743 C 167.61376,-40.295893 166.9932,-40.224659 166.34275,-40.224659 C 163.27468,-40.224659 160.20662,-42.679105 157.13856,-42.679109 C 154.07049,-42.679109 151.00243,-40.224655 147.93437,-40.224659 C 144.86631,-40.224659 141.79825,-42.679105 138.73018,-42.679109 z " fill="#ffffff" fill-opacity="1" fill-rule="evenodd" stroke="none" stroke-width="1pt" stroke-linecap="butt" stroke-linejoin="miter" stroke-opacity="1"/>
      <g transform="translate(0,-6.7e-4)">
        <path d="M 134.0937,-109.56066 L 141.05452,-109.56066 L 137.57411,-103.53333" fill="#ffe600" fill-opacity="1" fill-rule="evenodd" stroke="none" stroke-width="1pt" stroke-linecap="butt" stroke-linejoin="miter" stroke-opacity="1"/>
        <use transform="matrix(1,0,0,-1,3e-4,-215.1037)" id="use7444" x="0" y="0" width="600" height="300" xlink:href="#path34720"/>
      </g>
      <use transform="translate(20.7203,0)" id="use7450" x="0" y="0" width="600" height="300" xlink:href="#g7446"/>
      <use transform="translate(10.3603,13.875)" id="use7452" x="0" y="0" width="600" height="300" xlink:href="#g7446"/>
    </g>
</svg>
