<?xml version="1.0" encoding="UTF-8" standalone="no"?>
<svg xmlns:dc="http://purl.org/dc/elements/1.1/" xmlns:cc="http://web.resource.org/cc/" xmlns:rdf="http://www.w3.org/1999/02/22-rdf-syntax-ns#" xmlns:svg="http://www.w3.org/2000/svg" xmlns="http://www.w3.org/2000/svg" height="500" id="svg548" width="750" version="1.0">
  
  <defs id="defs550"/>
  <sodipodi:namedview id="base" showgrid="true" snaptogrid="true"/>
  <g>
    <rect height="167.85709" width="749.99969" x="0" y="0.00019565105" font-size="12px" fill="#3e9a00" fill-rule="evenodd" stroke-width="1pt"/>
    <rect height="164.28561" width="749.99963" x="0" y="167.85733" font-size="12px" fill="#ffffff" fill-rule="evenodd" stroke-width="1pt"/>
    <rect height="167.85706" width="749.99963" x="0" y="332.14291" font-size="12px" fill="#e32118" fill-rule="evenodd" stroke-width="1pt"/>
    <g transform="matrix(0.198995,0,0,0.18119,289.2054,174.4732)">
      <path transform="matrix(1.169841,0,0,1,-85.82144,-3.051758e-5)" d="M 283.4,148.8 L 283.4,591.7 C 283.4,627.1 301.1,662.5 336.6,662.5 L 407.4,662.5 C 425.1,662.5 442.9,698.0 442.9,698.0 C 442.9,698.0 459.8,662.5 478.3,662.5 L 549.2,662.5 C 584.6,662.5 602.3,627.1 602.3,591.7 L 602.3,148.8 L 283.4,148.8 z " fill="#cccccc" fill-opacity="1" fill-rule="evenodd" stroke="#000000" stroke-width="3.790" stroke-linecap="butt" stroke-linejoin="miter" stroke-dasharray="none" stroke-opacity="1"/>
      <g transform="matrix(1.107997,0,0,1,-59.60719,-3.051758e-5)">
        <g transform="matrix(1.061174,0,0,0.999987,-28.55449,-106.2908)">
          <path transform="translate(-2.478656,1.676758)" d="M 215.3,731.7 C 197.3,731.7 179.6,714.0 179.6,696.3 C 179.6,678.0 179.6,625.4 179.6,607.7 C 195.1,623.2 268.2,678.6 250.5,696.3 C 232.7,714.0 214.7,696.3 215.0,696.3 C 215.3,696.3 215.3,731.7 215.3,731.7 z " fill="#cccccc" fill-opacity="1" fill-rule="evenodd" stroke="#000000" stroke-width="1pt" stroke-linecap="butt" stroke-linejoin="miter" stroke-opacity="1"/>
          <path transform="translate(-6.118104,10.25616)" d="M 218.7,687.7 C 236.4,670.0 236.4,705.4 254.1,687.7 L 236.4,794.0 C 219.2,790.7 218.6,794.0 208.7,776.3 C 208.7,758.6 208.7,702.0 218.7,687.7 z " fill="#cccccc" fill-opacity="1" fill-rule="evenodd" stroke="none" stroke-width="1.25" stroke-linecap="butt" stroke-linejoin="miter" stroke-dasharray="none" stroke-opacity="1"/>
          <path transform="matrix(-1,0,0,1,891.0562,1.676529)" d="M 215.3,731.7 C 197.3,731.7 179.6,714.0 179.6,696.3 C 179.6,678.0 179.6,625.4 179.6,607.7 C 195.1,623.2 268.2,678.6 250.5,696.3 C 232.7,714.0 214.7,696.3 215.0,696.3 C 215.3,696.3 215.3,731.7 215.3,731.7 z " fill="#cccccc" fill-opacity="1" fill-rule="evenodd" stroke="#000000" stroke-width="1pt" stroke-linecap="butt" stroke-linejoin="miter" stroke-opacity="1"/>
          <path transform="matrix(-1,0,0,1,891.9453,10.25571)" d="M 218.7,687.7 C 236.4,670.0 236.4,705.4 254.1,687.7 L 236.4,794.0 C 219.2,790.7 218.6,794.0 208.7,776.3 C 208.7,758.6 208.7,702.0 218.7,687.7 z " fill="#cccccc" fill-opacity="1" fill-rule="evenodd" stroke="none" stroke-width="1.25" stroke-linecap="butt" stroke-linejoin="miter" stroke-dasharray="none" stroke-opacity="1"/>
          <path transform="translate(-1.144409e-4,-283.4597)" d="M 513.7,1140. C 513.7,1123. 478.3,1087. 478.3,1070. C 478.3,1052. 513.7,1087. 584.6,1087. C 655.5,1087. 690.9,999.2 673.2,981.4 C 690.9,1016. 690.9,1052. 690.9,1070. C 690.9,1105. 655.5,1140. 584.6,1140. C 549.2,1140. 531.4,1140. 513.7,1140. z " font-size="12px" fill="#cccccc" fill-opacity="1" fill-rule="evenodd" stroke="#000000" stroke-width="1pt"/>
          <path transform="matrix(-1,0,0,1,885.8273,-283.4597)" d="M 513.7,1140. C 513.7,1123. 478.3,1087. 478.3,1070. C 478.3,1052. 513.7,1087. 584.6,1087. C 655.5,1087. 690.9,999.2 673.2,981.4 C 690.9,1016. 690.9,1052. 690.9,1070. C 690.9,1105. 655.5,1140. 584.6,1140. C 549.2,1140. 531.4,1140. 513.7,1140. z " font-size="12px" fill="#cccccc" fill-opacity="1" fill-rule="evenodd" stroke="#000000" stroke-width="1pt"/>
          <path transform="matrix(-1,0,0,1,921.2604,-177.1632)" d="M 549.2,1016. C 549.2,999.2 513.7,981.4 513.7,963.7 L 513.7,1052. L 549.2,1052. L 549.2,1016. z " fill="#cccccc" fill-opacity="1" fill-rule="evenodd" stroke="none" stroke-width="1pt" stroke-linecap="butt" stroke-linejoin="miter" stroke-opacity="1"/>
          <path transform="translate(-35.43342,-177.1649)" d="M 549.2,1016. C 549.2,999.2 513.7,981.4 513.7,963.7 L 513.7,1052. L 549.2,1052. L 549.2,1016. z " fill="#cccccc" fill-opacity="1" fill-rule="evenodd" stroke="none" stroke-width="1pt" stroke-linecap="butt" stroke-linejoin="miter" stroke-opacity="1"/>
          <path transform="translate(0.875511,-194.8863)" d="M 371.1,1034. C 371.1,1052. 512.9,1052. 512.9,1034. C 512.9,1052. 512.9,1087. 512.9,1105. C 512.9,1123. 371.1,1123. 371.1,1105. C 371.1,1087. 371.1,1052. 371.1,1034. z " font-size="12px" fill="#cccccc" fill-opacity="1" fill-rule="evenodd" stroke="#000000" stroke-width="1pt"/>
          <path transform="translate(-1.602649,1.676758)" d="M 249.6,696.3 C 231.9,714.0 231.9,678.6 214.2,696.3 C 196.4,714.0 231.9,802.6 302.7,802.6 C 373.6,802.6 409.0,767.2 409.0,784.9 C 409.0,802.6 373.6,820.3 373.6,838.0 C 373.6,855.8 515.3,855.8 515.3,838.0 C 515.3,820.3 479.9,802.6 479.9,784.9 C 479.9,767.2 515.3,802.6 586.2,802.6 C 657.1,802.6 692.5,714.0 674.8,696.3 C 657.1,678.6 657.1,714.0 639.3,696.3" fill="none" fill-opacity="1" fill-rule="evenodd" stroke="#000000" stroke-width="1.25" stroke-linecap="butt" stroke-linejoin="miter" stroke-dasharray="none" stroke-opacity="1"/>
        </g>
        <path transform="matrix(0.897013,-0.442005,0.391587,0.794694,-121.7215,233.9962)" d="M 497.6,890.0 L 497.6,840.6 L 501.3,840.6 L 501.3,890.0 L 497.6,890.0 z " font-size="12px" font-weight="normal" stroke-width="1pt" font-family="helvetica"/>
        <path transform="matrix(0.927135,-0.374729,0.331985,0.82138,-81.63618,179.0662)" d="M 488.5,872.6 L 492.3,874.3 C 491.5,879.7 490.1,883.8 488.0,886.6 C 486.0,889.4 483.5,890.8 480.5,890.8 C 477.4,890.8 474.9,889.7 473.0,887.6 C 471.1,885.4 469.6,882.2 468.6,878.1 C 467.6,874.0 467.1,869.6 467.1,864.9 C 467.1,859.7 467.7,855.3 468.8,851.4 C 470.0,847.6 471.6,844.7 473.7,842.7 C 475.7,840.7 478.1,839.763 480.6,839.7 C 483.4,839.7 485.8,841.0 487.7,843.5 C 489.7,846.0 491.0,849.5 491.8,854.1 L 488.1,855.6 C 487.4,852.0 486.5,849.4 485.2,847.8 C 484.0,846.1 482.4,845.3 480.5,845.3 C 478.3,845.3 476.5,846.2 475.0,848.0 C 473.5,849.9 472.5,852.3 471.9,855.4 C 471.3,858.4 471.0,861.6 471.0,864.9 C 471.0,869.1 471.4,872.7 472.1,875.9 C 472.8,879.0 473.9,881.3 475.4,882.9 C 476.8,884.4 478.5,885.2 480.2,885.2 C 482.3,885.2 484.1,884.2 485.5,882.0 C 487.0,879.9 488.0,876.8 488.5,872.6 z " font-size="12px" font-weight="normal" stroke-width="1pt" font-family="helvetica"/>
        <path transform="matrix(0.957629,-0.288006,0.255154,0.848396,-28.13263,116.6485)" d="M 457.8,890.0 L 457.8,840.6 L 461.6,840.6 L 461.6,890.0 L 457.8,890.0 z " font-size="12px" font-weight="normal" stroke-width="1pt" font-family="helvetica"/>
        <path transform="matrix(0.996305,-8.588082e-2,7.608473e-2,0.882661,107.3054,-3.282272)" d="M 440.1,890.0 L 440.1,846.4 L 430.8,846.4 L 430.8,840.6 L 453.3,840.6 L 453.3,846.4 L 443.9,846.4 L 443.9,890.0 L 440.1,890.0 z " font-size="12px" font-weight="normal" stroke-width="1pt" font-family="helvetica"/>
        <path transform="matrix(1,0,0,0.885934,172.3411,-41.58481)" d="M 405.1,874.1 L 408.7,873.6 C 408.8,876.0 409.2,878.1 409.8,879.6 C 410.5,881.2 411.4,882.5 412.7,883.5 C 414.0,884.5 415.5,884.9 417.1,884.9 C 418.5,884.9 419.8,884.6 420.9,883.8 C 422.0,883.1 422.8,882.1 423.3,880.8 C 423.9,879.5 424.1,878.1 424.1,876.5 C 424.1,875.0 423.9,873.6 423.4,872.5 C 422.8,871.3 422.0,870.4 420.8,869.6 C 420.0,869.1 418.4,868.3 415.7,867.2 C 413.1,866.1 411.3,865.0 410.3,864.1 C 408.9,862.8 407.9,861.3 407.2,859.5 C 406.5,857.7 406.2,855.6 406.2,853.3 C 406.2,850.8 406.6,848.5 407.4,846.4 C 408.3,844.2 409.4,842.5 411.0,841.4 C 412.6,840.3 414.3,839.7 416.2,839.7 C 418.3,839.7 420.2,840.3 421.8,841.5 C 423.4,842.7 424.7,844.4 425.5,846.7 C 426.4,849.0 426.9,851.6 426.9,854.5 L 423.3,854.9 C 423.1,851.8 422.5,849.5 421.3,847.9 C 420.2,846.3 418.6,845.5 416.4,845.5 C 414.1,845.5 412.4,846.2 411.4,847.7 C 410.4,849.1 409.8,850.8 409.8,852.9 C 409.8,854.7 410.2,856.1 410.9,857.3 C 411.7,858.4 413.6,859.6 416.6,860.8 C 419.7,862.0 421.8,863.0 422.9,863.9 C 424.6,865.3 425.8,867.0 426.6,869.0 C 427.4,871.0 427.8,873.4 427.8,876.0 C 427.8,878.6 427.3,881.1 426.5,883.5 C 425.6,885.8 424.4,887.6 422.7,888.9 C 421.1,890.2 419.3,890.8 417.3,890.8 C 414.7,890.8 412.572,890.2 410.827,888.9 C 409.0,887.5 407.7,885.6 406.7,883.0 C 405.7,880.4 405.2,877.4 405.1,874.1 z " font-size="12px" font-weight="normal" stroke-width="1pt" font-family="helvetica"/>
        <path transform="matrix(0.998965,4.549658e-2,-4.030697e-2,0.885017,205.1411,-59.32185)" d="M 396.4,840.6 L 400.1,840.6 L 400.1,869.1 C 400.1,874.1 399.8,878.0 399.2,880.9 C 398.5,883.9 397.4,886.2 395.7,888.1 C 394.0,889.9 391.8,890.8 389.0,890.8 C 386.4,890.8 384.2,890.0 382.5,888.4 C 380.8,886.8 379.6,884.5 378.9,881.5 C 378.1,878.5 377.8,874.3 377.8,869.1 L 377.8,840.6 L 381.5,840.6 L 381.5,869.1 C 381.5,873.4 381.8,876.5 382.2,878.6 C 382.7,880.6 383.5,882.2 384.6,883.3 C 385.7,884.4 387.1,884.9 388.7,884.9 C 391.5,884.9 393.4,883.8 394.6,881.6 C 395.8,879.5 396.4,875.3 396.4,869.1 L 396.4,840.6 z " font-size="12px" font-weight="normal" stroke-width="1pt" font-family="helvetica"/>
        <path transform="matrix(1,0,0,0.885934,164.8481,-44.08252)" d="M 355.9,875.9 L 359.3,875.1 C 359.4,878.9 359.8,881.5 360.5,882.9 C 361.3,884.3 362.3,885.0 363.6,885.0 C 364.5,885.0 365.3,884.6 366.0,883.9 C 366.7,883.1 367.2,882.1 367.4,880.8 C 367.7,879.5 367.8,877.4 367.8,874.6 L 367.8,840.6 L 371.6,840.6 L 371.6,874.2 C 371.6,878.4 371.3,881.6 370.7,883.8 C 370.1,886.1 369.2,887.8 368.0,889.0 C 366.7,890.2 365.3,890.8 363.6,890.8 C 361.1,890.8 359.2,889.6 357.8,887.1 C 356.5,884.6 355.9,880.9 355.9,875.9 z " font-size="12px" font-weight="normal" stroke-width="1pt" font-family="helvetica"/>
        <path transform="translate(136.5408,-84.92175)" d="M 320.3,890.0 L 320.3,883.9 L 334.8,852.3 C 335.9,850.0 336.9,848.0 337.8,846.4 L 321.9,846.4 L 321.9,840.6 L 342.3,840.6 L 342.3,846.4 L 326.3,880.7 L 324.6,884.1 L 342.8,884.1 L 342.8,890.0 L 320.3,890.0 z " font-size="12px" font-weight="normal" stroke-width="1pt" font-family="helvetica"/>
        <path transform="matrix(0.983392,0.181494,-0.181494,0.983392,249.7245,-160.6504)" d="M 164.2,890.0 L 164.2,840.6 L 168.0,840.6 L 168.0,890.0 L 164.2,890.0 z " font-size="12px" font-weight="normal" stroke-width="1pt" font-family="helvetica"/>
        <path transform="matrix(0.880932,0.473243,-0.473243,0.880932,511.8177,-122.6323)" d="M 134.8,890.0 L 134.8,840.6 L 138.7,840.6 L 153.6,879.3 L 153.6,840.6 L 157.3,840.6 L 157.3,890.0 L 153.4,890.0 L 138.5,851.1 L 138.5,890.0 L 134.8,890.0 z " font-size="12px" font-weight="normal" stroke-width="1pt" font-family="helvetica"/>
        <path transform="matrix(0.707807,0.706406,-0.706406,0.707807,734.9689,-6.534836)" d="M 124.9,840.6 L 128.6,840.6 L 128.6,869.1 C 128.6,874.1 128.3,878.0 127.6,880.9 C 127.0,883.9 125.8,886.2 124.1,888.1 C 122.5,889.9 120.2,890.8 117.5,890.8 C 114.8,890.8 112.7,890.0 111.0,888.4 C 109.3,886.8 108.1,884.5 107.3,881.5 C 106.6,878.5 106.2,874.3 106.2,869.1 L 106.2,840.6 L 110.0,840.6 L 110.0,869.1 C 110.0,873.4 110.2,876.5 110.7,878.6 C 111.2,880.6 111.9,882.2 113.1,883.3 C 114.2,884.4 115.6,884.9 117.2,884.9 C 119.9,884.9 121.9,883.8 123.1,881.6 C 124.3,879.5 124.9,875.3 124.9,869.1 L 124.9,840.6 z " font-size="12px" font-weight="normal" stroke-width="1pt" font-family="helvetica"/>
        <path transform="matrix(0.999617,2.766579e-2,-2.766579e-2,0.999617,119.7559,-146.3625)" d="M 174.6,890.0 L 174.6,840.6 L 184.4,840.6 C 186.6,840.6 188.3,840.8 189.5,841.3 C 191.1,841.9 192.5,843.1 193.6,844.8 C 195.1,847.0 196.3,849.8 197.0,853.3 C 197.8,856.7 198.1,860.6 198.1,865.0 C 198.1,868.7 197.9,872.1 197.4,875.0 C 196.9,877.9 196.2,880.3 195.4,882.2 C 194.6,884.1 193.8,885.6 192.8,886.7 C 191.9,887.7 190.8,888.6 189.4,889.1 C 188.1,889.7 186.6,890.0 184.9,890.0 L 174.6,890.0 z M 178.4,884.1 L 184.5,884.1 C 186.3,884.1 187.8,883.8 188.9,883.2 C 189.9,882.6 190.8,881.8 191.4,880.7 C 192.3,879.1 193.0,877.0 193.5,874.4 C 194.0,871.8 194.2,868.6 194.2,864.9 C 194.2,859.7 193.8,855.8 192.8,853.0 C 191.8,850.2 190.6,848.3 189.2,847.4 C 188.2,846.7 186.6,846.4 184.4,846.4 L 178.4,846.4 L 178.4,884.1 z " font-size="12px" font-weight="normal" stroke-width="1pt" font-family="helvetica"/>
        <path transform="translate(95.74509,-141.5362)" d="M 200.2,890.0 L 211.1,840.6 L 215.2,840.6 L 226.8,890.0 L 222.5,890.0 L 219.2,875.0 L 207.3,875.0 L 204.2,890.0 L 200.2,890.0 z M 208.4,869.7 L 218.0,869.7 L 215.1,856.0 C 214.2,851.8 213.5,848.4 213.0,845.7 C 212.7,848.9 212.2,852.1 211.5,855.2 L 208.4,869.7 z " font-size="12px" font-weight="normal" stroke-width="1pt" font-family="helvetica"/>
        <path transform="translate(95.74509,-141.5362)" d="M 229.8,890.0 L 229.8,840.6 L 239.6,840.6 C 241.8,840.6 243.5,840.8 244.7,841.3 C 246.3,841.9 247.7,843.1 248.8,844.8 C 250.3,847.0 251.5,849.8 252.2,853.3 C 252.9,856.7 253.3,860.6 253.3,865.0 C 253.3,868.7 253.1,872.1 252.6,875.0 C 252.1,877.9 251.4,880.3 250.6,882.2 C 249.8,884.1 249.0,885.6 248.0,886.7 C 247.1,887.7 246.0,888.6 244.6,889.1 C 243.3,889.7 241.8,890.0 240.1,890.0 L 229.8,890.0 z M 233.6,884.1 L 239.6,884.1 C 241.5,884.1 243.0,883.8 244.0,883.2 C 245.1,882.6 246.0,881.8 246.6,880.7 C 247.5,879.1 248.2,877.0 248.7,874.4 C 249.2,871.8 249.4,868.6 249.4,864.9 C 249.4,859.7 249.0,855.8 248.0,853.0 C 247.0,850.2 245.8,848.3 244.4,847.4 C 243.4,846.7 241.8,846.4 239.5,846.4 L 233.6,846.4 L 233.6,884.1 z " font-size="12px" font-weight="normal" stroke-width="1pt" font-family="helvetica"/>
        <path transform="translate(136.5408,-84.92175)" d="M 269.5,890.0 L 269.5,840.6 L 280.3,840.6 C 282.2,840.6 283.6,840.7 284.6,841.0 C 286.0,841.4 287.2,842.2 288.1,843.4 C 289.1,844.5 289.8,846.1 290.4,848.1 C 291.0,850.1 291.3,852.4 291.3,854.8 C 291.3,859.0 290.5,862.6 288.9,865.5 C 287.4,868.4 284.6,869.9 280.6,869.9 L 273.3,869.9 L 273.3,890.0 L 269.5,890.0 z M 273.3,864.0 L 280.7,864.0 C 283.1,864.0 284.8,863.3 285.8,861.7 C 286.9,860.1 287.4,857.9 287.4,855.0 C 287.4,853.0 287.1,851.2 286.5,849.8 C 285.9,848.3 285.1,847.3 284.1,846.8 C 283.5,846.5 282.3,846.4 280.6,846.4 L 273.3,846.4 L 273.3,864.0 z " font-size="12px" font-weight="normal" stroke-width="1pt" font-family="helvetica"/>
        <path transform="translate(136.5408,-84.92175)" d="M 292.9,890.0 L 303.8,840.6 L 307.9,840.6 L 319.5,890.0 L 315.2,890.0 L 311.9,875.0 L 300.0,875.0 L 296.9,890.0 L 292.9,890.0 z M 301.1,869.7 L 310.8,869.7 L 307.8,856.0 C 306.9,851.8 306.2,848.4 305.8,845.7 C 305.4,848.9 304.9,852.1 304.2,855.2 L 301.1,869.7 z " font-size="12px" font-weight="normal" stroke-width="1pt" font-family="helvetica"/>
        <path transform="matrix(0.739932,-0.544174,0.54796,0.734819,-179.5935,338.2304)" d="M 504.8,890.0 L 515.8,840.6 L 519.8,840.6 L 531.4,890.0 L 527.2,890.0 L 523.8,875.0 L 511.9,875.0 L 508.8,890.0 L 504.8,890.0 z M 513.0,869.7 L 522.7,869.7 L 519.7,856.0 C 518.8,851.8 518.1,848.4 517.7,845.7 C 517.3,848.9 516.8,852.1 516.2,855.2 L 513.0,869.7 z " font-size="12px" font-weight="normal" stroke-width="1pt" font-family="helvetica"/>
      </g>
      <path transform="matrix(0.723076,0,0,0.8,123.3166,119.979)" d="M 419.1,331.7 C 419.2,364.7 439.0,463.4 381.4,616.7 C 377.2,627.8 388.5,633.1 397.9,635.5 C 407.3,637.9 412.0,626.1 412.0,623.7 C 412.0,621.4 414.4,642.6 423.8,640.2 C 433.2,637.9 442.7,623.7 442.7,623.7 C 442.7,623.7 447.4,644.9 459.1,644.9 C 470.9,644.9 470.9,619.0 470.9,619.0 C 470.9,621.4 479.1,641.3 488.5,641.3 C 497.9,641.3 512.4,632.5 504.1,618.1 C 444.2,517.4 447.4,350.6 447.4,331.7 C 447.4,312.9 475.2,278.7 502.8,277.8 L 492.1,261.1 C 485.2,263.2 476.8,264.8 462.7,276.5 C 448.6,288.3 440.3,301.1 440.3,301.1 L 440.3,221.0 L 416.8,221.0 L 419.164,294.1 C 419.164,294.1 411.1,284.6 399.0,274.1 C 387.6,264.2 367.0,264.9 354.4,267.0 L 353.2,283.0 C 368.1,286.1 387.2,279.9 396.715,294.1 C 408.4,305.8 419.1,315.3 419.1,331.7 z " fill="#682900" fill-opacity="1" fill-rule="evenodd" stroke="#000000" stroke-width="5.029" stroke-linecap="butt" stroke-linejoin="miter" stroke-dasharray="none" stroke-opacity="1"/>
      <path transform="matrix(1,0,0,0.823253,-6.660537,55.3822)" d="M 310.5,312.2 C 310.5,311.9 310.5,311.6 310.5,311.3 C 310.5,313.3 310.4,312.4 311.3,308.8 C 312.1,306.0 313.7,303.3 315.5,301.3 C 318.5,300.3 322.9,301.4 326.3,300.5 C 328.6,297.2 332.1,304.8 332.1,299.7 C 336.5,299.4 336.5,295.1 338.0,293.0 C 342.0,292.5 342.9,287.6 346.3,290.5 C 349.1,291.8 346.7,289.7 351.3,289.7 C 354.0,290.3 355.4,292.0 358.0,290.5 C 358.6,287.7 359.4,284.2 359.6,280.5 C 358.4,278.2 358.8,273.3 358.8,269.7 C 361.1,266.7 365.0,272.2 368.8,271.4 C 369.8,267.8 372.9,267.9 371.3,264.7 C 371.0,260.7 370.2,258.2 371.3,253.9 C 372.6,250.2 374.5,250.3 377.9,248.1 C 379.0,244.8 377.8,242.0 378.8,238.1 C 382.7,237.9 382.6,236.9 382.9,233.1 C 384.2,230.4 385.8,227.7 387.9,225.6 C 389.9,223.2 392.2,223.4 393.8,219.7 C 395.1,216.5 395.1,215.0 398.7,213.9 C 401.495,212.7 403.6,212.5 405.4,210.6 C 407.1,207.5 408.6,205.1 411.2,201.4 C 413.9,199.7 426.5,203.1 430.4,203.1 C 432.5,200.4 435.8,196.2 437.9,194.8 C 441.5,192.9 442.8,192.3 447.9,192.3 C 452.2,193.5 454.0,195.1 458.7,193.9 C 460.6,191.2 462.5,190.0 467.0,191.4 C 470.5,193.7 472.4,193.6 473.7,197.3 C 475.6,201.9 475.2,203.5 480.3,203.9 C 485.5,204.1 486.1,205.42 489.5,208.1 C 494.7,210.3 494.5,209.1 494.5,213.9 C 498.2,213.9 498.5,213.5 498.7,217.2 C 501.0,218.0 503.6,220.0 505.3,221.4 C 507.4,223.8 507.9,225.3 512.8,225.6 C 516.4,224.1 517.6,224.1 517.8,219.7 C 520.6,218.8 521.0,216.1 522.0,213.1 C 524.1,210.2 525.4,209.8 530.3,209.8 C 534.6,211.5 534.4,213.3 533.6,217.2 C 536.3,217.8 537.4,217.5 537.8,220.6 C 539.2,222.9 538.8,225.7 537.0,227.2 C 539.1,228.8 540.3,231.5 541.1,234.7 C 539.7,237.1 540.6,240.5 541.1,243.1 C 544.0,244.5 545.5,245.9 549.4,247.2 C 551.4,248.9 555.6,250.7 559.4,251.4 C 563.9,250.8 565.4,250.8 569.4,253.0 C 571.5,256.0 571.7,259.8 573.6,261.4 C 575.8,263.2 579.4,264.0 581.1,266.4 C 583.9,268.4 584.7,270.7 588.6,271.4 C 590.0,273.6 593.2,277.3 594.4,279.7 C 595.3,282.4 595.8,287.1 596.9,290.5 C 596.9,294.4 596.9,298.3 596.9,302.2 C 596.7,306.5 596.1,309.1 596.1,313.8 C 595.3,316.2 594.4,317.1 594.4,320.5 C 592.8,324.0 591.5,327.0 589.4,329.6 C 588.5,333.9 586.9,335.9 585.2,339.6 C 585.3,344.0 586.1,345.9 586.1,350.5 C 584.3,353.1 582.2,355.1 578.6,357.1 C 575.9,360.3 574.2,361.5 573.6,366.3 C 572.0,369.0 572.1,368.8 568.6,368.8 C 564.4,368.8 560.8,369.2 556.9,369.6 C 553.6,369.6 552.3,370.0 550.3,367.9 C 546.3,366.1 542.9,366.0 538.6,367.1 C 536.3,365.5 535.4,364.6 531.1,364.6 C 528.0,365.0 525.2,365.4 521.1,365.4 C 518.6,362.7 517.2,362.1 512.8,362.1 C 510.5,363.3 505.6,362.9 502.0,362.9 C 498.2,361.9 497.7,360.3 496.2,357.1 C 493.6,355.9 492.5,354.1 488.7,353.8 C 485.0,353.8 480.2,354.1 477.8,353.0 C 475.1,352.6 472.3,351.9 470.4,350.509 C 468.8,348.2 466.8,346.2 464.5,344.6 C 460.8,344.6 458.7,345.0 457.0,343.0 C 454.3,340.8 452.1,337.4 448.7,335.5 C 445.6,333.0 443.6,331.6 442.0,327.1 C 442.0,323.2 442.8,322.3 438.7,322.2 C 436.0,325.0 434.7,325.5 429.6,325.5 C 426.2,325.5 422.6,325.5 420.446,324.7 C 416.7,322.6 415.4,321.6 411.2,321.3 C 408.7,323.0 405.2,324.9 401.2,325.5 C 397.8,327.4 395.8,327.9 394.6,331.3 C 391.4,333.9 389.6,335.4 385.4,337.1 C 383.1,339.3 380.9,339.7 379.6,343.8 C 378.8,347.2 377.9,349.2 377.9,353.8 C 378.5,358.2 378.3,360.0 376.3,363.8 C 374.5,366.3 371.5,367.5 368.8,369.6 C 364.7,370.1 364.2,369.8 361.3,367.9 C 358.4,367.0 355.0,366.2 351.3,365.4 C 346.8,364.6 345.3,363.5 343.0,361.3 L 351.3,365.4 C 346.8,364.6 345.3,363.5 343.0,361.3 C 337.9,357.7 336.9,355.9 331.3,355.5 C 326.1,355.5 323.9,355.8 323.036,360.5 C 325.9,361.2 323.6,363.0 322.2,363.8 C 320.1,365.6 316.7,367.1 313.8,367.9 C 312.5,369.3 312.8,366.8 310.5,366.3 C 307.0,364.4 305.6,363.1 302.2,362.1 C 300.5,359.1 298.6,356.8 296.3,353.8 C 294.6,351.0 293.0,350.0 290.5,347.1 C 289.3,345.4 286.4,345.3 284.7,343.8 C 283.7,340.8 281.5,335.2 282.2,332.1 C 283.9,330.6 284.8,324.9 287.2,323.8 C 290.6,321.3 291.8,323.6 296.3,323.8 C 300.6,323.8 290.5,317.1 294.7,317.2 C 298.6,316.5 299.1,314.6 300.5,312.2 C 303.8,312.2 307.2,312.2 310.5,312.2 z " fill="#009200" fill-opacity="1" fill-rule="evenodd" stroke="#000000" stroke-width="4.463" stroke-linecap="butt" stroke-linejoin="miter" stroke-dasharray="none" stroke-opacity="1"/>
      <path transform="translate(-6.660537,-3.330338)" d="M 382.9,253.0 C 383.8,253.8 387.6,255.5 391.3,255.5 C 395.2,256.3 396.1,257.8 397.1,261.4 C 399.3,262.7 400.6,263.0 404.6,263.0 C 408.9,263.9 408.9,265.3 412.1,268.0" fill="none" fill-opacity="1" fill-rule="evenodd" stroke="#006800" stroke-width="4.050" stroke-linecap="butt" stroke-linejoin="miter" stroke-dasharray="none" stroke-opacity="1"/>
      <path transform="translate(-6.660537,-3.330338)" d="M 358.8,299.7 C 360.6,299.9 366.9,300.5 371.3,300.5 C 374.6,298.6 376.2,297.3 378.8,295.5 C 382.7,295.5 384.1,295.9 386.3,297.2 C 388.4,297.9 393.3,298.1 395.4,298.8 C 395.469,300 395.1,299.7 396.3,299.7" fill="none" fill-opacity="1" fill-rule="evenodd" stroke="#006800" stroke-width="4.050" stroke-linecap="butt" stroke-linejoin="miter" stroke-dasharray="none" stroke-opacity="1"/>
      <path transform="translate(-6.660537,-3.330338)" d="M 391.3,286.4 C 391.3,286.3 394.5,284.4 397.1,283.9 C 399.9,281.9 403.0,280.9 406.2,279.7 C 408.4,279.2 413.3,279.2 414.6,278.9" fill="none" fill-opacity="1" fill-rule="evenodd" stroke="#006800" stroke-width="4.050" stroke-linecap="butt" stroke-linejoin="miter" stroke-dasharray="none" stroke-opacity="1"/>
      <path transform="translate(-6.660537,-3.330338)" d="M 432.1,273.9 C 432.1,274.1 432.1,274.4 432.1,274.7 C 432.1,272.4 431.9,273.6 433.7,278.0 C 434.6,282.1 435.7,285.6 437.0,288.8 C 439.5,292.7 441.1,294.4 444.5,296.3 C 447.5,298.7 449.7,301.1 452.9,302.2 C 455.1,304.1 458.0,305.8 461.2,307.2 C 465.5,307.2 468.7,307.9 472.8,308.0 C 473.7,308.0 474.5,308.0 475.3,308.0" fill="none" fill-opacity="1" fill-rule="evenodd" stroke="#006800" stroke-width="4.050" stroke-linecap="butt" stroke-linejoin="miter" stroke-dasharray="none" stroke-opacity="1"/>
      <path transform="translate(-6.660537,-3.330338)" d="M 477.0,227.2 C 477.0,227.5 477.0,227.8 477.0,228.1 C 477.0,225.8 477.1,227.0 476.2,231.4 C 474.9,234.1 473.5,236.5 472.0,238.9 C 468.1,240.3 466.6,243.2 465.4,246.4 C 464.0,248.6 461.8,251.6 460.4,253.9 C 457.8,257.1 456.7,258.1 452.0,259.7" fill="none" fill-opacity="1" fill-rule="evenodd" stroke="#006800" stroke-width="4.050" stroke-linecap="butt" stroke-linejoin="miter" stroke-dasharray="none" stroke-opacity="1"/>
      <path transform="translate(-6.660537,-3.330338)" d="M 510.3,244.7 C 510.3,245.0 508.8,247.2 507.8,249.7 C 506.2,252.2 505.7,256.6 505.3,259.7 C 505.3,263.3 505.3,267.3 506.2,269.75 C 508.7,272.8 509.3,274.5 513.6,276.4 L 506.2,269.75 C 508.7,272.8 509.3,274.5 513.6,276.4" fill="none" fill-opacity="1" fill-rule="evenodd" stroke="#006800" stroke-width="4.050" stroke-linecap="butt" stroke-linejoin="miter" stroke-dasharray="none" stroke-opacity="1"/>
      <path transform="translate(-6.660537,-3.330338)" d="M 571.1,273.9 C 571.1,274.1 571.1,274.4 571.1,274.7 C 571.1,272.1 571.3,273.7 566.9,277.2 C 563.7,280.2 561.4,282.6 558.6,284.7 C 553.9,285.9 553.1,285.9 548.6,285.5 C 546.1,285.5 543.6,285.5 541.1,285.5" fill="none" fill-opacity="1" fill-rule="evenodd" stroke="#006800" stroke-width="4.050" stroke-linecap="butt" stroke-linejoin="miter" stroke-dasharray="none" stroke-opacity="1"/>
      <path transform="translate(-6.660537,-3.330338)" d="M 582.7,337.1 C 582.5,337.1 582.2,337.1 581.9,337.1 C 584.2,337.1 583.0,337.0 578.6,338.8 C 574.9,339.7 570.7,339.8 567.8,338.8 C 564.8,337.1 561.8,335.7 559.4,333.0 C 558.2,332.0 558.0,331.7 556.9,331.3" fill="none" fill-opacity="1" fill-rule="evenodd" stroke="#006800" stroke-width="4.050" stroke-linecap="butt" stroke-linejoin="miter" stroke-dasharray="none" stroke-opacity="1"/>
      <path transform="translate(-6.660537,-3.330338)" d="M 553.6,362.9 C 553.6,362.7 553.6,362.4 553.6,362.1 C 553.6,364.7 553.8,363.1 549.4,359.6 C 547.6,356.9 545.7,355.8 542,353.007 C 538.7,349.0 538.3,347.5 537.0,343.0 C 536.6,339.6 535.5,336.2 537.0,333.8" fill="none" fill-opacity="1" fill-rule="evenodd" stroke="#006800" stroke-width="4.050" stroke-linecap="butt" stroke-linejoin="miter" stroke-dasharray="none" stroke-opacity="1"/>
      <path transform="translate(-6.660537,-3.330338)" d="M 492.0,348.8 C 493.8,348.8 500.6,348.6 503.7,348.0 C 506.1,346.3 508.7,345.2 512.0,343.8 C 513.7,339.4 515.2,338.0 515.3,333.0" fill="none" fill-opacity="1" fill-rule="evenodd" stroke="#006800" stroke-width="4.050" stroke-linecap="butt" stroke-linejoin="miter" stroke-dasharray="none" stroke-opacity="1"/>
      <path transform="translate(-6.660537,-3.330338)" d="M 441.2,323.8 C 440.6,322.3 437.7,316.4 436.2,313.0 C 436.2,309.406 435.4,306.7 435.4,303.0" fill="none" fill-opacity="1" fill-rule="evenodd" stroke="#006800" stroke-width="4.050" stroke-linecap="butt" stroke-linejoin="miter" stroke-dasharray="none" stroke-opacity="1"/>
      <path transform="translate(-6.660537,-3.330338)" d="M 328.8,350.5 C 329.7,350.6 333.2,350.9 335.5,350.5 C 339.1,348.6 342.5,348.3 346.3,348.0 C 348.2,346.8 351.4,346.9 353.0,345.5 C 356.4,343.1 356.9,340.8 358.8,337.1 C 359.0,335.5 359.5,334.6 359.6,333.0" fill="none" fill-opacity="1" fill-rule="evenodd" stroke="#006800" stroke-width="4.050" stroke-linecap="butt" stroke-linejoin="miter" stroke-dasharray="none" stroke-opacity="1"/>
      <path transform="translate(-6.660537,-3.330338)" d="M 383.8,338.0 C 381.9,338.0 375.1,338.1 371.3,337.1 C 369.3,335.9 367.9,333.8 366.3,332.1 C 367.4,332.1 367.1,332.4 367.1,331.3" fill="none" fill-opacity="1" fill-rule="evenodd" stroke="#006800" stroke-width="4.050" stroke-linecap="butt" stroke-linejoin="miter" stroke-dasharray="none" stroke-opacity="1"/>
      <path transform="translate(-6.660537,-3.330338)" d="M 393.8,313.8 C 394.1,313.7 398.2,312.2 401.2,312.2 C 403.0,311.0 406.0,309.9 408.7,308.8 C 410.2,308.0 411.2,307.0 412.9,306.3" fill="none" fill-opacity="1" fill-rule="evenodd" stroke="#006800" stroke-width="4.050" stroke-linecap="butt" stroke-linejoin="miter" stroke-dasharray="none" stroke-opacity="1"/>
      <path transform="translate(-6.660537,-3.330338)" d="M 293.0,347.1 C 293.3,347.1 293.6,347.1 293.8,347.1 C 291.6,347.1 292.7,347.2 297.2,346.3 C 302.4,346.0 305.8,344.2 309.7,343.0 C 312.2,340.6 315.6,338.3 318.0,337.1 C 318.0,335.7 317.6,335.9 318.8,335.5" fill="none" fill-opacity="1" fill-rule="evenodd" stroke="#006800" stroke-width="4.050" stroke-linecap="butt" stroke-linejoin="miter" stroke-dasharray="none" stroke-opacity="1"/>
      <path transform="translate(-6.660537,-3.330338)" d="M 504.5,301.3 C 504.8,301.3 505.0,301.3 505.3,301.3 C 503.0,301.3 504.2,301.2 508.6,303.0 C 512.2,304.3 515.3,304.8 518.6,305.5 C 521.6,306.2 522.8,307.2 527.0,307.2 C 531.2,309.0 532.1,309.6 535.3,312.2 C 537.8,313.3 539.5,313.8 543.6,313.8 C 545.8,312.6 549.8,311.2 551.9,310.5 C 553.2,309.6 553.2,309.9 553.6,308.8" fill="none" fill-opacity="1" fill-rule="evenodd" stroke="#006800" stroke-width="4.050" stroke-linecap="butt" stroke-linejoin="miter" stroke-dasharray="none" stroke-opacity="1"/>
      <path transform="translate(6.660538,-6.660568)" d="M 430.9,469.5 C 430.9,472.1 430.9,482.1 430.9,488.3 C 430.9,494.3 430.3,499.6 428.5,504.8 C 428.5,510.7 428.5,516.4 426.2,520.1 C 425.8,525.7 425.0,530.6 425.0,536.6 C 423.3,541.7 423.5,548.6 422.6,554.3 C 421.9,559.8 421.3,566.3 420.3,570.7 C 418.5,574.4 415.5,581.1 413.2,583.7 C 412.9,588.8 411.7,591.3 413.2,595.5 C 414.9,600.4 414.4,606.3 414.4,612.0 C 415.9,616.6 415.6,622.0 415.6,627.3" fill="none" fill-opacity="1" fill-rule="evenodd" stroke="#000000" stroke-width="1pt" stroke-linecap="butt" stroke-linejoin="miter" stroke-opacity="1"/>
      <path transform="translate(6.660538,-6.660568)" d="M 436.8,493.0 C 437.1,495.4 438.9,503.9 439.1,509.5 C 439.1,518.2 439.1,526.8 439.1,535.4 C 439.1,541.7 439.7,547.3 440.3,553.1 C 440.2,560.0 439.0,562.6 435.6,568.4 C 434.9,573.9 433.9,579.3 433.2,584.9 C 431.6,589.8 432.1,595.7 432.1,601.4 C 433.5,607.7 435.8,608.8 436.8,614.3 C 436.8,617.7 437.1,619.4 438.0,621.4" fill="none" fill-opacity="1" fill-rule="evenodd" stroke="#000000" stroke-width="1pt" stroke-linecap="butt" stroke-linejoin="miter" stroke-opacity="1"/>
      <path transform="translate(6.660538,-6.660568)" d="M 447.4,535.4 C 447.4,537.6 447.2,548.0 448.6,551.956 C 448.6,557.979 449.706,562.5 449.7,568.4 C 449.0,573.7 448.3,577.5 445.0,580.2 C 442.9,584.5 441.7,588.4 441.5,594.3 C 444.5,596.4 447.8,602.4 450.9,604.9 C 453.5,610.3 455.9,610.5 456.8,616.7 C 459.3,619.446 455.1,620.8 456.8,622.6 C 458.7,625.1 457.5,624.0 456.8,626.1" fill="none" fill-opacity="1" fill-rule="evenodd" stroke="#000000" stroke-width="1pt" stroke-linecap="butt" stroke-linejoin="miter" stroke-opacity="1"/>
      <polygon d="M 93.247448,-0.0019378662 L 77.262181,-25.598869 L 47.101957,-26.644054 L 61.276917,-53.286166 L 47.101961,-79.928279 L 77.262187,-80.973461 L 93.247456,-106.57039 L 109.23272,-80.973457 L 139.39295,-79.928273 L 125.21799,-53.28616 L 139.39294,-26.644047 L 109.23272,-25.598866 L 93.247448,-0.0019378662 z " transform="matrix(0.791712,0,0,0.792844,405.2503,101.1431)" sodipodi:r2="31.970535" sodipodi:r1="53.284225" sodipodi:arg2="2.0943952" sodipodi:arg1="1.5707964" points="93.2475,-0.00193787 77.2622,-25.5989 47.102,-26.6441 61.2769,-53.2862 47.102,-79.9283 77.2622,-80.9735 93.2475,-106.57 109.233,-80.9735 139.393,-79.9283 125.218,-53.2862 139.393,-26.644 109.233,-25.5989 93.2475,-0.00193787 " font-size="12px" fill="#ffd100" fill-opacity="1" fill-rule="evenodd" stroke="#000000" stroke-width="3.125" stroke-dasharray="none" stroke-opacity="1"/>
      <polygon d="M 93.247448,-0.0019378662 L 77.262181,-25.598869 L 47.101957,-26.644054 L 61.276917,-53.286166 L 47.101961,-79.928279 L 77.262187,-80.973461 L 93.247456,-106.57039 L 109.23272,-80.973457 L 139.39295,-79.928273 L 125.21799,-53.28616 L 139.39294,-26.644047 L 109.23272,-25.598866 L 93.247448,-0.0019378662 z " transform="matrix(0.791712,0,0,0.792844,307.6955,101.1431)" sodipodi:r2="31.970535" sodipodi:r1="53.284225" sodipodi:arg2="2.0943952" sodipodi:arg1="1.5707964" points="93.2475,-0.00193787 77.2622,-25.5989 47.102,-26.6441 61.2769,-53.2862 47.102,-79.9283 77.2622,-80.9735 93.2475,-106.57 109.233,-80.9735 139.393,-79.9283 125.218,-53.2862 139.393,-26.644 109.233,-25.5989 93.2475,-0.00193787 " font-size="12px" fill="#ffd100" fill-opacity="1" fill-rule="evenodd" stroke="#000000" stroke-width="3.125" stroke-dasharray="none" stroke-opacity="1"/>
      <polygon d="M 93.247448,-0.0019378662 L 77.262181,-25.598869 L 47.101957,-26.644054 L 61.276917,-53.286166 L 47.101961,-79.928279 L 77.262187,-80.973461 L 93.247456,-106.57039 L 109.23272,-80.973457 L 139.39295,-79.928273 L 125.21799,-53.28616 L 139.39294,-26.644047 L 109.23272,-25.598866 L 93.247448,-0.0019378662 z " transform="matrix(0.785044,-0.102681,0.102534,0.786166,224.1363,128.8447)" sodipodi:r2="31.970535" sodipodi:r1="53.284225" sodipodi:arg2="2.0943952" sodipodi:arg1="1.5707964" points="93.2475,-0.00193787 77.2622,-25.5989 47.102,-26.6441 61.2769,-53.2862 47.102,-79.9283 77.2622,-80.9735 93.2475,-106.57 109.233,-80.9735 139.393,-79.9283 125.218,-53.2862 139.393,-26.644 109.233,-25.5989 93.2475,-0.00193787 " font-size="12px" fill="#ffd100" fill-opacity="1" fill-rule="evenodd" stroke="#000000" stroke-width="3.125" stroke-dasharray="none" stroke-opacity="1"/>
      <polygon d="M 93.247448,-0.0019378662 L 77.262181,-25.598869 L 47.101957,-26.644054 L 61.276917,-53.286166 L 47.101961,-79.928279 L 77.262187,-80.973461 L 93.247456,-106.57039 L 109.23272,-80.973457 L 139.39295,-79.928273 L 125.21799,-53.28616 L 139.39294,-26.644047 L 109.23272,-25.598866 L 93.247448,-0.0019378662 z " transform="matrix(-0.785044,-0.102681,-0.102534,0.786166,644.3694,126.2043)" sodipodi:r2="31.970535" sodipodi:r1="53.284225" sodipodi:arg2="2.0943952" sodipodi:arg1="1.5707964" points="93.2475,-0.00193787 77.2622,-25.5989 47.102,-26.6441 61.2769,-53.2862 47.102,-79.9283 77.2622,-80.9735 93.2475,-106.57 109.233,-80.9735 139.393,-79.9283 125.218,-53.2862 139.393,-26.644 109.233,-25.5989 93.2475,-0.00193787 " font-size="12px" fill="#ffd100" fill-opacity="1" fill-rule="evenodd" stroke="#000000" stroke-width="3.125" stroke-dasharray="none" stroke-opacity="1"/>
      <polygon d="M 93.247448,-0.0019378662 L 77.262181,-25.598869 L 47.101957,-26.644054 L 61.276917,-53.286166 L 47.101961,-79.928279 L 77.262187,-80.973461 L 93.247456,-106.57039 L 109.23272,-80.973457 L 139.39295,-79.928273 L 125.21799,-53.28616 L 139.39294,-26.644047 L 109.23272,-25.598866 L 93.247448,-0.0019378662 z " transform="matrix(-0.747182,-0.262149,-0.261775,0.748251,719.3617,181.3)" sodipodi:r2="31.970535" sodipodi:r1="53.284225" sodipodi:arg2="2.0943952" sodipodi:arg1="1.5707964" points="93.2475,-0.00193787 77.2622,-25.5989 47.102,-26.6441 61.2769,-53.2862 47.102,-79.9283 77.2622,-80.9735 93.2475,-106.57 109.233,-80.9735 139.393,-79.9283 125.218,-53.2862 139.393,-26.644 109.233,-25.5989 93.2475,-0.00193787 " font-size="12px" fill="#ffd100" fill-opacity="1" fill-rule="evenodd" stroke="#000000" stroke-width="3.125" stroke-dasharray="none" stroke-opacity="1"/>
      <polygon d="M 93.247448,-0.0019378662 L 77.262181,-25.598869 L 47.101957,-26.644054 L 61.276917,-53.286166 L 47.101961,-79.928279 L 77.262187,-80.973461 L 93.247456,-106.57039 L 109.23272,-80.973457 L 139.39295,-79.928273 L 125.21799,-53.28616 L 139.39294,-26.644047 L 109.23272,-25.598866 L 93.247448,-0.0019378662 z " transform="matrix(0.747182,-0.262149,0.261775,0.748251,146.5073,176.0193)" sodipodi:r2="31.970535" sodipodi:r1="53.284225" sodipodi:arg2="2.0943952" sodipodi:arg1="1.5707964" points="93.2475,-0.00193787 77.2622,-25.5989 47.102,-26.6441 61.2769,-53.2862 47.102,-79.9283 77.2622,-80.9735 93.2475,-106.57 109.233,-80.9735 139.393,-79.9283 125.218,-53.2862 139.393,-26.644 109.233,-25.5989 93.2475,-0.00193787 " font-size="12px" fill="#ffd100" fill-opacity="1" fill-rule="evenodd" stroke="#000000" stroke-width="3.125" stroke-dasharray="none" stroke-opacity="1"/>
    </g>
    <path d="M 0,0.00021036108 L 0,500 L 250.0,249.9 L 0,0.00021036108 z " font-size="12px" fill="#0073ce" fill-opacity="1" fill-rule="evenodd" stroke-width="1pt"/>
  </g>
</svg>
