<?xml version="1.0" encoding="UTF-8" standalone="no"?>
<svg xmlns="http://www.w3.org/2000/svg" xmlns:xlink="http://www.w3.org/1999/xlink" version="1.1" width="900" height="600" id="Flag of Iraq">
<rect width="900" height="200" fill="#ce1126"/>
<rect width="900" height="200" y="200" fill="white"/>
<rect width="900" height="200" y="400" fill="black"/>
<g fill="#009e60">
  <polygon id="left_star" transform="translate(200,300) scale(60)" points="0,-1        0.587,0.809        -0.951056516295153572116439333379382143405699,-0.309016994374947424102293417182819058860155        0.951056516295153572116439333379382143405699,-0.309016994374947424102293417182819058860155        -0.587785252292473129168705954639072768597652,0.809016994374947424102293417182819058860155"/>
  <use xlink:href="#left_star" x="250"/>
  <use xlink:href="#left_star" x="500"/>
  <g transform="scale(2)">
    <path d="M 138.0,170.7 L 136.4,169.1 L 138.1,167.4 L 139.7,165.8 L 141.4,167.4 L 143.0,169.1 L 141.4,170.8 L 139.7,172.4 L 138.0,170.7 z M 126.7,169.9 C 126.1,169.7 125.1,169.0 124.5,168.3 C 123.3,167.0 123.0,166.4 123.8,166.8 C 125.0,167.4 127.4,167.9 128.2,167.6 C 131.3,166.5 132.0,162.4 129.6,159.8 C 129.1,159.3 128.7,158.7 128.7,158.4 C 128.7,158.2 129.2,157.8 129.8,157.5 C 130.7,157.1 131.2,156.7 131.7,155.7 C 132.3,154.6 132.5,154.4 132.8,154.6 C 133.2,155.0 134.5,158.1 134.5,158.7 C 134.5,159.1 135.0,159.1 137.2,159.1 L 139.8,159.1 L 139.4,158.1 C 139.2,157.6 138.8,156.9 138.6,156.5 C 138.2,155.9 138.2,155.8 138.6,155.6 C 138.8,155.4 139.5,154.9 140.2,154.4 C 140.9,154.0 141.5,153.4 141.6,153.1 C 141.9,152.5 143.3,150.6 143.6,150.6 C 143.7,150.6 143.8,152.6 143.8,154.9 L 143.8,159.1 L 160.4,159.1 L 177.0,159.1 L 177.0,153.1 L 177.0,147.0 L 176.1,146.4 L 175.2,145.8 L 174.2,146.5 L 173.3,147.3 L 173.3,151.6 L 173.3,156.0 L 159.3,156.0 C 151.7,156.0 145.4,155.9 145.4,155.8 C 145.4,155.8 152.3,146.4 153.2,145.3 C 153.4,145.1 153.8,144.5 154.2,144.0 C 154.5,143.5 154.9,143.0 155.0,142.9 C 155.1,142.9 155.4,142.4 155.8,141.9 C 156.1,141.4 156.5,140.8 156.7,140.6 C 156.8,140.5 159.3,137.1 162.3,133.2 C 165.2,129.2 167.7,126.0 167.8,126.0 C 167.9,126.0 168.0,126.3 168.1,126.7 C 168.5,128.9 168.9,130.2 169.2,130.8 C 169.7,131.7 169.4,132.0 168.2,132.1 C 167.7,132.1 166.4,133.7 160.4,141.7 C 156.5,147.0 153.2,151.4 153.2,151.5 C 153.1,151.6 156.7,151.7 161.0,151.7 L 169.0,151.7 L 169.0,148.9 C 169.0,147.3 169.1,145.9 169.2,145.7 C 169.7,145.0 175.0,141.3 175.4,141.4 C 175.6,141.5 177.0,142.5 178.5,143.6 L 181.2,145.7 L 181.2,154.5 L 181.2,163.4 L 158.2,163.4 L 135.1,163.4 L 134.7,165.1 C 134.1,167.2 133.2,168.6 132.0,169.5 C 130.8,170.3 128.2,170.5 126.7,169.9 z M 184.2,149.6 C 184.2,140.0 184.3,135.8 184.5,135.6 C 184.6,135.5 185.3,136.0 186.0,136.8 C 186.7,137.5 187.9,138.6 188.7,139.3 C 189.9,140.4 190.1,140.6 189.7,140.8 C 188.4,141.6 188.4,141.4 188.4,150.5 L 188.4,159.1 L 191.0,159.1 C 193.2,159.1 193.6,159.1 194.7,158.5 C 196.0,157.7 196.1,157.8 195.4,159.3 C 195.2,159.9 194.9,161.0 194.8,161.8 L 194.7,163.3 L 189.4,163.3 L 184.2,163.4 L 184.2,149.6 z M 187.8,133.2 C 187.2,132.8 185.9,132.7 185.2,133.1 C 184.9,133.3 184.4,133.4 184.1,133.3 C 183.5,133.2 183.6,133.2 184.5,132.3 C 185.4,131.4 185.5,131.4 185.2,130.3 C 184.8,128.8 185.1,128.2 186.4,128.1 C 187.1,128.1 187.5,128.2 187.9,128.6 C 188.5,129.2 188.5,129.4 188.2,129.9 C 188.0,130.2 187.8,130.2 187.4,130.0 C 186.8,129.7 186.6,129.8 186.6,130.5 C 186.6,130.8 187.0,131.2 188.0,131.7 C 188.8,132.1 189.5,132.5 189.5,132.6 C 189.5,132.9 188.7,133.7 188.5,133.6 C 188.4,133.6 188.0,133.5 187.8,133.2 z "/>
    <path d="M 267.9,159.9 C 268.1,156.0 268.5,154.7 269.9,153.4 C 271.0,152.5 272.6,152.0 274.4,152.1 L 275.7,152.2 L 275.8,150.6 C 275.9,148.6 275.7,147.9 275.1,147.7 C 274.3,147.4 274.4,146.6 275.4,146.0 C 275.9,145.7 277.0,144.7 278.0,143.7 C 278.9,142.8 279.8,142.0 279.9,142.0 C 280.0,142.0 280.1,145.8 280.1,150.5 L 280.1,159.0 L 282.0,159.0 L 283.9,159.0 L 283.9,150.2 C 283.9,142.6 283.8,141.4 283.4,141.1 C 283.2,140.8 282.9,140.6 282.8,140.6 C 282.2,140.6 282.6,139.6 283.4,139.1 C 283.9,138.8 285.0,137.8 286.0,136.8 C 286.9,135.8 287.8,135.1 287.9,135.2 C 288.0,135.3 288.1,140.7 288.1,147.2 L 288.1,159.0 L 290.0,159.0 L 291.9,159.0 L 291.9,146.9 L 291.9,134.8 L 291.2,134.2 C 290.8,133.9 290.5,133.5 290.5,133.3 C 290.5,133.1 291.4,132.3 292.4,131.5 C 293.4,130.7 294.5,129.6 294.8,129.2 C 296.1,127.3 296.1,127.0 296.1,145.8 L 296.1,163.3 L 282.0,163.3 L 267.8,163.3 L 267.9,159.9 z M 275.9,157.3 L 275.9,155.6 L 274.8,155.6 C 273.4,155.6 272.1,156.8 272.1,158.1 L 272.1,159.0 L 274.0,159.0 L 275.9,159.0 L 275.9,157.3 z M 299.1,149.5 C 299.1,139.8 299.1,135.5 299.3,135.4 C 299.5,135.3 300.2,135.8 300.9,136.5 C 301.6,137.3 302.8,138.4 303.6,139.1 C 304.9,140.2 305.0,140.4 304.6,140.6 C 303.3,141.4 303.3,141.2 303.3,150.4 L 303.3,159.0 L 305.9,159.0 C 308.3,159.0 308.6,159.0 309.5,158.3 C 310.1,158.0 310.6,157.7 310.7,157.8 C 310.8,157.9 310.6,158.4 310.4,159.1 C 310.1,159.7 309.8,160.9 309.7,161.7 L 309.6,163.2 L 304.3,163.2 L 299.1,163.3 L 299.1,149.5 z M 278.1,135.0 C 277.6,134.8 277.1,134.5 276.9,134.3 C 276.6,134.0 276.7,133.9 277.8,134.1 C 279.7,134.4 280.8,134.0 281.9,132.9 L 282.8,132.0 L 284.1,132.5 C 284.8,132.7 285.6,132.8 285.8,132.8 C 286.3,132.6 287.2,131.1 287.1,130.6 C 287.0,130.1 287.5,130.2 287.9,130.8 C 288.5,131.9 288.0,133.5 286.7,133.9 C 286.1,134.1 285.6,134.1 284.6,133.9 C 283.4,133.7 283.2,133.7 282.7,134.2 C 281.5,135.3 279.8,135.6 278.1,135.0 z M 302.7,133.0 C 302.1,132.6 300.8,132.5 300.1,132.9 C 299.8,133.1 299.3,133.2 299.0,133.1 C 298.4,133.0 298.5,133.0 299.4,132.1 C 300.3,131.2 300.3,131.2 300.0,130.0 C 299.7,128.6 300.0,128.0 301.3,127.9 C 302.0,127.8 302.4,128.0 302.8,128.4 C 303.4,129.0 303.4,129.1 303.1,129.7 C 302.9,129.9 302.7,130.0 302.3,129.7 C 301.7,129.4 301.5,129.6 301.5,130.3 C 301.5,130.6 301.9,131.0 302.9,131.5 C 303.7,131.9 304.4,132.3 304.4,132.4 C 304.4,132.7 303.6,133.4 303.4,133.4 C 303.3,133.4 303.0,133.2 302.7,133.0 z M 281.3,130.6 C 280.7,130.1 279.3,127.9 279.3,127.2 C 279.2,126.5 279.3,126.4 279.8,126.3 C 280.5,126.2 280.9,126.7 281.5,128.7 C 281.9,130.4 281.9,131.0 281.3,130.6 z "/>
  </g>
</g>
</svg>
