<?xml version="1.0" encoding="UTF-8" standalone="no"?>
<!-- Created with Sodipodi ("http://www.sodipodi.com/") -->
<svg
   xmlns:dc="http://purl.org/dc/elements/1.1/"
   xmlns:cc="http://web.resource.org/cc/"
   xmlns:rdf="http://www.w3.org/1999/02/22-rdf-syntax-ns#"
   xmlns:svg="http://www.w3.org/2000/svg"
   xmlns="http://www.w3.org/2000/svg"
   xmlns:xlink="http://www.w3.org/1999/xlink"
   xmlns:sodipodi="http://inkscape.sourceforge.net/DTD/sodipodi-0.dtd"
   xmlns:inkscape="http://www.inkscape.org/namespaces/inkscape"
   height="600"
   id="svg557"
   sodipodi:docbase="C:\Documents and Settings\David Nelson\Archives\Svg"
   sodipodi:docname="Flag_of_Croatia.svg"
   sodipodi:version="0.32"
   version="1.0"
   width="1200"
   x="0.00000000"
   y="0.00000000"
   inkscape:version="0.43">
  <metadata
     id="metadata3">
    <rdf:RDF>
      <cc:Work
         rdf:about="">
        <dc:title>Croatia</dc:title>
        <dc:description />
        <dc:subject>
          <rdf:Bag>
            <rdf:li />
            <rdf:li>europe</rdf:li>
            <rdf:li>united_nations_member</rdf:li>
            <rdf:li>flag</rdf:li>
            <rdf:li>sign</rdf:li>
          </rdf:Bag>
        </dc:subject>
        <dc:publisher>
          <cc:Agent
             rdf:about="http://www.openclipart.org">
            <dc:title>Frank Zeko</dc:title>
          </cc:Agent>
        </dc:publisher>
        <dc:creator>
          <cc:Agent>
            <dc:title>Frank Zeko</dc:title>
          </cc:Agent>
        </dc:creator>
        <dc:rights>
          <cc:Agent>
            <dc:title>Frank Zeko</dc:title>
          </cc:Agent>
        </dc:rights>
        <dc:date />
        <dc:format>image/svg+xml</dc:format>
        <dc:type
           rdf:resource="http://purl.org/dc/dcmitype/StillImage" />
        <cc:license
           rdf:resource="http://web.resource.org/cc/PublicDomain" />
        <dc:language>en</dc:language>
      </cc:Work>
      <cc:License
         rdf:about="http://web.resource.org/cc/PublicDomain">
        <cc:permits
           rdf:resource="http://web.resource.org/cc/Reproduction" />
        <cc:permits
           rdf:resource="http://web.resource.org/cc/Distribution" />
        <cc:permits
           rdf:resource="http://web.resource.org/cc/DerivativeWorks" />
      </cc:License>
    </rdf:RDF>
  </metadata>
  <sodipodi:namedview
     id="base"
     inkscape:zoom="0.5541666"
     inkscape:cx="600.00007"
     inkscape:cy="300.00004"
     inkscape:window-width="756"
     inkscape:window-height="540"
     inkscape:window-x="86"
     inkscape:window-y="67"
     inkscape:current-layer="svg557" />
  <defs
     id="defs559">
    <linearGradient
       gradientUnits="objectBoundingBox"
       id="linearGradient684"
       spreadMethod="pad"
       x1="0"
       x2="1"
       y1="0"
       y2="0">
      <stop
         id="stop685"
         offset="0.00000000"
         style="stop-color:#000000;stop-opacity:1;" />
      <stop
         id="stop686"
         offset="1.00000000"
         style="stop-color:#ffffff;stop-opacity:1;" />
    </linearGradient>
    <linearGradient
       gradientUnits="objectBoundingBox"
       id="linearGradient687"
       spreadMethod="pad"
       x1="0"
       x2="1"
       xlink:href="#linearGradient684"
       y1="0"
       y2="0" />
  </defs>
  <rect
     height="200"
     id="rect675"
     style="font-size:12px;fill:#ffffff;fill-opacity:1;fill-rule:evenodd;stroke-width:1pt"
     width="1200"
     x="0"
     y="200" />
  <rect
     y="400"
     x="0"
     width="1200"
     style="font-size:12px;fill:#021272;fill-opacity:1;fill-rule:evenodd;stroke-width:1pt"
     id="rect714"
     height="200" />
  <rect
     y="6.2394534e-014"
     x="0"
     width="1200"
     style="font-size:12px;fill:#d61517;fill-rule:evenodd;stroke-width:1pt"
     id="rect713"
     height="200" />
  <g
     id="g2527"
     transform="matrix(0.920342,0,0,0.920342,1.777778,5.89112)">
    <path
       style="font-size:12px;fill:#ffffff;fill-rule:evenodd;stroke:#e5141d;stroke-width:1.73910344;stroke-linecap:round"
       id="path3501"
       d="M 520.4584,208.01863 C 560.47837,193.78163 604.85099,186.09985 648.21969,185.99046 C 691.58844,185.88109 735.81711,192.68608 779.52064,208.3472 L 812.05178,142.71749 L 789.18632,102.8865 C 789.18632,102.8865 748.39117,119.64288 748.05628,119.64288 C 747.7213,119.64288 719.29186,88.354257 719.29186,88.354257 L 682.78348,110.4129 L 648.5007,84.194303 L 616.25316,110.00845 L 578.60613,88.248147 L 551.14496,120.88098 L 509.98404,103.28071 L 487.94805,142.74763 L 520.4584,208.01863 z " />
    <path
       style="font-size:12px;fill:#00a7bd;fill-rule:evenodd;stroke:#0084fd;stroke-width:0.43477526pt"
       id="path3503"
       d="M 729.00723,189.81366 L 747.63502,123.96086 L 787.52682,107.77117 L 808.54311,143.06071 L 778.36868,204.78248 C 761.02317,197.85195 751.73085,194.88278 729.00723,189.81366 z " />
    <path
       style="font-size:12px;fill:none;fill-rule:evenodd;stroke-width:1pt;stroke-opacity:0.99607801"
       id="path3505"
       d="M 571.09548,189.98543 L 553.68374,125.24417 L 579.88147,93.089698 L 617.1586,114.61136 L 623.44981,182.66641 C 605.23567,184.01797 592.07088,185.74793 571.09548,189.98543 z " />
    <path
       style="font-size:12px;fill:#00a7bd;fill-rule:evenodd;stroke:#0084fd;stroke-width:0.43477554pt"
       id="path3507"
       d="M 623.96799,182.68258 L 617.67748,114.48154 L 649.37921,89.280434 L 682.50138,114.42061 L 676.64844,182.74383 C 658.39838,181.77869 645.36479,181.80775 623.96799,182.68258 z " />
    <path
       style="font-size:12px;fill:#00a7bd;fill-rule:evenodd;stroke:#0084fd;stroke-width:0.43477588pt;stroke-opacity:0.99607801"
       id="path3509"
       d="M 522.02633,204.74361 L 492.47527,142.23431 L 512.22413,107.72707 L 553.16327,125.54654 L 570.46142,190.03592 C 551.76959,193.90135 541.87126,197.05969 522.02633,204.74361 z " />
    <path
       style="font-size:12px;fill:#ffffff;fill-rule:evenodd;stroke:#ffffff;stroke-width:0.43477588pt"
       id="path3511"
       d="M 512.83887,170.12005 C 522.14352,172.00411 528.77386,172.07171 537.11832,169.78373 C 547.08643,165.70168 550.60726,160.20624 553.85328,155.78788 C 555.3624,165.11859 553.7848,173.57423 542.39977,179.54033 C 532.18012,184.25067 518.39441,181.29002 512.83887,170.12005 z " />
    <g
       style="font-size:12px"
       transform="matrix(0.43895,0,0,0.43064,476.7626,73.15042)"
       id="g3513">
      <path
         style="fill:#faf703;fill-opacity:0.99607801;fill-rule:evenodd;stroke:#544b20;stroke-width:1pt;stroke-opacity:0.99607801"
         id="path3515"
         d="M 410.938,120.565 L 406.875,121.581 L 407.031,129.081 L 402.031,130.175 L 398.534,136.789 L 400.693,138.833 C 400.804,139.054 398.99,143.725 399.068,143.725 C 399.146,143.725 400.391,145.487 400.391,145.487 L 401.719,149.55 L 405.078,150.018 L 405.938,154.784 L 411.25,155.643 L 416.172,159.159 L 416.484,161.347 L 422.109,161.503 L 425.938,162.753 L 439.297,161.19 L 441.094,158.378 L 441.25,154.55 L 448.438,154.315 L 449.095,148.21 L 452.904,148.21 L 452.43,141.335 L 455.607,141.621 L 454.787,138.326 L 452.812,135.643 L 452.422,131.425 L 446.797,125.8 L 445.547,118.456 C 445.547,118.456 441.953,116.815 441.953,116.737 C 441.953,116.659 441.719,111.815 441.719,111.815 L 445.781,106.112 L 445.391,103.847 L 441.641,103.768 L 438.828,106.112 C 438.828,106.112 435.078,106.503 435.078,106.581 C 435.078,106.659 435.078,108.3 435.078,108.3 C 435.078,108.3 436.016,111.503 436.016,111.581 C 436.016,111.659 431.719,111.581 431.719,111.581 L 431.562,106.503 L 425.469,103.456 C 425.469,103.456 419.766,107.362 419.766,107.44 C 419.766,107.518 419.453,111.972 419.453,111.972 L 416.719,112.753 L 413.906,108.534 L 408.984,106.659 L 406.328,106.503 L 406.25,109.784 L 411.406,116.581 L 410.938,120.565 z " />
      <path
         style="fill:none;fill-rule:evenodd;stroke:#544b20;stroke-width:1pt"
         id="path3517"
         d="M 449.234,148.039 L 448.129,143.951" />
      <path
         style="fill:none;fill-rule:evenodd;stroke:#544b20;stroke-width:1pt"
         id="path3519"
         d="M 452.327,141.299 L 450.449,138.537" />
      <path
         style="fill:#544b20;fill-rule:evenodd;stroke:#544b21;stroke-width:1pt;stroke-opacity:0.99998803"
         id="path3521"
         d="M 400.841,138.206 L 406.697,137.874 L 407.802,143.177 L 409.79,144.945 L 410.122,154.668 L 412,155.441 L 412.553,151.574 L 417.083,151.243 L 417.966,159.087 L 416.862,160.082 L 417.304,161.297 L 422.717,161.187 C 422.717,161.187 423.933,159.087 424.043,159.087 C 424.154,159.087 427.137,158.756 427.137,158.866 C 427.137,158.977 428.352,161.187 428.352,161.187 L 429.236,158.203 C 429.236,158.203 432.109,156.988 432.109,157.099 C 432.109,157.209 434.429,160.855 434.429,160.855 L 438.406,160.303 L 435.976,157.983 L 434.981,152.9 L 440.505,149.917 L 442.715,153.674 C 442.715,153.674 444.814,153.784 444.704,153.674 C 444.593,153.563 442.273,149.365 442.273,149.365 L 442.273,140.526 L 446.472,134.781 L 452.327,134.118 L 452.327,131.687 L 446.472,126.273 L 444.925,118.76 L 441.61,117.103 L 440.726,118.097 L 437.08,118.429 L 440.726,123.843 L 440.726,127.378 L 442.384,128.262 L 442.052,137.985 C 442.052,137.985 437.964,138.537 437.964,138.648 C 437.964,138.758 437.633,144.061 437.633,144.061 L 435.092,146.603 C 435.092,146.603 433.655,151.685 433.545,151.685 C 433.434,151.685 431.114,154.778 431.114,154.778 L 426.584,154.889 C 426.584,154.889 423.933,152.348 423.933,152.237 C 423.933,152.127 423.491,148.481 423.491,148.481 C 423.491,148.481 421.723,147.928 421.612,147.928 C 421.502,147.928 420.618,143.84 420.618,143.84 L 417.524,142.073 L 417.304,139.642 L 414.32,138.316 C 414.32,138.316 413.989,136.106 413.878,135.996 C 413.768,135.885 412.442,135.002 412.332,135.002 C 412.221,135.002 412.221,128.925 412.221,128.925 L 414.873,128.483 L 413.388,126.543 L 412.884,124.837 L 412.884,123.069 L 415.094,120.859 C 415.094,120.859 411.116,120.307 411.116,120.417 C 411.116,120.528 407.25,122.185 407.25,122.075 C 407.36,122.075 407.139,129.256 407.139,129.256 L 402.609,130.693 L 398.963,136.548 L 400.841,138.206 z " />
      <path
         style="fill:#544b20;fill-rule:evenodd;stroke:#544b20;stroke-width:1pt"
         id="path3523"
         d="M 423.712,148.039 L 426.695,146.271 L 426.584,142.846 L 423.712,142.183 L 422.606,141.078 L 425.811,141.631 L 429.788,141.299 L 431.114,140.636 C 430.562,142.073 430.12,141.962 430.009,141.962 C 429.899,141.962 427.8,143.067 427.8,143.067 L 427.91,146.382 C 427.91,146.382 434.76,147.265 434.65,147.265 C 434.539,147.265 434.65,148.591 434.429,148.591 C 434.208,148.591 427.358,147.044 427.358,147.044 L 423.049,149.696 L 423.712,148.039 z " />
      <path
         style="fill:#544b20;fill-rule:evenodd;stroke:#544b20;stroke-width:1pt;stroke-opacity:0.99999599"
         id="path3525"
         d="M 440.947,127.489 L 436.97,130.582 L 434.429,135.112 L 433.103,135.333 L 429.236,130.14 L 424.817,130.251 C 424.817,130.251 422.386,136.327 422.386,136.438 C 422.386,136.548 420.618,136.217 420.618,136.217 L 415.978,131.135 C 415.978,131.135 414.541,128.593 414.762,128.593 C 414.983,128.593 426.363,128.704 426.363,128.704 L 426.253,123.18 C 426.253,123.18 424.485,122.627 423.601,122.075 C 424.264,121.854 429.899,121.854 429.899,121.854 L 427.468,123.511 L 427.468,128.262 L 437.522,128.372 L 440.947,127.489 z " />
      <rect
         rx="0.83664924"
         y="130.14011"
         x="419.51321"
         width="2.6516111"
         style="fill:#796a3a;fill-opacity:0.99607903;fill-rule:evenodd;stroke-width:1pt"
         ry="0.83660454"
         id="rect3527"
         height="2.6515961" />
      <rect
         rx="0.83664924"
         y="129.58777"
         x="432.10858"
         width="2.6516111"
         style="fill:#7a6b3a;fill-rule:evenodd;stroke-width:1pt"
         ry="0.83660454"
         id="rect3529"
         height="2.6515961" />
      <path
         style="fill:none;fill-rule:evenodd;stroke:#544b20;stroke-width:1pt"
         id="path3531"
         d="M 413.547,121.301 C 417.745,119.607 420.728,118.245 425.921,117.766 C 430.819,117.25 434.613,117.95 438.958,118.76" />
      <path
         style="fill:#544b20;fill-rule:evenodd;stroke:#544b20;stroke-width:1pt"
         id="path3533"
         d="M 415.867,112.352 L 412.442,112.352 L 407.58,107.159 L 410.343,107.491 L 413.547,108.927 L 415.867,112.352 z " />
      <path
         style="fill:#544b20;fill-rule:evenodd;stroke:#544b20;stroke-width:1pt"
         id="path3535"
         d="M 436.528,110.363 L 444.262,104.398 L 441.721,104.066 L 438.848,106.717 L 435.423,107.27 L 436.528,110.363 z " />
      <path
         style="fill:#544b20;fill-rule:evenodd;stroke:#544b20;stroke-width:1pt"
         id="path3537"
         d="M 431.968,111.459 L 419.845,111.91 L 419.955,110.584 L 424.375,110.142 L 424.927,108.375 C 424.927,108.375 426.253,108.265 426.253,108.375 C 426.253,108.486 427.247,110.032 427.247,110.032 L 431.556,110.805 L 431.968,111.459 z " />
      <path
         style="fill:#544b20;fill-rule:evenodd;stroke:#544b20;stroke-width:1pt"
         id="path3539"
         d="M 431.335,106.828 L 427.137,106.938 L 426.805,104.618 L 431.335,106.828 z " />
      <path
         style="fill:#544b20;fill-rule:evenodd;stroke:#544b20;stroke-width:1pt"
         id="path3541"
         d="M 424.264,104.729 L 423.932,107.048 L 419.845,107.711 L 424.264,104.729 z " />
      <path
         style="fill:#544b20;fill-rule:evenodd;stroke:#544b20;stroke-width:1pt"
         id="path3543"
         d="M 401.062,147.044 L 403.161,141.741 L 401.283,138.095 L 399.405,143.509 L 401.062,147.044 z " />
      <path
         transform="translate(-0.110473,0.110443)"
         style="fill:#544b20;fill-rule:evenodd;stroke:#544b20;stroke-width:1pt"
         id="path3545"
         d="M 405.371,149.807 L 407.912,143.509 L 403.051,148.591 L 405.371,149.807 z " />
    </g>
    <g
       style="font-size:12px"
       transform="matrix(0.43895,0,0,0.43064,447.3225,74.10138)"
       id="g3547">
      <path
         style="fill:#faf703;fill-opacity:0.99607801;fill-rule:evenodd;stroke:#544b20;stroke-width:1pt;stroke-opacity:0.99607801"
         id="path3549"
         d="M 410.938,120.565 L 406.875,121.581 L 407.031,129.081 L 402.031,130.175 L 398.534,136.789 L 400.693,138.833 C 400.804,139.054 398.99,143.725 399.068,143.725 C 399.146,143.725 400.391,145.487 400.391,145.487 L 401.719,149.55 L 405.078,150.018 L 405.938,154.784 L 411.25,155.643 L 416.172,159.159 L 416.484,161.347 L 422.109,161.503 L 425.938,162.753 L 439.297,161.19 L 441.094,158.378 L 441.25,154.55 L 448.438,154.315 L 449.095,148.21 L 452.904,148.21 L 452.43,141.335 L 455.607,141.621 L 454.787,138.326 L 452.812,135.643 L 452.422,131.425 L 446.797,125.8 L 445.547,118.456 C 445.547,118.456 441.953,116.815 441.953,116.737 C 441.953,116.659 441.719,111.815 441.719,111.815 L 445.781,106.112 L 445.391,103.847 L 441.641,103.768 L 438.828,106.112 C 438.828,106.112 435.078,106.503 435.078,106.581 C 435.078,106.659 435.078,108.3 435.078,108.3 C 435.078,108.3 436.016,111.503 436.016,111.581 C 436.016,111.659 431.719,111.581 431.719,111.581 L 431.562,106.503 L 425.469,103.456 C 425.469,103.456 419.766,107.362 419.766,107.44 C 419.766,107.518 419.453,111.972 419.453,111.972 L 416.719,112.753 L 413.906,108.534 L 408.984,106.659 L 406.328,106.503 L 406.25,109.784 L 411.406,116.581 L 410.938,120.565 z " />
      <path
         style="fill:none;fill-rule:evenodd;stroke:#544b20;stroke-width:1pt"
         id="path3551"
         d="M 449.234,148.039 L 448.129,143.951" />
      <path
         style="fill:none;fill-rule:evenodd;stroke:#544b20;stroke-width:1pt"
         id="path3553"
         d="M 452.327,141.299 L 450.449,138.537" />
      <path
         style="fill:#544b20;fill-rule:evenodd;stroke:#544b21;stroke-width:1pt;stroke-opacity:0.99998803"
         id="path3555"
         d="M 400.841,138.206 L 406.697,137.874 L 407.802,143.177 L 409.79,144.945 L 410.122,154.668 L 412,155.441 L 412.553,151.574 L 417.083,151.243 L 417.966,159.087 L 416.862,160.082 L 417.304,161.297 L 422.717,161.187 C 422.717,161.187 423.933,159.087 424.043,159.087 C 424.154,159.087 427.137,158.756 427.137,158.866 C 427.137,158.977 428.352,161.187 428.352,161.187 L 429.236,158.203 C 429.236,158.203 432.109,156.988 432.109,157.099 C 432.109,157.209 434.429,160.855 434.429,160.855 L 438.406,160.303 L 435.976,157.983 L 434.981,152.9 L 440.505,149.917 L 442.715,153.674 C 442.715,153.674 444.814,153.784 444.704,153.674 C 444.593,153.563 442.273,149.365 442.273,149.365 L 442.273,140.526 L 446.472,134.781 L 452.327,134.118 L 452.327,131.687 L 446.472,126.273 L 444.925,118.76 L 441.61,117.103 L 440.726,118.097 L 437.08,118.429 L 440.726,123.843 L 440.726,127.378 L 442.384,128.262 L 442.052,137.985 C 442.052,137.985 437.964,138.537 437.964,138.648 C 437.964,138.758 437.633,144.061 437.633,144.061 L 435.092,146.603 C 435.092,146.603 433.655,151.685 433.545,151.685 C 433.434,151.685 431.114,154.778 431.114,154.778 L 426.584,154.889 C 426.584,154.889 423.933,152.348 423.933,152.237 C 423.933,152.127 423.491,148.481 423.491,148.481 C 423.491,148.481 421.723,147.928 421.612,147.928 C 421.502,147.928 420.618,143.84 420.618,143.84 L 417.524,142.073 L 417.304,139.642 L 414.32,138.316 C 414.32,138.316 413.989,136.106 413.878,135.996 C 413.768,135.885 412.442,135.002 412.332,135.002 C 412.221,135.002 412.221,128.925 412.221,128.925 L 414.873,128.483 L 413.388,126.543 L 412.884,124.837 L 412.884,123.069 L 415.094,120.859 C 415.094,120.859 411.116,120.307 411.116,120.417 C 411.116,120.528 407.25,122.185 407.25,122.075 C 407.36,122.075 407.139,129.256 407.139,129.256 L 402.609,130.693 L 398.963,136.548 L 400.841,138.206 z " />
      <path
         style="fill:#544b20;fill-rule:evenodd;stroke:#544b20;stroke-width:1pt"
         id="path3557"
         d="M 423.712,148.039 L 426.695,146.271 L 426.584,142.846 L 423.712,142.183 L 422.606,141.078 L 425.811,141.631 L 429.788,141.299 L 431.114,140.636 C 430.562,142.073 430.12,141.962 430.009,141.962 C 429.899,141.962 427.8,143.067 427.8,143.067 L 427.91,146.382 C 427.91,146.382 434.76,147.265 434.65,147.265 C 434.539,147.265 434.65,148.591 434.429,148.591 C 434.208,148.591 427.358,147.044 427.358,147.044 L 423.049,149.696 L 423.712,148.039 z " />
      <path
         style="fill:#544b20;fill-rule:evenodd;stroke:#544b20;stroke-width:1pt;stroke-opacity:0.99999599"
         id="path3559"
         d="M 440.947,127.489 L 436.97,130.582 L 434.429,135.112 L 433.103,135.333 L 429.236,130.14 L 424.817,130.251 C 424.817,130.251 422.386,136.327 422.386,136.438 C 422.386,136.548 420.618,136.217 420.618,136.217 L 415.978,131.135 C 415.978,131.135 414.541,128.593 414.762,128.593 C 414.983,128.593 426.363,128.704 426.363,128.704 L 426.253,123.18 C 426.253,123.18 424.485,122.627 423.601,122.075 C 424.264,121.854 429.899,121.854 429.899,121.854 L 427.468,123.511 L 427.468,128.262 L 437.522,128.372 L 440.947,127.489 z " />
      <rect
         rx="0.83664924"
         y="130.14011"
         x="419.51321"
         width="2.6516111"
         style="fill:#796a3a;fill-opacity:0.99607903;fill-rule:evenodd;stroke-width:1pt"
         ry="0.83660454"
         id="rect3561"
         height="2.6515961" />
      <rect
         rx="0.83664924"
         y="129.58777"
         x="432.10858"
         width="2.6516111"
         style="fill:#7a6b3a;fill-rule:evenodd;stroke-width:1pt"
         ry="0.83660454"
         id="rect3563"
         height="2.6515961" />
      <path
         style="fill:none;fill-rule:evenodd;stroke:#544b20;stroke-width:1pt"
         id="path3565"
         d="M 413.547,121.301 C 417.745,119.607 420.728,118.245 425.921,117.766 C 430.819,117.25 434.613,117.95 438.958,118.76" />
      <path
         style="fill:#544b20;fill-rule:evenodd;stroke:#544b20;stroke-width:1pt"
         id="path3567"
         d="M 415.867,112.352 L 412.442,112.352 L 407.58,107.159 L 410.343,107.491 L 413.547,108.927 L 415.867,112.352 z " />
      <path
         style="fill:#544b20;fill-rule:evenodd;stroke:#544b20;stroke-width:1pt"
         id="path3569"
         d="M 436.528,110.363 L 444.262,104.398 L 441.721,104.066 L 438.848,106.717 L 435.423,107.27 L 436.528,110.363 z " />
      <path
         style="fill:#544b20;fill-rule:evenodd;stroke:#544b20;stroke-width:1pt"
         id="path3571"
         d="M 431.968,111.459 L 419.845,111.91 L 419.955,110.584 L 424.375,110.142 L 424.927,108.375 C 424.927,108.375 426.253,108.265 426.253,108.375 C 426.253,108.486 427.247,110.032 427.247,110.032 L 431.556,110.805 L 431.968,111.459 z " />
      <path
         style="fill:#544b20;fill-rule:evenodd;stroke:#544b20;stroke-width:1pt"
         id="path3573"
         d="M 431.335,106.828 L 427.137,106.938 L 426.805,104.618 L 431.335,106.828 z " />
      <path
         style="fill:#544b20;fill-rule:evenodd;stroke:#544b20;stroke-width:1pt"
         id="path3575"
         d="M 424.264,104.729 L 423.932,107.048 L 419.845,107.711 L 424.264,104.729 z " />
      <path
         style="fill:#544b20;fill-rule:evenodd;stroke:#544b20;stroke-width:1pt"
         id="path3577"
         d="M 401.062,147.044 L 403.161,141.741 L 401.283,138.095 L 399.405,143.509 L 401.062,147.044 z " />
      <path
         transform="translate(-0.110473,0.110443)"
         style="fill:#544b20;fill-rule:evenodd;stroke:#544b20;stroke-width:1pt"
         id="path3579"
         d="M 405.371,149.807 L 407.912,143.509 L 403.051,148.591 L 405.371,149.807 z " />
    </g>
    <path
       style="font-size:12px;fill:#001070;fill-rule:evenodd;stroke:#001071;stroke-width:0.43477497pt;stroke-opacity:0.99607801"
       id="path3581"
       d="M 677.11841,182.65092 L 683.01211,114.2481 L 719.23331,93.407186 L 747.23245,123.75468 L 728.57225,189.65578 C 710.48521,185.96204 700.16548,184.37923 677.11841,182.65092 z " />
    <g
       style="font-size:12px"
       transform="matrix(0.43895,0,0,0.43064,462.5877,99.65627)"
       id="g3583">
      <path
         style="fill:#faf703;fill-opacity:0.99607801;fill-rule:evenodd;stroke:#544b20;stroke-width:1pt;stroke-opacity:0.99607801"
         id="path3585"
         d="M 410.938,120.565 L 406.875,121.581 L 407.031,129.081 L 402.031,130.175 L 398.534,136.789 L 400.693,138.833 C 400.804,139.054 398.99,143.725 399.068,143.725 C 399.146,143.725 400.391,145.487 400.391,145.487 L 401.719,149.55 L 405.078,150.018 L 405.938,154.784 L 411.25,155.643 L 416.172,159.159 L 416.484,161.347 L 422.109,161.503 L 425.938,162.753 L 439.297,161.19 L 441.094,158.378 L 441.25,154.55 L 448.438,154.315 L 449.095,148.21 L 452.904,148.21 L 452.43,141.335 L 455.607,141.621 L 454.787,138.326 L 452.812,135.643 L 452.422,131.425 L 446.797,125.8 L 445.547,118.456 C 445.547,118.456 441.953,116.815 441.953,116.737 C 441.953,116.659 441.719,111.815 441.719,111.815 L 445.781,106.112 L 445.391,103.847 L 441.641,103.768 L 438.828,106.112 C 438.828,106.112 435.078,106.503 435.078,106.581 C 435.078,106.659 435.078,108.3 435.078,108.3 C 435.078,108.3 436.016,111.503 436.016,111.581 C 436.016,111.659 431.719,111.581 431.719,111.581 L 431.562,106.503 L 425.469,103.456 C 425.469,103.456 419.766,107.362 419.766,107.44 C 419.766,107.518 419.453,111.972 419.453,111.972 L 416.719,112.753 L 413.906,108.534 L 408.984,106.659 L 406.328,106.503 L 406.25,109.784 L 411.406,116.581 L 410.938,120.565 z " />
      <path
         style="fill:none;fill-rule:evenodd;stroke:#544b20;stroke-width:1pt"
         id="path3587"
         d="M 449.234,148.039 L 448.129,143.951" />
      <path
         style="fill:none;fill-rule:evenodd;stroke:#544b20;stroke-width:1pt"
         id="path3589"
         d="M 452.327,141.299 L 450.449,138.537" />
      <path
         style="fill:#544b20;fill-rule:evenodd;stroke:#544b21;stroke-width:1pt;stroke-opacity:0.99998803"
         id="path3591"
         d="M 400.841,138.206 L 406.697,137.874 L 407.802,143.177 L 409.79,144.945 L 410.122,154.668 L 412,155.441 L 412.553,151.574 L 417.083,151.243 L 417.966,159.087 L 416.862,160.082 L 417.304,161.297 L 422.717,161.187 C 422.717,161.187 423.933,159.087 424.043,159.087 C 424.154,159.087 427.137,158.756 427.137,158.866 C 427.137,158.977 428.352,161.187 428.352,161.187 L 429.236,158.203 C 429.236,158.203 432.109,156.988 432.109,157.099 C 432.109,157.209 434.429,160.855 434.429,160.855 L 438.406,160.303 L 435.976,157.983 L 434.981,152.9 L 440.505,149.917 L 442.715,153.674 C 442.715,153.674 444.814,153.784 444.704,153.674 C 444.593,153.563 442.273,149.365 442.273,149.365 L 442.273,140.526 L 446.472,134.781 L 452.327,134.118 L 452.327,131.687 L 446.472,126.273 L 444.925,118.76 L 441.61,117.103 L 440.726,118.097 L 437.08,118.429 L 440.726,123.843 L 440.726,127.378 L 442.384,128.262 L 442.052,137.985 C 442.052,137.985 437.964,138.537 437.964,138.648 C 437.964,138.758 437.633,144.061 437.633,144.061 L 435.092,146.603 C 435.092,146.603 433.655,151.685 433.545,151.685 C 433.434,151.685 431.114,154.778 431.114,154.778 L 426.584,154.889 C 426.584,154.889 423.933,152.348 423.933,152.237 C 423.933,152.127 423.491,148.481 423.491,148.481 C 423.491,148.481 421.723,147.928 421.612,147.928 C 421.502,147.928 420.618,143.84 420.618,143.84 L 417.524,142.073 L 417.304,139.642 L 414.32,138.316 C 414.32,138.316 413.989,136.106 413.878,135.996 C 413.768,135.885 412.442,135.002 412.332,135.002 C 412.221,135.002 412.221,128.925 412.221,128.925 L 414.873,128.483 L 413.388,126.543 L 412.884,124.837 L 412.884,123.069 L 415.094,120.859 C 415.094,120.859 411.116,120.307 411.116,120.417 C 411.116,120.528 407.25,122.185 407.25,122.075 C 407.36,122.075 407.139,129.256 407.139,129.256 L 402.609,130.693 L 398.963,136.548 L 400.841,138.206 z " />
      <path
         style="fill:#544b20;fill-rule:evenodd;stroke:#544b20;stroke-width:1pt"
         id="path3593"
         d="M 423.712,148.039 L 426.695,146.271 L 426.584,142.846 L 423.712,142.183 L 422.606,141.078 L 425.811,141.631 L 429.788,141.299 L 431.114,140.636 C 430.562,142.073 430.12,141.962 430.009,141.962 C 429.899,141.962 427.8,143.067 427.8,143.067 L 427.91,146.382 C 427.91,146.382 434.76,147.265 434.65,147.265 C 434.539,147.265 434.65,148.591 434.429,148.591 C 434.208,148.591 427.358,147.044 427.358,147.044 L 423.049,149.696 L 423.712,148.039 z " />
      <path
         style="fill:#544b20;fill-rule:evenodd;stroke:#544b20;stroke-width:1pt;stroke-opacity:0.99999599"
         id="path3595"
         d="M 440.947,127.489 L 436.97,130.582 L 434.429,135.112 L 433.103,135.333 L 429.236,130.14 L 424.817,130.251 C 424.817,130.251 422.386,136.327 422.386,136.438 C 422.386,136.548 420.618,136.217 420.618,136.217 L 415.978,131.135 C 415.978,131.135 414.541,128.593 414.762,128.593 C 414.983,128.593 426.363,128.704 426.363,128.704 L 426.253,123.18 C 426.253,123.18 424.485,122.627 423.601,122.075 C 424.264,121.854 429.899,121.854 429.899,121.854 L 427.468,123.511 L 427.468,128.262 L 437.522,128.372 L 440.947,127.489 z " />
      <rect
         rx="0.83664924"
         y="130.14011"
         x="419.51321"
         width="2.6516111"
         style="fill:#796a3a;fill-opacity:0.99607903;fill-rule:evenodd;stroke-width:1pt"
         ry="0.83660454"
         id="rect3597"
         height="2.6515961" />
      <rect
         rx="0.83664924"
         y="129.58777"
         x="432.10858"
         width="2.6516111"
         style="fill:#7a6b3a;fill-rule:evenodd;stroke-width:1pt"
         ry="0.83660454"
         id="rect3599"
         height="2.6515961" />
      <path
         style="fill:none;fill-rule:evenodd;stroke:#544b20;stroke-width:1pt"
         id="path3601"
         d="M 413.547,121.301 C 417.745,119.607 420.728,118.245 425.921,117.766 C 430.819,117.25 434.613,117.95 438.958,118.76" />
      <path
         style="fill:#544b20;fill-rule:evenodd;stroke:#544b20;stroke-width:1pt"
         id="path3603"
         d="M 415.867,112.352 L 412.442,112.352 L 407.58,107.159 L 410.343,107.491 L 413.547,108.927 L 415.867,112.352 z " />
      <path
         style="fill:#544b20;fill-rule:evenodd;stroke:#544b20;stroke-width:1pt"
         id="path3605"
         d="M 436.528,110.363 L 444.262,104.398 L 441.721,104.066 L 438.848,106.717 L 435.423,107.27 L 436.528,110.363 z " />
      <path
         style="fill:#544b20;fill-rule:evenodd;stroke:#544b20;stroke-width:1pt"
         id="path3607"
         d="M 431.968,111.459 L 419.845,111.91 L 419.955,110.584 L 424.375,110.142 L 424.927,108.375 C 424.927,108.375 426.253,108.265 426.253,108.375 C 426.253,108.486 427.247,110.032 427.247,110.032 L 431.556,110.805 L 431.968,111.459 z " />
      <path
         style="fill:#544b20;fill-rule:evenodd;stroke:#544b20;stroke-width:1pt"
         id="path3609"
         d="M 431.335,106.828 L 427.137,106.938 L 426.805,104.618 L 431.335,106.828 z " />
      <path
         style="fill:#544b20;fill-rule:evenodd;stroke:#544b20;stroke-width:1pt"
         id="path3611"
         d="M 424.264,104.729 L 423.932,107.048 L 419.845,107.711 L 424.264,104.729 z " />
      <path
         style="fill:#544b20;fill-rule:evenodd;stroke:#544b20;stroke-width:1pt"
         id="path3613"
         d="M 401.062,147.044 L 403.161,141.741 L 401.283,138.095 L 399.405,143.509 L 401.062,147.044 z " />
      <path
         transform="translate(-0.110473,0.110443)"
         style="fill:#544b20;fill-rule:evenodd;stroke:#544b20;stroke-width:1pt"
         id="path3615"
         d="M 405.371,149.807 L 407.912,143.509 L 403.051,148.591 L 405.371,149.807 z " />
    </g>
    <path
       style="font-size:12px;fill:#a0210c;fill-rule:evenodd;stroke:#a0210c;stroke-width:0.43477588pt;stroke-opacity:0.99651998"
       id="path3617"
       d="M 686.09712,170.39954 L 684.28166,172.52303 L 684.42122,174.30417 L 688.1918,174.23568 C 689.40201,173.95018 689.70449,173.5277 689.93749,173.03679 C 690.30975,172.43174 690.05379,172.10057 690.14693,171.29011 L 686.09712,170.39954 z " />
    <path
       style="font-size:12px;fill:#a0210c;fill-rule:evenodd;stroke:#a0210c;stroke-width:0.43477588pt;stroke-opacity:0.99651998"
       id="path3619"
       d="M 695.17444,175.74264 L 693.638,177.181 L 693.638,178.82517 L 696.98991,178.75669 C 698.20002,178.47119 698.36244,178.25414 698.59553,177.76366 C 698.96779,177.15815 698.85189,177.16979 698.94503,176.35931 L 695.17444,175.74264 z " />
    <path
       style="font-size:12px;fill:#a0210c;fill-rule:evenodd;stroke:#a0210c;stroke-width:0.43477588pt;stroke-opacity:0.99651998"
       id="path3621"
       d="M 709.90739,171.15305 L 708.16171,172.93417 L 708.23149,174.30405 L 711.79263,174.44099 C 713.00284,174.15547 712.81627,174.21275 713.18892,173.58488 C 713.56118,172.97982 713.44528,172.85406 713.53842,172.04359 L 709.90739,171.15305 z " />
    <path
       style="font-size:12px;fill:#a0210c;fill-rule:evenodd;stroke:#a0210c;stroke-width:0.43477588pt;stroke-opacity:0.99651998"
       id="path3623"
       d="M 720.31102,174.37276 L 718.28622,176.08498 L 718.28622,177.79764 L 722.0567,178.14044 C 723.26691,177.85493 723.36005,177.50093 723.66283,177.07846 C 724.03499,176.47342 723.84891,176.41615 723.94195,175.60567 L 720.31102,174.37276 z " />
    <path
       style="font-size:12px;fill:#a0210c;fill-rule:evenodd;stroke:#000000;stroke-width:0.43477588pt"
       id="path3625"
       d="M 694.9648,129.57173 L 702.0868,134.29846 C 703.42564,133.18784 706.21076,133.86092 707.30149,134.16884 C 709.26009,134.68001 710.64057,135.83972 712.35127,136.14806 C 715.48002,136.93441 719.22864,137.47745 722.06774,137.1691 C 724.90743,136.86119 727.29217,135.37722 729.38814,134.29846 L 729.38814,133.61373 L 727.99185,133.61373 C 725.72511,134.42936 722.54894,134.47416 720.11669,134.15462 C 717.68444,133.83509 717.02909,132.74472 713.39856,131.69567 L 713.11934,131.01051 C 717.52649,131.2198 718.4214,131.10569 720.26639,130.30127 C 722.07002,129.82238 722.88263,128.77548 723.90089,128.05243 L 723.87237,127.24285 L 722.54546,127.17436 C 720.83616,128.31298 719.74662,128.51882 717.1278,128.27896 C 714.74485,128.03778 712.59838,126.68127 710.99961,126.65285 C 709.30403,126.66577 709.38394,125.85575 707.74402,125.77608 C 705.13703,125.54784 702.3195,125.89536 699.85256,126.48922 C 696.89667,127.37977 696.45413,128.13297 694.9648,129.57173 z " />
    <path
       style="font-size:12px;fill-rule:evenodd;stroke:#000000;stroke-width:0.43477588pt"
       id="path3627"
       d="M 696.34797,128.52356 C 697.02967,128.67859 697.79436,128.87496 698.3518,129.19234 C 698.90974,129.50972 698.76521,129.50327 699.3644,129.94209 C 699.26828,129.37494 699.29552,129.41542 698.91004,128.96971 C 698.52416,128.52356 697.89048,128.11834 697.38125,127.75313 L 696.34797,128.52356 z " />
    <path
       style="font-size:12px;fill-rule:evenodd;stroke:#000000;stroke-width:0.43477588pt"
       id="path3629"
       d="M 702.29843,133.63139 C 702.31195,133.01688 701.99545,132.48288 701.76116,131.94932 C 701.52717,131.41574 701.33404,130.96272 700.89339,130.42915 C 701.44417,130.58419 701.74745,130.82062 702.21582,131.38129 C 702.68371,131.94243 702.65657,132.50312 702.75269,133.30669 L 702.29843,133.63139 z " />
    <path
       style="font-size:12px;fill-rule:evenodd;stroke:#000000;stroke-width:0.43477588pt"
       id="path3631"
       d="M 703.66221,126.13178 C 703.82762,126.55769 704.15206,126.8501 704.42681,127.75873 C 704.66437,128.58429 704.77759,129.73969 704.77759,129.73969 C 704.68803,129.12472 704.84648,128.42883 704.75692,127.81388 C 704.66736,127.19933 704.32979,126.66535 704.24033,126.05039 L 703.66221,126.13178 z " />
    <path
       style="font-size:12px;fill-rule:evenodd;stroke:#000000;stroke-width:0.43477588pt"
       id="path3633"
       d="M 709.44696,126.49654 L 709.73622,129.90204 L 710.06713,126.69937 L 709.44696,126.49654 z " />
    <path
       style="font-size:12px;fill-rule:evenodd;stroke:#000000;stroke-width:0.43477588pt"
       id="path3635"
       d="M 708.04213,133.55037 C 708.18,132.99656 708.15246,132.44233 708.08338,131.88809 C 708.01459,131.33428 707.82136,130.86144 707.62872,130.22626 C 708.1796,130.69908 708.40037,131.29383 708.70324,131.929 C 708.70324,132.56376 708.53824,133.11758 708.04213,133.55037 z " />
    <path
       style="font-size:12px;fill-rule:evenodd;stroke:#000000;stroke-width:0.43477588pt"
       id="path3637"
       d="M 714.03383,132.05032 C 714.05441,132.05032 714.20987,133.20573 713.94646,134.03688 C 713.68315,134.86801 713.49707,134.92873 713.00096,135.37486 C 713.66197,134.88868 714.24059,134.72633 714.44724,134.19922 C 714.654,133.38832 714.11634,132.1722 714.03383,132.05032 z " />
    <path
       style="font-size:12px;fill-rule:evenodd;stroke:#000000;stroke-width:0.43477588pt"
       id="path3639"
       d="M 715.06661,130.95607 C 714.6536,131.02367 714.571,129.30715 714.32309,128.48289 C 714.50221,128.38816 714.68133,128.4153 714.86035,128.80717 C 715.05299,129.03713 714.99783,130.23992 715.06661,130.95607 z " />
    <path
       style="font-size:12px;fill-rule:evenodd;stroke:#000000;stroke-width:0.43477588pt"
       id="path3641"
       d="M 719.15747,130.26656 L 719.32307,128.84757 L 719.77734,128.80711 C 719.77734,128.80711 719.77734,129.98275 719.77734,130.02325 C 719.77734,130.06414 719.19922,130.30704 719.15747,130.26656 z " />
    <path
       style="font-size:12px;fill-rule:evenodd;stroke:#000000;stroke-width:0.43477588pt"
       id="path3643"
       d="M 718.82696,134.07731 C 719.08898,134.50965 719.55696,135.02341 719.61223,135.49626 C 719.6675,135.9691 719.51571,136.19906 719.15787,136.91522 L 719.81898,136.95572 C 720.17673,136.38166 720.28736,135.96953 720.23249,135.51693 C 720.17713,135.06391 719.95636,134.61129 719.48848,134.23965 L 718.82696,134.07731 z " />
    <path
       style="font-size:12px;fill-rule:evenodd;stroke:#000000;stroke-width:0.43477588pt"
       id="path3645"
       d="M 723.74474,134.44248 L 723.90984,136.42859 L 724.44701,136.14479 L 724.32325,134.44248 L 723.74474,134.44248 z " />
    <path
       style="font-size:12px;fill:#f9f704;fill-opacity:1;fill-rule:evenodd;stroke:#544b20;stroke-width:0.43477588pt"
       id="path3647"
       d="M 694.52316,129.92229 C 692.91147,130.38867 692.32849,131.27922 691.53974,132.04879 L 686.99829,129.74872 C 686.26183,130.35981 685.97814,131.23273 686.33241,132.1263 C 686.68667,133.01946 688.11139,134.41775 689.12468,135.10893 C 688.87091,136.34271 688.49697,137.27376 688.05403,138.35596 C 687.56021,139.57252 686.5001,141.10947 686.46938,141.60299 C 686.40885,142.168 686.22446,143.37851 687.06937,143.70107 C 687.91487,144.02362 690.6328,143.47758 691.53974,143.53744 C 691.39223,144.02276 691.03925,144.87157 691.15953,145.23587 C 691.2798,145.60021 691.52343,145.72165 692.26139,145.74275 C 692.04877,146.19362 691.59023,146.76508 691.81011,147.03424 C 692.37988,147.46532 693.03264,147.3908 693.58174,147.35722 C 692.71555,148.36147 690.55199,150.2942 689.85011,151.15762 C 689.10749,152.16189 689.04377,153.24668 690.4832,153.1403 C 689.94763,153.73372 689.43273,154.30692 689.51483,154.81935 C 689.63869,155.43303 689.94723,155.84472 690.97603,155.48901 C 690.3673,156.86576 690.76719,158.10128 690.9818,159.53833 C 690.46203,160.6257 690.6828,161.63255 690.55378,162.88141 C 689.49505,163.48086 689.36335,164.26204 688.67509,165.4674 C 688.05443,166.77226 686.89909,167.12838 686.25825,169.92799 L 690.41292,170.96412 C 690.5656,170.38833 691.10903,170.01454 691.26191,169.4392 C 691.41419,168.86344 691.40226,168.14642 691.32811,167.50994 C 692.15255,166.31619 693.8205,163.85034 694.35647,162.5356 C 695.2637,162.05113 695.92353,161.74794 696.60433,161.74794 C 697.28513,161.74794 697.71832,162.15191 698.44037,162.5356 C 698.12089,163.64364 697.22499,164.85201 697.1732,166.40447 L 697.1732,170.68807 C 696.99229,171.75219 695.78218,171.76638 695.27166,174.97122 L 699.00407,175.93844 C 699.63785,174.86054 700.64171,174.71199 700.90512,174.28047 L 701.1747,169.83024 C 701.64964,167.72955 704.59489,165.9928 704.63754,163.7104 C 705.69457,163.69618 706.09357,163.80384 706.51264,163.58765 C 707.07595,163.39172 707.26898,163.07476 707.70893,162.67684 C 707.87831,163.36372 708.41866,163.42402 708.8765,163.42402 C 709.33395,163.42402 710.24426,162.77805 710.62,162.51536 C 710.88431,162.88785 711.02426,163.24011 711.57644,163.37018 C 712.12871,163.50025 713.68911,163.26682 714.32389,163.11394 L 711.25686,168.13178 C 711.14235,168.61538 711.29553,168.91727 711.05766,169.48184 C 710.83461,169.98871 710.38521,170.23288 710.18273,170.6997 L 713.65969,171.53039 L 714.21455,170.06621 C 714.9516,169.75572 715.54503,169.58647 715.9322,169.1145 C 716.31927,168.64253 716.31589,167.74592 716.53835,167.23347 C 717.72619,166.37132 719.59305,164.49932 720.90415,162.95031 C 721.79429,163.10059 723.05499,163.83656 723.53351,164.93643 C 723.6007,166.11639 723.68758,168.28639 723.15767,169.78975 L 720.90415,173.31324 L 720.64869,173.89116 L 724.19632,175.15511 L 726.44984,173.4278 L 726.53771,170.96412 C 727.66969,168.96508 729.28943,167.87253 730.83323,166.61203 C 730.83323,166.54272 730.99784,163.96618 730.93592,163.86542 C 730.55451,163.57516 730.29687,163.74959 730.16208,163.21688 C 730.02779,162.68461 730.11943,161.22302 730.191,160.65025 C 730.41396,160.37377 730.88413,160.05639 730.85997,159.82039 C 730.24597,159.14644 730.43384,157.40191 730.62201,156.04153 C 730.57589,154.49251 732.69184,152.66101 733.01618,151.75837 L 733.14829,150.13228 C 732.93189,149.73264 732.61321,149.49449 732.60268,149.15514 C 732.59254,148.81622 733.0139,148.25469 733.27165,147.8951 L 733.72014,147.12984 L 733.64997,143.12273 C 733.52432,142.68993 733.15177,142.01511 732.79969,141.94579 C 732.44721,141.87689 731.93062,142.27266 731.53729,142.70802 L 729.49848,144.21311 C 728.52086,144.51197 727.66661,144.62954 725.94816,144.20148 L 723.32675,144.25359 C 721.95025,144.63814 721.23207,144.70016 719.93757,144.1356 L 718.38542,144.16056 C 717.90173,144.42413 717.23227,144.8483 716.70743,144.94995 C 716.18289,145.05112 715.47267,145.07182 714.94763,144.91075 C 710.94077,145.18034 711.93597,145.46973 710.79067,145.71907 C 709.87111,145.54464 710.16613,145.08773 706.59176,145.05417 L 705.1748,144.63945 C 703.38697,143.45474 702.01046,141.56337 700.81954,139.38907 C 704.5437,138.32237 706.10629,137.21477 707.23618,134.67397 L 701.9701,134.87078 L 694.52316,129.92229 z " />
    <path
       style="font-size:12px;fill-rule:evenodd;stroke:#000000;stroke-width:0.43477588pt"
       id="path3649"
       d="M 692.65939,136.42131 L 694.15041,137.05305 C 694.33261,137.26967 694.68549,137.51943 694.91908,137.53409 C 695.15208,137.54829 695.35088,137.31057 695.55018,137.14004 L 696.92291,136.42131 C 696.10951,136.30375 695.8615,135.79903 694.99681,135.79903 C 694.13202,135.79903 693.52408,136.25292 692.65939,136.42131 z " />
    <path
       style="font-size:12px;fill-rule:evenodd;stroke:#000000;stroke-width:0.43477588pt"
       id="path3651"
       d="M 699.20914,136.79143 C 699.69362,137.07739 700.57292,137.64928 701.29756,137.64928 C 702.09078,137.58209 702.07796,137.02699 703.21401,136.65708 L 704.88027,135.31003 C 703.87503,135.32123 701.70361,135.51804 700.5101,135.8828 C 699.50486,136.14633 699.27146,136.5447 699.20914,136.79143 z " />
    <path
       style="font-size:12px;fill-rule:evenodd;stroke:#000000;stroke-width:0.43477588pt"
       id="path3653"
       d="M 695.3974,154.00861 C 695.3968,154.1318 695.19064,154.2218 695.08697,154.0758 C 694.95924,152.32828 694.57426,151.10224 694.0353,149.74141 C 694.64354,150.77667 695.1489,152.45144 695.3974,154.00861 z " />
    <path
       style="font-size:12px;fill-rule:evenodd;stroke:#000000;stroke-width:0.43477588pt"
       id="path3655"
       d="M 699.65197,161.1794 C 698.97415,161.24829 698.70726,161.14838 698.02944,161.21729 C 697.95499,159.45897 697.94833,157.44832 697.95927,156.19472 C 698.21781,156.22658 698.97375,157.01551 699.42106,158.25877 C 699.53776,159.17606 699.70634,160.2113 699.65197,161.1794 z " />
    <path
       style="font-size:12px;fill-rule:evenodd;stroke:#000000;stroke-width:0.43477588pt"
       id="path3657"
       d="M 704.15375,154.19795 C 704.45931,154.28195 704.88514,154.28237 704.98474,154.08039 C 705.11417,153.70573 704.72879,153.29748 704.58446,152.83886 C 704.08188,151.85398 703.80306,150.78555 703.59273,150.32261 C 703.37166,150.18309 703.1332,150.19557 703.18588,150.4264 C 703.47434,151.30233 703.96857,153.86033 704.15375,154.19795 z " />
    <path
       style="font-size:12px;fill-rule:evenodd;stroke:#000000;stroke-width:0.43477588pt"
       id="path3659"
       d="M 708.95672,153.66784 C 708.98972,153.88015 708.26817,153.57137 708.1465,153.32977 C 708.13596,152.86081 707.16451,149.43074 707.32525,149.29811 C 707.52942,149.1982 708.1623,150.44448 708.36637,151.01811 C 708.41429,151.35744 708.84002,152.60502 708.95672,153.66784 z " />
    <path
       style="font-size:12px;fill-rule:evenodd;stroke:#000000;stroke-width:0.43477588pt"
       id="path3661"
       d="M 708.27602,160.73595 C 708.25892,160.97581 708.82471,160.77858 709.04767,160.59815 C 709.69418,159.58743 710.49525,158.52633 710.73063,158.12154 C 710.87238,157.68873 711.58002,154.93479 711.36173,154.95675 C 711.28469,154.87707 710.6692,156.32275 709.87469,157.74944 C 709.04807,159.20243 708.26717,160.59686 708.27602,160.73595 z " />
    <path
       style="font-size:12px;fill-rule:evenodd;stroke:#000000;stroke-width:0.43477588pt"
       id="path3663"
       d="M 713.0931,159.25584 C 712.85772,159.36909 713.56536,156.87482 713.62152,156.43298 C 713.75104,155.73448 713.93135,154.48088 714.21504,152.85739 C 714.56136,155.1247 714.15272,157.56041 713.0931,159.25584 z " />
    <path
       style="font-size:12px;fill-rule:evenodd;stroke:#000000;stroke-width:0.43477588pt"
       id="path3665"
       d="M 715.9822,151.62186 C 715.82773,151.75666 713.75849,148.33607 713.94855,148.31928 C 714.00173,148.16768 715.6828,150.46 715.92295,150.8635 C 716.02305,151.05471 716.12225,151.34668 715.9822,151.62186 z " />
    <path
       style="font-size:12px;fill-rule:evenodd;stroke:#000000;stroke-width:0.43477588pt"
       id="path3667"
       d="M 720.82473,154.16136 C 720.67026,154.04466 720.73208,152.95255 720.42563,151.7532 C 720.11977,150.55387 719.59911,149.39803 719.70229,149.06988 C 719.79891,148.8972 720.13558,148.97686 720.40376,149.20769 C 720.53149,149.8601 720.83039,152.36341 721.18118,153.99168 C 721.17631,154.14929 721.00067,154.25652 720.82473,154.16136 z " />
    <path
       style="font-size:12px;fill-rule:evenodd;stroke:#000000;stroke-width:0.43477588pt"
       id="path3669"
       d="M 724.20904,151.12232 C 724.04354,150.94618 724.65843,152.29668 725.10623,153.90125 C 725.55394,155.50624 725.78316,158.34116 725.892,158.13961 C 726.19965,157.93549 726.14736,157.68098 726.62668,157.57762 C 727.10569,157.4747 728.88815,157.6405 728.78458,157.5208 C 727.68192,156.53848 726.66494,155.72413 725.90512,154.65788 C 725.1457,153.59161 724.64312,152.18857 724.20904,151.12232 z " />
    <path
       style="font-size:12px;fill-rule:evenodd;stroke:#000000;stroke-width:0.43477588pt"
       id="path3671"
       d="M 728.37773,165.75548 C 728.03181,166.00484 727.37735,166.20337 727.18601,166.09959 C 726.13464,163.91323 725.54599,162.48392 724.083,160.14597 C 723.70597,159.59087 722.76752,159.67657 722.8206,159.4578 C 722.85579,159.20546 723.34783,159.30664 723.66601,158.9406 C 723.98429,158.57498 724.02604,158.11206 724.22305,157.9441 C 723.79295,158.9531 724.92284,160.50039 725.55583,161.72813 C 725.97669,161.84269 726.31157,161.84012 726.50948,162.08902 C 726.5566,162.20702 726.05442,162.29056 726.11844,162.71128 L 727.18601,164.86105 C 727.53361,165.12203 728.06958,165.26585 728.58836,165.34251 C 728.72414,165.46309 728.4822,165.63449 728.37773,165.75548 z " />
    <path
       style="font-size:12px;fill:none;fill-rule:evenodd;stroke-width:1pt;stroke-opacity:0.99607801"
       id="path3673"
       d="M 728.97702,189.79511 L 747.7552,123.60607 L 787.61379,107.54904 L 808.75275,143.2926 L 778.49661,204.73722 C 761.38251,198.26904 751.59487,194.81364 728.97702,189.79511 z " />
    <path
       style="font-size:12px;fill-rule:evenodd;stroke:#000000;stroke-width:0.43477588pt"
       id="path3675"
       d="M 730.56326,146.64364 C 731.22299,146.68025 731.8191,146.73795 732.01482,146.40249 C 732.41819,145.57178 732.65218,144.88706 732.38051,144.34703 C 731.34634,144.43013 730.56505,144.90645 730.14279,145.8181 C 730.15631,146.13463 730.23265,146.36847 730.56326,146.64364 z " />
    <path
       style="font-size:12px;fill:#fdfcfc;fill-rule:evenodd;stroke:#fdfcfc;stroke-width:0.43477588pt"
       id="path3677"
       d="M 741.42722,146.02051 C 751.65182,148.1806 761.11681,150.6387 770.58199,153.69238 C 780.04658,156.74604 789.056,160.39574 798.21742,164.34343 L 782.8809,195.32935 C 774.32047,192.07157 765.86799,189.4455 757.41511,186.7148 C 748.96272,183.98368 740.72495,181.56822 732.16501,178.94259 L 741.42722,146.02051 z " />
    <path
       style="font-size:12px;fill:#e6151e;fill-rule:evenodd;stroke:#e6151e;stroke-width:0.43477588pt"
       id="path3679"
       d="M 739.39059,153.34011 C 739.39059,153.34011 753.67056,156.52643 767.50791,160.97711 C 781.34545,165.42735 794.84712,171.14152 794.79344,171.14152 C 794.68599,171.14152 786.09613,188.83873 786.09613,188.83873 C 777.75737,185.52062 768.98849,182.41269 760.32756,179.62129 C 751.66624,176.82986 743.00521,174.14397 734.12928,172.08979 L 739.39059,153.34011 z " />
    <path
       style="font-size:12px;fill-rule:evenodd;stroke:#010001;stroke-width:0.43477588pt;stroke-opacity:0.99607801"
       id="path3681"
       d="M 740.57704,161.99471 C 741.98168,161.21009 742.93295,160.99821 743.68919,159.70501 L 748.74593,159.70544 L 748.81124,161.54943 C 750.05385,162.14328 750.77779,162.80088 752.0204,163.3943 C 753.26312,163.98814 755.02471,164.51785 756.26732,165.1117 L 767.15941,166.06598 C 768.61802,166.29897 770.72543,166.91392 771.98961,167.65591 C 773.2538,168.39834 774.06451,169.33112 774.74541,170.51838 C 776.98184,171.30302 779.21916,171.76941 781.5205,172.10875 C 783.82253,172.44767 786.70725,172.59622 788.94408,172.68108 C 790.04624,173.06305 790.04624,173.63537 789.52746,174.2077 C 789.52746,174.2077 788.29529,175.87729 784.93205,175.89322 C 781.56891,175.90915 777.75965,174.01692 776.10651,174.27143 C 776.17162,175.28903 777.92217,177.38842 779.93197,178.21523 L 779.86746,183.04876 L 778.95933,183.87601 L 777.98698,183.23996 C 778.76529,182.09531 778.50536,180.75904 778.18141,179.6144 C 777.4357,178.53305 777.33869,178.08776 775.94508,178.02446 C 774.29145,177.70579 773.09177,177.26052 770.98486,175.79762 L 770.20665,175.9251 C 769.75279,176.73084 769.29882,177.28205 768.26167,177.76953 L 766.12216,177.6425 C 766.12216,177.6425 761.19444,176.56115 761.19444,176.49741 C 761.19444,176.43411 761.12963,175.73431 761.25955,175.67059 C 761.38907,175.60686 762.94509,175.6073 763.07452,175.6073 C 764.11226,175.9251 766.31678,175.9251 766.31678,175.9251 L 766.25158,174.08021 L 769.55826,173.88945 C 768.88839,171.59973 768.672,170.13643 765.60328,169.62783 L 756.00749,169.88234 L 756.1373,171.21816 C 753.73846,170.89994 749.39462,170.8431 747.17589,171.5782 C 745.8791,171.70569 744.01314,172.36284 743.17042,172.36284 L 742.19768,172.10875 C 741.54938,171.91798 741.54938,171.7272 741.80872,171.15445 C 745.95812,170.83621 746.60682,170.51838 747.8386,169.94608 C 747.9036,169.56453 747.38463,168.73726 747.1903,168.67353 C 744.59702,168.5465 742.52212,168.73726 741.80922,168.61022 C 740.70696,168.29198 739.21544,167.71963 739.21544,167.65591 C 739.21544,167.5922 739.02101,166.63831 739.08592,166.63831 C 739.15033,166.63831 740.77196,167.0836 740.83598,167.0836 C 742.58693,167.40141 745.63417,167.27437 746.34748,166.89283 L 746.41249,165.49324 C 746.34748,164.85717 745.89361,164.28485 745.76369,164.22111 C 745.63417,164.1574 742.91088,163.83958 741.93824,163.83958 C 740.36054,163.56396 740.59851,162.77935 740.57704,161.99471 z " />
    <path
       style="font-size:12px;fill:#fdfdfd;fill-opacity:0.996081;fill-rule:evenodd;stroke:#010001;stroke-width:0.43477588pt;stroke-opacity:0.99607801"
       id="path3683"
       d="M 761.51839,173.31712 C 762.98804,173.78352 764.06873,173.93166 766.25158,174.08021 L 769.55826,173.88945 C 768.88839,171.59973 768.672,170.13643 765.60328,169.62783 L 756.00749,169.88234 L 756.1373,171.21816 C 759.05513,172.29909 760.48124,172.89295 761.51839,173.31712 z " />
    <path
       style="font-size:12px;fill:#011171;fill-opacity:0.99607801;fill-rule:evenodd;stroke:#011171;stroke-width:0.4347754pt"
       id="path3685"
       d="M 570.95484,189.78273 L 553.61359,125.1542 L 580.0751,93.097755 L 617.17988,114.28001 L 623.46939,182.76464 C 604.53653,184.16779 592.2708,185.98987 570.95484,189.78273 z " />
    <path
       style="font-size:12px;fill:#fbfd10;fill-opacity:0.99607801;fill-rule:evenodd;stroke:#fdc605;stroke-width:0.43477588pt;stroke-opacity:0.99607801"
       id="path3687"
       d="M 511.37012,141.17408 L 517.71921,146.11112 L 516.52999,154.74555 L 524.70525,151.3461 L 531.19108,156.27477 L 532.07916,148.33309 L 538.78921,145.69728 L 533.24101,140.37423 L 534.4754,132.4791 C 534.4754,132.4791 526.40848,135.39949 526.40436,135.33244 C 526.40026,135.26539 520.60746,130.42931 520.5428,130.5006 C 520.47855,130.57184 519.21519,137.99719 519.21519,137.99719 L 511.37012,141.17408 z " />
    <path
       style="font-size:12px;fill:#ffc500;fill-rule:evenodd;stroke-width:1pt"
       id="path3689"
       d="M 511.51113,141.23275 L 538.71679,145.63484 L 531.94612,148.40856 L 525.40839,143.75273 C 525.40839,143.75273 531.24708,156.06899 531.17464,156.00613 C 531.10217,155.94327 524.98729,151.46345 524.76949,151.27486 L 525.34005,143.75691 C 525.34005,143.75691 516.66281,154.67013 516.6587,154.60307 C 516.65457,154.5356 517.92049,146.03148 517.92049,146.03148 L 511.51113,141.23275 z " />
    <path
       style="font-size:12px;fill:#ffc500;fill-rule:evenodd;stroke-width:1pt"
       id="path3691"
       d="M 519.14668,138.00138 L 525.45208,143.34579 L 520.53458,130.36649 L 519.14668,138.00138 z " />
    <path
       style="font-size:12px;fill:#ffc500;fill-rule:evenodd;stroke-width:1pt"
       id="path3693"
       d="M 526.3406,135.40407 C 526.41304,135.46696 525.3755,143.21543 525.44384,143.21125 C 526.07885,142.36338 534.47537,132.47868 534.40747,132.48283 C 534.33867,132.48706 526.48139,135.46278 526.3406,135.40407 z " />
    <path
       style="font-size:12px;fill:#fbfd10;fill-opacity:0.99607801;fill-rule:evenodd;stroke:#fdc605;stroke-width:0.43477559pt;stroke-opacity:0.99607801"
       id="path3695"
       d="M 768.13771,124.94576 L 769.73648,132.74479 L 763.15483,138.59984 L 771.62541,141.17518 L 773.33401,149.05436 L 779.23079,143.53882 L 786.08172,145.77075 L 785.34764,138.18351 L 791.47791,132.92287 C 791.47791,132.92287 783.40475,130.04949 783.4456,129.99559 C 783.48655,129.94164 782.24583,122.57221 782.14961,122.58577 C 782.05369,122.59962 776.21009,127.48235 776.21009,127.48235 L 768.13771,124.94576 z " />
    <path
       style="font-size:12px;fill:#ffc500;fill-rule:evenodd;stroke-width:1pt"
       id="path3697"
       d="M 768.2067,125.07997 L 786.06751,145.6771 L 779.0797,143.51232 L 777.15211,135.80907 C 777.15211,135.80907 773.51194,148.93234 773.49802,148.83835 C 773.48411,148.74435 771.76347,141.44359 771.72123,141.16133 L 777.09724,135.76902 C 777.09724,135.76902 763.30572,138.62621 763.34658,138.57229 C 763.38783,138.51803 769.94244,132.8113 769.94244,132.8113 L 768.2067,125.07997 z " />
    <path
       style="font-size:12px;fill:#fdc605;fill-rule:evenodd;stroke-width:1pt"
       id="path3699"
       d="M 776.15522,127.44219 L 777.4528,135.5253 L 782.23151,122.47793 L 776.15522,127.44219 z " />
    <path
       style="font-size:12px;fill:#fdc605;fill-rule:evenodd;stroke-width:1pt"
       id="path3701"
       d="M 783.34988,130.01001 C 783.36389,130.10401 777.48014,135.37703 777.53511,135.41712 C 778.57663,135.17037 791.47821,132.92253 791.42364,132.88271 C 791.36837,132.84237 783.41886,130.14409 783.34988,130.01001 z " />
    <path
       style="font-size:12px;fill:#e6141d;fill-rule:evenodd;stroke:#e6141d;stroke-width:0.43477588pt"
       id="path3703"
       d="M 553.74004,125.40487 C 563.15817,120.90294 573.72897,117.39063 584.87699,115.85897 C 595.59173,114.32667 606.31538,114.19393 617.31894,114.21749 C 617.31894,114.21749 618.76046,131.06951 618.76046,131.21118 C 610.11136,131.28181 603.66576,131.12118 588.40833,133.09481 C 573.23647,135.19893 566.98669,137.00202 557.76082,140.53759 L 553.74004,125.40487 z " />
    <path
       style="font-size:12px;fill:#e6141d;fill-opacity:0.996081;fill-rule:evenodd;stroke:#e6141d;stroke-width:0.43477588pt"
       id="path3705"
       d="M 561.80487,155.23751 C 561.66046,155.23751 566.56969,173.06478 566.56969,173.06478 C 575.62744,170.7785 584.82915,169.05766 594.03088,167.76143 C 603.23253,166.46521 613.01854,165.72665 621.93185,165.13754 L 620.35386,147.74997 C 610.95985,147.1841 600.25342,147.1841 590.57106,148.45664 C 580.88869,149.72961 571.48725,151.9849 561.80487,155.23751 z " />
    <path
       style="font-size:12px;fill:#ffffff;fill-rule:evenodd;stroke:#e5141d;stroke-width:1.73910344"
       id="path3707"
       d="M 518.57074,210.28769 L 781.44585,210.28769 L 781.44585,378.84966 C 774.7642,444.49531 711.67037,493.56515 654.01737,493.19091 C 591.78251,495.90611 522.96128,444.96343 517.998,378.28769 L 518.57074,210.28769 z " />
    <path
       style="font-size:12px;fill:#d61517;fill-rule:evenodd;stroke:#e5141d;stroke-width:1.66661668"
       id="path3709"
       d="M 524.0373,216.18608 L 775.95532,216.18608 L 775.95532,377.72257 C 769.552,440.63216 709.08823,487.65681 653.83815,487.29819 C 594.19751,489.9002 528.24486,441.08076 523.48843,377.18399 L 524.0373,216.18608 z " />
    <rect
       y="217.04602"
       x="574.77161"
       width="50.097061"
       style="font-size:12px;fill:#ffffff;fill-rule:evenodd;stroke-width:1pt"
       ry="0"
       id="rect3711"
       height="53.845951" />
    <path
       sodipodi:nodetypes="ccccc"
       style="font-size:12px;fill:#ffffff;fill-rule:evenodd;stroke:#ffffff;stroke-width:0.44570146pt"
       id="path3713"
       d="M 725.33645,378.86622 L 725.34897,432.11172 L 753.61768,432.2436 C 767.27004,411.79294 773.23461,391.78077 774.51858,378.87783 C 774.29721,378.87783 725.53167,378.85371 725.33645,378.86622 z " />
    <path
       sodipodi:nodetypes="ccccc"
       style="font-size:12px;fill:#ffffff;fill-rule:evenodd;stroke:#ffffff;stroke-width:0.44187398pt"
       id="path3715"
       d="M 675.24211,432.68211 L 675.24977,483.80863 C 696.96764,479.43892 714.74455,468.59626 724.87085,461.2831 L 724.78696,432.66145 L 675.24211,432.68211 z " />
    <path
       sodipodi:nodetypes="ccccc"
       style="font-size:12px;fill:#ffffff;fill-rule:evenodd;stroke:#ffffff;stroke-width:0.44196849pt"
       id="path3717"
       d="M 575.11955,432.67788 L 575.22383,461.23723 C 592.28986,473.28399 611.77991,480.59796 624.75991,483.30884 L 624.59252,432.69681 L 575.11955,432.67788 z " />
    <path
       sodipodi:nodetypes="ccccc"
       style="font-size:12px;fill:#ffffff;fill-rule:evenodd;stroke:#ffffff;stroke-width:0.44551415pt"
       id="path3719"
       d="M 524.94827,378.88523 C 526.53974,399.73421 535.91391,418.41257 545.276,431.4917 L 574.49255,432.10038 L 574.49791,378.86251 L 524.94827,378.88523 z " />
    <rect
       y="270.89209"
       x="524.67444"
       width="50.097061"
       style="font-size:12px;fill:#ffffff;fill-rule:evenodd;stroke-width:1pt"
       ry="0"
       id="rect1722"
       height="53.845951" />
    <rect
       y="270.89209"
       x="624.86884"
       width="50.097061"
       style="font-size:12px;fill:#ffffff;fill-rule:evenodd;stroke-width:1pt"
       ry="0"
       id="rect1724"
       height="53.845951" />
    <rect
       y="216.80077"
       x="674.96576"
       width="50.097061"
       style="font-size:12px;fill:#ffffff;fill-rule:evenodd;stroke-width:1pt"
       ry="0"
       id="rect1726"
       height="53.845951" />
    <rect
       y="270.89209"
       x="725.06305"
       width="50.097061"
       style="font-size:12px;fill:#ffffff;fill-rule:evenodd;stroke-width:1pt"
       ry="0"
       id="rect1728"
       height="53.845951" />
    <rect
       y="324.7381"
       x="574.77161"
       width="50.097061"
       style="font-size:12px;fill:#ffffff;fill-rule:evenodd;stroke-width:1pt"
       ry="0"
       id="rect1730"
       height="53.845951" />
    <rect
       y="324.7381"
       x="674.96576"
       width="50.097061"
       style="font-size:12px;fill:#ffffff;fill-rule:evenodd;stroke-width:1pt"
       ry="0"
       id="rect1732"
       height="53.845951" />
    <rect
       y="378.58414"
       x="624.86884"
       width="50.097061"
       style="font-size:12px;fill:#ffffff;fill-rule:evenodd;stroke-width:1pt"
       ry="0"
       id="rect1734"
       height="53.845951" />
  </g>
</svg>
