<?xml version="1.0" encoding="UTF-8" standalone="no"?>
<svg xmlns:dc="http://purl.org/dc/elements/1.1/" xmlns:cc="http://web.resource.org/cc/" xmlns:rdf="http://www.w3.org/1999/02/22-rdf-syntax-ns#" xmlns:svg="http://www.w3.org/2000/svg" xmlns="http://www.w3.org/2000/svg" width="600" height="300" id="svg5778" version="1.0">
  <defs id="defs5780"/>
  <sodipodi:namedview id="base" pagecolor="#ffffff" bordercolor="#666666" borderopacity="1.0"/>
  
  <g id="layer1">
    <rect width="600.00006" height="300.00003" x="0" y="2.3706079e-006" fill="#008000" fill-opacity="1" fill-rule="evenodd" stroke="none" stroke-width="1" stroke-linecap="butt" stroke-linejoin="miter" stroke-miterlimit="4" stroke-dasharray="none" stroke-dashoffset="0" stroke-opacity="1"/>
    <path d="M 119.53083 62.039097 A 46.12331 46.12331 0 1 1  27.28,62.03 A 46.12331 46.12331 0 1 1  119.53083 62.039097 z" transform="matrix(1.415289,0,0,1.415289,-1.115035,-0.303262)" fill="#ffe000" fill-opacity="1" fill-rule="evenodd" stroke="none" stroke-width="0.25" stroke-linecap="butt" stroke-linejoin="miter" stroke-miterlimit="4" stroke-dasharray="none" stroke-dashoffset="0" stroke-opacity="1"/>
    <path d="M 98.45,136.8 L 114.8,136.8 C 114.8,136.8 115.5,135.3 114.6,134.6 C 113.7,133.8 110.2,133.7 111.1,131.0 C 113.1,125.6 113.3,127.2 114.6,114.3 C 115.8,101.4 116.4,81.10 116.4,81.10 L 114.0,81.10 C 114.0,81.10 114.5,87.41 113.1,95.63 C 111.8,103.8 111.4,104.5 109.9,110.8 C 108.4,117.2 108.1,117.7 106.8,121.4 C 105.4,125.1 105.3,125.2 103.1,128.6 C 101.0,132.1 101.8,130.8 100.6,132.8 C 100.0,133.8 99.32,133.6 98.92,134.3 C 98.52,135.1 98.45,136.8 98.45,136.8 z " fill="#802000" fill-opacity="1" fill-rule="evenodd" stroke="#7b3100" stroke-width="1.388" stroke-linecap="butt" stroke-linejoin="miter" stroke-miterlimit="4" stroke-dasharray="none" stroke-opacity="1"/>
    <g transform="matrix(5,0,0,5,0,-1.481079e-5)" font-size="12px" fill="#ffe000" fill-opacity="1" stroke="none" stroke-opacity="1">
      <polygon points="90,45.7143 90.82,48.28 93.35,47.32 91.85,49.57 94.17,50.95 91.48,51.18 91.85,53.86 90,51.9048 88.14,53.86 88.51,51.18 85.82,50.95 88.14,49.57 86.64,47.32 89.17,48.28 90,45.7143 " fill="#ffe000" fill-opacity="1" fill-rule="evenodd" stroke="none" stroke-width="1pt" stroke-opacity="1"/>
      <polygon points="90,5.71429 90.82,8.283 93.35,7.327 91.85,9.576 94.17,10.95 91.48,11.18 91.85,13.86 90,11.9048 88.14,13.86 88.51,11.18 85.82,10.95 88.14,9.576 86.64,7.327 89.17,8.283 90,5.71429 " fill="#ffe000" fill-opacity="1" fill-rule="evenodd" stroke="none" stroke-width="1pt" stroke-opacity="1"/>
      <polygon points="75,21.9643 75.82,24.53 78.35,23.57 76.85,25.82 79.17,27.20 76.48,27.43 76.85,30.11 75,28.1548 73.14,30.11 73.51,27.43 70.82,27.20 73.14,25.82 71.64,23.57 74.17,24.53 75,21.9643 " fill="#ffe000" fill-opacity="1" fill-rule="evenodd" stroke="none" stroke-width="1pt" stroke-opacity="1"/>
      <polygon points="103.333,17.9643 104.1,20.53 106.6,19.57 105.1,21.82 107.5,23.20 104.8,23.43 105.1,26.11 103.3,24.15 101.4,26.11 101.8,23.43 99.15,23.20 101.4,21.82 99.98,19.57 102.5,20.53 103.3,17.96 " fill="#ffe000" fill-opacity="1" fill-rule="evenodd" stroke="none" stroke-width="1pt" stroke-opacity="1"/>
      <polygon points="96,30 96.65,31.60 98.37,31.72 97.05,32.84 97.46,34.52 96,33.6111 94.53,34.52 94.94,32.84 93.62,31.72 95.34,31.60 96,30 " fill="#ffe000" fill-opacity="1" fill-rule="evenodd" stroke="none" stroke-width="1pt" stroke-opacity="1"/>
    </g>
    <path d="M 300.0,87.50 C 265.5,87.50 237.50002,115.5 237.5,150.0 C 237.5,184.5 265.4,212.5 300.0,212.5 C 316.1,212.5 330.7,206.1 341.8,196.0 C 341.0,196.4 340.3,197.0 339.4,197.3 C 336.4,198.6 333.2,199.7 329.8,200.3 C 326.5,201.0 323.0,201.4 319.4,201.4 C 315.9,201.4 312.4,201.0 309.1,200.3 C 305.7,199.7 302.5,198.6 299.4,197.3 C 296.4,196.0 293.4,194.4 290.7,192.6 C 288.0,190.7 285.4,188.6 283.1,186.3 C 280.7,184.0 278.6,181.4 276.8,178.7 C 274.9,175.9 273.3,173.0 272.0,170.0 C 270.7,166.9 269.7,163.7 269.0,160.3 C 268.4,157.0 268.0,153.5 268.0,150.0 C 268.0,146.4 268.4,142.9 269.0,139.6 C 269.7,136.2 270.7,133.0 272.0,129.9 C 273.3,126.9 274.9,124.0 276.8,121.2 C 278.6,118.5 280.7,115.9 283.1,113.6 C 285.4,111.3 288.0,109.2 290.7,107.3 C 293.4,105.5 296.4,103.9 299.4,102.6 C 302.5,101.3 305.7,100.2 309.1,99.60 C 312.4,98.92 315.9,98.56 319.4,98.56 C 323.0,98.56 326.5,98.92 329.8,99.60 C 333.2,100.2 336.4,101.3 339.4,102.6 C 340.3,102.9 341.0,103.5 341.8,103.9 C 330.7,93.81 316.1,87.50 300.0,87.50 z " fill="#ffe000" fill-opacity="1" fill-rule="evenodd" stroke="none" stroke-width="0.5" stroke-linecap="butt" stroke-linejoin="miter" stroke-miterlimit="4" stroke-dasharray="none" stroke-dashoffset="0" stroke-opacity="1"/>
    <path d="M 110.9,39.80 C 111.0,42.33 110.8,45.70 109.7,48.43 C 108.6,51.48 107.5,54.52 107.5,57.68 C 105.8,58.25 104.1,54.01 102.5,56.51 C 103.7,59.96 106.5,62.69 108.5,65.80 C 108.8,66.77 111.6,69.29 110.0,69.87 C 105.9,68.48 104.9,63.31 102.4,60.17 C 99.48,54.88 94.00,51.15 87.90,50.89 C 85.60,50.95 78.15,50.32 80.09,54.25 C 82.95,56.19 86.47,57.46 89.29,59.64 C 91.39,59.84 95.20,63.35 94.98,64.67 C 91.28,63.17 89.55,61.38 85.57,59.80 C 80.17,57.72 72.71,58.97 69.72,64.33 C 69.16,65.72 68.34,69.79 70.09,70.18 C 72.14,66.98 75.06,63.41 79.40,64.37 C 82.81,64.63 75.60,70.72 78.36,69.49 C 79.23,69.10 81.25,67.78 82.65,67.64 C 84.05,67.50 84.83,68.55 85.89,68.70 C 88.02,68.99 88.60,69.88 88.41,70.39 C 88.17,71.01 87.50,70.48 85.34,71.17 C 84.26,71.51 83.70,72.46 82.44,72.89 C 81.18,73.33 78.56,73.36 77.58,72.97 C 74.15,71.49 68.54,71.75 67.47,76.04 C 67.47,77.93 65.79,75.83 65.01,76.64 C 64.43,78.70 64.28,80.82 61.22,80.63 C 59.37,82.58 57.47,84.59 55.12,85.98 C 56.50,89.15 61.97,82.79 61.72,85.47 C 59.32,88.73 62.95,89.42 64.54,86.91 C 67.22,84.07 70.54,80.62 74.55,83.48 C 76.46,85.28 77.56,82.53 78.94,82.68 C 79.81,84.91 80.91,82.79 81.90,82.16 C 83.51,81.96 83.06,84.17 84.98,82.81 C 88.80,80.27 93.51,82.40 97.25,79.94 C 101.2,78.13 97.81,81.40 96.71,82.68 C 94.96,86.07 96.48,90.52 92.69,92.63 C 91.16,96.67 94.49,102.0 91.10,104.9 C 90.60,106.8 95.46,106.6 96.82,107.4 C 99.20,107.5 96.72,101.9 99.08,101.2 C 102.2,103.1 102.1,97.70 101.4,96.01 C 101.7,92.16 101.9,87.96 103.8,84.48 C 105.9,80.22 107.8,86.22 105.5,87.91 C 104.2,91.83 102.3,96.74 105.2,100.3 C 106.1,100.5 106.8,102.6 107.9,103.2 C 109.0,103.8 110.5,103.1 110.7,101.2 C 112.1,95.61 111.4,89.57 113.4,84.11 C 114.9,82.42 116.8,83.84 117.7,85.39 C 120.5,88.66 122.5,92.74 125.9,95.43 C 129.0,96.88 131.7,99.07 133.2,102.2 C 133.1,104.7 140.1,105.1 138.1,102.3 C 136.0,99.70 137.4,97.04 139.4,95.26 C 140.5,95.53 140.2,93.58 139.3,94.35 C 137.9,94.03 137.9,91.52 139.8,92.72 C 143.0,93.75 139.5,90.40 138.4,90.29 C 135.6,88.61 132.5,86.68 131.2,83.76 C 134.7,83.80 138.4,85.70 142.0,84.52 C 144.9,83.04 147.8,84.64 148.8,87.19 C 151.1,86.83 150.1,84.60 148.8,83.85 C 150.5,83.18 151.6,81.78 149.6,80.54 C 148.6,79.18 151.0,76.85 148.0,76.95 C 148.1,74.65 147.2,72.55 144.7,71.75 C 142.2,69.62 134.8,74.88 135.0,70.09 C 134.3,67.48 138.0,69.74 139.1,68.44 C 140.1,65.69 133.9,65.96 136.0,63.83 C 137.3,62.97 143.6,61.73 138.7,60.80 C 136.2,61.48 134.1,60.98 132.2,59.76 C 130.4,62.71 125.3,58.16 126.2,63.41 C 125.6,65.38 121.1,70.52 119.8,66.59 C 120.9,63.50 126.2,62.49 124.6,58.33 C 124.3,55.73 122.1,58.78 121.1,58.59 C 120.6,56.97 122.7,55.07 124.1,54.68 C 127.0,56.88 127.1,51.91 129.8,52.31 C 131.8,51.87 129.1,51.02 128.6,50.65 C 129.1,49.19 132.2,48.45 129.2,47.19 C 126.6,45.23 124.6,49.14 122.4,49.34 C 120.3,46.99 124.3,45.85 125.4,44.61 C 125.5,43.69 123.1,44.33 123.8,43.53 C 124.4,42.42 128.7,42.33 126.7,40.66 C 123.7,39.64 119.9,39.90 117.0,41.22 C 115.2,41.80 114.7,45.87 113.1,45.70 C 112.4,43.89 113.4,40.32 110.9,39.80 z M 125.0,79.51 C 127.2,79.13 125.0,82.95 123.9,82.89 C 124.0,81.52 120.6,81.65 122.7,80.45 C 123.4,80.02 124.2,79.68 125.0,79.51 z " fill="#008000" fill-opacity="1" fill-rule="evenodd" stroke="none" stroke-width="0.25" stroke-linecap="butt" stroke-linejoin="miter" stroke-miterlimit="4" stroke-dasharray="none" stroke-opacity="1"/>
  </g>
</svg>
