<?xml version="1.0" encoding="UTF-8" standalone="no"?>
<!-- Created with Sodipodi ("http://www.sodipodi.com/") -->
<svg
   xmlns:dc="http://purl.org/dc/elements/1.1/"
   xmlns:cc="http://web.resource.org/cc/"
   xmlns:rdf="http://www.w3.org/1999/02/22-rdf-syntax-ns#"
   xmlns:svg="http://www.w3.org/2000/svg"
   xmlns="http://www.w3.org/2000/svg"
   xmlns:xlink="http://www.w3.org/1999/xlink"
   height="500"
   id="svg1"
   width="1000">
  <defs
     id="defs3">
    <linearGradient
       id="linearGradient1108">
      <stop
         id="stop1109"
         offset="0"
         style="stop-color:#000;stop-opacity:1;" />
      <stop
         id="stop1110"
         offset="1"
         style="stop-color:#fff;stop-opacity:1;" />
    </linearGradient>
    <linearGradient
       id="linearGradient1111"
       xlink:href="#linearGradient1108" />
    <linearGradient
       id="linearGradient1112"
       xlink:href="#linearGradient1108" />
    <linearGradient
       id="linearGradient1113"
       xlink:href="#linearGradient1108" />
    <linearGradient
       id="linearGradient1114"
       xlink:href="#linearGradient1108" />
    <linearGradient
       id="linearGradient1115"
       xlink:href="#linearGradient1108" />
    <linearGradient
       id="linearGradient1116"
       xlink:href="#linearGradient1108" />
    <linearGradient
       id="linearGradient1117"
       xlink:href="#linearGradient1108" />
    <linearGradient
       id="linearGradient1118"
       xlink:href="#linearGradient1108" />
    <linearGradient
       id="linearGradient1119"
       xlink:href="#linearGradient1108" />
    <linearGradient
       id="linearGradient1120"
       xlink:href="#linearGradient1108" />
    <linearGradient
       id="linearGradient1121"
       xlink:href="#linearGradient1108" />
    <linearGradient
       id="linearGradient1122"
       xlink:href="#linearGradient1108" />
    <linearGradient
       id="linearGradient1123"
       xlink:href="#linearGradient1108" />
    <linearGradient
       id="linearGradient1124"
       xlink:href="#linearGradient1108" />
    <linearGradient
       id="linearGradient1125"
       xlink:href="#linearGradient1108" />
    <linearGradient
       id="linearGradient1126"
       xlink:href="#linearGradient1108" />
    <linearGradient
       id="linearGradient1127"
       xlink:href="#linearGradient1108" />
    <linearGradient
       id="linearGradient1128"
       xlink:href="#linearGradient1108" />
    <linearGradient
       id="linearGradient1129"
       xlink:href="#linearGradient1108" />
    <linearGradient
       id="linearGradient1130"
       xlink:href="#linearGradient1108" />
    <linearGradient
       id="linearGradient1131"
       xlink:href="#linearGradient1108" />
    <linearGradient
       id="linearGradient1132"
       xlink:href="#linearGradient1108" />
    <linearGradient
       id="linearGradient1133"
       xlink:href="#linearGradient1108" />
    <linearGradient
       id="linearGradient1134"
       xlink:href="#linearGradient1108" />
    <linearGradient
       id="linearGradient1135"
       xlink:href="#linearGradient1108" />
    <linearGradient
       id="linearGradient1136"
       xlink:href="#linearGradient1108" />
    <linearGradient
       id="linearGradient1137"
       xlink:href="#linearGradient1108" />
    <linearGradient
       id="linearGradient1138"
       xlink:href="#linearGradient1108" />
    <linearGradient
       id="linearGradient1139"
       xlink:href="#linearGradient1108" />
    <linearGradient
       id="linearGradient1140"
       xlink:href="#linearGradient1108" />
    <linearGradient
       id="linearGradient1141"
       xlink:href="#linearGradient1108" />
    <linearGradient
       id="linearGradient1142"
       xlink:href="#linearGradient1108" />
    <linearGradient
       id="linearGradient1143"
       xlink:href="#linearGradient1108" />
    <linearGradient
       id="linearGradient1144"
       xlink:href="#linearGradient1108" />
    <linearGradient
       id="linearGradient1145"
       xlink:href="#linearGradient1108" />
    <linearGradient
       id="linearGradient1146"
       xlink:href="#linearGradient1108" />
    <linearGradient
       id="linearGradient1147"
       xlink:href="#linearGradient1108" />
    <linearGradient
       id="linearGradient1148"
       xlink:href="#linearGradient1108" />
    <linearGradient
       id="linearGradient1149"
       xlink:href="#linearGradient1108" />
    <linearGradient
       id="linearGradient1150"
       xlink:href="#linearGradient1108" />
    <linearGradient
       id="linearGradient1151"
       xlink:href="#linearGradient1108" />
    <linearGradient
       id="linearGradient1152"
       xlink:href="#linearGradient1108" />
    <linearGradient
       id="linearGradient1153"
       xlink:href="#linearGradient1108" />
    <linearGradient
       id="linearGradient1154"
       xlink:href="#linearGradient1108" />
    <linearGradient
       id="linearGradient1155"
       xlink:href="#linearGradient1108" />
    <linearGradient
       id="linearGradient1156"
       xlink:href="#linearGradient1108" />
    <linearGradient
       id="linearGradient1157"
       xlink:href="#linearGradient1108" />
    <linearGradient
       id="linearGradient1158"
       xlink:href="#linearGradient1108" />
    <linearGradient
       id="linearGradient1159"
       xlink:href="#linearGradient1108" />
    <linearGradient
       id="linearGradient1160"
       xlink:href="#linearGradient1108" />
    <linearGradient
       id="linearGradient1161"
       xlink:href="#linearGradient1108" />
    <linearGradient
       id="linearGradient1162"
       xlink:href="#linearGradient1108" />
    <linearGradient
       id="linearGradient1163"
       xlink:href="#linearGradient1108" />
    <linearGradient
       id="linearGradient1164"
       xlink:href="#linearGradient1108" />
    <linearGradient
       id="linearGradient1165"
       xlink:href="#linearGradient1108" />
    <linearGradient
       id="linearGradient1166"
       xlink:href="#linearGradient1108" />
    <linearGradient
       id="linearGradient1167"
       xlink:href="#linearGradient1108" />
    <linearGradient
       id="linearGradient1168"
       xlink:href="#linearGradient1108" />
    <linearGradient
       id="linearGradient1169"
       xlink:href="#linearGradient1108" />
    <linearGradient
       id="linearGradient1170"
       xlink:href="#linearGradient1108" />
    <linearGradient
       id="linearGradient1171"
       xlink:href="#linearGradient1108" />
    <linearGradient
       id="linearGradient1172"
       xlink:href="#linearGradient1108" />
  </defs>
  <sodipodi:namedview
     id="base"
     showgrid="false"
     showguides="true" />
  <metadata
     id="metadata2830">
    <rdf:RDF>
      <cc:Work
         rdf:about="">
        <dc:title>Australia - New South Wales</dc:title>
        <dc:description />
        <dc:subject>
          <rdf:Bag>
            <rdf:li>oceania</rdf:li>
            <rdf:li>flags</rdf:li>
            <rdf:li>sign</rdf:li>
            <rdf:li>signs_and_symbols</rdf:li>
            <rdf:li />
            <rdf:li>australia</rdf:li>
          </rdf:Bag>
        </dc:subject>
        <dc:publisher>
          <cc:Agent
             rdf:about="http://www.openclipart.org">
            <dc:title>Caleb Moore</dc:title>
          </cc:Agent>
        </dc:publisher>
        <dc:creator>
          <cc:Agent
             rdf:about="">
            <dc:title>Caleb Moore</dc:title>
          </cc:Agent>
        </dc:creator>
        <dc:rights>
          <cc:Agent
             rdf:about="">
            <dc:title>Caleb Moore</dc:title>
          </cc:Agent>
        </dc:rights>
        <dc:date />
        <dc:format>image/svg+xml</dc:format>
        <dc:type
           rdf:resource="http://purl.org/dc/dcmitype/StillImage" />
        <cc:license
           rdf:resource="http://web.resource.org/cc/PublicDomain">
          <dc:date />
        </cc:license>
        <dc:language>en</dc:language>
      </cc:Work>
      <cc:License
         rdf:about="http://web.resource.org/cc/PublicDomain">
        <cc:permits
           rdf:resource="http://web.resource.org/cc/Reproduction" />
        <cc:permits
           rdf:resource="http://web.resource.org/cc/Distribution" />
        <cc:permits
           rdf:resource="http://web.resource.org/cc/DerivativeWorks" />
      </cc:License>
    </rdf:RDF>
  </metadata>
  <rect
     y="0"
     x="0"
     width="999.99994"
     style="font-size:12px;fill:#000066;stroke-width:1pt"
     id="rect124"
     height="499.99997" />
  <g
     transform="scale(8.333333,8.333333)"
     style="font-size:12px"
     id="g584">
    <path
       style="font-size:12px;fill:#ffffff;stroke-width:1pt"
       id="path146"
       d="M 0,0 L 0,3.3541 L 53.2918,30 L 60,30 L 60,26.6459 L 6.7082,0 L 0,0 z M 60,0 L 60,3.35405 L 6.7082,30 L 0,30 L 0,26.6458 L 53.2918,0 L 60,0 z " />
    <path
       style="font-size:12px;fill:#ffffff;stroke-width:1pt"
       id="path136"
       d="M 25,0 L 25,30 L 35,30 L 35,0 L 25,0 z M 0,10 L 0,20 L 60,20 L 60,10 L 0,10 z " />
    <path
       style="font-size:12px;fill:#cc0000;stroke-width:1pt"
       id="path141"
       d="M 0,12 L 0,18 L 60,18 L 60,12 L 0,12 z M 27,0 L 27,30 L 33,30 L 33,0 L 27,0 z " />
    <path
       style="font-size:12px;fill:#cc0000;stroke-width:1pt"
       id="path150"
       d="M 0,30 L 20,20 L 24.4721,20 L 4.47214,30 L 0,30 z M 0,0 L 20,10 L 15.5279,10 L 0,2.23607 L 0,0 z M 35.5279,10 L 55.5279,0 L 60,0 L 40,10 L 35.5279,10 z M 60,30 L 40,20 L 44.4721,20 L 60,27.7639 L 60,30 z " />
  </g>
  <g
     id="g2131"
     transform="matrix(1.461856,0,0,1.393699,16.13691,-118.1066)">
    <path
       style="fill:#cccc33;stroke:none"
       id="path2149"
       d="M 433.9,176.8 C 433.9,265.8 440.7,297.4 463.9,321.8 C 487.1,346.2 495.9,350.0 502.4,353.8 C 509.8,349.4 518.4,344.7 539.5,322.6 C 560.3,300.8 570.4,269.3 570.4,175.3 C 555.2,182.1 547.7,184.3 534.4,184.3 C 524.6,185.3 509.5,178.7 500.5,174.4 C 494.6,178.3 486.0,183.0 470.6,183.6 C 452.8,184.4 447.1,181.3 433.9,176.8 z " />
    <path
       style="fill:#ffffff;stroke:none"
       id="path2197"
       d="M 438.0,182.4 C 438.0,209.9 436.4,247.5 442.0,269.2 C 447.5,291.0 448.8,294.2 453.0,301.8 L 550.6,301.0 C 556.6,290.1 556.9,283.3 561.4,265.8 C 565.9,248.3 567.0,209.5 567.1,180.5 C 557.3,185.7 544.5,189.4 532.0,187.8 C 522.0,187.0 512.7,184.8 502.0,178.7 C 492.6,184.3 489.4,186.8 474.0,187.5 C 462.0,188.1 452.3,189.0 438.0,182.4 z " />
    <path
       style="fill:#99ccff;stroke:none;fill-opacity:1"
       id="path3329"
       d="M 453.2,301.2 C 460.2,315.8 492.9,343.8 502.5,349.6 C 513.4,343.0 542.3,315.3 550.4,301.2 L 453.2,301.2 z " />
    <g
       transform="matrix(2,0,0,2,-37.58607,49.22741)"
       id="g3625">
      <path
         style="font-size:12px;fill:#ff9900;fill-opacity:1"
         id="path3627"
         d="M 271,87 C 272.5,90.62 277.4,94.63 278.8,96.60 C 277.1,98.56 276.7,98.35 277,102 C 280.0,98.85 280.0,98.52 282,99 C 286.2,103.2 282.7,112.3 279.2,114.2 C 275.7,116.4 276.3,114.2 271.1,116.8 C 273.5,118.9 276.3,116.5 278.6,117.1 C 279.8,118.6 278.0,121.3 278.9,123.8 C 281.0,123.6 280.7,119.6 281.2,118.1 C 282.7,112.726 291.5,108.9 292,104 C 293.8,103.1 295.7,103.7 298,105 C 296.8,100.3 293.1,100.4 292.1,98.95 C 289.7,95.31 287.6,91.15 282.5,90.07 C 278.6,89.25 278.9,90.32 276.4,88.63 C 274.9,87.42 270.2,85.15 271,87 z " />
      <path
         transform="translate(15.07813,-30.97657)"
         style="fill:#ffffff;fill-opacity:1;fill-rule:evenodd;stroke:none;stroke-width:1pt;stroke-linecap:butt;stroke-linejoin:miter;stroke-opacity:1"
         id="path3629"
         d="M 267.04489 122.10443 A 0.805969 0.805969 0 1 1  265.4,122.1 A 0.805969 0.805969 0 1 1  267.04489 122.10443 z" />
    </g>
    <g
       transform="matrix(-0.934314,-1.768338,1.768338,-0.934314,579.0375,814.5258)"
       id="g3631">
      <path
         style="font-size:12px;fill:#ff9900"
         id="path3633"
         d="M 271,87 C 272.5,90.62 277.4,94.63 278.8,96.60 C 277.1,98.56 276.7,98.35 277,102 C 280.0,98.85 280.0,98.52 282,99 C 286.2,103.2 282.7,112.3 279.2,114.2 C 275.7,116.4 276.3,114.2 271.1,116.8 C 273.5,118.9 276.3,116.5 278.6,117.1 C 279.8,118.6 278.0,121.3 278.9,123.8 C 281.0,123.6 280.7,119.6 281.2,118.1 C 282.7,112.726 291.5,108.9 292,104 C 293.8,103.1 295.7,103.7 298,105 C 296.8,100.3 293.1,100.4 292.1,98.95 C 289.7,95.31 287.6,91.15 282.5,90.07 C 278.6,89.25 278.9,90.32 276.4,88.63 C 274.9,87.42 270.2,85.15 271,87 z " />
      <path
         transform="translate(15.07813,-30.97657)"
         style="fill:#ffffff;fill-opacity:1;fill-rule:evenodd;stroke:none;stroke-width:1pt;stroke-linecap:butt;stroke-linejoin:miter;stroke-opacity:1"
         id="path3635"
         d="M 267.04489 122.10443 A 0.805969 0.805969 0 1 1  265.4,122.1 A 0.805969 0.805969 0 1 1  267.04489 122.10443 z" />
    </g>
    <g
       transform="matrix(-1.030072,1.714332,-1.714332,-1.030072,948.4105,-116.6442)"
       id="g3637">
      <path
         style="font-size:12px;fill:#ff9900"
         id="path3639"
         d="M 271,87 C 272.5,90.62 277.4,94.63 278.8,96.60 C 277.1,98.56 276.7,98.35 277,102 C 280.0,98.85 280.0,98.52 282,99 C 286.2,103.2 282.7,112.3 279.2,114.2 C 275.7,116.4 276.3,114.2 271.1,116.8 C 273.5,118.9 276.3,116.5 278.6,117.1 C 279.8,118.6 278.0,121.3 278.9,123.8 C 281.0,123.6 280.7,119.6 281.2,118.1 C 282.7,112.726 291.5,108.9 292,104 C 293.8,103.1 295.7,103.7 298,105 C 296.8,100.3 293.1,100.4 292.1,98.95 C 289.7,95.31 287.6,91.15 282.5,90.07 C 278.6,89.25 278.9,90.32 276.4,88.63 C 274.9,87.42 270.2,85.15 271,87 z " />
      <path
         transform="translate(15.07813,-30.97657)"
         style="fill:#ffffff;fill-opacity:1;fill-rule:evenodd;stroke:none;stroke-width:1pt;stroke-linecap:butt;stroke-linejoin:miter;stroke-opacity:1"
         id="path3641"
         d="M 267.04489 122.10443 A 0.805969 0.805969 0 1 1  265.4,122.1 A 0.805969 0.805969 0 1 1  267.04489 122.10443 z" />
    </g>
  </g>
</svg>
