<?xml version="1.0" encoding="UTF-8" standalone="no"?>
<!-- Created with Sodipodi ("http://www.sodipodi.com/") -->
<!--



-->
<svg
   xmlns:dc="http://purl.org/dc/elements/1.1/"
   xmlns:cc="http://web.resource.org/cc/"
   xmlns:rdf="http://www.w3.org/1999/02/22-rdf-syntax-ns#"
   xmlns:svg="http://www.w3.org/2000/svg"
   xmlns="http://www.w3.org/2000/svg"
   xmlns:sodipodi="http://inkscape.sourceforge.net/DTD/sodipodi-0.dtd"
   xmlns:inkscape="http://www.inkscape.org/namespaces/inkscape"
   height="500"
   id="svg678"
   sodipodi:docbase="D:\Kuvat\Wikipedia"
   sodipodi:docname="Flag_of_Eritrea.svg"
   sodipodi:version="0.32"
   width="1000"
   inkscape:version="0.43"
   version="1.0">
  <metadata
     id="metadata1778">
    <rdf:RDF>
      <cc:Work
         rdf:about="">
        <dc:title> eritrea</dc:title>
        <dc:description />
        <dc:subject>
          <rdf:Bag>
            <rdf:li />
            <rdf:li>united_nations_member</rdf:li>
            <rdf:li>flag</rdf:li>
            <rdf:li>africa</rdf:li>
            <rdf:li>sign</rdf:li>
          </rdf:Bag>
        </dc:subject>
        <dc:publisher>
          <cc:Agent
             rdf:about="http://www.openclipart.org">
            <dc:title> Andrew Duhan</dc:title>
          </cc:Agent>
        </dc:publisher>
        <dc:creator>
          <cc:Agent>
            <dc:title>Andrew Duhan</dc:title>
          </cc:Agent>
        </dc:creator>
        <dc:rights>
          <cc:Agent>
            <dc:title> Andrew Duhan</dc:title>
          </cc:Agent>
        </dc:rights>
        <dc:date />
        <dc:format>image/svg+xml</dc:format>
        <dc:type
           rdf:resource="http://purl.org/dc/dcmitype/StillImage" />
        <cc:license
           rdf:resource="http://web.resource.org/cc/PublicDomain" />
        <dc:language>en</dc:language>
      </cc:Work>
      <cc:License
         rdf:about="http://web.resource.org/cc/PublicDomain">
        <cc:permits
           rdf:resource="http://web.resource.org/cc/Reproduction" />
        <cc:permits
           rdf:resource="http://web.resource.org/cc/Distribution" />
        <cc:permits
           rdf:resource="http://web.resource.org/cc/DerivativeWorks" />
      </cc:License>
    </rdf:RDF>
  </metadata>
  <defs
     id="defs680" />
  <sodipodi:namedview
     id="base"
     inkscape:zoom="1.9024"
     inkscape:cx="896.62565"
     inkscape:cy="315.5225"
     inkscape:window-width="1280"
     inkscape:window-height="968"
     inkscape:window-x="-4"
     inkscape:window-y="-4"
     inkscape:current-layer="svg678" />
  <rect
     height="500"
     id="rect686"
     style="font-size:12px;fill:#ea0437;fill-opacity:1;fill-rule:evenodd;stroke-width:1pt"
     width="1000"
     x="0"
     y="0" />
  <path
     d="M 230.24958,369.16163 C 219.43939,372.1465 213.24179,380.53339 213.4005,388.44622 L 266.61117,388.23259 C 267.08931,379.72971 260.09411,371.86571 249.44466,368.76894 C 301.54235,367.69261 346.80154,348.1781 355.02566,335.65674 C 346.88699,332.12456 337.47666,337.80942 330.76835,336.50112 C 346.69573,329.1397 394.41483,298.25342 386.65664,265.14122 C 380.62587,283.53259 362.35658,298.74987 354.57602,302.83549 C 372.40174,275.76829 396.7425,247.58813 375.62466,225.7663 C 376.69083,238.41379 367.58771,252.33298 363.56722,253.37878 C 373.90739,224.77949 383.7735,188.87165 361.36978,165.2003 C 364.3119,173.75608 363.12365,197.89133 359.07262,198.97581 C 357.82538,179.52845 354.50683,138.62345 334.02586,139.20537 C 340.53069,144.99604 343.37718,160.80134 343.52165,176.76536 C 338.85413,165.82901 333.54974,157.59471 322.20443,149.51911 C 313.02603,131.91719 296.69578,117.33268 280.36349,106.88465 C 282.19672,119.69696 283.71459,129.8052 301.60339,143.09362 C 292.27648,142.51374 282.95158,124.83247 272.98374,124.34211 C 265.05464,123.95959 258.83262,131.52653 245.87586,127.17234 C 247.31029,131.44921 253.3553,133.34349 254.63102,136.5074 C 251.85574,138.42406 245.26749,136.2083 239.79016,133.3557 C 247.32453,143.61857 258.99946,149.65339 268.91034,147.61669 C 280.69717,145.35007 293.33451,146.54849 305.38789,153.40736 C 302.30942,154.9883 290.32726,154.97812 282.63826,154.01573 C 289.62734,161.0923 294.31522,165.78222 306.46829,165.7049 C 317.32325,165.63368 323.01422,159.91423 325.80171,163.45659 C 332.60973,171.52405 337.19179,179.58744 342.88683,189.08528 C 330.30648,190.47496 334.0991,174.85685 320.08837,166.86874 C 312.21624,183.16237 329.14264,202.47747 340.66498,210.50627 C 340.81962,222.75294 342.61013,232.99955 347.80462,242.32443 C 351.30629,248.89845 355.83344,255.6271 354.12635,270.4639 C 347.22882,265.4403 340.48797,248.49762 342.96822,235.04846 C 334.33512,237.40258 330.9596,252.58323 335.02894,260.22546 C 338.06874,266.04258 340.0973,277.17629 336.59157,282.15309 C 333.17536,286.7901 332.81726,286.27125 332.86202,296.22282 C 332.9841,302.17829 329.65742,309.22029 324.23909,314.12994 C 325.37037,309.93445 326.66035,302.71544 325.40699,298.20254 C 321.12402,305.46835 310.37893,312.98645 306.99528,320.79755 C 303.67266,328.62696 302.8303,342.18803 286.75032,345.31531 C 266.06384,349.42128 258.92418,353.00637 245.61338,358.45317 C 244.13621,348.3429 248.55754,327.25966 257.0116,328.46214 C 265.26624,329.93118 290.29267,319.83922 281.34013,298.75598 C 279.572,305.40122 273.6735,311.8857 267.29685,312.17259 C 274.18624,303.23429 286.48174,293.97858 280.49371,279.00138 C 277.16499,285.36786 271.92979,293.00805 263.99051,297.3073 C 272.50152,280.99739 264.97936,276.11826 254.87315,289.55114 C 251.05611,294.73344 248.75083,305.11838 246.3255,318.30712 C 242.35587,307.58034 242.61834,293.45974 237.91419,281.99438 C 233.00046,269.5951 244.4353,266.32133 249.81701,267.31627 C 262.99352,270.83422 285.01474,270.83218 283.37886,249.06326 C 277.6879,256.42672 267.70784,258.70149 256.93021,256.0503 C 269.03445,247.21171 278.5913,230.58643 265.10347,221.90653 C 264.65381,231.11138 257.53043,241.43122 248.02038,246.18421 C 245.79446,238.41787 245.79446,230.17542 247.70298,221.13946 C 242.3925,226.72869 238.51442,238.35886 235.42986,251.58014 C 235.1979,238.51146 237.67003,229.09501 239.50326,222.06523 C 242.28262,211.79626 249.19032,218.47811 259.7645,219.23501 C 269.94802,219.81285 283.96893,214.18496 281.28926,200.37566 C 277.81202,205.83875 270.6744,207.96498 263.38214,207.38714 C 272.16174,202.06851 287.45838,192.61747 279.06944,178.07976 C 275.54539,183.58557 274.40394,188.29582 264.20414,189.98461 C 266.87566,183.8399 267.31923,175.15187 275.23613,171.70922 C 261.11349,168.8973 253.02771,178.16522 248.91768,192.68054 C 247.25128,182.61707 245.26749,178.91194 244.87275,171.55051 C 252.50683,163.07203 253.30646,146.48542 236.77885,142.77621 C 235.79813,151.332 236.08909,153.37074 237.96912,160.33744 C 230.21093,155.72892 219.27662,153.18558 211.99658,159.70263 C 216.92861,165.02533 224.56269,169.71117 236.32918,163.90626 C 233.54982,172.99918 226.32064,171.44267 216.38739,167.97558 C 222.45885,179.3799 230.12141,181.40645 238.57749,180.09205 C 243.00493,191.76494 243.20026,200.63406 230.26179,217.63373 C 230.85998,207.06973 230.1092,199.19962 221.71619,190.65808 C 214.52363,183.61406 208.67803,190.95922 219.91754,206.62006 C 213.09936,201.5985 205.38187,191.40685 203.05827,181.21722 C 200.80997,193.80571 202.83446,208.64253 209.8032,216.96026 C 206.50704,220.48226 202.75917,216.58587 197.2147,207.96904 C 199.31245,235.54491 211.0769,240.86557 226.88832,234.71885 C 227.33798,249.85474 227.33798,263.86955 228.2373,282.15309 C 219.01822,268.8911 207.33107,258.99854 200.80997,256.52642 C 198.7875,263.94483 206.43176,273.6095 210.70253,279.00544 C 204.18344,277.65646 190.02011,266.86661 190.02011,266.86661 C 188.59584,279.15602 204.48458,290.5461 214.74949,295.6409 C 202.68592,295.11595 197.36323,290.5461 189.57045,283.0524 C 189.72102,317.14736 226.5119,311.22646 233.40739,305.98109 C 234.30672,322.7671 235.58856,342.17174 236.48789,358.95778 C 226.08666,357.14285 226.90459,354.01555 218.00494,353.19152 C 193.30406,352.22912 173.71021,323.54029 167.22165,302.4367 C 165.35992,305.90987 166.83709,309.54379 165.13408,313.8105 C 161.12374,303.452 156.00045,290.07405 149.12937,283.84797 C 150.87918,289.88686 151.06434,296.02342 150.45597,307.30973 C 148.09779,299.99714 145.90442,297.75493 145.74571,289.17066 C 145.89628,282.58037 152.10405,277.7175 151.7602,268.44755 C 151.50586,261.68024 145.33268,247.0123 144.42521,235.65682 C 141.43628,247.34397 139.56032,259.66389 134.98232,266.89917 C 137.25708,254.41851 136.52785,245.80576 140.37622,237.40664 C 144.82197,228.56397 148.60239,220.66946 145.64195,211.74539 C 142.80358,215.19213 143.78022,218.32347 136.64891,226.69818 C 135.09992,217.59099 145.86983,203.01462 156.32192,197.15478 C 163.69354,193.27059 172.98586,179.37787 166.93272,169.85563 C 160.00061,174.83446 156.88756,181.56107 147.0947,193.05493 C 154.07972,165.74966 172.22896,158.60594 193.9572,158.51235 C 198.76512,158.48996 208.45829,156.75439 211.17864,150.39198 C 205.05429,152.75627 197.8129,153.0574 191.3691,151.76742 C 196.05901,144.8821 205.9353,145.77735 215.1381,145.73666 C 222.3571,145.70207 233.62714,144.72339 238.18277,134.44221 C 229.37672,138.25721 215.6427,139.05074 206.99536,136.34869 C 220.74768,129.22328 242.28872,128.45621 253.33698,119.10487 C 240.74442,109.70674 209.23349,121.29418 189.33037,134.94477 C 194.89315,129.8581 203.68494,120.83434 208.5356,113.55023 C 197.65013,108.3313 170.12106,138.82896 160.63746,156.94972 C 151.62998,162.03638 148.02658,170.01026 144.52898,175.57509 C 149.32877,159.35673 149.83743,147.58821 153.84166,134.23264 C 122.96475,144.86175 135.79903,201.91184 129.08279,215.5604 C 129.87326,200.49163 129.23315,181.13379 123.02924,171.15171 C 113.51879,178.40734 112.75132,221.11098 121.68026,256.66275 C 118.45592,247.14864 112.37022,238.2673 110.41776,226.688 C 96.342322,252.35942 118.66895,282.64547 137.33846,306.5691 C 123.28337,299.24837 109.38658,283.50206 100.25824,270.30114 C 102.77778,316.24803 150.75914,325.7947 158.20806,337.0871 C 148.09779,332.38093 128.76925,323.06824 120.5675,332.82651 C 133.9194,335.90904 144.56968,339.47174 153.15191,345.0976 C 165.60408,360.64451 189.18386,367.44437 230.24958,369.16163 z "
     id="path687"
     sodipodi:nodetypes="cccccccccccccccccscccsccsccccsccscsccsscsccccscsscccccccsccccccccccccccccccccccccccccscccccsccsccsccsccscccccccccccccccccc"
     style="fill:#ffc726;fill-opacity:1;fill-rule:evenodd;stroke:none;stroke-width:1pt;stroke-linecap:butt;stroke-linejoin:miter;stroke-opacity:1" />
  <path
     d="M 2.5534057e-009,499.99986 L 1000,499.68666 L 999.9376,249.99986 L 2.5534057e-009,499.99986 z "
     id="path684"
     style="fill:#4189dd;fill-opacity:1;fill-rule:evenodd;stroke:none;stroke-width:1pt;stroke-linecap:butt;stroke-linejoin:miter;stroke-opacity:1" />
  <path
     d="M 2.5534057e-009,0.00033999558 L 999.9996,0.31354 L 999.9372,250.00023 L 2.5534057e-009,0.00033999558 z "
     id="path685"
     style="fill:#12ad2b;fill-opacity:1;fill-rule:evenodd;stroke:none;stroke-width:1pt;stroke-linecap:butt;stroke-linejoin:miter;stroke-opacity:1" />
</svg>
