<?xml version="1.0" encoding="UTF-8" standalone="no"?>
<!-- Created with Inkscape (http://www.inkscape.org/) -->
<svg
   xmlns:svg="http://www.w3.org/2000/svg"
   xmlns="http://www.w3.org/2000/svg"
   xmlns:xlink="http://www.w3.org/1999/xlink"
   version="1.0"
   width="1200"
   height="600"
   id="svg1579">
  <defs
     id="defs1594" />
  <rect
     width="1200"
     height="399.99902"
     x="-9.5072937e-005"
     y="0"
     style="fill:#ed1c24"
     id="rect1583" />
  <rect
     width="1200"
     height="199.99966"
     x="-9.5072937e-005"
     y="400.00034"
     style="fill:#00a651"
     id="rect1585" />
  <rect
     width="133.33359"
     height="599.99805"
     x="0.00025275443"
     y="0.00091552734"
     style="fill:#ffffff"
     id="rect1581" />
  <g
     transform="matrix(1.47058,0,0,-1.382478,-248.13,427.2197)"
     id="g2605">
    <path
       d="M 196.06308,-18.978121 L 196.06308,-8.9781309 L 192.06307,-8.9781309 L 192.06307,1.0218591 L 188.06305,1.0218591 L 188.06305,11.021849 L 184.06304,11.021849 L 184.06304,19.021839 L 184.06304,21.021839 L 180.06302,21.021839 L 180.06302,31.021829 L 184.06304,31.021829 L 184.06304,41.021819 L 188.06305,41.021819 L 188.06305,51.021809 L 192.06307,51.021809 L 192.06307,61.021799 L 196.06308,61.021799 L 196.06308,51.021809 L 200.0631,51.021809 L 200.0631,41.021819 L 204.06312,41.021819 L 204.06312,31.021829 L 200.0631,31.021829 L 200.0631,19.021839 L 204.06312,19.021839 L 204.06312,21.021839 L 204.06312,27.021829 L 208.06313,27.021829 L 208.06313,43.021819 L 210.06314,43.021819 L 210.09439,52.928059 L 204.06312,53.021809 L 204.06312,61.021799 L 200.0631,61.021799 L 200.0631,67.021799 L 196.06308,67.021799 L 196.06308,77.021789 L 192.06307,77.021789 L 192.06307,67.021799 L 188.06305,67.021799 L 188.06305,61.021799 L 184.06304,61.021799 L 184.06304,55.021809 L 180.06302,55.021809 L 180.06302,73.021789 L 184.06304,73.021789 L 184.06304,81.021779 L 188.06305,81.021779 L 188.06305,88.021769 L 192.06307,88.021769 L 192.06307,92.084269 L 196.06308,92.115519 L 196.06308,88.021769 L 200.0631,88.021769 L 200.0631,81.021779 L 204.06312,81.021779 L 204.06312,73.021789 L 210.06314,73.021789 L 210.06314,63.615549 L 212.06315,63.615549 L 212.06315,59.021799 L 214.06316,59.021799 L 216.06316,59.021799 L 216.06316,63.521799 L 218.06317,63.521799 L 218.06317,73.021789 L 224.0632,73.021789 L 224.0632,77.021789 L 224.0632,81.021779 L 228.06321,81.021779 L 228.06321,88.021769 L 232.06323,88.021769 L 232.06323,92.084269 L 236.06324,92.084269 L 236.06324,88.021769 L 240.06326,88.021769 L 240.06326,81.021779 L 244.06328,81.021779 L 244.06328,73.021789 L 248.06329,73.021789 L 248.06329,55.021809 L 244.06328,55.021809 L 244.06328,61.021799 L 240.06326,61.021799 L 240.06326,67.021799 L 236.06324,67.021799 L 236.06324,77.021789 L 232.06323,77.021789 L 232.06323,67.021799 L 228.06321,67.021799 L 228.06321,61.021799 L 224.0632,61.021799 L 224.0632,53.021809 L 222.06319,53.021809 L 220.59443,53.021809 L 219.53193,53.021809 L 218.06317,53.021809 L 218.06317,43.021819 L 219.53193,43.021819 L 220.06318,43.021819 L 220.06318,27.021829 L 224.0632,27.021829 L 224.0632,21.021839 L 224.0632,19.021839 L 228.06321,19.021839 L 228.06321,21.021839 L 228.06321,31.021829 L 224.0632,31.021829 L 224.0632,41.021819 L 228.06321,41.021819 L 228.06321,51.021809 L 232.06323,51.021809 L 232.06323,61.021799 L 236.06324,61.021799 L 236.06324,51.021809 L 240.06326,51.021809 L 240.06326,41.021819 L 244.06328,41.021819 L 244.06328,31.021829 L 248.06329,31.021829 L 248.06329,21.021839 L 244.06328,21.021839 L 244.06328,11.021849 L 240.06326,11.021849 L 240.06326,1.0218591 L 236.06324,1.0218591 L 236.06324,-8.9781309 L 232.06323,-8.9781309 L 232.06323,-18.978121 L 228.06321,-18.978121 L 228.06321,-8.9781309 L 224.0632,-8.9781309 L 224.0632,1.0218591 L 220.06318,1.0218591 L 220.06318,11.021849 L 216.06316,11.021849 L 216.06316,19.021839 L 216.06316,21.021839 L 212.06315,21.021839 L 212.06315,11.021849 L 208.06313,11.021849 L 208.06313,1.0218591 L 204.06312,1.0218591 L 204.06312,-8.9781309 L 200.0631,-8.9781309 L 200.0631,-18.978121 L 196.06308,-18.978121 z "
       style="fill:#ed1c24;fill-opacity:1"
       id="path9036" />
    <rect
       width="4.0000162"
       height="6.0383167"
       x="180.06302"
       y="86.021774"
       style="fill:#ed1c24;fill-opacity:1"
       id="rect2254" />
    <rect
       width="4.0000162"
       height="11.999988"
       x="180.06302"
       y="-116.97802"
       style="fill:#ed1c24;fill-opacity:1"
       id="rect13041" />
    <rect
       width="4.0000162"
       height="11.999988"
       x="244.06328"
       y="-116.97802"
       style="fill:#ed1c24;fill-opacity:1"
       id="rect13043" />
    <rect
       width="4.0000162"
       height="11.999988"
       x="212.06316"
       y="-116.97802"
       style="fill:#ed1c24;fill-opacity:1"
       id="rect14503" />
    <rect
       width="4.0000162"
       height="9.9999905"
       x="196.06308"
       y="-84.97805"
       style="fill:#ed1c24;fill-opacity:1"
       id="rect15338" />
    <rect
       width="4.0000162"
       height="9.9999905"
       x="228.06322"
       y="-84.97805"
       style="fill:#ed1c24;fill-opacity:1"
       id="rect15340" />
    <rect
       width="4.0000162"
       height="11.999988"
       x="180.06302"
       y="-58.978081"
       style="fill:#ed1c24;fill-opacity:1"
       id="rect15392" />
    <rect
       width="4.0000162"
       height="11.999988"
       x="244.06328"
       y="-58.978081"
       style="fill:#ed1c24;fill-opacity:1"
       id="rect15394" />
    <rect
       width="4.0000162"
       height="11.999988"
       x="212.06316"
       y="-58.978081"
       style="fill:#ed1c24;fill-opacity:1"
       id="rect1418" />
    <path
       d="M 196.06308,-124.97801 L 196.06308,-114.97802 L 192.06307,-114.97802 L 192.06307,-104.97803 L 188.06305,-104.97803 L 188.06305,-94.978044 L 184.06304,-94.978044 L 184.06304,-84.978054 L 180.06302,-84.978054 L 180.06302,-74.978064 L 184.06304,-74.978064 L 184.06304,-64.978074 L 188.06305,-64.978074 L 188.06305,-54.978084 L 192.06307,-54.978084 L 192.06307,-44.978094 L 196.06308,-44.978094 L 196.06308,-34.978104 L 200.0631,-34.978104 L 200.0631,-44.978094 L 204.06312,-44.978094 L 204.06312,-54.978084 L 208.06313,-54.978084 L 208.06313,-64.978074 L 212.06315,-64.978074 L 212.06315,-74.978064 L 216.06316,-74.978064 L 216.06316,-64.978074 L 220.06318,-64.978074 L 220.06318,-54.978084 L 224.0632,-54.978084 L 224.0632,-44.978094 L 228.06321,-44.978094 L 228.06321,-34.978104 L 232.06323,-34.978104 L 232.06323,-44.978094 L 236.06324,-44.978094 L 236.06324,-54.978084 L 240.06326,-54.978084 L 240.06326,-64.978074 L 244.06328,-64.978074 L 244.06328,-74.978064 L 248.06329,-74.978064 L 248.06329,-84.978054 L 244.06328,-84.978054 L 244.06328,-94.978044 L 240.06326,-94.978044 L 240.06326,-104.97803 L 236.06324,-104.97803 L 236.06324,-114.97802 L 232.06323,-114.97802 L 232.06323,-124.97801 L 228.06321,-124.97801 L 228.06321,-114.97802 L 224.0632,-114.97802 L 224.0632,-104.97803 L 220.06318,-104.97803 L 220.06318,-94.978044 L 216.06316,-94.978044 L 216.06316,-84.978054 L 212.06315,-84.978054 L 212.06315,-94.978044 L 208.06313,-94.978044 L 208.06313,-104.97803 L 204.06312,-104.97803 L 204.06312,-114.97802 L 200.0631,-114.97802 L 200.0631,-124.97801 L 196.06308,-124.97801 z M 196.06308,-104.97803 L 200.0631,-104.97803 L 200.0631,-94.978044 L 204.06312,-94.978044 L 204.06312,-84.978054 L 208.06313,-84.978054 L 208.06313,-74.978064 L 204.06312,-74.978064 L 204.06312,-64.978074 L 200.0631,-64.978074 L 200.0631,-54.978084 L 196.06308,-54.978084 L 196.06308,-64.978074 L 192.06307,-64.978074 L 192.06307,-74.978064 L 188.06305,-74.978064 L 188.06305,-84.978054 L 192.06307,-84.978054 L 192.06307,-94.978044 L 196.06308,-94.978044 L 196.06308,-104.97803 z M 228.06321,-104.97803 L 232.06323,-104.97803 L 232.06323,-94.978044 L 236.06324,-94.978044 L 236.06324,-84.978054 L 240.06326,-84.978054 L 240.06326,-74.978064 L 236.06324,-74.978064 L 236.06324,-64.978074 L 232.06323,-64.978074 L 232.06323,-54.978084 L 228.06321,-54.978084 L 228.06321,-64.978074 L 224.0632,-64.978074 L 224.0632,-74.978064 L 220.06318,-74.978064 L 220.06318,-84.978054 L 224.0632,-84.978054 L 224.0632,-94.978044 L 228.06321,-94.978044 L 228.06321,-104.97803 z "
       style="fill:#ed1c24;fill-opacity:1"
       id="rect15261" />
    <path
       d="M 184.06304,-42.978096 L 184.06304,-36.978102 L 182.06303,-36.978102 L 182.06303,-30.978108 L 180.06302,-30.978108 L 180.06302,-22.978111 L 182.06303,-22.978111 L 182.06303,-16.978121 L 184.06304,-16.978121 L 184.06304,-10.978131 L 190.06306,-10.978131 L 190.06306,-16.978121 L 192.06307,-16.978121 L 192.06307,-22.978111 L 194.06308,-22.978111 L 194.06308,-30.978108 L 192.06307,-30.978108 L 192.06307,-36.978102 L 190.06306,-36.978102 L 190.06306,-42.978096 L 184.06304,-42.978096 z M 186.06304,-32.978106 L 188.06305,-32.978106 L 188.06305,-28.97811 L 190.06306,-28.97811 L 190.06306,-24.978111 L 188.06305,-24.978111 L 188.06305,-20.978121 L 186.06304,-20.978121 L 186.06304,-24.978111 L 184.06304,-24.978111 L 184.06304,-28.97811 L 186.06304,-28.97811 L 186.06304,-32.978106 z "
       style="fill:#ed1c24;fill-opacity:1"
       id="rect2094" />
    <path
       d="M 206.06312,-42.978096 L 206.06312,-36.978102 L 204.06312,-36.978102 L 204.06312,-30.978108 L 202.06311,-30.978108 L 202.06311,-22.978111 L 204.06312,-22.978111 L 204.06312,-16.978121 L 206.06312,-16.978121 L 206.06312,-10.978131 L 212.06315,-10.978131 L 212.06315,-16.978121 L 216.06316,-16.978121 L 216.06316,-10.978131 L 222.06319,-10.978131 L 222.06319,-16.978121 L 224.0632,-16.978121 L 224.0632,-22.978111 L 226.0632,-22.978111 L 226.0632,-30.978108 L 224.0632,-30.978108 L 224.0632,-36.978102 L 222.06319,-36.978102 L 222.06319,-42.978096 L 216.06316,-42.978096 L 216.06316,-36.978102 L 212.06315,-36.978102 L 212.06315,-42.978096 L 206.06312,-42.978096 z M 208.06313,-32.978106 L 210.06314,-32.978106 L 210.06314,-28.97811 L 212.06315,-28.97811 L 212.06315,-24.978111 L 210.06314,-24.978111 L 210.06314,-20.978121 L 208.06313,-20.978121 L 208.06313,-24.978111 L 206.06312,-24.978111 L 206.06312,-28.97811 L 208.06313,-28.97811 L 208.06313,-32.978106 z M 218.06317,-32.978106 L 220.06318,-32.978106 L 220.06318,-28.97811 L 222.06319,-28.97811 L 222.06319,-24.978111 L 220.06318,-24.978111 L 220.06318,-20.978121 L 218.06317,-20.978121 L 218.06317,-24.978111 L 216.06316,-24.978111 L 216.06316,-28.97811 L 218.06317,-28.97811 L 218.06317,-32.978106 z "
       style="fill:#ed1c24;fill-opacity:1"
       id="path2124" />
    <rect
       width="4.0000162"
       height="11.999988"
       x="244.06328"
       y="-6.9781327"
       style="fill:#ed1c24;fill-opacity:1"
       id="rect2131" />
    <rect
       width="4.0000162"
       height="11.999988"
       x="212.06316"
       y="-6.9781327"
       style="fill:#ed1c24;fill-opacity:1"
       id="rect2133" />
    <rect
       width="4.0000162"
       height="11.999988"
       x="180.06302"
       y="-6.9781327"
       style="fill:#ed1c24;fill-opacity:1"
       id="rect2129" />
    <rect
       width="4.0000162"
       height="7.9999919"
       x="180.06302"
       y="43.02182"
       style="fill:#ed1c24;fill-opacity:1"
       id="rect2213" />
    <rect
       width="4.0000162"
       height="7.9999919"
       x="244.06328"
       y="43.02182"
       style="fill:#ed1c24;fill-opacity:1"
       id="rect2215" />
    <rect
       width="4.0000162"
       height="9.9999905"
       x="212.06316"
       y="71.02179"
       style="fill:#ed1c24;fill-opacity:1"
       id="rect2248" />
    <rect
       width="4.0000162"
       height="6.051744"
       x="244.06328"
       y="86.021774"
       style="fill:#ed1c24;fill-opacity:1"
       id="rect4240" />
    <rect
       width="4.0000162"
       height="6.051744"
       x="222.06319"
       y="86.021774"
       style="fill:#ed1c24;fill-opacity:1"
       id="rect4244" />
    <rect
       width="4.0000162"
       height="6.051744"
       x="202.06311"
       y="86.021774"
       style="fill:#ed1c24;fill-opacity:1"
       id="rect4249" />
    <path
       d="M 206.06312,79.021779 L 206.06312,85.021779 L 208.06313,85.021779 L 208.06313,88.021769 L 210.06314,88.021769 L 210.06314,92.084269 L 218.06317,92.084269 L 218.06317,88.021769 L 220.06318,88.021769 L 220.06318,85.021779 L 222.06319,85.021779 L 222.06319,79.021779 L 218.06317,79.021779 L 218.06317,83.021779 L 216.06316,83.021779 L 216.06316,86.021779 L 212.06315,86.021779 L 212.06315,83.021779 L 210.06314,83.021779 L 210.06314,79.021779 L 206.06312,79.021779 z "
       style="fill:#ed1c24;fill-opacity:1"
       id="rect4252" />
    <rect
       width="4.0000162"
       height="9.9999905"
       x="212.06316"
       y="71.02179"
       style="fill:#ed1c24;fill-opacity:1"
       id="rect5126" />
    <use
       transform="translate(53.94997,-4.478992e-2)"
       style="fill:#ed1c24;fill-opacity:1"
       id="use3731"
       x="0"
       y="0"
       width="868"
       height="434"
       xlink:href="#rect2094" />
  </g>
  <use
     transform="matrix(1,0,0,-0.999569,6.870044e-7,599.7408)"
     id="use2632"
     x="0"
     y="0"
     width="868"
     height="434"
     xlink:href="#g2605" />
</svg>
