<?xml version="1.0" encoding="UTF-8" standalone="no"?>
<svg xmlns:svg="http://www.w3.org/2000/svg" xmlns="http://www.w3.org/2000/svg" version="1.0" width="1200" height="600" viewBox="-15 -7.5 30 15" id="Flag_of_the_Pitcairn_Islands">
  <defs>
    <clipPath id="border">
      <rect x="-15" y="-7.5" width="30" height="15"/>
    </clipPath>
  </defs>
<rect fill="#00247D" x="-15" y="-7.5" width="30" height="15"/>
<comment>The above line is the ensign field color: #CF142B red and #00247D blue</comment>
<g id="canton" transform="matrix(0.5,0,0,0.5,-7.5,-3.75)">
  <g clip-path="url(#border)">
    <circle r="20" fill="#00247D"/>
    <path d="M -20,-10 L 20,10 M -20,10 L 20,-10" stroke-width="3" stroke="white" id="diags_white"/>
    <path d="M -20,-10 L 20,10 M -20,10 L 20,-10" stroke-width="2" stroke="#CF142B" id="diags_red"/>
    <path stroke="none" fill="white" d="M 0,0 l 20,10 h -3 l -20,-10 M 0,0 l 20,-10 h 3 l -20,10 M 0,0 l -20,10 h -3 l 20,-10 M 0,0 l -20,-10 h 3 l 20,10" id="eraser_white"/>
<comment>I think the above two lines give the simplest way to make the diagonals</comment>
    <path d="M -20,0 H 20 M 0,-10 V 10" stroke-width="5" stroke="white" id="cross_white"/>
    <path d="M -20,0 H 20 M 0,-10 V 10" stroke-width="3" stroke="#CF142B" id="cross_red"/>    </g>
  </g>
  <g transform="matrix(0.118269,0,0,0.118269,-18.38135,-8.683977)">
    <path d="M 197.8,77.26 C 195.1,79.56 192.5,82.90 191.9,85.92 C 190.1,94.44 187.7,96.33 184.1,94.50 C 184.1,99.07 188.1,99.42 189.8,96.75 C 189.8,101.0 191.4,104.7 194.9,107.9 C 196.4,109.2 196.7,108.3 196.0,106.8 C 195.3,105.4 195.3,100.6 193.8,97.88 C 196.1,99.49 199.4,98.58 199.1,94.15 C 196.2,95.84 193.4,95.77 193.1,91.76 C 192.7,87.05 194.6,80.21 197.8,77.26 z " fill="#f7e017" fill-opacity="1" stroke="#000000" stroke-width="0.125"/>
    <path d="M 194.4,43.40 C 194.6,41.71 194.2,39.97 193.0,38.88 C 190.6,36.78 188.2,37.48 186.5,39.17 C 183.9,37.76 182.5,42.75 179.6,41.91 C 180.115,43.53 180.8,44.23 182.3,43.67 C 180.8,45.07 182.3,46.76 180.5,48.45 C 183.8,49.50 185.6,47.6784 185.4,44.51 C 186.7,45.63 188.6,45.56 189.7,44.30 C 187.9,43.74 187.9,42.21 188.6,40.78 C 189.7,38.67 194.7,38.76 194.4,43.40 z " fill="#f7e017" fill-opacity="1" stroke="#000000" stroke-width="0.125"/>
    <path d="M 202.0,67.85 C 198.3,69.82 191.5,68.98 190.8,64.13 C 190.24,59.28 194.9,57.10 196.2,56.46 C 198.1,55.48 199.7,57.24 199.1,59.28 C 201.2,58.50 201.7,55.97 200.7,54.49 C 203.6,54.7097 206.272,52.53 207.3,49.43 C 206.3,50.39 203.6,49.74 201.3,49.60 C 202.0,48.82 202.0,47.32 201.8,46.55 C 199.4,49.01 196.0,47.88 191.4,54.99 C 192.139,52.53 193.4,47.60 194.2,44.37 C 194.3,44.05 194.3,43.73 194.4,43.40 C 194.7,38.76 189.7,38.67 188.6,40.78 C 189.8,42.09 189.2,43.61 188.8,45.92 C 188.3,48.66 187.2,54.99 186.3,57.10 C 186.0,53.79 183.9,53.58 183.4,51.96 C 182.8,52.38 182.5,53.51 182.6,54.28 C 181.8,53.44 179.2,54.49 178.2,53.23 C 177.1,55.34 178.8,57.45 180.6,58.36 C 179.5,58.43 179.3,59.66 178.2,59.66 C 179.7,61.42 181.2,62.12 183.0,62.26 C 184.8,62.40 186.1,63.07 187.2,65.25 C 189.0,68.77 195.7,71.05 202.0,67.85 z " fill="#337321" fill-opacity="1" stroke="#000000" stroke-width="0.125"/>
    <path d="M 211.3,63.56 C 209.2,69.40 203.4,73.55 200.8,74.18 C 196.4,75.26 187.4,79.6463 184.9,81.90 C 184.5,81.81 184.2,81.67 183.9,81.49 C 182.7,80.65 181.8,77.91 183.9,75.59 C 190.5,69.40 197.6,72.07 202.0,67.85 C 198.3,69.82 191.5,68.98 190.8,64.13 C 194.8,65.18 202.1,65.25 207.8,59.06 C 208.6,59.91 210.9,62.58 211.3,63.56 z " fill="#f7e017" fill-opacity="1" stroke="#000000" stroke-width="0.125"/>
    <path d="M 197.8,77.26 C 194.5,80.09 192.7,87.05 193.1,91.76 C 193.2,93.07 193.5,93.96 194.1,94.50 C 194.3,91.83 196.2,84.93 200.9,81.85 C 205.0,79.24 211.2,73.41 213.5,66.73 C 213.1,65.53 212.4,64.69 211.1,63.85 C 208.8,70.15 202.6,73.17 197.8,77.26 z " fill="#337321" fill-opacity="1" stroke="#000000" stroke-width="0.125"/>
    <path d="M 209.1,60.86 C 207.9,62.65 205.2,65.11 202.6,66.10 C 203.2,65.46 203.4,64.65 203.4,63.99 C 200.1,65.25 193.5,65.11 190.8,64.13 C 194.8,65.18 202.1,65.25 207.8,59.06 C 208.4,59.70 208.9,60.26 209.1,60.86 z " fill="#316d3a" fill-opacity="1" stroke="#000000" stroke-width="0.125"/>
    <path d="M 183.9,75.59 C 178.5,80.62 182.0,85.01 184.1,85.99 C 183.6,89.51 186.9,89.09 186.8,92.04 C 188.2,91.27 188.5,89.23 188.3,87.61 C 190.0,89.44 194.3,87.40 195.232,90.78 C 195.7,87.05 192.9,83.32 189.3,83.67 C 190.8,82.34 189.9,80.16 188.5,79.60 C 188.2,82.34 185.1,82.34 183.9,81.49 C 182.7,80.65 181.8,77.91 183.9,75.59 z " fill="#337321" fill-opacity="1" stroke="#000000" stroke-width="0.125"/>
    <path d="M 195.5,107.5 C 194.9,107.9 195.0,108.6 195.3,109.1 C 196.1,110.1 194.8,112.3 197.2,112.8 C 197.9,112.9 198.4,112.5 198.7,111.7 C 199.4,109.5 197.1,109.3 196.9,108.2 C 196.7,107.1 196.0,107.3 195.5,107.5 z " fill="#f7e017" fill-opacity="1" stroke="#000000" stroke-width="0.125"/>
    <path d="M 197.5,111.7 C 196.7,112.0 196.0,112.6 196.3,115.1 C 196.5,116.1 196.4,118.7 195.5,118.7 C 196.1,119.0 197.3,119.3 197.7,118.6 C 198.2,119.4 199.3,119.2 199.7,118.2 C 200.3,118.7 201.1,117.9 201.1,117.2 C 201.5,117.6 202.5,117.1 202.3,115.6 C 202.9,115.8 203.7,115.4 203.9,115.0 C 203.1,114.8 200.8,113.6 200.3,112.7 C 199.8,111.7 198.4,111.3 197.5,111.7 z " fill="#f7e017" fill-opacity="1" stroke="#000000" stroke-width="0.125"/>
    <g>
      <path d="M 185.3,40.62 C 185.7,40.09 186.1,39.60 186.5,39.17" fill="none" stroke="#000000" stroke-width="0.125"/>
      <path d="M 198.7,49.92 C 199.3,49.57 200.3,49.53 201.3,49.60" fill="none" stroke="#000000" stroke-width="0.125"/>
      <path d="M 197.7,118.6 C 197.5,118.3 197.4,116.8 197.6,115.9" fill="none" stroke="#000000" stroke-width="0.125"/>
      <path d="M 199.7,118.2 C 199.3,117.9 198.6,116.9 198.5,116.0" fill="none" stroke="#000000" stroke-width="0.125"/>
      <path d="M 201.1,117.2 C 200.6,117.0 199.4,115.5 199.1,114.5" fill="none" stroke="#000000" stroke-width="0.125"/>
      <path d="M 202.3,115.6 C 201.7,115.5 199.9,114.3 199.2,113.1" fill="none" stroke="#000000" stroke-width="0.125"/>
    </g>
    <path d="M 234.7,75.66 C 243.3,82.90 243.9,88.67 242.6,92.04 C 241.9,88.88 238.3,83.95 234.6,82.69 L 234.7,75.66 z " fill="#f7e017" fill-opacity="1" stroke="#000000" stroke-width="0.125"/>
    <g>
      <g>
        <path d="M 219.2,71.58 L 235.3,71.58 C 235.3,71.58 235.3,75.80 235.3,90.56 C 235.3,106.7 226.3,116.3 217.1,121.3 C 208.0,116.3 199.0,106.7 199.0,90.56 C 199.0,75.80 199.0,71.58 199.0,71.58 L 210.2,71.58 C 210.2,72.56 210.3,74.04 211.5,75.52 C 214.1,75.25 217.2,73.27 219.2,71.58 z " fill="#337321" fill-opacity="1" stroke="#000000" stroke-width="0.125"/>
        <path d="M 235.3,71.58 C 235.3,71.58 235.3,75.80 235.3,90.56 C 235.3,95.45 234.4,99.73 233.0,103.4 L 217.1,74.25 L 201.2,103.4 C 199.8,99.73 199.0,95.45 199.0,90.56 C 199.0,75.80 199.0,71.58 199.0,71.58 L 235.3,71.58 z " fill="#006ec7" stroke="#000000" stroke-width="0.125"/>
        <path d="M 233.5,102.0 C 233.2,102.9 232.7,104.3 232.3,105.1 L 217.1,76.89 L 201.9,105.1 C 201.5,104.3 201.0,102.9 200.7,102.0 L 217.1,71.63 L 233.5,102.0 z " fill="#f7e017" fill-opacity="1" stroke="#000000" stroke-width="0.125"/>
      </g>
      <g fill="#f7e017">
        <path d="M 224.4,112.4 C 224.8,112.6 225.6,113.0 225.9,113.2 C 226.8,111.5 226.9,109.1 226.6,107.0 C 225.7,109.3 222.6,109.2 221.8,110.6 C 222.3,110.9 222.8,111.2 223.2,111.5 C 222.1,112.6 219.7,114.4 218.2,114.8 L 218.2,99.74 C 218.2,98.69 217.9,97.81 217.9,96.93 C 217.9,96.93 217.9,94.51 217.9,93.81 C 217.9,93.11 217.8,92.09 217.1,92.09 C 216.5,92.09 216.3,93.11 216.3,93.81 C 216.3,94.51 216.3,96.93 216.3,96.93 C 216.3,97.81 216.0,98.83 216.0,99.74 L 216.0,114.8 C 215.2,112.5 212.2,113.3 210.8,111.0 C 211.3,110.9 211.9,110.9 212.5,111.0 C 211.4,107.4 208.5,107.1 208.0,106.1 C 208.0,107.5 207.3,111.0 208.3,112.5 C 208.6,112.2 208.9,111.9 209.3,111.7 C 210.5,114.3 215.9,114.3 217.1,118.6 C 218.1,117.0 221.8,115.2 224.4,112.4 z " fill="#f7e017" fill-opacity="1" stroke="#000000" stroke-width="0.125"/>
        <path d="M 217.1,99.92 C 218.3,99.92 222.1,99.53 223.5,99.53 C 223.8,99.53 224.1,98.99 224.1,98.33 C 224.1,97.67 223.8,97.14 223.5,97.14 C 222.1,97.14 218.3,96.75 217.1,96.75 C 215.9,96.75 212.1,97.14 210.8,97.14 C 210.4,97.14 210.1,97.67 210.1,98.33 C 210.1,98.99 210.4,99.53 210.8,99.53 C 212.1,99.53 215.9,99.92 217.1,99.92 z " fill="#f7e017" fill-opacity="1" stroke="#000000" stroke-width="0.125"/>
        <path d="M 216.4,93.74 C 216.1,93.53 215.8,93.41 215.4,93.41 C 214.6,93.41 214.0,94.00 214.0,94.72 C 214.0,95.45 214.6,96.04 215.4,96.04 C 216.2,96.04 216.8,95.45 216.8,94.72 C 216.8,94.16 217.7,94.16 217.7,94.72 C 217.7,95.86 216.6,96.79 215.4,96.79 C 214.2,96.7917 213.1,95.86 213.1,94.72 C 213.1,93.58 214.2,92.6656 215.4,92.66 C 215.8,92.66 216.1,92.74 216.4,92.89 C 216.4,93.08 216.4,93.437 216.4,93.74 z " fill="#f7e017" stroke="#000000" stroke-width="0.125"/>
        <path d="M 210.8,99.53 C 211.1,99.53 211.4,98.99 211.4,98.33 C 211.4,97.67 211.1,97.14 210.8,97.14" fill="#f7e017" stroke="#000000" stroke-width="0.125"/>
        <path d="M 211.3,99.53 C 211.6,99.53 211.9,98.99 211.9,98.33 C 211.9,97.67 211.6,97.14 211.3,97.14" fill="#f7e017" stroke="#000000" stroke-width="0.125"/>
        <path d="M 214.8,99.77 C 215.2,99.77 215.5,99.13 215.5,98.33 C 215.5,97.54 215.2,96.90 214.8,96.90" fill="#f7e017" stroke="#000000" stroke-width="0.125"/>
        <path d="M 215.6,99.84 C 216.0,99.84 216.4,99.16 216.4,98.33 C 216.4,97.50 216.0,96.83 215.6,96.83" fill="#f7e017" stroke="#000000" stroke-width="0.125"/>
        <path d="M 218.3,99.85 C 218.7,99.85 219.1,99.17 219.1,98.33 C 219.1,97.49 218.7,96.81 218.3,96.81" fill="#f7e017" stroke="#000000" stroke-width="0.125"/>
        <path d="M 219.1,99.81 C 219.6,99.81 219.9,99.15 219.9,98.33 C 219.9,97.52 219.6,96.86 219.1,96.86" fill="#f7e017" stroke="#000000" stroke-width="0.125"/>
        <path d="M 222.9,99.55 C 223.3,99.55 223.6,99.01 223.6,98.33 C 223.6,97.66 223.3,97.12 222.9,97.12" fill="#f7e017" stroke="#000000" stroke-width="0.125"/>
        <path d="M 209.3,111.7 C 209.7,111.4 210.2,111.2 210.8,111.0" fill="#f7e017" stroke="#000000" stroke-width="0.125"/>
        <path d="M 223.6,111.8 C 223.5,111.7 223.3,111.6 223.2,111.5" fill="#f7e017" stroke="#000000" stroke-width="0.125"/>
        <path d="M 224.4,112.4 C 225.3,111.4 226.2,110.2 226.6,108.8" fill="#f7e017" stroke="#000000" stroke-width="0.125"/>
      </g>
      <g>
        <path d="M 213.9,85.00 C 213.9,84.66 214.2,84.51 214.5,84.26 C 214.9,83.96 215.1,83.82 215.4,83.82 L 220.0,83.82 C 220.4,83.82 220.5,83.91 220.5,84.23 L 220.5,90.50 C 220.5,90.82 220.4,90.91 220.0,90.91 L 213.9,90.91 L 213.9,84.94" fill="#ffffff" stroke="#000000" stroke-width="0.125"/>
        <path d="M 218.9,91.45 C 219.5,91.45 219.4,91.44 219.8,91.01 C 220.3,90.57 220.2,90.61 220.2,90.20 L 220.2,84.46 C 220.2,84.17 220.1,84.08 219.8,84.08 L 215.6,84.08 C 215.2,84.08 215.1,84.22 214.7,84.49 C 214.4,84.73 214.2,84.86 214.2,85.19 L 214.2,91.45 L 218.9,91.45 z " fill="#e5e5e5" stroke="#000000" stroke-width="0.125"/>
        <path d="M 219.4,91.32 C 219.4,91.64 219.3,91.72 218.9,91.72 L 214.3,91.72 C 214.0,91.72 213.9,91.64 213.9,91.32 L 213.9,85.04 C 213.9,84.73 214.0,84.64 214.3,84.64 L 218.9,84.64 C 219.3,84.64 219.4,84.73 219.4,85.04 L 219.4,91.32 z " fill="#ffffff" stroke="#000000" stroke-width="0.125"/>
      </g>
    </g>
    <g>
      <path d="M 228.3,67.90 C 229.2,68.90 229.543,70.26 229.0,71.57 L 227.7,71.57 C 228.2,69.89 227.928,68.28 225.5,68.06 C 221.9,67.75 217.8,74.67 211.5,75.52 C 209.7,73.34 209.8,69.19 212.1,67.22 C 210.9,63.76 208.4,59.96 206.6,58.31 C 205.5,58.12 204.1,58.03 203.3,58.08 C 204.2,56.11 206.8,54.04 208.9,53.20 C 209.2,52.70 209.6,52.22 209.9,51.79 C 210.2,49.08 223.0,50.35 225.8,52.03 C 225.8,55.06 227.0,65.16 228.3,67.90 z " fill="#96877d" fill-opacity="1" stroke="#000000" stroke-width="0.125"/>
      <g fill="#000000">
        <path d="M 212.7,69.75 C 212.4,65.06 210.5,61.20 207.8,58.57 C 209.1,58.92 211.7,58.92 213.5,57.66 C 215.8,56.11 221.8,53.40 224.0,54.56 C 224.2,54.95 224.3,55.83 224.2,56.39 C 223.7,54.99 217.8,57.17 216.2,57.83 C 214.6,58.57 213.9,59.56 214.4,61.77 C 213.5,61.00 213.9,60.2643 212.9,59.70 C 213.3,60.61 213.6,62.26 213.7,63.60 C 213.4,62.65 212.7,60.61 211.4,59.42 C 212.6,61.7409 213.6,67.31 213.1,70.26 C 214.0,70.26 216.1,69.33 217.0,68.66 C 216.2,69.72 214.1,70.45 212.7,70.74 C 212.1,71.47 211.7,73.37 211.7,74.43 C 211.6,73.13 212.0,69.96 212.7,69.75 z " fill="#000000" stroke="none"/>
        <path d="M 228.3,67.90 C 227.1,66.61 225.0,65.91 222.2,66.66 C 222.6,66.45 223.5,66.10 224.3,65.95 C 224.2,65.22 223.6,62.05 223.4,61.28 L 224.2,60.96 C 224.6,62.86 225.1,65.04 225.4,65.92 C 225.7,65.99 226.2,66.10 226.7,66.34 C 226.5,65.60 225.3,60.29 225.3,59.73 L 226.4,59.17 C 226.8,62.05 227.5,66.24 228.3,67.90 z " fill="#000000" stroke="none"/>
      </g>
      <g>
        <path d="M 227.7,71.57 C 228.2,69.89 227.928,68.28 225.5,68.06 C 223.6,67.90 221.6,69.70 219.2,71.57 L 227.7,71.57 z " fill="#96877d" fill-opacity="1" stroke="#000000" stroke-width="0.125"/>
        <path d="M 212.1,56.43 C 211.1,56.57 208.7,56.36 207.5,55.97 C 207.6,55.65 207.7,55.32 207.9,54.98 C 207.1,55.47 205.7,56.43 205.2,57.10 C 206.9,57.45 210.4,57.62 212.1,56.43 z " fill="#96877d" fill-opacity="1" stroke="#000000" stroke-width="0.125"/>
      </g>
      <path d="M 212.1,67.22 C 212.5,68.34 212.7,69.42 212.8,70.38" fill="none" stroke="#000000" stroke-width="0.125"/>
      <path d="M 208.9,53.20 C 208.3,54.13 207.7,55.12 207.5,55.97 C 208.7,56.36 211.1,56.57 212.1,56.43" fill="none" stroke="#000000" stroke-width="0.125"/>
      <path d="M 206.6,58.31 C 207.1,58.38 207.5,58.47 207.8,58.57 C 209.1,58.92 211.7,58.92 213.5,57.66 C 215.2,56.39 220.0,52.45 225.4,52.03" fill="none" stroke="#000000" stroke-width="0.125"/>
      <path d="M 205.2,57.10 C 206.9,57.45 210.4,57.62 212.1,56.43 C 216.2,53.65 220.1,52.03 224.1,51.82" fill="none" stroke="#000000" stroke-width="0.125"/>
    </g>
    <path d="M 234.7,75.66 C 240.6,79.74 245.0,83.67 246.2,90.00 C 247.5,96.33 249.9,98.02 252.8,96.33 C 252.1,99.99 248.5,100.4 245.4,97.60 C 245.7,101.8 244.0,106.8 239.6,108.7 C 239.3,106.1 241.0,104.1 240.584,102.1 C 240.3,101.1 240.3,99.07 241.4,98.09 C 239.1,98.86 235.5,97.38 235.1,93.94 C 237.8,95.20 241.2,95.42 242.6,92.04 C 243.9,88.67 243.3,82.90 234.7,75.66 z " fill="#337321" fill-opacity="1" stroke="#000000" stroke-width="0.125"/>
    <path d="M 242.2,42.75 C 244.0,37.97 248.8,38.46 250.4,40.50 C 255.1,37.83 255.7,43.88 259.7,42.68 C 259.7,43.81 258.3,44.86 256.8,44.79 C 258.4,46.20 256.2,48.31 259.5,49.57 C 256.7,50.98 252.8,49.50 251.7,45.63 C 250.8,47.46 247.5,47.46 246.2,45.99 C 249.0,45.21 248.8,42.54 247.2,41.49 C 245.6,40.42 242.7,40.85 242.2,42.75 z " fill="#337321" fill-opacity="1" stroke="#000000" stroke-width="0.125"/>
    <path d="M 227.9,53.28 C 229.2,57.51 231.9,61.45 234.8,64.13 C 238.2,67.22 243.3,66.45 246.2,63.49 C 246.2,69.38 240.1,69.84 236.7,67.99 C 235.2,67.18 234.0,67.61 235.5,68.91 C 237.7,70.88 242.4,72.34 248.1,73.55 C 257.9,75.66 254.4,83.46 251.5,83.39 C 252.3,83.37 253.0,82.51 251.8,81.44 C 243.3,73.76 225.9,76.78 226.2,59.63 C 224.4,64.13 216.8,62.37 220.404,57.03 C 221.5,57.94 223.4,58.01 224.0,56.60 C 224.4,55.51 224.2,53.61 222.2,51.97 C 222.5,51.94 223.2,51.97 223.1,51.16 C 223.2,51.64 223.7,52.34 224.8,52.10 C 225.1,52.60 225.4,52.93 225.9,52.75 C 226.0,52.72 226.2,52.59 226.1,52.09 C 226.2,53.02 227.3,53.35 227.9,53.28 z " fill="#337321" fill-opacity="1" stroke="#000000" stroke-width="0.125"/>
    <path d="M 236.7,67.99 C 240.8,70.67 245.4,70.66 249.7,65.74 C 251.0,64.20 253.1,62.86 254.6,62.72 C 256.1,62.58 256.0,61.17 257.1,60.89 C 256.4,60.68 256.1,59.84 255.1,59.94 C 257.7,59.03 257.0,56.92 258.3,55.90 C 257.2,56.29 255.5,54.70 254.0,56.71 C 254.4,55.79 253.9,54.70 253.5,54.28 C 253.6,55.34 251.4,55.55 251.0,58.22 C 250.8,59.72 250.0,59.63 249.8,57.31 C 249.7,55.61 248.9,50.91 247.9,48.52 C 246.9,46.13 246.7,42.84 248.0,42.35 C 247.8,42.01 247.6,41.71 247.2,41.49 C 245.6,40.42 242.7,40.85 242.2,42.75 C 240.3,47.53 245.506,50.28 245.0,55.48 C 244.3,51.61 238.0,50.63 238.1,46.83 C 236.0,47.74 236.3,49.43 237.1,50.77 C 235.8,48.80 232.9,52.03 230.5,49.36 C 230.2,52.88 233.3,54.21 235.8,54.35 C 234.6,56.60 236.2,58.50 237.9,59.13 C 238.0,55.20 246.1,56.81 246.2,63.56 C 246.2,69.33 240.0,69.82 236.7,67.99 z " fill="#f7e017" fill-opacity="1" stroke="#000000" stroke-width="0.125"/>
    <path d="M 248.1,73.55 C 257.9,75.66 254.4,83.46 251.5,83.39 C 249.7,83.35 247.9,81.81 247.8,80.47 C 245.7,81.60 246.3,83.81 247.9,84.69 C 243.5,84.17 241.6,87.08 241.5,90.28 C 242.3,88.81 244.8,88.70 245.7,89.02 C 246.6,89.33 248.9,89.51 249.9,88.45 C 249.1,89.12 250.4,90.67 249.3,91.86 C 253.0,91.72 254.6,88.28 254.0,86.77 C 258.7,82.41 257.8,75.31 248.1,73.55 z " fill="#f7e017" fill-opacity="1" stroke="#000000" stroke-width="0.125"/>
    <path d="M 240.6,106.9 C 241.2,107.3 241.1,108.2 240.7,108.7 C 239.8,109.8 241.1,112.3 238.4,112.7 C 237.708,112.9 237.1,112.3 236.8,111.4 C 236.1,108.9 238.7,108.8 239.0,107.6 C 239.3,106.4 240.0,106.6 240.6,106.9 z " fill="#f7e017" fill-opacity="1" stroke="#000000" stroke-width="0.125"/>
    <path d="M 238.1,111.5 C 239.0,111.9 239.8,112.5 239.3,115.3 C 239.1,116.5 239.1,119.3 240.1,119.4 C 239.4,119.7 238.1,120.0 237.6,119.2 C 237.0,120.1 235.8,119.8 235.4,118.7 C 234.7,119.1 233.9,118.2 233.9,117.5 C 233.4,117.8 232.3,117.3 232.6,115.6 C 232.0,115.8 231.1,115.3 230.8,114.9 C 231.8,114.7 234.3,113.5 235.0,112.4 C 235.6,111.4 237.1,110.9 238.1,111.5 z " fill="#f7e017" fill-opacity="1" stroke="#000000" stroke-width="0.125"/>
    <g>
      <path d="M 237.6,119.2 C 237.9,118.8 238.0,117.2 237.9,116.2" fill="none" stroke="#000000" stroke-width="0.125"/>
      <path d="M 235.4,118.7 C 235.8,118.3 236.7,117.2 236.9,116.2" fill="none" stroke="#000000" stroke-width="0.125"/>
      <path d="M 233.9,117.5 C 234.5,117.3 235.9,115.6 236.2,114.5" fill="none" stroke="#000000" stroke-width="0.125"/>
      <path d="M 232.6,115.6 C 233.3,115.5 235.3,114.3 236.2,112.9" fill="none" stroke="#000000" stroke-width="0.125"/>
    </g>
    <path d="M 226.2,59.63 C 226.1,66.83 229.1,70.48 233.2,72.85 C 231.7,71.93 232.3,68.77 230.3,67.75 C 230.8,67.71 231.5,68.42 232.8,68.13 C 232.2,66.80 231.2,64.76 228.9,64.48 C 229.5,64.41 230.8,64.62 231.6,64.30 C 230.4,62.47 227.3,63.35 226.2,59.63 z " fill="#f7e017" fill-opacity="1" stroke="#000000" stroke-width="0.125"/>
    <path d="M 225.4,52.77 C 225.2,52.69 225.0,52.43 224.8,52.10 C 223.7,52.34 223.2,51.64 223.1,51.16 C 223.2,51.97 222.5,51.94 222.2,51.97 C 224.2,53.60 224.4,55.51 224.0,56.60 C 223.4,58.01 221.5,57.94 220.404,57.03 C 220.2,60.01 224.1,61.00 225.5,57.24 C 225.5,57.87 226.3,57.80 226.5,58.64 C 227.5,57.03 226.8,54.70 225.4,52.77 z " fill="#f7e017" fill-opacity="1" stroke="#000000" stroke-width="0.125"/>
    <g>
      <path d="M 219.3,38.50 C 217.5,36.88 216.7,34.17 216.8,32.63 C 216.8,31.08 217.5,29.39 219.7,30.10 C 219.0,30.10 219.5,31.50 218.8,31.64 C 219.4,31.85 220.2,31.36 220.3,31.04 C 220.4,31.54 221.3,31.40 221.4,31.96 C 221.8,31.68 221.4,30.31 220.897,30.03 C 221.2,29.81 221.4,28.72 221.3,28.20 C 220.9,28.27 220.4,28.76 220.3,29.46 C 220.5,28.90 220.2,27.49 219.3,27.28 C 219.0,27.67 218.9,28.62 219.3,29.15 C 218.4,28.94 217.1,29.5378 216.7,30.31 C 216.8,29.37 216.9,28.05 217.5,27.21 C 217.7,26.93 217.2,26.44 216.9,27.11 C 216.2,25.77 214.3,25.07 213.5,25.74 C 212.7,26.40 211.6,25.42 211.0,26.47 C 210.3,27.53 208.0,27.64 208.2,28.76 C 208.2,29.43 208.1,30.46 207.7,30.83 C 206.9,31.75 208.1,32.42 208.3,33.22 C 208.2,30.55 212.4,25.35 216.7,27.39 C 216.3,28.06 216.0,29.39 215.9,31.01 C 215.7,33.40 216.08,36.78 218.4,38.7487 L 219.3,38.50 z " fill="#337321" fill-opacity="1" stroke="#000000" stroke-width="0.125"/>
      <path d="M 220.5,30.13 C 220.5,29.50 221.6,28.67 223.1,28.69 C 224.9,28.71 226.2,30.32 227.6,30.17 C 229.1,30.01 228.4,30.80 228.1,31.01 C 227.8,31.22 227.6,31.54 227.7,31.92 C 227.8,32.31 227.6,32.56 227.1,32.20 C 225.8,31.41 224.5,32.52 222.9,31.9108 C 221.4,31.37 220.6,31.08 220.5,30.13 z " fill="#cf142b" fill-opacity="1" stroke="#000000" stroke-width="0.125"/>
      <path d="M 213.3,46.72 C 212.6,44.51 209.9,42.08 208.6,41.52 L 208.5,40.33 C 209.2,40.04 210.9,38.71 211.7,37.97 C 217.0,40.50 224.2,36.92 227.5,33.19 L 228.7,33.96 L 228.1,34.81 L 227.4,34.45 C 226.6,35.44 223.6,38.28 222.7,38.88 C 223.9,39.19 225.6,39.40 226.1,39.3816 C 229.0,37.27 231.3,35.37 232.4,35.23 L 233.4,36.49 L 232.6,37.09 L 231.9,36.70 C 228.7,39.31 225.1,45.00 223.7,48.80 C 221.8,48.38 214.7,48.66 213.3,46.72 z " fill="#96877d" fill-opacity="1" stroke="#000000" stroke-width="0.125"/>
      <path d="M 222.7,38.88 C 222.2,38.76 221.8,38.63 221.6,38.50 C 221.072,39.03 219.6,39.48 217.8,39.55" fill="none" stroke="#000000" stroke-width="0.125"/>
      <path d="M 213.6,45.95 C 213.1,43.33 213.9,40.4362 215.2,39.55 C 218.1,41.49 223.1,41.49 226.1,39.3816" fill="none" stroke="#000000" stroke-width="0.125"/>
      <path d="M 213.6,44.58 C 215.8,44.51 220.7,44.90 221.9,45.07 C 223.1,45.25 225.1,45.74 224.8,46.34" fill="none" stroke="#000000" stroke-width="0.125"/>
      <path d="M 214.6,44.21 L 215.3,43.56 L 214.6,42.91 L 214.0,43.56 L 214.6,44.21 z " fill="none" stroke="#000000" stroke-width="0.125"/>
      <path d="M 216.1,31.11 C 215.3,29.99 213.1,29.63 212.6,31.15 C 212.4,31.82 212.1,32.52 211.6,32.84 C 211.0,33.15 211.2,34.11 211.44,34.53 C 212.0,35.54 211.5,36.53 212.6,37.2018 C 212.6,36.3932 213.7,35.54 214.8,35.33 C 215.8,35.12 217.3,34.21 217.5,33.19 C 217.8,32.17 218.1,31.33 216.1,31.11 z " fill="#337321" fill-opacity="1" stroke="#000000" stroke-width="0.125"/>
      <path d="M 211.1,41.24 L 211.4,41.24 L 211.4,43.16 C 211.4,43.18 211.5,43.21 211.5,43.25 L 213.2,42.30 L 213.3,42.54 L 211.7,43.50 C 211.7,43.56 211.7,43.63 211.7,43.69 L 213.3,44.65 L 213.2,44.89 L 211.5,43.94 C 211.5,43.98 211.4,44.02 211.4,44.04 L 211.4,45.95 L 211.1,45.95 L 211.1,44.03 C 211.0,44.01 210.9,43.98 210.9,43.94 L 209.294,44.9 L 209.1,44.65 L 210.8,43.69 C 210.8,43.63 210.7,43.56 210.8,43.50 L 209.1,42.54 L 209.2,42.30 L 210.9,43.25 C 211.0,43.21 211.0,43.17 211.1,43.15 L 211.1,41.24 L 211.1,41.24 z " fill="#96877d" stroke="#000000" stroke-width="0.125"/>
      <path d="M 213.6,45.94 C 213.0,46.55 212.1,46.93 211.2,46.93 C 209.4,46.93 207.9,45.44 207.9,43.60 C 207.9,41.76 209.4,40.26 211.2,40.26 C 212.3,40.26 213.3,40.78 213.9,41.58 C 213.7,42.00 213.5,42.94 213.5,43.36 C 213.4,42.21 212.4,41.32 211.2,41.32 C 210.0,41.32 208.9,42.34 208.9,43.60 C 208.9,44.85 210.0,45.87 211.2,45.87 C 212.3,45.87 213.2,45.14 213.4,44.17 C 213.4,44.58 213.4,45.59 213.6,45.94 z " fill="#96877d" fill-opacity="1" stroke="#000000" stroke-width="0.125"/>
      <path d="M 209.8,49.11 C 209.6,48.87 209.2,48.20 209.2,47.71 C 209.6,47.67 210.2,47.88 210.4,48.17 C 210.4,47.81 210.3,47.04 210.3,46.69 C 210.7,46.83 211.5,47.29 211.8,47.81 C 211.7,47.46 211.6,46.55 211.7,45.99 C 212.2,46.23 212.9,46.90 213.0,47.36 C 213.0,46.65 213.3,45.49 213.5,45.21 C 213.8,45.53 214.3,45.81 214.6,46.23 C 214.7,45.67 215.0,45.00 215.4,44.83 C 215.7,45.18 216.2,45.99 216.3,46.90 C 216.6,46.79 217.1,46.2722 217.2,45.99 C 217.4,46.27 217.6,46.76 217.5,47.36 C 217.9,47.01 218.3,46.51 218.4,46.09 C 218.7,46.30 219.2,46.83 219.4,47.39 C 219.3,46.94 219.3,46.13 219.2,45.67 C 219.7,45.95 220.1,46.44 220.2,46.97 C 220.4,46.48 220.7,45.60 221.0,45.39 C 221.3,45.95 221.6,46.6237 221.5,47.18 C 221.7,46.83 222.0,46.20 222.3,46.06 C 222.5,46.44 222.5,47.29 222.4,47.74 C 222.6,47.39 223.1,46.97 223.4,46.83 C 223.4,47.04 223.4,47.46 223.4,47.78 C 223.7,47.60 224.2,46.65 224.4,46.16 C 224.9,46.41 225.4,47.25 225.4,47.67 C 225.8,47.53 226.5,46.90 226.7,46.55 C 226.7,46.79 226.8,47.46 226.6,47.99 C 226.9,47.78 227.1,47.36 227.2,47.18 C 227.3,47.53 227.2,48.38 227.1,48.83 C 227.4,48.55 227.8,48.38 228.1,48.38 C 228.2,48.97 227.7,50.03 227.4,50.8073 C 224.0,49.85 216.9,49.50 209.8,49.11 z " fill="#337321" fill-opacity="1" stroke="#000000" stroke-width="0.125"/>
      <path d="M 221.6,30.49 C 221.6,30.23 222.1,29.64 223.2,29.65 C 224.4,29.66 225.6,30.57 226.6,30.50 C 227.6,30.44 227.1,30.76 226.9,30.85 C 226.6,30.94 226.5,31.07 226.6,31.22 C 226.7,31.38 226.5,31.49 226.1,31.34 C 225.3,31.02 224.4,31.47 223.2,31.22 C 222.2,31.00 221.6,30.88 221.6,30.49 z " fill="#f7e017" fill-opacity="1" stroke="none"/>
    </g>
    <g>
      <g fill="#f7e017">
        <path d="M 210.9,51.22 C 209.8,52.49 208.8,52.28 208.6,51.47 C 208.4,50.66 209.19,50.28 208.9,49.57 C 208.6,48.87 209.3,48.55 209.7,48.87 C 210.0,49.19 211.1,48.17 211.6,49.22 C 212.178,50.28 212.5,51.01 212.2,51.44 C 212.0,51.86 211.1,51.65 210.9,51.22 z " fill="#f7e017" stroke="#000000" stroke-width="0.125"/>
        <path d="M 215.4,49.33 C 215.2,48.86 216.3,47.97 216.941,48.61 C 217.5,49.24 218.3,47.92 218.8,48.92 C 219.3,49.92 219.5,50.45 219.7,51.01 C 220.0,51.58 218.4,51.87 217.9,51.38 C 218.0,51.72 216.5,51.98 216.1,51.03 C 215.9,50.52 215.7,49.94 215.4,49.33 z " fill="#f7e017" stroke="#000000" stroke-width="0.125"/>
        <path d="M 222.7,49.91 C 222.5,49.41 223.8,48.71 224.4,49.61 C 224.6,49.24 225.9,49.17 226.0,50.24 C 226.1,51.317 226.1,51.94 226.1,52.37 C 226.2,52.79 225.3,53.18 224.8,52.10 C 223.7,52.31 223.3,51.73 223.1,51.12 C 223.0,50.50 222.9,50.20 222.7,49.91 z " fill="#f7e017" stroke="#000000" stroke-width="0.125"/>
      </g>
      <g fill="#337321">
        <path d="M 211.6,49.20 C 211.4,48.85 212.5,48.15 213.2,48.68 C 213.9,49.20 214.9,48.22 215.3,49.17 C 216.2,51.08 216.3,51.22 216.0,51.59 C 215.7,51.96 214.6,51.82 214.3,51.31 C 214.3,51.66 213.3,51.61 212.8,51.33 C 212.2,51.01 211.8,49.84 211.6,49.20 z " fill="#337321" fill-opacity="1" stroke="#000000" stroke-width="0.125"/>
        <path d="M 219.0,49.29 C 218.7,48.75 220.4,48.27 221.1,49.22 C 221.5,48.89 222.3,48.87 222.7,49.91 C 223.2,50.94 223.3,51.52 222.9,51.79 C 222.7,51.97 221.8,52.12 221.6,51.65 C 221.2,51.89 220.0,51.68 219.7,51.01 C 219.5,50.35 219.2,49.77 219.0,49.29 z " fill="#337321" fill-opacity="1" stroke="#000000" stroke-width="0.125"/>
        <path d="M 226.0,50.33 C 225.9,49.84 226.8,49.61 227.2,50.33 C 227.5,51.05 228.6,50.40 228.7,51.59 C 228.7,51.82 228.5,52.70 228.2,53.12 C 227.9,53.54 226.2,53.12 226.1,52.23 C 226.0,51.33 226.0,50.82 226.0,50.33 z " fill="#337321" fill-opacity="1" stroke="#000000" stroke-width="0.125"/>
      </g>
      <g>
        <path d="M 210.9,51.22 C 210.5,50.70 210.0,49.85 209.3,50.77" fill="none" stroke="#000000" stroke-width="0.125"/>
        <path d="M 214.3,51.31 C 214.1,51.01 213.8,50.52 213.7,50.13" fill="none" stroke="#000000" stroke-width="0.125"/>
        <path d="M 217.9,51.38 C 217.6,51.21 217.328,50.86 217.1,50.49" fill="none" stroke="#000000" stroke-width="0.125"/>
        <path d="M 217.6,49.54 C 218.2,49.61 218.6,50.19 218.8,50.45 C 219.0,50.71 219.4,51.19 219.7,51.24" fill="none" stroke="#000000" stroke-width="0.125"/>
        <path d="M 221.6,51.65 C 221.4,51.31 221.1,51.01 221.1,50.77" fill="none" stroke="#000000" stroke-width="0.125"/>
        <path d="M 221.1,49.22 C 221.3,49.52 221.5,49.77 221.6,50.05" fill="none" stroke="#000000" stroke-width="0.125"/>
        <path d="M 224.8,52.10 C 224.5,51.58 224.0,51.07 223.7,50.89" fill="none" stroke="#000000" stroke-width="0.125"/>
        <path d="M 224.6,50.17 C 224.7,51.21 226.1,51.2819 226.1,52.02" fill="none" stroke="#000000" stroke-width="0.125"/>
        <path d="M 227.2,50.33 C 227.3,50.59 227.418,50.86 227.4,51.29" fill="none" stroke="#000000" stroke-width="0.125"/>
      </g>
    </g>
  </g>
</svg>
