<?xml version="1.0" encoding="UTF-8" standalone="no"?>
<svg xmlns:dc="http://purl.org/dc/elements/1.1/" xmlns:cc="http://web.resource.org/cc/" xmlns:rdf="http://www.w3.org/1999/02/22-rdf-syntax-ns#" xmlns:svg="http://www.w3.org/2000/svg" xmlns="http://www.w3.org/2000/svg" id="svg2" width="750" height="500" version="1.0">
  
  <defs id="defs5"/>
  <sodipodi:namedview borderopacity="1.0" bordercolor="#666666" pagecolor="#ffffff" id="base" showguides="true" height="500px" width="750px"/>
  <g id="layer1">
    <rect width="750" height="500" x="0" y="-1.6499939" transform="translate(0,1.649994)" opacity="1" fill="white" fill-opacity="1" fill-rule="nonzero" stroke="none" stroke-width="3.813" stroke-linecap="butt" stroke-linejoin="round" stroke-miterlimit="4" stroke-dasharray="none" stroke-dashoffset="0" stroke-opacity="0.66049386"/>
    <rect width="750" height="125" x="0" y="373.35001" transform="translate(0,1.649994)" fill="#f93f26" fill-opacity="1" stroke="none"/>
    <rect y="-1.6499939" x="0" height="125" width="750" transform="translate(0,1.649994)" fill="#f93f26" fill-opacity="1" stroke="none"/>
    <path d="M 371.5,123.3 L 367.4,130.1 C 365.2,133.9 359.7,139.5 355.3,142.7 C 350.9,145.8 345.6,150.4 343.5,153.0 L 339.6,157.6 L 343.7,156.6 C 346.0,156.0 348.9,155.0 350.2,154.5 C 351.6,153.9 352.7,154.2 352.7,155.2 C 352.7,155.2 352.7,155.2 352.7,155.3 C 352.7,155.3 352.7,155.4 352.7,155.5 C 352.1,157.9 345.0,163.4 339.4,165.7 C 334.1,167.9 326.2,173.7 325.1,176.0 C 325.1,176.1 325.1,176.2 325.1,176.2 C 325.1,176.2 325.1,176.3 325.1,176.3 C 325.0,176.3 325.1,176.4 325.1,176.4 C 325.1,176.4 325.1,176.4 325.1,176.4 C 325.1,176.4 325.1,176.5 325.1,176.5 C 325.1,176.5 325.1,176.5 325.1,176.5 C 325.1,176.5 325.0,176.5 325.1,176.5 C 325.1,176.6 325.1,176.6 325.1,176.6 C 325.1,176.7 325.1,176.7 325.1,176.7 C 325.1,176.7 325.1,176.7 325.1,176.7 C 325.1,176.7 325.2,176.8 325.2,176.8 C 325.2,176.8 325.2,176.8 325.2,176.8 C 325.2,176.8 325.3,176.8 325.3,176.9 C 325.9,177.3 327.6,177.4 329.6,176.9 C 333.1,176.2 334.5,176.6 335.7,179.0 C 337.5,182.6 336.5,184.3 332.4,184.3 C 327.5,184.3 320.5,189.2 319.6,193.4 C 318.9,196.1 316.3,198.4 310.5,201.0 C 301.1,205.3 289.0,213.5 288.2,216.0 C 288.2,216.1 288.2,216.2 288.1,216.2 C 288.1,219.8 296.1,219.6 307.5,215.6 C 310.1,214.7 311.2,215.6 313.1,220.1 C 315.5,225.5 315.5,225.6 309.9,232.8 C 306.0,237.9 302.6,240.4 298.9,241.2 C 291.5,242.8 289.2,244.3 279.6,253.9 C 275.0,258.5 270.3,262.3 269.3,262.3 C 268.9,262.3 268.6,262.4 268.5,262.5 C 268.5,262.5 268.4,262.5 268.4,262.5 C 268.4,262.5 268.4,262.6 268.4,262.6 C 268.4,262.6 268.4,262.6 268.4,262.6 C 268.4,262.6 268.4,262.6 268.4,262.6 C 268.4,262.6 268.4,262.7 268.4,262.7 C 268.4,262.7 268.4,262.7 268.4,262.7 C 268.4,262.7 268.4,262.7 268.4,262.7 C 268.4,262.7 268.4,262.8 268.4,262.8 C 268.4,262.8 268.4,262.8 268.4,262.8 C 268.4,262.8 268.4,262.8 268.4,262.9 C 268.4,262.9 268.4,262.9 268.4,263.0 C 268.4,263.0 268.4,263.0 268.4,263.0 C 268.4,263.0 268.4,263.1 268.4,263.1 C 269.2,264.5 274.3,267.3 277.1,267.3 C 279.2,267.3 284.3,264.9 288.4,262.0 C 295.7,256.9 296.0,256.8 298.9,259.7 C 300.6,261.4 302.0,264.6 302.0,266.9 C 302.0,270.3 300.1,271.8 290.7,276.7 C 283.6,280.3 275.4,286.4 268.9,292.8 C 260.3,301.5 257.8,303.1 254.1,302.5 C 251.8,302.1 250.5,302.0 250.1,302.2 C 250.1,302.2 250.0,302.2 250.0,302.2 C 250.0,302.2 250.0,302.3 250.0,302.3 C 250.0,302.3 250.0,302.3 250.0,302.3 C 250.0,302.3 250.0,302.4 250.0,302.4 C 249.9,302.9 250.7,303.8 252.1,305.3 C 253.5,306.8 256.5,308.0 259.0,308.0 C 265.6,308.0 286.6,300.2 293.0,295.3 C 299.0,290.8 304.9,289.9 309.7,292.8 C 317.2,297.2 304.7,306.1 281.1,313.1 C 272.5,315.7 265.0,318.2 264.0,318.8 C 264.0,318.8 263.9,318.8 263.9,318.9 C 263.9,318.9 263.9,318.9 263.9,318.9 C 263.9,318.9 263.9,318.9 263.9,318.9 C 263.9,318.9 263.9,319.0 263.9,319.0 C 263.5,319.5 264.0,321.0 265.1,322.3 C 267.5,325.6 279.9,325.8 290.5,322.6 C 294.7,321.4 305.2,317.1 313.8,313.2 C 329.5,306.1 329.6,306.1 335.1,309.0 C 347.8,315.6 346.6,327.3 331.3,346.5 C 324.6,354.8 318.7,358.5 308.0,361.2 C 304.0,362.1 295.8,369.8 295.8,372.6 C 295.8,372.9 295.9,373.1 295.9,373.3 L 298.7,373.3 C 299.3,372.9 299.9,372.2 300.5,371.4 C 303.9,366.9 310.7,363.9 317.6,363.9 C 325.2,363.8 334.4,359.7 341.3,353.3 C 347.3,347.6 353.4,345.9 358.1,348.6 C 360.6,350.2 362.9,350.3 366.0,349.1 C 371.5,347.1 374.2,348.1 374.2,352.2 C 374.2,354.0 376.2,356.5 378.8,358.0 C 381.3,359.4 385.8,362.9 388.8,365.8 C 391.1,368.0 392.7,369.0 393.6,369.0 C 393.6,369.0 393.7,369.0 393.7,369.0 C 393.7,369.0 393.8,369.0 393.8,369.0 C 393.8,369.0 393.8,369.0 393.8,369.0 C 393.9,369.0 393.9,368.9 393.9,368.9 C 393.9,368.9 394.0,368.9 394.0,368.9 C 394.0,368.9 394.0,368.8 394.0,368.8 C 394.1,368.8 394.1,368.8 394.1,368.8 C 394.1,368.8 394.1,368.8 394.1,368.8 C 394.1,368.8 394.1,368.8 394.1,368.7 C 394.1,368.7 394.2,368.7 394.2,368.7 C 394.2,368.7 394.2,368.6 394.2,368.6 C 394.2,368.6 394.2,368.6 394.2,368.6 C 394.2,368.5 394.2,368.5 394.3,368.5 C 394.3,368.4 394.2,368.4 394.3,368.3 C 394.3,367.4 393.6,365.4 391.9,362.7 C 390.8,361.1 390.3,359.5 390.5,358.7 C 390.5,358.7 390.5,358.6 390.5,358.6 C 390.5,358.6 390.5,358.5 390.5,358.5 C 390.5,358.5 390.5,358.5 390.5,358.5 C 390.5,358.5 390.6,358.4 390.6,358.4 C 390.6,358.4 390.6,358.4 390.6,358.3 C 390.6,358.3 390.6,358.3 390.7,358.3 C 390.7,358.3 390.7,358.3 390.7,358.3 C 390.7,358.3 390.7,358.2 390.7,358.2 C 390.8,358.2 390.8,358.2 390.8,358.2 C 391.8,357.8 396.8,358.0 402.4,358.7 C 412.2,359.8 413.4,360.4 419.1,367.1 C 422.0,370.4 424.3,372.4 426.2,373.3 L 430.1,373.3 C 431.0,372.9 431.5,372.4 431.7,371.8 C 431.7,371.8 431.7,371.8 431.7,371.8 C 431.7,371.7 431.7,371.7 431.7,371.7 C 431.7,371.7 431.7,371.6 431.7,371.6 C 431.7,371.6 431.7,371.6 431.7,371.5 C 431.7,371.5 431.7,371.5 431.7,371.5 C 431.7,371.5 431.7,371.5 431.7,371.5 C 431.4,370.4 425.6,364.9 418.6,359.1 C 402.9,345.9 400.4,341.1 400.4,322.8 C 400.4,311.9 400.9,309.1 403.4,306.3 C 407.4,301.9 409.6,302.0 419.4,307.1 C 426.7,311.0 429.0,311.3 445.8,310.9 C 463.8,310.5 464.3,310.6 473.4,316.0 C 478.4,318.9 484.6,322.9 487.2,324.8 C 492.8,329.1 498.5,329.3 499.8,325.5 C 501.4,320.9 490.7,312.1 470.7,301.5 C 450.9,290.9 448.8,287.9 457.9,283.1 C 463.2,280.3 463.5,280.4 471.8,285.0 C 478.4,288.7 481.4,289.5 485.7,288.6 L 491.1,287.5 L 479.1,277.7 C 472.6,272.3 466.2,266.6 465.0,265.0 C 461.5,260.3 454.8,257.2 448.1,257.2 C 445.0,257.2 442.1,256.6 441.3,255.8 C 441.3,255.8 441.3,255.8 441.2,255.7 C 441.2,255.7 441.2,255.7 441.2,255.7 C 441.2,255.7 441.2,255.6 441.2,255.6 C 439.3,252.3 444.9,250.7 460.6,250.1 C 481.8,249.3 484.7,246.8 470.1,242.1 C 464.3,240.2 455.6,237.8 450.7,236.8 C 444.8,235.5 441.5,234.1 440.7,232.5 C 440.6,232.4 440.6,232.1 440.5,232.0 C 440.5,231.8 440.5,231.6 440.5,231.5 C 440.6,231.0 440.9,230.4 441.5,229.8 C 442.5,228.7 447.2,228.8 455.3,230.2 C 464.3,231.7 469.3,232.0 470.2,231.0 C 471.1,229.8 466.9,226.7 457.7,221.6 C 449.3,217.0 438.8,209.5 433.9,204.7 C 429.1,200.0 422.0,194.7 418.2,192.8 C 413.1,190.4 411.4,188.8 412.1,186.9 C 413.2,183.6 421.3,183.5 426.5,186.8 C 428.6,188.1 434.1,189.2 438.8,189.2 L 447.2,189.1 L 441.6,186.8 C 436.0,184.6 420.8,173.7 419.6,171.3 C 419.6,171.3 419.6,171.2 419.6,171.1 C 419.6,171.1 419.6,171.1 419.6,171.1 C 419.6,171.1 419.6,171.0 419.6,171.0 C 419.6,171.0 419.6,171.0 419.6,171.0 C 419.6,171.0 419.6,171.0 419.6,171.0 C 419.6,171.0 419.6,171.0 419.6,170.9 C 419.6,170.9 419.6,170.9 419.7,170.9 C 420.3,170.5 423.8,170.3 428.0,170.5 L 436.5,171.0 L 424.3,161.6 C 415.3,154.7 409.8,151.7 403.5,150.4 C 398.8,149.4 393.4,148.2 391.5,147.8 C 386.5,146.6 378.0,137.7 374.5,130.0 L 371.5,123.3 z M 343.8,170.7 C 344.0,170.7 344.2,170.7 344.4,170.7 C 345.9,170.7 347.1,171.1 347.6,171.7 C 347.6,171.7 347.6,171.7 347.6,171.8 C 347.6,171.8 347.6,171.8 347.6,171.8 C 347.7,171.9 347.7,172.0 347.8,172.1 C 347.8,172.1 347.8,172.2 347.8,172.2 C 347.8,172.2 347.8,172.3 347.8,172.3 C 347.8,172.4 347.8,172.4 347.8,172.4 C 347.8,172.5 347.8,172.6 347.8,172.6 C 347.8,172.6 347.7,172.7 347.7,172.7 C 347.4,173.8 345.6,175.8 343.8,177.1 C 342.4,178.2 341.5,178.7 341.0,178.7 C 341.0,178.6 341.0,178.6 340.9,178.6 C 340.9,178.6 340.9,178.6 340.9,178.6 C 340.8,178.6 340.8,178.5 340.8,178.5 C 340.5,178.1 340.4,177.0 340.4,175.2 C 340.4,171.8 341.0,170.8 343.8,170.7 z M 384.9,174.9 C 384.9,174.9 384.9,174.9 385.0,174.9 C 387.4,174.9 389.0,176.1 389.3,177.9 C 389.7,180.3 388.7,180.9 385.0,180.9 C 382.8,180.9 381.6,180.7 381.0,180.1 C 380.6,179.6 380.5,178.9 380.7,177.9 C 381.0,176.1 382.5,175.0 384.9,174.9 z M 372.8,176.0 C 374.9,175.8 375.8,177.0 375.8,179.7 C 375.8,182.8 374.5,183.8 368.8,185.3 C 365.2,186.2 361.9,186.6 361.2,186.3 C 361.2,186.3 361.2,186.3 361.2,186.3 C 361.2,186.3 361.1,186.2 361.1,186.2 C 359.1,184.0 360.9,181.2 365.8,178.7 C 369.0,177.0 371.3,176.1 372.8,176.0 z M 400.5,176.0 C 403.6,175.9 404.0,177.3 402.5,181.6 C 402.0,183.1 399.8,184.3 397.8,184.3 C 394.7,184.3 394.1,183.5 394.5,180.5 C 394.8,177.7 396.2,176.5 399.2,176.1 C 399.7,176.1 400.1,176.0 400.5,176.0 z M 353.8,184.3 C 353.9,184.3 354.0,184.3 354.1,184.3 C 357.8,184.3 355.5,191.3 350.8,194.5 C 346.5,197.3 342.0,198.5 340.8,197.4 C 340.8,197.4 340.7,197.4 340.7,197.4 C 340.7,197.3 340.6,197.2 340.5,197.1 C 340.5,197.1 340.5,197.0 340.5,197.0 C 340.5,197.0 340.5,197.0 340.5,196.9 C 340.5,196.9 340.5,196.9 340.4,196.9 C 340.4,196.8 340.5,196.8 340.4,196.8 C 340.4,196.7 340.4,196.7 340.4,196.6 C 340.4,196.6 340.4,196.6 340.4,196.6 C 340.5,192.8 349.4,184.7 353.8,184.3 z M 388.6,200.4 C 390.4,200.2 391.5,202.2 390.9,205.7 C 390.5,207.7 388.8,209.1 386.1,209.4 C 384.1,209.6 382.8,209.6 382.4,209.0 C 382.4,209.0 382.3,209.0 382.3,209.0 C 382.3,208.9 382.3,208.9 382.3,208.9 C 382.3,208.9 382.3,208.8 382.2,208.8 C 382.2,208.8 382.2,208.8 382.2,208.8 C 382.2,208.7 382.2,208.7 382.2,208.6 C 382.0,207.7 382.9,205.9 385.1,203.1 C 386.3,201.4 387.6,200.6 388.6,200.4 z M 374.8,201.2 C 374.8,201.2 374.9,201.2 375.0,201.2 C 378.5,201.2 379.1,204.3 375.9,206.2 C 374.4,207.1 373.0,207.8 372.5,207.8 C 372.5,207.8 372.5,207.9 372.5,207.9 C 372.4,207.9 372.4,207.8 372.4,207.8 C 372.1,207.7 370.2,207.1 368.1,206.4 L 364.2,205.1 L 368.6,203.1 C 370.8,202.1 373.5,201.3 374.8,201.2 z M 404.6,205.1 C 406.3,205.0 408.1,205.4 409.8,206.1 C 413.0,207.4 413.7,208.6 413.0,212.1 C 412.2,216.9 409.6,217.4 400.7,214.6 C 396.3,213.2 395.9,212.5 397.3,209.6 C 398.6,206.9 401.4,205.3 404.6,205.1 z M 338.6,206.3 C 338.7,206.3 338.8,206.3 338.9,206.3 C 345.3,206.3 346.2,207.4 343.1,211.6 C 342.0,213.0 340.0,215.1 338.6,216.2 C 336.4,218.1 335.8,217.9 334.4,215.0 C 332.7,211.6 332.2,209.4 333.0,208.1 C 333.8,206.9 335.6,206.3 338.6,206.3 z M 321.5,209.2 C 324.3,209.1 326.0,210.4 328.2,214.2 L 331.3,219.5 L 326.6,221.3 C 322.4,222.9 321.7,222.6 318.2,217.7 C 316.0,214.6 315.2,212.5 315.8,211.2 C 315.8,211.1 315.9,211.0 316.0,210.9 C 316.0,210.8 316.0,210.8 316.1,210.8 C 316.1,210.7 316.1,210.7 316.1,210.7 C 316.9,209.9 318.5,209.4 321.0,209.2 C 321.1,209.2 321.3,209.2 321.5,209.2 z M 423.5,225.1 C 426.6,224.9 429.7,227.0 429.3,230.5 C 428.7,235.0 423.9,236.2 419.9,233.0 C 417.5,231.1 417.4,230.4 419.3,227.6 C 420.3,226.0 421.9,225.3 423.5,225.1 z M 365.6,233.4 C 365.7,233.4 365.8,233.4 366.0,233.4 C 366.2,233.4 366.5,233.5 366.7,233.6 C 366.8,233.6 366.9,233.7 367.1,233.7 C 367.1,233.8 367.1,233.8 367.2,233.8 C 367.2,233.9 367.2,233.9 367.2,233.9 C 367.2,233.9 367.3,234.0 367.3,234.0 C 367.3,234.0 367.3,234.0 367.4,234.0 C 367.8,234.6 368.0,235.7 367.8,237.1 C 367.2,241.7 364.2,243.0 362.9,239.3 C 361.7,236.0 362.8,233.6 365.6,233.4 z M 346.3,236.9 C 347.6,236.8 349.7,237.6 351.8,239.4 C 353.3,240.6 353.9,241.8 353.9,242.7 C 353.9,242.7 353.9,242.8 353.8,242.9 C 353.8,243.0 353.8,243.0 353.8,243.1 C 353.8,243.1 353.8,243.2 353.8,243.2 C 353.7,243.3 353.7,243.3 353.7,243.4 C 353.7,243.4 353.6,243.4 353.6,243.4 C 353.6,243.5 353.6,243.5 353.6,243.5 C 353.5,243.6 353.5,243.6 353.4,243.7 C 353.4,243.7 353.4,243.8 353.3,243.8 C 352.5,244.5 350.6,244.3 348.4,242.6 C 346.6,241.3 345.2,239.5 345.0,238.5 C 345.0,238.5 345.0,238.5 345.0,238.5 C 345.0,238.4 345.0,238.4 345.0,238.4 C 345.0,237.5 345.5,237.0 346.3,236.9 z M 377.0,237.6 C 377.6,237.5 378.2,238.1 379.3,239.3 C 380.6,240.7 382.2,243.5 382.7,245.5 C 384.1,250.1 381.9,252.1 377.8,250.0 C 373.3,247.7 372.2,244.1 374.8,240.0 C 375.8,238.4 376.4,237.6 377.0,237.6 z M 387.8,244.0 C 388.9,243.8 390.4,245.5 390.8,248.4 C 391.1,250.1 390.8,251.5 390.3,251.9 C 390.3,251.9 390.3,252.0 390.3,252.0 C 390.3,252.0 390.2,252.0 390.2,252.0 C 390.2,252.0 390.1,252.0 390.1,252.0 C 390.1,252.0 390.1,252.1 390.1,252.1 C 390.1,252.1 390.1,252.1 390.1,252.1 C 390.1,252.1 390.0,252.1 390.0,252.1 C 390.0,252.1 390.0,252.1 390.0,252.1 C 390.0,252.1 390.0,252.1 389.9,252.1 C 387.8,252.1 386.5,250.1 386.5,246.6 C 386.5,244.9 387.1,244.1 387.8,244.0 z M 320.3,250.7 C 322.6,250.7 324.6,250.8 325.9,251.1 C 328.0,251.6 329.5,252.2 330.2,252.9 C 330.3,253.1 330.4,253.3 330.5,253.4 C 330.5,253.5 330.6,253.6 330.6,253.7 C 330.6,253.9 330.6,254.1 330.6,254.3 C 330.3,255.6 328.4,257.2 324.9,259.1 C 322.0,260.6 317.1,262.4 314.0,263.0 C 308.8,264.0 308.0,263.6 305.9,259.0 C 304.6,256.2 303.6,253.6 303.5,253.1 C 303.5,253.1 303.5,253.1 303.5,253.1 C 303.5,253.1 303.5,253.0 303.5,253.0 C 303.5,253.0 303.5,253.0 303.5,253.0 C 303.6,253.0 303.6,252.9 303.6,252.9 C 303.6,252.9 303.6,252.9 303.6,252.9 C 304.7,251.8 313.7,250.7 320.3,250.7 z M 424.9,265.9 C 431.0,265.7 434.3,269.8 427.7,274.9 C 423.4,278.1 417.2,278.3 413.4,275.1 C 410.6,272.9 410.7,272.6 415.8,269.2 C 419.0,267.0 422.2,266.1 424.9,265.9 z M 447.0,270.7 C 447.1,270.7 447.2,270.7 447.3,270.7 C 448.2,270.7 450.3,271.8 451.9,273.1 C 454.8,275.5 454.8,275.6 451.2,279.9 C 449.3,282.1 447.4,283.9 446.7,284.0 C 446.7,284.0 446.7,284.0 446.7,284.0 C 446.7,284.0 446.6,284.0 446.6,284.0 C 446.6,284.0 446.6,284.0 446.6,284.0 C 446.6,284.0 446.6,284.0 446.6,284.0 C 446.1,283.8 443.4,283.4 440.7,283.1 C 437.6,282.6 435.7,281.4 435.7,279.9 C 435.7,279.8 435.7,279.7 435.7,279.7 C 436.2,277.1 443.8,271.1 447.0,270.7 z M 336.1,277.5 C 336.3,277.5 336.7,277.5 337.0,277.5 C 341.2,277.5 343.5,280.9 343.5,287.1 C 343.5,295.5 338.4,294.8 336.0,286.2 C 334.0,278.6 333.8,277.6 336.1,277.5 z M 367.8,279.9 C 370.3,279.8 376.4,281.2 377.1,282.1 C 377.1,282.1 377.2,282.2 377.2,282.2 C 377.2,282.2 377.2,282.2 377.2,282.2 C 377.2,282.2 377.2,282.2 377.2,282.2 C 377.2,282.2 377.2,282.3 377.2,282.3 C 377.2,282.3 377.2,282.3 377.2,282.3 C 377.2,282.3 377.2,282.3 377.2,282.3 C 377.2,282.3 377.2,282.4 377.2,282.4 C 377.2,283.0 375.5,285.7 373.6,288.3 L 370.0,293.1 L 368.1,286.9 C 367.2,283.8 366.6,281.0 366.7,280.3 C 366.7,280.2 366.7,280.2 366.7,280.2 C 366.7,280.2 366.7,280.2 366.7,280.2 C 366.7,280.2 366.7,280.2 366.7,280.2 C 366.7,280.1 366.8,280.1 366.8,280.1 C 366.8,280.1 366.8,280.1 366.8,280.1 C 366.8,280.1 366.8,280.1 366.8,280.1 C 366.8,280.1 366.8,280.1 366.8,280.1 C 366.9,280.1 366.9,280.0 366.9,280.0 C 366.9,280.0 366.9,280.0 366.9,280.0 C 367.1,279.9 367.4,279.9 367.8,279.9 z M 352.3,282.6 C 352.8,282.6 353.5,282.7 354.5,282.9 C 356.5,283.2 358.3,284.8 358.6,286.6 C 359.0,288.7 358.8,290.2 358.2,291.0 C 358.2,291.0 358.1,291.1 358.1,291.1 C 358.0,291.2 358.0,291.3 357.9,291.3 C 357.9,291.3 357.8,291.4 357.8,291.4 C 357.7,291.4 357.6,291.5 357.5,291.5 C 357.4,291.6 357.3,291.6 357.3,291.6 C 357.2,291.6 357.1,291.6 357.0,291.6 C 356.0,291.4 354.6,290.2 353.5,287.7 C 352.2,284.9 351.5,283.5 351.8,283.0 C 351.8,282.9 351.8,282.9 351.9,282.8 C 352.0,282.7 352.1,282.6 352.3,282.6 z " transform="translate(0,1.649994)" fill="#009e3f" fill-opacity="1" stroke="none"/>
  </g>
</svg>
