<?xml version="1.0" encoding="UTF-8" standalone="no"?>
<svg xmlns:dc="http://purl.org/dc/elements/1.1/" xmlns:cc="http://web.resource.org/cc/" xmlns:rdf="http://www.w3.org/1999/02/22-rdf-syntax-ns#" xmlns:svg="http://www.w3.org/2000/svg" xmlns="http://www.w3.org/2000/svg" height="500" id="svg697" width="1000" version="1.0">
  <defs id="defs699"/>
  <sodipodi:namedview id="base" showgrid="true" snaptogrid="false"/>
  <g transform="matrix(1.007936,0,0,1.007936,0,3.844975e-5)">
    <rect y="0" x="0" width="992.12598" height="496.06299" font-size="12px" fill="#0021ad" fill-opacity="1" fill-rule="evenodd" stroke-width="1pt"/>
    <path d="M 1.23596e-006,-3.8147e-005 L 992.1,496.0 L 991.5,0.367 L 1.23596e-006,-3.8147e-005 z " font-size="12px" fill="#1c8a42" fill-opacity="1" fill-rule="evenodd" stroke="none" stroke-width="2.237pt" stroke-opacity="1"/>
    <path transform="matrix(2.566054,0,0,2.566053,2.886167,-1.874863)" d="M 227.50007 97.283752 A 34.921883 34.921875 0 1 1  157.6,97.28 A 34.921883 34.921875 0 1 1  227.50007 97.283752 z" fill="#ffc639" fill-opacity="1" fill-rule="evenodd" stroke="none" stroke-width="1pt" stroke-linecap="butt" stroke-linejoin="miter" stroke-opacity="1"/>
    <path d="M 441.3,207.7 C 447.4,216.1 456.7,230.2 464.2,226.6 C 470.0,226.6 473.0,227.0 473.8,230.9 C 487.6,233.2 510.7,227.4 525.0,208.7 C 525.0,208.7 526.3,208.8 525.8,201.7 C 525.9,198.6 530.1,199.2 530.2,200.2 C 530.8,201.8 530.7,202.9 531.4,203.0 C 533.2,202.4 535.6,198.4 537.7,195.9 C 538.2,194.8 537.9,193.6 538.0,192.2 C 539.1,189.6 541.8,190.2 542.3,191.5 C 542.8,192.4 542.9,193.1 543.4,194.0 C 546.1,195.8 551.0,194.1 551.3,194.1 C 551.8,191.9 553.2,192.1 553.2,192.1 C 555.0,191.7 554.3,191.9 555.5,192.5 C 554.5,204.4 557.9,204.9 557.6,211.1 C 557.7,217.9 555.5,219.8 555.5,222.4 C 556.2,225.6 566.3,225.7 562.7,228.4 C 559.6,230.0 562.8,233.2 558.1,234.4 C 544.5,241.3 541.8,247.2 541.8,247.2 C 541.8,247.2 538.4,253.7 538.0,253.7 C 535.8,258.0 532.9,255.6 531.3,257.7 C 530.5,260.4 529.6,266.2 531.2,269.3 C 532.0,273.4 531.1,275.7 530.1,279.9 C 529.2,288.6 525.7,289.9 525.3,293.0 C 523.7,296.3 525.6,311.6 524.1,311.6 C 514.0,311.8 506.2,309.7 502.2,308.9 C 506.1,292.0 504.6,277.2 504.6,275.7 C 503.6,263.7 486.5,266.6 483.9,265.0 C 481.8,264.5 480.4,262.8 479.6,262.0 C 477.2,261.8 476.3,261.2 473.9,261.0 C 472.7,261.6 473.5,262.2 470.8,263.0 C 464.0,263.8 461.0,257.1 461.0,257.1 C 461.3,254.8 445.7,257.5 437.2,255.6 C 433.7,257.5 432.243,263.3 429.3,263.9 C 429.3,265.7 424.7,262.5 423.7,260.7 C 423.5,255.6 428.2,253.4 428.2,253.4 C 431.8,250.8 434.0,250.4 435.8,248.6 C 436.731,244.2 436.2,240.9 438.1,237.5 C 439.7,235.0 442.1,236.2 443.7,235.0 C 445.4,233.9 446.1,226.5 444.5,224.4 C 444.5,224.4 437.7,218.2 437.3,217.8 C 435.0,211.4 439.9,207.3 441.3,207.7 z " fill="#1c8a42" fill-opacity="1" fill-rule="evenodd" stroke="none" stroke-width="1pt" stroke-linecap="butt" stroke-linejoin="miter" stroke-opacity="1"/>
    <path d="M 871.0,96.78 C 866.9,80.72 830.6,46.11 803.3,24.09 C 796.7,19.65 792.5,22.30 793.3,28.63 C 796.7,34.30 799.3,40.54 802.7,46.21 C 803.6,49.99 805.4,52.63 806.4,56.41 C 806.4,56.41 806.7,62.93 807.2,63.50 C 815.7,72.86 816.9,80.80 816.9,80.80 C 821.8,90.25 826.1,97.14 834.7,104.8 C 844.4,110.9 837.3,129.7 837.6,139.7 C 837.6,146.1 833.0,145.3 829.1,144.5 C 797.8,115.8 766.8,115.7 739.5,107.4 C 728.8,106.3 728.6,111.4 732.1,114.2 C 751.2,134.6 769.1,148.5 792.8,160.1 C 796.7,162.6 800.7,165.0 804.7,167.5 C 809.2,171.3 813.7,175.1 818.3,178.8 C 828.8,185.7 829.6,191.9 829.6,192.5 C 829.9,205.2 823.1,215.1 821.1,219.1 C 817.5,232.6 810.3,235.0 810.3,235.0 C 751.9,274.4 721.3,284.6 626.6,272.4 C 625.2,271.6 616.1,273.2 626.6,276.9 C 650.7,285.0 709.9,297.9 767.2,270.7 C 781.0,261.1 790.2,264.3 800.1,258.5 C 816.5,248.4 839.8,235.8 844.1,234.4 C 856.8,227.6 892.6,220.0 900.8,213.2 C 910.2,212.4 920.0,211.2 920.7,203.0 C 923.8,201.0 928.3,202.5 931.7,195.9 C 939.2,194.6 937.9,191.9 937.9,191.9 C 936.0,186.6 929.0,184.4 924.0,180.5 C 916.7,178.1 911.6,177.3 906.2,180.0 C 904.5,180.7 902.8,181.5 901.1,182.2 C 901.1,182.2 893.1,181.1 893.1,180.5 C 875.5,179.6 877.2,121.1 871.0,96.78 z " fill="#ffc639" fill-opacity="1" fill-rule="evenodd" stroke="none" stroke-width="1pt" stroke-linecap="butt" stroke-linejoin="miter" stroke-opacity="0.49685501"/>
    <path transform="matrix(2.007221,0.63038,-0.674064,1.877137,250.8724,-169.601)" d="M 354.375 73.88562 A 2.070312 1.367188 0 1 1  350.2,73.88 A 2.070312 1.367188 0 1 1  354.375 73.88562 z" fill="#1c8a42" fill-opacity="1" fill-rule="evenodd" stroke="none" stroke-width="1pt" stroke-linecap="butt" stroke-linejoin="miter" stroke-opacity="1"/>
    <polygon d="M 73.82,356.0 L 60.02,343.1 L 46.05,355.8 L 47.55,336.9 L 28.88,334.0 L 44.54,323.4 L 35.23,306.9 L 53.27,312.6 L 60.33,295.0 L 67.16,312.7 L 85.27,307.3 L 75.74,323.6 L 91.28,334.4 L 72.57,337.1 L 73.82,356.0 z " transform="matrix(0.916571,0,0,0.91657,119.0079,-136.8826)" sodipodi:r2="16.001135" sodipodi:r1="32.00227" sodipodi:arg2="1.577221" sodipodi:arg1="1.1284221" points="73.8263,356.021 60.0238,343.1 46.05,355.8 47.55,336.9 28.88,334.0 44.54,323.4 35.23,306.9 53.27,312.6 60.33,295.0 67.16,312.7 85.27,307.3 75.74,323.6 91.28,334.4 72.57,337.1 73.82,356.0 " font-size="12px" fill="white" fill-opacity="1" fill-rule="evenodd" stroke-width="1pt"/>
    <polygon d="M 159.7,320.1 L 146.8,311.2 L 134.2,320.6 L 138.6,305.5 L 125.8,296.4 L 141.5,296.0 L 146.2,281.1 L 151.5,295.8 L 167.1,295.7 L 154.7,305.2 L 159.7,320.1 z " transform="matrix(1.05522,0,0,1.02765,62.97,3.91022)" sodipodi:r2="8.4676905" sodipodi:r1="21.712027" sodipodi:arg2="1.5520667" sodipodi:arg1="0.92374814" points="159.76,320.135 146.8,311.2 134.2,320.6 138.6,305.5 125.8,296.4 141.5,296.0 146.2,281.1 151.5,295.8 167.1,295.7 154.7,305.2 159.7,320.1 " font-size="12px" fill="white" fill-opacity="1" fill-rule="evenodd" stroke-width="1pt"/>
    <polygon d="M 73.82,356.0 L 60.02,343.1 L 46.05,355.8 L 47.55,336.9 L 28.88,334.0 L 44.54,323.4 L 35.23,306.9 L 53.27,312.6 L 60.33,295.0 L 67.16,312.7 L 85.27,307.3 L 75.74,323.6 L 91.28,334.4 L 72.57,337.1 L 73.82,356.0 z " transform="matrix(0.916571,0,0,0.91657,226.5818,-52.52496)" sodipodi:r2="16.001135" sodipodi:r1="32.00227" sodipodi:arg2="1.577221" sodipodi:arg1="1.1284221" points="73.8263,356.021 60.0238,343.1 46.05,355.8 47.55,336.9 28.88,334.0 44.54,323.4 35.23,306.9 53.27,312.6 60.33,295.0 67.16,312.7 85.27,307.3 75.74,323.6 91.28,334.4 72.57,337.1 73.82,356.0 " font-size="12px" fill="white" fill-opacity="1" fill-rule="evenodd" stroke-width="1pt"/>
    <polygon d="M 73.82,356.0 L 60.02,343.1 L 46.05,355.8 L 47.55,336.9 L 28.88,334.0 L 44.54,323.4 L 35.23,306.9 L 53.27,312.6 L 60.33,295.0 L 67.16,312.7 L 85.27,307.3 L 75.74,323.6 L 91.28,334.4 L 72.57,337.1 L 73.82,356.0 z " transform="matrix(0.916571,0,0,0.91657,7.824602,-14.63)" sodipodi:r2="16.001135" sodipodi:r1="32.00227" sodipodi:arg2="1.577221" sodipodi:arg1="1.1284221" points="73.8263,356.021 60.0238,343.1 46.05,355.8 47.55,336.9 28.88,334.0 44.54,323.4 35.23,306.9 53.27,312.6 60.33,295.0 67.16,312.7 85.27,307.3 75.74,323.6 91.28,334.4 72.57,337.1 73.82,356.0 " font-size="12px" fill="white" fill-opacity="1" fill-rule="evenodd" stroke-width="1pt"/>
    <polygon d="M 73.82,356.0 L 60.02,343.1 L 46.05,355.8 L 47.55,336.9 L 28.88,334.0 L 44.54,323.4 L 35.23,306.9 L 53.27,312.6 L 60.33,295.0 L 67.16,312.7 L 85.27,307.3 L 75.74,323.6 L 91.28,334.4 L 72.57,337.1 L 73.82,356.0 z " transform="matrix(0.916571,0,0,0.91657,121.5094,130.0597)" sodipodi:r2="16.001135" sodipodi:r1="32.00227" sodipodi:arg2="1.577221" sodipodi:arg1="1.1284221" points="73.8263,356.021 60.0238,343.1 46.05,355.8 47.55,336.9 28.88,334.0 44.54,323.4 35.23,306.9 53.27,312.6 60.33,295.0 67.16,312.7 85.27,307.3 75.74,323.6 91.28,334.4 72.57,337.1 73.82,356.0 " font-size="12px" fill="white" fill-opacity="1" fill-rule="evenodd" stroke-width="1pt"/>
  </g>
  
</svg>
