<?xml version="1.0" standalone="no"?>
<!DOCTYPE svg PUBLIC "-//W3C//DTD SVG 1.1//EN" "http://www.w3.org/Graphics/SVG/1.1/DTD/svg11.dtd">
<svg 
	height="400" 
	width="600" 
	version="1.1" 
	xmlns="http://www.w3.org/2000/svg">
	<desc>flag of Rwanda</desc>
<!--
	from http://commons.wikimedia.org/wiki/Image:Flag_of_Rwanda.svg
	this file is in the public domain
-->
	<rect 
		fill="#0084c9" 
		height="200" 
		width="600" />
	<rect 
		fill="#f9d616" 
		height="100" 
		width="600" 
		y="200" />
	<rect 
		fill="#007c59" 
		height="100" 
		width="600" 
		y="300" />
	<path 
		fill="#eaaf0f" 
		d="M 559.38653,145.63653 L 528.35857,121.8431 L 543.31064,157.972 L 519.49813,126.95868 L 524.58987,165.7264 L 509.61558,129.6067 L 504.5,168.37128 L 499.38442,129.6067 L 484.41014,165.7264 L 489.50187,126.95868 L 465.68936,157.972 L 480.64143,121.8431 L 449.61347,145.63653 L 473.4069,114.60857 L 437.278,129.56064 L 468.29132,105.74813 L 429.5236,110.83987 L 465.6433,95.865582 L 426.87872,90.75 L 465.6433,85.634418 L 429.5236,70.660135 L 468.29132,75.751873 L 437.278,51.939362 L 473.4069,66.891426 L 449.61347,35.863469 L 480.64143,59.656901 L 465.68936,23.528003 L 489.50187,54.541319 L 484.41013,15.773604 L 499.38442,51.893299 L 504.5,13.128723 L 509.61558,51.893299 L 524.58986,15.773604 L 519.49813,54.541319 L 543.31064,23.528002 L 528.35857,59.656901 L 559.38653,35.863469 L 535.5931,66.891426 L 571.722,51.939361 L 540.70868,75.751873 L 579.4764,70.660135 L 543.3567,85.634418 L 582.12128,90.75 L 543.3567,95.865582 L 579.4764,110.83986 L 540.70868,105.74813 L 571.722,129.56064 L 535.5931,114.60857 L 559.38653,145.63653 z" />
	<path 
		fill="#eaaf0f" 
		d="M 532.75 90.75 A 28.25 28.25 0 1 1  476.25,90.75 A 28.25 28.25 0 1 1  532.75 90.75 z" 
		stroke="#0084c9" 
		stroke-width="2.8" />
</svg>