<?xml version="1.0" encoding="UTF-8" standalone="no"?>
<svg xmlns:dc="http://purl.org/dc/elements/1.1/" xmlns:cc="http://web.resource.org/cc/" xmlns:rdf="http://www.w3.org/1999/02/22-rdf-syntax-ns#" xmlns:svg="http://www.w3.org/2000/svg" xmlns="http://www.w3.org/2000/svg" height="500" id="svg678" width="1000" version="1.0">
  
  <defs id="defs680"/>
  <sodipodi:namedview id="base"/>
  <rect height="500" width="1000" x="0" y="0" font-size="12px" fill="#ea0437" fill-opacity="1" fill-rule="evenodd" stroke-width="1pt"/>
  <path d="M 230.2,369.1 C 219.4,372.1 213.2,380.5 213.4,388.4 L 266.6,388.2 C 267.0,379.7 260.0,371.8 249.4,368.7 C 301.5,367.6 346.8,348.1 355.0,335.6 C 346.8,332.1 337.4,337.8 330.7,336.5 C 346.6,329.1 394.4,298.2 386.6,265.1 C 380.6,283.5 362.3,298.7 354.5,302.8 C 372.4,275.7 396.7,247.5 375.6,225.7 C 376.6,238.4 367.5,252.3 363.5,253.3 C 373.9,224.7 383.7,188.8 361.3,165.2 C 364.3,173.7 363.1,197.8 359.0,198.9 C 357.8,179.5 354.5,138.6 334.0,139.2 C 340.5,144.9 343.3,160.8 343.5,176.7 C 338.8,165.8 333.5,157.5 322.2,149.5 C 313.0,131.9 296.6,117.3 280.3,106.8 C 282.1,119.6 283.7,129.8 301.6,143.0 C 292.2,142.5 282.9,124.8 272.9,124.3 C 265.0,123.9 258.8,131.5 245.8,127.1 C 247.3,131.4 253.3,133.3 254.6,136.5 C 251.8,138.4 245.2,136.2 239.7,133.3 C 247.3,143.6 258.9,149.6 268.9,147.6 C 280.6,145.3 293.3,146.5 305.3,153.4 C 302.3,154.9 290.3,154.9 282.6,154.0 C 289.6,161.0 294.3,165.7 306.4,165.7 C 317.3,165.6 323.0,159.9 325.8,163.4 C 332.6,171.5 337.1,179.5 342.8,189.0 C 330.3,190.4 334.0,174.8 320.0,166.8 C 312.2,183.1 329.1,202.4 340.6,210.5 C 340.8,222.7 342.6,232.9 347.8,242.3 C 351.3,248.8 355.8,255.6 354.1,270.4 C 347.2,265.4 340.4,248.4 342.9,235.0 C 334.3,237.4 330.9,252.5 335.0,260.2 C 338.0,266.0 340.0,277.1 336.5,282.1 C 333.1,286.7 332.8,286.2 332.8,296.2 C 332.9,302.1 329.6,309.2 324.2,314.1 C 325.3,309.9 326.6,302.7 325.4,298.2 C 321.1,305.4 310.3,312.9 306.9,320.7 C 303.6,328.6 302.8,342.1 286.7,345.3 C 266.0,349.4 258.9,353.0 245.6,358.4 C 244.1,348.3 248.5,327.2 257.0,328.4 C 265.2,329.9 290.2,319.8 281.3,298.7 C 279.5,305.4 273.6,311.8 267.2,312.1 C 274.1,303.2 286.4,293.9 280.4,279.0 C 277.1,285.3 271.9,293.0 263.9,297.3 C 272.5,280.9 264.9,276.1 254.8,289.5 C 251.0,294.7 248.7,305.1 246.3,318.3 C 242.3,307.5 242.6,293.4 237.9,281.9 C 233.0,269.5 244.4,266.3 249.8,267.3 C 262.9,270.8 285.0,270.8 283.3,249.0 C 277.6,256.4 267.7,258.7 256.9,256.0 C 269.0,247.2 278.5,230.5 265.1,221.9 C 264.6,231.1 257.5,241.4 248.0,246.1 C 245.7,238.4 245.7,230.1 247.7,221.1 C 242.3,226.7 238.5,238.3 235.4,251.5 C 235.1,238.5 237.6,229.0 239.5,222.0 C 242.2,211.7 249.1,218.4 259.7,219.2 C 269.9,219.8 283.9,214.1 281.2,200.3 C 277.8,205.8 270.6,207.9 263.3,207.3 C 272.1,202.0 287.4,192.6 279.0,178.0 C 275.5,183.5 274.4,188.2 264.2,189.9 C 266.8,183.8 267.3,175.1 275.2,171.7 C 261.1,168.8 253.0,178.1 248.9,192.6 C 247.2,182.6 245.2,178.9 244.8,171.5 C 252.5,163.0 253.3,146.4 236.7,142.7 C 235.7,151.3 236.0,153.3 237.9,160.3 C 230.2,155.7 219.2,153.1 211.9,159.7 C 216.9,165.0 224.5,169.7 236.3,163.9 C 233.5,172.9 226.3,171.4 216.3,167.9 C 222.4,179.3 230.1,181.4 238.5,180.0 C 243.0,191.7 243.2,200.6 230.2,217.6 C 230.8,207.0 230.1,199.1 221.7,190.6 C 214.5,183.6 208.6,190.9 219.9,206.6 C 213.0,201.5 205.3,191.4 203.0,181.2 C 200.8,193.8 202.8,208.6 209.8,216.9 C 206.5,220.4 202.7,216.5 197.2,207.9 C 199.3,235.5 211.0,240.8 226.8,234.7 C 227.3,249.8 227.3,263.8 228.2,282.1 C 219.0,268.8 207.3,258.9 200.8,256.5 C 198.7,263.9 206.4,273.6 210.7,279.0 C 204.1,277.6 190.0,266.8 190.0,266.8 C 188.5,279.1 204.4,290.5 214.7,295.6 C 202.6,295.1 197.3,290.5 189.5,283.0 C 189.7,317.1 226.5,311.2 233.4,305.9 C 234.3,322.7 235.5,342.1 236.4,358.9 C 226.0,357.1 226.9,354.0 218.0,353.1 C 193.3,352.2 173.7,323.5 167.2,302.4 C 165.3,305.9 166.8,309.5 165.1,313.8 C 161.1,303.4 156.0,290.0 149.1,283.8 C 150.8,289.8 151.0,296.0 150.4,307.3 C 148.0,299.9 145.9,297.7 145.7,289.1 C 145.8,282.5 152.1,277.7 151.7,268.4 C 151.5,261.6 145.3,247.0 144.4,235.6 C 141.4,247.3 139.5,259.6 134.9,266.8 C 137.2,254.4 136.5,245.8 140.3,237.4 C 144.8,228.5 148.6,220.6 145.6,211.7 C 142.8,215.1 143.7,218.3 136.6,226.6 C 135.0,217.5 145.8,203.0 156.3,197.1 C 163.6,193.2 172.9,179.3 166.9,169.8 C 160.0,174.8 156.8,181.5 147.0,193.0 C 154.0,165.7 172.2,158.6 193.9,158.5 C 198.7,158.4 208.4,156.7 211.1,150.3 C 205.0,152.7 197.8,153.0 191.3,151.7 C 196.0,144.8 205.9,145.7 215.1,145.7 C 222.3,145.7 233.6,144.7 238.1,134.4 C 229.3,138.2 215.6,139.0 206.9,136.3 C 220.7,129.2 242.2,128.4 253.3,119.1 C 240.7,109.7 209.2,121.2 189.3,134.9 C 194.8,129.8 203.6,120.8 208.5,113.5 C 197.6,108.3 170.1,138.8 160.6,156.9 C 151.6,162.0 148.0,170.0 144.5,175.5 C 149.3,159.3 149.8,147.5 153.8,134.2 C 122.9,144.8 135.7,201.9 129.0,215.5 C 129.8,200.4 129.2,181.1 123.0,171.1 C 113.5,178.4 112.7,221.1 121.6,256.6 C 118.4,247.1 112.3,238.2 110.4,226.6 C 96.34,252.3 118.6,282.6 137.3,306.5 C 123.2,299.2 109.3,283.5 100.2,270.3 C 102.7,316.2 150.7,325.7 158.2,337.0 C 148.0,332.3 128.7,323.0 120.5,332.8 C 133.9,335.9 144.5,339.4 153.1,345.0 C 165.6,360.6 189.1,367.4 230.2,369.1 z " fill="#ffc726" fill-opacity="1" fill-rule="evenodd" stroke="none" stroke-width="1pt" stroke-linecap="butt" stroke-linejoin="miter" stroke-opacity="1"/>
  <path d="M 2.5534057e-009,499.99986 L 1000,499.68666 L 999.9,249.9 L 2.5534057e-009,499.99986 z " fill="#4189dd" fill-opacity="1" fill-rule="evenodd" stroke="none" stroke-width="1pt" stroke-linecap="butt" stroke-linejoin="miter" stroke-opacity="1"/>
  <path d="M 2.5534057e-009,0.00033999558 L 999.9,0.313 L 999.9,250.0 L 2.5534057e-009,0.00033999558 z " fill="#12ad2b" fill-opacity="1" fill-rule="evenodd" stroke="none" stroke-width="1pt" stroke-linecap="butt" stroke-linejoin="miter" stroke-opacity="1"/>
</svg>
