<?xml version="1.0" encoding="UTF-8" standalone="no"?>
<svg xmlns:dc="http://purl.org/dc/elements/1.1/" xmlns:cc="http://web.resource.org/cc/" xmlns:rdf="http://www.w3.org/1999/02/22-rdf-syntax-ns#" xmlns:svg="http://www.w3.org/2000/svg" xmlns="http://www.w3.org/2000/svg" height="500" id="svg551" version="1.0" width="1000" x="0.0000000" y="0.0000000">
  <sodipodi:namedview borderopacity="1.0" bordercolor="#666666" pagecolor="#ffffff" id="base"/>
  
  <defs id="defs553"/>
  <rect height="500" width="1000" x="0" y="0" font-size="12px" fill="#ffce00" fill-opacity="1" fill-rule="evenodd" stroke-width="1pt"/>
  <rect height="416.63052" width="159.79514" x="198.98448" y="41.684628" font-size="12px" fill="#ff7300" fill-opacity="1" fill-rule="evenodd" stroke-width="1pt"/>
  <rect height="416.69562" width="157.45161" x="41.663048" y="41.684608" font-size="12px" fill="#007229" fill-opacity="1" fill-rule="evenodd" stroke-width="1pt"/>
  <rect height="416.70642" width="557.83893" x="400.48727" y="41.671368" font-size="12px" fill="#9c1e3d" fill-opacity="1" fill-rule="evenodd" stroke-width="1pt"/>
  <g transform="matrix(2.314545,0,0,2.314545,0,-7.135594e-5)">
    <path d="M 267.9,101.3 L 271.5,101.436 C 271.5,101.436 267.4,104.8 268.4,109.3 C 272.5,103.1 274.1,104.3 274.1,104.3 C 272.8,105.7 270.4,107.6 272.3,111.8 C 273.9,107.5 277.3,104.2 277.3,104.2 C 277.3,104.2 276.421,109 278.4,113.3 C 279.884,109 282.3,105.2 282.3,105.2 C 282.3,105.2 281.9,110.0 284.0,111.7 C 285.7,110.2 286.8,106.5 286.8,106.5 C 286.8,106.5 289.9,112.0 291.8,112.8 C 293.3,109.0 293.3,106.1 293.3,106.1 C 293.3,106.1 299.7,110.7 304.8,108.0 C 300.2,106.4 298.7,102.6 298.7,102.6 C 298.7,102.6 307.0,106.2 310.5,104.6 C 307.1,101.9 299.0,98.06 299.0,98.06 C 299.0,98.06 305.0,100.2 306.7,99.70 C 305.9,98.51 303.3,97.06 303.3,97.06" fill="#ffce00" fill-opacity="1" fill-rule="evenodd" stroke="#9c1e3d" stroke-width="1pt" stroke-linecap="round" stroke-linejoin="round" stroke-opacity="1"/>
    <path d="M 317.72,56.88 C 328.71,55.88 345.69,64.86 354.69,70.85 C 354.69,68.85 354.69,66.86 356.68,65.86 C 358.68,64.86 361.68,66.86 360.68,69.85 C 357.68,76.83 345.69,68.85 341.7,66.86 C 341.7,66.86 343.7,70.85 343.7,70.85 C 337.7,69.85 336.7,68.85 332.71,63.86 C 331.71,67.85 331.71,68.85 326.71,68.85 C 328.59,65.89 329.22,64.9 326.71,61.87 C 326.71,61.87 325.71,67.85 325.71,67.85 C 325.71,67.85 320.72,60.87 320.72,60.87 C 320.72,60.87 320.72,67.85 320.72,67.85 C 319.72,66.86 315.72,63.86 313.72,63.86 C 310.73,62.86 308.73,68.85 307.73,71.85 C 310.73,68.85 311.72,66.86 316.72,68.85 C 314.01,71.41 314.8,74.48 317.72,76.83 C 317.72,76.83 318.24,72.68 318.56,71.73 C 320.15,72.92 323.52,77.39 327.71,77.83 C 330.71,77.83 333.71,76.83 336.7,75.84 C 346.69,74.84 368.67,76.83 363.68,91.8 C 362.68,94.8 361.68,96.79 359.68,98.79 C 373.6,103.7 361.6,121.7 358.6,130.7 C 356.68,138.7 358.0,145.0 367.9,144.0 C 365.9,148.0 362.6,148.6 358.6,148.6 C 358.6,148.6 359.1,151.0 361.7,152.2 C 357.4,156.0 363.2,161.7 360.6,164.6 C 356.3,166.7 350.6,163.6 350.6,163.6 C 350.6,163.6 350.4,166.4 350.4,166.4 C 350.4,166.4 342.8,165.9 342.7,165.64 C 342.7,165.64 344.8,161.6 344.6,161.5 C 342.6,164.5 340.7,166.2 336.7,165.64 C 336.7,165.64 337.0,163.7 339.2,161.3 C 336.22,164.4 335.8,165.7 332.7,165.6 C 332.7,160.6 335.7,154.67 341.7,156.66 C 342.7,156.66 345.8,159.1 347.3,157.5 C 348.5,155.8 347.82,150 347.82,148 C 348.4,139.1 346.69,139.7 341.7,134.71 C 337.7,131.72 334.7,127.1 329.7,126.1 C 324.7,125.1 316.7,130.7 312.7,132.7 C 302.73,138.7 293.7,142.6 282.7,144.6 C 282.7,144.6 282.9,144.1 282.9,143.1 C 282.9,142.5 293.7,134.1 295.6,119.3 C 292.6,133.9 282.2,141.607 281.8,144.3 C 281.4,147.0 279.2,151.6 279.0,151.9 C 280.3,151.1 284.4,149.1 289.7,148.6 C 288.6,154.9 282.7,153.6 281.7,156.6 C 281.7,159.6 285.7,163.6 281.7,165.6 C 281.7,165.6 265.7,165.6 265.7,165.6 C 265.7,165.6 268.2,162.2 268.3,161.2 C 266.1,162.6 264.8,166.0 260.1,165.6 C 260.2,164.3 262.5,162.3 262.1,161.5 C 259.4,164.0 258.2,166.1 254.7,165.6 C 255.7,162.6 255.7,158.6 259.7,158.6 C 262.7,157.6 265.7,159.6 267.7,156.6 C 271.7,151.6 267.0,140.7 266.0,134.7 C 266.0,129.7 266.0,128.8 264.7,122.7 C 264.7,122.7 265.77,140.7 265.77,140.7 C 261.77,137.7 257.7,135.7 254.7,131.7 C 247.7,122.7 249.7,112.7 258.7,106.7 C 262.7,103.7 264.9,102.2 269.9,100.2 C 268.93,97.23 271.35,95.02 267.81,94.09 C 266.75,95.94 265.71,97.96 263.69,97.79 C 263.69,97.79 264.77,92.8 264.77,92.8 C 264.77,92.8 261.17,93.02 261.88,99.46 C 257.74,97.47 259.77,92.8 259.77,92.8 C 259.77,92.8 257.77,92.8 257.77,92.8 C 257.77,92.8 257.76,98.74 254.5,99.94 C 255.38,97.15 255.77,92.8 255.77,92.8 C 255.77,92.8 250.42,99.18 247.31,97.11 C 249.14,95.04 250.56,94.7 250.31,92.2 C 250.07,89.71 248.7,86.49 248.5,85.98 C 249.6,86.53 257.2,88.78 261.9,86.44 C 261.6,88.00 261.77,89.81 261.77,89.81 C 266.76,88.81 267.76,88.81 272.76,90.8 C 271.76,83.82 267.76,82.82 263.77,77.83 C 263.77,77.83 263.77,81.82 263.77,81.82 C 259.77,80.83 258.77,79.83 256.77,75.84 C 256.77,75.84 253.78,77.83 253.78,77.83 C 248.51,74.72 244.62,67.34 252.1,67.77 C 256.56,68.33 252.78,71.85 252.78,71.85 C 252.78,71.85 264.22,68.25 268.76,67.85 C 268.76,67.85 267.44,65.06 263.22,64.58 C 266.72,61.95 270.24,61.1 272.76,66.64 C 275.27,66.78 277.61,63.76 276.12,59.84 C 279.83,59.78 281.66,62.13 283.35,64.6 C 284.73,64.85 286.12,63.4 285.79,58.44 C 289.29,61.43 291.01,62.35 291.24,64.87 C 294.22,65.53 296.24,64.86 300.73,62.86 C 299.74,66.86 299.74,67.85 295.74,69.85 C 298.5,73.33 298.8,77.54 298.2,79.06 C 297.2,78.78 297.0,78.72 296.3,78.53 C 296.5,80.07 296.8,84.31 296.74,86.81 C 296.74,86.81 294.74,86.81 294.74,86.81 C 294.74,86.81 297.74,95.79 297.74,95.79 C 297.74,95.79 295.74,98.79 295.74,98.79 C 302.73,95.79 309.73,96.79 316.72,94.8 C 324.71,93.8 332.71,90.8 341.7,90.8 C 347.69,90.8 347.69,93.8 355.69,93.8 C 355.69,91.8 355.69,90.8 355.69,88.81 C 355.69,84.82 352.69,80.83 347.69,79.83 C 344.7,79.83 339.7,81.82 336.7,82.82 C 332.71,83.82 326.71,83.82 322.71,83.82 C 309.73,81.82 311.8,80.56 307.27,78.13 C 304.56,78.85 303.04,81.15 301.69,85.21 C 299.18,81.53 299.74,76.83 302.73,74.84 C 299.74,63.86 307.73,58.87 317.72,56.88 z " id="selection_to_path#1" fill="#ffce00" fill-opacity="1" stroke="none" stroke-width="1" stroke-linejoin="round" stroke-opacity="1"/>
    <path d="M 320.7,146.6 C 318.7,143.6 311.72,138.7 313.7,133.7 C 316.7,128.7 333.7,120.7 336.7,131.72 C 337.7,134.71 334.6,142.6 333.6,145.6 C 335.1,145.2 336.8,142.9 341.7,143.7 C 340.8,147.6 334.8,150.7 334.8,150.7 C 335.4,153.3 330.7,165.6 330.7,165.6 C 330.7,165.6 317.7,165.6 317.7,165.6 C 317.7,165.6 319.7,161.6 319.7,161.6 C 319.7,161.6 316.7,165.6 316.7,165.6 C 316.7,165.6 311.7,165.6 311.7,165.6 C 311.7,165.6 315.7,160.6 315.7,160.6 C 315.7,160.6 310.9,166.1 306.9,165.9 C 307.9,157.9 312.7,156.6 319.7,159.6 C 320.7,155.6 322.7,150.6 320.7,146.6 z " id="selection_to_path" fill="#ffce00" fill-opacity="1" stroke="#9c1e3d" stroke-width="1" stroke-linejoin="round" stroke-opacity="1"/>
    <path d="M 267.2,71.54 C 265.8,72.37 266.9,77.85 269.0,76.91 C 271.6,75.75 268.2,70.91 267.2,71.54 z " fill="#ffce00" fill-opacity="1" fill-rule="evenodd" stroke="#9c1e3d" stroke-width="1pt" stroke-linecap="butt" stroke-linejoin="miter" stroke-opacity="1"/>
    <path d="M 268.4,69.81 C 270.9,71.54 274.8,76.19 279.7,75.91 C 276.0,72.90 276.7,70.72 276.7,70.72 C 278.7,73.0007 285.0,75.09 287.1,74.18 C 284.7,72.36 284.2,72.18 283.7,70.44 C 286.6,70.81 290.2,71.45 293.1,70.17" fill="#ffce00" fill-opacity="1" fill-rule="evenodd" stroke="#9c1e3d" stroke-width="1pt" stroke-linecap="round" stroke-linejoin="round" stroke-opacity="1"/>
    <path d="M 273.2,100.2 L 273.5,96.05 C 273.5,96.05 276.2,102.4 278.2,102.5 C 276.9,97.88 277.5,94.14 277.5,94.14" fill="#ffce00" fill-opacity="1" fill-rule="evenodd" stroke="#9c1e3d" stroke-width="1pt" stroke-linecap="round" stroke-linejoin="round" stroke-opacity="1"/>
    <path d="M 279.6,95.14 C 279.6,95.14 285.0,105.1 287.7,103.5 C 283.7,99.97 284.1,95.32 284.1,95.32 C 284.1,95.32 285.9,101.5 291.3,103.4 C 291.7,99.97 289.2,94.32 289.2,94.32 C 289.2,94.32 293.7,102.1 296.0,102.3 C 297.4,100.5 296.9,98.61 296.9,98.61" fill="#ffce00" fill-opacity="1" fill-rule="evenodd" stroke="#9c1e3d" stroke-width="1pt" stroke-linecap="round" stroke-linejoin="round" stroke-opacity="1"/>
    <path d="M 275.3,88.22 L 279.3,93.32 L 279.9,86.48 C 279.9,86.48 283.8,89.58 284.6,89.49 C 285.3,89.40 283.5,82.20 283.5,82.20 C 283.5,82.20 288.8,90.22 289.1,90.04 C 289.5,89.86 289.7,82.11 289.7,82.11 C 289.7,82.11 293.7,93.14 295.1,93.05 C 296.472,92.96 296.1,91.50 296.1,91.50" fill="#ffce00" fill-opacity="1" fill-rule="evenodd" stroke="#9c1e3d" stroke-width="1pt" stroke-linecap="round" stroke-linejoin="round" stroke-opacity="1"/>
    <path d="M 272.3,79.28 C 272.3,79.28 278.5,84.93 279.1,84.57 C 279.7,84.21 276.6,78.01 276.6,78.01 C 276.6,78.01 280.1,81.38 281.5,81.65 C 282.8,81.93 281.9,77.28 281.9,77.28 C 281.9,77.28 286.1,80.83 286.9,80.65 C 287.6,80.47 287.2,77.28 287.2,77.28 C 287.2,77.28 290.0,80.01 290.1,80.01 C 290.3,80.01 289.6,72.18 289.6,72.18 C 289.6,72.18 295.7,78.65 296.1,78.56" fill="#ffce00" fill-opacity="1" fill-rule="evenodd" stroke="#9c1e3d" stroke-width="1pt" stroke-linecap="round" stroke-linejoin="round" stroke-opacity="1"/>
    <path d="M 247.5,81.29 C 247.804,81.75 248.8,89.80 261.3,86.52 C 262.4,85.89 261.9,88.78 261.9,89.62 C 262.4,89.53 268.4,87.41 272.5,90.42 C 272.0,87.08 271.1,84.84 267.5,82.93 C 265.8,82.57 264.5,83.45 264.5,83.45 C 264.5,83.45 249.5,83.57 247.5,81.29 z " fill="#ffce00" fill-opacity="1" fill-rule="evenodd" stroke="#9c1e3d" stroke-width="1pt" stroke-linecap="round" stroke-linejoin="round" stroke-opacity="1"/>
    <path d="M 240.7,132.6 C 240.5,133.5 239.8,133.8 237.9,136.5 C 238.8,137.6 242.6,139.4 243.6,138.4 C 244.6,137.9 244.6,135.5 244.6,135.5 C 246.6,138.4 250.1,143.2 254.1,144.2 C 257.1,145.2 260.1,143.2 260.1,140.2 C 260.1,137.2 255.6,132.3 253.6,130.4 C 248.6,124.4 249.1,113.1 239.6,114.6 C 239.6,114.7 239.2,116.0 238.3,116.2 C 239.0,117.7 239.5,118.9 237.7,119.421 C 239.1,120.8 239.3,121.8 237.5,122.5 C 238.6,123.9 239.9,124.5 237.3,125.7 C 240.0,128.3 240.5,132.1 240.7,132.6" id="selection_to_path#2" fill="#ffce00" fill-opacity="1" stroke="#9c1e3d" stroke-width="1" stroke-linecap="round" stroke-linejoin="round" stroke-opacity="1"/>
    <path d="M 238.2,48.04 C 235.2,52.39 234.9,100.2 235.8,109.9 C 232.8,111.8 227.2,111.0 225.7,110.4 C 226.4,107.0 229.0,51.46 238.2,48.04 z " fill="#ffce00" fill-opacity="1" fill-rule="evenodd" stroke="#9c1e3d" stroke-width="1pt" stroke-linecap="butt" stroke-linejoin="miter" stroke-opacity="1"/>
    <path d="M 229.7,146.1 C 229.7,146.1 216.4,148.0 222.0,140.1 C 226.8,138.1 226.7,142.9 224.9,144.6 C 227.1,144.8 228.6,143.4 228.9,141.3 C 226.2,137.6 230.0,135.3 229.8,135.3 C 220.6,137.3 219.3,131.0 222.8,130.0 C 227.1,130.2 225.7,131.6 227.4,132.9 C 230.5,130.0 232.4,129.7 234.3,132.7 C 236.1,129.8 238.8,130.1 238.9,130.4 C 241.9,135.5 235.3,135.8 232.6,135.1 C 234.9,137.6 234.0,140.0 233.2,141.8 C 233.3,143.5 234.6,143.8 236.8,144.5 C 232.2,131.9 252.8,147.8 232.1,146.2 C 232.1,146.8 232.2,147.3 232.2,147.9 C 233.9,148.2 235.1,148.6 235.6,150.4 C 234.9,151.4 233.8,151.5 232.0,150.8 C 232.0,150.8 233.0,153.7 231.2,154.5 C 229.6,153.6 229.4,151.3 229.4,151.3 C 228.5,152.4 227.3,151.7 226.2,150.8 C 227.2,148.4 229.9,149.6 229.7,146.1 z " fill="#ffce00" fill-opacity="1" fill-rule="evenodd" stroke="none" stroke-width="0.25" stroke-linecap="butt" stroke-linejoin="round" stroke-opacity="1"/>
    <path d="M 218.3,107.8 C 219.1,104.2 227.5,104.6 223.5,108.5 C 226.2,112.8 234.3,112.1 237.4,109.8 C 234.8,104.8 241.8,105.9 241.5,109.7 C 240.7,116.3 217.4,115.4 218.3,107.8 z " fill="#ffce00" fill-opacity="1" fill-rule="evenodd" stroke="none" stroke-width="1pt" stroke-linecap="butt" stroke-linejoin="round" stroke-opacity="1"/>
    <path d="M 384.2,171.4 C 386.76,176.1 391.1,187.1 393.6,189.7 C 395.9,191.8 401.6,191.5 403.4,189.27 C 403.4,189.27 407.0,193.0 408.5,194.1 C 409.4,193.8 409.9,193.0 409.9,193.0 C 408.4,191.4 406.4,190.5 405.4,187.5 C 406.9,185.5 407.7,181.6 406.7,178.6 C 402.3,171.3 387.8,174.2 384.2,171.4 z " fill="#ffce00" fill-opacity="1" stroke="#9c1e3d" stroke-width="1" stroke-opacity="1"/>
    <path d="M 202.8,44.2868 C 200.3,39.62 195.8,28.58 193.4,25.94 C 191.1,23.89 185.4,24.13 183.6,26.45 C 183.6,26.45 180.0,22.68 178.5,21.54 C 177.6,21.84 177.1,22.68 177.1,22.68 C 178.6,24.3068 180.6,25.21 181.6,28.21 C 180.1,30.20 179.3,34.07 180.3,37.07 C 184.6,44.39 199.2,41.50 202.8,44.2868 z " fill="#ffce00" fill-opacity="1" stroke="#9c1e3d" stroke-width="1" stroke-opacity="1"/>
    <path d="M 201.3,170.7 C 196.6,173.2 185.6,177.6 182.9,180.0 C 180.9,182.3 181.1,188.1 183.4,189.8 C 183.4,189.8 179.7,193.5 178.5,195.0 C 178.8,195.8 179.7,196.4 179.7,196.4 C 181.3,194.9 182.2,192.9 185.2,191.9 C 187.2,193.3 191.1,194.2 194.1,193.2 C 201.4,188.8 198.5,174.3 201.3,170.7 z " fill="#ffce00" fill-opacity="1" stroke="#9c1e3d" stroke-width="1" stroke-opacity="1"/>
    <path d="M 384.6,44.28 C 387.1,39.62 391.5,28.58 394.0,25.94 C 396.3,23.89 402.0,24.13 403.7,26.45 C 403.7,26.45 407.4,22.68 408.9,21.54 C 409.8,21.84 410.3,22.68 410.3,22.68 C 408.8,24.30 406.8,25.21 405.8,28.21 C 407.3,30.20 408.1,34.07 407.1,37.07 C 402.7,44.39 388.2,41.50 384.6,44.28 z " fill="#ffce00" fill-opacity="1" stroke="#9c1e3d" stroke-width="1" stroke-opacity="1"/>
    <path d="M 222.1,116.0 C 221.9,117.5 225.5,118.2 229.2,118.2 C 232.9,118.2 236.7,117.6 236.9,116.5 C 236.9,114.6 233.6,116.2 229.9,116.2 C 226.2,116.2 223.0,114.7 222.1,116.0 z " fill="#ffce00" fill-opacity="1" fill-rule="evenodd" stroke="#ffce00" stroke-width="1pt" stroke-linecap="butt" stroke-linejoin="round" stroke-opacity="1"/>
    <path d="M 222.3,120.2 C 222.4,121.6 226.0,122.0 229.2,122.1 C 232.41,122.2 235.6,121.5 236.2,120.5 C 235.6,118.9 232.1,120.2 229.2,120.3 C 226.3,120.4 223.1,118.9 222.3,120.2 z " fill="#ffce00" fill-opacity="1" fill-rule="evenodd" stroke="#ffce00" stroke-width="1pt" stroke-linecap="butt" stroke-linejoin="round" stroke-opacity="1"/>
    <path d="M 223.4,124.0 C 223.1,125.0 226.3,125.8 229.2,125.8 C 232.1,125.8 236.3,124.7 236.3,123.6 C 236.1,122.7 232.0,123.9 229.3,124.0 C 226.5,124.1 223.4,123.0 223.4,124.0 z " fill="#ffce00" fill-opacity="1" fill-rule="evenodd" stroke="#ffce00" stroke-width="1pt" stroke-linecap="butt" stroke-linejoin="round" stroke-opacity="1"/>
    <path d="M 223.0,127.8 C 223.3,128.9 226.9,129.2 230.0,129.0 C 233.2,128.8 236.4,127.8 236.7,126.7 C 236.5,125.9 232.9,127.2 229.9,127.4 C 226.9,127.5 223.0,127.0 223.0,127.8 z " fill="#ffce00" fill-opacity="1" fill-rule="evenodd" stroke="#ffce00" stroke-width="1pt" stroke-linecap="butt" stroke-linejoin="round" stroke-opacity="1"/>
  </g>
</svg>
