<?xml version="1.0" encoding="UTF-8" standalone="no"?>
<svg xmlns:svg="http://www.w3.org/2000/svg" xmlns="http://www.w3.org/2000/svg" xmlns:xlink="http://www.w3.org/1999/xlink" version="1.0" width="900" height="600" id="Flag_of_Malta">
  <defs id="defs550"/>
  <rect width="450" height="600" x="450" y="0" fill="#cf142b"/>
  <rect width="450" height="600" x="0" y="0" fill="white"/>
  <g>
    <path d="M 100.1,91.32 C 100.1,92.28 99.01,93.06 97.67,93.06 C 96.32,93.06 95.23,92.28 95.23,91.32 C 95.23,90.36 96.32,89.58 97.67,89.58 C 99.01,89.58 100.1,90.36 100.1,91.32 z " fill="#f1eeee" fill-opacity="1" fill-rule="evenodd" stroke="none" stroke-width="1pt" stroke-linecap="butt" stroke-linejoin="miter" stroke-opacity="1"/>
    <path d="M 24,82.907903 L 24,127.09204 L 68.18,127.0 C 68.18,134.4 75.54,141.8 82.91,141.8 L 82.910224,186 L 127.08977,186 L 127.0,141.8 C 134.4,141.8 141.8,134.4 141.8,127.0 L 186,127.09204 L 186,82.907903 L 141.8,82.90 C 141.8,75.54 134.4,68.18 127.0,68.18 L 127.0,23.99 L 82.91,23.99 L 82.91,68.18 C 75.54,68.18 68.18,75.54 68.18,82.90 L 24,82.907903 z " font-size="12px" fill="#e60d2e" fill-opacity="1" fill-rule="evenodd" stroke-width="1pt"/>
    <path d="M 25.47,84.38 L 25.47,125.6 L 69.65,125.6 C 69.65,132.9 77.01,140.3 84.38,140.3 L 84.38,184.5 L 125.6,184.5 L 125.6,140.3 C 132.9,140.3 140.3,132.9 140.3,125.6 L 184.5,125.6 L 184.5,84.38 L 140.3,84.38 C 140.3,77.01 132.9,69.65 125.6,69.65 L 125.6,25.47 L 84.38,25.47 L 84.38,69.65 C 77.01,69.65 69.65,77.01 69.65,84.38 L 25.47,84.38 z " font-size="12px" fill="#cf142b" fill-opacity="1" fill-rule="evenodd" stroke-width="1pt"/>
    <path d="M 26.94,85.85 L 26.94,124.1 L 71.12,124.1 C 71.12,131.5 78.49,138.8 85.85,138.8 L 85.85,183.0 L 124.1,183.0 L 124.1,138.8 C 131.5,138.8 138.8,131.5 138.8,124.1 L 183.0,124.1 L 183.0,85.85 L 138.8,85.85 C 138.8,78.49 131.5,71.12 124.1,71.12 L 124.1,26.94 L 85.85,26.94 L 85.85,71.12 C 78.49,71.12 71.12,78.49 71.12,85.85 L 26.94,85.85 z " font-size="12px" fill="#96877d" fill-opacity="1" fill-rule="evenodd" stroke-width="1pt"/>
    <path d="M 28.42,87.32 L 28.42,122.6 L 72.59,122.6 C 72.59,130.0 79.96,137.4 87.32,137.4 L 87.32,181.5 L 122.6,181.5 L 122.6,137.4 C 130.0,137.4 137.4,130.0 137.4,122.6 L 181.5,122.6 L 181.5,87.32 L 137.4,87.32 C 137.4,79.96 130.0,72.59 122.6,72.59 L 122.6,28.41 L 87.32,28.41 L 87.32,72.59 C 79.96,72.59 72.59,79.96 72.59,87.32 L 28.42,87.32 z " font-size="12px" fill="#ccc" fill-opacity="1" fill-rule="evenodd" stroke-width="1pt"/>
    <path d="M 87.69,68.94 C 90.28,71.53 88.18,77.83 83.00,83.00 C 77.83,88.18 71.53,90.28 68.94,87.69 C 66.35,85.10 68.45,78.81 73.63,73.63 C 78.81,68.45 85.10,66.36 87.69,68.94 z " fill="#d0d0d0" fill-opacity="1" fill-rule="evenodd" stroke="none" stroke-width="1pt" stroke-linecap="butt" stroke-linejoin="miter" stroke-opacity="1"/>
    <path d="M 84.56,72.07 C 87.15,74.66 86.45,79.55 83.00,83.00 C 79.55,86.45 74.66,87.15 72.07,84.56 C 69.48,81.98 70.18,77.08 73.63,73.63 C 77.08,70.18 81.98,69.48 84.56,72.07 z " fill="#96877d" fill-opacity="1" fill-rule="evenodd" stroke="none" stroke-width="1pt" stroke-linecap="butt" stroke-linejoin="miter" stroke-opacity="1"/>
    <path d="M 71.55,79.88 L 72.59,78.84 L 76.75,80.92 L 74.67,76.75 L 75.71,75.71 L 79.88,84.04 L 71.55,79.88 z " fill="#d0d0d0" fill-opacity="1" fill-rule="evenodd" stroke="none" stroke-width="1pt" stroke-linecap="butt" stroke-linejoin="miter" stroke-opacity="1"/>
    <rect width="1.4727269" height="8.8363628" x="2.9466841" y="107.08002" transform="matrix(0.707097,-0.707117,0.707097,0.707117,0,0)" font-size="12px" fill="#d0d0d0" fill-opacity="1" fill-rule="evenodd" stroke-width="1pt"/>
    <path d="M 141.0,87.69 C 138.4,90.28 132.1,88.18 126.9,83.00 C 121.8,77.83 119.7,71.53 122.3,68.94 C 124.8,66.36 131.1,68.45 136.3,73.63 C 141.5,78.81 143.6,85.10 141.0,87.69 z " fill="#d0d0d0" fill-opacity="1" fill-rule="evenodd" stroke="none" stroke-width="1pt" stroke-linecap="butt" stroke-linejoin="miter" stroke-opacity="1"/>
    <path d="M 137.9,84.56 C 135.3,87.15 130.4,86.45 126.9,83.00 C 123.5,79.55 122.8,74.66 125.4,72.07 C 128.0,69.48 132.9,70.18 136.3,73.63 C 139.8,77.08 140.5,81.98 137.9,84.56 z " fill="#96877d" fill-opacity="1" fill-rule="evenodd" stroke="none" stroke-width="1pt" stroke-linecap="butt" stroke-linejoin="miter" stroke-opacity="1"/>
    <path d="M 130.1,71.55 L 131.1,72.59 L 129.0,76.75 L 133.2,74.67 L 134.2,75.71 L 125.9,79.88 L 130.1,71.55 z " fill="#d0d0d0" fill-opacity="1" fill-rule="evenodd" stroke="none" stroke-width="1pt" stroke-linecap="butt" stroke-linejoin="miter" stroke-opacity="1"/>
    <rect width="1.4727269" height="8.8363628" x="151.43839" y="-41.414047" transform="matrix(0.707097,0.707117,-0.707097,0.707117,0,0)" font-size="12px" fill="#d0d0d0" fill-opacity="1" fill-rule="evenodd" stroke-width="1pt"/>
    <path d="M 122.3,141.0 C 119.7,138.4 121.8,132.1 126.9,126.9 C 132.1,121.8 138.4,119.7 141.0,122.3 C 143.6,124.8 141.5,131.1 136.3,136.3 C 131.1,141.5 124.8,143.6 122.3,141.0 z " fill="#d0d0d0" fill-opacity="1" fill-rule="evenodd" stroke="none" stroke-width="1pt" stroke-linecap="butt" stroke-linejoin="miter" stroke-opacity="1"/>
    <path d="M 125.4,137.9 C 122.8,135.3 123.5,130.4 126.9,126.9 C 130.4,123.5 135.3,122.8 137.9,125.4 C 140.5,128.0 139.8,132.9 136.3,136.3 C 132.9,139.8 128.0,140.5 125.4,137.9 z " fill="#96877d" fill-opacity="1" fill-rule="evenodd" stroke="none" stroke-width="1pt" stroke-linecap="butt" stroke-linejoin="miter" stroke-opacity="1"/>
    <path d="M 138.4,130.1 L 137.4,131.1 L 133.2,129.0 L 135.3,133.2 L 134.2,134.2 L 130.1,125.9 L 138.4,130.1 z " fill="#d0d0d0" fill-opacity="1" fill-rule="evenodd" stroke="none" stroke-width="1pt" stroke-linecap="butt" stroke-linejoin="miter" stroke-opacity="1"/>
    <rect width="1.4727269" height="8.8363628" x="2.9443223" y="-189.90593" transform="matrix(-0.707097,0.707117,-0.707097,-0.707117,0,0)" font-size="12px" fill="#d0d0d0" fill-opacity="1" fill-rule="evenodd" stroke-width="1pt"/>
    <path d="M 68.94,122.3 C 71.53,119.7 77.83,121.8 83.00,126.9 C 88.18,132.1 90.28,138.4 87.69,141.0 C 85.10,143.6 78.81,141.5 73.63,136.3 C 68.45,131.1 66.36,124.8 68.94,122.3 z " fill="#d0d0d0" fill-opacity="1" fill-rule="evenodd" stroke="none" stroke-width="1pt" stroke-linecap="butt" stroke-linejoin="miter" stroke-opacity="1"/>
    <path d="M 72.07,125.4 C 74.66,122.8 79.55,123.5 83.00,126.9 C 86.45,130.4 87.15,135.3 84.56,137.9 C 81.98,140.5 77.08,139.8 73.63,136.3 C 70.18,132.9 69.48,128.0 72.07,125.4 z " fill="#96877d" fill-opacity="1" fill-rule="evenodd" stroke="none" stroke-width="1pt" stroke-linecap="butt" stroke-linejoin="miter" stroke-opacity="1"/>
    <path d="M 79.88,138.4 L 78.84,137.4 L 80.92,133.2 L 76.75,135.3 L 75.71,134.2 L 84.04,130.1 L 79.88,138.4 z " fill="#d0d0d0" fill-opacity="1" fill-rule="evenodd" stroke="none" stroke-width="1pt" stroke-linecap="butt" stroke-linejoin="miter" stroke-opacity="1"/>
    <rect width="1.4727269" height="8.8363628" x="-145.54758" y="-41.411674" transform="matrix(-0.707097,-0.707117,0.707097,-0.707117,0,0)" font-size="12px" fill="#d0d0d0" fill-opacity="1" fill-rule="evenodd" stroke-width="1pt"/>
    <path d="M 135.9,105.0 C 135.9,122.0 122.0,135.9 104.9,135.9 C 87.91,135.9 74.06,122.0 74.07,105.0 C 74.06,87.91 87.91,74.06 104.9,74.06 C 122.0,74.06 135.9,87.91 135.9,105.0 L 135.9,105.0 z " fill="none" fill-opacity="1" fill-rule="evenodd" stroke="#96877d" stroke-width="0.499" stroke-linecap="butt" stroke-linejoin="miter" stroke-opacity="1"/>
    <path d="M 128.5,105.0 C 128.5,118.0 118.0,128.5 104.9,128.5 C 91.98,128.5 81.43,118.0 81.43,105.0 C 81.43,91.98 91.98,81.43 104.9,81.43 C 118.0,81.43 128.5,91.98 128.5,105.0 L 128.5,105.0 z " fill="none" fill-opacity="1" fill-rule="evenodd" stroke="#96877d" stroke-width="0.499" stroke-linecap="butt" stroke-linejoin="miter" stroke-opacity="1"/>
    <path d="M 94.69,130.0 C 94.69,130.5 94.41,131.0 93.95,131.3 C 93.49,131.5 92.93,131.5 92.48,131.3 C 92.02,131.0 91.74,130.5 91.74,130.0 C 91.74,129.5 92.02,129.0 92.48,128.7 C 92.93,128.4 93.49,128.4 93.95,128.7 C 94.41,129.0 94.69,129.5 94.69,130.0 L 94.69,130.0 z " fill="black" fill-opacity="1" fill-rule="evenodd" stroke="none" stroke-width="1pt" stroke-linecap="butt" stroke-linejoin="miter" stroke-opacity="1"/>
    <path d="M 118.2,130.0 C 118.2,130.5 117.9,131.0 117.5,131.3 C 117.0,131.5 116.5,131.5 116.0,131.3 C 115.5,131.0 115.3,130.5 115.3,130.0 C 115.3,129.5 115.5,129.0 116.0,128.7 C 116.5,128.4 117.0,128.4 117.5,128.7 C 117.9,129.0 118.2,129.5 118.2,130.0 L 118.2,130.0 z " fill="black" fill-opacity="1" fill-rule="evenodd" stroke="none" stroke-width="1pt" stroke-linecap="butt" stroke-linejoin="miter" stroke-opacity="1"/>
    <path d="M 104.0,130.0 L 104.0,131.5 L 102.0,131.5 C 100.0,131.5 100.0,133.1 102.0,133.1 L 104.0,133.1 L 104.0,134.6 C 104.0,136.2 105.7,136.4 105.8,134.7 L 105.9,133.1 L 107.9,133.1 C 109.9,133.1 109.9,131.5 107.9,131.5 L 105.9,131.5 L 105.9,130.0 C 105.9,128.5 104.0,128.5 104.0,130.0 z " fill="black" fill-opacity="1" fill-rule="evenodd" stroke="none" stroke-width="1pt" stroke-linecap="butt" stroke-linejoin="miter" stroke-opacity="1"/>
    <g transform="matrix(0.197226,0,0,0.197226,246.5925,-44.46005)">
      <path d="M -632.68559,780.63036 C -630.06551,779.96745 -625.74079,780.50409 -625.74079,780.50409 C -625.74079,780.50409 -625.36198,782.30343 -626.4984,782.90321 C -625.23571,783.62926 -620.69002,783.40828 -620.69002,783.40828 C -620.69002,783.40828 -622.45779,784.76568 -623.34167,785.30232 C -621.70017,785.46016 -619.67987,787.57516 -619.67987,787.57516 C -619.67987,787.57516 -623.46794,788.2065 -625.10944,787.32262 C -624.09929,789.34292 -624.22556,791.11069 -624.22556,791.11069 C -624.22556,791.11069 -630.34961,789.59547 -632.55932,785.55486" fill="#96877d" fill-opacity="1" fill-rule="evenodd" stroke="black" stroke-width="1px" stroke-linecap="butt" stroke-linejoin="miter" stroke-opacity="1"/>
      <path d="M -642.91338,777.22109 C -644.39704,780.8829 -655.28775,774.06437 -655.28775,774.06437 C -655.28775,774.06437 -650.48952,781.67208 -643.29218,782.5244" fill="#96877d" fill-opacity="1" fill-rule="evenodd" stroke="black" stroke-width="1px" stroke-linecap="butt" stroke-linejoin="miter" stroke-opacity="1"/>
      <path d="M -778.90517,847.04789 L -651.37341,847.04789 L -641.52442,839.21921 L -657.9394,830.38038 L -683.19321,821.79408 L -693.29474,816.23824 L -711.98256,817.24839 L -727.63992,825.58215 L -749.10567,828.10753 L -754.15643,833.91591 L -770.06634,835.1786 L -795.06761,834.67352 L -753.39882,841.23952 L -787.744,839.47175 L -778.90517,847.04789 z " fill="#96877d" fill-opacity="1" fill-rule="evenodd" stroke="black" stroke-width="1px" stroke-linecap="butt" stroke-linejoin="miter" stroke-opacity="1"/>
      <path d="M -710.21479,810.42986 C -726.18783,801.84356 -730.85978,822.99363 -737.74145,828.10753 C -728.46067,829.68589 -721.45274,820.97333 -713.49779,816.74332 C -707.46531,833.16941 -697.96669,822.29916 -697.96669,822.29916 C -697.96669,822.29916 -688.05457,838.01965 -674.85945,830.88545 C -671.26078,833.60023 -667.28331,831.13799 -667.28331,831.13799 C -667.28331,831.13799 -662.48508,832.02187 -661.47493,829.8753 C -658.94955,830.75918 -656.17163,827.60246 -656.17163,827.60246 C -656.17163,827.60246 -650.67893,827.66559 -649.60564,824.82454 C -641.46129,826.27663 -630.66528,808.15702 -630.66528,808.15702 L -627.38228,801.84357 L -622.58406,800.83341 C -622.58406,800.83341 -622.26838,797.67669 -624.8569,797.80296 C -624.92003,795.90892 -626.56153,794.89876 -628.89751,795.27757 C -628.45557,794.14115 -630.1602,793.25727 -630.1602,793.25727 C -634.70589,794.39369 -634.95843,805.88418 -634.95843,805.88418 C -634.95843,805.88418 -642.91338,811.94509 -645.81757,813.46032 C -645.94384,806.89433 -656.92924,797.99236 -654.6564,793.76235 C -652.38356,789.53234 -645.24936,800.26521 -638.99904,798.30804 C -632.74873,796.35086 -629.67771,788.22069 -629.40259,781.89305 C -631.17036,777.5999 -635.4635,770.52884 -635.4635,770.52884 L -639.50412,770.2763 L -643.03965,761.69 C -643.03965,761.69 -650.48953,766.55137 -650.36326,770.78138 C -650.23699,775.0114 -642.53457,778.61006 -642.53457,778.61006 C -642.53457,778.61006 -646.9761,781.38597 -651.12087,780.12529 C -651.49968,784.41844 -646.07011,783.59769 -644.0498,783.66082 C -643.03965,786.75441 -640.00919,788.45905 -640.00919,788.45905 C -640.00919,788.45905 -638.11516,793.19413 -643.03965,792.75219 C -647.96414,792.31025 -653.774,780.96388 -660.71732,786.1862 C -668.10406,791.74205 -657.43432,801.84357 -657.43432,801.84357 C -657.43432,801.84357 -663.93718,805.25284 -667.78839,813.9654 C -683.50889,800.70715 -692.72652,806.89433 -710.21479,810.42986 z " fill="#96877d" fill-opacity="1" fill-rule="evenodd" stroke="black" stroke-width="1px" stroke-linecap="butt" stroke-linejoin="miter" stroke-opacity="1"/>
      <path d="M -733.19577,787.95397 C -726.62978,794.14115 -731.20884,804.42555 -728.65008,806.38925 C -725.9353,808.47269 -722.08409,805.3791 -722.08409,805.3791 C -715.20242,807.21 -702.89119,803.35879 -702.89119,803.35879 C -697.47314,806.38843 -699.61181,801.91769 -696.3252,802.0961 C -693.42101,809.54597 -683.69829,808.15702 -683.69829,808.15702 C -683.69829,808.15702 -692.60026,799.06565 -698.09296,796.54027 C -702.32297,799.06565 -714.63421,799.44446 -716.78078,799.06565 C -719.17266,798.64355 -717.66467,795.71951 -718.80109,794.01488 C -714.27445,789.60865 -717.85407,778.67319 -720.31632,774.56945 C -730.3506,767.88503 -742.33818,779.339 -733.19577,787.95397 z " fill="#96877d" fill-opacity="1" fill-rule="evenodd" stroke="black" stroke-width="1px" stroke-linecap="butt" stroke-linejoin="miter" stroke-opacity="1"/>
      <path d="M -776.84844,769.43987 C -785.10737,771.67201 -799.43773,758.77023 -806.13416,763.72559 C -812.83058,768.68095 -809.70559,780.86844 -805.2413,786.93987 C -800.87971,792.87163 -811.62523,795.02023 -814.52701,798.54702 C -817.25502,801.8626 -813.63416,805.68988 -813.63416,805.68988 L -810.59844,807.65415 L -811.13416,812.11844 L -809.52701,817.47559 C -809.52701,817.47559 -808.0538,818.77023 -807.56273,817.11844 C -806.1788,818.50237 -807.41654,822.50423 -803.9913,823.0113 C -805.21782,820.44842 -803.09844,813.36844 -803.09844,813.36844 C -803.09844,813.36844 -797.1163,813.81487 -795.59844,811.22559 C -794.08058,808.6363 -797.02701,803.0113 -797.02701,803.0113 C -797.02701,803.0113 -795.2413,803.0113 -795.2413,803.0113 C -797.25023,801.62737 -797.91987,797.47559 -797.91987,797.47559 C -797.91987,797.47559 -789.6163,794.84166 -789.70558,788.54702 C -789.79487,782.25238 -803.18773,775.55595 -798.27701,772.29702 C -792.83059,768.68094 -783.3663,781.67201 -775.2413,775.68987 C -767.20072,769.76989 -772.38416,775.5113 -772.38416,775.5113 C -772.38416,775.5113 -768.70912,767.24005 -776.84844,769.43987 z " fill="#96877d" fill-opacity="1" fill-rule="evenodd" stroke="black" stroke-width="1px" stroke-linecap="butt" stroke-linejoin="miter" stroke-opacity="1"/>
      <path d="M -734.20592,681.00407 C -745.25447,676.39525 -767.82506,676.11114 -780.4204,669.89239 C -785.94467,670.23963 -788.40692,674.59591 -788.62789,676.33211 C -794.4047,676.04801 -798.31904,685.13938 -797.46672,686.93872 C -807.97862,682.67713 -812.87155,699.31308 -809.46228,702.72235 C -818.42739,703.10116 -817.32253,714.56007 -818.17485,717.74837 C -821.04747,724.72474 -817.53514,727.07216 -811.8614,724.5669 C -811.00908,727.59736 -812.202,729.29487 -814.76559,729.8702 C -799.20417,747.67767 -790.40927,718.91126 -776.7586,719.01106 C -759.71506,714.02157 -753.02001,705.62654 -753.02001,705.62654 L -746.32775,706.51042 C -746.32775,706.51042 -734.20592,681.00407 -734.20592,681.00407 z " fill="#96877d" fill-opacity="1" fill-rule="evenodd" stroke="black" stroke-width="1px" stroke-linecap="butt" stroke-linejoin="miter" stroke-opacity="1"/>
      <path d="M 136.7,57.99 C 136.7,66.98 129.4,74.28 120.4,74.28 C 111.4,74.28 104.1,66.98 104.1,57.99 C 104.1,48.99 111.4,41.70 120.4,41.70 C 129.4,41.70 136.7,48.99 136.7,57.99 L 136.7,57.99 z " transform="translate(-840.3982,610.2576)" opacity="1" fill="#96877d" fill-opacity="1" fill-rule="nonzero" stroke="black" stroke-width="1" stroke-linecap="round" stroke-miterlimit="4" stroke-dasharray="none" stroke-dashoffset="0" stroke-opacity="1"/>
      <path d="M -748.60059,796.54027 C -758.70212,794.70937 -775.43277,784.22903 -777.1374,770.52884 C -767.73036,733.59514 -719.20496,752.88181 -715.01827,725.10261 C -716.08472,706.77543 -712.80297,688.6331 -702.63865,673.30166 C -697.90356,667.30388 -691.77951,665.72551 -691.77951,665.72551 C -691.77951,665.72551 -690.68262,669.63725 -692.28459,672.2915 C -684.2665,671.40762 -673.28109,675.89017 -665.76808,676.33211 C -663.55837,680.81467 -663.74777,682.45616 -664.25285,685.17095 C -664.75793,687.88573 -667.78839,687.19125 -667.78839,687.19125 C -669.74824,689.05036 -672.10388,690.94198 -677.38484,689.96917 C -681.36231,692.99963 -689.7592,693.75725 -689.7592,693.75725 C -689.7592,693.75725 -672.2078,712.25566 -675.11199,718.0009 C -671.45019,719.70553 -666.02062,727.84989 -666.02062,727.84989 C -666.02062,727.84989 -654.02506,721.53644 -650.11072,715.72806 C -643.16592,715.72806 -631.8017,722.98853 -626.11959,723.80928 C -619.17479,729.42825 -612.23,735.1735 -612.23,735.1735 C -612.23,735.1735 -620.50062,740.60307 -624.09929,733.40573 C -628.45557,733.78454 -637.86262,723.36734 -650.86833,726.5872 C -651.24714,738.14082 -664.00031,746.28518 -664.00031,746.28518 C -664.00031,746.28518 -652.09685,744.61932 -645.56503,748.55802 C -638.80963,754.24013 -628.89751,761.94254 -628.89751,761.94254 L -620.05868,777.09483 C -620.05868,777.09483 -628.1399,778.48379 -631.17036,768.00346 C -634.20082,776.46349 -634.32707,762.76329 -646.32264,756.3867 C -649.98444,756.82864 -651.81535,757.08118 -654.90894,754.61893 C -663.55837,756.95491 -673.78616,762.00567 -685.97113,760.67985 C -694.62056,763.39464 -700.93402,770.59198 -709.70972,774.56945 C -718.48542,778.54693 -721.07393,776.58975 -721.07393,776.58975 L -728.145,776.84229 C -729.16513,781.09921 -728.58694,787.57516 -732.43815,788.71158 C -729.9759,791.36323 -734.20591,802.66432 -738.49906,804.62149 C -736.47876,811.88196 -730.56024,814.10446 -724.35693,817.75347 C -724.35693,817.75347 -718.86423,815.22809 -715.26556,818.51108 C -711.66689,821.79408 -707.94195,831.13799 -707.94195,831.13799 C -707.94195,831.13799 -715.43171,831.64401 -717.79094,830.63291 C -720.15017,829.62181 -720.37945,827.16052 -723.09424,827.855 C -740.2037,812.63958 -749.22654,818.69161 -750.87344,815.22809 C -752.5615,811.67798 -746.83283,802.41178 -748.60059,796.54027 z " fill="#96877d" fill-opacity="1" fill-rule="evenodd" stroke="black" stroke-width="1px" stroke-linecap="butt" stroke-linejoin="miter" stroke-opacity="1"/>
      <path d="M -789.70558,728.72559 C -788.81273,727.60952 -782.56273,729.97559 -782.56273,729.97559 L -771.13416,737.11844 L -747.91987,752.11844 L -739.70558,764.08273 L -754.52701,759.2613 L -775.06273,741.58273 L -786.13416,734.43987 C -786.13416,734.43987 -790.59844,729.84166 -789.70558,728.72559 z " fill="#96877d" fill-opacity="1" fill-rule="evenodd" stroke="black" stroke-width="1px" stroke-linecap="butt" stroke-linejoin="miter" stroke-opacity="1"/>
      <path d="M -652.38356,766.74077 C -660.40165,764.72047 -680.16276,788.71158 -680.16276,788.71158 L -665.26301,804.87402 C -665.26301,804.87402 -664.82106,777.34737 -652.38356,766.74077 z " fill="#96877d" fill-opacity="1" fill-rule="evenodd" stroke="black" stroke-width="1px" stroke-linecap="butt" stroke-linejoin="miter" stroke-opacity="1"/>
      <path d="M -750.11582,699.81816 C -754.48839,705.42075 -754.87964,716.71591 -749.19143,721.27161 C -748.65519,728.12735 -742.82629,741.95632 -738.24653,743.25472 C -733.24289,744.6733 -713.24525,749.31563 -705.41657,748.05294 C -706.91386,760.74112 -696.95742,770.92559 -687.7389,777.5999 C -687.80609,778.7385 -687.82191,780.12844 -686.75676,781.53591 C -685.72499,782.89927 -680.88091,783.14913 -680.66783,782.39813 C -678.51951,785.41721 -668.1138,786.74281 -667.35991,785.39795 C -666.62637,784.0894 -682.66538,772.92564 -686.22367,769.51868 C -689.24624,763.87958 -694.97105,751.31427 -696.3252,741.23441 C -704.19721,731.86884 -717.71172,732.05638 -717.71172,732.05638 L -717.28586,713.70776 L -716.52825,692.99963 L -723.85185,689.21156 C -723.85185,689.21156 -722.37547,688.53874 -721.57901,687.69633 C -719.80041,688.46106 -716.458,684.88777 -716.02317,683.87762 C -714.33834,684.47461 -712.81295,684.46665 -712.51827,683.56643 C -712.25803,682.77141 -711.95652,679.23236 -711.34224,677.40354 C -705.81725,672.53901 -712.14876,662.22433 -720.59687,662.05474 C -728.95569,661.88514 -730.83057,672.02573 -730.67038,672.79658 C -729.88519,675.97814 -730.05435,677.58211 -730.67038,678.35242 C -731.30003,679.13976 -734.20592,680.8778 -734.20592,680.8778 C -734.20592,680.8778 -738.87787,678.66809 -744.55998,680.8778 C -750.24209,683.08751 -756.61868,686.05483 -756.93435,689.71664 C -759.52287,690.09544 -763.75288,693.44157 -764.5105,696.28263 C -766.78334,695.84069 -769.75066,697.73472 -774.61202,705.62654 C -783.32459,709.47774 -783.82966,728.10243 -783.82966,728.10243 C -783.82966,728.10243 -786.18142,731.52747 -786.29191,733.34259 C -786.4024,735.15771 -785.47116,736.815 -784.33474,736.49933 C -784.20847,737.69888 -782.63011,738.77216 -781.93563,738.39336 C -781.68309,739.59291 -779.94962,740.26377 -778.90517,740.098 C -778.81047,740.91875 -775.44855,740.71356 -775.18023,739.97173 C -774.88413,739.15309 -775.5129,735.05853 -775.1171,734.73156 C -774.75407,734.43167 -771.96037,736.56246 -771.20276,735.99424 C -770.44514,735.42603 -771.34745,733.60652 -771.77097,732.90065 C -772.14977,732.26931 -774.54889,731.57483 -775.1171,728.60751 C -775.68531,725.64019 -773.60187,721.53644 -773.60187,721.53644 C -773.60187,721.53644 -764.13169,714.08657 -763.0584,707.70998 C -755.9242,708.40446 -752.15191,702.16992 -750.11582,699.81816 z " fill="#96877d" fill-opacity="1" fill-rule="evenodd" stroke="black" stroke-width="1px" stroke-linecap="butt" stroke-linejoin="miter" stroke-opacity="1"/>
      <path d="M -766.59394,673.11225 C -764.43158,667.82474 -756.61868,668.31403 -756.61868,668.31403 C -756.61868,668.31403 -753.82497,660.95885 -743.29729,665.3467 C -739.3356,662.28468 -728.90262,666.67253 -728.90262,666.67253 C -728.90262,666.67253 -724.99588,661.46719 -719.87437,662.06371 C -710.38841,663.16856 -708.81005,671.86535 -709.39404,673.36479 C -714.58685,674.67483 -723.58284,669.14468 -730.41784,670.71314 C -734.4111,672.9702 -740.8824,675.35353 -743.29729,678.60496 C -749.62653,679.26787 -756.38192,672.7808 -766.59394,673.11225 z " fill="#96877d" fill-opacity="1" fill-rule="evenodd" stroke="black" stroke-width="1px" stroke-linecap="butt" stroke-linejoin="miter" stroke-opacity="1"/>
      <path d="M -746.83283,681.88795 C -744.46528,680.43586 -738.65749,677.88309 -734.71099,681.00407 C -730.57568,685.45505 -724.23066,689.59037 -724.23066,689.59037 L -717.03332,692.62082 L -713.75033,694.64113 L -715.8969,727.59736 C -722.55883,720.7808 -728.80226,719.58752 -733.57456,711.56118 C -736.13151,708.12035 -734.17434,699.84973 -738.62533,694.38859 C -743.07632,688.92745 -747.81141,685.23408 -746.83283,681.88795 z " fill="#96877d" fill-opacity="1" fill-rule="evenodd" stroke="black" stroke-width="1px" stroke-linecap="butt" stroke-linejoin="miter" stroke-opacity="1"/>
      <path d="M -729.52701,691.40416 C -729.52701,691.40416 -725.75469,690.68987 -724.70558,691.58273 C -723.38862,692.02916 -722.11629,692.40862 -721.75915,693.54702 C -720.33058,693.97112 -719.34844,694.70773 -719.34844,695.77916 C -718.00916,696.1363 -717.47344,698.54702 -717.47344,698.54702 L -718.72344,700.42202 C -718.72344,700.42202 -720.15201,699.08273 -720.33058,697.65416 C -721.23443,697.20906 -723.23237,696.73898 -723.72344,695.42202 C -725.28594,695.26577 -726.2904,694.4622 -726.58058,693.10059 C -728.03147,693.43541 -729.52701,691.40416 -729.52701,691.40416 z " fill="#96877d" fill-opacity="1" fill-rule="evenodd" stroke="black" stroke-width="1px" stroke-linecap="butt" stroke-linejoin="miter" stroke-opacity="1"/>
      <path d="M -697.58789,669.89239 C -699.73446,667.49328 -703.52253,669.26105 -703.52253,669.26105 L -713.62406,686.68618 L -718.04348,690.34798 L -718.42228,703.98504 L -714.76048,716.73821 L -716.02317,726.5872 C -716.02317,726.5872 -710.93604,721.81473 -710.34106,719.13732 C -709.77285,716.58037 -712.2351,708.27819 -712.2351,708.27819 C -712.2351,708.27819 -715.26555,703.10116 -711.60375,693.50471 C -707.94195,683.90826 -699.60819,675.95331 -697.58789,669.89239 z " fill="#96877d" fill-opacity="1" fill-rule="evenodd" stroke="black" stroke-width="1px" stroke-linecap="butt" stroke-linejoin="miter" stroke-opacity="1"/>
      <path d="M -672.66124,685.42349 C -672.66124,685.42349 -688.43338,707.96252 -714.2554,715.9806 C -721.3896,717.68523 -718.80109,699.31309 -718.80109,699.31309 L -720.56886,699.81816 C -720.56886,699.81816 -724.54633,717.8115 -715.01302,718.0009 C -689.06472,712.887 -669.5952,685.56928 -669.5952,685.56928 L -672.66124,685.42349 z " fill="#96877d" fill-opacity="1" fill-rule="evenodd" stroke="black" stroke-width="1px" stroke-linecap="butt" stroke-linejoin="miter" stroke-opacity="1"/>
      <path d="M -661.98001,814.97555 C -661.98001,814.97555 -664.37912,816.74332 -667.53585,814.97555 C -669.17735,811.18748 -673.59676,810.93494 -673.59676,810.93494 C -673.59676,810.93494 -676.44326,802.75742 -680.92037,805.12656 C -681.61485,800.89655 -686.47621,803.10626 -686.47621,803.10626 C -686.47621,803.10626 -686.60248,796.98221 -692.28459,797.80296 C -690.39055,790.79502 -700.11327,791.23696 -700.11327,791.23696 C -700.11327,791.23696 -700.42894,783.34514 -714.76048,784.92351 C -683.88769,771.09705 -659.45463,806.64179 -659.45463,806.64179" fill="#96877d" fill-opacity="1" fill-rule="evenodd" stroke="black" stroke-width="1px" stroke-linecap="butt" stroke-linejoin="miter" stroke-opacity="1"/>
      <path d="M -647.3328,818.00601 C -647.3328,818.00601 -640.1986,826.0241 -636.47366,826.08723 C -632.74872,826.15036 -632.43305,818.25854 -632.43305,818.25854 C -632.43305,818.25854 -631.23349,821.66781 -629.40259,820.78393 C -629.59199,823.18304 -627.12975,823.81438 -627.12975,823.81438 C -627.12975,823.81438 -633.56947,838.77727 -651.87848,824.572" fill="#96877d" fill-opacity="1" fill-rule="evenodd" stroke="black" stroke-width="1px" stroke-linecap="butt" stroke-linejoin="miter" stroke-opacity="1"/>
      <path d="M -703.14373,821.03646 L -705.66911,831.39053 C -705.66911,831.39053 -708.88897,834.29471 -707.94195,834.92606 C -706.99493,835.5574 -701.88103,833.91591 -701.88103,833.91591 C -701.88103,833.91591 -693.92608,832.96889 -691.52697,830.63291 C -689.88547,834.35785 -686.22367,834.67352 -686.22367,834.67352 C -686.22367,834.67352 -685.97113,833.09516 -686.47621,832.14814 C -684.70844,832.46381 -683.19321,831.8956 -683.19321,831.8956 C -683.19321,831.8956 -682.18305,828.99141 -684.4559,827.85499 C -684.20336,825.70842 -683.13008,823.81438 -686.98129,824.06692 C -689.82234,827.09738 -696.83027,830.56978 -698.59804,829.37023 C -700.3658,828.17067 -691.65324,824.31946 -694.05235,819.2687" fill="#96877d" fill-opacity="1" fill-rule="evenodd" stroke="black" stroke-width="1px" stroke-linecap="butt" stroke-linejoin="miter" stroke-opacity="1"/>
    </g>
    <g transform="matrix(1.708094,-1.040389,1.040389,1.708094,-38.93784,69.65485)">
      <path d="M 67.27,53.54 L 66.24,53.44 L 66.19,53.92 C 66.18,54.03 66.20,54.12 66.24,54.17 C 66.29,54.23 66.38,54.27 66.52,54.30 L 66.52,54.37 L 65.62,54.29 L 65.63,54.22 C 65.73,54.23 65.81,54.22 65.86,54.20 C 65.91,54.18 65.95,54.15 65.98,54.11 C 66.01,54.06 66.02,54.00 66.03,53.91 L 66.07,53.43 L 65.25,53.36 C 65.11,53.34 65.02,53.34 64.98,53.36 C 64.95,53.37 64.92,53.39 64.89,53.43 C 64.85,53.49 64.83,53.54 64.83,53.61 L 64.82,53.70 L 64.74,53.69 L 64.85,52.56 L 64.92,52.57 L 64.91,52.66 C 64.90,52.77 64.92,52.85 64.98,52.91 C 65.02,52.94 65.12,52.97 65.28,52.98 L 66.98,53.13 C 67.12,53.15 67.21,53.15 67.25,53.13 C 67.28,53.12 67.31,53.10 67.34,53.06 C 67.38,53.01 67.40,52.95 67.40,52.89 L 67.41,52.79 L 67.48,52.80 L 67.31,54.76 L 66.73,54.73 L 66.73,54.67 C 66.86,54.64 66.95,54.61 67.01,54.57 C 67.08,54.53 67.12,54.48 67.15,54.42 C 67.19,54.36 67.21,54.26 67.22,54.12 L 67.27,53.54 z M 66.44,58.08 C 66.31,58.40 66.08,58.62 65.75,58.76 C 65.41,58.90 65.06,58.89 64.70,58.75 C 64.32,58.60 64.06,58.36 63.91,58.03 C 63.75,57.69 63.75,57.36 63.88,57.02 C 64.01,56.68 64.25,56.45 64.58,56.31 C 64.91,56.18 65.27,56.19 65.65,56.34 C 66.04,56.49 66.31,56.75 66.45,57.12 C 66.57,57.44 66.57,57.75 66.44,58.08 L 66.44,58.08 z M 66.32,57.99 C 66.41,57.77 66.40,57.56 66.29,57.36 C 66.15,57.12 65.89,56.91 65.49,56.76 C 65.09,56.60 64.75,56.56 64.46,56.65 C 64.25,56.71 64.10,56.85 64.01,57.07 C 63.92,57.30 63.93,57.53 64.05,57.75 C 64.17,57.97 64.43,58.16 64.81,58.32 C 65.23,58.48 65.58,58.53 65.85,58.44 C 66.07,58.37 66.23,58.22 66.32,57.99 L 66.32,57.99 z M 61.15,61.36 L 61.60,60.81 L 63.12,60.90 C 63.16,60.85 63.19,60.81 63.22,60.77 C 63.23,60.76 63.24,60.75 63.26,60.73 C 63.27,60.72 63.28,60.70 63.30,60.69 L 62.70,60.20 C 62.57,60.09 62.48,60.04 62.43,60.04 C 62.35,60.05 62.28,60.09 62.22,60.16 L 62.15,60.24 L 62.10,60.20 L 62.82,59.32 L 62.87,59.36 L 62.81,59.44 C 62.74,59.53 62.72,59.61 62.74,59.70 C 62.76,59.74 62.82,59.82 62.94,59.91 L 64.26,61.00 C 64.39,61.10 64.48,61.15 64.54,61.15 C 64.61,61.15 64.68,61.11 64.75,61.03 L 64.81,60.95 L 64.87,61.00 L 64.25,61.74 C 64.08,61.96 63.93,62.11 63.81,62.19 C 63.70,62.26 63.57,62.30 63.42,62.31 C 63.28,62.31 63.15,62.26 63.03,62.16 C 62.90,62.06 62.83,61.93 62.80,61.77 C 62.78,61.61 62.81,61.43 62.92,61.23 L 61.98,61.17 C 61.77,61.16 61.61,61.17 61.51,61.20 C 61.41,61.23 61.31,61.30 61.20,61.40 L 61.15,61.36 z M 63.39,60.77 C 63.38,60.78 63.36,60.80 63.35,60.81 C 63.34,60.83 63.33,60.84 63.32,60.85 C 63.16,61.04 63.08,61.23 63.09,61.39 C 63.09,61.56 63.16,61.70 63.29,61.81 C 63.42,61.91 63.55,61.96 63.70,61.94 C 63.84,61.93 63.97,61.86 64.08,61.72 C 64.13,61.67 64.18,61.58 64.24,61.46 L 63.39,60.77 z M 55.26,67.29 L 54.99,66.50 L 55.05,66.48 C 55.17,66.67 55.30,66.80 55.43,66.87 C 55.62,66.98 55.84,67.01 56.07,66.94 C 56.40,66.86 56.62,66.67 56.72,66.36 C 56.81,66.11 56.81,65.83 56.73,65.53 C 56.67,65.29 56.57,65.07 56.42,64.90 C 56.27,64.72 56.11,64.60 55.93,64.55 C 55.76,64.49 55.59,64.49 55.43,64.53 C 55.33,64.55 55.24,64.59 55.16,64.64 C 55.08,64.68 55.00,64.74 54.93,64.81 L 55.12,65.55 C 55.16,65.68 55.19,65.76 55.22,65.79 C 55.25,65.83 55.29,65.85 55.33,65.86 C 55.38,65.87 55.45,65.86 55.56,65.84 L 55.58,65.91 L 54.58,66.16 L 54.56,66.09 L 54.61,66.08 C 54.71,66.05 54.77,66.00 54.79,65.93 C 54.80,65.88 54.79,65.78 54.75,65.64 L 54.55,64.86 C 54.68,64.74 54.81,64.65 54.94,64.58 C 55.07,64.50 55.22,64.44 55.40,64.40 C 55.89,64.27 56.31,64.34 56.65,64.59 C 56.90,64.78 57.07,65.03 57.15,65.34 C 57.21,65.56 57.21,65.79 57.15,66.03 C 57.09,66.31 56.96,66.54 56.77,66.73 C 56.61,66.89 56.40,67.00 56.14,67.07 C 56.05,67.09 55.96,67.11 55.88,67.11 C 55.80,67.11 55.69,67.11 55.53,67.09 C 55.46,67.08 55.41,67.08 55.38,67.09 C 55.36,67.10 55.34,67.11 55.33,67.14 C 55.32,67.17 55.32,67.21 55.33,67.28 L 55.26,67.29 z M 51.27,65.64 L 52.29,65.71 L 52.50,65.30 C 52.55,65.20 52.57,65.13 52.58,65.07 C 52.58,65.03 52.56,65.00 52.53,64.96 C 52.49,64.93 52.41,64.91 52.28,64.89 L 52.29,64.82 L 53.12,64.87 L 53.11,64.94 C 53.00,64.95 52.93,64.98 52.89,65.00 C 52.82,65.06 52.74,65.18 52.65,65.37 L 51.58,67.49 L 51.51,67.48 L 50.73,65.23 C 50.67,65.04 50.61,64.93 50.55,64.87 C 50.50,64.81 50.41,64.78 50.31,64.76 L 50.31,64.69 L 51.35,64.76 L 51.35,64.83 C 51.24,64.83 51.17,64.84 51.13,64.87 C 51.09,64.90 51.07,64.93 51.07,64.98 C 51.07,65.03 51.09,65.12 51.13,65.25 L 51.27,65.64 z M 51.31,65.79 L 51.69,66.89 L 52.22,65.85 L 51.31,65.79 z M 46.87,64.32 L 46.82,64.28 L 47.29,63.69 L 49.20,64.42 L 49.18,64.48 L 49.08,64.45 C 48.98,64.41 48.89,64.41 48.82,64.47 C 48.78,64.49 48.73,64.58 48.68,64.72 L 48.08,66.32 C 48.02,66.47 48.00,66.58 48.02,66.63 C 48.04,66.70 48.10,66.75 48.20,66.79 L 48.29,66.82 L 48.27,66.89 L 47.14,66.47 L 47.17,66.40 C 47.30,66.45 47.40,66.47 47.46,66.47 C 47.52,66.46 47.57,66.44 47.61,66.41 C 47.64,66.38 47.68,66.29 47.74,66.14 L 48.33,64.59 C 48.37,64.49 48.38,64.41 48.38,64.37 C 48.37,64.34 48.36,64.31 48.33,64.29 C 48.31,64.26 48.22,64.22 48.06,64.16 L 47.87,64.09 C 47.68,64.02 47.55,63.98 47.46,63.98 C 47.37,63.98 47.28,64.00 47.19,64.05 C 47.10,64.10 47.00,64.19 46.87,64.32 L 46.87,64.32 z M 43.83,62.30 L 43.79,62.25 L 44.40,61.81 L 46.04,63.04 L 46.00,63.10 L 45.92,63.04 C 45.83,62.97 45.74,62.95 45.66,62.98 C 45.61,63.00 45.54,63.07 45.45,63.19 L 44.43,64.56 C 44.33,64.69 44.28,64.78 44.29,64.84 C 44.29,64.92 44.34,64.98 44.42,65.04 L 44.50,65.10 L 44.45,65.16 L 43.49,64.44 L 43.54,64.38 C 43.65,64.47 43.74,64.52 43.80,64.53 C 43.86,64.54 43.91,64.54 43.95,64.52 C 43.99,64.50 44.06,64.42 44.16,64.30 L 45.15,62.96 C 45.22,62.88 45.25,62.81 45.26,62.77 C 45.27,62.74 45.26,62.71 45.24,62.68 C 45.22,62.65 45.14,62.58 45.01,62.48 L 44.85,62.36 C 44.69,62.24 44.57,62.17 44.48,62.14 C 44.40,62.12 44.31,62.11 44.21,62.13 C 44.11,62.15 43.98,62.21 43.83,62.30 L 43.83,62.30 z M 41.61,59.97 L 42.22,60.80 L 42.66,60.70 C 42.77,60.67 42.85,60.64 42.89,60.61 C 42.92,60.59 42.94,60.55 42.94,60.50 C 42.94,60.46 42.91,60.38 42.84,60.27 L 42.90,60.23 L 43.39,60.90 L 43.33,60.94 C 43.25,60.86 43.19,60.82 43.14,60.81 C 43.05,60.80 42.91,60.81 42.71,60.86 L 40.40,61.40 L 40.36,61.34 L 41.59,59.30 C 41.69,59.13 41.74,59.01 41.75,58.93 C 41.76,58.85 41.73,58.76 41.67,58.67 L 41.73,58.63 L 42.35,59.47 L 42.29,59.52 C 42.22,59.43 42.17,59.39 42.12,59.37 C 42.07,59.36 42.03,59.37 42.00,59.39 C 41.95,59.43 41.90,59.50 41.83,59.62 L 41.61,59.97 z M 41.53,60.10 L 40.93,61.09 L 42.07,60.83 L 41.53,60.10 z M 38.73,58.55 L 38.51,57.87 L 39.90,55.72 L 38.45,56.19 C 38.29,56.24 38.20,56.29 38.17,56.33 C 38.14,56.40 38.14,56.48 38.17,56.58 L 38.20,56.66 L 38.13,56.69 L 37.84,55.81 L 37.91,55.79 L 37.94,55.88 C 37.97,55.98 38.03,56.05 38.11,56.07 C 38.16,56.09 38.25,56.07 38.39,56.03 L 40.52,55.33 L 40.54,55.40 L 39.05,57.72 L 40.60,57.22 C 40.76,57.17 40.85,57.12 40.88,57.07 C 40.91,57.01 40.91,56.93 40.88,56.83 L 40.85,56.74 L 40.92,56.72 L 41.21,57.59 L 41.14,57.62 L 41.11,57.53 C 41.08,57.42 41.02,57.36 40.94,57.33 C 40.89,57.32 40.80,57.33 40.66,57.38 L 38.90,57.95 C 38.84,58.05 38.80,58.12 38.79,58.17 C 38.77,58.22 38.77,58.28 38.77,58.36 C 38.77,58.40 38.78,58.46 38.80,58.53 L 38.73,58.55 z M 37.52,51.66 L 38.14,51.62 L 38.14,51.69 C 38.04,51.71 37.96,51.73 37.91,51.75 C 37.84,51.80 37.78,51.85 37.75,51.92 C 37.71,51.99 37.70,52.07 37.70,52.18 L 37.70,52.56 L 39.73,52.52 C 39.89,52.52 39.99,52.50 40.03,52.47 C 40.08,52.42 40.11,52.34 40.11,52.24 L 40.11,52.14 L 40.18,52.14 L 40.20,53.27 L 40.13,53.27 L 40.13,53.17 C 40.12,53.06 40.09,52.98 40.02,52.94 C 39.98,52.91 39.88,52.90 39.73,52.90 L 37.71,52.93 L 37.72,53.25 C 37.72,53.37 37.73,53.46 37.75,53.51 C 37.77,53.58 37.82,53.64 37.89,53.69 C 37.96,53.73 38.06,53.76 38.18,53.77 L 38.18,53.84 L 37.56,53.82 L 37.52,51.66 z M 41.00,47.87 L 40.81,48.55 L 39.38,49.08 C 39.37,49.15 39.35,49.20 39.34,49.24 C 39.34,49.26 39.33,49.27 39.33,49.29 C 39.32,49.31 39.31,49.33 39.31,49.35 L 40.05,49.56 C 40.21,49.60 40.31,49.61 40.36,49.59 C 40.43,49.55 40.48,49.49 40.50,49.39 L 40.53,49.30 L 40.60,49.31 L 40.30,50.41 L 40.23,50.39 L 40.25,50.29 C 40.28,50.18 40.27,50.10 40.21,50.03 C 40.18,49.99 40.09,49.96 39.95,49.92 L 38.30,49.46 C 38.14,49.41 38.03,49.40 37.99,49.43 C 37.92,49.46 37.87,49.52 37.84,49.62 L 37.82,49.72 L 37.75,49.70 L 38.00,48.77 C 38.08,48.50 38.15,48.30 38.23,48.19 C 38.31,48.07 38.41,47.98 38.54,47.92 C 38.67,47.86 38.81,47.85 38.96,47.89 C 39.11,47.93 39.23,48.02 39.32,48.16 C 39.41,48.29 39.45,48.47 39.43,48.70 L 40.31,48.38 C 40.51,48.30 40.65,48.23 40.73,48.16 C 40.81,48.09 40.88,47.99 40.93,47.85 L 41.00,47.87 z M 39.19,49.32 C 39.19,49.29 39.20,49.27 39.21,49.25 C 39.21,49.24 39.22,49.22 39.22,49.21 C 39.29,48.97 39.28,48.77 39.21,48.62 C 39.14,48.46 39.03,48.37 38.86,48.32 C 38.70,48.28 38.56,48.29 38.43,48.36 C 38.31,48.43 38.22,48.55 38.17,48.72 C 38.15,48.79 38.14,48.89 38.13,49.02 L 39.19,49.32 z M 40.23,43.92 L 40.74,43.15 L 40.80,43.19 L 40.77,43.23 C 40.75,43.26 40.74,43.31 40.72,43.38 C 40.71,43.45 40.72,43.52 40.74,43.60 C 40.75,43.67 40.79,43.78 40.86,43.91 L 41.35,45.00 L 41.90,45.36 C 42.04,45.45 42.13,45.49 42.19,45.48 C 42.26,45.47 42.33,45.42 42.38,45.33 L 42.43,45.26 L 42.49,45.30 L 41.88,46.24 L 41.82,46.20 L 41.87,46.12 C 41.93,46.03 41.94,45.94 41.91,45.87 C 41.89,45.82 41.82,45.76 41.70,45.68 L 41.17,45.33 L 39.85,45.33 C 39.69,45.33 39.59,45.34 39.55,45.34 C 39.50,45.35 39.44,45.38 39.34,45.44 C 39.32,45.45 39.29,45.48 39.27,45.52 L 39.21,45.48 L 39.83,44.54 L 39.89,44.58 L 39.85,44.62 C 39.82,44.68 39.80,44.73 39.80,44.79 C 39.79,44.85 39.82,44.89 39.86,44.92 C 39.90,44.95 40.00,44.96 40.14,44.96 L 41.16,44.97 L 40.76,44.09 C 40.70,43.96 40.65,43.87 40.60,43.84 C 40.56,43.82 40.53,43.81 40.50,43.81 C 40.46,43.81 40.43,43.82 40.40,43.84 C 40.36,43.86 40.33,43.90 40.29,43.96 L 40.23,43.92 z " transform="matrix(-0.97506,-0.221943,0.221943,-0.97506,91.71835,115.4418)" font-size="4px" font-family="Times New Roman"/>
    </g>
  </g>
</svg>
