<?xml version="1.0" encoding="UTF-8" standalone="no"?>
<svg xmlns="http://www.w3.org/2000/svg" xmlns:xlink="http://www.w3.org/1999/xlink" version="1.1" width="900" height="600" id="flag_of_georgia">
<desc>Flag of Georgia</desc>
<defs>
<g id="f">
<rect x="-65" y="-40" height="80" width="130" fill="#fff"/>
<path d="M -6.94119342,-20 a55,55 0 0,0 13.88238684,0 A104,104 0 0,0 5,-5 a104,104 0 0,0 15,-1.94119342 a55,55 0 0,0 0,13.88238684 A104,104 0 0,0 5,5 a104,104 0 0,0 1.94119342,15 a55,55 0 0,0 -13.88238684,0 A104,104 0 0,0 -5,5 a104,104 0 0,0 -15,1.94119342 a55,55 0 0,0 0,-13.88238684 A104,104 0 0,0 -5,-5 a104,104 0 0,0 -1.94119342,-15 z" fill="#E8112D"/>
</g>
</defs>
<g transform="scale(3)">
<rect height="200" width="300" fill="#E8112D"/>
<use xlink:href="#f" transform="translate(65,40)"/>
<use xlink:href="#f" transform="translate(235,40)"/>
<use xlink:href="#f" transform="translate(65,160)"/>
<use xlink:href="#f" transform="translate(235,160)"/>
</g>
</svg>
