<?xml version="1.0" encoding="UTF-8" standalone="no"?>
<svg xmlns:dc="http://purl.org/dc/elements/1.1/" xmlns:cc="http://web.resource.org/cc/" xmlns:rdf="http://www.w3.org/1999/02/22-rdf-syntax-ns#" xmlns:svg="http://www.w3.org/2000/svg" xmlns="http://www.w3.org/2000/svg" id="svg2" width="1200" height="600" version="1.0">
  
  <defs id="defs1051"/>
  <sodipodi:namedview borderopacity="1.0" bordercolor="#666666" pagecolor="#ffffff" id="base" showguides="true"/>
  <path d="" transform="matrix(4.166406,0,0,4.166869,-666.5874,-2414.142)"/>
  <g transform="matrix(4.166406,0,0,4.166869,-666.5874,-2414.142)" fill="none" stroke="black">
    <path d=""/>
  </g>
  <g transform="matrix(4.166406,0,0,4.166869,-666.5874,-2414.142)" fill="none" stroke="black">
    <path d=""/>
  </g>
  <g transform="matrix(4.166406,0,0,4.166869,-666.5874,-2414.142)">
    <path d=""/>
  </g>
  <g transform="matrix(4.166406,0,0,4.166869,-666.5874,-2414.142)" fill="#00009e" stroke="none">
    <path d="M 448.0,723.3 L 448.0,579.3 L 159.9,579.3 L 159.9,723.3 L 448.0,723.3 z " fill="#006" fill-opacity="1" stroke="none"/>
  </g>
  <g transform="matrix(4.166406,0,0,4.166869,-666.5874,-2414.142)" fill="#00009e" stroke="black">
    <path d=""/>
  </g>
  <g transform="matrix(4.166406,0,0,4.166869,-666.5874,-2414.142)" fill="white" stroke="none">
    <path d="M 159.9,603.3 L 190.3,603.3 L 159.9,588.1 L 159.9,579.3 L 177.3,579.3 L 219.8,600.5 L 219.8,579.3 L 243.7,579.3 L 243.7,600.5 L 286.2,579.3 L 303.7,579.3 L 303.7,588.1 L 273.2,603.3 L 303.7,603.3 L 303.7,627.3 L 273.2,627.3 L 303.7,642.6 L 303.7,651.3 L 286.2,651.3 L 243.7,630.1 L 243.7,651.3 L 219.8,651.3 L 219.8,630.1 L 177.3,651.3 L 159.9,651.3 L 159.9,642.6 L 190.3,627.3 L 159.9,627.3 L 159.9,603.3 z " stroke="none"/>
  </g>
  <g transform="matrix(4.166406,0,0,4.166869,-666.5874,-2414.142)" fill="#ef072d" stroke="none">
    <path d="M 292.4,579.3 L 244.4,603.3 L 255.9,603.3 L 303.7,579.3 L 292.4,579.3 z " fill="#ce1126" fill-opacity="1" stroke="none"/>
  </g>
  <g transform="matrix(4.166406,0,0,4.166869,-666.5874,-2414.142)" fill="#ef072d" stroke="none">
    <path d="M 303.7,651.3 L 255.9,627.3 L 267.4,627.3 L 303.7,645.6 L 303.7,651.3 z " fill="#ce1126" fill-opacity="1" stroke="none"/>
  </g>
  <g transform="matrix(4.166406,0,0,4.166869,-666.5874,-2414.142)" fill="#ef072d" stroke="none">
    <path d="M 208.0,603.3 L 159.9,579.3 L 159.9,585.0 L 196.4,603.3 L 208.0,603.3 z " fill="#ce1126" fill-opacity="1" stroke="none"/>
  </g>
  <g transform="matrix(4.166406,0,0,4.166869,-666.5874,-2414.142)" fill="#ef072d" stroke="none">
    <path d="M 207.9,627.3 L 159.9,651.3 L 171.4,651.3 L 219.4,627.3 L 207.9,627.3 z " fill="#ce1126" fill-opacity="1" stroke="none"/>
  </g>
  <g transform="matrix(4.166406,0,0,4.166869,-666.5874,-2414.142)" fill="#ef072d" stroke="none">
    <path d="M 159.9,608.3 L 224.9,608.3 L 224.9,579.3 L 239.0,579.3 L 239.0,608.3 L 303.7,608.3 L 303.7,622.3 L 239.0,622.3 L 239.0,651.3 L 224.9,651.3 L 224.9,622.3 L 159.9,622.3 L 159.9,608.3 z " fill="#ce1126" fill-opacity="1" stroke="none"/>
  </g>
  <g transform="matrix(4.166406,0,0,4.166869,-666.166,-2413.139)">
    <g fill="#4fa8ff" stroke="white" stroke-opacity="1">
      <path d="M 399.6,640.7 C 399.6,657.1 397.0,674.6 375.9,683.0 C 354.7,674.6 352.1,657.1 352.1,640.7 L 399.6,640.7 z " fill="#8fc5ff" fill-opacity="1" stroke="white" stroke-width="1.009" stroke-miterlimit="4" stroke-dasharray="none" stroke-opacity="1"/>
    </g>
    <g fill="white" stroke="black">
      <path d="M 375.9,683.0 C 385.4,679.2 391.2,673.5 394.7,666.9 C 394.1,666.9 393.1,666.9 392.6,666.9 C 392.1,666.8 372.3,664.9 370.0,664.0 C 367.9,663.3 360.2,664.6 356.6,665.9 C 359.9,673.0 365.8,679.0 375.9,683.0 z " fill="#366cc9" fill-opacity="1" stroke="none" stroke-opacity="1"/>
    </g>
    <g fill="black" stroke="black" stroke-width="0.125">
      <path d="M 361.1,672.9 C 361.4,672.8 362.0,672.8 362.3,672.9 C 362.5,672.9 362.6,672.9 362.7,672.6 C 362.8,672.3 363.0,672.4 363.2,672.6 C 363.4,672.7 363.9,672.6 364.1,672.4 C 364.2,672.1 364.3,672.1 364.5,672.3 C 364.7,672.5 364.7,672.5 364.9,672.4 C 365.1,672.3 365.4,672.1 365.6,671.9 C 365.7,671.6 366.0,671.5 366.1,671.6 C 366.2,671.8 366.3,671.9 366.5,671.8 C 366.7,671.8 366.8,672.0 366.7,672.2 C 366.7,672.5 366.8,672.5 367.3,672.1 C 367.6,672.5 367.8,672.4 367.8,672.0 C 367.8,671.5 367.7,670.0 367.5,669.8 C 367.4,669.6 367.2,669.0 367.2,668.5 C 367.1,667.6 367.1,667.6 366.1,667.0 C 366.1,666.7 366.0,666.6 365.2,666.7 C 365.3,666.6 365.1,666.2 365.0,666.1 C 364.8,666.0 364.8,665.9 364.9,665.6 C 365.2,665.6 365.5,665.5 365.7,665.3 C 365.9,665.0 366.5,665.1 366.8,665.2 C 367.2,665.4 367.7,665.4 368.4,665.3 C 368.6,665.1 369.1,664.9 369.5,664.6 C 370.0,664.3 370.1,664.2 370.2,663.9 C 370.2,662.9 369.9,661.9 369.6,661.4 C 369.4,660.9 369.3,660.3 368.9,659.5 C 368.5,658.6 368.6,658.4 368.1,657.9 C 368.0,657.8 367.8,657.6 367.8,657.4 C 367.8,657.1 367.7,656.7 367.4,656.4 C 366.6,655.7 366.3,653.4 366.0,651.6 C 365.8,650.7 365.9,648.3 365.5,648.0 C 364.8,647.4 364.5,647.5 364.0,647.3 C 363.7,646.9 363.5,645.9 363.2,645.1 C 362.7,645.2 362.4,645.7 362.0,645.9 C 361.7,646.0 361.6,646.0 361.6,646.5 C 361.6,647.0 361.4,647.6 360.9,648.4 C 360.4,649.1 359.7,648.9 359.0,650.0 C 357.6,648.2 357.6,647.7 357.5,647.2 C 357.4,646.801 357.1,646.6 356.3,645.9 C 356.3,645.7 356.2,644.9 356.3,644.4 C 355.7,643.9 355.2,644.0 355.0,644.4 C 354.724,644.8 354.5,645.3 354.0,645.5 C 353.8,645.8 353.0,646.7 352.3,647.7 C 352.9,656.7 354.9,665.7 361.1,672.9 z " fill="#5d3100" fill-opacity="1" stroke="none" stroke-opacity="1"/>
    </g>
    <g fill="yellow" stroke="white" stroke-width="0.25" stroke-opacity="1">
      <path d="M 399.6,640.7 C 399.6,634.6 399.3,628.6 399.5,623.412 C 391.6,619.877 381.2,619.1 375.9,619.1 C 370.6,619.1 360.2,619.8 352.3,623.4 C 352.4,628.6 352.1,634.6 352.1,640.7 L 399.6,640.7 z " stroke="white" stroke-width="0.980" stroke-miterlimit="4" stroke-dasharray="none" stroke-opacity="1"/>
    </g>
    <g fill="#cf6200">
      <path d="M 353.4,647.8 C 353.6,648.3 354.1,649.0 354.2,649.4 C 354.3,649.0 354.5,648.8 354.5,648.6 C 354.6,648.3 354.8,647.9 354.7,647.6 C 354.6,647.4 354.5,647.2 354.8,647.4 C 355.1,647.6 355.1,647.9 355.0,648.3 C 354.8,649.6 354.3,649.9 354.2,650.7 C 355.0,652.5 354.4,653.2 355.2,655.0 C 355.4,655.0 355.7,654.9 355.8,654.9 C 356.3,654.6 356.6,654.7 357.2,654.9 C 357.8,655.0 358.2,655.4 358.2,655.8 C 358.2,656.2 358.2,656.3 358.3,656.5 C 358.4,656.8 358.7,657.1 358.7,657.456 C 358.6,657.7 358.7,657.8 358.8,658.0 C 358.9,658.1 358.8,658.4 358.7,658.5 C 358.6,658.7 358.6,659.0 358.9,659.4 C 359.2,659.7 360.0,661.4 360.0,662.3 C 360.0,663.3 360.0,663.7 360.4,663.9 C 360.8,664.1 360.9,664.3 360.9,664.7 C 360.8,665.1 361.1,667.3 361.1,667.6 C 361.2,667.9 361.3,667.9 361.5,668.0 C 361.6,668.2 361.7,668.4 362.2,668.4 C 362.8,668.4 363.3,668.4 363.6,668.4 C 364.1,669.1 364.4,669.99 364.5,670.5 C 364.6,671.0 364.5,671.8 364.7,671.8 C 364.9,671.8 365.1,671.8 365.0,671.1 C 365.0,670.5 364.9,670.3 364.7,670.0 C 364.5,669.7 364.3,669.5 364.5,669.3 C 364.6,669.1 364.6,668.8 364.6,668.5 C 364.5,668.2 364.4,667.9 364.9,668.4 C 365.3,668.9 365.5,669.0 365.6,669.2 C 365.7,669.4 365.8,669.7 365.7,670.0 C 365.7,670.3 365.8,670.5 366.0,670.3 C 366.1,670.2 366.4,670.4 366.3,670.8 C 366.2,671.1 366.3,671.3 366.6,671.4 C 366.9,671.5 367.0,671.6 367.1,671.8 C 367.2,672.1 367.5,672.2 367.5,671.7 C 367.5,671.2 367.3,670.2 367.1,669.9 C 367.0,669.6 366.9,668.9 366.9,668.6 C 366.9,668.2 366.8,668.1 366.6,668.0 C 366.4,667.9 366.3,667.8 366.2,667.6 C 366.2,667.4 366.1,667.3 365.9,667.3 C 365.8,667.3 365.7,667.3 365.7,667.1 C 365.6,667.0 365.5,667.0 365.4,667.0 C 365.3,667.0 365.1,667.0 365.0,666.8 C 364.9,666.6 364.8,666.3 364.755,666.2 C 364.6,666.0 364.5,665.9 364.4,665.3 C 364.4,664.8 364.4,664.7 364.2,664.5 C 364.1,664.3 363.7,663.7 363.6,663.5 C 363.5,663.3 363.4,663.0 363.4,663.5 C 363.4,664.0 363.4,664.3 363.7,664.4 C 364.0,664.6 364.1,664.6 363.9,664.9 C 363.845,665.2 363.9,665.3 364.0,665.5 C 364.0,665.7 364.1,665.9 364.0,666.1 C 363.8,666.2 363.7,666.2 363.7,665.9 C 363.7,665.6 363.6,665.3 363.5,665.0 C 363.4,664.8 363.3,664.706 363.1,664.8 C 362.9,664.9 362.8,664.8 362.9,664.7 C 363.0,664.6 363.0,664.5 362.9,664.4 C 362.8,664.3 362.8,664.2 362.9,664.1 C 363.1,663.9 363.118,663.9 363.0,663.5 C 362.9,663.1 362.3,661.3 362.1,660.9 C 361.8,660.5 361.8,660.2 362.2,660.6 C 362.5,661.0 362.8,661.4 362.8,661.7 C 362.9,662.0 362.9,662.2 363.0,662.4 C 363.1,662.5 363.2,662.4 363.3,662.2 C 363.3,661.9 363.5,662.0 363.2,661.4 C 362.8,660.9 362.1,660.0 361.9,658.3 C 361.6,656.7 361.5,655.6 361.2,655.2 C 361.0,654.7 360.9,654.6 360.9,654.2 C 360.9,653.8 360.9,653.4 360.7,653.1 C 360.5,652.8 360.4,652.7 360.4,653.2 C 360.3,653.6 360.4,654.7 360.5,654.9 C 360.7,655.0 360.6,655.5 360.5,655.8 C 360.5,656.0 360.1,656.3 361.0,656.8 C 361.3,657.0 361.2,657.3 361.2,657.5 C 361.1,657.7 361.1,657.6 360.9,657.4 C 360.7,657.1 360.5,656.8 360.4,656.7 C 360.2,656.5 360.2,656.4 360.2,656.1 C 360.2,655.7 360.3,655.4 360.2,655.3 C 360.1,655.2 360.0,655.3 360.0,655.5 C 359.9,655.7 359.9,656.3 359.8,656.4 C 359.7,656.6 359.6,656.5 359.5,656.1 C 359.5,655.8 359.6,655.3 359.7,654.7 C 359.9,654.1 360.0,653.5 359.9,652.7 C 359.7,651.9 359.8,651.7 359.2,651.0 C 358.6,650.4 357.9,649.7 357.6,648.9 C 357.4,648.178 357.3,647.4 357.0,647.1 C 356.7,646.7 356.2,646.2 355.9,646.1 C 355.9,645.5 355.9,645.2 355.9,644.9 C 355.9,644.6 355.8,644.4 355.5,644.5 C 355.1,644.5 354.9,644.8 354.7,645.2 C 354.5,645.6 354.4,645.4 354.1,646.1 C 353.8,646.8 353.4,647.1 353.4,647.8 z "/>
    </g>
    <g fill="#cf6200">
      <path d="M 355.2,655.5 C 355.5,655.6 355.7,655.7 356.0,655.5 C 356.3,655.4 356.6,654.9 357.1,655.4 C 357.5,655.8 357.7,656.5 357.7,657.1 C 357.7,657.7 357.7,658.7 358.4,659.3 C 359.0,659.9 359.401,660.6 359.4,661.3 C 359.4,662.1 359.7,663.3 359.8,663.6 C 359.8,663.9 360.0,664.3 360.2,664.5 C 360.4,664.7 360.6,665.3 360.6,665.9 C 360.7,666.6 360.5,667.0 360.6,667.3 C 360.7,667.6 360.6,667.9 360.4,667.7 C 360.2,667.6 360.1,667.5 360.0,667.2 C 359.8,667.0 359.7,667.0 359.8,667.4 C 359.9,667.8 360.3,668.2 360.7,668.2 C 361.0,668.2 361.1,668.2 361.3,668.4 C 361.5,668.6 361.6,668.7 361.9,668.7 C 362.3,668.7 362.3,668.7 362.7,668.8 C 363.0,668.9 363.0,668.9 363.2,668.8 C 363.4,668.8 363.6,668.9 363.7,669.3 C 363.8,669.6 364.1,670.6 364.1,670.8 C 364.1,671.1 364.1,671.3 364.3,671.6 C 364.5,671.9 364.4,672.1 364.2,672.0 C 364.0,671.8 364.0,671.9 363.9,671.9 C 363.7,671.9 363.6,671.8 363.4,671.7 C 363.2,671.6 363.3,671.6 363.1,671.3 C 362.9,671.0 362.8,670.9 362.8,671.1 C 362.8,671.3 362.8,671.6 362.6,671.5 C 362.4,671.4 362.4,671.4 362.2,671.5 C 362.1,671.6 362.1,671.7 361.9,671.5 C 361.7,671.2 361.6,671.2 361.4,671.2 C 361.2,671.1 361.2,671.1 361.2,670.9 C 361.1,670.6 360.9,670.6 360.7,670.6 C 360.4,670.6 360.3,670.5 360.3,670.3 C 360.3,670.2 360.2,670.1 360.1,670.0 C 359.9,669.9 360.0,669.7 360.0,669.5 C 359.9,669.4 359.8,669.4 359.7,669.4 C 359.6,669.3 359.5,669.4 359.5,669.1 C 359.5,668.8 359.4,668.8 359.3,668.6 C 359.2,668.4 359.3,668.2 359.4,668.0 C 359.4,667.8 359.4,667.7 359.2,667.5 C 359.1,667.3 359.2,667.1 358.8,666.8 C 358.4,666.4 358.2,666.7 358.1,665.9 C 357.9,665.0 357.7,663.2 357.4,662.9 C 357.2,662.7 357.0,662.4 356.8,662.4 C 356.6,662.3 356.4,662.3 356.4,661.8 C 356.4,661.4 356.2,660.7 355.9,660.4 C 355.6,660.1 355.5,660.0 355.3,659.9 C 355.1,659.7 355.1,659.5 355.3,659.1 C 355.5,658.6 355.4,658.0 355.4,657.7 C 355.4,657.5 355.3,657.1 355.3,656.8 C 355.4,656.5 355.4,656.1 355.3,655.9 C 355.2,655.7 355.1,655.6 355.2,655.5 z "/>
    </g>
    <g fill="#cf6200">
      <path d="M 361.5,648.1 C 361.2,648.5 360.8,648.9 360.3,649.2 C 359.8,649.6 359.2,649.9 359.5,650.5 C 359.9,651.0 360.2,651.1 360.2,651.6 C 360.3,652.0 360.4,652.4 360.7,652.5 C 361.1,652.6 361.2,652.5 361.2,653.3 C 361.2,654.0 361.2,654.3 361.5,654.5 C 361.9,654.8 361.8,655.1 362.0,655.8 C 362.1,656.4 362.1,657.8 362.5,658.8 C 362.9,659.8 363.9,661.6 363.8,662.0 C 363.7,662.4 363.5,662.7 363.9,663.1 C 364.4,663.606 364.6,664.2 364.7,664.6 C 364.7,665.0 364.8,665.1 365.2,665.0 C 365.6,664.8 365.8,664.7 365.9,664.5 C 366.1,664.4 366.4,664.4 366.7,664.6 C 367.1,664.8 367.7,665.0 368.1,664.8 C 368.4,664.6 368.6,664.3 368.9,664.3 C 369.4,663.9 369.5,663.2 369.7,663.0 C 369.8,662.8 369.7,662.8 369.5,662.6 C 369.3,662.4 369.4,662.0 369.3,661.7 C 369.3,661.3 369.2,660.8 368.8,660.106 C 368.3,659.3 368.1,658.4 367.8,658.1 C 367.5,657.9 367.4,657.3 367.4,657.0 C 367.3,656.7 367.0,656.5 366.8,656.3 C 366.6,656.1 366.4,655.8 366.2,654.5 C 365.9,653.3 365.7,652.5 365.7,652.3 C 365.7,652.1 365.7,652.0 365.5,651.9 C 365.3,651.9 365.2,651.5 365.3,651.4 C 365.3,651.2 365.2,651.0 365.1,650.8 C 365.0,650.6 365.1,650.2 365.3,650.0 C 365.4,649.8 365.4,649.2 365.2,648.7 C 365.1,648.2 364.9,647.8 364.4,647.8 C 363.8,647.7 363.7,647.5 363.5,647.1 C 363.3,646.6 363.152,645.9 363.0,645.7 C 363.0,645.5 362.9,645.5 362.4,645.8 C 362.0,646.2 361.9,646.3 361.9,646.9 C 361.9,647.3 362.0,647.5 362.1,647.7 C 362.2,648.0 362.3,648.0 362.4,648.7 C 362.5,649.3 363.1,650.4 362.3,651.0 C 361.5,651.6 361.6,651.7 361.7,652.1 C 361.7,652.5 361.5,652.8 361.3,652.2 C 361.2,651.6 361.3,651.3 361.8,651.0 C 362.2,650.7 362.5,650.4 362.3,650.0 C 362.0,649.6 361.9,648.7 361.9,648.3 C 361.8,647.9 361.8,647.8 361.5,648.1 z "/>
    </g>
    <g fill="#00b800">
      <path d="M 355.3,656.9 C 355.3,657.2 355.4,657.5 355.4,657.7 C 355.4,658.0 355.5,658.6 355.3,659.1 C 355.1,659.5 355.1,659.7 355.3,659.9 C 355.3,659.9 355.3,659.9 355.3,659.9 C 355.7,659.8 355.8,659.3 355.7,659.1 C 355.6,658.8 355.6,658.5 355.7,658.3 C 355.9,658.0 355.9,657.9 355.8,657.7 C 355.6,657.5 355.6,657.5 355.8,657.1 C 355.9,656.6 355.6,656.6 355.3,656.9 z "/>
    </g>
    <g fill="#00b800">
      <path d="M 359.8,663.6 C 359.7,663.3 359.4,662.1 359.4,661.3 C 359.401,660.6 359.0,659.9 358.4,659.3 C 357.9,658.9 357.7,658.1 357.7,657.5 C 357.3,657.3 357.2,657.4 357.2,657.8 C 357.2,658.3 357.7,658.5 357.6,659.2 C 357.6,659.9 357.6,659.7 357.9,660.0 C 358.2,660.4 358.4,660.7 358.2,660.8 C 358.0,661.0 358.0,661.2 358.2,661.3 C 358.5,661.4 358.5,661.6 358.5,661.9 C 358.4,662.1 358.7,662.22 358.8,662.3 C 358.9,662.5 358.9,662.9 358.8,663.2 C 358.7,663.4 358.7,663.848 358.9,663.6 C 359.1,663.4 359.2,663.6 359.4,663.9 C 359.6,664.2 359.7,664.1 359.9,664.0 C 359.8,663.9 359.8,663.7 359.8,663.6 z "/>
    </g>
    <g fill="#00b800">
      <path d="M 363.1,669.7 C 363.0,670.0 362.8,669.9 362.7,669.7 C 362.5,669.6 362.3,669.6 362.4,669.3 C 362.5,669.0 362.4,668.9 362.2,668.8 C 362.2,668.8 362.2,668.8 362.2,668.7 C 362.1,668.7 362.0,668.7 361.9,668.7 C 361.6,668.7 361.5,668.6 361.3,668.4 C 361.3,668.4 361.2,668.3 361.2,668.3 C 361.2,668.4 361.2,668.4 361.2,668.5 C 361.2,668.8 361.2,668.7 360.9,668.8 C 360.6,668.9 360.7,668.5 360.6,668.3 C 360.6,668.2 360.6,668.2 360.6,668.2 C 360.3,668.1 359.9,667.8 359.8,667.4 C 359.7,667.0 359.8,667.0 360.0,667.2 C 360.1,667.5 360.2,667.6 360.4,667.7 C 360.6,667.9 360.7,667.6 360.6,667.3 C 360.6,667.2 360.6,667.1 360.6,667.0 C 360.5,666.9 360.5,666.8 360.4,666.7 C 359.9,666.6 360.1,666.5 360.1,666.2 C 360.1,665.8 360.1,665.8 359.8,666.0 C 359.5,666.2 359.5,666.0 359.5,665.5 C 359.5,664.9 359.2,664.9 359.1,665.3 C 359.0,665.7 358.9,665.4 358.7,664.9 C 358.6,664.4 358.4,664.3 358.3,664.8 C 358.3,665.2 358.2,665.3 357.9,665.0 C 358.0,665.3 358.0,665.6 358.1,665.9 C 358.2,666.7 358.4,666.4 358.8,666.8 C 359.2,667.1 359.1,667.3 359.2,667.5 C 359.4,667.7 359.4,667.8 359.4,668.0 C 359.3,668.2 359.2,668.4 359.3,668.6 C 359.4,668.8 359.5,668.8 359.5,669.1 C 359.5,669.4 359.6,669.3 359.7,669.4 C 359.8,669.4 359.8,669.4 359.9,669.4 C 360.0,669.3 360.0,669.2 360.1,669.2 C 360.4,668.8 360.9,669.2 361.0,669.6 C 361.2,670.0 361.4,670.1 361.662,669.8 C 361.8,669.4 361.8,669.5 362.0,669.8 C 362.3,670.1 362.4,670.0 362.4,670.0 C 362.4,670.0 362.7,669.9 362.8,670.1 C 363.0,670.2 363.1,670.2 363.5,669.7 C 363.8,669.2 363.3,669.4 363.1,669.7 z "/>
    </g>
    <g fill="#00b800">
      <path d="M 364.1,655.4 C 364.2,654.7 364.1,653.9 364.4,653.6 C 364.7,653.3 365.1,652.8 365.1,654.0 C 365.0,655.1 365.0,655.1 364.8,655.3 C 364.5,655.6 364.3,655.7 364.6,656.1 C 364.8,656.6 364.8,656.6 364.8,657.3 C 364.8,658.0 364.8,658.3 365.0,658.6 C 365.3,659.0 365.4,659.0 365.5,659.4 C 365.5,659.8 365.8,660.3 366.1,660.6 C 366.4,660.9 366.791,661.7 366.8,662.2 C 366.8,662.8 367.3,662.9 367.7,663.3 C 368.2,663.7 367.6,663.9 367.3,663.8 C 366.9,663.6 367.1,663.8 366.9,664.0 C 366.7,664.2 366.6,664.3 366.4,663.9 C 366.3,663.5 365.7,663.2 365.4,663.1 C 365.1,663.0 364.9,662.5 364.6,662.1 C 364.4,661.7 364.0,661.4 363.6,661.4 C 363.7,661.7 363.8,661.9 363.8,662.0 C 363.7,662.4 363.5,662.7 363.9,663.1 C 364.4,663.606 364.6,664.2 364.7,664.6 C 364.7,665.0 364.8,665.1 365.2,665.0 C 365.6,664.8 365.8,664.7 365.9,664.5 C 366.1,664.4 366.4,664.4 366.7,664.6 C 367.1,664.8 367.7,665.0 368.1,664.8 C 368.4,664.6 368.6,664.3 368.9,664.3 C 369.4,663.9 369.5,663.2 369.7,663.0 C 369.8,662.8 369.7,662.8 369.5,662.6 C 369.3,662.4 369.4,662.0 369.3,661.7 C 369.3,661.3 369.2,660.8 368.8,660.106 C 368.3,659.3 368.1,658.4 367.8,658.1 C 367.5,657.9 367.4,657.3 367.4,657.0 C 367.3,656.7 367.0,656.5 366.8,656.3 C 366.6,656.1 366.4,655.8 366.2,654.5 C 366.0,653.6 365.8,652.9 365.8,652.5 C 365.5,652.9 365.3,653.0 365.3,652.7 C 365.1,652.4 365.0,652.2 364.9,652.4 C 364.7,652.6 364.7,652.3 364.7,652.1 C 364.7,651.9 364.7,651.9 364.5,651.9 C 364.3,651.9 364.5,651.6 364.4,651.1 C 364.3,650.6 364.2,650.5 364.1,651.1 C 364.1,651.7 363.7,652.1 363.9,652.3 C 364.0,652.4 363.9,652.7 363.8,653.1 C 363.7,653.5 363.776,653.8 363.8,654.0 C 363.9,654.3 363.8,654.8 363.7,655.3 C 363.6,655.7 364.0,656.2 364.1,655.4 z "/>
    </g>
    <g fill="#00b800">
      <path d="M 357.7,649.2 C 357.5,649.2 357.3,649.4 357.5,650.2 C 357.5,650.7 357.2,650.6 357.0,650.4 C 356.9,650.1 356.8,649.6 356.5,649.1 C 356.2,648.7 356.4,649.5 356.3,649.9 C 356.3,650.3 356.6,650.3 356.8,650.6 C 357.1,651.0 356.9,651.1 356.6,651.1 C 356.3,651.1 356.5,651.721 356.5,652.1 C 356.6,652.4 356.5,652.553 356.2,652.2 C 356.0,651.9 356.2,651.4 356.2,650.8 C 356.2,650.2 356.3,650.4 355.9,650.2 C 355.5,650.1 355.6,650.0 355.7,649.7 C 355.9,649.3 356.0,649.1 355.8,649.0 C 355.7,648.8 355.7,648.7 356.0,648.7 C 356.2,648.6 356.1,648.4 356.4,648.3 C 356.6,648.3 356.7,648.4 356.8,647.9 C 356.8,647.6 356.9,647.3 357.2,647.4 C 357.4,648.0 357.6,648.9 357.7,649.2 z "/>
    </g>
    <g fill="#00b800">
      <path d="M 361.2,653.3 C 361.2,654.0 361.2,654.3 361.5,654.5 C 361.9,654.8 361.8,655.1 362.0,655.8 C 362.1,656.4 362.1,657.8 362.5,658.8 C 362.6,659.1 362.8,659.5 363.0,659.8 C 363.2,659.7 363.4,659.4 363.5,659.2 C 363.6,658.9 363.3,658.5 363.0,658.0 C 362.8,657.6 363.1,657.5 363.3,657.0 C 363.6,656.5 363.3,656.4 362.9,656.3 C 362.5,656.1 362.5,655.8 362.3,655.2 C 362.1,654.7 362.1,654.4 362.3,654.1 C 362.4,653.8 362.3,653.6 362.0,653.5 C 361.8,653.4 361.8,653.2 361.9,652.9 C 362.0,652.5 362.1,652.5 361.7,652.6 C 361.417,652.7 361.3,652.7 361.2,652.8 C 361.2,652.9 361.2,653.1 361.2,653.3 z "/>
    </g>
    <g fill="black">
      <path d="M 365.2,654.7 C 365.2,655.1 365.2,655.3 365.1,655.5 C 365.0,655.6 365.0,655.8 365.1,656.0 C 365.3,656.2 365.3,656.5 365.2,656.9 C 365.1,657.3 365.3,657.6 365.5,657.7 C 365.7,657.8 365.8,657.7 365.7,658.2 C 365.7,658.7 365.9,659.2 366.2,659.4 C 366.4,659.6 366.6,660.0 366.6,660.2 C 366.5,660.4 366.7,660.6 367.0,660.7 C 367.2,660.8 367.2,660.8 367.2,661.0 C 367.2,661.1 367.3,661.1 367.6,661.2 C 367.8,661.2 368.1,661.4 368.4,661.8 C 368.7,662.2 369.1,662.4 369.1,662.0 C 369.0,661.5 369.1,661.3 368.6,661.1 C 368.2,660.9 367.9,659.8 367.7,659.2 C 367.6,658.5 367.0,657.5 366.7,657.4 C 366.7,656.9 366.7,656.6 366.4,656.4 C 366.1,656.1 366.0,655.8 366.0,655.6 C 366.0,655.3 365.8,655.0 365.7,655.0 C 365.6,654.9 365.5,654.7 365.5,654.5 C 365.5,654.3 365.3,654.3 365.2,654.7 z " fill="#5d3100" fill-opacity="1"/>
    </g>
    <g fill="#00d860">
      <path d="M 363.4,673.3 C 364.0,673.3 365.7,672.8 365.9,672.6 C 366.3,672.9 367.0,673.3 367.3,673.3 C 366.7,673.4 366.3,673.3 366.2,673.2 C 366.3,673.4 366.5,673.7 366.6,673.7 C 366.0,673.7 365.4,673.6 365.2,673.4 C 364.7,673.6 363.8,673.6 363.4,673.3 z "/>
    </g>
    <g fill="#00d860">
      <path d="M 364.5,674.1 C 364.7,674.2 365.8,674.3 366.0,674.3 C 365.6,674.6 365.9,674.9 366.5,674.9 C 366.2,674.9 365.9,675.0 366.1,675.1 C 366.7,675.2 368.1,674.8 368.4,674.6 C 367.9,675.3 365.5,675.9 364.5,674.1 z "/>
    </g>
    <g fill="#00d860">
      <path d="M 365.5,675.7 C 365.8,675.5 366.5,675.6 366.9,675.7 C 366.5,675.9 365.7,675.9 365.5,675.7 z "/>
    </g>
    <g fill="black">
      <path d="M 366.6,675.6 C 367.1,675.6 368.6,675.9 369.2,675.6 C 369.0,676.1 368.0,676.1 367.7,676.0 C 367.4,675.9 367.1,675.8 366.9,675.8 C 367.0,675.8 366.8,675.7 366.6,675.6 z "/>
    </g>
    <g fill="#00d860">
      <path d="M 367.1,676.4 C 367.6,676.5 369.0,676.3 369.4,676.1 C 369.9,676.3 370.8,676.5 371.0,676.5 C 370.6,676.8 369.7,676.6 369.5,676.5 C 368.7,676.7 368.1,676.8 367.1,676.4 z "/>
    </g>
    <g fill="#00d860">
      <path d="M 367.8,676.6 C 368.4,676.8 368.9,676.7 369.5,676.5 C 369.7,676.6 370.1,676.6 370.5,676.6 C 370.7,676.8 371.1,677.0 371.4,677.0 C 371.1,677.2 369.8,677.0 369.5,676.9 C 368.9,676.9 367.7,677.0 367.5,677.2 C 367.5,677.1 367.6,676.8 367.8,676.6 z "/>
    </g>
    <g fill="black">
      <path d="M 367.1,673.7 C 367.648,673.9 369.2,673.8 370.1,673.4 C 370.4,673.2 370.6,673.5 370.2,673.6 C 368.9,674.1 367.8,674.3 367.0,673.9 C 366.7,673.7 366.7,673.5 367.1,673.7 z "/>
    </g>
    <g fill="#00d860">
      <path d="M 375.1,671.5 C 373.1,672.4 371.8,672.7 369.0,671.9 C 368.8,671.8 368.6,671.9 368.9,672.0 C 369.1,672.2 370.7,672.6 371.0,672.7 C 371.4,672.7 371.3,672.9 371.1,672.9 C 370.8,673.0 370.8,673.1 371.1,673.0 C 371.4,672.9 373.0,672.9 373.7,673.2 C 374.0,673.4 374.1,673.3 374.1,673.2 C 374.0,673.1 374.2,673.0 374.4,673.0 C 374.6,673.0 374.8,672.9 374.6,672.8 C 374.4,672.8 374.4,672.7 374.5,672.7 C 374.7,672.6 374.7,672.5 374.5,672.5 C 374.3,672.5 374.2,672.4 374.3,672.3 C 374.5,672.2 374.8,672.2 375.0,672.1 C 375.1,672.0 375.0,671.6 375.1,671.5 z "/>
    </g>
    <g fill="black">
      <path d="M 371.8,671.7 C 372.9,671.8 375.0,671.3 376.2,670.2 C 376.6,670.4 377.1,670.7 377.4,670.7 C 377.7,670.8 377.9,671.0 377.5,671.0 C 377.0,671.0 376.4,670.9 376.1,670.7 C 374.7,671.6 372.9,671.9 371.8,671.9 C 371.5,671.8 371.4,671.7 371.8,671.7 z "/>
    </g>
    <g fill="#00d860">
      <path d="M 368.4,665.5 C 368.8,665.8 369.5,666.2 370.446,666.2 C 370.8,666.5 371.5,666.8 371.8,666.9 C 371.2,667.1 370.6,667.3 370.4,667.5 C 370.1,667.3 369.8,667.3 369.7,667.2 C 369.4,667.4 369.5,667.5 369.7,667.6 C 369.8,667.7 371.1,667.9 371.5,667.8 C 371.8,667.7 371.9,668.0 371.6,668.1 C 370.9,668.4 369.5,668.1 369.1,667.4 C 368.6,666.6 368.2,666.3 366.9,667.0 C 366.8,666.7 366.8,666.6 366.5,666.6 C 366.3,666.6 365.8,666.2 366.2,666.3 C 366.5,666.3 367.6,666.1 368.4,665.5 z "/>
    </g>
    <g fill="#00d860">
      <path d="M 368.7,667.2 C 368.5,667.2 367.9,667.6 367.7,667.6 C 367.5,667.6 367.1,667.9 367.5,667.9 C 367.9,667.9 368.4,667.5 368.7,667.5 C 369.0,667.4 369.0,667.1 368.7,667.2 z "/>
    </g>
    <g fill="#00d860">
      <path d="M 370.0,668.5 C 369.8,668.5 369.2,668.7 369.0,668.6 C 368.8,668.6 368.6,668.7 368.6,668.8 C 368.7,668.9 368.7,669.0 368.4,669.0 C 368.2,669.0 367.9,669.1 367.9,669.2 C 367.8,669.2 367.7,669.3 368.0,669.3 C 368.3,669.4 368.4,669.4 368.7,669.2 C 369.1,669.1 369.4,668.9 369.7,668.9 C 370.0,668.9 370.4,668.4 370.0,668.5 z "/>
    </g>
    <g fill="black">
      <path d="M 369.1,669.3 C 369.3,669.5 370.7,669.9 371.3,669.9 C 371.8,669.9 371.7,670.1 371.3,670.2 C 370.5,670.4 369.5,670.0 368.9,669.5 C 368.5,669.2 368.8,669.1 369.1,669.3 z "/>
    </g>
    <g fill="#00d860">
      <path d="M 375.7,670.0 C 374.6,670.3 373.5,670.2 373.1,670.1 C 372.7,670.0 372.3,669.9 372.6,670.2 C 372.9,670.5 373.8,670.7 374.4,670.6 C 372.4,671.0 371.9,671.0 371.4,670.9 C 371.0,670.8 370.1,670.8 369.7,670.9 C 369.4,670.9 369.0,670.8 368.8,670.7 C 368.7,670.6 368.6,670.4 369.1,670.5 C 369.6,670.5 369.7,670.4 369.2,670.4 C 368.8,670.3 368.2,670.5 368.8,670.9 C 369.4,671.2 370.7,670.8 371.5,671.1 C 372.4,671.3 374.1,671.5 375.8,670.1 C 375.9,670.1 376.0,669.9 375.7,670.0 z "/>
    </g>
    <g fill="#00d860">
      <path d="M 370.4,668.4 C 370.5,668.5 370.5,668.7 370.4,668.7 C 370.4,668.8 370.4,669.0 370.6,668.8 C 370.7,668.7 370.8,668.5 371.0,668.6 C 371.2,668.7 371.6,668.7 371.8,668.7 C 372.0,668.7 372.1,668.6 371.8,668.5 C 371.5,668.4 371.2,668.3 371.0,668.4 C 370.9,668.4 370.7,668.3 370.6,668.3 C 370.4,668.2 370.4,668.3 370.4,668.4 z "/>
    </g>
    <g fill="#00d860">
      <path d="M 373.2,668.9 C 373.0,668.9 372.6,668.8 372.4,668.7 C 372.2,668.6 371.9,668.6 372.1,668.9 C 372.3,669.2 373.3,669.3 373.6,669.2 C 374.0,669.0 373.8,668.9 374.2,669.1 C 374.5,669.3 374.8,669.5 375.1,669.5 C 375.3,669.5 375.4,669.5 375.2,669.3 C 374.9,669.1 374.7,669.1 374.7,669.0 C 374.7,668.8 374.7,668.8 374.9,668.8 C 375.2,668.9 375.4,669.1 375.6,669.0 C 375.8,668.9 376.2,668.6 376.5,668.6 L 376.6,668.4 C 376.1,668.4 375.8,668.5 375.7,668.6 C 375.6,668.6 375.3,668.7 375.1,668.6 C 374.8,668.6 374.5,668.6 374.4,668.5 C 374.4,668.4 374.4,668.4 374.6,668.3 C 374.8,668.3 374.8,668.2 374.6,668.2 C 374.3,668.3 373.5,668.2 373.1,668.1 C 372.7,668.0 372.5,668.0 372.4,668.0 C 372.2,668.1 372.2,668.3 372.5,668.3 C 372.7,668.3 373.3,668.3 373.5,668.5 C 373.7,668.7 373.6,668.7 373.4,668.6 C 373.2,668.5 372.8,668.6 373.2,668.9 z "/>
    </g>
    <g fill="#00d860">
      <path d="M 376.6,668.4 L 376.5,668.6 C 377.0,668.6 378.2,668.7 378.5,669.0 C 378.9,668.7 378.8,668.6 379.1,668.6 C 379.4,668.7 379.7,668.8 379.8,668.7 C 380.0,668.6 380.1,668.6 380.2,668.7 C 380.4,668.7 380.7,668.6 380.9,668.5 C 381.1,668.4 381.5,668.2 381.8,668.2 C 382.0,668.2 382.3,668.2 381.8,668.1 C 381.4,668.0 380.8,668.2 380.5,668.3 C 380.3,668.3 379.7,668.4 379.3,668.4 C 378.9,668.4 378.3,668.6 377.9,668.5 C 377.5,668.3 376.9,668.4 376.6,668.4 z "/>
    </g>
    <g fill="black">
      <path d="M 382.6,668.2 C 381.8,668.8 380.9,668.9 379.8,669.0 C 379.5,669.0 379.6,669.1 379.8,669.1 C 381.0,669.2 382.4,668.8 382.8,668.3 C 382.9,668.2 382.9,668.0 382.6,668.2 z "/>
    </g>
    <g fill="#00d860">
      <path d="M 377.3,669.5 C 377.6,669.5 378.8,669.8 379.2,670.0 C 379.5,669.9 379.5,669.9 379.5,669.8 C 379.4,669.7 379.4,669.5 379.9,669.6 C 380.4,669.6 381.6,669.6 381.9,669.6 C 382.0,669.5 382.4,669.2 382.6,669.2 C 382.2,669.2 380.2,669.3 380.0,669.3 C 379.7,669.3 379.6,669.3 379.4,669.4 C 379.3,669.5 379.2,669.5 379.0,669.4 C 378.8,669.3 378.4,669.2 378.2,669.4 C 378.1,669.527 377.6,669.4 377.3,669.5 z "/>
    </g>
    <g fill="#00d860">
      <path d="M 381.9,669.6 C 382.0,669.5 382.4,669.2 382.6,669.2 C 383.0,669.2 383.4,669.3 383.5,669.3 C 383.7,669.3 383.9,669.3 383.8,669.2 C 383.7,669.072 383.8,668.8 384.3,668.8 C 384.8,668.9 385.1,669.0 385.6,668.9 C 386.1,668.9 386.4,669.3 387.4,668.9 C 387.3,669.3 387.5,669.3 387.7,669.2 C 387.8,669.2 388.0,669.2 388.4,669.4 C 388.7,669.6 390.6,669.7 391.0,669.6 C 391.4,669.5 391.73,669.8 391.3,669.9 C 391.0,670.0 390.9,670.1 391.0,670.2 C 391.1,670.3 391.2,670.5 390.7,670.4 C 390.3,670.3 390.3,670.5 390.0,670.6 C 389.8,670.8 389.8,670.8 389.2,670.7 C 388.6,670.6 388.5,670.7 388.2,670.8 C 387.9,670.8 387.8,670.8 387.5,670.7 C 387.2,670.6 386.5,670.5 386.1,670.6 C 385.7,670.8 385.4,670.9 385.0,670.8 C 384.7,670.7 384.6,670.7 384.9,670.5 C 385.1,670.3 385.2,670.3 385.6,670.2 C 386.0,670.2 386.4,670.1 386.1,669.9 C 385.8,669.7 385.7,669.7 385.2,669.9 C 384.8,670.1 384.6,670.3 384.1,670.0 C 383.726,669.8 383.4,669.8 383.1,669.9 C 382.8,670.0 382.3,669.8 381.9,669.6 z "/>
    </g>
    <g fill="#00d860">
      <path d="M 383.4,670.4 C 382.8,670.4 382.7,670.1 382.0,670.1 C 381.8,670.2 381.5,670.4 382.0,670.4 C 382.4,670.3 383.0,670.6 383.4,670.6 C 383.9,670.5 383.7,670.3 383.4,670.4 z "/>
    </g>
    <g fill="#00d860">
      <path d="M 382.7,670.8 C 383.0,670.7 383.7,670.9 384.0,670.9 C 384.2,670.8 384.5,671.0 384.2,671.1 C 383.9,671.2 383.2,670.9 382.9,671.0 C 382.6,671.1 382.3,671.0 382.7,670.8 z "/>
    </g>
    <g fill="#00d860">
      <path d="M 376.5,672.5 C 376.9,672.5 378.5,672.4 379.1,671.1 C 379.1,671.0 379.2,671.0 379.4,671.1 C 379.6,671.3 380.3,671.7 381.6,671.8 C 382.0,671.8 382.4,672.0 381.7,672.0 C 380.9,671.9 379.7,671.7 379.3,671.5 C 378.6,672.5 377.4,672.7 376.5,672.6 C 376.0,672.6 376.1,672.5 376.5,672.5 z "/>
    </g>
    <g fill="#00d860">
      <path d="M 379.9,670.7 C 379.6,671.0 378.9,671.5 378.6,671.5 C 378.3,671.6 377.3,671.5 377.1,671.4 C 376.8,671.3 376.5,671.3 376.9,671.6 C 377.2,671.8 378.1,672.0 378.4,671.9 C 378.8,671.8 379.2,671.7 379.5,671.9 C 379.7,672.0 380.2,672.4 380.5,672.3 C 380.8,672.2 381.5,672.2 381.6,672.3 C 381.8,672.4 382.2,672.7 381.7,672.5 C 381.2,672.4 380.8,672.5 380.5,672.4 C 380.8,672.8 381.4,673.3 381.9,673.3 C 382.0,673.3 382.1,673.6 381.8,673.7 C 382.1,673.8 382.6,673.9 382.9,673.6 C 382.9,673.7 382.9,673.8 383.0,673.8 C 383.2,673.9 383.3,674.0 383.1,674.0 C 382.8,674.1 382.3,674.1 382.2,674.1 C 382.7,674.4 384.0,674.9 385.3,674.6 C 385.6,674.6 385.7,674.5 385.3,674.5 C 384.4,674.5 384.4,674.5 384.2,674.4 C 384.1,674.3 384.1,674.2 384.3,674.2 C 384.6,674.1 385.2,674.0 385.5,674.0 C 385.7,674.0 386.0,673.9 385.5,673.9 C 384.9,673.9 384.3,673.9 384.0,673.8 C 383.8,673.7 383.6,673.6 383.8,673.4 C 384.1,673.2 384.4,673.3 384.5,673.1 C 383.7,673.1 382.6,672.6 383.2,672.2 C 383.3,672.1 383.3,672.1 383.1,672.1 C 382.8,672.1 382.2,671.9 381.9,671.7 C 381.6,671.6 381.8,671.5 382.1,671.4 C 381.5,671.5 380.5,671.2 379.9,670.7 z "/>
    </g>
    <g fill="#00d860">
      <path d="M 387.5,670.7 C 387.0,671.0 386.1,671.2 385.8,671.2 C 385.4,671.2 385.3,671.3 385.6,671.4 C 385.9,671.4 386.2,671.4 386.4,671.4 C 386.5,671.4 386.6,671.3 386.8,671.4 C 387.0,671.5 387.4,671.6 387.8,671.5 C 388.1,671.3 388.7,671.3 389.0,671.3 C 389.2,671.3 389.5,671.3 389.0,671.2 C 388.5,671.0 387.7,671.2 387.5,671.2 C 387.3,671.3 386.8,671.2 387.1,671.1 C 387.3,671.0 387.6,670.9 387.7,670.8 C 387.676,670.8 387.6,670.7 387.5,670.7 z "/>
    </g>
    <g fill="#00d860">
      <path d="M 387.2,671.7 C 386.8,672.0 386.2,672.3 385.7,672.3 C 386.2,672.5 386.7,673.1 387.052,673.1 C 386.8,673.2 386.6,673.3 386.4,673.3 C 386.7,673.4 387.3,673.3 387.8,673.1 C 388.6,673.3 389.6,673.1 389.9,672.9 C 389.4,672.9 388.8,672.7 388.5,672.4 C 388.8,672.4 389.0,672.3 389.1,672.1 C 388.5,672.2 387.5,672.0 387.2,671.7 z "/>
    </g>
    <g fill="#00d860">
      <path d="M 386.4,673.3 C 386.6,673.3 386.8,673.2 387.052,673.1 C 386.6,673.2 384.7,672.9 384.1,672.4 C 383.6,671.9 383.6,672.3 384.0,672.6 C 384.4,673.0 385.1,673.5 386.4,673.3 z "/>
    </g>
    <g fill="#00d860">
      <path d="M 387.8,674.5 C 387.5,674.7 386.4,674.7 386.1,674.7 C 385.7,674.6 385.5,674.6 385.6,674.8 C 385.7,674.9 385.8,675.0 385.5,675.0 C 385.2,675.0 384.6,675.0 384.4,675.1 C 384.2,675.2 383.9,675.4 384.4,675.3 C 384.9,675.2 385.3,675.1 385.6,675.2 C 386.0,675.3 387.2,675.3 387.5,675.2 C 387.7,675.1 387.6,675.1 387.4,675.1 C 387.3,675.1 387.3,675.1 387.4,675.0 C 387.6,674.9 387.7,674.7 387.8,674.5 z "/>
    </g>
    <g fill="#00d860">
      <path d="M 377.0,673.0 C 376.5,673.2 374.9,673.6 374.5,673.7 C 374.0,673.9 373.6,674.0 373.3,674.0 C 373.5,674.2 374.2,674.3 374.5,674.3 C 374.3,674.4 374.0,674.6 373.9,674.7 C 374.3,674.6 374.8,674.7 375.0,674.8 C 374.4,675.1 373.7,675.2 373.3,675.1 C 373.4,675.3 373.6,675.5 373.8,675.5 C 373.3,675.6 372.7,675.6 372.4,675.5 C 372.6,675.8 372.7,675.9 372.9,676.0 C 372.4,676.0 371.9,676.1 371.5,675.8 C 371.8,676.3 372.6,676.4 373.7,676.3 C 374.8,676.2 375.8,675.725 376.0,675.5 C 375.5,675.5 374.9,675.5 374.6,675.5 C 375.2,675.3 376.6,674.8 376.8,674.5 C 376.6,674.5 376.3,674.5 376.1,674.3 C 376.5,674.4 377.8,674.2 378.1,674.1 C 377.7,674.0 377.4,673.7 377.3,673.5 C 378.9,674.0 380.7,673.8 381.6,673.6 C 381.8,673.6 381.8,673.3 381.4,673.3 C 380.7,673.4 379.3,673.2 378.9,673.0 C 379.3,673.3 379.7,673.4 380.0,673.5 C 379.3,673.6 378.3,673.8 377.0,673.0 z "/>
    </g>
    <g fill="#00d860">
      <path d="M 373.9,674.7 C 374.0,674.6 374.3,674.4 374.5,674.3 C 374.2,674.3 373.5,674.2 373.3,674.0 C 373.6,674.0 374.0,673.9 374.5,673.7 C 373.6,673.6 372.9,673.6 372.6,673.5 C 372.3,673.3 371.6,673.3 371.4,673.4 C 371.2,673.4 371.3,673.8 372.2,673.7 C 371.8,674.0 370.7,674.1 370.3,674.0 C 370.4,674.3 370.5,674.7 370.4,674.9 C 370.9,675.2 372.3,675.6 373.0,675.5 C 372.4,675.3 372.1,675.0 372.6,675.0 C 373.1,674.9 373.4,674.8 373.9,674.7 z "/>
    </g>
    <g fill="black">
      <path d="M 372.2,676.4 C 373.5,676.3 375.2,676.3 376.5,675.1 C 376.8,674.8 377.0,674.9 376.7,675.2 C 376.0,675.9 374.3,676.7 372.6,676.7 C 371.9,676.8 371.6,676.4 372.2,676.4 z "/>
    </g>
    <g fill="#00d860">
      <path d="M 381.6,674.3 C 381.2,674.4 380.4,674.6 380.1,674.5 C 379.9,674.5 379.5,674.5 379.3,674.6 C 379.1,674.8 379.1,674.88 379.3,674.9 C 379.6,674.9 380.0,674.9 380.2,674.9 C 379.9,675.0 379.8,675.2 379.7,675.3 C 380.1,675.2 380.9,675.4 381.1,675.5 C 381.0,675.5 380.8,675.5 380.6,675.4 C 381.3,676.1 383.4,676.1 383.7,676.0 C 383.6,676.1 383.4,676.2 383.3,676.3 C 383.9,676.4 384.5,676.4 385.2,676.0 C 385.0,676.0 384.3,676.0 384.2,675.9 C 384.3,675.8 384.5,675.7 384.7,675.6 C 384.4,675.6 383.6,675.6 383.4,675.7 C 383.5,675.6 383.6,675.4 383.8,675.3 C 382.7,675.3 381.5,675.3 381.0,675.1 C 381.8,675.1 382.6,674.7 382.9,674.7 C 382.3,674.7 381.7,674.6 381.6,674.3 z "/>
    </g>
    <g fill="#00d860">
      <path d="M 378.9,674.9 C 378.4,675.0 377.7,675.2 377.5,675.3 C 377.3,675.4 377.0,675.5 377.5,675.5 C 377.9,675.5 379.2,675.6 379.5,675.6 C 378.8,675.5 377.8,675.5 377.6,675.5 C 377.5,675.5 377.3,675.5 377.645,675.4 C 377.9,675.2 378.4,675.0 378.9,674.9 z "/>
    </g>
    <g fill="#00d860">
      <path d="M 377.9,676.1 C 378.1,676.1 378.9,676.1 379.2,675.8 C 379.5,676.1 380.2,676.4 380.6,676.4 C 381.0,676.4 380.9,676.5 380.6,676.6 C 380.2,676.6 379.5,676.4 379.2,676.1 C 378.7,676.3 378.3,676.2 377.9,676.1 z "/>
    </g>
    <g fill="#00d860">
      <path d="M 371.9,679.6 C 372.7,679.9 373.8,680.1 374.6,679.9 C 375.0,680.3 375.9,680.3 376.4,680.2 C 376.9,680.1 377.3,680.0 377.9,680.2 C 378.4,680.4 379.5,680.4 379.9,680.7 C 379.6,680.7 379.0,680.7 378.8,680.7 C 378.7,680.8 378.8,680.8 379.0,681.0 C 378.1,680.9 376.6,681.3 376.1,681.7 C 376.3,681.3 376.8,680.8 377.6,680.8 C 377.2,680.6 375.7,680.6 375.2,680.9 C 375.1,680.7 374.9,680.5 374.9,680.4 C 374.1,680.8 372.5,680.2 371.9,679.6 z "/>
    </g>
    <g fill="#00d860">
      <path d="M 369.8,678.1 C 370.8,678.0 371.4,677.7 371.7,677.4 C 371.9,677.6 372.6,677.7 373.4,677.5 C 373.2,677.6 373.2,677.8 373.3,677.9 C 372.8,678.0 371.8,678.2 371.5,678.4 C 371.2,678.596 370.2,678.7 369.9,678.5 C 369.6,678.3 369.6,678.2 369.8,678.1 z "/>
    </g>
    <g fill="#00d860">
      <path d="M 373.3,677.9 C 372.8,678.0 371.8,678.2 371.5,678.4 C 371.5,678.5 371.6,678.7 371.6,678.9 C 372.5,678.5 374.7,678.3 375.5,678.4 C 375.1,678.5 374.4,678.9 373.9,678.9 C 375.0,678.8 375.9,679.1 376.2,679.1 C 376.5,679.2 376.5,679.4 376.3,679.6 C 376.1,679.7 376.0,679.8 376.5,679.8 C 376.9,679.8 377.7,679.7 378.1,679.4 C 378.0,679.2 377.6,679.3 377.4,679.1 C 377.7,679.1 378.0,678.9 378.1,678.7 C 377.4,678.7 377.2,678.7 376.9,678.6 C 376.7,678.6 376.5,678.5 376.8,678.4 C 377.1,678.2 377.2,678.1 377.3,678.0 C 376.8,678.1 376.0,678.2 375.4,677.7 C 375.6,677.8 376.2,677.7 376.462,677.7 C 376.2,677.5 376.0,677.4 375.8,677.4 C 376.4,677.2 377.4,676.9 378.7,677.5 C 379.4,677.4 380.1,677.4 380.6,677.6 C 380.8,677.4 381.2,676.9 381.4,676.7 C 379.9,676.9 377.2,676.6 377.2,675.8 C 376.7,676.4 375.6,676.8 375.1,676.7 C 375.0,676.9 375.2,677.2 375.4,677.4 C 374.9,677.5 374.0,677.5 373.6,677.5 C 373.8,677.7 374.3,677.9 374.5,677.9 C 374.0,677.9 373.7,678.0 373.3,677.9 z "/>
    </g>
    <g fill="#00d860">
      <path d="M 376.5,679.8 C 376.9,679.8 377.7,679.7 378.1,679.4 C 378.0,679.2 377.6,679.3 377.4,679.1 C 377.7,679.1 378.0,678.9 378.1,678.7 C 379.2,678.6 380.2,678.7 380.7,678.5 C 381.1,678.4 382.3,678.5 382.6,678.4 C 381.5,678.6 381.3,678.7 381.3,678.8 C 381.2,679.0 381.6,679.1 381.9,679.1 C 381.4,679.1 380.8,679.6 380.8,679.8 C 380.1,679.4 379.8,679.9 379.8,680.0 C 379.5,679.9 378.6,679.9 378.2,680.3 C 377.6,680.1 377.3,680.1 376.7,680.1 C 377.0,680.1 377.0,679.8 376.5,679.8 z "/>
    </g>
    <g fill="#00d860">
      <path d="M 381.4,676.7 C 381.8,676.7 382.6,676.8 382.8,676.7 C 382.6,676.8 382.4,677.0 382.4,677.1 C 383.2,677.0 384.5,676.9 384.8,676.9 C 384.4,676.9 383.9,677.2 383.7,677.3 C 383.5,677.4 383.6,677.5 383.9,677.6 C 384.2,677.6 384.6,677.8 384.1,677.8 C 383.5,677.7 382.5,677.7 382.2,677.7 C 381.9,677.8 381.8,677.6 382.2,677.6 C 382.5,677.5 382.8,677.4 383.0,677.3 C 382.7,677.4 382.1,677.4 381.9,677.3 C 381.7,677.3 381.6,677.2 381.8,677.1 C 382.0,677.1 381.9,677.0 381.6,677.0 C 381.4,677.0 380.9,677.3 380.6,677.6 C 380.9,677.2 381.2,676.9 381.4,676.7 z "/>
    </g>
    <g fill="black">
      <path d="M 377.5,677.3 C 377.9,677.8 378.4,678.1 379.2,678.1 C 379.4,678.1 379.7,678.3 379.3,678.4 C 378.2,678.4 377.7,678.1 377.2,677.4 C 377.1,677.3 377.3,677.1 377.5,677.3 z "/>
    </g>
    <g fill="black">
      <path d="M 384.0,668.2 C 384.6,668.5 385.7,668.7 386.6,668.7 C 386.8,668.7 387.1,668.9 386.7,668.9 C 385.7,669.0 384.8,668.9 383.9,668.4 C 383.7,668.3 383.8,668.1 384.0,668.2 z "/>
    </g>
    <g fill="#00d860">
      <path d="M 384.6,668.2 C 385.5,668.2 386.1,668.2 386.4,668.5 C 386.9,668.3 387.8,668.2 388.0,668.3 C 388.2,668.3 388.5,668.2 388.0,668.1 C 387.5,668.0 386.4,667.9 386.0,668.0 C 385.7,668.1 384.6,668.1 384.2,668.1 C 384.4,668.1 384.5,668.1 384.6,668.2 z "/>
    </g>
    <g fill="#00d860">
      <path d="M 388.0,668.6 C 388.4,668.4 389.6,668.6 390.0,668.4 C 389.7,668.7 390.8,668.7 391.8,668.5 C 391.4,668.7 390.6,668.8 390.3,668.9 C 389.9,669.1 389.8,669.0 389.5,668.8 C 389.2,668.7 388.6,668.5 388.0,668.6 z "/>
    </g>
    <g fill="#00d860">
      <path d="M 391.8,668.5 C 390.8,668.7 389.7,668.7 390.0,668.4 C 389.6,668.6 388.4,668.4 388.0,668.6 C 388.4,668.3 388.8,668.5 389.1,668.0 C 389.3,668.0 389.7,668.1 389.9,667.9 C 390.1,667.9 390.6,668.0 390.8,668.2 C 390.9,668.3 391.1,668.1 391.0,667.9 C 391.4,667.8 391.1,668.1 392.1,667.9 C 392.3,667.8 392.8,667.7 393.0,667.7 C 392.7,668.0 392.3,668.3 391.8,668.5 z "/>
    </g>
    <g fill="yellow" stroke="black" stroke-width="0.125">
      <path d="M 373.3,664.1 C 373.3,662.2 373.1,645.7 373.1,641.9 C 373.1,641.0 372.6,641.2 372.6,641.9 C 372.6,642.6 372.6,662.0 372.6,664.0 C 372.8,664.1 373.1,664.1 373.3,664.1 z "/>
    </g>
    <g fill="yellow" stroke="black" stroke-width="0.125">
      <path d="M 380.5,640.7 L 381.3,664.2 L 381.2,664.4 L 380.7,664.4 L 380.2,640.7 L 380.5,640.7 z "/>
    </g>
    <g fill="yellow" stroke="black" stroke-width="0.125">
      <path d="M 387.4,660.5 C 387.3,658.1 387.0,647.1 386.9,641.6 C 386.9,640.9 386.5,641.081 386.5,641.7 C 386.5,646.0 386.8,658.3 386.8,660.5 C 387.0,660.5 387.3,660.5 387.4,660.5 z "/>
    </g>
    <g fill="yellow" stroke="black" stroke-width="0.125">
      <path d="M 376.6,644.6 L 369.6,644.5 C 369.3,645.9 371.0,645.9 371.6,645.5 C 372.4,646.1 373.0,646.0 373.4,645.6 C 374.0,646.1 374.7,645.9 375.0,645.6 C 375.9,646.3 376.7,645.6 376.6,644.6 z " fill="white" fill-opacity="1"/>
    </g>
    <g fill="yellow" stroke="black" stroke-width="0.125">
      <path d="M 377.1,648.1 L 370.0,648.1 C 368.8,649.2 370.4,649.8 371.7,649.0 C 371.9,649.4 372.7,649.6 373.4,649.3 C 374.0,649.8 374.7,649.5 375.1,649.1 C 375.9,649.4 376.7,649.5 377.1,648.1 z " fill="white" fill-opacity="1"/>
    </g>
    <g fill="yellow" stroke="black" stroke-width="0.125">
      <path d="M 376.9,652.5 L 370.1,652.5 C 369.9,653.7 371.3,653.5 371.9,653.2 C 372.4,654.0 373.5,653.8 374.0,653.4 C 374.6,653.8 375.2,653.7 375.5,653.3 C 376.3,653.9 376.9,653.1 376.9,652.5 z " fill="white" fill-opacity="1"/>
    </g>
    <g fill="yellow" stroke="black" stroke-width="0.125">
      <path d="M 377.2,656.9 L 369.6,656.8 C 369.2,658.1 370.3,658.3 370.9,658.0 C 371.1,658.8 372.1,658.5 372.3,658.0 C 372.7,658.4 373.2,658.2 373.5,657.9 C 373.6,658.6 374.5,658.677 375.1,658.0 C 376.5,659.0 377.8,657.9 377.2,656.9 z " fill="white" fill-opacity="1"/>
    </g>
    <g fill="yellow" stroke="black" stroke-width="0.125">
      <path d="M 384.0,655.1 L 377.6,655.1 C 377.9,656.4 378.5,656.7 379.594,656 C 380.3,656.7 381.5,656.4 381.9,656.1 C 383.2,657.2 384.0,655.9 384.0,655.1 z " fill="white" fill-opacity="1"/>
    </g>
    <g fill="yellow" stroke="black" stroke-width="0.125">
      <path d="M 383.3,650.8 L 377.2,650.6 C 377.3,652.2 378.8,652.1 379.5,651.4 C 380.1,652.2 381.1,651.9 381.5,651.4 C 382.2,652.2 383.5,651.7 383.3,650.8 z " fill="white" fill-opacity="1"/>
    </g>
    <g fill="yellow" stroke="black" stroke-width="0.125">
      <path d="M 384.1,645.9 L 377.5,645.9 C 377.6,647.0 379.1,647.658 380.2,646.6 C 380.5,647.8 381.7,647.4 382.2,646.9 C 382.9,647.9 384.7,646.8 384.1,645.9 z " fill="white" fill-opacity="1"/>
    </g>
    <g fill="yellow" stroke="black" stroke-width="0.125">
      <path d="M 383.7,642.6 L 377.8,642.6 C 377.7,643.6 379.1,644.0 379.6,643.2 C 379.9,643.7 380.9,643.7 381.2,643.2 C 381.7,643.9 382.297,643.5 382.4,643.2 C 383.1,643.7 383.8,643.5 383.7,642.6 z " fill="white" fill-opacity="1"/>
    </g>
    <g fill="yellow" stroke="black" stroke-width="0.125">
      <path d="M 390.6,644.7 L 383.4,644.6 C 383.4,645.4 384.2,645.7 384.6,645.4 C 384.6,646.1 385.7,646.4 386.3,645.8 C 386.7,646.4 388.0,646.6 388.6,645.7 C 389.6,646.6 390.8,646.0 390.6,644.7 z " fill="white" fill-opacity="1"/>
    </g>
    <g fill="yellow" stroke="black" stroke-width="0.125">
      <path d="M 390.5,650.6 L 383.5,650.6 C 383.5,651.6 384.7,651.9 385.3,651.4 C 385.5,652.3 386.4,652.3 386.9,651.9 C 387.5,652.6 388.586,652.7 389.1,651.9 C 390.0,652.2 390.6,651.5 390.5,650.6 z " fill="white" fill-opacity="1"/>
    </g>
    <g fill="yellow" stroke="black" stroke-width="0.125">
      <path d="M 390.2,656.0 L 384.6,655.9 C 384.6,656.9 385.8,657.0 386.3,656.5 C 386.8,657.1 387.7,657.1 388.1,656.6 C 388.9,657.3 390.0,657.1 390.2,656.0 z " fill="white" fill-opacity="1"/>
    </g>
    <g fill="black" stroke="black" stroke-width="0.125">
      <path d="M 381.2,664.4 C 378.2,664.4 375.1,664.4 373.0,664.1 C 371.0,663.8 370.3,663.5 368.9,662.7 C 366.8,661.4 366.2,661.1 363.2,659.3 C 362.8,659.0 362.3,659.4 362.9,659.8 C 366.0,661.8 367.1,662.5 368.6,663.5 C 370.1,664.5 371.0,665.4 372.0,666.4 C 373.2,667.7 374.0,667.8 374.6,667.6 C 375.1,667.4 376.0,667.1 376.8,667.3 C 377.7,667.5 378.8,667.5 379.4,667.4 C 380.0,667.9 381.2,667.8 381.9,667.6 C 382.6,667.5 383.2,667.4 383.7,667.565 C 384.1,667.6 384.9,667.5 385.4,667.5 C 385.9,667.4 387.2,667.3 388.1,667.4 C 389.0,667.5 389.9,667.4 390.5,667.3 C 391.1,667.1 392.2,667.1 392.6,667.2 C 393.1,666.8 393.4,666.3 393.5,665.8 C 394.1,665.7 394.3,665.7 394.4,665.3 C 394.7,664.7 394.9,664.0 395.0,663.7 L 395.3,663.7 L 395.3,663.2 L 394.8,662.6 L 395.0,661.5 L 395.6,661.3 C 395.6,661.0 395.4,660.5 395.3,660.3 C 392.0,660.4 388.8,660.5 386.585,660.6 C 386.3,660.8 386.0,661.3 385.9,661.6 C 384.5,661.9 383.7,662.0 383.3,662.1 C 383.0,662.1 382.8,662.2 382.5,662.6 C 382.0,663.2 381.6,663.9 381.2,664.4 z "/>
    </g>
    <g fill="black" stroke="black" stroke-width="0.125">
      <path d="M 391.7,660.4 C 391.9,659.8 392.3,658.4 393.1,655.6 C 393.2,655.1 392.8,654.9 392.6,655.5 C 391.7,658.8 391.3,660.0 391.2,660.4 C 391.4,660.4 391.6,660.4 391.7,660.4 z "/>
    </g>
    <g fill="white" stroke="black" stroke-width="0.125">
      <path d="M 396.8,654.9 C 395.7,655.5 395.2,655.7 394.7,655.5 C 394.2,655.3 393.5,655.2 393.1,655.4 C 393.1,655.5 393.1,655.5 393.1,655.6 C 392.6,657.3 392.3,658.5 392.0,659.3 C 392.9,659.6 394.3,659.7 394.6,659.3 C 394.9,658.9 395.9,659.0 396.3,659.0 C 396.6,658.7 396.7,658.2 396.7,657.9 C 396.6,657.7 396.6,657.3 396.7,657.0 C 396.8,656.6 397.0,655.6 396.8,654.9 z "/>
    </g>
    <g fill="none" stroke="black" stroke-width="0.125">
      <path d="M 371.6,645.5 C 370.4,649.1 366.2,657.0 363.6,659.5"/>
    </g>
    <g fill="none" stroke="black" stroke-width="0.125">
      <path d="M 365.6,660.7 C 368.5,658.5 375.8,651.2 377.1,648.1"/>
    </g>
    <g fill="none" stroke="black" stroke-width="0.125">
      <path d="M 370.1,652.5 C 369.7,655.1 368.9,659.9 368.5,662.4"/>
    </g>
    <g fill="none" stroke="black" stroke-width="0.125">
      <path d="M 371.2,658.4 C 370.2,659.4 368.8,661.1 367.8,662.0"/>
    </g>
    <g fill="none" stroke="black" stroke-width="0.125">
      <path d="M 380.5,653.1 C 379.7,653.9 378.7,654.8 377.9,655.1"/>
    </g>
    <g fill="none" stroke="black" stroke-width="0.125">
      <path d="M 381.0,653.2 C 381.7,654.0 382.7,654.9 383.6,655.1"/>
    </g>
    <g fill="none" stroke="black" stroke-width="0.125">
      <path d="M 380.4,648.9 C 379.6,649.6 378.5,650.3 377.5,650.6"/>
    </g>
    <g fill="none" stroke="black" stroke-width="0.125">
      <path d="M 380.8,649.1 C 381.5,649.6 382.2,650.4 383.0,650.8"/>
    </g>
    <g fill="none" stroke="black" stroke-width="0.125">
      <path d="M 377.7,645.9 C 378.5,645.7 379.7,645.0 380.3,644.4"/>
    </g>
    <g fill="none" stroke="black" stroke-width="0.125">
      <path d="M 380.7,644.3 C 381.4,645.1 382.7,645.7 383.4,645.9"/>
    </g>
    <g fill="none" stroke="black" stroke-width="0.125">
      <path d="M 377.8,642.6 C 378.7,642.5 379.7,642.0 380.2,641.2"/>
    </g>
    <g fill="none" stroke="black" stroke-width="0.125">
      <path d="M 380.5,641.0 C 381.2,641.6 382.5,642.5 383.3,642.6"/>
    </g>
    <g fill="none" stroke="black" stroke-width="0.125">
      <path d="M 386.5,643.4 C 386.0,643.8 384.9,644.7 384.2,644.7"/>
    </g>
    <g fill="none" stroke="black" stroke-width="0.125">
      <path d="M 386.9,643.3 C 387.3,643.8 388.1,644.6 388.5,644.7"/>
    </g>
    <g fill="none" stroke="black" stroke-width="0.125">
      <path d="M 383.8,650.6 C 384.7,650.3 385.9,649.6 386.6,648.8"/>
    </g>
    <g fill="none" stroke="black" stroke-width="0.125">
      <path d="M 387.1,648.9 C 387.3,649.3 388.4,650.4 388.9,650.6"/>
    </g>
    <g fill="none" stroke="black" stroke-width="0.125">
      <path d="M 384.8,655.9 C 385.2,655.8 386.4,655.2 386.7,654.6"/>
    </g>
    <g fill="none" stroke="black" stroke-width="0.125">
      <path d="M 387.2,654.2 C 387.6,654.8 388.7,655.7 389.3,656.0"/>
    </g>
    <g fill="none" stroke="black" stroke-width="0.125">
      <path d="M 370.5,656.8 C 371.8,656.4 374.4,654.9 375.6,653.4"/>
    </g>
    <g fill="none" stroke="black" stroke-width="0.125">
      <path d="M 373.2,655.2 C 374.3,656.0 375.5,656.8 376.5,656.9"/>
    </g>
    <g fill="none" stroke="black" stroke-width="0.125">
      <path d="M 370.3,652.5 C 371.0,652.2 371.9,651.7 372.6,650.9"/>
    </g>
    <g fill="none" stroke="black" stroke-width="0.125">
      <path d="M 373.2,650.8 C 373.5,651.2 375.6,652.5 376.5,652.5"/>
    </g>
    <g fill="none" stroke="black" stroke-width="0.125">
      <path d="M 372.6,646.7 C 372.1,647.1 370.8,647.9 370.1,648.1"/>
    </g>
    <g fill="none" stroke="black" stroke-width="0.125">
      <path d="M 373.1,646.7 C 373.9,647.2 375.3,648.1 376.3,648.1"/>
    </g>
    <g fill="none" stroke="black" stroke-width="0.125">
      <path d="M 372.6,642.6 C 372.0,643.3 371.1,644.3 370.2,644.5"/>
    </g>
    <g fill="none" stroke="black" stroke-width="0.125">
      <path d="M 373.1,642.8 C 373.6,643.5 374.8,644.5 375.6,644.6"/>
    </g>
    <g fill="none" stroke="black" stroke-width="0.125">
      <path d="M 383.6,647.1 C 385.4,650.5 388.8,654.6 392.2,656.8"/>
    </g>
    <g fill="none" stroke="black" stroke-width="0.125">
      <path d="M 378.2,643.4 C 380.9,647.4 386.4,656.1 391.5,659.3"/>
    </g>
    <g fill="none" stroke="black" stroke-width="0.125">
      <path d="M 392.5,655.9 C 391.6,657.1 390.1,658.9 387.7,660.5"/>
    </g>
    <g fill="none" stroke="black" stroke-width="0.125">
      <path d="M 392.2,657.0 C 390.4,654.2 389.5,650.7 388.2,646.1"/>
    </g>
    <g fill="none" stroke="black" stroke-width="0.125">
      <path d="M 374.1,658.5 L 376.2,664.4"/>
    </g>
    <g fill="none" stroke="black" stroke-width="0.125">
      <path d="M 373.7,658.3 L 375.6,664.3"/>
    </g>
    <g fill="none" stroke="black" stroke-width="0.125">
      <path d="M 373.3,658.0 L 375.1,664.3"/>
    </g>
    <g fill="none" stroke="black" stroke-width="0.125">
      <path d="M 373.1,658.1 L 374.5,664.3"/>
    </g>
    <g fill="none" stroke="black" stroke-width="0.125">
      <path d="M 374.4,664.0 L 376.1,664.0"/>
    </g>
    <g fill="none" stroke="black" stroke-width="0.125">
      <path d="M 375.9,663.4 L 374.3,663.4"/>
    </g>
    <g fill="none" stroke="black" stroke-width="0.125">
      <path d="M 375.7,662.9 L 374.2,662.9"/>
    </g>
    <g fill="none" stroke="black" stroke-width="0.125">
      <path d="M 375.5,662.4 L 374.1,662.4"/>
    </g>
    <g fill="none" stroke="black" stroke-width="0.125">
      <path d="M 375.3,661.9 L 373.9,661.9"/>
    </g>
    <g fill="none" stroke="black" stroke-width="0.125">
      <path d="M 373.8,661.4 L 375.2,661.4"/>
    </g>
    <g fill="none" stroke="black" stroke-width="0.125">
      <path d="M 373.7,661.0 L 375.0,661.0"/>
    </g>
    <g fill="none" stroke="black" stroke-width="0.125">
      <path d="M 373.6,660.5 L 374.8,660.5"/>
    </g>
    <g fill="none" stroke="black" stroke-width="0.125">
      <path d="M 373.5,660.0 L 374.7,660.0"/>
    </g>
    <g fill="none" stroke="black" stroke-width="0.125">
      <path d="M 373.4,659.6 L 374.5,659.6"/>
    </g>
    <g fill="none" stroke="black" stroke-width="0.125">
      <path d="M 373.3,659.2 L 374.4,659.2"/>
    </g>
    <g fill="none" stroke="black" stroke-width="0.125">
      <path d="M 373.2,658.8 L 374.2,658.8"/>
    </g>
    <g fill="none" stroke="black" stroke-width="0.125">
      <path d="M 373.2,658.5 L 374.1,658.5"/>
    </g>
    <g fill="none" stroke="black" stroke-width="0.125">
      <path d="M 371.5,658.5 L 370.3,663.4"/>
    </g>
    <g fill="none" stroke="black" stroke-width="0.125">
      <path d="M 371.9,658.4 L 370.8,663.6"/>
    </g>
    <g fill="none" stroke="black" stroke-width="0.125">
      <path d="M 372.2,658.2 L 371.3,663.8"/>
    </g>
    <g fill="none" stroke="black" stroke-width="0.125">
      <path d="M 372.5,658.1 L 371.9,663.9"/>
    </g>
    <g fill="none" stroke="black" stroke-width="0.125">
      <path d="M 372.6,663.6 L 370.7,663.6"/>
    </g>
    <g fill="none" stroke="black" stroke-width="0.125">
      <path d="M 372.6,663.0 L 370.4,663.0"/>
    </g>
    <g fill="none" stroke="black" stroke-width="0.125">
      <path d="M 372.6,662.5 L 370.5,662.5"/>
    </g>
    <g fill="none" stroke="black" stroke-width="0.125">
      <path d="M 372.6,662.0 L 370.7,662.0"/>
    </g>
    <g fill="none" stroke="black" stroke-width="0.125">
      <path d="M 372.6,661.4 L 370.8,661.4"/>
    </g>
    <g fill="none" stroke="black" stroke-width="0.125">
      <path d="M 372.6,660.9 L 370.9,660.9"/>
    </g>
    <g fill="none" stroke="black" stroke-width="0.125">
      <path d="M 372.6,660.4 L 371.1,660.4"/>
    </g>
    <g fill="none" stroke="black" stroke-width="0.125">
      <path d="M 372.6,659.8 L 371.2,659.8"/>
    </g>
    <g fill="none" stroke="black" stroke-width="0.125">
      <path d="M 372.6,659.3 L 371.3,659.3"/>
    </g>
    <g fill="none" stroke="black" stroke-width="0.125">
      <path d="M 372.6,658.9 L 371.4,658.9"/>
    </g>
    <g fill="none" stroke="black" stroke-width="0.125">
      <path d="M 372.6,658.5 L 371.5,658.5"/>
    </g>
    <g fill="none" stroke="black" stroke-width="0.125">
      <path d="M 372.6,664.0 L 372.6,658.2"/>
    </g>
    <g fill="none" stroke="black" stroke-width="0.125">
      <path d="M 379.1,656.2 L 375.1,664.3"/>
    </g>
    <g fill="none" stroke="black" stroke-width="0.125">
      <path d="M 379.4,656.1 L 375.9,664.3"/>
    </g>
    <g fill="none" stroke="black" stroke-width="0.125">
      <path d="M 379.6,656.0 L 376.9,664.4"/>
    </g>
    <g fill="none" stroke="black" stroke-width="0.125">
      <path d="M 379.8,656.1 L 377.7,664.4"/>
    </g>
    <g fill="none" stroke="black" stroke-width="0.125">
      <path d="M 377.8,664.0 L 375.2,664.0"/>
    </g>
    <g fill="none" stroke="black" stroke-width="0.125">
      <path d="M 377.9,663.3 L 375.6,663.3"/>
    </g>
    <g fill="none" stroke="black" stroke-width="0.125">
      <path d="M 378.1,662.7 L 375.9,662.7"/>
    </g>
    <g fill="none" stroke="black" stroke-width="0.125">
      <path d="M 378.3,662.0 L 376.2,662.0"/>
    </g>
    <g fill="none" stroke="black" stroke-width="0.125">
      <path d="M 378.4,661.5 L 376.5,661.5"/>
    </g>
    <g fill="none" stroke="black" stroke-width="0.125">
      <path d="M 378.6,660.9 L 376.8,660.9"/>
    </g>
    <g fill="none" stroke="black" stroke-width="0.125">
      <path d="M 378.7,660.2 L 377.1,660.2"/>
    </g>
    <g fill="none" stroke="black" stroke-width="0.125">
      <path d="M 378.9,659.7 L 377.4,659.7"/>
    </g>
    <g fill="none" stroke="black" stroke-width="0.125">
      <path d="M 379.0,659.1 L 377.7,659.1"/>
    </g>
    <g fill="none" stroke="black" stroke-width="0.125">
      <path d="M 379.1,658.6 L 377.9,658.6"/>
    </g>
    <g fill="none" stroke="black" stroke-width="0.125">
      <path d="M 379.2,658.3 L 378.1,658.3"/>
    </g>
    <g fill="none" stroke="black" stroke-width="0.125">
      <path d="M 379.3,657.9 L 378.3,657.9"/>
    </g>
    <g fill="none" stroke="black" stroke-width="0.125">
      <path d="M 379.4,657.5 L 378.5,657.5"/>
    </g>
    <g fill="none" stroke="black" stroke-width="0.125">
      <path d="M 379.5,657.2 L 378.6,657.2"/>
    </g>
    <g fill="none" stroke="black" stroke-width="0.125">
      <path d="M 379.6,656.8 L 378.8,656.8"/>
    </g>
    <g fill="none" stroke="black" stroke-width="0.125">
      <path d="M 379.7,656.5 L 379.0,656.5"/>
    </g>
    <g fill="none" stroke="black" stroke-width="0.125">
      <path d="M 382.3,656.4 L 384.1,661.9"/>
    </g>
    <g fill="none" stroke="black" stroke-width="0.125">
      <path d="M 382.6,656.5 L 384.8,661.8"/>
    </g>
    <g fill="none" stroke="black" stroke-width="0.125">
      <path d="M 383.0,656.5 L 385.5,661.7"/>
    </g>
    <g fill="none" stroke="black" stroke-width="0.125">
      <path d="M 386.1,661.3 L 383.3,656.4"/>
    </g>
    <g fill="none" stroke="black" stroke-width="0.125">
      <path d="M 386.1,661.3 L 383.9,661.3"/>
    </g>
    <g fill="none" stroke="black" stroke-width="0.125">
      <path d="M 385.7,660.6 L 383.7,660.6"/>
    </g>
    <g fill="none" stroke="black" stroke-width="0.125">
      <path d="M 385.3,659.9 L 383.5,659.9"/>
    </g>
    <g fill="none" stroke="black" stroke-width="0.125">
      <path d="M 384.9,659.3 L 383.2,659.3"/>
    </g>
    <g fill="none" stroke="black" stroke-width="0.125">
      <path d="M 384.6,658.6 L 383.0,658.6"/>
    </g>
    <g fill="none" stroke="black" stroke-width="0.125">
      <path d="M 384.2,657.9 L 382.8,657.9"/>
    </g>
    <g fill="none" stroke="black" stroke-width="0.125">
      <path d="M 383.8,657.3 L 382.6,657.3"/>
    </g>
    <g fill="none" stroke="black" stroke-width="0.125">
      <path d="M 383.4,656.6 L 382.4,656.6"/>
    </g>
    <g fill="none" stroke="black" stroke-width="0.125">
      <path d="M 385.7,656.8 L 384.0,662.0"/>
    </g>
    <g fill="none" stroke="black" stroke-width="0.125">
      <path d="M 386.2,656.5 L 384.662,661.9"/>
    </g>
    <g fill="none" stroke="black" stroke-width="0.125">
      <path d="M 385.4,661.7 L 386.5,656.7"/>
    </g>
    <g fill="none" stroke="black" stroke-width="0.125">
      <path d="M 386.8,656.9 L 385.8,661.7"/>
    </g>
    <g fill="none" stroke="black" stroke-width="0.125">
      <path d="M 384.2,661.4 L 385.9,661.4"/>
    </g>
    <g fill="none" stroke="black" stroke-width="0.125">
      <path d="M 384.4,660.7 L 386.0,660.7"/>
    </g>
    <g fill="none" stroke="black" stroke-width="0.125">
      <path d="M 384.6,660.1 L 386.2,660.1"/>
    </g>
    <g fill="none" stroke="black" stroke-width="0.125">
      <path d="M 384.8,659.4 L 386.3,659.4"/>
    </g>
    <g fill="none" stroke="black" stroke-width="0.125">
      <path d="M 385.0,658.8 L 386.4,658.8"/>
    </g>
    <g fill="none" stroke="black" stroke-width="0.125">
      <path d="M 385.2,658.1 L 386.6,658.1"/>
    </g>
    <g fill="none" stroke="black" stroke-width="0.125">
      <path d="M 385.5,657.5 L 386.7,657.5"/>
    </g>
    <g fill="none" stroke="black" stroke-width="0.125">
      <path d="M 385.7,656.9 L 386.7,656.9"/>
    </g>
    <g fill="none" stroke="black" stroke-width="0.125">
      <path d="M 387.6,657.0 L 388.5,660.5"/>
    </g>
    <g fill="none" stroke="black" stroke-width="0.125">
      <path d="M 387.9,656.8 L 389.1,660.5"/>
    </g>
    <g fill="none" stroke="black" stroke-width="0.125">
      <path d="M 388.3,656.8 L 389.6,660.5"/>
    </g>
    <g fill="none" stroke="black" stroke-width="0.125">
      <path d="M 388.9,657.0 L 390.1,660.5"/>
    </g>
    <g fill="none" stroke="black" stroke-width="0.125">
      <path d="M 390.0,660.2 L 388.4,660.2"/>
    </g>
    <g fill="none" stroke="black" stroke-width="0.125">
      <path d="M 389.8,659.6 L 388.3,659.6"/>
    </g>
    <g fill="none" stroke="black" stroke-width="0.125">
      <path d="M 389.6,659.1 L 388.1,659.1"/>
    </g>
    <g fill="none" stroke="black" stroke-width="0.125">
      <path d="M 389.4,658.6 L 388.0,658.6"/>
    </g>
    <g fill="none" stroke="black" stroke-width="0.125">
      <path d="M 389.2,658.1 L 387.9,658.1"/>
    </g>
    <g fill="none" stroke="black" stroke-width="0.125">
      <path d="M 389.1,657.6 L 387.8,657.6"/>
    </g>
    <g fill="none" stroke="black" stroke-width="0.125">
      <path d="M 388.9,657.0 L 387.6,657.0"/>
    </g>
    <g fill="#00b800">
      <path d="M 372.3,666.2 C 373.1,665.7 374.5,665.8 375.2,666.3 C 376.0,665.9 377.5,666.0 378.2,666.6 C 379.3,665.9 380.2,665.8 381.3,666.5 C 382.1,665.9 383.3,665.9 384.3,666.5 C 385.2,666.1 386.2,665.7 387.2,666.7 C 386.6,666.3 385.4,666.0 384.3,666.9 C 383.4,666.0 381.8,666.3 381.3,666.9 C 380.6,666.1 379.2,666.0 378.3,667.0 C 377.4,666.2 376.0,666.2 375.2,666.8 C 374.6,666.3 373.7,665.9 372.3,666.2 z "/>
    </g>
    <g fill="#cf6200">
      <path d="M 386.5,665.1 C 382.4,665.8 373.4,665.3 371.4,664.8 C 370.7,664.6 370.9,664.4 371.5,664.5 C 373.8,665.0 378.6,665.0 381.3,664.9 C 381.8,664.2 382.6,663.1 382.9,662.7 C 383.1,662.4 383.2,662.4 383.8,662.3 C 384.7,662.1 385.2,662.1 386.0,661.9 C 386.0,662.0 386.0,662.1 386.0,662.2 C 386,662.328 385.9,662.4 385.8,662.4 C 385.8,662.9 385.9,664.2 386.0,664.7 C 386.1,664.7 386.3,664.6 386.3,664.6 C 386.5,664.6 386.7,665.0 386.5,665.1 z "/>
    </g>
    <g fill="#cf6200">
      <path d="M 393.3,665.3 C 393.4,665.3 393.8,665.3 393.8,665.3 C 394.0,665.3 394.2,665.2 394.3,664.9 C 394.5,664.6 394.8,663.7 394.9,663.3 L 394.5,662.7 C 394.6,662.1 394.7,661.4 394.7,661.3 C 394.9,661.2 395.1,661.1 395.2,661.1 C 395.3,661.0 395.2,660.7 395.1,660.6 C 393.3,660.6 388.0,660.8 387.0,660.8 C 386.8,660.8 386.7,660.8 386.6,661.1 C 386.1,663.0 386.8,665.6 388.6,667.1 C 388.8,667.2 388.9,667.1 388.7,666.9 C 388.4,666.6 387.9,666.0 387.6,665.4 C 388.0,665.4 388.7,665.4 388.9,665.4 C 389.0,665.9 389.4,666.8 389.4,666.9 C 389.5,667.1 389.7,667.1 389.6,666.9 C 389.4,666.3 389.3,665.7 389.2,665.4 C 389.6,665.4 390.2,665.4 390.6,665.4 C 390.6,665.9 390.7,666.5 390.7,666.7 C 390.7,666.9 390.8,666.9 390.8,666.7 C 390.8,666.5 390.9,665.6 390.9,665.413 C 391.3,665.4 391.9,665.3 392.1,665.3 C 392.0,665.6 392.0,666.5 392.0,666.7 C 391.9,666.9 392.0,667.0 392.1,666.7 C 392.1,666.4 392.2,665.7 392.3,665.3 C 392.5,665.3 392.9,665.3 393.1,665.3 C 393.1,665.6 392.8,666.4 392.8,666.6 C 392.7,666.9 392.8,666.9 392.9,666.7 C 393.0,666.4 393.3,665.6 393.3,665.3 z "/>
    </g>
    <g fill="black">
      <path d="M 387.4,665.1 C 387.2,664.8 386.8,663.8 386.8,663.0 C 387.1,663.0 388.1,663.0 388.5,663.0 C 388.6,663.6 388.8,664.8 388.9,665.1 C 388.3,665.1 387.7,665.1 387.4,665.1 z "/>
    </g>
    <g fill="black">
      <path d="M 388.9,663.0 C 388.9,663.4 389.1,664.9 389.2,665.1 C 389.5,665.0 390.4,665.0 390.6,665.0 C 390.6,664.6 390.5,663.2 390.5,663.0 C 390.1,663.0 389.1,663.0 388.9,663.0 z "/>
    </g>
    <g fill="black">
      <path d="M 386.8,661.2 C 386.8,661.6 386.8,662.4 386.8,662.7 C 387.2,662.7 388.4,662.736 388.5,662.7 C 388.5,662.3 388.4,661.6 388.4,661.1 C 388.0,661.2 387.1,661.2 386.8,661.2 z "/>
    </g>
    <g fill="black">
      <path d="M 388.7,661.1 C 388.7,661.5 388.8,662.4 388.8,662.7 C 389.2,662.7 390.2,662.6 390.5,662.6 C 390.5,662.3 390.4,661.2 390.4,661.1 C 389.9,661.1 389.0,661.1 388.7,661.1 z "/>
    </g>
    <g fill="black">
      <path d="M 390.8,661.1 C 390.8,661.4 390.8,662.4 390.8,662.6 C 391.2,662.6 392.0,662.6 392.3,662.6 C 392.3,662.2 392.3,661.3 392.3,661.0 C 391.8,661.0 391.1,661.1 390.8,661.1 z "/>
    </g>
    <g fill="black">
      <path d="M 392.6,661.0 C 392.6,661.3 392.6,662.3 392.6,662.6 C 393.0,662.6 393.9,662.5 394.1,662.5 C 394.2,662.2 394.3,661.3 394.433,661 C 394.0,661.0 392.9,661.0 392.6,661.0 z "/>
    </g>
    <g fill="black">
      <path d="M 394.2,662.9 C 393.7,662.9 392.8,662.9 392.5,662.9 C 392.5,663.6 392.4,664.7 392.4,665.0 C 392.8,665.0 393.8,664.9 394.0,664.9 C 394.1,664.6 394.5,663.6 394.6,663.3 C 394.4,663.1 394.4,663.0 394.2,662.9 z "/>
    </g>
    <g fill="black">
      <path d="M 390.8,663.0 C 390.8,663.2 390.9,664.9 390.9,665.0 C 391.2,665.0 392.0,665.0 392.1,665.0 C 392.1,664.3 392.2,663.1 392.2,662.9 C 391.7,662.9 391.2,662.9 390.8,663.0 z "/>
    </g>
    <g fill="black">
      <path d="M 383.9,662.6 L 383.2,662.7 C 382.9,663.2 381.8,664.7 381.6,664.9 C 382.4,664.9 383.7,664.9 384.0,664.8 C 384.0,664.4 383.9,662.8 383.9,662.6 z "/>
    </g>
    <g fill="black">
      <path d="M 384.2,662.5 C 384.2,663.0 384.3,664.4 384.3,664.8 C 384.7,664.8 385.4,664.8 385.7,664.7 C 385.7,664.1 385.5,662.5 385.5,662.3 C 385.2,662.3 384.5,662.4 384.2,662.5 z "/>
    </g>
    <g fill="black" stroke="black" stroke-width="0.125">
      <path d="M 377.2,656.9 C 377.3,656.9 377.3,657.0 377.2,657.0 L 369.6,656.9 C 369.5,656.9 369.5,656.8 369.6,656.8 L 377.2,656.9 z "/>
    </g>
    <g fill="black" stroke="black" stroke-width="0.125">
      <path d="M 383.3,650.7 C 383.4,650.7 383.4,650.8 383.3,650.8 L 377.2,650.6 C 377.1,650.6 377.1,650.6 377.2,650.6 L 383.3,650.7 z "/>
    </g>
    <g fill="black" stroke="black" stroke-width="0.125">
      <path d="M 376.9,652.5 C 377.0,652.5 377.0,652.6 376.9,652.6 L 370.1,652.5 C 369.9,652.5 370.0,652.4 370.1,652.4 L 376.9,652.5 z "/>
    </g>
    <g fill="black" stroke="black" stroke-width="0.125">
      <path d="M 377.1,648.1 C 377.2,648.1 377.2,648.1 377.1,648.1 L 369.9,648.1 C 369.8,648.1 369.9,648.0 369.9,648.0 L 377.1,648.1 z "/>
    </g>
    <g fill="black" stroke="black" stroke-width="0.125">
      <path d="M 376.6,644.6 C 376.7,644.6 376.7,644.7 376.6,644.7 L 369.6,644.6 C 369.5,644.6 369.6,644.5 369.7,644.527 L 376.6,644.6 z "/>
    </g>
    <g fill="black" stroke="black" stroke-width="0.125">
      <path d="M 383.7,642.5 C 383.8,642.5 383.8,642.6 383.7,642.6 L 377.8,642.7 C 377.7,642.7 377.7,642.6 377.8,642.6 L 383.7,642.5 z " fill="white" fill-opacity="1"/>
    </g>
    <g fill="black" stroke="black" stroke-width="0.125">
      <path d="M 384.1,645.9 C 384.2,645.9 384.2,645.9 384.1,645.9 L 377.5,645.9 C 377.4,645.9 377.4,645.9 377.5,645.9 L 384.1,645.9 z "/>
    </g>
    <g fill="black" stroke="black" stroke-width="0.125">
      <path d="M 390.5,650.6 C 390.6,650.6 390.6,650.7 390.5,650.7 L 383.5,650.7 C 383.4,650.7 383.4,650.6 383.5,650.6 L 390.5,650.6 z "/>
    </g>
    <g fill="black" stroke="black" stroke-width="0.125">
      <path d="M 390.6,644.7 C 390.7,644.7 390.7,644.8 390.6,644.8 L 383.4,644.7 C 383.3,644.7 383.3,644.6 383.4,644.6 L 390.6,644.7 z "/>
    </g>
    <g fill="black" stroke="black" stroke-width="0.125">
      <path d="M 384.0,655.1 C 384.1,655.1 384.115,655.2 384.0,655.1 L 377.6,655.1 C 377.5,655.1 377.5,655.0 377.6,655.0 L 384.0,655.1 z "/>
    </g>
    <g fill="black" stroke="black" stroke-width="0.125">
      <path d="M 390.2,655.9 C 390.3,655.9 390.3,656.0 390.2,656.0 L 384.6,655.9 C 384.5,655.9 384.5,655.9 384.6,655.9 L 390.2,655.9 z "/>
    </g>
    <g fill="#ef072d" stroke="black" stroke-width="0.125">
      <path d="M 395.2,657.0 C 395.4,656.7 395.4,655.9 395.3,655.5 C 395.1,655.6 394.9,655.6 394.7,655.5 C 394.6,655.5 394.4,655.4 394.3,655.4 C 394.3,655.8 394.1,656.8 394.0,657.2 C 393.7,657.3 393.0,657.2 392.7,657.1 C 392.6,657.4 392.528,657.8 392.4,658.0 C 392.8,658.1 393.4,658.1 393.9,658.079 C 393.8,658.6 393.7,659.2 393.4,659.6 C 393.9,659.6 394.4,659.5 394.6,659.3 C 394.6,659.3 394.6,659.3 394.6,659.3 C 394.9,658.8 394.9,658.3 395.0,658.0 C 395.1,658.0 395.4,657.9 395.5,657.8 C 395.6,657.7 395.7,657.7 395.9,657.7 C 396.1,657.7 396.3,657.6 396.6,657.5 C 396.6,657.3 396.7,657.1 396.7,657.0 C 396.8,656.9 396.8,656.7 396.8,656.5 C 396.4,656.7 395.6,657.0 395.2,657.0 z "/>
    </g>
    <g fill="black" stroke="black" stroke-width="0.125">
      <path d="M 370.4,623.1 C 369.6,623.2 367.9,623.2 367.5,623.4 C 367.2,623.6 367.0,623.7 367.7,623.844 C 368.3,623.9 369.4,624.2 369.9,624.6 C 370.5,624.9 371.0,625.6 370.9,626.5 C 370.4,629.2 371.8,631.9 373.9,632.9 C 374.1,633.0 374.1,633.0 374.1,633.4 C 374.0,633.8 373.9,634.4 373.8,634.6 C 373.7,634.7 373.6,635.0 374.0,634.8 C 373.7,635.3 373.2,636.2 373.0,636.5 C 371.4,636.3 370.0,636.5 369.9,638.2 C 369.9,638.4 369.9,638.7 370.2,638.3 C 370.4,637.8 370.7,637.4 371.4,637.3 C 371.0,637.9 370.9,638.5 371.0,638.9 C 371.0,639.3 371.1,639.5 371.3,639.0 C 371.5,638.5 371.8,638.1 372.2,637.8 C 372.3,637.7 372.4,637.7 372.3,638.0 C 372.2,638.3 372.3,638.9 372.6,639.1 C 372.8,639.4 372.9,639.3 372.8,638.9 C 372.7,638.6 372.8,637.8 373.3,637.6 C 373.9,637.3 374.4,637.4 374.7,637.9 C 374.9,638.3 375.1,637.9 374.9,637.4 C 374.6,636.9 374.3,636.6 373.9,636.6 C 374.2,635.9 374.7,635.0 374.8,634.8 C 374.9,634.7 375.1,634.6 375.2,634.7 C 375.3,634.8 375.4,634.8 375.6,634.5 C 375.7,634.2 375.9,633.4 376.3,633.0 C 376.5,633.045 376.7,632.9 376.8,632.8 C 377.3,633.5 377.7,634.2 377.8,634.4 C 377.9,634.5 378.0,634.6 377.9,634.9 C 377.8,635.2 377.4,636.3 377.4,636.5 C 376.1,636.5 375.6,636.6 375.2,637.3 C 375.0,637.6 375.3,637.7 375.6,637.5 C 375.9,637.4 376.3,637.2 376.5,637.3 C 376.7,637.3 376.8,637.4 376.6,637.5 C 375.8,637.9 375.4,638.4 375.4,639.0 C 375.4,639.2 375.5,639.4 375.7,639.0 C 376.0,638.6 376.4,638.1 377.0,638.0 C 377.0,638.6 377.1,639.4 377.4,639.6 C 377.8,639.7 377.8,639.5 377.7,639.2 C 377.5,638.7 377.7,638.2 377.9,637.9 C 378.5,637.3 379.7,638.1 379.9,638.3 C 380.1,638.5 380.3,638.6 380.2,638.1 C 380.0,637.4 379.0,637.0 378.2,636.9 C 378.4,635.7 379.1,633.4 379.4,632.6 C 379.9,632.9 380.3,632.2 381.1,632.5 C 382.5,633.0 384.6,634.3 385.0,634.6 C 385.3,634.9 385.5,634.8 385.7,634.7 C 385.8,634.5 386.2,634.7 386.4,634.7 C 386.7,634.831 386.9,634.8 386.6,634.2 C 386.2,633.6 385.5,632.5 384.2,631.6 C 385.0,631.7 386.0,631.7 386.0,631.5 C 386.0,631.3 384.8,630.9 384.3,630.8 C 384.8,630.7 385.5,630.5 385.8,630.1 C 386.0,629.9 385.8,629.8 385.1,629.8 C 382.9,629.7 381.8,629.8 380.7,629.1 C 378.9,628.1 377.9,627.0 377.0,626.5 C 376.5,626.3 376.2,625.7 376.0,625.2 C 375.4,623.6 375.5,622.9 374.1,622.4 C 372.7,621.9 371.1,622.5 370.4,623.1 z " stroke="none" stroke-opacity="1"/>
    </g>
    <g fill="white" stroke="black" stroke-width="0.125">
      <path d="M 370.5,623.5 C 370.1,623.5 369.5,623.4 368.9,623.5 C 368.8,623.5 368.6,623.5 368.9,623.6 C 369.2,623.6 370.1,623.8 370.4,623.9 C 370.7,624.0 370.5,624.2 370.3,624.1 C 370.0,624.1 369.9,624.2 370.1,624.3 C 371.2,625.1 371.4,625.4 371.1,628.1 C 371.3,628.2 371.4,628.3 371.6,628.4 C 371.8,628.5 371.8,628.6 371.6,628.6 C 371.4,628.5 371.2,628.6 371.5,628.7 C 371.8,628.8 372.0,628.9 371.7,628.9 C 371.4,628.9 371.0,629.1 371.6,629.1 C 372.2,629.0 372.4,629.3 371.7,629.3 C 371.0,629.3 371.3,629.5 371.7,629.5 C 372.3,629.5 372.1,629.7 371.9,629.7 C 371.8,629.7 371.7,629.9 372.1,629.9 C 372.6,629.9 372.7,629.8 372.9,629.9 C 373.0,629.9 373.1,630.0 372.9,630.0 C 372.6,630.1 372.6,630.2 373.0,630.2 C 373.3,630.2 373.5,630.3 373.2,630.4 C 373.0,630.4 372.9,630.5 373.2,630.5 C 373.9,630.6 373.9,630.8 373.7,630.8 C 373.5,630.8 373.526,631 373.8,631.0 C 374.1,631.0 374.3,631.1 374.1,631.2 C 373.8,631.2 373.7,631.4 374.0,631.4 C 374.3,631.4 374.6,631.5 374.4,631.6 C 374.1,631.7 374.1,631.8 374.4,631.8 C 374.7,631.8 374.8,632.0 374.6,632.1 C 374.4,632.2 374.2,632.3 374.1,632.1 C 374.0,631.9 373.9,631.8 373.9,632.0 C 373.8,632.1 373.7,632.0 373.6,631.8 C 373.5,631.5 373.3,631.5 373.4,631.7 C 373.4,631.8 373.2,631.9 373.0,631.8 C 373.8,632.6 375.0,633.4 376.9,632.6 C 377.1,632.5 377.1,632.6 377.3,632.9 C 377.4,633.1 377.8,633.7 377.9,634.0 C 378.0,634.2 378.1,634.0 378.2,633.8 C 378.4,632.9 378.6,632.3 378.7,632.0 C 378.8,631.8 379.2,631.6 379.0,632.4 C 379.3,632.2 380.6,632.0 381.6,632.4 C 382.6,632.8 383.7,633.4 384.3,633.8 C 384.4,633.9 384.5,634.0 384.8,634.0 C 385.0,633.9 385.1,633.9 384.6,633.4 C 384.1,633.0 384.3,632.8 384.6,633.0 C 384.9,633.2 385.1,633.1 384.9,632.8 C 384.7,632.572 384.1,632.0 383.9,631.9 C 383.7,631.7 383.7,631.7 383.3,631.7 C 382.9,631.6 382.0,631.6 381.7,631.6 C 381.5,631.6 381.4,631.7 382.0,631.9 C 382.5,632.1 383.7,632.8 384.0,633.0 C 384.2,633.2 384.4,633.6 383.8,633.2 C 383.3,632.9 381.5,631.8 380.3,631.3 C 377.5,631.5 375.4,631.9 373.8,630.1 C 373.0,629.3 373.0,627.3 374.3,626.5 C 374.0,626.3 374.0,626.2 374.2,626.1 C 374.3,626.1 374.3,626.0 374.2,625.9 C 374.1,625.8 374.1,625.6 374.2,625.6 C 373.9,625.4 373.8,625.3 373.8,625.1 C 373.4,625.0 373.3,624.6 372.8,624.7 C 372.3,624.8 372.1,624.7 372.0,624.6 C 371.8,624.5 371.7,624.4 371.4,624.5 C 371.2,624.5 371.0,624.4 371.0,624.3 C 371.0,624.1 371.2,624.1 371.5,624.2 C 372.3,624.5 372.9,624.7 373.3,624.1 C 373.8,623.5 373.2,622.9 372.3,622.7 C 371.5,622.6 370.8,623.2 370.5,623.5 z "/>
    </g>
    <g fill="white" stroke="black" stroke-width="0.125">
      <path d="M 374.9,623.3 C 374.6,623.0 374.1,622.7 373.9,622.7 C 373.7,622.6 373.6,622.8 373.8,622.9 C 373.7,623.1 373.6,623.5 373.8,623.6 C 374.0,623.7 374.0,623.8 373.8,623.9 C 373.6,624.0 373.7,624.7 374.0,624.5 C 374.2,624.5 374.3,624.5 374.3,624.6 C 374.2,624.7 374.3,624.8 374.4,624.9 C 374.5,624.9 374.5,625.1 374.5,625.1 C 374.5,625.231 374.5,625.2 374.6,625.2 C 374.7,625.2 374.8,625.5 374.5,625.6 C 374.8,625.6 374.9,625.6 375.0,625.8 C 375.0,626.1 375.4,626.1 375.4,626.4 C 375.4,626.7 375.3,626.7 375.0,626.7 C 374.6,626.6 374.5,626.7 374.4,626.9 C 374.3,627.0 374.3,627.1 374.5,627.1 C 374.8,627.2 374.8,627.3 374.6,627.4 C 374.3,627.5 373.9,627.4 373.8,627.7 C 373.8,627.9 373.8,628.0 374.0,627.9 C 374.2,627.9 374.6,627.7 374.8,627.6 C 374.9,627.5 375.1,627.5 375.2,627.7 C 375.3,627.9 375.2,628.1 375.0,628.0 C 374.8,627.8 374.7,627.9 374.6,628.1 C 374.4,628.2 374.2,628.2 374.0,628.2 C 373.8,628.2 373.7,628.2 373.7,628.7 C 373.8,630.1 374.9,631.2 376.9,631.1 C 378.9,631.1 379.9,631.1 380.2,631.1 C 379.5,630.8 379.1,630.6 378.8,630.6 C 378.6,630.6 378.4,630.7 378.5,630.5 C 378.6,630.3 378.5,630.3 378.4,630.2 C 378.3,630.1 378.2,630.0 378.0,630.2 C 377.8,630.5 377.3,630.7 377.0,630.8 C 376.8,630.8 376.5,630.8 376.7,630.6 C 376.9,630.3 377.5,630.3 377.6,630.2 C 377.8,630.1 377.8,630.0 377.8,629.9 C 377.8,629.8 377.7,629.6 378.0,629.8 C 378.6,630.1 379.6,630.6 379.8,630.6 C 380.1,630.6 380.2,630.5 380.0,630.4 C 379.8,630.2 379.7,630.0 379.8,629.9 C 379.8,629.8 379.9,629.8 380.3,630.0 C 380.7,630.2 381.3,630.5 381.5,630.6 C 381.8,630.7 382.1,630.7 381.6,630.3 C 381.1,630.0 379.6,629.0 379.2,628.7 C 378.8,628.4 379.0,628.7 379.0,628.8 C 379.1,629.012 378.7,629.1 378.6,629.0 C 378.4,628.8 378.3,628.7 378.5,628.5 C 378.7,628.4 378.8,628.4 378.4,628.1 C 378.1,627.8 378.0,627.8 378.1,628.1 C 378.1,628.3 378.2,628.6 377.8,628.5 C 377.4,628.3 377.3,628.1 377.5,628.0 C 377.7,627.9 378.0,627.8 377.6,627.5 C 377.2,627.1 377.4,627.5 377.3,627.6 C 377.2,627.8 376.9,627.8 376.7,627.7 C 376.5,627.5 376.5,627.4 376.6,627.3 C 376.7,627.2 376.7,627.1 376.9,627.2 C 377.0,627.3 377.3,627.2 377.0,626.9 C 376.7,626.7 376.5,626.8 376.6,626.9 C 376.7,627.1 376.4,627.4 376.0,627.0 C 375.9,626.8 375.9,626.6 376.0,626.6 C 376.2,626.5 376.3,626.4 376.1,626.2 C 375.3,625.1 375.7,624.1 374.9,623.3 z "/>
    </g>
    <g fill="#cf6200">
      <path d="M 375.0,623.4 C 374.9,623.5 374.9,623.5 374.8,623.6 C 374.6,623.7 374.6,624.0 374.8,624.0 C 375.0,624.0 375.1,623.9 375.2,623.8 C 375.1,623.7 375.1,623.5 375.0,623.4 z "/>
    </g>
    <g fill="#cf6200">
      <path d="M 374.2,622.8 C 374.0,623.0 374,623.117 374.1,623.1 C 374.2,623.1 374.1,623.1 374.0,623.2 C 373.9,623.4 374.2,623.4 374.3,623.3 C 374.4,623.2 374.4,623.2 374.5,623.3 C 374.5,623.4 374.7,623.3 374.8,623.2 C 374.6,623.1 374.4,622.9 374.2,622.8 z "/>
    </g>
    <g fill="#cf6200">
      <path d="M 373.8,623.9 C 373.6,624.0 373.7,624.7 374.0,624.5 C 374.2,624.5 374.3,624.5 374.3,624.6 C 374.2,624.7 374.3,624.764 374.3,624.8 C 374.4,624.7 374.6,624.6 374.7,624.5 C 375.0,624.2 374.7,624.2 374.4,624.2 C 374.0,624.2 373.9,624.1 374.2,623.9 C 374.6,623.7 374.4,623.651 373.9,623.7 C 374.0,623.7 374.0,623.8 373.8,623.9 z "/>
    </g>
    <g fill="#cf6200">
      <path d="M 375.3,625.4 C 375.1,625.2 375.2,625.1 375.5,625.0 C 375.5,625.0 375.5,625.0 375.6,624.9 C 375.5,624.7 375.5,624.5 375.4,624.3 C 375.3,624.3 375.2,624.5 375.1,624.7 C 375.1,624.8 375.0,624.9 374.8,624.9 C 374.7,624.8 374.5,625.0 374.5,625.2 C 374.5,625.2 374.6,625.2 374.6,625.2 C 374.7,625.2 374.7,625.3 374.7,625.4 C 375.2,625.4 375.3,625.7 375.3,626.0 C 375.4,626.2 375.5,626.2 375.6,626.0 C 375.7,625.9 375.5,625.6 375.3,625.4 z "/>
    </g>
    <g fill="yellow">
      <path d="M 375.5,628.2 C 375.4,628.4 375.4,628.3 375.1,628.4 C 374.8,628.4 374.5,628.4 374.3,628.6 C 374.2,628.7 373.8,628.736 373.7,628.9 C 373.7,629.1 373.7,629.3 374.0,629.3 C 374.2,629.3 374.2,629.3 374.1,629.5 C 374.0,629.7 374.0,629.9 374.3,629.9 C 374.7,630.0 375.0,629.8 375.1,630.1 C 375.2,630.3 375.1,630.6 375.1,630.7 C 375.2,630.8 375.4,630.9 375.8,631.0 C 376.1,631.1 377.0,631.2 377.3,631.1 C 377.6,631.1 377.5,630.9 377.2,630.9 C 376.9,630.9 376.7,630.8 376.6,630.6 C 376.6,630.4 376.5,630.3 376.7,630.1 C 376.8,629.9 377.0,629.8 376.9,629.5 C 376.8,629.2 376.7,628.8 376.3,628.7 C 376.0,628.6 376.1,628.1 375.7,628.1 C 375.6,628.1 375.5,628.1 375.5,628.2 z "/>
    </g>
    <g fill="#cf6200">
      <path d="M 373.8,631.0 C 374.1,631.0 374.3,631.1 374.1,631.2 C 373.8,631.2 373.7,631.4 374.0,631.4 C 374.3,631.4 374.6,631.5 374.4,631.6 C 374.1,631.7 374.1,631.8 374.4,631.8 C 374.7,631.8 374.8,632.0 374.6,632.1 C 374.4,632.2 374.2,632.3 374.1,632.1 C 374.0,631.9 373.9,631.8 373.9,632.0 C 373.8,632.1 373.7,632.0 373.6,631.8 C 373.5,631.5 373.3,631.5 373.4,631.7 C 373.4,631.8 373.2,631.9 373.0,631.8 C 373.2,632.0 373.4,632.2 373.7,632.4 C 374.0,632.3 374.4,632.4 374.5,632.4 C 374.6,632.4 375.0,632.5 375.3,632.6 C 375.5,632.7 375.6,632.5 375.5,632.3 C 375.5,632.1 375.4,632.1 375.3,632.3 C 375.2,632.4 375.2,632.2 375.2,631.9 C 375.2,631.7 375.0,631.8 375.0,631.9 C 374.9,632.1 374.8,631.8 374.9,631.7 C 375.0,631.5 374.9,631.5 374.8,631.5 C 374.6,631.6 374.6,631.5 374.6,631.3 C 374.6,631.0 374.5,631.0 374.5,631.195 C 374.4,631.2 374.3,631.1 374.2,630.9 C 374.0,630.7 373.9,630.8 373.6,630.9 C 373.6,631.0 373.7,631.0 373.8,631.0 z "/>
    </g>
    <g fill="yellow">
      <path d="M 376.9,632.6 C 375.5,633.2 374.5,632.9 373.7,632.4 C 374.0,632.3 374.4,632.4 374.5,632.4 C 374.6,632.4 375.0,632.5 375.3,632.6 C 375.5,632.7 375.6,632.5 375.5,632.3 C 375.7,632.5 375.9,632.7 376.1,632.7 C 376.3,632.7 376.7,632.6 376.9,632.6 z "/>
    </g>
    <g fill="yellow">
      <path d="M 373.9,626.0 C 373.8,625.8 373.7,625.7 373.6,625.7 C 373.4,625.7 373.3,625.7 373.2,625.6 C 373.0,625.5 372.8,625.6 372.7,625.9 C 372.7,626.3 372.5,626.4 372.3,626.651 C 372.0,626.8 371.8,626.9 371.8,627.3 C 371.8,627.6 371.8,627.7 371.6,627.9 C 371.5,628.0 371.4,628.1 371.3,628.2 C 371.4,628.3 371.5,628.3 371.6,628.4 C 371.8,628.5 371.8,628.6 371.6,628.6 C 371.4,628.5 371.2,628.6 371.5,628.7 C 371.8,628.8 372.0,628.9 371.7,628.9 C 371.4,628.9 371.0,629.1 371.6,629.1 C 372.2,629.0 372.4,629.3 371.7,629.3 C 371.0,629.3 371.3,629.5 371.7,629.5 C 372.3,629.5 372.1,629.7 371.9,629.7 C 371.8,629.7 371.7,629.9 372.1,629.9 C 372.1,629.9 372.1,629.9 372.1,629.9 C 372.2,629.8 372.3,629.8 372.3,629.7 C 372.4,629.4 372.4,628.8 372.7,628.7 C 372.9,628.5 373.0,628.2 373.0,628.1 C 373.0,627.9 373.4,627.1 373.6,626.9 C 373.9,626.8 374.0,626.3 373.9,626.0 z "/>
    </g>
    <g fill="#cf6200">
      <path d="M 373.4,626.1 C 373.1,625.9 372.9,626.0 372.9,626.3 C 372.9,626.6 372.8,626.7 372.5,626.8 C 372.3,626.9 372.1,627.2 372.1,627.4 C 372.1,627.7 372.1,627.8 372.0,628.0 C 371.8,628.2 371.8,628.4 371.9,628.5 C 372.0,628.6 372.0,628.6 372.1,628.7 C 372.1,628.9 372.4,628.7 372.4,628.5 C 372.4,628.4 372.5,628.4 372.7,628.3 C 372.9,628.2 373.2,627.7 373.1,627.5 C 373.0,627.4 372.9,627.3 373.1,627.1 C 373.3,626.9 373.6,626.9 373.6,626.7 C 373.6,626.5 373.6,626.4 373.7,626.3 C 373.8,626.3 373.5,626.2 373.4,626.1 z "/>
    </g>
    <g fill="black">
      <path d="M 373.4,625.8 C 373.2,625.7 373.1,626.1 373.4,626.1 C 373.6,626.2 373.6,625.9 373.4,625.8 z "/>
    </g>
    <g fill="black">
      <path d="M 373.3,626.2 C 373.2,626.3 373.0,626.5 373.3,626.5 C 373.6,626.4 373.7,626.2 373.3,626.2 z "/>
    </g>
    <g fill="black">
      <path d="M 373.0,626.7 C 372.8,626.8 372.9,627.0 373.1,626.8 C 373.4,626.7 373.5,626.504 373.0,626.7 z "/>
    </g>
    <g fill="black">
      <path d="M 372.7,627.0 C 372.6,627.1 372.6,627.4 372.8,627.2 C 373.1,627.0 373.2,626.8 372.7,627.0 z "/>
    </g>
    <g fill="black">
      <path d="M 372.4,627.2 C 372.2,627.3 372.3,627.5 372.6,627.4 C 372.8,627.2 372.8,627.0 372.4,627.2 z "/>
    </g>
    <g fill="black">
      <path d="M 372.6,627.4 C 372.4,627.5 372.5,627.7 372.8,627.6 C 373.0,627.4 373.0,627.2 372.6,627.4 z "/>
    </g>
    <g fill="black">
      <path d="M 372.3,627.5 C 372.1,627.6 372.2,627.8 372.5,627.7 C 372.7,627.5 372.7,627.3 372.3,627.5 z "/>
    </g>
    <g fill="black">
      <path d="M 372.5,627.8 C 372.3,627.9 372.4,628.1 372.7,627.9 C 372.9,627.7 372.9,627.5 372.5,627.8 z "/>
    </g>
    <g fill="black">
      <path d="M 372.2,627.9 C 372.0,628.0 372.1,628.2 372.4,628.1 C 372.6,627.9 372.6,627.7 372.2,627.9 z "/>
    </g>
    <g fill="black">
      <path d="M 372.2,628.1 C 372.0,628.2 372.1,628.5 372.4,628.3 C 372.7,628.1 372.6,627.9 372.2,628.1 z "/>
    </g>
    <g fill="#cf6200">
      <path d="M 372.1,630.3 C 371.9,630.3 371.8,630.6 372.0,630.7 C 372.2,630.7 372.3,630.7 372.3,630.9 C 372.3,631.1 372.3,631.3 372.6,631.3 C 372.8,631.3 373.0,631.1 372.8,631.0 C 372.6,630.9 372.4,630.8 372.4,630.6 C 372.4,630.4 372.2,630.3 372.1,630.3 z "/>
    </g>
    <g fill="yellow">
      <path d="M 378.4,628.8 C 378.5,628.9 378.5,628.9 378.6,629.0 C 378.7,629.1 379.1,629.012 379.0,628.8 C 379.0,628.7 378.8,628.4 379.2,628.7 C 379.6,629.0 381.1,630.0 381.6,630.3 C 382.1,630.7 381.8,630.7 381.5,630.6 C 381.3,630.5 380.7,630.2 380.3,630.0 C 379.9,629.8 379.8,629.8 379.8,629.9 C 379.7,630.0 379.8,630.1 379.9,630.3 C 379.7,630.3 379.3,630.3 379.2,630.0 C 379.1,629.7 378.8,629.4 378.5,629.1 C 378.4,629.0 378.4,628.9 378.4,628.8 z "/>
    </g>
    <g fill="#00d860">
      <path d="M 391.3,671.4 C 391.0,671.6 390.6,672.0 390.9,672.6 C 390.9,672.6 390.9,672.5 391.0,672.5 C 392.2,671.0 393.3,669.4 394.3,667.7 C 394.3,667.6 394.3,667.6 394.3,667.5 C 393.9,667.8 393.3,668.1 393.1,668.2 C 393.3,668.6 392.5,669.2 392.1,669.3 C 392.3,669.6 392.3,670.0 391.9,670.1 C 392.0,670.3 391.7,670.3 391.4,670.4 C 391.1,670.6 391.0,670.7 390.8,670.8 C 391.0,670.7 391.3,670.6 391.4,670.7 C 391.5,670.7 391.5,670.9 391.3,671.0 C 391.1,671.0 390.9,671.2 390.8,671.3 C 391.2,671.1 391.7,671.2 391.3,671.4 z "/>
    </g>
    <g fill="black" stroke="black" stroke-width="0.125">
      <path d="M 375.9,628.4 C 375.5,628.0 375.4,628.2 375.6,628.4 C 375.8,628.7 375.6,628.8 375.3,628.8 C 375.0,628.9 374.5,628.973 374.2,628.9 C 374.0,628.9 373.8,629.2 374.3,629.2 C 374.8,629.2 375.6,629.0 375.8,628.9 C 376.0,628.8 376.2,628.6 375.9,628.4 z "/>
    </g>
    <g fill="black" stroke="black" stroke-width="0.125">
      <path d="M 376.7,628.9 C 376.4,628.7 376.2,628.7 376.3,628.9 C 376.4,629.2 376.3,629.2 376.0,629.3 C 375.8,629.3 375.0,629.6 374.7,629.6 C 374.3,629.7 374.2,629.9 374.8,629.9 C 375.3,629.9 376.3,629.5 376.4,629.4 C 376.5,629.3 376.6,629.2 376.7,629.2 C 376.8,629.3 376.9,629.2 376.7,628.9 z "/>
    </g>
    <g fill="black" stroke="black" stroke-width="0.125">
      <path d="M 376.9,629.8 C 376.7,629.9 376.1,630.2 375.9,630.2 C 375.6,630.3 375.4,630.6 375.9,630.5 C 376.4,630.5 377.0,630.0 377.2,629.9 C 377.3,629.8 377.4,629.8 377.5,629.8 C 377.7,629.8 377.9,629.6 377.5,629.4 C 377.0,629.2 376.8,629.3 377.0,629.5 C 377.2,629.6 377.0,629.7 376.9,629.8 z "/>
    </g>
    <g fill="black">
      <path d="M 372.9,623.2 C 372.2,622.8 371.5,623.7 372.2,624.2 C 372.8,624.6 373.5,623.6 372.9,623.2 z "/>
    </g>
    <g fill="white">
      <path d="M 372.1,623.6 L 372.3,623.6 C 372.2,623.8 372.4,624.1 372.759,624.1 C 372.5,624.2 372.0,624.0 372.1,623.6 z "/>
    </g>
    <g fill="white">
      <path d="M 374.5,633.1 C 374.7,633.1 375.4,633.2 375.6,633.2 C 375.5,633.5 375.4,633.6 375.3,633.8 C 375.3,634.0 375.2,634.0 375.2,633.7 C 375.2,633.4 375.1,633.3 374.9,633.5 C 374.8,633.8 374.7,633.9 374.7,634.0 C 374.6,634.1 374.5,634.2 374.5,633.9 C 374.6,633.6 374.5,633.3 374.5,633.1 z "/>
    </g>
    <g fill="none" stroke="black" stroke-width="0.25" stroke-opacity="1">
      <path d="M 399.6,640.7 C 399.6,657.1 397.0,674.6 375.9,683.0 C 354.7,674.6 352.1,657.1 352.1,640.7 L 399.6,640.7 z " stroke="black" stroke-opacity="1"/>
    </g>
    <g fill="none" stroke="black" stroke-width="0.25" stroke-miterlimit="4" stroke-dasharray="none" stroke-opacity="1">
      <path d="M 399.6,640.7 C 399.6,634.6 399.3,628.6 399.5,623.412 C 391.6,619.877 381.2,619.1 375.9,619.1 C 370.6,619.1 360.2,619.8 352.3,623.4 C 352.4,628.6 352.1,634.6 352.1,640.7 L 399.6,640.7 z " fill="none" stroke="black" stroke-width="0.25" stroke-miterlimit="4" stroke-dasharray="none" stroke-opacity="1"/>
    </g>
  </g>
</svg>
