<?xml version="1.0" encoding="UTF-8" standalone="no"?>
<svg xmlns="http://www.w3.org/2000/svg" xmlns:xlink="http://www.w3.org/1999/xlink" version="1.1" id="hk_flag" width="900" height="600">
<desc>Flag of Hong Kong</desc>
<defs>
<g transform="rotate(13.48)" id="petal">
<path d="M 0,0 a91,91 0 0,1 0,-180 C -12.658446,-169.50195 -17.879249,-150.03247 -1.8048128,-135.04727 C 15.826639,-118.61056 16.507023,-83.873286 -5.815508,-66.029751 C -23.212813,-52.123199 -31.851421,-17.645181 0,0 z" fill="#fff"/>
<g fill="#ff0000">
<polygon id="star" transform="rotate(-17) translate(0,-110) rotate(9) scale(15,-15) " points="0,-1  0.587,0.809 -0.951056516295153572116439333379382143405699,-0.309016994374947424102293417182819058860155 0.951056516295153572116439333379382143405699,-0.309016994374947424102293417182819058860155 -0.587785252292473129168705954639072768597652,0.809016994374947424102293417182819058860155"/>
<path d="M 0.1040913,-1.428629 C -37.826542,-13.482406 -50.196184,-58.130457 -39.378541,-87.111263 L -41.85269,-87.963134 C -52.48057,-61.061375 -42.445112,-11.988524 -0.53400654,1.114899 z"/>
</g>
</g>
</defs>
<rect width="900" height="600" fill="#ff0000"/>
<g transform="translate(450,300)">
<use xlink:href="#petal" transform="rotate(0)"/>

<use xlink:href="#petal" transform="rotate(72)"/>
<use xlink:href="#petal" transform="rotate(-72)"/>
<use xlink:href="#petal" transform="rotate(144)"/>
<use xlink:href="#petal" transform="rotate(-144)"/> 
<circle r="4" fill="#ff0000"/>
</g>
</svg>
