<?xml version="1.0" encoding="UTF-8" standalone="no"?>
<svg xmlns:dc="http://purl.org/dc/elements/1.1/" xmlns:cc="http://web.resource.org/cc/" xmlns:rdf="http://www.w3.org/1999/02/22-rdf-syntax-ns#" xmlns:svg="http://www.w3.org/2000/svg" xmlns="http://www.w3.org/2000/svg" width="1200" height="600" id="svg2" version="1.0">
  
  <sodipodi:namedview borderopacity="1.0" bordercolor="#666666" pagecolor="#ffffff" id="base"/>
  <defs id="defs4">
    <marker id="ArrowEnd" viewBox="0 0 10 10" refX="0" refY="5" markerUnits="strokeWidth" markerWidth="4" markerHeight="3" orient="auto">
      <path d="M 0,0 L 10,5 L 0,10 L 0,0 z "/>
    </marker>
    <marker id="ArrowStart" viewBox="0 0 10 10" refX="10" refY="5" markerUnits="strokeWidth" markerWidth="4" markerHeight="3" orient="auto">
      <path d="M 10,0 L 0,5 L 10,10 L 10,0 z "/>
    </marker>
  </defs>
  <path d="M 1200.,599.9 L 1200.0008,-6e-005 L 0.00083292961,-6e-005 L 0.000,599.9 L 1200.,599.9 z " fill="#000066" fill-opacity="1" stroke="none" stroke-width="0.25"/>
  <g transform="translate(0,-0.259665)">
    <path d="M 1008.,171.2 C 1008.,171.2 1008.,235.3 1008.,256.4 C 1008.,326.3 981.4,390.3 899.9,429.2 C 818.4,390.3 791.0,326.3 791.0,256.4 C 791.0,235.3 791.0,171.2 791.0,171.2 L 1008.,171.2 z " fill="#ffffff" fill-opacity="0.996081" stroke="#000000" stroke-width="0.558"/>
    <path d="M 1001.,179.9 C 1001.,179.9 1001.,239.7 1001.,259.3 C 1001.,324.5 975.9,384.3 899.9,420.5 C 823.9,384.3 798.3,324.5 798.3,259.3 C 798.3,239.7 798.3,179.9 798.3,179.9 L 1001.,179.9 z " fill="#fdc300" fill-opacity="0.996081" stroke="#000000" stroke-width="0.520"/>
    <g transform="matrix(4.166408,0,0,4.166876,-5.45887,-5.459652)">
      <path d="M 205.9,52.84 C 205.6,52.58 205.2,52.42 204.6,52.40 C 204.8,51.11 203.8,50.55 203.1,50.31 C 202.5,50.08 202.2,49.81 202.1,49.28 C 202.0,48.75 201.6,48.43 201.0,48.25 C 200.4,48.08 199.9,47.46 199.6,47.16 C 199.4,46.87 199.3,46.93 199.1,47.43 C 199.0,47.93 198.3,48.87 198.9,48.90 C 198.4,49.28 198.2,49.72 198.5,50.31 C 198.1,50.58 197.9,50.96 198.4,51.11 C 198.8,51.25 198.9,51.37 198.9,51.49 C 198.5,51.49 198.4,52.28 199.4,52.46 C 199.2,52.49 199.1,53.14 199.5,53.14 C 198.9,53.14 198.5,53.93 197.8,53.93 C 197.1,53.93 196.8,54.08 196.8,54.37 C 196.7,54.67 196.4,55.02 196.2,55.17 C 196.754,55.23 197.0,55.17 197.3,54.96 C 197.6,54.75 198.0,54.70 198.3,54.93 C 198.6,55.17 199.2,55.28 199.549,55.23 C 198.9,55.67 198.4,56.25 198.3,56.81 C 198.3,57.37 197.9,58.02 197.4,58.20 C 197.0,58.37 196.4,58.84 196.2,59.40 C 196.8,60.79 197.6,61.13 198.4,61.49 C 199.8,62.14 200.6,62.61 201.2,63.26 C 201.8,63.90 202.1,63.43 202.9,64.55 C 203.8,65.67 204.6,67.79 205.5,68.14 C 206.4,68.49 207.5,68.26 208.2,67.14 C 208.8,66.02 209.2,54.72 205.9,52.84 z " fill="#ff9e3d" stroke="#000000" stroke-width="0.062"/>
      <path d="M 207.4,48.13 C 206.6,49.02 205.5,49.90 205.7,51.49 C 205.9,53.08 206.1,55.67 204.6,56.55 C 203.1,57.43 202.4,59.67 204.2,60.96 C 205.9,62.26 206.0,63.85 206.3,65.32 C 206.6,66.79 207.4,67.96 208.5,66.96 C 209.7,67.14 210.4,66.67 210.4,65.73 C 210.4,64.79 210.4,64.26 211.3,63.96 C 212.2,63.67 212.4,63.37 212.8,62.58 C 213.2,61.79 213.5,61.43 213.2,60.96 C 213.0,60.49 212.9,59.52 213.1,58.81 C 213.3,58.11 212.9,57.73 212.6,57.28 C 212.4,56.84 212.3,56.46 212.4,55.87 C 212.5,55.28 212.2,54.90 211.8,54.61 C 211.4,54.31 211.2,54.02 211.3,53.55 C 211.4,53.08 211.0,52.78 210.6,52.43 C 210.2,52.0818 209.8,51.61 209.8,50.90 C 209.8,50.19 208.5,48.55 207.4,48.13 z " fill="#ff927f" fill-opacity="1" stroke="#000000" stroke-width="0.062"/>
      <path d="M 207.7,67.35 C 209.7,66.85 209.5,63.61 209.2,62.26 C 208.9,60.90 208.237,58.97 208.8,57.43 C 209.6,55.25 207.8,53.19 208.2,52.37 C 208.7,51.55 208.6,51.11 208.6,50.84 C 208.5,50.58 208.1,50.37 208.1,50.93 C 208.0,51.49 207.9,51.69 207.5,52.05 C 207.2,52.40 207.3,53.17 207.5,54.02 C 207.8,54.87 208.4,56.17 207.5,57.87 C 206.6,59.58 207.0,60.34 207.3,61.14 C 207.8,62.37 209.1,66.67 207.7,67.35 z " fill="#ff9ee1" stroke="#000000" stroke-width="0.062"/>
      <path d="M 198.9,48.90 C 199.1,48.90 199.6,48.81 199.6,49.11" fill="none" stroke="#000000" stroke-width="0.062"/>
      <path d="M 198.5,50.31 C 198.7,50.12 199.2,50.34 199.7,50.06" fill="none" stroke="#000000" stroke-width="0.062"/>
      <path d="M 198.9,51.49 C 199.3,51.49 199.8,51.47 200.2,51.12" fill="none" stroke="#000000" stroke-width="0.062"/>
      <path d="M 199.4,52.46 C 199.7,52.46 200.3,52.25 200.5,51.83" fill="none" stroke="#000000" stroke-width="0.062"/>
      <path d="M 199.5,53.14 C 200.1,53.11 200.9,53.34 201.1,53.12" fill="none" stroke="#000000" stroke-width="0.062"/>
      <path d="M 199.549,55.23 C 199.9,54.81 201.0,54.53 201.2,54.11" fill="none" stroke="#000000" stroke-width="0.062"/>
      <path d="M 200.6,48.66 C 201.4,48.90 201.0,49.35 201.4,49.63 C 202.109,50.14 201.5,50.69 202.0,50.84 C 202.5,50.99 202.5,51.08 202.4,51.66 C 202.2,52.36 202.9,52.39 202.6,52.84" fill="none" stroke="#000000" stroke-width="0.062"/>
      <path d="M 204.6,52.40 C 204.4,52.40 203.5,52.43 203.1,53.21" fill="none" stroke="#000000" stroke-width="0.062"/>
      <path d="M 198.4,60.89 C 198.7,60.95 198.924,60.76 199.0,60.57 C 199.1,60.36 199.1,60.21 199.4,60.20 C 199.7,60.18 200.2,60.09 200.3,59.86 C 200.4,59.62 200.8,59.84 201.1,59.23 C 201.4,58.61 201.6,57.87 202.4,57.61" fill="none" stroke="#000000" stroke-width="0.062"/>
    </g>
    <g transform="matrix(4.166408,0,0,4.166876,-5.45887,-5.459652)">
      <path d="M 221.7,73.75 C 222.0,74.23 221.7,74.75 222.3,74.96 C 222.9,75.21 222.3,76.08 223.1,76.38 C 223.8,76.66 223.1,77.49 223.9,77.86 C 224.5,78.20 223.8,78.98 224.7,79.42 C 225.6,79.87 224.5,80.87 225.2,81.26 C 225.8,81.66 224.9,82.66 225.7,83.05 C 226.5,83.44 225.4,84.22 226.1,84.78 C 226.8,85.34 225.9,86.17 226.7,86.68 C 227.4,87.18 226.2,87.85 226.9,88.57 C 227.5,89.13 226.7,89.68 227.2,90.52 C 227.4,91.08 226.9,93.31 225.3,93.09 C 224.8,94.04 222.6,94.88 221.8,94.60 C 221.0,95.15 218.5,95.94 217.2,94.71 C 216.0,95.94 213.4,95.15 212.7,94.60 C 211.9,94.88 209.7,94.04 209.2,93.09 C 207.6,93.31 207.0,91.08 207.3,90.52 C 207.7,89.68 207.0,89.13 207.5,88.57 C 208.3,87.85 207.1,87.18 207.8,86.68 C 208.5,86.17 207.6,85.34 208.4,84.78 C 209.1,84.22 208.0,83.44 208.8,83.05 C 209.5,82.66 208.7,81.6602 209.3,81.26 C 210.0,80.87 208.9,79.87 209.8,79.42 C 210.7,78.98 209.9,78.20 210.6,77.86 C 211.4,77.4931 210.7,76.66 211.4,76.38 C 212.1,76.08 211.6,75.21 212.2,74.96 C 212.8,74.75 212.4,74.21 212.8,73.72 C 214.5,74.38 219.6,74.84 221.7,73.75 z " fill="#00a728" fill-opacity="1" stroke="#000000" stroke-width="0.062"/>
      <g>
        <path d="M 213.5,76.66 C 213.5,76.91 213.5,77.16 213.2,77.47 C 212.7,78.14 213.4,78.48 212.9,79.20 C 212.3,79.93 213.0,80.37 212.4,80.99 C 211.8,81.60 212.5,82.16 211.9,82.83 C 211.3,83.50 212.0,83.94 211.4,84.56 C 210.8,85.17 211.5,85.84 210.9,86.45 C 210.3,87.07 211.0,87.85 210.3,88.57 C 209.7,89.30 210.4,89.86 209.9,90.41 C 209.3,90.97 209.8,91.53 209.4,91.92 C 210.1,91.42 210.1,90.64 210.6,90.25 C 211.1,89.86 210.4,89.30 210.7,89.02 C 211.0,88.74 210.8,87.57 211.3,87.01 C 211.8,86.45 211.3,85.34 211.8,84.95 C 212.2,84.56 211.9,83.38 212.4,82.99 C 213.0,82.60 212.4,81.66 212.9,81.15 C 213.3,80.65 212.9,79.87 213.3,79.26 C 213.8,78.64 213.4,78.09 213.7,77.58 C 213.8,77.36 213.8,75.74 213.5,76.66 z " fill="#fdc300" fill-opacity="0.996081" stroke="#000000" stroke-width="0.062"/>
        <path d="M 215.1,77.36 C 214.7,78.09 215.3,78.25 214.8,78.98 C 214.3,79.70 215.1,80.26 214.6,80.99 C 214.0,81.71 214.8,82.10 214.3,82.83 C 213.8,83.55 214.6,83.94 214.1,84.50 C 213.7,85.06 214.5,85.62 213.9,86.29 C 213.3,86.95 214.1,87.46 213.7,88.07 C 213.2,88.68 213.8,89.35 213.4,89.86 C 213.1,90.36 213.7,91.08 213.2,91.75 C 212.6,92.42 213.3,92.87 212.9,93.31 C 213.6,93.09 213.4,92.17 213.6,91.98 C 213.9,91.78 213.5,90.50 213.9,90.16 C 214.3,89.83 213.72,88.8 214.0,88.35 C 214.6,87.60 214.1,87.09 214.5,86.51 C 214.8,85.92 214.3,85.17 214.6,84.78 C 215.1,84.11 214.4,83.51 214.8,83.02 C 215.3,82.32 214.7,81.75 215.0,81.29 C 215.5,80.60 215.0,79.90 215.2,79.54 C 215.4,79.17 215.8,77.61 215.1,77.36 z " fill="#fdc300" fill-opacity="0.996081" stroke="#000000" stroke-width="0.062"/>
        <path d="M 217.2,77.97 C 216.9,78.9458 217.5,79.33 217.3,80.11 C 217.1,80.88 217.6,81.47 217.2,82.31 C 216.9,83.15 217.7,83.80 217.2,84.90 C 216.8,86.00 217.5,86.28 217.2,87.36 C 216.9,88.63 217.8,89.30 217.2,90.19 C 216.7,91.08 217.9,91.38 217.3,92.31 C 217.0,92.76 217.3,93.90 217.8,92.53 C 218.2,91.17 217.4,91.00 217.8,90.44 C 218.2,89.88 217.737,88.41 217.9,87.62 C 218.0,86.84 217.5,85.78 217.8,84.95 C 218.2,84.11 217.3,83.22 217.6,82.49 C 218.0,81.77 217.5,80.87 217.8,80.29 C 218.1,79.70 217.5,78.92 217.7,78.59 C 217.8,78.25 217.5,77.02 217.2,77.97 z " fill="#fdc300" fill-opacity="0.996081" stroke="#000000" stroke-width="0.062"/>
      </g>
      <path d="M 221.4,74.40 C 221.4,68.10 220.5,65.92 217.2,65.92 C 213.9,65.92 213.1,68.10 213.1,74.40 L 221.4,74.40 z " fill="#ef072d" stroke="#000000" stroke-width="0.062"/>
      <g>
        <path d="M 214.3,73.90 C 213.7,74.51 214.4,74.96 213.8,75.69 C 213.2,76.41 213.7,76.80 213.2,77.47 C 212.7,78.14 213.4,78.48 212.9,79.20 C 212.3,79.93 213.0,80.37 212.4,80.99 C 211.8,81.60 212.5,82.16 211.9,82.83 C 211.3,83.50 212.0,83.94 211.4,84.56 C 210.8,85.17 211.5,85.84 210.9,86.45 C 210.3,87.07 211.0,87.85 210.3,88.57 C 209.7,89.30 210.4,89.86 209.9,90.41 C 209.3,90.97 209.8,91.53 209.4,91.92 C 209.0,92.31 209.0,92.85 209.2,93.09" fill="none" stroke="#000000" stroke-width="0.062"/>
        <path d="M 215.5,74.12 C 214.9,74.85 215.7,75.18 215.2,75.80 C 214.7,76.41 215.5,76.63 215.1,77.36 C 214.7,78.09 215.3,78.25 214.8,78.98 C 214.3,79.70 215.1,80.26 214.6,80.99 C 214.0,81.71 214.8,82.10 214.3,82.83 C 213.8,83.55 214.6,83.94 214.1,84.50 C 213.7,85.06 214.5,85.62 213.9,86.29 C 213.3,86.95 214.1,87.46 213.7,88.07 C 213.2,88.68 213.8,89.35 213.4,89.86 C 213.1,90.36 213.7,91.08 213.2,91.75 C 212.6,92.42 213.3,92.87 212.9,93.31 C 212.6,93.76 212.3,94.42 212.7,94.60" fill="none" stroke="#000000" stroke-width="0.062"/>
        <path d="M 217.2,74.79 C 217.0,75.96 217.6,77.00 217.2,77.97 C 216.9,78.9458 217.5,79.33 217.3,80.11 C 217.1,80.88 217.6,81.47 217.2,82.31 C 216.9,83.15 217.7,83.80 217.2,84.90 C 216.8,86.00 217.5,86.28 217.2,87.36 C 216.9,88.63 217.8,89.30 217.2,90.19 C 216.7,91.08 217.7,91.31 217.3,92.31 C 216.9,93.319 217.6,93.70 217.2,94.71" fill="none" stroke="#000000" stroke-width="0.062"/>
        <path d="M 220.2,73.90 C 220.8,74.51 220.1,74.96 220.7,75.69 C 221.3,76.41 220.8,76.80 221.3,77.47 C 221.8,78.14 221.0,78.48 221.6,79.20 C 222.1,79.93 221.5,80.37 222.1,80.99 C 222.7,81.60 222.0,82.16 222.6,82.83 C 223.2,83.50 222.5,83.94 223.1,84.56 C 223.7,85.17 223.0,85.84 223.6,86.45 C 224.2,87.07 223.5,87.85 224.2,88.57 C 224.8,89.30 224.0,89.86 224.6,90.41 C 225.2,90.97 224.7,91.53 225.1,91.9243 C 225.4,92.31 225.5,92.85 225.3,93.09" fill="none" stroke="#000000" stroke-width="0.062"/>
        <path d="M 219.0,74.12 C 219.6,74.85 218.7,75.18 219.2,75.80 C 219.8,76.41 219.0,76.63 219.4,77.36 C 219.8,78.09 219.1,78.25 219.6,78.98 C 220.1,79.70 219.4,80.26 219.9,80.99 C 220.5,81.71 219.6,82.10 220.1,82.83 C 220.6,83.55 219.9,83.94 220.4,84.50 C 220.8,85.06 220.0,85.62 220.6,86.29 C 221.1,86.95 220.4,87.46 220.8,88.07 C 221.3,88.68 220.6,89.35 221.0,89.86 C 221.4,90.36 220.8,91.08 221.3,91.75 C 221.9,92.42 221.2,92.87 221.5,93.31 C 221.9,93.76 222.1,94.42 221.8,94.60" fill="none" stroke="#000000" stroke-width="0.062"/>
      </g>
      <path d="M 213.1,74.40 C 213.1,68.10 213.9,65.92 217.2,65.92 C 215.7,65.92 214.8,67.10 214.6,67.88 C 214.3,68.66 214.5,68.60 214.836,68.3 C 215.1,67.99 215.0,68.66 214.7,69.02 C 214.4,69.38 214.1,70.41 214.5,70.08 C 214.9,69.75 215.2,70.14 214.8,70.72 C 214.4,71.31 214.0,72.67 214.4,72.20 C 214.8,71.73 214.9,72.51 214.7,72.90 C 214.4,73.29 214.5,73.62 214.725,73.46 C 214.9,73.29 214.9,74.10 214.6,74.40 L 213.1,74.40 z " fill="#000000" stroke="#000000" stroke-width="0.062"/>
      <path d="M 220.8,74.04 C 220.8,69.10 220.2,67.63 218.9,67.12 C 218.2,66.84 218.2,66.90 218.6,67.35 C 218.9,67.79 218.8,68.43 218.5,67.99 C 218.2,67.54 218.1,67.46 218.0,67.65 C 217.9,67.85 218.4,68.77 218.7,69.61 C 219.0,70.28 218.8,70.61 218.4,69.94 C 217.9,69.27 217.9,69.88 218.3,70.44 C 218.8,71.17 218.8,73.37 218.8,74.29 L 220.8,74.04 z " fill="#000000" stroke="#000000" stroke-width="0.062"/>
      <path d="M 217.2,75.32 C 218.6,75.32 220.0,75.09 221,74.7209 C 222.1,74.27 222.2,73.88 221.8,73.38 C 221.5,73.03 220.9,73.24 220.3,73.50 C 219.7,73.76 218.1,73.92 217.2,73.92 C 216.4,73.92 214.8,73.76 214.2,73.50 C 213.6,73.24 213.0,73.03 212.7,73.38 C 212.3,73.88 212.4,74.27 213.5,74.72 C 214.5,75.09 215.9,75.32 217.2,75.32 z " fill="#ef072d" stroke="#000000" stroke-width="0.062"/>
    </g>
    <g transform="matrix(0.895602,0,0,0.895702,239.4897,59.73914)" font-size="12px">
      <path d="M 779.4,912.5 C 779.4,912.5 779.2,1016. 779.4,1091. C 779.5,1167. 799.2,1196. 833.6,1195. C 868.1,1194. 874.7,1136. 868.2,1103. C 861.6,1070. 814.9,904.3 814.9,904.3 L 779.4,912.5 z " transform="matrix(6.308398e-2,-4.073591e-2,3.863361e-2,6.651678e-2,712.0953,209.8693)" font-size="12px" fill="#b95a1e" fill-rule="evenodd" stroke="#000000" stroke-width="4.375"/>
      <path d="M 779.4,912.5 C 779.4,912.5 779.2,1016. 779.4,1091. C 779.5,1167. 799.2,1196. 833.6,1195. C 868.1,1194. 874.7,1136. 868.2,1103. C 861.6,1070. 814.9,904.3 814.9,904.3 L 779.4,912.5 z " transform="matrix(7.236112e-2,-1.619858e-2,1.53626e-2,7.629874e-2,725.1523,182.3482)" font-size="12px" fill="#b95a1e" fill-rule="evenodd" stroke="#000000" stroke-width="4.375"/>
      <path d="M 779.4,912.5 C 779.4,912.5 779.2,1016. 779.4,1091. C 779.5,1167. 799.2,1196. 833.6,1195. C 868.1,1194. 874.7,1136. 868.2,1103. C 861.6,1070. 814.9,904.3 814.9,904.3 L 779.4,912.5 z " transform="matrix(7.39739e-2,0,0,7.799929e-2,736.2345,168.4202)" font-size="12px" fill="#b95a1e" fill-rule="evenodd" stroke="#000000" stroke-width="4.375"/>
      <path d="M 779.5,255.1 C 939.0,253.7 956.6,219.6 956.6,219.6 C 956.6,219.6 992.1,148.8 974.4,131.1 C 956.6,113.3 779.5,113.3 779.5,113.3 L 779.5,255.1 z " transform="matrix(4.59062e-2,0,0,7.799929e-2,758.114,219.5496)" font-size="12px" fill="#b95a1e" fill-rule="evenodd" stroke="#000000" stroke-width="5.553"/>
      <path d="M 779.5,255.1 C 885.8,255.1 903.5,219.6 903.5,219.6 C 903.5,219.6 938.9,148.8 921.2,131.1 C 903.5,113.3 779.5,113.3 779.5,113.3 L 779.5,255.1 z " transform="matrix(7.39739e-2,0,0,7.799929e-2,736.2344,214.0221)" font-size="12px" fill="#b95a1e" fill-rule="evenodd" stroke="#000000" stroke-width="4.375"/>
      <path d="M 779.5,255.1 C 868.1,255.1 921.2,219.6 921.2,219.6 C 921.2,219.6 956.6,148.8 938.9,131.1 C 921.2,113.3 779.5,113.3 779.5,113.3 L 779.5,255.1 z " transform="matrix(7.39739e-2,0,0,7.799929e-2,736.2344,208.4946)" font-size="12px" fill="#b95a1e" fill-rule="evenodd" stroke="#000000" stroke-width="4.375"/>
      <path d="M 832.6,113.3 C 832.6,113.3 903.5,24.80 1027.56,-63.7795 C 1151.57,-152.362 1241.29,-220.501 1257.87,-205.512 C 1257.87,-187.795 1151.57,-99.2126 1062.99,-28.3465 C 974.4,42.51 868.1,148.8 868.1,148.8 L 832.6,113.3 z " transform="matrix(9.180368e-2,0,0,7.799929e-2,721.8746,168.5821)" font-size="12px" fill="#b95a1e" fill-rule="evenodd" stroke="#000000" stroke-width="3.927"/>
      <path d="M 832.6,113.3 C 832.6,113.3 902.7,61.36 1037.06,-10.6298 C 1169.29,-74.5475 1355.95,-63.7795 1355.95,-46.0629 C 1338.24,-28.3465 1178.79,-28.3464 1072.,24.80 C 971.0,75.53 868.1,148.8 868.1,148.8 L 832.6,113.3 z " transform="matrix(9.180368e-2,0,0,7.799929e-2,722.6294,174.1096)" font-size="12px" fill="#b95a1e" fill-rule="evenodd" stroke="#000000" stroke-width="3.927"/>
      <path d="M 832.6,113.3 C 832.6,113.3 894.3,78.31 1037.,24.80 C 1178.78,-28.3464 1366.,7.086 1366.,24.80 C 1349.,42.51 1196.,31.75 1090.,60.23 C 980.2,87.99 868.1,148.8 868.1,148.8 L 832.6,113.3 z " transform="matrix(9.180368e-2,0,0,7.799929e-2,722.6986,183.628)" font-size="12px" fill="#b95a1e" fill-rule="evenodd" stroke="#000000" stroke-width="3.927"/>
      <path d="M 832.6,113.3 C 832.6,113.3 903.7,42.41 1055.,24.80 C 1207.,7.086 1331.,113.3 1331.,131.1 C 1313.,148.8 1172.,53.12 1065.,66.81 C 953.1,80.46 868.1,148.8 868.1,148.8 L 832.6,113.3 z " transform="matrix(9.180368e-2,0,0,7.799929e-2,723.317,193.294)" font-size="12px" fill="#b95a1e" fill-rule="evenodd" stroke="#000000" stroke-width="3.927"/>
      <path d="M 779.5,255.1 C 939.0,253.7 938.9,209.6 938.9,209.6 C 938.9,209.6 974.4,138.7 956.6,121.0 C 938.9,103.3 779.5,113.3 779.5,113.3 L 779.5,255.1 z " transform="matrix(7.39739e-2,0,0,7.799929e-2,736.2344,201.5853)" font-size="12px" fill="#b95a1e" fill-rule="evenodd" stroke="#000000" stroke-width="4.375"/>
      <path d="M 779.5,255.1 C 939.0,253.7 956.6,219.6 956.6,219.6 C 956.6,219.6 992.1,148.8 974.4,131.1 C 956.6,113.3 779.5,113.3 779.5,113.3 L 779.5,255.1 z " transform="matrix(7.39739e-2,0,0,7.799929e-2,736.2344,196.0577)" font-size="12px" fill="#b95a1e" fill-rule="evenodd" stroke="#000000" stroke-width="4.375"/>
      <path d="M 779.5,255.1 C 939.0,253.7 974.4,219.6 974.4,219.6 C 974.4,219.6 1009.,148.8 992.1,131.1 C 974.4,113.3 779.5,113.3 779.5,113.3 L 779.5,255.1 z " transform="matrix(7.39739e-2,0,0,7.799929e-2,736.2344,189.1483)" font-size="12px" fill="#b95a1e" fill-rule="evenodd" stroke="#000000" stroke-width="4.375"/>
      <path d="M 779.5,255.1 C 939.0,253.7 992.1,219.6 992.1,219.6 C 992.1,219.6 1009.,148.8 992.1,131.1 C 974.4,113.3 779.5,113.3 779.5,113.3 L 779.5,255.1 z " transform="matrix(7.39739e-2,0,0,7.799929e-2,736.2345,182.239)" font-size="12px" fill="#b95a1e" fill-rule="evenodd" stroke="#000000" stroke-width="4.375"/>
      <path d="M 832.6,113.3 C 832.6,113.3 946.8,24.80 946.883,-46.0629 C 946.883,-116.929 896.534,-187.795 882.258,-223.228 C 910.81,-223.228 975.434,-116.929 975.434,-46.0629 C 975.4,31.38 868.1,148.8 868.1,148.8 L 832.6,113.3 z " transform="matrix(9.180368e-2,0,0,7.799929e-2,720.0775,162.8927)" font-size="12px" fill="#b95a1e" fill-rule="evenodd" stroke="#000000" stroke-width="3.927"/>
      <path d="M 832.6,113.3 C 832.6,113.3 818.4,60.23 818.401,-46.0629 C 818.401,-170.079 881.402,-248.956 904.055,-276.378 C 909.953,-248.956 846.953,-152.362 846.953,-46.0629 C 846.9,31.38 868.1,148.8 868.1,148.8 L 832.6,113.3 z " transform="matrix(9.180368e-2,0,0,7.799929e-2,720.0775,162.8927)" font-size="12px" fill="#b95a1e" fill-rule="evenodd" stroke="#000000" stroke-width="3.927"/>
      <path d="M 779.5,255.1 C 939.0,253.7 992.1,219.6 992.1,219.6 C 992.1,219.6 992.1,148.8 974.4,131.1 C 956.6,113.3 779.5,113.3 779.5,113.3 L 779.5,255.1 z " transform="matrix(7.39739e-2,0,0,7.799929e-2,736.2344,175.3296)" font-size="12px" fill="#b95a1e" fill-rule="evenodd" stroke="#000000" stroke-width="4.375"/>
      <path d="M 779.5,255.1 C 939.0,253.7 974.4,219.6 974.4,219.6 C 974.4,219.6 974.4,148.8 956.6,131.1 C 938.9,113.3 779.5,113.3 779.5,113.3 L 779.5,255.1 z " transform="matrix(7.39739e-2,0,0,7.799929e-2,736.2345,168.4202)" font-size="12px" fill="#b95a1e" fill-rule="evenodd" stroke="#000000" stroke-width="4.375"/>
      <path d="M 318.8,1318. C 373.9,1195. 389.7,981.4 389.7,946.0 C 389.7,846.2 356.8,360.9 354.3,166.5 C 351.846,-27.887 478.346,-134.646 602.362,-134.646 C 708.661,-134.646 779.528,-63.7795 779.5,42.51 L 726.3,42.51 C 726.378,-28.3465 673.228,-81.496 602.362,-81.496 C 496.063,-81.496 414.3,2.242 407.4,166.5 C 399.8,356.4 428.7,849.4 425.1,981.4 C 421.5,1113. 373.9,1231. 318.8,1318. z " transform="matrix(-7.39739e-2,0,0,7.799929e-2,851.564,168.4202)" font-size="12px" fill="#b95a1e" fill-rule="evenodd" stroke="#fdc301" stroke-width="11.02" stroke-dasharray="none" stroke-opacity="1"/>
      <path d="M 779.4,912.5 C 779.4,912.5 779.2,1016. 779.4,1091. C 779.5,1167. 799.2,1196. 833.6,1195. C 868.1,1194. 874.7,1136. 868.2,1103. C 861.6,1070. 814.9,904.3 814.9,904.3 L 779.4,912.5 z " transform="matrix(-6.308398e-2,-4.073591e-2,-3.863361e-2,6.651678e-2,875.6903,209.8693)" font-size="12px" fill="#b95a1e" fill-rule="evenodd" stroke="#000000" stroke-width="4.375"/>
      <path d="M 779.5,32.88 C 903.6,33.02 957.2,135.2 956.9,133.1 L 921.2,166.5 C 902.2,184.2 779.5,184.2 781.0,184.1 L 779.5,32.88 z " transform="matrix(7.39739e-2,0,0,7.799929e-2,736.2345,168.4202)" font-size="12px" fill="#b95a1e" fill-rule="evenodd" stroke="#000000" stroke-width="4.375"/>
      <path d="M 779.4,912.5 C 779.4,912.5 779.2,1016. 779.4,1091. C 779.5,1167. 799.2,1196. 833.6,1195. C 868.1,1194. 874.7,1136. 868.2,1103. C 861.6,1070. 814.9,904.3 814.9,904.3 L 779.4,912.5 z " transform="matrix(-7.236112e-2,-1.619858e-2,-1.53626e-2,7.629874e-2,862.6333,182.3482)" font-size="12px" fill="#b95a1e" fill-rule="evenodd" stroke="#000000" stroke-width="4.375"/>
      <path d="M 779.4,912.5 C 779.4,912.5 779.2,1016. 779.4,1091. C 779.5,1167. 799.2,1196. 833.6,1195. C 868.1,1194. 874.7,1136. 868.2,1103. C 861.6,1070. 814.9,904.3 814.9,904.3 L 779.4,912.5 z " transform="matrix(-7.39739e-2,0,0,7.799929e-2,851.5511,168.4202)" font-size="12px" fill="#b95a1e" fill-rule="evenodd" stroke="#000000" stroke-width="4.375"/>
      <path d="M 779.5,255.1 C 939.0,253.7 956.6,219.6 956.6,219.6 C 956.6,219.6 992.1,148.8 974.4,131.1 C 956.6,113.3 779.5,113.3 779.5,113.3 L 779.5,255.1 z " transform="matrix(-4.59062e-2,0,0,7.799929e-2,829.6716,219.5496)" font-size="12px" fill="#b95a1e" fill-rule="evenodd" stroke="#000000" stroke-width="5.553"/>
      <path d="M 779.5,255.1 C 885.8,255.1 903.5,219.6 903.5,219.6 C 903.5,219.6 938.9,148.8 921.2,131.1 C 903.5,113.3 779.5,113.3 779.5,113.3 L 779.5,255.1 z " transform="matrix(-7.39739e-2,0,0,7.799929e-2,851.5511,214.0221)" font-size="12px" fill="#b95a1e" fill-rule="evenodd" stroke="#000000" stroke-width="4.375"/>
      <path d="M 779.5,255.1 C 868.1,255.1 921.2,219.6 921.2,219.6 C 921.2,219.6 956.6,148.8 938.9,131.1 C 921.2,113.3 779.5,113.3 779.5,113.3 L 779.5,255.1 z " transform="matrix(-7.39739e-2,0,0,7.799929e-2,851.5511,208.4946)" font-size="12px" fill="#b95a1e" fill-rule="evenodd" stroke="#000000" stroke-width="4.375"/>
      <path d="M 832.6,113.3 C 832.6,113.3 903.5,24.80 1027.56,-63.7795 C 1151.57,-152.362 1241.29,-220.501 1257.87,-205.512 C 1257.87,-187.795 1151.57,-99.2126 1062.99,-28.3465 C 974.4,42.51 868.1,148.8 868.1,148.8 L 832.6,113.3 z " transform="matrix(-9.180368e-2,0,0,7.799929e-2,865.9109,168.5821)" font-size="12px" fill="#b95a1e" fill-rule="evenodd" stroke="#000000" stroke-width="3.927"/>
      <path d="M 832.6,113.3 C 832.6,113.3 902.7,61.36 1037.06,-10.6298 C 1169.29,-74.5475 1355.95,-63.7795 1355.95,-46.0629 C 1338.24,-28.3465 1178.79,-28.3464 1072.,24.80 C 971.0,75.53 868.1,148.8 868.1,148.8 L 832.6,113.3 z " transform="matrix(-9.180368e-2,0,0,7.799929e-2,865.1562,174.1096)" font-size="12px" fill="#b95a1e" fill-rule="evenodd" stroke="#000000" stroke-width="3.927"/>
      <path d="M 832.6,113.3 C 832.6,113.3 894.3,78.31 1037.,24.80 C 1178.78,-28.3464 1366.,7.086 1366.,24.80 C 1349.,42.51 1196.,31.75 1090.,60.23 C 980.2,87.99 868.1,148.8 868.1,148.8 L 832.6,113.3 z " transform="matrix(-9.180368e-2,0,0,7.799929e-2,865.087,183.628)" font-size="12px" fill="#b95a1e" fill-rule="evenodd" stroke="#000000" stroke-width="3.927"/>
      <path d="M 832.6,113.3 C 832.6,113.3 903.7,42.41 1055.,24.80 C 1207.,7.086 1331.,113.3 1331.,131.1 C 1313.,148.8 1172.,53.12 1065.,66.81 C 953.1,80.46 868.1,148.8 868.1,148.8 L 832.6,113.3 z " transform="matrix(-9.180368e-2,0,0,7.799929e-2,864.4686,193.294)" font-size="12px" fill="#b95a1e" fill-rule="evenodd" stroke="#000000" stroke-width="3.927"/>
      <path d="M 779.5,255.1 C 939.0,253.7 938.9,209.6 938.9,209.6 C 938.9,209.6 974.4,138.7 956.6,121.0 C 938.9,103.3 779.5,113.3 779.5,113.3 L 779.5,255.1 z " transform="matrix(-7.39739e-2,0,0,7.799929e-2,851.5511,201.5853)" font-size="12px" fill="#b95a1e" fill-rule="evenodd" stroke="#000000" stroke-width="4.375"/>
      <path d="M 779.5,255.1 C 939.0,253.7 956.6,219.6 956.6,219.6 C 956.6,219.6 992.1,148.8 974.4,131.1 C 956.6,113.3 779.5,113.3 779.5,113.3 L 779.5,255.1 z " transform="matrix(-7.39739e-2,0,0,7.799929e-2,851.5511,196.0577)" font-size="12px" fill="#b95a1e" fill-rule="evenodd" stroke="#000000" stroke-width="4.375"/>
      <path d="M 779.5,255.1 C 939.0,253.7 974.4,219.6 974.4,219.6 C 974.4,219.6 1009.,148.8 992.1,131.1 C 974.4,113.3 779.5,113.3 779.5,113.3 L 779.5,255.1 z " transform="matrix(-7.39739e-2,0,0,7.799929e-2,851.5511,189.1483)" font-size="12px" fill="#b95a1e" fill-rule="evenodd" stroke="#000000" stroke-width="4.375"/>
      <path d="M 779.5,255.1 C 939.0,253.7 992.1,219.6 992.1,219.6 C 992.1,219.6 1009.,148.8 992.1,131.1 C 974.4,113.3 779.5,113.3 779.5,113.3 L 779.5,255.1 z " transform="matrix(-7.39739e-2,0,0,7.799929e-2,851.5511,182.239)" font-size="12px" fill="#b95a1e" fill-rule="evenodd" stroke="#000000" stroke-width="4.375"/>
      <path d="M 832.6,113.3 C 832.6,113.3 946.8,24.80 946.883,-46.0629 C 946.883,-116.929 896.534,-187.795 882.258,-223.228 C 910.81,-223.228 975.434,-116.929 975.434,-46.0629 C 975.4,31.38 868.1,148.8 868.1,148.8 L 832.6,113.3 z " transform="matrix(-9.180368e-2,0,0,7.799929e-2,867.7081,162.8927)" font-size="12px" fill="#b95a1e" fill-rule="evenodd" stroke="#000000" stroke-width="3.927"/>
      <path d="M 832.6,113.3 C 832.6,113.3 818.4,60.23 818.401,-46.0629 C 818.401,-170.079 881.402,-248.956 904.055,-276.378 C 909.953,-248.956 846.953,-152.362 846.953,-46.0629 C 846.9,31.38 868.1,148.8 868.1,148.8 L 832.6,113.3 z " transform="matrix(-9.180368e-2,0,0,7.799929e-2,867.7081,162.8927)" font-size="12px" fill="#b95a1e" fill-rule="evenodd" stroke="#000000" stroke-width="3.927"/>
      <path d="M 779.5,255.1 C 939.0,253.7 992.1,219.6 992.1,219.6 C 992.1,219.6 992.1,148.8 974.4,131.1 C 956.6,113.3 779.5,113.3 779.5,113.3 L 779.5,255.1 z " transform="matrix(-7.39739e-2,0,0,7.799929e-2,851.5511,175.3296)" font-size="12px" fill="#b95a1e" fill-rule="evenodd" stroke="#000000" stroke-width="4.375"/>
      <path d="M 779.5,255.1 C 939.0,253.7 974.4,219.6 974.4,219.6 C 974.4,219.6 974.4,148.8 956.6,131.1 C 938.9,113.3 779.5,113.3 779.5,113.3 L 779.5,255.1 z " transform="matrix(-7.39739e-2,0,0,7.799929e-2,851.5511,168.4202)" font-size="12px" fill="#b95a1e" fill-rule="evenodd" stroke="#000000" stroke-width="4.375"/>
      <path d="M 318.8,1318. C 373.9,1195. 389.7,981.4 389.7,946.0 C 389.7,846.2 356.8,360.9 354.3,166.5 C 351.846,-27.887 478.346,-134.646 602.362,-134.646 C 708.661,-134.646 779.528,-63.7795 779.5,42.51 L 726.3,42.51 C 726.378,-28.3465 673.228,-81.496 602.362,-81.496 C 496.063,-81.496 414.3,2.242 407.4,166.5 C 399.8,356.4 428.7,849.4 425.1,981.4 C 421.5,1113. 373.9,1231. 318.8,1318. z " transform="matrix(7.39739e-2,0,0,7.799929e-2,736.2217,168.4202)" font-size="12px" fill="#b95a1e" fill-rule="evenodd" stroke="#fdc301" stroke-width="11.02" stroke-dasharray="none" stroke-opacity="1"/>
      <path d="M 779.5,32.88 C 903.6,33.02 957.2,135.2 956.9,133.1 L 921.2,166.5 C 902.2,184.2 779.5,184.2 781.0,184.1 L 779.5,32.88 z " transform="matrix(-7.39739e-2,0,0,7.799929e-2,851.5511,168.4202)" font-size="12px" fill="#b95a1e" fill-rule="evenodd" stroke="#000000" stroke-width="4.375"/>
    </g>
  </g>
  <g transform="matrix(1.199999,0,0,1.199999,0,9.513979e-5)">
    <rect y="-1.1368684e-013" x="0" height="250" width="500" fill="#000066" fill-opacity="1" fill-rule="evenodd" stroke="none" stroke-width="0.25" stroke-linecap="butt" stroke-linejoin="round" stroke-miterlimit="4" stroke-dasharray="none" stroke-dashoffset="0" stroke-opacity="1"/>
    <g transform="matrix(8.333338,0,0,8.333343,0,-2.256992e-4)" font-size="12px">
      <path d="M 0,0 L 0,3.3541 L 53.2918,30 L 60,30 L 60,26.6459 L 6.7082,0 L 0,0 z M 60,0 L 60,3.35405 L 6.7082,30 L 0,30 L 0,26.6458 L 53.2918,0 L 60,0 z " font-size="12px" fill="#ffffff" stroke-width="1pt"/>
      <path d="M 25,0 L 25,30 L 35,30 L 35,0 L 25,0 z M 0,10 L 0,20 L 60,20 L 60,10 L 0,10 z " font-size="12px" fill="#ffffff" stroke-width="1pt"/>
      <path d="M 0,12 L 0,18 L 60,18 L 60,12 L 0,12 z M 27,0 L 27,30 L 33,30 L 33,0 L 27,0 z " font-size="12px" fill="#cc0000" stroke-width="1pt"/>
      <path d="M 0,30 L 20,20 L 24.4721,20 L 4.47214,30 L 0,30 z M 0,0 L 20,10 L 15.5279,10 L 0,2.23607 L 0,0 z M 35.5279,10 L 55.5279,0 L 60,0 L 40,10 L 35.5279,10 z M 60,30 L 40,20 L 44.4721,20 L 60,27.7639 L 60,30 z " font-size="12px" fill="#cc0000" stroke-width="1pt"/>
    </g>
  </g>
</svg>
