<?xml version="1.0" encoding="UTF-8" standalone="no"?>
<svg
   xmlns:svg="http://www.w3.org/2000/svg"
   xmlns="http://www.w3.org/2000/svg"
   width="1000"
   height="600"
   version="1.0">
<rect width="1000" height="600" fill="#002b7f"/>
<rect width="1000" height="300" y="300" fill="#ce1126"/>

  <g id="g18"
     transform="matrix(4.167382,0,0,4.167382,-5.460146,-5.458094)">
    <path
       id="path20"
       d="M 31.9236,40.6095 C 31.2071,40.9678 30.0062,41.4853 29.5883,41.9629 C 32.2155,43.3363 33.8276,51.4103 36.1563,53.8584 C 36.383008,57.761839 71.267544,57.940938 71.385,54.4555 C 71.439297,52.844273 73.5556,52.9134 74.1316,51.7089 C 75.4452,48.9623 77.6142,44.1828 79.4458,43.5287 C 80.2817,43.2301 79.8638,42.7524 79.1473,42.2748 C 78.4307,41.7971 77.7142,41.3194 76.7589,41.1403 C 77.7142,40.4238 77.7142,39.4684 77.0574,38.6325 C 78.5104,37.5975 78.2715,36.3635 77.2763,35.8062 C 78.7492,34.5722 78.0725,33.0994 76.9977,33.0596 C 77.9929,31.6266 77.555,30.0741 75.8035,30.1537 C 76.321,28.6411 75.0074,27.6061 73.7734,28.0838 C 73.5743,26.81 72.4996,25.7352 71.2258,26.8896 C 70.5093,25.2177 69.116,24.8993 68.3597,26.1731 C 67.5238,25.0187 66.1306,24.8196 65.5335,25.974 C 64.6179,25.2973 63.3043,25.5362 62.946,26.4517 C 62.1897,25.6954 60.8363,25.576 60.2392,26.6507 C 59.244,26.0536 58.1294,26.1731 57.7314,27.0886 C 57.539,26.7569 57.0547,26.6507 56.6964,26.7702 C 57.7778,25.3769 57.194,23.2274 55.6216,22.7895 C 55.8339,22.3782 55.9136,22.1659 56.0197,21.9536 C 56.1258,21.7413 56.0463,21.5821 55.9136,21.3432 C 55.8129,21.162 55.489,20.64 55.3032,20.3348 L 55.8074,19.8173 C 56.2718,20.0827 56.8026,20.3879 57.0149,20.494 C 57.2272,20.6002 57.4129,20.693 57.7579,20.4542 C 58.1029,20.2154 58.7796,19.7244 59.0848,19.5254 C 59.39,19.3264 59.2307,19.1671 58.9919,18.9814 C 58.7531,18.7956 58.0233,18.2914 57.7579,18.1189 C 57.4926,17.9464 57.3068,17.9862 56.9883,18.1454 C 56.6698,18.3047 56.1922,18.5435 55.7941,18.7425 C 55.6482,18.5833 55.4359,18.3975 55.2103,18.3179 C 55.7676,17.2564 55.9799,16.8186 56.1126,16.5797 C 56.2453,16.3409 56.2984,16.1419 56.1524,15.8499 C 56.0064,15.558 55.3695,14.3108 55.197,14.0321 C 55.0246,13.7535 54.8576,13.8194 54.6265,14.1383 C 54.2417,14.669 53.764,15.3855 53.5782,15.6642 C 53.3925,15.9428 53.3229,16.0616 53.4986,16.4338 C 53.7242,16.9114 54.0825,17.7739 54.2682,18.1454 C 54.1488,18.2118 53.8834,18.4374 53.7905,18.6099 C 53.2731,18.3577 52.729,18.1056 52.4902,17.9862 C 52.2514,17.8668 52.0907,17.9038 51.84,18.0393 C 51.3491,18.3047 50.4468,18.8885 50.208,19.0212 C 49.9692,19.1539 50.1947,19.2733 50.4733,19.4856 C 50.752,19.6979 51.5349,20.2021 51.7472,20.3481 C 51.9595,20.494 52.1054,20.494 52.3973,20.3481 C 52.6892,20.2021 53.3527,19.9367 53.5384,19.8438 C 53.6579,20.0429 53.8967,20.2685 54.0692,20.3481 C 53.8436,20.7063 53.618,21.1044 53.4456,21.4096 C 53.2731,21.7148 53.2863,21.7944 53.4058,22.0199 C 53.5252,22.2455 53.5915,22.4446 53.7508,22.7497 C 51.5946,23.3335 51.7007,25.7153 52.3575,26.9891 C 52.0789,26.9294 51.641,27.0289 51.442,27.2876 C 50.7454,26.4119 49.5512,26.1731 48.9938,26.8697 C 48.3769,25.9077 47.1031,25.5892 46.2539,26.3323 C 45.5373,25.1116 44.3432,25.0054 43.5736,25.9342 C 43.1224,25.0585 41.5302,24.7666 40.8933,25.8546 C 39.991,24.8993 38.7968,25.2443 38.1864,26.2527 C 37.1515,25.4565 35.7715,25.6954 35.4531,27.4734 C 33.9404,27.208 32.7993,28.1103 33.2504,29.7026 C 31.3663,29.8087 31.2071,31.2683 32.242,32.4094 C 30.3313,32.834 30.4374,34.4528 31.6316,35.3816 C 30.0925,36.0185 30.5702,37.6373 31.6582,38.1415 C 30.8886,38.7784 30.882,39.9594 31.9236,40.6095 z "
       fill="#000" />
    <g id="g22">
      <path
         id="path24"
         d="M 32.169,35.8043 C 30.8494,35.8043 30.8494,37.77 32.169,37.77 C 33.4887,37.77 33.4887,35.8043 32.169,35.8043 z "
         fill="#ffd83d" />
      <path
         id="path26"
         d="M 32.6467,38.2988 C 31.327,38.2988 31.327,40.2645 32.6467,40.2645 C 33.9664,40.2645 33.9664,38.2988 32.6467,38.2988 z "
         fill="#ffd83d" />
      <path
         id="path28"
         d="M 32.1956,32.9647 C 30.8759,32.9647 30.8759,34.9305 32.1956,34.9305 C 33.5152,34.9305 33.5152,32.9647 32.1956,32.9647 z "
         fill="#ffd83d" />
      <path
         id="path30"
         d="M 33.0182,30.2048 C 31.6986,30.2048 31.6986,32.1706 33.0182,32.1706 C 34.3379,32.1706 34.3379,30.2048 33.0182,30.2048 z "
         fill="#ffd83d" />
      <path
         id="path32"
         d="M 34.584,27.9226 C 33.2643,27.9226 33.2643,29.8884 34.584,29.8884 C 35.9036,29.8884 35.9036,27.9226 34.584,27.9226 z "
         fill="#ffd83d" />
      <path
         id="path34"
         d="M 36.9723,26.2906 C 35.5993,26.2906 35.5993,28.3358 36.9723,28.3358 C 38.3453,28.3358 38.3453,26.2906 36.9723,26.2906 z "
         fill="#ffd83d" />
      <path
         id="path36"
         d="M 39.5199,25.7467 C 38.1469,25.7467 38.1469,27.7919 39.5199,27.7919 C 40.893,27.7919 40.893,25.7467 39.5199,25.7467 z "
         fill="#ffd83d" />
      <path
         id="path38"
         d="M 42.1206,25.5874 C 40.7476,25.5874 40.7476,27.6326 42.1206,27.6326 C 43.4936,27.6326 43.4936,25.5874 42.1206,25.5874 z "
         fill="#ffd83d" />
      <path
         id="path40"
         d="M 44.7744,25.9324 C 43.4014,25.9324 43.4014,27.9776 44.7744,27.9776 C 46.1474,27.9776 46.1474,25.9324 44.7744,25.9324 z "
         fill="#ffd83d" />
      <path
         id="path42"
         d="M 47.4282,26.3836 C 46.0552,26.3836 46.0552,28.4288 47.4282,28.4288 C 48.8012,28.4288 48.8012,26.3836 47.4282,26.3836 z "
         fill="#ffd83d" />
      <path
         id="path44"
         d="M 49.9492,26.9409 C 48.5762,26.9409 48.5762,28.9861 49.9492,28.9861 C 51.3222,28.9861 51.3222,26.9409 49.9492,26.9409 z "
         fill="#ffd83d" />
      <path
         id="path46"
         d="M 52.3907,27.392 C 51.0177,27.392 51.0177,29.4372 52.3907,29.4372 C 53.7637,29.4372 53.7637,27.392 52.3907,27.392 z "
         fill="#ffd83d" />
      <path
         id="path48"
         d="M 56.796,27.193 C 55.4229,27.193 55.4229,29.2382 56.796,29.2382 C 58.169,29.2382 58.169,27.193 56.796,27.193 z "
         fill="#ffd83d" />
      <path
         id="path50"
         d="M 59.1445,26.7153 C 57.7715,26.7153 57.7715,28.7605 59.1445,28.7605 C 60.5175,28.7605 60.5175,26.7153 59.1445,26.7153 z "
         fill="#ffd83d" />
      <path
         id="path52"
         d="M 61.6125,26.2774 C 60.2395,26.2774 60.2395,28.3226 61.6125,28.3226 C 62.9855,28.3226 62.9855,26.2774 61.6125,26.2774 z "
         fill="#ffd83d" />
      <path
         id="path54"
         d="M 54.7011,18.5616 C 53.6737,18.5616 53.6737,20.092 54.7011,20.092 C 55.7286,20.092 55.7286,18.5616 54.7011,18.5616 z "
         fill="#ffd83d" />
      <path
         id="path56"
         d="M 64.2796,25.9988 C 62.9065,25.9988 62.9065,28.044 64.2796,28.044 C 65.6525,28.044 65.6525,25.9988 64.2796,25.9988 z "
         fill="#ffd83d" />
      <path
         id="path58"
         d="M 66.8669,25.7201 C 65.4939,25.7201 65.4939,27.7653 66.8669,27.7653 C 68.24,27.7653 68.24,25.7201 66.8669,25.7201 z "
         fill="#ffd83d" />
      <path
         id="path60"
         d="M 69.6136,25.959 C 68.2406,25.959 68.2406,28.0042 69.6136,28.0042 C 70.9866,28.0042 70.9866,25.959 69.6136,25.959 z "
         fill="#ffd83d" />
      <path
         id="path62"
         d="M 72.2806,26.8347 C 70.9076,26.8347 70.9076,28.8799 72.2806,28.8799 C 73.6536,28.8799 73.6536,26.8347 72.2806,26.8347 z "
         fill="#ffd83d" />
      <path
         id="path64"
         d="M 74.47,28.4668 C 73.097,28.4668 73.097,30.512 74.47,30.512 C 75.843,30.512 75.843,28.4668 74.47,28.4668 z "
         fill="#ffd83d" />
      <path
         id="path66"
         d="M 76.1021,30.6163 C 74.7291,30.6163 74.7291,32.6615 76.1021,32.6615 C 77.4751,32.6615 77.4751,30.6163 76.1021,30.6163 z "
         fill="#ffd83d" />
      <path
         id="path68"
         d="M 76.739,33.5191 C 75.444,33.5191 75.444,35.448 76.739,35.448 C 78.0339,35.448 78.0339,33.5191 76.739,33.5191 z "
         fill="#ffd83d" />
      <path
         id="path70"
         d="M 76.6593,36.1463 C 75.3644,36.1463 75.3644,38.0752 76.6593,38.0752 C 77.9543,38.0752 77.9543,36.1463 76.6593,36.1463 z "
         fill="#ffd83d" />
      <path
         id="path72"
         d="M 76.0622,38.8133 C 74.7673,38.8133 74.7673,40.7422 76.0622,40.7422 C 77.3572,40.7422 77.3572,38.8133 76.0622,38.8133 z "
         fill="#ffd83d" />
      <path
         id="path74"
         d="M 54.4606,30.0169 C 53.5493,30.0169 53.5493,31.3744 54.4606,31.3744 C 55.372,31.3744 55.372,30.0169 54.4606,30.0169 z "
         fill="#ffd83d" />
      <path
         id="path76"
         d="M 54.5668,28.0797 C 53.7289,28.0797 53.7289,29.4372 54.5668,29.4372 C 55.4046,29.4372 55.4046,28.0797 54.5668,28.0797 z "
         fill="#ffd83d" />
      <path
         id="path78"
         d="M 54.4076,31.9533 C 53.3353,31.9533 53.3353,33.5505 54.4076,33.5505 C 55.4798,33.5505 55.4798,31.9533 54.4076,31.9533 z "
         fill="#ffd83d" />
      <path
         id="path80"
         d="M 54.4606,34.0628 C 53.2368,34.0628 53.2368,35.8858 54.4606,35.8858 C 55.6845,35.8858 55.6845,34.0628 54.4606,34.0628 z "
         fill="#ffd83d" />
      <path
         id="path82"
         d="M 54.4341,36.345 C 53.2102,36.345 53.2102,38.1681 54.4341,38.1681 C 55.6579,38.1681 55.6579,36.345 54.4341,36.345 z "
         fill="#ffd83d" />
      <path
         id="path84"
         d="M 36.7898,53.5353 C 37.0779,53.4541 37.2709,53.5599 37.1249,52.9761 C 36.979,52.3922 37.1806,52.1081 37.4434,52.8964 C 37.6159,53.4139 37.5977,53.3089 37.8698,53.2437 C 38.1419,53.1785 38.213,53.268 38.1466,52.8168 C 38.0803,52.3657 38.2607,52.1285 38.4385,52.6974 C 38.5712,53.122 38.5846,53.0695 38.8224,53.0147 C 39.0602,52.9598 39.2479,53.0822 39.1285,52.578 C 39.0091,52.0738 39.2046,52.0484 39.3541,52.5117 C 39.4868,52.923 39.4869,52.8705 39.7513,52.8136 C 40.0158,52.7566 40.1502,52.8434 40.0839,52.3789 C 40.0175,51.9145 40.145,51.7837 40.336,52.3126 C 40.5085,52.7903 40.5638,52.6585 40.8654,52.5983 C 41.167,52.5381 41.3444,52.5912 41.2648,52.1401 C 41.1852,51.689 41.3236,51.3552 41.5833,52.087 C 41.7292,52.4984 41.7501,52.4538 42.1529,52.3812 C 42.5558,52.3086 42.6846,52.3789 42.6182,51.9809 C 42.5519,51.5828 42.7683,51.4358 42.8969,51.9145 C 42.9888,52.2569 43.0313,52.2663 43.4029,52.1999 C 43.7744,52.1336 43.892,52.233 43.8655,51.6757 C 43.8389,51.1184 44.0301,50.7957 44.1309,51.6624 C 44.1972,52.233 44.2237,52.09 44.6076,52.0506 C 44.9915,52.0113 45.1393,52.034 45.0995,51.5961 C 45.0597,51.1582 45.2602,50.9473 45.3383,51.5563 C 45.4047,52.0738 45.4503,51.9438 45.7622,51.9294 C 46.074,51.9151 46.2273,52.0207 46.2008,51.4767 C 46.1743,50.9327 46.4654,50.7326 46.5192,51.4501 C 46.5591,51.9809 46.6511,51.8487 46.943,51.8266 C 47.3146,51.7985 47.3552,51.9145 47.3552,51.4501 C 47.3552,50.7602 47.645,50.7438 47.6736,51.3307 C 47.7002,51.8747 47.7933,51.7637 48.0974,51.7459 C 48.522,51.721 48.6422,51.8217 48.6157,51.2909 C 48.5932,50.8402 48.8554,50.8335 48.9342,51.2644 C 49.0129,51.6953 48.8943,51.7075 49.3446,51.6798 C 49.7949,51.6522 49.717,51.7022 49.7303,51.2113 C 49.7436,50.7204 50.0487,50.6806 50.062,51.198 C 50.0753,51.7155 50.0222,51.648 50.4991,51.6379 C 50.9759,51.6279 50.9908,51.7288 50.9643,51.2113 C 50.9378,50.6938 51.2961,50.4806 51.3358,51.1715 C 51.3615,51.6184 51.2297,51.6133 51.8392,51.6119 C 52.4487,51.6105 52.4239,51.7155 52.4504,51.1582 C 52.477,50.6009 52.7954,50.455 52.8086,51.1052 C 52.8219,51.7553 52.9811,51.6069 53.2324,51.6103 C 53.4837,51.6136 53.7508,51.6053 53.9622,51.6197 C 54.1737,51.634 54.1488,51.6492 54.1488,51.1715 C 54.1488,50.6938 54.4552,50.5079 54.454,51.1848 C 54.4532,51.63 54.3213,51.6046 54.8645,51.641 C 55.4077,51.6775 55.29,51.7155 55.3032,51.2246 C 55.3165,50.7336 55.593,50.6396 55.6084,51.2379 C 55.6216,51.7553 55.6349,51.6631 55.9128,51.6794 C 56.1906,51.6957 56.3069,51.7556 56.2851,51.3307 C 56.2586,50.8132 56.7229,50.4412 56.6964,51.344 C 56.6831,51.7951 56.6168,51.7151 57.0539,51.7377 C 57.491,51.7603 57.3915,51.8071 57.4262,51.344 C 57.466,50.8132 57.8556,50.5755 57.7977,51.3573 C 57.7712,51.7155 57.7148,51.7439 58.1526,51.8103 C 58.5905,51.8766 58.6302,51.8659 58.6469,51.3971 C 58.6735,50.654 59.0052,50.8 58.9919,51.3705 C 58.9787,51.9411 58.8989,51.858 59.3628,51.9091 C 59.8265,51.9601 59.9175,52.0628 59.9605,51.5032 C 60.0136,50.8132 60.3188,50.8663 60.2923,51.5165 C 60.2657,52.1667 60.3453,52.0066 60.5966,52.0305 C 60.8479,52.0545 60.969,52.2065 61.0088,51.6757 C 61.0486,51.145 61.4424,50.9253 61.3405,51.6624 C 61.2791,52.1068 61.3538,52.1005 61.6715,52.1537 C 61.9891,52.2068 62.1234,52.3391 62.1897,51.8217 C 62.256,51.3042 62.6017,51.2114 62.5214,51.8217 C 62.4551,52.3259 62.495,52.2432 62.7919,52.2996 C 63.0888,52.3559 63.2023,52.5122 63.2645,51.9942 C 63.3441,51.3307 63.7141,51.3438 63.636,52.0207 C 63.5962,52.3657 63.6361,52.4123 63.8475,52.4538 C 64.059,52.4953 64.2728,52.5298 64.4049,52.5419 C 64.5371,52.5541 64.5914,52.5912 64.6444,52.1268 C 64.6975,51.6624 65.0425,51.5298 65.0027,52.1667 C 64.9629,52.8035 65.0193,52.6484 65.2941,52.6923 C 65.5689,52.7362 65.6131,52.7903 65.6927,52.3259 C 65.7723,51.8615 66.0775,51.7553 65.9979,52.3391 C 65.9182,52.923 65.9707,52.788 66.2494,52.8676 C 66.528,52.9472 66.5551,52.9761 66.6613,52.5382 C 66.7674,52.1003 67.2021,51.9602 67.0328,52.5912 C 66.8869,53.1353 66.9127,52.9673 67.2178,53.0602 C 67.523,53.1531 67.6565,53.2547 67.7626,52.8168 C 67.8687,52.3789 68.1813,52.2131 68.0412,52.8434 C 67.9351,53.321 68.0546,53.2412 68.3457,53.304 C 68.6368,53.3669 68.7047,53.5466 68.8241,53.0291 C 68.9435,52.5117 69.3018,52.5382 69.1426,53.0557 C 68.9833,53.5732 68.9833,53.4516 69.3672,53.5436 C 69.7512,53.6357 69.7396,53.7589 69.8856,53.2414 C 70.0316,52.724 70.4164,52.7638 70.2571,53.321 C 70.0979,53.8783 70.1581,53.7327 70.4528,53.8187 C 70.7476,53.9046 70.7746,54.011 70.9471,53.4936 C 71.1196,52.9761 71.335,53.0166 71.1992,53.5599 C 71.1064,53.9314 71.0135,54.011 71.5442,54.011 C 72.075,54.011 72.3882,53.8037 73.0967,52.6443 C 74.8482,49.7783 75.9229,45.174 78.9482,43.3429 C 79.4984,43.0099 79.1654,42.5864 78.1521,42.2283 C 74.6226,40.9811 71.1461,41.1668 69.3416,45.8374 C 69.0677,46.5463 68.7762,46.3555 68.9435,45.7313 C 69.6335,43.1571 69.3161,40.0686 67.1124,39.4419 C 64.2198,38.6192 60.8761,41.2199 59.8677,44.2983 C 59.7047,44.7956 59.4877,44.5851 59.39,43.9267 C 58.7796,39.8134 56.8159,38.5927 54.4673,38.6325 C 52.1187,38.6723 49.4514,39.5111 49.1332,43.6481 C 49.0934,44.1656 48.866,43.7468 48.5759,43.4093 C 45.2919,39.5878 43.7394,38.3937 41.8287,38.9111 C 40.041,39.3953 38.8612,42.1844 39.1816,44.285 C 39.23,44.6023 39.0089,44.9159 38.8233,44.3248 C 37.6822,40.6892 33.5954,39.4949 30.5702,41.6976 C 30.3109,41.8863 30.0902,41.8066 30.7824,42.4672 C 32.8126,44.4044 33.5931,49.3766 36.1961,53.2812 C 36.3819,53.5599 36.4564,53.6292 36.7898,53.5353 z "
         fill="#ffd83d" />
      <path
         id="path86"
         d="M 36.2757,32.2042 C 35.3076,33.4591 35.4875,36.8793 36.2757,38.5445 L 36.2757,32.2042 z "
         fill="#ffd83d" />
      <path
         id="path88"
         d="M 36.6543,39.112 C 36.8963,39.5003 37.1955,39.8229 37.5097,40.0288 L 37.5097,31.0755 C 37.1791,31.2998 36.8722,31.5551 36.6543,31.8703 L 36.6543,39.112 z "
         fill="#ffd83d" />
      <path
         id="path90"
         d="M 37.8746,40.2343 C 38.232,40.3165 38.5334,40.3057 38.8631,40.1859 L 38.8631,30.374 C 38.5447,30.4967 38.2386,30.6396 37.8746,30.8039 L 37.8746,40.2343 z "
         fill="#ffd83d" />
      <path
         id="path92"
         d="M 39.2214,40.0189 C 39.4809,39.8727 39.7579,39.6652 40.0573,39.3888 C 40.0837,39.3645 40.1104,39.3412 40.137,39.3175 L 40.137,30.0021 C 39.8239,30.0673 39.518,30.1481 39.2214,30.2457 L 39.2214,40.0189 z "
         fill="#ffd83d" />
      <path
         id="path94"
         d="M 40.4952,39.0214 C 40.7622,38.8196 41.0403,38.6513 41.3312,38.5239 L 41.3312,29.8323 C 41.0486,29.8551 40.7694,29.8887 40.4952,29.9345 L 40.4952,39.0214 z "
         fill="#ffd83d" />
      <path
         id="path96"
         d="M 41.6894,38.3912 C 41.9198,38.3206 42.1584,38.2766 42.4059,38.2625 L 42.4059,29.7987 C 42.1655,29.7946 41.9265,29.798 41.6894,29.809 L 41.6894,38.3912 z "
         fill="#ffd83d" />
      <path
         id="path98"
         d="M 42.7642,38.263 C 43.0075,38.2776 43.2592,38.3203 43.5205,38.3959 L 43.5205,29.8702 C 43.2679,29.8425 43.0156,29.8226 42.7642,29.8106 L 42.7642,38.263 z "
         fill="#ffd83d" />
      <path
         id="path100"
         d="M 43.8389,38.5034 C 44.1446,38.6192 44.4624,38.7769 44.7943,38.984 L 44.7943,30.075 C 44.4773,30.0077 44.1583,29.9522 43.8389,29.9089 L 43.8389,38.5034 z "
         fill="#ffd83d" />
      <path
         id="path102"
         d="M 45.1526,39.2239 C 45.4347,39.4236 45.7262,39.6558 45.9678,39.9261 L 45.9678,30.4006 C 45.7397,30.3094 45.4473,30.2282 45.1526,30.157 L 45.1526,39.2239 z "
         fill="#ffd83d" />
      <path
         id="path104"
         d="M 46.3509,40.2255 C 46.6314,40.4822 46.9194,40.6884 47.1827,40.8132 L 47.1827,30.8261 C 46.8963,30.7047 46.6039,30.5933 46.3509,30.5361 L 46.3509,40.2255 z "
         fill="#ffd83d" />
      <path
         id="path106"
         d="M 47.541,40.9373 C 47.8539,41.0047 48.1369,40.9515 48.4167,40.8101 L 48.4167,31.4331 C 48.1338,31.2727 47.8412,31.1232 47.541,30.9845 L 47.541,40.9373 z "
         fill="#ffd83d" />
      <path
         id="path108"
         d="M 48.755,40.5226 C 49.128,40.3068 49.412,40.0254 49.7303,39.7072 L 49.7303,32.3121 C 49.4536,32.0939 49.1609,31.8879 48.755,31.6951 L 48.755,40.5226 z "
         fill="#ffd83d" />
      <path
         id="path110"
         d="M 50.0487,39.2994 C 50.7188,38.0354 51.9661,34.612 50.0487,32.5864 L 50.0487,39.2994 z "
         fill="#ffd83d" />
      <path
         id="path112"
         d="M 58.5474,32.3162 L 58.5474,39.8227 C 58.8336,40.2369 59.169,40.5579 59.5426,40.782 L 59.5426,31.6609 C 59.1522,31.8481 58.822,32.0621 58.5474,32.3162 z "
         fill="#ffd83d" />
      <path
         id="path114"
         d="M 66.0708,38.6065 C 66.2971,38.6189 66.5617,38.6651 66.8682,38.7901 L 66.8682,30.1814 C 66.5682,30.1423 66.3027,30.1532 66.0708,30.1722 L 66.0708,38.6065 z "
         fill="#ffd83d" />
      <path
         id="path116"
         d="M 67.265,38.9218 C 67.5537,39.0585 67.8447,39.242 68.1408,39.4767 L 68.1408,30.2142 C 67.8576,30.1784 67.5658,30.1558 67.265,30.146 L 67.265,38.9218 z "
         fill="#ffd83d" />
      <path
         id="path118"
         d="M 69.3748,30.4729 C 69.0806,30.3836 68.7754,30.3134 68.4999,30.2607 L 68.4999,39.7471 C 68.7857,40.0429 69.0859,40.3252 69.3748,40.55 L 69.3748,30.4729 z "
         fill="#ffd83d" />
      <path
         id="path120"
         d="M 69.7728,40.8224 C 70.0771,40.9965 70.3761,41.0779 70.6884,41.0109 L 70.6884,31.0408 C 70.3964,30.8714 70.0913,30.7275 69.7728,30.6078 L 69.7728,40.8224 z "
         fill="#ffd83d" />
      <path
         id="path122"
         d="M 59.9008,40.9612 C 60.2215,41.0883 60.5224,41.1091 60.8164,41.0077 L 60.8164,31.1857 C 60.4848,31.2851 60.18,31.3898 59.9008,31.5036 L 59.9008,40.9612 z "
         fill="#ffd83d" />
      <path
         id="path124"
         d="M 62.0106,30.8698 C 61.7165,30.94 61.438,31.0105 61.1747,31.083 L 61.1747,40.8218 C 61.4621,40.6198 61.7402,40.4269 62.0106,40.2448 L 62.0106,30.8698 z "
         fill="#ffd83d" />
      <path
         id="path126"
         d="M 62.3688,40.007 C 62.6698,39.8108 62.961,39.6304 63.2446,39.4687 L 63.2446,30.5916 C 62.939,30.6577 62.6482,30.7221 62.3688,30.7861 L 62.3688,40.007 z "
         fill="#ffd83d" />
      <path
         id="path128"
         d="M 63.5896,39.2521 C 63.8888,39.0974 64.1799,38.9666 64.4653,38.8639 L 64.4653,30.3504 C 64.1796,30.3963 63.8879,30.4489 63.5896,30.5088 L 63.5896,39.2521 z "
         fill="#ffd83d" />
      <path
         id="path130"
         d="M 64.8368,38.7605 C 65.1332,38.675 65.4242,38.6225 65.7126,38.6075 L 65.7126,30.1979 C 65.4276,30.224 65.1357,30.2589 64.8368,30.3019 L 64.8368,38.7605 z "
         fill="#ffd83d" />
      <path
         id="path132"
         d="M 58.229,32.6599 C 57.7859,33.2274 57.5534,33.9739 57.5125,35.0101 C 57.4408,36.8247 57.7158,38.2565 58.229,39.2814 L 58.229,32.6599 z "
         fill="#ffd83d" />
      <path
         id="path134"
         d="M 71.0466,31.2665 L 71.0466,40.8691 C 71.332,40.7051 71.6329,40.411 71.9622,39.9461 L 71.9622,32.0246 C 71.6735,31.736 71.3682,31.4847 71.0466,31.2665 z "
         fill="#ffd83d" />
      <path
         id="path136"
         d="M 72.3196,39.207 C 73.3408,37.33 73.6915,34.4173 72.3196,32.5533 L 72.3196,39.207 z "
         fill="#ffd83d" />
      <path
         id="path138"
         d="M 57.0746,29.8353 C 67.3446,27.5663 71.186,27.5862 73.7535,30.7508 C 76.321,33.9154 75.1865,38.0951 74.2312,41.0209 C 73.7137,41.1005 72.5991,41.3791 72.0816,41.6578 C 74.2909,36.4829 74.47,33.9154 71.9025,31.2285 C 69.335,28.5416 62.8863,29.2382 57.194,31.1091 C 57.1144,30.6845 57.0281,30.24 57.0746,29.8353 z "
         fill="#ffd83d" />
      <path
         id="path140"
         d="M 56.6765,29.7954 C 56.7164,32.7411 56.7562,36.4829 57.5523,38.9509 C 57.0878,38.6458 56.6633,38.5131 56.2387,38.4334 C 55.761,33.6832 55.4823,30.5518 55.5221,29.8353 C 55.9202,29.7556 56.2784,29.7556 56.6765,29.7954 z "
         fill="#ffd83d" />
      <path
         id="path142"
         d="M 52.258,29.8751 C 52.1386,32.7411 51.7007,36.9208 50.8515,38.9642 C 51.5282,38.6856 51.9794,38.314 52.4968,38.2344 C 53.0143,36.4033 53.3328,31.6266 53.5318,29.9945 C 53.0939,29.8751 52.8551,29.8353 52.258,29.8751 z "
         fill="#ffd83d" />
      <path
         id="path144"
         d="M 51.6609,30.0343 C 42.2865,27.1085 37.3903,27.825 35.599,29.9149 C 33.8077,32.0047 32.7329,34.5722 34.4645,40.0058 C 35.2209,40.1451 36.0568,40.2247 36.6937,40.7024 C 33.8276,34.7315 34.7984,32.0715 37.4102,30.3926 C 40.754,28.243 46.8443,29.7556 51.4818,31.0494 C 51.6609,30.6712 51.6609,30.2731 51.6609,30.0343 z "
         fill="#ffd83d" />
      <path
         id="path146"
         d="M 53.7508,23.1677 C 53.2707,23.2986 52.8352,23.7847 52.6959,24.2027 C 52.6561,24.3221 52.6461,24.332 52.9845,24.342 C 53.3228,24.3519 53.4621,24.332 53.6512,24.332 C 53.8503,24.332 53.8105,24.2425 53.8105,24.0733 C 53.8105,23.9041 53.8503,23.3966 53.8602,23.2672 C 53.8702,23.1378 53.8602,23.1378 53.7508,23.1677 z "
         fill="#ffd83d" />
      <path
         id="path148"
         d="M 54.2583,23.108 C 54.2583,23.5861 54.1886,24.2723 54.1787,24.4813 C 54.1687,24.6903 54.1787,24.7002 53.8602,24.7102 C 53.5418,24.7201 52.676,24.8097 52.5167,24.8196 C 52.3575,24.8296 52.3675,24.8993 52.3575,25.0286 C 52.3476,25.158 52.3575,25.4267 52.3774,25.5859 C 52.3973,25.7451 52.5104,25.7142 52.8253,25.6655 C 53.9199,25.4964 55.3331,25.5262 56.4278,25.7451 C 56.6444,25.7885 56.7263,25.6755 56.7362,25.4864 C 56.7461,25.2973 56.786,25.1182 56.7562,24.949 C 56.7263,24.7799 56.6964,24.7799 56.4775,24.75 C 56.2586,24.7201 55.5918,24.6704 55.3729,24.6803 C 55.1539,24.6903 55.0544,24.6107 55.0445,24.3718 C 55.0345,24.133 55.0544,23.5757 55.0345,23.307 C 55.0146,23.0383 55.0445,23.0184 54.8753,22.9886 C 54.7061,22.9587 54.5469,22.9388 54.3777,22.9587 C 54.2085,22.9786 54.2583,23.0284 54.2583,23.108 z "
         fill="#ffd83d" />
      <path
         id="path150"
         d="M 55.4127,23.4762 C 55.4127,23.6255 55.4226,23.9837 55.4226,24.0932 C 55.4226,24.2027 55.4525,24.3121 55.6216,24.3022 C 55.7908,24.2922 56.2187,24.342 56.3779,24.3519 C 56.5372,24.3619 56.6985,24.4133 56.5273,24.133 C 56.3083,23.7747 55.9799,23.4762 55.6913,23.3468 C 55.4027,23.2174 55.4127,23.317 55.4127,23.4762 z "
         fill="#ffd83d" />
      <path
         id="path152"
         d="M 52.7058,26.0636 C 52.548,26.1003 52.471,26.1001 52.6063,26.402 C 52.865,26.9791 53.3626,27.7653 54.4175,27.7653 C 55.4724,27.7653 56.1668,27.0963 56.4676,26.3821 C 56.5471,26.193 56.422,26.1213 56.0098,26.0536 C 55.343,25.9442 53.5617,25.8646 52.7058,26.0636 z "
         fill="#ffd83d" />
      <path
         id="path154"
         d="M 54.1555,22.6303 C 53.9829,22.4047 53.8503,22.1527 53.7707,21.9934 C 53.691,21.8342 53.7308,21.7015 53.8901,21.383 C 54.0493,21.0646 54.1687,20.7594 54.2483,20.6267 C 54.3279,20.494 54.3578,20.431 54.4573,20.441 C 54.5568,20.4509 54.6762,20.4609 54.7658,20.4509 C 54.8554,20.441 54.9151,20.4509 55.0445,20.6798 C 55.1738,20.9087 55.4724,21.4361 55.5818,21.6352 C 55.6913,21.8342 55.6814,21.8839 55.5719,22.0431 C 55.4624,22.2024 55.2634,22.4711 55.1241,22.6601 C 54.7857,22.6004 54.5004,22.6004 54.1555,22.6303 z "
         fill="#ffd83d" />
      <path
         id="path156"
         d="M 53.3726,19.4989 C 53.0939,19.6448 52.4836,19.8837 52.2846,19.95 C 52.0855,20.0163 51.9926,20.096 51.6609,19.8704 C 51.3292,19.6448 51.0638,19.4591 50.8913,19.3396 C 50.7188,19.2202 50.5994,19.1406 50.9709,18.9416 C 51.3425,18.7425 51.5946,18.5833 51.8334,18.4639 C 52.0722,18.3445 52.2447,18.2914 52.5765,18.4374 C 52.9082,18.5833 53.1603,18.6895 53.4389,18.8089 C 53.3858,18.9947 53.3195,19.2998 53.3726,19.4989 z "
         fill="#ffd83d" />
      <path
         id="path158"
         d="M 54.726,18.0924 C 54.4606,17.5085 54.036,16.6726 53.9166,16.3807 C 53.7972,16.0888 53.7574,16.0357 53.9962,15.7305 C 54.2351,15.4253 54.527,14.8548 54.6729,14.6558 C 54.8189,14.4567 54.8681,14.3052 55.0445,14.616 C 55.3231,15.1069 55.5089,15.4784 55.6681,15.8101 C 55.8273,16.1419 55.8764,16.2664 55.7344,16.5134 C 55.4293,17.0441 55.0179,17.8535 54.8985,18.0924 L 54.726,18.0924 z "
         fill="#ffd83d" />
      <path
         id="path160"
         d="M 55.9334,19.0477 C 55.96,19.1804 55.9202,19.4458 55.8671,19.5785 C 56.2387,19.751 56.8092,20.0031 57.0215,20.0827 C 57.2338,20.1623 57.4063,20.2552 57.7115,20.0562 C 58.0167,19.8571 58.4943,19.5387 58.6536,19.4458 C 58.8128,19.3529 58.7433,19.2545 58.5076,19.0743 C 58.282,18.9018 58.0299,18.716 57.738,18.5037 C 57.5446,18.363 57.4594,18.3312 57.1675,18.4639 C 56.8755,18.5966 56.2917,18.915 55.9334,19.0477 z "
         fill="#ffd83d" />
    </g>
    <g
       id="g162">
      <path
         id="path164"
         d="M 32.8126,43.4889 C 32.5577,43.2849 32.2951,43.1107 32.0761,42.9515 C 31.8572,42.7923 31.9567,42.5136 32.3548,42.7126 C 32.7529,42.9117 32.9121,43.1107 33.0713,43.3097 C 33.2305,43.5088 33.1111,43.7277 32.8126,43.4889 z "
         fill="#000" />
      <path
         id="path166"
         d="M 33.8077,43.4491 C 33.5567,43.2231 33.4097,43.0709 33.1907,42.7923 C 32.9718,42.5136 33.18,42.0297 33.5291,42.5534 C 33.7281,42.852 33.8675,43.0311 33.967,43.2102 C 34.0665,43.3893 34.0068,43.6282 33.8077,43.4491 z "
         fill="#000" />
      <path
         id="path168"
         d="M 34.3451,42.8785 C 34.4876,43.1919 34.6768,43.5419 34.7963,43.7808 C 34.9157,44.0196 35.2739,44.0992 35.128,43.7277 C 34.982,43.3562 34.9555,43.1704 34.8228,42.8254 C 34.6901,42.4804 34.1461,42.4406 34.3451,42.8785 z "
         fill="#000" />
      <path
         id="path170"
         d="M 35.5658,43.2102 C 35.6615,43.529 35.8578,43.8737 35.9241,44.0727 C 35.9905,44.2717 36.2027,44.1788 36.1629,43.9002 C 36.1231,43.6216 36.1099,43.4623 36.0568,43.1571 C 36.0037,42.852 35.4464,42.8122 35.5658,43.2102 z "
         fill="#000" />
      <path
         id="path172"
         d="M 36.6406,43.7144 C 36.6961,43.9823 36.7733,44.2054 36.8397,44.4575 C 36.906,44.7096 37.0785,44.6698 37.0785,44.4309 C 37.0785,44.1921 37.0387,43.9267 36.9989,43.6746 C 36.9591,43.4225 36.561,43.3296 36.6406,43.7144 z "
         fill="#000" />
      <path
         id="path174"
         d="M 40.7009,45.2801 C 40.5246,44.9954 40.263,44.6565 40.1436,44.4442 C 40.0242,44.2319 39.5332,44.3779 39.8119,44.7362 C 40.0905,45.0944 40.3957,45.3465 40.5019,45.4792 C 40.608,45.6119 40.8734,45.5588 40.7009,45.2801 z "
         fill="#000" />
      <path
         id="path176"
         d="M 40.8601,44.338 C 40.6198,44.0497 40.3824,43.7941 40.2099,43.5817 C 40.0375,43.3695 40.1303,42.7458 40.4488,43.25 C 40.7672,43.7542 40.9397,43.9665 41.0591,44.1656 C 41.1786,44.3646 41.0591,44.5769 40.8601,44.338 z "
         fill="#000" />
      <path
         id="path178"
         d="M 40.754,42.5202 C 40.9061,42.7978 41.1653,43.1439 41.2847,43.3429 C 41.4041,43.5419 41.6164,43.4093 41.4704,43.1571 C 41.3245,42.905 41.2714,42.6131 41.0989,42.2549 C 40.9264,41.8966 40.5284,42.1089 40.754,42.5202 z "
         fill="#000" />
      <path
         id="path180"
         d="M 41.8553,42.4406 C 41.7272,42.1589 41.643,42.0691 41.5102,41.8037 C 41.3776,41.5384 41.7655,41.1395 41.8951,41.6578 C 41.9614,41.9231 42.0277,42.1354 42.0808,42.3212 C 42.1339,42.507 41.988,42.7325 41.8553,42.4406 z "
         fill="#000" />
      <path
         id="path182"
         d="M 42.8106,42.2283 C 42.6616,41.8854 42.5054,41.6843 42.3595,41.3658 C 42.2135,41.0474 42.5452,40.782 42.7443,41.2332 C 42.9433,41.6843 43.0096,41.9231 43.076,42.1354 C 43.1423,42.3478 42.9433,42.5335 42.8106,42.2283 z "
         fill="#000" />
      <path
         id="path184"
         d="M 43.766,42.2151 C 43.6455,41.8989 43.4741,41.6047 43.3546,41.3128 C 43.2352,41.0209 43.6067,40.8086 43.766,41.2862 C 43.9252,41.7639 43.9517,41.9099 44.0313,42.162 C 44.111,42.4141 43.8721,42.4937 43.766,42.2151 z "
         fill="#000" />
      <path
         id="path186"
         d="M 44.5223,41.6843 C 44.3731,41.2741 44.7744,41.0076 44.9336,41.5384 C 45.0929,42.0691 45.1592,42.4274 45.2123,42.6397 C 45.2654,42.852 45.0398,42.9183 44.9071,42.5866 C 44.7744,42.2549 44.6285,41.9762 44.5223,41.6843 z "
         fill="#000" />
      <path
         id="path188"
         d="M 45.7563,42.2151 C 45.8008,42.4556 45.9686,42.9316 46.0349,43.1571 C 46.1013,43.3827 46.3799,43.3296 46.3136,43.0245 C 46.2472,42.7193 46.2472,42.6264 46.1676,42.2814 C 46.088,41.9364 45.6899,41.8568 45.7563,42.2151 z "
         fill="#000" />
      <path
         id="path190"
         d="M 50.3473,43.9665 C 50.2923,43.678 50.2013,43.3827 50.1217,43.1041 C 50.0421,42.8254 50.4004,42.6529 50.4933,43.0377 C 50.5861,43.4225 50.6127,43.741 50.6657,43.9931 C 50.7188,44.2452 50.4004,44.2452 50.3473,43.9665 z "
         fill="#000" />
      <path
         id="path192"
         d="M 50.9842,42.7724 C 50.8944,42.4133 50.7719,42.162 50.6923,41.8833 C 50.6127,41.6047 51.0373,41.3128 51.1302,41.7639 C 51.223,42.2151 51.2628,42.507 51.2761,42.7193 C 51.2894,42.9316 51.0638,43.0908 50.9842,42.7724 z "
         fill="#000" />
      <path
         id="path194"
         d="M 51.8997,41.671 C 51.8997,41.3613 51.8334,41.0209 51.7671,40.7157 C 51.7007,40.4105 52.1784,40.1808 52.1784,40.7157 C 52.1784,41.0739 52.1518,41.472 52.1386,41.6578 C 52.1253,41.8435 51.8997,41.9364 51.8997,41.671 z "
         fill="#000" />
      <path
         id="path196"
         d="M 52.8551,41.1403 C 52.8294,40.7807 52.7622,40.4901 52.749,40.2513 C 52.7357,40.0124 53.1736,39.8001 53.2001,40.2115 C 53.2266,40.6228 53.2001,40.9413 53.1736,41.1536 C 53.147,41.3658 52.8816,41.5118 52.8551,41.1403 z "
         fill="#000" />
      <path
         id="path198"
         d="M 53.7707,41.2066 C 53.7238,40.8905 53.6771,40.4221 53.638,40.1717 C 53.5716,39.7471 54.1422,39.7073 54.1289,40.2247 C 54.1156,40.7422 54.1422,40.9147 54.0891,41.1933 C 54.036,41.472 53.8237,41.5649 53.7707,41.2066 z "
         fill="#000" />
      <path
         id="path200"
         d="M 54.7127,41.2464 C 54.697,40.9008 54.6597,40.4636 54.6995,40.1982 C 54.7393,39.9328 55.2302,39.8532 55.1506,40.2911 C 55.071,40.7289 54.9781,41.0341 54.9516,41.273 C 54.925,41.5118 54.726,41.5384 54.7127,41.2464 z "
         fill="#000" />
      <path
         id="path202"
         d="M 55.6681,41.2862 C 55.6836,40.9148 55.7079,40.7687 55.7212,40.4901 C 55.7344,40.2115 56.0529,40.0522 56.0396,40.5034 C 56.0263,40.9545 56.0131,41.1137 55.9998,41.326 C 55.9865,41.5384 55.6548,41.6047 55.6681,41.2862 z "
         fill="#000" />
      <path
         id="path204"
         d="M 56.3713,42.1885 C 56.43,41.895 56.5173,41.4057 56.5836,41.1137 C 56.65,40.8218 57.0348,40.8086 56.9817,41.2066 C 56.9286,41.6047 56.7826,42.0956 56.7164,42.3212 C 56.65,42.5468 56.2652,42.7193 56.3713,42.1885 z "
         fill="#000" />
      <path
         id="path206"
         d="M 57.1276,42.7193 C 57.194,42.5202 57.2604,42.3212 57.3002,42.2018 C 57.34,42.0824 57.6451,42.016 57.6053,42.2416 C 57.5655,42.4672 57.4461,42.706 57.3665,42.852 C 57.2869,42.9979 57.048,42.9581 57.1276,42.7193 z "
         fill="#000" />
      <path
         id="path208"
         d="M 61.1481,44.4973 C 61.1172,44.2191 61.1216,44.0727 61.095,43.8073 C 61.0685,43.5419 61.5462,43.197 61.5196,43.7277 C 61.4931,44.2585 61.4666,44.3513 61.44,44.5239 C 61.4135,44.6963 61.1747,44.7362 61.1481,44.4973 z "
         fill="#000" />
      <path
         id="path210"
         d="M 62.2362,43.5817 C 62.2825,43.211 62.3025,42.9316 62.3556,42.6131 C 62.4086,42.2947 62.9261,42.2681 62.8067,42.6264 C 62.6873,42.9847 62.5546,43.3827 62.5015,43.6083 C 62.4484,43.8339 62.1963,43.9002 62.2362,43.5817 z "
         fill="#000" />
      <path
         id="path212"
         d="M 63.2976,43.0643 C 63.3453,42.7625 63.3507,42.5202 63.364,42.1354 C 63.3773,41.7506 64.0539,41.4057 63.9478,41.8568 C 63.8417,42.3079 63.6825,42.7989 63.5896,43.0245 C 63.4967,43.25 63.2578,43.3164 63.2976,43.0643 z "
         fill="#000" />
      <path
         id="path214"
         d="M 64.2398,42.6529 C 64.3041,42.3179 64.3459,42.0028 64.452,41.6578 C 64.5582,41.3128 65.1155,41.2066 64.943,41.7241 C 64.7705,42.2416 64.598,42.507 64.5051,42.7193 C 64.4122,42.9316 64.1734,42.9979 64.2398,42.6529 z "
         fill="#000" />
      <path
         id="path216"
         d="M 65.4339,42.3212 C 65.4953,41.9376 65.5135,41.6843 65.5931,41.4587 C 65.6728,41.2332 66.2035,41.1668 66.0443,41.5782 C 65.8851,41.9895 65.8055,42.2549 65.6993,42.4539 C 65.5931,42.6529 65.3809,42.6529 65.4339,42.3212 z "
         fill="#000" />
      <path
         id="path218"
         d="M 66.2566,42.9183 C 66.3472,42.586 66.4556,42.1089 66.522,41.817 C 66.5883,41.5251 67.1058,41.3658 66.9333,41.9895 C 66.7608,42.6131 66.6547,42.7856 66.575,42.9979 C 66.4954,43.2102 66.177,43.2102 66.2566,42.9183 z "
         fill="#000" />
      <path
         id="path220"
         d="M 66.8802,43.595 C 67.01,43.2489 67.1456,42.905 67.2783,42.5998 C 67.411,42.2947 67.7825,42.3345 67.61,42.7325 C 67.4375,43.1306 67.2385,43.4889 67.1323,43.7144 C 67.0262,43.94 66.7608,43.9135 66.8802,43.595 z "
         fill="#000" />
      <path
         id="path222"
         d="M 67.1987,44.484 C 67.4349,44.1634 67.5039,44.0064 67.6498,43.8339 C 67.7958,43.6614 68.2071,43.7808 67.9948,44.0462 C 67.7825,44.3115 67.5569,44.5769 67.411,44.7229 C 67.265,44.8688 67.0129,44.7362 67.1987,44.484 z "
         fill="#000" />
      <path
         id="path224"
         d="M 71.7234,44.6565 C 71.7344,44.39 71.8693,44.1125 72.0285,43.9267 C 72.1877,43.741 72.4929,43.7808 72.3337,44.0594 C 72.1745,44.338 72.0551,44.5239 72.0153,44.7096 C 71.9755,44.8954 71.7101,44.975 71.7234,44.6565 z "
         fill="#000" />
      <path
         id="path226"
         d="M 72.692,44.3911 C 72.8113,44.0331 72.9573,43.4889 73.1298,43.25 C 73.3023,43.0112 73.7402,43.1173 73.5279,43.4623 C 73.3156,43.8073 73.0237,44.2717 72.9308,44.4575 C 72.8379,44.6432 72.5991,44.6698 72.692,44.3911 z "
         fill="#000" />
      <path
         id="path228"
         d="M 73.78,44.0462 C 73.9494,43.6439 74.0985,43.2235 74.2842,42.9847 C 74.47,42.7458 75.014,42.7989 74.7088,43.1439 C 74.4036,43.4889 74.1914,43.9267 74.0985,44.139 C 74.0056,44.3513 73.6739,44.2983 73.78,44.0462 z "
         fill="#000" />
      <path
         id="path230"
         d="M 74.9078,43.8737 C 75.0618,43.5658 75.213,43.2898 75.359,43.0377 C 75.5049,42.7856 76.1153,42.7989 75.8101,43.25 C 75.5049,43.7012 75.2661,43.94 75.1467,44.086 C 75.0273,44.2319 74.7354,44.2186 74.9078,43.8737 z "
         fill="#000" />
      <path
         id="path232"
         d="M 75.8898,43.6746 C 76.0645,43.4532 76.1949,43.25 76.4603,43.0643 C 76.7257,42.8785 77.0972,42.9979 76.8849,43.2633 C 76.6726,43.5287 76.2745,43.7808 76.0888,43.94 C 75.903,44.0992 75.6907,43.9267 75.8898,43.6746 z "
         fill="#000" />
      <path
         id="path234"
         d="M 70.5955,51.3042 C 71.5293,49.7701 72.4795,48.3151 73.7535,47.5624 C 74.3373,47.2174 74.47,46.8127 73.6938,47.2307 C 72.9175,47.6486 72.4001,47.4297 72.7583,46.7928 C 73.1166,46.1559 73.3355,45.5986 73.4947,45.3598 C 73.654,45.1209 73.5214,44.764 73.2161,45.2404 C 72.7185,46.0166 72.002,46.7331 71.7432,47.0316 C 71.4845,47.3302 71.1077,47.4641 71.0068,47.1113 C 70.9272,46.8326 70.7813,46.6336 70.6884,46.4611 C 70.5955,46.2886 70.4017,46.2956 70.4363,46.7132 C 70.5822,48.4779 70.5195,50.1141 70.2505,51.1516 C 70.1112,51.689 70.5026,51.4568 70.5955,51.3042 z "
         fill="#000" />
      <path
         id="path236"
         d="M 63.6625,49.7982 C 64.2255,47.9688 64.8613,46.9639 65.5931,46.1758 C 65.8519,45.8972 66.3296,45.519 66.4291,45.3598 C 66.5286,45.2006 66.4888,45.0413 66.1903,45.1607 C 65.8917,45.2801 65.6728,45.4991 65.3344,45.6185 C 64.9961,45.7379 64.8368,45.6782 64.9164,45.1209 C 64.9961,44.5636 65.3145,43.867 65.3543,43.5685 C 65.3941,43.2699 65.3553,43.2291 65.1553,43.4292 C 64.8567,43.7277 64.5004,45.005 64.1203,45.4394 C 63.8417,45.7578 63.6227,45.5787 63.5232,45.2801 C 63.4237,44.9816 63.2446,44.6034 63.0854,44.3646 C 62.9261,44.1258 62.6781,44.2196 62.8863,44.902 C 63.2446,46.0763 63.364,47.8477 63.364,48.405 C 63.364,48.9623 63.3043,49.5195 63.364,49.7783 C 63.4237,50.037 63.5829,50.0569 63.6625,49.7982 z "
         fill="#000" />
      <path
         id="path238"
         d="M 54.4076,49.2873 C 54.838,46.7049 55.3413,45.6292 56.3979,43.5552 C 56.7562,42.852 56.4232,42.8958 56.106,43.3164 C 55.5354,44.0727 55.2811,44.2142 54.9648,43.7277 C 54.6198,43.197 54.5734,42.6795 54.5535,42.2018 C 54.5336,41.7241 54.1687,41.618 54.1488,42.235 C 54.1289,42.852 53.8702,43.4491 53.6512,43.7476 C 53.4323,44.0462 53.1139,43.9665 52.8153,43.8073 C 52.5167,43.6481 52.3376,43.5287 52.0192,43.2898 C 51.7007,43.051 51.46,43.1861 51.84,43.7277 C 52.948,45.3067 54.0891,46.7119 54.0891,49.2873 C 54.0891,49.6854 54.3014,49.9242 54.4076,49.2873 z "
         fill="#000" />
      <path
         id="path240"
         d="M 45.2123,49.7783 C 44.883,47.6931 44.8142,45.9768 45.3118,44.902 C 45.4988,44.4981 45.3118,44.1059 45.0132,44.7627 C 44.8142,45.2006 44.4958,45.3797 44.237,45.0015 C 43.9783,44.6234 43.4409,43.6083 43.2817,43.1505 C 43.1224,42.6927 42.8715,42.8895 42.9831,43.2898 C 43.3215,44.5039 43.421,45.1408 43.3613,45.4394 C 43.3016,45.7379 43.1423,45.7777 42.9234,45.6782 C 42.7045,45.5787 42.4457,45.4394 42.2467,45.3001 C 42.0477,45.1607 41.8413,45.3237 42.1273,45.5588 C 43.5802,46.753 44.5839,48.123 44.9734,49.7783 C 45.053,50.1166 45.272,50.1564 45.2123,49.7783 z "
         fill="#000" />
      <path
         id="path242"
         d="M 38.1267,50.3754 C 37.5779,49.0947 37.45,48.0069 37.5694,47.3501 C 37.6889,46.6933 37.8481,46.2554 37.8282,45.8772 C 37.8083,45.4991 37.5978,45.5249 37.5097,45.8772 C 37.45,46.1161 37.3306,46.4345 37.251,46.554 C 37.1714,46.6734 36.8529,46.7397 36.5477,46.3284 C 36.2425,45.9171 35.473,45.1209 35.2209,44.9219 C 34.9688,44.7229 34.7033,44.7487 34.9555,45.0944 C 35.3137,45.5853 35.7118,46.3284 35.7383,46.6468 C 35.7649,46.9653 35.6063,46.9653 35.4597,46.9653 C 35.0218,46.9653 34.8095,46.6468 34.4115,46.554 C 34.0134,46.4611 33.9556,46.6664 34.239,46.8724 C 35.6985,47.9339 37.1616,49.1201 37.7486,50.1962 C 37.9874,50.6341 38.3059,50.7934 38.1267,50.3754 z "
         fill="#000" />
    </g>
  </g>
</svg>