<?xml version="1.0" encoding="UTF-8" standalone="no"?>
<!DOCTYPE svg PUBLIC "-//W3C//DTD SVG 20010904//EN" "http://www.w3.org/TR/2001/REC-SVG-20010904/DTD/svg10.dtd">
<svg xmlns="http://www.w3.org/2000/svg" version="1.0" width="1035" height="690" viewBox="0,0 2070,1380">
<rect width="2070" height="1380" fill="rgb(206,17,38)" />
<polygon points="1035,1380 1440,840 630,840" fill="white" />
<polygon points="1440,840 630,840 405,540 1665,540" fill="rgb(0,114,198)" />
<polygon points="0,0 2070,0 1665,540 405,540" fill="black" />
<polygon fill="rgb(252,209,22)" points="585,540
	814.323311909273148946608996869796216680864911,496.104677546371139734135904592669995791269386
	619.254210369920959742317564771445270929912518,367.792455435709602722193007186320509957394947
	847.919337231927321657272615035971204733823817,414.996697570589499432863066861580103265639132
	716.801948466053614019620037052817932321823828,221.801948466053614019620037052817932321823828
	909.996697570589499432863066861580103265639132,352.919337231927321657272615035971204733823817
	862.792455435709602722193007186320509957394947,124.254210369920959742317564771445270929912518
	991.104677546371139734135904592669995791269386,319.323311909273148946608996869796216680864911
	1035,90
	1078.89532245362886026586409540733000420873061,319.323311909273148946608996869796216680864911
	1207.20754456429039727780699281367949004260505,124.254210369920959742317564771445270929912518
	1160.00330242941050056713693313841989673436087,352.919337231927321657272615035971204733823817
	1353.19805153394638598037996294718206767817617,221.801948466053614019620037052817932321823828
	1222.08066276807267834272738496402879526617618,414.996697570589499432863066861580103265639132
	1450.74578963007904025768243522855472907008748,367.792455435709602722193007186320509957394947
	1255.67668809072685105339100313020378331913509,496.104677546371139734135904592669995791269386
	1485,540" />
</svg>
