<?xml version="1.0" encoding="UTF-8" standalone="no"?>
<!-- Created with Inkscape (http://www.inkscape.org/) -->
<svg
   xmlns:dc="http://purl.org/dc/elements/1.1/"
   xmlns:cc="http://web.resource.org/cc/"
   xmlns:rdf="http://www.w3.org/1999/02/22-rdf-syntax-ns#"
   xmlns:svg="http://www.w3.org/2000/svg"
   xmlns="http://www.w3.org/2000/svg"
   xmlns:sodipodi="http://inkscape.sourceforge.net/DTD/sodipodi-0.dtd"
   xmlns:inkscape="http://www.inkscape.org/namespaces/inkscape"
   version="1.0"
   x="0.00000000"
   y="0.00000000"
   width="900"
   height="450"
   viewBox="-3010 0 6020 3021"
   id="svg2"
   xml:space="preserve"
   sodipodi:version="0.32"
   inkscape:version="0.43"
   sodipodi:docname="Flag_of_New_Caledonia.svg"
   sodipodi:docbase="C:\Documents and Settings\empresa\Escritorio"><metadata
   id="metadata27"><rdf:RDF><cc:Work
       rdf:about=""><dc:format>image/svg+xml</dc:format><dc:type
         rdf:resource="http://purl.org/dc/dcmitype/StillImage" /></cc:Work></rdf:RDF></metadata><sodipodi:namedview
   inkscape:window-height="542"
   inkscape:window-width="841"
   inkscape:pageshadow="2"
   inkscape:pageopacity="0.0"
   borderopacity="1.0"
   bordercolor="#666666"
   pagecolor="#ffffff"
   id="base"
   inkscape:zoom="0.3535534"
   inkscape:cx="945.21211"
   inkscape:cy="197.87554"
   inkscape:window-x="-4"
   inkscape:window-y="-4"
   inkscape:current-layer="svg2" />
    <defs
   id="defs4">
        <style
   type="text/css"
   id="style6" />
    
        
        
        
    
        
        
    
            
            
            
            
            
            
            
        </defs>
    
    
    
    
    
    
    
<rect
   style="opacity:1;fill:#0037cc;fill-opacity:1;fill-rule:evenodd;stroke:none;stroke-opacity:1"
   id="rect5731"
   width="0"
   height="0"
   x="-609.50171"
   y="3672.1045" /><path
   d="M -3021,3021 L -3021,2014.0002 L 3020.9989,2014.0002 L 3020.9989,3021 L -3021,3021 z "
   style="fill:#009959;fill-opacity:1"
   id="21376952" /><path
   d="M 3020.9989,1007.0007 L -3021,1007.0007 L -3021,2014.0007 L 3020.9989,2014.0007 L 3020.9989,1007.0007 z "
   style="fill:#ed2e38;fill-opacity:1"
   id="21375544" /><path
   d="M -3021,1007.0009 C -3021,671 -3021,336.00205 -3021,0.001200002 L 3021,0.001200002 L 3021,1007.0009 L -3021,1007.0009 z "
   style="fill:#0033ab;fill-opacity:1;fill-rule:nonzero"
   id="21377216" /><g
   id="g2275"
   transform="matrix(1.000557,0,0,1.000566,-10.18607,2.746054)"><path
     id="21377304"
     style="fill:#f5e814;fill-opacity:1;stroke:#000000;stroke-width:33.76269531;stroke-miterlimit:4;stroke-dasharray:none;stroke-opacity:1"
     d="M -996.26247,524.54443 C -451.8061,524.54443 -6.7031079,967.03651 -6.7031079,1510.5 C -6.7031079,2052.9736 -451.8061,2496.4556 -996.26247,2496.4556 C -1541.7124,2496.4556 -1985.8219,2052.9736 -1985.8219,1510.5 C -1985.8219,967.03651 -1541.7124,524.54443 -996.26247,524.54443 z " /><path
     id="21377480"
     style="fill:none"
     d="M -994.62147,518.99996 C -444.61869,518.99996 5.0186018,965.99989 5.0186018,1514.9998 C 5.0186018,2062.9998 -444.61869,2510.9997 -994.62147,2510.9997 C -1545.6279,2510.9997 -1994.2616,2062.9998 -1994.2616,1514.9998 C -1994.2616,965.99989 -1545.6279,518.99996 -994.62147,518.99996 z " /><path
     d="M -1181.464,1653.9391 L -826.83496,1650.5293"
     style="fill:#1f1a17;fill-opacity:1;fill-rule:evenodd;stroke:#000000;stroke-width:41.06941986;stroke-linecap:butt;stroke-linejoin:miter;stroke-miterlimit:4;stroke-dasharray:none;stroke-opacity:1"
     id="path9008" /><path
     d="M -1184.8736,1408.4268 L -823.42503,1408.4268"
     style="fill:#1f1a17;fill-opacity:1;fill-rule:evenodd;stroke:#000000;stroke-width:41.06941986;stroke-linecap:butt;stroke-linejoin:miter;stroke-miterlimit:4;stroke-dasharray:none;stroke-opacity:1"
     id="path9010" /><path
     d="M -1000.7395,521.00792 L -997.32963,2202.0853 L -997.32963,2202.0853 L -1000.7395,2198.6754"
     style="fill:#1f1a17;fill-opacity:1;fill-rule:evenodd;stroke:#000000;stroke-width:41.06941986;stroke-linecap:butt;stroke-linejoin:miter;stroke-miterlimit:4;stroke-dasharray:none;stroke-opacity:1"
     id="path9012" /><path
     d="M -1394.6907,2415.5084 C -990.83122,2580.4296 -612.30072,2425.6402 -612.30072,2425.6402 C -612.30072,2425.6402 -755.19075,2270.9975 -828.44298,2210.6235 C -899.9155,2151.7162 -1110.1767,2154.0498 -1181.9256,2210.6236 C -1241.8077,2257.8406 -1413.547,2431.8317 -1394.6907,2415.5084 z "
     style="fill:#000000;fill-opacity:1;fill-rule:evenodd;stroke:#000000;stroke-width:2.58860493;stroke-linecap:butt;stroke-linejoin:round;stroke-miterlimit:4;stroke-dasharray:none;stroke-opacity:1"
     id="path2438" /><path
     id="path3166"
     style="fill:#000000;fill-opacity:1;fill-rule:nonzero;stroke:#000000;stroke-width:4.93834686;stroke-linecap:round;stroke-linejoin:round;stroke-miterlimit:4;stroke-dasharray:none;stroke-dashoffset:0;stroke-opacity:1"
     d="M -890.32092,1960.1456 C -890.26724,2048.1833 -939.44102,2119.593 -1000.1185,2119.593 C -1060.7959,2119.593 -1109.9697,2048.1833 -1109.916,1960.1456 C -1109.9697,1872.108 -1060.7959,1800.6983 -1000.1185,1800.6983 C -939.44102,1800.6983 -890.26724,1872.108 -890.32092,1960.1456 z " /><path
     id="path3900"
     style="fill:#000000;fill-opacity:1;fill-rule:nonzero;stroke:#000000;stroke-width:0.04038674;stroke-linecap:round;stroke-linejoin:round;stroke-miterlimit:4;stroke-dasharray:none;stroke-dashoffset:0;stroke-opacity:1"
     d="M -867.65452,1531.2391 C -867.65452,1578.1707 -927.70239,1616.2162 -1001.7752,1616.2162 C -1075.8479,1616.2162 -1135.8958,1578.1707 -1135.8958,1531.2391 C -1135.8958,1484.3074 -1075.8479,1446.2619 -1001.7752,1446.2619 C -927.70239,1446.2619 -867.65452,1484.3074 -867.65452,1531.2391 z " /><path
     id="path3902"
     style="fill:#000000;fill-opacity:1;fill-rule:nonzero;stroke:#000000;stroke-width:0.10939925;stroke-linecap:round;stroke-linejoin:round;stroke-miterlimit:4;stroke-dasharray:none;stroke-dashoffset:0;stroke-opacity:1"
     d="M -869.47054,1140.606 C -869.43879,1211.8047 -929.30829,1269.539 -1003.1722,1269.539 C -1077.0362,1269.539 -1136.9057,1211.8047 -1136.8739,1140.606 C -1136.9057,1069.4072 -1077.0362,1011.6729 -1003.1722,1011.6729 C -929.30829,1011.6729 -869.43879,1069.4072 -869.47054,1140.606 z " /><path
     id="path6096"
     style="fill:#000000;fill-opacity:1;fill-rule:evenodd;stroke:#000000;stroke-width:3.45147419;stroke-linecap:butt;stroke-linejoin:round;stroke-miterlimit:4;stroke-dasharray:none;stroke-opacity:1"
     d="M -835.28213,637.92856 C -835.28213,637.92856 -823.61847,657.28113 -848.07891,701.33063 C -965.00311,911.89365 -1082.3306,916.44837 -1104.5958,934.58069 C -1129.1366,954.56601 -1139.4959,953.1941 -1139.4959,953.1941 L -1137.7507,935.16229 C -1137.7507,935.16229 -1136.1248,861.41505 -1134.8424,854.31 C -1117.0872,755.92962 -968.47178,757.28016 -852.1506,656.54203 C -833.97964,640.80542 -835.28213,637.92856 -835.28213,637.92856 z " /><path
     id="path9014"
     style="fill:#000000;fill-opacity:1;fill-rule:evenodd;stroke:#000000;stroke-width:2.55778122;stroke-linecap:butt;stroke-linejoin:round;stroke-miterlimit:4;stroke-dasharray:none;stroke-opacity:1"
     d="M -998.69592,1300.8153 C -953.42503,1295.9732 -900.87395,1277.4394 -884.15182,1250.7552 C -785.80952,1093.8258 -774.71949,1092.6118 -774.71949,1092.6118 C -774.71949,1092.6118 -789.73899,1132.7235 -799.90482,1182.6917 C -810.07065,1232.6598 -808.47234,1273.0762 -820.31548,1292.4841 C -835.43792,1317.266 -859.51984,1342.9638 -890.79108,1353.0798 C -931.56638,1366.2705 -999.91128,1368.6737 -999.91128,1368.6737 C -999.91128,1368.6737 -1002.6467,1301.2381 -998.69592,1300.8153 z " /><path
     id="path11196"
     style="fill:#000000;fill-opacity:1;fill-rule:evenodd;stroke:#000000;stroke-width:2.55778122;stroke-linecap:butt;stroke-linejoin:round;stroke-miterlimit:4;stroke-dasharray:none;stroke-opacity:1"
     d="M -1008.4881,1300.7066 C -1052.6784,1295.8613 -1103.9751,1277.3168 -1120.2983,1250.6165 C -1216.2934,1093.5942 -1227.1186,1092.3795 -1227.1186,1092.3795 C -1227.1186,1092.3795 -1212.4575,1132.5149 -1202.5345,1182.5126 C -1192.6114,1232.5103 -1194.1716,1272.9509 -1182.611,1292.3701 C -1167.8498,1317.167 -1144.3426,1342.88 -1113.8174,1353.0021 C -1074.0155,1366.2006 -1007.3016,1368.6051 -1007.3016,1368.6051 C -1007.3016,1368.6051 -1004.6316,1301.1294 -1008.4881,1300.7066 z " /><g
     id="g11202"
     style="fill:#000000;fill-opacity:1;stroke:#000000;stroke-opacity:1"
     transform="matrix(14.2758,0,0,13.01776,-3251.995,356.0369)">
                <path
   id="path11198"
   style="fill:#000000;fill-opacity:1;fill-rule:evenodd;stroke:#000000;stroke-width:0.18762676;stroke-linecap:butt;stroke-linejoin:round;stroke-miterlimit:4;stroke-dasharray:none;stroke-opacity:1"
   d="M 158.01893,109.81434 C 161.32577,110.31944 165.1644,112.25275 166.38588,115.03626 C 173.56936,131.40592 174.37944,131.53255 174.37944,131.53255 C 174.37944,131.53255 173.28233,127.3484 172.53976,122.13611 C 171.79719,116.92382 171.91394,112.70788 171.04885,110.68339 C 169.94422,108.09834 168.18514,105.41773 165.90091,104.36251 C 162.92245,102.98656 157.93015,102.73588 157.93015,102.73588 C 157.93015,102.73588 157.73033,109.77025 158.01893,109.81434 z " />
                <path
   id="path11200"
   style="fill:#000000;fill-opacity:1;fill-rule:evenodd;stroke:#000000;stroke-width:0.18762678;stroke-linecap:butt;stroke-linejoin:round;stroke-miterlimit:4;stroke-dasharray:none;stroke-opacity:1"
   d="M 157.30365,109.8257 C 154.07574,110.3311 150.32873,112.26555 149.1364,115.05071 C 142.12437,131.43008 141.33363,131.55679 141.33363,131.55679 C 141.33363,131.55679 142.40456,127.37016 143.12939,122.15478 C 143.85424,116.9394 143.74028,112.72095 144.58472,110.69527 C 145.66298,108.10869 147.38007,105.42649 149.60979,104.37063 C 152.51716,102.99387 157.39031,102.74305 157.39031,102.74305 C 157.39031,102.74305 157.58536,109.78159 157.30365,109.8257 z " />
            </g></g></svg>