<?xml version="1.0" encoding="UTF-8" standalone="no"?>
<svg xmlns:svg="http://www.w3.org/2000/svg" xmlns="http://www.w3.org/2000/svg" version="1.0" width="1000" height="500" viewBox="0 0 72 36" id="svg2">
  <defs id="defs4"/>
  <g id="layer1">
    <rect width="72" height="36" x="0" y="0" fill="#0047ba"/>
    <rect width="72" height="12" x="0" y="12" fill="white"/>
    <path d="M 36,16 L 36.44,17.38 L 37.90,17.38 L 36.72,18.23 L 37.17,19.61 L 36,18.763932 L 34.82,19.61 L 35.27,18.23 L 34.09,17.38 L 35.55,17.38 L 36,16 z " opacity="1" fill="#0047ba" fill-opacity="1" fill-rule="nonzero" stroke="none" stroke-width="0.25" stroke-linecap="square" stroke-miterlimit="4" stroke-dasharray="none" stroke-opacity="1"/>
    <path d="M 26,13 L 26.44,14.38 L 27.90,14.38 L 26.72,15.23 L 27.17,16.61 L 26,15.763932 L 24.82,16.61 L 25.27,15.23 L 24.09,14.38 L 25.55,14.38 L 26,13 z " opacity="1" fill="#0047ba" fill-opacity="1" fill-rule="nonzero" stroke="none" stroke-width="0.25" stroke-linecap="square" stroke-miterlimit="4" stroke-dasharray="none" stroke-opacity="1"/>
    <path d="M 26,19 L 26.44,20.38 L 27.90,20.38 L 26.72,21.23 L 27.17,22.61 L 26,21.763932 L 24.82,22.61 L 25.27,21.23 L 24.09,20.38 L 25.55,20.38 L 26,19 z " opacity="1" fill="#0047ba" fill-opacity="1" fill-rule="nonzero" stroke="none" stroke-width="0.25" stroke-linecap="square" stroke-miterlimit="4" stroke-dasharray="none" stroke-opacity="1"/>
    <path d="M 46,13 L 46.44,14.38 L 47.90,14.38 L 46.72,15.23 L 47.17,16.61 L 46,15.763932 L 44.82,16.61 L 45.27,15.23 L 44.09,14.38 L 45.55,14.38 L 46,13 z " opacity="1" fill="#0047ba" fill-opacity="1" fill-rule="nonzero" stroke="none" stroke-width="0.25" stroke-linecap="square" stroke-miterlimit="4" stroke-dasharray="none" stroke-opacity="1"/>
    <path d="M 46,19 L 46.44,20.38 L 47.90,20.38 L 46.72,21.23 L 47.17,22.61 L 46,21.763932 L 44.82,22.61 L 45.27,21.23 L 44.09,20.38 L 45.55,20.38 L 46,19 z " opacity="1" fill="#0047ba" fill-opacity="1" fill-rule="nonzero" stroke="none" stroke-width="0.25" stroke-linecap="square" stroke-miterlimit="4" stroke-dasharray="none" stroke-opacity="1"/>
  </g>
</svg>
