<?xml version="1.0" encoding="UTF-8" standalone="no"?>
<!DOCTYPE svg PUBLIC "-//W3C//DTD SVG 1.0//EN"
"http://www.w3.org/TR/2001/REC-SVG-20010904/DTD/svg10.dtd">
<!-- Created with Inkscape (http://www.inkscape.org/) -->
<svg
   xmlns="http://www.w3.org/2000/svg"
   xmlns:xlink="http://www.w3.org/1999/xlink"
   version="1.0"
   x="0.0000000"
   y="0.0000000"
   width="450.00000"
   height="300.00000"
   id="svg1">
  <defs
     id="defs3" />
  <metadata
     id="metadata4">
    <rdf:RDF
       id="RDF5">
      <cc:Work
         rdf:about=""
         id="Work6">
        <dc:format
           id="format7">image/svg+xml</dc:format>
        <dc:type
           id="type9"
           rdf:resource="http://purl.org/dc/dcmitype/StillImage" />
      </cc:Work>
    </rdf:RDF>
  </metadata>
  <rect
     width="90.000000"
     height="60.000000"
     x="125.00000"
     y="617.36218"
     transform="matrix(5.000000,0.000000,0.000000,5.000000,-625.0000,-3086.811)"
     style="fill:#0072c6;fill-opacity:1.0000000;fill-rule:evenodd;stroke:none;stroke-width:1.000pt;stroke-linecap:butt;stroke-linejoin:miter;stroke-opacity:1.0000000;"
     id="rect908" />
  <rect
     width="67.500000"
     height="60.000000"
     x="147.50000"
     y="617.36218"
     transform="matrix(5.000000,0.000000,0.000000,5.000000,-625.0000,-3086.811)"
     style="fill:#fcd116;fill-opacity:1.0000000;fill-rule:evenodd;stroke:none;stroke-width:1.000pt;stroke-linecap:butt;stroke-linejoin:miter;stroke-opacity:1.0000000;"
     id="rect2152" />
  <rect
     width="22.500000"
     height="60.000000"
     x="192.50000"
     y="617.36218"
     transform="matrix(5.000000,0.000000,0.000000,5.000000,-625.0000,-3086.811)"
     style="fill:#009e60;fill-opacity:1.0000000;fill-rule:evenodd;stroke:none;stroke-width:1.000pt;stroke-linecap:butt;stroke-linejoin:miter;stroke-opacity:1.0000000;"
     id="rect2774" />
  <path
     d="M 165.0,659.8 L 170.0,669.8 L 175.0,659.8 L 170.0,649.8 L 165.0,659.8 z "
     transform="matrix(5.000000,0.000000,0.000000,5.000000,-625.0000,-3086.811)"
     style="fill:#009e60;fill-opacity:1.0000000;fill-rule:evenodd;stroke:none;stroke-width:1.000pt;stroke-linecap:butt;stroke-linejoin:miter;stroke-opacity:1.0000000;"
     id="path3396" />
  <path
     d="M 171.2,647.3 L 176.2,657.3 L 181.2,647.3 L 176.2,637.3 L 171.2,647.3 z "
     transform="matrix(5.000000,0.000000,0.000000,5.000000,-625.0000,-3086.811)"
     style="fill:#009e60;fill-opacity:1.0000000;fill-rule:evenodd;stroke:none;stroke-width:1.000pt;stroke-linecap:butt;stroke-linejoin:miter;stroke-opacity:1.0000000;"
     id="path4018" />
  <path
     d="M 158.7,647.3 L 163.7,657.3 L 168.7,647.3 L 163.7,637.3 L 158.7,647.3 z "
     transform="matrix(5.000000,0.000000,0.000000,5.000000,-625.0000,-3086.811)"
     style="fill:#009e60;fill-opacity:1.0000000;fill-rule:evenodd;stroke:none;stroke-width:1.000pt;stroke-linecap:butt;stroke-linejoin:miter;stroke-opacity:1.0000000;"
     id="path4019" />
</svg>
