<?xml version="1.0" encoding="UTF-8" standalone="no"?>
<svg xmlns:svg="http://www.w3.org/2000/svg" xmlns="http://www.w3.org/2000/svg" version="1.0" width="900" height="600" viewBox="0 0 450 300">
    <rect width="450" height="300" fill="#fff"/>
    <rect width="450" height="200" y="100" fill="#0038a8"/>
    <rect width="450" height="100" y="200" fill="#ce1126"/>
    <path d="M 77.80,70.51 C 71.75,70.97 73.46,78.30 72.71,82.46 C 70.58,111.1 67.63,140.7 76.39,168.6 C 83.30,191.2 99.81,209.8 119.8,221.8 C 124.7,224.5 129.5,228.0 134.9,229.5 C 140.7,227.9 145.7,224.3 150.8,221.3 C 170.5,209.4 186.7,190.9 193.6,168.6 C 202.4,140.2 199.3,110.2 197.1,81.05 C 196.8,77.04 197.4,70.08 191.5,70.51 C 153.6,70.51 115.7,70.51 77.80,70.51 z " fill="#ffffff" fill-opacity="1" fill-rule="evenodd" stroke="none" stroke-width="1pt" stroke-linecap="butt" stroke-linejoin="miter" stroke-opacity="1"/>
    <g transform="matrix(0.5,0,0,0.5,-4.952244e-5,150.0002)">
      <g>
        <path d="M 270.00013,-150.00033 L 270.0,149.9 C 131.2,82.77 146.4401,-28.549958 155.59324,-150.00033 L 270.00013,-150.00033 z M 270.00013,-150.00033 L 270.0,149.9 C 408.7,82.77 393.56016,-28.549958 384.40702,-150.00033 L 270.00013,-150.00033 z " fill="#ce1126" fill-opacity="1" fill-rule="evenodd" stroke="none" stroke-width="1pt" stroke-linecap="butt" stroke-linejoin="miter" stroke-opacity="1"/>
        <g>
          <path d="M 286.19947,-67.713266 C 300.79888,-67.713266 315.67885,-65.05409 329.99774,-62.219101 C 325.75976,-76.125053 325.75976,-84.622415 329.99774,-98.528367 C 315.67885,-95.693378 300.79888,-93.034202 286.19947,-93.034202 L 253.80076,-93.034202 C 239.20135,-93.034202 224.32138,-95.693378 210.00249,-98.528367 C 214.24047,-84.622415 214.24047,-76.125053 210.00249,-62.219101 C 224.32138,-65.05409 239.20135,-67.713266 253.80076,-67.713266 L 286.19947,-67.713266 z " fill="#ffffff" fill-opacity="1" fill-rule="evenodd" stroke="none" stroke-width="1pt" stroke-linecap="butt" stroke-linejoin="miter" stroke-opacity="1"/>
          <path d="M 298.79901,-13.082153 C 313.39842,-13.082153 328.27839,-10.422978 342.59728,-7.5879882 C 338.35928,-21.49394 338.35928,-29.991302 342.59728,-43.897254 C 328.27839,-41.062265 313.39842,-38.403089 298.79901,-38.403089 L 241.20127,-38.403089 C 226.60186,-38.403089 211.7219,-41.062265 197.40301,-43.897254 C 201.64099,-29.991302 201.64099,-21.49394 197.40301,-7.5879882 C 211.7219,-10.422978 226.60186,-13.082153 241.20127,-13.082153 L 298.79901,-13.082153 z " fill="#ffffff" fill-opacity="1" fill-rule="evenodd" stroke="none" stroke-width="1pt" stroke-linecap="butt" stroke-linejoin="miter" stroke-opacity="1"/>
          <path d="M 251.75613,-138.50378 C 254.60434,-124.25132 257.27591,-109.44045 257.27591,-94.908773 L 257.2,90.87 L 282.7,90.87 L 282.71491,-94.908773 C 282.71491,-109.44043 285.38648,-124.25134 288.23469,-138.50378 C 274.2639,-134.28545 265.72692,-134.28546 251.75613,-138.50378 z " fill="#ffffff" fill-opacity="1" fill-rule="evenodd" stroke="none" stroke-width="1pt" stroke-linecap="butt" stroke-linejoin="miter" stroke-opacity="1"/>
          <g transform="matrix(1.919924,0,0,1.911014,-89.99034,-1145.429)" fill="#0038a8" fill-opacity="1">
            <path d="M 157.5,623.34375 C 148.9,623.3 142,630.27919 142,638.84375 C 142,639.49669 142.1,640.1 142.1,640.7 C 145.1,645.1 148.6,649.4 152.6,653.5 C 154.2,654.0 155.8,654.3 157.5,654.375 C 166.0,654.3 173.0,647.4 173.0,638.8 C 173.0,630.2 166.0,623.3 157.5,623.34375 z " fill-rule="evenodd" stroke="none" stroke-width="1pt" stroke-linecap="butt" stroke-linejoin="miter" stroke-opacity="1"/>
            <path d="M 187.5,614.1875 C 176.6,614.1 167.7,623.0 167.7,633.9 C 167.7,644.8 176.6,653.6 187.5,653.65625 C 198.3,653.6 207.2,644.8 207.2,633.9 C 207.2,623.0 198.3,614.1 187.5,614.1875 z " fill-rule="evenodd" stroke="none" stroke-width="1pt" stroke-linecap="butt" stroke-linejoin="miter" stroke-opacity="1"/>
            <path d="M 217.5,623.34375 C 208.9,623.3 202,630.27919 202,638.84375 C 202,647.40831 208.9,654.3 217.5,654.375 C 219.1,654.3 220.7,654.0 222.3,653.5 C 226.3,649.4 229.8,645.1 232.8,640.7 C 232.9,640.0 233.0,639.4 233.0,638.8 C 233.0,630.2 226.0,623.3 217.5,623.34375 z " fill-rule="evenodd" stroke="none" stroke-width="1pt" stroke-linecap="butt" stroke-linejoin="miter" stroke-opacity="1"/>
            <path d="M 144.6,644.1 C 154.0,656.8 167.7,668.2 187.5,677.875 C 207.2,668.2 220.9,656.8 230.3,644.1 L 144.6,644.1 z " fill-rule="evenodd" stroke="none" stroke-width="1pt" stroke-linecap="butt" stroke-linejoin="miter" stroke-opacity="1"/>
          </g>
        </g>
      </g>
    </g>
</svg>
