<?xml version="1.0" encoding="UTF-8" standalone="no"?>
<svg xmlns:dc="http://purl.org/dc/elements/1.1/" xmlns:cc="http://web.resource.org/cc/" xmlns:rdf="http://www.w3.org/1999/02/22-rdf-syntax-ns#" xmlns:svg="http://www.w3.org/2000/svg" xmlns="http://www.w3.org/2000/svg" xmlns:xlink="http://www.w3.org/1999/xlink" id="svg1" height="500" width="1000" y="0.00000000" x="0.00000000" version="1.0">
  
  <sodipodi:namedview borderopacity="1.0" bordercolor="#666666" pagecolor="#ffffff" id="base"/>
  <defs id="defs3"/>
  <g transform="matrix(1.666667,0,0,1.666667,0,-1.166667e-4)">
    <g>
      <g/>
      <path d="M 300.00002,-1e-005 L 600.00005,-1e-005 L 600.0,300.0 L 0,300.00001 L 0,150 L 300.00002,150 L 300.00002,-1e-005 z " fill="#5b97b1" fill-opacity="1" fill-rule="evenodd" stroke="none" stroke-width="1px" stroke-linecap="butt" stroke-linejoin="miter" stroke-opacity="1"/>
    </g>
    <g transform="matrix(0.604757,0,0,0.604757,-7.315296e-3,3.329625e-3)">
      <polygon transform="matrix(0.498761,0,0,0.469385,657.6627,-98.2599)" points="591.041,433.161 533.7,391.4 476.5,433.1 498.4,365.8 441.1,324.2 511.9,324.2 533.7,256.8 555.6,324.2 626.4,324.2 569.1,365.8 591.0,433.1 " font-size="12px" fill="#ffce00" fill-rule="evenodd" stroke-width="1pt"/>
      <polygon transform="matrix(0.498761,0,0,0.469385,569.0006,153.8731)" points="591.041,433.161 533.7,391.4 476.5,433.1 498.4,365.8 441.1,324.2 511.9,324.2 533.7,256.8 555.6,324.2 626.4,324.2 569.1,365.8 591.0,433.1 " font-size="12px" fill="#ffce00" fill-rule="evenodd" stroke-width="1pt"/>
      <polygon transform="matrix(0.498761,0,0,0.469385,657.6628,96.79682)" points="591.041,433.161 533.7,391.4 476.5,433.1 498.4,365.8 441.1,324.2 511.9,324.2 533.7,256.8 555.6,324.2 626.4,324.2 569.1,365.8 591.0,433.1 " font-size="12px" fill="#ffce00" fill-rule="evenodd" stroke-width="1pt"/>
      <polygon transform="matrix(0.498761,0,0,0.469385,276.4154,279.6626)" points="591.041,433.161 533.7,391.4 476.5,433.1 498.4,365.8 441.1,324.2 511.9,324.2 533.7,256.8 555.6,324.2 626.4,324.2 569.1,365.8 591.0,433.1 " font-size="12px" fill="#ffce00" fill-rule="evenodd" stroke-width="1pt"/>
      <polygon transform="matrix(-0.498761,6.107859e-17,-5.748118e-17,-0.469385,910.834,486.0882)" points="591.041,433.161 533.7,391.4 476.5,433.1 498.4,365.8 441.1,324.2 511.9,324.2 533.7,256.8 555.6,324.2 626.4,324.2 569.1,365.8 591.0,433.1 " font-size="12px" fill="#ffce00" fill-rule="evenodd" stroke-width="1pt"/>
      <polygon transform="matrix(-0.498761,6.107859e-17,-5.748118e-17,-0.469385,1015.012,342.0122)" points="591.041,433.161 533.7,391.4 476.5,433.1 498.4,365.8 441.1,324.2 511.9,324.2 533.7,256.8 555.6,324.2 626.4,324.2 569.1,365.8 591.0,433.1 " font-size="12px" fill="#ffce00" fill-rule="evenodd" stroke-width="1pt"/>
      <polygon transform="matrix(-0.498761,6.107859e-17,-5.748118e-17,-0.469385,1102.566,312.0887)" points="591.041,433.161 533.7,391.4 476.5,433.1 498.4,365.8 441.1,324.2 511.9,324.2 533.7,256.8 555.6,324.2 626.4,324.2 569.1,365.8 591.0,433.1 " font-size="12px" fill="#ffce00" fill-rule="evenodd" stroke-width="1pt"/>
      <polygon transform="matrix(-0.498761,6.107859e-17,-5.748118e-17,-0.469385,1015.012,561.451)" points="591.041,433.161 533.7,391.4 476.5,433.1 498.4,365.8 441.1,324.2 511.9,324.2 533.7,256.8 555.6,324.2 626.4,324.2 569.1,365.8 591.0,433.1 " font-size="12px" fill="#ffce00" fill-rule="evenodd" stroke-width="1pt"/>
      <polygon transform="matrix(-0.498761,6.107859e-17,-5.748118e-17,-0.469385,910.834,586.9413)" points="591.041,433.161 533.7,391.4 476.5,433.1 498.4,365.8 441.1,324.2 511.9,324.2 533.7,256.8 555.6,324.2 626.4,324.2 569.1,365.8 591.0,433.1 " font-size="12px" fill="#ffce00" fill-rule="evenodd" stroke-width="1pt"/>
    </g>
  </g>
  <g transform="matrix(0.833333,0,0,0.833333,0,-1.666667e-5)">
    <g>
      <g>
        <rect y="-7.8124995e-006" x="0" height="300" width="600" fill="#00267f" fill-opacity="1" fill-rule="evenodd" stroke="none" stroke-width="1pt" stroke-linecap="butt" stroke-linejoin="miter" stroke-opacity="1"/>
        <path d="M 1.110223e-014,299.99999 L 67.08,299.99999 L 600,33.539988 L 600,-1.2e-005 L 532.92,-1.2e-005 L 1.110223e-014,266.45999 L 1.110223e-014,299.99999 z " fill="#ffffff" fill-opacity="1" fill-rule="evenodd" stroke="none" stroke-width="1pt" stroke-linecap="butt" stroke-linejoin="miter" stroke-opacity="1"/>
        <path d="M 600,299.99999 L 532.9,299.9 L 1.110223e-014,33.539988 L 1.110223e-014,-1.2e-005 L 67.08,-1.2e-005 L 600,266.45999 L 600,299.99999 z " fill="#ffffff" fill-opacity="1" fill-rule="evenodd" stroke="none" stroke-width="1pt" stroke-linecap="butt" stroke-linejoin="miter" stroke-opacity="1"/>
        <path d="M 250,0 L 250,100 L 0,100 L 0,200 L 250,200 L 250,300 L 350,300 L 350,200 L 600,200 L 600,100 L 350,100 L 350,0 L 250,0 z " fill="#ffffff" fill-opacity="1" fill-rule="evenodd" stroke="none" stroke-width="1pt" stroke-linecap="butt" stroke-linejoin="miter" stroke-opacity="1"/>
        <path d="M 270,0 L 270,120 L 0,120 L 0,180 L 270,180 L 270,300 L 330,300 L 330,180 L 600,180 L 600,120 L 330,120 L 330,0 L 270,0 z " fill="#d21034" fill-opacity="1" fill-rule="evenodd" stroke="none" stroke-width="1pt" stroke-linecap="butt" stroke-linejoin="miter" stroke-opacity="1"/>
        <path d="M 355.2,99.99 L 400,99.999988 L 600,-1.2e-005 L 555.28,-1.2e-005 L 355.2,99.99 z " fill="#d21034" fill-opacity="1" fill-rule="evenodd" stroke="none" stroke-width="1pt" stroke-linecap="butt" stroke-linejoin="miter" stroke-opacity="1"/>
        <path d="M 1.110223e-014,-1.2e-005 L 1.110223e-014,22.359988 L 155.2,99.99 L 200,99.999988 L 1.110223e-014,-1.2e-005 z " fill="#d21034" fill-opacity="1" fill-rule="evenodd" stroke="none" stroke-width="1pt" stroke-linecap="butt" stroke-linejoin="miter" stroke-opacity="1"/>
        <use xlink:href="#path9616" height="300" width="600" y="0" x="0" id="use3668" transform="matrix(-1,0,0,-1,600,300)"/>
        <use xlink:href="#path8371" height="300" width="600" y="0" x="0" id="use3711" transform="translate(-355.28,200)"/>
      </g>
    </g>
    <g transform="matrix(0.604757,0,0,0.604757,-7.315296e-3,3.329625e-3)"/>
  </g>
</svg>
