<?xml version="1.0" encoding="UTF-8" standalone="no"?>
<!-- Created with Inkscape (http://www.inkscape.org/) -->
<svg
   xmlns:dc="http://purl.org/dc/elements/1.1/"
   xmlns:cc="http://web.resource.org/cc/"
   xmlns:rdf="http://www.w3.org/1999/02/22-rdf-syntax-ns#"
   xmlns:svg="http://www.w3.org/2000/svg"
   xmlns="http://www.w3.org/2000/svg"
   xmlns:sodipodi="http://inkscape.sourceforge.net/DTD/sodipodi-0.dtd"
   xmlns:inkscape="http://www.inkscape.org/namespaces/inkscape"
   height="496.06299"
   id="svg559"
   version="1.0"
   width="992.12598"
   x="0.0000000"
   y="0.0000000"
   sodipodi:version="0.32"
   inkscape:version="0.43"
   sodipodi:docname="Flag_of_the_Northern_Mariana_Islands.svg"
   sodipodi:docbase="C:\Documents and Settings\David Nelson\Archives\Svg">
  <sodipodi:namedview
     inkscape:window-height="540"
     inkscape:window-width="756"
     inkscape:pageshadow="2"
     inkscape:pageopacity="0.0"
     borderopacity="1.0"
     bordercolor="#666666"
     pagecolor="#ffffff"
     id="base"
     inkscape:zoom="0.67027778"
     inkscape:cx="496.06299"
     inkscape:cy="248.03149"
     inkscape:window-x="36"
     inkscape:window-y="26"
     inkscape:current-layer="svg559" />
  <metadata
     id="metadata3">
    <rdf:RDF>
      <cc:Work
         rdf:about="">
        <dc:title />
        <dc:description />
        <dc:subject>
          <rdf:Bag>
            <rdf:li>micronesia</rdf:li>
            <rdf:li />
            <rdf:li>oceania</rdf:li>
            <rdf:li>flag</rdf:li>
            <rdf:li>sign</rdf:li>
          </rdf:Bag>
        </dc:subject>
        <dc:publisher>
          <cc:Agent
             rdf:about="http://www.openclipart.org">
            <dc:title />
          </cc:Agent>
        </dc:publisher>
        <dc:creator>
          <cc:Agent>
            <dc:title />
          </cc:Agent>
        </dc:creator>
        <dc:rights>
          <cc:Agent>
            <dc:title />
          </cc:Agent>
        </dc:rights>
        <dc:date />
        <dc:format>image/svg+xml</dc:format>
        <dc:type
           rdf:resource="http://purl.org/dc/dcmitype/StillImage" />
        <cc:license
           rdf:resource="" />
        <dc:language>en</dc:language>
      </cc:Work>
    </rdf:RDF>
  </metadata>
  <defs
     id="defs561" />
  <rect
     height="496.06320"
     id="rect828"
     style="font-size:12.000000;fill:#0071bc;fill-opacity:1;fill-rule:evenodd;stroke-width:1.0000000"
     width="992.12598"
     x="0.0000000"
     y="3.3050790e-05" />
  <g
     id="g3950">
    <path
       d="M 553.42504,392.4292 C 553.42504,392.4292 570.918,373.92689 587.73813,377.45923 C 592.78431,357.94775 611.79111,356.43392 611.79111,356.43392 C 611.79111,356.43392 609.94095,334.90413 634.33005,330.19447 C 635.00289,315.56082 649.8047,303.45035 649.8047,303.45035 C 649.8047,303.45035 646.77704,280.74324 662.25169,275.5289 C 652.83237,257.53126 665.44752,244.41125 665.27935,244.07493 C 665.11119,243.73861 649.30022,215.64862 663.42901,207.57516 C 648.45903,194.96 653.33704,180.66282 653.33704,180.66282 C 653.33704,180.66282 637.0214,176.45761 642.90838,156.94625 C 629.45223,154.59151 626.76108,132.89341 626.76108,132.89341 C 626.76108,132.89341 606.0721,137.09835 603.54911,119.10079 C 589.9248,121.28756 588.41097,107.83134 588.24281,107.83134 C 588.07465,107.83134 561.16217,115.06399 555.77968,94.711535 C 545.35139,100.09415 540.8097,90.506454 540.8097,90.506454 C 540.8097,90.506454 525.83972,97.90738 516.92508,83.610222 C 499.09579,94.711535 489.1718,83.105528 489.1718,83.105528 C 489.1718,83.105528 465.79166,98.580063 458.05434,86.637791 C 444.26168,100.59869 431.98307,94.543412 431.98307,94.543412 C 431.98307,94.543412 421.55451,113.04552 404.73431,108.33588 C 400.86564,125.49248 381.52243,125.8289 381.52243,125.8289 C 381.52243,125.8289 383.54084,140.96717 360.32896,145.00398 C 357.30133,162.83326 345.19078,165.86097 345.19078,165.86097 C 345.19078,165.86097 346.36818,183.1857 335.43505,188.73643 C 339.30371,198.49236 329.21157,210.43448 329.21157,210.43448 C 329.21157,210.43448 339.97651,223.89062 325.34293,239.02895 C 339.47191,242.72926 329.21157,267.11874 329.21157,267.11874 C 329.21157,267.11874 348.72303,275.86523 336.44428,292.01252 C 350.40504,296.55402 346.03178,307.65552 346.2,314.21534 C 355.1147,318.25197 363.02021,316.23365 359.15156,334.23129 C 386.56847,337.25896 373.61692,352.3971 373.61692,352.3971 C 373.61692,352.3971 386.40029,352.90177 381.35423,362.99393 C 404.73433,362.48944 408.09835,380.48689 408.09835,380.48689 C 408.09835,380.48689 429.79646,374.76788 432.65585,383.17804 C 435.51529,391.58821 423.23655,448.27228 423.23655,448.27228 C 423.23655,448.27228 404.90253,448.27228 391.27815,433.63882 C 359.31976,432.79782 366.38423,411.77232 365.87964,411.77232 C 365.37504,411.77232 355.2829,415.64099 350.06864,398.14802 C 328.70698,402.52136 329.37977,384.52391 329.21157,384.35556 C 329.04338,384.18739 319.62408,379.98222 323.1563,371.06757 C 301.12184,373.0857 302.80385,351.5561 302.80385,351.5561 C 297.98206,349.59365 296.1879,345.10839 296.91678,340.62295 C 294.05735,339.6136 274.54591,339.27728 284.63803,313.5425 C 265.96759,302.27284 277.57354,289.32137 277.57354,289.32137 C 277.57354,289.32137 251.83863,276.03339 271.68646,260.7269 C 256.88469,238.86059 272.86388,227.92763 272.86388,227.92763 C 272.86388,227.92763 252.34323,207.07049 273.2003,192.26869 C 269.83625,160.64679 288.67489,153.07774 288.67489,153.07774 C 288.67489,153.07774 278.75097,127.34268 305.6633,116.57778 C 307.34531,90.506454 326.18395,89.833637 326.18395,89.833637 C 326.18395,89.833637 326.68855,69.144768 356.29212,71.163237 C 362.01097,52.661132 382.19523,56.361538 382.19523,56.361538 C 382.19523,56.361538 388.41872,33.990617 415.83566,44.755512 C 429.79634,17.50683 450.48536,31.467588 450.48536,31.467588 C 450.48536,31.467588 463.60499,22.889139 470.165,25.580437 C 478.49473,11.26555 496.22803,25.025505 507.69369,27.795746 C 511.84915,26.17975 526.68091,14.983662 538.11855,29.1127 C 553.25688,19.188747 566.20834,37.018167 566.20834,37.018167 C 566.20834,37.018167 587.0653,26.421683 596.82113,50.642663 C 641.05822,46.605705 634.66657,75.536459 634.66657,75.536459 C 634.66657,75.536459 669.48434,67.630992 661.91537,102.2806 C 693.53731,104.46721 690.34148,125.32436 690.34148,125.32436 C 690.34148,125.32436 710.35744,140.46232 701.61096,154.08682 C 719.44044,154.92793 712.88043,172.08454 712.88043,172.08454 C 712.88043,172.08454 726.50493,177.29885 715.23526,198.49217 C 741.30655,219.34912 720.28144,240.0383 720.11327,239.86994 C 719.94492,239.70178 734.07409,256.69007 721.29059,276.20155 C 725.15926,307.15085 709.51644,315.05614 709.51644,315.05614 C 709.51644,315.05614 713.55327,335.07229 696.0603,340.79111 C 695.72398,364.33941 673.52116,367.19891 673.52116,367.19891 C 673.52116,367.19891 679.40833,377.42774 657.37387,388.19274 C 656.50484,403.94957 633.48906,405.21251 633.48906,405.21251 C 633.48906,405.21251 631.30258,434.14311 602.03527,426.40598 C 594.93201,449.61834 560.65769,442.72162 559.98485,442.3853 C 559.31202,442.04879 553.42504,392.59756 553.42504,392.4292 z "
       id="path588"
       style="font-size:12px;fill:#ffffff;fill-rule:evenodd;stroke:#000000;stroke-width:1.91964602" />
    <path
       d="M 340.85851,114.83323 C 340.94412,114.83323 348.27631,121.19242 346.90703,130.77686 C 345.53793,140.36133 340.00273,153.68456 341.11517,163.6113 C 341.79526,167.59068 341.53774,174.72082 341.53774,174.72082 C 341.53774,174.72082 334.89077,165.27594 334.80515,155.17827 C 334.71954,145.08049 342.00292,135.49265 342.00292,128.04765 C 342.00292,120.60263 340.68728,114.66217 340.85851,114.83323 z "
       id="path711"
       style="font-size:12px;fill:#217900;fill-rule:evenodd;stroke:#000000;stroke-width:1.91964602;stroke-linejoin:round" />
    <path
       d="M 337.21982,117.68519 C 337.21982,117.68519 327.59811,126.87027 326.35898,135.7967 C 325.44408,140.3978 325.08896,161.83741 324.98083,171.35304 C 324.76458,174.27251 323.55455,185.79666 323.2977,189.99002 C 323.04105,194.1831 330.37546,182.83221 330.79475,173.58987 C 330.56523,164.02327 330.56466,143.8725 331.53782,140.84493 C 332.40287,136.9521 332.21444,132.65123 333.55262,128.74713 C 335.32311,123.32937 337.30544,117.77073 337.21982,117.68519 z "
       id="path712"
       style="font-size:12px;fill:#217900;fill-rule:evenodd;stroke:#000000;stroke-width:1.91964602;stroke-linejoin:round" />
    <g
       id="g771"
       style="font-size:12px"
       transform="matrix(1.919646,0,0,1.919646,249.652,5.172104)">
      <path
         d="M 155.8775,42.98016 C 155.8775,42.98016 162.3763,39.98234 164.2339,34.39946 C 166.0915,28.81658 158.6097,28.76277 157.6212,30.53738 C 156.6328,32.31199 158.4643,36.73032 157.9926,37.89841 C 157.5208,39.06645 154.877,41.88634 155.8775,42.98016 z "
         id="path747"
         style="fill:#ffd200;fill-rule:evenodd;stroke:#ef8a10;stroke-width:1" />
      <path
         d="M 98.28138,45.01726 C 98.28138,45.01726 102.5002,39.23593 101.4064,33.45468 C 100.3126,27.67343 93.75008,31.26711 93.75008,33.29843 C 93.75008,35.32976 97.50008,38.29851 97.65638,39.54851 C 97.81258,40.79851 96.87508,44.54851 98.28138,45.01726 z "
         id="path748"
         style="fill:#ffd200;fill-opacity:1;fill-rule:evenodd;stroke:#ef8a10;stroke-width:1pt;stroke-linecap:butt;stroke-linejoin:miter;stroke-opacity:1" />
      <path
         d="M 86.87511,48.45473 C 86.87511,48.45473 91.09393,42.6734 90.00013,36.89215 C 88.90633,31.1109 82.34381,34.70458 82.34381,36.7359 C 82.34381,38.76723 86.09381,41.73598 86.25011,42.98598 C 86.40631,44.23598 85.46881,47.98598 86.87511,48.45473 z "
         id="path749"
         style="fill:#ffd200;fill-opacity:1;fill-rule:evenodd;stroke:#ef8a10;stroke-width:1pt;stroke-linecap:butt;stroke-linejoin:miter;stroke-opacity:1" />
      <path
         d="M 74.21885,52.36095 C 74.21885,52.36095 78.43767,46.57962 77.34387,40.79837 C 76.25007,35.01712 69.68755,38.6108 69.68755,40.64212 C 69.68755,42.67345 73.43755,45.6422 73.59385,46.8922 C 73.75005,48.1422 72.81255,51.8922 74.21885,52.36095 z "
         id="path750"
         style="fill:#ffd200;fill-opacity:1;fill-rule:evenodd;stroke:#ef8a10;stroke-width:1pt;stroke-linecap:butt;stroke-linejoin:miter;stroke-opacity:1" />
      <path
         d="M 65.31259,61.26717 C 65.31259,61.26717 69.53141,55.48584 68.43761,49.70459 C 67.34381,43.92334 60.78129,47.51702 60.78129,49.54834 C 60.78129,51.57967 64.53129,54.54842 64.68759,55.79842 C 64.84379,57.04842 63.90629,60.79842 65.31259,61.26717 z "
         id="path751"
         style="fill:#ffd200;fill-opacity:1;fill-rule:evenodd;stroke:#ef8a10;stroke-width:1pt;stroke-linecap:butt;stroke-linejoin:miter;stroke-opacity:1" />
      <path
         d="M 55.93758,69.86083 C 55.93758,69.86083 60.1564,64.0795 59.0626,58.29825 C 57.9688,52.517 51.40628,56.11068 51.40628,58.142 C 51.40628,60.17333 55.15628,63.14208 55.31258,64.39208 C 55.46878,65.64208 54.53128,69.39208 55.93758,69.86083 z "
         id="path753"
         style="fill:#ffd200;fill-opacity:1;fill-rule:evenodd;stroke:#ef8a10;stroke-width:1pt;stroke-linecap:butt;stroke-linejoin:miter;stroke-opacity:1" />
      <path
         d="M 77.49285,19.7976 C 77.49285,19.7976 71.87469,24.2314 71.37347,30.09383 C 70.87225,35.95625 78.15945,34.25979 78.70572,32.30331 C 79.252,30.34681 76.43852,26.47895 76.62413,25.23297 C 76.80984,23.98701 78.72128,20.62728 77.49285,19.7976 z "
         id="path755"
         style="fill:#ffd200;fill-rule:evenodd;stroke:#ef8a10;stroke-width:1" />
      <path
         d="M 96.24287,14.01624 C 96.24287,14.01624 90.62471,18.45004 90.12349,24.31247 C 89.62227,30.17489 96.90947,28.47843 97.45574,26.52195 C 98.00202,24.56545 95.18854,20.69759 95.37415,19.45161 C 95.55986,18.20565 97.4713,14.84592 96.24287,14.01624 z "
         id="path756"
         style="fill:#ffd200;fill-rule:evenodd;stroke:#ef8a10;stroke-width:1" />
      <path
         d="M 26.36997,64.6321 C 26.36997,64.6321 27.55674,71.68999 32.45624,74.94793 C 37.35575,78.20586 39.37162,71.00049 37.91871,69.58088 C 36.46579,68.16126 31.72163,68.76874 30.71833,68.00697 C 29.71509,67.24511 27.68806,63.95383 26.36997,64.6321 z "
         id="path757"
         style="fill:#ffd200;fill-rule:evenodd;stroke:#ef8a10;stroke-width:1" />
      <path
         d="M 17.00551,88.59746 C 17.00551,88.59746 17.06359,95.75419 21.38756,99.74451 C 25.71154,103.7348 28.83924,96.93785 27.62856,95.30675 C 26.41788,93.67563 21.6373,93.52682 20.76679,92.61626 C 19.89635,91.70562 18.41412,88.1357 17.00551,88.59746 z "
         id="path758"
         style="fill:#ffd200;fill-rule:evenodd;stroke:#ef8a10" />
      <path
         d="M 38.6104,115.3692 C 38.6104,115.3692 36.05603,108.6835 30.61059,106.455 C 25.16513,104.2265 24.60872,111.6878 26.3129,112.7933 C 28.01708,113.8987 32.54849,112.3682 33.68225,112.9174 C 34.81594,113.4666 37.4518,116.2938 38.6104,115.3692 z "
         id="path759"
         style="fill:#ffd200;fill-rule:evenodd;stroke:#ef8a10" />
      <path
         d="M 34.12182,103.7961 C 34.12182,103.7961 38.45245,98.09801 37.47139,92.29658 C 36.49031,86.49514 29.85911,89.96037 29.81952,91.99133 C 29.78002,94.02223 33.47154,97.06341 33.60342,98.31626 C 33.73526,99.56906 32.725,103.3 34.12182,103.7961 z "
         id="path760"
         style="fill:#ffd200;fill-rule:evenodd;stroke:#ef8a10" />
      <path
         d="M 169.1588,48.76138 C 169.1588,48.76138 175.6576,45.76356 177.5152,40.18068 C 179.3728,34.5978 171.891,34.54399 170.9025,36.3186 C 169.9141,38.09321 171.7456,42.51154 171.2739,43.67963 C 170.8021,44.84767 168.1583,47.66756 169.1588,48.76138 z "
         id="path761"
         style="fill:#ffd200;fill-rule:evenodd;stroke:#ef8a10;stroke-width:1" />
      <path
         d="M 188.8142,58.56298 C 188.8142,58.56298 192.6369,52.5125 191.1589,46.81734 C 189.6809,41.12218 183.3735,45.14665 183.5093,47.17346 C 183.6452,49.20021 187.5853,51.91152 187.8249,53.14827 C 188.0643,54.38504 187.3797,58.18934 188.8142,58.56298 z "
         id="path762"
         style="fill:#ffd200;fill-rule:evenodd;stroke:#ef8a10" />
      <path
         d="M 242.4477,114.2506 C 242.4477,114.2506 239.8842,107.5686 234.4357,105.3476 C 228.9871,103.1265 228.4409,110.5885 230.1466,111.6917 C 231.8524,112.7947 236.3816,111.2581 237.5162,111.8056 C 238.6507,112.3533 241.2903,115.177 242.4477,114.2506 z "
         id="path763"
         style="fill:#ffd200;fill-rule:evenodd;stroke:#ef8a10" />
      <path
         d="M 216.2228,118.397 C 216.2228,118.397 216.3715,111.2417 220.7456,107.3064 C 225.1198,103.371 228.1611,110.2069 226.9299,111.8227 C 225.6986,113.4383 220.9168,113.5266 220.0346,114.4261 C 219.1527,115.3257 217.6256,118.8766 216.2228,118.397 z "
         id="path765"
         style="fill:#ffd200;fill-rule:evenodd;stroke:#ef8a10" />
      <path
         d="M 212.0028,42.51974 C 212.0028,42.51974 205.3124,39.97837 200.0255,42.56076 C 194.7385,45.14322 199.9383,50.52284 201.8976,49.98622 C 203.8567,49.44947 205.7291,45.04863 206.8935,44.5674 C 208.0579,44.08648 211.9223,44.00007 212.0028,42.51974 z "
         id="path766"
         style="fill:#ffd200;fill-rule:evenodd;stroke:#ef8a10" />
      <path
         d="M 196.6903,29.70721 C 196.6903,29.70721 189.9999,27.16584 184.713,29.74823 C 179.426,32.33069 184.6258,37.71031 186.5851,37.17369 C 188.5442,36.63694 190.4166,32.2361 191.581,31.75487 C 192.7454,31.27395 196.6098,31.18754 196.6903,29.70721 z "
         id="path767"
         style="fill:#ffd200;fill-rule:evenodd;stroke:#ef8a10" />
      <path
         d="M 173.8559,17.48938 C 173.8559,17.48938 168.1839,21.85389 167.6108,27.70979 C 167.0378,33.56582 174.345,31.95874 174.9153,30.009 C 175.4855,28.05935 172.7198,24.15751 172.9206,22.91368 C 173.1216,21.67001 175.0742,18.33409 173.8559,17.48938 z "
         id="path768"
         style="fill:#ffd200;fill-rule:evenodd;stroke:#ef8a10" />
      <path
         d="M 158.9936,13.91197 C 158.9936,13.91197 156.407,20.58506 158.9537,25.88925 C 161.5004,31.19355 166.915,26.03031 166.3916,24.06741 C 165.8682,22.10469 161.48,20.20265 161.0068,19.03494 C 160.5337,17.86732 160.4734,14.00248 158.9936,13.91197 z "
         id="path769"
         style="fill:#ffd200;fill-rule:evenodd;stroke:#ef8a10" />
      <path
         d="M 116.8172,39.62728 C 116.8172,39.62728 121.4437,34.16684 120.7714,28.32148 C 120.0992,22.47602 113.2939,25.58488 113.1467,27.61102 C 112.9995,29.63699 116.5245,32.86939 116.5899,34.12764 C 116.6552,35.38577 115.4484,39.05786 116.8172,39.62728 z "
         id="path770"
         style="fill:#ffd200;fill-rule:evenodd;stroke:#ef8a10" />
    </g>
    <path
       d="M 522.2306,103.73821 C 522.2306,103.73821 543.5187,105.07799 544.56088,117.28523 C 545.60286,129.49245 539.49935,136.93584 539.49935,136.93584 C 539.49935,136.93584 542.17898,163.28544 521.33739,171.02672 C 499.0071,173.70645 464.0229,171.62223 464.0229,171.62223 C 464.0229,171.62223 453.75087,174.15315 449.58256,152.86483 C 445.41424,131.57653 444.22329,116.54092 444.22329,116.54092 C 444.22329,116.54092 446.30745,104.63131 461.34327,103.887 C 476.37889,103.14272 522.08163,104.03595 522.2306,103.73821 z "
       id="path564"
       style="font-size:12px;fill:#8c8a8c;fill-rule:evenodd;stroke:#000000;stroke-width:1.91964602" />
    <path
       d="M 539.35039,136.78699 C 539.35039,136.78699 527.8876,151.07829 529.07855,156.88417"
       id="path565"
       style="font-size:12px;fill:none;fill-rule:evenodd;stroke:#000000;stroke-width:1.91964602;stroke-linecap:round" />
    <path
       d="M 524.01702,170.28243 C 526.84562,172.66427 529.52506,175.34385 530.12054,184.12719 C 530.71601,192.91053 531.31148,201.69375 531.31148,201.69375 L 546.19834,335.67544 L 559.29877,432.58896 L 560.19198,447.62478 C 560.19198,447.62478 557.06584,458.64106 548.2825,459.53427 C 541.88125,472.93244 507.19497,476.80321 503.7709,476.65425 C 500.64475,476.50547 489.62829,471.89045 482.9293,472.48593 C 476.23012,473.08121 464.61837,477.54727 459.40788,476.80302 C 454.19758,476.05877 442.43686,472.03923 440.35276,463.55381 C 425.76363,458.93879 423.38173,447.77356 423.38173,447.77356 L 439.16183,335.67544 L 454.49531,193.95257 C 454.49531,193.95257 456.28174,175.04624 463.87394,172.21772 C 471.76406,171.47342 512.55405,172.96201 524.01702,170.28243 z "
       id="path566"
       style="font-size:12px;fill:#8c8a8c;fill-rule:evenodd;stroke:#000000;stroke-width:1.91964602" />
    <path
       d="M 443.62781,364.25821 L 440.50163,463.40485"
       id="path567"
       style="font-size:12px;fill:none;fill-rule:evenodd;stroke:#000000;stroke-width:1.91964602" />
    <path
       d="M 539.94586,377.35864 L 548.7292,459.08757"
       id="path568"
       style="font-size:12px;fill:none;fill-rule:evenodd;stroke:#000000;stroke-width:1.91964602" />
    <path
       d="M 285.28442,312.73994 L 284.95789,313.88367"
       id="path571"
       style="font-size:12px;fill:none;fill-rule:evenodd;stroke:#000000" />
    <path
       d="M 697.11928,309.14588 L 697.44581,310.2896"
       id="path579"
       style="font-size:12px;fill:none;fill-rule:evenodd;stroke:#000000" />
    <path
       d="M 274.2356,178.88886 C 274.2356,178.88886 280.75779,187.91956 281.92843,193.10385 C 283.09909,198.28811 285.27314,208.48949 288.11614,212.67029 C 290.95915,216.85108 307.18099,240.09685 308.01717,249.79663 C 308.18439,256.15142 301.32774,267.0218 291.12637,267.18881 C 284.77142,267.0218 268.38237,262.841 267.71343,248.79323 C 267.04448,234.74545 272.73048,234.41085 273.39942,225.88187 C 274.06836,217.35288 274.2356,179.0561 274.2356,178.88886 z "
       id="path583"
       style="font-size:12px;fill:none;fill-rule:evenodd;stroke:#6b18b5;stroke-width:1.91964602;stroke-linejoin:round" />
    <path
       d="M 386.28361,55.916948 C 386.28361,55.916948 379.53106,56.398491 374.33239,59.216781 C 370.30442,61.700553 363.48156,65.274109 358.71314,71.885043 C 346.58633,81.338877 328.34186,85.75032 322.5883,93.604091 C 319.14407,98.947137 319.35563,111.79761 327.98561,117.23996 C 333.50248,120.39876 349.67834,125.34052 357.54782,113.6847 C 365.41729,102.0289 360.7326,98.789112 364.59186,91.153855 C 370.95965,73.65177 386.19675,56.059885 386.28361,55.916948 z "
       id="path584"
       style="font-size:12px;fill:none;fill-rule:evenodd;stroke:#6b18b5;stroke-linejoin:round" />
    <path
       d="M 550.0789,38.857438 C 550.0789,38.857438 545.0358,34.341432 539.39473,32.567257 C 534.8085,31.401302 527.17023,31.908473 519.26628,31.13284 C 504.03888,28.997195 488.34078,17.984633 478.69629,19.314466 C 472.46186,20.556865 463.37732,29.648051 465.4707,39.633819 C 467.03905,45.794405 473.92904,58.254251 487.77698,55.799773 C 501.62473,53.34516 501.50533,50.324462 509.67515,47.785634 C 529.60165,36.612546 549.91592,38.89464 550.0789,38.857438 z "
       id="path585"
       style="font-size:12px;fill:none;fill-rule:evenodd;stroke:#6b18b5;stroke-linejoin:round" />
    <path
       d="M 712.52338,196.74156 C 713.66019,194.14311 711.56643,189.25905 710.07909,183.5358 C 708.63533,179.02916 706.48014,172.0348 701.20783,165.81826 C 694.94307,151.77593 696.01673,132.51883 689.77461,125.04745 C 685.4151,120.42087 672.88998,117.5402 665.53428,124.61058 C 661.1429,129.20744 652.46111,143.72282 661.8858,154.16144 C 671.3105,164.59974 675.41816,160.66779 681.90311,166.24781 C 697.36374,176.63252 704.93502,194.83674 712.52338,196.74156 z "
       id="path586"
       style="font-size:12px;fill:none;fill-rule:evenodd;stroke:#6b18b5;stroke-linejoin:round" />
    <path
       d="M 706.98117,319.40625 C 709.0924,316.48302 712.87275,310.84924 712.42317,306.15705 C 712.06727,302.4408 714.12628,291.17498 714.35127,286.2603 C 715.74858,270.94748 725.33356,258.51815 722.72706,245.21385 C 721.18501,239.0468 712.1525,230.24983 702.27976,232.82331 C 696.20197,234.68748 682.6702,242.13359 685.79096,255.84658 C 688.91212,269.55976 693.34285,269.33248 696.27338,277.37004 C 704.68642,293.98611 699.30335,313.72372 706.98117,319.40625 z "
       id="path587"
       style="font-size:12px;fill:none;fill-rule:evenodd;stroke:#6b18b5;stroke-linejoin:round" />
    <path
       d="M 594.29008,416.75745 C 594.29008,416.75745 591.69433,421.7493 602.07751,426.14222"
       id="path589"
       style="font-size:12px;fill:none;fill-rule:evenodd;stroke:#000000;stroke-width:1.91964602" />
    <path
       d="M 615.05623,404.97658 C 615.05623,404.97658 626.63746,402.1812 634.42469,404.97658"
       id="path590"
       style="font-size:12px;fill:none;fill-rule:evenodd;stroke:#000000;stroke-width:1.91964602" />
    <path
       d="M 649.59988,375.82407 C 649.59988,376.02391 648.00254,381.01576 657.18766,388.20406"
       id="path591"
       style="font-size:12px;fill:none;fill-rule:evenodd;stroke:#000000;stroke-width:1.91964602" />
    <path
       d="M 656.18925,362.84535 C 656.18925,362.84535 662.97808,367.83719 674.35966,367.63755"
       id="path592"
       style="font-size:12px;fill:none;fill-rule:evenodd;stroke:#000000;stroke-width:1.91964602" />
    <path
       d="M 587.70089,377.4216 C 587.70089,377.4216 588.10018,390.59997 581.31135,396.78987"
       id="path593"
       style="font-size:12px;fill:none;fill-rule:evenodd;stroke:#000000;stroke-width:1.91964602" />
    <path
       d="M 610.46367,357.05473 C 610.46367,357.05473 621.64542,359.85012 630.83054,355.25775"
       id="path594"
       style="font-size:12px;fill:none;fill-rule:evenodd;stroke:#000000;stroke-width:1.91964602" />
    <path
       d="M 682.1469,337.68627 C 682.1469,337.68627 684.543,341.08078 696.9228,340.48185"
       id="path595"
       style="font-size:12px;fill:none;fill-rule:evenodd;stroke:#000000;stroke-width:1.91964602" />
    <path
       d="M 633.82576,329.89904 C 634.22505,330.09868 648.40183,334.69124 657.38731,330.49816"
       id="path596"
       style="font-size:12px;fill:none;fill-rule:evenodd;stroke:#000000;stroke-width:1.91964602" />
    <path
       d="M 662.17951,275.58764 C 662.17951,275.58764 662.77844,274.78888 667.17136,290.1639"
       id="path597"
       style="font-size:12px;fill:none;fill-rule:evenodd;stroke:#000000;stroke-width:1.91964602" />
    <path
       d="M 673.16161,232.25836 C 673.16161,232.25836 672.56249,240.44488 665.97331,244.03903"
       id="path598"
       style="font-size:12px;fill:none;fill-rule:evenodd;stroke:#000000;stroke-width:1.91964602" />
    <path
       d="M 715.29285,198.71293 C 715.29285,198.71293 705.70844,206.50016 707.50562,209.69503"
       id="path599"
       style="font-size:12px;fill:none;fill-rule:evenodd;stroke:#000000;stroke-width:1.91964602" />
    <path
       d="M 667.57064,193.12211 C 667.57064,193.12211 672.56249,201.50831 664.37597,207.29893"
       id="path600"
       style="font-size:12px;fill:none;fill-rule:evenodd;stroke:#000000;stroke-width:1.91964602" />
    <path
       d="M 643.40998,157.18073 C 643.40998,157.18073 651.99598,156.7812 655.78978,164.16924"
       id="path601"
       style="font-size:12px;fill:none;fill-rule:evenodd;stroke:#000000;stroke-width:1.91964602" />
    <path
       d="M 627.23639,132.82054 L 633.82576,132.82039"
       id="path602"
       style="font-size:12px;fill:none;fill-rule:evenodd;stroke:#000000;stroke-width:1.91964602" />
    <path
       d="M 661.38075,102.86922 C 661.38075,103.06883 663.17773,104.66611 659.78341,108.0607"
       id="path603"
       style="font-size:12px;fill:none;fill-rule:evenodd;stroke:#000000;stroke-width:1.91964602" />
    <path
       d="M 600.08069,103.66785 C 600.08069,103.66785 604.67325,110.85612 603.87449,119.6418"
       id="path604"
       style="font-size:12px;fill:none;fill-rule:evenodd;stroke:#000000;stroke-width:1.91964602" />
    <path
       d="M 626.63746,79.307585 C 628.63408,79.10798 635.4231,76.112776 635.4231,76.112776"
       id="path605"
       style="font-size:12px;fill:none;fill-rule:evenodd;stroke:#000000;stroke-width:1.91964602" />
    <path
       d="M 597.08547,50.754117 C 596.88582,50.754117 594.48972,59.739424 598.88264,62.934252"
       id="path606"
       style="font-size:12px;fill:none;fill-rule:evenodd;stroke:#000000;stroke-width:1.91964602" />
    <path
       d="M 586.10336,91.687555 C 586.10336,101.272 593.69115,98.875669 588.49966,108.06075"
       id="path607"
       style="font-size:12px;fill:none;fill-rule:evenodd;stroke:#000000;stroke-width:1.91964602" />
    <path
       d="M 567.53367,83.700426 C 567.33402,83.700426 555.55335,92.88551 555.55335,94.482924"
       id="path608"
       style="font-size:12px;fill:none;fill-rule:evenodd;stroke:#000000;stroke-width:1.91964602" />
    <path
       d="M 536.78382,78.708578 C 536.78382,78.708578 541.77567,83.700291 540.57761,90.489312"
       id="path609"
       style="font-size:12px;fill:none;fill-rule:evenodd;stroke:#000000;stroke-width:1.91964602" />
    <path
       d="M 522.20756,74.715139 C 522.20756,74.715139 519.61182,82.302655 516.2175,84.299451"
       id="path610"
       style="font-size:12px;fill:none;fill-rule:evenodd;stroke:#000000;stroke-width:1.91964602" />
    <path
       d="M 495.65099,72.718323 C 495.45134,73.117725 491.45771,81.703629 488.66232,83.301044"
       id="path611"
       style="font-size:12px;fill:none;fill-rule:evenodd;stroke:#000000;stroke-width:1.91964602" />
    <path
       d="M 459.31017,72.918101 C 459.50981,72.918101 463.30361,80.905153 458.31176,86.69563"
       id="path612"
       style="font-size:12px;fill:none;fill-rule:evenodd;stroke:#000000;stroke-width:1.91964602" />
    <path
       d="M 450.92381,31.585492 C 451.12345,31.785097 451.72258,37.775218 447.92878,42.966843"
       id="path613"
       style="font-size:12px;fill:none;fill-rule:evenodd;stroke:#000000;stroke-width:1.91964602" />
    <path
       d="M 414.98245,45.163264 C 414.98245,45.363022 416.57987,51.952437 405.99711,54.148704"
       id="path614"
       style="font-size:12px;fill:none;fill-rule:evenodd;stroke:#000000;stroke-width:1.91964602" />
    <path
       d="M 394.61566,106.06403 C 394.81534,106.46328 404.79908,108.0607 404.79908,108.0607"
       id="path615"
       style="font-size:12px;fill:none;fill-rule:evenodd;stroke:#000000;stroke-width:1.91964602" />
    <path
       d="M 369.65635,129.22627 C 369.85603,129.02649 381.8365,125.43244 381.8365,125.43244"
       id="path616"
       style="font-size:12px;fill:none;fill-rule:evenodd;stroke:#000000;stroke-width:1.91964602" />
    <path
       d="M 350.28793,144.20183 C 350.68729,144.20183 358.67426,145.59962 360.671,144.60121"
       id="path617"
       style="font-size:12px;fill:none;fill-rule:evenodd;stroke:#000000;stroke-width:1.91964602" />
    <path
       d="M 344.69705,151.58972 C 344.69705,151.58972 347.29282,152.98751 345.0964,166.36566"
       id="path618"
       style="font-size:12px;fill:none;fill-rule:evenodd;stroke:#000000;stroke-width:1.91964602" />
    <path
       d="M 305.76053,116.44713 L 310.55271,123.6354"
       id="path619"
       style="font-size:12px;fill:none;fill-rule:evenodd;stroke:#000000;stroke-width:1.91964602" />
    <path
       d="M 289.38721,153.3869 C 289.38721,153.18714 294.1794,160.57503 300.569,161.97282"
       id="path620"
       style="font-size:12px;fill:none;fill-rule:evenodd;stroke:#000000;stroke-width:1.91964602" />
    <path
       d="M 327.12569,190.92569 C 327.32537,190.92569 334.913,189.32812 336.11105,188.52949"
       id="path621"
       style="font-size:12px;fill:none;fill-rule:evenodd;stroke:#000000;stroke-width:1.91964602" />
    <path
       d="M 323.73122,218.08139 C 323.9309,218.08139 323.53155,213.08954 329.72145,209.69503"
       id="path622"
       style="font-size:12px;fill:none;fill-rule:evenodd;stroke:#000000;stroke-width:1.91964602" />
    <path
       d="M 315.54458,230.46118 C 315.54458,230.66083 321.33513,237.84913 325.32863,238.84754"
       id="path623"
       style="font-size:12px;fill:none;fill-rule:evenodd;stroke:#000000;stroke-width:1.91964602" />
    <path
       d="M 312.15011,244.23887 C 312.74913,244.03903 318.93903,238.6477 326.12732,239.04718"
       id="path624"
       style="font-size:12px;fill:none;fill-rule:evenodd;stroke:#000000;stroke-width:1.91964602" />
    <path
       d="M 310.15337,262.80837 C 310.15337,262.80837 310.35303,268.99846 328.72308,267.40112"
       id="path625"
       style="font-size:12px;fill:none;fill-rule:evenodd;stroke:#000000;stroke-width:1.91964602" />
    <path
       d="M 311.95043,284.57293 C 311.95043,284.37329 317.34164,272.19313 328.32374,267.60057"
       id="path626"
       style="font-size:12px;fill:none;fill-rule:evenodd;stroke:#000000;stroke-width:1.91964602" />
    <path
       d="M 326.72634,300.1476 C 326.72634,300.1476 328.32374,294.95591 337.50876,291.36195"
       id="path627"
       style="font-size:12px;fill:none;fill-rule:evenodd;stroke:#000000;stroke-width:1.91964602" />
    <path
       d="M 336.90974,320.71392 C 336.90974,320.71392 343.499,315.32278 345.8951,314.52421"
       id="path628"
       style="font-size:12px;fill:none;fill-rule:evenodd;stroke:#000000;stroke-width:1.91964602" />
    <path
       d="M 345.0964,336.68806 C 345.0964,336.68806 349.08987,340.88114 359.07361,333.69283"
       id="path629"
       style="font-size:12px;fill:none;fill-rule:evenodd;stroke:#000000;stroke-width:1.91964602" />
    <path
       d="M 296.97484,340.08238 C 298.1729,339.88273 312.74913,336.48841 317.741,344.07601"
       id="path630"
       style="font-size:12px;fill:none;fill-rule:evenodd;stroke:#000000;stroke-width:1.91964602" />
    <path
       d="M 302.76542,352.06289 C 302.76542,352.06289 318.14034,350.06607 320.13708,351.6636"
       id="path631"
       style="font-size:12px;fill:none;fill-rule:evenodd;stroke:#000000;stroke-width:1.91964602" />
    <path
       d="M 357.67589,355.25775 C 357.67589,355.25775 355.67914,359.45103 374.64821,352.46236"
       id="path632"
       style="font-size:12px;fill:none;fill-rule:evenodd;stroke:#000000;stroke-width:1.91964602" />
    <path
       d="M 381.23749,362.84535 C 377.84302,368.63577 382.03618,373.22833 377.64334,375.82407"
       id="path633"
       style="font-size:12px;fill:none;fill-rule:evenodd;stroke:#000000;stroke-width:1.91964602" />
    <path
       d="M 323.53155,370.83222 C 324.13058,370.43313 330.52016,368.23667 329.52179,359.05155"
       id="path634"
       style="font-size:12px;fill:none;fill-rule:evenodd;stroke:#000000;stroke-width:1.91964602" />
    <path
       d="M 329.32211,384.60991 C 330.12082,384.41027 340.70355,379.8177 342.89998,382.21381"
       id="path635"
       style="font-size:12px;fill:none;fill-rule:evenodd;stroke:#000000;stroke-width:1.91964602" />
    <path
       d="M 350.08824,397.98811 C 350.08824,397.98811 351.48598,388.60335 354.48108,387.60513"
       id="path636"
       style="font-size:12px;fill:none;fill-rule:evenodd;stroke:#000000;stroke-width:1.91964602" />
    <path
       d="M 366.06221,412.16489 C 366.06221,412.16489 374.8479,411.96525 378.64171,409.16986"
       id="path637"
       style="font-size:12px;fill:none;fill-rule:evenodd;stroke:#000000;stroke-width:1.91964602" />
    <path
       d="M 383.03453,380.41683 C 383.23421,380.61647 391.22121,384.80955 408.19353,380.61647"
       id="path638"
       style="font-size:12px;fill:none;fill-rule:evenodd;stroke:#000000;stroke-width:1.91964602" />
    <path
       d="M 389.42413,418.55462 C 389.42413,418.55462 391.82023,430.73459 391.62055,433.53017"
       id="path639"
       style="font-size:12px;fill:none;fill-rule:evenodd;stroke:#000000;stroke-width:1.91964602" />
    <g
       id="g915"
       style="font-size:12px;fill:#de2010"
       transform="matrix(1.919646,0,0,1.919646,249.652,3.73808)">
      <path
         d="M 232.84123,119.0314 C 232.84302,116.92263 232.04716,114.97296 230.75386,113.91784 C 229.46057,112.86273 227.86664,112.86273 226.57335,113.91784 C 225.28005,114.97296 224.48419,116.92263 224.48598,119.0314 C 224.48419,121.14017 225.28005,123.08984 226.57335,124.14496 C 227.86664,125.20007 229.46057,125.20007 230.75386,124.14496 C 232.04716,123.08984 232.84302,121.14017 232.84123,119.0314 z "
         id="path647"
         style="fill-opacity:1;fill-rule:evenodd;stroke:#000000;stroke-width:1pt;stroke-linecap:butt;stroke-linejoin:miter;stroke-opacity:1"
         transform="matrix(0.963093,-0.120385,0.124033,0.992278,-6.447513,28.44685)" />
      <path
         d="M 232.84123,119.0314 C 232.84302,116.92263 232.04716,114.97296 230.75386,113.91784 C 229.46057,112.86273 227.86664,112.86273 226.57335,113.91784 C 225.28005,114.97296 224.48419,116.92263 224.48598,119.0314 C 224.48419,121.14017 225.28005,123.08984 226.57335,124.14496 C 227.86664,125.20007 229.46057,125.20007 230.75386,124.14496 C 232.04716,123.08984 232.84302,121.14017 232.84123,119.0314 z "
         id="path648"
         style="fill-opacity:1;fill-rule:evenodd;stroke:#000000;stroke-width:1pt;stroke-linecap:butt;stroke-linejoin:miter;stroke-opacity:1"
         transform="matrix(0.963093,-0.120385,0.124033,0.992278,-7.307613,17.87991)" />
      <path
         d="M 232.84123,119.0314 C 232.84302,116.92263 232.04716,114.97296 230.75386,113.91784 C 229.46057,112.86273 227.86664,112.86273 226.57335,113.91784 C 225.28005,114.97296 224.48419,116.92263 224.48598,119.0314 C 224.48419,121.14017 225.28005,123.08984 226.57335,124.14496 C 227.86664,125.20007 229.46057,125.20007 230.75386,124.14496 C 232.04716,123.08984 232.84302,121.14017 232.84123,119.0314 z "
         id="path649"
         style="fill-opacity:1;fill-rule:evenodd;stroke:#000000;stroke-width:1pt;stroke-linecap:butt;stroke-linejoin:miter;stroke-opacity:1"
         transform="matrix(0.948788,-0.204553,0.210751,0.97754,-16.44761,27.94469)" />
      <path
         d="M 232.84123,119.0314 C 232.84302,116.92263 232.04716,114.97296 230.75386,113.91784 C 229.46057,112.86273 227.86664,112.86273 226.57335,113.91784 C 225.28005,114.97296 224.48419,116.92263 224.48598,119.0314 C 224.48419,121.14017 225.28005,123.08984 226.57335,124.14496 C 227.86664,125.20007 229.46057,125.20007 230.75386,124.14496 C 232.04716,123.08984 232.84302,121.14017 232.84123,119.0314 z "
         id="path650"
         style="fill-opacity:1;fill-rule:evenodd;stroke:#000000;stroke-width:1pt;stroke-linecap:butt;stroke-linejoin:miter;stroke-opacity:1"
         transform="matrix(0.865296,-0.439662,0.452985,0.891519,-29.75283,81.13217)" />
      <path
         d="M 232.84123,119.0314 C 232.84302,116.92263 232.04716,114.97296 230.75386,113.91784 C 229.46057,112.86273 227.86664,112.86273 226.57335,113.91784 C 225.28005,114.97296 224.48419,116.92263 224.48598,119.0314 C 224.48419,121.14017 225.28005,123.08984 226.57335,124.14496 C 227.86664,125.20007 229.46057,125.20007 230.75386,124.14496 C 232.04716,123.08984 232.84302,121.14017 232.84123,119.0314 z "
         id="path651"
         style="fill-opacity:1;fill-rule:evenodd;stroke:#000000;stroke-width:1pt;stroke-linecap:butt;stroke-linejoin:miter;stroke-opacity:1"
         transform="matrix(0.865296,-0.439662,0.452985,0.891519,-33.93046,71.67111)" />
      <path
         d="M 232.84123,119.0314 C 232.84302,116.92263 232.04716,114.97296 230.75386,113.91784 C 229.46057,112.86273 227.86664,112.86273 226.57335,113.91784 C 225.28005,114.97296 224.48419,116.92263 224.48598,119.0314 C 224.48419,121.14017 225.28005,123.08984 226.57335,124.14496 C 227.86664,125.20007 229.46057,125.20007 230.75386,124.14496 C 232.04716,123.08984 232.84302,121.14017 232.84123,119.0314 z "
         id="path652"
         style="fill-opacity:1;fill-rule:evenodd;stroke:#000000;stroke-width:1pt;stroke-linecap:butt;stroke-linejoin:miter;stroke-opacity:1"
         transform="matrix(0.824956,-0.511358,0.526854,0.849957,-39.27391,83.79712)" />
      <path
         d="M 232.84123,119.0314 C 232.84302,116.92263 232.04716,114.97296 230.75386,113.91784 C 229.46057,112.86273 227.86664,112.86273 226.57335,113.91784 C 225.28005,114.97296 224.48419,116.92263 224.48598,119.0314 C 224.48419,121.14017 225.28005,123.08984 226.57335,124.14496 C 227.86664,125.20007 229.46057,125.20007 230.75386,124.14496 C 232.04716,123.08984 232.84302,121.14017 232.84123,119.0314 z "
         id="path653"
         style="fill-opacity:1;fill-rule:evenodd;stroke:#000000;stroke-width:1pt;stroke-linecap:butt;stroke-linejoin:miter;stroke-opacity:1"
         transform="matrix(0.771657,-0.588715,0.606556,0.795042,-42.96256,99.17577)" />
      <path
         d="M 232.84123,119.0314 C 232.84302,116.92263 232.04716,114.97296 230.75386,113.91784 C 229.46057,112.86273 227.86664,112.86273 226.57335,113.91784 C 225.28005,114.97296 224.48419,116.92263 224.48598,119.0314 C 224.48419,121.14017 225.28005,123.08984 226.57335,124.14496 C 227.86664,125.20007 229.46057,125.20007 230.75386,124.14496 C 232.04716,123.08984 232.84302,121.14017 232.84123,119.0314 z "
         id="path654"
         style="fill-opacity:1;fill-rule:evenodd;stroke:#000000;stroke-width:1pt;stroke-linecap:butt;stroke-linejoin:miter;stroke-opacity:1"
         transform="matrix(0.678166,-0.694357,0.715399,0.698717,-42.0354,126.6884)" />
      <path
         d="M 232.84123,119.0314 C 232.84302,116.92263 232.04716,114.97296 230.75386,113.91784 C 229.46057,112.86273 227.86664,112.86273 226.57335,113.91784 C 225.28005,114.97296 224.48419,116.92263 224.48598,119.0314 C 224.48419,121.14017 225.28005,123.08984 226.57335,124.14496 C 227.86664,125.20007 229.46057,125.20007 230.75386,124.14496 C 232.04716,123.08984 232.84302,121.14017 232.84123,119.0314 z "
         id="path655"
         style="fill-opacity:1;fill-rule:evenodd;stroke:#000000;stroke-width:1pt;stroke-linecap:butt;stroke-linejoin:miter;stroke-opacity:1"
         transform="matrix(0.611423,-0.753792,0.776636,0.629951,-42.66369,140.8465)" />
      <path
         d="M 232.84123,119.0314 C 232.84302,116.92263 232.04716,114.97296 230.75386,113.91784 C 229.46057,112.86273 227.86664,112.86273 226.57335,113.91784 C 225.28005,114.97296 224.48419,116.92263 224.48598,119.0314 C 224.48419,121.14017 225.28005,123.08984 226.57335,124.14496 C 227.86664,125.20007 229.46057,125.20007 230.75386,124.14496 C 232.04716,123.08984 232.84302,121.14017 232.84123,119.0314 z "
         id="path656"
         style="fill-opacity:1;fill-rule:evenodd;stroke:#000000;stroke-width:1pt;stroke-linecap:butt;stroke-linejoin:miter;stroke-opacity:1"
         transform="matrix(0.477798,-0.844837,0.87044,0.492276,-32.12083,172.155)" />
      <path
         d="M 232.84123,119.0314 C 232.84302,116.92263 232.04716,114.97296 230.75386,113.91784 C 229.46057,112.86273 227.86664,112.86273 226.57335,113.91784 C 225.28005,114.97296 224.48419,116.92263 224.48598,119.0314 C 224.48419,121.14017 225.28005,123.08984 226.57335,124.14496 C 227.86664,125.20007 229.46057,125.20007 230.75386,124.14496 C 232.04716,123.08984 232.84302,121.14017 232.84123,119.0314 z "
         id="path657"
         style="fill-opacity:1;fill-rule:evenodd;stroke:#000000;stroke-width:1pt;stroke-linecap:butt;stroke-linejoin:miter;stroke-opacity:1"
         transform="matrix(0.398926,-0.884815,0.91163,0.411014,-29.18694,185.5629)" />
      <path
         d="M 232.84123,119.0314 C 232.84302,116.92263 232.04716,114.97296 230.75386,113.91784 C 229.46057,112.86273 227.86664,112.86273 226.57335,113.91784 C 225.28005,114.97296 224.48419,116.92263 224.48598,119.0314 C 224.48419,121.14017 225.28005,123.08984 226.57335,124.14496 C 227.86664,125.20007 229.46057,125.20007 230.75386,124.14496 C 232.04716,123.08984 232.84302,121.14017 232.84123,119.0314 z "
         id="path658"
         style="fill-opacity:1;fill-rule:evenodd;stroke:#000000;stroke-width:1pt;stroke-linecap:butt;stroke-linejoin:miter;stroke-opacity:1"
         transform="matrix(0.338708,-0.909569,0.937135,0.348971,-28.52852,194.5536)" />
      <path
         d="M 232.84123,119.0314 C 232.84302,116.92263 232.04716,114.97296 230.75386,113.91784 C 229.46057,112.86273 227.86664,112.86273 226.57335,113.91784 C 225.28005,114.97296 224.48419,116.92263 224.48598,119.0314 C 224.48419,121.14017 225.28005,123.08984 226.57335,124.14496 C 227.86664,125.20007 229.46057,125.20007 230.75386,124.14496 C 232.04716,123.08984 232.84302,121.14017 232.84123,119.0314 z "
         id="path659"
         style="fill-opacity:1;fill-rule:evenodd;stroke:#000000;stroke-width:1pt;stroke-linecap:butt;stroke-linejoin:miter;stroke-opacity:1"
         transform="matrix(0.268303,-0.932766,0.961035,0.276433,-25.47267,205.2976)" />
      <path
         d="M 232.84123,119.0314 C 232.84302,116.92263 232.04716,114.97296 230.75386,113.91784 C 229.46057,112.86273 227.86664,112.86273 226.57335,113.91784 C 225.28005,114.97296 224.48419,116.92263 224.48598,119.0314 C 224.48419,121.14017 225.28005,123.08984 226.57335,124.14496 C 227.86664,125.20007 229.46057,125.20007 230.75386,124.14496 C 232.04716,123.08984 232.84302,121.14017 232.84123,119.0314 z "
         id="path660"
         style="fill-opacity:1;fill-rule:evenodd;stroke:#000000;stroke-width:1pt;stroke-linecap:butt;stroke-linejoin:miter;stroke-opacity:1"
         transform="matrix(0.121447,-0.962959,0.992143,0.125126,-6.530337,228.3687)" />
      <path
         d="M 232.84123,119.0314 C 232.84302,116.92263 232.04716,114.97296 230.75386,113.91784 C 229.46057,112.86273 227.86664,112.86273 226.57335,113.91784 C 225.28005,114.97296 224.48419,116.92263 224.48598,119.0314 C 224.48419,121.14017 225.28005,123.08984 226.57335,124.14496 C 227.86664,125.20007 229.46057,125.20007 230.75386,124.14496 C 232.04716,123.08984 232.84302,121.14017 232.84123,119.0314 z "
         id="path663"
         style="fill-opacity:1;fill-rule:evenodd;stroke:#000000;stroke-width:1pt;stroke-linecap:butt;stroke-linejoin:miter;stroke-opacity:1"
         transform="matrix(3.894491e-2,-0.969806,0.999197,4.012356e-2,0.43684,239.4379)" />
      <path
         d="M 232.84123,119.0314 C 232.84302,116.92263 232.04716,114.97296 230.75386,113.91784 C 229.46057,112.86273 227.86664,112.86273 226.57335,113.91784 C 225.28005,114.97296 224.48419,116.92263 224.48598,119.0314 C 224.48419,121.14017 225.28005,123.08984 226.57335,124.14496 C 227.86664,125.20007 229.46057,125.20007 230.75386,124.14496 C 232.04716,123.08984 232.84302,121.14017 232.84123,119.0314 z "
         id="path664"
         style="fill-opacity:1;fill-rule:evenodd;stroke:#000000;stroke-width:1pt;stroke-linecap:butt;stroke-linejoin:miter;stroke-opacity:1"
         transform="matrix(3.894491e-2,-0.969806,0.999197,4.012356e-2,-10.00723,239.8066)" />
      <path
         d="M 232.84123,119.0314 C 232.84302,116.92263 232.04716,114.97296 230.75386,113.91784 C 229.46057,112.86273 227.86664,112.86273 226.57335,113.91784 C 225.28005,114.97296 224.48419,116.92263 224.48598,119.0314 C 224.48419,121.14017 225.28005,123.08984 226.57335,124.14496 C 227.86664,125.20007 229.46057,125.20007 230.75386,124.14496 C 232.04716,123.08984 232.84302,121.14017 232.84123,119.0314 z "
         id="path665"
         style="fill-opacity:1;fill-rule:evenodd;stroke:#000000;stroke-width:1pt;stroke-linecap:butt;stroke-linejoin:miter;stroke-opacity:1"
         transform="matrix(-0.216286,-0.946182,0.974857,-0.222842,40.07079,267.0575)" />
      <path
         d="M 232.84123,119.0314 C 232.84302,116.92263 232.04716,114.97296 230.75386,113.91784 C 229.46057,112.86273 227.86664,112.86273 226.57335,113.91784 C 225.28005,114.97296 224.48419,116.92263 224.48598,119.0314 C 224.48419,121.14017 225.28005,123.08984 226.57335,124.14496 C 227.86664,125.20007 229.46057,125.20007 230.75386,124.14496 C 232.04716,123.08984 232.84302,121.14017 232.84123,119.0314 z "
         id="path667"
         style="fill-opacity:1;fill-rule:evenodd;stroke:#000000;stroke-width:1pt;stroke-linecap:butt;stroke-linejoin:miter;stroke-opacity:1"
         transform="matrix(-0.29359,-0.925119,0.953155,-0.302489,49.5179,274.4248)" />
      <path
         d="M 232.84123,119.0314 C 232.84302,116.92263 232.04716,114.97296 230.75386,113.91784 C 229.46057,112.86273 227.86664,112.86273 226.57335,113.91784 C 225.28005,114.97296 224.48419,116.92263 224.48598,119.0314 C 224.48419,121.14017 225.28005,123.08984 226.57335,124.14496 C 227.86664,125.20007 229.46057,125.20007 230.75386,124.14496 C 232.04716,123.08984 232.84302,121.14017 232.84123,119.0314 z "
         id="path669"
         style="fill-opacity:1;fill-rule:evenodd;stroke:#000000;stroke-width:1pt;stroke-linecap:butt;stroke-linejoin:miter;stroke-opacity:1"
         transform="matrix(-0.401691,-0.883563,0.91034,-0.413866,69.62627,282.3576)" />
      <path
         d="M 232.84123,119.0314 C 232.84302,116.92263 232.04716,114.97296 230.75386,113.91784 C 229.46057,112.86273 227.86664,112.86273 226.57335,113.91784 C 225.28005,114.97296 224.48419,116.92263 224.48598,119.0314 C 224.48419,121.14017 225.28005,123.08984 226.57335,124.14496 C 227.86664,125.20007 229.46057,125.20007 230.75386,124.14496 C 232.04716,123.08984 232.84302,121.14017 232.84123,119.0314 z "
         id="path670"
         style="fill-opacity:1;fill-rule:evenodd;stroke:#000000;stroke-width:1pt;stroke-linecap:butt;stroke-linejoin:miter;stroke-opacity:1"
         transform="matrix(-0.475604,-0.846073,0.871714,-0.490019,81.29559,287.8874)" />
      <path
         d="M 232.84123,119.0314 C 232.84302,116.92263 232.04716,114.97296 230.75386,113.91784 C 229.46057,112.86273 227.86664,112.86273 226.57335,113.91784 C 225.28005,114.97296 224.48419,116.92263 224.48598,119.0314 C 224.48419,121.14017 225.28005,123.08984 226.57335,124.14496 C 227.86664,125.20007 229.46057,125.20007 230.75386,124.14496 C 232.04716,123.08984 232.84302,121.14017 232.84123,119.0314 z "
         id="path672"
         style="fill-opacity:1;fill-rule:evenodd;stroke:#000000;stroke-width:1pt;stroke-linecap:butt;stroke-linejoin:miter;stroke-opacity:1"
         transform="matrix(-0.564729,-0.789379,0.813302,-0.581845,99.41281,292.1202)" />
      <path
         d="M 232.84123,119.0314 C 232.84302,116.92263 232.04716,114.97296 230.75386,113.91784 C 229.46057,112.86273 227.86664,112.86273 226.57335,113.91784 C 225.28005,114.97296 224.48419,116.92263 224.48598,119.0314 C 224.48419,121.14017 225.28005,123.08984 226.57335,124.14496 C 227.86664,125.20007 229.46057,125.20007 230.75386,124.14496 C 232.04716,123.08984 232.84302,121.14017 232.84123,119.0314 z "
         id="path673"
         style="fill-opacity:1;fill-rule:evenodd;stroke:#000000;stroke-width:1pt;stroke-linecap:butt;stroke-linejoin:miter;stroke-opacity:1"
         transform="matrix(-0.629495,-0.738765,0.761154,-0.648574,111.8287,295.0017)" />
      <path
         d="M 232.84123,119.0314 C 232.84302,116.92263 232.04716,114.97296 230.75386,113.91784 C 229.46057,112.86273 227.86664,112.86273 226.57335,113.91784 C 225.28005,114.97296 224.48419,116.92263 224.48598,119.0314 C 224.48419,121.14017 225.28005,123.08984 226.57335,124.14496 C 227.86664,125.20007 229.46057,125.20007 230.75386,124.14496 C 232.04716,123.08984 232.84302,121.14017 232.84123,119.0314 z "
         id="path674"
         style="fill-opacity:1;fill-rule:evenodd;stroke:#000000;stroke-width:1pt;stroke-linecap:butt;stroke-linejoin:miter;stroke-opacity:1"
         transform="matrix(-0.680848,-0.691725,0.712688,-0.701484,121.7223,298.5299)" />
      <path
         d="M 232.84123,119.0314 C 232.84302,116.92263 232.04716,114.97296 230.75386,113.91784 C 229.46057,112.86273 227.86664,112.86273 226.57335,113.91784 C 225.28005,114.97296 224.48419,116.92263 224.48598,119.0314 C 224.48419,121.14017 225.28005,123.08984 226.57335,124.14496 C 227.86664,125.20007 229.46057,125.20007 230.75386,124.14496 C 232.04716,123.08984 232.84302,121.14017 232.84123,119.0314 z "
         id="path675"
         style="fill-opacity:1;fill-rule:evenodd;stroke:#000000;stroke-width:1pt;stroke-linecap:butt;stroke-linejoin:miter;stroke-opacity:1"
         transform="matrix(-0.736356,-0.632311,0.651473,-0.758675,135.1894,300.5982)" />
      <path
         d="M 232.84123,119.0314 C 232.84302,116.92263 232.04716,114.97296 230.75386,113.91784 C 229.46057,112.86273 227.86664,112.86273 226.57335,113.91784 C 225.28005,114.97296 224.48419,116.92263 224.48598,119.0314 C 224.48419,121.14017 225.28005,123.08984 226.57335,124.14496 C 227.86664,125.20007 229.46057,125.20007 230.75386,124.14496 C 232.04716,123.08984 232.84302,121.14017 232.84123,119.0314 z "
         id="path676"
         style="fill-opacity:1;fill-rule:evenodd;stroke:#000000;stroke-width:1pt;stroke-linecap:butt;stroke-linejoin:miter;stroke-opacity:1"
         transform="matrix(-0.799589,-0.550177,0.566849,-0.823825,153.8237,298.5415)" />
      <path
         d="M 232.84123,119.0314 C 232.84302,116.92263 232.04716,114.97296 230.75386,113.91784 C 229.46057,112.86273 227.86664,112.86273 226.57335,113.91784 C 225.28005,114.97296 224.48419,116.92263 224.48598,119.0314 C 224.48419,121.14017 225.28005,123.08984 226.57335,124.14496 C 227.86664,125.20007 229.46057,125.20007 230.75386,124.14496 C 232.04716,123.08984 232.84302,121.14017 232.84123,119.0314 z "
         id="path677"
         style="fill-opacity:1;fill-rule:evenodd;stroke:#000000;stroke-width:1pt;stroke-linecap:butt;stroke-linejoin:miter;stroke-opacity:1"
         transform="matrix(-0.882213,-0.404646,0.416907,-0.908952,185.7724,285.3494)" />
      <path
         d="M 232.84123,119.0314 C 232.84302,116.92263 232.04716,114.97296 230.75386,113.91784 C 229.46057,112.86273 227.86664,112.86273 226.57335,113.91784 C 225.28005,114.97296 224.48419,116.92263 224.48598,119.0314 C 224.48419,121.14017 225.28005,123.08984 226.57335,124.14496 C 227.86664,125.20007 229.46057,125.20007 230.75386,124.14496 C 232.04716,123.08984 232.84302,121.14017 232.84123,119.0314 z "
         id="path678"
         style="fill-opacity:1;fill-rule:evenodd;stroke:#000000;stroke-width:1pt;stroke-linecap:butt;stroke-linejoin:miter;stroke-opacity:1"
         transform="matrix(-0.915264,-0.323002,0.332788,-0.943004,199.4109,281.4235)" />
      <path
         d="M 232.84123,119.0314 C 232.84302,116.92263 232.04716,114.97296 230.75386,113.91784 C 229.46057,112.86273 227.86664,112.86273 226.57335,113.91784 C 225.28005,114.97296 224.48419,116.92263 224.48598,119.0314 C 224.48419,121.14017 225.28005,123.08984 226.57335,124.14496 C 227.86664,125.20007 229.46057,125.20007 230.75386,124.14496 C 232.04716,123.08984 232.84302,121.14017 232.84123,119.0314 z "
         id="path680"
         style="fill-opacity:1;fill-rule:evenodd;stroke:#000000;stroke-width:1pt;stroke-linecap:butt;stroke-linejoin:miter;stroke-opacity:1"
         transform="matrix(-0.966438,-7.186533e-2,9.236109e-2,-0.798217,236.4132,226.6072)" />
      <path
         d="M 232.84123,119.0314 C 232.84302,116.92263 232.04716,114.97296 230.75386,113.91784 C 229.46057,112.86273 227.86664,112.86273 226.57335,113.91784 C 225.28005,114.97296 224.48419,116.92263 224.48598,119.0314 C 224.48419,121.14017 225.28005,123.08984 226.57335,124.14496 C 227.86664,125.20007 229.46057,125.20007 230.75386,124.14496 C 232.04716,123.08984 232.84302,121.14017 232.84123,119.0314 z "
         id="path679"
         style="fill-opacity:1;fill-rule:evenodd;stroke:#000000;stroke-width:1pt;stroke-linecap:butt;stroke-linejoin:miter;stroke-opacity:1"
         transform="matrix(-0.946313,-0.215708,0.222242,-0.974994,217.2116,271.3869)" />
    </g>
    <path
       d="M 679.9299,195.91777 C 682.39569,193.27802 684.68986,192.53161 687.59294,193.49427 C 686.56919,186.53035 684.36563,184.16767 681.68119,185.00621 C 678.99676,185.84475 677.78182,189.4247 679.9299,195.91777 z "
       id="path666"
       style="font-size:12px;fill:#ffe300;fill-rule:evenodd;stroke-width:1" />
    <path
       d="M 683.70085,216.93401 C 686.3586,214.48762 688.70268,213.91633 691.52495,215.09499 C 691.02891,208.0737 689.00944,205.55166 686.26953,206.18553 C 683.52962,206.8194 682.04842,210.29761 683.70085,216.93401 z "
       id="path668"
       style="font-size:12px;fill:#ffe300;fill-rule:evenodd;stroke-width:1" />
    <path
       d="M 674.78429,176.73348 C 676.49892,173.55404 678.52837,172.24947 681.5806,172.44328 C 678.82188,165.96768 676.09061,164.24211 673.70698,165.7349 C 671.32355,167.2277 671.05768,170.99884 674.78429,176.73348 z "
       id="path671"
       style="font-size:12px;fill:#ffe300;fill-rule:evenodd;stroke-width:1" />
    <path
       d="M 665.43312,157.60593 C 667.14775,154.4265 669.1772,153.12193 672.22943,153.31574 C 669.47071,146.84014 666.73944,145.11457 664.35581,146.60736 C 661.97238,148.10015 661.70651,151.8713 665.43312,157.60593 z "
       id="path681"
       style="font-size:12px;fill:#ffe300;fill-rule:evenodd;stroke-width:1" />
    <path
       d="M 642.9963,122.56796 C 644.17765,119.15427 645.97117,117.54046 649.01477,117.24119 C 645.25111,111.29319 642.27796,110.02904 640.16539,111.88551 C 638.05282,113.74198 638.39644,117.50683 642.9963,122.56796 z "
       id="path682"
       style="font-size:12px;fill:#ffe300;fill-rule:evenodd;stroke-width:1" />
    <path
       d="M 628.33692,107.29844 C 629.3885,103.84254 631.11964,102.1621 634.1498,101.74802 C 630.16404,95.9465 627.1452,94.795615 625.10443,96.730599 C 623.06346,98.665583 623.54913,102.41475 628.33692,107.29844 z "
       id="path683"
       style="font-size:12px;fill:#ffe300;fill-rule:evenodd;stroke-width:1" />
    <path
       d="M 597.51355,81.289562 C 597.44962,77.677786 598.57914,75.545846 601.33441,74.218661 C 595.75554,69.926716 592.52899,69.761531 591.18351,72.230983 C 589.83765,74.70053 591.45438,78.117827 597.51355,81.289562 z "
       id="path684"
       style="font-size:12px;fill:#ffe300;fill-rule:evenodd;stroke-width:1" />
    <path
       d="M 613.55088,93.316238 C 614.11333,89.747943 615.59491,87.843788 618.53831,87.013753 C 613.78699,81.820611 610.63781,81.099227 608.88498,83.298374 C 607.13177,85.497559 608.13248,89.143216 613.55088,93.316238 z "
       id="path685"
       style="font-size:12px;fill:#ffe300;fill-rule:evenodd;stroke-width:1" />
    <path
       d="M 579.21183,71.190765 C 578.77569,67.604866 579.67908,65.367768 582.28269,63.763366 C 576.2909,60.069968 573.06436,60.238589 571.98091,62.833682 C 570.89708,65.428928 572.85781,68.66117 579.21183,71.190765 z "
       id="path686"
       style="font-size:12px;fill:#ffe300;fill-rule:evenodd;stroke-width:1" />
    <path
       d="M 560.51218,63.027355 C 559.56733,59.54076 560.1413,57.197409 562.48845,55.236952 C 556.02981,52.438991 552.86066,53.067598 552.1598,55.791019 C 551.45836,58.514651 553.86157,61.433051 560.51218,63.027355 z "
       id="path687"
       style="font-size:12px;fill:#ffe300;fill-rule:evenodd;stroke-width:1" />
    <path
       d="M 540.363,56.784321 C 539.12636,53.390233 539.49993,51.006704 541.67258,48.854589 C 535.00028,46.613422 531.89582,47.508054 531.42801,50.28104 C 530.95961,53.054276 533.60124,55.75875 540.363,56.784321 z "
       id="path688"
       style="font-size:12px;fill:#ffe300;fill-rule:evenodd;stroke-width:1" />
    <path
       d="M 520.56626,52.9524 C 519.08737,49.656637 519.28759,47.252318 521.29899,44.948724 C 514.48195,43.195953 511.45044,44.312765 511.18438,47.112319 C 510.91774,49.912161 513.74807,52.418508 520.56626,52.9524 z "
       id="path689"
       style="font-size:12px;fill:#ffe300;fill-rule:evenodd;stroke-width:1" />
    <path
       d="M 499.60699,51.345618 C 497.79427,48.220972 497.74417,45.80886 499.50583,43.309116 C 492.54385,42.272642 489.64442,43.697768 489.67014,46.509819 C 489.69529,49.322215 492.77017,51.521573 499.60699,51.345618 z "
       id="path690"
       style="font-size:12px;fill:#ffe300;fill-rule:evenodd;stroke-width:1" />
    <path
       d="M 458.56727,54.437381 C 456.05483,51.841942 455.42481,49.513028 456.53167,46.662334 C 449.52516,47.334882 447.05496,49.416988 447.75774,52.13991 C 448.46014,54.863273 451.97463,56.256437 458.56727,54.437381 z "
       id="path691"
       style="font-size:12px;fill:#ffe300;fill-rule:evenodd;stroke-width:1" />
    <path
       d="M 478.77497,51.778464 C 476.63686,48.866822 476.3278,46.47406 477.81034,43.799417 C 470.77734,43.51744 468.04798,45.246043 468.37586,48.039032 C 468.70316,50.832405 471.9967,52.688434 478.77497,51.778464 z "
       id="path692"
       style="font-size:12px;fill:#ffe300;fill-rule:evenodd;stroke-width:1" />
    <path
       d="M 438.74836,58.718825 C 435.88978,56.510406 434.93235,54.295884 435.61909,51.315959 C 428.78139,52.986071 426.6352,55.400832 427.72113,57.994869 C 428.80671,60.589385 432.48463,61.464283 438.74836,58.718825 z "
       id="path693"
       style="font-size:12px;fill:#ffe300;fill-rule:evenodd;stroke-width:1" />
    <path
       d="M 400.79888,76.167985 C 397.5724,74.543676 396.21119,72.551717 396.31852,69.495583 C 389.92337,72.435924 388.27572,75.214861 389.8353,77.554967 C 391.39459,79.895592 395.17178,80.054845 400.79888,76.167985 z "
       id="path694"
       style="font-size:12px;fill:#ffe300;fill-rule:evenodd;stroke-width:1" />
    <path
       d="M 419.0978,66.819845 C 416.09246,64.815715 414.98325,62.673179 415.46095,59.652693 C 408.75605,61.794595 406.7831,64.35285 408.04692,66.865033 C 409.31041,69.377715 413.0403,69.994536 419.0978,66.819845 z "
       id="path695"
       style="font-size:12px;fill:#ffe300;fill-rule:evenodd;stroke-width:1" />
    <path
       d="M 366.76334,99.866763 C 363.2692,98.950516 361.52277,97.285953 360.99083,94.274566 C 355.34888,98.483121 354.31655,101.54442 356.32955,103.50812 C 358.34239,105.47238 362.06985,104.84097 366.76334,99.866763 z "
       id="path696"
       style="font-size:12px;fill:#ffe300;fill-rule:evenodd;stroke-width:1" />
    <path
       d="M 382.9979,86.575539 C 379.58621,85.388584 377.97542,83.592429 377.68085,80.548638 C 371.72678,84.302621 370.45797,87.273714 372.31108,89.388972 C 374.16398,91.504768 377.92942,91.167083 382.9979,86.575539 z "
       id="path697"
       style="font-size:12px;fill:#ffe300;fill-rule:evenodd;stroke-width:1" />
    <path
       d="M 352.32958,114.08255 C 348.76661,113.48773 346.8761,111.98883 346.07261,109.03826 C 340.83659,113.74227 340.08683,116.88473 342.27001,118.65731 C 344.45307,120.43047 348.10769,119.46282 352.32958,114.08255 z "
       id="path698"
       style="font-size:12px;fill:#ffe300;fill-rule:evenodd;stroke-width:1" />
    <path
       d="M 339.39766,130.85999 C 335.7954,130.59102 333.77665,129.26992 332.70865,126.40447 C 327.92123,131.56432 327.4598,134.76188 329.79486,136.32898 C 332.12986,137.89666 335.68157,136.60126 339.39766,130.85999 z "
       id="path699"
       style="font-size:12px;fill:#ffe300;fill-rule:evenodd;stroke-width:1" />
    <path
       d="M 328.58197,148.02352 C 324.98102,148.30936 322.78376,147.31298 321.28956,144.64489 C 317.34876,150.477 317.38243,153.7075 319.92993,154.89854 C 322.47746,156.09016 325.7889,154.26615 328.58197,148.02352 z "
       id="path700"
       style="font-size:12px;fill:#ffe300;fill-rule:evenodd;stroke-width:1" />
    <path
       d="M 319.07928,166.34852 C 315.54586,167.09922 313.23787,166.39638 311.4101,163.94474 C 308.25941,170.23889 308.71198,173.43771 311.3925,174.28812 C 314.07311,175.1391 317.11988,172.90081 319.07928,166.34852 z "
       id="path701"
       style="font-size:12px;fill:#ffe300;fill-rule:evenodd;stroke-width:1" />
    <path
       d="M 311.4805,185.155 C 308.11065,186.45604 305.72046,186.12775 303.52734,183.99665 C 301.41366,190.7105 302.36732,193.79721 305.14872,194.21218 C 307.9303,194.62771 310.58396,191.93496 311.4805,185.155 z "
       id="path702"
       style="font-size:12px;fill:#ffe300;fill-rule:evenodd;stroke-width:1" />
    <path
       d="M 306.38723,206.11182 C 303.11205,207.63563 300.70523,207.46785 298.37438,205.48851 C 296.71489,212.32878 297.87305,215.34474 300.676,215.5726 C 303.47914,215.80085 305.9466,212.93654 306.38723,206.11182 z "
       id="path703"
       style="font-size:12px;fill:#ffe300;fill-rule:evenodd;stroke-width:1" />
    <path
       d="M 304.3183,223.55698 C 301.23494,225.19003 298.8322,225.38295 296.31216,224.14843 C 295.39498,229.72308 296.86324,231.92645 299.66488,231.72738 C 302.46676,231.52851 304.60724,228.95541 304.3183,223.55698 z "
       id="path704"
       style="font-size:12px;fill:#ffe300;fill-rule:evenodd;stroke-width:1" />
    <path
       d="M 657.08496,140.56934 C 658.31795,137.17401 660.13566,135.58763 663.18349,135.33464 C 659.51063,129.33012 656.55706,128.02094 654.41646,129.84513 C 652.27606,131.66927 652.56247,135.4389 657.08496,140.56934 z "
       id="path705"
       style="font-size:12px;fill:#ffe300;fill-rule:evenodd;stroke-width:1" />
    <path
       d="M 686.0027,238.22557 C 688.66045,235.77918 691.00453,235.20789 693.82679,236.38655 C 693.33076,229.36526 691.31129,226.84323 688.57138,227.47709 C 685.83147,228.11096 684.35027,231.58917 686.0027,238.22557 z "
       id="path706"
       style="font-size:12px;fill:#ffe300;fill-rule:evenodd;stroke-width:1" />
    <path
       d="M 658.44541,123.93623 C 658.3598,123.93623 650.48695,131.80919 651.85623,141.39366 C 653.22532,150.97812 659.30119,162.78756 658.18876,172.7143 C 657.07613,182.64103 655.27915,189.2303 655.27915,189.2303 C 655.27915,189.2303 664.52129,178.7044 664.6069,168.6066 C 664.69252,158.5088 658.27418,145.24445 658.27418,137.79945 C 658.27418,130.35443 658.61665,123.76517 658.44541,123.93623 z "
       id="path709"
       style="font-size:12px;fill:#217900;fill-rule:evenodd;stroke:#000000;stroke-width:1.91964602;stroke-linejoin:round" />
    <path
       d="M 673.07888,156.11262 C 673.07888,156.11262 666.91739,160.64811 667.51651,171.08832 C 668.11544,181.52854 678.8979,200.69726 678.8979,200.69726 C 678.8979,200.69726 686.77094,216.87105 686.51409,221.06432 C 686.25744,225.25741 687.96899,217.04247 687.19883,207.80015 C 686.42867,198.55801 674.53358,178.19106 674.53358,178.19106 C 674.53358,178.19106 671.96625,173.998 672.2231,167.06631 C 672.47975,160.13463 673.16449,156.19814 673.07888,156.11262 z "
       id="path710"
       style="font-size:12px;fill:#217900;fill-rule:evenodd;stroke:#000000;stroke-width:1.91964602;stroke-linejoin:round" />
    <path
       d="M 487.93069,26.748004 C 487.9315,24.587371 485.50099,22.835527 482.50256,22.835527 C 479.50412,22.835527 477.07361,24.587371 477.07442,26.748004 C 477.07361,28.908636 479.50412,30.66048 482.50256,30.66048 C 485.50099,30.66048 487.9315,28.908636 487.93069,26.748004 L 487.93069,26.748004 z "
       id="path713"
       style="font-size:12px;fill:#6b18b5;fill-rule:evenodd;stroke-width:1" />
    <path
       d="M 490.24553,35.848124 C 490.24553,33.776064 487.74379,32.096325 484.65775,32.096325 C 481.57173,32.096325 479.06999,33.776064 479.06999,35.848124 C 479.06999,37.920184 481.57173,39.599922 484.65775,39.599922 C 487.74379,39.599922 490.24553,37.920184 490.24553,35.848124 L 490.24553,35.848124 z "
       id="path714"
       style="font-size:12px;fill:#6b18b5;fill-rule:evenodd;stroke-width:1" />
    <path
       d="M 497.19035,25.071654 C 497.19035,25.071654 490.80427,29.861247 493.4386,31.777054 C 496.07273,33.692861 503.33687,27.626165 503.33687,27.626165 L 497.19035,25.071654 z "
       id="path715"
       style="font-size:12px;fill:#6b18b5;fill-rule:evenodd;stroke-width:1" />
    <path
       d="M 684.87902,134.73204 C 684.88082,133.3705 684.24267,132.11151 683.20535,131.43014 C 682.16804,130.74878 680.88949,130.74878 679.85217,131.43014 C 678.81486,132.11151 678.17671,133.3705 678.17851,134.73204 C 678.17671,136.09358 678.81486,137.35257 679.85217,138.03394 C 680.88949,138.7153 682.16804,138.7153 683.20535,138.03394 C 684.24267,137.35257 684.88082,136.09358 684.87902,134.73204 z "
       id="path716"
       style="font-size:12px;fill:#6b18b5;fill-rule:evenodd;stroke-width:1" />
    <path
       d="M 682.44245,125.59501 C 682.44245,123.32421 680.87431,121.48337 678.93992,121.48337 C 677.00553,121.48337 675.43739,123.32421 675.43739,125.59501 C 675.43739,127.86581 677.00553,129.70666 678.93992,129.70666 C 680.87431,129.70666 682.44245,127.86581 682.44245,125.59501 z "
       id="path717"
       style="font-size:12px;fill:#6b18b5;fill-rule:evenodd;stroke-width:1" />
    <path
       d="M 684.11751,144.17356 C 684.11751,142.9961 683.5039,142.04158 682.74696,142.04158 C 681.99003,142.04158 681.37641,142.9961 681.37641,144.17356 C 681.37641,145.35102 681.99003,146.30555 682.74696,146.30555 C 683.5039,146.30555 684.11751,145.35102 684.11751,144.17356 z "
       id="path718"
       style="font-size:12px;fill:#6b18b5;fill-rule:evenodd;stroke-width:1" />
    <path
       d="M 689.75208,127.57466 C 689.75208,126.22896 689.13846,125.13805 688.38153,125.13805 C 687.62459,125.13805 687.01098,126.22896 687.01098,127.57466 C 687.01098,128.92037 687.62459,130.01128 688.38153,130.01128 C 689.13846,130.01128 689.75208,128.92037 689.75208,127.57466 L 689.75208,127.57466 z "
       id="path719"
       style="font-size:12px;fill:#6b18b5;fill-rule:evenodd;stroke-width:1" />
    <path
       d="M 674.37149,129.24985 C 674.37149,128.15651 673.75787,127.27018 673.00094,127.27018 C 672.244,127.27018 671.63039,128.15651 671.63039,129.24985 C 671.63039,130.34319 672.244,131.22951 673.00094,131.22951 C 673.75787,131.22951 674.37149,130.34319 674.37149,129.24985 L 674.37149,129.24985 z "
       id="path720"
       style="font-size:12px;fill:#6b18b5;fill-rule:evenodd;stroke-width:1" />
    <path
       d="M 676.80787,142.34621 C 676.80844,140.57953 675.51287,139.147 673.9145,139.147 C 672.31612,139.147 671.02056,140.57953 671.02113,142.34621 C 671.02056,144.1129 672.31612,145.54542 673.9145,145.54542 C 675.51287,145.54542 676.80844,144.1129 676.80787,142.34621 L 676.80787,142.34621 z "
       id="path721"
       style="font-size:12px;fill:#6b18b5;fill-rule:evenodd;stroke-width:1" />
    <path
       d="M 669.19382,136.55939 C 669.19382,135.04552 668.10294,133.81829 666.75727,133.81829 C 665.41162,133.81829 664.32074,135.04552 664.32074,136.55939 C 664.32074,138.07325 665.41162,139.30049 666.75727,139.30049 C 668.10294,139.30049 669.19382,138.07325 669.19382,136.55939 z "
       id="path722"
       style="font-size:12px;fill:#6b18b5;fill-rule:evenodd;stroke-width:1" />
    <path
       d="M 667.97552,128.79292 C 667.97653,127.97609 667.57041,127.22084 666.91036,126.8121 C 666.25029,126.40337 665.43678,126.40337 664.77671,126.8121 C 664.11666,127.22084 663.71054,127.97609 663.71156,128.79292 C 663.71054,129.60975 664.11666,130.365 664.77671,130.77373 C 665.43678,131.18246 666.25029,131.18246 666.91036,130.77373 C 667.57041,130.365 667.97653,129.60975 667.97552,128.79292 z "
       id="path723"
       style="font-size:12px;fill:#6b18b5;fill-rule:evenodd;stroke-width:1" />
    <path
       d="M 702.68991,168.27957 C 699.54441,164.12823 694.50867,162.37898 691.4423,164.37251 C 688.37591,166.36606 688.44004,171.34747 691.58554,175.49882 C 694.73105,179.65017 699.76678,181.39941 702.83317,179.40587 C 705.89955,177.41234 705.83541,172.43092 702.68991,168.27957 z "
       id="path724"
       style="font-size:12px;fill:#6b18b5;fill-rule:evenodd;stroke-width:1" />
    <path
       d="M 711.63336,244.86782 C 712.2429,239.77379 709.75835,235.28784 706.08396,234.84817 C 702.40959,234.40851 698.93679,238.18162 698.32725,243.27565 C 697.71771,248.36968 700.20226,252.85563 703.87662,253.29529 C 707.55101,253.73496 711.02382,249.96185 711.63336,244.86782 L 711.63336,244.86782 z "
       id="path725"
       style="font-size:12px;fill:#6b18b5;fill-rule:evenodd;stroke-width:1" />
    <path
       d="M 713.51967,289.4495 C 714.5668,284.42713 712.4789,279.74339 708.85621,278.98807 C 705.23353,278.23276 701.44788,281.6919 700.40074,286.71427 C 699.3536,291.73664 701.4415,296.42038 705.06418,297.17569 C 708.68688,297.93101 712.47253,294.47187 713.51967,289.4495 L 713.51967,289.4495 z "
       id="path726"
       style="font-size:12px;fill:#6b18b5;fill-rule:evenodd;stroke-width:1" />
    <path
       d="M 722.11355,247.72206 C 722.11355,245.70356 720.74994,244.06721 719.06784,244.06721 C 717.38575,244.06721 716.02214,245.70356 716.02214,247.72206 C 716.02214,249.74057 717.38575,251.37692 719.06784,251.37692 C 720.74994,251.37692 722.11355,249.74057 722.11355,247.72206 L 722.11355,247.72206 z "
       id="path727"
       style="font-size:12px;fill:#6b18b5;fill-rule:evenodd;stroke-width:1" />
    <path
       d="M 714.65169,256.09767 L 708.40804,263.17886 C 708.40804,263.17886 702.54525,263.33109 702.84971,265.23461 C 703.15435,267.13813 710.92086,272.84889 710.84465,275.13307 C 710.76844,277.41745 716.02232,274.60018 716.02232,274.60018 C 716.02232,274.60018 720.21002,261.88444 720.21002,261.80823 C 720.21002,261.73202 719.98159,252.97556 717.6974,253.12798 C 715.41302,253.28021 714.79413,255.93604 714.65169,256.09767 z "
       id="path728"
       style="font-size:12px;fill:#6b18b5;fill-rule:evenodd;stroke-width:1" />
    <path
       d="M 303.96543,253.2971 C 303.96543,251.65599 302.63502,250.32562 300.99387,250.32562 C 299.35273,250.32562 298.02231,251.65599 298.02231,253.2971 C 298.02231,254.9382 299.35273,256.26858 300.99387,256.26858 C 302.63502,256.26858 303.96543,254.9382 303.96543,253.2971 z "
       id="path729"
       style="font-size:12px;fill:#6b18b5;fill-rule:evenodd;stroke-width:1" />
    <path
       d="M 306.77191,244.21737 C 306.77191,242.48502 305.4415,241.08068 303.80036,241.08068 C 302.15921,241.08068 300.8288,242.48502 300.8288,244.21737 C 300.8288,245.94971 302.15921,247.35405 303.80036,247.35405 C 305.4415,247.35405 306.77191,245.94971 306.77191,244.21737 L 306.77191,244.21737 z "
       id="path730"
       style="font-size:12px;fill:#6b18b5;fill-rule:evenodd;stroke-width:1" />
    <path
       d="M 282.3684,201.0379 C 281.25392,198.54 278.933,197.14746 277.18447,197.92759 C 275.43594,198.70772 274.92194,201.3651 276.03641,203.863 C 277.15089,206.3609 279.47181,207.75344 281.22034,206.97331 C 282.96887,206.19318 283.48287,203.5358 282.3684,201.0379 z "
       id="path731"
       style="font-size:12px;fill:#6b18b5;fill-rule:evenodd;stroke-width:1" />
    <path
       d="M 289.74232,227.94165 C 288.21136,224.70418 285.02308,222.89934 282.62111,223.91045 C 280.21914,224.92156 279.51305,228.36572 281.04402,231.6032 C 282.57498,234.84068 285.76326,236.64551 288.16523,235.63441 C 290.5672,234.6233 291.27329,231.17913 289.74232,227.94165 z "
       id="path732"
       style="font-size:12px;fill:#6b18b5;fill-rule:evenodd;stroke-width:1" />
    <path
       d="M 297.628,247.66883 C 298.12401,243.62512 296.44843,239.91049 293.88548,239.37199 C 291.32253,238.83348 288.84275,241.67503 288.34673,245.71873 C 287.85071,249.76244 289.52629,253.47707 292.08924,254.01558 C 294.65219,254.55408 297.13198,251.71254 297.628,247.66883 z "
       id="path733"
       style="font-size:12px;fill:#6b18b5;fill-rule:evenodd;stroke-width:1" />
    <path
       d="M 284.96658,250.55407 C 286.55175,246.8011 285.95828,242.76949 283.64102,241.54925 C 281.32375,240.32901 278.16019,242.3822 276.57502,246.13518 C 274.98985,249.88816 275.58332,253.91976 277.90058,255.14 C 280.21785,256.36025 283.3814,254.30705 284.96658,250.55407 z "
       id="path734"
       style="font-size:12px;fill:#6b18b5;fill-rule:evenodd;stroke-width:1" />
    <path
       d="M 279.20247,242.0712 C 279.20247,240.15647 277.72424,238.60426 275.90074,238.60426 C 274.07725,238.60426 272.59901,240.15647 272.59901,242.0712 C 272.59901,243.98593 274.07725,245.53814 275.90074,245.53814 C 277.72424,245.53814 279.20247,243.98593 279.20247,242.0712 z "
       id="path735"
       style="font-size:12px;fill:#6b18b5;fill-rule:evenodd;stroke-width:1" />
    <path
       d="M 276.56108,233.48674 C 276.56108,231.75439 275.23067,230.35005 273.58952,230.35005 C 271.94838,230.35005 270.61797,231.75439 270.61797,233.48674 C 270.61797,235.21908 271.94838,236.62342 273.58952,236.62342 C 275.23067,236.62342 276.56108,235.21908 276.56108,233.48674 L 276.56108,233.48674 z "
       id="path736"
       style="font-size:12px;fill:#6b18b5;fill-rule:evenodd;stroke-width:1" />
    <path
       d="M 279.36756,216.97811 C 279.36756,214.06046 278.0741,211.69524 276.47854,211.69524 C 274.88298,211.69524 273.58953,214.06046 273.58953,216.97811 C 273.58953,219.89576 274.88298,222.26097 276.47854,222.26097 C 278.0741,222.26097 279.36756,219.89576 279.36756,216.97811 L 279.36756,216.97811 z "
       id="path737"
       style="font-size:12px;fill:#6b18b5;fill-rule:evenodd;stroke-width:1" />
    <path
       d="M 288.25691,215.70843 C 288.64186,212.81629 287.67176,210.3011 286.09015,210.09059 C 284.50854,209.88008 282.91434,212.05397 282.5294,214.94611 C 282.14446,217.83826 283.11455,220.35345 284.69616,220.56396 C 286.27777,220.77447 287.87197,218.60058 288.25691,215.70843 L 288.25691,215.70843 z "
       id="path738"
       style="font-size:12px;fill:#6b18b5;fill-rule:evenodd;stroke-width:1" />
    <path
       d="M 351.6012,89.333447 C 352.77869,85.237609 351.56432,81.121172 348.88883,80.139129 C 346.21333,79.157086 343.08987,81.681316 341.91238,85.777154 C 340.73489,89.872991 341.94926,93.989428 344.62476,94.971471 C 347.30025,95.953514 350.42371,93.429284 351.6012,89.333447 z "
       id="path739"
       style="font-size:12px;fill:#6b18b5;fill-rule:evenodd;stroke-width:1" />
    <path
       d="M 339.57404,107.56361 C 343.10257,104.56052 344.60995,100.40797 342.94087,98.288644 C 341.27179,96.169317 337.05829,96.885751 333.52976,99.888847 C 330.00123,102.89194 328.49385,107.04449 330.16293,109.16381 C 331.83201,111.28314 336.04551,110.56671 339.57404,107.56361 z "
       id="path740"
       style="font-size:12px;fill:#6b18b5;fill-rule:evenodd;stroke-width:1" />
    <path
       d="M 332.55386,97.443475 C 336.04321,94.865414 337.53386,91.300588 335.88331,89.481214 C 334.23276,87.661839 330.06606,88.276874 326.57671,90.854934 C 323.08736,93.432994 321.59671,96.997821 323.24726,98.817195 C 324.89781,100.63657 329.06451,100.02153 332.55386,97.443475 z "
       id="path741"
       style="font-size:12px;fill:#6b18b5;fill-rule:evenodd;stroke-width:1" />
    <path
       d="M 359.6053,79.648675 C 361.95838,77.849846 362.96361,75.362506 361.85054,74.093046 C 360.73748,72.823587 357.92762,73.252725 355.57455,75.051554 C 353.22147,76.850384 352.21624,79.337724 353.32931,80.607183 C 354.44237,81.876643 357.25223,81.447505 359.6053,79.648675 z "
       id="path742"
       style="font-size:12px;fill:#6b18b5;fill-rule:evenodd;stroke-width:1" />
    <path
       d="M 345.50393,96.890097 C 347.11306,94.403439 347.22114,91.722829 345.74535,90.902787 C 344.26956,90.082746 341.76874,91.433806 340.15961,93.920464 C 338.55049,96.407123 338.4424,99.087733 339.91819,99.907774 C 341.39398,100.72782 343.8948,99.376756 345.50393,96.890097 z "
       id="path743"
       style="font-size:12px;fill:#6b18b5;fill-rule:evenodd;stroke-width:1" />
    <path
       d="M 365.85709,86.235439 C 368.38763,84.102826 369.37358,81.277861 368.05927,79.925704 C 366.74496,78.573546 363.6281,79.20623 361.09756,81.338843 C 358.56702,83.471457 357.58107,86.296422 358.89538,87.648579 C 360.20968,89.000736 363.32655,88.368053 365.85709,86.235439 z "
       id="path744"
       style="font-size:12px;fill:#6b18b5;fill-rule:evenodd;stroke-width:1" />
    <path
       d="M 329.07495,111.08985 C 331.4405,110.9718 333.22616,109.79343 333.06334,108.45789 C 332.90052,107.12236 330.85087,106.13539 328.48532,106.25344 C 326.11978,106.37149 324.33412,107.54985 324.49694,108.88539 C 324.65976,110.22093 326.70941,111.2079 329.07495,111.08985 z "
       id="path745"
       style="font-size:12px;fill:#6b18b5;fill-rule:evenodd;stroke-width:1" />
    <path
       d="M 373.60703,73.026032 C 375.21616,70.539374 375.32424,67.858764 373.84845,67.038722 C 372.37266,66.218681 369.87184,67.569741 368.26271,70.056399 C 366.65359,72.543058 366.5455,75.223668 368.02129,76.043709 C 369.49708,76.86375 371.9979,75.512691 373.60703,73.026032 z "
       id="path746"
       style="font-size:12px;fill:#6b18b5;fill-rule:evenodd;stroke-width:1" />
    <path
       d="M 641.80304,148.48648 C 641.80304,148.48648 649.14127,136.8717 646.30404,125.93901 C 643.4668,115.00632 631.35883,122.73188 631.61951,126.62264 C 631.88039,130.51328 639.44399,135.71803 639.90394,138.09216 C 640.3635,140.46632 639.04931,147.76923 641.80304,148.48648 z "
       id="path764"
       style="font-size:12px;fill:#ffd200;fill-rule:evenodd;stroke:#ef8a10" />
    <path
       d="M 501.67138,51.881756 C 501.67138,51.881756 528.11431,52.908863 528.28535,70.024004 C 528.19974,72.676936 528.28516,75.842912 527.34396,83.459126 C 532.56405,80.635289 536.07278,72.762321 535.38804,67.713345 C 535.47366,50.341605 511.7693,38.44648 501.67138,51.881756 z "
       id="path708"
       style="font-size:12px;fill:#217900;fill-rule:evenodd;stroke:#000000;stroke-width:2.39955759;stroke-linejoin:round" />
    <path
       d="M 484.89867,51.111613 C 484.89867,51.111613 506.20693,46.661663 506.37797,63.776823 C 506.5492,80.891965 499.61755,83.630282 499.61755,83.630282 C 499.61755,83.630282 515.96257,80.121611 516.04799,62.749851 C 516.13361,45.37811 494.99658,37.676356 484.89867,51.111613 z "
       id="path707"
       style="font-size:12px;fill:#217900;fill-rule:evenodd;stroke:#000000;stroke-width:2.39955759;stroke-linejoin:round" />
    <g
       id="g802"
       style="font-size:12px"
       transform="matrix(1.919646,0,0,1.919646,249.652,5.766954)">
      <path
         d="M 160.2616,215.9655 C 160.2616,215.9655 212.2201,201.2889 227.9088,137.5216 C 218.7992,202.9759 161.9485,223.7255 161.9485,223.7255 L 160.2616,215.9655 z "
         id="path640"
         style="fill:#f7df73;fill-opacity:1;fill-rule:evenodd;stroke:#000000;stroke-width:1pt;stroke-linecap:butt;stroke-linejoin:round;stroke-opacity:1" />
      <path
         d="M 165.5884,219.9401 C 167.1944,219.9401 171.1672,215.5446 173.4494,215.0375 C 175.7317,214.5304 175.9852,212.248 173.3649,212.1636 C 170.7446,212.0791 168.4624,215.122 168.4624,215.122 C 168.4624,215.122 166.1801,217.0662 163.8134,217.3198 C 161.4466,217.5734 162.9681,220.5317 165.5884,219.9401 z "
         id="path793"
         style="fill:#8c1800;fill-opacity:1;fill-rule:evenodd;stroke:none;stroke-width:1pt;stroke-linecap:butt;stroke-linejoin:miter;stroke-opacity:1" />
      <path
         d="M 195.511,197.625 C 195.511,197.625 190.1013,200.7524 190.862,201.5132 C 191.6228,202.274 196.4408,198.5548 196.5253,198.4703 C 196.6098,198.3857 198.554,196.019 195.511,197.625 z "
         id="path794"
         style="fill:#8c1800;fill-opacity:1;fill-rule:evenodd;stroke:#8c1800;stroke-width:1pt;stroke-linecap:butt;stroke-linejoin:miter;stroke-opacity:1" />
      <path
         d="M 176.6615,211.8255 C 176.6615,211.8255 175.0554,211.2338 179.1973,209.6278 C 183.3391,208.0218 183.0855,206.1622 184.438,205.4014 C 185.7904,204.6407 188.6643,202.612 189.256,203.7954 C 189.8477,204.9788 186.213,207.3456 185.3678,207.5992 C 184.5225,207.8528 180.3806,211.6565 179.1973,211.9946 C 178.0139,212.3327 177.1686,212.1637 176.6615,211.8255 z "
         id="path795"
         style="fill:#8c1800;fill-opacity:1;fill-rule:evenodd;stroke:none;stroke-width:1pt;stroke-linecap:butt;stroke-linejoin:miter;stroke-opacity:1" />
      <path
         d="M 203.541,189.6794 C 199.9909,193.6522 199.9909,193.5677 199.9909,193.5677"
         id="path796"
         style="fill:none;fill-opacity:1;fill-rule:evenodd;stroke:#8c1800;stroke-width:1.625;stroke-linecap:round;stroke-linejoin:miter;stroke-opacity:1" />
      <path
         d="M 208.8663,183.1708 L 205.4852,187.3127"
         id="path797"
         style="fill:none;fill-opacity:1;fill-rule:evenodd;stroke:#8c1800;stroke-width:1.5;stroke-linecap:round;stroke-linejoin:miter;stroke-opacity:1" />
      <path
         d="M 214.1915,174.7181 L 210.3877,180.8041"
         id="path798"
         style="fill:none;fill-opacity:1;fill-rule:evenodd;stroke:#8c1800;stroke-width:1.375;stroke-linecap:round;stroke-linejoin:miter;stroke-opacity:1" />
      <path
         d="M 218.6714,166.0964 L 215.5439,172.3514"
         id="path799"
         style="fill:none;fill-opacity:1;fill-rule:evenodd;stroke:#8c1800;stroke-width:1.25;stroke-linecap:round;stroke-linejoin:miter;stroke-opacity:1" />
      <path
         d="M 220.7,161.532 L 219.6857,163.7297"
         id="path800"
         style="fill:none;fill-opacity:1;fill-rule:evenodd;stroke:#8c1800;stroke-width:1.25;stroke-linecap:round;stroke-linejoin:miter;stroke-opacity:1" />
      <path
         d="M 222.9823,155.5305 L 222.137,158.1508"
         id="path801"
         style="fill:none;fill-opacity:1;fill-rule:evenodd;stroke:#8c1800;stroke-width:0.75;stroke-linecap:round;stroke-linejoin:miter;stroke-opacity:1" />
    </g>
    <g
       id="g813"
       style="font-size:12px"
       transform="matrix(-1.902056,0,0,1.954154,731.3943,-4.333184)">
      <path
         d="M 160.2616,215.9655 C 160.2616,215.9655 212.2201,201.2889 227.9088,137.5216 C 218.7992,202.9759 161.9485,223.7255 161.9485,223.7255 L 160.2616,215.9655 z "
         id="path814"
         style="fill:#f7df73;fill-opacity:1;fill-rule:evenodd;stroke:#000000;stroke-width:1pt;stroke-linecap:butt;stroke-linejoin:round;stroke-opacity:1" />
      <path
         d="M 165.5884,219.9401 C 167.1944,219.9401 171.1672,215.5446 173.4494,215.0375 C 175.7317,214.5304 175.9852,212.248 173.3649,212.1636 C 170.7446,212.0791 168.4624,215.122 168.4624,215.122 C 168.4624,215.122 166.1801,217.0662 163.8134,217.3198 C 161.4466,217.5734 162.9681,220.5317 165.5884,219.9401 z "
         id="path815"
         style="fill:#8c1800;fill-opacity:1;fill-rule:evenodd;stroke:none;stroke-width:1pt;stroke-linecap:butt;stroke-linejoin:miter;stroke-opacity:1" />
      <path
         d="M 195.511,197.625 C 195.511,197.625 190.1013,200.7524 190.862,201.5132 C 191.6228,202.274 196.4408,198.5548 196.5253,198.4703 C 196.6098,198.3857 198.554,196.019 195.511,197.625 z "
         id="path816"
         style="fill:#8c1800;fill-opacity:1;fill-rule:evenodd;stroke:#8c1800;stroke-width:1pt;stroke-linecap:butt;stroke-linejoin:miter;stroke-opacity:1" />
      <path
         d="M 176.6615,211.8255 C 176.6615,211.8255 175.0554,211.2338 179.1973,209.6278 C 183.3391,208.0218 183.0855,206.1622 184.438,205.4014 C 185.7904,204.6407 188.6643,202.612 189.256,203.7954 C 189.8477,204.9788 186.213,207.3456 185.3678,207.5992 C 184.5225,207.8528 180.3806,211.6565 179.1973,211.9946 C 178.0139,212.3327 177.1686,212.1637 176.6615,211.8255 z "
         id="path817"
         style="fill:#8c1800;fill-opacity:1;fill-rule:evenodd;stroke:none;stroke-width:1pt;stroke-linecap:butt;stroke-linejoin:miter;stroke-opacity:1" />
      <path
         d="M 203.541,189.6794 C 199.9909,193.6522 199.9909,193.5677 199.9909,193.5677"
         id="path818"
         style="fill:none;fill-opacity:1;fill-rule:evenodd;stroke:#8c1800;stroke-width:1.625;stroke-linecap:round;stroke-linejoin:miter;stroke-opacity:1" />
      <path
         d="M 208.8663,183.1708 L 205.4852,187.3127"
         id="path819"
         style="fill:none;fill-opacity:1;fill-rule:evenodd;stroke:#8c1800;stroke-width:1.5;stroke-linecap:round;stroke-linejoin:miter;stroke-opacity:1" />
      <path
         d="M 214.1915,174.7181 L 210.3877,180.8041"
         id="path820"
         style="fill:none;fill-opacity:1;fill-rule:evenodd;stroke:#8c1800;stroke-width:1.375;stroke-linecap:round;stroke-linejoin:miter;stroke-opacity:1" />
      <path
         d="M 218.6714,166.0964 L 215.5439,172.3514"
         id="path821"
         style="fill:none;fill-opacity:1;fill-rule:evenodd;stroke:#8c1800;stroke-width:1.25;stroke-linecap:round;stroke-linejoin:miter;stroke-opacity:1" />
      <path
         d="M 220.7,161.532 L 219.6857,163.7297"
         id="path822"
         style="fill:none;fill-opacity:1;fill-rule:evenodd;stroke:#8c1800;stroke-width:1.25;stroke-linecap:round;stroke-linejoin:miter;stroke-opacity:1" />
      <path
         d="M 222.9823,155.5305 L 222.137,158.1508"
         id="path823"
         style="fill:none;fill-opacity:1;fill-rule:evenodd;stroke:#8c1800;stroke-width:0.75;stroke-linecap:round;stroke-linejoin:miter;stroke-opacity:1" />
    </g>
    <path
       d="M 691.89132,247.22923 C 692.3814,254.90762 699.89643,262.25872 696.95592,275.65516 C 693.1984,290.84858 679.96551,326.9529 682.25277,333.32439 C 678.3319,327.93307 678.98534,322.86866 678.65862,315.35363 C 678.3319,307.83879 689.60425,279.90257 690.58461,270.42719 C 690.58442,261.93218 691.40123,250.33311 691.89132,247.22923 z "
       id="path578"
       style="font-size:12px;fill:#217900;fill-rule:evenodd;stroke:#000000;stroke-width:2.39955759;stroke-linejoin:round" />
    <path
       d="M 691.89132,247.39259 C 691.89132,247.39259 704.14403,262.91255 703.49058,275.16526 C 702.83714,287.41798 695.97555,301.79421 698.26281,308.16571 C 694.34194,302.77438 693.36176,299.34359 693.03504,291.82875 C 692.70832,284.31391 699.07962,275.98188 697.77273,267.8136 C 696.46564,259.64512 691.72795,247.39259 691.89132,247.39259 z "
       id="path577"
       style="font-size:12px;fill:#217900;fill-rule:evenodd;stroke:#000000;stroke-width:2.39955759;stroke-linejoin:round" />
    <path
       d="M 290.51238,250.8233 C 290.0223,258.50169 284.30425,265.36269 287.24476,278.75914 C 291.00228,293.95237 304.39872,313.22984 302.27463,335.28484 C 306.19551,329.89332 307.33923,323.84874 307.66596,316.33371 C 307.99268,308.81887 292.79945,283.49663 291.81909,274.02126 C 291.81928,265.52625 291.00247,253.92717 290.51238,250.8233 z "
       id="path570"
       style="font-size:12px;fill:#217900;fill-rule:evenodd;stroke:#000000;stroke-width:2.39955759;stroke-linejoin:round" />
    <path
       d="M 290.51238,250.98666 C 290.51238,250.98666 278.58639,266.01653 279.23984,278.26943 C 279.4032,286.43772 294.43326,320.5817 292.146,326.953 C 296.06688,321.56187 297.21041,322.21512 297.04686,314.04684 C 292.6359,293.13575 284.79434,279.73912 286.10123,271.57102 C 287.40832,263.40254 290.67575,250.98666 290.51238,250.98666 z "
       id="path569"
       style="font-size:12px;fill:#217900;fill-rule:evenodd;stroke:#000000;stroke-width:2.39955759;stroke-linejoin:round" />
    <path
       transform="matrix(1.338914,0,0,1.339097,360.4303,-54.89397)"
       d="M 99.95856,125.78497 L 122.13101,194.016 L 193.87424,194.01871 L 135.83435,236.19052 L 158.00164,304.42322 L 99.958557,262.25581 L 41.91547,304.42322 L 64.082767,236.19052 L 6.0428734,194.01871 L 77.786099,194.016 L 99.95856,125.78497 z "
       inkscape:randomized="0"
       inkscape:rounded="0"
       inkscape:flatsided="false"
       sodipodi:arg2="-0.9424778"
       sodipodi:arg1="-1.5707963"
       sodipodi:r2="37.722038"
       sodipodi:r1="98.748795"
       sodipodi:cy="224.53377"
       sodipodi:cx="99.958557"
       sodipodi:sides="5"
       id="path2860"
       style="opacity:1;fill:#ffffff;fill-opacity:1;fill-rule:nonzero;stroke:#000000;stroke-width:1.49364591;stroke-linecap:square;stroke-linejoin:round;stroke-miterlimit:4;stroke-dasharray:none;stroke-dashoffset:0.99999998;stroke-opacity:1"
       sodipodi:type="star" />
  </g>
</svg>
