<?xml version="1.0" encoding="UTF-8" standalone="no"?>
<svg xmlns:dc="http://purl.org/dc/elements/1.1/" xmlns:cc="http://web.resource.org/cc/" xmlns:rdf="http://www.w3.org/1999/02/22-rdf-syntax-ns#" xmlns:svg="http://www.w3.org/2000/svg" xmlns="http://www.w3.org/2000/svg" width="900" height="600" id="svg2" version="1.0">
  
  <sodipodi:namedview borderopacity="1.0" bordercolor="#666666" pagecolor="#ffffff" id="base"/>
  <defs id="defs4">
    <marker id="ArrowEnd" viewBox="0 0 10 10" refX="0" refY="5" markerUnits="strokeWidth" markerWidth="4" markerHeight="3" orient="auto">
      <path d="M 0,0 L 10,5 L 0,10 L 0,0 z "/>
    </marker>
    <marker id="ArrowStart" viewBox="0 0 10 10" refX="10" refY="5" markerUnits="strokeWidth" markerWidth="4" markerHeight="3" orient="auto">
      <path d="M 10,0 L 0,5 L 10,10 L 10,0 z "/>
    </marker>
  </defs>
  <g transform="matrix(4.166671,0,0,4.166671,-5.459214,-5.458922)">
    <g>
      <path d="M 217.3,145.3 L 217.3,1.310 L 1.310,1.310 L 1.310,145.3 L 217.3,145.3 z " fill="#efb22d" fill-opacity="1" stroke="none" stroke-width="0.25"/>
      <path d="" fill="#ffb835" stroke="#000000" stroke-width="0.25"/>
    </g>
    <g>
      <path d="M 1.310,145.3 L 217.3,145.3 L 217.3,1.310 L 1.310,145.3 z " fill="#e23d28" fill-opacity="1" stroke="none" stroke-width="0.25" stroke-linejoin="bevel"/>
      <g>
        <g>
          <path d="M 116.9,46.33 C 115.7,45.90 114.9,46.52 114.9,48.07 C 115.0,49.61 115.8,50.50 117.0,49.92 L 116.9,46.33 z " fill="#ffffff" stroke="#000000" stroke-width="0.125"/>
          <path d="M 117.9,43.43 C 116.9,42.65 116.0,42.98 115.5,44.46 C 115.1,45.93 115.6,47.04 116.9,46.87 L 117.9,43.43 z " fill="#ffffff" stroke="#000000" stroke-width="0.125"/>
          <path d="M 119.6,40.63 C 118.7,39.69 117.8,39.88 117.1,41.26 C 116.4,42.64 116.7,43.81 118.0,43.86 L 119.6,40.63 z " fill="#ffffff" stroke="#000000" stroke-width="0.125"/>
          <path d="M 118.5,54.25 C 117.0,54.79 116.9,56.80 117.8,58.03 C 118.7,59.27 120.4,59.50 121.4,58.03 L 118.5,54.25 z " fill="#ffffff" stroke="#000000" stroke-width="0.125"/>
          <path d="M 116.8,50.00 C 115.4,49.53 114.2,51.40 113.9,53.09 C 113.7,55.21 110.7,55.91 112.3,59.11 C 112.7,57.07 114.0,55.95 115.1,55.87 C 116.2,55.79 117.8,55.56 118.5,54.25 L 116.8,50.00 z " fill="#ffffff" stroke="#000000" stroke-width="0.125"/>
          <path d="M 121.2,58.26 C 119.6,58.65 119.4,60.81 120.5,62.36 C 121.5,63.68 124.6,63.36 124.5,62.05 L 121.2,58.26 z " fill="#ffffff" stroke="#000000" stroke-width="0.125"/>
          <path d="M 125.8,71.28 C 125.9,69.89 123.6,69.35 122.6,69.62 C 121.5,69.89 119.4,69.58 118.9,68.43 C 118.5,69.35 119.1,70.36 120.7,70.86 C 121.8,71.24 121.8,72.10 121.5,72.48 C 122.4,72.64 125.0,72.64 125.8,71.28 z " fill="#ffffff" stroke="#000000" stroke-width="0.125"/>
          <path d="M 124.5,62.40 C 122.9,61.70 122.0,62.76 121.4,63.79 C 120.5,65.30 117.8,63.36 116.8,65.37 C 118.1,64.83 119.4,65.99 120.0,66.38 C 121.7,67.50 125.0,67.15 125.4,64.52 L 124.5,62.40 z " fill="#ffffff" stroke="#000000" stroke-width="0.125"/>
          <path d="M 125.5,64.25 C 123.9,65.45 123.3,66.88 123.3,67.85 C 123.3,68.81 124.7,70.94 126.2,71.05 C 127.0,69.31 127.4,65.64 125.5,64.25 z " fill="#ffffff" stroke="#000000" stroke-width="0.125"/>
          <path d="M 118.9,71.71 C 118.9,71.13 119.7,70.90 120.3,71.09 C 120.9,71.28 121.8,71.86 121.5,72.48 L 118.9,71.71 z " fill="#ffffff" stroke="#000000" stroke-width="0.125"/>
          <path d="M 110.2,68.54 C 110.0,67.85 111.1,66.65 112.6,67.31 C 114.1,67.96 114.3,69.24 113.7,69.74 L 110.2,68.54 z " fill="#ffffff" stroke="#000000" stroke-width="0.125"/>
          <path d="M 113.8,69.82 C 113.7,69.43 114.8,68.66 116.6,69.12 C 118.5,69.58 119.0,70.78 118.9,71.71 L 113.8,69.82 z " fill="#ffffff" stroke="#000000" stroke-width="0.125"/>
          <path d="M 110.0,68.54 C 110.9,67.81 110.6,66.42 109.7,65.99 C 108.1,65.22 108.7,63.21 107.7,62.82 C 106.7,62.44 105.7,61.74 105.7,61.05 C 105.2,62.01 105.5,62.90 106.2,63.52 C 106.9,64.14 105.6,66.65 106.5,67.31 L 110.0,68.54 z " fill="#ffffff" stroke="#000000" stroke-width="0.125"/>
          <path d="M 89.30,68.00 C 88.49,66.73 86.56,66.96 85.75,67.85 C 84.93,68.73 85.05,70.05 85.82,70.63 L 89.30,68.00 z " fill="#ffffff" stroke="#000000" stroke-width="0.125"/>
          <path d="M 93.94,66.11 C 93.63,64.41 91.58,64.21 90.46,64.64 C 89.34,65.06 88.57,66.76 89.30,68.00 L 93.94,66.11 z " fill="#ffffff" stroke="#000000" stroke-width="0.125"/>
          <path d="M 97.03,65.88 C 97.76,64.45 96.33,62.32 94.71,62.01 C 93.35,61.75 91.75,61.76 91.23,60.43 C 90.90,61.59 91.77,62.32 92.78,62.98 C 93.7862,63.64 92.5885,65.34 94.21,66.30 L 97.03,65.88 z " fill="#ffffff" stroke="#000000" stroke-width="0.125"/>
          <path d="M 96.877,65.93 C 96.53,64.90 97.22,63.54 98.61,63.63 C 100.0,63.73 100.7,64.74 100.1,66.00 L 96.877,65.93 z " fill="#ffffff" stroke="#000000" stroke-width="0.125"/>
          <path d="M 99.96,66.00 C 99.77,64.94 100.6,63.69 102.0,63.98 C 103.3,64.27 104.0,65.38 103.2,66.54 L 99.96,66.00 z " fill="#ffffff" stroke="#000000" stroke-width="0.125"/>
          <path d="M 103.0,66.49 C 102.8,65.42 103.8,64.21 105.1,64.57 C 106.5,64.93 107.1,66.07 106.2,67.19 L 103.0,66.49 z " fill="#ffffff" stroke="#000000" stroke-width="0.125"/>
          <path d="M 79.72,84.19 C 77.13,84.19 76.5023,84.81 76.13,87.47 C 75.66,90.80 80.18,91.18 79.72,84.19 z " fill="#ffffff" stroke="#000000" stroke-width="0.125"/>
          <path d="M 80.88,80.71 C 76.90,79.20 74.73,85.50 70.79,84.38 C 72.20,86.62 75.62,84.39 76.90,84.61 C 79.06,85.00 83.74,84.19 80.88,80.71 z " fill="#ffffff" stroke="#000000" stroke-width="0.125"/>
          <path d="M 78.29,89.33 C 76.32,88.44 74.19,91.45 74.58,92.77 C 75.07,94.43 79.56,93.07 78.29,89.33 z " fill="#ffffff" stroke="#000000" stroke-width="0.125"/>
          <path d="M 69.09,102.3 C 70.18,102.6 71.49,103.2 71.26,105.3 C 71.03,107.4 67.08,111.6 63.53,111.8 C 59.98,112.1 58.70,116.4 55.65,115.2 C 58.51,114.6 58.51,111.4 60.75,110.4 C 59.13,109.8 58.28,113.5 56.19,113.5 C 54.10,113.5 53.10,116.8 50.55,116.6 C 48.00,116.3 47.73,120.6 42.63,120.7 C 38.73,120.7 33.90,125.3 32.16,123.3 C 35.95,122.79 37.47,120.6 39.73,118.3 C 43.36,114.6 47.46,116.3 48.85,113.0 C 47.19,114.1 45.26,114.7 43.36,114.6 C 40.99,114.6 38.38,118.4 35.71,116.7 C 37.26,116.5 38.26,115.9 39.89,114.2 C 41.55,112.4 43.99,113.5 45.91,111.8 C 48.93,109.0 51.51,111.3 54.41,107.8 C 53.60,107.4 51.86,107.7 50.24,108.6 C 48.62,109.4 46.53,108.0 44.68,109.0 C 44.91,106.7 49.24,108.0 51.94,106.4 C 54.99,104.7 57.52,105.2 59.94,105.4 C 56.58,105.4 55.26,102.2 50.63,103.1 C 48.60,103.5 46.99,100.3 44.99,102.0 C 45.04,100.8 47.15,99.84 49.3176,101 C 51.48,102.1 52.35,99.98 56.6582,102.7 C 58.43,103.8 61.48,102.0 63.41,103.2 C 63.16,102.4 62.06,102.0 60.77,102.1 C 61.58,100.4 66.81,100.6 69.09,102.3 z " fill="#ffffff" stroke="#000000" stroke-width="0.125"/>
          <path d="M 72.53,99.80 C 70.83,98.48 68.48,100.0 66.85,99.45 C 66.85,100.5 67.39,102.1 69.17,102.7 C 69.71,102.3 72.15,100.2 72.53,99.80 z " fill="#ffffff" stroke="#000000" stroke-width="0.125"/>
          <path d="M 75.20,96.05 C 72.53,94.70 72.07,98.06 69.98,97.36 C 70.06,98.33 70.83,99.53 72.53,99.80 L 75.20,96.05 z " fill="#ffffff" stroke="#000000" stroke-width="0.125"/>
          <path d="M 76.78,93.00 C 72.84,91.45 72.34,95.24 70.02,94.50 C 70.56,95.82 73.88,96.51 75.58,96.05 L 76.78,93.00 z " fill="#ffffff" stroke="#000000" stroke-width="0.125"/>
          <path d="M 82.19,76.42 C 81.1526,74.96 78.95,76.15 78.60,77.89 C 78.25,79.63 79.10,82.06 80.57,81.52 L 82.19,76.42 z " fill="#ffffff" stroke="#000000" stroke-width="0.125"/>
          <path d="M 84.86,71.79 C 83.04,71.36 80.95,71.56 81.19,73.33 C 80.49,73.64 80.30,75.92 82.19,76.42 L 84.86,71.79 z " fill="#ffffff" stroke="#000000" stroke-width="0.125"/>
          <path d="M 86.05,70.59 C 84.28,68.50 82.30,68.55 81.19,69.43 C 79.14,71.05 77.15,70.13 77.09,71.75 C 78.33,70.80 79.41,71.94 80.41,71.59 C 81.42,71.25 82.15,73.18 84.93,72.37 L 86.05,70.59 z " fill="#ffffff" stroke="#000000" stroke-width="0.125"/>
          <path d="M 81.77,101.7 C 82.04,102.2 83.70,102.5 84.51,101.6 C 85.58,100.5 84.39,97.40 82.69,97.17 C 80.99,96.94 80.84,100.6 81.77,101.7 z " fill="#ffffff" stroke="#000000" stroke-width="0.125"/>
          <path d="M 79.83,101.8 C 82.27,102.7 83.31,100.7 82.00,99.45 C 81.65,99.87 80.37,101.4 79.83,101.8 z " fill="#ffffff" stroke="#000000" stroke-width="0.125"/>
          <path d="M 70.72,105.1 C 70.25,106.5 67.86,106.7 65.15,111.1 C 62.45,115.4 59.86,113.6 59.20,116.6 C 62.45,113.9 65.00,115.7 66.93,113.1 C 69.87,109.1 72.28,109.7 73.42,107.1 C 75.04,103.3 82.15,103.3 82.54,97.44 C 80.14,96.98 72.57,103.3 70.72,105.1 z " fill="#ffffff" stroke="#000000" stroke-width="0.125"/>
        </g>
        <path d="M 131.6,46.75 C 134.7,47.76 134.8,51.77 138.4,53.09 C 141.9,54.40 142.3,57.57 145.2,56.80 C 142.5,56.06 142.6,52.93 139.8,52.16 C 136.5,51.25 135.3,46.21 132.6,45.44" fill="#ffffff" stroke="#000000" stroke-width="0.125"/>
        <g>
          <path d="M 145.8,67.73 C 146.4,68.97 146.3,71.17 144.3,71.75 C 145.4,72.41 146.9,71.79 147.8,70.36 C 146.5,73.18 147.4,75.73 149.4,76.23 C 148.4,74.26 150.6,73.33 149.9,72.06 C 151.1,72.60 152.3,74.34 152.2,75.42 C 153.9,73.56 151.0,71.09 151.5,69.35 L 145.8,67.73 z " fill="#ffffff" stroke="#000000" stroke-width="0.125"/>
          <path d="M 125.8,87.59 C 123.9,85.93 123.1,88.02 122.2,87.30 C 121.3,86.62 120.1,86.53 119.7,87.20 C 121.3,87.26 120.5,88.52 123.7,88.82 C 120.5,89.04 121.1,92.55 119.0,92.38 C 121.2,94.50 122.4,90.49 124.2,91.14 C 123.7,91.30 125.1,92.57 124.1,94.27 C 125.7,94.23 126.3,92.07 126.5,90.95 L 125.8,87.59 z " fill="#ffffff" stroke="#000000" stroke-width="0.125"/>
          <path d="M 84.16,105.6 C 83.47,105.0 81.46,104.7 80.68,105.2 C 79.91,105.7 80.18,105.8 81.11,105.9 C 82.04,105.9 83.23,107.4 81.22,107.5 C 80.30,107.6 80.61,109.8 78.68,110.002 C 79.47,110.9 81.73,110.3 82.54,109.2 C 82.38,110.1 83.54,110.9 83.08,111.9 C 84.51,112.1 83.68,109.0 85.94,109.2 C 85.01,109.3 85.40,111.4 87.02,110.8 C 86.05,111.3 86.56,112.4 87.64,112.2 C 86.94,112.4 86.71,113.3 87.68,113.8 C 88.60,112.5 87.56,107.9 84.16,105.6 z " fill="#ffffff" stroke="#000000" stroke-width="0.125"/>
        </g>
        <g>
          <path d="M 168.3,63.00 C 171.2,63.00 173.6,60.60 173.6,57.65 C 173.6,54.69 171.2,52.29 168.3,52.29 C 165.3,52.29 162.9,54.69 162.9,57.65 C 162.9,60.60 165.3,63.00 168.3,63.00 z " fill="#ffffff" stroke="#000000" stroke-width="0.125"/>
          <path d="" fill="#ffffff" stroke="#000000" stroke-width="0.125"/>
        </g>
        <path d="M 140.3,69.47 C 141.9,67.92 144.4,67.15 146.1,68.31 C 147.8,69.47 153.4,70.86 156.2,68.93 C 159.0,67.00 160.3,65.99 161.5,66.22 C 162.5,67.61 163.6,68.27 165.0,68.39 C 165.4,68.85 166.9,69.24 167.8,69.12 C 169.0,69.43 170.5,69.04 171.7,67.73 C 173.6,68.00 175.3,66.61 176.0,64.52 C 177.9,64.29 178.0,62.09 176.8,60.62 C 175.6,60.39 176.5,56.49 172.3,57.26 C 174.1,58.34 172.7,60.51 174.2,61.51 C 173.2,61.51 171.9,61.94 171.6,63.44 C 172.0,62.40 171.5,61.70 171.3,61.47 C 171.3,60.58 169.3,58.40 167.5,59.19 C 168.8,59.48 168.1,61.63 169.0,62.44 C 168.3,62.48 167.6,62.82 167.2,63.44 C 166.7,62.55 164.9,61.63 163.8,61.55 C 163.8,61.24 163.8,60.62 163.6,60.31 C 163.1,59.39 162.7,58.28 162.9,56.87 C 162.0,57.88 161.2,59.27 160.8,60.27 C 159.3,59.27 155.7,60.74 154.0,61.12 C 152.3,61.51 146.6,60.5879 145.2,59.19 C 143.9,57.80 141.4,56.95 139.0,56.26 C 135.7,55.30 135.7,51.70 132.0,49.22 C 131.9,53.71 138.7,67.92 140.3,69.47 z " fill="#ffffff" stroke="#000000" stroke-width="0.125"/>
        <g>
          <path d="M 102.4,103.6 C 105.3,103.6 107.6,101.3 107.656,98.45 C 107.6,95.59 105.3,93.27 102.4,93.27 C 99.61,93.27 97.30,95.59 97.302,98.45 C 97.30,101.3 99.61,103.6 102.4,103.6 z " fill="#ffffff" stroke="#000000" stroke-width="0.125"/>
          <path d="" fill="#ffffff" stroke="#000000" stroke-width="0.125"/>
        </g>
        <path d="M 90.11,99.64 C 91.1591,101 92.93,100.9 93.67,100.8 C 94.28,102.4 96.25,102.3 97.10,103.2 C 97.95,104.1 100.8,104.0 101.7,103.5 C 100.9,103.5 99.92,103.0 98.96,102.2 C 97.79,101.2 98.34,99.29 97.41,98.60 C 98.11,97.83 98.22,96.55 98.07,96.05 C 98.80,95.62 99.34,94.93 99.42,94.58 C 100.7,94.50 101.8,93.85 102.2,93.35 C 102.9,93.96 104.6,93.15 105.4,94.20 C 105.6,91.65 103.2,90.29 101.6,91.14 C 100.9,90.80 99.23,91.03 98.92,91.49 C 98.38,91.26 96.87,92.03 96.18,92.53 C 96.95,92.11 97.07,90.83 96.76,90.37 C 97.41,90.10 98.15,89.21 98.22,88.55 C 99.15,88.71 100.5,88.09 101.1,88.25 C 100.1,86.93 98.49,86.47 96.79,86.58 C 95.04,86.68 94.28,87.92 94.05,89.25 C 93.01,89.87 92.66,91.95 93.05,92.69 C 92.45,92.67 91.89,93.25 91.66,93.58 C 90.85,93.2343 89.69,92.98 88.86,92.98" fill="#ffffff" stroke="#000000" stroke-width="0.125"/>
        <g>
          <path d="M 89.22,90.87 C 88.87,89.87 89.34,88.96 89.57,88.17 C 90.17,86.14 89.80,85.62 87.99,85.89 C 87.83,86.85 88.76,90.02 89.22,90.87 z " fill="#ffffff" stroke="#000000" stroke-width="0.125"/>
          <path d="M 87.89,86.00 C 88.35,86.47 90,86.6858 90.17,85.21 C 90.37,83.53 89.69,82.88 88.22,83.53 C 88.10,83.92 87.97,85.50 87.89,86.00 z " fill="#ffffff" stroke="#000000" stroke-width="0.125"/>
          <path d="M 88.24,83.47 C 88.86,83.73 90.19,84.23 90.92,82.80 C 91.54,81.60 90.73,80.67 89.45,80.75 C 89.15,81.1029 88.53,82.33 88.24,83.47 z " fill="#ffffff" stroke="#000000" stroke-width="0.125"/>
          <path d="M 89.38,80.63 C 89.53,81.10 91.12,82.64 92.27,81.52 C 93.43,80.40 93.43,78.74 91.7,78.1281 C 91.23,78.20 89.84,79.82 89.38,80.63 z " fill="#ffffff" stroke="#000000" stroke-width="0.125"/>
          <path d="M 91.7,78.1281 C 92.04,79.09 93.12,80.75 95.13,79.98 C 97.14,79.20 96.29,76.69 95.37,76.19 C 94.82,76.23 92.62,77.23 91.7,78.1281 z " fill="#ffffff" stroke="#000000" stroke-width="0.125"/>
          <path d="M 95.37,76.19 C 95.21,77.04 95.37,79.36 98.11,79.32 C 100.8,79.28 100.0,76.08 99.38,75.61 C 98.26,75.61 96.37,75.65 95.37,76.19 z " fill="#ffffff" stroke="#000000" stroke-width="0.125"/>
          <path d="M 99.50,75.73 C 99.19,76.38 98.49,80.71 103.8,79.51 C 104.5,79.36 106.3,75.38 99.50,75.73 z " fill="#ffffff" stroke="#000000" stroke-width="0.125"/>
          <path d="M 102.4,76.11 C 101.9,76.6599 103.2,81.02 106.9,80.29 C 110.5,79.55 107.5,75.42 102.4,76.11 z " fill="#ffffff" stroke="#000000" stroke-width="0.125"/>
          <path d="M 105.5,76.77 C 104.9,77.97 105.8,81.52 110.3,81.52 C 114.3,81.52 110.0,76.85 105.5,76.77 z " fill="#ffffff" stroke="#000000" stroke-width="0.125"/>
          <path d="M 109.0,77.81 C 108.7,78.48 108.4,82.2512 113.6,82.57 C 117.5,82.80 116.5,77.39 109.0,77.81 z " fill="#ffffff" stroke="#000000" stroke-width="0.125"/>
          <path d="M 114.7,79.40 C 114.0,80.56 113.3,83.45 119.1,83.69 C 122.8,83.84 120.5,79.48 114.7,79.40 z " fill="#ffffff" stroke="#000000" stroke-width="0.125"/>
          <path d="M 119.5,80.29 C 118.7,81.45 119.3,83.72 121.4,84.15 C 124.1,84.69 124.5,82.14 122.7,80.90 C 120.8,79.67 119.5,80.29 119.5,80.29 z " fill="#ffffff" stroke="#000000" stroke-width="0.125"/>
          <path d="M 122.1,80.83 C 121.5,81.91 121.9,84.54 126.0,84.54 C 126.8,84.54 130.1,81.21 122.1,80.83 z " fill="#ffffff" stroke="#000000" stroke-width="0.125"/>
        </g>
        <g>
          <path d="M 90.46,131.2 C 93.78,131.2 96.47,128.5 96.47,125.2 C 96.47,121.8 93.78,119.1 90.46,119.1 C 87.14,119.1 84.45,121.8 84.45,125.2 C 84.45,128.5 87.14,131.2 90.46,131.2 z " fill="#ffffff" stroke="#000000" stroke-width="0.125"/>
          <path d="" fill="#ffffff" stroke="#000000" stroke-width="0.125"/>
        </g>
        <path d="M 134.5,43.82 C 134.0,44.28 133.1,45.67 132.9,46.21 C 130.9,52.24 136.2,56.74 139.4,63.21 C 141.8,68.31 141.5,76.35 137.7,81.45 C 136.3,83.19 136.7,83.69 135.0,85.46 C 134.4,86.15 133.6,87.01 133.9,89.48 C 135.0,89.10 136.5,90.10 136.8,90.95 C 137.6,90.56 138.7,90.72 139.1,91.18 C 140.4,90.56 141.5,90.8775 142.6,92.11 C 143.6,91.95 144.7,92.11 145.7,93.19 C 146.2,92.11 147.3,91.72 148.1,91.95 C 148.0,90.56 149.4,89.56 150.6,90.10 C 150.3,88.25 152.0,86.85 153.6,87.40 C 155.0,86.31 157.8,86.24 159.1,87.86 C 156.7,87.16 156.8,89.7958 154.7,89.56 C 155.2,91.10 153.8,91.99 152.4,92.50 C 153.3,92.07 154.3,91.57 154.6,92.11 C 155.4,91.43 156.9,91.68 157.3,92.03 C 158.3,91.70 159.3,91.95 159.8,93.19 C 161.2,94.04 162.1,96.20 161.1,97.83 C 160.8,96.13 159.6,96.20 159.1,95.51 C 158.1,95.90 157.0,95.90 156.7,95.20 C 156.1,95.82 154.0,96.36 153.0,95.43 C 152.7,96.82 151.5,97.98 150.1,97.98 C 150.5,99.06 149.4,100.9 148.6,101.8 C 149.9,102.5 149.5,104.0 149.2,105.0 C 151.2,105.3 149.5,107.1 153.0,108.2 C 151.3,108.8 147.9,108.2 147.5,106.1 C 145.827,106.1 144.668,104.4 144.7,102.6 C 143.4,101.3 143.2,99.60 145.0,98.37 C 143.5,98.83 142.6,96.36 140.4,97.36 C 139.3,97.86 136.3,97.02 136.4,95.97 C 135.937,96.75 133.1,96.44 132.7,95.12 C 131.8,95.62 129.6,94.77 129.6,93.50 C 128.4,94.04 126.8,93.07 126.9,91.84 C 125.8,91.68 125.6,90.68 125.7,89.83 C 124.7,89.37 125.0,88.40 125.4,87.24 C 124.7,86.47 125.0,85.39 125.5,84.38 C 124.8,83.61 124.9,82.68 125.1,81.60 C 121.4,81.29 116.8,80.40 106.1,77.12 C 90.11,72.17 85.78,83.76 89.34,91.03 C 93.44,99.41 88.87,101.2 90.27,107.4 C 91.7386,107.8 92.51,109.0 92.43,110.3 C 93.30,110.3 93.92,111.1 93.61,112.7 C 94.34,112.6 95.29,112.8 95.91,113.4 C 96.45,112.4 98.22,112.2 99.15,113.3 C 101.1,113.2 102.1,114.8 102.0,116.8 C 103.1,118.7 102.7,121.1 101.6,122.6 C 101.7,121.8 101.6,120.6 101.5,119.9 C 101.5,118.6 99.73,118.4 99.92,117.3 C 99.00,117.4 98.11,116.9 97.80,116.2 C 97.26,116.7 96.49,116.8 95.83,116.6 C 96.87,117.1 97.68,118.9 97.37,120.2 C 97.92,121.1 97.80,122.8 97.14,123.5 C 96.83,125.0 95.67,125.6 94.17,124.9 C 95.02,124.4 95.33,123.4 95.29,122.6 C 94.75,122.1 94.48,121.2 94.44,120.7 C 92.93,120.9 90.85,119.699 90.46,119.1 C 87.14,119.1 84.45,121.8 84.45,125.2 C 84.30,123.9 82.73,122.7 82.92,121.7 C 82.00,118.8 83.31,116.1 87.10,115.6 C 86.63,114.5 88.26,113.4 87.64,112.2 C 86.85,110.6 85.40,108.5 83.23,106.1 C 84.55,103.9 84.16,100.9 83.39,99.06 C 82.28,96.40 81.22,97.05 77.28,101.3 C 70.86,108.4 62.29,106.4 54.72,111.1 C 52.71,112.3 50.70,112.8 52.87,110.6 C 55.03,108.4 60.75,106.3 64.46,104.4 C 71.40,101.0 77.28,95.20 79.60,83.92 C 85.05,57.41 105.1,66.15 117.7,71.09 C 129.6,75.73 127.5,65.22 121.4,58.88 C 114.2,51.27 115.6,45.28 119.0,40.49 C 125.1,39.64 136.9,41.77 134.5,43.82 z " fill="#ffffff" stroke="#000000" stroke-width="0.125"/>
        <g>
          <path d="M 156.0,108.9 C 159.7,108.9 162.6,105.9 162.6,102.3 C 162.6,98.68 159.7,95.72 156.0,95.72 C 152.4,95.72 149.4,98.68 149.4,102.3 C 149.4,105.9 152.4,108.9 156.0,108.9 z " fill="#ffffff" stroke="#000000" stroke-width="0.125"/>
          <path d="" fill="#ffffff" stroke="#000000" stroke-width="0.125"/>
        </g>
        <path d="M 130.8,44.12 C 129.3,50.62 130.6,53.55 132.7,56.41 C 137.2,62.32 140.805,75.81 135.7,84.61" fill="none" stroke="#000000" stroke-width="0.125"/>
        <g>
          <path d="M 138.5,77.00 C 139.1,76.77 140.3,76.04 140.6,74.76" fill="none" stroke="#000000" stroke-width="0.125" stroke-linecap="round"/>
          <path d="M 139.0,74.18 C 139.2,73.06 140.9,72.58 140.9,71.38" fill="none" stroke="#000000" stroke-width="0.125" stroke-linecap="round"/>
          <path d="M 139.0,69.82 C 138.9,68.66 140.8,67.61 140.5,66.46" fill="none" stroke="#000000" stroke-width="0.125" stroke-linecap="round"/>
          <path d="M 138.0,65.64 C 137.9,64.99 139.6,63.75 139.1,62.71" fill="none" stroke="#000000" stroke-width="0.125" stroke-linecap="round"/>
          <path d="M 136.7,61.59 C 136.4,60.85 137.5,60.00 137.0,59.23" fill="none" stroke="#000000" stroke-width="0.125" stroke-linecap="round"/>
          <path d="M 134.9,58.34 C 134.8,57.84 135.5,56.74 135.1,56.08" fill="none" stroke="#000000" stroke-width="0.125" stroke-linecap="round"/>
          <path d="M 133.0,54.52 C 133.2,54.32 133.8,53.86 133.5,53.28" fill="none" stroke="#000000" stroke-width="0.125" stroke-linecap="round"/>
          <path d="M 131.8,51.72 C 132.0,51.58 132.8,51.35 132.7,50.79" fill="none" stroke="#000000" stroke-width="0.125" stroke-linecap="round"/>
        </g>
        <g>
          <path d="M 93.12,124.5 C 91.58,124.0 89.65,124.7 89.26,126.1" fill="none" stroke="#000000" stroke-width="0.125" stroke-linecap="round" stroke-linejoin="round"/>
          <path d="M 90.42,127.3 C 90.61,125.9 92.62,125.4 93.24,126.0 C 91.97,125.3 91.35,127.8 92.47,127.8" fill="none" stroke="#000000" stroke-width="0.125" stroke-linecap="round" stroke-linejoin="round"/>
          <path d="M 102.865,96.75 C 101.9,97.21 101.6,98.91 102.8,100.1" fill="none" stroke="#000000" stroke-width="0.125" stroke-linecap="round" stroke-linejoin="round"/>
          <path d="M 104.2,97.13 C 103.6,97.6773 103.6,99.29 104.6,99.68 C 103.7,99.10 104.6,98.10 105.1,98.06 C 105.7,98.02 106.1,98.72 105.4,99.41" fill="none" stroke="#000000" stroke-width="0.125" stroke-linecap="round" stroke-linejoin="round"/>
          <path d="M 158.5,100.9 C 156.3,100.3 154.6,102.8 156.6,105.1 C 156.5,102.9 158.1,101.5 160.0,101.9" fill="none" stroke="#000000" stroke-width="0.125" stroke-linecap="round" stroke-linejoin="round"/>
          <path d="M 159.1,103.4 C 158.6,103.4 158.3,103.8 158.3,104.2 C 158.3,104.6 158.6,105.0 159.2,105.0 C 159.6,105.0 159.9,104.6 159.9,104.2" fill="none" stroke="#000000" stroke-width="0.125" stroke-linecap="round" stroke-linejoin="round"/>
          <path d="M 166.7,55.99 C 167.1,57.30 168.9,57.84 170.3,57.53" fill="none" stroke="#000000" stroke-width="0.125" stroke-linecap="round" stroke-linejoin="round"/>
          <path d="M 170.3,56.68 C 169.2,56.72 168.3,55.68 168.3,54.79 C 168.3,55.44 169.8,55.75 170.3,55.33" fill="none" stroke="#000000" stroke-width="0.125" stroke-linecap="round" stroke-linejoin="round"/>
        </g>
        <g>
          <path d="M 93.67,100.8 C 93.36,100.0 94.59,99.26 94.63,98.52 C 94.67,97.79 96.02,97.21 97.41,98.60" fill="none" stroke="#000000" stroke-width="0.125" stroke-linecap="round"/>
          <path d="M 96.76,90.37 C 96.49,90.49 96.25,90.64 96.02,90.72" fill="none" stroke="#000000" stroke-width="0.125" stroke-linecap="round"/>
          <path d="M 99.42,94.58 C 99.09,94.60 98.42,94.56 98.05,94.31" fill="none" stroke="#000000" stroke-width="0.125" stroke-linecap="round"/>
          <path d="M 98.07,96.05 C 97.8043,96.19 97.20,96.42 96.85,96.49" fill="none" stroke="#000000" stroke-width="0.125" stroke-linecap="round"/>
          <path d="M 84.82,119.3 C 84.78,120.0 85.47,121.0 85.86,121.3" fill="none" stroke="#000000" stroke-width="0.125" stroke-linecap="round"/>
          <path d="M 87.83,117.7 C 87.45,118.3 87.21,119.3 87.45,120.0" fill="none" stroke="#000000" stroke-width="0.125" stroke-linecap="round"/>
          <path d="M 93.59,120.0 C 92.89,119.5 93.36,118.3 93.28,117.6 C 93.20,116.8 94.09,115.6 95.83,116.6" fill="none" stroke="#000000" stroke-width="0.125" stroke-linecap="round"/>
          <path d="M 87.10,115.6 C 87.79,115.5 88.53,115.5 88.99,115.7" fill="none" stroke="#000000" stroke-width="0.125" stroke-linecap="round"/>
          <path d="M 95.91,113.4 C 95.60,113.8 95.52,114.3 95.48,114.6" fill="none" stroke="#000000" stroke-width="0.125" stroke-linecap="round"/>
          <path d="M 99.15,113.3 C 98.61,113.3 98.15,113.7 97.92,114.1" fill="none" stroke="#000000" stroke-width="0.125" stroke-linecap="round"/>
          <path d="M 91.66,93.58 C 92.27,93.79 93.88,94.77 93.94,95.80" fill="none" stroke="#000000" stroke-width="0.125" stroke-linecap="round"/>
          <path d="M 98.22,88.55 C 96.33,88.52 95.60,86.58 97.03,86.58" fill="none" stroke="#000000" stroke-width="0.125" stroke-linecap="round"/>
          <path d="M 101.6,91.14 C 100.8,91.45 101.2,92.73 102.2,93.35" fill="none" stroke="#000000" stroke-width="0.125" stroke-linecap="round"/>
          <path d="M 97.10,103.2 C 96.74,102.8 97.22,101.4 98.42,101.8" fill="none" stroke="#000000" stroke-width="0.125" stroke-linecap="round"/>
          <path d="M 99.92,117.3 C 100.0,116.2 101.4,115.5 102.0,116.8" fill="none" stroke="#000000" stroke-width="0.125" stroke-linecap="round"/>
          <path d="M 94.44,120.7 C 94.34,119.4 95.00,119.0 95.58,118.9 C 96.16,118.8 96.99,119.3 97.37,120.2" fill="none" stroke="#000000" stroke-width="0.125" stroke-linecap="round"/>
          <path d="M 82.92,121.7 C 83.00,120.9 83.66,120.1 84.35,120.2" fill="none" stroke="#000000" stroke-width="0.125" stroke-linecap="round"/>
          <path d="M 153.6,87.40 C 153.1,87.76 152.8,89.40 154.7,89.56" fill="none" stroke="#000000" stroke-width="0.125" stroke-linecap="round"/>
          <path d="M 150.6,90.10 C 150.6,90.29 150.9,90.56 151.1,90.68" fill="none" stroke="#000000" stroke-width="0.125" stroke-linecap="round"/>
          <path d="M 159.8,93.19 C 159.3,92.80 158.0,94.37 159.1,95.51" fill="none" stroke="#000000" stroke-width="0.125" stroke-linecap="round"/>
          <path d="M 147.5,106.1 C 147.2,105.0 148.2,104.7 149.2,105.0" fill="none" stroke="#000000" stroke-width="0.125" stroke-linecap="round"/>
          <path d="M 145.0,98.37 C 145.6,97.98 146.2,97.56 146.9,97.36" fill="none" stroke="#000000" stroke-width="0.125" stroke-linecap="round"/>
          <path d="M 144.7,102.6 C 144.7,101.6 145.2,100.9 145.6,100.6" fill="none" stroke="#000000" stroke-width="0.125" stroke-linecap="round"/>
          <path d="M 148.1,91.95 C 148.0,93.07 148.5,94.16 148.8,94.74" fill="none" stroke="#000000" stroke-width="0.125" stroke-linecap="round"/>
          <path d="M 157.3,92.03 C 156.7,92.21 156.2,92.42 156.0,92.88" fill="none" stroke="#000000" stroke-width="0.125" stroke-linecap="round"/>
          <path d="M 156.7,95.20 C 156.9,94.97 157.3,94.70 157.4,94.50" fill="none" stroke="#000000" stroke-width="0.125" stroke-linecap="round"/>
          <path d="M 171.3,61.47 C 171.3,62.55 169.9,63.13 169.0,62.44" fill="none" stroke="#000000" stroke-width="0.125" stroke-linecap="round"/>
          <path d="M 174.2,61.51 C 174.8,61.97 176.9,61.53 176.4,60.33" fill="none" stroke="#000000" stroke-width="0.125" stroke-linecap="round"/>
          <path d="M 171.7,67.73 C 171.3,67.65 170.5,67.19 170.2,66.80" fill="none" stroke="#000000" stroke-width="0.125" stroke-linecap="round"/>
          <path d="M 176.0,64.52 C 175.3,64.68 174.8,64.52 174.4,64.37" fill="none" stroke="#000000" stroke-width="0.125" stroke-linecap="round"/>
          <path d="M 165.0,68.39 C 165.4,68.39 166.3,68.23 166.9,67.90" fill="none" stroke="#000000" stroke-width="0.125" stroke-linecap="round"/>
          <path d="M 163.8,61.55 C 163.3,61.49 163,61.5924 162.7,61.78" fill="none" stroke="#000000" stroke-width="0.125" stroke-linecap="round"/>
          <path d="M 171.6,63.44 C 171.5,63.92 171.1,64.68 170.7,65.01" fill="none" stroke="#000000" stroke-width="0.125" stroke-linecap="round"/>
          <path d="M 162.5,65.14 C 163.5,64.72 164.7,68.00 167.0,66.84" fill="none" stroke="#000000" stroke-width="0.125" stroke-linecap="round" stroke-linejoin="round"/>
          <path d="M 167.2,63.44 C 166.9,63.87 166.7,64.52 166.6,65.10" fill="none" stroke="#000000" stroke-width="0.125" stroke-linecap="round" stroke-linejoin="round"/>
        </g>
        <g>
          <path d="M 121.0,58.42 C 121.3,58.38 121.8,58.26 121.9,57.88" fill="none" stroke="#000000" stroke-width="0.125"/>
          <path d="M 81.26,94.39 C 82.42,95.05 83.23,96.17 82.73,97.83" fill="none" stroke="#000000" stroke-width="0.125"/>
          <path d="M 134.3,54.86 C 134.7,55.10 136.0,55.10 136.7,54.83" fill="none" stroke="#000000" stroke-width="0.125"/>
          <path d="M 137.7,55.64 C 137.6,56.18 137.8,58.23 136.7,58.65" fill="none" stroke="#000000" stroke-width="0.125"/>
          <path d="M 137.1,58.38 C 138.1,58.69 140.0,58.57 140.6,56.80" fill="none" stroke="#000000" stroke-width="0.125"/>
          <path d="M 139.3,58.30 C 139.8,59.08 139.9,60.58 138.4,61.39" fill="none" stroke="#000000" stroke-width="0.125"/>
          <path d="M 139.7,59.58 C 140.8,59.96 143.4,60.00 143.1,57.80" fill="none" stroke="#000000" stroke-width="0.125"/>
          <path d="M 142.2,59.58 C 143.0,60.66 146.4,61.94 145.9,59.69" fill="none" stroke="#000000" stroke-width="0.125"/>
          <path d="M 139.1,62.71 C 140.4,63.02 142.3,62.13 141.5,59.81" fill="none" stroke="#000000" stroke-width="0.125"/>
          <path d="M 145.2,60.97 C 145.4,61.86 149.768,62.79 149.1,60.78" fill="none" stroke="#000000" stroke-width="0.125"/>
          <path d="M 148.3,61.94 C 149.1,63.79 153.477,63.64 152.1,61.16" fill="none" stroke="#000000" stroke-width="0.125"/>
          <path d="M 151.4,63.09 C 152.2,64.14 156.0,63.52 154.5,61.01" fill="none" stroke="#000000" stroke-width="0.125"/>
          <path d="M 154.5,63.06 C 156.8,64.83 159.6,62.28 156.6,60.43" fill="none" stroke="#000000" stroke-width="0.125"/>
          <path d="M 157.9,62.48 C 160.0,64.14 162.6,61.12 160.8,60.27" fill="none" stroke="#000000" stroke-width="0.125"/>
          <path d="M 141.5,61.7855 C 142.1,61.97 143.5,61.90 143.8,60.70" fill="none" stroke="#000000" stroke-width="0.125"/>
          <path d="M 143.3,61.51 C 143.2,63.27 146.2,63.94 146.9,61.92" fill="none" stroke="#000000" stroke-width="0.125"/>
          <path d="M 145.9,63.02 C 146.5,64.18 149.1,64.64 149.5,62.98" fill="none" stroke="#000000" stroke-width="0.125"/>
          <path d="M 149.1,63.75 C 149.5,64.91 151.7,64.79 152.3,63.60" fill="none" stroke="#000000" stroke-width="0.125"/>
          <path d="M 151.5,64.37 C 152.2,65.88 155.1,65.88 155.7,63.67" fill="none" stroke="#000000" stroke-width="0.125"/>
          <path d="M 155.2,64.64 C 156.413,65.34 158.8,65.06 158.6,62.90" fill="none" stroke="#000000" stroke-width="0.125"/>
          <path d="M 158.1,64.45 C 159.8,65.80 162.17,64.49 161.0,62.21" fill="none" stroke="#000000" stroke-width="0.125"/>
          <path d="M 160.8,66.22 C 161.7,66.07 162.2,64.29 161.3,63.83" fill="none" stroke="#000000" stroke-width="0.125"/>
          <path d="M 140.3,66.53 C 142.1,65.53 142.5,63.83 141.2,62.17" fill="none" stroke="#000000" stroke-width="0.125"/>
          <path d="M 141.8,64.83 C 143.0,65.53 145.2,64.79 145.6,63.09" fill="none" stroke="#000000" stroke-width="0.125"/>
          <path d="M 143.4,65.03 C 144.1,65.88 144.2,66.92 143.3,67.88" fill="none" stroke="#000000" stroke-width="0.125"/>
          <path d="M 144.0,66.11 C 146.0,64.83 148.6,67.19 146.7,68.62" fill="none" stroke="#000000" stroke-width="0.125"/>
          <path d="M 146.3,65.99 C 146.8,65.88 147.6,65.03 147.7,64.06" fill="none" stroke="#000000" stroke-width="0.125"/>
          <path d="M 147.2,66.88 C 148.1,65.99 153.9,67.81 150.2,69.66" fill="none" stroke="#000000" stroke-width="0.125"/>
          <path d="M 150,64.4513 C 151.1,64.87 151.7,66.4604 150,67.0012" fill="none" stroke="#000000" stroke-width="0.125"/>
          <path d="M 151.4,68.31 C 152.7,67.03 156.5,67.85 155.1,69.47" fill="none" stroke="#000000" stroke-width="0.125"/>
          <path d="M 154.2,67.81 C 154.9,65.45 159.0,66.92 157.7,67.88" fill="none" stroke="#000000" stroke-width="0.125"/>
          <path d="M 153.4,65.4558 C 153.5,65.91 153.5,67.07 152.7,67.69" fill="none" stroke="#000000" stroke-width="0.125"/>
          <path d="M 156.8,64.99 C 157.0,65.37 156.9,66.11 156.6,66.57" fill="none" stroke="#000000" stroke-width="0.125"/>
          <path d="M 159.5,65.03 C 159.7,65.45 160.1,66.26 159.2,66.92" fill="none" stroke="#000000" stroke-width="0.125"/>
          <path d="M 126.4,47.25 C 126.4,49.46 127.2,50.92 130.2,49.53" fill="none" stroke="#000000" stroke-width="0.125"/>
          <path d="M 127.3,49.88 C 125.8,51.85 127.5,53.98 130.4,51.85" fill="none" stroke="#000000" stroke-width="0.125"/>
          <path d="M 122.8,50.85 C 124.8,53.01 128.4,51.43 126.1,48.14" fill="none" stroke="#000000" stroke-width="0.125"/>
          <path d="M 128.5,52.70 C 128.1,54.83 129.9,55.25 131.3,54.29" fill="none" stroke="#000000" stroke-width="0.125"/>
          <path d="M 121.0,51.19 C 121.4,53.33 123.6,55.02 125.7,53.71" fill="none" stroke="#000000" stroke-width="0.125"/>
          <path d="M 123.6,54.13 C 123.6,57.18 127.9,57.53 128.8,54.36" fill="none" stroke="#000000" stroke-width="0.125"/>
          <path d="M 127.3,56.29 C 128.7,59.08 131.6,57.96 132.6,56.26" fill="none" stroke="#000000" stroke-width="0.125"/>
          <path d="M 124.3,51.85 C 124.9,53.20 126.0,54.71 128.5,53.59" fill="none" stroke="#000000" stroke-width="0.125"/>
          <path d="M 116.6,51.19 C 117.006,52.32 119.0,53.67 121.3,52.12" fill="none" stroke="#000000" stroke-width="0.125"/>
          <path d="M 118.0,52.62 C 116.8,54.44 119.3,56.14 122.2,53.44" fill="none" stroke="#000000" stroke-width="0.125"/>
          <path d="M 119.5,54.86 C 120.0,57.41 121.0,59.46 124.6,56.18" fill="none" stroke="#000000" stroke-width="0.125"/>
          <path d="M 122.8,57.49 C 124.1,59.11 126.2,60.12 128.0,57.38" fill="none" stroke="#000000" stroke-width="0.125"/>
          <path d="M 129.4,57.96 C 129.3,59.89 129.7,60.85 131.2,60.78 C 132.4,60.72 133.5,59.77 134.2,58.77" fill="none" stroke="#000000" stroke-width="0.125"/>
          <path d="M 130.9,60.78 C 130.9,62.98 132.6,64.72 135.9,62.48" fill="none" stroke="#000000" stroke-width="0.125"/>
          <path d="M 132.3,63.36 C 131.7,65.03 133.5,67.73 137.2,66.34" fill="none" stroke="#000000" stroke-width="0.125"/>
          <path d="M 124.6,58.96 C 124.4,61.09 126.3,62.51 129.5,59.77" fill="none" stroke="#000000" stroke-width="0.125"/>
          <path d="M 126.2,61.32 C 126.3,63.06 128.2,65.14 131.1,62.13" fill="none" stroke="#000000" stroke-width="0.125"/>
          <path d="M 127.5,63.52 C 127.3,66.49 130.1,67.34 132.4,65.06" fill="none" stroke="#000000" stroke-width="0.125"/>
          <path d="M 123.4,61.32 C 124.0,61.36 124.5,60.81 124.8,60.43" fill="none" stroke="#000000" stroke-width="0.125"/>
          <path d="M 124.7,63.48 C 125.3,63.60 126.2,63.09 126.5,62.48" fill="none" stroke="#000000" stroke-width="0.125"/>
          <path d="M 126.1,67.00 C 126.7,67.65 128.8,67.19 129.0,66.30" fill="none" stroke="#000000" stroke-width="0.125"/>
          <path d="M 128.4,66.96 C 129.6,69.66 132.6,69.55 133.9,66.49" fill="none" stroke="#000000" stroke-width="0.125"/>
          <path d="M 133.3,67.58 C 133.9,69.16 135.4,70.16 137.8,69.62" fill="none" stroke="#000000" stroke-width="0.125"/>
          <path d="M 134.5,69.20 C 133.1,71.40 134.9,73.99 137.9,71.44" fill="none" stroke="#000000" stroke-width="0.125"/>
          <path d="M 135.2,72.48 C 135.1,73.87 136.4,75.46 138.1,75.65" fill="none" stroke="#000000" stroke-width="0.125"/>
          <path d="M 129.5,68.43 C 129.0,71.56 131.3,73.06 134.1,71.40" fill="none" stroke="#000000" stroke-width="0.125"/>
          <path d="M 126.2,69.93 C 127.0,70.51 128.3,70.59 129.5,70.13" fill="none" stroke="#000000" stroke-width="0.125"/>
          <path d="M 131.0,71.94 C 130.3,74.57 133.0,76.46 135.3,73.53" fill="none" stroke="#000000" stroke-width="0.125"/>
          <path d="M 127.3,70.36 C 127.3,71.71 128.6,73.18 130.9,72.75" fill="none" stroke="#000000" stroke-width="0.125"/>
          <path d="M 137.3,75.46 C 135.7,76.50 135.4,78.35 137.6,79.55" fill="none" stroke="#000000" stroke-width="0.125"/>
          <path d="M 133.5,74.92 C 133.6,76.50 134.3,77.39 136.0,77.54" fill="none" stroke="#000000" stroke-width="0.125"/>
          <path d="M 131.262,74.11 C 128.9,76.23 131.2,78.70 133.9,76.62" fill="none" stroke="#000000" stroke-width="0.125"/>
          <path d="M 132.8,77.27 C 132.1,79.71 135.0,81.18 136.5,78.70" fill="none" stroke="#000000" stroke-width="0.125"/>
          <path d="M 128.0,72.10 C 127.2,74.49 128.3,76.08 130.2,75.92" fill="none" stroke="#000000" stroke-width="0.125"/>
          <path d="M 125.0,71.63 C 125.1,73.06 126.3,73.56 127.7,73.26" fill="none" stroke="#000000" stroke-width="0.125"/>
          <path d="M 125.9,73.14 C 124.8,75.15 126.4,76.23 128.5,75.46" fill="none" stroke="#000000" stroke-width="0.125"/>
          <path d="M 134.8,79.94 C 134.5,81.21 134.7,82.14 136.6,82.57" fill="none" stroke="#000000" stroke-width="0.125"/>
          <path d="M 135.0,81.75 C 132.7,82.80 132.5,85.00 134.3,86.43" fill="none" stroke="#000000" stroke-width="0.125"/>
          <path d="M 133.1,79.30 C 131.9,80.38 132.2,82.26 133.5,82.99" fill="none" stroke="#000000" stroke-width="0.125"/>
          <path d="M 123.0,72.25 C 121.719,73.55 122.9,77.12 125.8,75.17" fill="none" stroke="#000000" stroke-width="0.125"/>
          <path d="M 130.5,76.77 C 128.7,78.24 129.6,80.90 132.5,80.17" fill="none" stroke="#000000" stroke-width="0.125"/>
          <path d="M 127.6,75.65 C 126.7,78.28 127.5,79.20 129.6,79.24" fill="none" stroke="#000000" stroke-width="0.125"/>
          <path d="M 121.1,72.13 C 119.5,73.33 119.9,75.03 120.638,75.81 C 121.3,76.58 122.6,76.23 123.0,75.23" fill="none" stroke="#000000" stroke-width="0.125"/>
          <path d="M 117.7,71.09 C 116.0,73.37 117.7,76.08 120.2,75.26" fill="none" stroke="#000000" stroke-width="0.125"/>
          <path d="M 127.2,77.85 C 125.4,78.51 124.0,80.16 125.1,81.60 C 125.8,82.45 128.7,82.57 129.5,79.28" fill="none" stroke="#000000" stroke-width="0.125"/>
          <path d="M 123.9,75.73 C 122.9,77.23 123.3,78.66 125.2,79.40" fill="none" stroke="#000000" stroke-width="0.125"/>
          <path d="M 123.8,78.55 C 122.7,79.17 122.0,79.90 122.2,81.25" fill="none" stroke="#000000" stroke-width="0.125"/>
          <path d="M 121.3,76.19 C 120.9,78.01 121.4,79.13 122.5,79.67" fill="none" stroke="#000000" stroke-width="0.125"/>
          <path d="M 121.3,78.35 C 119.5,78.24 118.7,78.97 119.2,80.67" fill="none" stroke="#000000" stroke-width="0.125"/>
          <path d="M 119.4,78.78 C 117.7,78.16 117.4,76.69 118.2,75.15" fill="none" stroke="#000000" stroke-width="0.125"/>
          <path d="M 117.9,77.43 C 116.1,77.50 115.3,78.43 115.3,79.71" fill="none" stroke="#000000" stroke-width="0.125"/>
          <path d="M 115.4,70.20 C 114.1,70.78 113.6,72.60 114.1,73.60 C 114.6,74.61 116.2,74.68 117.2,74.03" fill="none" stroke="#000000" stroke-width="0.125"/>
          <path d="M 111.6,68.77 C 110.4,70.16 111.8,72.87 114.0,72.21" fill="none" stroke="#000000" stroke-width="0.125"/>
          <path d="M 108.5,67.69 C 107.3,69.31 108.6,72.02 111.5,71.25" fill="none" stroke="#000000" stroke-width="0.125"/>
          <path d="M 111.7,78.78 C 111.4,76.85 113.4,75.57 115.9,78.08" fill="none" stroke="#000000" stroke-width="0.125"/>
          <path d="M 114.7,74.18 C 113.9,74.84 113.6,75.88 113.7,76.73" fill="none" stroke="#000000" stroke-width="0.125"/>
          <path d="M 105.3,66.76 C 104.0,68.93 105.6,70.90 108.3,70.13" fill="none" stroke="#000000" stroke-width="0.125"/>
          <path d="M 112.4,72.13 C 110.6,73.95 111.2,75.77 112.6,76.81" fill="none" stroke="#000000" stroke-width="0.125"/>
          <path d="M 111.3,74.26 C 108.5,74.30 108.4,77.47 110.6,78.47" fill="none" stroke="#000000" stroke-width="0.125"/>
          <path d="M 109.2,71.09 C 108.1,71.86 107.7,73.99 109.7,74.84" fill="none" stroke="#000000" stroke-width="0.125"/>
          <path d="M 109.1,75.84 C 108.0,75.30 106.6,75.96 106.7,77.31" fill="none" stroke="#000000" stroke-width="0.125"/>
          <path d="M 107.4,75.88 C 106.3,73.41 103.3,73.83 103.6,76.3895" fill="none" stroke="#000000" stroke-width="0.125"/>
          <path d="M 108.2,72.83 C 107.6,72.95 106.3,73.33 105.8,74.34" fill="none" stroke="#000000" stroke-width="0.125"/>
          <path d="M 105.9,70.05 C 104.7,71.44 105.7,73.10 106.7,73.45" fill="none" stroke="#000000" stroke-width="0.125"/>
          <path d="M 102.3,66.15 C 102.0,67.81 102.7,68.62 104.8,68.46" fill="none" stroke="#000000" stroke-width="0.125"/>
          <path d="M 103.0,68.27 C 102.2,70.28 103.3,71.17 105.4,71.05" fill="none" stroke="#000000" stroke-width="0.125"/>
          <path d="M 103.5,70.74 C 102.2,72.21 103.1,73.80 104.3,74.45" fill="none" stroke="#000000" stroke-width="0.125"/>
          <path d="M 102.9,72.60 C 100.7,72.33 100.3,74.88 101.1,76.08" fill="none" stroke="#000000" stroke-width="0.125"/>
          <path d="M 101.1,65.95 C 99.81,66.53 99.04,68.23 99.77,69.28 C 100.5,70.32 101.9,69.97 102.7,69.43" fill="none" stroke="#000000" stroke-width="0.125"/>
          <path d="M 100.2,69.74 C 99.11,71.44 100.1,72.71 101.3,73.22" fill="none" stroke="#000000" stroke-width="0.125"/>
          <path d="M 95.91,65.76 C 95.02,66.69 95.56,68.58 97.72,68.62 C 99.46,68.65 100.3,67.00 99.81,65.84" fill="none" stroke="#000000" stroke-width="0.125"/>
          <path d="M 97.41,68.62 C 96.72,70.16 97.14,71.83 99.77,71.56" fill="none" stroke="#000000" stroke-width="0.125"/>
          <path d="M 100.8,73.99 C 99.27,73.26 97.10,73.99 98.03,75.92" fill="none" stroke="#000000" stroke-width="0.125"/>
          <path d="M 97.80,71.25 C 97.14,72.17 97.37,73.49 98.11,74.30" fill="none" stroke="#000000" stroke-width="0.125"/>
          <path d="M 97.68,73.72 C 96.60,73.91 95.56,74.49 96.22,76.19" fill="none" stroke="#000000" stroke-width="0.125"/>
          <path d="M 96.06,74.80 C 94.67,74.38 92.89,75.38 93.97,76.81" fill="none" stroke="#000000" stroke-width="0.125"/>
          <path d="M 93.74,75.46 C 92.54,75.26 91.12,76.54 92.27,77.81" fill="none" stroke="#000000" stroke-width="0.125"/>
          <path d="M 91.81,76.77 C 90.73,77.04 89.45,78.28 90.57,79.24" fill="none" stroke="#000000" stroke-width="0.125"/>
          <path d="M 97.26,70.71 C 95.71,71.40 95.56,73.14 96.29,74.41" fill="none" stroke="#000000" stroke-width="0.125"/>
          <path d="M 95.64,67.50 C 93.32,68.39 93.36,71.48 95.91,72.44" fill="none" stroke="#000000" stroke-width="0.125"/>
          <path d="M 94.82,71.75 C 93.43,72.56 93.1681,74.11 94.09,75.11" fill="none" stroke="#000000" stroke-width="0.125"/>
          <path d="M 92.39,66.34 C 91.46,66.65 91.54,69.51 94.01,69.43" fill="none" stroke="#000000" stroke-width="0.125"/>
          <path d="M 89.84,67.31 C 87.99,68.54 90.23,71.67 93.24,69.43" fill="none" stroke="#000000" stroke-width="0.125"/>
          <path d="M 91.58,70.20 C 91.31,71.48 91.66,72.87 93.70,73.02" fill="none" stroke="#000000" stroke-width="0.125"/>
          <path d="M 91.7,71.9079 C 90.23,72.44 89.96,75.46 92.62,75.69" fill="none" stroke="#000000" stroke-width="0.125"/>
          <path d="M 87.02,69.16 C 85.13,70.90 88.57,72.41 89.84,69.89" fill="none" stroke="#000000" stroke-width="0.125"/>
          <path d="M 84.39,72.06 C 83.47,73.18 86.71,76.11 88.14,71.21" fill="none" stroke="#000000" stroke-width="0.125"/>
          <path d="M 88.49,71.13 C 88.57,72.29 89.26,72.98 90.69,73.06" fill="none" stroke="#000000" stroke-width="0.125"/>
          <path d="M 90.65,74.18 C 88.37,74.53 87.64,77.39 90.19,78.01" fill="none" stroke="#000000" stroke-width="0.125"/>
          <path d="M 86.44,73.80 C 86.36,74.88 87.48,75.77 88.76,75.57" fill="none" stroke="#000000" stroke-width="0.125"/>
          <path d="M 89.92,77.93 C 87.83,78.39 87.56,81.10 89.42,80.94" fill="none" stroke="#000000" stroke-width="0.125"/>
          <path d="M 88.45,83.45 C 86.71,82.93 86.67,80.87 88.22,80.09" fill="none" stroke="#000000" stroke-width="0.125"/>
          <path d="M 87.02,81.64 C 85.55,82.53 86.13,84.65 86.90,84.96 C 87.68,85.27 88.30,84.88 88.37,84.23" fill="none" stroke="#000000" stroke-width="0.125"/>
          <path d="M 88.26,87.20 C 88.41,88.21 84.68,87.82 86.60,84.69" fill="none" stroke="#000000" stroke-width="0.125"/>
          <path d="M 86.58,87.38 C 85.32,89.35 87.37,90.95 88.66,89.27" fill="none" stroke="#000000" stroke-width="0.125"/>
          <path d="M 86.75,89.75 C 86.25,91.34 88.16,92.48 89.40,91.24" fill="none" stroke="#000000" stroke-width="0.125"/>
          <path d="M 82.58,74.92 C 81.88,76.35 85.36,76.89 85.59,73.95" fill="none" stroke="#000000" stroke-width="0.125"/>
          <path d="M 81.61,77.04 C 80.92,79.82 86.17,79.24 84.82,75.65" fill="none" stroke="#000000" stroke-width="0.125"/>
          <path d="M 84.93,77.50 C 85.67,77.93 87.87,77.97 88.41,75.61" fill="none" stroke="#000000" stroke-width="0.125"/>
          <path d="M 86.83,77.58 C 86.98,78.32 87.64,79.20 88.26,79.48" fill="none" stroke="#000000" stroke-width="0.125"/>
          <path d="M 84.32,78.32 C 84.08,79.82 85.59,81.06 87.33,80.94" fill="none" stroke="#000000" stroke-width="0.125"/>
          <path d="M 84.59,79.78 C 83.74,80.94 83.47,83.18 86.13,83.34" fill="none" stroke="#000000" stroke-width="0.125"/>
          <path d="M 80.53,80.17 C 80.10,81.37 82.62,82.60 84.08,80.63" fill="none" stroke="#000000" stroke-width="0.125"/>
          <path d="M 79.76,83.22 C 79.54,84.13 81.80,85.35 83.08,81.48" fill="none" stroke="#000000" stroke-width="0.125"/>
          <path d="M 82.07,83.45 C 82.62,84.42 84.43,85.19 85.55,83.30" fill="none" stroke="#000000" stroke-width="0.125"/>
          <path d="M 83.74,84.46 C 83.27,85.81 84.55,87.09 86.09,86.70" fill="none" stroke="#000000" stroke-width="0.125"/>
          <path d="M 80.84,84.15 C 80.53,86.08 82.77,87.20 84.16,86.20" fill="none" stroke="#000000" stroke-width="0.125"/>
          <path d="M 79.37,85.00 C 78.71,87.47 81.88,88.40 83.08,86.55" fill="none" stroke="#000000" stroke-width="0.125"/>
          <path d="M 82.27,87.28 C 82.38,88.67 84.55,89.87 86.25,88.71" fill="none" stroke="#000000" stroke-width="0.125"/>
          <path d="M 78.40,88.44 C 78.25,89.06 80.84,89.67 81.22,87.51" fill="none" stroke="#000000" stroke-width="0.125"/>
          <path d="M 79.91,88.98 C 80.53,90.56 82.62,90.95 83.81,89.02" fill="none" stroke="#000000" stroke-width="0.125"/>
          <path d="M 83.12,89.79 C 83.39,91.26 85.28,92.07 86.94,91.07" fill="none" stroke="#000000" stroke-width="0.125"/>
          <path d="M 87.64,91.65 C 87.21,93.62 89.26,95.20 90.54,94.12" fill="none" stroke="#000000" stroke-width="0.125"/>
          <path d="M 84.35,91.30 C 83.74,93.46 86.44,94.70 87.95,93.50" fill="none" stroke="#000000" stroke-width="0.125"/>
          <path d="M 81.11,90.22 C 80.95,92.22 82.54,93.42 84.35,92.53" fill="none" stroke="#000000" stroke-width="0.125"/>
          <path d="M 77.67,90.41 C 77.13,91.72 79.99,92.80 81.34,91.68" fill="none" stroke="#000000" stroke-width="0.125"/>
          <path d="M 75.89,94.00 C 76.63,94.85 79.18,94.00 79.41,92.11" fill="none" stroke="#000000" stroke-width="0.125"/>
          <path d="M 78.71,93.50 C 79.64,94.58 81.84,95.16 82.73,92.84" fill="none" stroke="#000000" stroke-width="0.125"/>
          <path d="M 81.96,94.04 C 81.92,95.70 84.90,96.90 85.86,93.85" fill="none" stroke="#000000" stroke-width="0.125"/>
          <path d="M 89.36,94.45 C 89.09,95.26 89.72,96.55 91.06,96.71" fill="none" stroke="#000000" stroke-width="0.125"/>
          <path d="M 86.90,93.94 C 86.71,94.87 88.06,96.17 89.49,95.64" fill="none" stroke="#000000" stroke-width="0.125"/>
          <path d="M 89.76,96.03 C 89.3819,97.04 89.71,98.48 91.06,98.46" fill="none" stroke="#000000" stroke-width="0.125"/>
          <path d="M 89.90,97.90 C 88.89,98.75 89.32,100.2 90.77,100.3" fill="none" stroke="#000000" stroke-width="0.125"/>
          <path d="M 89.38,99.33 C 87.95,100.3 88.45,102.4 90.34,102.3" fill="none" stroke="#000000" stroke-width="0.125"/>
          <path d="M 85.05,95.24 C 85.05,97.32 87.64,97.63 88.14,95.70" fill="none" stroke="#000000" stroke-width="0.125"/>
          <path d="M 87.14,96.94 C 86.75,98.17 87.75,99.37 89.34,99.02" fill="none" stroke="#000000" stroke-width="0.125"/>
          <path d="M 87.45,111.8 C 87.79,112.3 89.22,111.5 88.84,110.6 C 88.45,109.8 86.94,110.2 87.10,111.1" fill="none" stroke="#000000" stroke-width="0.125"/>
          <path d="M 88.49,110.3 C 88.68,108.6 86.67,108.3 86.17,109.8" fill="none" stroke="#000000" stroke-width="0.125"/>
          <path d="M 86.90,108.9 C 87.41,108.1 85.71,106.9 85.01,108.1" fill="none" stroke="#000000" stroke-width="0.125"/>
          <path d="M 85.63,107.6 C 86.09,106.4 84.16,105.9 84.01,107.0" fill="none" stroke="#000000" stroke-width="0.125"/>
          <path d="M 83.58,105.4 C 83.81,104.7 85.98,105.1 85.05,106.4" fill="none" stroke="#000000" stroke-width="0.125"/>
          <path d="M 86.71,107.9 C 87.56,107.2 86.13,105.6 85.24,106.2" fill="none" stroke="#000000" stroke-width="0.125"/>
          <path d="M 92.43,110.3 C 91.75,110.4 91.06,110.8 91.56,112.3 C 91.91,113.2 93.39,113.3 93.61,112.7" fill="none" stroke="#000000" stroke-width="0.125"/>
          <path d="M 91.44,111.0 C 90.79,110.6 89.36,111.3 90.01,112.7 C 90.51,113.7 91.75,113.3 91.95,112.8" fill="none" stroke="#000000" stroke-width="0.125"/>
          <path d="M 87.75,113.0 C 88.08,113.6 89.72,113.3 90.01,112.7" fill="none" stroke="#000000" stroke-width="0.125"/>
          <path d="M 88.87,111.1 C 89.22,110.9 89.86,111.1 90,111.489" fill="none" stroke="#000000" stroke-width="0.125"/>
          <path d="M 88.76,101.6 C 87.64,102.3 88.33,104.5 90.07,104.0" fill="none" stroke="#000000" stroke-width="0.125"/>
          <path d="M 88.41,103.4 C 87.52,104.1 88.33,106.2 90,105.482" fill="none" stroke="#000000" stroke-width="0.125"/>
          <path d="M 88.68,105.4 C 88.0683,106.1 88.66,107.8 90.27,107.4" fill="none" stroke="#000000" stroke-width="0.125"/>
          <path d="M 88.45,106.3 C 88.10,106.1 87.19,106.2 86.81,106.8" fill="none" stroke="#000000" stroke-width="0.125"/>
          <path d="M 87.45,98.50 C 86.60,99.31 87.00,100.9 88.58,101.1" fill="none" stroke="#000000" stroke-width="0.125"/>
          <path d="M 87.14,100.2 C 85.92,100.8 85.92,103.2 88.35,103.3" fill="none" stroke="#000000" stroke-width="0.125"/>
          <path d="M 87.04,102.9 C 86.36,103.4 86.69,105.5 88.43,105.2" fill="none" stroke="#000000" stroke-width="0.125"/>
          <path d="M 87.60,105.2 C 87.35,105.4 87.3147,106.1 87.52,106.3" fill="none" stroke="#000000" stroke-width="0.125"/>
          <path d="M 86.83,104.4 C 86.21,104.4 85.40,104.8 85.18,105.5" fill="none" stroke="#000000" stroke-width="0.125"/>
          <path d="M 84.06,103.2 C 84.30,102.6 86.2139,102.7 86.34,104.5" fill="none" stroke="#000000" stroke-width="0.125"/>
          <path d="M 86.54,102.3 C 86.27,102.4 85.75,102.6 85.61,103.1" fill="none" stroke="#000000" stroke-width="0.125"/>
          <path d="M 85.71,96.69 C 84.88,97.44 84.47,99.82 87.00,100.2" fill="none" stroke="#000000" stroke-width="0.125"/>
          <path d="M 84.03,101.5 C 84.03,100.9 85.75,100.4 86.34,101.3" fill="none" stroke="#000000" stroke-width="0.125"/>
          <path d="M 82.92,98.14 C 83.18,98.62 84.37,99.28 85.11,98.73" fill="none" stroke="#000000" stroke-width="0.125"/>
          <path d="M 76.70,94.35 C 76.67,95.47 77.59,96.47 78.87,96.32 C 80.14,96.17 80.41,95.05 80.03,94.31" fill="none" stroke="#000000" stroke-width="0.125"/>
          <path d="M 79.06,96.36 C 78.21,97.40 79.25,98.87 80.2254,98.45" fill="none" stroke="#000000" stroke-width="0.125"/>
          <path d="M 80.03,95.62 C 80.53,95.43 82.19,95.20 82.69,95.97" fill="none" stroke="#000000" stroke-width="0.125"/>
          <path d="M 74.66,95.93 C 74.27,96.51 76.67,97.09 77.48,95.97" fill="none" stroke="#000000" stroke-width="0.125"/>
          <path d="M 76.67,96.55 C 76.59,97.32 76.98,98.64 78.95,98.10" fill="none" stroke="#000000" stroke-width="0.125"/>
          <path d="M 79.25,99.29 C 79.56,98.64 78.10,97.56 76.98,98.75 C 75.85,99.95 77.13,101.3 77.83,100.8" fill="none" stroke="#000000" stroke-width="0.125"/>
          <path d="M 74.12,96.71 C 73.54,97.71 75.78,99.55 77.05,97.85" fill="none" stroke="#000000" stroke-width="0.125"/>
          <path d="M 72.6335,98.45 C 71.82,99.28 72.82,100.8 74.04,100.3 C 75.26,99.87 75.14,98.60 74.85,98.27" fill="none" stroke="#000000" stroke-width="0.125"/>
          <path d="M 71.06,99.99 C 70.41,100.5 71.04,102.0 71.95,102.0 C 72.86,102.0 73.42,101.2 73.25,100.3" fill="none" stroke="#000000" stroke-width="0.125"/>
          <path d="M 74.75,99.87 C 74.64,100.7 75.95,101.3 76.80,100.5" fill="none" stroke="#000000" stroke-width="0.125"/>
          <path d="M 76.84,98.93 C 76.96,98.73 76.86,98.41 76.67,98.25" fill="none" stroke="#000000" stroke-width="0.125"/>
          <path d="M 69.65,101.1 C 68.90,101.7 70.52,103.4 71.55,101.9" fill="none" stroke="#000000" stroke-width="0.125"/>
          <path d="M 75.47,100.8 C 74.99,101.3 75.76,102.5 76.53,102.1" fill="none" stroke="#000000" stroke-width="0.125"/>
          <path d="M 72.82,101.7 C 72.94,102.5 74.56,103.1 75.58,101.8" fill="none" stroke="#000000" stroke-width="0.125"/>
          <path d="M 73.71,102.5 C 73.46,103.0 73.96,103.8 74.58,103.7" fill="none" stroke="#000000" stroke-width="0.125"/>
          <path d="M 89.09,107.3 C 88.49,108.4 90.40,109.8 91.79,108.4" fill="none" stroke="#000000" stroke-width="0.125"/>
          <path d="M 90.48,109.0 C 90.19,109.7 90.54,110.6 91.06,110.9" fill="none" stroke="#000000" stroke-width="0.125"/>
          <path d="M 88.66,110.4 C 88.80,109.8 89.63,109.2 90.38,109.5" fill="none" stroke="#000000" stroke-width="0.125"/>
          <path d="M 87.66,108.8 C 87.77,108.3 88.47,107.8 88.99,107.9" fill="none" stroke="#000000" stroke-width="0.125"/>
          <path d="M 133.1,84.77 C 130.4,84.81 131.5,89.21 133.9,88.32" fill="none" stroke="#000000" stroke-width="0.125"/>
          <path d="M 132.2,88.01 C 131.7,88.90 132.7,90.31 133.9,89.48" fill="none" stroke="#000000" stroke-width="0.125"/>
          <path d="M 133.6,89.66 C 132.8,91.01 135.7,93.07 136.8,90.95" fill="none" stroke="#000000" stroke-width="0.125"/>
          <path d="M 135.9,91.76 C 135.9,93.04 139.6,93.85 139.1,91.30" fill="none" stroke="#000000" stroke-width="0.125"/>
          <path d="M 138.7,92.69 C 139.6,94.20 143.0,94.35 142.6,92.11" fill="none" stroke="#000000" stroke-width="0.125"/>
          <path d="M 141.9,93.65 C 142.6,94.66 145.8,95.28 145.7,93.19" fill="none" stroke="#000000" stroke-width="0.125"/>
          <path d="M 128.7,80.94 C 129.2,82.14 130.7,82.57 132.5,81.87" fill="none" stroke="#000000" stroke-width="0.125"/>
          <path d="M 127.7,81.79 C 128.8,82.49 127.2,85.66 125.5,84.38" fill="none" stroke="#000000" stroke-width="0.125"/>
          <path d="M 127.7,83.76 C 128.9,84.34 130.4,83.92 130.8,82.22" fill="none" stroke="#000000" stroke-width="0.125"/>
          <path d="M 130.1,83.53 C 130.2,84.42 131.4,85.12 133.1,84.77" fill="none" stroke="#000000" stroke-width="0.125"/>
          <path d="M 127.1,84.46 C 128.6,85.77 126.4,88.48 125.4,87.24" fill="none" stroke="#000000" stroke-width="0.125"/>
          <path d="M 127.7,85.46 C 128.4,86.00 130.3,85.70 130.5,84.27" fill="none" stroke="#000000" stroke-width="0.125"/>
          <path d="M 129.6,85.46 C 129.8,86.39 130.5,86.74 131.6,86.78" fill="none" stroke="#000000" stroke-width="0.125"/>
          <path d="M 127.2,86.74 C 128.0,87.82 129.9,88.13 130.8,86.70" fill="none" stroke="#000000" stroke-width="0.125"/>
          <path d="M 129.9,87.51 C 129.9,88.55 131.0,89.40 132.2,89.17" fill="none" stroke="#000000" stroke-width="0.125"/>
          <path d="M 125.7,89.83 C 126.7,90.33 127.8,88.44 127.012,87.13" fill="none" stroke="#000000" stroke-width="0.125"/>
          <path d="M 126.9,91.84 C 128.1,91.92 128.2,90.10 127.1,89.10" fill="none" stroke="#000000" stroke-width="0.125"/>
          <path d="M 129.6,93.50 C 130.6,93.27 130.3,91.07 127.9,90.87" fill="none" stroke="#000000" stroke-width="0.125"/>
          <path d="M 132.7,95.12 C 133.6,94.85 132.9,92.42 130.2,92.57" fill="none" stroke="#000000" stroke-width="0.125"/>
          <path d="M 136.4,95.97 C 137.0,94.97 134.8,93.27 133.1,94.16" fill="none" stroke="#000000" stroke-width="0.125"/>
          <path d="M 138.2,97.36 C 139.4,97.71 140.2,94.54 136.4,95.05" fill="none" stroke="#000000" stroke-width="0.125"/>
          <path d="M 140.4,97.36 C 141.4,97.09 142.1,95.20 139.1,95.82" fill="none" stroke="#000000" stroke-width="0.125"/>
          <path d="M 142.7,97.52 C 143.6,97.98 144.0,95.28 141.2,96.01" fill="none" stroke="#000000" stroke-width="0.125"/>
          <path d="M 127.1,89.10 C 128.3,89.75 130.1,88.98 129.9,87.51" fill="none" stroke="#000000" stroke-width="0.125"/>
          <path d="M 129.5,88.79 C 129.9,89.48 129.7,90.83 129.0,91.18" fill="none" stroke="#000000" stroke-width="0.125"/>
          <path d="M 129.6,90.41 C 130.4,90.72 131.4,90.45 132.0,89.21" fill="none" stroke="#000000" stroke-width="0.125"/>
          <path d="M 130.9,90.41 C 131.2,90.95 131.3,92.03 130.7,92.57" fill="none" stroke="#000000" stroke-width="0.125"/>
          <path d="M 131.1,91.34 C 132.0,91.80 133.0,91.18 133.4,90.29" fill="none" stroke="#000000" stroke-width="0.125"/>
          <path d="M 132.9,91.07 C 133.5,91.45 134.0,93.27 133.0,94.00" fill="none" stroke="#000000" stroke-width="0.125"/>
          <path d="M 133.6,93.15 C 134.3,93.19 135.4,93.19 136.1,92.26" fill="none" stroke="#000000" stroke-width="0.125"/>
          <path d="M 135.6,92.77 C 136.2,92.96 137.0,94.04 136.7,95.01" fill="none" stroke="#000000" stroke-width="0.125"/>
          <path d="M 136.8,94.66 C 137.5,94.58 138.8,94.08 139.1,93.19" fill="none" stroke="#000000" stroke-width="0.125"/>
          <path d="M 138.8,93.77 C 139.4,94.12 139.8,94.85 139.8,95.7069" fill="none" stroke="#000000" stroke-width="0.125"/>
          <path d="M 139.8,95.0887 C 140.5,95.05 141.1,94.66 141.3,93.85" fill="none" stroke="#000000" stroke-width="0.125"/>
          <path d="M 141.1,94.39 C 141.7,94.58 142.3,95.20 142.4,95.93" fill="none" stroke="#000000" stroke-width="0.125"/>
          <path d="M 142.3,95.47 C 142.8,95.39 143.2,95.05 143.6,94.50" fill="none" stroke="#000000" stroke-width="0.125"/>
          <path d="M 145.0,94.43 C 145.7,95.12 144.8,97.44 143.4,97.02" fill="none" stroke="#000000" stroke-width="0.125"/>
          <path d="M 130.2,47.60 C 128.8,48.45 124.7,48.18 126.7,44.82" fill="none" stroke="#000000" stroke-width="0.125"/>
          <path d="M 130.6,45.32 C 127.8,46.44 124.3,44.28 127.9,41.92" fill="none" stroke="#000000" stroke-width="0.125"/>
          <path d="M 127.0,41.15 C 124.6,41.15 123.0,44.94 126.2,46.25" fill="none" stroke="#000000" stroke-width="0.125"/>
          <path d="M 117.8,42.73 C 117.2,43.93 119.4,45.24 120.9,44.05 C 122.1,43.12 122.0,40.61 121.3,39.64" fill="none" stroke="#000000" stroke-width="0.125"/>
          <path d="M 116.6,45.59 C 115.8,48.14 121.5,48.30 120.6,44.24" fill="none" stroke="#000000" stroke-width="0.125"/>
          <path d="M 116.3,49.38 C 116.5,51.31 121.7,50.69 120.0,46.79" fill="none" stroke="#000000" stroke-width="0.125"/>
          <path d="M 120.7,45.71 C 121.1,46.29 122.2,47.29 124.2,47.10" fill="none" stroke="#000000" stroke-width="0.125"/>
          <path d="M 121.6,42.97 C 121.8,43.66 122.9,44.20 124.5,43.68" fill="none" stroke="#000000" stroke-width="0.125"/>
          <path d="M 68.92,101.7 C 67.5918,102.7 69.63,104.1 70.39,102.5" fill="none" stroke="#000000" stroke-width="0.125"/>
          <path d="M 67.88,102.4 C 66.54,103.4 68.59,104.9 69.34,103.2" fill="none" stroke="#000000" stroke-width="0.125"/>
          <path d="M 66.78,103.2 C 65.44,104.1 67.49,105.6 68.24,103.9" fill="none" stroke="#000000" stroke-width="0.125"/>
          <path d="M 65.62,103.8 C 64.34,104.5 65.83,106.1 67.12,104.7" fill="none" stroke="#000000" stroke-width="0.125"/>
          <path d="M 64.36,104.4 C 63.09,105.1 64.57,106.8 65.87,105.3" fill="none" stroke="#000000" stroke-width="0.125"/>
          <path d="M 70.83,102.5 C 70.81,103.4 72.69,103.8 73.36,102.4" fill="none" stroke="#000000" stroke-width="0.125"/>
          <path d="M 72.01,103.4 C 71.43,104.1 72.49,105.0 73.07,104.7" fill="none" stroke="#000000" stroke-width="0.125"/>
          <path d="M 69.52,103.2 C 69.46,104.1 71.08,104.5 71.88,103.6" fill="none" stroke="#000000" stroke-width="0.125"/>
          <path d="M 70.41,104.1 C 69.89,104.8 70.91,105.7 71.57,105.4" fill="none" stroke="#000000" stroke-width="0.125"/>
          <path d="M 68.44,104.0 C 68.49,104.6 69.42,105.4 70.43,105.0" fill="none" stroke="#000000" stroke-width="0.125"/>
          <path d="M 69.04,104.9 C 68.65,105.2 68.84,106.0 69.38,106.3" fill="none" stroke="#000000" stroke-width="0.125"/>
          <path d="M 67.03,104.8 C 66.87,105.4 67.90,106.5 68.94,105.8" fill="none" stroke="#000000" stroke-width="0.125"/>
          <path d="M 67.24,105.5 C 66.62,106.0 66.70,106.7 67.49,106.8" fill="none" stroke="#000000" stroke-width="0.125"/>
          <path d="M 65.75,105.4 C 65.67,105.8 66.20,106.5 66.85,106.4" fill="none" stroke="#000000" stroke-width="0.125"/>
          <path d="M 62.45,105.4 C 61.83,105.7 63.41,107.4 64.40,105.8" fill="none" stroke="#000000" stroke-width="0.125"/>
          <path d="M 60.92,106.1 C 60.15,106.5 62.06,108.3 62.91,106.4" fill="none" stroke="#000000" stroke-width="0.125"/>
          <path d="M 65.93,106.0 C 65.33,106.1 64.94,107.0 65.44,107.4" fill="none" stroke="#000000" stroke-width="0.125"/>
          <path d="M 63.97,106.3 C 63.90,106.7 64.63,107.2 65.23,107.0" fill="none" stroke="#000000" stroke-width="0.125"/>
          <path d="M 63.47,106.5 C 62.89,106.8 63.20,107.9 63.88,107.7" fill="none" stroke="#000000" stroke-width="0.125"/>
          <path d="M 61.41,107.2 C 60.86,107.6 61.23,108.4 61.98,108.2" fill="none" stroke="#000000" stroke-width="0.125"/>
          <path d="M 62.39,107.1 C 62.41,107.3 62.89,107.6 63.30,107.5" fill="none" stroke="#000000" stroke-width="0.125"/>
          <path d="M 59.53,106.7 C 58.86,107.0 58.89,108.7 61.17,107.8" fill="none" stroke="#000000" stroke-width="0.125"/>
          <path d="M 58.01,107.4 C 57.06,107.9 57.37,109.2 59.43,107.9" fill="none" stroke="#000000" stroke-width="0.125"/>
          <path d="M 59.61,108.0 C 59.36,108.2 59.09,109.1 60.03,108.8" fill="none" stroke="#000000" stroke-width="0.125"/>
          <path d="M 57.87,108.4 C 57.48,108.8 57.74,109.558 58.59,109.287" fill="none" stroke="#000000" stroke-width="0.125"/>
          <path d="M 55.88,108.6 C 55.19,109.0 56.71,109.5 57.74,108.476" fill="none" stroke="#000000" stroke-width="0.125"/>
          <path d="M 56.34,109.1 C 56.04,109.422 56.04,110.33 56.85,110.0" fill="none" stroke="#000000" stroke-width="0.125"/>
          <path d="M 54.37,109.4 C 53.91,109.8 54.70,110.2 56.15,109.6" fill="none" stroke="#000000" stroke-width="0.125"/>
          <path d="M 54.95,109.9 C 54.41,110.4 54.47,110.9 55.26,110.8" fill="none" stroke="#000000" stroke-width="0.125"/>
          <path d="M 53.35,110.2 C 52.75,110.7 53.62,111.1 54.66,110.6" fill="none" stroke="#000000" stroke-width="0.125"/>
          <path d="M 53.37,110.8 C 52.35,111.2 52.79,112.1 53.43,111.8" fill="none" stroke="#000000" stroke-width="0.125"/>
          <path d="M 87.56,113.7 C 87.32,114.2 88.10,114.7 88.84,114.5 C 89.54,114.4 90.22,113.9 89.69,113.0" fill="none" stroke="#000000" stroke-width="0.125"/>
          <path d="M 89.72,114.0 C 90.42,114.6 91.66,114.0 91.66,113.2" fill="none" stroke="#000000" stroke-width="0.125"/>
        </g>
        <g>
          <path d="M 132.3,32.22 C 129.2,30.68 122.8,27.82 121.0,30.14 C 122.6,29.44 127.5,30.18 131.5,33.89 L 132.3,32.22 z " fill="#ffffff" stroke="#000000" stroke-width="0.125"/>
          <path d="M 134.2,32.06 C 130.6,27.90 128.5,28.83 125.9,27.40 C 123.5,26.05 119.7,25.77 118.9,27.92 C 122.4,26.20 125.7,28.84 127.7,29.16 C 130.4,29.60 131.9,31.71 132.7,32.68 L 134.2,32.06 z " fill="#ffffff" stroke="#000000" stroke-width="0.125"/>
          <path d="M 147.6,31.53 C 145.8,27.28 141.8,28.39 140.1,26.58 C 137.5,23.96 131.1,21.52 128.4,23.34 C 134.3,23.03 136.8,27.39 139.9,28.90 C 142.1,29.98 144.5,32.30 147.6,31.53 z " fill="#ffffff" stroke="#000000" stroke-width="0.125"/>
          <path d="M 140.7,31.07 C 137.5,27.13 132.6,23.65 130.4,24.96 C 133.3,25.12 134.3,27.16 136.4,28.48 C 138.4,29.79 137.5,31.68 140.7,31.07 z " fill="#ffffff" stroke="#000000" stroke-width="0.125"/>
          <path d="M 125.6,38.02 C 122.3,36.78 115.8,36.17 112.8,39.95 C 117.8,40.80 125.4,40.34 125.6,38.02 z " fill="#ffffff" stroke="#000000" stroke-width="0.125"/>
          <path d="M 125.0,39.49 C 121.7,37.94 119.1,40.10 116.0,39.80 C 110.0,39.22 105.8,39.57 105.2,42.42 C 108.6,39.37 114.3,41.88 116.6,41.27 C 119.0,40.65 127.5,41.19 130.2,42.35 C 128.9,40.65 126.7,40.18 125.0,39.49 z " fill="#ffffff" stroke="#000000" stroke-width="0.125"/>
          <path d="M 135.4,30.64 C 134.7,28.09 134.7,25.39 138.5,25.58 C 137.5,24.38 134.0,23.76 133.4,28.25 C 129.2,25.15 124.6,24.61 123.8,27.28 C 125.9,25.43 129.3,26.78 133.3,31.34 C 133.6,31.14 134.6,30.76 135.4,30.64 z " fill="#ffffff" stroke="#000000" stroke-width="0.125"/>
          <path d="M 129.6,34.16 C 127.2,32.61 124.0,30.10 129.7,29.10 C 127.2,27.78 123.7,28.36 124.1,32.84 C 117.6,30.22 112.9,31.10 111.9,33.69 C 110.9,36.55 114.9,38.14 115.6,36.32 C 114.8,36.63 112.3,35.78 113.6,34.16 C 114.9,32.53 121.7,33.75 128.1,37.09 C 129.9,38.02 136.0,37.87 129.6,34.16 z " fill="#ffffff" stroke="#000000" stroke-width="0.125"/>
          <path d="M 127.9,38.41 C 126.1,34.63 120.1,38.06 118.9,34.40 C 117.2,39.76 127.4,36.80 127.9,38.41 z " fill="#ffffff" stroke="#000000" stroke-width="0.125"/>
        </g>
        <path d="M 166.1,42.50 C 167.3,43.13 168.4,42.14 166.5,41.37 C 167.7,42.00 168.8,41.04 166.9,40.27 C 168.2,40.89 169.3,39.94 167.396,39.17 C 166.8,39.68 166.1,41.57 166.1,42.50 z " fill="#ffffff" stroke="#000000" stroke-width="0.125"/>
        <g>
          <path d="M 166.7,35.24 C 169.5,32.30 166.5,31.30 169.9,28.28 C 172.7,25.82 170.4,24.18 173.1,22.26 C 173.9,21.64 175.8,20.40 175.9,19.17 C 177.0,21.95 172.4,22.33 172.7,26.82 C 172.9,29.67 171.0,29.42 170.3,34.23 C 170.1,35.24 169.4,37.48 166.7,35.24 z " fill="#ffffff" stroke="#000000" stroke-width="0.125"/>
          <path d="M 168.0,36.55 C 169.5,33.23 171.3,33.29 172.1,31.99 C 173.7,29.52 177.2,32.42 180.1,30.22 C 179.6,33.35 175.7,32.22 174.0,34.23 C 172.3,36.24 170.9,37.17 168.0,36.55 z " fill="#ffffff" stroke="#000000" stroke-width="0.125"/>
          <path d="M 168.3,37.63 C 171.0,35.47 173.0,36.91 174.9,35.78 C 179.6,32.92 181.5,36.36 185.7,35.01 C 184.6,37.71 178.4,35.39 175.7,37.40 C 173.0,39.41 163.5,41.34 168.3,37.63 z " fill="#ffffff" stroke="#000000" stroke-width="0.125"/>
        </g>
        <g>
          <path d="M 160.5,53.05 C 160.4,51.81 159.3,50.23 157.6,50.04 C 156.0,49.84 155.3,48.14 154.1,48.07 C 152.8,47.99 152.0,45.52 150.3,45.55 C 148.6,45.59 147.9,47.79 151.9,49.80 C 155.9,51.81 160.3,54.13 160.5,53.05 z " fill="#ffffff" stroke="#000000" stroke-width="0.125"/>
          <g>
            <path d="M 155.4,54.09 C 153.7,54.17 153.5,56.64 151.9,56.72 C 154.1,57.92 155.7,56.18 156.9,54.63 L 155.4,54.09 z " fill="#ffffff" stroke="#000000" stroke-width="0.125"/>
            <path d="M 156.8,54.40 C 155.4,55.64 154.9,58.23 157.1,58.96 C 155.8,57.20 159.3,56.41 158.2,54.79 L 156.8,54.40 z " fill="#ffffff" stroke="#000000" stroke-width="0.125"/>
            <path d="M 158.3,54.48 C 157.1,56.72 160.1,56.99 159.3,58.69 C 161.0,58.30 161.3,55.10 159.8,54.25 L 158.3,54.48 z " fill="#ffffff" stroke="#000000" stroke-width="0.125"/>
          </g>
          <path d="M 146.9,49.69 C 149.7,49.53 152.3,51.04 154.0,53.47 C 155.1,55.0244 158.7,55.64 159.9,54.40 C 161.204,53.17 160.5,50.54 157.4,51.39 C 156.6,50.07 154.4,50.54 153.3,49.46 C 152.2,48.37 148.0,45.28 146.9,49.69 z " fill="#ffffff" stroke="#000000" stroke-width="0.125"/>
          <path d="M 157.4,51.39 C 156.6,51.54 156.4,52.82 156.9,53.47" fill="#ffffff" stroke="#000000" stroke-width="0.125" stroke-linecap="round"/>
          <path d="M 159.0,52.16 C 159.2,52.55 159.0,53.09 158.9,53.36" fill="#ffffff" stroke="#000000" stroke-width="0.125" stroke-linecap="round"/>
          <path d="M 151.3,49.80 C 152.8,49.88 153.0,50.92 154.6,51.31" fill="#ffffff" stroke="#000000" stroke-width="0.125" stroke-linecap="round"/>
          <path d="M 150.4,46.29 C 155.3,47.52 159.3,48.61 161.7,50.00 C 164.1,51.39 167.9,51.77 171.2,50.85 C 174.5,49.92 180.8,49.07 180.535,53.17 C 182.2,51.12 180.0,48.92 175.6,48.53 C 175.7,46.52 173.6,44.70 172.0,45.90 C 173.4,45.71 174.7,48.37 171.9,49.46 C 172.4,47.45 170.4,45.63 168.3,46.52 C 169.7,46.91 171.0,49.14 168.0,50.00 C 166.1,50.54 163.4,49.84 161.4,48.61 C 159.3,47.37 147.9,42.89 150.4,46.29 z " fill="#ffffff" stroke="#000000" stroke-width="0.125"/>
        </g>
        <g>
          <path d="M 162.9,44.28 C 161.3,44.97 162.3,46.60 159.9,47.52 C 157.5,48.45 155.9,50.58 156.4,52.39 C 158.0,48.84 160.9,48.99 161.9,47.60 C 162.9,46.21 164.4,44.16 162.9,44.28 z " fill="#ffffff" stroke="#000000" stroke-width="0.125"/>
          <path d="M 163.3,44.51 C 163.2,47.33 161.0,46.30 161.8,50.27 C 162.1,51.50 162.6,53.51 161.8,55.52 C 164.3,53.71 162.7,49.89 163.8,48.45 C 164.3,47.76 165.0,46.67 165.3,45.75 C 164.7,47.37 164.7,50.38 166.3,51.16 C 165.1,48.14 169.8,45.67 166.5,42.19 C 166.1,43.04 164.6,44.55 163.3,44.51 z " fill="#ffffff" stroke="#000000" stroke-width="0.125"/>
        </g>
        <path d="M 155.4,41.69 C 155.8,42.27 156.2,43.74 155.8,44.55 C 156.6,44.09 157.7,42.89 158.1,42.08 C 159.6,42.31 160.3,44.28 158.8,45.13 C 159.7,45.13 161.3,45.13 162.2,44.09 C 161.1,42.89 157.7,41.03 155.4,41.69 z " fill="#ffffff" stroke="#000000" stroke-width="0.125"/>
        <path d="M 131.4,36.15 C 131.1,35.92 130.7,35.70 129.9,35.55 C 127.6,35.07 128.8,32.96 130.8,32.98 C 135.0,28.34 137.4,31.92 142.6,30.45 C 144.4,29.93 145.7,30.09 146.7,30.51 C 149.0,28.97 151.7,29.40 153.7,31.22 C 153.9,30.87 154.2,30.60 154.6,30.49 C 156.4,29.98 157.9,31.53 158.4,33.54 C 159.8,33.28 161.4,33.98 162.5,34.94 C 163.9,34.19 165.0,34.15 165.3,34.93 C 166.6,34.31 168.3,33.92 169.2,36.01 C 170.0,38.10 167.2,37.48 166.7,41.88 C 166.4,44.60 163.4,45.67 161.0,44.05 C 157.2,41.45 153.4,41.03 151.6,44.97 C 149.7,48.92 148.3,51.20 143.8,49.92 C 142.1,49.46 140.1,50.07 138.7,51.85 C 137.4,53.63 135.4,51.97 133.0,52.16 C 136.0,51.70 134.9,50.94 137.5,50.77 C 139.9,50.62 139.3,48.37 140.8,48.07 C 134.8,49.61 135.0,47.37 130.1,48.92 C 132.3,46.13 135.7,47.68 137.4,46.06 C 132.9,45.98 130.9,43.05 128.9,44.28 C 125.7,46.21 127.1,51.71 118.8,51.23 C 114.8,51.00 112.2,51.54 109.8,53.94 C 114.0,45.28 119.7,50.04 122.4,47.29 C 124.1,45.67 125.3,44.43 126.2,42.89 C 126.5,42.3491 126.9,42.03 127.4,41.91 C 120.5,39.75 124.6,36.38 131.4,36.15 z " fill="#ffffff" stroke="#000000" stroke-width="0.125"/>
        <path d="M 165.3,34.93 C 165.4,35.15 165.5,35.43 165.5,35.78 C 165.5,37.48 162.9,37.56 162.8,40.07 C 162.7,41.38 162.5,42.12 161.7,41.96 C 160.8,41.81 160.0,40.42 160.8,38.79" fill="#ffffff" stroke="#000000" stroke-width="0.125" stroke-linecap="round"/>
        <path d="M 132.6,33.62 C 132.0,33.17 131.4,32.98 130.8,32.98" fill="#ffffff" stroke="#000000" stroke-width="0.125"/>
        <path d="M 146.6,30.50 C 148.7,31.39 149.7,33.51 152.7,33.62 C 155.5,33.72 157.3,37.87 162.1,35.16 C 162.2,35.09 162.3,35.02 162.5,34.96" fill="#ffffff" stroke="#000000" stroke-width="0.125"/>
        <path d="M 153.7,31.22 C 153.2,31.89 153.1,32.84 153.3,33.67" fill="#ffffff" stroke="#000000" stroke-width="0.125"/>
        <path d="M 144.3,39.95 C 140.7,39.95 139.8,41.8113 139.8,43.5885 C 139.8,45.3657 141.5,47.6838 144.5,47.68 C 147.5,47.68 149.1,45.82 149.1,43.82 C 149.1,41.81 147.2,39.95 144.3,39.95 z " fill="#ffffff" stroke="#000000" stroke-width="0.125"/>
        <path d="M 145.0,47.60 C 144.9,46.60 143.1,46.75 143.2,45.9839 C 143.2,45.21 144.2,44.90 144.2,43.82 C 144.2,42.73 145.8,42.66 146.3,43.51 C 146.9,44.36 148.5,46.02 148.8,45.17" fill="#ffffff" stroke="#000000" stroke-width="0.125"/>
        <path d="M 146.3,43.51 C 145.5,44.36 145.1,46.09 146.2,47.45" fill="#ffffff" stroke="#000000" stroke-width="0.125"/>
        <path d="M 147.5,44.82 C 147.2,45.40 147.1,46.29 147.4,46.83" fill="#ffffff" stroke="#000000" stroke-width="0.125"/>
        <path d="M 161.9,41.98 C 164.7,42.21 165.2,39.08 163.1,38.89" fill="none" stroke="#000000" stroke-width="0.125"/>
        <path d="M 158.4,33.54 C 157.4,32.28 155.2,31.86 155.1,34.52" fill="none" stroke="#000000" stroke-width="0.125"/>
        <path d="M 154.9,37.56 C 153.9,35.16 151.4,34.81 150.1,36.01 C 149.0,37.01 149.0,39.60 151.391,40.15 C 152.2,39.18 153.7,37.90 154.9,37.56 z " fill="#ffffff" stroke="#000000" stroke-width="0.125"/>
        <path d="M 153.8,36.05 C 152.4,34.81 150.4,37.15 152.2,39.30" fill="#ffffff" stroke="#000000" stroke-width="0.125"/>
        <path d="M 158.4,33.54 C 157.6,32.63 155.7,33.35 156.2,35.18 C 156.6,34.33 157.5,33.62 158.4,33.54 z " fill="#000000" stroke="none"/>
        <path d="M 153.2,38.49 C 153.7,38.06 154.3,37.71 154.9,37.56 C 154.6,36.87 154.2,36.35 153.7,35.99 C 153.3,35.68 152.0,37.39 153.2,38.49 z " fill="#000000" stroke="none"/>
        <path d="M 150.9,35.35 C 149.5,34.43 148.2,34.50 147.8,35.28 C 146.8,35.24 146.0,35.97 145.9,37.44" fill="none" stroke="#000000" stroke-width="0.125" stroke-linecap="round"/>
        <path d="M 148.1,38.06 C 146.4,36.92 144.1,37.34 144.3,39.89" fill="none" stroke="#000000" stroke-width="0.125" stroke-linecap="round"/>
        <g>
          <path d="M 143.3,41.34 C 144.1,40.69 145.2,40.22 146.1,41.38" fill="none" stroke="#000000" stroke-width="0.125" stroke-linecap="round"/>
          <path d="M 155.7,38.83 C 155.4,39.26 155.1,39.91 155.6,40.92 C 155.0,40.11 153.5,40.11 151.8,42.27" fill="none" stroke="#000000" stroke-width="0.125" stroke-linecap="round"/>
          <path d="M 159.3,38.72 C 157.3,38.95 157.4,40.26 159.0,40.84" fill="none" stroke="#000000" stroke-width="0.125" stroke-linecap="round"/>
          <path d="M 145.0,33.81 C 143.3,33.46 142.1,34.47 144.5,35.32" fill="none" stroke="#000000" stroke-width="0.125" stroke-linecap="round"/>
          <path d="M 148.3,32.65 C 145.9,32.07 144.9,32.69 146.0,33.23" fill="none" stroke="#000000" stroke-width="0.125" stroke-linecap="round"/>
          <path d="M 141.4,42.27 C 141.3,43.12 141.8,44.24 143.2,42.9704" fill="none" stroke="#000000" stroke-width="0.125" stroke-linecap="round"/>
          <path d="M 141.8,44.82 C 141.8,45.05 141.8,45.32 141.6,45.52" fill="none" stroke="#000000" stroke-width="0.125" stroke-linecap="round"/>
          <path d="M 136.3,33.50 C 134.8,33.07 134.5,31.72 136.2,31.84" fill="none" stroke="#000000" stroke-width="0.125" stroke-linecap="round"/>
          <path d="M 135.8,36.63 C 134.1,36.09 134.1,34.50 135.5,34.66" fill="none" stroke="#000000" stroke-width="0.125" stroke-linecap="round"/>
          <path d="M 138.8,35.82 C 136.9,35.35 136.8,34.04 138.2,34.23" fill="none" stroke="#000000" stroke-width="0.125" stroke-linecap="round"/>
          <path d="M 139.0,31.80 C 138.0,31.72 136.5,32.84 139.1,33.50" fill="none" stroke="#000000" stroke-width="0.125" stroke-linecap="round"/>
          <path d="M 141.8,34.04 C 139.5,33.69 139.5,34.66 140.9,35.28" fill="none" stroke="#000000" stroke-width="0.125" stroke-linecap="round"/>
          <path d="M 143.6,31.80 C 141.8,31.45 141.2,32.53 142.4,33.00" fill="none" stroke="#000000" stroke-width="0.125" stroke-linecap="round"/>
          <path d="M 137.9,38.48 C 137.5,38.12 137.1,36.36 139.2,36.88" fill="none" stroke="#000000" stroke-width="0.125" stroke-linecap="round"/>
          <path d="M 142.3,37.94 C 140.9,37.56 139.5,38.95 140.8,39.76" fill="none" stroke="#000000" stroke-width="0.125" stroke-linecap="round"/>
          <path d="M 144.2,36.28 C 142.7,36.01 141.4,36.44 142.2,36.98" fill="none" stroke="#000000" stroke-width="0.125" stroke-linecap="round"/>
        </g>
        <path d="M 127.3,41.90 C 128.3,41.68 129.6,42.14 131.7,43.12 C 133.0,43.74 137.0,45.05 139.4,43.74 C 136.9,44.67 135.0,40.80 133.0,41.27 C 131.1,41.73 127.6,42.44 126.1,41.03 C 129.7,41.27 131.7,38.39 135.8,40.88 C 137.0,41.57 138.4,42.04 139.8,41.9659 C 136.4,37.87 131.9,40.49 131.4,37.17 C 133.5,39.37 138.5,36.67 141.0,40.80" fill="#ffffff" stroke="#000000" stroke-width="0.125"/>
        <path d="M 158.3,33.54 C 157.5,33.70 156.7,34.20 156.2,35.18" fill="#ffffff" stroke="#000000" stroke-width="0.125"/>
        <path d="M 132.1,37.79 C 131.7,37.19 131.9,36.60 131.4,36.13" fill="#ffffff" stroke="#000000" stroke-width="0.125"/>
      </g>
    </g>
  </g>
</svg>
