<?xml version="1.0" encoding="UTF-8" standalone="no"?>
<svg height="130" id="svg153" width="247" xmlns="http://www.w3.org/2000/svg" xmlns:xlink="http://www.w3.org/1999/xlink">
  
  <desc>
    The United States of America flag, produced by Daniel McRae
  </desc>
  <defs id="defs155"/>
  <sodipodi:namedview id="base"/>
  <g>
    <g font-size="12" fill="#bd3d44" fill-opacity="1">
      <rect height="10.000000" width="247.000000" x="0.000000" y="0.000000" font-size="12" fill="#bd3d44" fill-rule="evenodd" stroke-width="1pt" fill-opacity="1"/>
      <rect height="10.000000" width="247.000000" x="0.000000" y="20.000000" font-size="12" fill="#bd3d44" fill-rule="evenodd" stroke-width="1pt" fill-opacity="1"/>
      <rect height="10" width="247" x="0" y="40" font-size="12" fill="#bd3d44" fill-rule="evenodd" stroke-width="1pt" fill-opacity="1"/>
      <rect height="10" width="247" x="0" y="60" font-size="12" fill="#bd3d44" fill-rule="evenodd" stroke-width="1pt" fill-opacity="1"/>
      <rect height="10.000000" width="247.000000" x="0.000000" y="80.000000" font-size="12" fill="#bd3d44" fill-rule="evenodd" stroke-width="1pt" fill-opacity="1"/>
      <rect height="10" width="247" x="0" y="100" font-size="12" fill="#bd3d44" fill-rule="evenodd" stroke-width="1pt" fill-opacity="1"/>
      <rect height="10" width="247" x="0" y="120" font-size="12" fill="#bd3d44" fill-rule="evenodd" stroke-width="1pt" fill-opacity="1"/>
    </g>
    <g font-size="12" fill="#ffffff">
      <rect height="10" width="247" x="0" y="10" font-size="12" fill="#ffffff" fill-rule="evenodd" stroke-width="1pt" fill-opacity="1"/>
      <rect height="10" width="247" x="0" y="30" font-size="12" fill="#ffffff" fill-rule="evenodd" stroke-width="1pt" fill-opacity="1"/>
      <rect height="10" width="247" x="0" y="50" font-size="12" fill="#ffffff" fill-rule="evenodd" stroke-width="1pt" fill-opacity="1"/>
      <rect height="10" width="247" x="0" y="70" font-size="12" fill="#ffffff" fill-rule="evenodd" stroke-width="1pt" fill-opacity="1"/>
      <rect height="10" width="247" x="0" y="90" font-size="12" fill="#ffffff" fill-rule="evenodd" stroke-width="1pt" fill-opacity="1"/>
      <rect height="10" width="247" x="0" y="110" font-size="12" fill="#ffffff" fill-rule="evenodd" stroke-width="1pt" fill-opacity="1"/>
    </g>
  </g>
  <rect height="70" width="98.8" x="0" y="0" font-size="12" fill="#192f5d" fill-rule="evenodd" stroke-width="1pt"/>
  <g>
    <g>
      <g>
        <polygon points="0,-4.004 0.898954009,-1.2373040455 3.808030291,-1.2373040455 1.454,0.472 2.353,3.239 0,1.529391909 -2.35349215,3.2393040455 -1.454538141067,0.472608091 -3.808030291,-1.2373040455 -0.898954009,-1.2373040455 0,-4.004 " sodipodi:arg1="-1.570796" sodipodi:arg2="-0.942477796" sodipodi:r1="4.004000" sodipodi:r2="1.529391909" transform="translate(8.2333333333,7)" font-size="12" fill="#ffffff" fill-opacity="1" fill-rule="evenodd" stroke="none" stroke-width="0.125" stroke-dasharray="none"/>
        <polygon points="0,-4.004 0.898954009,-1.2373040455 3.808030291,-1.2373040455 1.454,0.472 2.353,3.239 0,1.529391909 -2.35349215,3.2393040455 -1.454538141067,0.472608091 -3.808030291,-1.2373040455 -0.898954009,-1.2373040455 0,-4.004 " sodipodi:arg1="-1.570796" sodipodi:arg2="-0.942477796" sodipodi:r1="4.004000" sodipodi:r2="1.529391909" transform="translate(24.7,7)" font-size="12" fill="#ffffff" fill-opacity="1" fill-rule="evenodd" stroke="none" stroke-width="0.125" stroke-dasharray="none"/>
        <polygon points="0,-4.004 0.898954009,-1.2373040455 3.808030291,-1.2373040455 1.454,0.472 2.353,3.239 0,1.529391909 -2.35349215,3.2393040455 -1.454538141067,0.472608091 -3.808030291,-1.2373040455 -0.898954009,-1.2373040455 0,-4.004 " sodipodi:arg1="-1.570796" sodipodi:arg2="-0.942477796" sodipodi:r1="4.004000" sodipodi:r2="1.529391909" transform="translate(41.16666666667,7)" font-size="12" fill="#ffffff" fill-opacity="1" fill-rule="evenodd" stroke="none" stroke-width="0.125" stroke-dasharray="none"/>
        <polygon points="0,-4.004 0.898954009,-1.2373040455 3.808030291,-1.2373040455 1.454,0.472 2.353,3.239 0,1.529391909 -2.35349215,3.2393040455 -1.454538141067,0.472608091 -3.808030291,-1.2373040455 -0.898954009,-1.2373040455 0,-4.004 " sodipodi:arg1="-1.570796" sodipodi:arg2="-0.942477796" sodipodi:r1="4.004000" sodipodi:r2="1.529391909" transform="translate(57.63333333,7)" font-size="12" fill="#ffffff" fill-opacity="1" fill-rule="evenodd" stroke="none" stroke-width="0.125" stroke-dasharray="none"/>
        <polygon points="0,-4.004 0.898954009,-1.2373040455 3.808030291,-1.2373040455 1.454,0.472 2.353,3.239 0,1.529391909 -2.35349215,3.2393040455 -1.454538141067,0.472608091 -3.808030291,-1.2373040455 -0.898954009,-1.2373040455 0,-4.004 " sodipodi:arg1="-1.570796" sodipodi:arg2="-0.942477796" sodipodi:r1="4.004000" sodipodi:r2="1.529391909" transform="translate(74.1,7)" font-size="12" fill="#ffffff" fill-opacity="1" fill-rule="evenodd" stroke="none" stroke-width="0.125" stroke-dasharray="none"/>
        <polygon points="0,-4.004 0.898954009,-1.2373040455 3.808030291,-1.2373040455 1.454,0.472 2.353,3.239 0,1.529391909 -2.35349215,3.2393040455 -1.454538141067,0.472608091 -3.808030291,-1.2373040455 -0.898954009,-1.2373040455 0,-4.004 " sodipodi:arg1="-1.570796" sodipodi:arg2="-0.942477796" sodipodi:r1="4.004000" sodipodi:r2="1.529391909" transform="translate(90.5666666666667,7)" font-size="12" fill="#ffffff" fill-opacity="1" fill-rule="evenodd" stroke="none" stroke-width="0.125" stroke-dasharray="none"/>
      </g>
      <g>
        <polygon points="0,-4.004 0.898954009,-1.2373040455 3.808030291,-1.2373040455 1.454,0.472 2.353,3.239 0,1.529391909 -2.35349215,3.2393040455 -1.454538141067,0.472608091 -3.808030291,-1.2373040455 -0.898954009,-1.2373040455 0,-4.004 " sodipodi:arg1="-1.570796" sodipodi:arg2="-0.942477796" sodipodi:r1="4.004000" sodipodi:r2="1.529391909" transform="translate(16.46666666667,14)" font-size="12" fill="#ffffff" fill-opacity="1" fill-rule="evenodd" stroke="none" stroke-width="0.125" stroke-dasharray="none"/>
        <polygon points="0,-4.004 0.898954009,-1.2373040455 3.808030291,-1.2373040455 1.454,0.472 2.353,3.239 0,1.529391909 -2.35349215,3.2393040455 -1.454538141067,0.472608091 -3.808030291,-1.2373040455 -0.898954009,-1.2373040455 0,-4.004 " sodipodi:arg1="-1.570796" sodipodi:arg2="-0.942477796" sodipodi:r1="4.004000" sodipodi:r2="1.529391909" transform="translate(32.93333333333,14)" font-size="12" fill="#ffffff" fill-opacity="1" fill-rule="evenodd" stroke="none" stroke-width="0.125" stroke-dasharray="none"/>
        <polygon points="0,-4.004 0.898954009,-1.2373040455 3.808030291,-1.2373040455 1.454,0.472 2.353,3.239 0,1.529391909 -2.35349215,3.2393040455 -1.454538141067,0.472608091 -3.808030291,-1.2373040455 -0.898954009,-1.2373040455 0,-4.004 " sodipodi:arg1="-1.570796" sodipodi:arg2="-0.942477796" sodipodi:r1="4.004000" sodipodi:r2="1.529391909" transform="translate(49.4,14)" font-size="12" fill="#ffffff" fill-opacity="1" fill-rule="evenodd" stroke="none" stroke-width="0.125" stroke-dasharray="none"/>
        <polygon points="0,-4.004 0.898954009,-1.2373040455 3.808030291,-1.2373040455 1.454,0.472 2.353,3.239 0,1.529391909 -2.35349215,3.2393040455 -1.454538141067,0.472608091 -3.808030291,-1.2373040455 -0.898954009,-1.2373040455 0,-4.004 " sodipodi:arg1="-1.570796" sodipodi:arg2="-0.942477796" sodipodi:r1="4.004000" sodipodi:r2="1.529391909" transform="translate(65.86666666667,14)" font-size="12" fill="#ffffff" fill-opacity="1" fill-rule="evenodd" stroke="none" stroke-width="0.125" stroke-dasharray="none"/>
        <polygon points="0,-4.004 0.898954009,-1.2373040455 3.808030291,-1.2373040455 1.454,0.472 2.353,3.239 0,1.529391909 -2.35349215,3.2393040455 -1.454538141067,0.472608091 -3.808030291,-1.2373040455 -0.898954009,-1.2373040455 0,-4.004 " sodipodi:arg1="-1.570796" sodipodi:arg2="-0.942477796" sodipodi:r1="4.004000" sodipodi:r2="1.529391909" transform="translate(82.3333333333,14)" font-size="12" fill="#ffffff" fill-opacity="1" fill-rule="evenodd" stroke="none" stroke-width="0.125" stroke-dasharray="none"/>
      </g>
    </g>
    <g transform="translate(0,14)">
      <g>
        <polygon points="0,-4.004 0.898954009,-1.2373040455 3.808030291,-1.2373040455 1.454,0.472 2.353,3.239 0,1.529391909 -2.35349215,3.2393040455 -1.454538141067,0.472608091 -3.808030291,-1.2373040455 -0.898954009,-1.2373040455 0,-4.004 " sodipodi:arg1="-1.570796" sodipodi:arg2="-0.942477796" sodipodi:r1="4.004000" sodipodi:r2="1.529391909" transform="translate(8.2333333333,7)" font-size="12" fill="#ffffff" fill-opacity="1" fill-rule="evenodd" stroke="none" stroke-width="0.125" stroke-dasharray="none"/>
        <polygon points="0,-4.004 0.898954009,-1.2373040455 3.808030291,-1.2373040455 1.454,0.472 2.353,3.239 0,1.529391909 -2.35349215,3.2393040455 -1.454538141067,0.472608091 -3.808030291,-1.2373040455 -0.898954009,-1.2373040455 0,-4.004 " sodipodi:arg1="-1.570796" sodipodi:arg2="-0.942477796" sodipodi:r1="4.004000" sodipodi:r2="1.529391909" transform="translate(24.7,7)" font-size="12" fill="#ffffff" fill-opacity="1" fill-rule="evenodd" stroke="none" stroke-width="0.125" stroke-dasharray="none"/>
        <polygon points="0,-4.004 0.898954009,-1.2373040455 3.808030291,-1.2373040455 1.454,0.472 2.353,3.239 0,1.529391909 -2.35349215,3.2393040455 -1.454538141067,0.472608091 -3.808030291,-1.2373040455 -0.898954009,-1.2373040455 0,-4.004 " sodipodi:arg1="-1.570796" sodipodi:arg2="-0.942477796" sodipodi:r1="4.004000" sodipodi:r2="1.529391909" transform="translate(41.16666666667,7)" font-size="12" fill="#ffffff" fill-opacity="1" fill-rule="evenodd" stroke="none" stroke-width="0.125" stroke-dasharray="none"/>
        <polygon points="0,-4.004 0.898954009,-1.2373040455 3.808030291,-1.2373040455 1.454,0.472 2.353,3.239 0,1.529391909 -2.35349215,3.2393040455 -1.454538141067,0.472608091 -3.808030291,-1.2373040455 -0.898954009,-1.2373040455 0,-4.004 " sodipodi:arg1="-1.570796" sodipodi:arg2="-0.942477796" sodipodi:r1="4.004000" sodipodi:r2="1.529391909" transform="translate(57.63333333,7)" font-size="12" fill="#ffffff" fill-opacity="1" fill-rule="evenodd" stroke="none" stroke-width="0.125" stroke-dasharray="none"/>
        <polygon points="0,-4.004 0.898954009,-1.2373040455 3.808030291,-1.2373040455 1.454,0.472 2.353,3.239 0,1.529391909 -2.35349215,3.2393040455 -1.454538141067,0.472608091 -3.808030291,-1.2373040455 -0.898954009,-1.2373040455 0,-4.004 " sodipodi:arg1="-1.570796" sodipodi:arg2="-0.942477796" sodipodi:r1="4.004000" sodipodi:r2="1.529391909" transform="translate(74.1,7)" font-size="12" fill="#ffffff" fill-opacity="1" fill-rule="evenodd" stroke="none" stroke-width="0.125" stroke-dasharray="none"/>
        <polygon points="0,-4.004 0.898954009,-1.2373040455 3.808030291,-1.2373040455 1.454,0.472 2.353,3.239 0,1.529391909 -2.35349215,3.2393040455 -1.454538141067,0.472608091 -3.808030291,-1.2373040455 -0.898954009,-1.2373040455 0,-4.004 " sodipodi:arg1="-1.570796" sodipodi:arg2="-0.942477796" sodipodi:r1="4.004000" sodipodi:r2="1.529391909" transform="translate(90.5666666666667,7)" font-size="12" fill="#ffffff" fill-opacity="1" fill-rule="evenodd" stroke="none" stroke-width="0.125" stroke-dasharray="none"/>
      </g>
      <g>
        <polygon points="0,-4.004 0.898954009,-1.2373040455 3.808030291,-1.2373040455 1.454,0.472 2.353,3.239 0,1.529391909 -2.35349215,3.2393040455 -1.454538141067,0.472608091 -3.808030291,-1.2373040455 -0.898954009,-1.2373040455 0,-4.004 " sodipodi:arg1="-1.570796" sodipodi:arg2="-0.942477796" sodipodi:r1="4.004000" sodipodi:r2="1.529391909" transform="translate(16.46666666667,14)" font-size="12" fill="#ffffff" fill-opacity="1" fill-rule="evenodd" stroke="none" stroke-width="0.125" stroke-dasharray="none"/>
        <polygon points="0,-4.004 0.898954009,-1.2373040455 3.808030291,-1.2373040455 1.454,0.472 2.353,3.239 0,1.529391909 -2.35349215,3.2393040455 -1.454538141067,0.472608091 -3.808030291,-1.2373040455 -0.898954009,-1.2373040455 0,-4.004 " sodipodi:arg1="-1.570796" sodipodi:arg2="-0.942477796" sodipodi:r1="4.004000" sodipodi:r2="1.529391909" transform="translate(32.93333333333,14)" font-size="12" fill="#ffffff" fill-opacity="1" fill-rule="evenodd" stroke="none" stroke-width="0.125" stroke-dasharray="none"/>
        <polygon points="0,-4.004 0.898954009,-1.2373040455 3.808030291,-1.2373040455 1.454,0.472 2.353,3.239 0,1.529391909 -2.35349215,3.2393040455 -1.454538141067,0.472608091 -3.808030291,-1.2373040455 -0.898954009,-1.2373040455 0,-4.004 " sodipodi:arg1="-1.570796" sodipodi:arg2="-0.942477796" sodipodi:r1="4.004000" sodipodi:r2="1.529391909" transform="translate(49.4,14)" font-size="12" fill="#ffffff" fill-opacity="1" fill-rule="evenodd" stroke="none" stroke-width="0.125" stroke-dasharray="none"/>
        <polygon points="0,-4.004 0.898954009,-1.2373040455 3.808030291,-1.2373040455 1.454,0.472 2.353,3.239 0,1.529391909 -2.35349215,3.2393040455 -1.454538141067,0.472608091 -3.808030291,-1.2373040455 -0.898954009,-1.2373040455 0,-4.004 " sodipodi:arg1="-1.570796" sodipodi:arg2="-0.942477796" sodipodi:r1="4.004000" sodipodi:r2="1.529391909" transform="translate(65.86666666667,14)" font-size="12" fill="#ffffff" fill-opacity="1" fill-rule="evenodd" stroke="none" stroke-width="0.125" stroke-dasharray="none"/>
        <polygon points="0,-4.004 0.898954009,-1.2373040455 3.808030291,-1.2373040455 1.454,0.472 2.353,3.239 0,1.529391909 -2.35349215,3.2393040455 -1.454538141067,0.472608091 -3.808030291,-1.2373040455 -0.898954009,-1.2373040455 0,-4.004 " sodipodi:arg1="-1.570796" sodipodi:arg2="-0.942477796" sodipodi:r1="4.004000" sodipodi:r2="1.529391909" transform="translate(82.3333333333,14)" font-size="12" fill="#ffffff" fill-opacity="1" fill-rule="evenodd" stroke="none" stroke-width="0.125" stroke-dasharray="none"/>
      </g>
    </g>
    <g transform="translate(0,28)">
      <g>
        <polygon points="0,-4.004 0.898954009,-1.2373040455 3.808030291,-1.2373040455 1.454,0.472 2.353,3.239 0,1.529391909 -2.35349215,3.2393040455 -1.454538141067,0.472608091 -3.808030291,-1.2373040455 -0.898954009,-1.2373040455 0,-4.004 " sodipodi:arg1="-1.570796" sodipodi:arg2="-0.942477796" sodipodi:r1="4.004000" sodipodi:r2="1.529391909" transform="translate(8.2333333333,7)" font-size="12" fill="#ffffff" fill-opacity="1" fill-rule="evenodd" stroke="none" stroke-width="0.125" stroke-dasharray="none"/>
        <polygon points="0,-4.004 0.898954009,-1.2373040455 3.808030291,-1.2373040455 1.454,0.472 2.353,3.239 0,1.529391909 -2.35349215,3.2393040455 -1.454538141067,0.472608091 -3.808030291,-1.2373040455 -0.898954009,-1.2373040455 0,-4.004 " sodipodi:arg1="-1.570796" sodipodi:arg2="-0.942477796" sodipodi:r1="4.004000" sodipodi:r2="1.529391909" transform="translate(24.7,7)" font-size="12" fill="#ffffff" fill-opacity="1" fill-rule="evenodd" stroke="none" stroke-width="0.125" stroke-dasharray="none"/>
        <polygon points="0,-4.004 0.898954009,-1.2373040455 3.808030291,-1.2373040455 1.454,0.472 2.353,3.239 0,1.529391909 -2.35349215,3.2393040455 -1.454538141067,0.472608091 -3.808030291,-1.2373040455 -0.898954009,-1.2373040455 0,-4.004 " sodipodi:arg1="-1.570796" sodipodi:arg2="-0.942477796" sodipodi:r1="4.004000" sodipodi:r2="1.529391909" transform="translate(41.16666666667,7)" font-size="12" fill="#ffffff" fill-opacity="1" fill-rule="evenodd" stroke="none" stroke-width="0.125" stroke-dasharray="none"/>
        <polygon points="0,-4.004 0.898954009,-1.2373040455 3.808030291,-1.2373040455 1.454,0.472 2.353,3.239 0,1.529391909 -2.35349215,3.2393040455 -1.454538141067,0.472608091 -3.808030291,-1.2373040455 -0.898954009,-1.2373040455 0,-4.004 " sodipodi:arg1="-1.570796" sodipodi:arg2="-0.942477796" sodipodi:r1="4.004000" sodipodi:r2="1.529391909" transform="translate(57.63333333,7)" font-size="12" fill="#ffffff" fill-opacity="1" fill-rule="evenodd" stroke="none" stroke-width="0.125" stroke-dasharray="none"/>
        <polygon points="0,-4.004 0.898954009,-1.2373040455 3.808030291,-1.2373040455 1.454,0.472 2.353,3.239 0,1.529391909 -2.35349215,3.2393040455 -1.454538141067,0.472608091 -3.808030291,-1.2373040455 -0.898954009,-1.2373040455 0,-4.004 " sodipodi:arg1="-1.570796" sodipodi:arg2="-0.942477796" sodipodi:r1="4.004000" sodipodi:r2="1.529391909" transform="translate(74.1,7)" font-size="12" fill="#ffffff" fill-opacity="1" fill-rule="evenodd" stroke="none" stroke-width="0.125" stroke-dasharray="none"/>
        <polygon points="0,-4.004 0.898954009,-1.2373040455 3.808030291,-1.2373040455 1.454,0.472 2.353,3.239 0,1.529391909 -2.35349215,3.2393040455 -1.454538141067,0.472608091 -3.808030291,-1.2373040455 -0.898954009,-1.2373040455 0,-4.004 " sodipodi:arg1="-1.570796" sodipodi:arg2="-0.942477796" sodipodi:r1="4.004000" sodipodi:r2="1.529391909" transform="translate(90.5666666666667,7)" font-size="12" fill="#ffffff" fill-opacity="1" fill-rule="evenodd" stroke="none" stroke-width="0.125" stroke-dasharray="none"/>
      </g>
      <g>
        <polygon points="0,-4.004 0.898954009,-1.2373040455 3.808030291,-1.2373040455 1.454,0.472 2.353,3.239 0,1.529391909 -2.35349215,3.2393040455 -1.454538141067,0.472608091 -3.808030291,-1.2373040455 -0.898954009,-1.2373040455 0,-4.004 " sodipodi:arg1="-1.570796" sodipodi:arg2="-0.942477796" sodipodi:r1="4.004000" sodipodi:r2="1.529391909" transform="translate(16.46666666667,14)" font-size="12" fill="#ffffff" fill-opacity="1" fill-rule="evenodd" stroke="none" stroke-width="0.125" stroke-dasharray="none"/>
        <polygon points="0,-4.004 0.898954009,-1.2373040455 3.808030291,-1.2373040455 1.454,0.472 2.353,3.239 0,1.529391909 -2.35349215,3.2393040455 -1.454538141067,0.472608091 -3.808030291,-1.2373040455 -0.898954009,-1.2373040455 0,-4.004 " sodipodi:arg1="-1.570796" sodipodi:arg2="-0.942477796" sodipodi:r1="4.004000" sodipodi:r2="1.529391909" transform="translate(32.93333333333,14)" font-size="12" fill="#ffffff" fill-opacity="1" fill-rule="evenodd" stroke="none" stroke-width="0.125" stroke-dasharray="none"/>
        <polygon points="0,-4.004 0.898954009,-1.2373040455 3.808030291,-1.2373040455 1.454,0.472 2.353,3.239 0,1.529391909 -2.35349215,3.2393040455 -1.454538141067,0.472608091 -3.808030291,-1.2373040455 -0.898954009,-1.2373040455 0,-4.004 " sodipodi:arg1="-1.570796" sodipodi:arg2="-0.942477796" sodipodi:r1="4.004000" sodipodi:r2="1.529391909" transform="translate(49.4,14)" font-size="12" fill="#ffffff" fill-opacity="1" fill-rule="evenodd" stroke="none" stroke-width="0.125" stroke-dasharray="none"/>
        <polygon points="0,-4.004 0.898954009,-1.2373040455 3.808030291,-1.2373040455 1.454,0.472 2.353,3.239 0,1.529391909 -2.35349215,3.2393040455 -1.454538141067,0.472608091 -3.808030291,-1.2373040455 -0.898954009,-1.2373040455 0,-4.004 " sodipodi:arg1="-1.570796" sodipodi:arg2="-0.942477796" sodipodi:r1="4.004000" sodipodi:r2="1.529391909" transform="translate(65.86666666667,14)" font-size="12" fill="#ffffff" fill-opacity="1" fill-rule="evenodd" stroke="none" stroke-width="0.125" stroke-dasharray="none"/>
        <polygon points="0,-4.004 0.898954009,-1.2373040455 3.808030291,-1.2373040455 1.454,0.472 2.353,3.239 0,1.529391909 -2.35349215,3.2393040455 -1.454538141067,0.472608091 -3.808030291,-1.2373040455 -0.898954009,-1.2373040455 0,-4.004 " sodipodi:arg1="-1.570796" sodipodi:arg2="-0.942477796" sodipodi:r1="4.004000" sodipodi:r2="1.529391909" transform="translate(82.3333333333,14)" font-size="12" fill="#ffffff" fill-opacity="1" fill-rule="evenodd" stroke="none" stroke-width="0.125" stroke-dasharray="none"/>
      </g>
    </g>
    <g transform="translate(0,42)">
      <g>
        <polygon points="0,-4.004 0.898954009,-1.2373040455 3.808030291,-1.2373040455 1.454,0.472 2.353,3.239 0,1.529391909 -2.35349215,3.2393040455 -1.454538141067,0.472608091 -3.808030291,-1.2373040455 -0.898954009,-1.2373040455 0,-4.004 " sodipodi:arg1="-1.570796" sodipodi:arg2="-0.942477796" sodipodi:r1="4.004000" sodipodi:r2="1.529391909" transform="translate(8.2333333333,7)" font-size="12" fill="#ffffff" fill-opacity="1" fill-rule="evenodd" stroke="none" stroke-width="0.125" stroke-dasharray="none"/>
        <polygon points="0,-4.004 0.898954009,-1.2373040455 3.808030291,-1.2373040455 1.454,0.472 2.353,3.239 0,1.529391909 -2.35349215,3.2393040455 -1.454538141067,0.472608091 -3.808030291,-1.2373040455 -0.898954009,-1.2373040455 0,-4.004 " sodipodi:arg1="-1.570796" sodipodi:arg2="-0.942477796" sodipodi:r1="4.004000" sodipodi:r2="1.529391909" transform="translate(24.7,7)" font-size="12" fill="#ffffff" fill-opacity="1" fill-rule="evenodd" stroke="none" stroke-width="0.125" stroke-dasharray="none"/>
        <polygon points="0,-4.004 0.898954009,-1.2373040455 3.808030291,-1.2373040455 1.454,0.472 2.353,3.239 0,1.529391909 -2.35349215,3.2393040455 -1.454538141067,0.472608091 -3.808030291,-1.2373040455 -0.898954009,-1.2373040455 0,-4.004 " sodipodi:arg1="-1.570796" sodipodi:arg2="-0.942477796" sodipodi:r1="4.004000" sodipodi:r2="1.529391909" transform="translate(41.16666666667,7)" font-size="12" fill="#ffffff" fill-opacity="1" fill-rule="evenodd" stroke="none" stroke-width="0.125" stroke-dasharray="none"/>
        <polygon points="0,-4.004 0.898954009,-1.2373040455 3.808030291,-1.2373040455 1.454,0.472 2.353,3.239 0,1.529391909 -2.35349215,3.2393040455 -1.454538141067,0.472608091 -3.808030291,-1.2373040455 -0.898954009,-1.2373040455 0,-4.004 " sodipodi:arg1="-1.570796" sodipodi:arg2="-0.942477796" sodipodi:r1="4.004000" sodipodi:r2="1.529391909" transform="translate(57.63333333,7)" font-size="12" fill="#ffffff" fill-opacity="1" fill-rule="evenodd" stroke="none" stroke-width="0.125" stroke-dasharray="none"/>
        <polygon points="0,-4.004 0.898954009,-1.2373040455 3.808030291,-1.2373040455 1.454,0.472 2.353,3.239 0,1.529391909 -2.35349215,3.2393040455 -1.454538141067,0.472608091 -3.808030291,-1.2373040455 -0.898954009,-1.2373040455 0,-4.004 " sodipodi:arg1="-1.570796" sodipodi:arg2="-0.942477796" sodipodi:r1="4.004000" sodipodi:r2="1.529391909" transform="translate(74.1,7)" font-size="12" fill="#ffffff" fill-opacity="1" fill-rule="evenodd" stroke="none" stroke-width="0.125" stroke-dasharray="none"/>
        <polygon points="0,-4.004 0.898954009,-1.2373040455 3.808030291,-1.2373040455 1.454,0.472 2.353,3.239 0,1.529391909 -2.35349215,3.2393040455 -1.454538141067,0.472608091 -3.808030291,-1.2373040455 -0.898954009,-1.2373040455 0,-4.004 " sodipodi:arg1="-1.570796" sodipodi:arg2="-0.942477796" sodipodi:r1="4.004000" sodipodi:r2="1.529391909" transform="translate(90.5666666666667,7)" font-size="12" fill="#ffffff" fill-opacity="1" fill-rule="evenodd" stroke="none" stroke-width="0.125" stroke-dasharray="none"/>
      </g>
      <g>
        <polygon points="0,-4.004 0.898954009,-1.2373040455 3.808030291,-1.2373040455 1.454,0.472 2.353,3.239 0,1.529391909 -2.35349215,3.2393040455 -1.454538141067,0.472608091 -3.808030291,-1.2373040455 -0.898954009,-1.2373040455 0,-4.004 " sodipodi:arg1="-1.570796" sodipodi:arg2="-0.942477796" sodipodi:r1="4.004000" sodipodi:r2="1.529391909" transform="translate(16.46666666667,14)" font-size="12" fill="#ffffff" fill-opacity="1" fill-rule="evenodd" stroke="none" stroke-width="0.125" stroke-dasharray="none"/>
        <polygon points="0,-4.004 0.898954009,-1.2373040455 3.808030291,-1.2373040455 1.454,0.472 2.353,3.239 0,1.529391909 -2.35349215,3.2393040455 -1.454538141067,0.472608091 -3.808030291,-1.2373040455 -0.898954009,-1.2373040455 0,-4.004 " sodipodi:arg1="-1.570796" sodipodi:arg2="-0.942477796" sodipodi:r1="4.004000" sodipodi:r2="1.529391909" transform="translate(32.93333333333,14)" font-size="12" fill="#ffffff" fill-opacity="1" fill-rule="evenodd" stroke="none" stroke-width="0.125" stroke-dasharray="none"/>
        <polygon points="0,-4.004 0.898954009,-1.2373040455 3.808030291,-1.2373040455 1.454,0.472 2.353,3.239 0,1.529391909 -2.35349215,3.2393040455 -1.454538141067,0.472608091 -3.808030291,-1.2373040455 -0.898954009,-1.2373040455 0,-4.004 " sodipodi:arg1="-1.570796" sodipodi:arg2="-0.942477796" sodipodi:r1="4.004000" sodipodi:r2="1.529391909" transform="translate(49.4,14)" font-size="12" fill="#ffffff" fill-opacity="1" fill-rule="evenodd" stroke="none" stroke-width="0.125" stroke-dasharray="none"/>
        <polygon points="0,-4.004 0.898954009,-1.2373040455 3.808030291,-1.2373040455 1.454,0.472 2.353,3.239 0,1.529391909 -2.35349215,3.2393040455 -1.454538141067,0.472608091 -3.808030291,-1.2373040455 -0.898954009,-1.2373040455 0,-4.004 " sodipodi:arg1="-1.570796" sodipodi:arg2="-0.942477796" sodipodi:r1="4.004000" sodipodi:r2="1.529391909" transform="translate(65.86666666667,14)" font-size="12" fill="#ffffff" fill-opacity="1" fill-rule="evenodd" stroke="none" stroke-width="0.125" stroke-dasharray="none"/>
        <polygon points="0,-4.004 0.898954009,-1.2373040455 3.808030291,-1.2373040455 1.454,0.472 2.353,3.239 0,1.529391909 -2.35349215,3.2393040455 -1.454538141067,0.472608091 -3.808030291,-1.2373040455 -0.898954009,-1.2373040455 0,-4.004 " sodipodi:arg1="-1.570796" sodipodi:arg2="-0.942477796" sodipodi:r1="4.004000" sodipodi:r2="1.529391909" transform="translate(82.3333333333,14)" font-size="12" fill="#ffffff" fill-opacity="1" fill-rule="evenodd" stroke="none" stroke-width="0.125" stroke-dasharray="none"/>
      </g>
    </g>
    <g transform="translate(0,56)">
      <polygon points="0,-4.004 0.898954009,-1.2373040455 3.808030291,-1.2373040455 1.454,0.472 2.353,3.239 0,1.529391909 -2.35349215,3.2393040455 -1.454538141067,0.472608091 -3.808030291,-1.2373040455 -0.898954009,-1.2373040455 0,-4.004 " sodipodi:arg1="-1.570796" sodipodi:arg2="-0.942477796" sodipodi:r1="4.004000" sodipodi:r2="1.529391909" transform="translate(8.2333333333,7)" font-size="12" fill="#ffffff" fill-opacity="1" fill-rule="evenodd" stroke="none" stroke-width="0.125" stroke-dasharray="none"/>
      <polygon points="0,-4.004 0.898954009,-1.2373040455 3.808030291,-1.2373040455 1.454,0.472 2.353,3.239 0,1.529391909 -2.35349215,3.2393040455 -1.454538141067,0.472608091 -3.808030291,-1.2373040455 -0.898954009,-1.2373040455 0,-4.004 " sodipodi:arg1="-1.570796" sodipodi:arg2="-0.942477796" sodipodi:r1="4.004000" sodipodi:r2="1.529391909" transform="translate(24.7,7)" font-size="12" fill="#ffffff" fill-opacity="1" fill-rule="evenodd" stroke="none" stroke-width="0.125" stroke-dasharray="none"/>
      <polygon points="0,-4.004 0.898954009,-1.2373040455 3.808030291,-1.2373040455 1.454,0.472 2.353,3.239 0,1.529391909 -2.35349215,3.2393040455 -1.454538141067,0.472608091 -3.808030291,-1.2373040455 -0.898954009,-1.2373040455 0,-4.004 " sodipodi:arg1="-1.570796" sodipodi:arg2="-0.942477796" sodipodi:r1="4.004000" sodipodi:r2="1.529391909" transform="translate(41.16666666667,7)" font-size="12" fill="#ffffff" fill-opacity="1" fill-rule="evenodd" stroke="none" stroke-width="0.125" stroke-dasharray="none"/>
      <polygon points="0,-4.004 0.898954009,-1.2373040455 3.808030291,-1.2373040455 1.454,0.472 2.353,3.239 0,1.529391909 -2.35349215,3.2393040455 -1.454538141067,0.472608091 -3.808030291,-1.2373040455 -0.898954009,-1.2373040455 0,-4.004 " sodipodi:arg1="-1.570796" sodipodi:arg2="-0.942477796" sodipodi:r1="4.004000" sodipodi:r2="1.529391909" transform="translate(57.63333333,7)" font-size="12" fill="#ffffff" fill-opacity="1" fill-rule="evenodd" stroke="none" stroke-width="0.125" stroke-dasharray="none"/>
      <polygon points="0,-4.004 0.898954009,-1.2373040455 3.808030291,-1.2373040455 1.454,0.472 2.353,3.239 0,1.529391909 -2.35349215,3.2393040455 -1.454538141067,0.472608091 -3.808030291,-1.2373040455 -0.898954009,-1.2373040455 0,-4.004 " sodipodi:arg1="-1.570796" sodipodi:arg2="-0.942477796" sodipodi:r1="4.004000" sodipodi:r2="1.529391909" transform="translate(74.1,7)" font-size="12" fill="#ffffff" fill-opacity="1" fill-rule="evenodd" stroke="none" stroke-width="0.125" stroke-dasharray="none"/>
      <polygon points="0,-4.004 0.898954009,-1.2373040455 3.808030291,-1.2373040455 1.454,0.472 2.353,3.239 0,1.529391909 -2.35349215,3.2393040455 -1.454538141067,0.472608091 -3.808030291,-1.2373040455 -0.898954009,-1.2373040455 0,-4.004 " sodipodi:arg1="-1.570796" sodipodi:arg2="-0.942477796" sodipodi:r1="4.004000" sodipodi:r2="1.529391909" transform="translate(90.5666666666667,7)" font-size="12" fill="#ffffff" fill-opacity="1" fill-rule="evenodd" stroke="none" stroke-width="0.125" stroke-dasharray="none"/>
    </g>
  </g>
</svg>
