<?xml version="1.0" encoding="UTF-8" standalone="no"?>
<svg xmlns:dc="http://purl.org/dc/elements/1.1/" xmlns:cc="http://web.resource.org/cc/" xmlns:rdf="http://www.w3.org/1999/02/22-rdf-syntax-ns#" xmlns:svg="http://www.w3.org/2000/svg" xmlns="http://www.w3.org/2000/svg" xml:space="preserve" width="750" height="500" viewBox="-1502 0 3004 2004" id="svg1589" version="1.0" shape-rendering="geometricPrecision" text-rendering="geometricPrecision" image-rendering="optimizeQuality">
    <sodipodi:namedview borderopacity="1.0" bordercolor="#666666" pagecolor="#ffffff" id="base"/>
    <defs id="defs1591">
  <style type="text/css" id="style1593">
   
    .str0 {stroke:#000000;stroke-width:3}
    .str1 {stroke:#000000;stroke-width:7}
    .fil2 {fill:none}
    .fil1 {fill:#FFFFFF}
    .fil0 {fill:#00885E}
   
  </style>
 
  
  
 
   
   
   
   
   
   
   
   
   
   
   
   
   
   
   
   
   
   
   
   
   
   
   
   
   
   
   
  </defs>
    <path d="M 1502.9999,2004 L 1502.9999,-3.4810305e-013 L -1503.0001,-3.4810305e-013 L -1503.0001,2004 L 1502.9999,2004 z " class="fil0 str0" id="21461584" fill="#009530" fill-opacity="1" stroke="none" stroke-width="3"/>
    <path d="M 468.4,339.7 C 467.9,339.8 467.2,340.4 466.4,341.8 C 464.4,345.0 463.9,345.5 467.1,349.3 L 467.2,352.3 C 391.0,353.2 306.4,352.4 234.1,351.5 C 242.1,364.7 267.7,363.7 292.4,364.0 C 314.4,364.4 379.0,364.3 467.5625,362 L 467.6,365.5 C 464.4,369.2 464.9,369.7 467.15625,373 C 468.1,374.4 468.8,374.8 469.4,374.8 C 470.1,374.6 470.6,373.7 471.1,372.7 C 471.6,372.2 471.9,371.7 472.1,371.2 L 484.09375,371 C 484.0,371.1 484.1,371.3 484.2,371.5 C 484.2,371.5 484.2,371.6 484.3,371.7 C 484.8,372.6 486.2,373.2 486.8,373.2 C 487.8,373.2 489.5,372.2 489.5,370.7 L 502.4,370.5 C 503.7,372.5 505.7,373.6 507.53125,373.5 C 512.2,373.2 514.2,367.7 513.7,361.0 C 513.0,353.0 509.0,351.5 499.8,351.7 C 490.1,351.9 480.2,352.1 470.2,352.3 L 470.1,349.0 C 473.1,345.3 472.8,344.8 470.6,341.5 C 470.1,340.9 469.7,340.3 469.3,340.0 C 469.2,339.9 469.1,339.9 469.0,339.8 C 468.8,339.7 468.6,339.7 468.4,339.7 z M 501.8,361.0 C 501.0,363.5 500.9,365.7 501.3,367.5 L 489.5,367.7 C 489.5,367.6 489.5,367.5 489.5,367.4 C 489.1,366.3 487.5,365.5 486.8,365.5 C 485.8,365.5 484.0,366.5 484.09375,368 L 472.6,368.2 C 472.1,367.5 471.6,366.5 470.4,365.2 L 470.3,361.9 C 480.5,361.6 491.0,361.3 501.8,361.0 z " id="21459296" transform="matrix(4.008,0,0,4.008,-1503,0)" fill="#ffffff"/>
    <g>
        <path d="M -704.38449,564.00005 C -694.39588,536.00004 -693.39727,511.00004 -705.38338,520.00004 C -715.37172,528.00004 -721.36505,520.00004 -713.37422,511.00004 C -703.3856,498.00004 -690.4006,494.00004 -687.40394,516.00004 C -686.40532,533.00004 -698.39144,554.00004 -704.38449,564.00005 z " class="fil1" id="21461496" fill="#ffffff"/>
        <path d="M -618.48337,721.00006 C -615.48671,757.00006 -605.49837,824.00007 -605.49837,847.00007 C -604.49948,871.00007 -601.50282,864.00007 -595.50976,851.00007 C -589.51671,838.00007 -590.51559,824.00007 -591.51448,805.00006 C -593.51198,785.00006 -594.51087,752.00006 -598.50643,707.00006 C -590.51559,701.00006 -583.52365,691.00006 -580.52698,685.00005 C -572.53615,670.00005 -570.53865,671.00005 -567.54198,683.00005 C -561.54893,707.00006 -537.57642,723.00006 -505.61337,700.00006 C -475.64781,679.00005 -488.63281,635.00005 -501.61781,587.00005 C -490.63059,589.00005 -486.63503,580.00005 -493.62698,568.00005 C -496.62364,561.00004 -502.6167,555.00004 -507.61087,549.00004 C -512.60531,543.00004 -517.59948,538.00004 -522.59364,544.00004 C -526.5892,550.00004 -531.58337,555.00004 -534.58003,559.00004 C -537.57642,563.00005 -537.57642,567.00005 -533.58115,577.00005 C -521.59476,605.00005 -513.60392,635.00005 -511.60642,652.00005 C -508.60975,668.00005 -514.60281,672.00005 -525.59031,672.00005 C -536.57753,672.00005 -551.56031,669.00005 -557.55337,645.00005 C -563.5467,621.00005 -566.54309,610.00005 -565.5442,594.00005 C -564.54531,578.00005 -562.54781,567.00005 -573.53504,551.00004 C -585.52115,535.00004 -586.52004,538.00004 -589.51671,546.00004 C -591.51448,555.00004 -595.50976,568.00005 -591.51448,583.00005 C -586.52004,605.00005 -583.52365,624.00005 -580.52698,637.00005 C -578.5292,646.00005 -587.51893,665.00005 -600.50393,675.00005 C -603.5006,645.00005 -608.49476,605.00005 -610.49254,573.00005 C -593.51198,567.00005 -602.50171,544.00004 -616.4856,519.00004 C -626.47421,500.00004 -630.46949,508.00004 -637.46143,520.00004 C -644.45338,532.00004 -639.45921,537.00004 -634.46504,547.00004 C -638.46032,555.00004 -631.46838,567.00005 -628.47199,589.00005 C -627.4731,603.00005 -624.47643,643.00005 -621.47976,678.00005 C -635.46393,678.00005 -643.45449,669.00005 -648.44893,657.00005 C -659.43616,632.00005 -656.43977,609.00005 -651.44532,594.00005 C -646.45115,579.00005 -641.45699,556.00004 -650.44643,550.00004 C -658.43727,544.00004 -669.42477,551.00004 -676.41671,562.00004 C -688.40282,580.00005 -699.39033,606.00005 -700.38921,633.00005 C -701.38783,644.00005 -704.38449,665.00005 -709.37866,673.00005 C -713.37422,681.00005 -720.36616,682.00005 -727.35811,670.00005 C -739.34422,651.00005 -743.33977,603.00005 -742.34088,578.00005 C -742.34088,566.00005 -745.33727,564.00005 -749.33283,578.00005 C -762.31783,626.00005 -747.33505,678.00005 -736.34783,700.00006 C -725.36033,722.00006 -711.37644,717.00006 -701.38783,699.00006 C -686.40532,672.00005 -692.39838,648.00005 -678.41449,608.00005 C -670.42366,583.00005 -667.42699,602.00005 -670.42366,617.00005 C -677.4156,657.00005 -675.41782,722.00006 -618.48337,721.00006 z " class="fil1" id="21461408" fill="#ffffff"/>
        <path d="M -575.53282,511.00004 C -578.5292,519.00004 -576.5317,529.00004 -571.53726,535.00004 C -566.54309,542.00004 -557.55337,542.00004 -551.56031,537.00004 C -546.56615,531.00004 -546.56615,530.00004 -541.57198,538.00004 C -538.57531,544.00004 -528.5867,542.00004 -525.59031,536.00004 C -523.59253,531.00004 -520.59587,526.00004 -523.59253,519.00004 C -526.5892,512.00004 -526.5892,514.00004 -528.5867,522.00004 C -530.58448,535.00004 -542.57059,532.00004 -543.56948,516.00004 C -543.56948,501.00004 -546.56615,509.00004 -550.56142,519.00004 C -557.55337,534.00004 -567.54198,531.00004 -567.54198,518.00004 C -567.54198,507.00004 -570.53865,498.00004 -575.53282,511.00004 z " class="fil1" id="21461320" fill="#ffffff"/>
        <path d="M -738.34533,812.00006 C -709.37866,777.00006 -672.42116,759.00006 -653.4431,753.00006 C -641.45699,749.00006 -635.46393,744.00006 -635.46393,756.00006 C -634.46504,767.00006 -635.46393,768.00006 -645.45227,771.00006 C -668.42588,777.00006 -716.3706,801.00006 -732.35227,813.00007 C -740.34311,819.00007 -750.33172,826.00007 -738.34533,812.00006 z " class="fil1" id="21461232" fill="#ffffff"/>
        <path d="M -717.36949,875.00007 C -716.3706,885.00007 -716.3706,892.00007 -716.3706,896.00007 C -716.3706,903.00007 -720.36616,910.00007 -722.36394,919.00007 C -734.35005,962.00008 -716.3706,983.00008 -706.38227,967.00008 C -697.39255,951.00008 -692.39838,953.00008 -693.39727,966.00008 C -694.39588,1009.0001 -735.34894,1012.0001 -738.34533,976.00008 C -743.33977,919.00007 -730.35449,910.00007 -726.35922,891.00007 C -723.36255,878.00007 -719.36727,868.00007 -717.36949,875.00007 z " class="fil1" id="21461144" fill="#ffffff"/>
        <path d="M -506.61198,789.00006 C -510.60753,790.00006 -514.60281,792.00006 -517.59948,793.00006 C -535.57865,798.00006 -538.57531,791.00006 -537.57642,780.00006 C -536.57753,769.00006 -535.57865,766.00006 -523.59253,771.00006 C -518.59837,773.00006 -512.60531,780.00006 -506.61198,789.00006 L -479.64309,779.00006 C -484.63725,768.00006 -491.6292,759.00006 -502.6167,748.00006 C -520.59587,730.00006 -535.57865,729.00006 -550.56142,751.00006 C -564.54531,772.00006 -563.5467,777.00006 -562.54781,796.00006 C -561.54893,815.00007 -565.5442,822.00007 -550.56142,827.00007 C -536.57753,832.00007 -530.58448,830.00007 -521.59476,827.00007 C -514.60281,825.00007 -504.61448,822.00007 -494.62586,818.00007 C -492.62809,828.00007 -493.62698,839.00007 -499.62003,847.00007 C -536.57753,891.00007 -593.51198,923.00007 -618.48337,894.00007 C -632.46726,878.00007 -638.46032,853.00007 -634.46504,823.00007 C -630.46949,798.00006 -638.46032,809.00006 -641.45699,818.00007 C -650.44643,847.00007 -653.4431,889.00007 -641.45699,910.00007 C -624.47643,939.00008 -597.50754,952.00008 -554.55698,933.00007 C -511.60642,914.00007 -469.65475,880.00007 -471.65225,833.00007 C -471.65225,824.00007 -472.65114,816.00007 -472.65114,810.00006 C -468.65586,808.00006 -461.66392,803.00006 -456.66947,801.00006 C -455.67058,817.00007 -457.66836,837.00007 -456.66947,853.00007 C -454.67197,904.00007 -474.64892,919.00007 -492.62809,933.00007 C -517.59948,953.00008 -551.56031,966.00008 -580.52698,971.00008 C -649.44782,981.00008 -665.42921,937.00007 -664.4306,878.00007 C -664.4306,869.00007 -660.43504,863.00007 -660.43504,850.00007 C -661.43393,825.00007 -664.4306,829.00007 -672.42116,854.00007 C -679.4131,878.00007 -688.40282,934.00007 -665.42921,980.00008 C -641.45699,1026.0001 -560.55004,1013.0001 -497.62253,983.00008 C -435.69364,953.00008 -428.70169,896.00007 -431.69836,839.00007 C -431.69836,824.00007 -432.69725,808.00006 -433.69586,791.00006 C -431.69836,790.00006 -430.69947,788.00006 -429.70058,787.00006 C -420.71086,816.00007 -378.75919,808.00006 -365.77419,791.00006 C -358.78224,783.00006 -358.78224,782.00006 -352.78919,791.00006 C -343.79946,804.00006 -312.83502,808.00006 -304.84418,790.00006 C -297.85224,771.00006 -298.85113,753.00006 -300.8489,739.00006 C -302.84668,725.00006 -305.84307,726.00006 -314.83279,733.00006 C -324.82141,741.00006 -316.83057,742.00006 -315.83168,752.00006 C -311.83613,790.00006 -344.79835,787.00006 -348.79363,748.00006 C -350.79141,724.00006 -354.78669,733.00006 -357.78335,744.00006 C -371.76724,791.00006 -412.72002,800.00006 -408.72475,746.00006 C -407.72586,730.00006 -417.71447,735.00006 -422.70864,741.00006 C -427.7028,745.00006 -431.69836,750.00006 -436.69253,753.00006 C -439.68919,709.00006 -442.68558,659.00005 -447.68003,599.00005 C -435.69364,614.00005 -424.70641,597.00005 -432.69725,580.00005 C -438.6903,567.00005 -447.68003,538.00004 -453.67308,522.00004 C -458.66725,506.00004 -461.66392,511.00004 -474.64892,524.00004 C -486.63503,538.00004 -484.63725,541.00004 -478.6442,555.00004 C -480.64197,572.00005 -477.64531,589.00005 -473.65003,624.00005 C -470.65336,649.00005 -462.66253,701.00006 -458.66725,767.00006 C -464.66031,770.00006 -473.65003,776.00006 -479.64309,779.00006 L -506.61198,789.00006 z " class="fil1" id="21461056" fill="#ffffff"/>
        <path d="M -363.77641,859.00007 C -361.77863,866.00007 -362.77752,882.00007 -365.77419,889.00007 C -369.76947,898.00007 -365.77419,902.00007 -359.78113,891.00007 C -353.78808,879.00007 -349.79252,865.00007 -352.78919,851.00007 C -353.78808,841.00007 -353.78808,838.00007 -362.77752,834.00007 C -372.76613,830.00007 -375.7628,836.00007 -378.75919,844.00007 C -382.75474,854.00007 -377.7603,865.00007 -363.77641,859.00007 z " class="fil1" id="21460968" fill="#ffffff"/>
        <path d="M -336.80752,639.00005 C -348.79363,654.00005 -357.78335,676.00005 -340.8028,689.00006 C -331.81335,697.00006 -312.83502,688.00006 -305.84307,673.00005 C -298.85113,657.00005 -301.84779,655.00005 -313.83391,668.00005 C -330.81446,687.00005 -347.79474,670.00005 -329.81557,644.00005 C -317.82946,626.00005 -324.82141,622.00005 -336.80752,639.00005 z " class="fil1" id="21460880" fill="#ffffff"/>
        <path d="M -310.83724,550.00004 C -308.83974,546.00004 -306.84196,541.00004 -305.84307,537.00004 C -303.84529,531.00004 -308.83974,525.00004 -312.83502,534.00004 C -315.83168,541.00004 -316.83057,546.00004 -310.83724,550.00004 L -321.82474,569.00005 C -334.80974,558.00004 -334.80974,542.00004 -329.81557,528.00004 C -317.82946,497.00004 -277.87529,501.00004 -288.86279,541.00004 C -289.8614,547.00004 -292.85807,555.00004 -296.85335,563.00005 C -290.86029,571.00005 -293.85696,581.00005 -305.84307,579.00005 C -318.82807,600.00005 -343.79946,623.00005 -386.75002,642.00005 C -406.72697,651.00005 -409.72364,644.00005 -394.74086,635.00005 C -365.77419,616.00005 -338.8053,593.00005 -321.82474,569.00005 L -310.83724,550.00004 z " class="fil1" id="21460704" fill="#ffffff"/>
        <path d="M -264.89029,554.00004 C -280.87196,599.00005 -279.87307,642.00005 -246.91084,679.00005 C -227.93279,700.00006 -213.9489,690.00006 -205.95806,667.00005 C -196.96834,645.00005 -190.97528,623.00005 -184.98223,608.00005 C -178.98917,593.00005 -173.99473,596.00005 -174.99362,610.00005 C -177.99028,638.00005 -179.98806,683.00005 -152.02028,700.00006 C -124.05222,717.00006 -81.101748,688.00006 -66.118997,658.00005 C -21.170715,718.00006 18.78,690.0 23.77,632.0 C 24.77,614.0 16.78,575.0 11.79,564.0 C 6.797,552.0 9.793,552.0 16.78,558.0 C 23.77,565.0 35.76,569.0 29.77,549.0 C 22.77,530.0 14.78,519.0 3.800,510.0 C -6.187964,501.00004 -8.1856587,506.00004 -12.181048,513.00004 C -16.176465,520.00004 -15.177604,522.00004 -21.170715,527.00004 C -27.163827,533.00004 -26.164966,536.00004 -21.170715,547.00004 C -4.1902417,591.00005 11.79,655.0 -15.177604,661.00005 C -40.148883,666.00005 -56.130496,612.00005 -57.129329,588.00005 C -58.12819,556.00004 -62.12358,529.00004 -68.116691,512.00004 C -75.108636,495.00004 -77.106331,492.00004 -82.100609,501.00004 C -86.095998,508.00004 -87.094859,513.00004 -91.090249,520.00004 C -95.085666,527.00004 -91.090249,529.00004 -88.093693,543.00004 C -73.110942,613.00005 -75.108636,645.00005 -107.07186,663.00005 C -139.035,682.00005 -156.01556,664.00005 -156.01556,642.00005 C -157.01445,620.00005 -157.01445,593.00005 -154.01778,573.00005 C -152.02028,553.00004 -147.02584,550.00004 -154.01778,540.00004 C -161.00973,529.00004 -167.00278,533.00004 -175.99251,546.00004 C -195.96945,574.00005 -215.94668,621.00005 -222.93862,643.00005 C -229.93057,666.00005 -243.91446,658.00005 -253.90279,639.00005 C -264.89029,616.00005 -263.8914,575.00005 -259.89612,559.00004 C -255.90057,543.00004 -257.89835,536.00004 -264.89029,554.00004 z " class="fil1" id="21460792" fill="#ffffff"/>
        <path d="M -129.04667,515.00004 C -136.03861,522.00004 -136.03861,523.00004 -130.04556,532.00004 C -124.05222,539.00004 -115.06278,561.00004 -118.05917,584.00005 C -119.05806,594.00005 -117.06028,604.00005 -112.06611,586.00005 C -108.07072,568.00005 -109.06944,543.00004 -114.06389,528.00004 C -119.05806,513.00004 -125.05111,509.00004 -129.04667,515.00004 z " class="fil1" id="21460616" fill="#ffffff"/>
        <path d="M 15.78,774.0 C 22.77,772.0 29.77,771.0 37.76,769.0 C 58.73,764.0 46.75,762.0 32.76,753.0 C 17.78,744.0 11.79,744.0 12.79,754.0 C 13.78,760.0 13.78,766.0 15.78,774.0 L -10.183353,782.00006 C -27.163827,757.00006 -16.176465,739.00006 -3.1914083,720.00006 C 12.79,697.0 38.76,704.0 68.72,725.0 C 98.69,746.0 86.70,779.0 57.73,796.0 C 50.74,800.0 41.75,804.0 30.76,808.0 C 33.76,815.0 29.77,817.0 20.78,811.0 C -5.1891029,820.00007 -39.150022,833.00007 -63.122441,846.00007 C -34.155772,848.00007 85.70,846.0 109.6,843.0 C 133.6,841.0 129.6,845.0 122.6,866.0 C 115.6,886.0 107.6,884.0 87.70,887.0 C 55.74,893.0 8.794,907.0 -25.166104,921.00007 C -59.127024,935.00007 -47.140828,960.00008 -12.181048,973.00008 C 14.78,980.0 11.79,983.0 6.797,999.0 C 2.801,1014. 2.801,1018. -30.160355,1013.0001 C -111.06722,1000.0001 -140.03389,955.00008 -153.01889,920.00007 C -202.9614,991.00008 -251.90529,1030.0001 -297.85224,1018.0001 C -320.82585,1013.0001 -331.81335,992.00008 -333.81085,966.00008 C -365.77419,981.00008 -402.73169,994.00008 -450.67642,1008.0001 C -461.66392,1012.0001 -470.65336,1007.0001 -455.67058,1000.0001 C -423.70753,984.00008 -373.76502,957.00008 -332.81196,928.00007 C -328.81668,910.00007 -319.82696,885.00007 -310.83724,867.00007 C -305.84307,856.00007 -302.84668,860.00007 -302.84668,869.00007 C -302.84668,876.00007 -304.84418,894.00007 -303.84529,907.00007 C -296.85335,901.00007 -286.86501,895.00007 -281.87085,890.00007 C -253.90279,865.00007 -222.93862,849.00007 -243.91446,809.00006 C -252.90418,791.00006 -259.89612,778.00006 -262.89251,770.00006 C -280.87196,763.00006 -275.87751,753.00006 -267.88668,736.00006 C -259.89612,719.00006 -256.89946,715.00006 -240.91779,734.00006 C -217.94418,761.00006 -214.94779,773.00006 -230.92945,771.00006 C -205.95806,835.00007 -211.95112,868.00007 -250.9064,906.00007 C -268.88557,925.00007 -287.8639,940.00008 -309.83863,952.00008 C -311.83613,969.00008 -304.84418,986.00008 -272.88112,981.00008 C -230.92945,975.00008 -183.98334,920.00007 -164.00639,878.00007 C -172.99612,843.00007 -192.97306,780.00006 -204.95917,748.00006 C -210.95223,732.00006 -204.95917,725.00006 -199.96501,712.00006 C -193.97195,699.00006 -190.97528,691.00006 -183.98334,709.00006 C -176.99139,726.00006 -155.01667,769.00006 -145.02806,820.00007 C -134.04084,871.00007 -136.03861,915.00007 -110.06833,939.00008 C -98.082194,950.00008 -83.099442,957.00008 -67.11783,961.00008 C -79.104053,927.00007 -54.132773,901.00007 -21.170715,889.00007 C -41.147717,870.00007 -72.11208,873.00007 -107.07186,871.00007 C -133.04195,870.00007 -130.04556,867.00007 -123.05333,844.00007 C -116.06139,821.00007 -108.07072,818.00007 -89.092554,810.00006 C -63.122441,800.00006 -37.152328,790.00006 -10.183353,782.00006 L 15.78,774.0 z " class="fil1" id="21460440" fill="#ffffff"/>
        <path d="M -100.07992,733.00006 C -102.07761,747.00006 -99.081055,756.00006 -94.086804,763.00006 C -89.092554,770.00006 -79.104053,769.00006 -76.107497,761.00006 C -73.110942,752.00006 -71.113247,751.00006 -65.120135,758.00006 C -58.12819,765.00006 -35.154633,759.00006 -46.141967,724.00006 C -51.136218,710.00006 -53.13394,713.00006 -53.13394,729.00006 C -53.13394,754.00006 -61.124746,754.00006 -70.114386,730.00006 C -73.110942,721.00006 -77.106331,721.00006 -78.105192,733.00006 C -78.105192,756.00006 -88.093693,759.00006 -94.086804,736.00006 C -96.084499,726.00006 -98.082194,718.00006 -100.07992,733.00006 z " class="fil1" id="21460528" fill="#ffffff"/>
        <path d="M 195.5,515.0 C 191.5,523.0 188.5,529.0 196.5,535.0 C 204.5,541.0 216.5,557.0 211.5,575.0 C 208.5,589.0 211.5,600.0 220.5,580.0 C 229.5,559.0 222.5,534.0 213.5,518.0 C 205.5,504.0 200.5,507.0 195.5,515.0 z " class="fil1" id="21460352" fill="#ffffff"/>
        <path d="M 270.4,880.0 C 261.5,835.0 220.5,763.0 159.6,669.0 C 157.6,644.0 156.6,621.0 156.6,600.0 C 165.6,610.0 171.6,604.0 168.6,591.0 C 162.6,568.0 153.6,549.0 142.6,523.0 C 138.6,512.0 127.6,509.0 122.6,525.0 C 115.6,544.0 114.6,548.0 123.6,561.0 C 122.6,575.0 127.6,599.0 129.6,621.0 C 118.6,605.0 104.6,585.0 93.69,568.0 C 110.6,575.0 120.6,570.0 105.6,554.0 C 90.70,537.0 69.72,520.0 56.73,508.0 C 43.75,496.0 37.76,504.0 39.75,515.0 C 40.75,526.0 41.75,534.0 40.75,543.0 C 39.75,552.0 42.75,558.0 55.74,563.0 C 81.71,597.0 107.6,632.0 131.6,668.0 C 134.6,698.0 140.6,731.0 143.6,758.0 C 151.6,822.0 163.6,905.0 153.6,941.0 C 145.6,968.0 153.6,980.0 166.6,939.0 C 178.5,898.0 177.6,859.0 169.6,798.0 C 166.6,774.0 165.6,744.0 162.6,716.0 C 204.5,781.0 242.5,843.0 259.5,886.0 C 268.4,909.0 276.4,914.0 270.4,880.0 z " class="fil1" id="21460264" fill="#ffffff"/>
        <path d="M 203.5,628.0 C 207.5,640.0 212.5,646.0 215.5,631.0 C 217.5,618.0 221.5,614.0 223.5,628.0 C 226.5,642.0 234.5,640.0 236.5,627.0 C 239.5,614.0 243.5,607.0 245.5,621.0 C 247.5,636.0 246.5,641.0 244.5,646.0 C 243.5,650.0 235.5,655.0 229.5,649.0 C 222.5,643.0 220.5,643.0 215.5,648.0 C 204.5,658.0 200.5,651.0 198.5,637.0 C 197.5,625.0 201.5,620.0 203.5,628.0 z " class="fil1" id="21460176" fill="#ffffff"/>
        <path d="M 42.75,968.0 C 52.74,962.0 57.73,957.0 65.72,954.0 C 73.72,950.0 79.71,951.0 73.72,968.0 C 67.72,988.0 70.72,994.0 83.70,989.0 C 95.69,985.0 102.6,980.0 112.6,976.0 C 121.6,972.0 131.6,972.0 117.6,983.0 C 106.6,992.0 90.70,1004. 81.71,1006. C 61.73,1011. 51.74,1003. 55.74,987.0 C 59.73,972.0 62.73,966.0 50.74,971.0 C 36.76,977.0 37.76,971.0 42.75,968.0 z " class="fil1" id="21460088" fill="#ffffff"/>
        <path d="M 293.4,586.0 C 301.4,593.0 310.4,593.0 305.4,578.0 C 300.4,563.0 296.4,545.0 291.4,528.0 C 286.4,511.0 283.4,507.0 277.4,515.0 C 270.4,524.0 265.4,527.0 260.5,533.0 C 255.5,538.0 254.5,549.0 260.5,559.0 C 282.4,710.0 283.4,777.0 286.4,833.0 C 289.4,889.0 297.4,915.0 262.5,953.0 C 224.5,994.0 201.5,1004. 184.5,1008. C 163.6,1014. 155.6,1023. 187.5,1021. C 234.5,1018. 241.5,1017. 279.4,972.0 C 301.4,948.0 312.4,916.0 310.4,842.0 C 308.4,712.0 290.4,656.0 293.4,586.0 z " class="fil1" id="21460000" fill="#ffffff"/>
        <path d="M 362.3,591.0 C 376.3,598.0 391.3,602.0 380.3,585.0 C 369.3,569.0 360.3,542.0 354.3,522.0 C 347.4,502.0 345.4,503.0 334.4,520.0 C 317.4,546.0 332.4,571.0 336.4,601.0 C 350.4,708.0 364.3,817.0 368.3,846.0 C 372.3,878.0 377.3,899.0 369.3,934.0 C 366.3,945.0 370.3,948.0 377.3,935.0 C 405.3,882.0 386.3,836.0 383.3,806.0 C 378.3,760.0 362.3,638.0 359.3,589.0" class="fil2 str1" id="21459912" fill="#ffffff" fill-opacity="1" stroke="#ffffff" stroke-width="6.999" stroke-opacity="1"/>
        <path d="M 431.3,672.0 C 429.3,681.0 417.3,681.0 418.3,671.0 C 419.3,661.0 418.3,663.0 418.3,655.0 C 417.3,647.0 427.3,642.0 432.3,649.0 C 438.3,656.0 448.2,678.0 451.2,686.0 C 455.2,694.0 457.2,692.0 457.2,681.0 C 456.2,668.0 454.2,656.0 455.2,647.0 C 456.2,642.0 459.2,636.0 465.2,631.0 C 472.2,626.0 476.2,625.0 479.2,634.0 C 481.2,642.0 487.2,643.0 484.2,650.0 C 480.2,660.0 471.2,640.0 465.2,654.0 C 462.2,664.0 465.2,692.0 464.2,702.0 C 464.2,711.0 460.2,724.0 453.2,709.0 C 448.2,699.0 441.2,682.0 431.3,672.0 z " class="fil1" id="21459824" fill="#ffffff"/>
        <path d="M 428.3,795.0 C 428.3,788.0 431.3,786.0 443.2,776.0 C 453.2,768.0 481.2,748.0 490.2,739.0 C 499.2,730.0 506.2,722.0 508.2,733.0 C 509.2,744.0 511.2,748.0 500.2,754.0 C 489.2,759.0 460.2,777.0 451.2,784.0 C 441.2,792.0 428.3,802.0 428.3,795.0 z " class="fil1" id="21459736" fill="#ffffff"/>
        <path d="M 701.9,874.0 C 699.9,860.0 696.0,846.0 678.0,819.0 C 660.0,793.0 644.0,769.0 628.0,746.0 C 623.0,686.0 616.0,622.0 616.0,588.0 C 624.0,596.0 630.0,588.0 626.0,575.0 C 622.0,562.0 614.0,527.0 608.1,512.0 C 603.1,498.0 597.1,501.0 589.1,514.0 C 582.1,527.0 577.1,533.0 582.1,543.0 C 584.1,601.0 592.1,657.0 601.1,708.0 C 585.1,686.0 570.1,665.0 556.1,646.0 C 555.1,624.0 553.1,602.0 552.1,580.0 C 561.1,587.0 565.1,585.0 560.1,572.0 C 556.1,558.0 545.1,529.0 540.1,516.0 C 535.1,503.0 532.1,503.0 525.2,513.0 C 514.2,530.0 511.2,542.0 520.2,558.0 C 521.2,572.0 523.2,587.0 524.2,600.0 C 515.2,588.0 507.2,576.0 500.2,565.0 C 509.2,570.0 516.2,562.0 506.2,553.0 C 497.2,544.0 478.2,529.0 470.2,518.0 C 461.2,507.0 453.2,507.0 453.2,517.0 C 453.2,527.0 454.2,536.0 453.2,545.0 C 451.2,553.0 451.2,561.0 463.2,575.0 C 486.2,603.0 508.2,632.0 529.1,659.0 C 537.1,759.0 542.1,823.0 540.1,863.0 C 539.1,887.0 531.1,901.0 518.2,905.0 C 505.2,910.0 492.2,901.0 480.2,883.0 C 458.2,851.0 450.2,857.0 433.3,885.0 C 417.3,911.0 406.3,933.0 397.3,952.0 C 389.3,970.0 375.3,986.0 362.3,962.0 C 350.4,938.0 348.4,911.0 349.4,892.0 C 349.4,873.0 346.4,858.0 339.4,888.0 C 321.4,962.0 332.4,978.0 352.3,994.0 C 377.3,1016. 385.3,1018. 398.3,999.0 C 424.3,963.0 431.3,931.0 446.2,913.0 C 458.2,899.0 458.2,910.0 464.2,917.0 C 479.2,936.0 492.2,943.0 513.2,946.0 C 534.1,950.0 572.1,932.0 569.1,862.0 C 567.1,820.0 564.1,763.0 560.1,702.0 C 580.1,730.0 598.1,755.0 612.1,775.0 C 619.0,815.0 623.0,851.0 621.0,880.0 C 619.0,913.0 626.0,913.0 633.0,879.0 C 635.0,865.0 635.0,836.0 632.0,801.0 C 659.0,837.0 675.0,861.0 686.0,878.0 C 698.0,899.0 704.9,917.0 701.9,874.0 z " class="fil1" id="21459648" fill="#ffffff"/>
        <path d="M 644.0,543.0 C 638.0,553.0 639.0,555.0 646.0,566.0 C 653.0,578.0 659.0,600.0 659.0,617.0 C 659.0,634.0 665.0,632.0 668.0,616.0 C 671.0,601.0 670.0,571.0 661.0,550.0 C 652.0,528.0 649.0,536.0 644.0,543.0 z " class="fil1" id="21459560" fill="#ffffff"/>
        <path d="M 724.9,575.0 C 735.9,585.0 741.9,582.0 734.9,565.0 C 726.9,548.0 718.9,530.0 711.9,514.0 C 703.9,497.0 701.9,501.0 693.0,513.0 C 683.0,525.0 682.0,534.0 686.0,541.0 C 704.9,700.0 713.9,783.0 715.9,831.0 C 719.9,901.0 702.9,940.0 635.0,985.0 C 613.0,1000. 588.1,1017. 641.0,1004. C 693.0,991.0 748.9,956.0 742.9,811.0 C 737.9,681.0 720.9,624.0 724.9,575.0 z " class="fil1" id="21459472" fill="#ffffff"/>
        <path class="fil1" d="M 481.6,787.1 C 477.6,793.0 474.6,797.5 482.6,801.9 C 490.6,806.4 502.6,818.3 497.6,831.6 C 494.6,842.0 497.6,850.2 506.5,835.3 C 515.5,819.7 508.5,801.2 499.6,789.3 C 491.6,778.9 486.6,781.1 481.6,787.1 z " fill="#ffffff"/>
        <path d="M 536.5,974.9 C 539.4,978.6 541.2,982.0 536.3,988.0 C 531.6,992.3 528.3,994.6 523.6,998.9 C 521.3,1002. 519.9,1008. 526.7,1010. C 539.2,1013. 562.9,998.2 562.9,997.8 C 567.5,994.2 566.0,987.6 565.6,987.6 C 562.9,984.5 556.7,986.3 552.5,985.8 C 550.6,985.8 549.4,981.7 552.5,976.0 C 555.1,972.4 556.0,970.2 557.7,965.8 C 559.7,961.5 558.0,958.6 551.0,956.3 C 543.8,955.0 540.9,955.6 533.0,956.3 C 528.7,957.2 527.2,959.1 526.4,964.4 C 526.7,972.3 531.5,971.8 536.5,974.9 z " fill="#ffffff" fill-opacity="1" fill-rule="evenodd" stroke="none" stroke-width="1pt" stroke-linecap="butt" stroke-linejoin="miter" stroke-opacity="1"/>
    </g>
</svg>
