<?xml version="1.0" encoding="UTF-8" standalone="no"?>
<!-- Created with Inkscape (http://www.inkscape.org/) -->
<svg
   xmlns:dc="http://purl.org/dc/elements/1.1/"
   xmlns:cc="http://web.resource.org/cc/"
   xmlns:rdf="http://www.w3.org/1999/02/22-rdf-syntax-ns#"
   xmlns:svg="http://www.w3.org/2000/svg"
   xmlns="http://www.w3.org/2000/svg"
   xmlns:sodipodi="http://inkscape.sourceforge.net/DTD/sodipodi-0.dtd"
   xmlns:inkscape="http://www.inkscape.org/namespaces/inkscape"
   version="1.0"
   width="750"
   height="500"
   id="svg722"
   sodipodi:version="0.32"
   inkscape:version="0.43"
   sodipodi:docname="Flag_of_the_Netherlands_Antilles.svg"
   sodipodi:docbase="C:\Documents and Settings\David Nelson\Archives\Svg">
  <metadata
     id="metadata2769">
    <rdf:RDF>
      <cc:Work
         rdf:about="">
        <dc:format>image/svg+xml</dc:format>
        <dc:type
           rdf:resource="http://purl.org/dc/dcmitype/StillImage" />
      </cc:Work>
    </rdf:RDF>
  </metadata>
  <sodipodi:namedview
     inkscape:window-height="540"
     inkscape:window-width="756"
     inkscape:pageshadow="2"
     inkscape:pageopacity="0.0"
     borderopacity="1.0"
     bordercolor="#666666"
     pagecolor="#ffffff"
     id="base"
     inkscape:zoom="0.746"
     inkscape:cx="375"
     inkscape:cy="250"
     inkscape:window-x="22"
     inkscape:window-y="31"
     inkscape:current-layer="svg722" />
  <defs
     id="defs724" />
  <rect
     id="rect740"
     style="font-size:12px;fill:#ffffff;fill-opacity:1;fill-rule:evenodd;stroke-width:1pt"
     y="0.00020000001"
     x="0"
     height="499.99979"
     width="749.99963" />
  <rect
     id="rect2334"
     style="fill:#dc171d;fill-opacity:1;fill-rule:evenodd;stroke:none;stroke-opacity:1"
     y="4.372199e-005"
     x="291.66669"
     height="499.99979"
     width="166.6666" />
  <rect
     id="rect727"
     style="font-size:12px;fill:#00007b;fill-opacity:1;fill-rule:evenodd;stroke-width:1pt"
     y="166.66672"
     x="0"
     height="166.66658"
     width="749.99963" />
  <g
     id="g2927"
     transform="translate(-2.5e-5,-8.5e-5)">
    <path
       id="path2860"
       style="font-size:12px;fill:#ffffff;fill-opacity:1;fill-rule:evenodd;stroke:none;stroke-width:1pt"
       d="M 387.82473,215.27791 L 374.87777,204.86125 L 361.99899,214.86124 L 367.1101,199.44458 L 354.16668,189.02792 L 369.71882,189.02792 L 375.16918,173.61126 L 380.1191,189.02792 L 395.83333,189.02792 L 383.37355,199.44458 L 387.82473,215.27791 z " />
    <path
       d="M 346.15807,326.38891 L 333.21111,315.97225 L 320.33233,325.97224 L 325.44344,310.55558 L 312.50002,300.13892 L 328.05216,300.13892 L 333.50252,284.72226 L 338.45244,300.13892 L 354.16667,300.13892 L 341.70689,310.55558 L 346.15807,326.38891 z "
       style="font-size:12px;fill:#ffffff;fill-opacity:1;fill-rule:evenodd;stroke:none;stroke-width:1pt"
       id="path2864" />
    <path
       id="path2876"
       style="font-size:12px;fill:#ffffff;fill-opacity:1;fill-rule:evenodd;stroke:none;stroke-width:1pt"
       d="M 403.84193,326.38891 L 416.78889,315.97225 L 429.66767,325.97224 L 424.55656,310.55558 L 437.49998,300.13892 L 421.94784,300.13892 L 416.49748,284.72226 L 411.54756,300.13892 L 395.83333,300.13892 L 408.29311,310.55558 L 403.84193,326.38891 z " />
    <path
       id="path2892"
       style="font-size:12px;fill:#ffffff;fill-opacity:1;fill-rule:evenodd;stroke:none;stroke-width:1pt"
       d="M 498.93575,256.94459 L 485.98879,246.52793 L 473.11001,256.52792 L 478.22112,241.11126 L 465.2777,230.6946 L 480.82984,230.6946 L 486.2802,215.27794 L 491.23012,230.6946 L 506.94435,230.6946 L 494.48457,241.11126 L 498.93575,256.94459 z " />
    <path
       d="M 251.0643,256.94459 L 264.01126,246.52793 L 276.89004,256.52792 L 271.77893,241.11126 L 284.72235,230.6946 L 269.17021,230.6946 L 263.71985,215.27794 L 258.76993,230.6946 L 243.0557,230.6946 L 255.51548,241.11126 L 251.0643,256.94459 z "
       style="font-size:12px;fill:#ffffff;fill-opacity:1;fill-rule:evenodd;stroke:none;stroke-width:1pt"
       id="path2896" />
  </g>
</svg>
