<?xml version="1.0" encoding="UTF-8" standalone="no"?>
<svg xmlns:dc="http://purl.org/dc/elements/1.1/" xmlns:cc="http://web.resource.org/cc/" xmlns:rdf="http://www.w3.org/1999/02/22-rdf-syntax-ns#" xmlns:svg="http://www.w3.org/2000/svg" xmlns="http://www.w3.org/2000/svg" width="768" height="576" id="svg3362" version="1.0">
  <defs id="defs3364"/>
  <sodipodi:namedview id="base" pagecolor="#ffffff" bordercolor="#666666" borderopacity="1.0" showgrid="true"/>
  
  <g id="layer1">
    <rect width="768" height="576" x="0" y="0" fill="#000000" fill-opacity="1" stroke="none" stroke-opacity="1"/>
    <path d="M 0,0 L 768,0 L 768,576 L 0,0 z " fill="#ce1126" fill-opacity="1" fill-rule="evenodd" stroke="none" stroke-width="1px" stroke-linecap="butt" stroke-linejoin="miter" stroke-opacity="1"/>
    <path d="M 475.4,167.3 C 469.8,174.6 456.3,159.9 440.3,159.6 C 424.2,159.3 412.8,175.0 408.1,180.4 C 403.4,185.7 388.3,213.9 388.7,216.9 C 389.0,219.9 398.1,208.5 401.4,206.5 C 401.7,210.5 397.7,215.2 398.7,216.5 C 399.7,217.9 410.4,208.5 414.1,208.2 C 415.1,210.9 412.1,213.5 413.1,217.6 C 414.5,218.9 420.5,210.9 424.5,209.2 C 425.2,212.2 420.8,217.9 423.2,221.6 C 424.9,221.95818 434.9,210.2 438.2,208.8 C 441.6,207.5 436.6,219.9 438.2,220.9 C 441.3,218.9 450.6,208.2 453.7,206.8 C 456.7,205.5 453.3,220.6 454.7,220.6 C 458.3,217.9 467.7,205.2 468.7,203.1 C 469.7,201.1 467.7,222.6 478.1,234.0 C 488.5,245.4 504.2,258.4 505.9,258.4 C 507.9,254.7 505.3,247.0 506.9,247.4 C 511.6,252.4 520.3,259.8 522.3,259.8 C 524.3,259.8 521.0,251.7 523.7,251.7 C 529.0,256.7 544.4,276.5 574.6,285.6 C 572.6,279.9 568.2,274.8 567.9,272.2 C 569.9,272.5 576.9,275.8 578.3,275.5 C 579.6,275.2 563.5,255.4 564.5,252.7 C 568.2,252.4 569.9,254.7 571.2,253.1 C 569.6,250.4 555.5,234.6 555.5,231.0 C 555.5,227.3 559.9,231.6 561.2,231.0 C 562.5,230.3 555.8,216.2 557.2,214.5 C 558.5,212.9 573.3,223.6 576.9,223.6 C 580.6,223.6 577.9,210.5 579.6,209.8 C 581.3,209.2 593.7,216.9 596.4,216.9 C 599.0,216.9 598.7,211.2 599.7,211.9 C 600.7,212.5 629.9,241.7 619.8,275.8 C 609.8,300.3 589.7,313.4 560.2,302.6 C 561.9,305.3 577.6,318.4 594.7,313.7 C 611.8,309.0 632.5,295.6 630.2,262.1 C 627.9,228.6 616.8,223.9 615.1,218.9 C 613.5,213.9 617.8,220.2 621.5,221.6 C 625.2,222.9 620.8,214.5 619.8,210.9 C 618.8,207.2 630.9,218.6 633.9,219.6 C 636.9,220.6 626.9,192.1 623.8,190.1 C 620.8,188.1 626.9,190.8 628.9,191.4 C 630.9,192.1 610.4,160.3 606.1,160.3 C 601.7,160.3 609.8,158.6 612.1,158.6 C 614.5,158.6 588.7,137.8 584.3,137.8 C 580.0,137.8 593.7,132.5 595.0,132.1 C 597.4,132.5 565.2,115.0 536.4,132.5 C 534.7,131.1 550.0,120.6 550.5,116.0 C 550.6,114.9 545.5,112.4 545.1,111.0 C 544.8,109.7 553.2,105.7 553.5,102.6 C 551.5,100.0 547.8,101.0 545.8,100.3 C 545.3,97.84 552.8,91.64 552.2,88.96 C 551.6,87.45 546.1,86.95 544.8,87.95 C 543.4,88.96 548.3,80.92 547.5,78.57 C 546.8,77.57 544.1,78.24 541.4,78.91 C 539.8,78.57 550.1,64.17 548.1,62.16 C 546.1,60.15 518.0,76.90 507.6,95.66 C 497.2,114.4 505.3,129.4 503.9,135.8 C 502.6,142.2 500.9,148.5 496.5,148.5 C 492.2,148.5 482.1,141.8 478.8,138.5 C 475.4,135.1 474.8,132.8 470.1,131.5 C 465.4,130.1 454.7,134.1 450.6,134.5 C 446.6,134.8 430.9,131.5 429.9,132.5 C 428.9,133.5 445.3,139.5 449.0,141.5 C 452.7,143.5 453.0,146.2 455.7,147.9 C 458.3,149.5 483.5,156.9 475.4,167.3 z " fill="#fcd116"/>
    <path d="M 573.6,214.5 C 581.6,222.6 635.9,258.8 635.9,303.0 C 635.9,347.2 596.4,345.9 585.0,344.5 C 597.7,355.2 646,353.27851 646,303.02851 C 646,258.80851 583.6,214.5 575.6,210.5 C 567.6,206.5 565.6,206.54851 573.6,214.5 z " fill="#fcd116"/>
    <polygon points="192.54,176.394 200.9,205.2 229.9,205.2 207.0,222.8 215.4,250.8 192.5,233.2 169.6,250.0 178.0,222.8 155.1,205.2 183.3,205.2 192.5,176.3 " transform="translate(-0.122,2.102)" fill="#ffffff"/>
    <polygon points="192.54,176.394 200.9,205.2 229.9,205.2 207.0,222.8 215.4,250.8 192.5,233.2 169.6,250.0 178.0,222.8 155.1,205.2 183.3,205.2 192.5,176.3 " transform="translate(-88.122,114.606)" fill="#ffffff"/>
    <polygon points="192.54,176.394 200.9,205.2 229.9,205.2 207.0,222.8 215.4,250.8 192.5,233.2 169.6,250.0 178.0,222.8 155.1,205.2 183.3,205.2 192.5,176.3 " transform="translate(87.46,106.606)" fill="#ffffff"/>
    <polygon points="192.54,176.394 200.9,205.2 229.9,205.2 207.0,222.8 215.4,250.8 192.5,233.2 169.6,250.0 178.0,222.8 155.1,205.2 183.3,205.2 192.5,176.3 " transform="translate(-0.122,266.606)" fill="#ffffff"/>
    <polygon points="192.54,176.394 200.9,205.2 229.9,205.2 207.0,222.8 215.4,250.8 192.5,233.2 169.6,250.0 178.0,222.8 155.1,205.2 183.3,205.2 192.5,176.3 " transform="matrix(0.5,0,0,0.5,135.439,293.551)" fill="#ffffff"/>
  </g>
</svg>
