<?xml version="1.0" encoding="UTF-8" standalone="no"?>
<!DOCTYPE svg PUBLIC "-//W3C//DTD SVG 1.0//EN"
"http://www.w3.org/TR/2001/REC-SVG-20010904/DTD/svg10.dtd">
<!-- Created with Inkscape (http://www.inkscape.org/) -->
<svg
   xmlns="http://www.w3.org/2000/svg"
   xmlns:xlink="http://www.w3.org/1999/xlink"
   version="1.0"
   x="0.0000000"
   y="0.0000000"
   width="600.00000"
   height="300.00000"
   id="svg3405">
  <defs
     id="defs3407" />
  <rect
     width="250.00000"
     height="125.00000"
     x="125.00000"
     y="552.36218"
     transform="matrix(2.400000,0.000000,0.000000,2.400000,-300.0000,-1325.669)"
     style="fill:#0051ba;fill-opacity:1.0000000;fill-rule:evenodd;stroke:none;stroke-width:1.0000000pt;stroke-linecap:butt;stroke-linejoin:miter;stroke-opacity:1.0000000;"
     id="rect3414" />
  <path
     d="M 125.00000,677.36218 L 375.00000,677.36218 L 375.00000,552.36218 L 125.00000,677.36218 z "
     transform="matrix(2.400000,0.000000,0.000000,2.400000,-300.0000,-1325.669)"
     style="fill:#215b33;fill-opacity:1.0000000;fill-rule:evenodd;stroke:none;stroke-width:1.0000000pt;stroke-linecap:butt;stroke-linejoin:miter;stroke-opacity:1.0000000;"
     id="path4657" />
  <path
     d="M 125.00000,677.36218 L 137.57789,677.36218 L 375.00000,558.65112 L 375.00000,552.36218 L 362.42211,552.36218 L 125.00000,671.07324 L 125.00000,677.36218 z "
     transform="matrix(2.400000,0.000000,0.000000,2.400000,-300.0000,-1325.669)"
     style="fill:#fcd116;fill-opacity:1.0000000;fill-rule:evenodd;stroke:none;stroke-width:1.0000000pt;stroke-linecap:butt;stroke-linejoin:miter;stroke-opacity:1.0000000;"
     id="path5900" />
  <path
     d="M 93.466411,575.17308 L 102.54846,575.17308 L 105.35391,566.53559 L 108.15936,575.17308 L 117.24141,575.17308 L 109.89494,580.51060 L 112.70039,589.14809 L 105.35391,583.81058 L 98.007441,589.14809 L 100.81288,580.51060 L 93.466411,575.17308 z "
     transform="matrix(2.400000,0.000000,0.000000,2.400000,-147.8494,-1299.685)"
     style="fill:#ffffff;fill-opacity:1.0000000;fill-rule:evenodd;stroke:none;stroke-width:1.0000000pt;stroke-linecap:butt;stroke-linejoin:miter;stroke-opacity:1.0000000;"
     id="path2203" />
  <path
     d="M 93.466411,575.17308 L 102.54846,575.17308 L 105.35391,566.53559 L 108.15936,575.17308 L 117.24141,575.17308 L 109.89494,580.51060 L 112.70039,589.14809 L 105.35391,583.81058 L 98.007441,589.14809 L 100.81288,580.51060 L 93.466411,575.17308 z "
     transform="matrix(2.400000,0.000000,0.000000,2.400000,-202.9894,-1244.545)"
     style="fill:#ffffff;fill-opacity:1.0000000;fill-rule:evenodd;stroke:none;stroke-width:1.0000000pt;stroke-linecap:butt;stroke-linejoin:miter;stroke-opacity:1.0000000;"
     id="path7786" />
  <path
     d="M 93.466411,575.17308 L 102.54846,575.17308 L 105.35391,566.53559 L 108.15936,575.17308 L 117.24141,575.17308 L 109.89494,580.51060 L 112.70039,589.14809 L 105.35391,583.81058 L 98.007441,589.14809 L 100.81288,580.51060 L 93.466411,575.17308 z "
     transform="matrix(2.400000,0.000000,0.000000,2.400000,-92.70941,-1244.545)"
     style="fill:#ffffff;fill-opacity:1.0000000;fill-rule:evenodd;stroke:none;stroke-width:1.0000000pt;stroke-linecap:butt;stroke-linejoin:miter;stroke-opacity:1.0000000;"
     id="path7789" />
  <path
     d="M 93.466411,575.17308 L 102.54846,575.17308 L 105.35391,566.53559 L 108.15936,575.17308 L 117.24141,575.17308 L 109.89494,580.51060 L 112.70039,589.14809 L 105.35391,583.81058 L 98.007441,589.14809 L 100.81288,580.51060 L 93.466411,575.17308 z "
     transform="matrix(2.400000,0.000000,0.000000,2.400000,-202.9894,-1354.825)"
     style="fill:#ffffff;fill-opacity:1.0000000;fill-rule:evenodd;stroke:none;stroke-width:1.0000000pt;stroke-linecap:butt;stroke-linejoin:miter;stroke-opacity:1.0000000;"
     id="path7792" />
  <path
     d="M 93.466411,575.17308 L 102.54846,575.17308 L 105.35391,566.53559 L 108.15936,575.17308 L 117.24141,575.17308 L 109.89494,580.51060 L 112.70039,589.14809 L 105.35391,583.81058 L 98.007441,589.14809 L 100.81288,580.51060 L 93.466411,575.17308 z "
     transform="matrix(2.400000,0.000000,0.000000,2.400000,-92.70941,-1354.825)"
     style="fill:#ffffff;fill-opacity:1.0000000;fill-rule:evenodd;stroke:none;stroke-width:1.0000000pt;stroke-linecap:butt;stroke-linejoin:miter;stroke-opacity:1.0000000;"
     id="path7795" />
</svg>
