<?xml version="1.0" encoding="UTF-8" standalone="no"?>
<svg xmlns:dc="http://purl.org/dc/elements/1.1/" xmlns:cc="http://web.resource.org/cc/" xmlns:rdf="http://www.w3.org/1999/02/22-rdf-syntax-ns#" xmlns:svg="http://www.w3.org/2000/svg" xmlns="http://www.w3.org/2000/svg" height="500" id="svg571" width="1000" version="1.0">
  
  <defs id="defs573"/>
  <sodipodi:namedview id="base"/>
  <rect height="499.99976" width="391.32126" x="304.35699" y="0.00014240025" font-size="12px" fill="#ffffff" fill-opacity="1" fill-rule="evenodd" stroke-width="1pt"/>
  <path d="M 499.7,22.64 C 498.8,32.12 497.9,41.61 497.1,51.08 C 493.9,51.57 490.7,52.05 487.5,52.53 C 487.5,52.53 494.1,56.29 495.3,60.06 C 495.5,60.67 495.4,61.17 495.1,61.54 C 495.0,61.66 494.9,61.79 494.8,61.89 C 492.9,63.38 487.2,62.68 487.2,62.68 C 487.2,62.68 494.7,69.08 495.3,71.40 C 495.3,71.46 495.3,71.51 495.3,71.56 C 495.3,71.60 495.3,71.67 495.3,71.72 C 495.3,71.75 495.3,71.81 495.3,71.84 C 495.2,71.96 495.1,72.08 495.0,72.19 C 493.2,73.84 484.9,74.30 484.9,74.30 C 484.9,74.30 494.1,80.95 494.7,84.72 C 495.2,88.14 494.8,90.15 494.7,90.49 C 494.1,89.93 479.1,77.29 469.5,80.98 C 469.0,81.23 468.7,81.47 468.6,81.70 C 468.5,81.82 468.5,81.96 468.5,82.08 C 469.2,84.18 482.9,86.34 492.4,94.62 C 492.2,96.69 465.3,88.03 464.3,93.45 C 465.1,94.98 493.2,99.05 495.3,102.7 C 484.9,103.1 463.6,100.4 464.3,103.8 C 462.1,107.8 484.5,105.6 493.8,108.8 C 496.6,111.9 496.3,114.5 491.5,114.9 C 482.5,110.5 462.3,107.3 462.2,112.8 C 462.2,112.8 462.2,112.9 462.2,112.9 C 462.2,112.9 462.2,112.9 462.2,112.9 C 462.3,112.9 462.3,112.9 462.3,113.0 C 462.3,113.0 462.4,113.0 462.4,113.1 C 464.7,114.2 483.6,113.6 490.7,118.4 C 480.6,120.6 446.5,113.7 446.3,117.1 C 447.2,118.7 452.6,125.6 461.9,125.3 C 471.2,125.0 492.7,129.1 494.2,132.0 C 494.2,132.1 494.2,132.2 494.2,132.2 C 493.6,134.3 465.9,126.1 455.3,131.1 C 444.2,136.3 486.9,133.2 493.8,139.5 C 500.8,145.9 479.9,139.0 479.9,139.0 C 479.9,139.0 450.9,134.9 446.6,136.9 C 442.2,139.0 437.3,143.6 437.3,143.6 C 437.3,143.6 440.2,149.4 443.1,148.2 C 443.5,148.1 443.8,148.0 444.0,148.1 C 444.0,148.1 444.0,148.1 444.0,148.1 C 444.0,148.1 444.0,148.1 444.0,148.1 C 444.0,148.1 444.1,148.1 444.1,148.1 C 444.1,148.2 444.1,148.2 444.1,148.2 C 444.1,148.2 444.1,148.2 444.1,148.2 C 444.1,148.2 444.2,148.3 444.2,148.3 C 444.2,149.2 442.2,151.7 442.2,151.7 C 442.2,151.7 482.8,161.6 491.8,170.3 C 500.8,179.0 440.2,156.7 440.2,156.7 C 440.2,156.7 415.8,165.6 441.6,166.2 C 438.7,170.4 442.8,173.0 443.1,173.2 C 443.1,173.2 486.0,182.2 490.4,189.2 C 494.7,196.1 461.1,182.5 453.5,178.7 C 446.2,175.1 426.0,180.6 424.8,182.3 C 424.8,182.3 424.8,182.4 424.8,182.4 C 424.8,182.4 424.8,182.4 424.8,182.4 C 424.8,182.4 424.8,182.5 424.8,182.5 C 424.8,182.5 424.8,182.5 424.8,182.5 C 424.8,182.5 424.8,182.5 424.8,182.5 C 424.8,182.5 424.8,182.6 424.8,182.6 C 424.8,182.6 424.8,182.6 424.8,182.6 C 424.8,182.6 424.9,182.7 424.9,182.7 C 424.9,182.7 424.9,182.7 424.9,182.7 C 426.2,184.2 435.3,186.1 435.5,188.6 C 435.5,188.6 435.5,188.6 435.5,188.6 C 435.5,188.8 435.5,188.9 435.4,189.0 C 434.3,191.2 423.5,192.2 423.1,194.3 C 423.1,194.3 423.0,194.4 423.0,194.4 C 423.0,196.7 477.3,208.0 491.8,220.2 C 506.3,232.4 449.2,205.7 449.2,205.7 C 449.2,205.7 452.4,210.0 449.2,211.2 C 446.0,212.4 434.6,195.0 416.1,205.7 C 412.7,210.1 432.3,213.6 437.3,214.1 C 435.6,218.5 434.1,219.9 441.0,224.3 C 441.8,224.8 442.2,225.0 442.4,225.2 C 442.4,225.2 442.4,225.2 442.4,225.2 C 442.4,225.2 442.5,225.3 442.5,225.3 C 442.5,225.3 442.5,225.3 442.5,225.3 C 442.5,225.3 442.5,225.3 442.5,225.3 C 442.5,225.3 442.4,225.3 442.4,225.3 C 442.4,225.3 442.4,225.3 442.4,225.3 C 441.3,225.1 428.8,218.7 427.5,218.5 C 427.5,218.4 427.5,218.5 427.4,218.5 C 427.4,218.5 427.4,218.5 427.4,218.5 C 427.4,219.0 428.9,226.0 428.9,226.0 C 422.4,220.8 414.7,219.2 407.4,224.6 C 407.4,224.9 407.3,229.9 414.6,233.0 C 410.5,241.4 419.3,238.8 433.2,246.6 C 412.5,241.2 410.8,251.3 425.6,253.6 C 440.4,255.9 481.1,257.3 490.7,269.8 C 492.7,272.5 493.2,273.8 492.8,274.2 C 491.2,275.7 476.5,265.0 474.4,264.6 C 474.4,264.6 474.4,264.6 474.4,264.6 C 474.4,264.6 474.3,264.7 474.3,264.7 C 474.3,264.7 474.3,264.8 474.2,264.8 C 473.7,266.0 473.2,271.0 473.2,271.0 C 467.0,267.4 461.4,264.2 454.0,262.7 C 453.4,263.8 453.5,265.5 452.9,266.6 C 446.2,261.8 440.3,258.4 430.6,257.9 C 430.2,259.5 429.8,261.0 429.4,262.6 C 429.4,262.6 421.3,252.4 405.3,262.6 C 396.4,269.0 439.0,264.9 446.0,272.4 C 452.9,280.0 447.4,281.1 447.4,281.1 C 441.6,279.0 435.8,276.9 430.0,274.8 C 430.0,274.8 409.4,271.0 403.6,275.6 C 397.8,280.3 488.3,291.6 490.9,304.1 C 492.7,310.8 469.7,297.0 449.7,291.0 C 449.0,293.2 448.2,295.5 447.4,297.7 C 446.9,297.2 439.2,289.7 430.6,288.4 C 430.6,288.4 430.6,288.4 430.6,288.4 C 430.6,288.5 430.6,288.5 430.6,288.5 C 430.6,289.5 432.3,296.3 432.3,296.3 C 432.3,296.3 410.0,285.8 398.7,291.3 C 387.4,296.8 438.1,299.7 442.8,304.9 C 443.3,305.5 443.5,305.9 443.5,306.2 C 443.5,306.3 443.4,306.3 443.4,306.4 C 442.3,308.0 427.1,301.9 425.6,304.9 C 423.9,308.4 399.2,298.6 399.5,303.2 C 399.8,307.9 403.0,310.5 403.0,310.5 C 403.0,310.5 454.4,315.4 456.1,321.5 C 457.9,327.6 427.7,318.0 427.7,318.0 C 427.7,318.0 424.8,322.3 427.1,324.4 C 427.2,324.5 427.3,324.5 427.3,324.6 C 427.3,324.6 427.3,324.6 427.3,324.6 C 427.3,324.6 427.3,324.6 427.3,324.6 C 426.2,324.3 409.8,313.5 411.4,321.8 C 405.0,319.2 388.5,311.3 390.8,317.4 C 393.1,323.4 436.2,332.0 437.5,332.2 C 436.3,332.3 418.1,333.8 419.0,338.6 C 394.5,323.7 394.6,332.7 395.2,333.4 C 395.2,333.4 395.2,333.4 395.2,333.4 C 393.8,333.2 363.7,325.7 387.6,338.6 C 400.4,345.6 403.6,348.3 403.6,349.3 C 403.6,349.3 403.6,349.4 403.6,349.4 C 403.6,349.4 403.6,349.5 403.6,349.5 C 403.6,349.5 403.6,349.5 403.6,349.5 C 403.6,349.5 403.5,349.6 403.5,349.6 C 403.5,349.6 403.5,349.6 403.5,349.6 C 403.5,349.6 403.5,349.6 403.5,349.6 C 403.5,349.6 403.4,349.7 403.4,349.7 C 403.4,349.7 403.4,349.7 403.4,349.7 C 402.9,350.0 401.7,349.9 401.4,349.9 C 401.3,349.9 401.3,349.9 401.3,349.9 C 401.3,349.9 401.3,349.9 401.3,349.9 C 401.3,349.9 401.3,349.9 401.3,350.0 C 401.6,350.5 403.5,355.6 403.4,356.5 C 403.4,356.5 403.4,356.5 403.4,356.5 C 403.4,356.5 403.4,356.6 403.4,356.6 C 403.4,356.6 403.3,356.6 403.3,356.6 C 403.3,356.6 403.3,356.6 403.3,356.6 C 403.3,356.6 403.3,356.6 403.3,356.6 C 403.3,356.6 403.3,356.6 403.3,356.6 C 402.2,356.3 386.4,347.9 381.0,347.3 C 375.5,346.7 349.3,354.6 377.2,366.7 C 405.1,378.9 422.2,363.8 437.6,365.6 C 452.9,367.3 460.2,369.9 458.7,374.9 C 457.3,379.8 443.0,358.7 428.0,376.9 C 410.9,373.6 399.4,371.6 408.2,384.2 C 380.3,373.7 363.3,387.3 398.4,392.9 C 432.9,393.9 454.1,384.4 454.1,384.4 C 454.1,384.4 459.9,395.2 468.3,387.7 C 476.3,380.5 477.0,389.6 477.3,390.5 C 477.3,390.5 477.3,390.5 477.3,390.5 C 477.3,390.5 477.3,390.6 477.3,390.6 C 477.3,390.6 477.3,390.6 477.3,390.6 C 478.0,390.4 485.4,387.1 485.4,387.1 C 486.1,387.1 486.8,387.1 487.5,387.1 C 487.5,410.3 487.5,433.5 487.5,456.7 C 496.9,456.8 506.2,456.9 515.6,457.0 C 515.6,457.0 506.6,396.4 511.5,388.2 C 516.3,380.4 520.8,381.2 521.1,381.3 C 521.1,381.3 539.4,386.8 541.4,385.9 C 541.5,385.9 541.5,385.9 541.5,385.9 C 541.5,385.9 541.6,385.8 541.6,385.8 C 541.6,385.8 541.7,385.8 541.7,385.7 C 541.7,385.7 541.7,385.7 541.7,385.7 C 543.2,384.3 541.7,379.0 551.0,379.8 C 553.9,378.8 552.8,374.2 554.6,373.1 C 554.7,373.1 554.7,373.0 554.8,373.0 C 554.8,373.0 554.9,372.9 555.0,372.9 C 555.1,372.9 555.3,372.9 555.4,372.9 C 558.3,372.6 614.3,388.5 626.5,373.4 C 623.3,365.0 612.2,372.8 609.3,373.1 C 606.7,373.1 595.7,367.9 589.3,373.1 C 583.5,368.8 557.1,365.9 557.1,365.9 C 553.6,362.4 620.1,367.6 623.9,365.0 C 631.7,357.2 609.4,358.1 605.9,360.7 C 599.7,356.9 591.9,357.2 587.2,359.8 C 584.9,354.3 563.3,356.7 551.3,355.2 C 547.5,352.9 548.1,351.6 550.7,350.2 C 575.8,351.3 600.7,354.5 625.9,353.4 C 632.7,344.5 617.3,341.2 607.9,348.8 C 602.4,339.7 591.1,348.5 583.5,347.6 C 576.0,346.7 579.5,337.4 589.0,338.9 C 598.6,340.4 615.7,338.3 618.9,334.0 C 622.1,329.6 617.0,325.2 601.2,329.3 C 595.9,324.1 584.1,329.3 578.6,331.1 C 571.3,327.0 554.2,330.5 548.4,331.9 C 542.7,328.4 578.3,322.6 578.3,322.6 C 592.0,322.4 599.8,320.0 604.1,318.9 C 624.9,307.7 603.8,306.6 592.9,314.6 C 586.2,309.4 579.7,315.1 573.7,317.1 C 567.9,319.0 557.4,320.4 556.1,319.9 C 556.1,319.9 556.0,319.9 556.0,319.8 C 556.0,319.8 556.0,319.8 556.0,319.8 C 556.0,319.8 556.0,319.8 556.0,319.8 C 556.0,319.8 556.0,319.8 556.0,319.7 C 556.0,319.7 556.0,319.7 556.0,319.7 C 556.0,319.7 556.0,319.7 556.0,319.7 C 556.8,318.3 572.5,308.7 572.5,308.7 C 572.5,308.7 592.8,307.3 596.9,306.7 C 599.3,306.3 608.0,302.2 608.0,300.7 C 607.9,299.7 604.3,299.8 593.4,302.6 C 583.5,303.5 577.7,302.9 573.9,303.2 C 567.9,302.6 565.3,301.9 564.8,301.4 C 564.8,301.4 564.8,301.3 564.7,301.3 C 564.7,301.2 564.7,301.1 564.8,301.0 C 564.8,301.0 564.9,300.9 564.9,300.9 C 566.4,299.7 576.0,298.8 576.0,298.8 C 576.0,298.8 605.3,296.1 607.2,294.6 C 607.2,294.6 607.3,294.6 607.3,294.6 C 607.3,294.6 607.3,294.5 607.3,294.5 C 607.3,294.5 607.3,294.5 607.3,294.5 C 607.9,282.5 582.5,288.0 581.8,288.1 C 581.9,279.7 558.8,288.0 557.7,288.1 C 557.7,288.1 557.7,288.1 557.7,288.1 C 556.7,287.5 556.3,286.9 556.2,286.4 C 556.1,286.1 556.2,285.9 556.2,285.7 C 556.8,284.0 560.3,282.6 560.3,282.6 C 566.7,281.1 576.2,280.6 578.7,278.5 C 578.7,278.5 596.7,278.4 598.9,273.6 C 594.5,261.4 560.8,275.8 556.2,278.0 C 555.3,278.0 554.8,277.7 554.5,277.4 C 553.0,275.2 560.3,268.1 560.6,267.8 C 560.6,267.8 560.6,267.8 560.6,267.8 C 561.7,267.5 588.6,266.1 601.5,248.7 C 602.4,237.9 586.1,254.7 586.1,254.7 C 584.9,240.8 568.4,255.6 558.9,256.8 C 549.3,257.9 549.0,252.4 555.7,251.6 C 562.3,250.7 569.9,251.3 573.7,241.1 C 577.4,230.9 588.8,241.7 590.8,237.9 C 592.8,234.3 587.1,231.1 586.7,231.0 C 586.7,231.0 595.1,222.2 581.5,222.5 C 568.0,222.8 550.5,220.8 550.2,220.8 C 551.0,220.5 564.8,215.3 577.7,215.6 C 591.1,215.8 583.8,206.0 571.0,206.0 C 558.3,206.0 551.6,201.6 551.6,201.6 C 558.9,198.9 566.1,196.2 573.4,193.5 C 572.9,191.5 572.4,189.5 571.9,187.4 C 571.9,187.4 584.7,177.3 566.7,179.6 C 548.7,181.9 546.7,182.2 546.7,182.2 C 546.7,182.2 511.2,187.6 510.4,187.7 C 510.4,187.7 510.4,187.7 510.4,187.7 C 510.0,187.7 506.5,186.6 505.9,185.2 C 505.9,185.2 505.8,185.1 505.8,185.1 C 505.8,185.0 505.8,184.9 505.8,184.9 C 505.8,184.8 505.8,184.7 505.8,184.7 C 505.9,183.9 507.0,183.2 509.8,182.5 C 519.1,180.2 551.9,173.5 556.8,175.2 C 557.5,175.5 557.9,175.4 558.2,175.2 C 560.1,173.5 553.9,162.8 538.8,161.3 C 521.4,159.6 510.7,165.7 510.7,165.7 C 510.7,165.7 499.4,161.6 509.8,158.1 C 520.3,154.6 536.8,159.3 536.8,159.3 C 536.8,159.3 555.4,153.7 540.0,151.4 C 524.6,149.1 519.8,153.5 512.7,153.8 C 509.9,150.2 536.9,149.4 538.5,146.5 C 535.7,141.3 519.0,146.5 509.2,146.5 C 505.1,144.7 504.8,141.9 509.5,140.1 C 519.5,139.7 528.9,140.3 538.8,139.9 C 538.5,134.6 538.8,128.3 538.5,123.0 C 525.9,120.7 511.1,124.7 504.0,124.3 C 505.9,118.5 533.2,117.0 536.2,115.5 C 542.5,107.6 510.0,115.3 509.2,115.5 C 503.5,114.6 503.8,111.0 507.5,108.8 C 515.9,107.8 534.8,110.0 533.3,104.3 C 532.2,99.00 520.3,101.8 515.3,103.0 C 510.4,104.1 503.1,103.3 503.1,103.3 C 500.0,99.06 531.6,100.7 531.3,97.51 C 530.9,93.75 511.3,96.34 504.6,96.63 C 499.4,93.09 528.7,90.73 530.1,90.27 C 530.1,90.26 530.1,90.24 530.1,90.24 C 531.2,80.59 509.8,90.24 505.7,90.24 C 505.0,90.24 504.5,90.06 504.1,89.76 C 504.1,89.70 504.0,89.59 503.9,89.51 C 502.5,87.89 503.7,84.16 503.7,84.16 C 503.7,84.16 511.4,80.73 511.8,79.91 C 511.8,79.90 511.9,79.88 511.9,79.87 C 511.9,79.87 511.9,79.85 511.9,79.84 C 511.9,79.84 511.9,79.81 511.9,79.81 C 511.9,79.81 511.8,79.78 511.8,79.78 C 511.8,79.76 511.8,79.71 511.7,79.69 C 510.8,79.00 505.6,77.25 504.9,77.20 C 504.9,77.20 504.9,77.20 504.9,77.20 C 504.9,77.20 504.8,77.17 504.8,77.17 C 504.8,77.16 504.8,77.14 504.8,77.13 C 504.8,77.13 504.8,77.11 504.8,77.10 C 504.4,76.29 504.9,70.52 504.9,70.52 C 504.9,70.52 510.9,65.99 511.3,64.19 C 511.3,64.17 511.3,64.14 511.3,64.13 C 511.3,64.11 511.3,64.08 511.3,64.06 C 511.3,64.05 511.3,64.01 511.3,64.00 C 511.3,63.99 511.3,63.95 511.3,63.94 C 511.3,63.93 511.3,63.91 511.3,63.90 C 511.3,63.89 511.3,63.86 511.3,63.84 C 511.3,63.84 511.3,63.82 511.3,63.81 C 511.3,63.80 511.2,63.78 511.2,63.78 C 511.2,63.77 511.2,63.76 511.2,63.75 C 511.2,63.73 511.2,63.70 511.2,63.68 C 511.2,63.68 511.1,63.66 511.1,63.65 C 511.1,63.63 511.1,63.61 511.0,63.59 C 511.0,63.58 511.0,63.56 511.0,63.56 C 509.4,62.82 503.1,65.01 503.1,65.01 C 503.1,63.07 503.1,61.15 503.1,59.21 C 503.1,59.21 508.7,58.61 509.2,56.00 C 509.3,55.85 509.3,55.70 509.2,55.56 C 509.2,55.50 509.2,55.42 509.2,55.37 C 509.2,55.26 509.1,55.12 509.1,55.02 C 509.0,55.01 509.0,54.97 509.0,54.96 C 507.7,53.33 502.6,53.10 502.6,53.10 C 501.6,42.94 500.6,32.80 499.7,22.64 z M 494.5,122.1 L 494.5,126.1 C 494.5,126.1 488.0,125.7 486.8,124.7 C 486.8,124.7 486.8,124.7 486.8,124.7 C 486.7,124.7 486.7,124.7 486.7,124.7 C 486.7,124.6 486.7,124.6 486.7,124.6 C 486.7,124.6 486.7,124.6 486.7,124.6 C 486.6,124.6 486.6,124.5 486.6,124.5 C 486.6,124.5 486.6,124.5 486.6,124.5 C 486.6,124.5 486.6,124.5 486.6,124.5 C 486.6,124.5 486.6,124.4 486.6,124.4 C 486.6,124.4 486.6,124.4 486.6,124.4 C 486.6,124.4 486.6,124.3 486.6,124.3 C 486.6,124.3 486.6,124.3 486.6,124.3 C 486.6,124.3 486.6,124.2 486.6,124.2 C 486.6,124.2 486.7,124.2 486.7,124.2 C 486.7,124.2 486.7,124.1 486.7,124.1 C 486.7,124.1 486.7,124.1 486.8,124.1 C 486.8,124.0 486.8,124.0 486.8,124.0 C 486.9,124.0 486.9,123.9 487.0,123.9 C 489.2,122.3 493.5,122.4 494.4,122.1 C 494.4,122.1 494.4,122.1 494.4,122.1 C 494.4,122.1 494.4,122.1 494.4,122.1 C 494.4,122.1 494.5,122.1 494.5,122.1 C 494.5,122.1 494.5,122.1 494.5,122.1 z M 503.7,127.4 C 504.0,127.4 516.7,127.5 517.8,129.2 C 517.8,129.2 517.8,129.2 517.8,129.2 C 517.8,129.2 517.9,129.3 517.9,129.3 C 517.9,129.3 517.9,129.4 517.9,129.4 C 517.9,129.4 517.9,129.4 517.9,129.5 C 517.9,129.5 517.9,129.5 517.8,129.6 C 516.9,131.6 504.0,132.9 504.0,132.9 L 503.7,127.4 z M 503.0,135.3 C 503.0,135.3 503.0,135.3 503.0,135.3 C 503.0,135.3 503.1,135.3 503.1,135.3 C 503.8,135.5 509.1,135.7 509.7,136.6 C 509.8,136.6 509.8,136.6 509.8,136.6 C 509.8,136.6 509.8,136.6 509.8,136.6 C 509.8,136.6 509.8,136.6 509.8,136.7 C 509.8,136.7 509.8,136.7 509.8,136.7 C 509.8,136.7 509.8,136.7 509.8,136.7 C 509.8,136.7 509.8,136.7 509.8,136.7 C 509.8,136.8 509.8,136.8 509.8,136.8 C 509.8,136.8 509.8,136.8 509.8,136.8 C 509.8,136.8 509.8,136.8 509.8,136.8 C 509.8,136.8 509.8,136.9 509.8,136.9 C 509.8,136.9 509.8,136.9 509.7,136.9 C 509.7,136.9 509.7,137.0 509.7,137.0 C 509.7,137.0 509.7,137.0 509.7,137.0 C 508.6,138.3 503.8,138.7 503.5,138.7 C 503.5,138.7 503.5,138.7 503.5,138.7 C 503.5,138.7 503.5,138.7 503.5,138.7 C 503.5,138.7 503.4,138.6 503.4,138.6 C 503.2,138.2 503.0,135.3 503.0,135.3 z M 464.2,145.8 C 468.3,145.6 476.6,146.6 492.1,150.9 C 492.1,151.2 492.4,155.2 492.3,155.9 C 492.3,155.9 492.2,155.9 492.2,155.9 C 492.2,155.9 492.2,155.9 492.2,155.9 C 492.2,155.9 492.2,156.0 492.2,156.0 C 492.0,155.8 464.0,147.8 461.5,147.9 C 461.4,147.9 461.3,147.9 461.2,147.9 C 461.2,147.9 461.1,147.9 461.0,147.9 C 461.0,147.9 460.9,147.8 460.8,147.8 C 460.8,147.8 460.8,147.8 460.7,147.8 C 460.7,147.8 460.7,147.7 460.7,147.7 C 460.6,147.7 460.5,147.6 460.5,147.5 C 460.5,147.5 460.5,147.5 460.5,147.5 C 460.4,147.5 460.4,147.4 460.4,147.4 C 460.4,147.4 460.4,147.4 460.4,147.4 C 460.4,147.4 460.4,147.3 460.4,147.3 C 460.4,147.3 460.4,147.3 460.4,147.3 C 460.4,147.3 460.4,147.2 460.4,147.2 C 460.4,147.2 460.4,147.2 460.4,147.2 C 460.4,147.1 460.4,147.1 460.4,147.0 C 460.5,147.0 460.5,146.8 460.6,146.8 C 461.0,146.3 462.1,145.9 464.2,145.8 z M 478.7,157.7 C 483.1,157.5 493.8,160.1 494.4,160.0 C 494.4,160.8 494.8,164.8 494.3,165.7 C 494.3,165.7 494.3,165.7 494.3,165.7 C 494.3,165.7 494.3,165.7 494.2,165.7 C 494.2,165.7 494.2,165.8 494.2,165.8 C 494.2,165.8 494.2,165.8 494.2,165.8 C 494.1,165.8 494.1,165.8 494.1,165.8 C 494.1,165.8 494.1,165.8 494.1,165.8 C 494.1,165.8 494.0,165.8 494.0,165.8 C 493.1,165.6 477.4,160.6 476.8,158.5 C 476.8,158.5 476.8,158.4 476.8,158.4 C 476.8,158.3 476.8,158.2 476.9,158.2 C 476.9,158.2 476.9,158.1 476.9,158.1 C 476.9,158.1 476.9,158.1 476.9,158.1 C 477.2,157.9 477.9,157.7 478.7,157.7 z M 522.5,168.7 C 526.8,168.6 529.8,169.0 528.6,170.3 C 525.6,173.8 504.6,176.7 504.6,176.7 L 504.2,170.3 C 504.7,170.2 515.4,168.9 522.5,168.7 z M 462.4,188.7 C 466.0,188.6 474.3,190.5 492.8,198.4 L 492.9,203.0 C 492.9,203.0 461.6,193.5 460.5,191.9 C 459.9,191.1 458.9,188.9 462.4,188.7 z M 523.8,195.6 C 524.8,195.6 525.4,195.7 525.7,195.9 C 525.7,195.9 525.7,196.0 525.7,196.0 C 525.7,196.0 525.7,196.0 525.7,196.1 C 525.8,196.1 525.8,196.1 525.8,196.2 C 525.8,196.3 525.7,196.5 525.5,196.7 C 522.6,199.9 506.9,203.2 506.9,203.2 C 506.9,203.2 506.9,199.1 506.9,199.0 C 506.9,199.0 506.9,199.0 506.9,199.0 C 507.7,198.9 519.2,195.9 523.8,195.6 z M 455.1,196.2 C 459.8,196.0 470.3,198.4 494.0,209.7 C 494.0,209.8 494.2,213.6 494.2,214.0 C 494.2,214.0 494.1,214.0 494.1,214.0 C 492.7,213.6 451.5,199.1 451.5,199.1 C 451.5,198.9 450.8,196.4 455.1,196.2 z M 533.6,214.3 C 534.8,214.3 535.5,214.4 535.7,214.6 C 535.7,214.7 535.8,214.7 535.8,214.8 C 535.8,214.9 535.7,215.1 535.4,215.2 C 531.7,218.6 507.9,222.7 507.0,222.8 C 507.0,222.8 507.0,222.8 507.0,222.8 C 507.0,222.8 507.0,222.8 507.0,222.8 C 507.0,222.8 506.9,222.7 506.9,222.7 C 506.9,222.7 506.9,222.7 506.9,222.7 C 506.9,222.7 506.9,222.6 506.9,222.6 C 506.9,222.6 506.9,222.6 506.9,222.6 C 506.7,221.8 507.2,219.1 507.3,218.7 C 507.3,218.7 507.3,218.6 507.3,218.6 C 507.3,218.6 507.3,218.6 507.3,218.6 C 507.3,218.6 507.3,218.7 507.3,218.7 C 507.3,218.7 507.3,218.7 507.4,218.7 C 508.9,218.6 527.1,214.6 533.6,214.3 z M 463.5,224.9 C 470.6,224.5 492.1,234.4 493.1,234.7 C 493.1,234.7 493.2,234.7 493.2,234.7 C 493.1,235.1 493.0,238.7 493.0,239.2 C 493.0,239.3 493.0,239.3 493.0,239.3 C 493.0,239.3 492.9,239.3 492.9,239.3 C 492.3,239.0 462.9,226.8 461.6,227.7 C 460.8,225.8 461.6,225.0 463.5,224.9 z M 526.9,227.5 C 528.4,227.4 529.4,227.5 529.8,227.6 C 529.8,227.7 529.9,227.7 529.9,227.7 C 529.9,227.7 529.9,227.8 529.9,227.8 C 529.9,227.8 529.9,227.8 529.9,227.8 C 529.9,227.8 529.9,227.9 529.9,227.9 C 529.9,227.9 529.8,227.9 529.8,227.9 C 529.8,227.9 529.8,228.0 529.7,228.0 C 527.6,229.9 507.3,233.9 507.3,233.9 C 507.3,233.9 507.2,230.2 507.2,229.8 C 507.7,229.7 520.8,227.7 526.9,227.5 z M 525.2,240.5 C 526.7,240.4 527.7,240.5 527.9,240.8 C 527.9,240.8 527.9,240.8 528.0,240.8 C 528.0,240.8 527.9,240.8 528.0,240.8 C 528.0,240.9 528.0,240.9 528.0,240.9 C 528.0,240.9 528.0,240.9 528.0,240.9 C 527.9,240.9 528.0,241.0 528.0,241.0 C 527.9,241.0 527.9,241.0 527.9,241.0 C 527.9,241.0 527.9,241.1 527.9,241.1 C 527.8,241.1 527.8,241.2 527.8,241.2 C 525.6,243.1 508.4,246.7 508.4,246.7 C 508.4,246.7 507.9,242.6 507.9,242.5 C 508.4,242.5 519.9,240.6 525.2,240.5 z M 452.6,241.5 C 456.8,241.2 467.1,243.0 492.5,252.2 L 493.3,257.2 C 493.3,257.2 451.0,243.5 449.8,243.1 C 449.8,243.1 449.8,243.1 449.8,243.1 C 449.8,243.0 449.8,243.0 449.8,242.9 C 449.8,242.8 449.9,242.6 450.0,242.4 C 450.3,242.0 451.0,241.6 452.6,241.5 z M 508.3,252.3 C 508.8,252.4 515.9,252.7 517.2,253.8 C 517.2,253.8 517.3,253.8 517.3,253.8 C 517.3,253.8 517.3,253.8 517.3,253.8 C 517.3,253.8 517.3,253.9 517.3,253.9 C 517.3,253.9 517.4,253.9 517.4,253.9 C 517.4,253.9 517.4,253.9 517.4,254.0 C 517.4,254.0 517.4,254.0 517.4,254.0 C 517.4,254.1 517.4,254.1 517.4,254.1 C 517.4,254.1 517.4,254.1 517.4,254.1 C 517.4,254.1 517.4,254.2 517.4,254.2 C 517.4,254.2 517.4,254.2 517.4,254.2 C 517.4,254.2 517.4,254.3 517.4,254.3 C 517.4,254.3 517.4,254.3 517.4,254.3 C 517.4,254.3 517.4,254.3 517.4,254.4 C 516.3,256.1 508.9,256.7 508.9,256.7 C 508.9,256.7 508.5,253.4 508.3,252.3 z M 525.5,262.0 C 527.1,262.0 528.3,262.2 528.6,262.6 C 528.7,263.0 528.5,263.5 527.7,264.1 C 521.6,269.1 508.4,270.0 508.4,270.0 C 508.4,270.0 508.4,264.7 508.4,264.6 C 508.4,264.6 508.4,264.6 508.4,264.6 C 509.1,264.5 520.0,262.1 525.5,262.0 z M 542.3,267.1 C 544.4,267.0 545.3,267.4 545.6,267.9 C 545.6,267.9 545.7,268.0 545.7,268.0 C 545.7,268.1 545.7,268.2 545.7,268.3 C 545.6,268.9 545.0,269.7 544.5,270.2 C 542.4,272.1 509.5,282.6 509.5,282.6 C 509.5,282.6 509.2,275.6 509.3,275.0 C 528.6,269.2 538.0,267.3 542.3,267.1 z M 521.1,286.7 C 523.1,286.6 524.8,286.8 525.3,287.2 C 525.3,287.3 525.3,287.3 525.4,287.4 C 525.4,287.4 525.4,287.4 525.4,287.5 C 525.4,287.5 525.4,287.5 525.4,287.6 C 525.4,287.6 525.4,287.7 525.4,287.7 C 525.4,287.8 525.3,287.9 525.2,288.0 C 522.4,290.8 508.7,291.2 508.7,291.2 L 508.7,287.8 C 511.3,287.7 517.0,286.9 521.1,286.7 z M 534.8,292.3 C 535.4,292.3 535.8,292.4 535.9,292.6 C 535.9,292.6 535.9,292.7 535.9,292.7 C 535.8,292.9 535.6,293.1 535.2,293.4 C 529.8,297.3 509.2,301.3 509.2,301.3 C 509.2,301.3 509.5,298.5 509.6,297.9 C 510.2,297.9 529.8,292.5 534.8,292.3 z M 546.3,296.7 C 548.7,296.6 550.6,297.0 551.6,297.8 C 551.6,297.8 551.6,297.8 551.6,297.8 C 551.6,297.8 551.6,297.8 551.6,297.8 C 551.6,297.8 551.6,297.8 551.6,297.8 C 551.6,297.8 551.6,297.9 551.6,297.9 C 551.5,298.6 550.0,302.2 544.6,303.7 C 537.8,303.1 509.2,311.6 508.6,311.7 C 508.6,311.7 508.6,311.7 508.6,311.7 C 508.6,311.7 508.6,311.7 508.6,311.7 C 508.6,311.1 509.0,308.2 509.0,308.2 C 518.8,302.3 536.8,296.8 546.3,296.7 z M 472.9,313.3 C 473.0,313.3 473.0,313.3 473.1,313.3 C 485.5,314.6 490.1,319.3 491.4,321.1 C 489.0,325.5 469.4,315.7 471.4,313.7 C 471.7,313.5 472.2,313.3 472.9,313.3 z M 544.0,314.1 C 544.4,314.1 544.9,314.2 545.2,314.4 C 545.3,314.5 545.5,314.6 545.6,314.7 C 545.7,314.9 545.8,315.2 545.8,315.5 C 544.5,317.5 537.8,316.6 537.4,316.6 C 537.7,316.4 541.6,314.2 544.0,314.1 z M 517.4,327.6 C 518.3,327.6 519.1,327.6 519.5,327.9 C 519.6,327.9 519.6,328.0 519.7,328.0 C 519.7,328.0 519.7,328.1 519.7,328.1 C 519.7,328.1 519.8,328.2 519.8,328.2 C 519.8,328.2 519.8,328.3 519.8,328.3 C 519.9,328.5 519.9,328.8 519.7,329.2 C 517.7,332.9 509.2,331.5 509.2,331.5 L 509.2,329.0 C 509.2,329.0 509.2,329.0 509.2,329.0 C 509.7,329.0 514.4,327.7 517.4,327.6 z M 467.3,337.2 C 469.9,337.1 472.2,338.8 474.6,340.2 C 479.9,339.1 490.9,341.0 490.9,341.0 C 490.9,341.0 490.9,345.5 490.9,345.9 C 490.9,345.9 490.9,345.9 490.8,345.9 C 490.8,345.9 490.8,345.9 490.8,345.9 C 489.8,346.1 477.0,345.5 474.1,343.7 C 471.7,343.7 465.1,340.2 464.6,338.4 C 464.6,338.4 464.6,338.3 464.6,338.3 C 464.6,338.3 464.6,338.3 464.6,338.2 C 464.6,338.2 464.6,338.2 464.6,338.2 C 464.6,338.2 464.6,338.1 464.6,338.1 C 464.6,338.1 464.6,338.1 464.6,338.1 C 464.6,338.1 464.6,338.0 464.6,338.0 C 464.6,338.0 464.6,338.0 464.6,338.0 C 465.5,337.5 466.4,337.2 467.3,337.2 z M 523.5,339.6 C 525.5,339.5 526.3,340.1 524.8,342.3 C 520.4,348.5 509.1,346.0 509.1,346.0 L 508.6,342.1 C 512.6,342.3 519.9,339.8 523.5,339.6 z M 481.2,352.2 C 485.8,351.9 490.8,353.8 490.8,353.8 C 490.9,354.0 493.2,358.6 491.1,360.2 C 491.1,360.2 491.0,360.3 490.9,360.3 C 488.3,361.7 476.1,359.3 475.4,354.4 C 476.8,352.9 479.0,352.3 481.2,352.2 z M 434.1,354.6 C 438.2,354.3 442.9,356.9 443.4,357.1 C 443.4,357.1 443.5,357.1 443.5,357.1 C 443.5,357.3 443.3,361.8 443.3,361.8 C 443.3,361.8 435.0,359.5 432.4,354.8 C 432.9,354.7 433.5,354.6 434.1,354.6 z M 513.7,355.2 C 518.4,355.2 524.0,356.3 524.8,357.8 C 525.0,358.2 524.9,358.5 524.6,358.9 C 522.3,361.7 509.2,359.1 509.2,359.1 L 509.2,355.7 C 510.4,355.4 512.0,355.2 513.7,355.2 z " fill="#198200" fill-opacity="1" fill-rule="evenodd" stroke="#198200" stroke-width="1.25" stroke-linecap="round" stroke-linejoin="round" stroke-dasharray="none" stroke-opacity="1"/>
  <rect height="499.99976" width="304.35699" x="0" y="6.2773302e-005" font-size="12px" fill="#198200" fill-opacity="1" fill-rule="evenodd" stroke-width="1pt"/>
  <rect height="499.99976" width="304.32129" x="695.67822" y="2.8127428e-007" font-size="12px" fill="#198200" fill-opacity="1" fill-rule="evenodd" stroke-width="1pt"/>
</svg>
