<?xml version="1.0" encoding="UTF-8" standalone="no"?>
<!-- Created with Inkscape (http://www.inkscape.org/) -->
<svg
   xmlns:svg="http://www.w3.org/2000/svg"
   xmlns="http://www.w3.org/2000/svg"
   version="1.0"
   width="450"
   height="300"
   id="svg2394">
  <defs
     id="defs3" />
  <rect
     width="1125"
     height="750"
     x="125"
     y="-72.637817"
     transform="matrix(0.4,0,0,0.2,-50,14.52756)"
     style="fill:black;fill-opacity:1;stroke:none;stroke-width:25;stroke-linecap:butt;stroke-linejoin:miter;stroke-miterlimit:4;stroke-opacity:1"
     id="rect2404" />
  <rect
     width="1125"
     height="250"
     x="125"
     y="427.36218"
     transform="matrix(0.4,0,0,0.6,-50,-106.4173)"
     style="fill:#339e35;fill-opacity:1;stroke:none;stroke-width:25;stroke-linecap:butt;stroke-linejoin:miter;stroke-miterlimit:4;stroke-opacity:1"
     id="rect3648" />
  <rect
     width="1125"
     height="500"
     x="125"
     y="177.36218"
     transform="matrix(0.4,0,0,0.2,-50,64.52756)"
     style="fill:#ce1126;fill-opacity:1;stroke:none;stroke-width:25;stroke-linecap:butt;stroke-linejoin:miter;stroke-miterlimit:4;stroke-opacity:1"
     id="rect3026" />
  <path
     d="M 225,49.5 C 196.91609,49.5 173.04182,67.448052 164.1875,92.5 L 285.8125,92.5 C 276.95818,67.448052 253.08391,49.499999 225,49.5 z "
     style="fill:#ce1126;fill-opacity:1;stroke:none;stroke-width:25;stroke-linecap:butt;stroke-linejoin:miter;stroke-miterlimit:4;stroke-opacity:1"
     id="path4270" />
  <path
     d="M 225,12 C 222.83333,12 222,15.25 222,18.5 C 222,26.333332 222.95963,30.428508 225,42 C 227.04036,30.428508 228,26.333332 228,18.5 C 228,15.25 227.16667,12 225,12 z M 216.125,12.375 C 213.96657,12.56384 213.40424,15.887368 213.6875,19.125 C 214.37022,26.928528 215.67763,30.931622 218.71875,42.28125 C 219.74283,30.575967 220.33897,26.397274 219.65625,18.59375 C 219.373,15.356118 218.28342,12.186164 216.125,12.375 z M 233.875,12.375 C 231.71659,12.186164 230.62701,15.356118 230.34375,18.59375 C 229.66103,26.397274 230.25717,30.575966 231.28125,42.28125 C 234.32238,30.931623 235.62978,26.928528 236.3125,19.125 C 236.59576,15.887368 236.03342,12.56384 233.875,12.375 z M 207.6875,13.53125 C 207.56001,13.528754 207.41461,13.538985 207.28125,13.5625 C 205.1475,13.93874 204.90439,17.268126 205.46875,20.46875 C 206.829,28.183079 208.48126,32.052362 212.5,43.09375 C 212.5,31.343749 212.73524,27.151828 211.375,19.4375 C 210.84592,16.436911 209.59989,13.568695 207.6875,13.53125 z M 242.3125,13.53125 C 240.40012,13.568695 239.15409,16.436911 238.625,19.4375 C 237.26475,27.151828 237.5,31.34375 237.5,43.09375 C 241.51873,32.052361 243.17101,28.183078 244.53125,20.46875 C 245.0956,17.268127 244.8525,13.93874 242.71875,13.5625 C 242.58539,13.538985 242.43999,13.528754 242.3125,13.53125 z M 199,15.40625 C 198.87278,15.414875 198.72455,15.433702 198.59375,15.46875 C 196.50091,16.029526 196.53384,19.39199 197.375,22.53125 C 199.40241,30.09767 201.40924,33.819634 206.375,44.46875 C 205.35091,32.763464 205.21492,28.535166 203.1875,20.96875 C 202.39891,18.025693 200.90837,15.276878 199,15.40625 z M 251,15.40625 C 249.09162,15.276878 247.60109,18.025694 246.8125,20.96875 C 244.78508,28.535166 244.64908,32.763462 243.625,44.46875 C 248.59076,33.819636 250.59758,30.09767 252.625,22.53125 C 253.46617,19.39199 253.49909,16.029526 251.40625,15.46875 C 251.27545,15.433702 251.12723,15.414875 251,15.40625 z M 190.875,18.03125 C 190.62617,18.020491 190.3795,18.063619 190.125,18.15625 C 188.08901,18.897294 188.41968,22.227246 189.53125,25.28125 C 192.2104,32.642175 194.5,36.16795 200.375,46.34375 C 198.33464,34.772258 197.83541,30.579674 195.15625,23.21875 C 194.18363,20.546497 192.61681,18.106563 190.875,18.03125 z M 259.125,18.03125 C 257.38319,18.106563 255.81637,20.546497 254.84375,23.21875 C 252.1646,30.579675 251.66536,34.772258 249.625,46.34375 C 255.49999,36.16795 257.78959,32.642174 260.46875,25.28125 C 261.58031,22.227247 261.911,18.897294 259.875,18.15625 C 259.6205,18.06362 259.37383,18.020491 259.125,18.03125 z M 182.625,21.375 C 182.37618,21.385969 182.15171,21.448041 181.90625,21.5625 C 179.94258,22.478176 180.53274,25.77325 181.90625,28.71875 C 185.21676,35.818163 187.82298,39.124964 194.5625,48.75 C 191.52137,37.40037 190.65426,33.286912 187.34375,26.1875 C 186.14193,23.610188 184.36674,21.298219 182.625,21.375 z M 267.375,21.375 C 265.63326,21.298219 263.85807,23.610188 262.65625,26.1875 C 259.34573,33.286912 258.47862,37.400372 255.4375,48.75 C 262.17703,39.124962 264.78324,35.818162 268.09375,28.71875 C 269.46726,25.773251 270.05741,22.478176 268.09375,21.5625 C 267.84829,21.448041 267.62382,21.385969 267.375,21.375 z M 174.71875,25.40625 C 174.47183,25.438863 174.23455,25.520833 174,25.65625 C 172.12361,26.739581 173.03125,29.96667 174.65625,32.78125 C 178.57291,39.565119 181.44724,42.655226 189,51.65625 C 184.98126,40.614863 183.76042,36.565118 179.84375,29.78125 C 178.42187,27.318492 176.44717,25.177959 174.71875,25.40625 z M 274.90625,25.40625 C 273.27243,25.499197 271.47656,27.494404 270.15625,29.78125 C 266.23957,36.565118 265.01874,40.614862 261,51.65625 C 268.55274,42.655227 271.42708,39.565118 275.34375,32.78125 C 276.96876,29.966671 277.87639,26.739582 276,25.65625 C 275.64817,25.453125 275.28328,25.384801 274.90625,25.40625 z M 167.5625,30.09375 C 167.18503,30.105243 166.83278,30.204485 166.5,30.4375 C 164.72517,31.680247 165.91713,34.837756 167.78125,37.5 C 172.27427,43.916694 175.379,46.722746 183.6875,55.03125 C 178.72173,44.382133 177.18052,40.479188 172.6875,34.0625 C 171.1729,31.899428 169.19819,30.043948 167.5625,30.09375 z M 282.4375,30.09375 C 280.8018,30.043947 278.8271,31.899427 277.3125,34.0625 C 272.81947,40.479189 271.27826,44.382134 266.3125,55.03125 C 274.62101,46.722745 277.72574,43.916692 282.21875,37.5 C 284.08288,34.837758 285.27483,31.680248 283.5,30.4375 C 283.16722,30.204485 282.81497,30.105243 282.4375,30.09375 z M 160.46875,35.40625 C 160.09372,35.450598 159.74871,35.613867 159.4375,35.875 C 157.77773,37.267704 159.22344,40.291606 161.3125,42.78125 C 166.34766,48.781928 169.71773,51.290994 178.71875,58.84375 C 172.84374,48.667951 170.94142,44.906934 165.90625,38.90625 C 164.20889,36.883416 162.09388,35.214076 160.46875,35.40625 z M 289.15625,35.40625 C 287.59102,35.484963 285.66055,37.039017 284.09375,38.90625 C 279.05857,44.906936 277.15625,48.66795 271.28125,58.84375 C 280.28226,51.290995 283.65233,48.78193 288.6875,42.78125 C 290.77657,40.291604 292.22226,37.267704 290.5625,35.875 C 290.14756,35.526823 289.67799,35.380012 289.15625,35.40625 z M 154.25,41.28125 C 153.72796,41.300585 153.25802,41.491984 152.875,41.875 C 151.34294,43.407066 153.04565,46.29565 155.34375,48.59375 C 160.88274,54.132754 164.46871,56.354226 174.09375,63.09375 C 167.35422,53.468712 165.13275,49.882754 159.59375,44.34375 C 157.87018,42.620179 155.81613,41.223245 154.25,41.28125 z M 295.75,41.28125 C 294.18387,41.223245 292.12982,42.620178 290.40625,44.34375 C 284.86726,49.882755 282.64577,53.468714 275.90625,63.09375 C 285.53128,56.354224 289.11725,54.132754 294.65625,48.59375 C 296.95436,46.29565 298.65706,43.407064 297.125,41.875 C 296.74198,41.491984 296.27204,41.300585 295.75,41.28125 z M 148.59375,47.71875 C 147.90583,47.705357 147.31022,47.918824 146.875,48.4375 C 145.4823,50.097263 147.41661,52.81719 149.90625,54.90625 C 155.90693,59.941424 159.66795,61.84375 169.84375,67.71875 C 162.29099,58.717731 159.78193,55.347668 153.78125,50.3125 C 152.06962,48.876272 150.10717,47.748214 148.59375,47.71875 z M 301.40625,47.71875 C 299.89283,47.748214 297.93038,48.876271 296.21875,50.3125 C 290.21808,55.347669 287.70901,58.71773 280.15625,67.71875 C 290.33205,61.843751 294.09307,59.941422 300.09375,54.90625 C 302.58339,52.817192 304.51771,50.097264 303.125,48.4375 C 302.68978,47.918824 302.09417,47.705357 301.40625,47.71875 z M 143.09375,54.625 C 142.40728,54.671614 141.82586,54.945365 141.4375,55.5 C 140.19476,57.274827 142.40026,59.823376 145.0625,61.6875 C 151.47919,66.180516 155.38213,67.721736 166.03125,72.6875 C 157.72274,64.378993 154.91669,61.274262 148.5,56.78125 C 146.6697,55.499666 144.60397,54.522448 143.09375,54.625 z M 306.46875,54.625 C 305.01137,54.701673 303.1639,55.616173 301.5,56.78125 C 295.08331,61.274263 292.27725,64.378996 283.96875,72.6875 C 294.61786,67.721733 298.52081,66.180516 304.9375,61.6875 C 307.59974,59.823376 309.80525,57.274828 308.5625,55.5 C 308.09647,54.834438 307.34318,54.578996 306.46875,54.625 z M 138.65625,61.96875 C 137.78114,61.999133 137.0625,62.296355 136.65625,63 C 135.57292,64.876388 137.96667,67.21875 140.78125,68.84375 C 147.56512,72.760419 151.61486,73.981264 162.65625,78 C 153.65522,70.447244 150.56511,67.572918 143.78125,63.65625 C 142.02214,62.640625 140.11477,61.918112 138.65625,61.96875 z M 311.34375,61.96875 C 309.88523,61.918112 307.97786,62.640625 306.21875,63.65625 C 299.43488,67.572918 296.34477,70.447244 287.34375,78 C 298.38513,73.981264 302.43488,72.760418 309.21875,68.84375 C 312.03333,67.218751 314.42708,64.876388 313.34375,63 C 312.93751,62.296355 312.21886,61.999133 311.34375,61.96875 z M 135.375,69.65625 C 134.06793,69.575457 133.02034,69.924418 132.5625,70.90625 C 131.64682,72.869918 134.242,74.970242 137.1875,76.34375 C 144.28692,79.654259 148.40037,80.521376 159.75,83.5625 C 150.12497,76.822973 146.81816,74.216762 139.71875,70.90625 C 138.246,70.219494 136.68207,69.737043 135.375,69.65625 z M 314.625,69.65625 C 313.31793,69.737044 311.754,70.219496 310.28125,70.90625 C 303.18185,74.216759 299.87504,76.822976 290.25,83.5625 C 301.59962,80.521373 305.71309,79.654258 312.8125,76.34375 C 315.75801,74.970243 318.35317,72.869918 317.4375,70.90625 C 316.97966,69.924418 315.93207,69.575456 314.625,69.65625 z M 131.84375,77.625 C 130.53461,77.658432 129.52677,78.107 129.15625,79.125 C 128.41521,81.160999 131.16475,83.044682 134.21875,84.15625 C 141.57968,86.835404 145.77226,87.334636 157.34375,89.375 C 147.16795,83.499999 143.64217,81.210406 136.28125,78.53125 C 134.75425,77.975467 133.15289,77.591568 131.84375,77.625 z M 318.15625,77.625 C 316.84711,77.591568 315.24575,77.975466 313.71875,78.53125 C 306.35783,81.210409 302.83205,83.5 292.65625,89.375 C 304.22773,87.334635 308.42033,86.835406 315.78125,84.15625 C 318.83525,83.04468 321.58479,81.161 320.84375,79.125 C 320.47323,78.107 319.46539,77.658432 318.15625,77.625 z M 130.0625,85.84375 C 128.2639,85.811717 126.81924,86.285727 126.46875,87.59375 C 125.90798,89.68659 128.82949,91.346336 131.96875,92.1875 C 132.41473,92.307 132.82516,92.393093 133.25,92.5 L 149.3125,92.5 C 143.03797,89.562866 139.40459,87.948756 133.53125,86.375 C 132.35402,86.059564 131.14166,85.86297 130.0625,85.84375 z M 319.9375,85.84375 C 318.85834,85.86297 317.64597,86.059563 316.46875,86.375 C 310.59541,87.948758 306.96203,89.562867 300.6875,92.5 L 316.75,92.5 C 317.17484,92.393093 317.58527,92.307 318.03125,92.1875 C 321.1705,91.346339 324.09202,89.68659 323.53125,87.59375 C 323.18077,86.285728 321.7361,85.811717 319.9375,85.84375 z "
     style="fill:#ce1126;fill-opacity:1;fill-rule:evenodd;stroke:none;stroke-width:0.25pt;stroke-linecap:butt;stroke-linejoin:miter;stroke-opacity:1"
     id="path4904" />
</svg>
