<?xml version="1.0" encoding="UTF-8" standalone="no"?>
<svg xmlns:dc="http://purl.org/dc/elements/1.1/" xmlns:cc="http://web.resource.org/cc/" xmlns:rdf="http://www.w3.org/1999/02/22-rdf-syntax-ns#" xmlns:svg="http://www.w3.org/2000/svg" xmlns="http://www.w3.org/2000/svg" id="svg2" version="1.0" width="1000" height="600" viewBox="0 0 30 18">
  <defs id="defs4"/>
  <sodipodi:namedview id="base" pagecolor="#ffffff" bordercolor="#666666" borderopacity="1.0" gridtolerance="10000" guidetolerance="10" objecttolerance="10" width="30px" height="18px"/>
  
  <g id="layer1">
    <rect width="30" height="18" x="0" y="0" fill="white"/>
    <path d="M 0 0 L 0 1.15625 L 13.0625 9 L 0 16.84375 L 0 18 L 1.96875 18 L 15 10.15625 L 28.03125 18 L 30 18 L 30 16.84375 L 16.9375 9 L 30 1.15625 L 30 0 L 28.03125 0 L 15 7.84375 L 1.96875 0 L 0 0 z " opacity="1" fill="red" fill-opacity="1" fill-rule="evenodd" stroke="none" stroke-width="1.403" stroke-linecap="square" stroke-miterlimit="4" stroke-dasharray="none" stroke-opacity="1"/>
    <g id="Jersey badge" transform="matrix(4.072196e-2,0,0,4.072196e-2,12.94021,10.55291)">
      <path transform="matrix(3,0,0,3,-308.8556,-259.7129)" d="M 132.6,22.23 C 135.8,35.01 134.0,50.79 119.8,59.54 C 105.5,50.79 103.8,35.01 107.0,22.23 C 110.3,19.17 125.6,17.29 132.6,22.23 z " id="red shield" fill="#ff0016" stroke="black" stroke-width="0.125"/>
      <g transform="matrix(3,0,0,3,-308.8556,-259.7129)" fill="yellow" stroke="black" stroke-width="0.125">
        <path d="M 119.8,19.66 C 125.0,19.66 129.9,21.05 132.7,22.84 C 133.3,18.43 135.3,14.03 137.6,10.70 C 135.2,10.65 134.1,11.95 134.1,13.31 C 133.4,11.57 131.0,11.67 130.3,12.62 C 133.0,14.44 130.9,17.66 128.5,17.00 C 127.3,16.69 126.7,15.89 126.5,14.73 C 126.8,14.71 127.0,14.62 127.3,14.44 C 127.8,13.98 127.9,13.15 127.4,12.58 C 127.0,12.01 126.2,11.93 125.6,12.39 C 125.0,12.85 124.9,13.68 125.446,14.25 C 125.5,14.43 125.7,14.56 125.9,14.64 C 125.2,15.90 123.8,16.28 122.8,16.00 C 121.5,15.64 121.0,14.49 121.0,13.46 C 121.0,10.80 123.6,10.39 124.3,10.85 C 124.3,9.062 121.5,7.628 120.6,9.113 C 121.6,7.371 121.5,4.912 119.8,3.273 C 118.0,4.912 118.0,7.371 118.9,9.113 C 118.1,7.628 115.3,9.062 115.2,10.85 C 116.0,10.39 118.5,10.80 118.5,13.46 C 118.5,14.49 118.0,15.64 116.7,16.00 C 115.7,16.28 114.3,15.90 113.6,14.64 C 113.8,14.56 114.0,14.43 114.179,14.25 C 114.6,13.68 114.5,12.85 113.9,12.39 C 113.4,11.93 112.5,12.01 112.1,12.58 C 111.6,13.15 111.7,13.98 112.3,14.44 C 112.5,14.62 112.8,14.71 113.0,14.73 C 112.8,15.89 112.2,16.69 111.1,17.00 C 108.6,17.66 106.5,14.44 109.2,12.62 C 108.5,11.67 106.1,11.57 105.5,13.31 C 105.4,11.95 104.3,10.65 101.9,10.70 C 104.2,14.03 106.2,18.43 106.8,22.84 C 109.7,21.05 114.5,19.66 119.8,19.66 z " id="crown"/>
        <path d="M 130.6,32.19 C 130.3,32.27 130.3,32.68 130.1,32.68 C 130.9,32.65 131.3,32.43 131.6,32.01 C 131.4,32.18 131.6,32.50 131.5,32.57 C 132.1,32.36 132.4,31.85 132.2,31.50 C 132.3,31.70 132.7,31.80 132.8,31.82 C 132.4,31.49 132.7,30.74 132.0,30.35 C 132.3,30.33 132.7,30.59 132.8,30.89 C 132.7,30.21 132.6,29.77 132.0,29.40 C 132.1,29.47 132.4,29.53 132.6,29.40 C 132.2,29.17 132.1,28.80 132.1,28.56 C 132.2,28.22 131.9,28.15 131.5,28.26 C 131.1,28.35 130.3,28.41 129.8,28.41 C 128.7,28.41 127.8,28.41 126.9,27.81 C 128.2,28.35 129.9,27.20 129.9,26.26 C 129.9,25.21 128.6,24.35 126.0,24.92 C 123.4,25.49 120.2,25.25 120.2,24.38 C 120.2,23.51 122.5,23.39 123.6,23.57 C 124.8,23.75 125.7,23.87 127.9,23.09 C 127.3,23.30 125.6,23.36 124.2,22.97 C 122.8,22.58 119.4,22.58 119.4,24.41 C 119.3,26.24 123.0,26.08 126.1,25.61 C 128.0,25.34 128.9,25.52 128.9,26.12 C 128.9,26.69 127.3,26.93 126.0,26.78 C 124.7,26.63 123.3,26.66 121.8,27.11 C 120.5,27.49 119.6,27.11 118.2,27.35 C 117.5,27.47 115.9,27.35 115.1,26.00 C 114.6,26.36 113.0,27.12 112.8,27.85 C 112.4,28.53 112.7,29.20 113.2,29.86 C 113.8,30.70 112.9,30.57 112.2,30.60 C 111.3,30.64 110.1,30.51 109.5,29.80 C 109.0,29.18 108.2,28.68 107.7,29.14 C 107.4,29.38 107.6,29.69 107.9,29.61 C 108.1,29.52 108.4,29.69 108.6,29.80 C 108.2,29.63 107.8,29.77 107.6,29.92 C 107.4,30.13 107.7,30.54 108.0,30.39 C 108.2,30.28 108.7,30.21 109.0,30.48 C 108.6,30.42 108.3,30.43 108.1,30.61 C 108.0,30.78 108.1,31.04 108.4,31.02 C 109.0,30.99 109.1,31.39 109.7,31.31 C 109.4,31.35 109.2,31.53 109.1,31.67 C 109.6,31.43 110.2,32.08 110.9,31.92 C 110.6,32.03 110.224,32.3 110.2,32.50 C 110.6,32.03 113.3,32.86 113.4,31.83 C 113.4,32.04 113.4,32.36 113.2,32.63 C 113.6,32.42 114.7,32.34 115.0,31.53 C 115.1,31.77 115.0,32.09 114.8,32.16 C 115.2,32.28 115.6,32.01 116.1,31.29 C 116.3,31.01 116.4,30.82 116.3,30.60 C 116.8,30.62 117.2,30.50 117.5,30.18 C 117.9,29.85 118.4,30.45 119.0,30.03 C 119.7,29.61 120.2,29.97 120.6,29.76 C 121.0,29.55 121.5,29.83 121.9,29.59 C 122.2,29.35 122.9,29.71 123.5,29.20 C 124.5,29.57 125.756,30.27 128.6,29.73 C 130.3,29.42 130.8,29.99 130.8,30.75 C 130.8,31.28 130.5,31.32 130.3,31.34 C 129.394,31.4 128.9,30.99 128.6,31.12 C 128.3,31.21 128.2,31.61 128.588,31.75 C 128.294,31.9 128.3,32.18 128.4,32.28 C 128.6,32.38 129.0,32.29 129.2,32.17 C 128.9,32.32 128.594,32.6 128.7,32.88 C 128.9,33.06 129.2,33.20 129.5,32.83 C 129.7,32.46 130.319,32.15 130.6,32.19 z " id="top leopard body"/>
        <path d="M 112.1,24.26 C 111.3,23.91 111.0,23.90 111.2,24.59 C 111.2,24.88 111.4,25.30 111.7,25.4886 C 111.7,25.20 111.8,24.41 112.1,24.26 z " id="top leopard left ear"/>
        <path d="M 114.7,24.26 C 115.6,23.91 115.9,23.9085 115.7,24.59 C 115.6,24.88 115.4,25.30 115.2,25.48 C 115.2,25.20 115.1,24.41 114.7,24.26 z " id="top leopard right ear"/>
        <path d="M 113.4,23.80 C 115.0,23.80 115.2,24.54 115.2,25.48 C 115.2,26.48 114.6,26.14 114.3,27.43 C 114.2,27.94 113.8,27.96 113.4,27.96 C 113.0,27.96 112.6,27.94 112.5,27.43 C 112.2,26.14 111.6,26.48 111.6,25.48 C 111.6,24.54 111.8,23.80 113.4,23.80 z " id="top leopard head"/>
        <path d="M 109.3,27.49 C 108.9,27.25 108.6,27.42 108.5,27.46 C 109.0,27.60 109.0,28.27 110.2,28.59 C 110.0,28.51 109.8,28.66 109.5,28.53 C 110.0,28.92 110.6,29.37 111.8,29.38 C 112.4,29.39 112.0,29.73 111.5,29.53 C 112.0,29.99 112.9,29.62 113.4,30.45 C 113.5,29.80 112.4,28.78 112.9,28.05 C 111.3,27.98 111.2,27.08 110.2,26.36 C 109.5,25.78 109.4,25.19 109.1,24.08 C 108.9,23.58 108.3,23.27 108.0,23.39 C 107.7,23.49 107.6,23.74 107.8,23.92 C 108.1,24.11 108.4,24.13 108.5,24.60 C 108.2,24.22 107.7,24.08 107.5,24.32 C 107.3,24.46 107.4,24.80 107.7,24.83 C 108.2,24.88 107.8,25.36 108.4,25.82 C 107.9,25.27 107.4,25.22 107.2,25.52 C 107.0,25.70 107.2,26.02 107.5,25.99 C 108.0,25.94 108.6,27.18 109.3,27.49 z " id="top leopard arm"/>
        <path d="M 122.4,32.13 C 122.1,32.18 122.2,32.60 121.9,32.63 C 122.7,32.63 123.153,32.44 123.5,32.12 C 123.3,32.22 123.2,32.50 123.2,32.65 C 123.7,32.27 124.7,32.24 125.2,32.34 C 125.8,32.45 125.9,32.19 126.1,31.85 C 126.3,31.50 126.0,31.31 125.7,31.04 C 125.4,30.77 125.4,30.39 125.4,29.76 C 124.0,27.84 121.4,28.77 121.4,29.61 C 122.3,30.69 122.4,30.57 123.2,30.72 C 124.0,30.87 124.5,30.87 124.0,31.31 C 123.8,31.46 123.0,31.39 122.4,31.41 C 121.1,31.47 120.5,30.51 120.1,31.01 C 119.8,31.42 120.2,31.60 120.8,31.58 C 120.4,31.58 119.8,31.56 119.9,31.98 C 120.0,32.68 120.756,31.85 121.0,32.14 C 120.7,32.08 120.4,32.22 120.4,32.43 C 120.4,32.65 120.9,32.92 121.4,32.47 C 121.8,32.23 122.1,32.14 122.4,32.13 z " id="top leopard leg"/>
        <path d="M 129.2,42.72 C 128.9,42.78 128.9,43.15 128.8,43.15 C 129.5,43.13 129.9,42.93 130.1,42.55 C 129.9,42.70 130.1,42.99 130.0,43.05 C 130.5,42.87 130.8,42.41 130.6,42.09 C 130.7,42.27 131.1,42.36 131.2,42.38 C 130.8,42.08 131.1,41.40 130.5,41.05 C 130.7,41.04 131.1,41.27 131.2,41.54 C 131.1,40.93 131.0,40.54 130.5,40.20 C 130.5,40.26 130.8,40.32 130.9,40.20 C 130.6,40.00 130.5,39.66 130.6,39.44 C 130.6,39.14 130.4,39.08 130.0,39.17 C 129.7,39.26 128.9,39.31 128.4,39.31 C 127.5,39.31 126.7,39.31 125.9,38.77 C 127.1,39.25 128.6,38.23 128.6,37.37 C 128.6,36.43 127.4,35.66 125.0,36.17 C 122.7,36.68 119.8,36.47 119.8,35.68 C 119.8,34.90 121.9,34.79 122.9,34.95 C 124.0,35.11 124.7,35.22 126.7,34.52 C 126.2,34.71 124.7,34.76 123.4,34.41 C 122.2,34.06 119.1,34.06 119.1,35.71 C 119.1,37.36 122.3,37.21 125.2,36.79 C 126.8,36.55 127.7,36.71 127.7,37.25 C 127.7,37.77 126.2,37.98 125.0,37.85 C 123.8,37.71 122.7,37.74 121.3,38.14 C 120.1,38.48 119.3,38.14 118.1,38.36 C 117.4,38.47 115.9,38.36 115.2,37.14 C 114.8,37.47 113.4,38.15 113.2,38.81 C 112.8,39.42 113.1,40.02 113.5,40.62 C 114.0,41.37 113.2,41.26 112.6,41.28 C 111.8,41.32 110.8,41.20 110.2,40.57 C 109.7,40.01 109.1,39.56 108.5,39.97 C 108.3,40.19 108.5,40.47 108.7,40.39 C 109.0,40.31 109.2,40.47 109.4,40.57 C 109.1,40.41 108.7,40.53 108.5,40.67 C 108.3,40.86 108.6,41.23 108.8,41.10 C 109.0,41.00 109.4,40.93 109.7,41.18 C 109.4,41.12 109.1,41.13 109.0,41.29 C 108.8,41.44 108.9,41.67 109.2,41.66 C 109.8,41.64 109.9,41.99 110.4,41.92 C 110.1,41.96 109.9,42.12 109.8,42.24 C 110.3,42.03 110.8,42.61 111.4,42.47 C 111.2,42.57 110.8,42.81 110.8,42.99 C 111.2,42.57 113.6,43.31 113.7,42.39 C 113.7,42.58 113.7,42.87 113.5,43.11 C 113.9,42.92 114.9,42.85 115.2,42.12 C 115.2,42.34 115.2,42.62 115.0,42.69 C 115.3,42.80 115.7,42.55 116.2,41.90 C 116.3,41.65 116.4,41.48 116.3,41.28 C 116.8,41.30 117.1,41.19 117.4,40.90 C 117.8,40.61 118.2,41.15 118.8,40.77 C 119.4,40.39 119.9,40.71 120.2,40.53 C 120.5,40.34 121.0,40.59 121.3,40.38 C 121.7,40.16 122.2,40.48 122.8,40.02 C 123.7,40.36 124.8,40.98 127.4,40.50 C 128.9,40.22 129.4,40.73 129.4,41.42 C 129.4,41.89 129.1,41.93 128.9,41.95 C 128.1,42.00 127.7,41.63 127.4,41.75 C 127.1,41.83 127.0,42.19 127.3,42.31 C 127.1,42.45 127.1,42.70 127.2,42.79 C 127.4,42.89 127.7,42.80 128.0,42.69 C 127.7,42.83 127.3,43.08 127.5,43.34 C 127.6,43.49 127.9,43.63 128.2,43.29 C 128.4,42.95 128.9,42.67 129.2,42.72 z " id="middle leopard body"/>
        <path d="M 112.5,35.57 C 111.8,35.26 111.5,35.25 111.7,35.87 C 111.8,36.14 112,36.5126 112.1,36.68 C 112.1,36.42 112.2,35.71 112.5,35.57 z " id="middle leopard left ear"/>
        <path d="M 114.9,35.57 C 115.7,35.26 115.9,35.25 115.7,35.87 C 115.7,36.14 115.5,36.51 115.3,36.68 C 115.3,36.42 115.2,35.71 114.9,35.57 z " id="middle leopard right ear"/>
        <path d="M 113.7,35.16 C 115.2,35.16 115.3,35.83 115.3,36.67 C 115.3,37.58 114.8,37.27 114.6,38.43 C 114.4,38.88 114.1,38.91 113.7,38.91 C 113.4,38.91 113.0,38.88 112.9,38.43 C 112.6,37.27 112.1,37.58 112.1,36.67 C 112.1,35.83 112.3,35.16 113.7,35.16 z " id="middle leopard head"/>
        <path d="M 110.0,38.48 C 109.7,38.27 109.4,38.42 109.3,38.46 C 109.7,38.58 109.8,39.19 110.8,39.47 C 110.6,39.40 110.5,39.54 110.2,39.42 C 110.7,39.77 111.2,40.17 112.2,40.19 C 112.8,40.19 112.4,40.50 112.0,40.32 C 112.4,40.73 113.2,40.40 113.7,41.15 C 113.8,40.57 112.8,39.65 113.3,38.98 C 111.8,38.92 111.7,38.11 110.8,37.47 C 110.2,36.94 110.1,36.41 109.8,35.42 C 109.7,34.97 109.1,34.68 108.8,34.79 C 108.6,34.88 108.5,35.11 108.7,35.27 C 108.9,35.44 109.2,35.46 109.3,35.88 C 109.0,35.54 108.6,35.42 108.4,35.63 C 108.2,35.76 108.3,36.06 108.5,36.09 C 109.0,36.14 108.7,36.56 109.2,36.98 C 108.7,36.48 108.3,36.44 108.1,36.71 C 108.0,36.87 108.1,37.16 108.4,37.13 C 108.9,37.08 109.4,38.20 110.0,38.48 z " id="middle leopard arm"/>
        <path d="M 121.8,42.66 C 121.6,42.70 121.6,43.08 121.3,43.11 C 122.1,43.11 122.4,42.93 122.8,42.65 C 122.6,42.74 122.6,42.99 122.5,43.12 C 122.9,42.78 123.9,42.76 124.4,42.85 C 124.8,42.95 124.9,42.72 125.1,42.41 C 125.3,42.09 125.0,41.92 124.8,41.67 C 124.6,41.43 124.5,41.09 124.6,40.53 C 123.3,38.79 120.9,39.63 120.9,40.39 C 121.7,41.36 121.8,41.26 122.5,41.39 C 123.3,41.53 123.7,41.53 123.2,41.92 C 123.0,42.05 122.4,41.99 121.8,42.01 C 120.7,42.06 120.1,41.20 119.8,41.65 C 119.5,42.02 119.8,42.18 120.4,42.16 C 120.0,42.16 119.4,42.14 119.5,42.52 C 119.7,43.16 120.3,42.40 120.5,42.66 C 120.3,42.62 120.0,42.74 120.0,42.93 C 120.0,43.12 120.4,43.37 120.9,42.97 C 121.2,42.75 121.6,42.66 121.8,42.66 z " id="middle leopard leg"/>
        <path d="M 126.7,51.57 C 126.5,51.62 126.5,51.92 126.4,51.92 C 127.0,51.90 127.2,51.74 127.4,51.44 C 127.3,51.56 127.4,51.79 127.3,51.84 C 127.7,51.69 127.9,51.32 127.8,51.06 C 127.9,51.21 128.1,51.28 128.2,51.29 C 127.9,51.05 128.1,50.50 127.7,50.22 C 127.8,50.21 128.1,50.39 128.2,50.61 C 128.1,50.12 128.1,49.80 127.7,49.53 C 127.7,49.57 128,49.6237 128.0,49.53 C 127.8,49.36 127.7,49.09 127.8,48.9152 C 127.8,48.66 127.6,48.61 127.3,48.69 C 127.1,48.76 126.5,48.80 126.2,48.80 C 125.5,48.80 124.9,48.80 124.3,48.36 C 125.2,48.76 126.3,47.92 126.3,47.23 C 126.3,46.46 125.4,45.83 123.7,46.25 C 121.9,46.67 119.8,46.49 119.8,45.86 C 119.8,45.22 121.3,45.13 122.1,45.26 C 122.9,45.40 123.4,45.48 124.9,44.91 C 124.5,45.07 123.4,45.11 122.5,44.82 C 121.5,44.54 119.3,44.54 119.3,45.88 C 119.2,47.22 121.7,47.10 123.8,46.76 C 125.0,46.56 125.6,46.69 125.6,47.13 C 125.6,47.55 124.5,47.72 123.6,47.61 C 122.8,47.50 121.9,47.53 120.9,47.86 C 120.0,48.13 119.4,47.86 118.5,48.03 C 118.0,48.12 116.9,48.03 116.4,47.04 C 116.1,47.31 115.1,47.8635 114.9,48.40 C 114.6,48.89 114.8,49.38 115.1,49.87 C 115.5,50.47 114.9,50.38 114.5,50.40 C 113.9,50.43 113.1,50.34 112.7,49.82 C 112.3,49.37 111.8,49.00 111.5,49.34 C 111.3,49.51 111.5,49.74 111.6,49.68 C 111.8,49.61 112,49.7465 112.1,49.82 C 111.9,49.7009 111.6,49.79 111.4,49.91 C 111.3,50.06 111.5,50.36 111.7,50.25 C 111.8,50.17 112.1,50.12 112.3,50.32 C 112.1,50.27 111.9,50.28 111.8,50.41 C 111.7,50.54 111.8,50.72 112.0,50.71 C 112.4,50.69 112.5,50.98 112.8,50.92 C 112.6,50.95 112.518,51.09 112.4,51.18 C 112.8,51.01 113.1,51.48 113.6,51.37 C 113.4,51.45 113.1,51.64 113.1,51.79 C 113.4,51.45 115.2,52.05 115.3,51.30 C 115.3,51.46 115.3,51.69 115.2,51.89 C 115.4,51.73 116.1,51.68 116.421,51.09 C 116.4,51.26 116.4,51.49 116.2,51.55 C 116.5,51.63 116.8,51.44 117.1,50.91 C 117.2,50.70 117.3,50.56 117.2,50.40 C 117.6,50.42 117.8,50.33 118.0,50.10 C 118.3,49.85 118.6,50.29 119.0,49.99 C 119.5,49.68 119.8,49.94 120.1,49.79 C 120.3,49.64 120.7,49.84 120.9,49.67 C 121.2,49.49 121.6,49.75 122.0,49.38 C 122.7,49.65 123.5,50.16 125.4,49.77 C 126.5,49.54 126.9,49.95 126.9,50.51 C 126.9,50.90 126.7,50.93 126.5,50.94 C 125.9,50.98 125.6,50.69 125.4,50.78 C 125.2,50.85 125.1,51.14 125.4,51.24 C 125.2,51.35 125.2,51.55 125.3,51.63 C 125.4,51.71 125.7,51.64 125.8,51.55 C 125.6,51.66 125.4,51.86 125.5,52.07 C 125.6,52.20 125.8,52.31 126.0,52.03 C 126.2,51.76 126.5,51.53 126.7,51.57 z " id="bottom leopard body"/>
        <path d="M 114.4,45.77 C 113.9,45.52 113.7,45.51 113.8,46.01 C 113.8,46.22 114.0,46.53 114.1,46.66 C 114.1,46.46 114.2,45.88 114.4,45.77 z " id="bottom leopard left ear"/>
        <path d="M 116.2,45.77 C 116.7,45.52 116.9,45.51 116.8,46.01 C 116.7,46.22 116.6,46.53 116.5,46.66 C 116.5,46.46 116.4,45.88 116.2,45.77 z " id="bottom leopard right ear"/>
        <path d="M 115.3,45.43 C 116.4,45.43 116.5,45.98 116.5,46.66 C 116.5,47.39 116.1,47.14 115.9,48.09 C 115.8,48.46 115.6,48.48 115.3,48.48 C 115.0,48.48 114.8,48.46 114.7,48.09 C 114.5,47.14 114.1,47.39 114.1,46.66 C 114.1,45.98 114.2,45.43 115.3,45.43 z " id="bottom leopard head"/>
        <path d="M 112.6,48.13 C 112.3,47.95 112.1,48.08 112.0,48.11 C 112.4,48.21 112.4,48.70 113.2,48.93 C 113.0,48.88 112.9,48.99 112.7,48.89 C 113.0,49.17 113.4,49.50 114.2,49.51 C 114.6,49.52 114.3,49.77 114.0,49.62 C 114.3,49.96 114.9,49.68 115.3,50.29 C 115.4,49.82 114.66,49.08 115.0,48.54 C 113.9,48.49 113.8,47.83 113.2,47.31 C 112.7,46.88 112.6,46.45 112.4,45.64 C 112.3,45.27 111.9,45.05 111.7,45.13 C 111.5,45.21 111.4,45.39 111.6,45.52 C 111.8,45.6631 112.0,45.68 112.0,46.02 C 111.8,45.74 111.5,45.64 111.3,45.81 C 111.2,45.92 111.3,46.17 111.5,46.19 C 111.8,46.22 111.6,46.57 111.9,46.91 C 111.6,46.51 111.3,46.47 111.1,46.69 C 111.0,46.82 111.1,47.06 111.4,47.03 C 111.7,46.99 112.1,47.90 112.6,48.13 z " id="bottom leopard arm"/>
        <path d="M 121.3,51.52 C 121.1,51.56 121.1,51.86 120.9,51.89 C 121.5,51.89 121.7,51.74 122.0,51.51 C 121.9,51.59 121.8,51.79 121.8,51.90 C 122.1,51.62 122.8,51.60 123.2,51.68 C 123.577,51.76 123.6,51.57 123.7,51.32 C 123.8,51.06 123.7,50.92 123.5,50.72 C 123.3,50.52 123.3,50.25 123.3,49.79 C 122.3,48.38 120.6,49.06 120.6,49.68 C 121.2,50.47 121.3,50.38 121.8,50.49 C 122.3,50.60 122.7,50.60 122.3,50.92 C 122.2,51.03 121.7,50.98 121.3,51.00 C 120.4,51.04 120.0,50.34 119.8,50.70 C 119.6,51.00 119.8,51.13 120.2,51.12 C 119.9,51.12 119.5,51.10 119.6,51.41 C 119.7,51.92 120.1,51.31 120.3,51.53 C 120.2,51.49 119.9,51.59 119.9,51.74 C 119.9,51.90 120.3,52.10 120.6,51.77 C 120.8,51.59 121.1,51.53 121.3,51.52 z " id="bottom leopard leg"/>
      </g>
      <g transform="matrix(3,0,0,3,-308.8556,-259.7129)">
        <path d="M 123.5,29.20 C 123.0,29.03 122.6,28.92 122.1,29.04" fill="none" stroke="black" stroke-width="0.125"/>
        <path d="M 116.4,28.98 C 116.0,29.81 116.3,30.22 116.3,30.60" fill="none" stroke="black" stroke-width="0.125"/>
      </g>
      <g transform="matrix(3,0,0,3,-308.8556,-259.7129)">
        <path d="M 112.3,25.05 C 112.6,25.18 112.7,24.80 113.1,25.20 C 113.0,25.09 112.9,25.51 112.6,25.23" fill="none" stroke="black" stroke-width="0.125"/>
        <path d="M 114.5,25.05 C 114.2,25.18 114.1,24.80 113.7,25.20 C 113.8,25.09 113.9,25.51 114.2,25.23" fill="none" stroke="black" stroke-width="0.125"/>
        <path d="M 113.7,25.20 C 113.6,25.28 113.6,25.14 113.6,25.50 C 113.8,26.15 113.9,26.45 113.4,26.45 C 112.9,26.45 113.0,26.15 113.2,25.50 C 113.2,25.14 113.2,25.28 113.1,25.20" fill="none" stroke="black" stroke-width="0.125"/>
      </g>
      <path transform="matrix(3,0,0,3,-308.8556,-259.7129)" d="M 113.4,27.70 C 113.8,27.70 114.1,27.69 114.0,27.09 C 114.0,26.85 114.3,26.75 114.2,26.36 C 114.3,26.84 113.4,26.80 113.4,26.58 C 113.4,26.80 112.5,26.84 112.6,26.36 C 112.5,26.75 112.8,26.85 112.8,27.09 C 112.7,27.69 113.0,27.70 113.4,27.70 z " fill="#ff0016" stroke="black" stroke-width="0.062"/>
      <g transform="matrix(3,0,0,3,-308.8556,-259.7129)">
        <path d="M 113.0,26.48 L 112.0,26.20" fill="none" stroke="black" stroke-width="0.062"/>
        <path d="M 113.0,26.54 L 111.9,26.53" fill="none" stroke="black" stroke-width="0.062"/>
        <path d="M 113.0,26.60 L 112.1,26.86" fill="none" stroke="black" stroke-width="0.062"/>
        <path d="M 113.8,26.48 L 114.8,26.20" fill="none" stroke="black" stroke-width="0.062"/>
        <path d="M 113.8,26.54 L 114.9,26.53" fill="none" stroke="black" stroke-width="0.062"/>
        <path d="M 113.8,26.60 L 114.8,26.86" fill="none" stroke="black" stroke-width="0.062"/>
      </g>
      <g transform="matrix(3,0,0,3,-308.8556,-259.7129)">
        <path d="M 122.8,40.02 C 122.4,39.87 122.0,39.77 121.5,39.88" fill="none" stroke="black" stroke-width="0.125"/>
        <path d="M 116.4,39.82 C 116.1,40.57 116.3,40.94 116.3,41.28" fill="none" stroke="black" stroke-width="0.125"/>
      </g>
      <g transform="matrix(3,0,0,3,-308.8556,-259.7129)">
        <path d="M 112.7,36.28 C 113.0,36.40 113.1,36.07 113.5,36.42 C 113.4,36.32 113.2,36.70 113.0,36.45" fill="none" stroke="black" stroke-width="0.125"/>
        <path d="M 114.7,36.28 C 114.4,36.40 114.3,36.07 114.0,36.42 C 114.1,36.32 114.2,36.70 114.4,36.45" fill="none" stroke="black" stroke-width="0.125"/>
        <path d="M 114.0,36.42 C 113.9,36.49 113.9,36.37 113.9,36.69 C 114.0,37.27 114.2,37.55 113.7,37.55 C 113.2,37.55 113.4,37.27 113.5,36.69 C 113.5,36.37 113.5,36.49 113.5,36.42" fill="none" stroke="black" stroke-width="0.125"/>
      </g>
      <path transform="matrix(3,0,0,3,-308.8556,-259.7129)" d="M 113.7,38.67 C 114.1,38.67 114.3,38.67 114.3,38.12 C 114.2,37.91 114.5,37.82 114.4,37.47 C 114.5,37.90 113.7,37.86 113.7,37.66 C 113.7,37.86 112.9,37.90 113.0,37.47 C 112.9,37.82 113.2,37.91 113.2,38.12 C 113.1,38.67 113.3,38.67 113.7,38.67 z " fill="#ff0016" stroke="black" stroke-width="0.062"/>
      <g transform="matrix(3,0,0,3,-308.8556,-259.7129)">
        <path d="M 113.4,37.58 L 112.4,37.32" fill="none" stroke="black" stroke-width="0.062"/>
        <path d="M 113.4,37.63 L 112.3,37.62" fill="none" stroke="black" stroke-width="0.062"/>
        <path d="M 113.4,37.68 L 112.5,37.91" fill="none" stroke="black" stroke-width="0.062"/>
        <path d="M 114.1,37.58 L 115.0,37.32" fill="none" stroke="black" stroke-width="0.062"/>
        <path d="M 114.1,37.63 L 115.1,37.62" fill="none" stroke="black" stroke-width="0.062"/>
        <path d="M 114.1,37.68 L 114.9,37.91" fill="none" stroke="black" stroke-width="0.062"/>
      </g>
      <g transform="matrix(3,0,0,3,-308.8556,-259.7129)">
        <path d="M 122.0,49.38 C 121.7,49.26 121.4,49.18 121.0,49.26" fill="none" stroke="black" stroke-width="0.125"/>
        <path d="M 117.3,49.22 C 117.0,49.82 117.2,50.12 117.2,50.40" fill="none" stroke="black" stroke-width="0.125"/>
      </g>
      <g transform="matrix(3,0,0,3,-308.8556,-259.7129)">
        <path d="M 114.6,46.34 C 114.7,46.44 114.8,46.17 115.1,46.46 C 115.0,46.37 114.9,46.68 114.7,46.48" fill="none" stroke="black" stroke-width="0.125"/>
        <path d="M 116.0,46.34 C 115.8,46.44 115.7,46.17 115.5,46.46 C 115.5,46.37 115.6,46.68 115.8,46.48" fill="none" stroke="black" stroke-width="0.125"/>
        <path d="M 115.5,46.46 C 115.4,46.51 115.4,46.41 115.5,46.6788 C 115.5,47.15 115.6,47.37 115.3,47.37 C 114.9,47.37 115.0,47.15 115.1,46.67 C 115.2,46.41 115.2,46.51 115.1,46.46" fill="none" stroke="black" stroke-width="0.125"/>
      </g>
      <path transform="matrix(3,0,0,3,-308.8556,-259.7129)" d="M 115.3,48.28 C 115.6,48.28 115.7,48.28 115.7,47.84 C 115.7,47.66 115.9,47.59 115.8,47.31 C 115.9,47.66 115.3,47.62 115.3,47.47 C 115.3,47.62 114.7,47.66 114.8,47.31 C 114.7,47.59 114.9,47.66 114.9,47.84 C 114.8,48.28 115.0,48.28 115.3,48.28 z " fill="#ff0016" stroke="black" stroke-width="0.062"/>
      <g transform="matrix(3,0,0,3,-308.8556,-259.7129)">
        <path d="M 115.0,47.40 L 114.3,47.19" fill="none" stroke="black" stroke-width="0.062"/>
        <path d="M 115.0,47.43 L 114.3,47.43" fill="none" stroke="black" stroke-width="0.062"/>
        <path d="M 115.0,47.48 L 114.4,47.67" fill="none" stroke="black" stroke-width="0.062"/>
        <path d="M 115.5,47.40 L 116.2,47.19" fill="none" stroke="black" stroke-width="0.062"/>
        <path d="M 115.5,47.43 L 116.3,47.43" fill="none" stroke="black" stroke-width="0.062"/>
        <path d="M 115.5,47.48 L 116.2,47.67" fill="none" stroke="black" stroke-width="0.062"/>
      </g>
      <g transform="matrix(3,0,0,3,-308.8556,-259.7129)" id="blue claws and tongues" fill="#0070ff" stroke="black" stroke-width="0.013">
        <g id="top claws and tongue">
          <path d="M 108.1,23.41 C 107.8,23.04 107.0,23.35 107.0,23.81 C 107.3,23.51 107.7,23.94 107.9,23.85 C 108.1,23.79 108.2,23.56 108.1,23.41 z "/>
          <path d="M 107.7,24.29 C 107.4,23.92 106.6,24.23 106.6,24.69 C 106.9,24.39 107.3,24.83 107.5,24.74 C 107.7,24.67 107.8,24.44 107.7,24.29 z "/>
          <path d="M 107.5,25.47 C 107.2,25.14 106.5,25.53 106.5,25.99 C 106.7,25.67 107.2,26.05 107.4,25.94 C 107.5,25.86 107.6,25.61 107.5,25.47 z "/>
          <path d="M 107.9,29.14 C 107.5,28.85 106.8,29.32 106.9,29.78 C 107.1,29.43 107.6,29.75 107.8,29.62 C 107.9,29.52 108.0,29.26 107.9,29.14 z "/>
          <path d="M 107.8,29.95 C 107.4,29.78 106.9,30.44 107.1,30.84 C 107.2,30.45 107.8,30.61 107.9,30.42 C 108.0,30.28 108.0,30.01 107.8,29.95 z "/>
          <path d="M 108.4,30.55 C 108.0,30.38 107.5,31.04 107.7,31.44 C 107.8,31.05 108.3,31.21 108.5,31.02 C 108.6,30.88 108.6,30.61 108.4,30.55 z "/>
          <path d="M 120.2,31.71 C 119.7,31.54 119.2,32.20 119.4,32.60 C 119.562,32.22 120.1,32.37 120.2,32.18 C 120.3,32.04 120.3,31.78 120.2,31.71 z "/>
          <path d="M 120.8,32.25 C 120.3,32.14 119.9,32.84 120.2,33.22 C 120.2,32.83 120.8,32.92 120.9,32.71 C 121.0,32.57 120.9,32.30 120.8,32.25 z "/>
          <path d="M 120.3,30.94 C 119.9,30.70 119.3,31.26 119.5,31.70 C 119.6,31.33 120.2,31.58 120.3,31.41 C 120.5,31.30 120.5,31.03 120.3,30.94 z "/>
          <path d="M 128.7,31.88 C 128.2,31.76 127.8,32.47 128.1,32.85 C 128.1,32.45 128.744,32.55 128.8,32.34 C 128.9,32.19 128.9,31.92 128.7,31.88 z "/>
          <path d="M 128.7,31.14 C 128.3,30.92 127.7,31.50 127.9,31.93 C 128.0,31.56 128.5,31.79 128.7,31.62 C 128.8,31.50 128.9,31.23 128.7,31.14 z "/>
          <path d="M 129.0,32.54 C 128.6,32.44 128.2,33.17 128.5,33.53 C 128.5,33.14 129.1,33.20 129.2,32.99 C 129.3,32.84 129.2,32.57 129.0,32.54 z "/>
          <path d="M 113.4,27.34 C 113.7,27.34 113.9,27.43 113.9,27.96 C 113.9,29.08 113.8,29.57 113.5,29.57 C 113.1,29.57 113.1,29.11 113.1,28.28 C 113.1,27.85 113.1,27.63 113.1,27.67 C 113.1,27.39 113.2,27.34 113.4,27.34 z "/>
        </g>
        <g>
          <path d="M 108.9,34.81 C 108.7,34.47 108.0,34.76 108.0,35.17 C 108.2,34.90 108.6,35.29 108.8,35.21 C 108.9,35.15 109.0,34.95 108.9,34.81 z "/>
          <path d="M 108.6,35.60 C 108.3,35.27 107.6,35.55 107.6,35.97 C 107.8,35.70 108.2,36.08 108.4,36.00 C 108.6,35.95 108.7,35.74 108.6,35.60 z "/>
          <path d="M 108.4,36.67 C 108.1,36.37 107.5,36.72 107.5,37.14 C 107.7,36.84 108.1,37.19 108.3,37.08 C 108.4,37.01 108.5,36.79 108.4,36.67 z "/>
          <path d="M 108.7,39.97 C 108.4,39.70 107.8,40.13 107.9,40.54 C 108.0,40.23 108.5,40.52 108.7,40.40 C 108.8,40.31 108.9,40.08 108.7,39.97 z "/>
          <path d="M 108.7,40.69 C 108.3,40.54 107.9,41.13 108.1,41.50 C 108.1,41.15 108.6,41.29 108.8,41.12 C 108.9,40.99 108.9,40.75 108.7,40.69 z "/>
          <path d="M 109.2,41.23 C 108.8,41.08 108.4,41.67 108.6,42.04 C 108.6,41.69 109.2,41.83 109.3,41.66 C 109.4,41.53 109.4,41.29 109.2,41.23 z "/>
          <path d="M 119.8,42.28 C 119.4,42.13 118.9,42.72 119.2,43.08 C 119.2,42.73 119.7,42.88 119.9,42.70 C 120,42.5861 119.9,42.34 119.8,42.28 z "/>
          <path d="M 120.3,42.77 C 119.9,42.67 119.5,43.30 119.8,43.64 C 119.8,43.29 120.3,43.37 120.5,43.1858 C 120.5,43.05 120.5,42.81 120.3,42.77 z "/>
          <path d="M 119.9,41.59 C 119.6,41.37 119.0,41.88 119.2,42.27 C 119.3,41.94 119.8,42.16 119.9,42.01 C 120.1,41.91 120.1,41.67 119.9,41.59 z "/>
          <path d="M 127.5,42.43 C 127.0,42.33 126.7,42.96 126.9,43.30 C 126.9,42.95 127.5,43.03 127.6,42.84 C 127.7,42.71 127.6,42.47 127.5,42.43 z "/>
          <path d="M 127.5,41.77 C 127.1,41.57 126.6,42.09 126.7,42.48 C 126.8,42.14 127.3,42.35 127.5,42.20 C 127.6,42.09 127.6,41.85 127.5,41.77 z "/>
          <path d="M 127.8,43.02 C 127.3,42.94 127.0,43.59 127.3,43.92 C 127.3,43.57 127.8,43.62 127.9,43.43 C 128.0,43.30 127.9,43.06 127.8,43.02 z "/>
          <path d="M 113.7,38.35 C 114.0,38.35 114.1,38.42 114.1,38.90 C 114.1,39.92 114.1,40.35 113.8,40.35 C 113.5,40.35 113.5,39.94 113.5,39.19 C 113.5,38.81 113.5,38.61 113.4,38.64 C 113.4,38.39 113.5,38.35 113.7,38.35 z "/>
        </g>
        <g>
          <path d="M 111.7,45.15 C 111.5,44.88 111.0,45.11 111.0,45.44 C 111.2,45.22 111.5,45.54 111.6,45.47 C 111.7,45.43 111.8,45.26 111.7,45.15 z "/>
          <path d="M 111.5,45.79 C 111.3,45.52 110.8,45.75 110.8,46.09 C 110.9,45.87 111.2,46.18 111.4,46.12 C 111.5,46.07 111.6,45.90 111.5,45.79 z "/>
          <path d="M 111.4,46.66 C 111.1,46.41 110.7,46.70 110.7,47.04 C 110.8,46.80 111.1,47.08 111.3,46.99 C 111.4,46.94 111.4,46.76 111.4,46.66 z "/>
          <path d="M 111.6,49.34 C 111.3,49.12 110.9,49.47 111.0,49.80 C 111.1,49.55 111.4,49.79 111.6,49.6885 C 111.6,49.61 111.7,49.43 111.6,49.34 z "/>
          <path d="M 111.631,49.93 C 111.3,49.80 111.0,50.28 111.1,50.58 C 111.2,50.30 111.5,50.41 111.6,50.27 C 111.7,50.17 111.7,49.97 111.631,49.93 z "/>
          <path d="M 112.0,50.36 C 111.7,50.24 111.3,50.72 111.5,51.02 C 111.5,50.73 111.9,50.85 112.0,50.71 C 112.1,50.61 112.1,50.41 112.0,50.36 z "/>
          <path d="M 119.8,51.21 C 119.5,51.09 119.2,51.57 119.3,51.87 C 119.4,51.58 119.7,51.70 119.8,51.56 C 119.9,51.46 119.9,51.26 119.8,51.21 z "/>
          <path d="M 120.2,51.61 C 119.9,51.53 119.6,52.04 119.8,52.32 C 119.8,52.03 120.2,52.10 120.3,51.95 C 120.3,51.84 120.3,51.64 120.2,51.61 z "/>
          <path d="M 119.9,50.65 C 119.674,50.48 119.2,50.89 119.3,51.21 C 119.4,50.93 119.8,51.12 119.9,51.00 C 120.0,50.91 120.0,50.72 119.9,50.65 z "/>
          <path d="M 125.5,51.34 C 125.2,51.25 124.9,51.77 125.1,52.04 C 125.1,51.76 125.5,51.82 125.6,51.6763 C 125.6,51.57 125.6,51.37 125.5,51.34 z "/>
          <path d="M 125.5,50.80 C 125.2,50.63 124.8,51.06 124.9,51.38 C 125.0,51.10 125.4,51.27 125.5,51.15 C 125.6,51.06 125.6,50.87 125.5,50.80 z "/>
          <path d="M 125.7,51.82 C 125.4,51.75 125.1,52.28 125.3,52.54 C 125.3,52.26 125.763,52.31 125.8,52.15 C 125.8,52.04 125.8,51.85 125.7,51.82 z "/>
          <path d="M 115.3,48.02 C 115.5,48.02 115.6,48.08 115.6,48.47 C 115.6,49.29 115.6,49.65 115.3,49.65 C 115.1,49.65 115.1,49.31 115.1,48.71 C 115.1,48.39 115.1,48.24 115.1,48.26 C 115.1,48.06 115.1,48.02 115.3,48.02 z "/>
        </g>
      </g>
    </g>
  </g>
</svg>
