<?xml version="1.0" encoding="UTF-8" standalone="no"?>
<svg xmlns:dc="http://purl.org/dc/elements/1.1/" xmlns:cc="http://web.resource.org/cc/" xmlns:rdf="http://www.w3.org/1999/02/22-rdf-syntax-ns#" xmlns:svg="http://www.w3.org/2000/svg" xmlns="http://www.w3.org/2000/svg" xmlns:xlink="http://www.w3.org/1999/xlink" height="600" id="svg557" version="1.0" width="1200" x="0.00000000" y="0.00000000">
  
  <sodipodi:namedview id="base"/>
  <defs id="defs559">
    <linearGradient gradientUnits="objectBoundingBox" id="linearGradient684" spreadMethod="pad" x1="0" x2="1" y1="0" y2="0">
      <stop id="stop685" offset="0.00000000" stop-color="#000000" stop-opacity="1"/>
      <stop id="stop686" offset="1.00000000" stop-color="#ffffff" stop-opacity="1"/>
    </linearGradient>
    <linearGradient gradientUnits="objectBoundingBox" id="linearGradient687" spreadMethod="pad" x1="0" x2="1" xlink:href="#linearGradient684" y1="0" y2="0"/>
  </defs>
  <rect height="200" width="1200" x="0" y="200" font-size="12px" fill="#ffffff" fill-opacity="1" fill-rule="evenodd" stroke-width="1pt"/>
  <rect y="400" x="0" width="1200" height="200" font-size="12px" fill="#021272" fill-opacity="1" fill-rule="evenodd" stroke-width="1pt"/>
  <rect y="6.2394534e-014" x="0" width="1200" height="200" font-size="12px" fill="#d61517" fill-rule="evenodd" stroke-width="1pt"/>
  <g transform="matrix(0.920342,0,0,0.920342,1.777778,5.89112)">
    <path d="M 520.4,208.0 C 560.4,193.7 604.8,186.0 648.2,185.9 C 691.5,185.8 735.8,192.6 779.5,208.3 L 812.0,142.7 L 789.1,102.8 C 789.1,102.8 748.3,119.6 748.0,119.6 C 747.7,119.6 719.2,88.35 719.2,88.35 L 682.7,110.4 L 648.5,84.19 L 616.2,110.0 L 578.6,88.24 L 551.1,120.8 L 509.9,103.2 L 487.9,142.7 L 520.4,208.0 z " font-size="12px" fill="#ffffff" fill-rule="evenodd" stroke="#e5141d" stroke-width="1.739" stroke-linecap="round"/>
    <path d="M 729.0,189.8 L 747.6,123.9 L 787.5,107.7 L 808.5,143.0 L 778.3,204.7 C 761.0,197.8 751.7,194.8 729.0,189.8 z " font-size="12px" fill="#00a7bd" fill-rule="evenodd" stroke="#0084fd" stroke-width="0.434pt"/>
    <path d="M 571.0,189.9 L 553.6,125.2 L 579.8,93.08 L 617.1,114.6 L 623.4,182.6 C 605.2,184.0 592.0,185.7 571.0,189.9 z " font-size="12px" fill="none" fill-rule="evenodd" stroke-width="1pt" stroke-opacity="0.99607801"/>
    <path d="M 623.9,182.6 L 617.6,114.4 L 649.3,89.28 L 682.5,114.4 L 676.6,182.7 C 658.3,181.7 645.3,181.8 623.9,182.6 z " font-size="12px" fill="#00a7bd" fill-rule="evenodd" stroke="#0084fd" stroke-width="0.434pt"/>
    <path d="M 522.0,204.7 L 492.4,142.2 L 512.2,107.7 L 553.1,125.5 L 570.4,190.0 C 551.7,193.9 541.8,197.0 522.0,204.7 z " font-size="12px" fill="#00a7bd" fill-rule="evenodd" stroke="#0084fd" stroke-width="0.434pt" stroke-opacity="0.99607801"/>
    <path d="M 512.8,170.1 C 522.1,172.0 528.7,172.0 537.1,169.7 C 547.0,165.7 550.6,160.2 553.8,155.7 C 555.3,165.1 553.7,173.5 542.3,179.5 C 532.1,184.2 518.3,181.2 512.8,170.1 z " font-size="12px" fill="#ffffff" fill-rule="evenodd" stroke="#ffffff" stroke-width="0.434pt"/>
    <g transform="matrix(0.43895,0,0,0.43064,476.7626,73.15042)" font-size="12px">
      <path d="M 410.9,120.5 L 406.8,121.5 L 407.0,129.0 L 402.0,130.1 L 398.5,136.7 L 400.6,138.8 C 400.8,139.0 398.9,143.7 399.0,143.7 C 399.1,143.7 400.3,145.4 400.3,145.4 L 401.7,149.5 L 405.0,150.0 L 405.9,154.7 L 411.2,155.6 L 416.1,159.1 L 416.4,161.3 L 422.1,161.5 L 425.9,162.7 L 439.2,161.1 L 441.0,158.3 L 441.2,154.5 L 448.4,154.3 L 449.0,148.2 L 452.9,148.2 L 452.4,141.3 L 455.6,141.6 L 454.7,138.3 L 452.8,135.6 L 452.4,131.4 L 446.797,125.8 L 445.5,118.4 C 445.5,118.4 441.9,116.8 441.9,116.7 C 441.9,116.6 441.7,111.8 441.7,111.8 L 445.7,106.1 L 445.3,103.8 L 441.6,103.7 L 438.8,106.1 C 438.8,106.1 435.0,106.5 435.0,106.5 C 435.0,106.6 435.078,108.3 435.078,108.3 C 435.078,108.3 436.0,111.5 436.0,111.5 C 436.0,111.6 431.7,111.5 431.7,111.5 L 431.5,106.5 L 425.4,103.4 C 425.4,103.4 419.7,107.3 419.7,107.4 C 419.7,107.5 419.4,111.9 419.4,111.9 L 416.7,112.7 L 413.9,108.5 L 408.9,106.6 L 406.3,106.5 L 406.2,109.7 L 411.4,116.5 L 410.9,120.5 z " fill="#faf703" fill-opacity="0.99607801" fill-rule="evenodd" stroke="#544b20" stroke-width="1pt" stroke-opacity="0.99607801"/>
      <path d="M 449.2,148.0 L 448.1,143.9" fill="none" fill-rule="evenodd" stroke="#544b20" stroke-width="1pt"/>
      <path d="M 452.3,141.2 L 450.4,138.5" fill="none" fill-rule="evenodd" stroke="#544b20" stroke-width="1pt"/>
      <path d="M 400.8,138.2 L 406.6,137.8 L 407.8,143.1 L 409.7,144.9 L 410.1,154.6 L 412,155.441 L 412.5,151.5 L 417.0,151.2 L 417.9,159.0 L 416.8,160.0 L 417.3,161.2 L 422.7,161.1 C 422.7,161.1 423.9,159.0 424.0,159.0 C 424.1,159.0 427.1,158.7 427.1,158.8 C 427.1,158.9 428.3,161.1 428.3,161.1 L 429.2,158.2 C 429.2,158.2 432.1,156.9 432.1,157.0 C 432.1,157.2 434.4,160.8 434.4,160.8 L 438.4,160.3 L 435.9,157.9 L 434.981,152.9 L 440.5,149.9 L 442.7,153.6 C 442.7,153.6 444.8,153.7 444.7,153.6 C 444.5,153.5 442.2,149.3 442.2,149.3 L 442.2,140.5 L 446.4,134.7 L 452.3,134.1 L 452.3,131.6 L 446.4,126.2 L 444.9,118.7 L 441.6,117.1 L 440.7,118.0 L 437.0,118.4 L 440.7,123.8 L 440.7,127.3 L 442.3,128.2 L 442.0,137.9 C 442.0,137.9 437.9,138.5 437.9,138.6 C 437.9,138.7 437.6,144.0 437.6,144.0 L 435.0,146.6 C 435.0,146.6 433.6,151.6 433.5,151.6 C 433.4,151.6 431.1,154.7 431.1,154.7 L 426.5,154.8 C 426.5,154.8 423.9,152.3 423.9,152.2 C 423.9,152.1 423.4,148.4 423.4,148.4 C 423.4,148.4 421.7,147.9 421.6,147.9 C 421.5,147.9 420.6,143.8 420.6,143.8 L 417.5,142.0 L 417.3,139.6 L 414.3,138.3 C 414.3,138.3 413.9,136.1 413.8,135.9 C 413.7,135.8 412.4,135.0 412.3,135.0 C 412.2,135.0 412.2,128.9 412.2,128.9 L 414.8,128.4 L 413.3,126.5 L 412.8,124.8 L 412.8,123.0 L 415.0,120.8 C 415.0,120.8 411.1,120.3 411.1,120.4 C 411.1,120.5 407.2,122.1 407.2,122.0 C 407.3,122.0 407.1,129.2 407.1,129.2 L 402.6,130.6 L 398.9,136.5 L 400.8,138.2 z " fill="#544b20" fill-rule="evenodd" stroke="#544b21" stroke-width="1pt" stroke-opacity="0.99998803"/>
      <path d="M 423.7,148.0 L 426.6,146.2 L 426.5,142.8 L 423.7,142.1 L 422.6,141.0 L 425.8,141.6 L 429.7,141.2 L 431.1,140.6 C 430.5,142.0 430.1,141.9 430.0,141.9 C 429.8,141.9 427.8,143.067 427.8,143.067 L 427.9,146.3 C 427.9,146.3 434.7,147.2 434.6,147.2 C 434.5,147.2 434.6,148.5 434.4,148.5 C 434.2,148.5 427.3,147.0 427.3,147.0 L 423.0,149.6 L 423.7,148.0 z " fill="#544b20" fill-rule="evenodd" stroke="#544b20" stroke-width="1pt"/>
      <path d="M 440.9,127.4 L 436.9,130.5 L 434.4,135.1 L 433.1,135.3 L 429.2,130.1 L 424.8,130.2 C 424.8,130.2 422.3,136.3 422.3,136.4 C 422.3,136.5 420.6,136.2 420.6,136.2 L 415.9,131.1 C 415.9,131.1 414.5,128.5 414.7,128.5 C 414.9,128.5 426.3,128.7 426.3,128.7 L 426.2,123.1 C 426.2,123.1 424.4,122.6 423.6,122.0 C 424.2,121.8 429.8,121.8 429.8,121.8 L 427.4,123.5 L 427.4,128.2 L 437.5,128.3 L 440.9,127.4 z " fill="#544b20" fill-rule="evenodd" stroke="#544b20" stroke-width="1pt" stroke-opacity="0.99999599"/>
      <rect rx="0.83664924" y="130.14011" x="419.51321" width="2.6516111" ry="0.83660454" height="2.6515961" fill="#796a3a" fill-opacity="0.99607903" fill-rule="evenodd" stroke-width="1pt"/>
      <rect rx="0.83664924" y="129.58777" x="432.10858" width="2.6516111" ry="0.83660454" height="2.6515961" fill="#7a6b3a" fill-rule="evenodd" stroke-width="1pt"/>
      <path d="M 413.5,121.3 C 417.7,119.6 420.7,118.2 425.9,117.7 C 430.8,117.2 434.6,117.9 438.9,118.7" fill="none" fill-rule="evenodd" stroke="#544b20" stroke-width="1pt"/>
      <path d="M 415.8,112.3 L 412.4,112.3 L 407.5,107.1 L 410.3,107.4 L 413.5,108.9 L 415.8,112.3 z " fill="#544b20" fill-rule="evenodd" stroke="#544b20" stroke-width="1pt"/>
      <path d="M 436.5,110.3 L 444.2,104.3 L 441.7,104.0 L 438.8,106.7 L 435.4,107.2 L 436.5,110.3 z " fill="#544b20" fill-rule="evenodd" stroke="#544b20" stroke-width="1pt"/>
      <path d="M 431.9,111.4 L 419.8,111.9 L 419.9,110.5 L 424.3,110.1 L 424.9,108.3 C 424.9,108.3 426.2,108.2 426.2,108.3 C 426.2,108.4 427.2,110.0 427.2,110.0 L 431.5,110.8 L 431.9,111.4 z " fill="#544b20" fill-rule="evenodd" stroke="#544b20" stroke-width="1pt"/>
      <path d="M 431.3,106.8 L 427.1,106.9 L 426.8,104.6 L 431.3,106.8 z " fill="#544b20" fill-rule="evenodd" stroke="#544b20" stroke-width="1pt"/>
      <path d="M 424.2,104.7 L 423.9,107.0 L 419.8,107.7 L 424.2,104.7 z " fill="#544b20" fill-rule="evenodd" stroke="#544b20" stroke-width="1pt"/>
      <path d="M 401.0,147.0 L 403.1,141.7 L 401.2,138.0 L 399.4,143.5 L 401.0,147.0 z " fill="#544b20" fill-rule="evenodd" stroke="#544b20" stroke-width="1pt"/>
      <path transform="translate(-0.110473,0.110443)" d="M 405.3,149.8 L 407.9,143.5 L 403.0,148.5 L 405.3,149.8 z " fill="#544b20" fill-rule="evenodd" stroke="#544b20" stroke-width="1pt"/>
    </g>
    <g transform="matrix(0.43895,0,0,0.43064,447.3225,74.10138)" font-size="12px">
      <path d="M 410.9,120.5 L 406.8,121.5 L 407.0,129.0 L 402.0,130.1 L 398.5,136.7 L 400.6,138.8 C 400.8,139.0 398.9,143.7 399.0,143.7 C 399.1,143.7 400.3,145.4 400.3,145.4 L 401.7,149.5 L 405.0,150.0 L 405.9,154.7 L 411.2,155.6 L 416.1,159.1 L 416.4,161.3 L 422.1,161.5 L 425.9,162.7 L 439.2,161.1 L 441.0,158.3 L 441.2,154.5 L 448.4,154.3 L 449.0,148.2 L 452.9,148.2 L 452.4,141.3 L 455.6,141.6 L 454.7,138.3 L 452.8,135.6 L 452.4,131.4 L 446.797,125.8 L 445.5,118.4 C 445.5,118.4 441.9,116.8 441.9,116.7 C 441.9,116.6 441.7,111.8 441.7,111.8 L 445.7,106.1 L 445.3,103.8 L 441.6,103.7 L 438.8,106.1 C 438.8,106.1 435.0,106.5 435.0,106.5 C 435.0,106.6 435.078,108.3 435.078,108.3 C 435.078,108.3 436.0,111.5 436.0,111.5 C 436.0,111.6 431.7,111.5 431.7,111.5 L 431.5,106.5 L 425.4,103.4 C 425.4,103.4 419.7,107.3 419.7,107.4 C 419.7,107.5 419.4,111.9 419.4,111.9 L 416.7,112.7 L 413.9,108.5 L 408.9,106.6 L 406.3,106.5 L 406.2,109.7 L 411.4,116.5 L 410.9,120.5 z " fill="#faf703" fill-opacity="0.99607801" fill-rule="evenodd" stroke="#544b20" stroke-width="1pt" stroke-opacity="0.99607801"/>
      <path d="M 449.2,148.0 L 448.1,143.9" fill="none" fill-rule="evenodd" stroke="#544b20" stroke-width="1pt"/>
      <path d="M 452.3,141.2 L 450.4,138.5" fill="none" fill-rule="evenodd" stroke="#544b20" stroke-width="1pt"/>
      <path d="M 400.8,138.2 L 406.6,137.8 L 407.8,143.1 L 409.7,144.9 L 410.1,154.6 L 412,155.441 L 412.5,151.5 L 417.0,151.2 L 417.9,159.0 L 416.8,160.0 L 417.3,161.2 L 422.7,161.1 C 422.7,161.1 423.9,159.0 424.0,159.0 C 424.1,159.0 427.1,158.7 427.1,158.8 C 427.1,158.9 428.3,161.1 428.3,161.1 L 429.2,158.2 C 429.2,158.2 432.1,156.9 432.1,157.0 C 432.1,157.2 434.4,160.8 434.4,160.8 L 438.4,160.3 L 435.9,157.9 L 434.981,152.9 L 440.5,149.9 L 442.7,153.6 C 442.7,153.6 444.8,153.7 444.7,153.6 C 444.5,153.5 442.2,149.3 442.2,149.3 L 442.2,140.5 L 446.4,134.7 L 452.3,134.1 L 452.3,131.6 L 446.4,126.2 L 444.9,118.7 L 441.6,117.1 L 440.7,118.0 L 437.0,118.4 L 440.7,123.8 L 440.7,127.3 L 442.3,128.2 L 442.0,137.9 C 442.0,137.9 437.9,138.5 437.9,138.6 C 437.9,138.7 437.6,144.0 437.6,144.0 L 435.0,146.6 C 435.0,146.6 433.6,151.6 433.5,151.6 C 433.4,151.6 431.1,154.7 431.1,154.7 L 426.5,154.8 C 426.5,154.8 423.9,152.3 423.9,152.2 C 423.9,152.1 423.4,148.4 423.4,148.4 C 423.4,148.4 421.7,147.9 421.6,147.9 C 421.5,147.9 420.6,143.8 420.6,143.8 L 417.5,142.0 L 417.3,139.6 L 414.3,138.3 C 414.3,138.3 413.9,136.1 413.8,135.9 C 413.7,135.8 412.4,135.0 412.3,135.0 C 412.2,135.0 412.2,128.9 412.2,128.9 L 414.8,128.4 L 413.3,126.5 L 412.8,124.8 L 412.8,123.0 L 415.0,120.8 C 415.0,120.8 411.1,120.3 411.1,120.4 C 411.1,120.5 407.2,122.1 407.2,122.0 C 407.3,122.0 407.1,129.2 407.1,129.2 L 402.6,130.6 L 398.9,136.5 L 400.8,138.2 z " fill="#544b20" fill-rule="evenodd" stroke="#544b21" stroke-width="1pt" stroke-opacity="0.99998803"/>
      <path d="M 423.7,148.0 L 426.6,146.2 L 426.5,142.8 L 423.7,142.1 L 422.6,141.0 L 425.8,141.6 L 429.7,141.2 L 431.1,140.6 C 430.5,142.0 430.1,141.9 430.0,141.9 C 429.8,141.9 427.8,143.067 427.8,143.067 L 427.9,146.3 C 427.9,146.3 434.7,147.2 434.6,147.2 C 434.5,147.2 434.6,148.5 434.4,148.5 C 434.2,148.5 427.3,147.0 427.3,147.0 L 423.0,149.6 L 423.7,148.0 z " fill="#544b20" fill-rule="evenodd" stroke="#544b20" stroke-width="1pt"/>
      <path d="M 440.9,127.4 L 436.9,130.5 L 434.4,135.1 L 433.1,135.3 L 429.2,130.1 L 424.8,130.2 C 424.8,130.2 422.3,136.3 422.3,136.4 C 422.3,136.5 420.6,136.2 420.6,136.2 L 415.9,131.1 C 415.9,131.1 414.5,128.5 414.7,128.5 C 414.9,128.5 426.3,128.7 426.3,128.7 L 426.2,123.1 C 426.2,123.1 424.4,122.6 423.6,122.0 C 424.2,121.8 429.8,121.8 429.8,121.8 L 427.4,123.5 L 427.4,128.2 L 437.5,128.3 L 440.9,127.4 z " fill="#544b20" fill-rule="evenodd" stroke="#544b20" stroke-width="1pt" stroke-opacity="0.99999599"/>
      <rect rx="0.83664924" y="130.14011" x="419.51321" width="2.6516111" ry="0.83660454" height="2.6515961" fill="#796a3a" fill-opacity="0.99607903" fill-rule="evenodd" stroke-width="1pt"/>
      <rect rx="0.83664924" y="129.58777" x="432.10858" width="2.6516111" ry="0.83660454" height="2.6515961" fill="#7a6b3a" fill-rule="evenodd" stroke-width="1pt"/>
      <path d="M 413.5,121.3 C 417.7,119.6 420.7,118.2 425.9,117.7 C 430.8,117.2 434.6,117.9 438.9,118.7" fill="none" fill-rule="evenodd" stroke="#544b20" stroke-width="1pt"/>
      <path d="M 415.8,112.3 L 412.4,112.3 L 407.5,107.1 L 410.3,107.4 L 413.5,108.9 L 415.8,112.3 z " fill="#544b20" fill-rule="evenodd" stroke="#544b20" stroke-width="1pt"/>
      <path d="M 436.5,110.3 L 444.2,104.3 L 441.7,104.0 L 438.8,106.7 L 435.4,107.2 L 436.5,110.3 z " fill="#544b20" fill-rule="evenodd" stroke="#544b20" stroke-width="1pt"/>
      <path d="M 431.9,111.4 L 419.8,111.9 L 419.9,110.5 L 424.3,110.1 L 424.9,108.3 C 424.9,108.3 426.2,108.2 426.2,108.3 C 426.2,108.4 427.2,110.0 427.2,110.0 L 431.5,110.8 L 431.9,111.4 z " fill="#544b20" fill-rule="evenodd" stroke="#544b20" stroke-width="1pt"/>
      <path d="M 431.3,106.8 L 427.1,106.9 L 426.8,104.6 L 431.3,106.8 z " fill="#544b20" fill-rule="evenodd" stroke="#544b20" stroke-width="1pt"/>
      <path d="M 424.2,104.7 L 423.9,107.0 L 419.8,107.7 L 424.2,104.7 z " fill="#544b20" fill-rule="evenodd" stroke="#544b20" stroke-width="1pt"/>
      <path d="M 401.0,147.0 L 403.1,141.7 L 401.2,138.0 L 399.4,143.5 L 401.0,147.0 z " fill="#544b20" fill-rule="evenodd" stroke="#544b20" stroke-width="1pt"/>
      <path transform="translate(-0.110473,0.110443)" d="M 405.3,149.8 L 407.9,143.5 L 403.0,148.5 L 405.3,149.8 z " fill="#544b20" fill-rule="evenodd" stroke="#544b20" stroke-width="1pt"/>
    </g>
    <path d="M 677.1,182.6 L 683.0,114.2 L 719.2,93.40 L 747.2,123.7 L 728.5,189.6 C 710.4,185.9 700.1,184.3 677.1,182.6 z " font-size="12px" fill="#001070" fill-rule="evenodd" stroke="#001071" stroke-width="0.434pt" stroke-opacity="0.99607801"/>
    <g transform="matrix(0.43895,0,0,0.43064,462.5877,99.65627)" font-size="12px">
      <path d="M 410.9,120.5 L 406.8,121.5 L 407.0,129.0 L 402.0,130.1 L 398.5,136.7 L 400.6,138.8 C 400.8,139.0 398.9,143.7 399.0,143.7 C 399.1,143.7 400.3,145.4 400.3,145.4 L 401.7,149.5 L 405.0,150.0 L 405.9,154.7 L 411.2,155.6 L 416.1,159.1 L 416.4,161.3 L 422.1,161.5 L 425.9,162.7 L 439.2,161.1 L 441.0,158.3 L 441.2,154.5 L 448.4,154.3 L 449.0,148.2 L 452.9,148.2 L 452.4,141.3 L 455.6,141.6 L 454.7,138.3 L 452.8,135.6 L 452.4,131.4 L 446.797,125.8 L 445.5,118.4 C 445.5,118.4 441.9,116.8 441.9,116.7 C 441.9,116.6 441.7,111.8 441.7,111.8 L 445.7,106.1 L 445.3,103.8 L 441.6,103.7 L 438.8,106.1 C 438.8,106.1 435.0,106.5 435.0,106.5 C 435.0,106.6 435.078,108.3 435.078,108.3 C 435.078,108.3 436.0,111.5 436.0,111.5 C 436.0,111.6 431.7,111.5 431.7,111.5 L 431.5,106.5 L 425.4,103.4 C 425.4,103.4 419.7,107.3 419.7,107.4 C 419.7,107.5 419.4,111.9 419.4,111.9 L 416.7,112.7 L 413.9,108.5 L 408.9,106.6 L 406.3,106.5 L 406.2,109.7 L 411.4,116.5 L 410.9,120.5 z " fill="#faf703" fill-opacity="0.99607801" fill-rule="evenodd" stroke="#544b20" stroke-width="1pt" stroke-opacity="0.99607801"/>
      <path d="M 449.2,148.0 L 448.1,143.9" fill="none" fill-rule="evenodd" stroke="#544b20" stroke-width="1pt"/>
      <path d="M 452.3,141.2 L 450.4,138.5" fill="none" fill-rule="evenodd" stroke="#544b20" stroke-width="1pt"/>
      <path d="M 400.8,138.2 L 406.6,137.8 L 407.8,143.1 L 409.7,144.9 L 410.1,154.6 L 412,155.441 L 412.5,151.5 L 417.0,151.2 L 417.9,159.0 L 416.8,160.0 L 417.3,161.2 L 422.7,161.1 C 422.7,161.1 423.9,159.0 424.0,159.0 C 424.1,159.0 427.1,158.7 427.1,158.8 C 427.1,158.9 428.3,161.1 428.3,161.1 L 429.2,158.2 C 429.2,158.2 432.1,156.9 432.1,157.0 C 432.1,157.2 434.4,160.8 434.4,160.8 L 438.4,160.3 L 435.9,157.9 L 434.981,152.9 L 440.5,149.9 L 442.7,153.6 C 442.7,153.6 444.8,153.7 444.7,153.6 C 444.5,153.5 442.2,149.3 442.2,149.3 L 442.2,140.5 L 446.4,134.7 L 452.3,134.1 L 452.3,131.6 L 446.4,126.2 L 444.9,118.7 L 441.6,117.1 L 440.7,118.0 L 437.0,118.4 L 440.7,123.8 L 440.7,127.3 L 442.3,128.2 L 442.0,137.9 C 442.0,137.9 437.9,138.5 437.9,138.6 C 437.9,138.7 437.6,144.0 437.6,144.0 L 435.0,146.6 C 435.0,146.6 433.6,151.6 433.5,151.6 C 433.4,151.6 431.1,154.7 431.1,154.7 L 426.5,154.8 C 426.5,154.8 423.9,152.3 423.9,152.2 C 423.9,152.1 423.4,148.4 423.4,148.4 C 423.4,148.4 421.7,147.9 421.6,147.9 C 421.5,147.9 420.6,143.8 420.6,143.8 L 417.5,142.0 L 417.3,139.6 L 414.3,138.3 C 414.3,138.3 413.9,136.1 413.8,135.9 C 413.7,135.8 412.4,135.0 412.3,135.0 C 412.2,135.0 412.2,128.9 412.2,128.9 L 414.8,128.4 L 413.3,126.5 L 412.8,124.8 L 412.8,123.0 L 415.0,120.8 C 415.0,120.8 411.1,120.3 411.1,120.4 C 411.1,120.5 407.2,122.1 407.2,122.0 C 407.3,122.0 407.1,129.2 407.1,129.2 L 402.6,130.6 L 398.9,136.5 L 400.8,138.2 z " fill="#544b20" fill-rule="evenodd" stroke="#544b21" stroke-width="1pt" stroke-opacity="0.99998803"/>
      <path d="M 423.7,148.0 L 426.6,146.2 L 426.5,142.8 L 423.7,142.1 L 422.6,141.0 L 425.8,141.6 L 429.7,141.2 L 431.1,140.6 C 430.5,142.0 430.1,141.9 430.0,141.9 C 429.8,141.9 427.8,143.067 427.8,143.067 L 427.9,146.3 C 427.9,146.3 434.7,147.2 434.6,147.2 C 434.5,147.2 434.6,148.5 434.4,148.5 C 434.2,148.5 427.3,147.0 427.3,147.0 L 423.0,149.6 L 423.7,148.0 z " fill="#544b20" fill-rule="evenodd" stroke="#544b20" stroke-width="1pt"/>
      <path d="M 440.9,127.4 L 436.9,130.5 L 434.4,135.1 L 433.1,135.3 L 429.2,130.1 L 424.8,130.2 C 424.8,130.2 422.3,136.3 422.3,136.4 C 422.3,136.5 420.6,136.2 420.6,136.2 L 415.9,131.1 C 415.9,131.1 414.5,128.5 414.7,128.5 C 414.9,128.5 426.3,128.7 426.3,128.7 L 426.2,123.1 C 426.2,123.1 424.4,122.6 423.6,122.0 C 424.2,121.8 429.8,121.8 429.8,121.8 L 427.4,123.5 L 427.4,128.2 L 437.5,128.3 L 440.9,127.4 z " fill="#544b20" fill-rule="evenodd" stroke="#544b20" stroke-width="1pt" stroke-opacity="0.99999599"/>
      <rect rx="0.83664924" y="130.14011" x="419.51321" width="2.6516111" ry="0.83660454" height="2.6515961" fill="#796a3a" fill-opacity="0.99607903" fill-rule="evenodd" stroke-width="1pt"/>
      <rect rx="0.83664924" y="129.58777" x="432.10858" width="2.6516111" ry="0.83660454" height="2.6515961" fill="#7a6b3a" fill-rule="evenodd" stroke-width="1pt"/>
      <path d="M 413.5,121.3 C 417.7,119.6 420.7,118.2 425.9,117.7 C 430.8,117.2 434.6,117.9 438.9,118.7" fill="none" fill-rule="evenodd" stroke="#544b20" stroke-width="1pt"/>
      <path d="M 415.8,112.3 L 412.4,112.3 L 407.5,107.1 L 410.3,107.4 L 413.5,108.9 L 415.8,112.3 z " fill="#544b20" fill-rule="evenodd" stroke="#544b20" stroke-width="1pt"/>
      <path d="M 436.5,110.3 L 444.2,104.3 L 441.7,104.0 L 438.8,106.7 L 435.4,107.2 L 436.5,110.3 z " fill="#544b20" fill-rule="evenodd" stroke="#544b20" stroke-width="1pt"/>
      <path d="M 431.9,111.4 L 419.8,111.9 L 419.9,110.5 L 424.3,110.1 L 424.9,108.3 C 424.9,108.3 426.2,108.2 426.2,108.3 C 426.2,108.4 427.2,110.0 427.2,110.0 L 431.5,110.8 L 431.9,111.4 z " fill="#544b20" fill-rule="evenodd" stroke="#544b20" stroke-width="1pt"/>
      <path d="M 431.3,106.8 L 427.1,106.9 L 426.8,104.6 L 431.3,106.8 z " fill="#544b20" fill-rule="evenodd" stroke="#544b20" stroke-width="1pt"/>
      <path d="M 424.2,104.7 L 423.9,107.0 L 419.8,107.7 L 424.2,104.7 z " fill="#544b20" fill-rule="evenodd" stroke="#544b20" stroke-width="1pt"/>
      <path d="M 401.0,147.0 L 403.1,141.7 L 401.2,138.0 L 399.4,143.5 L 401.0,147.0 z " fill="#544b20" fill-rule="evenodd" stroke="#544b20" stroke-width="1pt"/>
      <path transform="translate(-0.110473,0.110443)" d="M 405.3,149.8 L 407.9,143.5 L 403.0,148.5 L 405.3,149.8 z " fill="#544b20" fill-rule="evenodd" stroke="#544b20" stroke-width="1pt"/>
    </g>
    <path d="M 686.0,170.3 L 684.2,172.5 L 684.4,174.3 L 688.1,174.2 C 689.4,173.9 689.7,173.5 689.9,173.0 C 690.3,172.4 690.0,172.1 690.1,171.2 L 686.0,170.3 z " font-size="12px" fill="#a0210c" fill-rule="evenodd" stroke="#a0210c" stroke-width="0.434pt" stroke-opacity="0.99651998"/>
    <path d="M 695.1,175.7 L 693.6,177.1 L 693.6,178.8 L 696.9,178.7 C 698.2,178.4 698.3,178.2 698.5,177.7 C 698.9,177.1 698.8,177.1 698.9,176.3 L 695.1,175.7 z " font-size="12px" fill="#a0210c" fill-rule="evenodd" stroke="#a0210c" stroke-width="0.434pt" stroke-opacity="0.99651998"/>
    <path d="M 709.9,171.1 L 708.1,172.9 L 708.2,174.3 L 711.7,174.4 C 713.0,174.1 712.8,174.2 713.1,173.5 C 713.5,172.9 713.4,172.8 713.5,172.0 L 709.9,171.1 z " font-size="12px" fill="#a0210c" fill-rule="evenodd" stroke="#a0210c" stroke-width="0.434pt" stroke-opacity="0.99651998"/>
    <path d="M 720.3,174.3 L 718.2,176.0 L 718.2,177.7 L 722.0,178.1 C 723.2,177.8 723.3,177.5 723.6,177.0 C 724.0,176.4 723.8,176.4 723.9,175.6 L 720.3,174.3 z " font-size="12px" fill="#a0210c" fill-rule="evenodd" stroke="#a0210c" stroke-width="0.434pt" stroke-opacity="0.99651998"/>
    <path d="M 694.9,129.5 L 702.0,134.2 C 703.4,133.1 706.2,133.8 707.3,134.1 C 709.2,134.6 710.6,135.8 712.3,136.1 C 715.4,136.9 719.2,137.4 722.0,137.1 C 724.9,136.8 727.2,135.3 729.3,134.2 L 729.3,133.6 L 727.9,133.6 C 725.7,134.4 722.5,134.4 720.1,134.1 C 717.6,133.8 717.0,132.7 713.3,131.6 L 713.1,131.0 C 717.5,131.2 718.4,131.1 720.2,130.3 C 722.0,129.8 722.8,128.7 723.9,128.0 L 723.8,127.2 L 722.5,127.1 C 720.8,128.3 719.7,128.5 717.1,128.2 C 714.7,128.0 712.5,126.6 710.9,126.6 C 709.3,126.6 709.3,125.8 707.7,125.7 C 705.1,125.5 702.3,125.8 699.8,126.4 C 696.8,127.3 696.4,128.1 694.9,129.5 z " font-size="12px" fill="#a0210c" fill-rule="evenodd" stroke="#000000" stroke-width="0.434pt"/>
    <path d="M 696.3,128.5 C 697.0,128.6 697.7,128.8 698.3,129.1 C 698.9,129.5 698.7,129.5 699.3,129.9 C 699.2,129.3 699.2,129.4 698.9,128.9 C 698.5,128.5 697.8,128.1 697.3,127.7 L 696.3,128.5 z " font-size="12px" fill-rule="evenodd" stroke="#000000" stroke-width="0.434pt"/>
    <path d="M 702.2,133.6 C 702.3,133.0 701.9,132.4 701.7,131.9 C 701.5,131.4 701.3,130.9 700.8,130.4 C 701.4,130.5 701.7,130.8 702.2,131.3 C 702.6,131.9 702.6,132.5 702.7,133.3 L 702.2,133.6 z " font-size="12px" fill-rule="evenodd" stroke="#000000" stroke-width="0.434pt"/>
    <path d="M 703.6,126.1 C 703.8,126.5 704.1,126.8 704.4,127.7 C 704.6,128.5 704.7,129.7 704.7,129.7 C 704.6,129.1 704.8,128.4 704.7,127.8 C 704.6,127.1 704.3,126.6 704.2,126.0 L 703.6,126.1 z " font-size="12px" fill-rule="evenodd" stroke="#000000" stroke-width="0.434pt"/>
    <path d="M 709.4,126.4 L 709.7,129.9 L 710.0,126.6 L 709.4,126.4 z " font-size="12px" fill-rule="evenodd" stroke="#000000" stroke-width="0.434pt"/>
    <path d="M 708.0,133.5 C 708.1,132.9 708.1,132.4 708.0,131.8 C 708.0,131.3 707.8,130.8 707.6,130.2 C 708.1,130.6 708.4,131.2 708.7,131.9 C 708.7,132.5 708.5,133.1 708.0,133.5 z " font-size="12px" fill-rule="evenodd" stroke="#000000" stroke-width="0.434pt"/>
    <path d="M 714.0,132.0 C 714.0,132.0 714.2,133.2 713.9,134.0 C 713.6,134.8 713.4,134.9 713.0,135.3 C 713.6,134.8 714.2,134.7 714.4,134.1 C 714.6,133.3 714.1,132.1 714.0,132.0 z " font-size="12px" fill-rule="evenodd" stroke="#000000" stroke-width="0.434pt"/>
    <path d="M 715.0,130.9 C 714.6,131.0 714.5,129.3 714.3,128.4 C 714.5,128.3 714.6,128.4 714.8,128.8 C 715.0,129.0 714.9,130.2 715.0,130.9 z " font-size="12px" fill-rule="evenodd" stroke="#000000" stroke-width="0.434pt"/>
    <path d="M 719.1,130.2 L 719.3,128.8 L 719.7,128.8 C 719.7,128.8 719.7,129.9 719.7,130.0 C 719.7,130.0 719.1,130.3 719.1,130.2 z " font-size="12px" fill-rule="evenodd" stroke="#000000" stroke-width="0.434pt"/>
    <path d="M 718.8,134.0 C 719.0,134.5 719.5,135.0 719.6,135.4 C 719.6,135.9 719.5,136.1 719.1,136.9 L 719.8,136.9 C 720.1,136.3 720.2,135.9 720.2,135.5 C 720.1,135.0 719.9,134.6 719.4,134.2 L 718.8,134.0 z " font-size="12px" fill-rule="evenodd" stroke="#000000" stroke-width="0.434pt"/>
    <path d="M 723.7,134.4 L 723.9,136.4 L 724.4,136.1 L 724.3,134.4 L 723.7,134.4 z " font-size="12px" fill-rule="evenodd" stroke="#000000" stroke-width="0.434pt"/>
    <path d="M 694.5,129.9 C 692.9,130.3 692.3,131.2 691.5,132.0 L 686.9,129.7 C 686.2,130.3 685.9,131.2 686.3,132.1 C 686.6,133.0 688.1,134.4 689.1,135.1 C 688.8,136.3 688.4,137.2 688.0,138.3 C 687.5,139.5 686.5,141.1 686.4,141.6 C 686.4,142.1 686.2,143.3 687.0,143.7 C 687.9,144.0 690.6,143.4 691.5,143.5 C 691.3,144.0 691.0,144.8 691.1,145.2 C 691.2,145.6 691.5,145.7 692.2,145.7 C 692.0,146.1 691.5,146.7 691.8,147.0 C 692.3,147.4 693.0,147.3 693.5,147.3 C 692.7,148.3 690.5,150.2 689.8,151.1 C 689.1,152.1 689.0,153.2 690.4,153.1 C 689.9,153.7 689.4,154.3 689.5,154.8 C 689.6,155.4 689.9,155.8 690.9,155.4 C 690.3,156.8 690.7,158.1 690.9,159.5 C 690.4,160.6 690.6,161.6 690.5,162.8 C 689.4,163.4 689.3,164.2 688.6,165.4 C 688.0,166.7 686.8,167.1 686.2,169.9 L 690.4,170.9 C 690.5,170.3 691.1,170.0 691.2,169.4 C 691.4,168.8 691.4,168.1 691.3,167.5 C 692.1,166.3 693.8,163.8 694.3,162.5 C 695.2,162.0 695.9,161.7 696.6,161.7 C 697.2,161.7 697.7,162.1 698.4,162.5 C 698.1,163.6 697.2,164.8 697.1,166.4 L 697.1,170.6 C 696.9,171.7 695.7,171.7 695.2,174.9 L 699.0,175.9 C 699.6,174.8 700.6,174.7 700.9,174.2 L 701.1,169.8 C 701.6,167.7 704.5,165.9 704.6,163.7 C 705.6,163.6 706.0,163.8 706.5,163.5 C 707.0,163.3 707.2,163.0 707.7,162.6 C 707.8,163.3 708.4,163.4 708.8,163.4 C 709.3,163.4 710.2,162.7 710.6,162.5 C 710.8,162.8 711.0,163.2 711.5,163.3 C 712.1,163.5 713.6,163.2 714.3,163.1 L 711.2,168.1 C 711.1,168.6 711.2,168.9 711.0,169.4 C 710.8,169.9 710.3,170.2 710.1,170.6 L 713.6,171.5 L 714.2,170.0 C 714.9,169.7 715.5,169.5 715.9,169.1 C 716.3,168.6 716.3,167.7 716.5,167.2 C 717.7,166.3 719.5,164.4 720.9,162.9 C 721.7,163.1 723.0,163.8 723.5,164.9 C 723.6,166.1 723.6,168.2 723.1,169.7 L 720.9,173.3 L 720.6,173.8 L 724.1,175.1 L 726.4,173.4 L 726.5,170.9 C 727.6,168.9 729.2,167.8 730.8,166.6 C 730.8,166.5 730.9,163.9 730.9,163.8 C 730.5,163.5 730.2,163.7 730.1,163.2 C 730.0,162.6 730.1,161.2 730.1,160.6 C 730.4,160.3 730.8,160.0 730.8,159.8 C 730.2,159.1 730.4,157.4 730.6,156.0 C 730.5,154.4 732.6,152.6 733.0,151.7 L 733.1,150.1 C 732.9,149.7 732.6,149.4 732.6,149.1 C 732.5,148.8 733.0,148.2 733.2,147.8 L 733.7,147.1 L 733.6,143.1 C 733.5,142.6 733.1,142.0 732.7,141.9 C 732.4,141.8 731.9,142.2 731.5,142.7 L 729.4,144.2 C 728.5,144.5 727.6,144.6 725.9,144.2 L 723.3,144.2 C 721.9,144.6 721.2,144.7 719.9,144.1 L 718.3,144.1 C 717.9,144.4 717.2,144.8 716.7,144.9 C 716.1,145.0 715.4,145.0 714.9,144.9 C 710.9,145.1 711.9,145.4 710.7,145.7 C 709.8,145.5 710.1,145.0 706.5,145.0 L 705.1,144.6 C 703.3,143.4 702.0,141.5 700.8,139.3 C 704.5,138.3 706.1,137.2 707.2,134.6 L 701.9,134.8 L 694.5,129.9 z " font-size="12px" fill="#f9f704" fill-opacity="1" fill-rule="evenodd" stroke="#544b20" stroke-width="0.434pt"/>
    <path d="M 692.6,136.4 L 694.1,137.0 C 694.3,137.2 694.6,137.5 694.9,137.5 C 695.1,137.5 695.3,137.3 695.5,137.1 L 696.9,136.4 C 696.1,136.3 695.8,135.7 694.9,135.7 C 694.1,135.7 693.5,136.2 692.6,136.4 z " font-size="12px" fill-rule="evenodd" stroke="#000000" stroke-width="0.434pt"/>
    <path d="M 699.2,136.7 C 699.6,137.0 700.5,137.6 701.2,137.6 C 702.0,137.5 702.0,137.0 703.2,136.6 L 704.8,135.3 C 703.8,135.3 701.7,135.5 700.5,135.8 C 699.5,136.1 699.2,136.5 699.2,136.7 z " font-size="12px" fill-rule="evenodd" stroke="#000000" stroke-width="0.434pt"/>
    <path d="M 695.3,154.0 C 695.3,154.1 695.1,154.2 695.0,154.0 C 694.9,152.3 694.5,151.1 694.0,149.7 C 694.6,150.7 695.1,152.4 695.3,154.0 z " font-size="12px" fill-rule="evenodd" stroke="#000000" stroke-width="0.434pt"/>
    <path d="M 699.6,161.1 C 698.9,161.2 698.7,161.1 698.0,161.2 C 697.9,159.4 697.9,157.4 697.9,156.1 C 698.2,156.2 698.9,157.0 699.4,158.2 C 699.5,159.1 699.7,160.2 699.6,161.1 z " font-size="12px" fill-rule="evenodd" stroke="#000000" stroke-width="0.434pt"/>
    <path d="M 704.1,154.1 C 704.4,154.2 704.8,154.2 704.9,154.0 C 705.1,153.7 704.7,153.2 704.5,152.8 C 704.0,151.8 703.8,150.7 703.5,150.3 C 703.3,150.1 703.1,150.1 703.1,150.4 C 703.4,151.3 703.9,153.8 704.1,154.1 z " font-size="12px" fill-rule="evenodd" stroke="#000000" stroke-width="0.434pt"/>
    <path d="M 708.9,153.6 C 708.9,153.8 708.2,153.5 708.1,153.3 C 708.1,152.8 707.1,149.4 707.3,149.2 C 707.5,149.1 708.1,150.4 708.3,151.0 C 708.4,151.3 708.8,152.6 708.9,153.6 z " font-size="12px" fill-rule="evenodd" stroke="#000000" stroke-width="0.434pt"/>
    <path d="M 708.2,160.7 C 708.2,160.9 708.8,160.7 709.0,160.5 C 709.6,159.5 710.4,158.5 710.7,158.1 C 710.8,157.6 711.5,154.9 711.3,154.9 C 711.2,154.8 710.6,156.3 709.8,157.7 C 709.0,159.2 708.2,160.5 708.2,160.7 z " font-size="12px" fill-rule="evenodd" stroke="#000000" stroke-width="0.434pt"/>
    <path d="M 713.0,159.2 C 712.8,159.3 713.5,156.8 713.6,156.4 C 713.7,155.7 713.9,154.4 714.2,152.8 C 714.5,155.1 714.1,157.5 713.0,159.2 z " font-size="12px" fill-rule="evenodd" stroke="#000000" stroke-width="0.434pt"/>
    <path d="M 715.9,151.6 C 715.8,151.7 713.7,148.3 713.9,148.3 C 714.0,148.1 715.6,150.4 715.9,150.8 C 716.0,151.0 716.1,151.3 715.9,151.6 z " font-size="12px" fill-rule="evenodd" stroke="#000000" stroke-width="0.434pt"/>
    <path d="M 720.8,154.1 C 720.6,154.0 720.7,152.9 720.4,151.7 C 720.1,150.5 719.5,149.3 719.7,149.0 C 719.7,148.8 720.1,148.9 720.4,149.2 C 720.5,149.8 720.8,152.3 721.1,153.9 C 721.1,154.1 721.0,154.2 720.8,154.1 z " font-size="12px" fill-rule="evenodd" stroke="#000000" stroke-width="0.434pt"/>
    <path d="M 724.2,151.1 C 724.0,150.9 724.6,152.2 725.1,153.9 C 725.5,155.5 725.7,158.3 725.8,158.1 C 726.1,157.9 726.1,157.6 726.6,157.5 C 727.1,157.4 728.8,157.6 728.7,157.5 C 727.6,156.5 726.6,155.7 725.9,154.6 C 725.1,153.5 724.6,152.1 724.2,151.1 z " font-size="12px" fill-rule="evenodd" stroke="#000000" stroke-width="0.434pt"/>
    <path d="M 728.3,165.7 C 728.0,166.0 727.3,166.2 727.1,166.0 C 726.1,163.9 725.5,162.4 724.0,160.1 C 723.7,159.5 722.7,159.6 722.8,159.4 C 722.8,159.2 723.3,159.3 723.6,158.9 C 723.9,158.5 724.0,158.1 724.2,157.9 C 723.7,158.9 724.9,160.5 725.5,161.7 C 725.9,161.8 726.3,161.8 726.5,162.0 C 726.5,162.2 726.0,162.2 726.1,162.7 L 727.1,164.8 C 727.5,165.1 728.0,165.2 728.5,165.3 C 728.7,165.4 728.4,165.6 728.3,165.7 z " font-size="12px" fill-rule="evenodd" stroke="#000000" stroke-width="0.434pt"/>
    <path d="M 728.9,189.7 L 747.7,123.6 L 787.6,107.5 L 808.7,143.2 L 778.4,204.7 C 761.3,198.2 751.5,194.8 728.9,189.7 z " font-size="12px" fill="none" fill-rule="evenodd" stroke-width="1pt" stroke-opacity="0.99607801"/>
    <path d="M 730.5,146.6 C 731.2,146.6 731.8,146.7 732.0,146.4 C 732.4,145.5 732.6,144.8 732.3,144.3 C 731.3,144.4 730.5,144.9 730.1,145.8 C 730.1,146.1 730.2,146.3 730.5,146.6 z " font-size="12px" fill-rule="evenodd" stroke="#000000" stroke-width="0.434pt"/>
    <path d="M 741.4,146.0 C 751.6,148.1 761.1,150.6 770.5,153.6 C 780.0,156.7 789.0,160.3 798.2,164.3 L 782.8,195.3 C 774.3,192.0 765.8,189.4 757.4,186.7 C 748.9,183.9 740.7,181.5 732.1,178.9 L 741.4,146.0 z " font-size="12px" fill="#fdfcfc" fill-rule="evenodd" stroke="#fdfcfc" stroke-width="0.434pt"/>
    <path d="M 739.3,153.3 C 739.3,153.3 753.6,156.5 767.5,160.9 C 781.3,165.4 794.8,171.1 794.7,171.1 C 794.6,171.1 786.0,188.8 786.0,188.8 C 777.7,185.5 768.9,182.4 760.3,179.6 C 751.6,176.8 743.0,174.1 734.1,172.0 L 739.3,153.3 z " font-size="12px" fill="#e6151e" fill-rule="evenodd" stroke="#e6151e" stroke-width="0.434pt"/>
    <path d="M 740.5,161.9 C 741.9,161.2 742.9,160.9 743.6,159.7 L 748.7,159.7 L 748.8,161.5 C 750.0,162.1 750.7,162.8 752.0,163.3 C 753.2,163.9 755.0,164.5 756.2,165.1 L 767.1,166.0 C 768.6,166.2 770.7,166.9 771.9,167.6 C 773.2,168.3 774.0,169.3 774.7,170.5 C 776.9,171.3 779.2,171.7 781.5,172.1 C 783.8,172.4 786.7,172.5 788.9,172.6 C 790.0,173.0 790.0,173.6 789.5,174.2 C 789.5,174.2 788.2,175.8 784.9,175.8 C 781.5,175.9 777.7,174.0 776.1,174.2 C 776.1,175.2 777.9,177.3 779.9,178.2 L 779.8,183.0 L 778.9,183.8 L 777.9,183.2 C 778.7,182.0 778.5,180.7 778.1,179.6 C 777.4,178.5 777.3,178.0 775.9,178.0 C 774.2,177.7 773.0,177.2 770.9,175.7 L 770.2,175.9 C 769.7,176.7 769.2,177.2 768.2,177.7 L 766.1,177.6 C 766.1,177.6 761.1,176.5 761.1,176.4 C 761.1,176.4 761.1,175.7 761.2,175.6 C 761.3,175.6 762.9,175.6 763.0,175.6 C 764.1,175.9 766.3,175.9 766.3,175.9 L 766.2,174.0 L 769.5,173.8 C 768.8,171.5 768.6,170.1 765.6,169.6 L 756.0,169.8 L 756.1,171.2 C 753.7,170.8 749.3,170.8 747.1,171.5 C 745.8,171.7 744.0,172.3 743.1,172.3 L 742.1,172.1 C 741.5,171.9 741.5,171.7 741.8,171.1 C 745.9,170.8 746.6,170.5 747.8,169.9 C 747.9,169.5 747.3,168.7 747.1,168.6 C 744.5,168.5 742.5,168.7 741.8,168.6 C 740.7,168.2 739.2,167.7 739.2,167.6 C 739.2,167.5 739.0,166.6 739.0,166.6 C 739.1,166.6 740.7,167.0 740.8,167.0 C 742.5,167.4 745.6,167.2 746.3,166.8 L 746.4,165.4 C 746.3,164.8 745.8,164.2 745.7,164.2 C 745.6,164.1 742.9,163.8 741.9,163.8 C 740.3,163.5 740.5,162.7 740.5,161.9 z " font-size="12px" fill-rule="evenodd" stroke="#010001" stroke-width="0.434pt" stroke-opacity="0.99607801"/>
    <path d="M 761.5,173.3 C 762.9,173.7 764.0,173.9 766.2,174.0 L 769.5,173.8 C 768.8,171.5 768.6,170.1 765.6,169.6 L 756.0,169.8 L 756.1,171.2 C 759.0,172.2 760.4,172.8 761.5,173.3 z " font-size="12px" fill="#fdfdfd" fill-opacity="0.996081" fill-rule="evenodd" stroke="#010001" stroke-width="0.434pt" stroke-opacity="0.99607801"/>
    <path d="M 570.9,189.7 L 553.6,125.1 L 580.0,93.09 L 617.1,114.2 L 623.4,182.7 C 604.5,184.1 592.2,185.9 570.9,189.7 z " font-size="12px" fill="#011171" fill-opacity="0.99607801" fill-rule="evenodd" stroke="#011171" stroke-width="0.434pt"/>
    <path d="M 511.3,141.1 L 517.7,146.1 L 516.5,154.7 L 524.7,151.3 L 531.1,156.2 L 532.0,148.3 L 538.7,145.6 L 533.2,140.3 L 534.4,132.4 C 534.4,132.4 526.4,135.3 526.4,135.3 C 526.4,135.2 520.6,130.4 520.5,130.5 C 520.4,130.5 519.2,137.9 519.2,137.9 L 511.3,141.1 z " font-size="12px" fill="#fbfd10" fill-opacity="0.99607801" fill-rule="evenodd" stroke="#fdc605" stroke-width="0.434pt" stroke-opacity="0.99607801"/>
    <path d="M 511.5,141.2 L 538.7,145.6 L 531.9,148.4 L 525.4,143.7 C 525.4,143.7 531.2,156.0 531.1,156.0 C 531.1,155.9 524.9,151.4 524.7,151.2 L 525.3,143.7 C 525.3,143.7 516.6,154.6 516.6,154.6 C 516.6,154.5 517.9,146.0 517.9,146.0 L 511.5,141.2 z " font-size="12px" fill="#ffc500" fill-rule="evenodd" stroke-width="1pt"/>
    <path d="M 519.1,138.0 L 525.4,143.3 L 520.5,130.3 L 519.1,138.0 z " font-size="12px" fill="#ffc500" fill-rule="evenodd" stroke-width="1pt"/>
    <path d="M 526.3,135.4 C 526.4,135.4 525.3,143.2 525.4,143.2 C 526.0,142.3 534.4,132.4 534.4,132.4 C 534.3,132.4 526.4,135.4 526.3,135.4 z " font-size="12px" fill="#ffc500" fill-rule="evenodd" stroke-width="1pt"/>
    <path d="M 768.1,124.9 L 769.7,132.7 L 763.1,138.5 L 771.6,141.1 L 773.3,149.0 L 779.2,143.5 L 786.0,145.7 L 785.3,138.1 L 791.4,132.9 C 791.4,132.9 783.4,130.0 783.4,129.9 C 783.4,129.9 782.2,122.5 782.1,122.5 C 782.0,122.5 776.2,127.4 776.2,127.4 L 768.1,124.9 z " font-size="12px" fill="#fbfd10" fill-opacity="0.99607801" fill-rule="evenodd" stroke="#fdc605" stroke-width="0.434pt" stroke-opacity="0.99607801"/>
    <path d="M 768.2,125.0 L 786.0,145.6 L 779.0,143.5 L 777.1,135.8 C 777.1,135.8 773.5,148.9 773.4,148.8 C 773.4,148.7 771.7,141.4 771.7,141.1 L 777.0,135.7 C 777.0,135.7 763.3,138.6 763.3,138.5 C 763.3,138.5 769.9,132.8 769.9,132.8 L 768.2,125.0 z " font-size="12px" fill="#ffc500" fill-rule="evenodd" stroke-width="1pt"/>
    <path d="M 776.1,127.4 L 777.4,135.5 L 782.2,122.4 L 776.1,127.4 z " font-size="12px" fill="#fdc605" fill-rule="evenodd" stroke-width="1pt"/>
    <path d="M 783.3,130.0 C 783.3,130.1 777.4,135.3 777.5,135.4 C 778.5,135.1 791.4,132.9 791.4,132.8 C 791.3,132.8 783.4,130.1 783.3,130.0 z " font-size="12px" fill="#fdc605" fill-rule="evenodd" stroke-width="1pt"/>
    <path d="M 553.7,125.4 C 563.1,120.9 573.7,117.3 584.8,115.8 C 595.5,114.3 606.3,114.1 617.3,114.2 C 617.3,114.2 618.7,131.0 618.7,131.2 C 610.1,131.2 603.6,131.1 588.4,133.0 C 573.2,135.1 566.9,137.0 557.7,140.5 L 553.7,125.4 z " font-size="12px" fill="#e6141d" fill-rule="evenodd" stroke="#e6141d" stroke-width="0.434pt"/>
    <path d="M 561.8,155.2 C 561.6,155.2 566.5,173.0 566.5,173.0 C 575.6,170.7 584.8,169.0 594.0,167.7 C 603.2,166.4 613.0,165.7 621.9,165.1 L 620.3,147.7 C 610.9,147.1 600.2,147.1 590.5,148.4 C 580.8,149.7 571.4,151.9 561.8,155.2 z " font-size="12px" fill="#e6141d" fill-opacity="0.996081" fill-rule="evenodd" stroke="#e6141d" stroke-width="0.434pt"/>
    <path d="M 518.5,210.2 L 781.4,210.2 L 781.4,378.8 C 774.7,444.4 711.6,493.5 654.0,493.1 C 591.7,495.9 522.9,444.9 517.9,378.2 L 518.5,210.2 z " font-size="12px" fill="#ffffff" fill-rule="evenodd" stroke="#e5141d" stroke-width="1.739"/>
    <path d="M 524.0,216.1 L 775.9,216.1 L 775.9,377.7 C 769.5,440.6 709.0,487.6 653.8,487.2 C 594.1,489.9 528.2,441.0 523.4,377.1 L 524.0,216.1 z " font-size="12px" fill="#d61517" fill-rule="evenodd" stroke="#e5141d" stroke-width="1.666"/>
    <rect y="217.04602" x="574.77161" width="50.097061" ry="0" height="53.845951" font-size="12px" fill="#ffffff" fill-rule="evenodd" stroke-width="1pt"/>
    <path d="M 725.3,378.8 L 725.3,432.1 L 753.6,432.2 C 767.2,411.7 773.2,391.7 774.5,378.8 C 774.2,378.8 725.5,378.8 725.3,378.8 z " font-size="12px" fill="#ffffff" fill-rule="evenodd" stroke="#ffffff" stroke-width="0.445pt"/>
    <path d="M 675.2,432.6 L 675.2,483.8 C 696.9,479.4 714.7,468.5 724.8,461.2 L 724.7,432.6 L 675.2,432.6 z " font-size="12px" fill="#ffffff" fill-rule="evenodd" stroke="#ffffff" stroke-width="0.441pt"/>
    <path d="M 575.1,432.6 L 575.2,461.2 C 592.2,473.2 611.7,480.5 624.7,483.3 L 624.5,432.6 L 575.1,432.6 z " font-size="12px" fill="#ffffff" fill-rule="evenodd" stroke="#ffffff" stroke-width="0.441pt"/>
    <path d="M 524.9,378.8 C 526.5,399.7 535.9,418.4 545.2,431.4 L 574.4,432.1 L 574.4,378.8 L 524.9,378.8 z " font-size="12px" fill="#ffffff" fill-rule="evenodd" stroke="#ffffff" stroke-width="0.445pt"/>
    <rect y="270.89209" x="524.67444" width="50.097061" ry="0" height="53.845951" font-size="12px" fill="#ffffff" fill-rule="evenodd" stroke-width="1pt"/>
    <rect y="270.89209" x="624.86884" width="50.097061" ry="0" height="53.845951" font-size="12px" fill="#ffffff" fill-rule="evenodd" stroke-width="1pt"/>
    <rect y="216.80077" x="674.96576" width="50.097061" ry="0" height="53.845951" font-size="12px" fill="#ffffff" fill-rule="evenodd" stroke-width="1pt"/>
    <rect y="270.89209" x="725.06305" width="50.097061" ry="0" height="53.845951" font-size="12px" fill="#ffffff" fill-rule="evenodd" stroke-width="1pt"/>
    <rect y="324.7381" x="574.77161" width="50.097061" ry="0" height="53.845951" font-size="12px" fill="#ffffff" fill-rule="evenodd" stroke-width="1pt"/>
    <rect y="324.7381" x="674.96576" width="50.097061" ry="0" height="53.845951" font-size="12px" fill="#ffffff" fill-rule="evenodd" stroke-width="1pt"/>
    <rect y="378.58414" x="624.86884" width="50.097061" ry="0" height="53.845951" font-size="12px" fill="#ffffff" fill-rule="evenodd" stroke-width="1pt"/>
  </g>
</svg>
