<?xml version="1.0" encoding="UTF-8" standalone="no"?>
<svg
  xmlns="http://www.w3.org/2000/svg" version="1.1"
  xmlns:xlink="http://www.w3.org/1999/xlink"
  width="1200" height="600" viewBox="0 0 120 60">

<clipPath id="l">
 <rect width="20" height="60"/>
</clipPath>
<clipPath id="r">
 <rect width="20" height="60" x="20"/>
</clipPath>
<clipPath id="c">
 <circle cx="20" cy="39" r="5"/>
</clipPath>

<rect id="red_background" width="120" height="60" fill="#DC171C"/>
<rect id="blue_stripe" width="40" height="60" fill="#47AECF" x="40"/>


<g fill="#FBEA0F">

<circle id="lower_bow_of_crescent" cx="20" cy="20.5" r="5.5"/>
<circle id="upper_bow_of_crescent" cx="20" cy="18" r="6" fill="#DC171C"/>
<circle id="upper_circle" cx="20" cy="19" r="4"/>

<path id="flame" d="M 19.902523,6.0470194 C 19.141323,6.5993309 19.711943,7.4884425 19.655963,7.962157 C 19.595552,8.473334 19.341037,8.5766863 19.225917,8.9942662 C 19.079901,9.5239157 19.151846,10.072597 19.260321,10.290138 C 19.358851,10.487734 19.431317,10.660283 19.466743,10.811927 C 19.469521,10.823822 19.475947,10.834657 19.478211,10.84633 C 19.479022,10.848945 19.477442,10.855167 19.478211,10.857798 C 19.478466,10.859248 19.477963,10.862088 19.478211,10.863532 C 19.479334,10.867494 19.482919,10.871 19.483945,10.875 C 19.485998,10.883 19.488017,10.889787 19.489679,10.897936 C 19.490094,10.899974 19.489288,10.901624 19.489679,10.90367 C 19.489963,10.906031 19.489418,10.907053 19.489679,10.909404 C 19.489971,10.911048 19.489402,10.913488 19.489679,10.915138 C 19.494239,10.942356 19.501169,10.966897 19.501147,10.995413 C 19.501363,11.271939 19.273086,11.5 18.99656,11.5 C 18.720033,11.500002 18.49749,11.271939 18.497706,10.995413 C 18.497703,10.991094 18.497602,10.98824 18.497706,10.983945 C 18.497813,10.979651 18.497494,10.976745 18.497706,10.972477 C 18.497941,10.967783 18.503077,10.96567 18.50344,10.961009 C 18.503539,10.959739 18.503332,10.956543 18.50344,10.955275 C 18.503602,10.9526 18.503235,10.946475 18.50344,10.943807 C 18.503653,10.941705 18.503202,10.940171 18.50344,10.938073 C 18.503688,10.935415 18.50315,10.934993 18.50344,10.932339 C 18.503969,10.928163 18.502811,10.925017 18.50344,10.920872 C 18.504431,10.912941 18.507829,10.905802 18.509174,10.897936 C 18.509589,10.895899 18.508734,10.894231 18.509174,10.892202 C 18.509417,10.890895 18.508923,10.887774 18.509174,10.886468 C 18.509547,10.884853 18.508787,10.882343 18.509174,10.880734 C 18.509697,10.878127 18.514349,10.877602 18.514908,10.875 C 18.515422,10.873 18.514371,10.871257 18.514908,10.869266 C 18.516097,10.864075 18.519316,10.857233 18.520642,10.852064 C 18.520998,10.850886 18.520277,10.847506 18.520642,10.84633 C 18.521688,10.842462 18.525259,10.838721 18.526376,10.834862 C 18.527494,10.831006 18.525189,10.821509 18.526376,10.817661 C 18.606363,10.558663 18.842558,10.325498 18.841743,9.9862386 C 18.840662,9.5373689 18.537422,9.3119597 18.469037,9.1720184 C 18.420833,9.0733561 18.34178,8.796679 18.457569,8.5183487 C 18.246048,8.778635 18.008971,8.9777671 18.010321,9.2637616 C 18.011328,9.4774129 18.130516,9.6922148 18.119266,10.003441 C 18.106215,10.364551 17.52145,10.5958 17.5,11.5 C 17.5,12.881866 18.618136,14.000002 20,14 C 21.381864,14 22.5,12.881866 22.5,11.5 C 22.47855,10.5958 21.893785,10.364551 21.880734,10.003441 C 21.869484,9.6922148 21.98867,9.4774129 21.989679,9.2637616 C 21.991029,8.9777671 21.753952,8.778635 21.542431,8.5183487 C 21.65822,8.796679 21.579165,9.0733561 21.530963,9.1720184 C 21.462578,9.3119597 21.159338,9.5373689 21.158257,9.9862386 C 21.157442,10.325498 21.393637,10.558663 21.473624,10.817661 C 21.474198,10.819189 21.473062,10.821861 21.473624,10.823394 C 21.474013,10.824679 21.473244,10.827844 21.473624,10.829128 C 21.474301,10.831057 21.472969,10.832925 21.473624,10.834862 C 21.474741,10.838721 21.478312,10.842462 21.479358,10.84633 C 21.481448,10.854068 21.483308,10.861479 21.485092,10.869266 C 21.487778,10.879218 21.488749,10.88775 21.490826,10.897936 C 21.491721,10.90318 21.495818,10.909866 21.49656,10.915138 C 21.498169,10.925051 21.495541,10.933708 21.49656,10.943807 C 21.496971,10.949143 21.496323,10.95564 21.49656,10.961009 C 21.496923,10.96567 21.502059,10.967783 21.502294,10.972477 C 21.502319,10.973828 21.502279,10.976861 21.502294,10.978211 C 21.502372,10.980352 21.50224,10.981798 21.502294,10.983945 C 21.502398,10.98824 21.502297,10.991094 21.502294,10.995413 C 21.50251,11.271939 21.279967,11.5 21.00344,11.5 C 20.787406,11.500002 20.603334,11.35918 20.533257,11.167431 C 20.532695,11.165897 20.533804,11.163239 20.533257,11.161697 C 20.514694,11.109305 20.498807,11.054176 20.498853,10.995413 C 20.498829,10.965169 20.505202,10.938174 20.510321,10.909404 C 20.511053,10.905295 20.50949,10.902011 20.510321,10.897936 C 20.511651,10.891417 20.514475,10.88716 20.516055,10.880734 C 20.516974,10.875617 20.520765,10.868631 20.521789,10.863532 C 20.522912,10.859572 20.520572,10.850251 20.521789,10.84633 C 20.522914,10.841251 20.526303,10.839921 20.527523,10.834862 C 20.529488,10.829046 20.531086,10.82338 20.533257,10.817661 C 20.533694,10.815984 20.532811,10.813604 20.533257,10.811927 C 20.581042,10.632582 20.683083,10.468461 20.728211,10.347478 C 20.809431,10.129729 20.977646,9.7717799 20.974771,9.3153671 C 20.9726,8.9706478 20.89191,8.1989359 20.470183,7.6009184 C 20.132815,7.1225276 19.914431,6.917299 19.799312,6.608946 C 19.740613,6.4517473 19.787106,6.2489087 19.902523,6.0470194 z"/>

<rect id="left_beam" x="9" y="27" width="5" height="24"/>
<rect id="right_beam" x="26" y="27" width="5" height="24"/>

<path id="upper_triangle" d="M15,27 h10 l-5,3"/>
<rect id="upper_crossbeam" x="15" y="31" width="10" height="2"/>
<rect id="lower_crossbeam" x="15" y="45" width="10" height="2"/>
<path id="lower_triangle" d="M15,48 h10 l-5,3"/>

<circle id="background_circle_of_yin_yang" cx="20" cy="39" r="5"/>

<g clip-path="url(#c)">
 <g clip-path="url(#r)">
  <circle cx="20" cy="36.35" r="2.85" fill="#DC171C"/>
 </g>
 <circle cx="20" cy="36.35" r="2.45"/>
 <circle cx="20" cy="36.35" r="1" fill="#DC171C"/>

 <g clip-path="url(#l)">
  <circle cx="20" cy="41.65" r="2.85" fill="#DC171C"/>
 </g>
 <circle cx="20" cy="41.65" r="2.45"/>
 <circle cx="20" cy="41.65" r="1" fill="#DC171C"/>
 </g>
</g>
</svg>