<?xml version="1.0" encoding="UTF-8" standalone="no"?>
<svg xmlns:dc="http://purl.org/dc/elements/1.1/" xmlns:cc="http://web.resource.org/cc/" xmlns:rdf="http://www.w3.org/1999/02/22-rdf-syntax-ns#" xmlns:svg="http://www.w3.org/2000/svg" xmlns="http://www.w3.org/2000/svg" xmlns:xlink="http://www.w3.org/1999/xlink" height="375" id="svg548" width="750" version="1.0">
  <defs id="defs550">
    <linearGradient id="linearGradient795">
      <stop id="stop796" offset="0" stop-color="#d5dfff" stop-opacity="1.0000"/>
      <stop id="stop797" offset="1" stop-color="#ffffff" stop-opacity="1.0000"/>
    </linearGradient>
    <linearGradient id="linearGradient783">
      <stop id="stop784" offset="0" stop-color="#474747" stop-opacity="1.0000"/>
      <stop id="stop785" offset="1" stop-color="#ff5500" stop-opacity="1.0000"/>
    </linearGradient>
    <linearGradient id="linearGradient743">
      <stop id="stop744" offset="0.000000" stop-color="#b50000" stop-opacity="1"/>
      <stop id="stop745" offset="1.000000" stop-color="#ffc500" stop-opacity="1"/>
    </linearGradient>
    <linearGradient id="linearGradient746" xlink:href="#linearGradient783" gradientTransform="matrix(0.740869,0,0,1.328594,40.5128,6.106867e-3)" x1="215.82897" y1="102.98727" x2="228.969" y2="102.98727" gradientUnits="userSpaceOnUse"/>
    <linearGradient id="linearGradient747" x1="109.3391" x2="110.93898" xlink:href="#linearGradient783" y1="218.47326" y2="173.44768" gradientTransform="matrix(1.510058,0,0,0.651839,40.5128,6.106867e-3)" gradientUnits="userSpaceOnUse"/>
    <linearGradient id="linearGradient748" x1="125.91286" x2="126.02406" xlink:href="#linearGradient743" y1="316.38286" y2="337.23196" gradientTransform="matrix(1.231497,0,0,0.799282,40.5128,6.106867e-3)" gradientUnits="userSpaceOnUse"/>
    <linearGradient id="linearGradient794" x1="117.59699" x2="78.22148" xlink:href="#linearGradient795" y1="1040.3961" y2="1003.724" gradientTransform="matrix(2.562722,0,0,0.38409,40.5128,6.106867e-3)" gradientUnits="userSpaceOnUse"/>
    <linearGradient id="linearGradient800" x1="264.71708" x2="255.03038" xlink:href="#linearGradient795" y1="245.97613" y2="226.37788" gradientTransform="matrix(0.886342,0,0,1.110535,40.5128,6.106867e-3)" gradientUnits="userSpaceOnUse"/>
    <linearGradient id="linearGradient801" x1="407.87428" x2="456.40449" xlink:href="#linearGradient795" y1="149.37547" y2="147.34778" gradientTransform="matrix(0.559036,0,0,1.760734,40.5128,6.106867e-3)" gradientUnits="userSpaceOnUse"/>
  </defs>
  <sodipodi:namedview id="base"/>
  <g transform="matrix(0.755952,0,0,0.755952,0,-1.772962e-5)">
    <rect height="496.06296" width="992.12598" x="0" y="3.8999999e-005" font-size="12px" fill="#000066" stroke-width="1pt"/>
    <g transform="matrix(8.267717,0,0,8.267722,0,2.288818e-5)" font-size="12px">
      <path d="M 0,0 L 0,3.3541 L 53.2918,30 L 60,30 L 60,26.6459 L 6.7082,0 L 0,0 z M 60,0 L 60,3.35405 L 6.7082,30 L 0,30 L 0,26.6458 L 53.2918,0 L 60,0 z " font-size="12px" fill="#ffffff" stroke-width="1pt"/>
      <path d="M 25,0 L 25,30 L 35,30 L 35,0 L 25,0 z M 0,10 L 0,20 L 60,20 L 60,10 L 0,10 z " font-size="12px" fill="#ffffff" stroke-width="1pt"/>
      <path d="M 0,12 L 0,18 L 60,18 L 60,12 L 0,12 z M 27,0 L 27,30 L 33,30 L 33,0 L 27,0 z " font-size="12px" fill="#cc0000" stroke-width="1pt"/>
      <path d="M 0,30 L 20,20 L 24.4721,20 L 4.47214,30 L 0,30 z M 0,0 L 20,10 L 15.5279,10 L 0,2.23607 L 0,0 z M 35.5279,10 L 55.5279,0 L 60,0 L 40,10 L 35.5279,10 z M 60,30 L 40,20 L 44.4721,20 L 60,27.7639 L 60,30 z " font-size="12px" fill="#cc0000" stroke-width="1pt"/>
    </g>
  </g>
  <g transform="matrix(0.621005,0,0,0.621004,461.4003,21.4823)">
    <path d="M 146.9,393.0 C 146.9,393.0 143.6,401.8 141.7,401.8 C 139.7,401.8 132.8,398.0 132.8,398.0 C 132.8,398.0 127.8,406.1 125.2,406.6 C 122.5,407.1 115.6,405.4 115.6,405.4 C 115.6,405.4 108.9,405.4 108.7,404.5 C 108.4,403.5 108.9,401.6 108.9,401.6 C 108.9,401.6 99.41,409.2 97.26,408.8 C 95.11,408.3 87.94,399.2 87.94,399.2 L 86.74,404.0 L 73.12,403.5 L 61.17,395.9 C 61.17,395.9 54.48,406.9 54.24,406.6 C 54.00,406.4 42.53,409.2 42.53,409.2 L 41.81,407.1 L 34.17,402.6 C 34.17,402.6 40.14,394.2 40.14,393.9 C 40.14,393.7 37.27,392.8 37.27,392.8 L 32.97,396.3 L 24.13,402.1 L 15.29,398.0 L 19.11,390.8 L 19.59,385.6 L 26.52,375.1 L 111.3,292.6 L 153.1,369.8 L 146.9,393.0 z " fill="#6a4c2d" fill-opacity="1" fill-rule="evenodd" stroke="#000000" stroke-width="1pt" stroke-linecap="butt" stroke-linejoin="miter" stroke-opacity="1"/>
    <path d="M 207.2,398.0 L 229.3,397.2 L 219.9,392.6 L 304.0,389.4 L 292.1,384.9 L 281.6,370.6 L 238.0,367.3 C 238.0,367.3 234.7,364.8 229.4,366.1 C 229.2,362.7 225.1,358.2 225.1,358.2 L 198.2,356.2 L 181.5,367.6 L 192.8,396.6 L 207.2,398.0 z " fill="#ffffff" fill-opacity="1" fill-rule="evenodd" stroke="#000000" stroke-width="1pt" stroke-linecap="butt" stroke-linejoin="miter" stroke-opacity="1"/>
    <path d="M 121.3,150.7 L 123.5,143.1 C 123.5,143.1 127.4,136.6 127.4,133.7 C 127.4,130.8 130.3,127.4 130.3,127.4 C 130.3,127.4 139.2,124.8 141.1,130.2 C 150.6,115.8 161.9,129.6 161.9,129.6 L 165.0,125.9 L 171.3,118.1 C 171.3,118.1 180.3,126.6 180.4,128.0 C 180.5,129.5 182.0,128.5 182.0,128.5 L 191.8,127.7 C 191.8,127.7 196.4,131.3 195.4,138.3 C 198.9,140.3 202.0,152.3 202.0,152.3 L 121.3,150.7 z " fill="url(#linearGradient747)" fill-opacity="1" fill-rule="evenodd" stroke="#000000" stroke-width="1pt" stroke-linecap="butt" stroke-linejoin="miter" stroke-opacity="1"/>
    <path d="M 207.2,240.7 C 208.9,239.6 214.2,238.0 213.6,230.2 C 212.9,222.4 206.2,221.5 202.4,221.7 C 198.6,222.0 195.3,225.2 195.3,225.2 L 182.8,217.3 C 182.8,217.3 189.0,178.0 195.7,175.6 C 201.9,171.0 203.1,169.1 203.1,168.0 C 203.1,167.0 200.7,164.4 200.7,164.4 L 160.1,159.6 L 121.7,164.2 C 121.7,164.2 118.8,168.7 119.1,170.5 C 119.5,172.3 119.7,174.3 126.5,179.6 C 134.1,185.4 139.4,219.0 139.4,219.0 C 139.4,219.0 128.6,224.3 128.0,223.7 C 127.3,223.0 124.1,222.4 122.4,222.6 C 120.7,222.9 115.1,225.8 115.1,233.2 C 115.1,240.5 120.7,244.8 120.7,244.8 C 120.7,244.8 157.4,240.5 162.8,250.7 C 168.2,238.5 203.1,242.7 207.2,240.7 z " fill="#656263" fill-opacity="1" fill-rule="evenodd" stroke="#000000" stroke-width="1pt" stroke-linecap="butt" stroke-linejoin="miter" stroke-opacity="1"/>
    <path d="M 246.7,199.8 C 246.7,199.8 247.1,195.6 250.2,193.5 C 253.2,191.5 273.6,190.5 278.4,193.5 C 283.3,196.6 285.1,211.6 285.1,211.6 C 285.1,211.6 288.2,216.9 288.4,220.7 C 288.6,224.6 289.0,227.2 289.0,227.2 C 289.0,227.2 305.2,248.4 305.4,267.5 C 307.3,280.5 306.9,315.2 301.8,328.4 C 301.6,344.8 294.7,355.6 294.7,355.6 C 294.7,355.6 296.3,358.5 296.1,361.5 C 295.9,364.5 294.3,367.4 294.3,367.4 L 318.0,379.2 L 309.3,375.9 C 309.3,375.9 318.2,383.4 318.0,383.2 C 317.8,383.0 308.1,378.6 308.1,378.6 C 308.1,378.6 314.2,384.7 314.0,384.5 C 313.8,384.3 299.6,378.0 299.6,378.0 C 299.6,378.0 306.3,384.3 305.8,384.0 C 305.4,383.8 295.1,379.0 295.1,379.0 C 295.1,379.0 301.6,385.9 301.4,385.5 C 301.2,385.1 292.0,381.4 292.0,381.4 L 292.4,384.9 C 292.4,384.9 285.1,384.5 285.1,379.0 C 281.5,376.9 279.0,374.1 279.0,374.1 L 262.2,371.3 L 243.1,314.2 L 247.6,217.7 L 248.8,212.8 L 246.7,199.8 z " fill="#000000" fill-opacity="1" fill-rule="evenodd" stroke="#000000" stroke-width="1.25" stroke-linecap="butt" stroke-linejoin="round" stroke-dasharray="none" stroke-opacity="0.978541"/>
    <path d="M 234.0,508.2 C 234.0,508.2 224.2,487.6 219.3,487.3 C 214.9,478.9 234.6,410.3 272.7,406.4 C 293.6,408.1 274.4,430.6 260.7,423.7 C 262.4,429.7 269.3,438.3 269.3,438.3 C 269.3,438.3 242.0,450.1 234.0,508.2 z " font-size="12px" fill="#ffbb00" fill-opacity="1" fill-rule="evenodd" stroke="#000000" stroke-width="0.993pt"/>
    <path d="M 102.9,511.1 C 102.9,511.1 111.0,487.7 115.9,487.4 C 120.8,487.2 102.9,409.4 63.88,408.8 C 42.78,410.5 62.15,433.1 76.02,426.2 C 74.29,432.2 67.35,440.9 67.35,440.9 C 67.35,440.9 94.81,452.8 102.9,511.1 z " fill="#ffbb00" fill-opacity="1" fill-rule="evenodd" stroke="#000000" stroke-width="1pt" stroke-linecap="butt" stroke-linejoin="miter" stroke-opacity="1"/>
    <g>
      <path d="M 138.7,364.9 C 138.6,364.7 129.0,367.9 135.2,378.3 C 135.6,374.3 140.0,371.8 140.0,371.8 C 140.0,371.8 133.4,379.6 140.4,386.2 C 141.2,380.0 145.1,378.0 145.1,378.0 C 145.1,378.0 140.3,392.4 145.2,395.4 C 145.8,389.6 149.5,387.1 149.5,387.1 C 149.5,387.1 145.1,400.0 149.0,402.9 C 149.5,398.0 152.8,395.8 152.8,395.8 C 152.8,395.8 150.8,409.2 156.0,410.1 C 156.1,405.4 159.8,400.8 159.8,400.8 C 159.8,400.8 158.1,411.7 166.2,412.2 C 166.3,408.0 167.8,403.3 167.8,403.3 C 167.8,403.3 171.5,414.9 176.8,413.0 C 176.7,409.6 176.9,403.3 176.8,403.3 C 176.7,403.3 180.2,414.3 186.6,412.2 C 185.7,409.1 187.0,405.4 187.0,405.4 C 187.0,405.4 190.4,412.3 196.5,410.0 C 197.5,408.0 196.2,403.9 196.2,403.9 C 196.2,403.9 205.1,413.1 207.9,407.6 C 210.6,402.0 200.7,400.1 200.7,400.1 L 207.4,400.1 C 207.4,400.1 205.2,394.5 196.2,393.3 C 199.3,391.9 202.5,392.9 202.5,392.9 C 202.5,392.9 200.6,385.9 191.4,385.1 C 195.0,383.9 198.9,384.7 198.9,384.7 C 198.9,384.7 197.7,378.0 187.6,376.2 C 189.2,374.4 193.5,374.9 193.5,374.9 C 193.5,374.9 189.4,368.6 184.8,369.0 C 180.2,369.4 138.6,364.8 138.7,364.9 z " fill="#00713d" fill-opacity="1" fill-rule="evenodd" stroke="#000000" stroke-width="1pt" stroke-linecap="butt" stroke-linejoin="miter" stroke-opacity="1"/>
      <g>
        <path d="M 179.8,398.8 C 179.8,398.8 183.4,400.6 183.3,402.2" fill="none" fill-opacity="1" fill-rule="evenodd" stroke="#3ec26d" stroke-width="1.25" stroke-linecap="round" stroke-linejoin="miter" stroke-dasharray="none" stroke-opacity="1"/>
        <path d="M 181.9,395.9 C 181.9,395.9 186.6,399.2 186.5,401.7" fill="none" fill-opacity="1" fill-rule="evenodd" stroke="#3ec26d" stroke-width="1.25" stroke-linecap="round" stroke-linejoin="miter" stroke-dasharray="none" stroke-opacity="1"/>
        <path d="M 186.1,394.2 C 186.1,394.2 189.8,396.6 190.0,400.2" fill="none" fill-opacity="1" fill-rule="evenodd" stroke="#3ec26d" stroke-width="1.25" stroke-linecap="round" stroke-linejoin="miter" stroke-dasharray="none" stroke-opacity="1"/>
        <path d="M 192.4,395.7 C 192.4,395.7 194.2,399.8 193.6,400.5" fill="none" fill-opacity="1" fill-rule="evenodd" stroke="#3ec26d" stroke-width="1.25" stroke-linecap="round" stroke-linejoin="miter" stroke-dasharray="none" stroke-opacity="1"/>
        <path d="M 196.1,397.9 C 196.4,401.1 195.8,401.4 195.8,401.4" fill="none" fill-opacity="1" fill-rule="evenodd" stroke="#3ec26d" stroke-width="1.25" stroke-linecap="round" stroke-linejoin="miter" stroke-dasharray="none" stroke-opacity="1"/>
        <path d="M 149.8,377.7 C 149.8,377.7 154.2,380.5 153.8,384.4" font-size="12px" fill="none" fill-rule="evenodd" stroke="#3ec26d" stroke-width="1.25" stroke-linecap="round" stroke-dasharray="none"/>
        <path d="M 149.5,381.1 C 149.5,381.1 151.5,383.0 151.1,384.3" font-size="12px" fill="none" fill-rule="evenodd" stroke="#3ec26d" stroke-width="1.25" stroke-linecap="round" stroke-dasharray="none"/>
        <path d="M 154.9,377.8 C 154.9,377.8 157.8,381.8 156.9,384.6" font-size="12px" fill="none" fill-rule="evenodd" stroke="#3ec26d" stroke-width="1.25" stroke-linecap="round" stroke-dasharray="none"/>
        <path d="M 159.9,380.4 C 159.9,380.4 161.2,382.9 160.0,384.3" font-size="12px" fill="none" fill-rule="evenodd" stroke="#3ec26d" stroke-width="1.25" stroke-linecap="round" stroke-dasharray="none"/>
        <path d="M 162.3,381.6 C 162.3,381.6 163.9,384.2 162.5,385.057" font-size="12px" fill="none" fill-rule="evenodd" stroke="#3ec26d" stroke-width="1.25" stroke-linecap="round" stroke-dasharray="none"/>
        <path d="M 160.5,390.0 C 160.5,390.0 164.6,390.9 165.2,394.0" font-size="12px" fill="none" fill-rule="evenodd" stroke="#3ec26d" stroke-width="1.25" stroke-linecap="round" stroke-dasharray="none"/>
        <path d="M 162.9,387.2 C 162.9,387.2 167.2,387.5 167.7,392.1" font-size="12px" fill="none" fill-rule="evenodd" stroke="#3ec26d" stroke-width="1.25" stroke-linecap="round" stroke-dasharray="none"/>
        <path d="M 168.7,385.6 C 168.8,385.6 171.6,390.6 171.1,392.2" font-size="12px" fill="none" fill-rule="evenodd" stroke="#3ec26d" stroke-width="1.25" stroke-linecap="round" stroke-dasharray="none"/>
        <path d="M 174.2,386.0 C 174.2,386.0 175.3,390.8 174.5,392.3" font-size="12px" fill="none" fill-rule="evenodd" stroke="#3ec26d" stroke-width="1.25" stroke-linecap="round" stroke-dasharray="none"/>
        <path d="M 177.8,387.9 C 177.8,388.0 177.9,393.5 177.9,393.5" font-size="12px" fill="none" fill-rule="evenodd" stroke="#3ec26d" stroke-width="1.25" stroke-linecap="round" stroke-dasharray="none"/>
        <path d="M 172.3,380.4 C 172.3,380.4 175.1,381.4 174.9,384.1" font-size="12px" fill="none" fill-rule="evenodd" stroke="#3ec26d" stroke-width="1.25" stroke-linecap="round" stroke-dasharray="none"/>
        <path d="M 174.9,378.0 C 174.9,378.0 178.3,379.9 178.0,383.7" font-size="12px" fill="none" fill-rule="evenodd" stroke="#3ec26d" stroke-width="1.25" stroke-linecap="round" stroke-dasharray="none"/>
        <path d="M 178.9,376.4 C 178.9,376.4 181.9,379.9 180.8,383.9" font-size="12px" fill="none" fill-rule="evenodd" stroke="#3ec26d" stroke-width="1.25" stroke-linecap="round" stroke-dasharray="none"/>
        <path d="M 184.2,377.2 C 184.2,377.2 183.0,381.6 183.5,383.4" font-size="12px" fill="none" fill-rule="evenodd" stroke="#3ec26d" stroke-width="1.25" stroke-linecap="round" stroke-dasharray="none"/>
        <path d="M 187.4,380.2 C 187.4,380.2 185.4,381.7 186.4,383.6" font-size="12px" fill="none" fill-rule="evenodd" stroke="#3ec26d" stroke-width="1.25" stroke-linecap="round" stroke-dasharray="none"/>
        <path d="M 170.3,397.4 C 170.3,397.4 170.9,400.8 170.3,401.4" font-size="12px" fill="none" fill-rule="evenodd" stroke="#3ec26d" stroke-width="1.25" stroke-linecap="round" stroke-dasharray="none"/>
        <path d="M 165.9,395.4 C 165.9,395.4 168.1,399.2 167.3,401.1" font-size="12px" fill="none" fill-rule="evenodd" stroke="#3ec26d" stroke-width="1.25" stroke-linecap="round" stroke-dasharray="none"/>
        <path d="M 161.3,395.3 C 161.3,395.3 163.8,398.1 163.7,400.3" font-size="12px" fill="none" fill-rule="evenodd" stroke="#3ec26d" stroke-width="1.25" stroke-linecap="round" stroke-dasharray="none"/>
        <path d="M 157.6,395.8 C 157.6,395.8 159.8,398.0 159.6,399.2" font-size="12px" fill="none" fill-rule="evenodd" stroke="#3ec26d" stroke-width="1.25" stroke-linecap="round" stroke-dasharray="none"/>
        <path d="M 155.6,399.1 C 155.6,399.1 157.7,401.4 157.7,401.8" font-size="12px" fill="none" fill-rule="evenodd" stroke="#3ec26d" stroke-width="1.25" stroke-linecap="round" stroke-dasharray="none"/>
      </g>
    </g>
    <path d="M 108.8,244.7 C 119.2,244.5 129.5,244.4 139.9,244.2 C 139.9,244.2 160.5,244.2 162.7,250.8 C 166.6,242.0 184.4,242.558 184.4,242.558 C 195.1,242.1 205.8,241.8 216.6,241.4 C 216.7,267.3 216.9,293.2 217.1,319.2 C 210.8,349.3 189.0,370.6 164.9,379.7 C 136.2,370.4 118.1,346.2 112.1,318.6 C 111.0,294.0 109.9,269.4 108.8,244.7 z " fill="#ffffff" fill-opacity="1" fill-rule="evenodd" stroke="#000000" stroke-width="1pt" stroke-linecap="butt" stroke-linejoin="miter" stroke-opacity="1"/>
    <path d="M 119.9,244.4 L 165.2,365.2 L 206.1,241.8 C 193.4,242.6 166.2,239.8 162.8,251.4 C 157.6,241.0 128.9,245.2 119.9,244.4 z " fill="#006b00" fill-opacity="1" fill-rule="evenodd" stroke="#000000" stroke-width="1pt" stroke-linecap="butt" stroke-linejoin="miter" stroke-opacity="1"/>
    <path d="M 150.7,309.8 C 152.5,310.7 152.4,277.0 154.7,276.0 C 155.4,273.2 155.7,272.0 156.5,269.0 C 154.6,265.5 145.7,265.7 142.5,268.7 C 143.9,273.4 144.6,275.0 144.6,275.0 C 149.0,282.1 148.1,310.6 150.7,309.8 z " font-size="12px" fill="#ffc900" fill-rule="evenodd" stroke="#006b00" stroke-width="0.689" stroke-linecap="round"/>
    <path d="M 138.6,49.54 C 138.6,49.54 141.8,45.91 141.9,45.03 C 142.1,44.16 156.5,43.58 165.1,27.57 C 169.9,19.14 165.1,24.08 165.1,24.08 L 164.8,20.01 C 164.8,20.01 170.7,14.34 168.6,11.28 C 166.4,8.230 167.1,15.21 163.6,15.06 C 160.1,14.92 162.0,7.502 162.0,7.502 C 162.0,7.502 161.7,6.630 160.7,6.193 C 159.3,6.339 159.7,8.957 158.4,9.248 C 157.1,9.539 155.9,3.138 155.9,3.138 C 155.9,3.138 153.7,0.228 151.8,9.394 C 152.9,19.14 159.1,17.25 159.1,23.65 C 159.1,30.05 153.6,34.99 152.0,35.14 C 150.4,35.29 151.0,29.76 151.0,29.76 C 151.0,29.76 150.1,27.14 149.5,27.14 C 148.9,27.14 152.7,26.56 152.1,19.28 C 150.8,10.55 149.8,21.32 147.5,20.88 C 145.1,20.45 146.9,12.88 147.8,12.01 C 148.684,11.14 146.7,7.502 141.7,16.8139 C 141.2,21.32 140.6,15.64 139.6,15.94 C 137.9,19.57 138.2,22.19 140.6,25.54 C 144.3,28.88 146.6,32.23 146.5,33.98 C 146.3,35.72 144.4,39.65 141.8,39.65 C 139.2,39.65 141.9,34.85 141.8,33.25 C 141.7,31.6531 137.3,25.83 137.3,25.83 C 137.3,25.83 134.2,20.88 134.5,20.74 C 134.8,20.59 134.2,19.86 132.8,24.96 C 131.3,30.05 129.6,21.61 129.6,21.61 C 129.6,21.61 127.5,27.87 131.9,31.65 C 128.6,31.21 128.3,32.52 128.3,32.52 C 128.3,34.27 132.8,34.99 133.4,38.05 C 133.9,41.10 128.7,42.85 128.7,42.85 C 128.7,42.85 130.9,45.91 137.0,39.94 C 137.1,43.72 134.7,46.34 134.7,46.34 C 136.7,47.26 138.3,47.17 138.6,49.54 z " fill="#cdad56" fill-opacity="1" fill-rule="evenodd" stroke="#000000" stroke-width="1.25" stroke-linecap="butt" stroke-linejoin="round" stroke-dasharray="none" stroke-opacity="1"/>
    <path d="M 118.6,49.54 C 118.6,49.54 115.9,45.51 115.8,44.71 C 115.7,43.92 102.4,45.72 96.19,29.55 C 92.11,21.87 96.19,26.38 96.19,26.38 L 96.43,22.67 C 96.43,22.67 92.1,17.3659 93.95,14.58 C 95.80,11.80 95.04,18.16 97.42,18.17 C 100.3,18.04 98.78,11.28 98.78,11.28 C 98.78,11.28 99.03,10.49 99.89,10.09 C 101.1,10.23 101.6,14.21 102.7,14.47 C 103.8,14.74 106.1,9.790 106.8,8.772 C 107.9,8.626 107.8,4.670 109.4,13.01 C 108.6,21.87 101.2,20.15 101.2,25.98 C 101.2,31.80 105.9,36.30 107.3,36.44 C 108.6,36.57 108.1,31.54 108.1,31.54 C 108.1,31.54 108.9,29.16 109.4,29.16 C 109.9,29.16 105.0,30.08 105.5,23.46 C 106.7,17.2701 109.1,23.86 111.1,23.46 C 113.1,23.07 110.9,16.91 111.4,15.97 C 111.6,15.03 114.5,10.99 115.6,19.90 C 116.0,24.01 118.2,16.37 119.1,16.63 C 120.6,19.94 118.4,24.36 116.3,27.41 C 113.2,30.45 111.8,33.79 112.0,35.38 C 112.1,36.97 112.8,38.94 115.0,38.94 C 117.3,38.94 115.8,36.17 115.9,34.72 C 116.0,33.26 119.7,28.55 119.7,28.55 C 120.5,27.38 119.9,25.21 120.6,24.20 C 121.8,24.22 122.3,22.54 123.6,27.17 C 124.8,31.80 126.3,24.13 126.3,24.13 C 126.3,24.13 128.0,29.82 124.3,33.26 C 127.2,32.86 127.4,34.05 127.4,34.05 C 127.4,35.64 126.0,36.30 125.6,39.0894 C 125.1,41.86 127.0,43.45 127.0,43.45 C 127.0,43.45 125.2,46.23 120.0,40.81 C 119.9,44.25 122.0,46.63 122.0,46.63 C 120.2,47.47 118.9,47.38 118.6,49.54 z " font-size="12px" fill="#cdad56" fill-opacity="1" fill-rule="evenodd" stroke="#000000" stroke-width="1.098" stroke-linejoin="round"/>
    <path d="M 198.6,262.5 C 195.9,260.0 195.5,262.1 194.2,261.6 C 193.6,261.3 193.0,260.7 192.5,260.1 C 192.0,259.6 191.4,259.4 190.7,259.2 C 190.5,259.9 190.2,260.6 190.0,261.3 C 189.8,262.1 190.7,263.3 190.7,264.4 C 190.5,266.0 189.8,267.3 187.8,267.9 C 188.4,266.7 188.7,266.7 188.5,265.3 C 188.4,264.6 186.5,263.3 186.7,262.7 C 187.1,261.6 187.7,260.4 187.2,259.3 C 186.4,259.9 185.3,259.6 184.5,259.9 C 183.8,260.2 183.7,261.5 182.7,262.1 C 181.7,262.6 179.5,262.3 177.7,261.3 C 178.8,260.4 179.7,261.0 180.9,260.1 C 181.4,259.7 181.4,257.9 182.011,257.5 C 182.5,257.0 183.9,256.6 184.4,256.1 C 183.9,255.6 184.0,254.6 183.5,254.1 C 182.9,253.5 180.7,253.6 180.2,253.0 C 179.2,251.9 179.4,250.4 178.4,249.2 C 181.0,250.1 180.6,251.4 181.3,251.3 C 182.5,250.7 183.7,250.6 184.4,250.9 C 185.0,251.2 186.3,252.8 186.9,253.1 C 187.2,252.3 187.5,251.4 187.8,250.7 C 188.0,250.0 186.7,248.7 186.9,248.0 C 187.4,246.5 188.7,245.269 189.1,243.8 C 189.3,245.2 189.6,246.3 189.7,247.8 C 189.8,248.5 191.2,248.8 191.3,249.5 C 191.4,250.2 190.6,251.9 190.7,252.6 C 191.4,252.4 192.5,252.5 193.3,252.4 C 194.0,252.2 194.5,250.5 195.3,250.3 C 196.8,250.0 197.9,250.1 199.4,250.4 C 198.3,251.4 197.4,251.4 196.7,252.3 C 196.1,252.8 196.9,254.2 195.3,255.2 C 194.7,255.5 193.0,255.1 192.5,255.5 C 193.0,256.1 193.5,256.7 194.0,257.3 C 194.5,257.8 196.8,258.1 197.3,258.7 C 198.3,259.8 198.8,261.2 198.6,262.5 z " font-size="12px" fill="#ffc900" fill-rule="evenodd" stroke-width="1pt"/>
    <path d="M 128.9,263.6 C 131.6,261.2 131.9,263.3 133.3,262.8 C 133.9,262.5 134.4,261.9 135.0,261.3 C 135.5,260.8 136.1,260.6 136.7,260.3 C 137.0,261.1 137.2,261.8 137.5,262.5 C 137.7,263.3 136.8,264.5 136.8,265.6 C 137.0,267.2 137.7,268.5 139.7,269.1 C 139.1,267.9 138.8,267.9 139.0,266.5 C 139.0,265.8 141.0,264.5 140.8,263.9 C 140.4,262.8 139.8,261.6 140.2,260.5 C 141.1,261.1 142.2,260.8 143.0,261.1 C 143.7,261.4 143.8,262.7 144.7,263.3 C 145.7,263.7 148.0,263.5 149.8,262.5 C 148.7,261.6 147.7,262.2 146.6,261.3 C 146.1,260.946 146.1,259.1 145.5,258.6 C 144.9,258.2 143.6,257.8 143.0,257.3 C 143.5,256.7 143.5,255.8 144.0,255.3 C 144.5,254.7 146.8,254.8 147.3,254.2 C 148.3,253.1 148.1,251.5 149.1,250.4 C 146.5,251.3 146.9,252.6 146.2,252.5 C 145.0,251.9 143.7,251.8 143.1,252.1 C 142.4,252.4 141.2,254.0 140.5,254.2 C 140.3,253.5 139.9,252.6 139.7,251.9 C 139.4,251.1 140.8,249.9 140.59,249.2 C 140.0,247.7 138.8,246.4 138.3,244.9 C 138.2,246.4 137.9,247.5 137.7,248.9 C 137.7,249.6 136.3,250.0 136.2,250.7 C 136.1,251.4 136.9,253.0 136.8,253.7 C 136.1,253.6 135.0,253.7 134.2,253.5 C 133.5,253.4 133.0,251.6 132.2,251.5 C 130.7,251.2 129.6,251.3 128.1,251.6 C 129.2,252.6 130.1,252.6 130.8,253.5 C 131.4,253.9 130.6,255.4 132.252,256.4 C 132.8,256.7 134.4,256.3 135.0,256.7 C 134.5,257.3 134.0,257.9 133.5,258.4 C 133.0,259.0 130.7,259.3 130.2,259.9 C 129.2,261.0 128.6,262.4 128.9,263.6 z " font-size="12px" fill="#ffc900" fill-rule="evenodd" stroke-width="1pt"/>
    <path d="M 196.1,270.2 C 193.7,272.1 177.875,276.2 177.7,289.9 C 177.5,303.7 180.4,306.8 177.5,307.2 C 171.8,307.2 171.0,291.8 171.1,285.0 C 171.3,278.2 171.4,279.3 171.4,279.3 C 171.4,279.3 175.4,280.3 175.0,283.6 C 174.7,287.0 179.0,275.5 177.5,272.3 C 180.1,274.9 183.5,273.9 183.5,273.7 C 183.5,273.5 181.6,271.4 180.8,269.9 C 180.0,268.3 183.7,270.7 183.7,270.7 C 183.7,270.7 183.9,268.1 180.6,268.3 C 176.4,268.3 181.3,266.9 181.3,266.9 C 181.3,266.9 183.7,269.2 185.3,266.7 C 183.5,264.8 180.9,263.8 180.9,263.8 C 180.9,263.8 178.6,259.4 175.5,258.5 C 171.9,257.7 172.4,260.1 168.3,259.8 C 167.5,261.3 167.5,261.5 169.2,262.0 C 166.432,264 167.9,267.8 167.9,267.8 C 167.9,267.8 172.3,265.9 172.1,269.0 C 171.9,272.1 169.5,271.6 167.9,269.7 C 166.4,268.8 165.9,270.6 165.9,270.6 L 168.2,273.0 C 168.2,273.0 163.8,272.8 162.6,275.8 C 165.1,275.6 166.4,276.3 166.4,276.3 C 166.4,276.3 161.3,278.6 160.8,279.8 C 160.3,281.0 160.2,278.4 160.0,278.4 C 159.8,278.4 155.1,276.7 155.1,276.7 L 153.5,284.2 C 153.5,284.2 156.7,287.5 158.5,286.4 C 160.3,285.4 163.6,282.3 165.6,283.1 C 159.8,287.5 154.1,293.8 151.0,294.6 C 150.2,293.9 147.4,291.1 146.3,292.5 C 145.1,293.9 145.9,295.7 147.4,295.5 C 148.9,295.3 142.7,296.9 144.0,299.5 C 145.3,302.1 145.1,301.9 146.323,301.3 C 147.4,300.6 145.3,300.4 149.5,299.2 C 153.8,297.9 153.6,296.7 153.6,296.7 C 153.6,296.7 152.8,298.6 150.5,299.2 C 148.2,299.7 146.4,299.7 146.9,300.4 C 147.4,301.1 148.4,302.3 148.1,303.0 C 147.7,303.7 152.8,299.3 154.1,302.8 C 157.6,302.6 159.8,298.5 158.2,296.0 C 158.4,298.6 160.0,299.5 159.0,300.7 C 158.0,301.9 166.7,296.7 162.5,293.6 C 163.6,296.2 163.8,298.3 163.8,298.3 C 163.8,298.3 165.7,298.1 166.2,297.4 C 166.7,296.7 165.2,299.3 165.9,299.9 C 166.5,300.4 169.7,303.3 168.3,305.4 C 167.5,304.2 167.4,302.3 166.4,302.5 C 165.4,302.6 161.3,305.6 158.9,305.8 C 156.4,306.0 161.8,314.8 161.8,314.8 C 161.8,314.8 158.0,314.3 157.6,314.7 C 157.1,315.0 154.6,311.5 154.1,313.6 C 153.3,316.2 154.9,315.2 154.9,315.2 C 154.9,315.2 152.8,314.1 151.7,315.4 C 150.5,316.6 149.4,317.8 150.2,318.3 C 151.0,318.9 154.6,318.9 155.1,318.7 C 155.6,318.5 151.0,319.0 150.7,319.6 C 150.4,320.1 149.7,322.0 150.7,322.7 C 151.7,323.4 154.1,322.3 154.3,321.8 C 154.4,321.3 154.6,323.7 154.6,323.7 C 154.6,323.7 158.9,324.1 158.9,319.7 C 158.9,315.4 159.2,322.9 159.2,322.9 C 159.2,322.9 163.4,323.6 163.6,319.2 C 163.8,314.8 164.1,322.2 164.1,322.2 C 164.1,322.2 166.9,321.3 166.9,320.6 C 166.9,319.9 166.7,329.3 164.7,331.9 C 161.6,329.8 159.7,333.3 159.7,333.3 C 159.7,333.3 159.8,338.4 159.5,339.6 C 159.2,340.8 161.6,338.9 161.8,338.4 C 162.0,337.9 164.9,336.5 165.1,336.1 C 165.2,335.8 166.1,334.0 166.1,334.0 C 166.1,334.0 165.4,336.5 164.3,336.8 C 163.1,337.2 162.0,338.4 162.5,339.4 C 162.9,340.5 164.7,341.2 165.4,342.2 C 166.1,343.3 168.3,336.1 168.3,336.1 L 168.5,337.7 C 168.5,337.7 171.4,337.0 171.8,335.6 C 172.1,334.2 168.7,333.0 171.4,330.7 C 174.2,328.4 171.4,332.8 171.4,332.8 C 171.4,332.8 172.4,336.1 173.1,336.1 C 173.7,336.1 175.4,329.8 173.7,328.3 C 172.1,326.7 176.2,330.2 176.2,330.2 C 176.2,330.2 178.5,323.7 176.0,322.9 C 173.6,322.0 172.4,321.6 172.4,321.6 C 172.4,321.6 173.7,319.9 173.1,319.7 C 172.4,319.6 176.5,323.6 177.2,322.5 C 177.8,321.5 178.8,318.3 174.1,316.6 C 169.3,314.8 173.9,310.0 173.9,310.0 C 173.9,310.0 176.895,313.5 179.0,311.5 C 181.1,309.6 178.8,309.6 178.8,309.6 C 178.8,309.6 184.9,305.8 185.0,303.9 C 183.9,303.7 181.9,304.0 181.9,304.0 C 181.9,304.0 185.3,301.8 184.5,298.1 C 183.2,300.0 181.4,300.0 181.4,300.0 C 181.4,300.0 184.4,297.1 183.9,294.3 C 182.1,295.7 182.2,296.7 181.1,296.4 C 180.0,296.0 178.0,285.0 182.6,284.3 C 187.1,283.6 184.7,289.7 184.9,289.7 C 185.0,289.7 191.7,287.0 184.9,282.4 C 186.5,281.9 189.9,285.0 189.9,285.0 C 189.9,285.0 188.5,277.4 181.1,282.1 C 182.9,280.2 184.0,278.9 185.5,279.3 C 187.0,279.6 192.2,279.1 192.2,277.5 C 190.9,276.5 188.1,278.1 186.7,277.5 C 185.2,277.0 197.166,276.2 196.1,270.2 z " font-size="12px" fill="#ffc900" fill-rule="evenodd" stroke="#006b00" stroke-width="0.689" stroke-linecap="round" stroke-linejoin="round"/>
    <path d="M 481.2,118.5 C 481.2,118.5 493.5,112.1 499.6,120.0" transform="matrix(0.533968,0,0,0.569283,-112.6377,207.3211)" font-size="12px" fill="none" fill-rule="evenodd" stroke="#006b00" stroke-width="1.25" stroke-linecap="round"/>
    <path d="M 504.5,132.3 C 504.2,132.3 500.2,136.3 499.3,136.3" transform="matrix(0.533968,0,0,0.569283,-112.6377,207.3211)" font-size="12px" fill="none" fill-rule="evenodd" stroke="#006b00" stroke-width="1.25" stroke-linecap="round"/>
    <path d="M 512.8,145.1 C 512.8,145.1 524.1,146.0 531.5,134.7" transform="matrix(0.533968,0,0,0.569283,-112.6377,207.3211)" font-size="12px" fill="none" fill-rule="evenodd" stroke="#006b00" stroke-width="1.25" stroke-linecap="round"/>
    <path d="M 525.0,141.8 C 525.0,141.8 526,147.936 527.8,147.9 C 529.6,147.9 524.7,149.4 522.9,148.2 C 525.0,150.9 526.3,155.8 522.9,157.7" transform="matrix(0.533968,0,0,0.569283,-112.6377,207.3211)" font-size="12px" fill="none" fill-rule="evenodd" stroke="#006b00" stroke-width="1.25" stroke-linecap="round"/>
    <path d="M 519.2,218.9 C 519.2,218.9 515.2,223.2 510.3,223.5" transform="matrix(0.533968,0,0,0.569283,-112.6377,207.3211)" font-size="12px" fill="#e80000" fill-rule="evenodd" stroke="#006b00" stroke-width="1.25" stroke-linecap="round"/>
    <path d="M 523.8,199.3 C 523.8,199.3 521.4,187.1 522.9,184.0 C 523.8,180.0 527.8,178.5 530.8,173.3" transform="matrix(0.533968,0,0,0.569283,-112.6377,207.3211)" font-size="12px" fill="none" fill-rule="evenodd" stroke="#006b00" stroke-width="1.25" stroke-linecap="round"/>
    <path d="M 522.6,190.4 C 522.6,190.4 519.5,197.8 506.0,195.3" transform="matrix(0.533968,0,0,0.569283,-112.6377,207.3211)" font-size="12px" fill="none" fill-rule="evenodd" stroke="#006b00" stroke-width="1.25" stroke-linecap="round"/>
    <path d="M 526.3,172.1 C 526.3,172.1 527.2,181.9 514.9,178.2" transform="matrix(0.533968,0,0,0.569283,-112.6377,207.3211)" font-size="12px" fill="none" fill-rule="evenodd" stroke="#006b00" stroke-width="1.25" stroke-linecap="round"/>
    <path d="M 511.3,128.0 C 511.3,128.0 506.4,132.3 508.2,138.1" transform="matrix(0.533968,0,0,0.569283,-112.6377,207.3211)" font-size="12px" fill="none" fill-rule="evenodd" stroke="#006b00" stroke-width="1.25" stroke-linecap="round"/>
    <path d="M 529.6,117.3 C 529.6,117.3 536.1,114.8 537.3,113.6 C 538.5,112.4 540.6,109.9 541.3,108.1 C 541.9,106.2 537.0,103.5 539.4,99.56 C 541.0,97.72 543.1,97.41 546.8,99.56 C 550.4,101.7 543.4,92.82 539.7,92.51 C 536.1,92.21 533.6,94.96 532.7,94.35 C 531.8,93.74 533.0,96.80 531.5,96.80 C 529.9,96.80 534.5,99.25 534.2,100.7 C 533.9,102.3 539.1,107.5 538.8,108.7 C 538.5,109.9 531.2,117.0 529.6,117.3 z " transform="matrix(0.533968,0,0,0.569283,-112.6377,207.3211)" font-size="12px" fill="#006b00" fill-rule="evenodd" stroke-width="1.25" stroke-linecap="round"/>
    <path d="M 534.2,97.11 C 537.0,96.47 537.5,97.18 537.0,99.56 C 535.7,98.90 535.2,98.34 534.2,97.11 z " transform="matrix(0.533968,0,0,0.569283,-112.6377,207.3211)" font-size="12px" fill="#ffc900" fill-rule="evenodd" stroke="#ffc900" stroke-width="1.25" stroke-linecap="round" stroke-linejoin="round"/>
    <path d="M 514.7,233.5 C 514.7,233.5 513.6,239.9 516.1,240.4 C 516.0,237.9 516.7,236.2 517.3,235.6 C 516.8,235.3 514.8,233.5 514.7,233.5 z " transform="matrix(0.533968,0,0,0.569283,-112.6377,207.3211)" font-size="12px" fill="#e80000" fill-rule="evenodd" stroke="#006b00" stroke-width="1.25" stroke-linejoin="round"/>
    <path d="M 509.0,225.6 C 506.7,225.2 502.8,227.217 503.9,229.5 C 505.8,227.9 507.5,229.6 508.8,228.0 C 509.2,227.5 509.1,226.2 509.0,225.6 z " transform="matrix(0.533968,0,0,0.569283,-112.6377,207.3211)" font-size="12px" fill="#e80000" fill-rule="evenodd" stroke="#006b00" stroke-width="1.25" stroke-linejoin="round"/>
    <path d="M 509.0,221.0 C 509.0,221.0 505.3,220.4 504.8,222.9 C 507.3,222.6 508.1,222.4 508.9,222.9 C 509.2,222.397 508.9,221.1 509.0,221.0 z " transform="matrix(0.533968,0,0,0.569283,-112.6377,207.3211)" font-size="12px" fill="#e80000" fill-rule="evenodd" stroke="#006b00" stroke-width="1.25" stroke-linejoin="round"/>
    <path d="M 493.5,184.9 C 493.5,184.9 495.7,185.7 496.3,187.9 C 498.0,186.9 498.9,182.1 493.5,184.9 z " transform="matrix(0.533968,0,0,0.569283,-112.6377,207.3211)" font-size="12px" fill="#e80000" fill-rule="evenodd" stroke="#006b00" stroke-width="1pt" stroke-linejoin="round"/>
    <path d="M 488.1,190.3 C 488.2,190.3 492.7,187.6 493.1,190.2 C 492.2,191.1 491.8,191.7 491.0,192.0 C 490.4,192.0 489.3,190.2 488.1,190.3 z " transform="matrix(0.533968,0,0,0.569283,-112.6377,207.3211)" font-size="12px" fill="#e80000" fill-rule="evenodd" stroke="#006b00" stroke-width="1pt" stroke-linejoin="round"/>
    <path d="M 487.6,199.2 C 487.751,199.2 490.5,196.7 491.6,198.3 C 492.7,200.0 490.7,199.9 490.7,199.9 C 490.7,199.9 489.7,199.4 487.6,199.2 z " transform="matrix(0.533968,0,0,0.569283,-112.6377,207.3211)" font-size="12px" fill="#e80000" fill-rule="evenodd" stroke="#006b00" stroke-width="1pt" stroke-linejoin="round"/>
    <path d="M 483.6,149.9 C 483.6,149.9 480.1,148.5 478.6,151.0 C 480.9,151.3 481.7,152.1 482.8,153.0 C 482.5,151.9 482.0,150.4 483.6,149.9 z " transform="matrix(0.533968,0,0,0.569283,-112.6377,207.3211)" font-size="12px" fill="#e80000" fill-rule="evenodd" stroke="#006b00" stroke-width="1pt" stroke-linejoin="round"/>
    <path d="M 476.7,168.5 C 476.7,168.5 476.9,164.3 478.9,162.6 C 480.0,163.2 480.3,164.2 481.1,165.5 C 479.6,165.8 477.6,165.9 476.7,168.5 z " transform="matrix(0.533968,0,0,0.569283,-112.6377,207.3211)" font-size="12px" fill="#e80000" fill-rule="evenodd" stroke="#006b00" stroke-width="1pt" stroke-linejoin="round"/>
    <path d="M 486.3,165.5 C 486.3,165.5 482.3,167.3 483.6,169.3 C 484.9,167.9 486.3,168.3 486.3,168.3 C 486.3,168.3 486.3,165.5 486.3,165.5 z " transform="matrix(0.533968,0,0,0.569283,-112.6377,207.3211)" font-size="12px" fill="#e80000" fill-rule="evenodd" stroke="#006b00" stroke-width="1pt" stroke-linejoin="round"/>
    <path d="M 480.6,125.6 C 479.2,127.1 482.3,130.6 485.6,130.1 C 486.5,126.3 481.4,124.4 480.6,125.6 z " transform="matrix(0.533968,0,0,0.569283,-112.6377,207.3211)" font-size="12px" fill="#ffc900" fill-rule="evenodd" stroke="#006b00" stroke-width="1pt" stroke-linejoin="round"/>
    <path d="M 480.5,118.4 C 479.9,120.1 482.6,122.6 484.2,121.9 C 484.8,120.1 481.3,117.0 480.5,118.4 z " transform="matrix(0.533968,0,0,0.569283,-112.6377,207.3211)" font-size="12px" fill="none" fill-rule="evenodd" stroke-width="1pt" stroke-linejoin="round"/>
    <path d="M 484.2,122.7 C 484.2,122.7 484.8,125.6 487.7,124.9 C 487.2,122.6 485.3,120.9 485.3,120.9 C 485.1,121.5 485.7,122.6 484.2,122.7 z " transform="matrix(0.533968,0,0,0.569283,-112.6377,207.3211)" font-size="12px" fill="#e80000" fill-rule="evenodd" stroke="#006b00" stroke-width="1pt" stroke-linejoin="round"/>
    <path d="M 486.1,131.2 C 486.1,131.2 487.7,132.9 490.8,129.4 C 489.4,129.9 486.9,128.6 486.9,128.6 C 486.9,128.6 486.9,131.0 486.1,131.2 z " transform="matrix(0.533968,0,0,0.569283,-112.6377,207.3211)" font-size="12px" fill="#e80000" fill-rule="evenodd" stroke="#006b00" stroke-width="1pt" stroke-linejoin="round"/>
    <path d="M 480.4,118.8 C 479.0,120.4 481.0,122.6 484.3,122.1 C 485.1,118.4 481.2,117.7 480.4,118.8 z " transform="matrix(0.533968,0,0,0.569283,-112.6377,207.3211)" font-size="12px" fill="#ffc900" fill-rule="evenodd" stroke="#006b00" stroke-width="1pt" stroke-linejoin="round"/>
    <path d="M 144.6,266.6 C 144.6,266.6 151.6,264.6 155.3,267.6 C 159.1,270.6 159.1,267.9 159.1,267.9 C 159.1,267.9 164.5,269.9 166.1,269.4 C 167.7,269.0 165.0,269.6 167.1,268.3 C 169.3,267.0 162.8,268.6 162.2,265.9 C 161.2,264.1 162.4,262.0 160.1,262.7 C 158.5,260.7 161.1,259.2 160.5,257.1 C 158.9,258.2 158.1,256.7 156.8,259.5 C 153.8,259.0 156.4,254.8 153.0,254.4 C 153.0,257.4 150.6,257.5 150.5,259.2 C 149.0,260.3 142.7,264.0 144.6,266.6 z " fill="url(#linearGradient748)" fill-opacity="1" fill-rule="evenodd" stroke="none" stroke-width="1pt" stroke-linecap="butt" stroke-linejoin="miter" stroke-opacity="1"/>
    <path d="M 63.62,495.5 C 68.19,494.4 92.93,501.0 102.4,511.2 C 100.4,493.0 95.39,479.1 95.39,479.1 C 95.39,479.1 80.65,474.9 78.63,476.9 C 75.66,480.0 66.74,489.4 63.62,495.5 z " fill="#c01500" fill-opacity="1" fill-rule="evenodd" stroke="#000000" stroke-width="1pt" stroke-linecap="butt" stroke-linejoin="miter" stroke-opacity="1"/>
    <path d="M 56.08,411.4 C 54.34,411.7 52.61,412.9 50.87,415.7 C 48.85,420.7 47.40,433.1 44.51,436.0 C 41.62,438.9 39.02,439.2 39.02,441.8 C 39.02,444.4 39.31,450.4 47.12,452.8 C 54.92,453.0 67.35,440.3 67.35,440.3 C 67.35,440.3 73.71,433.4 76.31,425.9 C 61.28,431.1 50.58,417.2 56.08,411.4 z " fill="#c01500" fill-opacity="1" fill-rule="evenodd" stroke="#000000" stroke-width="1pt" stroke-linecap="butt" stroke-linejoin="miter" stroke-opacity="1"/>
    <path d="M 273.4,492.6 C 268.9,491.5 243.9,498.1 234.4,508.2 C 236.4,490.1 241.4,476.3 241.4,476.3 C 243.2,475.8 255.9,472.1 257.9,474.1 C 260.9,477.2 270.3,486.5 273.4,492.6 z " font-size="12px" fill="#c01500" fill-opacity="1" fill-rule="evenodd" stroke="#000000" stroke-width="0.993pt"/>
    <path d="M 280.5,409.0 C 282.2,409.3 282.8,411.6 284.2,414.4 C 286.2,419.3 288.3,426.4 291.1,429.3 C 294.0,432.2 296.6,436.4 296.6,439.0 C 296.6,441.6 296.0,445.1 288.2,447.4 C 280.5,447.7 269.3,437.7 269.3,437.7 C 269.3,437.7 263.0,430.8 260.4,423.4 C 275.3,428.5 284.9,415.2 280.5,409.0 z " font-size="12px" fill="#c01500" fill-opacity="1" fill-rule="evenodd" stroke="#000000" stroke-width="0.993pt"/>
    <path d="M 47.40,479.6 C 47.40,479.6 63.02,490.3 63.30,495.2 C 105.2,433.1 212.1,413.7 273.1,490.9 C 281.2,480.2 289.6,476.7 289.6,476.7 C 225.4,392.9 97.71,403.3 47.40,479.6 z " fill="#ffbb00" fill-opacity="1" fill-rule="evenodd" stroke="#000000" stroke-width="1pt" stroke-linecap="butt" stroke-linejoin="miter" stroke-opacity="1"/>
    <g transform="translate(-7.152557e-6,4.577637e-5)" fill="#3fa4d5" fill-opacity="1">
      <path d="M 206.4,241.8 L 212.5,241.7 L 201.6,255.5 L 214.7,270.8 L 188.9,303.2 L 213.2,332.5 C 210.6,339.0 207.5,345.0 203.3,350.4 L 189.4,334.9 L 214.7,303.4 L 193.9,279.8 L 206.4,241.8 z " fill="#1e5aa6" fill-opacity="1" fill-rule="evenodd" stroke="#000000" stroke-width="1pt" stroke-linecap="butt" stroke-linejoin="miter" stroke-opacity="1"/>
      <path d="M 119.1,244.6 L 112.6,244.7 L 124.8,258.0 L 111.8,274.1 L 138.7,303.4 L 116.5,333.2 C 119.1,339.7 123.0,347.0 127.1,352.4 L 140.3,335.7 L 113.1,305.4 L 133.1,280.1 L 119.1,244.6 z " fill="#1e5aa6" fill-opacity="1" fill-rule="evenodd" stroke="#000000" stroke-width="1pt" stroke-linecap="butt" stroke-linejoin="miter" stroke-opacity="1"/>
      <path d="M 149.4,323.2 L 139.8,336.0 L 174.1,375.7 C 180.2,372.6 184.9,369.1 190.1,364.9 L 172.2,344.2 L 179.5,322.9 L 190.0,334.9 L 157.2,376.7 C 151.7,374.4 145.7,370.7 140.2,366.2 L 157.5,344.2 L 149.4,323.2 z " font-size="12px" fill="#1e5aa6" fill-opacity="1" fill-rule="evenodd" stroke="#000000" stroke-width="1pt"/>
      <path d="M 138.7,303.2 L 145.0,311.1 L 140.9,300.5 L 138.7,303.2 z " font-size="12px" fill="#1e5aa6" fill-opacity="1" fill-rule="evenodd" stroke="#000000" stroke-width="1pt"/>
      <path d="M 183.5,310.2 C 183.7,310.0 188.6,303.5 188.6,303.5 L 186.7,300.9 L 183.5,310.2 z " font-size="12px" fill="#1e5aa6" fill-opacity="1" fill-rule="evenodd" stroke="#000000" stroke-width="0.968pt"/>
    </g>
    <text transform="matrix(0.648698,-0.761046,0.761046,0.648698,0,0)" x="-328.34363" y="362.39716" font-size="14px" font-style="normal" font-weight="bold" line-height="100%" writing-mode="lr-tb" text-anchor="start" fill="#000000" fill-opacity="1" stroke="none" stroke-width="1pt" stroke-linecap="butt" stroke-linejoin="miter" stroke-opacity="1" font-family="Timmons">
      <tspan id="tspan1032" x="-328.34363" y="362.39716">L</tspan>
    </text>
    <text transform="matrix(0.702254,-0.711927,0.711927,0.702254,0,0)" x="-292.33514" y="384.26642" font-size="14px" font-style="normal" font-weight="bold" line-height="100%" writing-mode="lr-tb" text-anchor="start" fill="#000000" fill-opacity="1" stroke="none" stroke-width="1pt" stroke-linecap="butt" stroke-linejoin="miter" stroke-opacity="1" font-family="Timmons">
      <tspan id="tspan1037" x="-292.33514" y="384.26642">E</tspan>
    </text>
    <text transform="matrix(0.762801,-0.544641,0.567688,0.754221,0,0)" x="-239.78038" y="451.6806" font-size="14px" font-style="normal" font-weight="bold" line-height="100%" writing-mode="lr-tb" text-anchor="start" fill="#000000" fill-opacity="1" stroke="none" stroke-width="1pt" stroke-linecap="butt" stroke-linejoin="miter" stroke-opacity="1" font-family="Timmons">
      <tspan id="tspan1042" x="-239.78038" y="451.6806">O</tspan>
    </text>
    <text transform="matrix(0.828445,-0.56007,0.56007,0.828445,0,0)" x="-188.5262" y="429.95776" font-size="14px" font-style="normal" font-weight="bold" line-height="100%" writing-mode="lr-tb" text-anchor="start" fill="#000000" fill-opacity="1" stroke="none" stroke-width="1pt" stroke-linecap="butt" stroke-linejoin="miter" stroke-opacity="1" font-family="Timmons">
      <tspan id="tspan1049" x="-188.5262" y="429.95776">T</tspan>
    </text>
    <text transform="matrix(0.90222,-0.431277,0.431277,0.90222,0,0)" x="-115.42612" y="451.47876" font-size="14px" font-style="normal" font-weight="bold" line-height="100%" writing-mode="lr-tb" text-anchor="start" fill="#000000" fill-opacity="1" stroke="none" stroke-width="1pt" stroke-linecap="butt" stroke-linejoin="miter" stroke-opacity="1" font-family="Timmons">
      <tspan id="tspan1052" x="-115.42612" y="451.47876">E</tspan>
    </text>
    <text transform="matrix(0.913636,-0.406535,0.406535,0.913636,0,0)" x="-94.110794" y="453.04584" font-size="14px" font-style="normal" font-weight="bold" line-height="100%" writing-mode="lr-tb" text-anchor="start" fill="#000000" fill-opacity="1" stroke="none" stroke-width="1pt" stroke-linecap="butt" stroke-linejoin="miter" stroke-opacity="1" font-family="Timmons">
      <tspan id="tspan1057" x="-94.110794" y="453.04584">R</tspan>
    </text>
    <text transform="matrix(0.927768,-0.373161,0.373161,0.927768,0,0)" x="-68.37056" y="454.98212" font-size="14px" font-style="normal" font-weight="bold" line-height="100%" writing-mode="lr-tb" text-anchor="start" fill="#000000" fill-opacity="1" stroke="none" stroke-width="1pt" stroke-linecap="butt" stroke-linejoin="miter" stroke-opacity="1" font-family="Timmons">
      <tspan id="tspan1066" x="-68.37056" y="454.98212">R</tspan>
    </text>
    <text transform="matrix(0.996548,-8.302785e-2,8.302785e-2,0.996548,0,0)" x="112.01579" y="445.66595" font-size="14px" font-style="normal" font-weight="bold" line-height="100%" writing-mode="lr-tb" text-anchor="start" fill="#000000" fill-opacity="1" stroke="none" stroke-width="1pt" stroke-linecap="butt" stroke-linejoin="miter" stroke-opacity="1" font-family="Timmons">
      <tspan id="tspan1069" x="112.01579" y="445.66595">R</tspan>
    </text>
    <text transform="matrix(0.999889,1.494831e-2,-1.494831e-2,0.999889,0,0)" x="180.22531" y="430.7926" font-size="14px" font-style="normal" font-weight="bold" line-height="100%" writing-mode="lr-tb" text-anchor="start" fill="#000000" fill-opacity="1" stroke="none" stroke-width="1pt" stroke-linecap="butt" stroke-linejoin="miter" stroke-opacity="1" font-family="Timmons">
      <tspan id="tspan1072" x="180.22531" y="430.7926">R</tspan>
    </text>
    <text transform="matrix(0.869108,0.494625,-0.494625,0.869108,0,0)" x="414.75919" y="275.21735" font-size="14px" font-style="normal" font-weight="bold" line-height="100%" writing-mode="lr-tb" text-anchor="start" fill="#000000" fill-opacity="1" stroke="none" stroke-width="1pt" stroke-linecap="butt" stroke-linejoin="miter" stroke-opacity="1" font-family="Timmons">
      <tspan id="tspan1075" x="414.75919" y="275.21735">R</tspan>
    </text>
    <text transform="matrix(0.768268,0.640129,-0.640129,0.768268,0,0)" x="483.87762" y="193.05025" font-size="14px" font-style="normal" font-weight="bold" line-height="100%" writing-mode="lr-tb" text-anchor="start" fill="#000000" fill-opacity="1" stroke="none" stroke-width="1pt" stroke-linecap="butt" stroke-linejoin="miter" stroke-opacity="1" font-family="Timmons">
      <tspan id="tspan1081" x="483.87762" y="193.05025">E</tspan>
    </text>
    <text transform="matrix(0.963556,0.181123,-0.155314,0.951842,0,0)" x="309.11557" y="414.02829" font-size="14px" font-style="normal" font-weight="bold" line-height="100%" writing-mode="lr-tb" text-anchor="start" fill="#000000" fill-opacity="1" stroke="none" stroke-width="1pt" stroke-linecap="butt" stroke-linejoin="miter" stroke-opacity="1" font-family="Timmons">
      <tspan id="tspan1084" x="309.11557" y="414.02829">O</tspan>
    </text>
    <text transform="matrix(0.901875,-0.131596,0.136478,0.975003,0,0)" x="105.05786" y="459.27182" font-size="14px" font-style="normal" font-weight="bold" line-height="100%" writing-mode="lr-tb" text-anchor="start" fill="#000000" fill-opacity="1" stroke="none" stroke-width="1pt" stroke-linecap="butt" stroke-linejoin="miter" stroke-opacity="1" font-family="Timmons">
      <tspan id="tspan1087" x="105.05786" y="459.27182">O</tspan>
    </text>
    <text transform="matrix(0.937938,-0.346807,0.346807,0.937938,0,0)" x="-45.707756" y="455.83463" font-size="14px" font-style="normal" font-weight="bold" line-height="100%" writing-mode="lr-tb" text-anchor="start" fill="#000000" fill-opacity="1" stroke="none" stroke-width="1pt" stroke-linecap="butt" stroke-linejoin="miter" stroke-opacity="1" font-family="Timmons">
      <tspan id="tspan1092" x="-45.707756" y="455.83463">A</tspan>
    </text>
    <text transform="matrix(0.704684,0.709523,-0.709523,0.704684,0,0)" x="518.34955" y="144.72449" font-size="14px" font-style="normal" font-weight="bold" line-height="100%" writing-mode="lr-tb" text-anchor="start" fill="#000000" fill-opacity="1" stroke="none" stroke-width="1pt" stroke-linecap="butt" stroke-linejoin="miter" stroke-opacity="1" font-family="Timmons">
      <tspan id="tspan1095" x="518.34955" y="144.72449">A</tspan>
    </text>
    <text transform="matrix(0.980423,0.196908,-0.196908,0.980423,0,0)" x="271.18784" y="388.29758" font-size="14px" font-style="normal" font-weight="bold" line-height="100%" writing-mode="lr-tb" text-anchor="start" fill="#000000" fill-opacity="1" stroke="none" stroke-width="1pt" stroke-linecap="butt" stroke-linejoin="miter" stroke-opacity="1" font-family="Timmons">
      <tspan id="tspan1098" x="271.18784" y="388.29758">A</tspan>
    </text>
    <text transform="matrix(0.982793,-0.184719,0.184719,0.982793,0,0)" x="40.321587" y="455.1676" font-size="14px" font-style="normal" font-weight="bold" line-height="100%" writing-mode="lr-tb" text-anchor="start" fill="#000000" fill-opacity="1" stroke="none" stroke-width="1pt" stroke-linecap="butt" stroke-linejoin="miter" stroke-opacity="1" font-family="Timmons">
      <tspan id="tspan1103" x="40.321587" y="455.1676">M</tspan>
    </text>
    <text transform="matrix(0.994632,-0.103487,0.103487,0.994632,0,0)" x="94.428757" y="448.07883" font-size="14px" font-style="normal" font-weight="bold" line-height="100%" writing-mode="lr-tb" text-anchor="start" fill="#000000" fill-opacity="1" stroke="none" stroke-width="1pt" stroke-linecap="butt" stroke-linejoin="miter" stroke-opacity="1" font-family="Timmons">
      <tspan id="tspan1108" x="94.428757" y="448.07883">P</tspan>
    </text>
    <text transform="matrix(0.999675,-2.552389e-2,2.552389e-2,0.999675,0,0)" x="155.08846" y="437.60687" font-size="14px" font-style="normal" font-weight="bold" line-height="100%" writing-mode="lr-tb" text-anchor="start" fill="#000000" fill-opacity="1" stroke="none" stroke-width="1pt" stroke-linecap="butt" stroke-linejoin="miter" stroke-opacity="1" font-family="Timmons">
      <tspan id="tspan1114" x="155.08846" y="437.60687">P</tspan>
    </text>
    <text transform="matrix(0.870364,0.492411,-0.492411,0.870364,0,0)" x="405.13382" y="276.66531" font-size="14px" font-style="normal" font-weight="bold" line-height="100%" writing-mode="lr-tb" text-anchor="start" fill="#000000" fill-opacity="1" stroke="none" stroke-width="1pt" stroke-linecap="butt" stroke-linejoin="miter" stroke-opacity="1" font-family="Timmons">
      <tspan id="tspan1117" x="405.13382" y="276.66531">P</tspan>
    </text>
    <text transform="matrix(0.993403,0.114679,-0.114679,0.993403,0,0)" x="232.09538" y="409.79309" font-size="14px" font-style="normal" font-weight="bold" line-height="100%" writing-mode="lr-tb" text-anchor="start" fill="#000000" fill-opacity="1" stroke="none" stroke-width="1pt" stroke-linecap="butt" stroke-linejoin="miter" stroke-opacity="1" font-family="Timmons">
      <tspan id="tspan1122" x="232.09538" y="409.79309">I</tspan>
    </text>
    <text transform="matrix(0.68726,0.726411,-0.726411,0.68726,0,0)" x="530.39215" y="132.08934" font-size="14px" font-style="normal" font-weight="bold" line-height="100%" writing-mode="lr-tb" text-anchor="start" fill="#000000" fill-opacity="1" stroke="none" stroke-width="1pt" stroke-linecap="butt" stroke-linejoin="miter" stroke-opacity="1" font-family="Timmons">
      <tspan id="tspan1125" x="530.39215" y="132.08934">T</tspan>
    </text>
    <text transform="matrix(0.800563,0.599248,-0.599248,0.800563,0,0)" x="464.15771" y="218.51869" font-size="14px" font-style="normal" font-weight="bold" line-height="100%" writing-mode="lr-tb" text-anchor="start" fill="#000000" fill-opacity="1" stroke="none" stroke-width="1pt" stroke-linecap="butt" stroke-linejoin="miter" stroke-opacity="1" font-family="Timmons">
      <tspan id="tspan1128" x="464.15771" y="218.51869">T</tspan>
    </text>
    <text transform="matrix(0.959255,0.282549,-0.282549,0.959255,0,0)" x="313.72498" y="361.96112" font-size="14px" font-style="normal" font-weight="bold" line-height="100%" writing-mode="lr-tb" text-anchor="start" fill="#000000" fill-opacity="1" stroke="none" stroke-width="1pt" stroke-linecap="butt" stroke-linejoin="miter" stroke-opacity="1" font-family="Timmons">
      <tspan id="tspan1131" x="313.72498" y="361.96112">M</tspan>
    </text>
    <text transform="matrix(0.673526,0.739163,-0.739163,0.673526,0,0)" x="513.7041" y="123.24773" font-size="14px" font-style="normal" font-weight="bold" line-height="100%" writing-mode="lr-tb" text-anchor="start" fill="#000000" fill-opacity="1" stroke="none" stroke-width="1pt" stroke-linecap="butt" stroke-linejoin="miter" stroke-opacity="1" font-family="Timmons">
      <tspan id="tspan1136" x="513.7041" y="123.24773">G</tspan>
    </text>
    <g>
      <path d="M 255.9,200.9 C 255.9,200.9 261.9,195.7 266.2,195.6" fill="none" fill-opacity="1" fill-rule="evenodd" stroke="#fff700" stroke-width="1pt" stroke-linecap="round" stroke-linejoin="miter" stroke-opacity="1"/>
      <path d="M 256.8,200.2 C 256.9,200.0 292.8,195.0 294.0,193.9" fill="none" fill-opacity="1" fill-rule="evenodd" stroke="#fff700" stroke-width="1pt" stroke-linecap="round" stroke-linejoin="miter" stroke-opacity="1"/>
      <path d="M 256.9,200.5 C 257.0,200.3 297.1,197.0 297.1,197.0" fill="none" fill-opacity="1" fill-rule="evenodd" stroke="#fff700" stroke-width="1pt" stroke-linecap="round" stroke-linejoin="miter" stroke-opacity="1"/>
      <path d="M 256.8,200.6 C 256.8,200.6 299.4,198.6 302.0,200.7" fill="none" fill-opacity="1" fill-rule="evenodd" stroke="#fff700" stroke-width="1pt" stroke-linecap="round" stroke-linejoin="miter" stroke-opacity="1"/>
      <path d="M 256.6,200.5 C 256.6,200.5 298.4,200.7 299.1,201.8" fill="none" fill-opacity="1" fill-rule="evenodd" stroke="#fff700" stroke-width="1pt" stroke-linecap="round" stroke-linejoin="miter" stroke-opacity="1"/>
      <path d="M 256.8,200.5 L 297.0,203.8" fill="none" fill-opacity="1" fill-rule="evenodd" stroke="#fff700" stroke-width="1pt" stroke-linecap="round" stroke-linejoin="miter" stroke-opacity="1"/>
      <path d="M 256.3,200.7 C 256.5,200.7 297.3,204.3 301.3,209.5" fill="none" fill-opacity="1" fill-rule="evenodd" stroke="#fff700" stroke-width="1pt" stroke-linecap="round" stroke-linejoin="miter" stroke-opacity="1"/>
      <path d="M 303.4,216.8 C 303.3,216.7 289.5,200.3 256.2,200.6" fill="none" fill-opacity="1" fill-rule="evenodd" stroke="#fff700" stroke-width="1pt" stroke-linecap="round" stroke-linejoin="miter" stroke-opacity="1"/>
      <path d="M 256.3,200.9 C 256.3,200.9 279.4,202.5 286.8,210.5" fill="none" fill-opacity="1" fill-rule="evenodd" stroke="#fff700" stroke-width="1pt" stroke-linecap="round" stroke-linejoin="miter" stroke-opacity="1"/>
      <path d="M 256.8,200.6 C 256.8,200.6 271.7,197.7 287.3,216.5" fill="none" fill-opacity="1" fill-rule="evenodd" stroke="#fff700" stroke-width="1pt" stroke-linecap="round" stroke-linejoin="miter" stroke-opacity="1"/>
    </g>
    <path d="M 247.4,217.743 C 247.4,217.743 268.1,218.5 268.1,220.5 C 268.1,222.6 252.6,226.4 252.4,235.0 C 252.2,243.5 264.2,244.1 265.0,254.9 C 265.8,265.6 255.7,267.3 253.6,270.1 C 251.6,271.5 246.7,286.8 247.4,295.741 C 248.0,304.6 250.6,334.9 255.3,341.0 C 258.9,343.8 264.4,353.0 270.3,350.1 C 276.2,347.3 272.1,336.9 271.5,334.1 C 270.9,331.2 274.0,326.6 274.0,322.3 C 274.0,318.0 271.7,314.6 271.9,313.6 C 272.18,312.6 288.4,317.4 287.4,333.5 C 286.3,349.5 279.8,344.6 279.8,344.6 C 279.8,344.6 281.9,364.3 276.8,367.0 C 267.7,371.9 261.0,366.0 261.0,366.0 L 261.8,370.0 L 254.9,366.4 C 254.9,366.4 245.9,353.6 243.9,347.9 C 241.9,342.2 239.4,316.8 240.2,311.3 C 241.1,305.8 241.7,273.8 241.3,272.1 C 240.9,270.554 239.2,243.7 240.2,239.6 C 241.3,235.6 247.6,217.7 247.4,217.743 z " fill="url(#linearGradient801)" fill-opacity="1" fill-rule="evenodd" stroke="#000000" stroke-width="1pt" stroke-linecap="butt" stroke-linejoin="miter" stroke-opacity="1"/>
    <path d="M 225.0,212.4 C 225.0,212.4 239.4,198.4 247.8,200.0 C 252.0,200.0 248.0,203.1 248.0,203.1 C 248.0,203.1 255.3,203.7 256.3,206.9 C 256.54,208.4 252.8,208.8 252.8,208.8 C 252.8,208.8 255.9,209.4 256.1,212.0 C 256.3,214.6 225.2,212.6 225.0,212.4 z " fill="#ff7000" fill-opacity="1" fill-rule="evenodd" stroke="#000000" stroke-width="1pt" stroke-linecap="butt" stroke-linejoin="miter" stroke-opacity="1"/>
    <path d="M 225.8,211.8 C 225.8,211.8 241.3,209.8 247.8,203.3" fill="none" fill-opacity="1" fill-rule="evenodd" stroke="#000000" stroke-width="1pt" stroke-linecap="butt" stroke-linejoin="miter" stroke-opacity="1"/>
    <path d="M 241.5,207.5 C 241.5,207.5 252.8,207.1 252.8,208.8" fill="none" fill-opacity="1" fill-rule="evenodd" stroke="#000000" stroke-width="1pt" stroke-linecap="butt" stroke-linejoin="miter" stroke-opacity="1"/>
    <path d="M 281.9,373.7 C 281.9,373.7 291.6,371.5 294.3,368.0 C 295.9,366.8 304.4,380.8 281.9,373.7 z " fill="#ffffff" fill-opacity="1" fill-rule="evenodd" stroke="#000000" stroke-width="1.25" stroke-linecap="butt" stroke-linejoin="round" stroke-dasharray="none" stroke-opacity="1"/>
    <path d="M 279.2,293.1 C 279.2,293.1 280.5,300.6 277.0,305.6 C 275.2,307.7 269.7,311.1 269.7,313.6 C 269.7,316.0 271.7,319.3 271.3,322.1 C 270.9,324.9 267.9,327.8 268.1,330.2 C 268.1,332.7 271.5,345.7 271.1,345.9" fill="none" fill-opacity="1" fill-rule="evenodd" stroke="#ffffff" stroke-width="1.25" stroke-linecap="round" stroke-linejoin="miter" stroke-dasharray="none" stroke-opacity="1"/>
    <path d="M 261.4,268.7 C 261.4,268.7 253.6,271.3 252.0,279.0" fill="none" fill-opacity="1" fill-rule="evenodd" stroke="#ffffff" stroke-width="1.25" stroke-linecap="round" stroke-linejoin="miter" stroke-dasharray="none" stroke-opacity="1"/>
    <path d="M 258.1,207.5 C 258.1,207.5 260.806,214.9 269.3,207.9 C 263.8,200.4 258.1,207.7 258.1,207.5 z " fill="#c75b00" fill-opacity="1" fill-rule="evenodd" stroke="#000000" stroke-width="1pt" stroke-linecap="butt" stroke-linejoin="miter" stroke-opacity="1"/>
    <path d="M 264.86809 206.47018 A 0.914047 0.71094501 0 1 1  263.0,206.4 A 0.914047 0.71094501 0 1 1  264.86809 206.47018 z" transform="translate(-0.406246,0.8125)" fill="#000000" fill-opacity="1" fill-rule="evenodd" stroke="none" stroke-width="1pt" stroke-linecap="butt" stroke-linejoin="miter" stroke-opacity="1"/>
    <path d="M 188.4,190.6 C 188.4,190.6 204.5,208.1 215.0,207.9 C 216.9,213.0 210.3,217.8 207.6,220.1 C 202.3,218.4 197.4,220.4 185.1,205.2 C 185.8,195.5 188.6,190.9 188.4,190.6 z " fill="#ffffff" fill-opacity="1" fill-rule="evenodd" stroke="#000000" stroke-width="1pt" stroke-linecap="butt" stroke-linejoin="miter" stroke-opacity="1"/>
    <path d="M 210.2,149.8 C 212.3,143.4 216.5,138.2 220.1,137.7 C 219.2,132.7 227.8,110.8 252.7,102.5 C 254.2,113.7 242.0,124.7 242.0,124.7 C 242.0,124.7 278.8,118.4 286.2,109.1 C 285.4,113.3 278.0,139.4 238.8,139.2 C 253.6,153.3 234.0,164.5 225.7,161.1 C 241.1,149.3 221.3,142.2 210.2,149.8 z " fill="#ffffff" fill-opacity="1" fill-rule="evenodd" stroke="#000000" stroke-width="1pt" stroke-linecap="butt" stroke-linejoin="miter" stroke-opacity="1"/>
    <path d="M 222.8,140.7 C 230.2,135.9 232.9,135.9 239.0,136.9 C 234.6,137.5 234.6,137.7 234.6,137.7 C 234.6,137.7 234.2,138.2 236.9,140.7 C 233.8,139.9 231.2,138.2 222.8,140.7 z " fill="#cccccd" fill-opacity="1" fill-rule="evenodd" stroke="#cccccc" stroke-width="1pt" stroke-linecap="butt" stroke-linejoin="miter" stroke-opacity="1"/>
    <path d="M 220.0,137.7 C 220.0,137.7 234.6,129.9 242.8,124.5" fill="none" fill-opacity="1" fill-rule="evenodd" stroke="#000000" stroke-width="1pt" stroke-linecap="butt" stroke-linejoin="miter" stroke-opacity="1"/>
    <path d="M 207.4,220.1 C 207.4,220.1 227.6,225.6 229.8,196.7 C 225.5,184.1 219.4,157.1 228.7,149.3 C 220.1,143.4 210.8,149.5 210.8,149.5 C 210.2,150.8 202.6,161.6 212.9,180.7 C 188.6,174.2 198.4,197.2 198.4,197.2 C 199.4,193.6 212.3,190.2 215.6,208.6 C 216.9,213.2 206.8,220.3 207.4,220.1 z " fill="#0000ff" fill-opacity="1" fill-rule="evenodd" stroke="#000000" stroke-width="1pt" stroke-linecap="butt" stroke-linejoin="miter" stroke-opacity="1"/>
    <path d="M 230.0,196.8 C 230.0,196.8 251.4,185.4 250.8,158.6 C 232.7,159.0 226.2,182.4 226.2,182.4 L 230.0,196.8 z " fill="#0000ff" fill-opacity="1" fill-rule="evenodd" stroke="#000000" stroke-width="1pt" stroke-linecap="butt" stroke-linejoin="miter" stroke-opacity="1"/>
    <path d="M 134.5,195.5 C 134.5,195.5 118.7,209.2 109.8,204.8 C 103.1,208.8 95.34,201.8 95.34,201.8 C 95.34,201.8 104.4,235.5 137.2,211.1 C 136.6,203.7 134.9,196.1 134.5,195.5 z " fill="#ffffff" fill-opacity="1" fill-rule="evenodd" stroke="#000000" stroke-width="1pt" stroke-linecap="butt" stroke-linejoin="miter" stroke-opacity="1"/>
    <path d="M 109.6,204.3 C 110.9,197.2 116.4,193.8 120.8,200.5 C 126.7,201.6 132.6,177.4 111.7,181.4 C 117.6,149.8 99.91,138.0 99.91,138.0 C 99.91,138.0 93.63,173.1 96.48,179.5 C 99.34,186.0 92.30,167.5 69.65,162.4 C 69.27,188.9 94.96,201.2 94.96,201.2 C 94.96,201.2 102.1,207.9 109.6,204.3 z " fill="#0000ff" fill-opacity="1" fill-rule="evenodd" stroke="#000000" stroke-width="1pt" stroke-linecap="butt" stroke-linejoin="miter" stroke-opacity="1"/>
    <path d="M 111.7,181.2 C 111.7,181.2 101.8,189.6 104.1,201.0" fill="none" fill-opacity="1" fill-rule="evenodd" stroke="#000000" stroke-width="1pt" stroke-linecap="butt" stroke-linejoin="miter" stroke-opacity="1"/>
    <path d="M 96.67,180.1 C 96.67,180.1 94.39,188.3 99.34,199.9" fill="none" fill-opacity="1" fill-rule="evenodd" stroke="#000000" stroke-width="1pt" stroke-linecap="butt" stroke-linejoin="miter" stroke-opacity="1"/>
    <path d="M 95.15,202.6 C 95.15,202.6 99.72,195.1 109.6,204.7" fill="none" fill-opacity="1" fill-rule="evenodd" stroke="#000000" stroke-width="1pt" stroke-linecap="butt" stroke-linejoin="miter" stroke-opacity="1"/>
    <path d="M 97.06,151.2 C 97.06,151.0 82.02,151.2 90.97,166.4 C 84.30,168.5 69.46,158.8 79.74,145.8 C 46.05,145.1 32.35,128.9 32.35,114.1 C 42.24,124.3 65.84,120.2 74.22,126.4 C 63.94,116.9 66.03,103.8 66.03,103.8 C 66.03,103.8 94.77,112.3 99.91,137.9 C 98.20,142.8 97.44,151.6 97.06,151.2 z " fill="#ffffff" fill-opacity="1" fill-rule="evenodd" stroke="#000000" stroke-width="1pt" stroke-linecap="butt" stroke-linejoin="miter" stroke-opacity="1"/>
    <path d="M 73.94,125.8 C 79.48,131.4 93.73,133.1 100.9,139.4" fill="none" fill-opacity="1" fill-rule="evenodd" stroke="#000000" stroke-width="1pt" stroke-linecap="butt" stroke-linejoin="miter" stroke-opacity="1"/>
    <path d="M 80.50,142.4 C 80.50,142.4 92.29,140.9 95.71,145.1 C 91.10,145.1 89.56,143.9 82.89,146.4 C 84.77,145.5 84.26,143.8 85.29,143.8 C 86.31,143.8 81.01,142.4 80.50,142.4 z " font-size="12px" fill="#cccccd" fill-rule="evenodd" stroke="#cccccc" stroke-width="0.947"/>
    <path d="M 139.3,50.16 C 139.3,50.16 145.7,44.45 152.8,49.59 C 149.6,59.10 138.1,55.49 138.1,55.49 C 138.1,55.49 138.5,60.25 137.4,62.53 C 139.7,64.26 141.5,69.95 141.5,69.95 C 141.5,69.95 153.3,67.10 155.8,72.24 C 160.3,71.61 163.6,72.24 163.6,72.24 C 163.6,72.24 172.8,69.95 176.0,69.95 C 179.2,69.95 189.5,72.62 190.5,74.52 C 191.4,76.42 194.8,89.18 197.1,88.99 C 199.4,88.79 191.6,92.03 189.5,88.79 C 187.4,85.56 188.0,92.98 188.0,92.98 C 188.0,92.98 194.5,99.83 195.2,101.3 C 196.0,102.8 191.2,115.2 194.8,123.8 C 191.7,124.1 191.4,127.4 191.4,127.4 C 191.2,131.2 186.5,132.1 186.5,132.1 L 185.3,127.0 L 182.1,128.9 L 183.4,124.9 C 183.4,124.9 187.8,114.3 188.2,110.8 C 188.6,107.4 184.2,101.3 180.7,101.3 C 177.3,101.3 174.8,112.2 174.8,112.2 C 174.8,112.2 173.1,120.3 173.7,121.1 C 174.3,121.9 171.4,118.4 171.4,118.4 C 171.4,118.4 169.9,123.4 168.8,124.9 C 167.6,126.4 165.1,127.0 165.1,127.0 C 165.1,127.0 163.4,122.1 164.0,120.2 C 164.6,118.2 173.3,110.8 172.6,105.5 C 171.8,100.2 172.6,101.5 172.4,101.3 C 172.2,101.1 167.8,97.36 167.6,95.27 C 167.4,93.17 161.9,97.93 154.7,96.41 C 152.5,100.2 152.2,109.9 152.2,109.9 C 152.2,109.9 151.4,121.5 153.0,122.8 C 154.5,124.1 149.2,127.0 149.2,127.0 L 145.4,132.1 C 145.4,132.1 144.0,128.9 144.0,129.1 C 144.0,129.3 141.4,131.0 141.4,131.0 L 142.9,127.2 C 142.8,124.3 146.6,116.4 146.6,109.8 C 146.6,103.1 147.1,96.03 147.1,96.03 C 147.1,96.03 140.0,95.65 140.2,102.8 C 140.4,110.1 138.5,110.4 138.9,112.5 C 139.3,114.6 141.2,120.5 140.6,122.2 C 140.0,124.0 137.7,124.5 137.7,124.5 L 137.2,125.5 C 137.2,125.5 130.1,128.7 130.3,130.0 C 130.5,131.4 130.1,126.2 130.1,126.2 L 129.7,120.7 C 129.7,120.7 133.9,118.1 133.9,111.4 C 133.9,104.7 133.0,103.8 133.2,102.3 C 133.3,100.7 134.3,95.27 134.1,94.69 C 133.9,94.12 130.1,96.22 129.0,96.22 C 127.8,96.22 131.1,92.22 131.5,89.37 C 131.8,86.51 127.7,92.03 124.2,88.79 C 125.8,85.28 128.2,84.23 128.6,81.56 C 129.0,78.90 125.9,83.85 123.3,81.94 C 123.5,79.39 126.1,77.19 126.1,77.19 C 126.1,77.19 124.0,76.92 123.1,77.19 C 121.4,76.61 125.0,73.95 125.2,70.14 C 125.4,66.34 123.1,64.82 123.1,64.62 C 123.1,64.43 119.3,61.20 118.7,59.87 C 118.1,58.53 118.1,57.01 118.1,57.01 C 118.1,57.01 111.9,61.58 104.4,51.87 C 111.2,46.07 118.5,50.35 118.5,50.35 C 118.5,50.35 120.4,45.02 129.2,45.40 C 137.9,45.78 139.6,50.73 139.3,50.16 z " fill="#923f00" fill-opacity="1" fill-rule="evenodd" stroke="#000000" stroke-width="1pt" stroke-linecap="butt" stroke-linejoin="miter" stroke-opacity="1"/>
    <path d="M 187.1,148.6 C 187.3,148.6 203.3,149.0 203.5,157.6 C 203.6,166.2 198.5,163.9 198.4,163.9 C 198.2,163.9 186.7,162.5 186.7,162.5 L 187.1,148.6 z " fill="#0000ff" fill-opacity="1" fill-rule="evenodd" stroke="#000000" stroke-width="1pt" stroke-linecap="butt" stroke-linejoin="miter" stroke-opacity="1"/>
    <path d="M 171.6,146.2 C 171.6,146.2 191.6,146.0 190.5,154.7 C 189.4,163.5 184.3,161.7 184.3,161.7 L 174.6,160.9 L 171.6,146.2 z " fill="#fffeff" fill-opacity="1" fill-rule="evenodd" stroke="#000000" stroke-width="1pt" stroke-linecap="butt" stroke-linejoin="miter" stroke-opacity="1"/>
    <path d="M 160.3,145.2 L 171.9,146.2 C 171.9,146.2 178.9,147.1 178.6,153.8 C 178.3,160.4 171.4,160.6 171.4,160.6 L 160.2,160.0 L 160.3,145.2 z " fill="#0000ff" fill-opacity="1" fill-rule="evenodd" stroke="#000000" stroke-width="1pt" stroke-linecap="butt" stroke-linejoin="miter" stroke-opacity="1"/>
    <path d="M 133.3,148.6109 C 133.1,148.6 117.1,149.0 116.9,157.6 C 116.8,166.2 121.8,163.9 122.0,163.9 C 122.2,163.9 133.7,162.5 133.7,162.5 L 133.3,148.6109 z " fill="#ffffff" fill-opacity="1" fill-rule="evenodd" stroke="#000000" stroke-width="1pt" stroke-linecap="butt" stroke-linejoin="miter" stroke-opacity="1"/>
    <path d="M 148.8,146.2 C 148.8,146.2 128.8,146.0 129.9,154.7 C 131.0,163.5 136.1,161.7 136.1,161.7 L 145.8,160.9 L 148.8,146.2 z " fill="#0000ff" fill-opacity="1" fill-rule="evenodd" stroke="#000000" stroke-width="1pt" stroke-linecap="butt" stroke-linejoin="miter" stroke-opacity="1"/>
    <path d="M 160.0,145.2 L 148.5,146.2 C 148.5,146.2 141.5,147.1 141.8,153.8 C 142.1,160.4 148.9,160.6 148.9,160.6 L 160.2,160.0 L 160.0,145.2 z " fill="#ffffff" fill-opacity="1" fill-rule="evenodd" stroke="#000000" stroke-width="1pt" stroke-linecap="butt" stroke-linejoin="miter" stroke-opacity="1"/>
    <path d="M 191.0,241.5 C 191.0,241.5 199.3,229.2 202.8,230.5 C 205.9,231.5 203.6,241.0 202.1,241.9 L 191.0,241.5 z " fill="#5e0043" fill-opacity="1" fill-rule="evenodd" stroke="#000000" stroke-width="1pt" stroke-linecap="butt" stroke-linejoin="miter" stroke-opacity="1"/>
    <path d="M 134.0425,243.7 C 131.4,240.0 127.6,229.9 124.1,232.7 C 121.0,233.7 123.3,243.2 124.8,244.1 L 134.0425,243.7 z " fill="#5e0043" fill-opacity="1" fill-rule="evenodd" stroke="#000000" stroke-width="1pt" stroke-linecap="butt" stroke-linejoin="miter" stroke-opacity="1"/>
    <path d="M 139.5,219.4 C 139.5,219.4 155.7,229.4 161.0,229.7 C 166.4,229.9599 183.2,216.7 183.2,216.7" fill="none" fill-opacity="1" fill-rule="evenodd" stroke="#000000" stroke-width="1pt" stroke-linecap="butt" stroke-linejoin="miter" stroke-opacity="1"/>
    <path d="M 141.1,180.2 L 144.2,176.3 L 159.7,184.3 L 175.6,177.3 L 178.7,180.5 L 161.0,192.9 L 141.1,180.2 z " fill="#5e0043" fill-opacity="1" fill-rule="evenodd" stroke="#000000" stroke-width="1pt" stroke-linecap="butt" stroke-linejoin="miter" stroke-opacity="1"/>
    <path d="M 128.7,180.0 C 130.0,181.6 140.0,193.9 141.8,204.0 C 143.7,214.1 140.8,190.1 140.8,190.1 C 140.8,190.1 153.3,196.2 153.6,200.1 C 154.0,204.0 159.6,199.8 159.9,199.2 L 123.8,175.7 L 128.7,180.0 z " fill="#474747" fill-opacity="1" fill-rule="evenodd" stroke="#474747" stroke-width="1.25" stroke-linecap="butt" stroke-linejoin="round" stroke-dasharray="none" stroke-opacity="1"/>
    <path d="M 190.2,179.3 C 190.2,179.3 177.1,196.6 178.7,215.4 C 176.0,206.4 178.2,191.5 178.2,191.5 L 175.3,193.3 C 175.3,193.3 172.3,206.0 168.6,208.0 C 167.9,206.5 168.0,205.9 168.0,205.9 C 168.0,205.9 164.0,211.1 163.2,211.6 C 162.5,212.1 163.5,229.1 163.5,229.1 C 163.5,229.1 164.8,241.4 166.4,241.3 C 164.6,242.2 162.5,243.5 162.5,243.5 L 160.8,210.6 L 164.5,207.0 C 164.5,207.0 169.5,201.0 169.9,195.2 C 167.7,197.0 165.3,197.5 165.3,197.5 C 165.3,197.5 164.7,205.8 162.7,207.0 C 160.8,208.1 160.7,210.3 160.7,210.3 L 160.3,199.4 L 190.2,179.3 z " fill="#474747" fill-opacity="1" fill-rule="evenodd" stroke="#474747" stroke-width="1.25" stroke-linecap="butt" stroke-linejoin="round" stroke-dasharray="none" stroke-opacity="1"/>
    <path d="M 160.3,199.3 L 162.8,251.2" fill="none" fill-opacity="1" fill-rule="evenodd" stroke="#000000" stroke-width="1.25" stroke-linecap="round" stroke-linejoin="miter" stroke-dasharray="none" stroke-opacity="1"/>
    <path d="M 128.3,224.1 C 128.3,224.1 134.3,227.6 136.5,238.2 C 156.0,236.8 162.1,243.7 162.1,243.7 C 162.1,243.7 178.0,236.0 185.4,237.4 C 188.0,232.0 195.4,225.0 195.4,225.0" fill="none" fill-opacity="1" fill-rule="evenodd" stroke="#000000" stroke-width="1pt" stroke-linecap="butt" stroke-linejoin="miter" stroke-opacity="1"/>
    <path d="M 120.2,173.2 L 160.3,199.4 L 196.3,175.2 C 196.3,175.2 203.8,171.0 203.2,168.0 C 202.5,165.1 199.9,166.2 198.6,166.7 C 197.3,167.3 160.9,193.1 160.9,193.1 L 122.1,168.6 C 122.1,168.6 119.3,167.7 118.8,169.5 C 118.2,171.3 119.8,172.3 120.2,173.2 z " fill="#b4b6b9" fill-opacity="1" fill-rule="evenodd" stroke="#000000" stroke-width="1pt" stroke-linecap="butt" stroke-linejoin="miter" stroke-opacity="1"/>
    <path d="M 191.8,166.4 C 191.8,166.4 181.6,162.1 181.6,165.8 C 181.6,169.6 181.9,170.0 183.5,172.4 C 185.2,174.8 182.3,176.4 182.3,176.4 C 182.3,176.4 181.9,175.3 181.3,173.7 C 180.7,172.0 175.2,170.9 174.7,168.9 C 174.2,167.0 175.9,163.9 172.6,163.5 C 169.3,163.1 166.1,164.9 165.4,168.6 C 164.8,172.4 160.5,181.2 160.5,181.2 L 161.1,161.2 C 168.3,161.7 181.7,163.3 192.0,164.5 C 188.9,164.0 193.2,164.7 193.1,165.7 C 192.8,166.6 191.7,166.7 191.8,166.4 z " fill="#474747" fill-opacity="1" fill-rule="evenodd" stroke="#474747" stroke-width="1.25" stroke-linecap="butt" stroke-linejoin="round" stroke-dasharray="none" stroke-opacity="1"/>
    <path d="M 155.6,161.4 C 153.7,161.4 144.6,162.5 142.2,163.8 C 139.9,165.2 146.0,167.3 145.2,169.1 C 144.5,171.0 144.4,174.6 141.5,173.9 C 138.6,173.1 128.8,168.3 128.5,166.6 C 128.2,165.0 126.2,164.9 126.2,164.9 C 126.2,164.9 154.2,161.1 155.6,161.4 z " fill="#474747" fill-opacity="1" fill-rule="evenodd" stroke="#474747" stroke-width="1.25" stroke-linecap="butt" stroke-linejoin="round" stroke-dasharray="none" stroke-opacity="1"/>
    <path d="M 160.0,159.1 L 159.9,183.7" fill="none" fill-opacity="1" fill-rule="evenodd" stroke="#000000" stroke-width="1pt" stroke-linecap="butt" stroke-linejoin="miter" stroke-opacity="1"/>
    <path d="M 141.1,130.1 C 141.1,130.1 129.8,148.4 129.6,148.9" fill="none" fill-opacity="1" fill-rule="evenodd" stroke="#000000" stroke-width="1pt" stroke-linecap="butt" stroke-linejoin="miter" stroke-opacity="1"/>
    <path d="M 161.7,129.7 C 161.7,129.7 166.6,136.4 166.1,138.3 C 168.1,139.8 170.3,146.0 170.3,146.0" fill="url(#linearGradient746)" fill-opacity="1" fill-rule="evenodd" stroke="#000000" stroke-width="1pt" stroke-linecap="butt" stroke-linejoin="miter" stroke-opacity="1"/>
    <path d="M 180.6,128.6 C 180.6,128.6 170.1,143.5 170.4,144.6" fill="none" fill-opacity="1" fill-rule="evenodd" stroke="#000000" stroke-width="1pt" stroke-linecap="butt" stroke-linejoin="miter" stroke-opacity="1"/>
    <path d="M 126.49678 56.747559 A 2.532681 1.437454 0 1 1  121.4,56.74 A 2.532681 1.437454 0 1 1  126.49678 56.747559 z" transform="matrix(1.016089,0.311175,-0.301255,1.049549,15.15004,-41.14085)" fill="#000000" fill-opacity="1" fill-rule="evenodd" stroke="none" stroke-width="1pt" stroke-linecap="butt" stroke-linejoin="miter" stroke-opacity="1"/>
    <path d="M 126.49678 56.747559 A 2.532681 1.437454 0 1 1  121.4,56.74 A 2.532681 1.437454 0 1 1  126.49678 56.747559 z" transform="matrix(-1.016089,0.311175,0.301255,1.049549,242.3027,-41.43542)" fill="#000000" fill-opacity="1" fill-rule="evenodd" stroke="none" stroke-width="1pt" stroke-linecap="butt" stroke-linejoin="miter" stroke-opacity="1"/>
    <path d="M 254.4,366.1 C 254.4,366.1 250.5,366.8 250.6,367.2 C 250.8183,367.6 239.3,367.9 239.0669,367.6 C 238.8,367.2 237.3,369.5 237.3,369.5 L 239.1,368.4 C 239.1,368.4 242.0,371.3 242.8,371.1 C 243.7,370.9 242.4,372.2 242.7,372.4 C 242.9,372.7 243.8,372.0 243.8,372.0 L 262.8,371.6 L 254.4,366.1 z " fill="#ff7000" fill-opacity="1" fill-rule="evenodd" stroke="#000000" stroke-width="1pt" stroke-linecap="butt" stroke-linejoin="round" stroke-opacity="1"/>
    <path d="M 261.5,372.0 L 246.0,372.4 C 246.0,372.4 242.1,376.0 241.8,376.9 C 241.6,377.7 244.4,378.0 244.4,378.0 L 245.3,380.9 L 247.2,380.2 C 247.2,380.2 260.4,382.1 272.6,379.4 C 278.7,377.3 279.7,374.7 275.5,373.2 C 271.2,371.6 261.7,372.1 261.5,372.0 z " fill="#ff7000" fill-opacity="1" fill-rule="evenodd" stroke="#000000" stroke-width="1.25" stroke-linecap="butt" stroke-linejoin="round" stroke-dasharray="none" stroke-opacity="1"/>
    <path d="M 208.3,403.9 L 236.3,402.6 L 231.1,398.2 L 306.7,395.2 L 304.1,389.2 L 219.4,392.6 L 229.6,397.3 L 206.7,398.0 L 207.4,400.4 L 201.4,400.1 C 201.4,400.1 208.1,402.7 208.3,403.9 z " fill="url(#linearGradient794)" fill-opacity="1" fill-rule="evenodd" stroke="#000000" stroke-width="1pt" stroke-linecap="butt" stroke-linejoin="miter" stroke-opacity="1"/>
    <path d="M 239.7,249.4 C 237.5,248.3 227.7,246.9 216.8,254.0 L 217.2,279.1 C 217.2,279.1 233.2,270.5 241.0,272.5 C 240.6,264.7 240.6,254.7 239.7,249.4 z " fill="url(#linearGradient800)" fill-opacity="1" fill-rule="evenodd" stroke="#000000" stroke-width="1pt" stroke-linecap="butt" stroke-linejoin="miter" stroke-opacity="1"/>
    <path d="M 85.07,325.6 L 19.11,391.1" fill="none" fill-opacity="1" fill-rule="evenodd" stroke="#000000" stroke-width="1pt" stroke-linecap="butt" stroke-linejoin="miter" stroke-opacity="1"/>
    <path d="M 114.4,326.1 L 60.93,396.6" fill="none" fill-opacity="1" fill-rule="evenodd" stroke="#000000" stroke-width="1pt" stroke-linecap="butt" stroke-linejoin="miter" stroke-opacity="1"/>
    <path d="M 112.0,307.7 L 40.62,394.2" fill="none" fill-opacity="1" fill-rule="evenodd" stroke="#000000" stroke-width="1pt" stroke-linecap="butt" stroke-linejoin="miter" stroke-opacity="1"/>
    <path d="M 38.47,393.0 L 45.40,384.9" fill="none" fill-opacity="1" fill-rule="evenodd" stroke="#000000" stroke-width="1pt" stroke-linecap="butt" stroke-linejoin="miter" stroke-opacity="1"/>
    <path d="M 125.6,351.2 L 97.97,389.4" fill="none" fill-opacity="1" fill-rule="evenodd" stroke="#000000" stroke-width="1pt" stroke-linecap="butt" stroke-linejoin="miter" stroke-opacity="1"/>
    <path d="M 96.78,394.4 L 97.5,409.0534" fill="none" fill-opacity="1" fill-rule="evenodd" stroke="#000000" stroke-width="1pt" stroke-linecap="butt" stroke-linejoin="miter" stroke-opacity="1"/>
    <path d="M 138.3,364.6 L 108.9,401.4" fill="none" fill-opacity="1" fill-rule="evenodd" stroke="#000000" stroke-width="1pt" stroke-linecap="butt" stroke-linejoin="miter" stroke-opacity="1"/>
    <path d="M 133.1,398.5 L 145.0,378.9" fill="none" fill-opacity="1" fill-rule="evenodd" stroke="#000000" stroke-width="1pt" stroke-linecap="butt" stroke-linejoin="miter" stroke-opacity="1"/>
    <path d="M 137.6,375.1 L 123.3,391.3" fill="none" fill-opacity="1" fill-rule="evenodd" stroke="#000000" stroke-width="1pt" stroke-linecap="butt" stroke-linejoin="miter" stroke-opacity="1"/>
    <path d="M 133.3,359.8 L 123.5,371.7" fill="none" fill-opacity="1" fill-rule="evenodd" stroke="#000000" stroke-width="1pt" stroke-linecap="butt" stroke-linejoin="miter" stroke-opacity="1"/>
    <path d="M 120.6,342.3 C 120.6,342.3 90.80,386.1 91.28,389.6" fill="none" fill-opacity="1" fill-rule="evenodd" stroke="#000000" stroke-width="1pt" stroke-linecap="butt" stroke-linejoin="miter" stroke-opacity="1"/>
    <path d="M 117.5,336.6 C 116.8,337.1 91.76,370.3 91.76,370.3" fill="none" fill-opacity="1" fill-rule="evenodd" stroke="#000000" stroke-width="1pt" stroke-linecap="butt" stroke-linejoin="miter" stroke-opacity="1"/>
    <path d="M 90.33,380.8 L 85.79,386.3" fill="none" fill-opacity="1" fill-rule="evenodd" stroke="#000000" stroke-width="1pt" stroke-linecap="butt" stroke-linejoin="miter" stroke-opacity="1"/>
    <path d="M 80.05,394.7 L 73.12,403.7" fill="none" fill-opacity="1" fill-rule="evenodd" stroke="#000000" stroke-width="1pt" stroke-linecap="butt" stroke-linejoin="miter" stroke-opacity="1"/>
    <path d="M 81.81,225.0 C 81.81,225.0 79.78,231.3 81.81,234.5 C 83.83,237.7 96.55,263.4 96.55,263.4 C 96.55,263.4 105.2,252.7 108.4,252.4 C 111.5,252.1 110.1,280.2 110.1,280.2 C 110.1,280.2 104.9,285.1 101.7,284.8 C 98.57,284.5 109.5,295.8 109.2,305.3 C 108.9,314.9 94.81,362.3 89.61,363.1 C 84.41,364.0 91.92,354.5 91.63,351.9 C 91.35,349.3 89.90,351.0 88.74,348.1 C 87.59,345.2 90.48,340.9 89.90,338.0 C 89.32,335.1 86.72,335.7 86.43,333.6 C 86.14,331.6 88.17,331.0 87.88,328.7 C 87.59,326.4 84.41,327.0 84.70,325.0 C 84.99,323.0 85.27,323.8 84.99,320.1 C 84.70,316.3 84.12,322.7 80.94,323.0 C 77.76,323.2 75.16,330.5 75.16,330.5 C 75.16,330.5 68.80,339.4 62.44,335.4 C 66.20,343.5 63.30,346.9 61.86,347.2 C 60.41,347.5 63.02,353.6 59.55,353.9 C 56.08,354.2 62.15,367.5 58.10,368.6 C 62.44,370.7 58.97,373.3 58.97,373.3 C 58.97,373.3 48.95,374.1 51.16,387.1 C 21.68,376.7 7.227,358.8 7.516,340.6 C 7.805,322.4 13.58,305.9 27.75,299.8 C 31.79,284.8 38.73,268.6 38.73,268.6 C 38.73,268.6 37.58,262.0 38.44,257.6 C 39.31,253.3 43.36,248.9 43.36,248.9 C 43.36,248.9 42.78,238.5 43.07,233.3 C 43.36,228.1 45.38,225.8 45.67,222.9 C 45.96,220.0 44.80,205.3 47.69,202.7 C 50.58,200.1 56.08,200.4 58.97,198.6 C 61.86,196.9 65.62,193.7 69.38,194.0 C 73.13,194.3 76.31,196.9 76.31,196.9 C 76.31,196.9 90.48,196.9 91.35,202.4 C 92.21,207.9 88.45,209.9 88.45,209.9 C 88.45,209.9 90.48,217.7 81.81,225.0 z " fill="#8a9396" fill-opacity="1" fill-rule="evenodd" stroke="#2b2b2b" stroke-width="1pt" stroke-linecap="butt" stroke-linejoin="miter" stroke-opacity="1"/>
    <path d="M 69.665619 206.4534 A 3.558769 1.725464 0 1 1  62.54,206.4 A 3.558769 1.725464 0 1 1  69.665619 206.4534 z" transform="matrix(0.879422,-0.476042,0.476042,0.879422,-90.30953,56.57895)" fill="#cecfcf" fill-opacity="1" fill-rule="evenodd" stroke="#2b2b2b" stroke-width="1pt" stroke-linecap="butt" stroke-linejoin="miter" stroke-opacity="1"/>
    <path d="M 66.679688 206.4442 A 0.99609399 0.64453101 0 1 1  64.68,206.4 A 0.99609399 0.64453101 0 1 1  66.679688 206.4442 z" transform="matrix(1.078431,0,0,1.484848,-5.073524,-100.086)" fill="#000000" fill-opacity="1" fill-rule="evenodd" stroke="none" stroke-width="1pt" stroke-linecap="butt" stroke-linejoin="miter" stroke-opacity="1"/>
    <path d="M 87.97112,216 C 87.97112,216 91.48,231.6 87.28,242.5" fill="none" fill-opacity="1" fill-rule="evenodd" stroke="#2b2b2b" stroke-width="0.625" stroke-linecap="butt" stroke-linejoin="miter" stroke-dasharray="none" stroke-opacity="1"/>
    <path d="M 89.05,209.1 C 89.05,209.1 95.90,218.1 95.01,229.4" fill="none" fill-opacity="1" fill-rule="evenodd" stroke="#2b2b2b" stroke-width="0.625" stroke-linecap="butt" stroke-linejoin="miter" stroke-dasharray="none" stroke-opacity="1"/>
    <path d="M 89.71,207.1 C 89.93,207.1 95.45,212.0 95.23,215.3" fill="none" fill-opacity="1" fill-rule="evenodd" stroke="#2b2b2b" stroke-width="0.625" stroke-linecap="butt" stroke-linejoin="miter" stroke-dasharray="none" stroke-opacity="1"/>
    <path d="M 91.04,205.1 C 91.04,205.1 94.79,207.8 95.68,210.4" fill="none" fill-opacity="1" fill-rule="evenodd" stroke="#2b2b2b" stroke-width="0.625" stroke-linecap="butt" stroke-linejoin="miter" stroke-dasharray="none" stroke-opacity="1"/>
    <path d="M 89.27,203.6 C 89.27,203.6 75.79,225.4 77.56,239.1" fill="none" fill-opacity="1" fill-rule="evenodd" stroke="#000000" stroke-width="1pt" stroke-linecap="butt" stroke-linejoin="miter" stroke-opacity="1"/>
    <path d="M 90.15,202.9 C 90.15,202.9 72.25,213.5 68.94,248.2" fill="none" fill-opacity="1" fill-rule="evenodd" stroke="#2b2b2b" stroke-width="0.625" stroke-linecap="butt" stroke-linejoin="miter" stroke-dasharray="none" stroke-opacity="1"/>
    <path d="M 88.16,209.3 L 81.09,214.6" fill="none" fill-opacity="1" fill-rule="evenodd" stroke="#000000" stroke-width="1pt" stroke-linecap="butt" stroke-linejoin="miter" stroke-opacity="1"/>
    <path d="M 62.31,250.2 C 62.31,250.2 72.25,208.9 89.93,202.9" fill="none" fill-opacity="1" fill-rule="evenodd" stroke="#2b2b2b" stroke-width="0.625" stroke-linecap="butt" stroke-linejoin="miter" stroke-dasharray="none" stroke-opacity="1"/>
    <path d="M 96.78,264.1 C 96.78,264.1 106.2,252.2 108.4,252.6 C 110.7,253.1 110.0,280.2 110.0,280.2 C 110.0,280.2 102.9,285.5 101.4,285.3 C 99.87,285.1 109.3,298.1 109.1,303.0 C 108.9,307.9 108.7,307.9 108.7,307.9 C 108.7,307.9 108.7,305.0 106.5,300.3 C 104.2,295.7 105.6,290.4 91.26,278.7 C 87.72,271.4 98.33,283.1 100.5,281.3 C 102.7,279.6 96.56,264.3 96.78,264.1 z " fill="#2b2b2b" fill-opacity="1" fill-rule="evenodd" stroke="#2b2b2b" stroke-width="1pt" stroke-linecap="butt" stroke-linejoin="miter" stroke-opacity="1"/>
    <path d="M 79.89,196.9 C 79.89,196.9 75.89,198.0 75.35,199.6 C 74.80,201.3 72.44,202.9 71.17,202.4 C 69.90,201.8 67.54,199.8 67.54,199.8" fill="none" fill-opacity="1" fill-rule="evenodd" stroke="#2b2b2b" stroke-width="1pt" stroke-linecap="butt" stroke-linejoin="miter" stroke-opacity="1"/>
    <path d="M 57.19,210.9 C 57.19,210.9 51.20,216.9 54.10,217.6 C 57.01,218.3 60.10,212.9 60.10,212.9 C 60.10,212.9 60.10,222.1 62.64,220.7 C 65.18,219.2 72.63,214.0 72.63,214.0 C 72.63,214.0 75.17,213.8 75.71,214.0 C 76.26,214.2 82.61,219.6 86.79,217.6 C 84.43,223.8 81.70,224.5 81.70,224.5 C 81.70,224.5 77.35,230.1 71.72,228.9 C 66.09,227.6 64.64,225.2 64.64,225.2 C 64.64,225.2 59.92,225.6 58.46,223.4 C 57.01,221.2 56.47,220.0 56.47,220.0 C 56.47,220.0 53.74,222.7 53.02,221.4 C 52.29,220.1 53.02,212.7 57.19,210.9 z " fill="#2b2b2b" fill-opacity="1" fill-rule="evenodd" stroke="#2b2b2b" stroke-width="1.25" stroke-linecap="butt" stroke-linejoin="round" stroke-dasharray="none" stroke-opacity="1"/>
    <path d="M 91.15,202.5 C 91.15,202.5 80.07,199.3 76.26,204.7 C 72.44,210.2 73.35,213.2 75.35,213.8" fill="none" fill-opacity="1" fill-rule="evenodd" stroke="#2b2b2b" stroke-width="1pt" stroke-linecap="butt" stroke-linejoin="miter" stroke-opacity="1"/>
    <path d="M 92.860111 202.2807 A 2.0881231 2.364502 0 1 1  88.68,202.2 A 2.0881231 2.364502 0 1 1  92.860111 202.2807 z" fill="#000000" fill-opacity="1" fill-rule="evenodd" stroke="none" stroke-width="1pt" stroke-linecap="butt" stroke-linejoin="miter" stroke-opacity="1"/>
    <path d="M 60.62,230.5 C 60.62,230.5 65.14,237.4 70.52,239.4 C 75.91,241.3 66.79,242.9 61.40,239.3 C 57.49,234.0 58.53,230.1 58.53,230.1 C 58.53,230.1 59.58,229.1 60.62,230.5 z " fill="#2b2b2b" fill-opacity="1" fill-rule="evenodd" stroke="#2b2b2b" stroke-width="1pt" stroke-linecap="butt" stroke-linejoin="miter" stroke-opacity="1"/>
    <path d="M 99.27,271.5 C 99.27,271.5 86.59,253.9 82.94,252.9 C 79.29,251.9 85.72,251.2 89.63,254.9 C 93.54,258.6 88.59,248.8 88.59,248.8 L 99.27,271.5 z " fill="#2b2b2b" fill-opacity="1" fill-rule="evenodd" stroke="#2b2b2b" stroke-width="1pt" stroke-linecap="butt" stroke-linejoin="miter" stroke-opacity="1"/>
    <path d="M 59.40,373.4 C 64.27,372.1 85.46,385.5 90.24,388.9 C 95.01,392.3 105.0,390.1 105.0,390.1 C 105.0,390.1 100.4,392.9 97.53,393.6 C 94.67,394.3 106.0,394.3 106.0,394.3 C 106.0,394.3 78.95,401.8 51.41,387.3 C 48.89,376.0 57.32,373.5 59.40,373.4 z " fill="#2b2b2b" fill-opacity="1" fill-rule="evenodd" stroke="#2b2b2b" stroke-width="1.25" stroke-linecap="butt" stroke-linejoin="round" stroke-dasharray="none" stroke-opacity="1"/>
    <path d="M 90.41,275.8 C 90.41,275.8 86.85,275.1 85.03,273.1 C 83.20,271.0 80.60,265.8 77.90,263.7 C 75.21,261.5 61.75,254.1 56.88,254.6 C 52.02,255.2 50.54,254.1 49.94,253.5 C 49.33,252.9 47.33,253.8 47.68,256.3 C 48.03,258.8 43.94,264.4 45.42,267.0 C 46.90,269.6 53.84,280.2 55.23,280.5 C 56.62,280.9 55.76,286.7 55.76,286.7 C 55.76,286.7 61.92,292.9 63.49,293.3 C 65.05,293.6 66.61,294.8 66.44,296.2 C 66.27,297.7 59.66,305.8 59.66,305.8 C 59.66,305.8 52.54,309.5 52.46,311.6 C 52.37,313.7 54.19,318.0 59.84,319.4 C 65.48,320.8 80.68,319.7 81.46,318.4 C 82.25,317.1 83.46,309.3 82.94,308.5 C 82.42,307.7 78.69,305.4 76.77,305.7 C 74.86,306.1 73.13,307.6 73.30,308.0 C 73.47,308.3 70.61,309.8 70.61,308.4 C 70.61,307.0 76.25,300.8 76.77,301.3 C 77.30,301.8 85.29,302.6 86.76,306.6 C 88.24,310.6 88.24,313.4 92.41,313.0 C 96.58,312.6 102.4,308.8 102.9,300.8 C 103.4,292.8 98.23,287.4 96.92,286.6 C 95.62,285.8 91.28,283.2 90.93,282.0 C 90.58,280.8 89.72,276.8 90.41,275.8 z " fill="#2b2b2b" fill-opacity="1" fill-rule="evenodd" stroke="#2b2b2b" stroke-width="1pt" stroke-linecap="butt" stroke-linejoin="miter" stroke-opacity="1"/>
    <path d="M 15.28,311.1 C 15.28,311.1 28.74,307.6 32.22,307.7 C 35.69,307.8 48.81,313.9 52.63,317.6 C 56.45,321.3 64.27,330.2 69.39,329.4 C 74.52,328.6 75.99,327.6 75.99,327.6 L 74.00,331.4 C 74.00,331.4 69.83,332.5 67.74,332.0 C 65.66,331.5 61.57,330.2 57.49,326.2 C 53.41,322.2 40.82,311.4 30.13,312.2 C 19.45,313.0 13.28,323.5 13.28,323.5 C 13.28,323.5 13.37,318.4 13.80,317.3 C 14.24,316.1 11.55,319.7 11.55,319.7 L 15.28,311.1 z " fill="#2b2b2b" fill-opacity="1" fill-rule="evenodd" stroke="#2b2b2b" stroke-width="1pt" stroke-linecap="butt" stroke-linejoin="miter" stroke-opacity="1"/>
    <path d="M 64.88,321.5 C 64.96,321.6 68.26,322.5 73.82,322.5 C 79.38,322.5 82.33,320.0 82.33,320.0 L 81.99,317.9 L 82.85,314.8 C 82.85,314.8 87.11,319.2 87.02,320.0 C 86.94,320.9 85.29,321.3 85.29,321.3 L 84.68,319.2 L 83.20,321.0 C 83.20,321.0 75.12,327.4 70.69,326.5 C 66.27,325.5 62.18,322.6 63.31,322.0 C 64.44,321.3 65.05,321.5 64.88,321.5 z " fill="#2b2b2b" fill-opacity="1" fill-rule="evenodd" stroke="#2b2b2b" stroke-width="1pt" stroke-linecap="butt" stroke-linejoin="miter" stroke-opacity="1"/>
    <path d="M 45.25,332.9 C 45.25,332.9 40.38,332.8 38.21,333.9 C 36.04,334.9 35.26,336.2 33.78,336.0 C 32.30,335.8 31.18,333.9 31.61,333.2 C 32.22,331.9 35.08,330.4 40.56,330.8 C 46.03,331.2 45.25,332.9 45.25,332.9 z " fill="#2b2b2b" fill-opacity="1" fill-rule="evenodd" stroke="#2b2b2b" stroke-width="1pt" stroke-linecap="butt" stroke-linejoin="miter" stroke-opacity="1"/>
    <path d="M 62.27,346.1 C 62.27,345.8 61.92,339.0 59.23,336.2 C 56.54,333.4 53.24,333.4 51.76,333.8 C 50.28,334.1 57.23,337.2 57.93,339.1 C 58.62,341.1 60.88,346.7 60.27,348.1 C 59.66,349.5 58.54,344.2367 54.28,342.7 C 50.02,341.2 44.12,342.0 45.33,343.9 C 46.55,345.8 51.33,344.1 53.76,348.2 C 56.19,352.3 58.01,356.6 58.01,356.6 L 58.80,353.7 L 60.97,353.0 L 61.23,347.4 L 62.27,346.1 z " fill="#2b2b2b" fill-opacity="1" fill-rule="evenodd" stroke="#2b2b2b" stroke-width="1pt" stroke-linecap="butt" stroke-linejoin="miter" stroke-opacity="1"/>
    <path d="M 58.80,368.3 L 54.37,359.5 C 54.37,359.5 52.98,353.8 49.24,352.3 C 45.51,350.7 40.56,351.0 40.47,352.9 C 40.38,354.8 48.46,357.2 48.98,358.3 C 49.50,359.3 49.24,361.0 48.55,361.1 C 47.85,361.2 44.29,359.8 42.47,360.3 C 40.64,360.7 39.60,363.0 36.91,362.3 C 34.22,361.6 31.96,353.0 33.00,352.2 C 34.04,351.3 31.00,353.7 30.39,351.5 C 29.79,349.2 31.26,342.2 30.22,341.3 C 29.18,340.5 24.14,337.4 24.05,336.8 C 23.97,336.2 24.31,302.2 52.72,330.4 C 40.56,316.0 35.78,317.5 33.52,317.4 C 31.87,317.4 20.84,318.4 18.06,332.5 C 15.28,346.5 11.98,337.8 11.98,337.8 C 11.98,337.8 11.37,343.8 14.33,345.6 C 17.28,347.3 12.94,352.4 12.94,352.4 C 12.94,352.4 7.643,339.4 8.424,333.8 C 7.382,338.3 7.469,349.5 14.15,361.7 C 21.97,370.0 29.35,377.6 48.98,386.2 C 59.32,370.4 58.80,368.5 58.80,368.3 z " fill="#2b2b2b" fill-opacity="1" fill-rule="evenodd" stroke="#2b2b2b" stroke-width="1.25" stroke-linecap="butt" stroke-linejoin="round" stroke-dasharray="none" stroke-opacity="1"/>
    <path d="M 40.21,368.4 C 40.21,368.4 45.94,369.1 47.50,372.1 C 49.07,375.0 49.76,379.5 49.76,379.5 C 50.72,377.6 51.15,376.0 53.06,374.6 C 54.97,373.2 56.36,373.0 56.28,372.0 C 56.19,370.9 50.20,364.6 47.16,364.3 C 44.12,363.9 38.82,367.6 38.82,367.6 C 38.82,367.6 37.86,368.9 40.21,368.4 z " fill="#8a9396" fill-opacity="1" fill-rule="evenodd" stroke="#2b2b2b" stroke-width="1.25" stroke-linecap="butt" stroke-linejoin="round" stroke-dasharray="none" stroke-opacity="1"/>
    <path d="M 53.30,383.4 C 53.30,383.4 68.16,390.1 92.63,390.6" fill="none" fill-opacity="1" fill-rule="evenodd" stroke="#8a9396" stroke-width="1.25" stroke-linecap="round" stroke-linejoin="miter" stroke-dasharray="none" stroke-opacity="1"/>
    <path d="M 102.9,314.4 C 102.9,314.4 101.6,326.9 92.03,351.5" fill="none" fill-opacity="1" fill-rule="evenodd" stroke="#2b2b2b" stroke-width="1.25" stroke-linecap="round" stroke-linejoin="miter" stroke-dasharray="none" stroke-opacity="1"/>
    <path d="M 100.9,322.1 C 100.9,322.1 98.11,331.0 90.12,337.7" fill="none" fill-opacity="1" fill-rule="evenodd" stroke="#2b2b2b" stroke-width="1pt" stroke-linecap="butt" stroke-linejoin="miter" stroke-opacity="1"/>
  </g>
  
</svg>
