<?xml version="1.0" encoding="UTF-8" standalone="no"?>
<svg xmlns="http://www.w3.org/2000/svg" xmlns:xlink="http://www.w3.org/1999/xlink" version="1.1" width="1000" height="500" viewBox="0 0 1000 500" id="Kazakhstan_svg"> 
<desc>Flag of the Republic of Kazakhstan</desc>
<defs>
<path id="be" d="M 0,-76.45 C 4,-76.5 5.5,-79 5.5,-82 C 5.5,-86 0,-105.05 0,-105.05 C 0,-105.05 -5.5,-86 -5.5,-82 C -5.5,-79 -4,-76.45 0,-76.45 L 0,-76.45 z"/>
<path id="orn" d="M -1,15 C -1,5 8,-0.14 15.072121,-0.14 C 24.6,-0.14 29.67,5.542 29.67,12.98 C 29.67,17.19 28.89,19.84 26.94,23.88 C 26.94,23.88 11.23,56.48 5.113,69.09 C 4.350,70.67 4.104,72.46 4.104,75.08 C 4.104,79.14 8.046,82.45 12.17,82.55 C 15.94,82.65 20.05,79.05 20.05,74.95 C 20.05,69.97 17.46,67.75 14.80,67.75 C 11.53,67.75 10.22,69.09 10.22,71.38 C 10.22,72.98 11.00,73.67 12.11,73.67 C 14.91,73.67 14.13,69.90 14.13,69.90 C 15.52,70.21 16.66,71.63 16.01,73.40 C 17.03,73.63 17.98,74.16 18.73,75.01 C 17.98,75.74 17.12,76.30 16.01,76.50 C 16.67,78.66 15.79,79.72 13.89,80.16 C 14.27,79.33 14.29,78.56 14.16,77.84 C 11.17,78.69 6.594,77.34 6.594,72.19 C 6.594,67.08 10.15,62.77 16.82,63.85 C 15.23,63.09 14.42,61.54 14.26,59.81 C 15.47,60.28 16.82,60.35 16.82,60.35 C 16.04,58.97 14.95,57.79 15.00,55.10 C 16.24,55.66 17.38,56.70 18.97,56.04 C 16.48,51.16 19.54,44.44 27.31,42.85 C 24.47,46.18 23.07,49.77 23.07,53.35 C 23.07,64.94 26.30,66.89 26.30,74.95 C 26.30,78.32 24.57,81.96 21.12,84.44 L 21.12,84.30 C 23.40,84.91 24.86,86.03 25.7,87.55 C 20.49,89.02 12.94,88.99 8.881,87.40 C 4.216,86.86 0.959,83.29 0,81.479469 C -0.95971684,79.66829 -2.8236958,73.114579 0,67.214782 C 3.090,60.75 17.66,29.93 22.20,20.24 C 23.16,18.19 23.75,16.01 23.75,13.65 C 23.75,7.719 18.30,5.647 15.20,5.647 C 11.50,5.647 7.737,8.460 7.737,11.97 C 7.737,14.19 8.949,15.53 10.69,15.53 C 14.88,15.53 14.62,11.98 13.79,9.752 C 16.39,10.91 17.91,13.00 17.49,15.20 C 18.96,15.40 20.37,16.10 21.66,17.55 C 20.64,18.84 19.40,19.81 17.49,19.84 C 18.32,23.25 16.04,24.69 13.79,25.49 C 14.50,22.99 14.97,20.11 10.69,20.11 C 7.583,20.11 5.130,19.57 3.700,17.55 C 3.616,20.24 3.364,30.88 3.364,30.88 C 3.184,34.87 8.724,34.76 12.24,33.57 C 10.91,38.17 8.191,40.66 1.884,40.03 C 3.414,40.67 5.046,42.10 5.046,44.87 C 5.046,48.62 2,52.772886 0,54 z"/>
<path id="uorn" d="M 0,-35.598637 C 0,-35.598637 4.7530782,-39.583055 6.3671251,-37.584572 C 8.9631893,-34.370174 -1.6148703,-18.359773 -1.6148703,-12.721308 C -1.6148703,-3.4663271 4.5753036,-0.9495749 12.21,0.371 C 17.34,1.258 25.7,0 25.7,0 C 24.127458,-2.1078802 23.104712,-2.7289755 20.455023,-2.8975143 C 23.404894,-4.4252648 26.408867,-7.7416056 26.408867,-12.90486 C 26.408867,-20.866568 23.123385,-24.147608 23.123385,-33.123391 C 23.123385,-38.102574 27.216302,-44.441008 27.216302,-44.441008 C 19.982003,-43.718733 16.396176,-37.036315 18.436436,-31.696034 C 17.284843,-31.530555 16.239265,-31.78914 15.341267,-32.638042 C 14.811816,-31.157744 15.647621,-29.439553 16.767224,-27.959255 C 15.865491,-27.478574 15.203266,-27.766834 13.767214,-28.062576 C 13.903389,-26.537421 14.81955,-24.917108 17.060859,-23.391953 C 10.556777,-25.076417 6.5546382,-20.554385 6.5546382,-15.820438 C 6.5546382,-12.244602 9.0665766,-9.6818822 11.521697,-9.6818822 C 12.315163,-9.6818822 13.480714,-10.007886 14.138278,-10.497481 C 14.601801,-9.5133367 14.362949,-8.1961425 13.885459,-7.2119982 C 15.685071,-7.686535 16.827225,-8.7527235 16.01413,-10.971863 C 17.396346,-11.098529 18.495865,-11.564431 19.243871,-12.452148 C 18.486057,-13.420288 17.336466,-13.977953 16.01413,-13.932434 C 17.020519,-16.004247 15.898976,-17.164115 14.264687,-18.104209 C 14.264687,-18.104209 15.304002,-13.932461 12.649817,-13.932461 C 11.456315,-13.932461 10.368847,-14.320046 10.368847,-16.074657 C 10.368847,-17.602563 11.707809,-19.71908 14.802977,-19.584507 C 17.898145,-19.449935 20.407444,-17.455622 20.407444,-12.526793 C 20.407444,-7.9800039 16.731198,-5.7186754 11.886919,-5.5726384 C 7.5180943,-5.4380659 4.2207273,-7.7989729 4.2207273,-12.294502 C 4.2207273,-18.277988 12.879547,-31.9162 12.879547,-37.248961 C 12.879547,-41.249522 9.273139,-43.482674 5.7444019,-43.482674 C 1.1689361,-43.482674 -2.6914504,-38.96295 -2.6914504,-38.96295 z"/>
</defs>
<rect fill="#00B0C7" height="500" width="1000"/>
<g fill="#FFC91C">
<g transform="translate(57.325,162.47)">
<use xlink:href="#orn"/>
<use xlink:href="#orn" transform="scale(-1,1)"/>
<use xlink:href="#orn" transform="scale(-1,-1)"/>
<use xlink:href="#orn" transform="scale(1,-1)"/>
</g>
<g transform="translate(57.325,337.57)">
<use xlink:href="#orn"/>
<use xlink:href="#orn" transform="scale(-1,1)"/>
<use xlink:href="#orn" transform="scale(-1,-1)"/>
<use xlink:href="#orn" transform="scale(1,-1)"/>
</g>
<g transform="translate(57.325,74.92)">
<use xlink:href="#uorn"/>
<use xlink:href="#uorn" transform="scale(-1,1)"/>
</g>
<g transform="translate(57.325,425.12)">
<use xlink:href="#uorn" transform="scale(1,-1)"/>
<use xlink:href="#uorn" transform="scale(-1,-1)"/>
</g>
<path id="rwing" d="M 494.5,332.3 A117.35,117.35 0 0,1 384.2,234.5 C 382.5,224.5 380.6,219.5 379.6,220.3 C 374.8,224.3 376.6,237.7 379.4,248.8 C 368.4,237.3 364.9,209.9 363.0,211.7 C 355.1,219.2 368.8,253.7 379.1,267.9 C 364.8,256.7 352.2,222.2 349.6,225.8 C 344.9,232.5 361.4,264.9 377.6,279.5 C 360.9,275.9 355.3,258.9 352.0,260.9 C 348.0,263.4 364.0,285.3 376.3,292.8 C 367.8,291.7 362.2,283.4 359.5,285.3 C 356.1,287.8 370.8,302.3 385.4,306.7 C 377.0,306.2 372.1,303.5 372.7,305.4 C 373.3,307.2 378.0,312.4 389.6,314.4 C 386.8,315.7 381.1,314.2 381.3,316.1 C 381.7,318.6 391.3,321.0 395.1,321.2 C 391.1,322.2 385.0,322.2 387.0,324.3 C 388.5,325.9 397.4,327.7 403.7,328.5 C 400.0,329.6 392.7,328.1 395.5,330.9 C 402.4,337.6 437.7,344.7 448.7,340.7 C 442.2,338.9 427.9,335.9 421.5,334.6 C 413.9,333.0 413.7,330.8 413.3,330.0 C 412.5,328.2 419.2,329.2 421.3,327.2 C 411.9,326.7 407.1,325.7 406.5,324.3 C 405.7,322.5 411.2,323.1 412.1,320.5 C 403.9,320.7 399.2,320.0 398.6,318.3 C 397.9,316.5 402.9,317.2 403.8,314.6 C 396.2,313.8 391.1,312.6 390.5,310.7 C 389.7,308.5 395.9,311.1 397.6,308.0 C 389.5,304.8 383.0,301.4 382.4,299.4 C 381.8,297.4 387.3,300.0 391.0,297.0 C 386.6,294.4 381.0,291.8 379.4,286.8 C 378.6,283.9 384.7,290.0 389.1,288.4 C 382.7,284.7 379.4,276.7 380.4,275.2 C 381.4,273.8 383.8,278.2 386.3,277.9 C 384.7,275.5 383.7,272.1 384.8,271.7 C 386.1,271.2 406.5,295.1 414.2,309.7 C 427.6,313.9 441.5,320.9 454.0,332.0 C 468.0,331.5 478.5,334 489,337 C 491,336 493.5,334 494.5,332.3 z"/>
<path id="lwing" d="M 505.4,332.2 A117.35,117.35 0 0,0 616.8,224.7 C 616.9,222.5 617.3,219.2 618.3,219.9 C 622.1,222.4 621.3,237.3 618.5,248.4 C 629.5,236.9 631.6,210.9 633.9,212.1 C 642.4,216.4 630.0,251.9 619.6,266.1 C 634.0,254.9 643.9,222.9 647.8,226.2 C 654.1,231.7 635.9,265.1 619.8,279.8 C 636.4,276.2 642.4,259.2 645.6,261.2 C 649.6,263.6 633.8,284.9 621.4,292.4 C 630.0,291.2 635.3,283.5 638.0,285.4 C 641.4,287.9 627.4,302.3 612.8,306.7 C 621.2,306.1 625.4,303.2 624.8,305.1 C 624.2,306.9 620.2,312.3 608.6,314.3 C 611.4,315.7 616.6,314.1 616.3,316.1 C 616.0,318.6 606.9,321.0 603.1,321.2 C 607.1,322.2 613.2,322.2 611.2,324.2 C 609.6,325.8 600.8,327.7 594.5,328.5 C 598.2,329.6 603.5,328.9 600.6,331.7 C 593.8,338.4 557.9,345.2 546.9,341.2 C 553.4,339.4 569.1,335.9 575.5,334.6 C 583.1,333.0 585.3,331.0 585.7,330.3 C 586.5,328.4 579.8,329.5 577.7,327.4 C 587.1,327.0 590.9,325.0 591.5,323.6 C 592.4,321.8 586.8,323.3 586.0,320.7 C 594.1,321.0 597.7,319.7 598.4,318.0 C 599.1,316.2 595.3,317.2 594.3,314.6 C 602.0,313.8 606.3,312.2 606.9,310.4 C 607.6,308.2 602.3,311.0 600.6,308.0 C 608.7,304.7 614.8,301.2 615.4,299.3 C 616.0,297.2 610.2,300.5 606.6,297.0 C 611.0,294.4 616.8,291.6 618.3,286.6 C 619.2,283.7 613.1,289.8 608.6,288.2 C 615.1,284.5 618.1,276.6 617.1,275.2 C 616.1,273.8 614.2,278.5 611.7,278.3 C 612.6,275.7 613.1,273.3 612.0,272.9 C 610.7,272.4 589.4,296.0 584.1,309.6 C 570.7,313.9 558.1,320.6 545.5,331.7 C 531.4,332.2 516.1,334.7 505.9,338.8 C 489.9,345.1 478.4,350.3 473.0,353.4 C 465.8,357.5 458.7,354.0 470.8,348.7 C 475.5,346.6 484.7,344.6 488.7,342.8 C 494.1,340.6 497.6,336.6 499.5,335.1 C 500.5,334.3 503.0,332.2 505.4,332.2 z"/>
<path id="beak" d="M 477.4,352.66 A4.3,4.3 0 0,1 470,356.9 C 470,356.9 468.81064,357.6 467,357.6 C 464.9869,357.6 463,355.5 461,356.5 C 458,358 458,362.5 462.2,364.6 C 462.2,364.6 461.4,361.3 464,361.3 C 465.5,361.3 466.00252,362 467,362 C 468.0028,362 468.5,361.4 469.5,361.4 C 470.5,361.4 471.86224,362.5 474,362.5 C 476.5,362.5 478.5,361 479.2,359.8 C 481.7,362 507.9,363 520,359.4 C 510,359.8 486.4,359.1 483.3,356 C 485.1,355.6 486.8,354.4 488,353.5 C 486.9,353.4 485.9,353.2 484.8,352.9 C 486.1,352.7 487.5,351.5 488,350.5 C 484.5,350.5 480.6,353.3 477.4,352.66 z"/>
<path id="tail" d="M 485,367.9 C 483.1,369.3 478.7,370.9 478.7,372.5 C 478.7,374.60569 486.0,375.3 492.1,372.1 C 491,377.4 498.8,378.8 502.9,373.2 C 503.8,378.4 510.4,379.4 513.6,374 C 515.6,379.5 523.3,378.9 524.3,373.2 C 527.4,378.8 534.9,378 535.8,372.4 C 540,377 548.3,375.6 548.2,369.5 C 553.8,372.7 560.4,371.4 558.3,365.3 C 565.4,369.8 576.3,365.6 570.6,360.4 C 582.5,362.7 589.1,357.8 589.1,351.8 C 589.1,348.88377 586.9,351.1 574.9,351.3 C 568.3,351.4 551.2,351.3 546.1,349.2 C 545.6,349.0 545.3,349.0 545.6,349.8 C 546,350.9 546.1,351.7 546.1,352.5 C 545.3,352.9 543.6,353 542.6,352.8 C 543,353.8 543.2,354.9 543,356.4 C 541.3,356.6 540.1,356.4 538.9,355.8 C 539.2,357.1 539.1,358.4 538.9,359.3 C 537.8,359.4 536.6,358.9 535.8,358.5 C 534.3,357.7 532.1,358.7 529.7,359.7 C 516.6,364.9 504.5,365.5 490,363.2 C 489,364.5 486,367.1 485,367.9 z"/>
<circle id="eye" r="1.9" cx="473.6" cy="354.8"/>
<g id="sun" transform="translate(500,215.05)">
<circle r="68.7"/>
<use xlink:href="#be" transform="rotate(0)"/>
<use xlink:href="#be" transform="rotate(11.25)"/>
<use xlink:href="#be" transform="rotate(22.5)"/>
<use xlink:href="#be" transform="rotate(33.75)"/>
<use xlink:href="#be" transform="rotate(45)"/>
<use xlink:href="#be" transform="rotate(56.25)"/>
<use xlink:href="#be" transform="rotate(67.5)"/>
<use xlink:href="#be" transform="rotate(78.75)"/>
<use xlink:href="#be" transform="rotate(90)"/>
<use xlink:href="#be" transform="rotate(101.25)"/>
<use xlink:href="#be" transform="rotate(112.5)"/>
<use xlink:href="#be" transform="rotate(123.75)"/>
<use xlink:href="#be" transform="rotate(135)"/>
<use xlink:href="#be" transform="rotate(146.25)"/>
<use xlink:href="#be" transform="rotate(157.5)"/>
<use xlink:href="#be" transform="rotate(168.75)"/>
<use xlink:href="#be" transform="rotate(180)"/>
<use xlink:href="#be" transform="rotate(191.25)"/>
<use xlink:href="#be" transform="rotate(202.5)"/>
<use xlink:href="#be" transform="rotate(213.75)"/>
<use xlink:href="#be" transform="rotate(225)"/>
<use xlink:href="#be" transform="rotate(236.25)"/>
<use xlink:href="#be" transform="rotate(247.5)"/>
<use xlink:href="#be" transform="rotate(258.75)"/>
<use xlink:href="#be" transform="rotate(270)"/>
<use xlink:href="#be" transform="rotate(281.25)"/>
<use xlink:href="#be" transform="rotate(292.5)"/>
<use xlink:href="#be" transform="rotate(303.75)"/>
<use xlink:href="#be" transform="rotate(315)"/>
<use xlink:href="#be" transform="rotate(326.25)"/>
<use xlink:href="#be" transform="rotate(337.5)"/>
<use xlink:href="#be" transform="rotate(348.75)"/>
</g>
</g>
</svg>
