<?xml version="1.0" encoding="UTF-8" standalone="no"?>
<svg xmlns="http://www.w3.org/2000/svg" version="1.0" width="1035" height="690" viewBox="0,0 2070,1380">
<rect width="2070" height="1380" fill="rgb(206,17,38)"/>
<polygon points="1035,1380 1440,840 630,840" fill="white"/>
<polygon points="1440,840 630,840 405,540 1665,540" fill="rgb(0,114,198)"/>
<polygon points="0,0 2070,0 1665,540 405,540" fill="black"/>
<polygon fill="rgb(252,209,22)" points="585,540  814.3,496.1  619.2,367.7  847.9,414.9  716.8,221.8  909.9,352.9  862.7,124.2  991.1,319.3  1035,90  1078.,319.3  1207.,124.2  1160.,352.9  1353.,221.8  1222.,414.9  1450.,367.7  1255.,496.1  1485,540"/>
</svg>
