<?xml version="1.0" encoding="UTF-8" standalone="no"?>
<!DOCTYPE svg PUBLIC "-//W3C//DTD SVG 1.0//EN"
"http://www.w3.org/TR/2001/REC-SVG-20010904/DTD/svg10.dtd">
<svg
   xmlns="http://www.w3.org/2000/svg"
   width="600"
   height="300"
   version="1.1">
  <rect
     width="600"
     height="300"
     fill="#e23d28"/>
  <rect
     width="600"
     height="200"
     fill="#f9dd16"/>
  <rect
     width="600"
     height="100"
     fill="#006b3f"/>
  <path
     d="M 296.21690 563.24799 A 27.229561 27.993006 0 1 1  241.75777,563.24799 A 27.229561 27.993006 0 1 1  296.21690 563.24799 z"
     transform="matrix(2.754360,0,0,2.679241,-440.8878,-1359.077)"
     fill="#00a5db"/>
  <path
     d="M 367.93678,508.58806 L 411.52933,508.58806 L 421.38577,478.25306 L 424.01442,486.34323 L 409.69097,530.42629 L 405.43772,527.33612 L 409.90473,513.58806 L 374.81869,513.58806 L 367.93678,508.58806 M 389.73306,575.67010 L 403.20389,534.21112 L 377.39940,515.46306 L 385.90591,515.46306 L 423.40520,542.70789 L 419.15195,545.79806 L 407.45715,537.30129 L 396.61496,570.67010 L 389.73306,575.67010 M 460.26728,575.67010 L 425.00017,550.04704 L 399.19568,568.79510 L 401.82434,560.70493 L 439.32362,533.46010 L 440.94822,538.46010 L 429.25342,546.95687 L 457.63863,567.57993 L 460.26728,575.67010 M 482.06356,508.58806 L 446.79645,534.21112 L 456.65288,564.54612 L 449.77097,559.54612 L 435.44752,515.46306 L 440.70483,515.46306 L 445.17185,529.21112 L 473.55705,508.58806 L 482.06356,508.58806 M 425.00017,467.12908 L 438.47101,508.58806 L 470.36711,508.58806 L 463.48520,513.58806 L 417.13354,513.58806 L 418.75813,508.58806 L 433.21370,508.58806 L 422.37151,475.21925 L 425.00017,467.12908 z "
     transform="translate(-125,-377.3622)"
     fill="#f9dd16"/>
  <path
     d="M 425.00027,554.86218 L 425.00027,587.36218 M 398.84622,535.86015 L 367.93688,545.90320 M 408.83618,505.11421 L 389.73316,478.82116 M 441.16436,505.11421 L 460.26738,478.82116 M 451.15432,535.86015 L 482.06366,545.90320 L 451.15432,535.86015 z "
     transform="translate(-125,-377.3622)"
     stroke="#f9dd16" stroke-width="2.5"/>
</svg>
