<?xml version="1.0" encoding="UTF-8" standalone="no"?>
<svg xmlns:dc="http://purl.org/dc/elements/1.1/" xmlns:cc="http://web.resource.org/cc/" xmlns:rdf="http://www.w3.org/1999/02/22-rdf-syntax-ns#" xmlns:svg="http://www.w3.org/2000/svg" xmlns="http://www.w3.org/2000/svg" id="svg2" preserveAspectRatio="xMidYMid meet" viewBox="0 0 468 313" height="500" width="750" version="1.0">
  <defs id="defs13"/>
  <sodipodi:namedview borderopacity="1.0" bordercolor="#666666" pagecolor="#ffffff" id="base"/>
  
  <rect y="-5.5948891e-005" x="-0.75000012" height="313.00006" width="469.5" fill="#d81126" fill-opacity="1" fill-rule="nonzero" stroke="none" stroke-width="1.25" stroke-linecap="butt" stroke-linejoin="miter" stroke-miterlimit="4" stroke-opacity="1"/>
  <path d="M 198.7,61.07 C 198.3,61.30 197.6,61.82 197.1,62.26 C 196.5,62.822601 195.5,63.02 192.5,63.14 C 188.2,63.26 186.5,63.93 185.6,65.80 C 184.9,67.12 184.9,67.24 184.5,68.35 C 186.4,67.78 188.8,66.96 189.9,67.16 C 191.4,67.48 192.9,68.39 192.9,68.95 C 192.9,69.15 192.5,69.63 191.9,70.03 C 190.3,70.43 189.7,70.43 186.8,70.03 C 183.0,69.43 182.7,69.31 181.4,67.88 C 180.7,67.04 179.7,65.88 179.1,65.25 C 178.0,64.01 176.4,63.81 175.9,64.89 C 175.3,65.88 176.7,67.33 178.9,68.89 C 180.7,70.24 182.1,71.18 185.5,71.54 C 186.5,71.66 194.6,71.63 195.0,71.86 C 195.4,72.09 190.8,74.02 186.3,72.67 C 187.4,74.86 191.9,76.56 196.3,76.96 C 201.2,77.44 204.6,78.51 208.1,80.82 C 211.8,83.25 213.8,85.40 215.4,88.95 C 217.2,92.45 217.8,95.40 217.6,98.86 C 217.3,103.1 215.3,105.3 211.6,105.3 C 209.0,105.3 208.0,104.8 206.8,103.1 C 206.0,101.9 205.9,101.3 205.8,96.83 C 205.8,92.57 205.7,91.61 205.0,90.22 C 203.5,87.39 201.5,86.08 195.5,83.93 C 192.4,82.85 188.4,81.30 186.4,80.42 C 182.4,78.75 182.2,78.79 181.3,81.50 C 181.0,82.41 180.4,83.13 180.0,83.21 C 178.9,83.45 172.7,81.34 168.8,79.43 C 162.2,76.08 158.7,73.13 155.3,67.76 C 153.3,64.57 151.8,63.65 149.8,64.21 C 147.5,64.85 146.3,66.80 146.2,69.71 C 146.2,72.26 147.4,74.37 150.6,77.36 C 156.1,82.41 166.3,87.03 175.1,88.47 C 178.0,88.91 179.4,90.02 179.4,91.85 C 179.4,94.52 176.5,95.60 169.4,95.64 C 162.8,95.64 158.6,94.00 154.3,89.70 C 151.6,86.87 150.7,86.44 148.9,87.11 C 148.1,87.47 147.1,89.38 147.1,90.86 C 147.1,93.89 151.1,98.74 155.2,100.6 C 158.3,102.0 161.1,102.5 165.8,102.3 C 169.3,102.2 170.6,101.9 173.6,100.8 C 179.6,98.66 180.1,98.58 180.8,99.30 C 181.4,99.86 181.4,100.0 180.8,101.2 C 179.8,103.2 175.9,106.9 173.6,108.1 C 168.2,110.8 162.8,110.2 155.1,106.0 C 151.2,103.8 149.1,103.8 147.9,105.6 C 147.5,106.3 147.1,107.4 147.1,108.0 C 147.1,109.5 149.1,111.7 152.2,113.4 C 156.1,115.6 158.9,116.3 163.5,116.3 C 167.6,116.3 170.2,115.7 175.6,113.4 C 178.4,112.2 179.5,112.1 180.2,112.9 C 180.9,113.8 179.7,116.1 177.2,118.5 C 173.5,122.2 166.1,125.0 161.1,124.5 C 159.7,124.4 157.9,123.9 156.4,123.1 C 153.2,121.5 150.4,121.4 148.9,122.9 C 147.1,124.7 147.8,127.5 150.7,129.9 C 152.6,131.6 154.6,132.2 157.7,132.2 C 161.2,132.2 163.4,131.5 170.8,127.7 C 177.7,124.3 179.2,123.8 179.6,124.9 C 180.1,126.0 178.8,128.0 175.3,131.6 C 167.9,139.1 163.7,140.6 155.7,138.6 C 150.0,137.1 148.1,138.1 148.4,142.0 C 148.7,144.7 149.6,146.1 152.2,147.4 C 153.8,148.2 154.6,148.4 157.9,148.4 C 161.0,148.3 162.0,148.2 163.7,147.5 C 166.5,146.1 172.7,141.9 176.2,138.8 C 180.5,135.0 182.2,134.3 182.2,136.2 C 182.2,138.0 175.2,147.7 171.0,151.5 C 169.4,153.0 167.0,154.7 165.5,155.4 C 163.1,156.6 162.6,156.7 159.3,156.7 C 157.3,156.7 154.4,156.6 152.9,156.5 C 149.5,156.3 148.3,157.0 148.3,159.2 C 148.3,161.4 151.3,164.2 154.5,165.1 C 161.0,167.0 168.1,163.7 176.8,154.8 C 183.3,148.2 184.2,148.6 180.4,156.5 C 176.3,164.9 171.2,170.9 165.9,173.4 C 163.2,174.7 162.4,174.8 155.3,174.5 C 152.2,174.3 150.7,175.1 150.7,177.1 C 150.7,178.1 151.1,178.8 152.2,179.9 C 156.3,183.9 163.0,184.1 169.8,180.3 C 173.7,178.2 183.1,167.8 188.3,160.0 C 191.1,155.8 191.8,155.3 192.8,156.8 C 193.4,157.6 193.4,158.1 193.1,160.0 C 191.9,165.9 189.1,170.4 184.9,173.2 C 182.1,175.0 181.5,176.0 182.0,177.6 C 182.6,179.7 186.5,180.7 188.9,179.4 C 191.8,178.0 195.3,172.6 198.8,164.5 C 201.3,158.7 201.5,158.5 202.7,158.5 C 206.0,158.5 204.9,165.3 200.9,169.8 C 199.2,171.8 198.9,173.1 200.1,174.3 C 201.1,175.2 202.7,174.9 205.5,173.1 C 208.0,171.5 209.4,169.8 211.3,166.2 C 213.6,161.7 214.6,162.9 212.7,167.9 C 210.0,175.1 203.6,181.4 194.7,186.0 C 193.3,186.6 192.1,187.3 192.1,187.4 C 192.1,187.6 192.9,188.6 193.9,189.7 C 194.9,190.8 195.7,191.8 195.7,192.0 C 195.7,192.4 190.3,194.8 183.8,197.3 L 178.0,199.5 L 175.1,197.7 C 171.0,195.2 168.7,193.3 168.2,192.0 C 167.3,189.6 164.2,187.9 161.9,188.7 C 161.1,189.0 160.2,189.0 158.7,188.6 C 155.1,187.6 153.0,190.4 152.5,191.9 C 153.7,192.1 153.1,192.0 154.0,192.0 C 157.5,191.8 157.9,191.9 159.4,193.5 C 161.1,195.2 163.3,196.0 165.0,195.7 C 165.8,195.6 166.9,196.0 169.3,197.6 C 171.2,198.8 172.6,199.9 172.6,200.0 C 172.6,200.4 170.8,200.4 164.9,199.9 C 160.8,199.6 160.1,199.5 159.0,198.6 C 157.4,197.2 155.5,196.9 153.8,197.8 C 153.0,198.2 151.5,198.5 150.5,198.5 C 149.5,198.6 148.3,198.9 147.7,199.4 C 146.5,200.3 145.7,200.7 145.2,202.5 C 147.4,202.4 146.7,202.4 148.2,202.2 C 150.9,201.8 151.2,201.9 152.0,202.6 C 152.5,203.1 153.3,203.7 153.8,203.9 C 155.0,204.5 157.7,204.4 159.0,203.7 C 159.9,203.3 161.8,203.2 166.1,203.1 C 169.4,203.1 172.2,203.1 172.4,203.1 C 172.7,203.1 171.4,204.0 169.6,205.1 C 166.5,207.0 166.2,207.0 163.6,207.0 C 160.1,207.0 158.1,208.0 157.5,210.2 C 157.3,211.0 157.0,212.5 156.7,213.3 C 156.2,215.4 156.0,215.8 157.5,219.4 C 159.2,215.4 158.7,216.6 159.2,215.9 C 160.0,214.6 160.3,214.4 162.3,214.3 C 165.1,214.0 166.3,213.2 167.4,211.0 C 168.1,209.5 168.8,208.9 172.5,206.6 C 177.5,203.5 177.2,203.5 182.8,206.1 C 185.6,207.4 186.7,208.1 187.1,209.0 C 188.0,210.7 189.8,211.3 191.8,210.7 C 193.6,210.2 194.5,210.5 195.7,212.3 C 196.3,213.1 196.3,212.9 197.1,213.6 C 197.3,212.5 197.3,212.4 197.3,211.3 C 197.3,209.6 197.1,209.3 195.0,207.2 C 192.5,204.7 191.0,204.0 189.2,204.7 C 188.4,205.0 187.7,204.9 185.6,203.9 C 183.2,202.8 182.3,201.9 183.5,201.9 C 183.7,201.9 187.6,200.5 192.0,198.8 L 200.1,195.7 L 201.3,196.6 C 203.5,198.4 206.9,199.9 208.4,199.9 C 209.8,199.9 210.0,199.8 210.4,198.4 C 211.1,196.1 215.8,187.2 218.3,183.3 C 222.5,176.9 224.8,175.2 226.6,177.3 C 227.2,178.0 227.4,178.7 227.4,181.2 C 227.3,188.5 223.1,198.0 217.7,203.4 C 214.8,206.2 211.7,207.8 207.8,208.4 C 204.9,208.7 202.9,209.5 202.9,210.3 C 202.9,211.1 204.9,213.4 206.1,214.0 C 207.2,214.6 208.2,214.7 210.5,214.6 C 213.2,214.5 213.7,214.3 216.4,212.7 C 219.0,211.2 219.4,211.1 219.9,211.6 C 220.4,212.1 220.4,212.5 220.0,213.9 C 219.2,217.0 217.0,218.4 211.8,219.1 C 206.5,219.7 204.7,221.3 206.4,223.8 C 207.6,225.4 209.6,226.2 212.3,226.2 C 215.4,226.2 218.1,224.9 221.7,221.5 C 223.2,220.1 224.6,219.1 224.8,219.3 C 225.4,219.6 225.3,222.8 224.7,224.7 C 224.2,226.6 221.7,229.5 220.1,230.1 C 219.6,230.4 218.0,230.9 216.8,231.2 C 212.5,232.4 211.8,234.0 214.9,236.1 C 216.9,237.4 220.2,237.5 222.6,236.4 C 224.2,235.6 228.6,231.5 229.4,230.1 C 230.1,228.7 230.9,229.7 230.7,231.7 C 230.5,233.3 229.5,235.1 227.4,238.1 C 225.6,240.5 226.2,243.8 229.2,248.1 C 231.6,251.6 233.8,253.9 234.3,253.6 C 235.3,252.9 239.7,247.1 240.6,245.2 C 241.2,243.9 241.5,242.4 241.5,241.1 C 241.5,239.3 241.3,238.8 239.9,237.1 C 238.1,234.8 237.0,231.9 237.3,230.4 C 237.7,229.1 238.1,229.2 239.1,230.8 C 240.2,232.5 243.3,235.2 245.3,236.3 C 248.6,238.0 253.2,237.1 254.7,234.5 C 255.2,233.6 255.2,233.4 254.5,232.7 C 254.2,232.2 252.7,231.6 251.2,231.2 C 249.7,230.8 248.1,230.3 247.5,230.0 C 246.2,229.3 244.6,227.6 243.7,225.8 C 242.9,224.2 242.5,219.7 243.1,219.3 C 243.4,219.1 244.6,220.0 246.3,221.6 C 249.7,224.8 252.1,226.0 255.6,226.2 C 257.8,226.3 258.5,226.2 259.7,225.4 C 262.2,223.8 263.0,221.7 261.4,220.5 C 260.6,219.9 259.9,219.7 253.9,218.6 C 251.8,218.2 251.1,217.9 249.6,216.5 C 248.1,215.0 247.9,214.6 247.9,213.2 C 247.9,212.3 248.1,211.4 248.3,211.3 C 248.5,211.1 250.0,211.8 251.6,212.8 C 254.4,214.4 254.6,214.5 257.9,214.5 C 260.8,214.5 261.6,214.4 262.5,213.6 C 264.2,212.4 265.2,210.9 264.9,210.0 C 264.6,209.0 264.1,208.8 260.3,208.4 C 253.7,207.5 248.5,203.1 244.5,195.0 C 239.9,185.6 239.2,176.4 243.1,176.4 C 244.6,176.4 246.4,178.3 249.4,182.8 C 252.1,186.8 257.9,198.0 257.9,199.2 C 257.9,200.9 262.3,199.8 266.2,197.0 L 268.0,195.7 L 276.0,198.8 C 280.4,200.5 284.3,202.0 284.8,202.1 C 285.4,202.3 285.0,202.7 282.6,203.7 C 280.3,204.8 279.6,205.0 278.7,204.7 C 277.0,204.0 275.4,204.7 273.3,206.8 C 272.2,208.0 271.2,209.2 271.0,209.5 C 270.5,210.5 270.2,212.1 271.0,213.7 C 272.2,212.3 271.9,212.8 272.5,212.0 C 273.7,210.3 274.4,210.3 275.2,210.5 C 278.3,211.4 279.8,211.0 281.0,208.9 C 281.6,207.9 282.6,207.3 285.7,205.9 C 287.8,205.0 290.1,204.2 290.7,204.2 C 291.5,204.2 293.3,205.1 295.9,206.8 C 299.3,209.0 300.1,209.7 300.8,211.3 C 301.9,213.3 303.5,214.3 306.1,214.3 C 307.7,214.3 308.0,214.4 308.7,215.6 C 309.1,216.3 309.6,217.4 309.9,218.1 C 310.2,218.9 310.6,219.5 310.8,220.2 C 311.1,219.4 311.2,218.6 311.6,217.7 C 312.0,216.4 312.0,215.8 311.4,214.2 C 311.1,213.2 310.8,212.0 310.8,211.5 C 310.8,210.1 309.7,208.4 308.4,207.7 C 307.6,207.2 306.0,207.0 304.3,207.0 C 301.7,206.9 301.2,206.8 298.6,205.2 C 297.0,204.2 295.7,203.3 295.7,203.2 C 295.7,202.7 308.2,203.3 309.1,203.8 C 309.6,204.1 310.9,204.3 312.0,204.3 C 313.7,204.3 314.2,204.1 315.4,203.1 L 316.9,201.8 L 319.7,202.2 C 321.3,202.4 321.6,202.4 322.7,202.5 C 322.2,200.4 318.8,198.3 317.1,198.4 C 316.4,198.5 315.1,198.2 314.3,197.8 C 312.4,196.9 310.8,197.2 308.9,198.6 C 307.8,199.5 307.0,199.7 303.3,200.0 C 301.0,200.1 298.2,200.3 297.1,200.3 C 294.7,200.3 294.9,200.0 299.1,197.4 C 301.5,195.9 302.4,195.5 303.3,195.7 C 305.0,196.0 306.9,195.3 308.5,193.6 C 310.1,191.9 310.5,191.8 313.9,192.0 C 315.3,192.0 315.2,192.0 316.0,192.1 C 315.4,190.2 314.5,189.2 313.1,188.6 C 311.8,188.1 310.5,188.5 309.3,188.8 C 307.8,189.2 306.8,189.0 306.1,188.7 C 304.0,187.9 299.7,190.2 299.7,192.2 C 299.7,193.0 297.0,195.2 293.3,197.5 L 289.9,199.5 L 284.9,197.6 C 279.0,195.3 272.2,192.4 272.2,192.1 C 272.2,192.0 273.0,190.9 274.0,189.8 C 275.0,188.6 275.8,187.6 275.8,187.5 C 275.8,187.4 274.4,186.5 272.7,185.6 C 263.9,180.8 259.2,176.2 256.0,169.4 C 253.5,164.2 254.2,161.5 256.8,166.4 C 258.6,169.8 261.1,172.5 263.8,173.8 C 266.1,175.0 267.1,175.1 268.0,174.2 C 269.0,173.2 268.7,171.7 267.1,169.8 C 264.9,167.1 263.8,164.7 263.6,162.0 C 263.3,159.5 263.8,158.5 265.2,158.5 C 266.4,158.5 267.1,159.4 268.2,162.3 C 269.7,166.2 273.0,172.5 274.9,175.2 C 278.2,179.9 281.5,181.2 284.6,179.1 C 287.2,177.4 286.7,175.5 283.0,173.1 C 279.1,170.4 276.5,166.6 275.2,161.2 C 274.6,158.5 274.7,156.9 275.6,156.2 C 276.3,155.5 277.5,156.6 280.0,160.3 C 282.3,163.9 286.6,169.2 291.5,174.6 C 298.7,182.7 308.1,185.3 314.3,181.1 C 319.1,177.8 318.3,174.2 312.7,174.5 C 305.7,174.8 304.8,174.7 301.9,173.3 C 296.1,170.4 289.3,161.8 285.9,152.9 C 285.4,151.3 285.4,150.8 285.7,150.4 C 286.2,149.8 286.9,150.5 291.1,154.7 C 298.6,162.3 304.0,165.4 309.8,165.5 C 312.6,165.5 313.4,165.3 315.3,164.4 C 317.9,163.1 318.7,162.3 319.4,160.3 C 320.5,157.1 318.3,155.8 313.2,156.6 C 305.0,157.8 300.0,155.6 293.4,147.7 C 289.9,143.3 285.7,137.3 285.7,136.2 C 285.7,134.4 287.7,135.1 291.2,138.3 C 293.9,140.8 298.3,144.0 301.8,146.1 C 306.3,148.8 311.9,149.3 315.9,147.3 C 318.4,146.1 319.6,144.3 319.6,141.6 C 319.6,139.8 319.4,139.3 318.6,138.6 C 317.3,137.6 315.9,137.6 312.0,138.6 C 304.6,140.6 300.2,139.0 293.1,131.9 C 289.4,128.2 287.9,126.1 288.4,124.9 C 288.5,124.5 289.0,124.3 289.4,124.3 C 289.9,124.3 293.5,125.9 297.5,127.8 C 305.6,131.8 306.9,132.2 310.3,132.2 C 314.3,132.2 317.6,130.6 319.1,127.9 C 322.0,122.9 317.5,120.0 311.6,123.1 C 310.0,124.0 308.5,124.4 306.7,124.5 C 299.9,125.1 290.5,120.3 288.1,115.0 C 287.6,113.8 287.5,113.2 287.9,112.8 C 288.5,112.1 290.8,112.4 293.2,113.7 C 300.8,117.5 310.0,117.2 316.6,113.0 C 320.6,110.4 321.6,108.3 320.0,105.6 C 318.8,103.7 317.2,103.9 311.8,106.5 C 303.3,110.8 298.1,110.8 292.1,106.5 C 289.6,104.7 286.8,101.1 287.0,99.94 C 287.2,98.58 288.5,98.58 292.0,100.0 C 296.5,101.8 299.4,102.4 303.7,102.4 C 308.5,102.4 311.8,101.4 315.2,99.14 C 320.1,95.92 322.3,90.38 319.8,87.87 C 318.1,86.08 316.6,86.60 313.0,90.26 C 309.3,94.12 305.1,95.64 298.5,95.64 C 294.2,95.64 290.5,94.96 289.5,93.96 C 287.6,92.21 288.9,89.11 291.6,88.67 C 305.7,86.36 319.8,78.35 321.6,71.62 C 322.8,67.48 319.7,63.22 316.3,64.21 C 314.7,64.65 314.2,65.13 312.8,67.64 C 310.0,72.54 304.3,77.24 297.7,80.14 C 293.6,81.98 288.5,83.49 287.7,83.17 C 287.3,83.05 286.9,82.33 286.8,81.58 C 286.7,80.82 286.2,79.90 285.8,79.55 C 285.1,78.91 285.0,78.91 283.7,79.55 C 283.0,79.94 278.9,81.54 274.6,83.17 C 270.3,84.76 266.4,86.40 265.8,86.80 C 265.3,87.23 264.3,88.31 263.6,89.22 C 262.5,90.86 262.4,91.10 262.2,96.39 C 262.1,100.7 261.9,102.0 261.3,102.9 C 260.3,104.5 258.9,105.2 256.8,105.3 C 254.2,105.3 252.3,104.2 251.2,102.0 C 249.9,99.46 250.1,95.12 251.9,90.66 C 253.9,85.32 257.1,81.98 262.4,79.35 C 265.5,77.83 267.1,77.44 271.9,76.96 C 274.4,76.72 277.7,76.90 280.3,72.57 C 276.5,73.92 271.8,75.03 272.3,72.43 C 272.8,71.42 281.7,71.21 283.6,70.98 C 287.0,70.58 288.2,70.01 290.8,67.85 C 292.4,66.10 292.8,65.33 292.0,64.57 C 290.9,63.73 289.6,64.33 288.0,66.44 C 285.9,68.99 284.8,69.09 280.5,69.68 C 276.7,70.24 275.4,70.39 275.4,68.95 C 275.4,68.11 276.1,67.60 278.0,67.20 C 279.1,66.96 280.4,66.54 283.0,68.04 C 282.9,64.69 280.9,63.34 275.5,63.06 C 272.5,62.90 271.5,62.70 270.9,62.10 C 268.6,59.75 263.6,60.15 256.7,63.18 C 253.1,64.77 249.8,65.01 245.8,63.97 C 243.1,63.30 242.3,63.22 242.3,63.77 C 242.3,64.61 244.8,66.84 246.7,67.76 C 247.8,68.31 248.7,68.95 248.7,69.23 C 248.7,69.99 245.9,72.10 243.7,72.89 C 242.7,73.29 241.7,73.89 241.7,74.17 C 241.7,74.45 242.5,75.05 243.4,75.48 C 244.4,75.96 245.1,76.52 245.1,76.80 C 245.1,77.63 241.9,80.10 240.4,80.34 C 237.8,80.78 237.6,80.86 238.9,81.94 C 239.5,82.45 240.3,82.89 240.8,82.89 C 241.9,82.89 241.7,83.49 240.1,85.12 C 238.8,86.40 238.5,86.52 237.2,86.32 C 236.4,86.20 235.6,86.20 235.4,86.32 C 235.3,86.44 235.5,87.19 235.9,87.95 C 236.5,89.26 236.5,89.38 235.8,89.90 C 234.8,90.62 233.1,90.62 232.1,89.86 C 231.4,89.34 231.4,89.26 232.1,88.07 C 232.9,86.52 232.7,85.96 231.2,86.28 C 229.9,86.56 228.7,86.04 227.4,84.52 C 226.2,83.21 226.2,83.05 227.5,82.77 C 229.9,82.25 230.8,80.50 228.6,80.50 C 226.8,80.50 222.8,77.91 222.8,76.76 C 222.9,76.52 223.6,75.96 224.5,75.52 C 226.6,74.53 226.6,73.77 224.7,73.09 C 222.9,72.46 219.8,70.39 219.5,69.55 C 219.3,69.15 219.8,68.71 220.9,68.15 C 222.9,67.12 225.6,64.65 225.6,63.89 C 225.6,63.26 225.0,63.30 221.8,64.13 C 220.9,64.37 219.0,64.57 217.4,64.57 C 215.1,64.57 214.1,64.33 211.8,63.34 C 206.4,60.95 200.8,59.95 198.7,61.07 z M 205.0,68.58 C 206.0,69.26 208.6,65.76 207.1,69.75 C 206.2,70.43 201.9,70.11 201.1,69.27 C 200.3,68.47 200.9,67.08 202.2,66.84 C 206.6,65.58 204.0,67.90 205.0,68.58 z M 266.9,67.52 C 268.3,68.83 266.4,70.15 263.3,70.15 C 261.1,70.15 259.9,69.31 260.5,68.27 C 262.6,64.53 260.8,69.73 262.6,68.28 C 264.1,67.01 264.7,65.39 266.9,67.52 z " fill="#000000" stroke="none"/>
</svg>
