<?xml version="1.0" encoding="UTF-8" standalone="no"?>
<!DOCTYPE svg PUBLIC "-//W3C//DTD SVG 1.0//EN"
"http://www.w3.org/TR/2001/REC-SVG-20010904/DTD/svg10.dtd">
<!-- Created with Inkscape (http://www.inkscape.org/) -->
<svg
   xmlns="http://www.w3.org/2000/svg"
   xmlns:xlink="http://www.w3.org/1999/xlink"
   version="1.0"
   x="0.0000000"
   y="0.0000000"
   width="600.00000"
   height="300.00000"
   id="svg4639">
  <defs
     id="defs4641" />
  <rect
     width="525.00000"
     height="262.50000"
     x="125.00000"
     y="414.86218"
     transform="matrix(1.142857,0.000000,0.000000,1.142857,-142.8571,-474.1281)"
     style="fill:#000000;fill-opacity:1.0000000;fill-rule:evenodd;stroke:none;stroke-width:1.0000000pt;stroke-linecap:butt;stroke-linejoin:miter;stroke-opacity:1.0000000"
     id="rect4648" />
  <rect
     width="525.00000"
     height="87.500000"
     x="125.00000"
     y="502.36218"
     transform="matrix(1.142857,0.000000,0.000000,1.142857,-142.8571,-474.1281)"
     style="fill:#ffffff;fill-opacity:1.0000000;fill-rule:evenodd;stroke:none;stroke-width:1.0000000pt;stroke-linecap:butt;stroke-linejoin:miter;stroke-opacity:1.0000000"
     id="rect5270" />
  <rect
     width="525.00000"
     height="87.500000"
     x="125.00000"
     y="589.86218"
     transform="matrix(1.142857,0.000000,0.000000,1.142857,-142.8571,-474.1281)"
     style="fill:#007a3d;fill-opacity:1.0000000;fill-rule:evenodd;stroke:none;stroke-width:1.0000000pt;stroke-linecap:butt;stroke-linejoin:miter;stroke-opacity:1.0000000"
     id="rect5892" />
  <path
     d="M 125.00000,414.86218 L 387.50000,546.11218 L 125.00000,677.36218 L 125.00000,414.86218 z "
     transform="matrix(1.142857,0.000000,0.000000,1.142857,-142.8571,-474.1281)"
     style="fill:#ce1126;fill-opacity:1.0000000;fill-rule:evenodd;stroke:none;stroke-width:1.0000000pt;stroke-linecap:butt;stroke-linejoin:miter;stroke-opacity:1.0000000"
     id="path7135" />
  <path
     d="M 162.50000,100.48718 L 140.80580,155.43878 L 84.316900,138.13818 L 113.75360,189.36118 L 65.007200,222.73928 L 123.40840,231.66168 L 119.11160,290.58408 L 162.50000,250.48718 L 205.88840,290.58408 L 201.59160,231.66168 L 259.99280,222.73928 L 211.24640,189.36118 L 240.68310,138.13818 L 184.19420,155.43878 L 162.50000,100.48718 z "
     transform="matrix(0.214286,0.000000,0.000000,0.214286,57.87853,107.0385)"
     style="fill:#ffffff;fill-opacity:1.0000000;fill-rule:evenodd;stroke:none;stroke-width:1.0000000pt;stroke-linecap:butt;stroke-linejoin:miter;stroke-opacity:1.0000000"
     id="path7757" />
</svg>
