<?xml version="1.0" encoding="UTF-8" standalone="no"?>
<svg xmlns:dc="http://purl.org/dc/elements/1.1/" xmlns:cc="http://web.resource.org/cc/" xmlns:rdf="http://www.w3.org/1999/02/22-rdf-syntax-ns#" xmlns:svg="http://www.w3.org/2000/svg" xmlns="http://www.w3.org/2000/svg" version="1.0" x="0.00000000" y="0.00000000" width="900" height="450" viewBox="-3010 0 6020 3021" id="svg2" xml:space="preserve">
    <sodipodi:namedview borderopacity="1.0" bordercolor="#666666" pagecolor="#ffffff" id="base"/>
    <defs id="defs4">
        <style type="text/css" id="style6"/>
    
        
        
        
    
        
        
    
            
            
            
            
            
            
            
        </defs>
    
    
    
    
    
    
    
<rect width="0" height="0" x="-609.50171" y="3672.1045" opacity="1" fill="#0037cc" fill-opacity="1" fill-rule="evenodd" stroke="none" stroke-opacity="1"/>
    <path d="M -3021,3021 L -3021,2014.0002 L 3020.,2014. L 3020.9989,3021 L -3021,3021 z " id="21376952" fill="#009959" fill-opacity="1"/>
    <path d="M 3020.,1007. L -3021,1007.0007 L -3021,2014.0007 L 3020.,2014. L 3020.,1007. z " id="21375544" fill="#ed2e38" fill-opacity="1"/>
    <path d="M -3021,1007.0009 C -3021,671 -3021,336.00205 -3021,0.001200002 L 3021,0.001200002 L 3021,1007.0009 L -3021,1007.0009 z " id="21377216" fill="#0033ab" fill-opacity="1" fill-rule="nonzero"/>
    <g transform="matrix(1.000557,0,0,1.000566,-10.18607,2.746054)">
        <path id="21377304" d="M -996.26247,524.54443 C -451.8061,524.54443 -6.7031079,967.03651 -6.7031079,1510.5 C -6.7031079,2052.9736 -451.8061,2496.4556 -996.26247,2496.4556 C -1541.7124,2496.4556 -1985.8219,2052.9736 -1985.8219,1510.5 C -1985.8219,967.03651 -1541.7124,524.54443 -996.26247,524.54443 z " fill="#f5e814" fill-opacity="1" stroke="#000000" stroke-width="33.76" stroke-miterlimit="4" stroke-dasharray="none" stroke-opacity="1"/>
        <path id="21377480" d="M -994.62147,518.99996 C -444.61869,518.99996 5.018,965.9 5.018,1514. C 5.018,2062. -444.61869,2510.9997 -994.62147,2510.9997 C -1545.6279,2510.9997 -1994.2616,2062.9998 -1994.2616,1514.9998 C -1994.2616,965.99989 -1545.6279,518.99996 -994.62147,518.99996 z " fill="none"/>
        <path d="M -1181.464,1653.9391 L -826.83496,1650.5293" fill="#1f1a17" fill-opacity="1" fill-rule="evenodd" stroke="#000000" stroke-width="41.06" stroke-linecap="butt" stroke-linejoin="miter" stroke-miterlimit="4" stroke-dasharray="none" stroke-opacity="1"/>
        <path d="M -1184.8736,1408.4268 L -823.42503,1408.4268" fill="#1f1a17" fill-opacity="1" fill-rule="evenodd" stroke="#000000" stroke-width="41.06" stroke-linecap="butt" stroke-linejoin="miter" stroke-miterlimit="4" stroke-dasharray="none" stroke-opacity="1"/>
        <path d="M -1000.7395,521.00792 L -997.32963,2202.0853 L -997.32963,2202.0853 L -1000.7395,2198.6754" fill="#1f1a17" fill-opacity="1" fill-rule="evenodd" stroke="#000000" stroke-width="41.06" stroke-linecap="butt" stroke-linejoin="miter" stroke-miterlimit="4" stroke-dasharray="none" stroke-opacity="1"/>
        <path d="M -1394.6907,2415.5084 C -990.83122,2580.4296 -612.30072,2425.6402 -612.30072,2425.6402 C -612.30072,2425.6402 -755.19075,2270.9975 -828.44298,2210.6235 C -899.9155,2151.7162 -1110.1767,2154.0498 -1181.9256,2210.6236 C -1241.8077,2257.8406 -1413.547,2431.8317 -1394.6907,2415.5084 z " fill="#000000" fill-opacity="1" fill-rule="evenodd" stroke="#000000" stroke-width="2.588" stroke-linecap="butt" stroke-linejoin="round" stroke-miterlimit="4" stroke-dasharray="none" stroke-opacity="1"/>
        <path d="M -890.32092,1960.1456 C -890.26724,2048.1833 -939.44102,2119.593 -1000.1185,2119.593 C -1060.7959,2119.593 -1109.9697,2048.1833 -1109.916,1960.1456 C -1109.9697,1872.108 -1060.7959,1800.6983 -1000.1185,1800.6983 C -939.44102,1800.6983 -890.26724,1872.108 -890.32092,1960.1456 z " fill="#000000" fill-opacity="1" fill-rule="nonzero" stroke="#000000" stroke-width="4.938" stroke-linecap="round" stroke-linejoin="round" stroke-miterlimit="4" stroke-dasharray="none" stroke-dashoffset="0" stroke-opacity="1"/>
        <path d="M -867.65452,1531.2391 C -867.65452,1578.1707 -927.70239,1616.2162 -1001.7752,1616.2162 C -1075.8479,1616.2162 -1135.8958,1578.1707 -1135.8958,1531.2391 C -1135.8958,1484.3074 -1075.8479,1446.2619 -1001.7752,1446.2619 C -927.70239,1446.2619 -867.65452,1484.3074 -867.65452,1531.2391 z " fill="#000000" fill-opacity="1" fill-rule="nonzero" stroke="#000000" stroke-width="0.040" stroke-linecap="round" stroke-linejoin="round" stroke-miterlimit="4" stroke-dasharray="none" stroke-dashoffset="0" stroke-opacity="1"/>
        <path d="M -869.47054,1140.606 C -869.43879,1211.8047 -929.30829,1269.539 -1003.1722,1269.539 C -1077.0362,1269.539 -1136.9057,1211.8047 -1136.8739,1140.606 C -1136.9057,1069.4072 -1077.0362,1011.6729 -1003.1722,1011.6729 C -929.30829,1011.6729 -869.43879,1069.4072 -869.47054,1140.606 z " fill="#000000" fill-opacity="1" fill-rule="nonzero" stroke="#000000" stroke-width="0.109" stroke-linecap="round" stroke-linejoin="round" stroke-miterlimit="4" stroke-dasharray="none" stroke-dashoffset="0" stroke-opacity="1"/>
        <path d="M -835.28213,637.92856 C -835.28213,637.92856 -823.61847,657.28113 -848.07891,701.33063 C -965.00311,911.89365 -1082.3306,916.44837 -1104.5958,934.58069 C -1129.1366,954.56601 -1139.4959,953.1941 -1139.4959,953.1941 L -1137.7507,935.16229 C -1137.7507,935.16229 -1136.1248,861.41505 -1134.8424,854.31 C -1117.0872,755.92962 -968.47178,757.28016 -852.1506,656.54203 C -833.97964,640.80542 -835.28213,637.92856 -835.28213,637.92856 z " fill="#000000" fill-opacity="1" fill-rule="evenodd" stroke="#000000" stroke-width="3.451" stroke-linecap="butt" stroke-linejoin="round" stroke-miterlimit="4" stroke-dasharray="none" stroke-opacity="1"/>
        <path d="M -998.69592,1300.8153 C -953.42503,1295.9732 -900.87395,1277.4394 -884.15182,1250.7552 C -785.80952,1093.8258 -774.71949,1092.6118 -774.71949,1092.6118 C -774.71949,1092.6118 -789.73899,1132.7235 -799.90482,1182.6917 C -810.07065,1232.6598 -808.47234,1273.0762 -820.31548,1292.4841 C -835.43792,1317.266 -859.51984,1342.9638 -890.79108,1353.0798 C -931.56638,1366.2705 -999.91128,1368.6737 -999.91128,1368.6737 C -999.91128,1368.6737 -1002.6467,1301.2381 -998.69592,1300.8153 z " fill="#000000" fill-opacity="1" fill-rule="evenodd" stroke="#000000" stroke-width="2.557" stroke-linecap="butt" stroke-linejoin="round" stroke-miterlimit="4" stroke-dasharray="none" stroke-opacity="1"/>
        <path d="M -1008.4881,1300.7066 C -1052.6784,1295.8613 -1103.9751,1277.3168 -1120.2983,1250.6165 C -1216.2934,1093.5942 -1227.1186,1092.3795 -1227.1186,1092.3795 C -1227.1186,1092.3795 -1212.4575,1132.5149 -1202.5345,1182.5126 C -1192.6114,1232.5103 -1194.1716,1272.9509 -1182.611,1292.3701 C -1167.8498,1317.167 -1144.3426,1342.88 -1113.8174,1353.0021 C -1074.0155,1366.2006 -1007.3016,1368.6051 -1007.3016,1368.6051 C -1007.3016,1368.6051 -1004.6316,1301.1294 -1008.4881,1300.7066 z " fill="#000000" fill-opacity="1" fill-rule="evenodd" stroke="#000000" stroke-width="2.557" stroke-linecap="butt" stroke-linejoin="round" stroke-miterlimit="4" stroke-dasharray="none" stroke-opacity="1"/>
        <g transform="matrix(14.2758,0,0,13.01776,-3251.995,356.0369)" fill="#000000" fill-opacity="1" stroke="#000000" stroke-opacity="1">
                <path d="M 158.0,109.8 C 161.3,110.3 165.1,112.2 166.3,115.0 C 173.5,131.4 174.3,131.5 174.3,131.5 C 174.3,131.5 173.2,127.3 172.5,122.1 C 171.7,116.9 171.9,112.7 171.0,110.6 C 169.9,108.0 168.1,105.4 165.9,104.3 C 162.9,102.9 157.9,102.7 157.9,102.7 C 157.9,102.7 157.7,109.7 158.0,109.8 z " fill="#000000" fill-opacity="1" fill-rule="evenodd" stroke="#000000" stroke-width="0.187" stroke-linecap="butt" stroke-linejoin="round" stroke-miterlimit="4" stroke-dasharray="none" stroke-opacity="1"/>
                <path d="M 157.3,109.8 C 154.0,110.3 150.3,112.2 149.1,115.0 C 142.1,131.4 141.3,131.5 141.3,131.5 C 141.3,131.5 142.4,127.3 143.1,122.1 C 143.8,116.9 143.7,112.7 144.5,110.6 C 145.6,108.1 147.3,105.4 149.6,104.3 C 152.5,102.9 157.3,102.7 157.3,102.7 C 157.3,102.7 157.5,109.7 157.3,109.8 z " fill="#000000" fill-opacity="1" fill-rule="evenodd" stroke="#000000" stroke-width="0.187" stroke-linecap="butt" stroke-linejoin="round" stroke-miterlimit="4" stroke-dasharray="none" stroke-opacity="1"/>
            </g>
    </g>
</svg>
