<?xml version="1.0" encoding="UTF-8" standalone="no"?>
<svg xmlns:dc="http://purl.org/dc/elements/1.1/" xmlns:cc="http://web.resource.org/cc/" xmlns:rdf="http://www.w3.org/1999/02/22-rdf-syntax-ns#" xmlns:svg="http://www.w3.org/2000/svg" xmlns="http://www.w3.org/2000/svg" xmlns:xlink="http://www.w3.org/1999/xlink" height="450" width="675" version="1.0" id="svg1573">
  
  <defs id="defs1593">
    <linearGradient xlink:href="#linearGradient583" id="linearGradient3667" gradientUnits="userSpaceOnUse" gradientTransform="matrix(0.340835,0,0,0.645489,112.7334,-59.8854)" spreadMethod="pad" x1="123.78826" y1="360.51648" x2="123.78826" y2="459.27271"/>
    <linearGradient xlink:href="#linearGradient583" id="linearGradient3670" gradientUnits="userSpaceOnUse" gradientTransform="matrix(-1.466237e-3,0.340832,-0.645483,-2.776828e-3,337.3033,115.2091)" spreadMethod="pad" x1="123.78826" y1="360.51648" x2="123.78826" y2="459.27271"/>
    <linearGradient xlink:href="#linearGradient583" id="linearGradient3673" gradientUnits="userSpaceOnUse" gradientTransform="matrix(0.239761,0.242246,-0.458777,0.45407,261.8677,-18.61753)" spreadMethod="pad" x1="123.78826" y1="360.51648" x2="123.78826" y2="459.27271"/>
    <linearGradient xlink:href="#linearGradient583" id="linearGradient3676" gradientUnits="userSpaceOnUse" gradientTransform="matrix(0.242422,-0.239583,0.453733,0.45911,-20.14433,15.32783)" spreadMethod="pad" x1="123.78826" y1="360.51648" x2="123.78826" y2="459.27271"/>
    <linearGradient xlink:href="#linearGradient583" id="linearGradient3679" gradientUnits="userSpaceOnUse" gradientTransform="matrix(2.444194e-3,-0.340826,0.645472,4.628927e-3,-61.67835,163.148)" spreadMethod="pad" x1="123.78826" y1="360.51648" x2="123.78826" y2="459.27271"/>
    <linearGradient xlink:href="#linearGradient583" id="linearGradient3682" gradientUnits="userSpaceOnUse" gradientTransform="matrix(-0.238398,-0.243588,0.461317,-0.451489,12.94131,296.849)" spreadMethod="pad" x1="123.78826" y1="360.51648" x2="123.78826" y2="459.27271"/>
    <linearGradient xlink:href="#linearGradient583" id="linearGradient3685" gradientUnits="userSpaceOnUse" gradientTransform="matrix(-0.340807,-4.409405e-3,8.350735e-3,-0.645435,160.3792,339.1233)" spreadMethod="pad" x1="123.78826" y1="360.51648" x2="123.78826" y2="459.27271"/>
    <linearGradient id="linearGradient583">
      <stop id="stop584" offset="0" stop-color="#faff00" stop-opacity="1"/>
      <stop id="stop585" offset="1" stop-color="#f5c402" stop-opacity="1"/>
    </linearGradient>
    <linearGradient xlink:href="#linearGradient583" id="linearGradient3688" gradientUnits="userSpaceOnUse" gradientTransform="matrix(-0.241895,0.240115,-0.454741,-0.458112,296.1105,263.2543)" spreadMethod="pad" x1="123.78826" y1="360.51648" x2="123.78826" y2="459.27271"/>
    <linearGradient xlink:href="#linearGradient583" id="linearGradient3920" gradientUnits="userSpaceOnUse" gradientTransform="matrix(0.407689,0,0,0.7721,136.0226,-80.91554)" spreadMethod="pad" x1="123.78826" y1="360.51648" x2="123.78826" y2="459.27271"/>
    <linearGradient xlink:href="#linearGradient583" id="linearGradient3923" gradientUnits="userSpaceOnUse" gradientTransform="matrix(-1.753836e-3,0.407686,-0.772093,-3.321497e-3,404.6414,128.5234)" spreadMethod="pad" x1="123.78826" y1="360.51648" x2="123.78826" y2="459.27271"/>
    <linearGradient xlink:href="#linearGradient583" id="linearGradient3926" gradientUnits="userSpaceOnUse" gradientTransform="matrix(0.28679,0.289762,-0.548765,0.543135,314.4093,-31.55306)" spreadMethod="pad" x1="123.78826" y1="360.51648" x2="123.78826" y2="459.27271"/>
    <linearGradient xlink:href="#linearGradient583" id="linearGradient3929" gradientUnits="userSpaceOnUse" gradientTransform="matrix(0.289973,-0.286577,0.542732,0.549164,-22.91882,9.050613)" spreadMethod="pad" x1="123.78826" y1="360.51648" x2="123.78826" y2="459.27271"/>
    <linearGradient xlink:href="#linearGradient583" id="linearGradient3932" gradientUnits="userSpaceOnUse" gradientTransform="matrix(2.923618e-3,-0.407678,0.77208,5.536882e-3,-72.59966,185.8654)" spreadMethod="pad" x1="123.78826" y1="360.51648" x2="123.78826" y2="459.27271"/>
    <linearGradient xlink:href="#linearGradient583" id="linearGradient3935" gradientUnits="userSpaceOnUse" gradientTransform="matrix(-0.285159,-0.291367,0.551803,-0.540048,16.6565,345.7916)" spreadMethod="pad" x1="123.78826" y1="360.51648" x2="123.78826" y2="459.27271"/>
    <linearGradient xlink:href="#linearGradient583" id="linearGradient3938" gradientUnits="userSpaceOnUse" gradientTransform="matrix(-0.407656,-5.274301e-3,9.988715e-3,-0.772036,193.014,396.3579)" spreadMethod="pad" x1="123.78826" y1="360.51648" x2="123.78826" y2="459.27271"/>
    <linearGradient xlink:href="#linearGradient583" id="linearGradient3941" gradientUnits="userSpaceOnUse" gradientTransform="matrix(-0.289342,0.287213,-0.543938,-0.54797,355.3688,305.6074)" spreadMethod="pad" x1="123.78826" y1="360.51648" x2="123.78826" y2="459.27271"/>
    <linearGradient xlink:href="#linearGradient583" id="linearGradient2691" gradientUnits="userSpaceOnUse" gradientTransform="matrix(0.407689,0,0,0.7721,136.0226,-80.91554)" spreadMethod="pad" x1="123.78826" y1="360.51648" x2="123.78826" y2="459.27271"/>
    <linearGradient xlink:href="#linearGradient583" id="linearGradient2694" gradientUnits="userSpaceOnUse" gradientTransform="matrix(-1.753836e-3,0.407686,-0.772093,-3.321497e-3,404.6414,128.5234)" spreadMethod="pad" x1="123.78826" y1="360.51648" x2="123.78826" y2="459.27271"/>
    <linearGradient xlink:href="#linearGradient583" id="linearGradient2697" gradientUnits="userSpaceOnUse" gradientTransform="matrix(0.28679,0.289762,-0.548765,0.543135,314.4093,-31.55306)" spreadMethod="pad" x1="123.78826" y1="360.51648" x2="123.78826" y2="459.27271"/>
    <linearGradient xlink:href="#linearGradient583" id="linearGradient2700" gradientUnits="userSpaceOnUse" gradientTransform="matrix(0.289973,-0.286577,0.542732,0.549164,-22.91882,9.050613)" spreadMethod="pad" x1="123.78826" y1="360.51648" x2="123.78826" y2="459.27271"/>
    <linearGradient xlink:href="#linearGradient583" id="linearGradient2703" gradientUnits="userSpaceOnUse" gradientTransform="matrix(2.923618e-3,-0.407678,0.77208,5.536882e-3,-72.59966,185.8654)" spreadMethod="pad" x1="123.78826" y1="360.51648" x2="123.78826" y2="459.27271"/>
    <linearGradient xlink:href="#linearGradient583" id="linearGradient2706" gradientUnits="userSpaceOnUse" gradientTransform="matrix(-0.285159,-0.291367,0.551803,-0.540048,16.6565,345.7916)" spreadMethod="pad" x1="123.78826" y1="360.51648" x2="123.78826" y2="459.27271"/>
    <linearGradient xlink:href="#linearGradient583" id="linearGradient2709" gradientUnits="userSpaceOnUse" gradientTransform="matrix(-0.407656,-5.274301e-3,9.988715e-3,-0.772036,193.014,396.3579)" spreadMethod="pad" x1="123.78826" y1="360.51648" x2="123.78826" y2="459.27271"/>
    <linearGradient xlink:href="#linearGradient583" id="linearGradient2712" gradientUnits="userSpaceOnUse" gradientTransform="matrix(-0.289342,0.287213,-0.543938,-0.54797,355.3688,305.6074)" spreadMethod="pad" x1="123.78826" y1="360.51648" x2="123.78826" y2="459.27271"/>
    <linearGradient xlink:href="#linearGradient583" id="linearGradient2456" gradientUnits="userSpaceOnUse" gradientTransform="matrix(0.407689,0,0,0.7721,132.8054,-69.65545)" spreadMethod="pad" x1="123.78826" y1="360.51648" x2="123.78826" y2="459.27271"/>
    <linearGradient xlink:href="#linearGradient583" id="linearGradient2459" gradientUnits="userSpaceOnUse" gradientTransform="matrix(-1.753836e-3,0.407686,-0.772093,-3.321497e-3,401.4242,139.7835)" spreadMethod="pad" x1="123.78826" y1="360.51648" x2="123.78826" y2="459.27271"/>
    <linearGradient xlink:href="#linearGradient583" id="linearGradient2462" gradientUnits="userSpaceOnUse" gradientTransform="matrix(0.28679,0.289762,-0.548765,0.543135,311.1921,-20.29297)" spreadMethod="pad" x1="123.78826" y1="360.51648" x2="123.78826" y2="459.27271"/>
    <linearGradient xlink:href="#linearGradient583" id="linearGradient2465" gradientUnits="userSpaceOnUse" gradientTransform="matrix(0.289973,-0.286577,0.542732,0.549164,-26.13598,20.3107)" spreadMethod="pad" x1="123.78826" y1="360.51648" x2="123.78826" y2="459.27271"/>
    <linearGradient xlink:href="#linearGradient583" id="linearGradient2468" gradientUnits="userSpaceOnUse" gradientTransform="matrix(2.923618e-3,-0.407678,0.77208,5.536882e-3,-75.81682,197.1255)" spreadMethod="pad" x1="123.78826" y1="360.51648" x2="123.78826" y2="459.27271"/>
    <linearGradient xlink:href="#linearGradient583" id="linearGradient2471" gradientUnits="userSpaceOnUse" gradientTransform="matrix(-0.285159,-0.291367,0.551803,-0.540048,13.43934,357.0517)" spreadMethod="pad" x1="123.78826" y1="360.51648" x2="123.78826" y2="459.27271"/>
    <linearGradient xlink:href="#linearGradient583" id="linearGradient2474" gradientUnits="userSpaceOnUse" gradientTransform="matrix(-0.407656,-5.274301e-3,9.988715e-3,-0.772036,189.7968,407.618)" spreadMethod="pad" x1="123.78826" y1="360.51648" x2="123.78826" y2="459.27271"/>
    <linearGradient xlink:href="#linearGradient583" id="linearGradient2477" gradientUnits="userSpaceOnUse" gradientTransform="matrix(-0.289342,0.287213,-0.543938,-0.54797,352.1516,316.8675)" spreadMethod="pad" x1="123.78826" y1="360.51648" x2="123.78826" y2="459.27271"/>
    <linearGradient xlink:href="#linearGradient583" id="linearGradient2387" gradientUnits="userSpaceOnUse" gradientTransform="matrix(-0.289342,0.287213,-0.543938,-0.54797,352.1516,316.8675)" spreadMethod="pad" x1="123.78826" y1="360.51648" x2="123.78826" y2="459.27271"/>
    <linearGradient xlink:href="#linearGradient583" id="linearGradient2389" gradientUnits="userSpaceOnUse" gradientTransform="matrix(-0.407656,-5.274301e-3,9.988715e-3,-0.772036,189.7968,407.618)" spreadMethod="pad" x1="123.78826" y1="360.51648" x2="123.78826" y2="459.27271"/>
    <linearGradient xlink:href="#linearGradient583" id="linearGradient2391" gradientUnits="userSpaceOnUse" gradientTransform="matrix(-0.285159,-0.291367,0.551803,-0.540048,13.43934,357.0517)" spreadMethod="pad" x1="123.78826" y1="360.51648" x2="123.78826" y2="459.27271"/>
    <linearGradient xlink:href="#linearGradient583" id="linearGradient2393" gradientUnits="userSpaceOnUse" gradientTransform="matrix(2.923618e-3,-0.407678,0.77208,5.536882e-3,-75.81682,197.1255)" spreadMethod="pad" x1="123.78826" y1="360.51648" x2="123.78826" y2="459.27271"/>
    <linearGradient xlink:href="#linearGradient583" id="linearGradient2395" gradientUnits="userSpaceOnUse" gradientTransform="matrix(0.289973,-0.286577,0.542732,0.549164,-26.13598,20.3107)" spreadMethod="pad" x1="123.78826" y1="360.51648" x2="123.78826" y2="459.27271"/>
    <linearGradient xlink:href="#linearGradient583" id="linearGradient2397" gradientUnits="userSpaceOnUse" gradientTransform="matrix(0.28679,0.289762,-0.548765,0.543135,311.1921,-20.29297)" spreadMethod="pad" x1="123.78826" y1="360.51648" x2="123.78826" y2="459.27271"/>
    <linearGradient xlink:href="#linearGradient583" id="linearGradient2399" gradientUnits="userSpaceOnUse" gradientTransform="matrix(-1.753836e-3,0.407686,-0.772093,-3.321497e-3,401.4242,139.7835)" spreadMethod="pad" x1="123.78826" y1="360.51648" x2="123.78826" y2="459.27271"/>
    <linearGradient xlink:href="#linearGradient583" id="linearGradient2401" gradientUnits="userSpaceOnUse" gradientTransform="matrix(0.407689,0,0,0.7721,132.8054,-69.65545)" spreadMethod="pad" x1="123.78826" y1="360.51648" x2="123.78826" y2="459.27271"/>
    <linearGradient xlink:href="#linearGradient583" id="linearGradient2475" gradientUnits="userSpaceOnUse" gradientTransform="matrix(0.407689,0,0,0.7721,132.8054,-69.65545)" spreadMethod="pad" x1="123.78826" y1="360.51648" x2="123.78826" y2="459.27271"/>
    <linearGradient xlink:href="#linearGradient583" id="linearGradient2478" gradientUnits="userSpaceOnUse" gradientTransform="matrix(-1.753836e-3,0.407686,-0.772093,-3.321497e-3,401.4242,139.7835)" spreadMethod="pad" x1="123.78826" y1="360.51648" x2="123.78826" y2="459.27271"/>
    <linearGradient xlink:href="#linearGradient583" id="linearGradient2481" gradientUnits="userSpaceOnUse" gradientTransform="matrix(0.28679,0.289762,-0.548765,0.543135,311.1921,-20.29297)" spreadMethod="pad" x1="123.78826" y1="360.51648" x2="123.78826" y2="459.27271"/>
    <linearGradient xlink:href="#linearGradient583" id="linearGradient2484" gradientUnits="userSpaceOnUse" gradientTransform="matrix(0.289973,-0.286577,0.542732,0.549164,-26.13598,20.3107)" spreadMethod="pad" x1="123.78826" y1="360.51648" x2="123.78826" y2="459.27271"/>
    <linearGradient xlink:href="#linearGradient583" id="linearGradient2487" gradientUnits="userSpaceOnUse" gradientTransform="matrix(2.923618e-3,-0.407678,0.77208,5.536882e-3,-75.81682,197.1255)" spreadMethod="pad" x1="123.78826" y1="360.51648" x2="123.78826" y2="459.27271"/>
    <linearGradient xlink:href="#linearGradient583" id="linearGradient2490" gradientUnits="userSpaceOnUse" gradientTransform="matrix(-0.285159,-0.291367,0.551803,-0.540048,13.43934,357.0517)" spreadMethod="pad" x1="123.78826" y1="360.51648" x2="123.78826" y2="459.27271"/>
    <linearGradient xlink:href="#linearGradient583" id="linearGradient2493" gradientUnits="userSpaceOnUse" gradientTransform="matrix(-0.407656,-5.274301e-3,9.988715e-3,-0.772036,189.7968,407.618)" spreadMethod="pad" x1="123.78826" y1="360.51648" x2="123.78826" y2="459.27271"/>
    <linearGradient xlink:href="#linearGradient583" id="linearGradient2496" gradientUnits="userSpaceOnUse" gradientTransform="matrix(-0.289342,0.287213,-0.543938,-0.54797,352.1516,316.8675)" spreadMethod="pad" x1="123.78826" y1="360.51648" x2="123.78826" y2="459.27271"/>
    <linearGradient xlink:href="#linearGradient583" id="linearGradient2549" gradientUnits="userSpaceOnUse" gradientTransform="matrix(-0.285159,-0.291367,0.551803,-0.540048,13.43934,357.0517)" spreadMethod="pad" x1="123.78826" y1="360.51648" x2="123.78826" y2="459.27271"/>
    <linearGradient xlink:href="#linearGradient583" id="linearGradient2563" gradientUnits="userSpaceOnUse" gradientTransform="matrix(-0.285159,-0.291367,0.551803,-0.540048,13.43934,357.0517)" spreadMethod="pad" x1="123.78826" y1="360.51648" x2="123.78826" y2="459.27271"/>
    <linearGradient xlink:href="#linearGradient583" id="linearGradient2577" gradientUnits="userSpaceOnUse" gradientTransform="matrix(-0.285159,-0.291367,0.551803,-0.540048,13.43934,357.0517)" spreadMethod="pad" x1="123.78826" y1="360.51648" x2="123.78826" y2="459.27271"/>
    <linearGradient xlink:href="#linearGradient583" id="linearGradient2591" gradientUnits="userSpaceOnUse" gradientTransform="matrix(-0.285159,-0.291367,0.551803,-0.540048,13.43934,357.0517)" spreadMethod="pad" x1="123.78826" y1="360.51648" x2="123.78826" y2="459.27271"/>
    <linearGradient xlink:href="#linearGradient583" id="linearGradient2605" gradientUnits="userSpaceOnUse" gradientTransform="matrix(-0.285159,-0.291367,0.551803,-0.540048,13.43934,357.0517)" spreadMethod="pad" x1="123.78826" y1="360.51648" x2="123.78826" y2="459.27271"/>
    <linearGradient xlink:href="#linearGradient583" id="linearGradient2619" gradientUnits="userSpaceOnUse" gradientTransform="matrix(-0.285159,-0.291367,0.551803,-0.540048,13.43934,357.0517)" spreadMethod="pad" x1="123.78826" y1="360.51648" x2="123.78826" y2="459.27271"/>
    <linearGradient xlink:href="#linearGradient583" id="linearGradient2633" gradientUnits="userSpaceOnUse" gradientTransform="matrix(-0.285159,-0.291367,0.551803,-0.540048,13.43934,357.0517)" spreadMethod="pad" x1="123.78826" y1="360.51648" x2="123.78826" y2="459.27271"/>
    <linearGradient xlink:href="#linearGradient583" id="linearGradient2819" gradientUnits="userSpaceOnUse" gradientTransform="matrix(-0.285159,-0.291367,0.551803,-0.540048,13.43934,357.0517)" spreadMethod="pad" x1="123.78826" y1="360.51648" x2="123.78826" y2="459.27271"/>
    <linearGradient xlink:href="#linearGradient583" id="linearGradient2821" gradientUnits="userSpaceOnUse" gradientTransform="matrix(-0.285159,-0.291367,0.551803,-0.540048,13.43934,357.0517)" spreadMethod="pad" x1="123.78826" y1="360.51648" x2="123.78826" y2="459.27271"/>
    <linearGradient xlink:href="#linearGradient583" id="linearGradient2823" gradientUnits="userSpaceOnUse" gradientTransform="matrix(-0.285159,-0.291367,0.551803,-0.540048,13.43934,357.0517)" spreadMethod="pad" x1="123.78826" y1="360.51648" x2="123.78826" y2="459.27271"/>
    <linearGradient xlink:href="#linearGradient583" id="linearGradient2825" gradientUnits="userSpaceOnUse" gradientTransform="matrix(-0.285159,-0.291367,0.551803,-0.540048,13.43934,357.0517)" spreadMethod="pad" x1="123.78826" y1="360.51648" x2="123.78826" y2="459.27271"/>
    <linearGradient xlink:href="#linearGradient583" id="linearGradient2827" gradientUnits="userSpaceOnUse" gradientTransform="matrix(-0.285159,-0.291367,0.551803,-0.540048,13.43934,357.0517)" spreadMethod="pad" x1="123.78826" y1="360.51648" x2="123.78826" y2="459.27271"/>
    <linearGradient xlink:href="#linearGradient583" id="linearGradient2829" gradientUnits="userSpaceOnUse" gradientTransform="matrix(-0.285159,-0.291367,0.551803,-0.540048,13.43934,357.0517)" spreadMethod="pad" x1="123.78826" y1="360.51648" x2="123.78826" y2="459.27271"/>
    <linearGradient xlink:href="#linearGradient583" id="linearGradient2831" gradientUnits="userSpaceOnUse" gradientTransform="matrix(-0.285159,-0.291367,0.551803,-0.540048,13.43934,357.0517)" spreadMethod="pad" x1="123.78826" y1="360.51648" x2="123.78826" y2="459.27271"/>
    <linearGradient xlink:href="#linearGradient583" id="linearGradient2833" gradientUnits="userSpaceOnUse" gradientTransform="matrix(-0.285159,-0.291367,0.551803,-0.540048,13.43934,357.0517)" spreadMethod="pad" x1="123.78826" y1="360.51648" x2="123.78826" y2="459.27271"/>
  </defs>
  <sodipodi:namedview borderopacity="1.0" bordercolor="#666666" pagecolor="#ffffff" id="base" showguides="true"/>
  <desc id="desc1575">flag of Uruguay</desc>
  <g transform="matrix(0.5,0,0,0.5,-1.572831e-6,150.0716)">
    <rect y="-300.14316" x="4.3420144e-007" width="1349.9999" height="900" fill="#ffffff" fill-opacity="1"/>
    <rect x="4.3420144e-007" id="blue" y="-200" width="1350" height="100" fill="#5274b3"/>
    <use transform="translate(0,80)" height="540" width="810" x="0" id="use1580" xlink:href="#blue" y="120"/>
    <use transform="translate(-7.469955e-14,240)" height="540" width="810" x="0" id="use1584" xlink:href="#blue" y="360"/>
    <rect y="-300" x="-3.1456623e-006" width="500" height="500" fill="#ffffff" fill-opacity="1"/>
    <use y="240" xlink:href="#blue" id="use2141" x="0" width="810" height="540" transform="translate(0,160)"/>
    <g transform="matrix(1.818182,0,0,1.818182,50,-250)">
      <path d="M 108.6,217.7 C 108.3,216.4 106.2,205.5 103.9,193.5 C 101.6,181.5 99.62,171.5 99.43,171.4 C 99.24,171.2 97.18,172.9 94.85,175.2 C 91.28,178.8 90.13,181.1 87.42,190.0 C 83.67,202.3 80.40,206.9 72.94,210.4 C 70.12,211.7 67.62,212.5 67.39,212.3 C 67.15,212.1 68.51,209.5 70.40,206.5 L 73.84,201.1 L 73.94,186.4 C 74.00,176.4 74.56,169.6 75.64,165.5 C 76.53,162.1 77.10,159.2 76.91,159.0 C 76.73,158.8 66.65,165.4 54.52,173.6 C 42.39,181.9 32.22,188.3 31.91,188.0 C 31.61,187.7 37.59,178.3 45.21,167.0 C 52.84,155.8 59.07,146.4 59.07,146.1 C 59.07,145.8 56.26,145.6 52.83,145.6 C 47.24,145.6 45.58,146.2 36.79,150.9 C 28.03,155.7 26.34,156.3 20.88,156.2 C 15.02,156.2 8.154,153.8 8.154,151.8 C 8.154,151.4 10.29,150.7 12.90,150.3 C 19.67,149.4 25.48,145.6 29.57,139.4 C 32.11,135.6 35.54,132.5 41.76,128.4 C 46.52,125.2 50.51,122.2 50.62,121.7 C 50.74,121.1 39.58,118.5 25.82,115.9 C 12.06,113.2 0.554,110.8 0.239,110.5 C -0.07527,110.26102 -0.08057,109.75068 0.228,109.4 C 0.536,109.1 11.47,106.8 24.52,104.3 C 37.58,101.8 48.42,99.60 48.60,99.42 C 48.79,99.24 47.04,97.18 44.71,94.86 C 41.13,91.28 38.87,90.14 29.95,87.42 C 17.64,83.67 13.04,80.40 9.592,72.94 C 8.287,70.12 7.412,67.62 7.648,67.39 C 7.883,67.15 10.49,68.51 13.44,70.40 L 18.81,73.84 L 33.59,73.94 C 43.52,74.01 50.38,74.57 54.48,75.65 C 57.84,76.53 60.73,77.10 60.92,76.92 C 61.10,76.73 54.53,66.66 46.31,54.53 C 38.08,42.40 31.61,32.22 31.91,31.91 C 32.22,31.61 41.67,37.59 52.91,45.22 C 64.16,52.84 73.58,59.07 73.85,59.07 C 74.13,59.07 74.35,56.27 74.35,52.83 C 74.35,47.24 73.80,45.58 69.02,36.79 C 64.26,28.03 63.70,26.34 63.72,20.88 C 63.74,15.02 66.12,8.154 68.13,8.154 C 68.60,8.154 69.27,10.29 69.63,12.90 C 70.56,19.67 74.35,25.48 80.50,29.58 C 84.31,32.11 87.42,35.54 91.55,41.76 C 94.71,46.52 97.72,50.65 98.24,50.93 C 98.76,51.21 101.3,40.04 104.0,26.12 C 106.6,12.20 109.1,0.554 109.4,0.239 C 109.74218,-0.075281 110.25251,-0.080581 110.5,0.228 C 110.8,0.536 113.1,11.47 115.6,24.53 C 118.1,37.58 120.3,48.42 120.5,48.60 C 120.7,48.79 122.8,47.04 125.1,44.71 C 128.7,41.13 129.8,38.87 132.5,29.95 C 136.3,17.64 139.5,13.04 147.0,9.592 C 149.8,8.287 152.3,7.412 152.6,7.648 C 152.8,7.883 151.4,10.49 149.5,13.44 L 146.1,18.81 L 146.0,33.59 C 145.9,43.52 145.4,50.38 144.3,54.48 C 143.4,57.84 142.8,60.74 143.0,60.92 C 143.2,61.11 153.3,54.53 165.4,46.31 C 177.6,38.09 187.7,31.61 188.0,31.91 C 188.3,32.22 182.4,41.67 174.7,52.91 C 167.1,64.16 160.9,73.58 160.9,73.85 C 160.9,74.13 163.7,74.35 167.1,74.35 C 172.7,74.35 174.4,73.80 183.2,69.02 C 191.9,64.26 193.6,63.70 199.1,63.72 C 204.9,63.74 211.8,66.12 211.8,68.13 C 211.8,68.60 209.7,69.28 207.0,69.63 C 200.3,70.56 194.5,74.35 190.4,80.50 C 187.8,84.38 184.4,87.44 177.7,91.88 C 172.6,95.23 168.5,98.24 168.5,98.58 C 168.5,98.91 179.9,101.3 193.8,104.0 C 207.7,106.6 219.4,109.1 219.7,109.4 C 220.0,109.7 220.0,110.2 219.7,110.5 C 219.4,110.8 208.5,113.1 195.4,115.6 C 182.4,118.1 171.5,120.3 171.3,120.5 C 171.2,120.7 172.9,122.8 175.2,125.1 C 178.8,128.7 181.1,129.8 190.0,132.5 C 202.3,136.3 206.9,139.6 210.4,147.0 C 211.7,149.8 212.5,152.3 212.3,152.6 C 212.1,152.8 209.5,151.4 206.5,149.6 L 201.1,146.1 L 186.4,146.0 C 176.4,145.9 169.6,145.4 165.5,144.3 C 162.1,143.4 159.2,142.8 159.0,143.0 C 158.8,143.2 165.4,153.3 173.6,165.4 C 181.9,177.6 188.3,187.7 188.0,188.0 C 187.7,188.3 178.3,182.4 167.0,174.7 C 155.8,167.1 146.4,160.9 146.1,160.9 C 145.8,160.9 145.6,163.7 145.6,167.1 C 145.6,172.7 146.1,174.4 150.9,183.2 C 155.7,191.9 156.2,193.6 156.2,199.1 C 156.2,204.9 153.8,211.8 151.8,211.8 C 151.3,211.8 150.7,209.7 150.3,207.0 C 149.4,200.2 145.6,194.5 139.1,190.0 C 134.8,187.1 132.0,183.9 127.6,177.1 C 124.4,172.1 121.5,168.3 121.1,168.8 C 120.7,169.2 118.7,178.7 116.6,189.9 C 111.6,216.9 110.99633,220 110.02601,220 C 109.573,220 108.9,218.9 108.6,217.7 z " fill="#ffd200"/>
      <path d="M 108.6,217.7 C 108.3,216.4 106.2,205.5 103.9,193.5 C 101.6,181.5 99.62,171.5 99.43,171.4 C 99.24,171.2 97.18,172.9 94.85,175.2 C 91.28,178.8 90.13,181.1 87.42,190.0 C 83.67,202.3 80.40,206.9 72.94,210.4 C 70.12,211.7 67.62,212.5 67.39,212.3 C 67.15,212.1 68.51,209.5 70.40,206.5 L 73.84,201.1 L 73.94,186.4 C 74.00,176.4 74.56,169.6 75.64,165.5 C 76.53,162.1 77.10,159.2 76.91,159.0 C 76.73,158.8 66.65,165.4 54.52,173.6 C 42.39,181.9 32.22,188.3 31.91,188.0 C 31.61,187.7 37.59,178.3 45.21,167.0 C 52.84,155.8 59.07,146.4 59.07,146.1 C 59.07,145.8 56.26,145.6 52.83,145.6 C 47.24,145.6 45.58,146.2 36.79,150.9 C 28.03,155.7 26.34,156.3 20.88,156.2 C 15.02,156.2 8.154,153.8 8.154,151.8 C 8.154,151.4 10.29,150.7 12.90,150.3 C 19.67,149.4 25.48,145.6 29.57,139.4 C 32.11,135.6 35.54,132.5 41.76,128.4 C 46.52,125.2 50.51,122.2 50.62,121.7 C 50.74,121.1 39.58,118.5 25.82,115.9 C 12.06,113.2 0.554,110.8 0.239,110.5 C -0.07527,110.26102 -0.08057,109.75067 0.228,109.4 C 0.536,109.1 11.47,106.8 24.52,104.3 C 37.58,101.8 48.42,99.60 48.60,99.42 C 48.79,99.24 47.04,97.18 44.71,94.86 C 41.13,91.28 38.87,90.14 29.95,87.42 C 17.64,83.67 13.04,80.40 9.592,72.94 C 8.287,70.12 7.412,67.62 7.648,67.39 C 7.883,67.15 10.49,68.51 13.44,70.40 L 18.81,73.84 L 33.59,73.94 C 43.52,74.01 50.38,74.57 54.48,75.65 C 57.84,76.53 60.73,77.10 60.92,76.92 C 61.10,76.73 54.53,66.66 46.31,54.53 C 38.08,42.40 31.61,32.22 31.91,31.91 C 32.22,31.61 41.67,37.59 52.91,45.22 C 64.16,52.84 73.58,59.07 73.85,59.07 C 74.13,59.07 74.35,56.27 74.35,52.83 C 74.35,47.24 73.80,45.58 69.02,36.79 C 64.26,28.03 63.70,26.34 63.72,20.88 C 63.74,15.02 66.12,8.154 68.13,8.154 C 68.60,8.154 69.27,10.29 69.63,12.90 C 70.56,19.67 74.35,25.48 80.50,29.58 C 84.31,32.11 87.42,35.54 91.55,41.76 C 94.71,46.52 97.72,50.65 98.24,50.93 C 98.76,51.21 101.3,40.04 104.0,26.12 C 106.6,12.20 109.1,0.554 109.4,0.239 C 109.74218,-0.075269 110.25251,-0.080569 110.5,0.228 C 110.8,0.536 113.1,11.47 115.6,24.53 C 118.1,37.58 120.3,48.42 120.5,48.60 C 120.7,48.79 122.8,47.04 125.1,44.71 C 128.7,41.13 129.8,38.87 132.5,29.95 C 136.3,17.64 139.5,13.04 147.0,9.592 C 149.8,8.287 152.3,7.412 152.6,7.648 C 152.8,7.884 151.4,10.49 149.5,13.44 L 146.1,18.81 L 146.0,33.59 C 145.9,43.52 145.4,50.38 144.3,54.48 C 143.4,57.84 142.8,60.74 143.0,60.92 C 143.2,61.11 153.3,54.53 165.4,46.31 C 177.6,38.09 187.7,31.61 188.0,31.91 C 188.3,32.22 182.4,41.67 174.7,52.91 C 167.1,64.16 160.9,73.58 160.9,73.85 C 160.9,74.13 163.7,74.35 167.1,74.35 C 172.7,74.35 174.4,73.80 183.2,69.02 C 191.9,64.26 193.6,63.70 199.1,63.72 C 204.9,63.74 211.8,66.12 211.8,68.13 C 211.8,68.60 209.7,69.28 207.0,69.63 C 200.3,70.56 194.5,74.35 190.4,80.50 C 187.8,84.38 184.4,87.44 177.7,91.88 C 172.6,95.23 168.5,98.24 168.5,98.58 C 168.5,98.91 179.9,101.3 193.8,104.0 C 207.7,106.6 219.4,109.1 219.7,109.4 C 220.0,109.7 220.0,110.2 219.7,110.5 C 219.4,110.8 208.5,113.1 195.4,115.6 C 182.4,118.1 171.5,120.3 171.3,120.5 C 171.2,120.7 172.9,122.8 175.2,125.1 C 178.8,128.7 181.1,129.8 190.0,132.5 C 202.3,136.3 206.9,139.6 210.4,147.0 C 211.7,149.8 212.5,152.3 212.3,152.6 C 212.1,152.8 209.5,151.4 206.5,149.6 L 201.1,146.1 L 186.4,146.0 C 176.4,145.9 169.6,145.4 165.5,144.3 C 162.1,143.4 159.2,142.8 159.0,143.0 C 158.8,143.2 165.4,153.3 173.6,165.4 C 181.9,177.6 188.3,187.7 188.0,188.0 C 187.7,188.3 178.3,182.4 167.0,174.7 C 155.8,167.1 146.4,160.9 146.1,160.9 C 145.8,160.9 145.6,163.7 145.6,167.1 C 145.6,172.7 146.1,174.4 150.9,183.2 C 155.7,191.9 156.2,193.6 156.2,199.1 C 156.2,204.9 153.8,211.8 151.8,211.8 C 151.3,211.8 150.7,209.7 150.3,207.0 C 149.4,200.2 145.6,194.5 139.1,190.0 C 134.8,187.1 132.0,183.9 127.6,177.1 C 124.4,172.1 121.5,168.3 121.1,168.8 C 120.7,169.2 118.7,178.7 116.6,189.9 C 111.6,216.9 110.9,219.9 110.0,219.9 C 109.5,219.9 108.9,218.9 108.6,217.7 z M 81.43,200.7 C 82.44,198.7 84.50,193.0 86.01,188.0 C 88.35,180.3 89.52,178.1 93.88,173.5 L 99.00,168.1 L 97.24,158.3 L 95.48,148.6 L 90.40,159.5 C 85.47,170.0 84.26,174.6 81.65,192.7 C 81.08,196.6 79.75,200.8 78.52,202.5 C 77.35,204.1 76.39,205.8 76.39,206.2 C 76.39,207.8 79.67,204.1 81.43,200.7 z M 108.9,177.3 L 108.9,147.9 L 103.2,146.8 C 100.0,146.1 97.33,145.7 97.20,145.9 C 96.90,146.2 108.3,206.7 108.7,206.7 C 108.8,206.7 108.9,193.5 108.9,177.3 z M 117.5,175.1 C 120.5,159.2 122.9,146.0 122.8,145.9 C 122.6,145.7 119.9,146.1 116.7,146.8 L 111.0,147.9 L 111.1,177.6 C 111.2,193.9 111.4,206.5 111.6,205.7 C 111.8,204.9 114.5,191.1 117.5,175.1 z M 77.51,200.1 C 78.56,197.7 80.09,190.7 80.90,184.5 C 82.35,173.4 83.41,170.2 91.01,153.5 C 92.47,150.3 93.42,147.6 93.11,147.6 C 92.79,147.6 89.67,149.7 86.17,152.2 L 79.79,156.7 L 77.51,167.0 C 75.58,175.6 75.34,178.8 75.93,187.6 C 76.49,196.0 76.31,198.8 75.02,201.9 C 72.82,207.2 75.12,205.5 77.51,200.1 z M 154.4,197.6 C 154.1,194.3 152.1,189.2 148.7,183.0 C 143.9,174.1 143.6,172.9 143.6,166.2 L 143.6,159.0 L 135.7,153.4 C 131.3,150.4 127.7,148.0 127.5,148.1 C 127.1,148.4 134.9,169.1 136.7,172.7 C 137.6,174.3 140.9,178.9 144.1,182.8 C 150.3,190.3 153.7,196.5 153.7,200.3 C 153.7,201.6 154.0,202.6 154.4,202.6 C 154.8,202.6 154.8,200.4 154.4,197.6 z M 149.8,194.2 C 148.6,191.8 145.1,186.8 142.0,182.9 C 135.3,174.6 133.9,171.9 128.7,157.8 L 124.8,147.1 L 123.5,153.7 C 122.8,157.4 122.3,161.5 122.2,162.9 C 122.2,167.3 133.5,183.5 139.8,188.2 C 145.8,192.6 149.1,196.4 150.3,199.9 C 151.0,201.8 151.1,201.9 151.5,200.3 C 151.7,199.3 150.9,196.6 149.8,194.2 z M 83.32,151.9 L 94.83,144.2 L 91.98,142.7 C 90.40,141.9 88.07,140.3 86.79,139.2 L 84.46,137.0 L 62.85,158.7 L 41.25,180.4 L 56.53,170.0 C 64.93,164.3 76.98,156.2 83.32,151.9 z M 157.1,158.6 L 135.5,137.0 L 133.2,139.2 C 131.9,140.3 129.6,141.9 128.0,142.7 L 125.2,144.1 L 151.4,162.1 C 165.9,172.0 177.9,180.1 178.2,180.1 C 178.5,180.2 169.0,170.5 157.1,158.6 z M 80.80,133.2 C 79.63,131.9 78.02,129.5 77.21,128.0 L 75.76,125.1 L 68.03,136.6 C 63.78,143.0 55.64,155.0 49.94,163.4 L 39.58,178.7 L 61.25,157.1 L 82.92,135.5 L 80.80,133.2 z M 169.9,163.2 C 164.2,154.9 156.2,143.0 151.9,136.6 L 144.2,125.1 L 142.7,128.0 C 141.9,129.5 140.3,131.9 139.2,133.2 L 137.0,135.5 L 158.4,156.8 C 170.1,168.6 179.8,178.2 179.9,178.2 C 180.0,178.2 175.5,171.4 169.9,163.2 z M 36.98,148.7 C 45.88,143.9 47.01,143.6 53.73,143.6 L 60.94,143.6 L 66.50,135.7 C 69.56,131.3 71.96,127.7 71.84,127.5 C 71.52,127.1 50.81,134.9 47.29,136.7 C 45.65,137.6 41.15,140.9 37.29,144.0 C 29.46,150.4 26.29,152.3 20.66,153.7 C 17.00,154.7 17.07,154.7 22.12,154.3 C 26.02,154.0 29.99,152.5 36.98,148.7 z M 28.93,148.0 C 31.13,146.5 35.40,143.3 38.40,140.9 C 45.08,135.5 48.42,133.7 62.13,128.7 L 72.82,124.8 L 66.20,123.5 C 62.56,122.8 58.44,122.3 57.04,122.2 C 52.75,122.2 36.41,133.5 31.81,139.6 C 27.29,145.7 25.32,147.6 20.88,150.1 L 17.82,151.8 L 21.37,151.2 C 23.32,150.9 26.72,149.5 28.93,148.0 z M 125.0,142.5 C 132.2,139.4 140.6,130.5 143.5,122.7 C 148.6,109.1 145.5,95.42 135.0,84.93 C 124.5,74.44 110.9,71.40 97.18,76.48 C 88.82,79.56 79.56,88.82 76.47,97.18 C 71.57,110.4 74.46,124.3 84.25,134.5 C 95.11,145.9 110.2,148.9 125.0,142.5 z M 108.2,135.7 C 109.1,135.5 110.8,135.5 111.7,135.7 C 112.7,136.0 111.9,136.2 110,136.24762 C 108.0,136.2 107.2,136.0 108.2,135.7 z M 98.28,129.8 C 94.92,128.5 91.83,127.7 91.41,127.9 C 90.99,128.2 90.64,127.7 90.64,126.9 C 90.64,126.0 91.68,124.8 92.94,124.1 C 95.01,123.0 95.10,123.0 93.83,124.6 C 92.14,126.6 92.10,126.6 98.35,124.8 C 101.1,124.0 106.3,123.3 110,123.38433 C 113.6,123.3 118.8,124.0 121.6,124.8 C 127.8,126.6 127.8,126.6 126.1,124.6 C 124.8,123.0 124.9,123.0 127.0,124.1 C 128.3,124.8 129.3,126.0 129.3,127.0 C 129.3,127.9 129.0,128.3 128.7,128.0 C 128.3,127.7 125.1,128.5 121.4,129.9 C 113.1,133.0 106.3,133.0 98.28,129.8 z M 117.1,128.8 C 120.4,127.5 120.0,127.4 110,127.47327 C 99.76,127.4 99.48,127.5 103.3,128.8 C 108.6,130.5 112.6,130.5 117.1,128.8 z M 95.91,120.1 C 96.18,119.3 97.41,118.5 98.63,118.3 C 99.85,118.1 101.5,116.6 102.3,115.0 C 104.2,111.54038 105.3,111.0 104.3,114.2 C 103.7,116.0 103.9,116.3 105.7,115.8 C 107.0,115.5 107.8,115.7 107.6,116.4 C 107.5,117.1 108.5,117.6 110,117.64186 C 111.4,117.6 112.4,117.1 112.3,116.4 C 112.1,115.7 112.9,115.5 114.2,115.8 C 116.0,116.3 116.2,116.0 115.6,114.2 C 114.6,111.0 115.8,111.54038 117.6,115.0 C 118.4,116.6 120.1,118.1 121.3,118.3 C 122.5,118.5 123.8,119.3 124.0,120.1 C 124.4,121.3 124.2,121.4 123.1,120.5 C 120.6,118.5 115.0,117.8 112.4,119.2 C 110.4,120.2 109.5,120.2 107.5,119.2 C 104.9,117.8 99.37,118.5 96.84,120.5 C 95.72,121.4 95.51,121.3 95.91,120.1 z M 90.64,104.5 C 89.24,103.8 88.20,102.7 88.32,102.1 C 88.44,101.5 87.66,101.2 86.54,101.5 C 83.51,102.3 84.13,101.0 87.84,98.78 C 94.21,94.90 104.9,96.79 103.4,101.5 C 102.2,105.4 95.42,107.0 90.64,104.5 z M 91.96,101.8 C 91.66,100.7 91.02,99.81 90.53,99.81 C 89.15,99.81 89.46,102.6 90.90,103.2 C 91.60,103.5 92.24,103.7 92.33,103.8 C 92.42,103.8 92.25,102.9 91.96,101.8 z M 102.2,100.6 C 101.4,99.30 100.4,99.66 99.04,101.8 C 97.87,103.7 97.95,103.7 100.2,102.6 C 101.6,102.0 102.5,101.1 102.2,100.6 z M 119.4,104.6 C 116.2,103.1 115.3,99.80 117.7,98.11 C 120.4,96.07 128.3,96.44 132.1,98.78 C 135.8,101.0 136.4,102.3 133.4,101.5 C 132.3,101.2 131.5,101.5 131.6,102.1 C 131.9,103.6 127.3,105.9 124.2,105.8 C 122.8,105.8 120.6,105.2 119.4,104.6 z M 121.1,102.1 C 120.3,101.1 119.6,100.1 119.5,99.97 C 119.4,99.77 118.7,99.95 118.0,100.3 C 117.2,100.8 117.6,101.5 119.2,102.4 C 122.5,104.2 122.7,104.2 121.1,102.1 z M 130.3,101.2 C 130.3,99.12 128.6,99.52 128.0,101.7 C 127.6,103.1 127.9,103.5 128.9,103.1 C 129.7,102.8 130.3,102.0 130.3,101.2 z M 102.3,96.04 C 97.70,92.88 92.64,92.62 87.53,95.26 C 85.52,96.30 83.94,96.57 83.34,95.97 C 82.15,94.78 91.42,90.65 95.30,90.65 C 98.55,90.65 104.5,94.10 105.9,96.85 C 107.3,99.35 107.1,99.32 102.3,96.04 z M 113.9,97.08 C 115.4,94.13 121.3,90.65 124.6,90.65 C 128.5,90.65 137.8,94.78 136.6,95.98 C 136.0,96.59 134.7,96.47 133.3,95.67 C 126.7,92.19 121.7,92.69 115.1,97.47 C 112.7,99.22 112.7,99.22 113.9,97.08 z M 205.1,145.5 C 203.6,143.1 195.3,140.5 184.5,139.0 C 173.4,137.6 170.2,136.5 153.5,128.9 C 150.3,127.5 147.6,126.5 147.6,126.8 C 147.6,127.2 149.7,130.3 152.2,133.8 L 156.7,140.2 L 166.9,142.4 C 175.6,144.4 178.8,144.6 187.6,144.0 C 195.9,143.5 198.8,143.7 201.6,144.9 C 206.1,146.9 205.9,146.8 205.1,145.5 z M 205.6,142.0 C 203.6,139.5 198.0,137.0 188.0,133.9 C 180.3,131.6 178.1,130.4 173.5,126.1 L 168.1,121.0 L 158.3,122.7 L 148.6,124.5 L 159.5,129.5 C 170.0,134.5 174.6,135.7 192.7,138.3 C 196.7,138.9 200.7,140.2 202.4,141.4 C 205.7,143.9 207.5,144.2 205.6,142.0 z M 74.02,120.9 C 73.72,119.6 73.16,116.9 72.78,114.8 L 72.09,111.0 L 42.41,111.1 C 26.09,111.2 13.65,111.4 14.77,111.7 C 18.91,112.5 72.85,123.0 73.70,123.1 C 74.18,123.1 74.32,122.2 74.02,120.9 z M 177.2,117.1 C 192.0,114.3 204.8,111.8 205.7,111.6 C 206.5,111.4 193.9,111.2 177.5,111.1 L 147.9,111.0 L 147.2,114.8 C 146.8,116.9 146.2,119.7 145.9,121.0 C 145.4,123.0 145.7,123.2 147.8,122.7 C 149.1,122.4 162.3,119.9 177.2,117.1 z M 73.19,103.2 C 73.83,100.0 74.23,97.33 74.09,97.19 C 73.87,96.97 18.04,107.3 14.26,108.3 C 13.42,108.5 26.07,108.8 42.38,108.8 L 72.03,108.9 L 73.19,103.2 z M 205.7,108.3 C 201.9,107.3 146.1,96.97 145.9,97.19 C 145.7,97.33 146.1,100.0 146.8,103.2 L 147.9,108.9 L 177.6,108.8 C 193.9,108.8 206.5,108.5 205.7,108.3 z M 62.26,97.13 L 71.35,95.47 L 60.46,90.40 C 49.90,85.47 45.31,84.26 27.29,81.65 C 23.35,81.08 19.18,79.75 17.45,78.52 C 13.90,75.99 12.46,75.75 14.32,77.99 C 16.34,80.42 21.96,82.98 31.99,86.02 C 39.71,88.36 41.83,89.52 46.25,93.76 C 49.10,96.51 51.83,98.76 52.31,98.77 C 52.79,98.78 57.27,98.05 62.26,97.13 z M 174.8,91.75 C 181.3,87.57 185.3,84.10 188.1,80.30 C 192.7,74.21 194.6,72.33 199.1,69.84 L 202.1,68.13 L 198.6,68.72 C 194.7,69.36 189.9,72.28 181.5,79.06 C 174.9,84.49 171.5,86.21 157.8,91.26 L 147.1,95.20 L 153.2,96.37 C 163.8,98.42 164.7,98.22 174.8,91.75 z M 80.80,86.79 L 82.92,84.46 L 61.25,62.85 L 39.58,41.25 L 49.94,56.53 C 55.64,64.93 63.78,76.99 68.03,83.32 L 75.76,94.84 L 77.21,91.98 C 78.02,90.41 79.63,88.07 80.80,86.79 z M 159.4,72.31 C 167.1,60.83 175.0,49.14 177.0,46.34 C 179.3,43.08 172.7,49.01 158.8,62.81 L 137.1,84.36 L 139.8,87.50 C 141.2,89.22 142.7,91.60 143.1,92.78 C 143.5,93.96 144.1,94.54 144.5,94.06 C 144.9,93.58 151.6,83.80 159.4,72.31 z M 67.87,86.31 L 63.22,79.80 L 53.00,77.51 C 44.36,75.59 41.17,75.34 32.34,75.93 C 23.94,76.49 21.14,76.31 18.04,75.02 C 15.92,74.13 14.49,73.90 14.86,74.50 C 16.33,76.87 24.69,79.49 35.27,80.88 C 46.55,82.36 50.61,83.64 64.16,89.97 C 68.36,91.93 71.96,93.38 72.16,93.18 C 72.35,92.98 70.42,89.89 67.87,86.31 z M 159.0,88.73 C 172.7,83.64 174.3,82.82 182.7,75.94 C 190.5,69.51 193.7,67.66 199.3,66.21 C 202.9,65.27 202.9,65.24 197.8,65.66 C 193.8,65.99 190.1,67.41 183.5,70.99 C 175.6,75.36 173.8,75.93 166.6,76.39 L 158.7,76.90 L 153.1,84.79 C 150.1,89.13 147.8,92.68 148.0,92.68 C 148.2,92.68 153.2,90.91 159.0,88.73 z M 86.63,80.90 C 87.36,80.02 89.50,78.51 91.40,77.54 L 94.85,75.77 L 83.32,68.04 C 76.99,63.79 64.93,55.64 56.53,49.94 L 41.25,39.58 L 62.63,61.04 C 74.39,72.84 84.30,82.50 84.65,82.50 C 85.01,82.50 85.90,81.78 86.63,80.90 z M 157.3,61.04 L 178.7,39.58 L 163.4,49.94 C 155.0,55.64 143.0,63.79 136.6,68.04 L 125.1,75.77 L 128.5,77.54 C 130.4,78.51 132.6,80.02 133.3,80.90 C 134.0,81.78 134.9,82.50 135.3,82.50 C 135.6,82.50 145.6,72.84 157.3,61.04 z M 105.1,72.78 L 108.9,72.09 L 108.8,42.41 C 108.7,26.09 108.5,13.42 108.3,14.26 C 108.1,15.10 105.6,27.93 102.8,42.78 C 100.0,57.62 97.53,70.85 97.22,72.18 C 96.73,74.29 96.95,74.53 99.00,74.03 C 100.2,73.72 103.0,73.16 105.1,72.78 z M 122.7,72.06 C 122.4,70.80 119.9,57.62 117.1,42.78 C 114.3,27.93 111.8,15.10 111.6,14.26 C 111.4,13.42 111.2,26.09 111.1,42.41 L 111.0,72.09 L 115.8,73.10 C 123.1,74.63 123.3,74.61 122.7,72.06 z M 88.74,60.95 C 83.64,47.20 82.81,45.68 75.93,37.29 C 69.51,29.46 67.66,26.29 66.21,20.66 C 65.26,17.00 65.24,17.07 65.66,22.12 C 65.98,26.02 67.47,29.99 71.24,36.98 C 76.04,45.88 76.39,47.01 76.39,53.73 L 76.39,60.94 L 84.28,66.50 C 88.62,69.56 92.29,71.97 92.43,71.84 C 92.58,71.72 90.91,66.82 88.74,60.95 z M 97.71,57.04 C 97.77,52.75 86.50,36.41 80.30,31.81 C 74.21,27.29 72.32,25.32 69.84,20.88 L 68.13,17.82 L 68.71,21.37 C 69.36,25.28 72.28,30.08 79.06,38.40 C 84.50,45.08 86.22,48.42 91.25,62.13 L 95.17,72.82 L 96.43,66.20 C 97.11,62.56 97.69,58.44 97.71,57.04 z M 133.8,67.77 L 140.2,63.22 L 142.4,53.00 C 144.4,44.36 144.6,41.17 144.0,32.34 C 143.5,23.94 143.6,21.14 144.9,18.04 C 145.8,15.92 146.0,14.49 145.4,14.86 C 143.1,16.34 140.5,24.72 139.0,35.47 C 137.6,46.52 136.5,49.75 128.9,66.46 C 127.5,69.68 126.5,72.31 126.8,72.31 C 127.2,72.31 130.3,70.27 133.8,67.77 z M 133.0,52.58 C 134.5,48.98 136.1,42.07 137.0,35.27 C 138.7,22.17 139.1,20.81 141.7,17.16 C 144.0,13.86 144.1,12.53 142.0,14.32 C 139.5,16.34 137.0,21.96 133.9,31.97 C 131.6,39.68 130.4,41.83 126.1,46.44 L 120.9,51.85 L 122.7,61.58 L 124.5,71.30 L 127.5,64.93 C 129.1,61.43 131.6,55.87 133.0,52.58 z " fill="#806900"/>
    </g>
  </g>
</svg>
