<?xml version="1.0" encoding="UTF-8" standalone="no"?>
<!DOCTYPE svg PUBLIC "-//W3C//DTD SVG 1.0//EN"
"http://www.w3.org/TR/2001/REC-SVG-20010904/DTD/svg10.dtd">
<!-- Created with Inkscape (http://www.inkscape.org/) -->
<svg
   xmlns="http://www.w3.org/2000/svg"
   xmlns:xlink="http://www.w3.org/1999/xlink"
   version="1.0"
   x="0.0000000"
   y="0.0000000"
   width="450.00000"
   height="300.00000"
   id="svg1">
  <defs
     id="defs3" />
  <g
     id="layer1">
    <rect
       width="187.50000"
       height="125.00000"
       x="125.00000"
       y="552.36218"
       transform="matrix(2.400000,0.000000,0.000000,2.400000,-300.0000,-1325.669)"
       style="fill:#ce1126;fill-opacity:1.0000000;fill-rule:nonzero;stroke:none;stroke-width:1.2500000;stroke-linecap:butt;stroke-linejoin:miter;stroke-miterlimit:4.0000000;stroke-opacity:1.0000000"
       id="rect1061" />
    <rect
       width="187.50000"
       height="62.500000"
       x="125.00000"
       y="614.86218"
       transform="matrix(2.400000,0.000000,0.000000,2.400000,-300.0000,-1325.669)"
       style="fill:#000000;fill-opacity:1.0000000;fill-rule:nonzero;stroke:none;stroke-width:1.2500000;stroke-linecap:butt;stroke-linejoin:miter;stroke-miterlimit:4.0000000;stroke-opacity:1.0000000"
       id="rect1683" />
    <path
       d="M 208.05185,600.13549 L 216.22523,600.13549 L 218.74999,592.36222 L 221.27475,600.13549 L 229.44813,600.13549 L 222.83668,604.93895 L 225.36144,612.71222 L 218.74999,607.90876 L 212.13854,612.71222 L 214.66330,604.93895 L 208.05185,600.13549 z "
       transform="matrix(2.400000,0.000000,0.000000,2.400000,-300.0000,-1325.669)"
       style="fill:#f9d616;fill-opacity:1.0000000;fill-rule:evenodd;stroke:none;stroke-width:1.0000000pt;stroke-linecap:butt;stroke-linejoin:miter;stroke-opacity:1.0000000"
       id="path2203" />
    <path
       d="M 251.09348,611.67664 C 251.30215,613.79522 251.30215,615.92917 251.09348,618.04775 L 244.87358,617.43514 C 245.04211,615.72398 245.04211,614.00040 244.87358,612.28924 L 251.09348,611.67664 M 249.85054,624.29645 C 249.23257,626.33361 248.41595,628.30513 247.41242,630.18259 L 241.90041,627.23636 C 242.71095,625.71995 243.37054,624.12757 243.86966,622.48217 L 249.85054,624.29645 M 243.87282,635.47998 C 242.52230,637.12558 241.01337,638.63452 239.36776,639.98503 L 235.40280,635.15372 C 236.73195,634.06292 237.95070,632.84416 239.04150,631.51502 L 243.87282,635.47998 M 234.07037,643.52463 C 232.19291,644.52816 230.22140,645.34479 228.18423,645.96275 L 226.36995,639.98188 C 228.01536,639.48275 229.60773,638.82316 231.12414,638.01263 L 234.07037,643.52463 M 221.93554,647.20570 C 219.81696,647.41436 217.68300,647.41436 215.56442,647.20570 L 216.17703,640.98579 C 217.88819,641.15433 219.61177,641.15433 221.32293,640.98579 L 221.93554,647.20570 M 209.31573,645.96275 C 207.27857,645.34479 205.30705,644.52816 203.42959,643.52463 L 206.37582,638.01263 C 207.89223,638.82316 209.48461,639.48275 211.13001,639.98188 L 209.31573,645.96275 M 228.18423,583.76163 C 230.22140,584.37960 232.19291,585.19623 234.07037,586.19975 L 231.12414,591.71176 C 229.60773,590.90122 228.01536,590.24164 226.36995,589.74251 L 228.18423,583.76163 M 239.36776,589.73935 C 241.01337,591.08987 242.52230,592.59880 243.87282,594.24441 L 239.04150,598.20937 C 237.95070,596.88022 236.73195,595.66147 235.40280,594.57067 L 239.36776,589.73935 M 247.41242,599.54180 C 248.41595,601.41926 249.23257,603.39078 249.85054,605.42794 L 243.86966,607.24222 C 243.37054,605.59682 242.71095,604.00444 241.90041,602.48803 L 247.41242,599.54180 z "
       transform="matrix(2.400000,0.000000,0.000000,2.400000,-300.0000,-1325.669)"
       style="fill:#f9d616;fill-opacity:1.0000000;fill-rule:evenodd;stroke:none;stroke-width:0.31250000;stroke-linecap:butt;stroke-linejoin:miter;stroke-miterlimit:4.0000000;stroke-opacity:1.0000000"
       id="path6107" />
    <g
       transform="matrix(2.400000,0.000000,0.000000,2.400000,-299.3956,-1325.062)"
       id="g14254">
      <path
         d="M 241.65927,645.80341 L 244.69762,642.24025 C 246.29689,643.78788 248.45037,645.31349 250.01225,646.69965 C 251.57413,648.08580 252.77081,649.23816 253.73945,650.81285 C 255.15910,653.12072 253.56493,655.73450 251.35436,654.20030 C 250.15892,653.37063 249.40778,651.13089 247.57645,649.27748 C 246.22005,648.12278 245.15135,646.91227 241.74213,646.32821 C 241.57845,646.30017 241.53057,645.95434 241.65927,645.80341 z "
         style="fill:#f9d616;fill-opacity:1.0000000;fill-rule:evenodd;stroke:none;stroke-width:0.25000000pt;stroke-linecap:butt;stroke-linejoin:miter;stroke-opacity:1.0000000"
         id="path12385" />
      <path
         d="M 246.45448 644.77716 A 0.57412565 0.57412565 0 1 1  245.30623,644.77716 A 0.57412565 0.57412565 0 1 1  246.45448 644.77716 z"
         transform="matrix(0.730769,0.000000,0.000000,0.730769,66.06607,173.5497)"
         style="fill:#000000;fill-opacity:1.0000000;fill-rule:nonzero;stroke:none;stroke-width:0.62500000;stroke-linecap:butt;stroke-linejoin:miter;stroke-miterlimit:4.0000000;stroke-opacity:1.0000000"
         id="path13009" />
      <path
         d="M 246.45448 644.77716 A 0.57412565 0.57412565 0 1 1  245.30623,644.77716 A 0.57412565 0.57412565 0 1 1  246.45448 644.77716 z"
         transform="matrix(0.730769,0.000000,0.000000,0.730769,69.15756,176.2437)"
         style="fill:#000000;fill-opacity:1.0000000;fill-rule:nonzero;stroke:none;stroke-width:0.62500000;stroke-linecap:butt;stroke-linejoin:miter;stroke-miterlimit:4.0000000;stroke-opacity:1.0000000"
         id="path13631" />
      <path
         d="M 246.45448 644.77716 A 0.57412565 0.57412565 0 1 1  245.30623,644.77716 A 0.57412565 0.57412565 0 1 1  246.45448 644.77716 z"
         transform="matrix(0.730769,0.000000,0.000000,0.730769,71.87362,179.0040)"
         style="fill:#000000;fill-opacity:1.0000000;fill-rule:nonzero;stroke:none;stroke-width:0.62500000;stroke-linecap:butt;stroke-linejoin:miter;stroke-miterlimit:4.0000000;stroke-opacity:1.0000000"
         id="path13632" />
    </g>
    <path
       d="M 221.87500,585.18750 L 221.28125,590.75000 C 233.53041,592.03467 243.12500,602.28744 243.12500,614.87500 C 243.12501,628.32998 232.20500,639.25000 218.75000,639.25000 C 212.88356,639.24999 207.58265,637.08179 203.37500,633.62500 L 199.81250,637.96875 C 204.99009,642.21974 211.53310,644.87501 218.75000,644.87500 C 235.31000,644.87500 248.75000,631.43502 248.75000,614.87500 C 248.75000,599.38714 236.94456,586.77467 221.87500,585.18750 z "
       transform="matrix(2.400000,0.000000,0.000000,2.400000,-300.0000,-1325.669)"
       style="fill:#f9d616;fill-opacity:1.0000000;fill-rule:nonzero;stroke:none;stroke-width:1.2500000;stroke-linecap:butt;stroke-linejoin:miter;stroke-miterlimit:4.0000000;stroke-opacity:1.0000000"
       id="path9224" />
    <path
       d="M 221.40024,634.79752 L 229.83663,639.78600 L 231.67062,646.90191 L 241.35413,646.16831 L 245.60901,641.17984 L 229.83663,630.24921 L 221.40024,634.79752 z "
       transform="matrix(2.400000,0.000000,0.000000,2.400000,-300.0000,-1325.669)"
       style="fill:#000000;fill-opacity:1.0000000;fill-rule:evenodd;stroke:none;stroke-width:0.25000000pt;stroke-linecap:butt;stroke-linejoin:miter;stroke-opacity:1.0000000"
       id="path11141" />
    <path
       d="M 241.52635,645.56600 C 230.67833,638.35183 223.78016,634.45634 213.38388,628.54516 C 209.29989,626.22306 202.95771,620.38603 207.96050,610.62006 C 208.27544,617.03141 233.61414,634.62971 244.32096,642.28158 L 241.52635,645.56600 z "
       transform="matrix(2.400000,0.000000,0.000000,2.400000,-300.0000,-1325.669)"
       style="fill:#f9d616;fill-opacity:1.0000000;fill-rule:evenodd;stroke:none;stroke-width:0.25000000pt;stroke-linecap:butt;stroke-linejoin:miter;stroke-opacity:1.0000000"
       id="path9277" />
    <path
       d="M 215.03567,622.16187 C 223.38807,630.03306 233.90652,636.45428 243.29067,643.55165"
       transform="matrix(2.400000,0.000000,0.000000,2.400000,-300.0000,-1325.669)"
       style="fill:none;fill-opacity:0.75000000;fill-rule:evenodd;stroke:#000000;stroke-width:0.62500000;stroke-linecap:round;stroke-linejoin:miter;stroke-miterlimit:4.0000000;stroke-opacity:1.0000000"
       id="path11763" />
  </g>
</svg>
