<?xml version="1.0" encoding="UTF-8" standalone="no"?>
<svg xmlns:svg="http://www.w3.org/2000/svg" xmlns="http://www.w3.org/2000/svg" version="1.0" width="450" height="300" id="svg2394">
  <defs id="defs3"/>
  <rect width="1125" height="750" x="125" y="-72.637817" transform="matrix(0.4,0,0,0.2,-50,14.52756)" fill="black" fill-opacity="1" stroke="none" stroke-width="25" stroke-linecap="butt" stroke-linejoin="miter" stroke-miterlimit="4" stroke-opacity="1"/>
  <rect width="1125" height="250" x="125" y="427.36218" transform="matrix(0.4,0,0,0.6,-50,-106.4173)" fill="#339e35" fill-opacity="1" stroke="none" stroke-width="25" stroke-linecap="butt" stroke-linejoin="miter" stroke-miterlimit="4" stroke-opacity="1"/>
  <rect width="1125" height="500" x="125" y="177.36218" transform="matrix(0.4,0,0,0.2,-50,64.52756)" fill="#ce1126" fill-opacity="1" stroke="none" stroke-width="25" stroke-linecap="butt" stroke-linejoin="miter" stroke-miterlimit="4" stroke-opacity="1"/>
  <path d="M 225,49.5 C 196.91609,49.5 173.0,67.44 164.1875,92.5 L 285.8125,92.5 C 276.9,67.44 253.0,49.49 225,49.5 z " fill="#ce1126" fill-opacity="1" stroke="none" stroke-width="25" stroke-linecap="butt" stroke-linejoin="miter" stroke-miterlimit="4" stroke-opacity="1"/>
  <path d="M 225,12 C 222.83333,12 222,15.25 222,18.5 C 222,26.333332 222.9,30.42 225,42 C 227.0,30.42 228,26.333332 228,18.5 C 228,15.25 227.16667,12 225,12 z M 216.1,12.37 C 213.9,12.56 213.4,15.88 213.6,19.12 C 214.3,26.92 215.6,30.93 218.7,42.28 C 219.7,30.57 220.3,26.39 219.6,18.59 C 219.3,15.35 218.2,12.18 216.1,12.37 z M 233.8,12.37 C 231.7,12.18 230.6,15.35 230.3,18.59 C 229.6,26.39 230.2,30.57 231.2,42.28 C 234.3,30.93 235.6,26.92 236.3,19.12 C 236.5,15.88 236.0,12.56 233.8,12.37 z M 207.6,13.53 C 207.5,13.52 207.4,13.53 207.2,13.56 C 205.1,13.93 204.9,17.26 205.4,20.46 C 206.8,28.18 208.4,32.05 212.5,43.09375 C 212.5,31.343749 212.7,27.15 211.3,19.43 C 210.8,16.43 209.5,13.56 207.6,13.53 z M 242.3,13.53 C 240.4,13.56 239.1,16.43 238.6,19.43 C 237.2,27.15 237.5,31.34375 237.5,43.09375 C 241.5,32.05 243.1,28.18 244.5,20.46 C 245.0,17.26 244.8,13.93 242.7,13.56 C 242.5,13.53 242.4,13.52 242.3,13.53 z M 199,15.40625 C 198.8,15.41 198.7,15.43 198.5,15.46 C 196.5,16.02 196.5,19.39 197.3,22.53 C 199.4,30.09 201.4,33.81 206.3,44.46 C 205.3,32.76 205.2,28.53 203.1,20.96 C 202.3,18.02 200.9,15.27 199,15.40625 z M 251,15.40625 C 249.0,15.27 247.6,18.02 246.8,20.96 C 244.7,28.53 244.6,32.76 243.6,44.46 C 248.5,33.81 250.5,30.09 252.6,22.53 C 253.4,19.39 253.4,16.02 251.4,15.46 C 251.2,15.43 251.1,15.41 251,15.40625 z M 190.8,18.03 C 190.6,18.02 190.3,18.06 190.1,18.15 C 188.0,18.89 188.4,22.22 189.5,25.28 C 192.2,32.64 194.5,36.16795 200.3,46.34 C 198.3,34.77 197.8,30.57 195.1,23.21 C 194.1,20.54 192.6,18.10 190.8,18.03 z M 259.1,18.03 C 257.3,18.10 255.8,20.54 254.8,23.21 C 252.1,30.57 251.6,34.77 249.6,46.34 C 255.4,36.16 257.7,32.64 260.4,25.28 C 261.5,22.22 261.9,18.89 259.8,18.15 C 259.6,18.06 259.3,18.02 259.1,18.03 z M 182.6,21.37 C 182.3,21.38 182.1,21.44 181.9,21.56 C 179.9,22.47 180.5,25.77 181.9,28.71 C 185.2,35.81 187.8,39.12 194.5625,48.75 C 191.5,37.40 190.6,33.28 187.3,26.18 C 186.1,23.61 184.3,21.29 182.6,21.37 z M 267.3,21.37 C 265.6,21.29 263.8,23.61 262.6,26.18 C 259.3,33.28 258.4,37.40 255.4375,48.75 C 262.1,39.12 264.7,35.81 268.0,28.71 C 269.4,25.77 270.0,22.47 268.0,21.56 C 267.8,21.44 267.6,21.38 267.3,21.37 z M 174.7,25.40 C 174.4,25.43 174.2,25.52 174,25.65625 C 172.1,26.73 173.0,29.96 174.6,32.78 C 178.5,39.56 181.4,42.65 189,51.65625 C 184.9,40.61 183.7,36.56 179.8,29.78 C 178.4,27.31 176.4,25.17 174.7,25.40 z M 274.9,25.40 C 273.2,25.49 271.4,27.49 270.1,29.78 C 266.2,36.56 265.0,40.61 261,51.65625 C 268.5,42.65 271.4,39.56 275.3,32.78 C 276.9,29.96 277.8,26.73 276,25.65625 C 275.6,25.45 275.2,25.38 274.9,25.40 z M 167.5,30.09 C 167.1,30.10 166.8,30.20 166.5,30.4375 C 164.7,31.68 165.9,34.83 167.78125,37.5 C 172.2,43.91 175.3,46.72 183.6,55.03 C 178.7,44.38 177.1,40.47 172.6,34.06 C 171.1,31.89 169.1,30.04 167.5,30.09 z M 282.4,30.09 C 280.8,30.04 278.8,31.89 277.3,34.06 C 272.8,40.47 271.2,44.38 266.3,55.03 C 274.6,46.72 277.7,43.91 282.21875,37.5 C 284.0,34.83 285.2,31.68 283.5,30.4375 C 283.1,30.20 282.8,30.10 282.4,30.09 z M 160.4,35.40 C 160.0,35.45 159.7,35.61 159.4,35.87 C 157.7,37.26 159.2,40.29 161.3,42.78 C 166.3,48.78 169.7,51.29 178.7,58.84 C 172.8,48.66 170.9,44.90 165.9,38.90 C 164.2,36.88 162.0,35.21 160.4,35.40 z M 289.1,35.40 C 287.5,35.48 285.6,37.03 284.0,38.90 C 279.0,44.90 277.1,48.66 271.2,58.84 C 280.2,51.29 283.6,48.78 288.6,42.78 C 290.7,40.29 292.2,37.26 290.5,35.87 C 290.1,35.52 289.6,35.38 289.1,35.40 z M 154.2,41.28 C 153.7,41.30 153.2,41.49 152.8,41.87 C 151.3,43.40 153.0,46.29 155.3,48.59 C 160.8,54.13 164.4,56.35 174.0,63.09 C 167.3,53.46 165.1,49.88 159.5,44.34 C 157.8,42.62 155.8,41.22 154.2,41.28 z M 295.7,41.28 C 294.1,41.22 292.1,42.62 290.4,44.34 C 284.8,49.88 282.6,53.46 275.9,63.09 C 285.5,56.35 289.1,54.13 294.6,48.59 C 296.9,46.29 298.6,43.40 297.1,41.87 C 296.7,41.49 296.2,41.30 295.7,41.28 z M 148.5,47.71 C 147.9,47.70 147.3,47.91 146.8,48.43 C 145.4,50.09 147.4,52.81 149.9,54.90 C 155.9,59.94 159.6,61.84 169.8,67.71 C 162.2,58.71 159.7,55.34 153.7,50.31 C 152.0,48.87 150.1,47.74 148.5,47.71 z M 301.4,47.71 C 299.8,47.74 297.9,48.87 296.2,50.31 C 290.2,55.34 287.7,58.71 280.1,67.71 C 290.3,61.84 294.0,59.94 300.0,54.90 C 302.5,52.81 304.5,50.09 303.1,48.43 C 302.6,47.91 302.0,47.70 301.4,47.71 z M 143.0,54.62 C 142.4,54.67 141.8,54.94 141.4375,55.5 C 140.1,57.27 142.4,59.82 145.0,61.68 C 151.4,66.18 155.3,67.72 166.0,72.68 C 157.7,64.37 154.9,61.27 148.5,56.78125 C 146.6,55.49 144.6,54.52 143.0,54.62 z M 306.4,54.62 C 305.0,54.70 303.1,55.61 301.5,56.78125 C 295.0,61.27 292.2,64.37 283.9,72.68 C 294.6,67.72 298.5,66.18 304.9,61.68 C 307.5,59.82 309.8,57.27 308.5625,55.5 C 308.0,54.83 307.3,54.57 306.4,54.62 z M 138.6,61.96 C 137.7,61.99 137.0,62.29 136.65625,63 C 135.5,64.87 137.9,67.21 140.7,68.84 C 147.5,72.76 151.6,73.98 162.65625,78 C 153.6,70.44 150.5,67.57 143.7,63.65 C 142.0,62.64 140.1,61.91 138.6,61.96 z M 311.3,61.96 C 309.8,61.91 307.9,62.64 306.2,63.65 C 299.4,67.57 296.3,70.44 287.34375,78 C 298.3,73.98 302.4,72.76 309.2,68.84 C 312.0,67.21 314.4,64.87 313.34375,63 C 312.9,62.29 312.2,61.99 311.3,61.96 z M 135.3,69.65 C 134.0,69.57 133.0,69.92 132.5,70.90 C 131.6,72.86 134.2,74.97 137.1,76.34 C 144.2,79.65 148.4,80.52 159.7,83.56 C 150.1,76.82 146.8,74.21 139.7,70.90 C 138.2,70.21 136.6,69.73 135.3,69.65 z M 314.6,69.65 C 313.3,69.73 311.7,70.21 310.2,70.90 C 303.1,74.21 299.8,76.82 290.2,83.56 C 301.5,80.52 305.7,79.65 312.8,76.34 C 315.7,74.97 318.3,72.86 317.4,70.90 C 316.9,69.92 315.9,69.57 314.6,69.65 z M 131.8,77.62 C 130.5,77.65 129.5,78.10 129.1,79.12 C 128.4,81.16 131.1,83.04 134.2,84.15 C 141.5,86.83 145.7,87.33 157.3,89.37 C 147.1,83.49 143.6,81.21 136.2,78.53 C 134.7,77.97 133.1,77.59 131.8,77.62 z M 318.1,77.62 C 316.8,77.59 315.2,77.97 313.7,78.53 C 306.3,81.21 302.83205,83.5 292.6,89.37 C 304.2,87.33 308.4,86.83 315.7,84.15 C 318.8,83.04 321.5,81.16 320.8,79.12 C 320.4,78.10 319.4,77.65 318.1,77.62 z M 130.0,85.84 C 128.2,85.81 126.8,86.28 126.4,87.59 C 125.9,89.68 128.8,91.34 131.9,92.18 C 132.4,92.30 132.8,92.39 133.25,92.5 L 149.3125,92.5 C 143.0,89.56 139.4,87.94 133.5,86.37 C 132.3,86.05 131.1,85.86 130.0,85.84 z M 319.9,85.84 C 318.8,85.86 317.6,86.05 316.4,86.37 C 310.5,87.94 306.9,89.56 300.6875,92.5 L 316.75,92.5 C 317.1,92.39 317.5,92.30 318.0,92.18 C 321.1,91.34 324.0,89.68 323.5,87.59 C 323.1,86.28 321.7,85.81 319.9,85.84 z " fill="#ce1126" fill-opacity="1" fill-rule="evenodd" stroke="none" stroke-width="0.25pt" stroke-linecap="butt" stroke-linejoin="miter" stroke-opacity="1"/>
</svg>
