<?xml version="1.0" encoding="UTF-8" standalone="no"?>
<svg xmlns="http://www.w3.org/2000/svg" xmlns:xlink="http://www.w3.org/1999/xlink" width="1008" height="504" viewBox="0 0 252 126">

<rect width="252" height="126" fill="#319208"/>
<rect id="yellow_stripes" width="252" height="90" y="18" fill="#FFD200"/>
<rect id="red_stripes" width="252" height="54" y="36" fill="#DE2010"/>
<rect id="black_stripe" width="252" height="18" y="54" fill="#000"/>

<path d="M4.582575694955840006588047193728,0 l 84,63 l -84,63 L 0,126 v-126 z" fill="#000"/> <comment>value has to be sqrt(21)</comment>
<path d="M0,0 L 84,63 L 0,126" fill="#FFF"/>

<g id="star">

<g id="upper_star_part" fill="#DE2010" transform="translate(34,63) scale(32)">
  <g>
    <polygon id="triangle_ur" points="0,0 0,1 .75,1" transform="translate(0,-1) rotate(26.26769855)"/>
    <use id="triangle_ul" xlink:href="#triangle_ur" transform="scale(-1,1)"/>
    <polygon id="triangle2_ur" points="0,0 0,1 .75,1" transform="translate(0,-1) rotate(19.57996077)"/>
    <use id="triangle2_ul" xlink:href="#triangle2_ur" transform="scale(-1,1)"/>
  </g>
  <use xlink:href="#triangle_ur" transform="rotate(72)"/>
  <use xlink:href="#triangle_ul" transform="rotate(-72)"/>
  <use xlink:href="#triangle2_ur" transform="rotate(72)"/>
  <use xlink:href="#triangle2_ul" transform="rotate(-72)"/>
</g>

<g id="lower_star_part" fill="#DE2010" transform="translate(34,63) scale(27.5)">
  <g id="cone_l">
    <polygon id="triangle_l" points="0,0 0,1 .5,1" transform="translate(0,-1) rotate(24.22482095)"/>
    <use xlink:href="#triangle_l" transform="scale(-1,1)"/>
  </g>
  <use xlink:href="#cone_l" transform="rotate(144)"/>
  <use xlink:href="#cone_l" transform="rotate(-144)"/>
</g>

</g>

<g id="bird">
  <path d="M 28.63,55.10 C 30.61,59.41 31.10,59.69 36.04,61.39 C 40.98,63.08 54.94,64.69 56.32,64.84 C 55.42,63.94 39.69,52.30 36.46,49.97 C 33.24,47.64 32.34,46.58 32.34,46.58 C 32.34,46.58 29.42,41.34 28.42,39.81 C 27.41,38.27 25.56,36.10 23.13,36.10 C 20.69,36.10 19.21,37.53 18.50,40.07 C 18.11,40.18 16.03,41.45 16.10,42.75 C 16.70,42.68 20.48,41.62 21.78,45.89 C 23.09,50.16 23.16,57.15 21.82,60.61 C 20.48,64.07 18.40,66.68 18.40,69.71 C 18.40,70.14 18.68,70.98 19.38,70.98 C 19.63,72.33 21.61,81.89 21.61,81.89 L 49.77,81.89 L 54.24,64.60" fill="#ffc618" overflow="visible"/>
 <g fill="none" stroke="black" stroke-width="0.211" overflow="visible">
  <path d="M 28.63,55.10 C 30.61,59.41 31.10,59.69 36.04,61.39 C 40.98,63.08 54.94,64.69 56.32,64.84 C 55.42,63.94 39.69,52.30 36.46,49.97 C 33.24,47.64 32.34,46.58 32.34,46.58 C 32.34,46.58 29.42,41.34 28.42,39.81 C 27.41,38.27 25.56,36.10 23.13,36.10 C 20.69,36.10 19.21,37.53 18.50,40.07 C 18.11,40.18 16.03,41.45 16.10,42.75 C 16.70,42.68 20.48,41.62 21.78,45.89 C 23.09,50.16 23.16,57.15 21.82,60.61 C 20.48,64.07 18.40,66.68 18.40,69.71 C 18.40,70.14 18.68,70.98 19.38,70.98 C 19.63,72.33 21.61,81.89 21.61,81.89 L 49.77,81.89 L 54.24,64.60"/>
  <path d="M 19.38,70.98 C 19.38,70.98 25.38,70.63 27.01,70.63 C 28.63,70.63 43.74,70.65 52.17,72.60"/>
  <path d="M 21.50,70.87 C 21.50,70.87 20.90,70.14 21.29,68.69 C 21.68,67.24 25.91,63.50 25.91,58.21"/>
  <path d="M 25.14,70.63 C 25.14,70.63 24.64,68.27 30.04,66.26 C 31.56,65.80 35.90,63.36 36.04,61.39"/>
  <path d="M 29.47,66.48 C 29.47,66.48 42.71,66.54 53.19,68.66"/>
  <path d="M 32.79,64.90 C 32.79,64.90 37.34,65.06 38.08,64.84 C 38.82,64.63 40.13,64.08 40.65,62.53"/>
  <path d="M 35.49,64.95 C 35.49,64.95 37.92,63.69 38.40,62.04"/>
  <path d="M 28.14,81.89 C 28.14,81.89 27.10,74.67 26.88,70.63 L 29.60,73.23 L 32.48,70.71 L 34.95,73.35 L 37.81,70.92 L 40.28,73.70 L 43.11,71.30 L 45.36,73.91 L 48.18,71.87 L 51.54,75.06"/>
  <path d="M 50.95,77.34 C 40.87,75.90 27.38,75.99 27.38,75.99"/>
  <path d="M 22.69,51.05 C 22.69,51.05 30.89,47.13 32.34,46.58"/>
 </g>
 <g transform="matrix(0.211738,0,0,0.211738,16,36)" fill="none" stroke="black" overflow="visible">
  <polyline points="52.4873047,177.0859375 65.50,188.9 77.26,177.1 89.16,189.4 102.0,178.0 113.8,190.5 127.1,179.5 138.0,192.2 151.3,182.0 165.2,194.4"/>
  <circle cx="89.425293" cy="154.58398" r="5.1665039"/>
  <circle cx="111.23682" cy="156.04688" r="5.1665039"/>
  <circle cx="30.049805" cy="16.5" r="4"/>
 </g>
</g>

</svg>
