<?xml version="1.0" encoding="UTF-8" standalone="no"?>
<svg xmlns:svg="http://www.w3.org/2000/svg" xmlns="http://www.w3.org/2000/svg" version="1.0" width="210mm" height="140mm" id="svg562">
  <defs id="defs564"/>
  <rect width="744.09448" height="496.06299" x="0" y="-1.9999999e-05" font-size="12px" fill="#3a7dce" fill-opacity="1" fill-rule="evenodd" stroke-width="1pt"/>
  <path d="M 183.2,238.5 C 179.2,230.4 179.2,230.4 179.2,222.3 C 177.2,222.3 176.8,222.7 175.6,222.3 C 174.4,222.0 174.0,229.8 170.2,228.3 C 169.6,227.5 172.9,221.9 169.3,219.6 C 168.1,218.8 169.6,214.2 169.1,212.1 C 169.1,212.1 164.4,214.5 161,206.109 C 159.2,203.8 156.9,208.1 156.9,208.1 C 156.9,208.1 157.9,210.7 156.1,211.3 C 153.5,209.4 151.6,210.4 148.3,207.8 C 145.0,205.2 149.0,202.2 142.7,200.0 C 146.8,189.8 146.8,191.9 156.9,187.8 C 150.8,183.8 150.8,183.8 146.8,177.7 C 140.7,175.7 138.7,173.6 132.6,169.6 C 124.5,159.4 120.4,139.2 120.4,125.0 C 125.5,120.2 132.6,141.2 142.7,147.3 C 142.7,147.3 156.9,153.4 156.9,153.4 C 165.0,157.4 167.0,161.5 173.1,165.5 C 173.1,165.5 191.4,171.6 191.4,171.6 C 199.5,177.7 203.5,185.8 209.6,187.8 C 216.2,187.8 217.5,184.0 219.6,183.8 C 231.5,183.2 237.6,181.6 239.9,178.1 C 242.3,175.2 248.1,179.7 264.3,173.6 C 264.3,173.6 262.3,165.5 262.3,165.5 C 262.3,165.5 266.6,162.0 272.4,163.5 C 272.3,159.8 271.9,149.9 277.679,145.5 C 274.1,141.8 276.5,139.2 276.5,139.2 C 276.5,139.2 279.7,136.1 280.1,134.4 C 278.4,125.5 281.6,125.4 282.3,122.7 C 283.0,120.1 279.5,121.0 280.5,117.4 C 281.5,113.8 287.4,112.9 288.1,109.9 C 288.9,106.9 286.5,105.4 286.6,104.7 C 287.9,101.9 286.8,95.20 286.6,92.60 C 297.5,89.68 301.1,80.82 304.9,84.49 C 306.9,72.33 308.9,68.28 321.1,68.28 C 322.8,64.54 316.6,61.37 319.0,60.17 C 323.1,59.66 326.2,59.92 331.0,66.06 C 332.5,68.01 332.7,63.21 334.2,62.70 C 335.8,62.20 339.4,62.19 339.9,59.79 C 340.5,57.32 341.3,54.09 343.4,50.03 C 345.1,46.74 346.4,51.30 347.9,57.76 C 356.5,58.08 375.8,59.98 383.9,62.20 C 390.0,63.78 394.0,60.61 399.9,59.98 C 404.2,64.29 408.2,61.06 410.5,70.24 C 413.7,75.20 419.0,70.68 420.1,72.14 C 426.965,90.83 450.2,78.22 452.0,78.54 C 455.0,78.54 458.6,86.89 461.0,86.68 C 464.8,86.04 463.7,83.45 467.0,84.49 C 466.1,91.52 473.5,99.63 473.5,104.8 C 473.5,104.8 475.3,105.7 477.0,104.2 C 478.7,102.6 480.2,98.65 481.7,98.74 C 485.3,99.2541 486.7,99.70 490.8,100.4 C 501.8,104.1 507.4,105.0 511.6,106.9 C 513.6,110.5 515.5,112.4 519.6,111.7 C 522.943,114 520.5,116.9 522.4,117.1 C 526.5,115.0 527.8,112.8 531.9,114.8 C 535.9,116.9 540.0,120.9 542.0,125.0 C 542.0,127.0 540.0,135.1 542.0,147.3 C 543.0,151.3 543.5,154.5 547.9,161.5 C 546.7,168.6 553.3,180.7 553.3,183.7 C 553.3,187.8 550.1,189.8 548.1,193.9 C 556.2,200.0 548.1,210.1 544.0,216.2 C 574.4,222.3 560.2,234.4 584.6,228.4 C 578.5,242.5 580.6,241.4 586.7,255.6 C 574.6,263.7 586.5,266.2 578.4,276.3 C 577.9,276.9 583.2,285.1 590.6,285.1 C 588.6,301.3 582.5,295.2 584.6,319.6 C 568.6,319.2 575.1,337.7 564.3,335.8 C 564.9,347.4 570.4,348.4 568.4,360.1 C 560.2,362.1 560.2,362.1 556.2,368.2 C 556.2,368.2 550.1,366.2 550.1,366.2 C 548.1,376.3 544.0,378.3 550.1,388.5 C 550.1,388.5 542.3,388.7 540.0,388.5 C 539.8,392.0 543.5,392.9 544.0,396.6 C 543.7,398.0 532.5,404.4 523.8,404.7 C 521.5,409.7 529.8,415.0 529.3,417.6 C 519.8,419.4 515.7,431.0 515.7,431.0 C 515.7,431.0 520.5,433.0 519.7,435.1 C 517.1,433.2 515.7,433.1 511.6,433.1 C 509.6,433.6 504.6,432.9 499.9,440.9 C 494.7,442.7 492.2,442.0 488.3,447.2 C 486.6,442.3 484.0,447.3 481.0,449.2 C 477.9,451.2 473.82,456 473.2,455.7 C 473.3,454.4 475.1,449.3 475.1,449.3 C 475.1,449.3 465.0,451.3 465.0,451.3 C 465.0,451.3 464.5,451.4 463.7,451.4 C 462.9,451.5 463.1,445.5 461.2,445.7 C 459.3,446.0 453.8,453.3 451.9,453.5 C 450.1,453.7 449.5,451.2 447.9,451.4 C 446.3,451.6 443.1,459.1 442.0,459.3 C 440.8,459.5 436.3,454.8 432.4,455.4 C 412.5,462.5 409.3,441.6 406.2,453.3 C 402.0,451.1 402.7,452.4 398.5,453.5 C 395.8,454.2 395.5,449.9 393.1,450.0 C 388.3,450.1 388.6,454.7 385.9,453.3 C 383.8,443.8 370.8,445.5 369.5,441.5 C 368.5,437.3 375.2,437.3 377.3,434.4 C 379.0,430.3 375.6,428.7 382.3,424.7 C 391.0,418.8 386.0,416.6 387.5,412.2 C 390.2,405.8 390.2,404.2 388.0,398.6 C 388.0,398.6 381.2,380.4 379.9,380.4 C 375.8,379.2 375.8,387.1 369.8,389.2 C 357.7,393.3 336.2,379.0 332.5,379.0 C 329.1,379.0 313.2,382.7 313.8,374.8 C 311.4,382.5 302.7,376.6 302.2,376.6 C 294.1,376.6 297.2,382.9 291.796,382.7 C 289.3,381.8 264.3,380.4 264.3,380.4 C 264.3,380.4 264.3,384.4 264.3,384.4 C 264.3,384.4 248.1,376.3 248.1,376.3 C 248.1,376.3 233.9,372.3 233.9,372.3 C 221.8,368.2 227.8,358.1 207.6,364.2 C 207.6,364.2 207.6,352.0 207.6,352.0 C 207.6,352.0 197.4,352.0 197.4,352.0 C 201.5,327.7 197.4,339.8 195.4,317.5 C 195.4,317.5 187.3,319.6 187.3,319.6 C 179.2,308.6 198.6,310.7 181.2,303.3 C 181.2,303.3 181.585,291.3 177.2,295.2 C 176.3,295.7 179.2,301.3 179.2,301.3 C 163.0,299.3 158.9,295.2 158.9,279.0 C 158.9,279.0 172.3,280.9 171.1,279.0 C 169.2,276.0 166.7,256.2 167.2,254.9 C 167.0,252.2 179.6,245.5 177.1,239.1 C 178.7,238.6 183.2,238.5 183.2,238.5" id="selection_to_path" fill="white" fill-opacity="1" stroke="none" stroke-width="0.1" stroke-linecap="round" stroke-linejoin="round" stroke-dasharray="none"/>
  <path d="M 595.5,297.5 C 594.9,298.9 595.0,300.2 595.6,301.1 C 596.7,299.5 595.8,298.7 595.5,297.5 z " font-size="12px" fill="none" fill-rule="evenodd" stroke="white" stroke-width="2.026pt" stroke-linecap="round" stroke-linejoin="round"/>
  <path d="M 119.5,148.1 C 119.5,148.1 116.4,147.7 117.1,150.4 C 118.1,148.4 119.4,148.2 119.5,148.1 z " font-size="12px" fill="none" fill-rule="evenodd" stroke="white" stroke-width="2.533" stroke-linejoin="round"/>
  <path d="M 120.2,141.8 C 118.4,141.8 116.4,141.5 117.1,144.2 C 118.1,142.1 120.1,141.9 120.2,141.8 z " font-size="12px" fill="none" fill-rule="evenodd" stroke="white" stroke-width="2.533" stroke-linejoin="round"/>
  <path d="M 131.8,178.1 C 131.8,178.1 134.5,177.9 133.8,180.6 C 132.8,178.5 131.9,178.2 131.8,178.1 z " font-size="12px" fill="none" fill-rule="evenodd" stroke="white" stroke-width="2.533" stroke-linejoin="round"/>
</svg>
