<?xml version="1.0" encoding="UTF-8" standalone="no"?>
<!-- Created with Sodipodi ("http://www.sodipodi.com/") -->
<svg
   xmlns:dc="http://purl.org/dc/elements/1.1/"
   xmlns:cc="http://web.resource.org/cc/"
   xmlns:rdf="http://www.w3.org/1999/02/22-rdf-syntax-ns#"
   xmlns:svg="http://www.w3.org/2000/svg"
   xmlns="http://www.w3.org/2000/svg"
   xmlns:sodipodi="http://sodipodi.sourceforge.net/DTD/sodipodi-0.dtd"
   xmlns:inkscape="http://www.inkscape.org/namespaces/inkscape"
   height="500"
   id="svg697"
   sodipodi:docbase="C:\Documents and Settings\Owner\Desktop"
   sodipodi:docname="Flag_of_Christmas_Island.svg"
   sodipodi:version="0.32"
   width="1000"
   inkscape:version="0.44"
   version="1.0">
  <defs
     id="defs699" />
  <sodipodi:namedview
     id="base"
     showgrid="true"
     snaptogrid="false"
     inkscape:zoom="0.67027778"
     inkscape:cx="496.06299"
     inkscape:cy="248.03149"
     inkscape:window-width="853"
     inkscape:window-height="573"
     inkscape:window-x="22"
     inkscape:window-y="31"
     inkscape:current-layer="g4031" />
  <g
     id="g4031"
     transform="matrix(1.007936,0,0,1.007936,0,3.844975e-5)">
    <rect
       y="0"
       x="0"
       width="992.12598"
       style="font-size:12px;fill:#0021ad;fill-opacity:1;fill-rule:evenodd;stroke-width:1pt"
       id="rect3447"
       height="496.06299" />
    <path
       style="font-size:12px;fill:#1c8a42;fill-opacity:1;fill-rule:evenodd;stroke:none;stroke-width:2.23796005pt;stroke-opacity:1"
       sodipodi:nodetypes="cccc"
       id="path3446"
       d="M 1.23596e-006,-3.8147e-005 L 992.126,496.063 L 991.558,0.36747 L 1.23596e-006,-3.8147e-005 z " />
    <path
       transform="matrix(2.566054,0,0,2.566053,2.886167,-1.874863)"
       style="fill:#ffc639;fill-opacity:1;fill-rule:evenodd;stroke:none;stroke-width:1pt;stroke-linecap:butt;stroke-linejoin:miter;stroke-opacity:1"
       sodipodi:type="arc"
       sodipodi:ry="34.921875"
       sodipodi:rx="34.921883"
       sodipodi:cy="97.283752"
       sodipodi:cx="192.57819"
       id="path733"
       d="M 227.50007 97.283752 A 34.921883 34.921875 0 1 1  157.6563,97.283752 A 34.921883 34.921875 0 1 1  227.50007 97.283752 z" />
    <path
       style="fill:#1c8a42;fill-opacity:1;fill-rule:evenodd;stroke:none;stroke-width:1pt;stroke-linecap:butt;stroke-linejoin:miter;stroke-opacity:1"
       sodipodi:nodetypes="cccccccccccccccccccccccccccccccccccccccccc"
       id="path732"
       d="M 441.342,207.775 C 447.472,216.193 456.757,230.287 464.231,226.611 C 470.056,226.63 473.069,227.043 473.859,230.917 C 487.611,233.261 510.725,227.458 525.097,208.734 C 525.097,208.734 526.312,208.891 525.889,201.772 C 525.969,198.667 530.13,199.294 530.23,200.295 C 530.812,201.837 530.707,202.994 531.487,203.032 C 533.265,202.437 535.683,198.47 537.71,195.952 C 538.265,194.841 537.963,193.666 538.092,192.273 C 539.16,189.639 541.828,190.214 542.393,191.59 C 542.898,192.478 542.906,193.163 543.411,194.051 C 546.119,195.855 551.012,194.171 551.394,194.171 C 551.874,191.965 553.294,192.172 553.294,192.172 C 555.098,191.773 554.394,191.934 555.575,192.552 C 554.53,204.462 557.918,204.987 557.638,211.102 C 557.759,217.917 555.575,219.855 555.575,222.465 C 556.268,225.636 566.327,225.746 562.786,228.436 C 559.675,230.099 562.803,233.211 558.115,234.416 C 544.502,241.33 541.892,247.26 541.892,247.26 C 541.892,247.26 538.472,253.722 538.092,253.722 C 535.806,258.033 532.916,255.677 531.313,257.781 C 530.51,260.422 529.608,266.269 531.213,269.31 C 532.014,273.488 531.113,275.767 530.109,279.948 C 529.207,288.666 525.752,289.987 525.353,293.053 C 523.748,296.321 525.69,311.676 524.171,311.676 C 514.03,311.876 506.258,309.736 502.248,308.936 C 506.158,292.094 504.644,277.286 504.644,275.767 C 503.64,263.719 486.589,266.652 483.985,265.049 C 481.819,264.589 480.459,262.827 479.697,262.066 C 477.289,261.813 476.387,261.258 473.979,261.007 C 472.775,261.607 473.501,262.231 470.818,263.055 C 464.022,263.875 461.015,257.13 461.015,257.13 C 461.347,254.856 445.732,257.593 437.243,255.623 C 433.762,257.563 432.243,263.3 429.389,263.984 C 429.308,265.762 424.703,262.523 423.774,260.773 C 423.575,255.682 428.211,253.426 428.211,253.426 C 431.886,250.842 434.072,250.417 435.843,248.634 C 436.731,244.2 436.282,240.922 438.172,237.589 C 439.771,235.046 442.129,236.239 443.728,235.097 C 445.452,233.958 446.176,226.501 444.593,224.457 C 444.593,224.457 437.711,218.248 437.332,217.869 C 435.091,211.446 439.948,207.31 441.342,207.775 z " />
    <path
       style="fill:#ffc639;fill-opacity:1;fill-rule:evenodd;stroke:none;stroke-width:1pt;stroke-linecap:butt;stroke-linejoin:miter;stroke-opacity:0.49685501"
       sodipodi:nodetypes="cccccccccccccccccccccscccccccccc"
       id="path3443"
       d="M 871.019,96.7873 C 866.958,80.721 830.619,46.1182 803.31,24.099 C 796.786,19.6572 792.537,22.3028 793.386,28.6357 C 796.789,34.3068 799.337,40.5422 802.742,46.2132 C 803.687,49.993 805.482,52.6386 806.427,56.4184 C 806.427,56.4184 806.709,62.9386 807.28,63.5056 C 815.783,72.8646 816.917,80.8006 816.917,80.8006 C 821.831,90.2516 826.177,97.1493 834.779,104.898 C 844.418,110.946 837.327,129.753 837.612,139.772 C 837.612,146.104 833.078,145.348 829.108,144.59 C 797.828,115.861 766.83,115.768 739.516,107.452 C 728.84,106.317 728.65,111.421 732.147,114.254 C 751.236,134.668 769.194,148.56 792.82,160.184 C 796.789,162.642 800.756,165.099 804.726,167.557 C 809.263,171.336 813.797,175.116 818.334,178.896 C 828.824,185.701 829.676,191.939 829.676,192.503 C 829.957,205.262 823.153,215.184 821.168,219.154 C 817.586,232.685 810.397,235.031 810.397,235.031 C 751.994,274.44 721.372,284.645 626.68,272.454 C 625.263,271.698 616.189,273.21 626.68,276.991 C 650.781,285.023 709.979,297.901 767.251,270.779 C 781.002,261.138 790.202,264.301 800.163,258.53 C 816.517,248.444 839.881,235.883 844.133,234.466 C 856.891,227.661 892.612,220.006 900.835,213.201 C 910.285,212.444 920.075,211.205 920.737,203.078 C 923.845,201.074 928.378,202.536 931.753,195.921 C 939.236,194.618 937.976,191.936 937.976,191.936 C 936.087,186.646 929.092,184.471 924.086,180.598 C 916.713,178.139 911.612,177.384 906.223,180.029 C 904.522,180.787 902.821,181.542 901.12,182.298 C 901.12,182.298 893.182,181.165 893.182,180.598 C 875.541,179.63 877.258,121.17 871.019,96.7873 z " />
    <path
       transform="matrix(2.007221,0.63038,-0.674064,1.877137,250.8724,-169.601)"
       style="fill:#1c8a42;fill-opacity:1;fill-rule:evenodd;stroke:none;stroke-width:1pt;stroke-linecap:butt;stroke-linejoin:miter;stroke-opacity:1"
       sodipodi:type="arc"
       sodipodi:ry="1.367188"
       sodipodi:rx="2.070312"
       sodipodi:cy="73.88562"
       sodipodi:cx="352.30469"
       id="path3445"
       d="M 354.375 73.88562 A 2.070312 1.367188 0 1 1  350.23438,73.88562 A 2.070312 1.367188 0 1 1  354.375 73.88562 z" />
    <polygon
       d="M 73.826341,356.02127 L 60.023805,343.10041 L 46.056385,355.84285 L 47.552578,336.99557 L 28.881593,334.02019 L 44.54985,323.43887 L 35.234933,306.98618 L 53.276738,312.63878 L 60.33221,295.098 L 67.161716,312.72799 L 85.274664,307.30768 L 75.749113,323.63932 L 91.280117,334.42109 L 72.572443,337.15632 L 73.826341,356.02127 z "
       inkscape:randomized="0"
       inkscape:rounded="0"
       inkscape:flatsided="false"
       transform="matrix(0.916571,0,0,0.91657,119.0079,-136.8826)"
       style="font-size:12px;fill:white;fill-opacity:1;fill-rule:evenodd;stroke-width:1pt"
       sodipodi:type="star"
       sodipodi:sides="7"
       sodipodi:r2="16.001135"
       sodipodi:r1="32.00227"
       sodipodi:cy="327.09961"
       sodipodi:cx="60.126606"
       sodipodi:arg2="1.577221"
       sodipodi:arg1="1.1284221"
       points="73.8263,356.021 60.0238,343.1 46.0564,355.843 47.5526,336.996 28.8816,334.02 44.5499,323.439 35.2349,306.986 53.2767,312.639 60.3322,295.098 67.1617,312.728 85.2747,307.308 75.7491,323.639 91.2801,334.421 72.5724,337.156 73.8263,356.021 "
       id="polygon3451" />
    <polygon
       d="M 159.75957,320.13498 L 146.82941,311.27788 L 134.24003,320.61301 L 138.66799,305.5787 L 125.89942,296.4902 L 141.56621,296.05559 L 146.26419,281.10346 L 151.51883,295.86916 L 167.19091,295.71673 L 154.77167,305.27705 L 159.75957,320.13498 z "
       inkscape:randomized="0"
       inkscape:rounded="0"
       inkscape:flatsided="false"
       transform="matrix(1.05522,0,0,1.02765,62.97,3.91022)"
       style="font-size:12px;fill:white;fill-opacity:1;fill-rule:evenodd;stroke-width:1pt"
       sodipodi:type="star"
       sodipodi:sides="5"
       sodipodi:r2="8.4676905"
       sodipodi:r1="21.712027"
       sodipodi:cy="302.81168"
       sodipodi:cx="146.67082"
       sodipodi:arg2="1.5520667"
       sodipodi:arg1="0.92374814"
       points="159.76,320.135 146.829,311.278 134.24,320.613 138.668,305.579 125.899,296.49 141.566,296.056 146.264,281.103 151.519,295.869 167.191,295.717 154.772,305.277 159.76,320.135 "
       id="polygon3461" />
    <polygon
       d="M 73.826341,356.02127 L 60.023805,343.10041 L 46.056385,355.84285 L 47.552578,336.99557 L 28.881593,334.02019 L 44.54985,323.43887 L 35.234933,306.98618 L 53.276738,312.63878 L 60.33221,295.098 L 67.161716,312.72799 L 85.274664,307.30768 L 75.749113,323.63932 L 91.280117,334.42109 L 72.572443,337.15632 L 73.826341,356.02127 z "
       inkscape:randomized="0"
       inkscape:rounded="0"
       inkscape:flatsided="false"
       transform="matrix(0.916571,0,0,0.91657,226.5818,-52.52496)"
       style="font-size:12px;fill:white;fill-opacity:1;fill-rule:evenodd;stroke-width:1pt"
       sodipodi:type="star"
       sodipodi:sides="7"
       sodipodi:r2="16.001135"
       sodipodi:r1="32.00227"
       sodipodi:cy="327.09961"
       sodipodi:cx="60.126606"
       sodipodi:arg2="1.577221"
       sodipodi:arg1="1.1284221"
       points="73.8263,356.021 60.0238,343.1 46.0564,355.843 47.5526,336.996 28.8816,334.02 44.5499,323.439 35.2349,306.986 53.2767,312.639 60.3322,295.098 67.1617,312.728 85.2747,307.308 75.7491,323.639 91.2801,334.421 72.5724,337.156 73.8263,356.021 "
       id="polygon1880" />
    <polygon
       d="M 73.826341,356.02127 L 60.023805,343.10041 L 46.056385,355.84285 L 47.552578,336.99557 L 28.881593,334.02019 L 44.54985,323.43887 L 35.234933,306.98618 L 53.276738,312.63878 L 60.33221,295.098 L 67.161716,312.72799 L 85.274664,307.30768 L 75.749113,323.63932 L 91.280117,334.42109 L 72.572443,337.15632 L 73.826341,356.02127 z "
       inkscape:randomized="0"
       inkscape:rounded="0"
       inkscape:flatsided="false"
       transform="matrix(0.916571,0,0,0.91657,7.824602,-14.63)"
       style="font-size:12px;fill:white;fill-opacity:1;fill-rule:evenodd;stroke-width:1pt"
       sodipodi:type="star"
       sodipodi:sides="7"
       sodipodi:r2="16.001135"
       sodipodi:r1="32.00227"
       sodipodi:cy="327.09961"
       sodipodi:cx="60.126606"
       sodipodi:arg2="1.577221"
       sodipodi:arg1="1.1284221"
       points="73.8263,356.021 60.0238,343.1 46.0564,355.843 47.5526,336.996 28.8816,334.02 44.5499,323.439 35.2349,306.986 53.2767,312.639 60.3322,295.098 67.1617,312.728 85.2747,307.308 75.7491,323.639 91.2801,334.421 72.5724,337.156 73.8263,356.021 "
       id="polygon1881" />
    <polygon
       d="M 73.826341,356.02127 L 60.023805,343.10041 L 46.056385,355.84285 L 47.552578,336.99557 L 28.881593,334.02019 L 44.54985,323.43887 L 35.234933,306.98618 L 53.276738,312.63878 L 60.33221,295.098 L 67.161716,312.72799 L 85.274664,307.30768 L 75.749113,323.63932 L 91.280117,334.42109 L 72.572443,337.15632 L 73.826341,356.02127 z "
       inkscape:randomized="0"
       inkscape:rounded="0"
       inkscape:flatsided="false"
       transform="matrix(0.916571,0,0,0.91657,121.5094,130.0597)"
       style="font-size:12px;fill:white;fill-opacity:1;fill-rule:evenodd;stroke-width:1pt"
       sodipodi:type="star"
       sodipodi:sides="7"
       sodipodi:r2="16.001135"
       sodipodi:r1="32.00227"
       sodipodi:cy="327.09961"
       sodipodi:cx="60.126606"
       sodipodi:arg2="1.577221"
       sodipodi:arg1="1.1284221"
       points="73.8263,356.021 60.0238,343.1 46.0564,355.843 47.5526,336.996 28.8816,334.02 44.5499,323.439 35.2349,306.986 53.2767,312.639 60.3322,295.098 67.1617,312.728 85.2747,307.308 75.7491,323.639 91.2801,334.421 72.5724,337.156 73.8263,356.021 "
       id="polygon1883" />
  </g>
  <metadata
     id="metadata4029">
    <rdf:RDF>
      <cc:Work
         rdf:about="">
        <dc:title />
        <dc:description />
        <dc:subject>
          <rdf:Bag>
            <rdf:li>oceania</rdf:li>
            <rdf:li>flags</rdf:li>
            <rdf:li>signs_and_symbols</rdf:li>
            <rdf:li />
            <rdf:li>australia</rdf:li>
          </rdf:Bag>
        </dc:subject>
        <dc:publisher>
          <cc:Agent
             rdf:about="http://www.openclipart.org">
            <dc:title />
          </cc:Agent>
        </dc:publisher>
        <dc:creator>
          <cc:Agent
             rdf:about="">
            <dc:title />
          </cc:Agent>
        </dc:creator>
        <dc:rights>
          <cc:Agent
             rdf:about="">
            <dc:title />
          </cc:Agent>
        </dc:rights>
        <dc:date />
        <dc:format>image/svg+xml</dc:format>
        <dc:type
           rdf:resource="http://purl.org/dc/dcmitype/StillImage" />
        <cc:license
           rdf:resource="">
          <dc:date />
        </cc:license>
        <dc:language>en</dc:language>
      </cc:Work>
    </rdf:RDF>
  </metadata>
</svg>
