<?xml version="1.0" encoding="UTF-8" standalone="no"?>
<svg xmlns:dc="http://purl.org/dc/elements/1.1/" xmlns:cc="http://web.resource.org/cc/" xmlns:rdf="http://www.w3.org/1999/02/22-rdf-syntax-ns#" xmlns:svg="http://www.w3.org/2000/svg" xmlns="http://www.w3.org/2000/svg" version="1.0" x="0.0000000" y="0.0000000" width="600" height="400" id="svg1120">
  
  <sodipodi:namedview borderopacity="1.0" bordercolor="#666666" pagecolor="#ffffff" id="base"/>
  <defs id="defs1122"/>
  <g transform="matrix(1.333333,0,0,1.333333,0,7.447917e-5)">
    <rect transform="matrix(1.2,0,0,1.2,-150,-512.8346)" y="427.36218" x="125" height="250" width="375" fill="#ffffff" fill-opacity="1" fill-rule="evenodd" stroke="none" stroke-width="1pt" stroke-linecap="butt" stroke-linejoin="miter" stroke-opacity="1"/>
    <path transform="matrix(1.555194,0,0,1.371026,-700.7462,-528.0137)" d="M 555.1,464.1 C 569.9,439.0 599.8,432.2 622.0,449.0 C 644.1,465.7 650.1,499.7 635.3,524.8 L 595.2,494.5 L 555.1,464.1 z " fill="#ce1126" fill-opacity="1" fill-rule="evenodd" stroke="none" stroke-width="1pt" stroke-linecap="butt" stroke-linejoin="miter" stroke-opacity="1"/>
    <path transform="matrix(1.327363,0,0,1.353221,-446.1803,-511.4161)" d="M 552.6,519.5 C 535.3,544.9 500.2,551.8 474.2,534.8 C 448.3,517.9 441.3,483.4 458.6,458.0 L 505.6,488.7 L 552.6,519.5 z " fill="#003f87" fill-opacity="1" fill-rule="evenodd" stroke="none" stroke-width="1pt" stroke-linecap="butt" stroke-linejoin="miter" stroke-opacity="1"/>
    <path transform="matrix(1.184069,0,0,1.096822,-339.7228,-453.0846)" d="M 482.2,530.8 C 482.2,549.7 468.0,565.0 450.5,565.0 C 433.0,565.0 418.9,549.7 418.9,530.8 C 418.9,511.9 433.0,496.6 450.5,496.6 C 468.0,496.6 482.2,511.9 482.2,530.8 z " fill="#ce1126" fill-opacity="1" fill-rule="evenodd" stroke="none" stroke-width="1pt" stroke-linecap="butt" stroke-linejoin="miter" stroke-opacity="1"/>
    <path transform="matrix(1.211605,0,0,1.021549,-478.1027,-385.8523)" d="M 637.0,544.9 C 637.0,565.1 623.1,581.6 606.0,581.6 C 588.9,581.6 575.1,565.1 575.1,544.9 C 575.1,524.6 588.9,508.2 606.0,508.2 C 623.1,508.2 637.0,524.6 637.0,544.9 z " fill="#003f87" fill-opacity="1" fill-rule="evenodd" stroke="none" stroke-width="1pt" stroke-linecap="butt" stroke-linejoin="miter" stroke-opacity="1"/>
    <g transform="matrix(0.665672,-0.998461,0.998512,0.665639,-940.1941,229.5558)">
      <rect y="666.94971" x="562.5" height="10.4125" width="62.5" fill="#000000" fill-opacity="1" fill-rule="evenodd" stroke="none" stroke-width="1pt" stroke-linecap="butt" stroke-linejoin="miter" stroke-opacity="1"/>
      <rect y="635.69971" x="562.5" height="10.4125" width="62.5" fill="#000000" fill-opacity="1" fill-rule="evenodd" stroke="none" stroke-width="1pt" stroke-linecap="butt" stroke-linejoin="miter" stroke-opacity="1"/>
      <rect y="651.32471" x="562.5" height="10.4125" width="62.5" fill="#000000" fill-opacity="1" fill-rule="evenodd" stroke="none" stroke-width="1pt" stroke-linecap="butt" stroke-linejoin="miter" stroke-opacity="1"/>
    </g>
    <g transform="matrix(0.665672,0.998461,-0.998512,0.665639,370.9133,-803.5818)">
      <rect y="666.94971" x="562.5" height="10.4125" width="62.5" fill="#000000" fill-opacity="1" fill-rule="evenodd" stroke="none" stroke-width="1pt" stroke-linecap="butt" stroke-linejoin="miter" stroke-opacity="1"/>
      <rect y="651.32471" x="562.5" height="10.4125" width="28.65" fill="#000000" fill-opacity="1" fill-rule="evenodd" stroke="none" stroke-width="1pt" stroke-linecap="butt" stroke-linejoin="miter" stroke-opacity="1"/>
      <rect y="651.32471" x="596.34998" height="10.4125" width="28.65" fill="#000000" fill-opacity="1" fill-rule="evenodd" stroke="none" stroke-width="1pt" stroke-linecap="butt" stroke-linejoin="miter" stroke-opacity="1"/>
      <rect y="635.69971" x="562.5" height="10.4125" width="62.5" fill="#000000" fill-opacity="1" fill-rule="evenodd" stroke="none" stroke-width="1pt" stroke-linecap="butt" stroke-linejoin="miter" stroke-opacity="1"/>
    </g>
    <g transform="matrix(0.665672,0.998461,-0.998512,0.665639,599.7083,-956.1168)">
      <rect y="651.32471" x="562.5" height="10.4125" width="62.5" fill="#000000" fill-opacity="1" fill-rule="evenodd" stroke="none" stroke-width="1pt" stroke-linecap="butt" stroke-linejoin="miter" stroke-opacity="1"/>
      <rect y="666.94971" x="562.5" height="10.4125" width="28.637501" fill="#000000" fill-opacity="1" fill-rule="evenodd" stroke="none" stroke-width="1pt" stroke-linecap="butt" stroke-linejoin="miter" stroke-opacity="1"/>
      <rect y="666.94971" x="596.36249" height="10.4125" width="28.637501" fill="#000000" fill-opacity="1" fill-rule="evenodd" stroke="none" stroke-width="1pt" stroke-linecap="butt" stroke-linejoin="miter" stroke-opacity="1"/>
      <rect y="635.69971" x="562.5" height="10.4125" width="28.637501" fill="#000000" fill-opacity="1" fill-rule="evenodd" stroke="none" stroke-width="1pt" stroke-linecap="butt" stroke-linejoin="miter" stroke-opacity="1"/>
      <rect y="635.69971" x="596.36249" height="10.4125" width="28.637501" fill="#000000" fill-opacity="1" fill-rule="evenodd" stroke="none" stroke-width="1pt" stroke-linecap="butt" stroke-linejoin="miter" stroke-opacity="1"/>
    </g>
    <g transform="matrix(0.665672,-0.998461,0.998512,0.665639,-711.3992,382.0908)">
      <rect y="666.94971" x="562.5" height="10.4125" width="28.637501" fill="#000000" fill-opacity="1" fill-rule="evenodd" stroke="none" stroke-width="1pt" stroke-linecap="butt" stroke-linejoin="miter" stroke-opacity="1"/>
      <rect y="651.32471" x="562.5" height="10.4125" width="28.637501" fill="#000000" fill-opacity="1" fill-rule="evenodd" stroke="none" stroke-width="1pt" stroke-linecap="butt" stroke-linejoin="miter" stroke-opacity="1"/>
      <rect y="635.69971" x="562.5" height="10.4125" width="28.637501" fill="#000000" fill-opacity="1" fill-rule="evenodd" stroke="none" stroke-width="1pt" stroke-linecap="butt" stroke-linejoin="miter" stroke-opacity="1"/>
      <rect y="666.94971" x="596.36249" height="10.4125" width="28.637501" fill="#000000" fill-opacity="1" fill-rule="evenodd" stroke="none" stroke-width="1pt" stroke-linecap="butt" stroke-linejoin="miter" stroke-opacity="1"/>
      <rect y="651.32471" x="596.36249" height="10.4125" width="28.637501" fill="#000000" fill-opacity="1" fill-rule="evenodd" stroke="none" stroke-width="1pt" stroke-linecap="butt" stroke-linejoin="miter" stroke-opacity="1"/>
      <rect y="635.69971" x="596.36249" height="10.4125" width="28.637501" fill="#000000" fill-opacity="1" fill-rule="evenodd" stroke="none" stroke-width="1pt" stroke-linecap="butt" stroke-linejoin="miter" stroke-opacity="1"/>
    </g>
  </g>
</svg>
