<?xml version="1.0" encoding="UTF-8" standalone="no"?>
<!DOCTYPE svg PUBLIC "-//W3C//DTD SVG 1.1//EN" "http://www.w3.org/Graphics/SVG/1.1/DTD/svg11.dtd">
<svg xmlns="http://www.w3.org/2000/svg" xmlns:xlink="http://www.w3.org/1999/xlink" version="1.1" width="900" height="600" id="Flag of Iraq">
<rect width="900" height="200" fill="#ce1126" />
<rect width="900" height="200" y="200" fill="white" />
<rect width="900" height="200" y="400" fill="black" />
<g fill="#009e60">
  <polygon id="left_star" transform="translate(200,300) scale(60)" points="0,-1
       0.587785252292473129168705954639072768597652,0.809016994374947424102293417182819058860155
       -0.951056516295153572116439333379382143405699,-0.309016994374947424102293417182819058860155
       0.951056516295153572116439333379382143405699,-0.309016994374947424102293417182819058860155
       -0.587785252292473129168705954639072768597652,0.809016994374947424102293417182819058860155" />
  <use xlink:href="#left_star" x="250" />
  <use xlink:href="#left_star" x="500" />
  <g transform="scale(2)">
    <path d="M 138.08604,170.79597 L 136.43429,169.1292 L 138.10081,167.47725 L 139.76734,165.82531 L 141.41971,167.49208 L 143.07144,169.15883 L 141.40491,170.81077 L 139.73777,172.46272 L 138.08604,170.79597 z M 126.74562,169.95932 C 126.15108,169.74176 125.18751,169.02756 124.55541,168.33628 C 123.3645,167.03314 123.09342,166.42471 123.89373,166.85325 C 125.0871,167.49187 127.4498,167.90767 128.29077,167.62692 C 131.3928,166.59089 132.09822,162.45049 129.62029,159.82334 C 129.13421,159.30792 128.7362,158.70882 128.7362,158.49201 C 128.7362,158.27518 129.25311,157.8693 129.88461,157.59003 C 130.7687,157.19884 131.20058,156.77271 131.76615,155.73386 C 132.34036,154.67828 132.57632,154.44885 132.85171,154.67743 C 133.24601,155.0044 134.57676,158.18061 134.57676,158.79408 C 134.57676,159.11797 135.05731,159.18947 137.23459,159.18947 L 139.8924,159.18947 L 139.47717,158.194 C 139.2486,157.64651 138.87339,156.90986 138.64235,156.55703 C 138.26839,155.98541 138.26654,155.88419 138.6251,155.62795 C 138.84629,155.46978 139.58251,154.9519 140.26146,154.47709 C 140.93977,154.0023 141.57311,153.40503 141.66799,153.14983 C 141.90333,152.51826 143.37271,150.69492 143.64626,150.69492 C 143.76763,150.69492 143.86745,152.60618 143.86745,154.9422 L 143.86745,159.18947 L 160.4582,159.18947 L 177.04896,159.18947 L 177.04896,153.10566 L 177.04896,147.02186 L 176.12606,146.45131 L 175.20253,145.88072 L 174.26792,146.59388 L 173.33269,147.30702 L 173.33269,151.65553 L 173.33269,156.00401 L 159.39667,156.00401 C 151.73126,156.00401 145.46004,155.95613 145.46004,155.89762 C 145.46004,155.8046 152.39477,146.43891 153.24315,145.38584 C 153.41934,145.16684 153.85493,144.56955 154.21102,144.05856 C 154.56712,143.54755 154.9294,143.06974 155.01625,142.99673 C 155.10372,142.92374 155.46352,142.44592 155.81717,141.93494 C 156.17018,141.42392 156.58236,140.86626 156.7333,140.6957 C 156.88425,140.52513 159.39667,137.15771 162.31634,133.21254 C 165.23661,129.26736 167.7127,126.03233 167.81989,126.02357 C 167.92647,126.01481 168.07864,126.33614 168.1575,126.73763 C 168.59554,128.95948 168.93193,130.20422 169.27818,130.88742 C 169.72239,131.76267 169.46179,132.089 168.28935,132.1258 C 167.73364,132.14323 166.45586,133.71258 160.4582,141.74052 C 156.51643,147.01715 153.25115,151.42943 153.20249,151.54558 C 153.1538,151.66171 156.70742,151.75674 161.09955,151.75674 L 169.08534,151.75674 L 169.08967,148.9031 C 169.09213,147.3336 169.18145,145.92588 169.28865,145.77484 C 169.79016,145.06895 175.06946,141.37983 175.43787,141.47764 C 175.66705,141.53839 177.07916,142.52027 178.57564,143.65958 L 181.29631,145.73103 L 181.29631,154.5839 L 181.29631,163.43675 L 158.2415,163.43675 L 135.18609,163.43675 L 134.72279,165.14902 C 134.16707,167.20121 133.25772,168.68062 132.03723,169.51676 C 130.88823,170.30399 128.28338,170.52188 126.74562,169.95932 z M 184.21658,149.65439 C 184.21658,140.01714 184.30345,135.80711 184.50491,135.68263 C 184.66325,135.58465 185.35019,136.08881 186.03098,136.80303 C 186.71237,137.51723 187.92607,138.66405 188.72945,139.3515 C 189.99739,140.43741 190.12984,140.63741 189.73799,140.87584 C 188.43065,141.67024 188.46393,141.42031 188.46393,150.58115 L 188.46393,159.18947 L 191.0047,159.18947 C 193.26082,159.18947 193.6773,159.11227 194.72096,158.5006 C 196.01599,157.74173 196.10224,157.84176 195.4615,159.35615 C 195.22185,159.92146 194.95322,161.041 194.86389,161.84401 L 194.70185,163.30402 L 189.45891,163.37599 L 184.21658,163.44797 L 184.21658,149.65439 z M 187.8158,133.2992 C 187.21141,132.84225 185.99525,132.79128 185.2473,133.19159 C 184.95713,133.34676 184.45746,133.43245 184.13649,133.38202 C 183.59002,133.29615 183.61466,133.23207 184.52894,132.36886 C 185.49128,131.46048 185.5005,131.43119 185.20109,130.30891 C 184.81235,128.85367 185.13394,128.29227 186.41849,128.18252 C 187.10297,128.12399 187.52561,128.25486 187.91744,128.64707 C 188.52122,129.25074 188.5625,129.42282 188.22796,129.9505 C 188.05607,130.22165 187.87063,130.24021 187.47079,130.0262 C 186.86516,129.70211 186.60579,129.86444 186.60579,130.56749 C 186.60579,130.89714 187.08264,131.29096 188.06531,131.77311 C 188.8687,132.16693 189.52546,132.57518 189.52546,132.68035 C 189.52546,132.92716 188.74609,133.7084 188.51136,133.69739 C 188.41217,133.69274 188.0992,133.51356 187.8158,133.2992 z " />
    <path d="M 267.98526,159.93797 C 268.12438,156.05694 268.52532,154.7406 269.94914,153.49046 C 271.04563,152.52774 272.61355,152.07222 274.42829,152.18911 L 275.78761,152.27671 L 275.86919,150.68894 C 275.97256,148.67682 275.78994,147.95874 275.1208,147.74635 C 274.31728,147.49134 274.48139,146.65763 275.45452,146.05087 C 275.93083,145.75389 277.09656,144.72482 278.04498,143.76406 C 278.99342,142.80333 279.86279,142.01726 279.97696,142.01726 C 280.09112,142.01726 280.18452,145.85456 280.18452,150.54459 L 280.18452,159.07193 L 282.04986,159.07193 L 283.91523,159.07193 L 283.91523,150.29716 C 283.91523,142.67538 283.8602,141.46734 283.49649,141.10362 C 283.26616,140.8733 282.96637,140.68487 282.83028,140.68487 C 282.23234,140.68487 282.65496,139.61745 283.44889,139.12242 C 283.92521,138.82543 285.08521,137.80215 286.02665,136.84844 C 286.96808,135.89476 287.83747,135.17572 287.95862,135.2506 C 288.07977,135.32548 288.17888,140.71591 288.17888,147.22933 L 288.17888,159.07193 L 290.04424,159.07193 L 291.9096,159.07193 L 291.9096,146.94536 L 291.9096,134.81881 L 291.2434,134.23955 C 290.87698,133.92096 290.5772,133.51556 290.5772,133.33865 C 290.5772,133.16175 291.40605,132.34734 292.41909,131.52884 C 293.43211,130.71034 294.51953,129.67754 294.83556,129.23374 C 296.19614,127.32296 296.17326,127.03833 296.17326,145.88122 L 296.17326,163.33559 L 282.01836,163.33559 L 267.86346,163.33559 L 267.98526,159.93797 z M 275.92085,157.33981 L 275.92085,155.60769 L 274.87544,155.60769 C 273.47193,155.60769 272.19014,156.82587 272.19014,158.15975 L 272.19014,159.07193 L 274.05551,159.07193 L 275.92085,159.07193 L 275.92085,157.33981 z M 299.10453,149.50003 C 299.10453,139.82562 299.19174,135.59933 299.39392,135.47438 C 299.55308,135.376 300.24259,135.88212 300.92617,136.59909 C 301.60975,137.31605 302.82857,138.46728 303.63468,139.15739 C 304.90802,140.2475 305.04085,140.44827 304.64713,140.68761 C 303.33526,141.4851 303.36819,141.2342 303.36819,150.4304 L 303.36819,159.07193 L 305.97113,159.07193 C 308.33232,159.07193 308.66835,159.00785 309.58932,158.38204 C 310.1477,158.00261 310.67022,157.75779 310.75045,157.83802 C 310.83068,157.91826 310.68616,158.49851 310.42928,159.12749 C 310.17243,159.75646 309.88761,160.9306 309.79636,161.73671 L 309.63046,163.20235 L 304.36749,163.27459 L 299.10453,163.34685 L 299.10453,149.50003 z M 278.13105,135.00191 C 277.66117,134.82985 277.12155,134.52517 276.93189,134.32485 C 276.64183,134.01847 276.78611,133.98902 277.84022,134.13943 C 279.73469,134.40975 280.89486,134.08821 281.95182,132.9999 L 282.88062,132.04355 L 284.1712,132.50193 C 284.88103,132.75405 285.62346,132.89825 285.82103,132.82238 C 286.33321,132.62575 287.26086,131.15468 287.16792,130.68653 C 287.05458,130.11571 287.57897,130.2021 287.90304,130.80763 C 288.53865,131.99528 288.00786,133.50296 286.79263,133.96165 C 286.19788,134.18615 285.62271,134.19273 284.65919,133.9861 C 283.47565,133.73228 283.28054,133.75891 282.76157,134.24501 C 281.59803,135.33484 279.82967,135.62392 278.13105,135.00191 z M 302.7177,133.08173 C 302.1112,132.62303 300.89004,132.57188 300.13917,132.97371 C 299.84812,133.12948 299.34638,133.2155 299.02415,133.16488 C 298.47539,133.07867 298.50031,133.01436 299.41811,132.14782 C 300.38396,131.23593 300.39355,131.20654 300.09284,130.0799 C 299.70291,128.61907 300.02553,128.05551 301.31479,127.9453 C 302.00228,127.88655 302.42635,128.01793 302.82005,128.41166 C 303.42608,129.01766 303.46719,129.19041 303.13151,129.72012 C 302.95903,129.99232 302.77262,130.01095 302.3712,129.7961 C 301.76326,129.47075 301.50284,129.63372 301.50284,130.33949 C 301.50284,130.67041 301.98161,131.06573 302.96848,131.54974 C 303.77457,131.94509 304.43411,132.35494 304.43411,132.46049 C 304.43411,132.70827 303.65188,133.49253 303.41579,133.48146 C 303.31633,133.47679 303.00217,133.29693 302.7177,133.08173 z M 281.35723,130.60769 C 280.71481,130.16991 279.36074,127.92446 279.30877,127.21075 C 279.26419,126.59831 279.37242,126.41148 279.80812,126.34903 C 280.56999,126.2398 280.92222,126.74697 281.50866,128.79766 C 281.98737,130.47166 281.94262,131.00662 281.35723,130.60769 z " />
  </g>
</g>
</svg>
