<?xml version="1.0" encoding="UTF-8" standalone="no"?>
<!-- Creator: CorelDRAW -->
<svg
   xmlns:dc="http://purl.org/dc/elements/1.1/"
   xmlns:cc="http://web.resource.org/cc/"
   xmlns:rdf="http://www.w3.org/1999/02/22-rdf-syntax-ns#"
   xmlns:svg="http://www.w3.org/2000/svg"
   xmlns="http://www.w3.org/2000/svg"
   xmlns:sodipodi="http://inkscape.sourceforge.net/DTD/sodipodi-0.dtd"
   xmlns:inkscape="http://www.inkscape.org/namespaces/inkscape"
   xml:space="preserve"
   width="750"
   height="500"
   style="shape-rendering:geometricPrecision; text-rendering:geometricPrecision; image-rendering:optimizeQuality"
   viewBox="-1502 0 3004 2004"
   id="svg1589"
   sodipodi:version="0.32"
   inkscape:version="0.43"
   sodipodi:docname="Flag_of_Saudi_Arabia.svg"
   sodipodi:docbase="C:\Documents and Settings\David Nelson\Archives\Svg"
   version="1.0"><metadata
     id="metadata1627"><rdf:RDF><cc:Work
         rdf:about=""><dc:format>image/svg+xml</dc:format><dc:type
           rdf:resource="http://purl.org/dc/dcmitype/StillImage" /></cc:Work></rdf:RDF></metadata><sodipodi:namedview
     inkscape:window-height="540"
     inkscape:window-width="756"
     inkscape:pageshadow="2"
     inkscape:pageopacity="0.0"
     borderopacity="1.0"
     bordercolor="#666666"
     pagecolor="#ffffff"
     id="base"
     inkscape:zoom="0.746"
     inkscape:cx="375"
     inkscape:cy="250"
     inkscape:window-x="35"
     inkscape:window-y="33"
     inkscape:current-layer="svg1589" /><defs
     id="defs1591">
  <style
   type="text/css"
   id="style1593">
   
    .str0 {stroke:#000000;stroke-width:3}
    .str1 {stroke:#000000;stroke-width:7}
    .fil2 {fill:none}
    .fil1 {fill:#FFFFFF}
    .fil0 {fill:#00885E}
   
  </style>
 
  
  
 
   
   
   
   
   
   
   
   
   
   
   
   
   
   
   
   
   
   
   
   
   
   
   
   
   
   
   
  </defs><path
     style="fill:#009530;fill-opacity:1;stroke:none;stroke-width:3"
     d="M 1502.9999,2004 L 1502.9999,-3.4810305e-013 L -1503.0001,-3.4810305e-013 L -1503.0001,2004 L 1502.9999,2004 z "
     class="fil0 str0"
     id="21461584" /><path
     style="fill:#ffffff"
     d="M 468.46875,339.78125 C 467.9301,339.87391 467.28239,340.44804 466.40625,341.8125 C 464.41254,345.056 463.91647,345.56999 467.15625,349.3125 L 467.25,352.3125 C 391.03053,353.26908 306.41589,352.4341 234.15625,351.5625 C 242.13113,364.78605 267.7965,363.78176 292.46875,364.03125 C 314.40132,364.47484 379.06525,364.31689 467.5625,362 L 467.65625,365.53125 C 464.41648,369.27377 464.91333,369.75649 467.15625,373 C 468.13753,374.41903 468.8513,374.88584 469.40625,374.8125 C 470.10357,374.69536 470.60331,373.71877 471.15625,372.75 C 471.65468,372.251 471.90703,371.749 472.15625,371.25 L 484.09375,371 C 484.09375,371.17543 484.14891,371.36777 484.21875,371.53125 C 484.24315,371.58548 484.28179,371.66618 484.3125,371.71875 C 484.8514,372.60748 486.24797,373.25 486.84375,373.25 C 487.8406,373.25001 489.59375,372.24701 489.59375,370.75 L 502.4375,370.5625 C 503.72105,372.58468 505.72056,373.62085 507.53125,373.5 C 512.26632,373.2505 514.24842,367.76779 513.75,361.03125 C 513.00236,353.04722 509.03342,351.53176 499.8125,351.78125 C 490.13196,351.98256 480.24891,352.17991 470.21875,352.3125 L 470.15625,349.0625 C 473.14681,345.32 472.89918,344.80601 470.65625,341.5625 C 470.17924,340.98943 469.75527,340.36952 469.3125,340.03125 C 469.23994,339.97785 469.13773,339.91226 469.0625,339.875 C 468.88286,339.79176 468.67344,339.74604 468.46875,339.78125 z M 501.8125,361.03125 C 501.02172,363.56464 500.94494,365.76929 501.3125,367.59375 L 489.59375,367.75 C 489.59109,367.64313 489.56093,367.50887 489.53125,367.40625 C 489.19744,366.33791 487.51546,365.53125 486.84375,365.53125 C 485.84689,365.53126 484.09375,366.50299 484.09375,368 L 472.65625,368.25 C 472.15783,367.50151 471.65232,366.52875 470.40625,365.28125 L 470.34375,361.9375 C 480.53183,361.66706 491.03335,361.36135 501.8125,361.03125 z "
     id="21459296"
     transform="matrix(4.008,0,0,4.008,-1503,0)" /><g
     id="g4297"><path
       style="fill:#ffffff"
       d="M -704.38449,564.00005 C -694.39588,536.00004 -693.39727,511.00004 -705.38338,520.00004 C -715.37172,528.00004 -721.36505,520.00004 -713.37422,511.00004 C -703.3856,498.00004 -690.4006,494.00004 -687.40394,516.00004 C -686.40532,533.00004 -698.39144,554.00004 -704.38449,564.00005 z "
       class="fil1"
       id="21461496" /><path
       style="fill:#ffffff"
       d="M -618.48337,721.00006 C -615.48671,757.00006 -605.49837,824.00007 -605.49837,847.00007 C -604.49948,871.00007 -601.50282,864.00007 -595.50976,851.00007 C -589.51671,838.00007 -590.51559,824.00007 -591.51448,805.00006 C -593.51198,785.00006 -594.51087,752.00006 -598.50643,707.00006 C -590.51559,701.00006 -583.52365,691.00006 -580.52698,685.00005 C -572.53615,670.00005 -570.53865,671.00005 -567.54198,683.00005 C -561.54893,707.00006 -537.57642,723.00006 -505.61337,700.00006 C -475.64781,679.00005 -488.63281,635.00005 -501.61781,587.00005 C -490.63059,589.00005 -486.63503,580.00005 -493.62698,568.00005 C -496.62364,561.00004 -502.6167,555.00004 -507.61087,549.00004 C -512.60531,543.00004 -517.59948,538.00004 -522.59364,544.00004 C -526.5892,550.00004 -531.58337,555.00004 -534.58003,559.00004 C -537.57642,563.00005 -537.57642,567.00005 -533.58115,577.00005 C -521.59476,605.00005 -513.60392,635.00005 -511.60642,652.00005 C -508.60975,668.00005 -514.60281,672.00005 -525.59031,672.00005 C -536.57753,672.00005 -551.56031,669.00005 -557.55337,645.00005 C -563.5467,621.00005 -566.54309,610.00005 -565.5442,594.00005 C -564.54531,578.00005 -562.54781,567.00005 -573.53504,551.00004 C -585.52115,535.00004 -586.52004,538.00004 -589.51671,546.00004 C -591.51448,555.00004 -595.50976,568.00005 -591.51448,583.00005 C -586.52004,605.00005 -583.52365,624.00005 -580.52698,637.00005 C -578.5292,646.00005 -587.51893,665.00005 -600.50393,675.00005 C -603.5006,645.00005 -608.49476,605.00005 -610.49254,573.00005 C -593.51198,567.00005 -602.50171,544.00004 -616.4856,519.00004 C -626.47421,500.00004 -630.46949,508.00004 -637.46143,520.00004 C -644.45338,532.00004 -639.45921,537.00004 -634.46504,547.00004 C -638.46032,555.00004 -631.46838,567.00005 -628.47199,589.00005 C -627.4731,603.00005 -624.47643,643.00005 -621.47976,678.00005 C -635.46393,678.00005 -643.45449,669.00005 -648.44893,657.00005 C -659.43616,632.00005 -656.43977,609.00005 -651.44532,594.00005 C -646.45115,579.00005 -641.45699,556.00004 -650.44643,550.00004 C -658.43727,544.00004 -669.42477,551.00004 -676.41671,562.00004 C -688.40282,580.00005 -699.39033,606.00005 -700.38921,633.00005 C -701.38783,644.00005 -704.38449,665.00005 -709.37866,673.00005 C -713.37422,681.00005 -720.36616,682.00005 -727.35811,670.00005 C -739.34422,651.00005 -743.33977,603.00005 -742.34088,578.00005 C -742.34088,566.00005 -745.33727,564.00005 -749.33283,578.00005 C -762.31783,626.00005 -747.33505,678.00005 -736.34783,700.00006 C -725.36033,722.00006 -711.37644,717.00006 -701.38783,699.00006 C -686.40532,672.00005 -692.39838,648.00005 -678.41449,608.00005 C -670.42366,583.00005 -667.42699,602.00005 -670.42366,617.00005 C -677.4156,657.00005 -675.41782,722.00006 -618.48337,721.00006 z "
       class="fil1"
       id="21461408" /><path
       style="fill:#ffffff"
       d="M -575.53282,511.00004 C -578.5292,519.00004 -576.5317,529.00004 -571.53726,535.00004 C -566.54309,542.00004 -557.55337,542.00004 -551.56031,537.00004 C -546.56615,531.00004 -546.56615,530.00004 -541.57198,538.00004 C -538.57531,544.00004 -528.5867,542.00004 -525.59031,536.00004 C -523.59253,531.00004 -520.59587,526.00004 -523.59253,519.00004 C -526.5892,512.00004 -526.5892,514.00004 -528.5867,522.00004 C -530.58448,535.00004 -542.57059,532.00004 -543.56948,516.00004 C -543.56948,501.00004 -546.56615,509.00004 -550.56142,519.00004 C -557.55337,534.00004 -567.54198,531.00004 -567.54198,518.00004 C -567.54198,507.00004 -570.53865,498.00004 -575.53282,511.00004 z "
       class="fil1"
       id="21461320" /><path
       style="fill:#ffffff"
       d="M -738.34533,812.00006 C -709.37866,777.00006 -672.42116,759.00006 -653.4431,753.00006 C -641.45699,749.00006 -635.46393,744.00006 -635.46393,756.00006 C -634.46504,767.00006 -635.46393,768.00006 -645.45227,771.00006 C -668.42588,777.00006 -716.3706,801.00006 -732.35227,813.00007 C -740.34311,819.00007 -750.33172,826.00007 -738.34533,812.00006 z "
       class="fil1"
       id="21461232" /><path
       style="fill:#ffffff"
       d="M -717.36949,875.00007 C -716.3706,885.00007 -716.3706,892.00007 -716.3706,896.00007 C -716.3706,903.00007 -720.36616,910.00007 -722.36394,919.00007 C -734.35005,962.00008 -716.3706,983.00008 -706.38227,967.00008 C -697.39255,951.00008 -692.39838,953.00008 -693.39727,966.00008 C -694.39588,1009.0001 -735.34894,1012.0001 -738.34533,976.00008 C -743.33977,919.00007 -730.35449,910.00007 -726.35922,891.00007 C -723.36255,878.00007 -719.36727,868.00007 -717.36949,875.00007 z "
       class="fil1"
       id="21461144" /><path
       style="fill:#ffffff"
       d="M -506.61198,789.00006 C -510.60753,790.00006 -514.60281,792.00006 -517.59948,793.00006 C -535.57865,798.00006 -538.57531,791.00006 -537.57642,780.00006 C -536.57753,769.00006 -535.57865,766.00006 -523.59253,771.00006 C -518.59837,773.00006 -512.60531,780.00006 -506.61198,789.00006 L -479.64309,779.00006 C -484.63725,768.00006 -491.6292,759.00006 -502.6167,748.00006 C -520.59587,730.00006 -535.57865,729.00006 -550.56142,751.00006 C -564.54531,772.00006 -563.5467,777.00006 -562.54781,796.00006 C -561.54893,815.00007 -565.5442,822.00007 -550.56142,827.00007 C -536.57753,832.00007 -530.58448,830.00007 -521.59476,827.00007 C -514.60281,825.00007 -504.61448,822.00007 -494.62586,818.00007 C -492.62809,828.00007 -493.62698,839.00007 -499.62003,847.00007 C -536.57753,891.00007 -593.51198,923.00007 -618.48337,894.00007 C -632.46726,878.00007 -638.46032,853.00007 -634.46504,823.00007 C -630.46949,798.00006 -638.46032,809.00006 -641.45699,818.00007 C -650.44643,847.00007 -653.4431,889.00007 -641.45699,910.00007 C -624.47643,939.00008 -597.50754,952.00008 -554.55698,933.00007 C -511.60642,914.00007 -469.65475,880.00007 -471.65225,833.00007 C -471.65225,824.00007 -472.65114,816.00007 -472.65114,810.00006 C -468.65586,808.00006 -461.66392,803.00006 -456.66947,801.00006 C -455.67058,817.00007 -457.66836,837.00007 -456.66947,853.00007 C -454.67197,904.00007 -474.64892,919.00007 -492.62809,933.00007 C -517.59948,953.00008 -551.56031,966.00008 -580.52698,971.00008 C -649.44782,981.00008 -665.42921,937.00007 -664.4306,878.00007 C -664.4306,869.00007 -660.43504,863.00007 -660.43504,850.00007 C -661.43393,825.00007 -664.4306,829.00007 -672.42116,854.00007 C -679.4131,878.00007 -688.40282,934.00007 -665.42921,980.00008 C -641.45699,1026.0001 -560.55004,1013.0001 -497.62253,983.00008 C -435.69364,953.00008 -428.70169,896.00007 -431.69836,839.00007 C -431.69836,824.00007 -432.69725,808.00006 -433.69586,791.00006 C -431.69836,790.00006 -430.69947,788.00006 -429.70058,787.00006 C -420.71086,816.00007 -378.75919,808.00006 -365.77419,791.00006 C -358.78224,783.00006 -358.78224,782.00006 -352.78919,791.00006 C -343.79946,804.00006 -312.83502,808.00006 -304.84418,790.00006 C -297.85224,771.00006 -298.85113,753.00006 -300.8489,739.00006 C -302.84668,725.00006 -305.84307,726.00006 -314.83279,733.00006 C -324.82141,741.00006 -316.83057,742.00006 -315.83168,752.00006 C -311.83613,790.00006 -344.79835,787.00006 -348.79363,748.00006 C -350.79141,724.00006 -354.78669,733.00006 -357.78335,744.00006 C -371.76724,791.00006 -412.72002,800.00006 -408.72475,746.00006 C -407.72586,730.00006 -417.71447,735.00006 -422.70864,741.00006 C -427.7028,745.00006 -431.69836,750.00006 -436.69253,753.00006 C -439.68919,709.00006 -442.68558,659.00005 -447.68003,599.00005 C -435.69364,614.00005 -424.70641,597.00005 -432.69725,580.00005 C -438.6903,567.00005 -447.68003,538.00004 -453.67308,522.00004 C -458.66725,506.00004 -461.66392,511.00004 -474.64892,524.00004 C -486.63503,538.00004 -484.63725,541.00004 -478.6442,555.00004 C -480.64197,572.00005 -477.64531,589.00005 -473.65003,624.00005 C -470.65336,649.00005 -462.66253,701.00006 -458.66725,767.00006 C -464.66031,770.00006 -473.65003,776.00006 -479.64309,779.00006 L -506.61198,789.00006 z "
       class="fil1"
       id="21461056" /><path
       style="fill:#ffffff"
       d="M -363.77641,859.00007 C -361.77863,866.00007 -362.77752,882.00007 -365.77419,889.00007 C -369.76947,898.00007 -365.77419,902.00007 -359.78113,891.00007 C -353.78808,879.00007 -349.79252,865.00007 -352.78919,851.00007 C -353.78808,841.00007 -353.78808,838.00007 -362.77752,834.00007 C -372.76613,830.00007 -375.7628,836.00007 -378.75919,844.00007 C -382.75474,854.00007 -377.7603,865.00007 -363.77641,859.00007 z "
       class="fil1"
       id="21460968" /><path
       style="fill:#ffffff"
       d="M -336.80752,639.00005 C -348.79363,654.00005 -357.78335,676.00005 -340.8028,689.00006 C -331.81335,697.00006 -312.83502,688.00006 -305.84307,673.00005 C -298.85113,657.00005 -301.84779,655.00005 -313.83391,668.00005 C -330.81446,687.00005 -347.79474,670.00005 -329.81557,644.00005 C -317.82946,626.00005 -324.82141,622.00005 -336.80752,639.00005 z "
       class="fil1"
       id="21460880" /><path
       style="fill:#ffffff"
       d="M -310.83724,550.00004 C -308.83974,546.00004 -306.84196,541.00004 -305.84307,537.00004 C -303.84529,531.00004 -308.83974,525.00004 -312.83502,534.00004 C -315.83168,541.00004 -316.83057,546.00004 -310.83724,550.00004 L -321.82474,569.00005 C -334.80974,558.00004 -334.80974,542.00004 -329.81557,528.00004 C -317.82946,497.00004 -277.87529,501.00004 -288.86279,541.00004 C -289.8614,547.00004 -292.85807,555.00004 -296.85335,563.00005 C -290.86029,571.00005 -293.85696,581.00005 -305.84307,579.00005 C -318.82807,600.00005 -343.79946,623.00005 -386.75002,642.00005 C -406.72697,651.00005 -409.72364,644.00005 -394.74086,635.00005 C -365.77419,616.00005 -338.8053,593.00005 -321.82474,569.00005 L -310.83724,550.00004 z "
       class="fil1"
       id="21460704" /><path
       style="fill:#ffffff"
       d="M -264.89029,554.00004 C -280.87196,599.00005 -279.87307,642.00005 -246.91084,679.00005 C -227.93279,700.00006 -213.9489,690.00006 -205.95806,667.00005 C -196.96834,645.00005 -190.97528,623.00005 -184.98223,608.00005 C -178.98917,593.00005 -173.99473,596.00005 -174.99362,610.00005 C -177.99028,638.00005 -179.98806,683.00005 -152.02028,700.00006 C -124.05222,717.00006 -81.101748,688.00006 -66.118997,658.00005 C -21.170715,718.00006 18.783316,690.00006 23.777566,632.00005 C 24.7764,614.00005 16.785621,575.00005 11.791343,564.00005 C 6.7970925,552.00004 9.7936483,552.00004 16.785621,558.00004 C 23.777566,565.00005 35.763762,569.00005 29.770678,549.00004 C 22.778705,530.00004 14.787899,519.00004 3.8005645,510.00004 C -6.187964,501.00004 -8.1856587,506.00004 -12.181048,513.00004 C -16.176465,520.00004 -15.177604,522.00004 -21.170715,527.00004 C -27.163827,533.00004 -26.164966,536.00004 -21.170715,547.00004 C -4.1902417,591.00005 11.791343,655.00005 -15.177604,661.00005 C -40.148883,666.00005 -56.130496,612.00005 -57.129329,588.00005 C -58.12819,556.00004 -62.12358,529.00004 -68.116691,512.00004 C -75.108636,495.00004 -77.106331,492.00004 -82.100609,501.00004 C -86.095998,508.00004 -87.094859,513.00004 -91.090249,520.00004 C -95.085666,527.00004 -91.090249,529.00004 -88.093693,543.00004 C -73.110942,613.00005 -75.108636,645.00005 -107.07186,663.00005 C -139.035,682.00005 -156.01556,664.00005 -156.01556,642.00005 C -157.01445,620.00005 -157.01445,593.00005 -154.01778,573.00005 C -152.02028,553.00004 -147.02584,550.00004 -154.01778,540.00004 C -161.00973,529.00004 -167.00278,533.00004 -175.99251,546.00004 C -195.96945,574.00005 -215.94668,621.00005 -222.93862,643.00005 C -229.93057,666.00005 -243.91446,658.00005 -253.90279,639.00005 C -264.89029,616.00005 -263.8914,575.00005 -259.89612,559.00004 C -255.90057,543.00004 -257.89835,536.00004 -264.89029,554.00004 z "
       class="fil1"
       id="21460792" /><path
       style="fill:#ffffff"
       d="M -129.04667,515.00004 C -136.03861,522.00004 -136.03861,523.00004 -130.04556,532.00004 C -124.05222,539.00004 -115.06278,561.00004 -118.05917,584.00005 C -119.05806,594.00005 -117.06028,604.00005 -112.06611,586.00005 C -108.07072,568.00005 -109.06944,543.00004 -114.06389,528.00004 C -119.05806,513.00004 -125.05111,509.00004 -129.04667,515.00004 z "
       class="fil1"
       id="21460616" /><path
       style="fill:#ffffff"
       d="M 15.78676,774.00006 C 22.778705,772.00006 29.770678,771.00006 37.761456,769.00006 C 58.737319,764.00006 46.751124,762.00006 32.767206,753.00006 C 17.784455,744.00006 11.791343,744.00006 12.790204,754.00006 C 13.789065,760.00006 13.789065,766.00006 15.78676,774.00006 L -10.183353,782.00006 C -27.163827,757.00006 -16.176465,739.00006 -3.1914083,720.00006 C 12.790204,697.00006 38.760317,704.00006 68.725848,725.00006 C 98.69135,746.00006 86.705154,779.00006 57.738486,796.00006 C 50.746541,800.00006 41.756873,804.00006 30.769511,808.00006 C 33.766067,815.00007 29.770678,817.00007 20.78101,811.00006 C -5.1891029,820.00007 -39.150022,833.00007 -63.122441,846.00007 C -34.155772,848.00007 85.706293,846.00007 109.67871,843.00007 C 133.65113,841.00007 129.65571,845.00007 122.66377,866.00007 C 115.6718,886.00007 107.68102,884.00007 87.703988,887.00007 C 55.740791,893.00007 8.7948149,907.00007 -25.166104,921.00007 C -59.127024,935.00007 -47.140828,960.00008 -12.181048,973.00008 C 14.787899,980.00008 11.791343,983.00008 6.7970925,999.00008 C 2.8017033,1014.0001 2.8017033,1018.0001 -30.160355,1013.0001 C -111.06722,1000.0001 -140.03389,955.00008 -153.01889,920.00007 C -202.9614,991.00008 -251.90529,1030.0001 -297.85224,1018.0001 C -320.82585,1013.0001 -331.81335,992.00008 -333.81085,966.00008 C -365.77419,981.00008 -402.73169,994.00008 -450.67642,1008.0001 C -461.66392,1012.0001 -470.65336,1007.0001 -455.67058,1000.0001 C -423.70753,984.00008 -373.76502,957.00008 -332.81196,928.00007 C -328.81668,910.00007 -319.82696,885.00007 -310.83724,867.00007 C -305.84307,856.00007 -302.84668,860.00007 -302.84668,869.00007 C -302.84668,876.00007 -304.84418,894.00007 -303.84529,907.00007 C -296.85335,901.00007 -286.86501,895.00007 -281.87085,890.00007 C -253.90279,865.00007 -222.93862,849.00007 -243.91446,809.00006 C -252.90418,791.00006 -259.89612,778.00006 -262.89251,770.00006 C -280.87196,763.00006 -275.87751,753.00006 -267.88668,736.00006 C -259.89612,719.00006 -256.89946,715.00006 -240.91779,734.00006 C -217.94418,761.00006 -214.94779,773.00006 -230.92945,771.00006 C -205.95806,835.00007 -211.95112,868.00007 -250.9064,906.00007 C -268.88557,925.00007 -287.8639,940.00008 -309.83863,952.00008 C -311.83613,969.00008 -304.84418,986.00008 -272.88112,981.00008 C -230.92945,975.00008 -183.98334,920.00007 -164.00639,878.00007 C -172.99612,843.00007 -192.97306,780.00006 -204.95917,748.00006 C -210.95223,732.00006 -204.95917,725.00006 -199.96501,712.00006 C -193.97195,699.00006 -190.97528,691.00006 -183.98334,709.00006 C -176.99139,726.00006 -155.01667,769.00006 -145.02806,820.00007 C -134.04084,871.00007 -136.03861,915.00007 -110.06833,939.00008 C -98.082194,950.00008 -83.099442,957.00008 -67.11783,961.00008 C -79.104053,927.00007 -54.132773,901.00007 -21.170715,889.00007 C -41.147717,870.00007 -72.11208,873.00007 -107.07186,871.00007 C -133.04195,870.00007 -130.04556,867.00007 -123.05333,844.00007 C -116.06139,821.00007 -108.07072,818.00007 -89.092554,810.00006 C -63.122441,800.00006 -37.152328,790.00006 -10.183353,782.00006 L 15.78676,774.00006 z "
       class="fil1"
       id="21460440" /><path
       style="fill:#ffffff"
       d="M -100.07992,733.00006 C -102.07761,747.00006 -99.081055,756.00006 -94.086804,763.00006 C -89.092554,770.00006 -79.104053,769.00006 -76.107497,761.00006 C -73.110942,752.00006 -71.113247,751.00006 -65.120135,758.00006 C -58.12819,765.00006 -35.154633,759.00006 -46.141967,724.00006 C -51.136218,710.00006 -53.13394,713.00006 -53.13394,729.00006 C -53.13394,754.00006 -61.124746,754.00006 -70.114386,730.00006 C -73.110942,721.00006 -77.106331,721.00006 -78.105192,733.00006 C -78.105192,756.00006 -88.093693,759.00006 -94.086804,736.00006 C -96.084499,726.00006 -98.082194,718.00006 -100.07992,733.00006 z "
       class="fil1"
       id="21460528" /><path
       style="fill:#ffffff"
       d="M 195.57986,515.00004 C 191.58444,523.00004 188.58791,529.00004 196.57869,535.00004 C 204.5695,541.00004 216.55572,557.00004 211.56147,575.00005 C 208.56491,589.00005 211.56147,600.00005 220.55111,580.00005 C 229.54078,559.00004 222.5488,534.00004 213.55916,518.00004 C 205.56836,504.00004 200.57411,507.00004 195.57986,515.00004 z "
       class="fil1"
       id="21460352" /><path
       style="fill:#ffffff"
       d="M 270.49364,880.00007 C 261.504,835.00007 220.55111,763.00006 159.62124,669.00005 C 157.62352,644.00005 156.62469,621.00005 156.62469,600.00005 C 165.61436,610.00005 171.60744,604.00005 168.61088,591.00005 C 162.61777,568.00005 153.62813,549.00004 142.64077,523.00004 C 138.64538,512.00004 127.65802,509.00004 122.66377,525.00004 C 115.6718,544.00004 114.67296,548.00004 123.66263,561.00004 C 122.66377,575.00005 127.65802,599.00005 129.65571,621.00005 C 118.66835,605.00005 104.68446,585.00005 93.697099,568.00005 C 110.67755,575.00005 120.66605,570.00005 105.68329,554.00004 C 90.700544,537.00004 69.724681,520.00004 56.739624,508.00004 C 43.754568,496.00004 37.761456,504.00004 39.759179,515.00004 C 40.758012,526.00004 41.756873,534.00004 40.758012,543.00004 C 39.759179,552.00004 42.755734,558.00004 55.740791,563.00005 C 81.710904,597.00005 107.68102,632.00005 131.65341,668.00005 C 134.64996,698.00006 140.64308,731.00006 143.63963,758.00006 C 151.63044,822.00007 163.61663,905.00007 153.62813,941.00008 C 145.63733,968.00008 153.62813,980.00008 166.61319,939.00008 C 178.59938,898.00007 177.60055,859.00007 169.60974,798.00006 C 166.61319,774.00006 165.61436,744.00006 162.61777,716.00006 C 204.5695,781.00006 242.52583,843.00007 259.50628,886.00007 C 268.49595,909.00007 276.48675,914.00007 270.49364,880.00007 z "
       class="fil1"
       id="21460264" /><path
       style="fill:#ffffff"
       d="M 203.57066,628.00005 C 207.56605,640.00005 212.5603,646.00005 215.55686,631.00005 C 217.55455,618.00005 221.54997,614.00005 223.54767,628.00005 C 226.54422,642.00005 234.53503,640.00005 236.53272,627.00005 C 239.52928,614.00005 243.52467,607.00005 245.52239,621.00005 C 247.52008,636.00005 246.52122,641.00005 244.52353,646.00005 C 243.52467,650.00005 235.53389,655.00005 229.54078,649.00005 C 222.5488,643.00005 220.55111,643.00005 215.55686,648.00005 C 204.5695,658.00005 200.57411,651.00005 198.57641,637.00005 C 197.57755,625.00005 201.57294,620.00005 203.57066,628.00005 z "
       class="fil1"
       id="21460176" /><path
       style="fill:#ffffff"
       d="M 42.755734,968.00008 C 52.744235,962.00008 57.738486,957.00008 65.729292,954.00008 C 73.720098,950.00008 79.713182,951.00008 73.720098,968.00008 C 67.726986,988.00008 70.723542,994.00008 83.708599,989.00008 C 95.694794,985.00008 102.68677,980.00008 112.67527,976.00008 C 121.66491,972.00008 131.65341,972.00008 117.66952,983.00008 C 106.68216,992.00008 90.700544,1004.0001 81.710904,1006.0001 C 61.733875,1011.0001 51.745374,1003.0001 55.740791,987.00008 C 59.73618,972.00008 62.732736,966.00008 50.746541,971.00008 C 36.762623,977.00008 37.761456,971.00008 42.755734,968.00008 z "
       class="fil1"
       id="21460088" /><path
       style="fill:#ffffff"
       d="M 293.4672,586.00005 C 301.45801,593.00005 310.44767,593.00005 305.45342,578.00005 C 300.45917,563.00005 296.46375,545.00004 291.4695,528.00004 C 286.47525,511.00004 283.4787,507.00004 277.48561,515.00004 C 270.49364,524.00004 265.49939,527.00004 260.50514,533.00004 C 255.51089,538.00004 254.51203,549.00004 260.50514,559.00004 C 282.47986,710.00006 283.4787,777.00006 286.47525,833.00007 C 289.47181,889.00007 297.46262,915.00007 262.50284,953.00008 C 224.54653,994.00008 201.57294,1004.0001 184.5925,1008.0001 C 163.61663,1014.0001 155.62583,1023.0001 187.58905,1021.0001 C 234.53503,1018.0001 241.52697,1017.0001 279.48331,972.00008 C 301.45801,948.00008 312.44537,916.00007 310.44767,842.00007 C 308.44995,712.00006 290.47064,656.00005 293.4672,586.00005 z "
       class="fil1"
       id="21460000" /><path
       style="fill:#ffffff;fill-opacity:1;stroke:#ffffff;stroke-width:6.99999905;stroke-opacity:1"
       d="M 362.38787,591.00005 C 376.37176,598.00005 391.35451,602.00005 380.36715,585.00005 C 369.37982,569.00005 360.39015,542.00004 354.39704,522.00004 C 347.40512,502.00004 345.4074,503.00004 334.42006,520.00004 C 317.43959,546.00004 332.42237,571.00005 336.41776,601.00005 C 350.40165,708.00006 364.38557,817.00007 368.38095,846.00007 C 372.37637,878.00007 377.37062,899.00007 369.37982,934.00007 C 366.38326,945.00008 370.37865,948.00008 377.37062,935.00007 C 405.3384,882.00007 386.36026,836.00007 383.36371,806.00006 C 378.36946,760.00006 362.38787,638.00005 359.39132,589.00005"
       class="fil2 str1"
       id="21459912" /><path
       style="fill:#ffffff"
       d="M 431.30857,672.00005 C 429.31088,681.00005 417.32468,681.00005 418.32354,671.00005 C 419.32238,661.00005 418.32354,663.00005 418.32354,655.00005 C 417.32468,647.00005 427.31318,642.00005 432.30743,649.00005 C 438.30054,656.00005 448.28904,678.00005 451.2856,686.00005 C 455.28099,694.00006 457.27868,692.00006 457.27868,681.00005 C 456.27985,668.00005 454.28216,656.00005 455.28099,647.00005 C 456.27985,642.00005 459.27641,636.00005 465.26952,631.00005 C 472.26146,626.00005 476.25685,625.00005 479.25341,634.00005 C 481.25113,642.00005 487.24421,643.00005 484.24766,650.00005 C 480.25227,660.00005 471.2626,640.00005 465.26952,654.00005 C 462.27296,664.00005 465.26952,692.00006 464.27066,702.00006 C 464.27066,711.00006 460.27527,724.00006 453.28329,709.00006 C 448.28904,699.00006 441.2971,682.00005 431.30857,672.00005 z "
       class="fil1"
       id="21459824" /><path
       style="fill:#ffffff"
       d="M 428.31204,795.00006 C 428.31204,788.00006 431.30857,786.00006 443.29479,776.00006 C 453.28329,768.00006 481.25113,748.00006 490.24077,739.00006 C 499.23041,730.00006 506.22238,722.00006 508.22008,733.00006 C 509.21894,744.00006 511.21663,748.00006 500.22927,754.00006 C 489.24191,759.00006 460.27527,777.00006 451.2856,784.00006 C 441.2971,792.00006 428.31204,802.00006 428.31204,795.00006 z "
       class="fil1"
       id="21459736" /><path
       style="fill:#ffffff"
       d="M 701.99709,874.00007 C 699.9994,860.00007 696.00398,846.00007 678.02467,819.00007 C 660.04537,793.00006 644.06375,769.00006 628.08214,746.00006 C 623.08789,686.00005 616.09595,622.00005 616.09595,588.00005 C 624.08673,596.00005 630.07984,588.00005 626.08445,575.00005 C 622.08903,562.00004 614.09822,527.00004 608.10514,512.00004 C 603.11089,498.00004 597.11778,501.00004 589.12697,514.00004 C 582.13503,527.00004 577.14078,533.00004 582.13503,543.00004 C 584.13272,601.00005 592.12353,657.00005 601.11317,708.00006 C 585.13156,686.00005 570.1488,665.00005 556.16491,646.00005 C 555.16605,624.00005 553.16836,602.00005 552.1695,580.00005 C 561.15916,587.00005 565.15455,585.00005 560.1603,572.00005 C 556.16491,558.00004 545.17755,529.00004 540.1833,516.00004 C 535.18905,503.00004 532.1925,503.00004 525.20055,513.00004 C 514.21319,530.00004 511.21663,542.00004 520.20627,558.00004 C 521.20513,572.00005 523.20283,587.00005 524.20169,600.00005 C 515.21202,588.00005 507.22122,576.00005 500.22927,565.00005 C 509.21894,570.00005 516.21088,562.00004 506.22238,553.00004 C 497.23272,544.00004 478.25455,529.00004 470.26377,518.00004 C 461.2741,507.00004 453.28329,507.00004 453.28329,517.00004 C 453.28329,527.00004 454.28216,536.00004 453.28329,545.00004 C 451.2856,553.00004 451.2856,561.00004 463.2718,575.00005 C 486.24538,603.00005 508.22008,632.00005 529.19594,659.00005 C 537.18675,759.00006 542.181,823.00007 540.1833,863.00007 C 539.18444,887.00007 531.19363,901.00007 518.20858,905.00007 C 505.22352,910.00007 492.23846,901.00007 480.25227,883.00007 C 458.27755,851.00007 450.28674,857.00007 433.30629,885.00007 C 417.32468,911.00007 406.33732,933.00007 397.34768,952.00008 C 389.35687,970.00008 375.37296,986.00008 362.3879,962.00008 C 350.40168,938.00008 348.40398,911.00007 349.40284,892.00007 C 349.40284,873.00007 346.40629,858.00007 339.41434,888.00007 C 321.43503,962.00008 332.42237,978.00008 352.3994,994.00008 C 377.37065,1016.0001 385.36146,1018.0001 398.34651,999.00008 C 424.31663,963.00008 431.30857,931.00007 446.29135,913.00007 C 458.27755,899.00007 458.27755,910.00007 464.27066,917.00007 C 479.25341,936.00007 492.23846,943.00008 513.21433,946.00008 C 534.19019,950.00008 572.14653,932.00007 569.14997,862.00007 C 567.15228,820.00007 564.15569,763.00006 560.1603,702.00006 C 580.13731,730.00006 598.11664,755.00006 612.10053,775.00006 C 619.09247,815.00007 623.08789,851.00007 621.0902,880.00007 C 619.09247,913.00007 626.08445,913.00007 633.07639,879.00007 C 635.07409,865.00007 635.07409,836.00007 632.07756,801.00006 C 659.04651,837.00007 675.02812,861.00007 686.01548,878.00007 C 698.00168,899.00007 704.99365,917.00007 701.99709,874.00007 z "
       class="fil1"
       id="21459648" /><path
       style="fill:#ffffff"
       d="M 644.06375,543.00004 C 638.07064,553.00004 639.0695,555.00004 646.06145,566.00005 C 653.05342,578.00005 659.04651,600.00005 659.04651,617.00005 C 659.04651,634.00005 665.03962,632.00005 668.03617,616.00005 C 671.03273,601.00005 670.03387,571.00005 661.0442,550.00004 C 652.05456,528.00004 649.05801,536.00004 644.06375,543.00004 z "
       class="fil1"
       id="21459560" /><path
       style="fill:#ffffff"
       d="M 724.97065,575.00005 C 735.95801,585.00005 741.9511,582.00005 734.95915,565.00005 C 726.96834,548.00004 718.97754,530.00004 711.98559,514.00004 C 703.99479,497.00004 701.99709,501.00004 693.00743,513.00004 C 683.01892,525.00004 682.02006,534.00004 686.01548,541.00004 C 704.99365,700.00006 713.98329,783.00006 715.98098,831.00007 C 719.9764,901.00007 702.99593,940.00008 635.07409,985.00008 C 613.09939,1000.0001 588.12814,1017.0001 641.0672,1004.0001 C 693.00743,991.00008 748.94307,956.00008 742.94996,811.00006 C 737.95571,681.00005 720.97523,624.00005 724.97065,575.00005 z "
       class="fil1"
       id="21459472" /><path
       id="path2695"
       class="fil1"
       d="M 481.62438,787.13315 C 477.62899,793.07173 474.63244,797.52565 482.62324,801.97959 C 490.61405,806.43351 502.60024,818.31068 497.60599,831.67246 C 494.60944,842.06496 497.60599,850.23051 506.59566,835.38407 C 515.5853,819.79532 508.59335,801.23726 499.60369,789.36012 C 491.61288,778.96759 486.61863,781.19456 481.62438,787.13315 z "
       style="fill:#ffffff" /><path
       style="fill:#ffffff;fill-opacity:1;fill-rule:evenodd;stroke:none;stroke-width:1pt;stroke-linecap:butt;stroke-linejoin:miter;stroke-opacity:1"
       sodipodi:nodetypes="ccccccccccccc"
       id="path819"
       d="M 536.53269,974.99273 C 539.40065,978.64317 541.25594,982.02098 536.30254,988.01892 C 531.60759,992.32084 528.30057,994.68954 523.60564,998.99155 C 521.38916,1002.7729 519.97291,1008.5088 526.75332,1010.3358 C 539.27317,1013.8552 562.90435,998.20695 562.90435,997.81395 C 567.59928,994.29449 566.03429,987.64509 565.64128,987.64509 C 562.90435,984.51512 556.73646,986.37399 552.58678,985.86765 C 550.61107,985.86765 549.44911,981.75899 552.53303,976.02307 C 555.10711,972.45406 556.02771,970.26945 557.77325,965.87194 C 559.72771,961.56998 558.04943,958.69852 551.00699,956.35101 C 543.83357,955.04804 540.96915,955.69953 533.01324,956.35101 C 528.71133,957.26451 527.24192,959.18711 526.45944,964.40254 C 526.76748,972.31243 531.57925,971.86275 536.53269,974.99273 z " /></g></svg>