<?xml version="1.0" encoding="UTF-8" standalone="no"?>
<svg xmlns="http://www.w3.org/2000/svg" xmlns:xlink="http://www.w3.org/1999/xlink" version="1.0" x="0.0000000" y="0.0000000" width="600.00000" height="300.00000" id="svg3405">
  <defs id="defs3407"/>
  <rect width="250.00000" height="125.00000" x="125.00000" y="552.36218" transform="matrix(2.400000,0.000000,0.000000,2.400000,-300.0000,-1325.669)" fill="#0051ba" fill-opacity="1.0000000" fill-rule="evenodd" stroke="none" stroke-width="1.000pt" stroke-linecap="butt" stroke-linejoin="miter" stroke-opacity="1.0000000"/>
  <path d="M 125.0,677.3 L 375.0,677.3 L 375.0,552.3 L 125.0,677.3 z " transform="matrix(2.400000,0.000000,0.000000,2.400000,-300.0000,-1325.669)" fill="#215b33" fill-opacity="1.0000000" fill-rule="evenodd" stroke="none" stroke-width="1.000pt" stroke-linecap="butt" stroke-linejoin="miter" stroke-opacity="1.0000000"/>
  <path d="M 125.0,677.3 L 137.5,677.3 L 375.0,558.6 L 375.0,552.3 L 362.4,552.3 L 125.0,671.0 L 125.0,677.3 z " transform="matrix(2.400000,0.000000,0.000000,2.400000,-300.0000,-1325.669)" fill="#fcd116" fill-opacity="1.0000000" fill-rule="evenodd" stroke="none" stroke-width="1.000pt" stroke-linecap="butt" stroke-linejoin="miter" stroke-opacity="1.0000000"/>
  <path d="M 93.46,575.1 L 102.5,575.1 L 105.3,566.5 L 108.1,575.1 L 117.2,575.1 L 109.8,580.5 L 112.7,589.1 L 105.3,583.8 L 98.00,589.1 L 100.8,580.5 L 93.46,575.1 z " transform="matrix(2.400000,0.000000,0.000000,2.400000,-147.8494,-1299.685)" fill="#ffffff" fill-opacity="1.0000000" fill-rule="evenodd" stroke="none" stroke-width="1.000pt" stroke-linecap="butt" stroke-linejoin="miter" stroke-opacity="1.0000000"/>
  <path d="M 93.46,575.1 L 102.5,575.1 L 105.3,566.5 L 108.1,575.1 L 117.2,575.1 L 109.8,580.5 L 112.7,589.1 L 105.3,583.8 L 98.00,589.1 L 100.8,580.5 L 93.46,575.1 z " transform="matrix(2.400000,0.000000,0.000000,2.400000,-202.9894,-1244.545)" fill="#ffffff" fill-opacity="1.0000000" fill-rule="evenodd" stroke="none" stroke-width="1.000pt" stroke-linecap="butt" stroke-linejoin="miter" stroke-opacity="1.0000000"/>
  <path d="M 93.46,575.1 L 102.5,575.1 L 105.3,566.5 L 108.1,575.1 L 117.2,575.1 L 109.8,580.5 L 112.7,589.1 L 105.3,583.8 L 98.00,589.1 L 100.8,580.5 L 93.46,575.1 z " transform="matrix(2.400000,0.000000,0.000000,2.400000,-92.70941,-1244.545)" fill="#ffffff" fill-opacity="1.0000000" fill-rule="evenodd" stroke="none" stroke-width="1.000pt" stroke-linecap="butt" stroke-linejoin="miter" stroke-opacity="1.0000000"/>
  <path d="M 93.46,575.1 L 102.5,575.1 L 105.3,566.5 L 108.1,575.1 L 117.2,575.1 L 109.8,580.5 L 112.7,589.1 L 105.3,583.8 L 98.00,589.1 L 100.8,580.5 L 93.46,575.1 z " transform="matrix(2.400000,0.000000,0.000000,2.400000,-202.9894,-1354.825)" fill="#ffffff" fill-opacity="1.0000000" fill-rule="evenodd" stroke="none" stroke-width="1.000pt" stroke-linecap="butt" stroke-linejoin="miter" stroke-opacity="1.0000000"/>
  <path d="M 93.46,575.1 L 102.5,575.1 L 105.3,566.5 L 108.1,575.1 L 117.2,575.1 L 109.8,580.5 L 112.7,589.1 L 105.3,583.8 L 98.00,589.1 L 100.8,580.5 L 93.46,575.1 z " transform="matrix(2.400000,0.000000,0.000000,2.400000,-92.70941,-1354.825)" fill="#ffffff" fill-opacity="1.0000000" fill-rule="evenodd" stroke="none" stroke-width="1.000pt" stroke-linecap="butt" stroke-linejoin="miter" stroke-opacity="1.0000000"/>
</svg>
