<?xml version="1.0" encoding="UTF-8" standalone="no"?>
<!DOCTYPE svg PUBLIC "-//W3C//DTD SVG 1.0//EN"
"http://www.w3.org/TR/2001/REC-SVG-20010904/DTD/svg10.dtd">
<svg
   xmlns="http://www.w3.org/2000/svg"
   xmlns:xlink="http://www.w3.org/1999/xlink"
   version="1.0"
   x="0.0000000"
   y="0.0000000"
   width="300.00000"
   height="365.70001"
   id="svg1">
  <defs
     id="defs3" />
  <path
     d="M 92.725000,959.63718 L 952.91250,959.63718 L 422.58750,429.31218 L 987.35000,429.31218 L 92.725000,-130.92532 L 92.725000,959.63718 z "
     transform="matrix(0.335336,0.000000,0.000000,0.335332,-31.09403,43.90320)"
     style="fill:#003893;fill-opacity:1.0000000;fill-rule:evenodd;stroke:none;stroke-width:1.0000000pt;stroke-linecap:butt;stroke-linejoin:miter;stroke-opacity:1.0000000;"
     id="path923" />
  <path
     d="M 125.00000,927.36218 L 875.00000,927.36218 L 125.00000,177.36218 L 125.00000,927.36218 z "
     transform="matrix(0.335336,0.000000,0.000000,0.335332,-31.09403,43.90320)"
     style="fill:#ce1126;fill-opacity:1.0000000;fill-rule:evenodd;stroke:none;stroke-width:1.0000000pt;stroke-linecap:butt;stroke-linejoin:miter;stroke-opacity:1.0000000;"
     id="path908" />
  <path
     d="M 125.00000,397.03718 L 875.00000,397.03718 L 125.00000,-72.637817 L 125.00000,397.03718 z "
     transform="matrix(0.335336,0.000000,0.000000,0.335332,-31.09403,43.90320)"
     style="fill:#ce1126;fill-opacity:1.0000000;fill-rule:evenodd;stroke:none;stroke-width:1.0000000pt;stroke-linecap:butt;stroke-linejoin:miter;stroke-opacity:1.0000000;"
     id="path2152" />
  <path
     d="M 293.65625,195.75000 L 285.90625,226.21875 L 258.87500,210.15625 L 263.34375,241.28125 L 232.21875,236.78125 L 248.28125,263.81250 L 217.81250,271.59375 L 243.00000,290.43750 L 217.81250,309.25000 L 248.28125,317.03125 L 240.25000,330.53125 L 384.75000,330.53125 L 376.71875,317.03125 L 407.18750,309.25000 L 382.00000,290.43750 L 407.18750,271.59375 L 376.71875,263.81250 L 392.78125,236.78125 L 361.65625,241.28125 L 366.12500,210.15625 L 339.09375,226.21875 L 331.34375,195.75000 L 312.50000,220.90625 L 293.65625,195.75000 z "
     transform="matrix(0.335336,0.000000,0.000000,0.335332,-31.09403,43.90320)"
     style="fill:#ffffff;fill-opacity:1.0000000;fill-rule:evenodd;stroke:none;stroke-width:1.0000000pt;stroke-linecap:butt;stroke-linejoin:miter;stroke-opacity:1.0000000;"
     id="path3415" />
  <path
     d="M 163.12500,220.59375 C 163.12478,220.69903 163.12500,220.80092 163.12500,220.90625 C 163.12500,303.36128 230.04499,370.28124 312.50000,370.28125 C 394.95501,370.28125 461.87500,303.36128 461.87500,220.90625 C 461.87500,220.80092 461.87522,220.69903 461.87500,220.59375 C 438.48771,280.31002 380.47342,322.68750 312.50000,322.68750 C 244.52658,322.68750 186.51229,280.31002 163.12500,220.59375 z "
     transform="matrix(0.335336,0.000000,0.000000,0.335332,-31.09403,43.90320)"
     style="fill:#ffffff;fill-opacity:1.0000000;fill-rule:evenodd;stroke:none;stroke-width:1.0000000pt;stroke-linecap:butt;stroke-linejoin:miter;stroke-opacity:1.0000000;"
     id="path1541" />
  <path
     d="M -436.41595,485.80598 L -457.49155,436.06128 L -500.61595,468.60368 L -493.99565,414.98568 L -547.61365,421.60598 L -515.07125,378.48158 L -564.81595,357.40598 L -515.07125,336.33038 L -547.61365,293.20598 L -493.99565,299.82628 L -500.61595,246.20828 L -457.49155,278.75068 L -436.41595,229.00598 L -415.34035,278.75068 L -372.21595,246.20828 L -378.83625,299.82628 L -325.21825,293.20598 L -357.76065,336.33038 L -308.01595,357.40598 L -357.76065,378.48158 L -325.21825,421.60598 L -378.83625,414.98568 L -372.21595,468.60368 L -415.34035,436.06128 L -436.41595,485.80598 z "
     transform="matrix(0.419170,0.000000,0.000000,0.419165,256.6309,116.1479)"
     style="fill:#ffffff;fill-opacity:1.0000000;fill-rule:evenodd;stroke:none;stroke-width:1.0000000pt;stroke-linecap:butt;stroke-linejoin:miter;stroke-opacity:1.0000000;"
     id="path5910" />
</svg>
