<?xml version="1.0" encoding="UTF-8" standalone="yes"?>
<svg width="900" height="600">
<path d="M900 0 l0 200 l-900 0 l0 -200 l900 0 z" fill="#ce1126"/>
<path d="M900 200 l0 200 l-900 0 l0 -200 l900 0 z" fill="#ffffff"/>
<path d="M285 287 c12.31 2.999 28.69 -0.9988 41 2 l-32.75 24.25 l12.5 40.5 l-33.75 -23.75 c-12.86 5.299 -23.51 17.51 -35.75 23.75 l12.5 -40.5 l-32.75 -24.25 c12.31 -2.999 28.69 0.9988 41 -2 l14 -40 l14 40 z" fill="#009e60"/>
<path d="M648 288 c12.31 2.999 28.69 -0.9988 41 2 l-32.75 24.25 l12.5 40.5 c-12.24 -6.245 -22.89 -18.45 -35.75 -23.75 l-33.75 23.75 l12.5 -40.5 l-32.75 -24.25 c12.31 -2.999 28.69 0.9988 41 -2 l14 -40 l14 40 z" fill="#009e60"/>
<path d="M257 287 c-12.31 2.999 -28.69 -0.9988 -41 2 c-0.7521 -0.1643 -1.867 -0.8726 -1.75 -1.75 l42.75 -0.25 z" fill="#3fb687"/>
<path d="M326 289 c-12.31 -2.999 -28.69 0.9988 -41 -2 l42.75 0.25 c0.1173 0.8774 -0.9979 1.586 -1.75 1.75 z" fill="#3fb687"/>
<path d="M620 288 c-12.31 2.999 -28.69 -0.9988 -41 2 c-0.7521 -0.1643 -1.867 -0.8726 -1.75 -1.75 l42.75 -0.25 z" fill="#3fb687"/>
<path d="M689 290 c-12.31 -2.999 -28.69 0.9988 -41 -2 l42.75 0.25 c0.1174 0.8774 -0.9979 1.586 -1.75 1.75 z" fill="#3fb687"/>
<path d="M900 400 l0 200 l-900 0 l0 -200 l900 0 z" fill="#000000"/>
</svg>
