<?xml version="1.0" encoding="UTF-8" standalone="no"?>
<svg xmlns:svg="http://www.w3.org/2000/svg" xmlns="http://www.w3.org/2000/svg" xmlns:xlink="http://www.w3.org/1999/xlink" version="1.0" width="4320" height="2880" id="svg1399">
  <defs id="defs1413"/>
  <rect width="4320" height="1440" x="0" y="0" id="red stripe" fill="#ce1126"/>
  <rect width="4320" height="1440" x="0" y="1440" id="white stripe" fill="#ffffff"/>
  <circle cx="880" cy="720" r="530" fill="#ffffff"/>
  <circle cx="1210" cy="720" r="580" fill="#ce1126"/>
  <use transform="translate(-294.9999,220.7)" id="use1417" x="0" y="0" width="4320" height="2880" xlink:href="#path1432"/>
  <path d="M 1307.,508.9 L 1228.,447.2 L 1149.5943,509.7 L 1180.,411.3 L 1100,351.96269 L 1198.,352.8 L 1227.5658,253.7 L 1257.,352.5 L 1356.,350.7 L 1275.,410.9 L 1307.,508.9 z " fill="#ffffff"/>
  <use transform="translate(295,220.7)" id="use1419" x="0" y="0" width="4320" height="2880" xlink:href="#path1432"/>
  <use transform="translate(-183.7,567.7)" id="use1421" x="0" y="0" width="4320" height="2880" xlink:href="#path1432"/>
  <use transform="translate(185,567.7)" id="use1423" x="0" y="0" width="4320" height="2880" xlink:href="#path1432"/>
</svg>
