<svg width="450" height="300">
  <defs
     id="defs19404" />
  <rect id="saffron" width="450" height="100" x="0" y="200" fill="#138808" /> <rect id="white" width="450" height="100" x="0" y="100" fill="#fff" /> <rect id="saffron" width="450" height="100" x="0" y="0" fill="#ff9933" />
  <g
     transform="matrix(0.833333,0,0,0.833333,37.50011,25.00004)"
     id="g2126">
    <path
       d="M 269.99999,150.00001 C 269.99999,174.85284 249.85279,195.00004 224.99995,195.00004 C 200.14712,195.00004 179.99992,174.85284 179.99992,150.00001 C 179.99992,125.14717 200.14712,104.99998 224.99995,104.99998 C 249.85279,104.99998 269.99999,125.14717 269.99999,150.00001 L 269.99999,150.00001 z "
       style="fill:#000080;fill-opacity:1;fill-rule:nonzero;stroke:none;stroke-width:1.875;stroke-linecap:round;stroke-linejoin:round;stroke-miterlimit:4;stroke-opacity:1"
       id="path2128" />
    <path
       d="M 224.99992,149.99992 L 223.62831,165.79667 L 224.82696,189.64001 C 223.99091,189.63636 223.15518,189.60626 222.32102,189.54976 C 222.50169,188.17741 221.53565,186.91843 220.1633,186.73776 C 218.79094,186.55709 217.53197,187.52313 217.35129,188.89549 C 216.53094,188.73416 215.71589,188.54693 214.90739,188.33407 L 222.23631,165.61341 L 224.99992,149.99992 z M 224.99992,149.99992 L 219.58654,164.90341 L 214.57325,188.24454 C 213.76662,188.02463 212.96716,187.77926 212.17606,187.50878 C 212.70576,186.22996 212.09848,184.76384 210.81965,184.23414 C 209.54082,183.70443 208.07471,184.31171 207.545,185.59054 C 206.79436,185.22239 206.05555,184.8306 205.32967,184.41572 L 218.28941,164.36612 L 224.99992,149.99992 z M 224.99992,149.99992 L 215.91369,162.9945 L 205.03009,184.24276 C 204.30787,183.82158 203.59916,183.37765 202.90501,182.91164 C 203.74765,181.81348 203.54052,180.24015 202.44237,179.39751 C 201.34421,178.55487 199.77088,178.762 198.92824,179.86015 C 198.29845,179.31027 197.68622,178.7406 197.09246,178.152 L 214.79982,162.13979 L 224.99992,149.99992 z M 224.99992,149.99992 L 212.86006,160.20003 L 196.84785,177.90739 C 196.25925,177.31363 195.68958,176.7014 195.1397,176.07162 C 196.23785,175.22897 196.44499,173.65564 195.60234,172.55748 C 194.7597,171.45933 193.18637,171.2522 192.08821,172.09484 C 191.6222,171.40069 191.17827,170.69198 190.75709,169.96975 L 212.00535,159.08616 L 224.99992,149.99992 z M 224.99992,149.99992 L 210.63373,156.71044 L 190.58412,169.67018 C 190.16926,168.9443 189.77745,168.20549 189.40931,167.45485 C 190.68814,166.92514 191.29542,165.45903 190.76571,164.1802 C 190.23601,162.90137 188.7699,162.29409 187.49107,162.82379 C 187.2206,162.03269 186.97522,161.23323 186.75531,160.4266 L 210.09644,155.41331 L 224.99992,149.99992 z M 224.99992,149.99992 L 209.38644,152.76354 L 186.66578,160.09246 C 186.45291,159.28396 186.26568,158.46891 186.10436,157.64856 C 187.47672,157.46788 188.44277,156.20891 188.26209,154.83655 C 188.08142,153.4642 186.82244,152.49816 185.45009,152.67883 C 185.39359,151.84467 185.36349,151.00894 185.35984,150.17289 L 209.20318,151.37154 L 224.99992,149.99992 z M 224.99992,149.99992 L 209.20318,148.62831 L 185.35984,149.82696 C 185.36349,148.99091 185.39359,148.15518 185.45009,147.32102 C 186.82244,147.50169 188.08142,146.53565 188.26209,145.1633 C 188.44277,143.79094 187.47672,142.53197 186.10436,142.35129 C 186.26568,141.53094 186.45291,140.71589 186.66578,139.90739 L 209.38644,147.23631 L 224.99992,149.99992 z M 224.99992,149.99992 L 210.09644,144.58654 L 186.75531,139.57325 C 186.97522,138.76662 187.2206,137.96716 187.49107,137.17606 C 188.7699,137.70576 190.23601,137.09848 190.76571,135.81965 C 191.29542,134.54082 190.68814,133.07471 189.40931,132.545 C 189.77745,131.79436 190.16926,131.05555 190.58412,130.32967 L 210.63373,143.28941 L 224.99992,149.99992 z M 224.99992,149.99992 L 212.00535,140.91369 L 190.75709,130.03009 C 191.17827,129.30787 191.6222,128.59916 192.08821,127.90501 C 193.18637,128.74765 194.7597,128.54052 195.60234,127.44237 C 196.44499,126.34421 196.23785,124.77088 195.1397,123.92824 C 195.68958,123.29845 196.25925,122.68622 196.84785,122.09246 L 212.86006,139.79982 L 224.99992,149.99992 z M 224.99992,149.99992 L 214.79982,137.86006 L 197.09246,121.84785 C 197.68622,121.25925 198.29845,120.68958 198.92824,120.1397 C 199.77088,121.23785 201.34421,121.44499 202.44237,120.60234 C 203.54052,119.7597 203.74765,118.18637 202.90501,117.08821 C 203.59916,116.6222 204.30787,116.17827 205.03009,115.75709 L 215.91369,137.00535 L 224.99992,149.99992 z M 224.99992,149.99992 L 218.28941,135.63373 L 205.32967,115.58412 C 206.05555,115.16926 206.79436,114.77745 207.545,114.40931 C 208.07471,115.68814 209.54082,116.29542 210.81965,115.76571 C 212.09848,115.23601 212.70576,113.7699 212.17606,112.49107 C 212.96716,112.2206 213.76662,111.97522 214.57325,111.75531 L 219.58654,135.09644 L 224.99992,149.99992 z M 224.99992,149.99992 L 222.23631,134.38644 L 214.90739,111.66578 C 215.71589,111.45291 216.53094,111.26568 217.35129,111.10436 C 217.53197,112.47672 218.79094,113.44277 220.1633,113.26209 C 221.53565,113.08142 222.50169,111.82244 222.32102,110.45009 C 223.15518,110.39359 223.99091,110.36349 224.82696,110.35984 L 223.62831,134.20318 L 224.99992,149.99992 z M 224.99992,149.99992 L 226.37154,134.20318 L 225.17289,110.35984 C 226.00894,110.36349 226.84467,110.39359 227.67883,110.45009 C 227.49816,111.82244 228.4642,113.08142 229.83655,113.26209 C 231.20891,113.44277 232.46788,112.47672 232.64856,111.10436 C 233.46891,111.26568 234.28396,111.45291 235.09246,111.66578 L 227.76354,134.38644 L 224.99992,149.99992 z M 224.99992,149.99992 L 230.41331,135.09644 L 235.4266,111.75531 C 236.23323,111.97522 237.03269,112.2206 237.82379,112.49107 C 237.29409,113.7699 237.90137,115.23601 239.1802,115.76571 C 240.45903,116.29542 241.92514,115.68814 242.45485,114.40931 C 243.20549,114.77745 243.9443,115.16926 244.67018,115.58412 L 231.71044,135.63373 L 224.99992,149.99992 z M 224.99992,149.99992 L 234.08616,137.00535 L 244.96975,115.75709 C 245.69198,116.17827 246.40069,116.6222 247.09484,117.08821 C 246.2522,118.18637 246.45933,119.7597 247.55748,120.60234 C 248.65564,121.44499 250.22897,121.23785 251.07162,120.1397 C 251.7014,120.68958 252.31363,121.25925 252.90739,121.84785 L 235.20003,137.86006 L 224.99992,149.99992 z M 224.99992,149.99992 L 237.13979,139.79982 L 253.152,122.09246 C 253.7406,122.68622 254.31027,123.29845 254.86015,123.92824 C 253.762,124.77088 253.55487,126.34421 254.39751,127.44237 C 255.24015,128.54052 256.81348,128.74765 257.91164,127.90501 C 258.37765,128.59916 258.82158,129.30787 259.24276,130.03009 L 237.9945,140.91369 L 224.99992,149.99992 z M 224.99992,149.99992 L 239.36612,143.28941 L 259.41572,130.32967 C 259.8306,131.05555 260.22239,131.79436 260.59054,132.545 C 259.31171,133.07471 258.70443,134.54082 259.23414,135.81965 C 259.76384,137.09848 261.22996,137.70576 262.50878,137.17606 C 262.77926,137.96716 263.02463,138.76662 263.24454,139.57325 L 239.90341,144.58654 L 224.99992,149.99992 z M 224.99992,149.99992 L 240.61341,147.23631 L 263.33407,139.90739 C 263.54693,140.71589 263.73416,141.53094 263.89549,142.35129 C 262.52313,142.53197 261.55709,143.79094 261.73776,145.1633 C 261.91843,146.53565 263.17741,147.50169 264.54976,147.32102 C 264.60626,148.15518 264.63636,148.99091 264.64001,149.82696 L 240.79667,148.62831 L 224.99992,149.99992 z M 224.99992,149.99992 L 240.79667,151.37154 L 264.64001,150.17289 C 264.63636,151.00894 264.60626,151.84467 264.54976,152.67883 C 263.17741,152.49816 261.91843,153.4642 261.73776,154.83655 C 261.55709,156.20891 262.52313,157.46788 263.89549,157.64856 C 263.73416,158.46891 263.54693,159.28396 263.33407,160.09247 L 240.61341,152.76354 L 224.99992,149.99992 z M 224.99992,149.99992 L 239.90341,155.41331 L 263.24454,160.4266 C 263.02463,161.23323 262.77926,162.03269 262.50878,162.82379 C 261.22996,162.29409 259.76384,162.90137 259.23414,164.1802 C 258.70443,165.45903 259.31171,166.92514 260.59054,167.45485 C 260.22239,168.20549 259.8306,168.9443 259.41572,169.67018 L 239.36612,156.71044 L 224.99992,149.99992 z M 224.99992,149.99992 L 237.9945,159.08616 L 259.24276,169.96975 C 258.82158,170.69198 258.37765,171.40069 257.91164,172.09484 C 256.81348,171.2522 255.24015,171.45933 254.39751,172.55748 C 253.55487,173.65564 253.762,175.22897 254.86015,176.07162 C 254.31027,176.7014 253.7406,177.31363 253.152,177.90739 L 237.13979,160.20003 L 224.99992,149.99992 z M 224.99992,149.99992 L 235.20003,162.13979 L 252.90739,178.152 C 252.31363,178.7406 251.7014,179.31027 251.07162,179.86015 C 250.22897,178.762 248.65564,178.55487 247.55748,179.39751 C 246.45933,180.24015 246.2522,181.81348 247.09484,182.91164 C 246.40069,183.37765 245.69198,183.82158 244.96975,184.24276 L 234.08616,162.9945 L 224.99992,149.99992 z M 224.99992,149.99992 L 231.71044,164.36612 L 244.67018,184.41572 C 243.9443,184.8306 243.20549,185.22239 242.45485,185.59054 C 241.92514,184.31171 240.45903,183.70443 239.1802,184.23414 C 237.90137,184.76384 237.29409,186.22996 237.82379,187.50878 C 237.03269,187.77926 236.23323,188.02463 235.4266,188.24454 L 230.41331,164.90341 L 224.99992,149.99992 z M 224.99992,149.99992 L 227.76354,165.61341 L 235.09246,188.33407 C 234.28396,188.54693 233.46891,188.73416 232.64856,188.89549 C 232.46788,187.52313 231.20891,186.55709 229.83655,186.73776 C 228.4642,186.91843 227.49816,188.17741 227.67883,189.54976 C 226.84467,189.60626 226.00894,189.63636 225.17289,189.64001 L 226.37154,165.79667 L 224.99992,149.99992 z "
       style="fill:#ffffff;fill-opacity:1;fill-rule:evenodd;stroke:none;stroke-width:0.25pt;stroke-linecap:butt;stroke-linejoin:miter;stroke-opacity:1"
       id="path2130" />
    <path
       d="M 233.08973,149.99988 C 233.08973,154.4678 229.46777,158.08977 224.99985,158.08977 C 220.53193,158.08977 216.90997,154.4678 216.90997,149.99988 C 216.90997,145.53196 220.53193,141.91 224.99985,141.91 C 229.46777,141.91 233.08973,145.53196 233.08973,149.99988 z "
       style="fill:#000080;fill-opacity:1;fill-rule:nonzero;stroke:none;stroke-width:1.875;stroke-linecap:round;stroke-linejoin:round;stroke-miterlimit:4;stroke-opacity:1"
       id="path2132" />
  </g>
</svg>
