<?xml version="1.0" encoding="UTF-8" standalone="no"?>
<svg xmlns:dc="http://purl.org/dc/elements/1.1/" xmlns:cc="http://web.resource.org/cc/" xmlns:rdf="http://www.w3.org/1999/02/22-rdf-syntax-ns#" xmlns:svg="http://www.w3.org/2000/svg" xmlns="http://www.w3.org/2000/svg" width="750" height="450" id="svg2" version="1.0">
  
  <sodipodi:namedview borderopacity="1.0" bordercolor="#666666" pagecolor="#ffffff" id="base"/>
  <defs id="defs4">
    <marker id="ArrowEnd" viewBox="0 0 10 10" refX="0" refY="5" markerUnits="strokeWidth" markerWidth="4" markerHeight="3" orient="auto">
      <path d="M 0,0 L 10,5 L 0,10 L 0,0 z "/>
    </marker>
    <marker id="ArrowStart" viewBox="0 0 10 10" refX="10" refY="5" markerUnits="strokeWidth" markerWidth="4" markerHeight="3" orient="auto">
      <path d="M 10,0 L 0,5 L 10,10 L 10,0 z "/>
    </marker>
  </defs>
  <path d="M -749.11111,2830.1133 L -749.11111,2830.1133 L -749.11111,2830.1133 L -749.11111,2830.1133" fill="#000000" stroke="none"/>
  <path d="M 19.78,430.2 L 729.2,430.2 L 729.2,19.78 L 19.78,19.78 L 19.78,430.2 z " fill="#d53848" stroke="none"/>
  <path d="M 0,0 L 0,450 L 750,450 L 750,0 L 0,0 z " fill="#d53848" fill-opacity="1" stroke="none" stroke-width="39.58" stroke-opacity="1"/>
  <path d="M 36.14,413.6 L 713.8,413.6 L 713.8,36.32 L 36.14,36.32 L 36.14,413.6 z " fill="#0050c8" fill-opacity="1" stroke="none"/>
  <g transform="matrix(1.006632,0,0,1.006632,-1.316071,-0.335399)">
    <path d="M 374.0,112.2 C 374.0,112.2 305.0,163.1 305.0,223.1 C 305.0,283.1 374.0,335.4 374.0,335.4 C 374.0,335.4 442.6,287.4 442.6,223.1 C 442.6,158.8 374.0,112.2 374.0,112.2" fill="#d53848" stroke="none"/>
    <path d="M 432.2,242.9 C 433.7,236.5 434.5,229.9 434.5,223.1 C 434.5,165.5 374.0,122.8 374.0,122.8 C 374.0,122.8 312.6,166.9 312.6,223.1 C 312.6,229.8 313.5,236.4 315.0,242.8 L 432.2,242.9" fill="#66afeb" fill-opacity="1" stroke="none"/>
    <path d="M 373.5,324.4 C 373.5,324.4 421.0,290.3 432.2,242.8 L 315.0,242.8 C 326.3,289.4 373.5,324.4 373.5,324.4" fill="#013a76" stroke="none"/>
    <path d="M 434.3,229.8 C 423.9,237.8 365.4,234.0 365.4,234.0 L 362.1,242.9 L 432.2,242.9 C 432.5,241.7 432.7,240.5 433.0,239.2 L 434.3,229.8" fill="#e7dede" fill-opacity="1" stroke="none"/>
    <path d="M 370.4,286.4 C 369.5,279.7 342.2,272.6 327.7,273.1 C 332.2,280.8 337.3,287.9 342.5,294.1 C 349.9,285.6 370.7,288.7 370.4,286.4" fill="#fff100" stroke="none"/>
    <path d="M 425.8,261.5 C 422.3,261.6 416.0,262.2 411.7,264.7 C 405.4,268.2 391.5,272.0 385.2,270.1 C 379.0,268.2 369.2,274.3 370.4,275.6 C 372.4,277.7 386.7,275.2 386.7,289.0 C 386.7,300.5 370.1,295.4 363.6,300.2 C 359.6,303.1 356.9,306.2 355.3,308.2 C 365.5,318.5 373.5,324.4 373.5,324.4 C 373.5,324.4 392.5,310.8 409.2,288.8 L 417.1,277.5 C 420.3,272.5 423.2,267.1 425.8,261.5" fill="#fff100" stroke="none"/>
    <path d="M 352.0,258.4 L 354.5,258.4 L 354.5,229.1 L 352.0,229.1 L 352.0,258.4 z " fill="#000000" stroke="none"/>
    <path d="M 360.2,263.9 C 360.2,263.9 359.1,264.1 357.5,264.3 L 357.5,262.0 L 355.8,262.0 L 355.8,264.5 C 354.1,264.7 352.0,264.8 349.9,264.8 C 347.6,264.8 345.2,264.7 343.3,264.5 L 343.3,262.1 L 341.5,262.1 L 341.5,264.2 C 339.9,264.0 338.8,263.8 338.8,263.8 C 338.8,263.8 338.3,266.8 349.7,266.8 C 361.0,266.8 360.2,263.9 360.2,263.9" fill="#7b4800" stroke="none"/>
    <path d="M 370.2,172.8 C 370.2,172.8 360.8,166.8 347.9,169.7 C 335.0,172.6 332.2,181.3 332.2,181.3 L 336.5,179.2 L 336.6,181.1 L 340.5,178.4 L 340.6,180.4 L 344.0,177.0 L 344.5,179.2 L 347.5,176.3 L 347.7,177.8 L 352.6,174.5 L 352.6,176.6 L 356.5,174.7 L 356.2,176.8 L 363.5,175.3 C 363.5,175.3 346.2,181.6 344.0,196.6 L 347.3,192.2 L 347.6,194.3 L 349.7,189.7 L 350.3,191.5 L 352.2,187.3 L 352.7,189.8 L 355.6,185.3 L 355.9,187.9 L 359.2,183.0 L 359.2,185.4 L 362.8,181.2 L 362.6,184.3 C 362.6,184.3 366.1,181.2 367.2,181.2 L 363.1,187.0 L 364.4,187.4 C 364.4,187.4 361.5,190.0 361.3,190.4 C 361.1,190.9 363.2,190.4 363.2,190.4 C 363.2,190.4 360.6,193.3 360.5,194.2 C 360.4,195.0 362.2,194.2 362.2,194.2 C 362.2,194.2 359.9,197.4 359.5,198.6 C 359.2,199.8 360.8,198.8 360.8,198.8 C 360.8,198.8 359.3,202.7 359.2,203.8 C 359.1,204.8 360.9,203.5 360.9,203.5 L 361.9,210.1 L 363.7,202.2 L 364.8,204.0 L 364.8,198.4 L 365.8,199.3 L 365.7,195.6 L 367.0,197.0 L 366.3,192.5 L 367.8,194.3 L 367.5,190.4 L 369.0,192.0 L 369.0,187.0 L 370.3,188.3 L 370.5,184.8 L 372.1,185.6 C 372.1,185.6 372.3,181.4 374.1,181.6 C 375.9,181.7 378.1,183.7 377.2,184.7 L 378.8,184.2 L 378.4,188.3 L 379.9,187.3 L 379.7,190.3 L 380.9,189.7 L 380.4,193.5 L 381.9,192.6 L 382.0,197.3 L 383.7,196.0 L 383.6,201.5 L 385.2,200.0 L 385.2,204.6 L 386.8,203.4 L 388.5,207.8 L 388.1,201.2 L 389.3,202.3 L 387.1,197.6 L 388.8,197.4 L 387.0,194.3 L 388.7,194.4 L 386.2,191.3 L 387.9,190.9 L 384.2,188.0 L 386.2,187.2 L 382.4,184.6 L 383.9,184.0 L 381.2,181.0 L 384.0,182.2 L 384.9,180.2 L 388.2,183.1 L 388.2,180.2 L 391.1,184.6 L 391.5,181.9 L 393.7,185.3 L 394.1,183.7 L 395.7,187.1 L 396.5,184.6 L 398.0,188.2 L 398.5,185.6 L 399.9,189.6 L 401.2,188.0 L 401.9,192.1 L 403.2,190.6 L 404.5,194.2 L 406.0,192.8 L 407.4,196.9 C 407.4,196.9 411.0,175.1 379.5,174.7 L 370.2,172.8" fill="#009270" stroke="none"/>
    <path d="M 355.8,153.4 L 357.5,155.7 L 356.6,156.5 L 359.7,158.3 L 359.0,159.6 L 362.0,160.8 L 360.9,161.8 L 363.5,163.4 L 361.8,164.0 L 365.0,165.7 L 364.6,167.3 L 367.3,168.0 L 366.1,169.1 L 369.3,171.8 L 373.0,174.6 L 375.6,173.6 L 374.6,168.3 C 374.6,168.3 364.0,152.7 355.8,153.3" fill="#009270" stroke="none"/>
    <path d="M 365.4,138.2 L 366.7,141.3 L 365.0,141.7 L 368.8,145.8 L 365.8,145.9 L 369.4,149.0 L 367.7,149.6 L 371.0,153.2 L 369.2,154.2 L 372.7,157.9 L 370.3,158.9 L 374.2,162.7 L 372.0,162.8 L 374.3,166.1 L 372.2,166.8 C 372.2,166.8 374.8,171.9 374.7,174.1 L 379.0,174.3 C 379.0,174.3 379.7,160.4 379.1,158.6 L 378.0,159.5 L 378.3,154.4 L 376.7,155.5 L 376.3,149.5 L 374.7,151.4 L 374.2,145.5 L 373.0,147.6 L 371.8,141.8 L 370.4,143.6 L 369.2,139.9 L 368.2,141.3 L 365.4,138.2" fill="#009270" stroke="none"/>
    <path d="M 376.7,173.3 C 377.9,164.9 386.0,152.6 401.3,152.2 L 397.8,154.1 L 399.8,155.0 L 395.8,156.6 L 397.8,157.9 L 393.0,158.3 L 395.5,160.1 L 391.9,160.6 L 389.1,161.2 L 391.1,163.2 L 387.1,163.7 L 389.7,165.1 C 389.7,165.1 383.4,167.5 382.9,168.2 C 382.9,168.2 404.3,162.4 409.5,173.3 L 405.4,171.3 L 405.7,173.4 L 402.8,171.1 L 403.3,172.8 L 400.3,171.1 L 400.7,173.1 L 397.6,171.2 L 398.3,173.0 L 394.3,171.0 L 394.9,172.9 L 391.5,171.7 L 391.8,173.7 L 388.4,173.5 L 388.7,175.9 L 378.0,175.7 L 376.7,173.3" fill="#009270" stroke="none"/>
    <path d="M 373.4,180.5 L 375.6,180.4 C 374.6,203.2 375.6,236.1 378.5,248.2 C 383.3,268.8 397.6,276.8 401.0,278.8 C 402.9,279.9 402.2,284.5 398.3,284.2 C 394.5,283.9 381.0,273.2 376.4,254.0 C 370.2,228.2 373.2,183.2 373.4,180.5" fill="#7b4800" stroke="none"/>
    <path d="M 343.7,215.6 L 341.0,215.6 C 340.8,214.3 340.3,213.5 339.5,213.0 C 339.1,212.7 338.6,212.6 338.1,212.6 C 337.0,212.6 336.2,213.1 335.5,214.2 C 334.9,215.3 334.5,217.0 334.5,219.2 C 334.5,221.4 334.9,222.9 335.6,223.9 C 336.3,224.8 337.1,225.2 338.1,225.2 C 339.0,225.2 339.7,224.9 340.3,224.1 C 340.8,223.4 341.2,222.5 341.3,221.3 L 338.4,221.3 L 338.4,218.3 L 343.7,218.3 L 343.7,227.9 L 341.9,227.9 L 341.7,225.7 C 341.2,226.5 340.7,227.1 340.3,227.5 C 339.6,228.1 338.7,228.4 337.7,228.4 C 336.0,228.4 334.6,227.6 333.5,225.9 C 332.4,224.3 331.8,222.0 331.8,219.1 C 331.8,216.2 332.4,213.9 333.5,212.1 C 334.6,210.4 336.2,209.5 338.0,209.5 C 339.7,209.5 341.0,210.1 342.0,211.2 C 343.0,212.4 343.5,213.8 343.7,215.6" fill="#d53848" stroke="none"/>
    <path d="M 356.2,221.0 L 356.2,210.0 L 359.0,210.0 L 359.0,221.0 C 359.0,222.2 359.1,223.1 359.3,223.7 C 359.6,224.7 360.3,225.2 361.4,225.2 C 362.5,225.2 363.2,224.7 363.5,223.7 C 363.7,223.1 363.8,222.2 363.8,221.0 L 363.8,210.0 L 366.6,210.0 L 366.6,221.0 C 366.6,222.9 366.4,224.4 365.9,225.5 C 365.1,227.4 363.6,228.4 361.4,228.4 C 359.2,228.4 357.7,227.4 356.9,225.5 C 356.5,224.4 356.2,222.9 356.2,221.0" fill="#d53848" stroke="none"/>
    <path d="M 383.3,227.9 L 384.2,224.2 L 388.9,224.2 L 389.7,227.9 L 392.6,227.9 L 388.1,210.0 L 385.1,210.0 L 380.5,227.9 L 383.3,227.9" fill="#d53848" stroke="none"/>
    <path d="M 409.6,224.1 L 411.9,210.0 L 415.8,210.0 L 415.8,227.9 L 413.3,227.9 L 413.3,215.8 C 413.3,215.4 413.3,214.9 413.3,214.3 C 413.3,213.7 413.3,213.2 413.3,212.9 L 410.9,227.9 L 408.3,227.9 L 405.8,212.9 C 405.8,213.2 405.8,213.7 405.9,214.3 C 405.9,214.9 405.9,215.4 405.9,215.8 L 405.9,227.9 L 403.4,227.9 L 403.4,210.0 L 407.3,210.0 L 409.6,224.1" fill="#d53848" stroke="none"/>
    <path d="M 349.4,258.3 C 358.6,258.3 366.3,256.7 366.3,256.7 C 366.3,256.7 367.5,263.1 349.4,263.1 C 331.3,263.1 332.8,257.6 332.8,257.6 C 332.8,257.6 340.2,258.3 349.4,258.3" fill="#7b4800" stroke="none"/>
    <path d="M 341.7,230.8 C 341.7,230.8 355.9,236.5 361.5,256.7 C 361.5,256.7 348.5,253.8 341.1,257.0 L 336.9,257.0 C 336.9,257.0 344.0,245.8 341.7,230.8" fill="#ffffff" stroke="none"/>
    <path d="M 377.0,172.8 C 378.4,172.8 379.5,174.1 379.5,175.6 C 379.5,177.1 378.4,178.3 377.0,178.3 C 375.6,178.3 374.5,177.1 374.5,175.6 C 374.5,174.1 375.6,172.8 377.0,172.8" fill="#7b4800" stroke="none"/>
    <path d="M 373.0,172.1 C 374.3,172.1 375.4,173.2 375.4,174.6 C 375.4,176.0 374.3,177.1 373.0,177.1 C 371.7,177.1 370.6,176.0 370.6,174.6 C 370.6,173.2 371.7,172.1 373.0,172.1" fill="#7b4800" stroke="none"/>
    <path d="M 373.0,176.7 C 374.2,176.7 375.2,177.7 375.2,179.0 C 375.2,180.3 374.2,181.4 373.0,181.4 C 371.8,181.4 370.8,180.3 370.8,179.0 C 370.8,177.7 371.8,176.7 373.0,176.7" fill="#7b4800" stroke="none"/>
    <path d="M 376.0,175.3 C 377.3,175.3 378.4,176.4 378.4,177.8 C 378.4,179.2 377.3,180.4 376.0,180.4 C 374.7,180.4 373.7,179.2 373.7,177.8 C 373.7,176.4 374.7,175.3 376.0,175.3" fill="#7b4800" stroke="none"/>
    <path d="M 388.2,221.1 L 384.9,221.1 L 386.6,214.1 L 388.2,221.1" fill="#3796d2" stroke="none"/>
  </g>
</svg>
