<?xml version="1.0" encoding="UTF-8" standalone="no"?>
<svg xmlns:dc="http://purl.org/dc/elements/1.1/" xmlns:cc="http://web.resource.org/cc/" xmlns:rdf="http://www.w3.org/1999/02/22-rdf-syntax-ns#" xmlns:svg="http://www.w3.org/2000/svg" xmlns="http://www.w3.org/2000/svg" height="496.06299" id="svg559" version="1.0" width="992.12598" x="0.0000000" y="0.0000000">
  <sodipodi:namedview borderopacity="1.0" bordercolor="#666666" pagecolor="#ffffff" id="base"/>
  
  <defs id="defs561"/>
  <rect height="496.06320" width="992.12598" x="0.0000000" y="3.3050790e-05" font-size="12.000000" fill="#0071bc" fill-opacity="1" fill-rule="evenodd" stroke-width="1.000"/>
  <g>
    <path d="M 553.4,392.4 C 553.4,392.4 570.9,373.9 587.7,377.4 C 592.7,357.9 611.7,356.4 611.7,356.4 C 611.7,356.4 609.9,334.9 634.3,330.1 C 635.0,315.5 649.8,303.4 649.8,303.4 C 649.8,303.4 646.7,280.7 662.2,275.5 C 652.8,257.5 665.4,244.4 665.2,244.0 C 665.1,243.7 649.3,215.6 663.4,207.5 C 648.4,194.9 653.3,180.6 653.3,180.6 C 653.3,180.6 637.0,176.4 642.9,156.9 C 629.4,154.5 626.7,132.8 626.7,132.8 C 626.7,132.8 606.0,137.0 603.5,119.1 C 589.9,121.2 588.4,107.8 588.2,107.8 C 588.0,107.8 561.1,115.0 555.7,94.71 C 545.3,100.0 540.8,90.50 540.8,90.50 C 540.8,90.50 525.8,97.90 516.9,83.61 C 499.0,94.71 489.1,83.10 489.1,83.10 C 489.1,83.10 465.7,98.58 458.0,86.63 C 444.2,100.5 431.9,94.54 431.9,94.54 C 431.9,94.54 421.5,113.0 404.7,108.3 C 400.8,125.4 381.5,125.8 381.5,125.8 C 381.5,125.8 383.5,140.9 360.3,145.0 C 357.3,162.8 345.1,165.8 345.1,165.8 C 345.1,165.8 346.3,183.1 335.4,188.7 C 339.3,198.4 329.2,210.4 329.2,210.4 C 329.2,210.4 339.9,223.8 325.3,239.0 C 339.4,242.7 329.2,267.1 329.2,267.1 C 329.2,267.1 348.7,275.8 336.4,292.0 C 350.4,296.5 346.0,307.6 346.2,314.21534 C 355.1,318.2 363.0,316.2 359.1,334.2 C 386.5,337.2 373.6,352.3 373.6,352.3 C 373.6,352.3 386.4,352.9 381.3,362.9 C 404.7,362.4 408.0,380.4 408.0,380.4 C 408.0,380.4 429.7,374.7 432.6,383.1 C 435.5,391.5 423.2,448.2 423.2,448.2 C 423.2,448.2 404.9,448.2 391.2,433.6 C 359.3,432.7 366.3,411.7 365.8,411.7 C 365.3,411.7 355.2,415.6 350.0,398.1 C 328.7,402.5 329.3,384.5 329.2,384.3 C 329.0,384.1 319.6,379.9 323.1,371.0 C 301.1,373.0 302.8,351.5 302.8,351.5 C 297.9,349.5 296.1,345.1 296.9,340.6 C 294.0,339.6 274.5,339.2 284.6,313.5 C 265.9,302.2 277.5,289.3 277.5,289.3 C 277.5,289.3 251.8,276.0 271.6,260.7 C 256.8,238.8 272.8,227.9 272.8,227.9 C 272.8,227.9 252.3,207.0 273.2,192.2 C 269.8,160.6 288.6,153.0 288.6,153.0 C 288.6,153.0 278.7,127.3 305.6,116.5 C 307.3,90.50 326.1,89.83 326.1,89.83 C 326.1,89.83 326.6,69.14 356.2,71.16 C 362.0,52.66 382.1,56.36 382.1,56.36 C 382.1,56.36 388.4,33.99 415.8,44.75 C 429.7,17.50 450.4,31.46 450.4,31.46 C 450.4,31.46 463.6,22.88 470.1,25.58 C 478.4,11.26 496.2,25.02 507.6,27.79 C 511.8,26.17 526.6,14.98 538.1,29.11 C 553.2,19.18 566.2,37.01 566.2,37.01 C 566.2,37.01 587.0,26.42 596.8,50.64 C 641.0,46.60 634.6,75.53 634.6,75.53 C 634.6,75.53 669.4,67.63 661.9,102.2 C 693.5,104.4 690.3,125.3 690.3,125.3 C 690.3,125.3 710.3,140.4 701.6,154.0 C 719.4,154.9 712.8,172.0 712.8,172.0 C 712.8,172.0 726.5,177.2 715.2,198.4 C 741.3,219.3 720.2,240.0 720.1,239.8 C 719.9,239.7 734.0,256.6 721.2,276.2 C 725.1,307.1 709.5,315.0 709.5,315.0 C 709.5,315.0 713.5,335.0 696.0,340.7 C 695.7,364.3 673.5,367.1 673.5,367.1 C 673.5,367.1 679.4,377.4 657.3,388.1 C 656.5,403.9 633.4,405.2 633.4,405.2 C 633.4,405.2 631.3,434.1 602.0,426.4 C 594.9,449.6 560.6,442.7 559.9,442.3 C 559.3,442.0 553.4,392.5 553.4,392.4 z " font-size="12px" fill="#ffffff" fill-rule="evenodd" stroke="#000000" stroke-width="1.919"/>
    <path d="M 340.8,114.8 C 340.9,114.8 348.2,121.1 346.9,130.7 C 345.5,140.3 340.0,153.6 341.1,163.6 C 341.7,167.5 341.5,174.7 341.5,174.7 C 341.5,174.7 334.8,165.2 334.8,155.1 C 334.7,145.0 342.0,135.4 342.0,128.0 C 342.0,120.6 340.6,114.6 340.8,114.8 z " font-size="12px" fill="#217900" fill-rule="evenodd" stroke="#000000" stroke-width="1.919" stroke-linejoin="round"/>
    <path d="M 337.2,117.6 C 337.2,117.6 327.5,126.8 326.3,135.7 C 325.4,140.3 325.0,161.8 324.9,171.3 C 324.7,174.2 323.5,185.7 323.2,189.9 C 323.0,194.1 330.3,182.8 330.7,173.5 C 330.5,164.0 330.5,143.8 331.5,140.8 C 332.4,136.9 332.2,132.6 333.5,128.7 C 335.3,123.3 337.3,117.7 337.2,117.6 z " font-size="12px" fill="#217900" fill-rule="evenodd" stroke="#000000" stroke-width="1.919" stroke-linejoin="round"/>
    <g transform="matrix(1.919646,0,0,1.919646,249.652,5.172104)" font-size="12px">
      <path d="M 155.8,42.98 C 155.8,42.98 162.3,39.98 164.2,34.39 C 166.0,28.81 158.6,28.76 157.6,30.53 C 156.6,32.31 158.4,36.73 157.9,37.89 C 157.5,39.06 154.8,41.88 155.8,42.98 z " fill="#ffd200" fill-rule="evenodd" stroke="#ef8a10" stroke-width="1"/>
      <path d="M 98.28,45.01 C 98.28,45.01 102.5,39.23 101.4,33.45 C 100.3,27.67 93.75,31.26 93.75,33.29 C 93.75,35.32 97.50,38.29 97.65,39.54 C 97.81,40.79 96.87,44.54 98.28,45.01 z " fill="#ffd200" fill-opacity="1" fill-rule="evenodd" stroke="#ef8a10" stroke-width="1pt" stroke-linecap="butt" stroke-linejoin="miter" stroke-opacity="1"/>
      <path d="M 86.87,48.45 C 86.87,48.45 91.09,42.67 90.00,36.89 C 88.90,31.11 82.34,34.70 82.34,36.73 C 82.34,38.76 86.09,41.73 86.25,42.98 C 86.40,44.23 85.46,47.98 86.87,48.45 z " fill="#ffd200" fill-opacity="1" fill-rule="evenodd" stroke="#ef8a10" stroke-width="1pt" stroke-linecap="butt" stroke-linejoin="miter" stroke-opacity="1"/>
      <path d="M 74.21,52.36 C 74.21,52.36 78.43,46.57 77.34,40.79 C 76.25,35.01 69.68,38.61 69.68,40.64 C 69.68,42.67 73.43,45.64 73.59,46.89 C 73.75,48.14 72.81,51.89 74.21,52.36 z " fill="#ffd200" fill-opacity="1" fill-rule="evenodd" stroke="#ef8a10" stroke-width="1pt" stroke-linecap="butt" stroke-linejoin="miter" stroke-opacity="1"/>
      <path d="M 65.31,61.26 C 65.31,61.26 69.53,55.48 68.43,49.70 C 67.34,43.92 60.78,47.51 60.78,49.54 C 60.78,51.57 64.53,54.54 64.68,55.79 C 64.84,57.04 63.90,60.79 65.31,61.26 z " fill="#ffd200" fill-opacity="1" fill-rule="evenodd" stroke="#ef8a10" stroke-width="1pt" stroke-linecap="butt" stroke-linejoin="miter" stroke-opacity="1"/>
      <path d="M 55.93,69.86 C 55.93,69.86 60.15,64.07 59.06,58.29 C 57.96,52.51 51.40,56.11 51.40,58.14 C 51.40,60.17 55.15,63.14 55.31,64.39 C 55.46,65.64 54.53,69.39 55.93,69.86 z " fill="#ffd200" fill-opacity="1" fill-rule="evenodd" stroke="#ef8a10" stroke-width="1pt" stroke-linecap="butt" stroke-linejoin="miter" stroke-opacity="1"/>
      <path d="M 77.49,19.79 C 77.49,19.79 71.87,24.23 71.37,30.09 C 70.87,35.95 78.15,34.25 78.70,32.30 C 79.25,30.34 76.43,26.47 76.62,25.23 C 76.80,23.98 78.72,20.62 77.49,19.79 z " fill="#ffd200" fill-rule="evenodd" stroke="#ef8a10" stroke-width="1"/>
      <path d="M 96.24,14.01 C 96.24,14.01 90.62,18.45 90.12,24.31 C 89.62,30.17 96.90,28.47 97.45,26.52 C 98.00,24.56 95.18,20.69 95.37,19.45 C 95.55,18.20 97.47,14.84 96.24,14.01 z " fill="#ffd200" fill-rule="evenodd" stroke="#ef8a10" stroke-width="1"/>
      <path d="M 26.36,64.63 C 26.36,64.63 27.55,71.68 32.45,74.94 C 37.35,78.20 39.37,71.00 37.91,69.58 C 36.46,68.16 31.72,68.76 30.71,68.00 C 29.71,67.24 27.68,63.95 26.36,64.63 z " fill="#ffd200" fill-rule="evenodd" stroke="#ef8a10" stroke-width="1"/>
      <path d="M 17.00,88.59 C 17.00,88.59 17.06,95.75 21.38,99.74 C 25.71,103.7 28.83,96.93 27.62,95.30 C 26.41,93.67 21.63,93.52 20.76,92.61 C 19.89,91.70 18.41,88.13 17.00,88.59 z " fill="#ffd200" fill-rule="evenodd" stroke="#ef8a10"/>
      <path d="M 38.61,115.3 C 38.61,115.3 36.05,108.6 30.61,106.4 C 25.16,104.2 24.60,111.6 26.31,112.7 C 28.01,113.8 32.54,112.3 33.68,112.9 C 34.81,113.4 37.45,116.2 38.61,115.3 z " fill="#ffd200" fill-rule="evenodd" stroke="#ef8a10"/>
      <path d="M 34.12,103.7 C 34.12,103.7 38.45,98.09 37.47,92.29 C 36.49,86.49 29.85,89.96 29.81,91.99 C 29.78,94.02 33.47,97.06 33.60,98.31 C 33.73,99.56 32.725,103.3 34.12,103.7 z " fill="#ffd200" fill-rule="evenodd" stroke="#ef8a10"/>
      <path d="M 169.1,48.76 C 169.1,48.76 175.6,45.76 177.5,40.18 C 179.3,34.59 171.8,34.54 170.9,36.31 C 169.9,38.09 171.7,42.51 171.2,43.67 C 170.8,44.84 168.1,47.66 169.1,48.76 z " fill="#ffd200" fill-rule="evenodd" stroke="#ef8a10" stroke-width="1"/>
      <path d="M 188.8,58.56 C 188.8,58.56 192.6,52.51 191.1,46.81 C 189.6,41.12 183.3,45.14 183.5,47.17 C 183.6,49.20 187.5,51.91 187.8,53.14 C 188.0,54.38 187.3,58.18 188.8,58.56 z " fill="#ffd200" fill-rule="evenodd" stroke="#ef8a10"/>
      <path d="M 242.4,114.2 C 242.4,114.2 239.8,107.5 234.4,105.3 C 228.9,103.1 228.4,110.5 230.1,111.6 C 231.8,112.7 236.3,111.2 237.5,111.8 C 238.6,112.3 241.2,115.1 242.4,114.2 z " fill="#ffd200" fill-rule="evenodd" stroke="#ef8a10"/>
      <path d="M 216.2,118.3 C 216.2,118.3 216.3,111.2 220.7,107.3 C 225.1,103.3 228.1,110.2 226.9,111.8 C 225.6,113.4 220.9,113.5 220.0,114.4 C 219.1,115.3 217.6,118.8 216.2,118.3 z " fill="#ffd200" fill-rule="evenodd" stroke="#ef8a10"/>
      <path d="M 212.0,42.51 C 212.0,42.51 205.3,39.97 200.0,42.56 C 194.7,45.14 199.9,50.52 201.8,49.98 C 203.8,49.44 205.7,45.04 206.8,44.56 C 208.0,44.08 211.9,44.00 212.0,42.51 z " fill="#ffd200" fill-rule="evenodd" stroke="#ef8a10"/>
      <path d="M 196.6,29.70 C 196.6,29.70 189.9,27.16 184.7,29.74 C 179.4,32.33 184.6,37.71 186.5,37.17 C 188.5,36.63 190.4,32.23 191.5,31.75 C 192.7,31.27 196.6,31.18 196.6,29.70 z " fill="#ffd200" fill-rule="evenodd" stroke="#ef8a10"/>
      <path d="M 173.8,17.48 C 173.8,17.48 168.1,21.85 167.6,27.70 C 167.0,33.56 174.3,31.95 174.9,30.00 C 175.4,28.05 172.7,24.15 172.9,22.91 C 173.1,21.67 175.0,18.33 173.8,17.48 z " fill="#ffd200" fill-rule="evenodd" stroke="#ef8a10"/>
      <path d="M 158.9,13.91 C 158.9,13.91 156.4,20.58 158.9,25.88 C 161.5,31.19 166.9,26.03 166.3,24.06 C 165.8,22.10 161.4,20.20 161.0,19.03 C 160.5,17.86 160.4,14.00 158.9,13.91 z " fill="#ffd200" fill-rule="evenodd" stroke="#ef8a10"/>
      <path d="M 116.8,39.62 C 116.8,39.62 121.4,34.16 120.7,28.32 C 120.0,22.47 113.2,25.58 113.1,27.61 C 112.9,29.63 116.5,32.86 116.5,34.12 C 116.6,35.38 115.4,39.05 116.8,39.62 z " fill="#ffd200" fill-rule="evenodd" stroke="#ef8a10"/>
    </g>
    <path d="M 522.2,103.7 C 522.2,103.7 543.5,105.0 544.5,117.2 C 545.6,129.4 539.4,136.9 539.4,136.9 C 539.4,136.9 542.1,163.2 521.3,171.0 C 499.0,173.7 464.0,171.6 464.0,171.6 C 464.0,171.6 453.7,174.1 449.5,152.8 C 445.4,131.5 444.2,116.5 444.2,116.5 C 444.2,116.5 446.3,104.6 461.3,103.8 C 476.3,103.1 522.0,104.0 522.2,103.7 z " font-size="12px" fill="#8c8a8c" fill-rule="evenodd" stroke="#000000" stroke-width="1.919"/>
    <path d="M 539.3,136.7 C 539.3,136.7 527.8,151.0 529.0,156.8" font-size="12px" fill="none" fill-rule="evenodd" stroke="#000000" stroke-width="1.919" stroke-linecap="round"/>
    <path d="M 524.0,170.2 C 526.8,172.6 529.5,175.3 530.1,184.1 C 530.7,192.9 531.3,201.6 531.3,201.6 L 546.1,335.6 L 559.2,432.5 L 560.1,447.6 C 560.1,447.6 557.0,458.6 548.2,459.5 C 541.8,472.9 507.1,476.8 503.7,476.6 C 500.6,476.5 489.6,471.8 482.9,472.4 C 476.2,473.0 464.6,477.5 459.4,476.8 C 454.1,476.0 442.4,472.0 440.3,463.5 C 425.7,458.9 423.3,447.7 423.3,447.7 L 439.1,335.6 L 454.4,193.9 C 454.4,193.9 456.2,175.0 463.8,172.2 C 471.7,171.4 512.5,172.9 524.0,170.2 z " font-size="12px" fill="#8c8a8c" fill-rule="evenodd" stroke="#000000" stroke-width="1.919"/>
    <path d="M 443.6,364.2 L 440.5,463.4" font-size="12px" fill="none" fill-rule="evenodd" stroke="#000000" stroke-width="1.919"/>
    <path d="M 539.9,377.3 L 548.7,459.0" font-size="12px" fill="none" fill-rule="evenodd" stroke="#000000" stroke-width="1.919"/>
    <path d="M 285.2,312.7 L 284.9,313.8" font-size="12px" fill="none" fill-rule="evenodd" stroke="#000000"/>
    <path d="M 697.1,309.1 L 697.4,310.2" font-size="12px" fill="none" fill-rule="evenodd" stroke="#000000"/>
    <path d="M 274.2,178.8 C 274.2,178.8 280.7,187.9 281.9,193.1 C 283.0,198.2 285.2,208.4 288.1,212.6 C 290.9,216.8 307.1,240.0 308.0,249.7 C 308.1,256.1 301.3,267.0 291.1,267.1 C 284.7,267.0 268.3,262.8 267.7,248.7 C 267.0,234.7 272.7,234.4 273.3,225.8 C 274.0,217.3 274.2,179.0 274.2,178.8 z " font-size="12px" fill="none" fill-rule="evenodd" stroke="#6b18b5" stroke-width="1.919" stroke-linejoin="round"/>
    <path d="M 386.2,55.91 C 386.2,55.91 379.5,56.39 374.3,59.21 C 370.3,61.70 363.4,65.27 358.7,71.88 C 346.5,81.33 328.3,85.75 322.5,93.60 C 319.1,98.94 319.3,111.7 327.9,117.2 C 333.5,120.3 349.6,125.3 357.5,113.6 C 365.4,102.0 360.7,98.78 364.5,91.15 C 370.9,73.65 386.1,56.05 386.2,55.91 z " font-size="12px" fill="none" fill-rule="evenodd" stroke="#6b18b5" stroke-linejoin="round"/>
    <path d="M 550.0,38.85 C 550.0,38.85 545.0,34.34 539.3,32.56 C 534.8,31.40 527.1,31.90 519.2,31.13 C 504.0,28.99 488.3,17.98 478.6,19.31 C 472.4,20.55 463.3,29.64 465.4,39.63 C 467.0,45.79 473.9,58.25 487.7,55.79 C 501.6,53.34 501.5,50.32 509.6,47.78 C 529.6,36.61 549.9,38.89 550.0,38.85 z " font-size="12px" fill="none" fill-rule="evenodd" stroke="#6b18b5" stroke-linejoin="round"/>
    <path d="M 712.5,196.7 C 713.6,194.1 711.5,189.2 710.0,183.5 C 708.6,179.0 706.4,172.0 701.2,165.8 C 694.9,151.7 696.0,132.5 689.7,125.0 C 685.4,120.4 672.8,117.5 665.5,124.6 C 661.1,129.2 652.4,143.7 661.8,154.1 C 671.3,164.5 675.4,160.6 681.9,166.2 C 697.3,176.6 704.9,194.8 712.5,196.7 z " font-size="12px" fill="none" fill-rule="evenodd" stroke="#6b18b5" stroke-linejoin="round"/>
    <path d="M 706.9,319.4 C 709.0,316.4 712.8,310.8 712.4,306.1 C 712.0,302.4 714.1,291.1 714.3,286.2 C 715.7,270.9 725.3,258.5 722.7,245.2 C 721.1,239.0 712.1,230.2 702.2,232.8 C 696.2,234.6 682.6,242.1 685.7,255.8 C 688.9,269.5 693.3,269.3 696.2,277.3 C 704.6,293.9 699.3,313.7 706.9,319.4 z " font-size="12px" fill="none" fill-rule="evenodd" stroke="#6b18b5" stroke-linejoin="round"/>
    <path d="M 594.2,416.7 C 594.2,416.7 591.6,421.7 602.0,426.1" font-size="12px" fill="none" fill-rule="evenodd" stroke="#000000" stroke-width="1.919"/>
    <path d="M 615.0,404.9 C 615.0,404.9 626.6,402.1 634.4,404.9" font-size="12px" fill="none" fill-rule="evenodd" stroke="#000000" stroke-width="1.919"/>
    <path d="M 649.5,375.8 C 649.5,376.0 648.0,381.0 657.1,388.2" font-size="12px" fill="none" fill-rule="evenodd" stroke="#000000" stroke-width="1.919"/>
    <path d="M 656.1,362.8 C 656.1,362.8 662.9,367.8 674.3,367.6" font-size="12px" fill="none" fill-rule="evenodd" stroke="#000000" stroke-width="1.919"/>
    <path d="M 587.7,377.4 C 587.7,377.4 588.1,390.5 581.3,396.7" font-size="12px" fill="none" fill-rule="evenodd" stroke="#000000" stroke-width="1.919"/>
    <path d="M 610.4,357.0 C 610.4,357.0 621.6,359.8 630.8,355.2" font-size="12px" fill="none" fill-rule="evenodd" stroke="#000000" stroke-width="1.919"/>
    <path d="M 682.1,337.6 C 682.1,337.6 684.5,341.0 696.9,340.4" font-size="12px" fill="none" fill-rule="evenodd" stroke="#000000" stroke-width="1.919"/>
    <path d="M 633.8,329.8 C 634.2,330.0 648.4,334.6 657.3,330.4" font-size="12px" fill="none" fill-rule="evenodd" stroke="#000000" stroke-width="1.919"/>
    <path d="M 662.1,275.5 C 662.1,275.5 662.7,274.7 667.1,290.1" font-size="12px" fill="none" fill-rule="evenodd" stroke="#000000" stroke-width="1.919"/>
    <path d="M 673.1,232.2 C 673.1,232.2 672.5,240.4 665.9,244.0" font-size="12px" fill="none" fill-rule="evenodd" stroke="#000000" stroke-width="1.919"/>
    <path d="M 715.2,198.7 C 715.2,198.7 705.7,206.5 707.5,209.6" font-size="12px" fill="none" fill-rule="evenodd" stroke="#000000" stroke-width="1.919"/>
    <path d="M 667.5,193.1 C 667.5,193.1 672.5,201.5 664.3,207.2" font-size="12px" fill="none" fill-rule="evenodd" stroke="#000000" stroke-width="1.919"/>
    <path d="M 643.4,157.1 C 643.4,157.1 651.9,156.7 655.7,164.1" font-size="12px" fill="none" fill-rule="evenodd" stroke="#000000" stroke-width="1.919"/>
    <path d="M 627.2,132.8 L 633.8,132.8" font-size="12px" fill="none" fill-rule="evenodd" stroke="#000000" stroke-width="1.919"/>
    <path d="M 661.3,102.8 C 661.3,103.0 663.1,104.6 659.7,108.0" font-size="12px" fill="none" fill-rule="evenodd" stroke="#000000" stroke-width="1.919"/>
    <path d="M 600.0,103.6 C 600.0,103.6 604.6,110.8 603.8,119.6" font-size="12px" fill="none" fill-rule="evenodd" stroke="#000000" stroke-width="1.919"/>
    <path d="M 626.6,79.30 C 628.6,79.10 635.4,76.11 635.4,76.11" font-size="12px" fill="none" fill-rule="evenodd" stroke="#000000" stroke-width="1.919"/>
    <path d="M 597.0,50.75 C 596.8,50.75 594.4,59.73 598.8,62.93" font-size="12px" fill="none" fill-rule="evenodd" stroke="#000000" stroke-width="1.919"/>
    <path d="M 586.1,91.68 C 586.1,101.2 593.6,98.87 588.4,108.0" font-size="12px" fill="none" fill-rule="evenodd" stroke="#000000" stroke-width="1.919"/>
    <path d="M 567.5,83.70 C 567.3,83.70 555.5,92.88 555.5,94.48" font-size="12px" fill="none" fill-rule="evenodd" stroke="#000000" stroke-width="1.919"/>
    <path d="M 536.7,78.70 C 536.7,78.70 541.7,83.70 540.5,90.48" font-size="12px" fill="none" fill-rule="evenodd" stroke="#000000" stroke-width="1.919"/>
    <path d="M 522.2,74.71 C 522.2,74.71 519.6,82.30 516.2,84.29" font-size="12px" fill="none" fill-rule="evenodd" stroke="#000000" stroke-width="1.919"/>
    <path d="M 495.6,72.71 C 495.4,73.11 491.4,81.70 488.6,83.30" font-size="12px" fill="none" fill-rule="evenodd" stroke="#000000" stroke-width="1.919"/>
    <path d="M 459.3,72.91 C 459.5,72.91 463.3,80.90 458.3,86.69" font-size="12px" fill="none" fill-rule="evenodd" stroke="#000000" stroke-width="1.919"/>
    <path d="M 450.9,31.58 C 451.1,31.78 451.7,37.77 447.9,42.96" font-size="12px" fill="none" fill-rule="evenodd" stroke="#000000" stroke-width="1.919"/>
    <path d="M 414.9,45.16 C 414.9,45.36 416.5,51.95 405.9,54.14" font-size="12px" fill="none" fill-rule="evenodd" stroke="#000000" stroke-width="1.919"/>
    <path d="M 394.6,106.0 C 394.8,106.4 404.7,108.0 404.7,108.0" font-size="12px" fill="none" fill-rule="evenodd" stroke="#000000" stroke-width="1.919"/>
    <path d="M 369.6,129.2 C 369.8,129.0 381.8,125.4 381.8,125.4" font-size="12px" fill="none" fill-rule="evenodd" stroke="#000000" stroke-width="1.919"/>
    <path d="M 350.2,144.2 C 350.6,144.2 358.6,145.5 360.6,144.6" font-size="12px" fill="none" fill-rule="evenodd" stroke="#000000" stroke-width="1.919"/>
    <path d="M 344.6,151.5 C 344.6,151.5 347.2,152.9 345.0,166.3" font-size="12px" fill="none" fill-rule="evenodd" stroke="#000000" stroke-width="1.919"/>
    <path d="M 305.7,116.4 L 310.5,123.6" font-size="12px" fill="none" fill-rule="evenodd" stroke="#000000" stroke-width="1.919"/>
    <path d="M 289.3,153.3 C 289.3,153.1 294.1,160.5 300.5,161.9" font-size="12px" fill="none" fill-rule="evenodd" stroke="#000000" stroke-width="1.919"/>
    <path d="M 327.1,190.9 C 327.3,190.9 334.9,189.3 336.1,188.5" font-size="12px" fill="none" fill-rule="evenodd" stroke="#000000" stroke-width="1.919"/>
    <path d="M 323.7,218.0 C 323.9,218.0 323.5,213.0 329.7,209.6" font-size="12px" fill="none" fill-rule="evenodd" stroke="#000000" stroke-width="1.919"/>
    <path d="M 315.5,230.4 C 315.5,230.6 321.3,237.8 325.3,238.8" font-size="12px" fill="none" fill-rule="evenodd" stroke="#000000" stroke-width="1.919"/>
    <path d="M 312.1,244.2 C 312.7,244.0 318.9,238.6 326.1,239.0" font-size="12px" fill="none" fill-rule="evenodd" stroke="#000000" stroke-width="1.919"/>
    <path d="M 310.1,262.8 C 310.1,262.8 310.3,268.9 328.7,267.4" font-size="12px" fill="none" fill-rule="evenodd" stroke="#000000" stroke-width="1.919"/>
    <path d="M 311.9,284.5 C 311.9,284.3 317.3,272.1 328.3,267.6" font-size="12px" fill="none" fill-rule="evenodd" stroke="#000000" stroke-width="1.919"/>
    <path d="M 326.7,300.1 C 326.7,300.1 328.3,294.9 337.5,291.3" font-size="12px" fill="none" fill-rule="evenodd" stroke="#000000" stroke-width="1.919"/>
    <path d="M 336.9,320.7 C 336.9,320.7 343.4,315.3 345.8,314.5" font-size="12px" fill="none" fill-rule="evenodd" stroke="#000000" stroke-width="1.919"/>
    <path d="M 345.0,336.6 C 345.0,336.6 349.0,340.8 359.0,333.6" font-size="12px" fill="none" fill-rule="evenodd" stroke="#000000" stroke-width="1.919"/>
    <path d="M 296.9,340.0 C 298.1,339.8 312.7,336.4 317.7,344.0" font-size="12px" fill="none" fill-rule="evenodd" stroke="#000000" stroke-width="1.919"/>
    <path d="M 302.7,352.0 C 302.7,352.0 318.1,350.0 320.1,351.6" font-size="12px" fill="none" fill-rule="evenodd" stroke="#000000" stroke-width="1.919"/>
    <path d="M 357.6,355.2 C 357.6,355.2 355.6,359.4 374.6,352.4" font-size="12px" fill="none" fill-rule="evenodd" stroke="#000000" stroke-width="1.919"/>
    <path d="M 381.2,362.8 C 377.8,368.6 382.0,373.2 377.6,375.8" font-size="12px" fill="none" fill-rule="evenodd" stroke="#000000" stroke-width="1.919"/>
    <path d="M 323.5,370.8 C 324.1,370.4 330.5,368.2 329.5,359.0" font-size="12px" fill="none" fill-rule="evenodd" stroke="#000000" stroke-width="1.919"/>
    <path d="M 329.3,384.6 C 330.1,384.4 340.7,379.8 342.8,382.2" font-size="12px" fill="none" fill-rule="evenodd" stroke="#000000" stroke-width="1.919"/>
    <path d="M 350.0,397.9 C 350.0,397.9 351.4,388.6 354.4,387.6" font-size="12px" fill="none" fill-rule="evenodd" stroke="#000000" stroke-width="1.919"/>
    <path d="M 366.0,412.1 C 366.0,412.1 374.8,411.9 378.6,409.1" font-size="12px" fill="none" fill-rule="evenodd" stroke="#000000" stroke-width="1.919"/>
    <path d="M 383.0,380.4 C 383.2,380.6 391.2,384.8 408.1,380.6" font-size="12px" fill="none" fill-rule="evenodd" stroke="#000000" stroke-width="1.919"/>
    <path d="M 389.4,418.5 C 389.4,418.5 391.8,430.7 391.6,433.5" font-size="12px" fill="none" fill-rule="evenodd" stroke="#000000" stroke-width="1.919"/>
    <g transform="matrix(1.919646,0,0,1.919646,249.652,3.73808)" font-size="12px" fill="#de2010">
      <path d="M 232.8,119.0 C 232.8,116.9 232.0,114.9 230.7,113.9 C 229.4,112.8 227.8,112.8 226.5,113.9 C 225.2,114.9 224.4,116.9 224.4,119.0 C 224.4,121.1 225.2,123.0 226.5,124.1 C 227.8,125.2 229.4,125.2 230.7,124.1 C 232.0,123.0 232.8,121.1 232.8,119.0 z " transform="matrix(0.963093,-0.120385,0.124033,0.992278,-6.447513,28.44685)" fill-opacity="1" fill-rule="evenodd" stroke="#000000" stroke-width="1pt" stroke-linecap="butt" stroke-linejoin="miter" stroke-opacity="1"/>
      <path d="M 232.8,119.0 C 232.8,116.9 232.0,114.9 230.7,113.9 C 229.4,112.8 227.8,112.8 226.5,113.9 C 225.2,114.9 224.4,116.9 224.4,119.0 C 224.4,121.1 225.2,123.0 226.5,124.1 C 227.8,125.2 229.4,125.2 230.7,124.1 C 232.0,123.0 232.8,121.1 232.8,119.0 z " transform="matrix(0.963093,-0.120385,0.124033,0.992278,-7.307613,17.87991)" fill-opacity="1" fill-rule="evenodd" stroke="#000000" stroke-width="1pt" stroke-linecap="butt" stroke-linejoin="miter" stroke-opacity="1"/>
      <path d="M 232.8,119.0 C 232.8,116.9 232.0,114.9 230.7,113.9 C 229.4,112.8 227.8,112.8 226.5,113.9 C 225.2,114.9 224.4,116.9 224.4,119.0 C 224.4,121.1 225.2,123.0 226.5,124.1 C 227.8,125.2 229.4,125.2 230.7,124.1 C 232.0,123.0 232.8,121.1 232.8,119.0 z " transform="matrix(0.948788,-0.204553,0.210751,0.97754,-16.44761,27.94469)" fill-opacity="1" fill-rule="evenodd" stroke="#000000" stroke-width="1pt" stroke-linecap="butt" stroke-linejoin="miter" stroke-opacity="1"/>
      <path d="M 232.8,119.0 C 232.8,116.9 232.0,114.9 230.7,113.9 C 229.4,112.8 227.8,112.8 226.5,113.9 C 225.2,114.9 224.4,116.9 224.4,119.0 C 224.4,121.1 225.2,123.0 226.5,124.1 C 227.8,125.2 229.4,125.2 230.7,124.1 C 232.0,123.0 232.8,121.1 232.8,119.0 z " transform="matrix(0.865296,-0.439662,0.452985,0.891519,-29.75283,81.13217)" fill-opacity="1" fill-rule="evenodd" stroke="#000000" stroke-width="1pt" stroke-linecap="butt" stroke-linejoin="miter" stroke-opacity="1"/>
      <path d="M 232.8,119.0 C 232.8,116.9 232.0,114.9 230.7,113.9 C 229.4,112.8 227.8,112.8 226.5,113.9 C 225.2,114.9 224.4,116.9 224.4,119.0 C 224.4,121.1 225.2,123.0 226.5,124.1 C 227.8,125.2 229.4,125.2 230.7,124.1 C 232.0,123.0 232.8,121.1 232.8,119.0 z " transform="matrix(0.865296,-0.439662,0.452985,0.891519,-33.93046,71.67111)" fill-opacity="1" fill-rule="evenodd" stroke="#000000" stroke-width="1pt" stroke-linecap="butt" stroke-linejoin="miter" stroke-opacity="1"/>
      <path d="M 232.8,119.0 C 232.8,116.9 232.0,114.9 230.7,113.9 C 229.4,112.8 227.8,112.8 226.5,113.9 C 225.2,114.9 224.4,116.9 224.4,119.0 C 224.4,121.1 225.2,123.0 226.5,124.1 C 227.8,125.2 229.4,125.2 230.7,124.1 C 232.0,123.0 232.8,121.1 232.8,119.0 z " transform="matrix(0.824956,-0.511358,0.526854,0.849957,-39.27391,83.79712)" fill-opacity="1" fill-rule="evenodd" stroke="#000000" stroke-width="1pt" stroke-linecap="butt" stroke-linejoin="miter" stroke-opacity="1"/>
      <path d="M 232.8,119.0 C 232.8,116.9 232.0,114.9 230.7,113.9 C 229.4,112.8 227.8,112.8 226.5,113.9 C 225.2,114.9 224.4,116.9 224.4,119.0 C 224.4,121.1 225.2,123.0 226.5,124.1 C 227.8,125.2 229.4,125.2 230.7,124.1 C 232.0,123.0 232.8,121.1 232.8,119.0 z " transform="matrix(0.771657,-0.588715,0.606556,0.795042,-42.96256,99.17577)" fill-opacity="1" fill-rule="evenodd" stroke="#000000" stroke-width="1pt" stroke-linecap="butt" stroke-linejoin="miter" stroke-opacity="1"/>
      <path d="M 232.8,119.0 C 232.8,116.9 232.0,114.9 230.7,113.9 C 229.4,112.8 227.8,112.8 226.5,113.9 C 225.2,114.9 224.4,116.9 224.4,119.0 C 224.4,121.1 225.2,123.0 226.5,124.1 C 227.8,125.2 229.4,125.2 230.7,124.1 C 232.0,123.0 232.8,121.1 232.8,119.0 z " transform="matrix(0.678166,-0.694357,0.715399,0.698717,-42.0354,126.6884)" fill-opacity="1" fill-rule="evenodd" stroke="#000000" stroke-width="1pt" stroke-linecap="butt" stroke-linejoin="miter" stroke-opacity="1"/>
      <path d="M 232.8,119.0 C 232.8,116.9 232.0,114.9 230.7,113.9 C 229.4,112.8 227.8,112.8 226.5,113.9 C 225.2,114.9 224.4,116.9 224.4,119.0 C 224.4,121.1 225.2,123.0 226.5,124.1 C 227.8,125.2 229.4,125.2 230.7,124.1 C 232.0,123.0 232.8,121.1 232.8,119.0 z " transform="matrix(0.611423,-0.753792,0.776636,0.629951,-42.66369,140.8465)" fill-opacity="1" fill-rule="evenodd" stroke="#000000" stroke-width="1pt" stroke-linecap="butt" stroke-linejoin="miter" stroke-opacity="1"/>
      <path d="M 232.8,119.0 C 232.8,116.9 232.0,114.9 230.7,113.9 C 229.4,112.8 227.8,112.8 226.5,113.9 C 225.2,114.9 224.4,116.9 224.4,119.0 C 224.4,121.1 225.2,123.0 226.5,124.1 C 227.8,125.2 229.4,125.2 230.7,124.1 C 232.0,123.0 232.8,121.1 232.8,119.0 z " transform="matrix(0.477798,-0.844837,0.87044,0.492276,-32.12083,172.155)" fill-opacity="1" fill-rule="evenodd" stroke="#000000" stroke-width="1pt" stroke-linecap="butt" stroke-linejoin="miter" stroke-opacity="1"/>
      <path d="M 232.8,119.0 C 232.8,116.9 232.0,114.9 230.7,113.9 C 229.4,112.8 227.8,112.8 226.5,113.9 C 225.2,114.9 224.4,116.9 224.4,119.0 C 224.4,121.1 225.2,123.0 226.5,124.1 C 227.8,125.2 229.4,125.2 230.7,124.1 C 232.0,123.0 232.8,121.1 232.8,119.0 z " transform="matrix(0.398926,-0.884815,0.91163,0.411014,-29.18694,185.5629)" fill-opacity="1" fill-rule="evenodd" stroke="#000000" stroke-width="1pt" stroke-linecap="butt" stroke-linejoin="miter" stroke-opacity="1"/>
      <path d="M 232.8,119.0 C 232.8,116.9 232.0,114.9 230.7,113.9 C 229.4,112.8 227.8,112.8 226.5,113.9 C 225.2,114.9 224.4,116.9 224.4,119.0 C 224.4,121.1 225.2,123.0 226.5,124.1 C 227.8,125.2 229.4,125.2 230.7,124.1 C 232.0,123.0 232.8,121.1 232.8,119.0 z " transform="matrix(0.338708,-0.909569,0.937135,0.348971,-28.52852,194.5536)" fill-opacity="1" fill-rule="evenodd" stroke="#000000" stroke-width="1pt" stroke-linecap="butt" stroke-linejoin="miter" stroke-opacity="1"/>
      <path d="M 232.8,119.0 C 232.8,116.9 232.0,114.9 230.7,113.9 C 229.4,112.8 227.8,112.8 226.5,113.9 C 225.2,114.9 224.4,116.9 224.4,119.0 C 224.4,121.1 225.2,123.0 226.5,124.1 C 227.8,125.2 229.4,125.2 230.7,124.1 C 232.0,123.0 232.8,121.1 232.8,119.0 z " transform="matrix(0.268303,-0.932766,0.961035,0.276433,-25.47267,205.2976)" fill-opacity="1" fill-rule="evenodd" stroke="#000000" stroke-width="1pt" stroke-linecap="butt" stroke-linejoin="miter" stroke-opacity="1"/>
      <path d="M 232.8,119.0 C 232.8,116.9 232.0,114.9 230.7,113.9 C 229.4,112.8 227.8,112.8 226.5,113.9 C 225.2,114.9 224.4,116.9 224.4,119.0 C 224.4,121.1 225.2,123.0 226.5,124.1 C 227.8,125.2 229.4,125.2 230.7,124.1 C 232.0,123.0 232.8,121.1 232.8,119.0 z " transform="matrix(0.121447,-0.962959,0.992143,0.125126,-6.530337,228.3687)" fill-opacity="1" fill-rule="evenodd" stroke="#000000" stroke-width="1pt" stroke-linecap="butt" stroke-linejoin="miter" stroke-opacity="1"/>
      <path d="M 232.8,119.0 C 232.8,116.9 232.0,114.9 230.7,113.9 C 229.4,112.8 227.8,112.8 226.5,113.9 C 225.2,114.9 224.4,116.9 224.4,119.0 C 224.4,121.1 225.2,123.0 226.5,124.1 C 227.8,125.2 229.4,125.2 230.7,124.1 C 232.0,123.0 232.8,121.1 232.8,119.0 z " transform="matrix(3.894491e-2,-0.969806,0.999197,4.012356e-2,0.43684,239.4379)" fill-opacity="1" fill-rule="evenodd" stroke="#000000" stroke-width="1pt" stroke-linecap="butt" stroke-linejoin="miter" stroke-opacity="1"/>
      <path d="M 232.8,119.0 C 232.8,116.9 232.0,114.9 230.7,113.9 C 229.4,112.8 227.8,112.8 226.5,113.9 C 225.2,114.9 224.4,116.9 224.4,119.0 C 224.4,121.1 225.2,123.0 226.5,124.1 C 227.8,125.2 229.4,125.2 230.7,124.1 C 232.0,123.0 232.8,121.1 232.8,119.0 z " transform="matrix(3.894491e-2,-0.969806,0.999197,4.012356e-2,-10.00723,239.8066)" fill-opacity="1" fill-rule="evenodd" stroke="#000000" stroke-width="1pt" stroke-linecap="butt" stroke-linejoin="miter" stroke-opacity="1"/>
      <path d="M 232.8,119.0 C 232.8,116.9 232.0,114.9 230.7,113.9 C 229.4,112.8 227.8,112.8 226.5,113.9 C 225.2,114.9 224.4,116.9 224.4,119.0 C 224.4,121.1 225.2,123.0 226.5,124.1 C 227.8,125.2 229.4,125.2 230.7,124.1 C 232.0,123.0 232.8,121.1 232.8,119.0 z " transform="matrix(-0.216286,-0.946182,0.974857,-0.222842,40.07079,267.0575)" fill-opacity="1" fill-rule="evenodd" stroke="#000000" stroke-width="1pt" stroke-linecap="butt" stroke-linejoin="miter" stroke-opacity="1"/>
      <path d="M 232.8,119.0 C 232.8,116.9 232.0,114.9 230.7,113.9 C 229.4,112.8 227.8,112.8 226.5,113.9 C 225.2,114.9 224.4,116.9 224.4,119.0 C 224.4,121.1 225.2,123.0 226.5,124.1 C 227.8,125.2 229.4,125.2 230.7,124.1 C 232.0,123.0 232.8,121.1 232.8,119.0 z " transform="matrix(-0.29359,-0.925119,0.953155,-0.302489,49.5179,274.4248)" fill-opacity="1" fill-rule="evenodd" stroke="#000000" stroke-width="1pt" stroke-linecap="butt" stroke-linejoin="miter" stroke-opacity="1"/>
      <path d="M 232.8,119.0 C 232.8,116.9 232.0,114.9 230.7,113.9 C 229.4,112.8 227.8,112.8 226.5,113.9 C 225.2,114.9 224.4,116.9 224.4,119.0 C 224.4,121.1 225.2,123.0 226.5,124.1 C 227.8,125.2 229.4,125.2 230.7,124.1 C 232.0,123.0 232.8,121.1 232.8,119.0 z " transform="matrix(-0.401691,-0.883563,0.91034,-0.413866,69.62627,282.3576)" fill-opacity="1" fill-rule="evenodd" stroke="#000000" stroke-width="1pt" stroke-linecap="butt" stroke-linejoin="miter" stroke-opacity="1"/>
      <path d="M 232.8,119.0 C 232.8,116.9 232.0,114.9 230.7,113.9 C 229.4,112.8 227.8,112.8 226.5,113.9 C 225.2,114.9 224.4,116.9 224.4,119.0 C 224.4,121.1 225.2,123.0 226.5,124.1 C 227.8,125.2 229.4,125.2 230.7,124.1 C 232.0,123.0 232.8,121.1 232.8,119.0 z " transform="matrix(-0.475604,-0.846073,0.871714,-0.490019,81.29559,287.8874)" fill-opacity="1" fill-rule="evenodd" stroke="#000000" stroke-width="1pt" stroke-linecap="butt" stroke-linejoin="miter" stroke-opacity="1"/>
      <path d="M 232.8,119.0 C 232.8,116.9 232.0,114.9 230.7,113.9 C 229.4,112.8 227.8,112.8 226.5,113.9 C 225.2,114.9 224.4,116.9 224.4,119.0 C 224.4,121.1 225.2,123.0 226.5,124.1 C 227.8,125.2 229.4,125.2 230.7,124.1 C 232.0,123.0 232.8,121.1 232.8,119.0 z " transform="matrix(-0.564729,-0.789379,0.813302,-0.581845,99.41281,292.1202)" fill-opacity="1" fill-rule="evenodd" stroke="#000000" stroke-width="1pt" stroke-linecap="butt" stroke-linejoin="miter" stroke-opacity="1"/>
      <path d="M 232.8,119.0 C 232.8,116.9 232.0,114.9 230.7,113.9 C 229.4,112.8 227.8,112.8 226.5,113.9 C 225.2,114.9 224.4,116.9 224.4,119.0 C 224.4,121.1 225.2,123.0 226.5,124.1 C 227.8,125.2 229.4,125.2 230.7,124.1 C 232.0,123.0 232.8,121.1 232.8,119.0 z " transform="matrix(-0.629495,-0.738765,0.761154,-0.648574,111.8287,295.0017)" fill-opacity="1" fill-rule="evenodd" stroke="#000000" stroke-width="1pt" stroke-linecap="butt" stroke-linejoin="miter" stroke-opacity="1"/>
      <path d="M 232.8,119.0 C 232.8,116.9 232.0,114.9 230.7,113.9 C 229.4,112.8 227.8,112.8 226.5,113.9 C 225.2,114.9 224.4,116.9 224.4,119.0 C 224.4,121.1 225.2,123.0 226.5,124.1 C 227.8,125.2 229.4,125.2 230.7,124.1 C 232.0,123.0 232.8,121.1 232.8,119.0 z " transform="matrix(-0.680848,-0.691725,0.712688,-0.701484,121.7223,298.5299)" fill-opacity="1" fill-rule="evenodd" stroke="#000000" stroke-width="1pt" stroke-linecap="butt" stroke-linejoin="miter" stroke-opacity="1"/>
      <path d="M 232.8,119.0 C 232.8,116.9 232.0,114.9 230.7,113.9 C 229.4,112.8 227.8,112.8 226.5,113.9 C 225.2,114.9 224.4,116.9 224.4,119.0 C 224.4,121.1 225.2,123.0 226.5,124.1 C 227.8,125.2 229.4,125.2 230.7,124.1 C 232.0,123.0 232.8,121.1 232.8,119.0 z " transform="matrix(-0.736356,-0.632311,0.651473,-0.758675,135.1894,300.5982)" fill-opacity="1" fill-rule="evenodd" stroke="#000000" stroke-width="1pt" stroke-linecap="butt" stroke-linejoin="miter" stroke-opacity="1"/>
      <path d="M 232.8,119.0 C 232.8,116.9 232.0,114.9 230.7,113.9 C 229.4,112.8 227.8,112.8 226.5,113.9 C 225.2,114.9 224.4,116.9 224.4,119.0 C 224.4,121.1 225.2,123.0 226.5,124.1 C 227.8,125.2 229.4,125.2 230.7,124.1 C 232.0,123.0 232.8,121.1 232.8,119.0 z " transform="matrix(-0.799589,-0.550177,0.566849,-0.823825,153.8237,298.5415)" fill-opacity="1" fill-rule="evenodd" stroke="#000000" stroke-width="1pt" stroke-linecap="butt" stroke-linejoin="miter" stroke-opacity="1"/>
      <path d="M 232.8,119.0 C 232.8,116.9 232.0,114.9 230.7,113.9 C 229.4,112.8 227.8,112.8 226.5,113.9 C 225.2,114.9 224.4,116.9 224.4,119.0 C 224.4,121.1 225.2,123.0 226.5,124.1 C 227.8,125.2 229.4,125.2 230.7,124.1 C 232.0,123.0 232.8,121.1 232.8,119.0 z " transform="matrix(-0.882213,-0.404646,0.416907,-0.908952,185.7724,285.3494)" fill-opacity="1" fill-rule="evenodd" stroke="#000000" stroke-width="1pt" stroke-linecap="butt" stroke-linejoin="miter" stroke-opacity="1"/>
      <path d="M 232.8,119.0 C 232.8,116.9 232.0,114.9 230.7,113.9 C 229.4,112.8 227.8,112.8 226.5,113.9 C 225.2,114.9 224.4,116.9 224.4,119.0 C 224.4,121.1 225.2,123.0 226.5,124.1 C 227.8,125.2 229.4,125.2 230.7,124.1 C 232.0,123.0 232.8,121.1 232.8,119.0 z " transform="matrix(-0.915264,-0.323002,0.332788,-0.943004,199.4109,281.4235)" fill-opacity="1" fill-rule="evenodd" stroke="#000000" stroke-width="1pt" stroke-linecap="butt" stroke-linejoin="miter" stroke-opacity="1"/>
      <path d="M 232.8,119.0 C 232.8,116.9 232.0,114.9 230.7,113.9 C 229.4,112.8 227.8,112.8 226.5,113.9 C 225.2,114.9 224.4,116.9 224.4,119.0 C 224.4,121.1 225.2,123.0 226.5,124.1 C 227.8,125.2 229.4,125.2 230.7,124.1 C 232.0,123.0 232.8,121.1 232.8,119.0 z " transform="matrix(-0.966438,-7.186533e-2,9.236109e-2,-0.798217,236.4132,226.6072)" fill-opacity="1" fill-rule="evenodd" stroke="#000000" stroke-width="1pt" stroke-linecap="butt" stroke-linejoin="miter" stroke-opacity="1"/>
      <path d="M 232.8,119.0 C 232.8,116.9 232.0,114.9 230.7,113.9 C 229.4,112.8 227.8,112.8 226.5,113.9 C 225.2,114.9 224.4,116.9 224.4,119.0 C 224.4,121.1 225.2,123.0 226.5,124.1 C 227.8,125.2 229.4,125.2 230.7,124.1 C 232.0,123.0 232.8,121.1 232.8,119.0 z " transform="matrix(-0.946313,-0.215708,0.222242,-0.974994,217.2116,271.3869)" fill-opacity="1" fill-rule="evenodd" stroke="#000000" stroke-width="1pt" stroke-linecap="butt" stroke-linejoin="miter" stroke-opacity="1"/>
    </g>
    <path d="M 679.9,195.9 C 682.3,193.2 684.6,192.5 687.5,193.4 C 686.5,186.5 684.3,184.1 681.6,185.0 C 678.9,185.8 677.7,189.4 679.9,195.9 z " font-size="12px" fill="#ffe300" fill-rule="evenodd" stroke-width="1"/>
    <path d="M 683.7,216.9 C 686.3,214.4 688.7,213.9 691.5,215.0 C 691.0,208.0 689.0,205.5 686.2,206.1 C 683.5,206.8 682.0,210.2 683.7,216.9 z " font-size="12px" fill="#ffe300" fill-rule="evenodd" stroke-width="1"/>
    <path d="M 674.7,176.7 C 676.4,173.5 678.5,172.2 681.5,172.4 C 678.8,165.9 676.0,164.2 673.7,165.7 C 671.3,167.2 671.0,170.9 674.7,176.7 z " font-size="12px" fill="#ffe300" fill-rule="evenodd" stroke-width="1"/>
    <path d="M 665.4,157.6 C 667.1,154.4 669.1,153.1 672.2,153.3 C 669.4,146.8 666.7,145.1 664.3,146.6 C 661.9,148.1 661.7,151.8 665.4,157.6 z " font-size="12px" fill="#ffe300" fill-rule="evenodd" stroke-width="1"/>
    <path d="M 642.9,122.5 C 644.1,119.1 645.9,117.5 649.0,117.2 C 645.2,111.2 642.2,110.0 640.1,111.8 C 638.0,113.7 638.3,117.5 642.9,122.5 z " font-size="12px" fill="#ffe300" fill-rule="evenodd" stroke-width="1"/>
    <path d="M 628.3,107.2 C 629.3,103.8 631.1,102.1 634.1,101.7 C 630.1,95.94 627.1,94.79 625.1,96.73 C 623.0,98.66 623.5,102.4 628.3,107.2 z " font-size="12px" fill="#ffe300" fill-rule="evenodd" stroke-width="1"/>
    <path d="M 597.5,81.28 C 597.4,77.67 598.5,75.54 601.3,74.21 C 595.7,69.92 592.5,69.76 591.1,72.23 C 589.8,74.70 591.4,78.11 597.5,81.28 z " font-size="12px" fill="#ffe300" fill-rule="evenodd" stroke-width="1"/>
    <path d="M 613.5,93.31 C 614.1,89.74 615.5,87.84 618.5,87.01 C 613.7,81.82 610.6,81.09 608.8,83.29 C 607.1,85.49 608.1,89.14 613.5,93.31 z " font-size="12px" fill="#ffe300" fill-rule="evenodd" stroke-width="1"/>
    <path d="M 579.2,71.19 C 578.7,67.60 579.6,65.36 582.2,63.76 C 576.2,60.06 573.0,60.23 571.9,62.83 C 570.8,65.42 572.8,68.66 579.2,71.19 z " font-size="12px" fill="#ffe300" fill-rule="evenodd" stroke-width="1"/>
    <path d="M 560.5,63.02 C 559.5,59.54 560.1,57.19 562.4,55.23 C 556.0,52.43 552.8,53.06 552.1,55.79 C 551.4,58.51 553.8,61.43 560.5,63.02 z " font-size="12px" fill="#ffe300" fill-rule="evenodd" stroke-width="1"/>
    <path d="M 540.3,56.78 C 539.1,53.39 539.4,51.00 541.6,48.85 C 535.0,46.61 531.8,47.50 531.4,50.28 C 530.9,53.05 533.6,55.75 540.3,56.78 z " font-size="12px" fill="#ffe300" fill-rule="evenodd" stroke-width="1"/>
    <path d="M 520.5,52.95 C 519.0,49.65 519.2,47.25 521.2,44.94 C 514.4,43.19 511.4,44.31 511.1,47.11 C 510.9,49.91 513.7,52.41 520.5,52.95 z " font-size="12px" fill="#ffe300" fill-rule="evenodd" stroke-width="1"/>
    <path d="M 499.6,51.34 C 497.7,48.22 497.7,45.80 499.5,43.30 C 492.5,42.27 489.6,43.69 489.6,46.50 C 489.6,49.32 492.7,51.52 499.6,51.34 z " font-size="12px" fill="#ffe300" fill-rule="evenodd" stroke-width="1"/>
    <path d="M 458.5,54.43 C 456.0,51.84 455.4,49.51 456.5,46.66 C 449.5,47.33 447.0,49.41 447.7,52.13 C 448.4,54.86 451.9,56.25 458.5,54.43 z " font-size="12px" fill="#ffe300" fill-rule="evenodd" stroke-width="1"/>
    <path d="M 478.7,51.77 C 476.6,48.86 476.3,46.47 477.8,43.79 C 470.7,43.51 468.0,45.24 468.3,48.03 C 468.7,50.83 471.9,52.68 478.7,51.77 z " font-size="12px" fill="#ffe300" fill-rule="evenodd" stroke-width="1"/>
    <path d="M 438.7,58.71 C 435.8,56.51 434.9,54.29 435.6,51.31 C 428.7,52.98 426.6,55.40 427.7,57.99 C 428.8,60.58 432.4,61.46 438.7,58.71 z " font-size="12px" fill="#ffe300" fill-rule="evenodd" stroke-width="1"/>
    <path d="M 400.7,76.16 C 397.5,74.54 396.2,72.55 396.3,69.49 C 389.9,72.43 388.2,75.21 389.8,77.55 C 391.3,79.89 395.1,80.05 400.7,76.16 z " font-size="12px" fill="#ffe300" fill-rule="evenodd" stroke-width="1"/>
    <path d="M 419.0,66.81 C 416.0,64.81 414.9,62.67 415.4,59.65 C 408.7,61.79 406.7,64.35 408.0,66.86 C 409.3,69.37 413.0,69.99 419.0,66.81 z " font-size="12px" fill="#ffe300" fill-rule="evenodd" stroke-width="1"/>
    <path d="M 366.7,99.86 C 363.2,98.95 361.5,97.28 360.9,94.27 C 355.3,98.48 354.3,101.5 356.3,103.5 C 358.3,105.4 362.0,104.8 366.7,99.86 z " font-size="12px" fill="#ffe300" fill-rule="evenodd" stroke-width="1"/>
    <path d="M 382.9,86.57 C 379.5,85.38 377.9,83.59 377.6,80.54 C 371.7,84.30 370.4,87.27 372.3,89.38 C 374.1,91.50 377.9,91.16 382.9,86.57 z " font-size="12px" fill="#ffe300" fill-rule="evenodd" stroke-width="1"/>
    <path d="M 352.3,114.0 C 348.7,113.4 346.8,111.9 346.0,109.0 C 340.8,113.7 340.0,116.8 342.2,118.6 C 344.4,120.4 348.1,119.4 352.3,114.0 z " font-size="12px" fill="#ffe300" fill-rule="evenodd" stroke-width="1"/>
    <path d="M 339.3,130.8 C 335.7,130.5 333.7,129.2 332.7,126.4 C 327.9,131.5 327.4,134.7 329.7,136.3 C 332.1,137.8 335.6,136.6 339.3,130.8 z " font-size="12px" fill="#ffe300" fill-rule="evenodd" stroke-width="1"/>
    <path d="M 328.5,148.0 C 324.9,148.3 322.7,147.3 321.2,144.6 C 317.3,150.4 317.3,153.7 319.9,154.8 C 322.4,156.0 325.7,154.2 328.5,148.0 z " font-size="12px" fill="#ffe300" fill-rule="evenodd" stroke-width="1"/>
    <path d="M 319.0,166.3 C 315.5,167.0 313.2,166.3 311.4,163.9 C 308.2,170.2 308.7,173.4 311.3,174.2 C 314.0,175.1 317.1,172.9 319.0,166.3 z " font-size="12px" fill="#ffe300" fill-rule="evenodd" stroke-width="1"/>
    <path d="M 311.4,185.1 C 308.1,186.4 305.7,186.1 303.5,183.9 C 301.4,190.7 302.3,193.7 305.1,194.2 C 307.9,194.6 310.5,191.9 311.4,185.1 z " font-size="12px" fill="#ffe300" fill-rule="evenodd" stroke-width="1"/>
    <path d="M 306.3,206.1 C 303.1,207.6 300.7,207.4 298.3,205.4 C 296.7,212.3 297.8,215.3 300.6,215.5 C 303.4,215.8 305.9,212.9 306.3,206.1 z " font-size="12px" fill="#ffe300" fill-rule="evenodd" stroke-width="1"/>
    <path d="M 304.3,223.5 C 301.2,225.1 298.8,225.3 296.3,224.1 C 295.3,229.7 296.8,231.9 299.6,231.7 C 302.4,231.5 304.6,228.9 304.3,223.5 z " font-size="12px" fill="#ffe300" fill-rule="evenodd" stroke-width="1"/>
    <path d="M 657.0,140.5 C 658.3,137.1 660.1,135.5 663.1,135.3 C 659.5,129.3 656.5,128.0 654.4,129.8 C 652.2,131.6 652.5,135.4 657.0,140.5 z " font-size="12px" fill="#ffe300" fill-rule="evenodd" stroke-width="1"/>
    <path d="M 686.0,238.2 C 688.6,235.7 691.0,235.2 693.8,236.3 C 693.3,229.3 691.3,226.8 688.5,227.4 C 685.8,228.1 684.3,231.5 686.0,238.2 z " font-size="12px" fill="#ffe300" fill-rule="evenodd" stroke-width="1"/>
    <path d="M 658.4,123.9 C 658.3,123.9 650.4,131.8 651.8,141.3 C 653.2,150.9 659.3,162.7 658.1,172.7 C 657.0,182.6 655.2,189.2 655.2,189.2 C 655.2,189.2 664.5,178.7 664.6,168.6 C 664.6,158.5 658.2,145.2 658.2,137.7 C 658.2,130.3 658.6,123.7 658.4,123.9 z " font-size="12px" fill="#217900" fill-rule="evenodd" stroke="#000000" stroke-width="1.919" stroke-linejoin="round"/>
    <path d="M 673.0,156.1 C 673.0,156.1 666.9,160.6 667.5,171.0 C 668.1,181.5 678.8,200.6 678.8,200.6 C 678.8,200.6 686.7,216.8 686.5,221.0 C 686.2,225.2 687.9,217.0 687.1,207.8 C 686.4,198.5 674.5,178.1 674.5,178.1 C 674.5,178.1 671.9,173.9 672.2,167.0 C 672.4,160.1 673.1,156.1 673.0,156.1 z " font-size="12px" fill="#217900" fill-rule="evenodd" stroke="#000000" stroke-width="1.919" stroke-linejoin="round"/>
    <path d="M 487.9,26.74 C 487.9,24.58 485.5,22.83 482.5,22.83 C 479.5,22.83 477.0,24.58 477.0,26.74 C 477.0,28.90 479.5,30.66 482.5,30.66 C 485.5,30.66 487.9,28.90 487.9,26.74 L 487.9,26.74 z " font-size="12px" fill="#6b18b5" fill-rule="evenodd" stroke-width="1"/>
    <path d="M 490.2,35.84 C 490.2,33.77 487.7,32.09 484.6,32.09 C 481.5,32.09 479.0,33.77 479.0,35.84 C 479.0,37.92 481.5,39.59 484.6,39.59 C 487.7,39.59 490.2,37.92 490.2,35.84 L 490.2,35.84 z " font-size="12px" fill="#6b18b5" fill-rule="evenodd" stroke-width="1"/>
    <path d="M 497.1,25.07 C 497.1,25.07 490.8,29.86 493.4,31.77 C 496.0,33.69 503.3,27.62 503.3,27.62 L 497.1,25.07 z " font-size="12px" fill="#6b18b5" fill-rule="evenodd" stroke-width="1"/>
    <path d="M 684.8,134.7 C 684.8,133.3 684.2,132.1 683.2,131.4 C 682.1,130.7 680.8,130.7 679.8,131.4 C 678.8,132.1 678.1,133.3 678.1,134.7 C 678.1,136.0 678.8,137.3 679.8,138.0 C 680.8,138.7 682.1,138.7 683.2,138.0 C 684.2,137.3 684.8,136.0 684.8,134.7 z " font-size="12px" fill="#6b18b5" fill-rule="evenodd" stroke-width="1"/>
    <path d="M 682.4,125.5 C 682.4,123.3 680.8,121.4 678.9,121.4 C 677.0,121.4 675.4,123.3 675.4,125.5 C 675.4,127.8 677.0,129.7 678.9,129.7 C 680.8,129.7 682.4,127.8 682.4,125.5 z " font-size="12px" fill="#6b18b5" fill-rule="evenodd" stroke-width="1"/>
    <path d="M 684.1,144.1 C 684.1,142.9 683.5,142.0 682.7,142.0 C 681.9,142.0 681.3,142.9 681.3,144.1 C 681.3,145.3 681.9,146.3 682.7,146.3 C 683.5,146.3 684.1,145.3 684.1,144.1 z " font-size="12px" fill="#6b18b5" fill-rule="evenodd" stroke-width="1"/>
    <path d="M 689.7,127.5 C 689.7,126.2 689.1,125.1 688.3,125.1 C 687.6,125.1 687.0,126.2 687.0,127.5 C 687.0,128.9 687.6,130.0 688.3,130.0 C 689.1,130.0 689.7,128.9 689.7,127.5 L 689.7,127.5 z " font-size="12px" fill="#6b18b5" fill-rule="evenodd" stroke-width="1"/>
    <path d="M 674.3,129.2 C 674.3,128.1 673.7,127.2 673.0,127.2 C 672.2,127.2 671.6,128.1 671.6,129.2 C 671.6,130.3 672.2,131.2 673.0,131.2 C 673.7,131.2 674.3,130.3 674.3,129.2 L 674.3,129.2 z " font-size="12px" fill="#6b18b5" fill-rule="evenodd" stroke-width="1"/>
    <path d="M 676.8,142.3 C 676.8,140.5 675.5,139.1 673.9,139.1 C 672.3,139.1 671.0,140.5 671.0,142.3 C 671.0,144.1 672.3,145.5 673.9,145.5 C 675.5,145.5 676.8,144.1 676.8,142.3 L 676.8,142.3 z " font-size="12px" fill="#6b18b5" fill-rule="evenodd" stroke-width="1"/>
    <path d="M 669.1,136.5 C 669.1,135.0 668.1,133.8 666.7,133.8 C 665.4,133.8 664.3,135.0 664.3,136.5 C 664.3,138.0 665.4,139.3 666.7,139.3 C 668.1,139.3 669.1,138.0 669.1,136.5 z " font-size="12px" fill="#6b18b5" fill-rule="evenodd" stroke-width="1"/>
    <path d="M 667.9,128.7 C 667.9,127.9 667.5,127.2 666.9,126.8 C 666.2,126.4 665.4,126.4 664.7,126.8 C 664.1,127.2 663.7,127.9 663.7,128.7 C 663.7,129.6 664.1,130.3 664.7,130.7 C 665.4,131.1 666.2,131.1 666.9,130.7 C 667.5,130.3 667.9,129.6 667.9,128.7 z " font-size="12px" fill="#6b18b5" fill-rule="evenodd" stroke-width="1"/>
    <path d="M 702.6,168.2 C 699.5,164.1 694.5,162.3 691.4,164.3 C 688.3,166.3 688.4,171.3 691.5,175.4 C 694.7,179.6 699.7,181.3 702.8,179.4 C 705.8,177.4 705.8,172.4 702.6,168.2 z " font-size="12px" fill="#6b18b5" fill-rule="evenodd" stroke-width="1"/>
    <path d="M 711.6,244.8 C 712.2,239.7 709.7,235.2 706.0,234.8 C 702.4,234.4 698.9,238.1 698.3,243.2 C 697.7,248.3 700.2,252.8 703.8,253.2 C 707.5,253.7 711.0,249.9 711.6,244.8 L 711.6,244.8 z " font-size="12px" fill="#6b18b5" fill-rule="evenodd" stroke-width="1"/>
    <path d="M 713.5,289.4 C 714.5,284.4 712.4,279.7 708.8,278.9 C 705.2,278.2 701.4,281.6 700.4,286.7 C 699.3,291.7 701.4,296.4 705.0,297.1 C 708.6,297.9 712.4,294.4 713.5,289.4 L 713.5,289.4 z " font-size="12px" fill="#6b18b5" fill-rule="evenodd" stroke-width="1"/>
    <path d="M 722.1,247.7 C 722.1,245.7 720.7,244.0 719.0,244.0 C 717.3,244.0 716.0,245.7 716.0,247.7 C 716.0,249.7 717.3,251.3 719.0,251.3 C 720.7,251.3 722.1,249.7 722.1,247.7 L 722.1,247.7 z " font-size="12px" fill="#6b18b5" fill-rule="evenodd" stroke-width="1"/>
    <path d="M 714.6,256.0 L 708.4,263.1 C 708.4,263.1 702.5,263.3 702.8,265.2 C 703.1,267.1 710.9,272.8 710.8,275.1 C 710.7,277.4 716.0,274.6 716.0,274.6 C 716.0,274.6 720.2,261.8 720.2,261.8 C 720.2,261.7 719.9,252.9 717.6,253.1 C 715.4,253.2 714.7,255.9 714.6,256.0 z " font-size="12px" fill="#6b18b5" fill-rule="evenodd" stroke-width="1"/>
    <path d="M 303.9,253.2 C 303.9,251.6 302.6,250.3 300.9,250.3 C 299.3,250.3 298.0,251.6 298.0,253.2 C 298.0,254.9 299.3,256.2 300.9,256.2 C 302.6,256.2 303.9,254.9 303.9,253.2 z " font-size="12px" fill="#6b18b5" fill-rule="evenodd" stroke-width="1"/>
    <path d="M 306.7,244.2 C 306.7,242.4 305.4,241.0 303.8,241.0 C 302.1,241.0 300.8,242.4 300.8,244.2 C 300.8,245.9 302.1,247.3 303.8,247.3 C 305.4,247.3 306.7,245.9 306.7,244.2 L 306.7,244.2 z " font-size="12px" fill="#6b18b5" fill-rule="evenodd" stroke-width="1"/>
    <path d="M 282.3,201.0 C 281.2,198.5 278.9,197.1 277.1,197.9 C 275.4,198.7 274.9,201.3 276.0,203.8 C 277.1,206.3 279.4,207.7 281.2,206.9 C 282.9,206.1 283.4,203.5 282.3,201.0 z " font-size="12px" fill="#6b18b5" fill-rule="evenodd" stroke-width="1"/>
    <path d="M 289.7,227.9 C 288.2,224.7 285.0,222.8 282.6,223.9 C 280.2,224.9 279.5,228.3 281.0,231.6 C 282.5,234.8 285.7,236.6 288.1,235.6 C 290.5,234.6 291.2,231.1 289.7,227.9 z " font-size="12px" fill="#6b18b5" fill-rule="evenodd" stroke-width="1"/>
    <path d="M 297.6,247.6 C 298.1,243.6 296.4,239.9 293.8,239.3 C 291.3,238.8 288.8,241.6 288.3,245.7 C 287.8,249.7 289.5,253.4 292.0,254.0 C 294.6,254.5 297.1,251.7 297.6,247.6 z " font-size="12px" fill="#6b18b5" fill-rule="evenodd" stroke-width="1"/>
    <path d="M 284.9,250.5 C 286.5,246.8 285.9,242.7 283.6,241.5 C 281.3,240.3 278.1,242.3 276.5,246.1 C 274.9,249.8 275.5,253.9 277.9,255.1 C 280.2,256.3 283.3,254.3 284.9,250.5 z " font-size="12px" fill="#6b18b5" fill-rule="evenodd" stroke-width="1"/>
    <path d="M 279.2,242.0 C 279.2,240.1 277.7,238.6 275.9,238.6 C 274.0,238.6 272.5,240.1 272.5,242.0 C 272.5,243.9 274.0,245.5 275.9,245.5 C 277.7,245.5 279.2,243.9 279.2,242.0 z " font-size="12px" fill="#6b18b5" fill-rule="evenodd" stroke-width="1"/>
    <path d="M 276.5,233.4 C 276.5,231.7 275.2,230.3 273.5,230.3 C 271.9,230.3 270.6,231.7 270.6,233.4 C 270.6,235.2 271.9,236.6 273.5,236.6 C 275.2,236.6 276.5,235.2 276.5,233.4 L 276.5,233.4 z " font-size="12px" fill="#6b18b5" fill-rule="evenodd" stroke-width="1"/>
    <path d="M 279.3,216.9 C 279.3,214.0 278.0,211.6 276.4,211.6 C 274.8,211.6 273.5,214.0 273.5,216.9 C 273.5,219.8 274.8,222.2 276.4,222.2 C 278.0,222.2 279.3,219.8 279.3,216.9 L 279.3,216.9 z " font-size="12px" fill="#6b18b5" fill-rule="evenodd" stroke-width="1"/>
    <path d="M 288.2,215.7 C 288.6,212.8 287.6,210.3 286.0,210.0 C 284.5,209.8 282.9,212.0 282.5,214.9 C 282.1,217.8 283.1,220.3 284.6,220.5 C 286.2,220.7 287.8,218.6 288.2,215.7 L 288.2,215.7 z " font-size="12px" fill="#6b18b5" fill-rule="evenodd" stroke-width="1"/>
    <path d="M 351.6,89.33 C 352.7,85.23 351.5,81.12 348.8,80.13 C 346.2,79.15 343.0,81.68 341.9,85.77 C 340.7,89.87 341.9,93.98 344.6,94.97 C 347.3,95.95 350.4,93.42 351.6,89.33 z " font-size="12px" fill="#6b18b5" fill-rule="evenodd" stroke-width="1"/>
    <path d="M 339.5,107.5 C 343.1,104.5 344.6,100.4 342.9,98.28 C 341.2,96.16 337.0,96.88 333.5,99.88 C 330.0,102.8 328.4,107.0 330.1,109.1 C 331.8,111.2 336.0,110.5 339.5,107.5 z " font-size="12px" fill="#6b18b5" fill-rule="evenodd" stroke-width="1"/>
    <path d="M 332.5,97.44 C 336.0,94.86 337.5,91.30 335.8,89.48 C 334.2,87.66 330.0,88.27 326.5,90.85 C 323.0,93.43 321.5,96.99 323.2,98.81 C 324.8,100.6 329.0,100.0 332.5,97.44 z " font-size="12px" fill="#6b18b5" fill-rule="evenodd" stroke-width="1"/>
    <path d="M 359.6,79.64 C 361.9,77.84 362.9,75.36 361.8,74.09 C 360.7,72.82 357.9,73.25 355.5,75.05 C 353.2,76.85 352.2,79.33 353.3,80.60 C 354.4,81.87 357.2,81.44 359.6,79.64 z " font-size="12px" fill="#6b18b5" fill-rule="evenodd" stroke-width="1"/>
    <path d="M 345.5,96.89 C 347.1,94.40 347.2,91.72 345.7,90.90 C 344.2,90.08 341.7,91.43 340.1,93.92 C 338.5,96.40 338.4,99.08 339.9,99.90 C 341.3,100.7 343.8,99.37 345.5,96.89 z " font-size="12px" fill="#6b18b5" fill-rule="evenodd" stroke-width="1"/>
    <path d="M 365.8,86.23 C 368.3,84.10 369.3,81.27 368.0,79.92 C 366.7,78.57 363.6,79.20 361.0,81.33 C 358.5,83.47 357.5,86.29 358.8,87.64 C 360.2,89.00 363.3,88.36 365.8,86.23 z " font-size="12px" fill="#6b18b5" fill-rule="evenodd" stroke-width="1"/>
    <path d="M 329.0,111.0 C 331.4,110.9 333.2,109.7 333.0,108.4 C 332.9,107.1 330.8,106.1 328.4,106.2 C 326.1,106.3 324.3,107.5 324.4,108.8 C 324.6,110.2 326.7,111.2 329.0,111.0 z " font-size="12px" fill="#6b18b5" fill-rule="evenodd" stroke-width="1"/>
    <path d="M 373.6,73.02 C 375.2,70.53 375.3,67.85 373.8,67.03 C 372.3,66.21 369.8,67.56 368.2,70.05 C 366.6,72.54 366.5,75.22 368.0,76.04 C 369.4,76.86 371.9,75.51 373.6,73.02 z " font-size="12px" fill="#6b18b5" fill-rule="evenodd" stroke-width="1"/>
    <path d="M 641.8,148.4 C 641.8,148.4 649.1,136.8 646.3,125.9 C 643.4,115.0 631.3,122.7 631.6,126.6 C 631.8,130.5 639.4,135.7 639.9,138.0 C 640.3,140.4 639.0,147.7 641.8,148.4 z " font-size="12px" fill="#ffd200" fill-rule="evenodd" stroke="#ef8a10"/>
    <path d="M 501.6,51.88 C 501.6,51.88 528.1,52.90 528.2,70.02 C 528.1,72.67 528.2,75.84 527.3,83.45 C 532.5,80.63 536.0,72.76 535.3,67.71 C 535.4,50.34 511.7,38.44 501.6,51.88 z " font-size="12px" fill="#217900" fill-rule="evenodd" stroke="#000000" stroke-width="2.399" stroke-linejoin="round"/>
    <path d="M 484.8,51.11 C 484.8,51.11 506.2,46.66 506.3,63.77 C 506.5,80.89 499.6,83.63 499.6,83.63 C 499.6,83.63 515.9,80.12 516.0,62.74 C 516.1,45.37 494.9,37.67 484.8,51.11 z " font-size="12px" fill="#217900" fill-rule="evenodd" stroke="#000000" stroke-width="2.399" stroke-linejoin="round"/>
    <g transform="matrix(1.919646,0,0,1.919646,249.652,5.766954)" font-size="12px">
      <path d="M 160.2,215.9 C 160.2,215.9 212.2,201.2 227.9,137.5 C 218.7,202.9 161.9,223.7 161.9,223.7 L 160.2,215.9 z " fill="#f7df73" fill-opacity="1" fill-rule="evenodd" stroke="#000000" stroke-width="1pt" stroke-linecap="butt" stroke-linejoin="round" stroke-opacity="1"/>
      <path d="M 165.5,219.9 C 167.1,219.9 171.1,215.5 173.4,215.0 C 175.7,214.5 175.9,212.2 173.3,212.1 C 170.7,212.0 168.4,215.1 168.4,215.1 C 168.4,215.1 166.1,217.0 163.8,217.3 C 161.4,217.5 162.9,220.5 165.5,219.9 z " fill="#8c1800" fill-opacity="1" fill-rule="evenodd" stroke="none" stroke-width="1pt" stroke-linecap="butt" stroke-linejoin="miter" stroke-opacity="1"/>
      <path d="M 195.5,197.6 C 195.5,197.6 190.1,200.7 190.8,201.5 C 191.6,202.2 196.4,198.5 196.5,198.4 C 196.6,198.3 198.5,196.0 195.5,197.6 z " fill="#8c1800" fill-opacity="1" fill-rule="evenodd" stroke="#8c1800" stroke-width="1pt" stroke-linecap="butt" stroke-linejoin="miter" stroke-opacity="1"/>
      <path d="M 176.6,211.8 C 176.6,211.8 175.0,211.2 179.1,209.6 C 183.3,208.0 183.0,206.1 184.4,205.4 C 185.7,204.6 188.6,202.6 189.2,203.7 C 189.8,204.9 186.2,207.3 185.3,207.5 C 184.5,207.8 180.3,211.6 179.1,211.9 C 178.0,212.3 177.1,212.1 176.6,211.8 z " fill="#8c1800" fill-opacity="1" fill-rule="evenodd" stroke="none" stroke-width="1pt" stroke-linecap="butt" stroke-linejoin="miter" stroke-opacity="1"/>
      <path d="M 203.5,189.6 C 199.9,193.6 199.9,193.5 199.9,193.5" fill="none" fill-opacity="1" fill-rule="evenodd" stroke="#8c1800" stroke-width="1.625" stroke-linecap="round" stroke-linejoin="miter" stroke-opacity="1"/>
      <path d="M 208.8,183.1 L 205.4,187.3" fill="none" fill-opacity="1" fill-rule="evenodd" stroke="#8c1800" stroke-width="1.5" stroke-linecap="round" stroke-linejoin="miter" stroke-opacity="1"/>
      <path d="M 214.1,174.7 L 210.3,180.8" fill="none" fill-opacity="1" fill-rule="evenodd" stroke="#8c1800" stroke-width="1.375" stroke-linecap="round" stroke-linejoin="miter" stroke-opacity="1"/>
      <path d="M 218.6,166.0 L 215.5,172.3" fill="none" fill-opacity="1" fill-rule="evenodd" stroke="#8c1800" stroke-width="1.25" stroke-linecap="round" stroke-linejoin="miter" stroke-opacity="1"/>
      <path d="M 220.7,161.532 L 219.6,163.7" fill="none" fill-opacity="1" fill-rule="evenodd" stroke="#8c1800" stroke-width="1.25" stroke-linecap="round" stroke-linejoin="miter" stroke-opacity="1"/>
      <path d="M 222.9,155.5 L 222.1,158.1" fill="none" fill-opacity="1" fill-rule="evenodd" stroke="#8c1800" stroke-width="0.75" stroke-linecap="round" stroke-linejoin="miter" stroke-opacity="1"/>
    </g>
    <g transform="matrix(-1.902056,0,0,1.954154,731.3943,-4.333184)" font-size="12px">
      <path d="M 160.2,215.9 C 160.2,215.9 212.2,201.2 227.9,137.5 C 218.7,202.9 161.9,223.7 161.9,223.7 L 160.2,215.9 z " fill="#f7df73" fill-opacity="1" fill-rule="evenodd" stroke="#000000" stroke-width="1pt" stroke-linecap="butt" stroke-linejoin="round" stroke-opacity="1"/>
      <path d="M 165.5,219.9 C 167.1,219.9 171.1,215.5 173.4,215.0 C 175.7,214.5 175.9,212.2 173.3,212.1 C 170.7,212.0 168.4,215.1 168.4,215.1 C 168.4,215.1 166.1,217.0 163.8,217.3 C 161.4,217.5 162.9,220.5 165.5,219.9 z " fill="#8c1800" fill-opacity="1" fill-rule="evenodd" stroke="none" stroke-width="1pt" stroke-linecap="butt" stroke-linejoin="miter" stroke-opacity="1"/>
      <path d="M 195.5,197.6 C 195.5,197.6 190.1,200.7 190.8,201.5 C 191.6,202.2 196.4,198.5 196.5,198.4 C 196.6,198.3 198.5,196.0 195.5,197.6 z " fill="#8c1800" fill-opacity="1" fill-rule="evenodd" stroke="#8c1800" stroke-width="1pt" stroke-linecap="butt" stroke-linejoin="miter" stroke-opacity="1"/>
      <path d="M 176.6,211.8 C 176.6,211.8 175.0,211.2 179.1,209.6 C 183.3,208.0 183.0,206.1 184.4,205.4 C 185.7,204.6 188.6,202.6 189.2,203.7 C 189.8,204.9 186.2,207.3 185.3,207.5 C 184.5,207.8 180.3,211.6 179.1,211.9 C 178.0,212.3 177.1,212.1 176.6,211.8 z " fill="#8c1800" fill-opacity="1" fill-rule="evenodd" stroke="none" stroke-width="1pt" stroke-linecap="butt" stroke-linejoin="miter" stroke-opacity="1"/>
      <path d="M 203.5,189.6 C 199.9,193.6 199.9,193.5 199.9,193.5" fill="none" fill-opacity="1" fill-rule="evenodd" stroke="#8c1800" stroke-width="1.625" stroke-linecap="round" stroke-linejoin="miter" stroke-opacity="1"/>
      <path d="M 208.8,183.1 L 205.4,187.3" fill="none" fill-opacity="1" fill-rule="evenodd" stroke="#8c1800" stroke-width="1.5" stroke-linecap="round" stroke-linejoin="miter" stroke-opacity="1"/>
      <path d="M 214.1,174.7 L 210.3,180.8" fill="none" fill-opacity="1" fill-rule="evenodd" stroke="#8c1800" stroke-width="1.375" stroke-linecap="round" stroke-linejoin="miter" stroke-opacity="1"/>
      <path d="M 218.6,166.0 L 215.5,172.3" fill="none" fill-opacity="1" fill-rule="evenodd" stroke="#8c1800" stroke-width="1.25" stroke-linecap="round" stroke-linejoin="miter" stroke-opacity="1"/>
      <path d="M 220.7,161.532 L 219.6,163.7" fill="none" fill-opacity="1" fill-rule="evenodd" stroke="#8c1800" stroke-width="1.25" stroke-linecap="round" stroke-linejoin="miter" stroke-opacity="1"/>
      <path d="M 222.9,155.5 L 222.1,158.1" fill="none" fill-opacity="1" fill-rule="evenodd" stroke="#8c1800" stroke-width="0.75" stroke-linecap="round" stroke-linejoin="miter" stroke-opacity="1"/>
    </g>
    <path d="M 691.8,247.2 C 692.3,254.9 699.8,262.2 696.9,275.6 C 693.1,290.8 679.9,326.9 682.2,333.3 C 678.3,327.9 678.9,322.8 678.6,315.3 C 678.3,307.8 689.6,279.9 690.5,270.4 C 690.5,261.9 691.4,250.3 691.8,247.2 z " font-size="12px" fill="#217900" fill-rule="evenodd" stroke="#000000" stroke-width="2.399" stroke-linejoin="round"/>
    <path d="M 691.8,247.3 C 691.8,247.3 704.1,262.9 703.4,275.1 C 702.8,287.4 695.9,301.7 698.2,308.1 C 694.3,302.7 693.3,299.3 693.0,291.8 C 692.7,284.3 699.0,275.9 697.7,267.8 C 696.4,259.6 691.7,247.3 691.8,247.3 z " font-size="12px" fill="#217900" fill-rule="evenodd" stroke="#000000" stroke-width="2.399" stroke-linejoin="round"/>
    <path d="M 290.5,250.8 C 290.0,258.5 284.3,265.3 287.2,278.7 C 291.0,293.9 304.3,313.2 302.2,335.2 C 306.1,329.8 307.3,323.8 307.6,316.3 C 307.9,308.8 292.7,283.4 291.8,274.0 C 291.8,265.5 291.0,253.9 290.5,250.8 z " font-size="12px" fill="#217900" fill-rule="evenodd" stroke="#000000" stroke-width="2.399" stroke-linejoin="round"/>
    <path d="M 290.5,250.9 C 290.5,250.9 278.5,266.0 279.2,278.2 C 279.4,286.4 294.4,320.5 292.1,326.9 C 296.0,321.5 297.2,322.2 297.0,314.0 C 292.6,293.1 284.7,279.7 286.1,271.5 C 287.4,263.4 290.6,250.9 290.5,250.9 z " font-size="12px" fill="#217900" fill-rule="evenodd" stroke="#000000" stroke-width="2.399" stroke-linejoin="round"/>
    <path transform="matrix(1.338914,0,0,1.339097,360.4303,-54.89397)" d="M 99.95,125.7 L 122.1,194.0 L 193.8,194.0 L 135.8,236.1 L 158.0,304.4 L 99.95,262.2 L 41.91,304.4 L 64.08,236.1 L 6.042,194.0 L 77.78,194.0 L 99.95,125.7 z " sodipodi:arg2="-0.9424778" sodipodi:arg1="-1.5707963" sodipodi:r2="37.722038" sodipodi:r1="98.748795" opacity="1" fill="#ffffff" fill-opacity="1" fill-rule="nonzero" stroke="#000000" stroke-width="1.493" stroke-linecap="square" stroke-linejoin="round" stroke-miterlimit="4" stroke-dasharray="none" stroke-dashoffset="0.99999998" stroke-opacity="1"/>
  </g>
</svg>
