<?xml version="1.0" encoding="UTF-8" standalone="no"?>
<svg xmlns:dc="http://purl.org/dc/elements/1.1/" xmlns:cc="http://web.resource.org/cc/" xmlns:rdf="http://www.w3.org/1999/02/22-rdf-syntax-ns#" xmlns:svg="http://www.w3.org/2000/svg" xmlns="http://www.w3.org/2000/svg" version="1.0" width="1000" height="700" id="Flag of Andorra">
  
  <defs id="defs2567"/>
  <sodipodi:namedview borderopacity="1.0" bordercolor="#666666" pagecolor="#ffffff" id="base"/>
  <rect width="320" height="700" x="0" y="0" id="blue stripe" fill="#380096"/>
  <rect width="360" height="700" x="320" y="0" id="yellow stripe" fill="#FCE016"/>
  <rect width="320" height="700" x="680" y="0" id="red stripe" fill="#D81C3F"/>
  <path d="M 637.5,407.6 C 652.3,429.1 641.2,471.8 590.1,471.8 C 552.3,471.8 540.2,477.2 536.2,481.2 C 544.8,488.7 542.8,503.4 530.5,504.4 C 523.7,509.7 517.5,511.0 510.6,503.7 C 507.3,508.3 504.8,512.8 499.9,514.8 C 494.3,511.4 491.4,507.9 487.9,503.4 C 481.2,508.8 476.0,510.2 471.3,504.9 C 456.8,504.9 448.3,490.1 461.6,481.3 C 453.9,472.3 435.2,471.8 419.1,471.8 C 359.9,478.5 343.3,429.9 365.2,403.1 C 350.4,398.5 350.3,376.8 370.6,381.1 C 377.9,379.1 378.9,359.0 376.7,353.6 C 365.5,361.1 351.9,348.3 363.5,335.7 C 332.7,324.9 344.7,268.2 381.4,275.2 C 388.0,276.4 388.8,272.7 390.8,269.9 C 392.8,264.2 389.8,257.4 380.4,249.3 C 365.6,239.9 372.6,225.4 376.6,223.3 C 377.3,220.1 382.4,214.0 385.1,215.1 C 387.8,209.9 399.3,207.0 401.2,209.3 C 405.8,205.7 411.7,204.9 415.6,206.9 C 421.3,204.7 426.4,207.1 426.5,210.0 C 436.0,211.2 438.2,218.0 435.3,226.3 C 439.5,231.1 443.0,231.0 452.4,230.2 C 463.2,228.8 463.8,218.7 458.5,213.3 C 449.0,190.4 467.1,179.6 479.7,187.7 C 497.1,199.3 506.3,198.1 516.0,189.1 C 526.8,179.1 550.7,189.4 541.3,212.3 C 535.9,219.1 535.3,229.6 549.7,229.5 C 551.3,229.1 564.8,228.8 565.5,228.3 C 558.0,220.9 563.9,208.9 573.4,208.8 C 574.0,206.8 578.8,206.0 582.6,207.9 C 584.5,205.4 593.8,206.9 596.3,210.1 C 599.8,208.8 612.2,212.0 613.6,217.7 C 620.0,218.9 622.8,222.4 622.7,225.6 C 631.5,230.5 626.9,244.3 617.0,249.8 C 607.6,256.6 607.2,264.1 607.2,266.8 C 607.2,269.5 610.1,276.4 617.0,275.2 C 660.3,267.9 664.3,324.0 635.8,335.8 C 640.1,343.8 638.1,353.5 624.5,351.9 C 618.7,360.6 623.8,379.0 631.5,384.2 C 647.7,377.4 654.4,404.5 637.5,406.2 L 637.5,407.6 L 637.5,407.6 L 637.5,407.6 L 637.5,407.6 L 637.5,407.6 L 637.5,407.6 L 637.5,407.6 L 637.5,407.6 L 637.5,407.6 L 637.5,407.6 L 637.5,407.6 L 637.5,407.6 L 637.5,407.6 L 637.5,407.6 L 637.5,407.6 L 637.5,407.6 L 637.5,407.6 L 637.5,407.6 z " fill="#d1bf91" fill-opacity="1" fill-rule="evenodd" stroke="#7a3f28" stroke-width="1.895" stroke-linecap="butt" stroke-linejoin="miter" stroke-dasharray="none" stroke-opacity="1"/>
  <path d="M 190.0,179.2 C 190.6,179.8 189.5,180.4 189.0,180.4 C 187.6,180.1 187.2,178.4 187.7,177.2 C 188.6,175.3 191.2,174.9 193.0,175.9 C 195.5,177.4 195.9,180.9 194.4,183.2" sodipodi:t0="0" transform="matrix(-0.436683,1.447864,1.663729,0.610352,405.5237,-57.2155)" font-size="12px" fill="none" fill-rule="evenodd" stroke="#7a3f28" stroke-width="1.158" stroke-dasharray="none" stroke-opacity="1"/>
  <path d="M 190.0,179.2 C 190.6,179.8 189.5,180.4 189.0,180.4 C 187.6,180.1 187.2,178.4 187.7,177.2 C 188.6,175.3 191.2,174.9 193.0,175.9 C 195.5,177.4 195.9,180.9 194.4,183.2" sodipodi:t0="0" transform="matrix(-0.436683,-1.447864,1.663729,-0.610352,405.5237,678.5317)" font-size="12px" fill="none" fill-rule="evenodd" stroke="#7a3f28" stroke-width="1.158" stroke-dasharray="none" stroke-opacity="1"/>
  <path d="M 190.0,179.2 C 190.6,179.8 189.5,180.4 189.0,180.4 C 187.6,180.1 187.2,178.4 187.7,177.2 C 188.6,175.3 191.2,174.9 193.0,175.9 C 195.5,177.4 195.9,180.9 194.4,183.2" sodipodi:t0="0" transform="matrix(1.448033,0.436631,0.610424,-1.663535,102.7246,445.2269)" font-size="12px" fill="none" fill-rule="evenodd" stroke="#7a3f28" stroke-width="1.158" stroke-dasharray="none" stroke-opacity="1"/>
  <path d="M 190.0,179.2 C 190.6,179.8 189.5,180.4 189.0,180.4 C 187.6,180.1 187.2,178.4 187.7,177.2 C 188.6,175.3 191.2,174.9 193.0,175.9 C 195.5,177.4 195.9,180.9 194.4,183.2" sodipodi:t0="0" transform="matrix(-1.448033,0.436631,-0.610424,-1.663535,896.0436,445.2657)" font-size="12px" fill="none" fill-rule="evenodd" stroke="#7a3f28" stroke-width="1.158" stroke-dasharray="none" stroke-opacity="1"/>
  <path d="M 190.0,179.2 C 190.0,179.3 189.9,179.3 189.9,179.3 C 189.9,179.3 189.8,179.2 189.8,179.1 C 189.9,179.0 190.1,178.9 190.2,179.0 C 190.5,179.1 190.6,179.4 190.5,179.7 C 190.2,180.1 189.7,180.2 189.3,180.0 C 188.6,179.7 188.5,178.8 188.8,178.2 C 189.3,177.4 190.5,177.2 191.3,177.7 C 192.4,178.4 192.6,180.0 191.9,181.0 C 191.0,182.4 189.1,182.6 187.7,181.7 C 186.0,180.6 185.7,178.1 186.9,176.5 C 188.3,174.4 191.3,174.1 193.3,175.5 C 195.8,177.3 196.1,180.8 194.4,183.2" sodipodi:t0="0" transform="matrix(-2.184075,-0.141368,0.154071,-2.305018,915.9267,930.5872)" font-size="12px" fill="none" fill-rule="evenodd" stroke="#7a3f28" stroke-width="0.842" stroke-dasharray="none" stroke-opacity="1"/>
  <path d="M 190.0,179.2 C 190.6,179.8 189.5,180.4 189.0,180.4 C 187.6,180.1 187.2,178.4 187.7,177.2 C 188.6,175.3 191.2,174.9 193.0,175.9 C 195.5,177.4 195.9,180.9 194.4,183.2" sodipodi:t0="0" transform="matrix(-2.086116,-0.198009,0.272186,-2.205309,954.8957,854.8385)" font-size="12px" fill="none" fill-rule="evenodd" stroke="#7a3f28" stroke-width="0.878" stroke-dasharray="none" stroke-opacity="1"/>
  <path d="M 190.0,179.2 C 190.0,179.3 189.9,179.3 189.9,179.3 C 189.9,179.3 189.8,179.2 189.8,179.1 C 189.9,179.0 190.1,178.9 190.2,179.0 C 190.5,179.1 190.6,179.4 190.5,179.7 C 190.2,180.1 189.7,180.2 189.3,180.0 C 188.6,179.7 188.5,178.8 188.8,178.2 C 189.3,177.4 190.5,177.2 191.3,177.7 C 192.4,178.4 192.6,180.0 191.9,181.0 C 191.0,182.4 189.1,182.6 187.7,181.7 C 186.0,180.6 185.7,178.1 186.9,176.5 C 188.3,174.4 191.3,174.1 193.3,175.5 C 195.8,177.3 196.1,180.8 194.4,183.2" sodipodi:t0="0" transform="matrix(1.369218,1.70726,-1.805485,1.441466,635.0854,-362.2636)" font-size="12px" fill="none" fill-rule="evenodd" stroke="#7a3f28" stroke-width="0.842" stroke-dasharray="none" stroke-opacity="1"/>
  <path d="M 190.0,179.2 C 190.0,179.3 189.9,179.3 189.9,179.3 C 189.9,179.3 189.8,179.2 189.8,179.1 C 189.9,179.0 190.1,178.9 190.2,179.0 C 190.5,179.1 190.6,179.4 190.5,179.7 C 190.2,180.1 189.7,180.2 189.3,180.0 C 188.6,179.7 188.5,178.8 188.8,178.2 C 189.3,177.4 190.5,177.2 191.3,177.7 C 192.4,178.4 192.6,180.0 191.9,181.0 C 191.0,182.4 189.1,182.6 187.7,181.7 C 186.0,180.6 185.7,178.1 186.9,176.5 C 188.3,174.4 191.3,174.1 193.3,175.5 C 195.8,177.3 196.1,180.8 194.4,183.2" sodipodi:t0="0" transform="matrix(-1.369218,1.70726,1.805485,1.441466,363.8985,-362.2636)" font-size="12px" fill="none" fill-rule="evenodd" stroke="#7a3f28" stroke-width="0.842" stroke-dasharray="none" stroke-opacity="1"/>
  <path d="M 607.4,420.2 C 614.0,410.5 628.7,419.8 626.0,432.6 C 621.3,444.9 606.1,459.1 585.3,459.1 C 564.4,459.1 550.0,458.3 535.0,462.0 C 519.9,465.7 504.6,472.6 501.3,481.8 C 494.9,499.4 503.2,500.3 505.5,490.3 C 507.3,483.7 509.9,479.6 513.9,476.9 C 520.0,472.7 523.7,474.3 523.7,474.3" fill="none" fill-opacity="1" fill-rule="evenodd" stroke="#7a3f28" stroke-width="1.895" stroke-linecap="butt" stroke-linejoin="miter" stroke-dasharray="none" stroke-opacity="1"/>
  <path d="M 519.1,481.0 C 523.3,472.6 536.9,465.8 547.4,465.8 C 557.8,465.8 572.0,465.8 583.4,464.8 C 594.7,463.9 610.8,461.0 621.3,451.6 C 631.7,442.1 634.9,434.2 634.1,425.6 C 633.5,416.9 623.7,407.1 615.6,406.1 C 608.0,405.1 601.5,408.8 599.0,412.4" fill="none" fill-opacity="1" fill-rule="evenodd" stroke="#7a3f28" stroke-width="1.895" stroke-linecap="butt" stroke-linejoin="miter" stroke-dasharray="none" stroke-opacity="1"/>
  <path d="M 628.0,392.5 C 617.1,386.7 612.1,377.3 611.8,366.3 C 611.3,351.2 618.2,345.0 619.8,343.5" fill="none" fill-opacity="1" fill-rule="evenodd" stroke="#7a3f28" stroke-width="1.895" stroke-linecap="butt" stroke-linejoin="miter" stroke-dasharray="none" stroke-opacity="1"/>
  <path d="M 636.5,406.6 C 617.9,404.3 600.8,387.5 605.2,359.7 C 607.1,349.2 614.4,336.0 622.0,336.0 C 624.9,336.3 631.3,336.6 635.0,335.8" fill="none" fill-opacity="1" fill-rule="evenodd" stroke="#7a3f28" stroke-width="1.895" stroke-linecap="butt" stroke-linejoin="miter" stroke-dasharray="none" stroke-opacity="1"/>
  <path d="M 625.1,284.9 C 636.7,286.7 640.9,296.1 642.0,306.0 C 642.9,315.1 639.9,331.6 621.8,328.0" fill="none" fill-opacity="1" fill-rule="evenodd" stroke="#7a3f28" stroke-width="1.895" stroke-linecap="butt" stroke-linejoin="miter" stroke-dasharray="none" stroke-opacity="1"/>
  <path d="M 614.2,295.3 C 609.4,287.8 613.7,274.4 613.7,274.4" fill="none" fill-opacity="1" fill-rule="evenodd" stroke="#7a3f28" stroke-width="1.895" stroke-linecap="butt" stroke-linejoin="miter" stroke-dasharray="none" stroke-opacity="1"/>
  <path d="M 621.3,305.6 C 609.0,309.4 602.3,305.6 599.5,298.1 C 595.9,288.8 598.4,282.8 600.3,278.0" fill="none" fill-opacity="1" fill-rule="evenodd" stroke="#7a3f28" stroke-width="1.895" stroke-linecap="butt" stroke-linejoin="miter" stroke-dasharray="none" stroke-opacity="1"/>
  <path d="M 629.8,309.4 C 621.3,320.8 605.2,317.0 600.4,310.4 C 595.7,303.7 594.7,300.4 594.7,300.4" fill="none" fill-opacity="1" fill-rule="evenodd" stroke="#7a3f28" stroke-width="1.895" stroke-linecap="butt" stroke-linejoin="miter" stroke-dasharray="none" stroke-opacity="1"/>
  <path d="M 594.7,313.9 C 597.6,318.7 601.4,322.7 603.3,328.4 C 596.6,334.1 598.1,342.1 601.8,347.8 C 599.0,354.4 595.4,378.8 603.5,385.9" fill="none" fill-opacity="1" fill-rule="evenodd" stroke="#7a3f28" stroke-width="1.895" stroke-linecap="butt" stroke-linejoin="miter" stroke-dasharray="none" stroke-opacity="1"/>
  <path d="M 622.7,223.9 C 624.6,231.5 612.7,243.1 606.1,249.7 C 599.5,256.4 597.3,263.4 598.2,271.0" fill="none" fill-opacity="1" fill-rule="evenodd" stroke="#7a3f28" stroke-width="1.895" stroke-linecap="butt" stroke-linejoin="miter" stroke-dasharray="none" stroke-opacity="1"/>
  <path d="M 610.6,214.0 C 615.3,222.5 610.8,236.7 604.7,238.1" fill="none" fill-opacity="1" fill-rule="evenodd" stroke="#7a3f28" stroke-width="1.895" stroke-linecap="butt" stroke-linejoin="miter" stroke-dasharray="none" stroke-opacity="1"/>
  <path d="M 594.7,209.5 C 601.4,218.0 598.5,226.8 592.6,232.4" fill="none" fill-opacity="1" fill-rule="evenodd" stroke="#7a3f28" stroke-width="1.895" stroke-linecap="butt" stroke-linejoin="miter" stroke-dasharray="none" stroke-opacity="1"/>
  <path d="M 583.1,208.3 C 588.8,214.9 587.9,225.6 583.8,229.1" fill="none" fill-opacity="1" fill-rule="evenodd" stroke="#7a3f28" stroke-width="1.895" stroke-linecap="butt" stroke-linejoin="miter" stroke-dasharray="none" stroke-opacity="1"/>
  <path d="M 571.0,233.6 C 557.3,237.4 528.0,232.8 522.7,232.5 C 517.1,232.2 517.3,227.8 521.8,224.0 C 528.1,219.0 530.8,210.9 531.7,206.4 C 533.4,197.3 527.7,193.1 520.8,195.7 C 512.3,201.4 493.3,204.3 483.9,198.6 C 474.4,192.9 462.0,194.4 465.9,206.2 C 467.8,212.8 472.0,220.9 475.7,224.1 C 481.8,229.2 481.8,231.7 475.3,233.3 C 470.4,234.5 463.0,234.6 452.8,236.0 C 437.7,236.0 427.2,233.6 427.2,233.6" fill="none" fill-opacity="1" fill-rule="evenodd" stroke="#7a3f28" stroke-width="1.895" stroke-linecap="butt" stroke-linejoin="miter" stroke-dasharray="none" stroke-opacity="1"/>
  <path d="M 523.7,209.0 C 525.6,203.8 518.9,203.3 514.2,209.0 C 509.4,214.7 491.4,217.5 485.8,211.8 C 480.1,206.2 473.0,205.2 475.6,209.5" fill="none" fill-opacity="1" fill-rule="evenodd" stroke="#7a3f28" stroke-width="1.895" stroke-linecap="butt" stroke-linejoin="miter" stroke-dasharray="none" stroke-opacity="1"/>
  <path d="M 401.4,405.1 L 401.4,240.3 L 594.7,239.3 C 594.7,239.3 594.7,396.6 595.7,408.9 C 596.6,421.2 586.2,435.5 569.1,434.5 C 552.1,433.6 515.4,431.0 508.5,434.5 C 506.1,436.9 501.6,440.4 499.7,441.4 C 498.1,440.2 490.7,434.7 488.6,433.6 C 480.5,432.1 437.4,436.4 428.9,433.6 C 420.4,430.7 400.5,405.1 401.4,405.1 L 401.4,405.1 z " fill="none" fill-opacity="1" fill-rule="evenodd" stroke="#7a3f28" stroke-width="1.895" stroke-linecap="butt" stroke-linejoin="miter" stroke-dasharray="none" stroke-opacity="1"/>
  <path d="M 409.9,248.9 L 496.1,248.4 L 495.9,333.8 L 410.9,334.1 L 410.5,248.9 L 410.5,248.9 L 409.9,248.9 L 409.9,248.9 z " fill="#d81c3f" fill-opacity="1" fill-rule="evenodd" stroke="#7a3f28" stroke-width="1.895" stroke-linecap="butt" stroke-linejoin="miter" stroke-dasharray="none" stroke-opacity="1"/>
  <path d="M 410.9,340.0 L 496.2,339.8 C 496.2,339.8 496.4,417.6 496.4,421.4 C 496.4,425.2 492.4,420.3 485.8,420.3 C 479.1,420.3 446.9,422.2 437.4,422.2 C 428.0,422.2 410.9,408.9 410.9,400.4 C 410.9,391.9 410.9,341.0 410.9,340.0 L 410.9,340.0 L 410.9,340.0 z " fill="#fce016" fill-opacity="1" fill-rule="evenodd" stroke="#7a3f28" stroke-width="1.895" stroke-linecap="butt" stroke-linejoin="miter" stroke-dasharray="none" stroke-opacity="1"/>
  <path d="M 190.0,179.2 C 190.6,179.8 189.5,180.4 189.0,180.4 C 187.6,180.1 187.2,178.4 187.7,177.2 C 188.6,175.3 191.2,174.9 193.0,175.9 C 195.5,177.4 195.9,180.9 194.4,183.2" sodipodi:t0="0" transform="matrix(-0.523846,-1.418662,-1.69566,0.515065,1032.036,525.3144)" font-size="12px" fill="none" fill-rule="evenodd" stroke="#7a3f28" stroke-width="1.158" stroke-dasharray="none" stroke-opacity="1"/>
  <path d="M 190.0,179.2 C 190.6,179.8 189.5,180.4 189.0,180.4 C 187.6,180.1 187.2,178.4 187.7,177.2 C 188.6,175.3 191.2,174.9 193.0,175.9 C 195.5,177.4 195.9,180.9 194.4,183.2" sodipodi:t0="0" transform="matrix(-0.258932,1.489943,-1.760814,-0.200322,1000.761,139.283)" font-size="12px" fill="none" fill-rule="evenodd" stroke="#7a3f28" stroke-width="1.158" stroke-dasharray="none" stroke-opacity="1"/>
  <path d="M 190.0,179.2 C 190.6,179.8 189.5,180.4 189.0,180.4 C 187.6,180.1 187.2,178.4 187.7,177.2 C 188.6,175.3 191.2,174.9 193.0,175.9 C 195.5,177.4 195.9,180.9 194.4,183.2" sodipodi:t0="0" transform="matrix(-1.414328,0.535819,-0.724136,-1.617286,1006.022,462.5894)" font-size="12px" fill="none" fill-rule="evenodd" stroke="#7a3f28" stroke-width="1.158" stroke-dasharray="none" stroke-opacity="1"/>
  <path d="M 190.0,179.2 C 190.6,179.8 189.5,180.4 189.0,180.4 C 187.6,180.1 187.2,178.4 187.7,177.2 C 188.6,175.3 191.2,174.9 193.0,175.9 C 195.5,177.4 195.9,180.9 194.4,183.2" sodipodi:t0="0" transform="matrix(0.416101,1.454138,-1.585323,0.612997,581.9452,-57.3164)" font-size="12px" fill="none" fill-rule="evenodd" stroke="#7a3f28" stroke-width="1.184" stroke-dasharray="none" stroke-opacity="1"/>
  <path d="M 190.0,179.2 C 190.6,179.8 189.5,180.4 189.0,180.4 C 187.6,180.1 187.2,178.4 187.7,177.2 C 188.6,175.3 191.2,174.9 193.0,175.9 C 195.5,177.4 195.9,180.9 194.4,183.2" sodipodi:t0="0" transform="matrix(0.416101,-1.454138,-1.585323,-0.612997,581.9452,681.6187)" font-size="12px" fill="none" fill-rule="evenodd" stroke="#7a3f28" stroke-width="1.184" stroke-dasharray="none" stroke-opacity="1"/>
  <path d="M 190.0,179.2 C 190.0,179.3 189.9,179.3 189.9,179.3 C 189.9,179.3 189.8,179.2 189.8,179.1 C 189.9,179.0 190.1,178.9 190.2,179.0 C 190.5,179.1 190.6,179.4 190.5,179.7 C 190.2,180.1 189.7,180.2 189.3,180.0 C 188.6,179.7 188.5,178.8 188.8,178.2 C 189.3,177.4 190.5,177.2 191.3,177.7 C 192.4,178.4 192.6,180.0 191.9,181.0 C 191.0,182.4 189.1,182.6 187.7,181.7 C 186.0,180.6 185.7,178.1 186.9,176.5 C 188.3,174.4 191.3,174.1 193.3,175.5 C 195.8,177.3 196.1,180.8 194.4,183.2" sodipodi:t0="0" transform="matrix(2.081146,-0.141981,-0.14681,-2.315005,95.59569,934.7663)" font-size="12px" fill="none" fill-rule="evenodd" stroke="#7a3f28" stroke-width="0.861" stroke-dasharray="none" stroke-opacity="1"/>
  <path d="M 190.0,179.2 C 190.6,179.8 189.5,180.4 189.0,180.4 C 187.6,180.1 187.2,178.4 187.7,177.2 C 188.6,175.3 191.2,174.9 193.0,175.9 C 195.5,177.4 195.9,180.9 194.4,183.2" sodipodi:t0="0" transform="matrix(1.987802,-0.198868,-0.259358,-2.214866,58.46409,858.6892)" font-size="12px" fill="none" fill-rule="evenodd" stroke="#7a3f28" stroke-width="0.898" stroke-dasharray="none" stroke-opacity="1"/>
  <path d="M 389.5,422.2 C 383.2,412.4 369.2,421.8 371.8,434.6 C 376.3,447.0 390.7,461.3 410.6,461.3 C 430.4,461.3 444.2,460.4 458.4,464.1 C 472.9,467.8 487.5,474.8 490.6,484.0 C 496.7,501.7 488.8,502.6 486.6,492.6 C 484.8,485.9 482.4,481.9 478.6,479.1 C 472.8,474.9 469.3,476.5 469.3,476.5" font-size="12px" fill="none" fill-rule="evenodd" stroke="#7a3f28" stroke-width="1.895" stroke-dasharray="none" stroke-opacity="1"/>
  <path d="M 473.6,483.2 C 469.6,474.8 456.6,467.9 446.7,467.9 C 436.8,467.9 423.2,467.9 412.4,467.0 C 401.6,466.0 386.2,463.2 376.3,453.7 C 366.3,444.1 363.3,436.2 364.0,427.6 C 364.6,418.9 374.0,409.1 381.7,408.0 C 388.9,407.0 395.1,410.7 397.5,414.4" font-size="12px" fill="none" fill-rule="evenodd" stroke="#7a3f28" stroke-width="1.895" stroke-dasharray="none" stroke-opacity="1"/>
  <path d="M 369.8,394.4 C 381.1,390.6 385.0,379.1 385.3,368.0 C 385.8,352.9 379.2,346.7 377.7,345.2" font-size="12px" fill="none" fill-rule="evenodd" stroke="#7a3f28" stroke-width="1.895" stroke-dasharray="none" stroke-opacity="1"/>
  <path d="M 364.3,403.5 C 382.0,401.1 395.8,389.4 391.6,361.4 C 389.8,350.9 382.8,338.4 375.6,338.4 C 371.9,337.9 367.9,338.6 365.3,336.2" font-size="12px" fill="none" fill-rule="evenodd" stroke="#7a3f28" stroke-width="1.895" stroke-dasharray="none" stroke-opacity="1"/>
  <path d="M 372.7,286.3 C 361.6,288.1 355.0,295.8 354.0,305.8 C 353.2,314.9 358.5,333.1 375.7,329.5" font-size="12px" fill="none" fill-rule="evenodd" stroke="#7a3f28" stroke-width="1.895" stroke-dasharray="none" stroke-opacity="1"/>
  <path d="M 383.0,296.8 C 387.6,289.2 383.5,275.7 383.5,275.7" font-size="12px" fill="none" fill-rule="evenodd" stroke="#7a3f28" stroke-width="1.895" stroke-dasharray="none" stroke-opacity="1"/>
  <path d="M 376.3,307.1 C 388.0,310.9 394.3,307.1 397.0,299.5 C 400.4,290.2 398.1,284.1 396.3,279.4" font-size="12px" fill="none" fill-rule="evenodd" stroke="#7a3f28" stroke-width="1.895" stroke-dasharray="none" stroke-opacity="1"/>
  <path d="M 368.1,310.9 C 376.3,322.3 391.6,318.5 396.1,311.9 C 400.6,305.2 401.6,301.9 401.6,301.9" font-size="12px" fill="none" fill-rule="evenodd" stroke="#7a3f28" stroke-width="1.895" stroke-dasharray="none" stroke-opacity="1"/>
  <path d="M 401.6,315.4 C 398.8,320.2 395.2,324.2 393.4,330.0 C 399.7,335.7 398.4,343.8 394.8,349.5 C 397.5,356.1 400.9,380.6 393.2,387.8" font-size="12px" fill="none" fill-rule="evenodd" stroke="#7a3f28" stroke-width="1.895" stroke-dasharray="none" stroke-opacity="1"/>
  <path d="M 375.8,223.3 C 374.0,231.0 384.4,244.3 390.7,251.0 C 397.0,257.6 399.1,264.7 398.2,272.3" font-size="12px" fill="none" fill-rule="evenodd" stroke="#7a3f28" stroke-width="1.895" stroke-dasharray="none" stroke-opacity="1"/>
  <path d="M 386.9,213.4 C 382.3,221.9 386.2,237.9 392.1,239.3" font-size="12px" fill="none" fill-rule="evenodd" stroke="#7a3f28" stroke-width="1.895" stroke-dasharray="none" stroke-opacity="1"/>
  <path d="M 402.0,208.4 C 395.7,217.0 397.9,227.9 403.6,233.6" font-size="12px" fill="none" fill-rule="evenodd" stroke="#7a3f28" stroke-width="1.895" stroke-dasharray="none" stroke-opacity="1"/>
  <path d="M 414.7,206.8 C 409.3,213.5 408.1,226.7 411.9,230.3" font-size="12px" fill="none" fill-rule="evenodd" stroke="#7a3f28" stroke-width="1.895" stroke-dasharray="none" stroke-opacity="1"/>
  <path d="M 190.0,179.2 C 190.6,179.8 189.5,180.4 189.0,180.4 C 187.6,180.1 187.2,178.4 187.7,177.2 C 188.6,175.3 191.2,174.9 193.0,175.9 C 195.5,177.4 195.9,180.9 194.4,183.2" sodipodi:t0="0" transform="matrix(0.499159,-1.424808,1.61575,0.517296,-15.04058,527.7374)" font-size="12px" fill="none" fill-rule="evenodd" stroke="#7a3f28" stroke-width="1.184" stroke-dasharray="none" stroke-opacity="1"/>
  <path d="M 190.0,179.2 C 190.6,179.8 189.5,180.4 189.0,180.4 C 187.6,180.1 187.2,178.4 187.7,177.2 C 188.6,175.3 191.2,174.9 193.0,175.9 C 195.5,177.4 195.9,180.9 194.4,183.2" sodipodi:t0="0" transform="matrix(0.246729,1.496398,1.677833,-0.20119,14.76069,140.0335)" font-size="12px" fill="none" fill-rule="evenodd" stroke="#7a3f28" stroke-width="1.184" stroke-dasharray="none" stroke-opacity="1"/>
  <path d="M 190.0,179.2 C 190.6,179.8 189.5,180.4 189.0,180.4 C 187.6,180.1 187.2,178.4 187.7,177.2 C 188.6,175.3 191.2,174.9 193.0,175.9 C 195.5,177.4 195.9,180.9 194.4,183.2" sodipodi:t0="0" transform="matrix(1.347676,0.538141,0.69001,-1.624294,9.746987,464.7406)" font-size="12px" fill="none" fill-rule="evenodd" stroke="#7a3f28" stroke-width="1.184" stroke-dasharray="none" stroke-opacity="1"/>
  <path d="M 586.8,339.5 L 502.6,339.9 C 502.6,339.9 502.4,418.1 502.4,421.9 C 502.4,425.7 505.7,418.4 512.3,418.4 C 518.9,418.4 551.1,420.3 560.6,420.3 C 570.1,420.3 587.2,407.0 587.2,398.5 C 587.2,390.0 587.2,341.5 586.8,339.5 L 586.8,339.5 L 586.8,339.5 z " font-size="12px" fill="#fce016" fill-opacity="1" fill-rule="evenodd" stroke="#7a3f28" stroke-width="1.895" stroke-dasharray="none" stroke-opacity="1"/>
  <path d="M 501.9,248.4 L 587.1,248.3 L 586.9,334.0 L 501.9,333.9 L 501.9,248.4 L 501.9,248.4 L 501.9,248.4 z " font-size="12px" fill="#fce016" fill-opacity="1" fill-rule="evenodd" stroke="#7a3f28" stroke-width="1.895" stroke-dasharray="none" stroke-opacity="1"/>
  <path d="M 422.0,321.5 C 410.6,320.6 415.1,307.0 423.1,308.3 C 431.2,309.7 428.2,319.3 430.3,323.1 C 432.7,327.9 440.5,330.2 445.0,325.3 C 448.9,320.9 447.5,315.1 447.5,312.7" font-size="12px" fill="none" fill-rule="evenodd" stroke="#ffffff" stroke-width="4.927"/>
  <path d="M 483.5,267.4 C 496.2,265.0 491.5,254.0 484.8,252.7 C 478.7,251.6 473.2,255.0 474.7,261.2 C 475.4,264.2 476.3,269.2 472.8,271.5 C 468.8,274.1 420.5,328.2 419.4,329.1" font-size="12px" fill="none" fill-opacity="1" fill-rule="evenodd" stroke="#fce016" stroke-width="4.548" stroke-dasharray="none" stroke-opacity="1"/>
  <path d="M 453.6,253.8 C 452.2,254.7 431.9,279.5 430.8,280.4 C 429.7,281.3 428.8,285.1 429.7,286.4 C 430.5,287.7 442.0,313.0 442.0,313.0 L 464.7,312.8 C 465.6,312.1 476.6,287.2 477.5,285.7 C 478.6,284.4 477.9,280.9 476.8,280.0 C 476.0,278.9 454.7,254.5 453.6,253.8 L 453.6,253.8 L 453.6,253.8 z " font-size="12px" fill="#ffffff" fill-rule="evenodd" stroke="none" stroke-width="0.625" stroke-dasharray="none"/>
  <path d="M 484.8,321.7 C 496.3,320.8 491.8,307.2 483.7,308.5 C 475.7,309.9 478.7,319.5 476.6,323.3 C 474.1,328.1 466.3,330.4 461.8,325.5 C 458.0,321.1 459.4,314.4 459.4,312.3" font-size="12px" fill="none" fill-rule="evenodd" stroke="#ffffff" stroke-width="4.927"/>
  <path d="M 455.7,265.1 C 455.7,265.1 455.7,302.4 455.7,306.5 C 455.5,308.6 461.9,309.1 463.5,302.9 C 465.1,300.3 470.5,284.4 470.5,284.4 L 455.7,265.1 L 455.7,265.1 z " font-size="12px" fill="#fce016" fill-rule="evenodd" stroke="#d81c3f" stroke-width="1.192"/>
  <path d="M 451.6,265.1 C 451.6,265.1 451.6,302.2 451.6,306.4 C 451.8,308.4 445.4,308.9 443.8,302.7 C 442.2,300.2 436.9,284.3 436.9,284.3 L 451.6,265.1 L 451.6,265.1 z " font-size="12px" fill="#fce016" fill-rule="evenodd" stroke="#d81c3f" stroke-width="1.174"/>
  <path d="M 561.9,396.1 C 562.4,398.1 562.8,397.6 563.8,398.1 C 564.7,398.5 564.4,399.8 564.7,401.0 C 564.7,403.1 565.4,406.8 565.6,408.0 C 565.8,408.7 564.7,409.1 564.5,408.2 C 564.1,407.6 564.1,407.7 563.9,408.6 C 563.8,409.5 562.8,410.0 561.7,410.0 C 561.1,410.1 562.3,408.8 560.8,409.6 L 560.7,409.5 C 560.0,409.2 561.3,408.6 562.1,407.5 C 562.8,406.4 563.1,404.2 562.5,403.4 C 561.9,402.6 561.5,401.7 561.5,401.0 C 561.5,400.2 560.6,400.1 559.7,399.3 C 558.7,398.5 558.1,398.4 557.8,399.4 C 557.5,400.5 558.1,401.3 558.0,402.5 C 557.8,403.7 556.6,403.4 555.9,404.5 C 555.1,405.5 551.3,408.7 551.3,408.7 C 551.3,408.7 550.4,408.3 550.2,409.0 C 550.1,409.8 548.5,410.5 547.8,410.3 L 547.7,409.6 L 546.4,409.6 C 546.4,409.1 546.9,408.7 547.5,408.0 C 548.1,407.2 548.9,407.5 549.8,406.9 C 550.7,406.3 551.6,405.1 552.5,403.7 C 553.4,402.3 553.4,401.1 553.0,400.7 C 552.5,400.2 552.2,399.1 552.2,399.1 C 552.2,399.1 551.1,399.3 551.0,398.4 C 550.8,397.5 545.7,400.1 544.9,400.5 C 544.2,401.0 542.2,401.1 542.2,401.1 C 542.2,401.1 542.6,405.7 542.8,406.6 C 542.9,407.5 543.2,408.3 542.2,408.2 C 542.0,407.3 541.3,407.6 541.4,408.4 C 541.4,409.6 540.5,410.4 540.5,410.4 L 538.5,410.4 L 538.5,409.3 L 537.7,409.7 C 537.5,409.5 537.7,408.9 538.4,408.3 C 539.4,407.3 540.1,404.8 540.1,403.7 C 540.1,402.6 539.4,401.4 539.4,401.4 C 539.4,401.4 535.5,401.3 535.0,400.7 C 534.6,400.1 530.5,397.3 530.0,396.7 C 529.6,396.1 525.9,392.6 525.5,391.9 C 525.0,391.1 524.0,392.2 523.2,392.0 C 522.4,391.9 522.0,393.4 521.1,393.7 C 520.2,394.0 518.9,393.8 518.3,393.5 C 517.7,393.2 517.9,392.6 517.1,392.0 C 516.4,391.4 516.5,391.1 517.4,390.5 C 518.3,389.9 519.2,387.8 518.9,387.3 C 518.6,386.8 518.5,386.2 518.9,385.8 C 519.4,385.3 519.8,384.0 519.8,383.3 C 519.8,382.7 520.3,381.8 520.9,381.8 C 521.5,381.8 524.7,381.4 525.5,382.0 C 526.2,382.6 531.5,384.7 533.4,384.7 C 535.2,384.7 540.1,384.3 540.8,384.6 C 541.6,384.9 550.1,384.9 551.3,384.7 C 552.5,384.6 554.8,383.6 556.6,384.0 C 558.4,384.3 559.4,384.6 560.1,385.6 C 560.9,386.7 562.1,387.4 563.3,388.2 C 566.6,390.3 565.9,394.7 561.9,396.1 L 561.9,396.1 L 561.9,396.1 L 561.9,396.1 L 561.9,396.1 L 561.9,396.1 L 561.9,396.1 L 561.9,396.1 L 561.9,396.1 z " font-size="12px" fill="#d81c3f" fill-rule="evenodd" stroke="#7a3f28" stroke-width="0.400"/>
  <path d="M 520.2,381.8 C 519.1,380.8 519.8,380.2 518.5,380.5 C 518.5,381.7 518.8,382.6 519.5,383.2 C 520.3,383.8 520.2,382.0 520.2,381.8 L 520.2,381.8 z " font-size="12px" fill="#d81c3f" fill-rule="evenodd" stroke="#7a3f28" stroke-width="0.400"/>
  <path d="M 561.3,394.4 C 564.1,393.2 564.2,389.9 560.3,388.1 C 556.3,386.2 561.5,394.6 561.3,394.4 L 561.3,394.4 z " font-size="12px" fill="#fce016" fill-rule="evenodd" stroke="#7a3f28" stroke-width="0.400"/>
  <path d="M 539.6,384.6 C 538.7,385.4 537.8,386.6 539.5,387.3 C 539.7,387.4 539.8,387.4 539.8,387.6" font-size="12px" fill="#d81c3f" fill-rule="evenodd" stroke="#7a3f28" stroke-width="0.400"/>
  <path d="M 556.8,384.0 C 556.8,384.5 558.1,385.7 558.6,386.1" font-size="12px" fill="#d81c3f" fill-rule="evenodd" stroke="#7a3f28" stroke-width="0.400"/>
  <path d="M 556.6,386.8 C 556.6,387.9 556.4,388.7 556.6,389.7 C 556.8,390.7 556.8,391.7 556.4,392.6 C 556.2,392.7 556.1,393.0 556.0,393.1" font-size="12px" fill="#d81c3f" fill-rule="evenodd" stroke="#7a3f28" stroke-width="0.400"/>
  <path d="M 533.7,394.7 C 533.7,396.0 534.8,397.3 535.7,398.0 C 536.2,398.4 536.5,399.0 537.1,399.2 C 537.3,399.2 538.8,400.1 538.9,400.2 C 539.1,400.5 539.1,401.0 539.4,401.3" font-size="12px" fill="#d81c3f" fill-rule="evenodd" stroke="#7a3f28" stroke-width="0.400"/>
  <path d="M 553.0,394.8 C 553.8,395.6 554.5,396.5 555.4,397.1 C 556.0,397.6 557.3,398.8 558.2,398.8" font-size="12px" fill="#d81c3f" fill-rule="evenodd" stroke="#7a3f28" stroke-width="0.400"/>
  <path d="M 550.7,398.2 C 551.8,398.2 552.8,398.0 553.9,397.8 C 554.0,397.7 555.2,397.2 555.1,397.0" font-size="12px" fill="#d81c3f" fill-rule="evenodd" stroke="#7a3f28" stroke-width="0.400"/>
  <path d="M 532.0,387.2 C 532.0,387.9 532.5,388.8 532.3,389.6 C 532.1,390.3 531.9,390.8 531.9,391.5 C 531.8,392.2 531.0,394.3 530.8,394.9 C 530.7,395.2 530.9,395.5 530.9,395.8" font-size="12px" fill="#d81c3f" fill-rule="evenodd" stroke="#7a3f28" stroke-width="0.400"/>
  <path d="M 526.7,389.7 C 526.7,390.7 525.3,391.3 524.6,391.6" font-size="12px" fill="#d81c3f" fill-rule="evenodd" stroke="#7a3f28" stroke-width="0.400"/>
  <path d="M 525.2,386.1 C 524.2,388.0 521.8,385.9 521.8,387.8 C 521.8,388.1 523.7,388.2 523.7,387.1" font-size="12px" fill="#d81c3f" fill-rule="evenodd" stroke="#7a3f28" stroke-width="0.400"/>
  <path d="M 523.2,387.8 C 523.2,388.4 522.3,388.4 522.0,389.0" font-size="12px" fill="#d81c3f" fill-rule="evenodd" stroke="#7a3f28" stroke-width="0.400"/>
  <path d="M 520.9,383.2 C 521.4,383.4 522.2,383.1 522.5,383.3 C 522.7,383.5 523.0,383.8 523.1,383.6" font-size="12px" fill="#d81c3f" fill-rule="evenodd" stroke="#7a3f28" stroke-width="0.400"/>
  <path d="M 518.9,387.3 C 519.4,387.3 519.9,387.3 519.9,387.3" font-size="12px" fill="#d81c3f" fill-rule="evenodd" stroke="#7a3f28" stroke-width="0.400"/>
  <path d="M 521.1,393.5 C 522.4,393.5 521.7,391.3 521.8,391.1" font-size="12px" fill="#d81c3f" fill-rule="evenodd" stroke="#7a3f28" stroke-width="0.400"/>
  <path d="M 519.4,391.2 C 519.1,391.9 517.7,392.3 519.4,392.6 C 519.5,392.6 519.9,392.1 519.8,392.0" font-size="12px" fill="#d81c3f" fill-rule="evenodd" stroke="#7a3f28" stroke-width="0.400"/>
  <path d="M 542.2,401.0 L 542.0,395.0" font-size="12px" fill="#d81c3f" fill-rule="evenodd" stroke="#7a3f28" stroke-width="0.400"/>
  <path d="M 561.2,394.4 C 558.7,394.9 554.6,394.6 552.8,393.1 C 551.0,391.5 548.3,388.5 546.1,389.0 C 544.0,389.4 541.4,389.3 542.5,390.0 C 543.5,390.8 545.1,391.5 546.0,391.2 C 546.9,390.9 541.0,390.8 542.9,391.5 C 544.9,392.3 546.4,392.6 547.2,392.2 C 548.0,391.7 548.6,391.4 550.1,392.6 C 551.6,393.8 554.2,395.8 555.7,396.0 C 557.2,396.1 561.8,396.0 561.8,396.0 L 562.2,396.0" font-size="12px" fill="#d81c3f" fill-rule="evenodd" stroke="#7a3f28" stroke-width="0.400"/>
  <path d="M 542.3,389.7 C 543.9,390.5 545.2,390.1 546.8,389.9" font-size="12px" fill="#d81c3f" fill-rule="evenodd" stroke="#7a3f28" stroke-width="0.400"/>
  <path d="M 530.0,384.3 C 530.8,388.2 528.1,392.9 527.3,393.2 C 526.5,393.5 525.9,392.5 525.9,392.5 C 525.9,392.5 525.9,393.7 526.2,394.3 C 526.5,394.9 525.3,396.7 525.3,397.5 C 525.3,398.2 528.8,398.2 528.5,397.5 C 528.2,397.0 527.7,395.3 527.7,395.2 C 528.1,394.4 533.1,391.6 531.9,384.5 C 531.4,384.6 530.6,383.9 529.9,383.9 L 529.9,383.9 L 530.0,384.3 L 530.0,384.3 z " font-size="12px" fill="#0072c6" fill-rule="evenodd" stroke="#7a3f28" stroke-width="0.400"/>
  <path d="M 561.5,408.4 C 562.1,408.5 563.1,408.6 563.8,408.6" font-size="12px" fill="#d81c3f" fill-rule="evenodd" stroke="#7a3f28" stroke-width="0.400"/>
  <path d="M 547.5,409.3 C 547.7,409.4 548.2,408.5 548.4,408.6" font-size="12px" fill="#d81c3f" fill-rule="evenodd" stroke="#7a3f28" stroke-width="0.400"/>
  <path d="M 547.5,408.1 C 547.7,408.1 550.6,408.6 550.5,408.7" font-size="12px" fill="#d81c3f" fill-rule="evenodd" stroke="#7a3f28" stroke-width="0.400"/>
  <path d="M 538.4,408.6 C 539.6,409.2 540.4,409.0 541.3,408.1" font-size="12px" fill="#d81c3f" fill-rule="evenodd" stroke="#7a3f28" stroke-width="0.400"/>
  <path d="M 526.3,394.7 L 527.7,395.1" font-size="12px" fill="#d81c3f" fill-rule="evenodd" stroke="#7a3f28" stroke-width="0.400"/>
  <path d="M 147.27085 169.07578 A 1.0438004 1.8978195 0 1 1  145.1,169.0 A 1.0438004 1.8978195 0 1 1  147.27085 169.07578 z" transform="matrix(0.400278,0,0,0.400232,468.5454,330.4611)" font-size="12px" fill="#d81c3f" fill-rule="evenodd" stroke="#7a3f28" stroke-width="1"/>
  <path d="M 522.4,387.1 C 522.7,387.6 522.9,387.8 522.9,387.8" font-size="12px" fill="none" fill-rule="evenodd" stroke="#7a3f28" stroke-width="0.400"/>
  <rect height="80.796104" width="14.977998" x="512.68256" y="250.79167" font-size="12px" fill="#d81c3f" fill-rule="evenodd" stroke="#d81c3f" stroke-width="3.006"/>
  <rect height="76.945023" width="9.203001" x="477.3634" y="342.3291" font-size="12px" fill="#d81c3f" fill-rule="evenodd" stroke="#d81c3f" stroke-width="2.996"/>
  <rect height="80.796066" width="14.977995" x="537.24066" y="250.79167" font-size="12px" fill="#d81c3f" fill-rule="evenodd" stroke="#d81c3f" stroke-width="3.006"/>
  <rect height="80.796051" width="14.977993" x="561.79883" y="250.84081" font-size="12px" fill="#d81c3f" fill-rule="evenodd" stroke="#d81c3f" stroke-width="3.006"/>
  <rect height="77.859352" width="9.203001" x="458.89301" y="342.3317" font-size="12px" fill="#d81c3f" fill-rule="evenodd" stroke="#d81c3f" stroke-width="3.014"/>
  <rect height="77.553871" width="9.2030001" x="439.50812" y="342.48703" font-size="12px" fill="#d81c3f" fill-rule="evenodd" stroke="#d81c3f" stroke-width="3.008"/>
  <rect height="76.182861" width="9.2029991" x="420.27533" y="342.48666" font-size="12px" fill="#d81c3f" fill-rule="evenodd" stroke="#d81c3f" stroke-width="2.982"/>
  <path d="M 408.3,337.1 L 499.4,336.8 C 499.4,336.8 499.6,420.5 499.6,424.5 C 499.6,428.6 495.3,425.6 488.2,425.6 C 481.2,425.6 446.9,425.4 436.8,425.4 C 426.7,425.4 408.3,411.1 408.3,402.0 C 408.3,392.8 408.3,338.1 408.3,337.1 L 408.3,337.1 L 408.3,337.1 L 408.3,337.1 z " font-size="12px" fill="none" fill-opacity="1" fill-rule="evenodd" stroke="#d1bf91" stroke-width="4.465" stroke-opacity="1"/>
  <path d="M 410.9,340.0 L 496.2,339.8 C 496.2,339.8 496.4,417.6 496.4,421.4 C 496.4,425.2 492.4,420.3 485.8,420.3 C 479.1,420.3 446.9,422.2 437.4,422.2 C 428.0,422.2 410.9,408.9 410.9,400.4 C 410.9,391.9 410.9,341.0 410.9,340.0 L 410.9,340.0 L 410.9,340.0 z " fill="none" fill-opacity="1" fill-rule="evenodd" stroke="#7a3f28" stroke-width="1.895" stroke-linecap="butt" stroke-linejoin="miter" stroke-dasharray="none" stroke-opacity="1"/>
  <path d="M 534.4,400.3 C 532.5,400.7 532.2,402.2 533.1,402.4 C 534.0,402.6 537.1,402.7 535.8,403.9 C 535.2,404.3 537.9,403.6 537.4,405.5 C 537.1,406.5 536.8,406.9 536.3,406.4 L 536.2,407.2 C 535.4,407.1 535.1,406.9 534.6,406.5 C 533.3,405.7 532.3,404.0 531.5,403.8 C 530.3,403.5 530.2,402.8 529.4,401.4 C 529.4,399.7 530.9,397.4 531.1,397.7 C 531.8,398.7 533.8,399.1 534.4,400.3 L 534.4,400.3 L 534.4,400.3 L 534.4,400.3 z " font-size="12px" fill="#d81c3f" fill-rule="evenodd" stroke="#7a3f28" stroke-width="0.400"/>
  <path d="M 535.4,406.3 C 536.0,406.1 536.1,406.5 536.6,406.6" font-size="12px" fill="#d81c3f" fill-rule="evenodd" stroke="#7a3f28" stroke-width="0.400"/>
  <path d="M 535.1,406.7 C 535.7,405.9 536.0,405.0 536.2,404.1" font-size="12px" fill="#d81c3f" fill-rule="evenodd" stroke="#7a3f28" stroke-width="0.400"/>
  <path d="M 525.8,382.1 C 526.9,381.0 526.1,380.4 527.5,380.7 C 527.5,381.9 527.2,382.8 526.4,383.4 C 525.7,384.0 525.8,382.2 525.8,382.1 L 525.8,382.1 z " font-size="12px" fill="#d81c3f" fill-rule="evenodd" stroke="#7a3f28" stroke-width="0.400"/>
  <path d="M 561.8,363.6 C 562.2,365.6 562.7,365.1 563.6,365.6 C 564.5,366.0 564.2,367.2 564.5,368.5 C 564.6,370.6 565.2,374.3 565.5,375.5 C 565.7,376.2 564.5,376.6 564.3,375.7 C 564.0,375.1 563.9,375.1 563.8,376.1 C 563.6,377.0 562.6,377.5 561.5,377.5 C 560.9,377.6 562.1,376.3 560.6,377.1 L 560.5,377.0 C 559.9,376.7 561.2,376.1 561.9,375.0 C 562.7,373.9 563.0,371.7 562.4,370.9 C 561.8,370.1 561.3,369.2 561.3,368.5 C 561.3,367.7 560.4,367.5 559.5,366.8 C 558.6,366.0 558.0,365.9 557.7,366.9 C 557.4,368.0 558.0,368.8 557.8,370.0 C 557.7,371.2 556.5,370.9 555.7,372.0 C 554.9,373.0 551.1,376.2 551.1,376.2 C 551.1,376.2 550.2,375.8 550.1,376.5 C 549.9,377.3 548.3,378.0 547.6,377.8 L 547.5,377.1 L 546.3,377.1 C 546.2,376.6 546.7,376.2 547.3,375.4 C 548.0,374.7 548.7,375.0 549.6,374.4 C 550.5,373.8 551.4,372.6 552.4,371.2 C 553.3,369.8 553.3,368.6 552.8,368.2 C 552.4,367.7 552.1,366.6 552.1,366.6 C 552.1,366.6 551.0,366.8 550.8,365.9 C 550.7,365.0 545.5,367.5 544.8,368.0 C 544.0,368.5 542.0,368.6 542.0,368.6 C 542.0,368.6 542.5,373.2 542.6,374.1 C 542.8,375.0 543.1,375.8 542.0,375.7 C 541.9,374.8 541.1,375.1 541.3,375.9 C 541.3,377.1 540.4,377.9 540.4,377.9 L 538.4,377.9 L 538.4,376.8 L 537.5,377.2 C 537.4,377.0 537.5,376.4 538.2,375.8 C 539.3,374.8 539.9,372.3 539.9,371.2 C 539.9,370.1 539.3,368.9 539.3,368.9 C 539.3,368.9 535.3,368.8 534.9,368.2 C 534.4,367.5 530.3,364.8 529.9,364.2 C 529.4,363.6 525.8,360.1 525.3,359.3 C 524.9,358.6 523.8,359.7 523.0,359.5 C 522.3,359.3 521.8,360.9 520.9,361.2 C 520.0,361.5 518.8,361.3 518.2,361.0 C 517.6,360.7 517.7,360.1 517.0,359.5 C 516.2,358.9 516.3,358.6 517.3,358.0 C 518.2,357.4 519.1,355.2 518.8,354.8 C 518.5,354.3 518.3,353.7 518.8,353.3 C 519.2,352.8 519.7,351.4 519.7,350.8 C 519.7,350.2 520.1,349.3 520.8,349.3 C 521.4,349.3 524.6,348.9 525.3,349.5 C 526.1,350.1 531.4,352.2 533.2,352.2 C 535.0,352.2 539.9,351.8 540.7,352.1 C 541.4,352.4 549.9,352.4 551.1,352.2 C 552.4,352.1 554.6,351.1 556.5,351.4 C 558.3,351.8 559.2,352.1 560.0,353.1 C 560.7,354.2 561.9,354.9 563.1,355.7 C 566.5,357.8 565.7,362.2 561.8,363.6 L 561.8,363.6 L 561.8,363.6 L 561.8,363.6 L 561.8,363.6 L 561.8,363.6 L 561.8,363.6 L 561.8,363.6 L 561.8,363.6 z " font-size="12px" fill="#d81c3f" fill-rule="evenodd" stroke="#7a3f28" stroke-width="0.400"/>
  <path d="M 520.0,349.3 C 518.9,348.3 519.7,347.6 518.3,348.0 C 518.3,349.2 518.6,350.1 519.4,350.7 C 520.1,351.3 520.0,349.5 520.0,349.3 L 520.0,349.3 z " font-size="12px" fill="#d81c3f" fill-rule="evenodd" stroke="#7a3f28" stroke-width="0.400"/>
  <path d="M 561.2,361.9 C 563.9,360.7 564.1,357.4 560.1,355.5 C 556.2,353.7 561.3,362.1 561.2,361.9 L 561.2,361.9 z " font-size="12px" fill="#fce016" fill-rule="evenodd" stroke="#7a3f28" stroke-width="0.400"/>
  <path d="M 539.4,352.1 C 538.5,352.9 537.6,354.1 539.3,354.8 C 539.5,354.9 539.6,354.9 539.6,355.1" font-size="12px" fill="#d81c3f" fill-rule="evenodd" stroke="#7a3f28" stroke-width="0.400"/>
  <path d="M 556.6,351.4 C 556.6,352.0 557.9,353.2 558.4,353.6" font-size="12px" fill="#d81c3f" fill-rule="evenodd" stroke="#7a3f28" stroke-width="0.400"/>
  <path d="M 556.5,354.3 C 556.5,355.4 556.3,356.2 556.5,357.2 C 556.6,358.2 556.6,359.2 556.2,360.1 C 556.1,360.2 556.0,360.4 555.8,360.6" font-size="12px" fill="#d81c3f" fill-rule="evenodd" stroke="#7a3f28" stroke-width="0.400"/>
  <path d="M 533.5,362.2 C 533.5,363.4 534.7,364.8 535.6,365.5 C 536.0,365.9 536.3,366.5 537.0,366.6 C 537.1,366.7 538.6,367.6 538.7,367.7 C 539.0,368.0 539.0,368.5 539.3,368.8" font-size="12px" fill="#d81c3f" fill-rule="evenodd" stroke="#7a3f28" stroke-width="0.400"/>
  <path d="M 552.9,362.3 C 553.6,363.1 554.4,364.0 555.2,364.6 C 555.9,365.1 557.2,366.3 558.0,366.2" font-size="12px" fill="#d81c3f" fill-rule="evenodd" stroke="#7a3f28" stroke-width="0.400"/>
  <path d="M 550.5,365.7 C 551.6,365.7 552.6,365.5 553.7,365.3 C 553.9,365.2 555.0,364.7 555.0,364.5" font-size="12px" fill="#d81c3f" fill-rule="evenodd" stroke="#7a3f28" stroke-width="0.400"/>
  <path d="M 531.8,354.7 C 531.8,355.4 532.3,356.3 532.2,357.0 C 532.0,357.8 531.7,358.3 531.7,359.0 C 531.7,359.7 530.9,361.8 530.6,362.4 C 530.5,362.7 530.7,363.0 530.8,363.3" font-size="12px" fill="#d81c3f" fill-rule="evenodd" stroke="#7a3f28" stroke-width="0.400"/>
  <path d="M 526.5,357.2 C 526.5,358.2 525.2,358.8 524.4,359.1" font-size="12px" fill="#d81c3f" fill-rule="evenodd" stroke="#7a3f28" stroke-width="0.400"/>
  <path d="M 525.0,353.6 C 524.0,355.5 521.6,353.4 521.7,355.3 C 521.7,355.5 523.5,355.7 523.5,354.6" font-size="12px" fill="#d81c3f" fill-rule="evenodd" stroke="#7a3f28" stroke-width="0.400"/>
  <path d="M 523.0,355.2 C 523.0,355.9 522.2,355.9 521.8,356.5" font-size="12px" fill="#d81c3f" fill-rule="evenodd" stroke="#7a3f28" stroke-width="0.400"/>
  <path d="M 520.8,350.7 C 521.2,350.9 522.0,350.6 522.3,350.8 C 522.5,351.0 522.8,351.3 522.9,351.1" font-size="12px" fill="#d81c3f" fill-rule="evenodd" stroke="#7a3f28" stroke-width="0.400"/>
  <path d="M 518.8,354.8 C 519.2,354.8 519.8,354.8 519.7,354.8" font-size="12px" fill="#d81c3f" fill-rule="evenodd" stroke="#7a3f28" stroke-width="0.400"/>
  <path d="M 520.9,361.0 C 522.2,361.0 521.6,358.8 521.7,358.6" font-size="12px" fill="#d81c3f" fill-rule="evenodd" stroke="#7a3f28" stroke-width="0.400"/>
  <path d="M 519.2,358.7 C 518.9,359.4 517.5,359.8 519.3,360.1 C 519.4,360.1 519.8,359.6 519.7,359.5" font-size="12px" fill="#d81c3f" fill-rule="evenodd" stroke="#7a3f28" stroke-width="0.400"/>
  <path d="M 542.0,368.5 L 541.9,362.5" font-size="12px" fill="#d81c3f" fill-rule="evenodd" stroke="#7a3f28" stroke-width="0.400"/>
  <path d="M 561.0,361.9 C 558.6,362.4 554.5,362.1 552.7,360.6 C 550.8,359.0 548.1,356.0 546.0,356.5 C 543.8,356.9 541.3,356.8 542.3,357.5 C 543.4,358.3 544.9,359.0 545.8,358.7 C 546.7,358.4 540.8,358.3 542.8,359.0 C 544.8,359.8 546.3,360.1 547.0,359.7 C 547.8,359.2 548.4,358.9 549.9,360.1 C 551.4,361.3 554.0,363.3 555.5,363.4 C 557.1,363.6 561.6,363.4 561.6,363.4 L 562.0,363.4" font-size="12px" fill="#d81c3f" fill-rule="evenodd" stroke="#7a3f28" stroke-width="0.400"/>
  <path d="M 542.2,357.2 C 543.8,358.0 545.1,357.6 546.6,357.4" font-size="12px" fill="#d81c3f" fill-rule="evenodd" stroke="#7a3f28" stroke-width="0.400"/>
  <path d="M 529.8,351.7 C 530.6,355.7 527.9,360.4 527.1,360.7 C 526.4,361.0 525.8,360.0 525.8,360.0 C 525.8,360.0 525.8,361.2 526.1,361.8 C 526.4,362.4 525.2,364.2 525.2,365.0 C 525.2,365.7 528.7,365.7 528.4,365.0 C 528.0,364.5 527.6,362.8 527.6,362.7 C 527.9,361.9 532.9,359.1 531.7,352.0 C 531.2,352.1 530.5,351.4 529.7,351.4 L 529.7,351.4 L 529.8,351.7 L 529.8,351.7 z " font-size="12px" fill="#0072c6" fill-rule="evenodd" stroke="#7a3f28" stroke-width="0.400"/>
  <path d="M 561.3,375.9 C 562.0,376.0 562.9,376.1 563.6,376.1" font-size="12px" fill="#d81c3f" fill-rule="evenodd" stroke="#7a3f28" stroke-width="0.400"/>
  <path d="M 547.3,376.8 C 547.5,376.9 548.0,376.0 548.2,376.1" font-size="12px" fill="#d81c3f" fill-rule="evenodd" stroke="#7a3f28" stroke-width="0.400"/>
  <path d="M 547.3,375.6 C 547.6,375.6 550.4,376.1 550.3,376.2" font-size="12px" fill="#d81c3f" fill-rule="evenodd" stroke="#7a3f28" stroke-width="0.400"/>
  <path d="M 538.2,376.1 C 539.4,376.7 540.3,376.5 541.1,375.6" font-size="12px" fill="#d81c3f" fill-rule="evenodd" stroke="#7a3f28" stroke-width="0.400"/>
  <path d="M 526.1,362.2 L 527.5,362.6" font-size="12px" fill="#d81c3f" fill-rule="evenodd" stroke="#7a3f28" stroke-width="0.400"/>
  <path d="M 147.27085 169.07578 A 1.0438004 1.8978195 0 1 1  145.1,169.0 A 1.0438004 1.8978195 0 1 1  147.27085 169.07578 z" transform="matrix(0.400278,0,0,0.400232,468.3893,297.9556)" font-size="12px" fill="#d81c3f" fill-rule="evenodd" stroke="#7a3f28" stroke-width="1"/>
  <path d="M 522.3,354.6 C 522.5,355.1 522.7,355.3 522.7,355.3" font-size="12px" fill="none" fill-rule="evenodd" stroke="#7a3f28" stroke-width="0.400"/>
  <path d="M 534.2,367.7 C 532.3,368.2 532.1,369.7 532.9,369.9 C 533.8,370.1 536.9,370.2 535.7,371.3 C 535.1,371.8 537.7,371.1 537.2,373.0 C 537.0,374.0 536.6,374.4 536.1,373.9 L 536.0,374.7 C 535.3,374.6 534.9,374.4 534.4,374.0 C 533.2,373.2 532.1,371.4 531.4,371.3 C 530.2,371.0 530.0,370.3 529.3,368.9 C 529.2,367.2 530.7,364.9 530.9,365.1 C 531.6,366.2 533.6,366.6 534.2,367.7 L 534.2,367.7 L 534.2,367.7 L 534.2,367.7 z " font-size="12px" fill="#d81c3f" fill-rule="evenodd" stroke="#7a3f28" stroke-width="0.400"/>
  <path d="M 535.2,373.8 C 535.9,373.6 535.9,374.0 536.4,374.1" font-size="12px" fill="#d81c3f" fill-rule="evenodd" stroke="#7a3f28" stroke-width="0.400"/>
  <path d="M 535.0,374.2 C 535.6,373.4 535.8,372.5 536.0,371.6" font-size="12px" fill="#d81c3f" fill-rule="evenodd" stroke="#7a3f28" stroke-width="0.400"/>
  <path d="M 525.7,349.6 C 526.7,348.5 526.0,347.9 527.4,348.2 C 527.4,349.4 527.0,350.3 526.3,350.9 C 525.5,351.5 525.7,349.7 525.7,349.6 L 525.7,349.6 z " font-size="12px" fill="#d81c3f" fill-rule="evenodd" stroke="#7a3f28" stroke-width="0.400"/>
  <text space="default" transform="scale(0.967079,1.034042)" x="482.28476" y="444.20578" font-size="20.5145607px" font-style="normal" font-weight="normal" line-height="100%" writing-mode="lr-tb" text-anchor="start" fill="#7a3f28" fill-opacity="1" stroke="none" stroke-width="1pt" stroke-linecap="butt" stroke-linejoin="miter" stroke-opacity="1" font-family="Times New Roman">
    <tspan id="tspan857" x="482.28476" y="444.20578">VNITA</tspan>
  </text>
  <text space="default" transform="matrix(0.939506,-0.137177,0.152202,1.042166,0,0)" x="484.26755" y="503.21106" font-size="20.1410408px" font-style="normal" font-weight="normal" line-height="100%" writing-mode="lr-tb" text-anchor="start" fill="#7a3f28" fill-opacity="1" stroke="none" stroke-width="1pt" stroke-linecap="butt" stroke-linejoin="miter" stroke-opacity="1" font-family="Times New Roman">
    <tspan id="tspan855" x="484.26755" y="503.21106">FORTIOR</tspan>
  </text>
  <text space="default" transform="matrix(0.920245,0.234522,-0.260103,1.02038,0,0)" x="515.09534" y="315.22775" font-size="20.29248428px" font-style="normal" font-weight="normal" line-height="100%" writing-mode="lr-tb" text-anchor="start" fill="#7a3f28" fill-opacity="1" stroke="none" stroke-width="1pt" stroke-linecap="butt" stroke-linejoin="miter" stroke-opacity="1" font-family="Times New Roman">
    <tspan id="tspan853" x="515.09534" y="315.22775">VIRTVS</tspan>
  </text>
</svg>
