<?xml version="1.0" encoding="UTF-8" standalone="no"?>
<!-- Created with Inkscape (http://www.inkscape.org/) -->
<svg
   xmlns:dc="http://purl.org/dc/elements/1.1/"
   xmlns:cc="http://web.resource.org/cc/"
   xmlns:rdf="http://www.w3.org/1999/02/22-rdf-syntax-ns#"
   xmlns:svg="http://www.w3.org/2000/svg"
   xmlns="http://www.w3.org/2000/svg"
   xmlns:xlink="http://www.w3.org/1999/xlink"
   xmlns:sodipodi="http://sodipodi.sourceforge.net/DTD/sodipodi-0.dtd"
   xmlns:inkscape="http://www.inkscape.org/namespaces/inkscape"
   version="1.0"
   width="750"
   height="500"
   id="svg672"
   sodipodi:version="0.32"
   inkscape:version="0.44"
   sodipodi:docname="Flag_of_Macau.svg"
   sodipodi:docbase="C:\Documents and Settings\Zachary\Desktop\My Pictures\SVG">
  <metadata
     id="metadata1599">
    <rdf:RDF>
      <cc:Work
         rdf:about="">
        <dc:format>image/svg+xml</dc:format>
        <dc:type
           rdf:resource="http://purl.org/dc/dcmitype/StillImage" />
      </cc:Work>
    </rdf:RDF>
  </metadata>
  <sodipodi:namedview
     inkscape:window-height="573"
     inkscape:window-width="853"
     inkscape:pageshadow="2"
     inkscape:pageopacity="0.0"
     borderopacity="1.0"
     bordercolor="#666666"
     pagecolor="#ffffff"
     id="base"
     inkscape:zoom="0.85692855"
     inkscape:cx="375.00018"
     inkscape:cy="163.5842"
     inkscape:window-x="9"
     inkscape:window-y="5"
     inkscape:current-layer="svg672"
     showguides="true"
     inkscape:guide-bbox="true" />
  <defs
     id="defs674" />
  <rect
     width="750.00037"
     height="500.00024"
     x="-750.00037"
     y="1.7807617e-006"
     style="font-size:12px;fill:#00785e;fill-opacity:1;fill-rule:evenodd;stroke:none;stroke-width:1pt;stroke-opacity:1"
     id="rect681"
     transform="scale(-1,1)" />
  <g
     id="g1931"
     transform="matrix(0.944693,0,0,0.932422,20.74013,19.0312)">
    <path
       sodipodi:nodetypes="cscccccccccccccccccccccccsc"
       d="M 375,284.23006 C 361.57641,293.5758 347.47765,313.84862 314.84477,313.84862 C 268.70175,313.84862 251.5771,300.15036 237.87866,289.77536 C 237.3688,288.24574 249.6023,282.63828 249.6023,282.63828 C 268.12346,295.72234 288.68298,307.27678 327.08459,305.57797 C 279.6779,301.3298 247.56395,275.16283 237.87866,251.03421 C 263.53576,233.02291 306.0152,233.36244 340.84771,258.17013 C 329.97349,244.57735 293.61137,229.45496 266.42466,233.70312 C 262.51601,229.62414 259.11839,224.52656 255.20975,220.44873 C 286.47429,213.482 329.97349,233.53279 345.94529,250.01446 C 329.12408,222.99809 316.88943,192.41261 336.76988,155.20108 C 340.67737,158.93939 345.09588,162.67769 349.00338,166.41599 C 334.05132,193.7719 339.48844,225.71665 351.55275,247.97497 C 330.65255,204.81646 347.47376,162.16781 375,141.43796 C 402.52624,162.16781 419.34745,204.81646 398.44725,247.97497 C 410.51156,225.71665 415.94868,193.7719 400.99662,166.41599 C 404.90412,162.67769 409.32263,158.93939 413.23012,155.20108 C 433.11057,192.41261 420.87592,222.99809 404.05471,250.01446 C 420.02651,233.53279 463.5257,213.482 494.79025,220.44873 C 490.88161,224.52656 487.48399,229.62414 483.57534,233.70312 C 456.38863,229.45496 420.02651,244.57735 409.15228,258.17013 C 443.98479,233.36244 486.46423,233.02291 512.12133,251.03421 C 502.43605,275.16283 470.3221,301.3298 422.9154,305.57797 C 461.31702,307.27678 481.87653,295.72234 500.3977,282.63828 C 500.3977,282.63828 512.6312,288.24574 512.12133,289.77536 C 498.4229,300.15036 481.29825,313.84862 435.15523,313.84862 C 402.52235,313.84862 388.42359,293.5758 375,284.23006 z "
       style="font-size:12px;fill:white;fill-opacity:1;fill-rule:evenodd;stroke-width:1pt;stroke-linejoin:round"
       id="path678" />
    <path
       id="path683"
       d="M 375,293.25 C 355.78893,309.36999 344.21106,319.56251 318.75,319.5625 L 242.03125,319.4375 C 243.97272,323.14484 246.07814,326.76418 248.3125,330.28125 L 320.96875,330.40625 C 355.8743,330.40625 374.99998,308.03125 375,308.03125 C 375.00002,308.03124 394.1257,330.40625 429.03125,330.40625 L 501.6875,330.3125 C 503.91957,326.80036 505.99752,323.17072 507.9375,319.46875 L 431.25,319.5625 C 405.78895,319.5625 394.21107,309.37 375,293.25 z "
       style="font-size:12px;fill:white;fill-rule:evenodd;stroke-width:1pt" />
    <path
       transform="matrix(1.61999,0,0,1.61999,-159.2124,-67.29344)"
       d="M 329.76291,83.226452 L 334.09576,96.559879 L 348.11553,96.56041 L 336.77361,104.80145 L 341.10545,118.13521 L 329.76291,109.89502 L 318.42037,118.13521 L 322.75221,104.80145 L 311.41029,96.560409 L 325.43006,96.559879 L 329.76291,83.226452 z "
       inkscape:randomized="0"
       inkscape:rounded="0"
       inkscape:flatsided="false"
       sodipodi:arg2="-0.9424778"
       sodipodi:arg1="-1.5707963"
       sodipodi:r2="7.3714867"
       sodipodi:r1="19.297085"
       sodipodi:cy="102.52354"
       sodipodi:cx="329.76291"
       sodipodi:sides="5"
       id="path2195"
       style="opacity:1;color:black;fill:#fbd116;fill-opacity:1;fill-rule:nonzero;stroke:none;stroke-width:8;stroke-linecap:square;stroke-linejoin:miter;marker:none;marker-start:none;marker-mid:none;marker-end:none;stroke-miterlimit:4;stroke-dasharray:none;stroke-dashoffset:0;stroke-opacity:1;visibility:visible;display:inline;overflow:visible"
       sodipodi:type="star" />
    <use
       x="0"
       y="0"
       xlink:href="#path2195"
       id="use2231"
       transform="matrix(0.31094,-0.538565,0.538565,0.31094,85.50943,345.075)"
       width="750"
       height="500" />
    <use
       height="500"
       width="750"
       transform="matrix(0.538564,-0.310941,0.310941,0.538564,63.47041,181.4695)"
       id="use2233"
       xlink:href="#path2195"
       y="0"
       x="0" />
    <use
       height="500"
       width="750"
       transform="matrix(-0.31094,-0.538565,-0.538565,0.31094,664.4909,345.075)"
       id="use2253"
       xlink:href="#path2195"
       y="0"
       x="0" />
    <use
       x="0"
       y="0"
       xlink:href="#path2195"
       id="use2255"
       transform="matrix(-0.538564,-0.310941,-0.310941,0.538564,686.53,181.4695)"
       width="750"
       height="500" />
    <path
       id="rect2205"
       d="M 255.03125,340 C 255.98093,341.26333 256.9493,342.51805 257.9375,343.75 L 492.0625,343.75 C 493.0507,342.51805 494.01907,341.26333 494.96875,340 L 255.03125,340 z M 267.90625,355 C 270.45012,357.59437 273.08724,360.09497 275.8125,362.5 L 474.1875,362.5 C 476.91276,360.09497 479.54988,357.59437 482.09375,355 L 267.90625,355 z M 285.03125,370 C 290.5364,374.13588 296.31995,377.89076 302.375,381.25 L 447.625,381.25 C 453.68005,377.89076 459.4636,374.13588 464.96875,370 L 285.03125,370 z M 309.5625,385 C 328.79502,394.34615 350.32315,399.71164 373.0625,400 L 376.9375,400 C 399.67685,399.71164 421.20498,394.34615 440.4375,385 L 309.5625,385 z "
       style="color:black;fill:white;fill-opacity:1;fill-rule:nonzero;stroke:none;stroke-width:8;stroke-linecap:square;stroke-linejoin:miter;marker:none;marker-start:none;marker-mid:none;marker-end:none;stroke-miterlimit:4;stroke-dashoffset:0;stroke-opacity:1;visibility:visible;display:inline;overflow:visible" />
  </g>
</svg>
