<?xml version="1.0" encoding="UTF-8" standalone="no"?>
<svg xmlns:svg="http://www.w3.org/2000/svg" xmlns="http://www.w3.org/2000/svg" version="1.0" width="600" height="300" id="svg15340">
  <defs id="defs15342"/>
  <rect width="600" height="300" x="125" y="377.36218" transform="translate(-125,-377.3622)" fill="#f7e017" fill-opacity="1" fill-rule="evenodd" stroke="none" stroke-width="1pt" stroke-linecap="butt" stroke-linejoin="miter" stroke-opacity="1"/>
  <rect width="375" height="187.5" x="125" y="489.86218" transform="matrix(0.8,0,0,0.8,-100,-391.8898)" fill="#00247d" fill-opacity="1" fill-rule="evenodd" stroke="none" stroke-width="1pt" stroke-linecap="butt" stroke-linejoin="miter" stroke-opacity="1"/>
  <path d="M 125,677.36218 L 166.9,677.3 L 500,510.82468 L 500,489.86218 L 458.0,489.8 L 125,656.39968 L 125,677.36218 z " transform="matrix(0.8,0,0,0.8,-100,-391.8898)" fill="#ffffff" fill-opacity="1" fill-rule="evenodd" stroke="none" stroke-width="1pt" stroke-linecap="butt" stroke-linejoin="miter" stroke-opacity="1"/>
  <path d="M 500,677.36218 L 458.0,677.3 L 125,510.82468 L 125,489.86218 L 166.9,489.8 L 500,656.39968 L 500,677.36218 z " transform="matrix(0.8,0,0,0.8,-100,-391.8898)" fill="#ffffff" fill-opacity="1" fill-rule="evenodd" stroke="none" stroke-width="1pt" stroke-linecap="butt" stroke-linejoin="miter" stroke-opacity="1"/>
  <rect width="62.5" height="187.5" x="281.25" y="489.86218" transform="matrix(0.8,0,0,0.8,-100,-391.8898)" fill="#ffffff" fill-opacity="1" fill-rule="evenodd" stroke="none" stroke-width="1pt" stroke-linecap="butt" stroke-linejoin="miter" stroke-opacity="1"/>
  <rect width="375" height="62.5" x="125" y="552.36218" transform="matrix(0.8,0,0,0.8,-100,-391.8898)" fill="#ffffff" fill-opacity="1" fill-rule="evenodd" stroke="none" stroke-width="1pt" stroke-linecap="butt" stroke-linejoin="miter" stroke-opacity="1"/>
  <rect width="375" height="37.5" x="125" y="564.86218" transform="matrix(0.8,0,0,0.8,-100,-391.8898)" fill="#cf142b" fill-opacity="1" fill-rule="evenodd" stroke="none" stroke-width="1pt" stroke-linecap="butt" stroke-linejoin="miter" stroke-opacity="1"/>
  <rect width="37.5" height="187.5" x="293.75" y="489.86218" transform="matrix(0.8,0,0,0.8,-100,-391.8898)" fill="#ce1126" fill-opacity="1" fill-rule="evenodd" stroke="none" stroke-width="1pt" stroke-linecap="butt" stroke-linejoin="miter" stroke-opacity="1"/>
  <path d="M 125,677.36218 L 152.9,677.3 L 277.9,614.8 L 250,614.86218 L 125,677.36218 z " transform="matrix(0.8,0,0,0.8,-100,-391.8898)" fill="#cf142b" fill-opacity="1" fill-rule="evenodd" stroke="none" stroke-width="1pt" stroke-linecap="butt" stroke-linejoin="miter" stroke-opacity="1"/>
  <path d="M 347.0,552.3 L 375,552.36218 L 500,489.86218 L 472.0,489.8 L 347.0,552.3 z " transform="matrix(0.8,0,0,0.8,-100,-391.8898)" fill="#cf142b" fill-opacity="1" fill-rule="evenodd" stroke="none" stroke-width="1pt" stroke-linecap="butt" stroke-linejoin="miter" stroke-opacity="1"/>
  <path d="M 500,677.36218 L 500,663.38718 L 402.9,614.8 L 375,614.86218 L 500,677.36218 z " transform="matrix(0.8,0,0,0.8,-100,-391.8898)" fill="#cf142b" fill-opacity="1" fill-rule="evenodd" stroke="none" stroke-width="1pt" stroke-linecap="butt" stroke-linejoin="miter" stroke-opacity="1"/>
  <path d="M 125,489.86218 L 125,503.83718 L 222.0,552.3 L 250,552.36218 L 125,489.86218 z " transform="matrix(0.8,0,0,0.8,-100,-391.8898)" fill="#cf142b" fill-opacity="1" fill-rule="evenodd" stroke="none" stroke-width="1pt" stroke-linecap="butt" stroke-linejoin="miter" stroke-opacity="1"/>
  <path d="M 321.0,529.7 C 321.0,478.1 287.5,436.2 246.1,436.2 C 204.8,436.2 171.3,478.1 171.3,529.7 C 171.3,581.4 204.8,623.3 246.1,623.3 C 287.5,623.3 321.0,581.4 321.0,529.7 L 321.0,529.7 z " transform="matrix(0.333968,0,0,0.267174,67.7885,-66.5486)" fill="#002b7f" fill-opacity="1" fill-rule="evenodd" stroke="none" stroke-width="1pt" stroke-linecap="butt" stroke-linejoin="miter" stroke-opacity="1"/>
  <path d="M 251.2,444.6 L 269.3,444.6 L 275.0,427.3 L 280.6,444.6 L 298.7,444.6 L 284.0,455.3 L 289.6,472.5 L 275.0,461.9 L 260.3,472.5 L 265.9,455.3 L 251.2,444.6 z " transform="translate(-125,-377.3622)" fill="#f7e017" fill-opacity="1" fill-rule="evenodd" stroke="none" stroke-width="1pt" stroke-linecap="butt" stroke-linejoin="miter" stroke-opacity="1"/>
  <path d="M 260.7,499.1 L 271.6,499.1 L 274.9,488.7 L 278.3,499.1 L 289.2,499.1 L 280.4,505.5 L 283.8,515.9 L 274.9,509.5 L 266.1,515.9 L 269.5,505.5 L 260.7,499.1 z " transform="translate(-125,-377.3622)" fill="#f7e017" fill-opacity="1" fill-rule="evenodd" stroke="none" stroke-width="1pt" stroke-linecap="butt" stroke-linejoin="miter" stroke-opacity="1"/>
  <path d="M 260.7,399.1 L 271.6,399.1 L 274.9,388.7 L 278.3,399.1 L 289.2,399.1 L 280.4,405.5 L 283.8,415.9 L 274.9,409.5 L 266.1,415.9 L 269.5,405.5 L 260.7,399.1 z " transform="translate(-125,-377.3622)" fill="#f7e017" fill-opacity="1" fill-rule="evenodd" stroke="none" stroke-width="1pt" stroke-linecap="butt" stroke-linejoin="miter" stroke-opacity="1"/>
  <path d="M 173.2,449.1 L 184.1,449.1 L 187.4,438.7 L 190.8,449.1 L 201.7,449.1 L 192.9,455.5 L 196.3,465.9 L 187.4,459.5 L 178.6,465.9 L 182.0,455.5 L 173.2,449.1 z " transform="translate(-125,-377.3622)" fill="#f7e017" fill-opacity="1" fill-rule="evenodd" stroke="none" stroke-width="1pt" stroke-linecap="butt" stroke-linejoin="miter" stroke-opacity="1"/>
  <path d="M 348.2,449.1 L 359.1,449.1 L 362.4,438.7 L 365.8,449.1 L 376.7,449.1 L 367.9,455.5 L 371.3,465.9 L 362.4,459.5 L 353.6,465.9 L 357.0,455.5 L 348.2,449.1 z " transform="translate(-125,-377.3622)" fill="#f7e017" fill-opacity="1" fill-rule="evenodd" stroke="none" stroke-width="1pt" stroke-linecap="butt" stroke-linejoin="miter" stroke-opacity="1"/>
</svg>
