<?xml version="1.0" encoding="UTF-8" standalone="no"?>
<svg xmlns:dc="http://purl.org/dc/elements/1.1/" xmlns:cc="http://web.resource.org/cc/" xmlns:rdf="http://www.w3.org/1999/02/22-rdf-syntax-ns#" xmlns:svg="http://www.w3.org/2000/svg" xmlns="http://www.w3.org/2000/svg" xmlns:xlink="http://www.w3.org/1999/xlink" height="300" id="svg607" width="600" version="1.0">
  
  <defs id="defs609"/>
  <sodipodi:namedview id="base" showguides="true"/>
  <rect height="100" width="600.00006" x="9.2675782e-006" y="-8.9157715e-005" font-size="12px" fill="#000000" fill-opacity="1" fill-rule="evenodd" stroke-width="1pt"/>
  <rect height="100" width="600.00006" x="9.2675782e-006" y="199.99995" font-size="12px" fill="#008000" fill-opacity="1" fill-rule="evenodd" stroke-width="1pt"/>
  <rect height="100" width="600" x="9.2675782e-006" y="99.999916" font-size="12px" fill="#ffffff" fill-opacity="1" fill-rule="evenodd" stroke-width="1pt"/>
  <path d="M 0.0094381205,-1.4210855e-014 L 200,150.3619 L 0,300 L 0.000,1.536 L 0.0094381205,-1.4210855e-014 z " fill="#cc0000" fill-opacity="1" fill-rule="evenodd" stroke="none" stroke-width="1pt" stroke-linecap="butt" stroke-linejoin="miter" stroke-opacity="1"/>
  <g transform="matrix(0.666667,0,0,0.666667,214.544,-163.3336)">
    <circle transform="translate(0,350)" cx="120" cy="120" r="60" fill="#cc0000" fill-opacity="1"/>
    <circle transform="translate(0,350)" cx="135" cy="120" r="48" fill="#ffffff" fill-opacity="1"/>
    <g transform="matrix(30,0,0,30,167.8357,472.8647)" id="star" fill="#cc0000" fill-opacity="1">
      <g id="cone" fill="#cc0000" fill-opacity="1">
        <polygon transform="matrix(0.951057,0.309017,-0.309017,0.951057,0,-1)" points="0,0 0,1 0.5,1 0,0 " id="triangle" fill="#cc0000" fill-opacity="1"/>
        <use id="use1463" transform="scale(-1,1)" xlink:href="#triangle" x="0" y="0" width="625" height="312.5" fill="#cc0000" fill-opacity="1"/>
      </g>
      <use id="use1465" transform="matrix(0.309017,0.951057,-0.951057,0.309017,0,0)" xlink:href="#cone" x="0" y="0" width="625" height="312.5" fill="#cc0000" fill-opacity="1"/>
      <use id="use1467" transform="matrix(0.309017,-0.951057,0.951057,0.309017,0,0)" xlink:href="#cone" x="0" y="0" width="625" height="312.5" fill="#cc0000" fill-opacity="1"/>
      <use id="use1469" transform="matrix(-0.809017,0.587785,-0.587785,-0.809017,0,0)" xlink:href="#cone" x="0" y="0" width="625" height="312.5" fill="#cc0000" fill-opacity="1"/>
      <use id="use1471" transform="matrix(-0.809017,-0.587785,0.587785,-0.809017,0,0)" xlink:href="#cone" x="0" y="0" width="625" height="312.5" fill="#cc0000" fill-opacity="1"/>
    </g>
  </g>
</svg>
