<?xml version="1.0" encoding="UTF-8" standalone="no"?>
<svg xmlns:svg="http://www.w3.org/2000/svg" xmlns="http://www.w3.org/2000/svg" version="1.0" width="900" height="600" viewBox="0 0 90 60" id="svg2">
  <defs id="defs4"/>
  <g id="layer1">
    <rect width="90" height="30" x="0" y="0" fill="#f7d117"/>
    <rect width="90" height="30" x="0" y="30" fill="#cf142b"/>
    <rect width="90" height="20" x="0" y="20" fill="#0033ab"/>
    <path d="M 43.23,26.42 L 45.00,20.99 L 46.76,26.42 L 42.14,23.07 L 47.85,23.07 L 43.23,26.42 z " transform="matrix(0.984808,-0.173648,0.173648,0.984808,-6.609569,8.452255)" fill="white" fill-opacity="1" fill-rule="nonzero" stroke="none" stroke-width="1px" stroke-linecap="butt" stroke-linejoin="miter" stroke-opacity="1"/>
    <path d="M 43.23,26.42 L 45.00,20.99 L 46.76,26.42 L 42.14,23.07 L 47.85,23.07 L 43.23,26.42 z " transform="matrix(0.984808,0.173648,-0.173648,0.984808,7.976872,-7.176096)" fill="white" fill-opacity="1" fill-rule="nonzero" stroke="none" stroke-width="1px" stroke-linecap="butt" stroke-linejoin="miter" stroke-opacity="1"/>
    <path d="M 43.23,26.42 L 45.00,20.99 L 46.76,26.42 L 42.14,23.07 L 47.85,23.07 L 43.23,26.42 z " transform="matrix(0.866026,-0.5,0.5,0.866026,-14.97115,28.12697)" fill="white" fill-opacity="1" fill-rule="nonzero" stroke="none" stroke-width="1px" stroke-linecap="butt" stroke-linejoin="miter" stroke-opacity="1"/>
    <path d="M 43.23,26.42 L 45.00,20.99 L 46.76,26.42 L 42.14,23.07 L 47.85,23.07 L 43.23,26.42 z " transform="matrix(0.866026,0.5,-0.5,0.866026,27.02887,-16.8731)" fill="white" fill-opacity="1" fill-rule="nonzero" stroke="none" stroke-width="1px" stroke-linecap="butt" stroke-linejoin="miter" stroke-opacity="1"/>
    <path d="M 43.23,26.42 L 45.00,20.99 L 46.76,26.42 L 42.14,23.07 L 47.85,23.07 L 43.23,26.42 z " transform="matrix(0.642789,-0.766045,0.766045,0.642789,-16.09932,49.475)" fill="white" fill-opacity="1" fill-rule="nonzero" stroke="none" stroke-width="1px" stroke-linecap="butt" stroke-linejoin="miter" stroke-opacity="1"/>
    <path d="M 43.23,26.42 L 45.00,20.99 L 46.76,26.42 L 42.14,23.07 L 47.85,23.07 L 43.23,26.42 z " transform="matrix(0.642789,0.766045,-0.766045,0.642789,48.24848,-19.46914)" fill="white" fill-opacity="1" fill-rule="nonzero" stroke="none" stroke-width="1px" stroke-linecap="butt" stroke-linejoin="miter" stroke-opacity="1"/>
    <path d="M 43.23,26.42 L 45.00,20.99 L 46.76,26.42 L 42.14,23.07 L 47.85,23.07 L 43.23,26.42 z " transform="matrix(0.342022,-0.939694,0.939694,0.342022,-9.858029,69.92147)" fill="white" fill-opacity="1" fill-rule="nonzero" stroke="none" stroke-width="1px" stroke-linecap="butt" stroke-linejoin="miter" stroke-opacity="1"/>
    <path d="M 43.23,26.42 L 45.00,20.99 L 46.76,26.42 L 42.14,23.07 L 47.85,23.07 L 43.23,26.42 z " transform="matrix(0.342022,0.939694,-0.939694,0.342022,69.0763,-14.65111)" fill="white" fill-opacity="1" fill-rule="nonzero" stroke="none" stroke-width="1px" stroke-linecap="butt" stroke-linejoin="miter" stroke-opacity="1"/>
  </g>
</svg>
