<?xml version="1.0" encoding="UTF-8" standalone="no"?>
<svg height="600" width="900" version="1.1" xmlns="http://www.w3.org/2000/svg">
	<desc>flag of Uganda</desc>

	<rect fill="#000000" height="600" width="900"/>
	<rect fill="#ffe700" height="100" width="900" y="100"/>
	<rect fill="#de3908" height="100" width="900" y="200"/>
	<rect fill="#ffe700" height="100" width="900" y="400"/>
	<rect fill="#de3908" height="100" width="900" y="500"/>
	<path d="M 505 232.31299 A 115 115 0 1 1 275,232.31299 A 115 115 0 1 1 505 232.31299 z" fill="#fffdff" stroke="#000000" transform="matrix(0.812266,0,0,0.812266,133.2166,111.3)"/>
	<path d="M 433.5,228.3 L 427.4,217.2 C 429.7,214.8 433.7,213.0 440.0,213.0 C 440.0,213.4 439.3,225.3 439.3,225.3 L 433.5,228.3 z" fill="#de3108" stroke="#000000"/>
	<path d="M 439.3,225.4 L 440.2,213.0 C 440.2,213.0 452.7,212.3 459.5,220.5 C 459.6,220.4 452.8,230.0 452.8,230.0 L 439.3,225.4 z" fill="#ffe700" stroke="#000000"/>
	<path d="M 453.0,229.9 L 459.2,220.4 C 463.4,224.7 465.1,227.8 465.7,232.5 C 465.8,232.6 455.9,234.9 455.9,234.8 C 455.9,234.7 453.2,230.0 453.0,229.9 z" fill="#de3108" stroke="#000000"/>
	<path d="M 436.6,388.0 C 436.6,388.0 448.2,374.7 470.7,377.6 C 467.3,372.1 456.3,372.7 456.3,372.7 C 456.3,372.7 452.9,346.9 455.6,345.6 C 458.3,344.3 469.5,345.7 469.5,345.7 C 471.0,345.7 473.6,341.6 471.6,339.1 C 469.5,336.5 463.6,326.7 466.0,324.8 C 468.5,322.9 481.8,325.9 481.8,325.9 L 444.2,277.8 C 444.2,277.8 440.4,259.7 448.0,251.0 C 457.3,243.3 456.3,235.0 456.0,235.1 C 454.7,226.7 442.0,220.7 433.4,228.4 C 428.3,234.6 431.7,239.3 431.7,239.3 C 431.7,239.3 418.3,242.9 417.7,245.3 C 417.2,247.6 432.8,244.8 432.8,244.8 L 431.3,255.6 C 431.3,255.6 400.9,283.2 424.2,307.2 C 424.4,307.1 425.0,306.1 425.0,306.1 C 425.0,306.1 433.2,316.2 441.8,318.4 C 449.9,326.7 449.1,325.5 449.1,325.5 C 449.1,325.5 450.7,338.6 449.2,341.1 C 447.2,340.5 426.6,339.7 423.5,340.9 C 420.7,341.7 410.1,341.2 412.7,358.6 C 414.7,353.9 416.6,349.7 416.6,349.7 C 416.6,349.7 416.2,356.0 418.8,358.2 C 418.4,351.6 421.2,347.2 421.2,347.2 C 421.2,347.2 421.8,354.4 423.4,355.5 C 425.0,356.5 425.0,343.8 433.8,344.8 C 442.6,345.9 449.0,345.6 449.0,345.6 C 449.0,345.6 452.0,370.6 451.0,372.9 C 444.6,371.4 429.4,373.6 428.5,377.4 C 437.4,376.9 441.6,377.9 441.6,377.9 C 441.6,377.9 434.3,384.3 436.6,388.0 z" fill="#000000" stroke="#000000"/>
	<path d="M 440.1,251.6 C 440.1,251.6 418.0,276.0 427.6,294.7 C 428.1,292.1 427.8,290.4 428.2,290.6 C 427.6,290.2 430.9,292.8 430.7,292.3 C 430.7,290.9 429.7,288.1 429.7,288.1 C 430.7,288.3 431.7,288.6 432.7,288.8 C 432.1,287.7 431.5,286.6 430.9,285.6 C 432.3,285.7 433.7,285.9 435.1,286.1 C 435.1,286.1 433.7,282.1 434.2,282.1 C 434.6,282.1 437.6,282.3 437.6,282.3 C 431.3,271.0 437.3,261.6 440.1,251.6 z" fill="#9ca69c" stroke="#9ca69c"/>
	<path d="M 447.8,230.7 C 447.8,230.7 449.0,239.1 444.4,241.5 C 443.7,242.1 440.8,243.0 441.2,244.7 C 441.8,247.1 443.0,246.6 444.9,246.2 C 449.6,245.4 455.2,235.1 447.8,230.7 z" fill="#9ca69c" stroke="#9ca69c"/>
	<path d="M 382.30713 153.44034 A 2.226532 2.2265241 0 1 1 377.8,153.4 A 2.226532 2.2265241 0 1 1 382.30713 153.44034 z" fill="#ffffff" transform="matrix(0.812266,0,0,0.812266,129.1553,113.3307)"/>
	<path d="M 432.5,244.9 C 431.3,245.9 425.2,252.3 431.2,254.6 C 437.5,252.9 435.8,251.7 437.2,250.4 C 437.2,247.5 434.1,246.7 432.5,244.9 z" fill="#de3108" stroke="#000000"/>
	<path d="M 445.9,305.3 C 445.6,306.6 444.2,311.7 446.1,315.7 C 451.4,313.4 453.9,314.1 455.7,315.3 C 451.3,311.7 449.6,310.3 445.9,305.3 z" fill="#9ca69c" stroke="#9ca69c"/>
	<path d="M 455.1,329.4 L 455.4,341.3 C 455.4,341.3 459.5,342.1 461.4,341.3 C 463.4,340.6 461.3,333.0 455.1,329.4 z" fill="#ffffff" stroke="#ffffff"/>
	<path d="M 485.2,330.9 C 485.2,330.9 477.5,312.4 457.9,307.7 C 438.4,303.0 440.9,282.2 442.5,280.9 C 443.4,279.1 444.0,276.3 449.6,279.0 C 455.3,281.6 481.2,294.7 485.0,295.4 C 488.7,296.0 485.5,331.3 485.2,330.9 z" fill="#9ca69c" stroke="#000000"/>
	<path d="M 466.6,307.6 C 466.2,307.8 492.7,323.2 484.7,336.5 C 492.3,331.5 489.9,322.8 489.9,322.8 C 489.9,322.8 496.0,338.9 481.0,346.7 C 482.6,348.1 483.7,347.8 483.7,347.8 L 481.1,350.4 C 481.1,350.4 480.0,352.3 490.1,347.4 C 487.3,349.6 487.1,351.2 487.1,351.2 C 487.1,351.2 487.8,353.3 494.4,347.6 C 489.1,353.3 487.9,356.3 487.9,356.2 C 502.3,354.9 533.6,308.2 478.0,294.4 C 481.0,297.5 480.6,297.1 480.6,297.1 L 466.6,307.6 z" fill="#de3108" stroke="#000000"/>
	<path d="M 467.7,303.0 C 471.3,305.6 472.6,306.4 473.0,307.7 C 469.7,307.0 466.8,307.2 466.8,307.2 C 466.8,307.2 459.6,300.4 458.4,299.8 C 457.4,299.8 451.9,296.3 451.9,296.3 C 449.1,294.9 446.6,285.4 456.8,288.1 C 467.3,293.1 468.8,293.6 468.8,293.6 C 473.0,294.9 477.2,296.2 481.3,297.5 C 483.8,300.2 486.2,302.9 488.6,305.6 C 488.6,305.6 475.7,299.2 474.1,299.1 C 477.6,302.0 479.6,305.9 479.6,305.9 C 475.6,304.7 472.0,303.7 467.7,303.0 z" fill="#ffffff" stroke="#000000"/>
	<path d="M 417.6,245.9 C 417.6,245.9 430.0,242.9 431.4,243.3" stroke="#ffffff"/>
</svg>
