<?xml version="1.0" encoding="UTF-8" standalone="no"?>
<!-- Generator: Adobe Illustrator 15.1.0, SVG Export Plug-In . SVG Version: 6.00 Build 0)  -->

<svg
   xmlns:dc="http://purl.org/dc/elements/1.1/"
   xmlns:cc="http://creativecommons.org/ns#"
   xmlns:rdf="http://www.w3.org/1999/02/22-rdf-syntax-ns#"
   xmlns:svg="http://www.w3.org/2000/svg"
   xmlns="http://www.w3.org/2000/svg"
   xmlns:xlink="http://www.w3.org/1999/xlink"
   xmlns:sodipodi="http://sodipodi.sourceforge.net/DTD/sodipodi-0.dtd"
   xmlns:inkscape="http://www.inkscape.org/namespaces/inkscape"
   version="1.1"
   id="Layer_1"
   x="0px"
   y="0px"
   width="140"
   height="140"
   viewBox="0 0 140 140"
   enable-background="new 0 0 44.445 100"
   xml:space="preserve"
   inkscape:version="0.48.3.1 r9886"
   sodipodi:docname="navigation.svg"><metadata
   id="metadata11"><rdf:RDF><cc:Work
       rdf:about=""><dc:format>image/svg+xml</dc:format><dc:type
         rdf:resource="http://purl.org/dc/dcmitype/StillImage" /></cc:Work></rdf:RDF></metadata><defs
   id="defs9"><radialGradient
     inkscape:collect="always"
     xlink:href="#linearGradient5441"
     id="radialGradient5447"
     cx="89.667778"
     cy="-50.42506"
     fx="89.667778"
     fy="-50.42506"
     r="37.628441"
     gradientTransform="matrix(0.01346767,-0.65863297,0.96712694,0.01977575,137.2276,9.6302931)"
     gradientUnits="userSpaceOnUse" /><linearGradient
     id="linearGradient5441"><stop
       style="stop-color:#eeeeec;stop-opacity:0.50335568;"
       offset="0"
       id="stop5443" /><stop
       style="stop-color:#eeeeec;stop-opacity:0;"
       offset="1"
       id="stop5445" /></linearGradient><filter
     color-interpolation-filters="sRGB"
     inkscape:collect="always"
     id="filter5453"><feGaussianBlur
       inkscape:collect="always"
       stdDeviation="0.60045385"
       id="feGaussianBlur5455" /></filter><radialGradient
     r="37.628441"
     fy="-50.42506"
     fx="89.667778"
     cy="-50.42506"
     cx="89.667778"
     gradientTransform="matrix(0.01346767,-0.65863297,0.96712694,0.01977575,137.2276,9.6302931)"
     gradientUnits="userSpaceOnUse"
     id="radialGradient3032"
     xlink:href="#linearGradient5441"
     inkscape:collect="always" /></defs><sodipodi:namedview
   pagecolor="#ffffff"
   bordercolor="#666666"
   borderopacity="1"
   objecttolerance="10"
   gridtolerance="10"
   guidetolerance="10"
   inkscape:pageopacity="0"
   inkscape:pageshadow="2"
   inkscape:window-width="975"
   inkscape:window-height="699"
   id="namedview7"
   showgrid="false"
   inkscape:zoom="2.36"
   inkscape:cx="69.165353"
   inkscape:cy="52.766984"
   inkscape:window-x="477"
   inkscape:window-y="230"
   inkscape:window-maximized="0"
   inkscape:current-layer="Layer_1"
   fit-margin-top="0"
   fit-margin-left="0"
   fit-margin-right="0"
   fit-margin-bottom="0" />

<rect
   style="fill:#eeeeec;fill-opacity:1;stroke:#000000;stroke-width:0.99472988;stroke-linecap:round;stroke-linejoin:round;stroke-miterlimit:4;stroke-opacity:1;stroke-dasharray:none;stroke-dashoffset:0"
   id="rect3934-6"
   width="139.00526"
   height="139.00526"
   x="0.49736494"
   y="0.49736494"
   rx="31.889299"
   ry="33.613216" /><g
   id="g3081"
   transform="matrix(0.92055085,0,0,0.92055085,11.084746,11.084746)"><path
     style="fill:#0057ae"
     inkscape:connector-curvature="0"
     id="path3"
     d="M 80.69568,37.30048 60.47552,30.91584 C 59.69984,30.6688 58.66688,29.2608 58.66688,28.44544 v -8.8896 H 67.5552 L 51.5552,0 l -16,19.55456 h 8.8896 v 8.8896 c 0,7.02464 5.05216,13.91872 11.7504,16.032 l 20.21888,6.38592 c 0.77696,0.24704 1.80736,1.65376 1.80736,2.4704 v 21.33376 c 0,0.81792 -1.0304,2.22336 -1.8112,2.4704 l -20.2112,6.3872 C 49.49696,85.63584 44.4448,92.52992 44.4448,99.55456 V 128 H 58.6656 V 99.55456 c 0,-0.81536 1.03296,-2.22336 1.81376,-2.4704 l 20.2112,-6.38464 C 87.39008,88.58496 92.4448,81.69344 92.4448,74.66624 V 53.33376 c 0,-7.0272 -5.05344,-13.91872 -11.74912,-16.03328 z" /><path
     inkscape:connector-curvature="0"
     id="path5"
     d="M 58.66688,77.14944 V 50.85056 l -4.0768,-1.2864 C 50.60032,48.30464 47.10336,45.84448 44.4448,42.67904 V 85.3248 c 2.65856,-3.168 6.1568,-5.62816 10.14656,-6.88896 l 4.07552,-1.2864 z" /></g>
</svg>