<?xml version="1.0" encoding="UTF-8" standalone="no"?>
<!-- Generator: Adobe Illustrator 14.0.0, SVG Export Plug-In . SVG Version: 6.00 Build 43363)  -->

<svg
   xmlns:dc="http://purl.org/dc/elements/1.1/"
   xmlns:cc="http://creativecommons.org/ns#"
   xmlns:rdf="http://www.w3.org/1999/02/22-rdf-syntax-ns#"
   xmlns:svg="http://www.w3.org/2000/svg"
   xmlns="http://www.w3.org/2000/svg"
   xmlns:sodipodi="http://sodipodi.sourceforge.net/DTD/sodipodi-0.dtd"
   xmlns:inkscape="http://www.inkscape.org/namespaces/inkscape"
   version="1.0"
   id="Layer_1"
   x="0px"
   y="0px"
   width="48"
   height="48"
   viewBox="0 0 47.999999 47.999999"
   enable-background="new 0 0 99.018 100"
   xml:space="preserve"
   inkscape:version="0.48.3.1 r9886"
   sodipodi:docname="activity-tracking.svg"><metadata
   id="metadata39"><rdf:RDF><cc:Work
       rdf:about=""><dc:format>image/svg+xml</dc:format><dc:type
         rdf:resource="http://purl.org/dc/dcmitype/StillImage" /></cc:Work></rdf:RDF></metadata><defs
   id="defs37" /><sodipodi:namedview
   pagecolor="#ffffff"
   bordercolor="#666666"
   borderopacity="1"
   objecttolerance="10"
   gridtolerance="10"
   guidetolerance="10"
   inkscape:pageopacity="0"
   inkscape:pageshadow="2"
   inkscape:window-width="1094"
   inkscape:window-height="870"
   id="namedview35"
   showgrid="false"
   inkscape:zoom="6.8541667"
   inkscape:cx="-8.2363243"
   inkscape:cy="24.198197"
   inkscape:window-x="499"
   inkscape:window-y="131"
   inkscape:window-maximized="0"
   inkscape:current-layer="Layer_1"
   fit-margin-top="0"
   fit-margin-left="0"
   fit-margin-right="0"
   fit-margin-bottom="0" />
















<g
   id="g2998"
   transform="matrix(0.40241369,0,0,0.40241369,-7.1011946,-5.1241678)"><path
     inkscape:connector-curvature="0"
     id="path3-9"
     d="m 89.453652,46.513198 c 3.44675,0 6.22511,-2.77836 6.22511,-6.22419 0,-3.44582 -2.77836,-6.24643 -6.22511,-6.24643 -3.42451,0 -6.22419,2.80061 -6.22419,6.24643 0,3.44583 2.79968,6.22419 6.22419,6.22419 z"
     style="fill:#000000;fill-opacity:1" /><path
     inkscape:connector-curvature="0"
     id="path5-4"
     d="m 79.868922,47.805498 c 0.2364,-0.96969 -0.34486,-1.91713 -1.29322,-2.15353 l -5.19053,-1.27098 c -0.96876,-0.19375 -1.93845,0.36619 -2.15445,1.33495 l -4.350628,18.04957 c -0.237324,0.92612 0.34486,1.89488 1.313623,2.13221 l 5.191455,1.24965 c 0.94744,0.2364 1.89488,-0.34486 2.1322,-1.31362 l 4.35155,-18.02825 z"
     style="fill:#000000;fill-opacity:1" /><path
     inkscape:connector-curvature="0"
     id="path7-4"
     d="m 68.129751,108.26647 c -0.04264,0.30037 -0.08621,0.60258 -0.08621,0.88255 0,2.4131 1.959774,4.37288 4.372871,4.37288 2.00335,0 3.66183,-1.31456 4.19952,-3.12322 l 7.53966,-31.145953 7.1503,30.972593 c 0.47372,1.89581 2.21935,3.29658 4.24309,3.29658 2.43349,0 4.39419,-1.95978 4.39419,-4.37288 0,-0.32354 -0.0426,-0.64615 -0.10754,-0.94744 l -9.84336,-41.160822 0.8399,-3.59693 0.62483,2.84232 c 0.60258,1.85224 2.30463,2.04692 2.30463,2.04692 l 10.144668,2.5846 c 0.19375,0.0436 0.38751,0.0436 0.60258,0.0436 1.63716,0 2.99343,-1.33495 2.99343,-2.99343 0,-1.39984 -0.99101,-2.60685 -2.30463,-2.90814 l -8.787478,-2.1971 -2.4131,-9.7998 c -1.14119,-5.44917 -6.35397,-5.32031 -6.35397,-5.32031 -5.08299,-0.12886 -6.35397,5.19053 -6.35397,5.19053 L 68.129756,108.2665 z"
     style="fill:#000000;fill-opacity:1" /><path
     inkscape:connector-curvature="0"
     id="path9-2"
     d="m 30.220961,29.702898 c 0,2.02467 -1.59452,3.66183 -3.66183,3.66183 -2.00334,0 -3.66183,-1.63809 -3.66183,-3.66183 0,-2.00335 1.65849,-3.64051 3.66183,-3.64051 2.06731,0 3.66183,1.63716 3.66183,3.64051 z"
     style="fill:#0057ae" /><path
     inkscape:connector-curvature="0"
     id="path11-9"
     d="m 26.559131,39.524018 c 2.06731,0 3.66183,1.63716 3.66183,3.64051 0,2.02466 -1.59452,3.66183 -3.66183,3.66183 -2.00334,0 -3.66183,-1.63809 -3.66183,-3.66183 -9.2e-4,-2.00335 1.65756,-3.64051 3.66183,-3.64051 z"
     style="fill:#0057ae" /><path
     inkscape:connector-curvature="0"
     id="path13-1"
     d="m 26.580461,52.986568 c 2.04598,0 3.66182,1.63716 3.66182,3.64051 0,2.04599 -1.61584,3.6609 -3.66182,3.6609 -2.00335,0 -3.66183,-1.61491 -3.66183,-3.6609 0,-2.00335 1.65848,-3.64051 3.66183,-3.64051 z"
     style="fill:#0057ae" /><path
     inkscape:connector-curvature="0"
     id="path15"
     d="m 26.580461,66.448198 c 2.04598,0 3.66182,1.63716 3.66182,3.63958 0,2.04692 -1.61584,3.66183 -3.66182,3.66183 -2.00335,0 -3.66183,-1.61491 -3.66183,-3.66183 0,-2.00242 1.65848,-3.63958 3.66183,-3.63958 z"
     style="fill:#0057ae" /><path
     inkscape:connector-curvature="0"
     id="path17-2"
     d="m 26.580461,79.910747 c 2.04598,0 3.66182,1.63717 3.66182,3.63958 0,2.04692 -1.61584,3.66183 -3.66182,3.66183 -2.00335,0 -3.64051,-1.61491 -3.64051,-3.66183 0,-2.00241 1.63716,-3.63958 3.64051,-3.63958 z"
     style="fill:#0057ae" /><path
     inkscape:connector-curvature="0"
     id="path19"
     d="m 26.580461,93.372377 c 2.06731,0 3.66182,1.63716 3.66182,3.64051 0,2.06731 -1.59451,3.661833 -3.66182,3.661833 -2.00335,0 -3.64051,-1.593593 -3.64051,-3.661833 0,-2.00335 1.63716,-3.64051 3.64051,-3.64051 z"
     style="fill:#0057ae" /><path
     inkscape:connector-curvature="0"
     id="path21-3"
     d="m 30.242281,110.47451 c 0,2.06732 -1.59451,3.66183 -3.66182,3.66183 -2.00335,0 -3.64051,-1.59451 -3.64051,-3.66183 0,-2.00241 1.63716,-3.63958 3.64051,-3.63958 2.06823,-9.2e-4 3.66182,1.63717 3.66182,3.63958 z"
     style="fill:#0057ae" /><path
     inkscape:connector-curvature="0"
     id="path23"
     d="m 67.473381,33.304118 c -2.02467,0 -3.63958,-1.61584 -3.63958,-3.68408 0,-1.9811 1.61491,-3.63958 3.63958,-3.63958 2.025591,0 3.661831,1.65848 3.661831,3.63958 0,2.06824 -1.63624,3.68408 -3.661831,3.68408 z"
     style="fill:#0057ae" /><path
     inkscape:connector-curvature="0"
     id="path25-6"
     d="m 40.042081,114.17899 c -2.02467,0 -3.63958,-1.63716 -3.63958,-3.68315 0,-1.98203 1.61491,-3.64051 3.63958,-3.64051 2.0256,0 3.66276,1.65848 3.66276,3.64051 0,2.04599 -1.63809,3.68315 -3.66276,3.68315 z"
     style="fill:#0057ae" /><path
     inkscape:connector-curvature="0"
     id="path27"
     d="m 53.503711,33.385118 c -2.00242,0 -3.6609,-1.63716 -3.6609,-3.6609 0,-2.00334 1.65848,-3.64051 3.6609,-3.64051 2.04692,0 3.66183,1.63717 3.66183,3.64051 0,2.02467 -1.61491,3.6609 -3.66183,3.6609 z"
     style="fill:#0057ae" /><path
     inkscape:connector-curvature="0"
     id="path29-4"
     d="m 40.020761,33.385118 c -2.02559,0 -3.64051,-1.63716 -3.64051,-3.6609 0,-2.00334 1.61492,-3.64051 3.64051,-3.64051 2.02559,0 3.66183,1.63717 3.66183,3.64051 0,2.02467 -1.63624,3.6609 -3.66183,3.6609 z"
     style="fill:#0057ae" /><polygon
     transform="matrix(-0.92704545,0,0,-0.92704545,102.69057,118.76694)"
     id="polygon31"
     points="56.545,0 56.545,17.96 41.065,8.968 "
     style="fill:#0057ae;fill-opacity:1" /><path
     inkscape:connector-curvature="0"
     id="path33-0"
     d="m 116.53358,113.28457 c 0,0 0,-26.406893 0,-29.121283 1.83092,-1.83091 14.10871,-14.107769 14.10871,-14.107769 0.68972,-0.6888 1.03365,-1.61584 1.03365,-2.52064 0,-0.92612 -0.34393,-1.83092 -1.03365,-2.51971 -1.39984,-1.39984 -3.6609,-1.39984 -5.06167,0 l -16.19734,16.176019 v 32.093383 h 7.1503 z"
     style="fill:#000000;fill-opacity:1" /></g></svg>