<?xml version="1.0" encoding="UTF-8" standalone="no"?>
<!-- Generator: Adobe Illustrator 14.0.0, SVG Export Plug-In . SVG Version: 6.00 Build 43363)  -->

<svg
   xmlns:dc="http://purl.org/dc/elements/1.1/"
   xmlns:cc="http://creativecommons.org/ns#"
   xmlns:rdf="http://www.w3.org/1999/02/22-rdf-syntax-ns#"
   xmlns:svg="http://www.w3.org/2000/svg"
   xmlns="http://www.w3.org/2000/svg"
   xmlns:sodipodi="http://sodipodi.sourceforge.net/DTD/sodipodi-0.dtd"
   xmlns:inkscape="http://www.inkscape.org/namespaces/inkscape"
   version="1.0"
   id="Layer_1"
   x="0px"
   y="0px"
   width="140"
   height="140"
   viewBox="0 0 140 140"
   enable-background="new 0 0 100 85.416"
   xml:space="preserve"
   inkscape:version="0.48.3.1 r9886"
   sodipodi:docname="activity-friends.svg"><metadata
   id="metadata25"><rdf:RDF><cc:Work
       rdf:about=""><dc:format>image/svg+xml</dc:format><dc:type
         rdf:resource="http://purl.org/dc/dcmitype/StillImage" /><dc:title></dc:title></cc:Work></rdf:RDF></metadata><defs
   id="defs23" /><sodipodi:namedview
   pagecolor="#ffffff"
   bordercolor="#666666"
   borderopacity="1"
   objecttolerance="10"
   gridtolerance="10"
   guidetolerance="10"
   inkscape:pageopacity="0"
   inkscape:pageshadow="2"
   inkscape:window-width="732"
   inkscape:window-height="691"
   id="namedview21"
   showgrid="false"
   inkscape:zoom="0.97684978"
   inkscape:cx="82.188132"
   inkscape:cy="140.80674"
   inkscape:window-x="751"
   inkscape:window-y="153"
   inkscape:window-maximized="0"
   inkscape:current-layer="Layer_1"
   fit-margin-top="0"
   fit-margin-left="0"
   fit-margin-right="0"
   fit-margin-bottom="0" />


<rect
   style="fill:#eeeeec;fill-opacity:1;stroke:#000000;stroke-width:0.99472988;stroke-linecap:round;stroke-linejoin:round;stroke-miterlimit:4;stroke-opacity:1;stroke-dasharray:none;stroke-dashoffset:0"
   id="rect3934-6"
   width="139.00526"
   height="139.00526"
   x="0.49736494"
   y="0.49736494"
   rx="31.889299"
   ry="33.613216" />
<g
   id="g3052"
   transform="translate(38.7505,20.0005)"><path
     id="path3042"
     d="m 31.238,12.5 c 5.017,0 9.729,1.953 13.269,5.499 C 48.047,21.533 50,26.245 50,31.25 50,36.255 48.047,40.967 44.592,44.415 44.068,44.934 37.598,51.367 31.238,61.42 24.926,51.386 18.481,44.977 17.993,44.501 14.453,40.967 12.5,36.255 12.5,31.25 c 0,-5.005 1.953,-9.717 5.493,-13.257 3.54,-3.54 8.149,-5.493 13.245,-5.493 m 0,-12.5 C 23.254,0 15.259,3.052 9.155,9.155 c -12.207,12.201 -12.207,31.988 0,44.189 0,0 22.083,21.655 22.083,46.655 0,-25 22.106,-46.655 22.106,-46.655 12.207,-12.201 12.207,-31.988 0,-44.189 C 47.241,3.052 39.246,0 31.238,0 l 0,0 z"
     style="fill:#010101"
     inkscape:connector-curvature="0" /><path
     id="path3044"
     d="m 37.5,31.25 c 0,3.455 -2.795,6.25 -6.262,6.25 C 27.691,37.5 25,34.705 25,31.25 25,27.795 27.691,25 31.238,25 c 3.467,0 6.262,2.795 6.262,6.25 z"
     style="fill:#010101"
     inkscape:connector-curvature="0" /></g></svg>