<?xml version="1.0" encoding="UTF-8" standalone="no"?>
<!-- Generator: Adobe Illustrator 14.0.0, SVG Export Plug-In . SVG Version: 6.00 Build 43363)  -->

<svg
   xmlns:dc="http://purl.org/dc/elements/1.1/"
   xmlns:cc="http://creativecommons.org/ns#"
   xmlns:rdf="http://www.w3.org/1999/02/22-rdf-syntax-ns#"
   xmlns:svg="http://www.w3.org/2000/svg"
   xmlns="http://www.w3.org/2000/svg"
   xmlns:sodipodi="http://sodipodi.sourceforge.net/DTD/sodipodi-0.dtd"
   xmlns:inkscape="http://www.inkscape.org/namespaces/inkscape"
   version="1.0"
   id="Layer_1"
   x="0px"
   y="0px"
   width="48"
   height="48"
   viewBox="0 0 47.999999 47.999999"
   enable-background="new 0 0 98.635 100"
   xml:space="preserve"
   inkscape:version="0.48.3.1 r9886"
   sodipodi:docname="information.svg"
   inkscape:export-filename="/home/dennis/marble/src-git/src/qt-components/marble-touch/icons/information.png"
   inkscape:export-xdpi="90"
   inkscape:export-ydpi="90"><metadata
   id="metadata13"><rdf:RDF><cc:Work
       rdf:about=""><dc:format>image/svg+xml</dc:format><dc:type
         rdf:resource="http://purl.org/dc/dcmitype/StillImage" /><dc:title></dc:title></cc:Work></rdf:RDF></metadata><defs
   id="defs11" /><sodipodi:namedview
   pagecolor="#ffffff"
   bordercolor="#666666"
   borderopacity="1"
   objecttolerance="10"
   gridtolerance="10"
   guidetolerance="10"
   inkscape:pageopacity="0"
   inkscape:pageshadow="2"
   inkscape:window-width="1250"
   inkscape:window-height="854"
   id="namedview9"
   showgrid="false"
   inkscape:zoom="6.6875"
   inkscape:cx="0.14953276"
   inkscape:cy="9.4147401"
   inkscape:window-x="340"
   inkscape:window-y="166"
   inkscape:window-maximized="0"
   inkscape:current-layer="Layer_1"
   fit-margin-top="0"
   fit-margin-left="0"
   fit-margin-right="0"
   fit-margin-bottom="0" />



<g
   transform="matrix(0.40335226,0,0,0.40335226,3.8323865,3.8323865)"
   id="g5"
   style="fill:#0057ae"><path
     style="fill:#0057ae"
     inkscape:connector-curvature="0"
     d="M 50,100 C 77.614,100 99.999,77.614 99.999,50 99.999,22.386 77.614,0 50,0 22.386,0 0.001,22.386 0.001,50 0.001,77.614 22.386,100 50,100 z M 49.679,15.666 c 4.596,0 7.721,3.493 7.721,7.998 0,4.781 -3.401,8.089 -7.721,8.089 -4.229,0 -7.631,-3.309 -7.631,-8.089 0,-4.688 3.402,-7.998 7.631,-7.998 z M 37.544,80.475 c 5.424,0 5.884,-0.827 5.884,-7.629 V 51.792 c 0,-6.802 -0.367,-7.262 -5.884,-7.262 v -3.676 c 5.608,-0.369 11.583,-1.84 17.927,-4.505 l 1.563,0.827 v 35.76 c 0,6.711 0.551,7.538 5.423,7.538 v 3.859 H 37.544 v -3.858 z"
     id="path7" /></g></svg>