<?xml version="1.0" encoding="UTF-8" standalone="no"?>
<svg
   xmlns:dc="http://purl.org/dc/elements/1.1/"
   xmlns:cc="http://creativecommons.org/ns#"
   xmlns:rdf="http://www.w3.org/1999/02/22-rdf-syntax-ns#"
   xmlns:svg="http://www.w3.org/2000/svg"
   xmlns="http://www.w3.org/2000/svg"
   xmlns:sodipodi="http://sodipodi.sourceforge.net/DTD/sodipodi-0.dtd"
   xmlns:inkscape="http://www.inkscape.org/namespaces/inkscape"
   version="1.1"
   id="Layer_1"
   x="0px"
   y="0px"
   width="64"
   height="64"
   viewBox="0 0 64 64"
   enable-background="new 0 0 100 100"
   xml:space="preserve"
   inkscape:version="0.48.2 r9819"
   sodipodi:docname="wireless.svg"><metadata
   id="metadata3029"><rdf:RDF><cc:Work
       rdf:about=""><dc:format>image/svg+xml</dc:format><dc:type
         rdf:resource="http://purl.org/dc/dcmitype/StillImage" /><dc:title></dc:title></cc:Work></rdf:RDF></metadata><defs
   id="defs3027" /><sodipodi:namedview
   pagecolor="#ffffff"
   bordercolor="#666666"
   borderopacity="1"
   objecttolerance="10"
   gridtolerance="10"
   guidetolerance="10"
   inkscape:pageopacity="0"
   inkscape:pageshadow="2"
   inkscape:window-width="972"
   inkscape:window-height="636"
   id="namedview3025"
   showgrid="false"
   inkscape:zoom="4"
   inkscape:cx="-1.2746033"
   inkscape:cy="32.485804"
   inkscape:window-x="30"
   inkscape:window-y="330"
   inkscape:window-maximized="0"
   inkscape:current-layer="Layer_1" />

<g
   id="g3045"
   transform="matrix(0.36,0,0,0.36,14,17.808801)"><path
     inkscape:connector-curvature="0"
     id="path3"
     d="M 71.703,48.742 C 66.127,43.211 58.457,39.787 50,39.787 c -8.457,0 -16.127,3.424 -21.703,8.955 -0.059,0.059 -0.118,0.117 -0.176,0.176 l 7.032,7.033 c 0.058,-0.059 0.117,-0.119 0.176,-0.176 3.775,-3.732 8.957,-6.041 14.671,-6.041 5.715,0 10.896,2.309 14.672,6.041 0.059,0.057 0.117,0.117 0.176,0.176 l 7.031,-7.033 C 71.82,48.859 71.762,48.801 71.703,48.742 z" /><path
     inkscape:connector-curvature="0"
     id="path5"
     d="M 85.764,34.683 C 76.586,25.548 63.941,19.894 50,19.894 c -13.941,0 -26.585,5.655 -35.764,14.789 -0.059,0.058 -0.118,0.117 -0.176,0.176 l 7.03,7.03 C 21.148,41.83 21.207,41.772 21.266,41.713 28.644,34.379 38.801,29.84 50,29.84 c 11.199,0 21.355,4.539 28.733,11.873 0.059,0.059 0.118,0.117 0.176,0.176 l 7.03,-7.03 C 85.881,34.8 85.822,34.741 85.764,34.683 z" /><path
     inkscape:connector-curvature="0"
     id="path7"
     d="M 99.824,20.622 C 87.043,7.886 69.426,0 50,0 30.574,0 12.957,7.886 0.176,20.622 0.118,20.681 0.059,20.74 0,20.798 l 7.03,7.03 C 7.089,27.769 7.147,27.711 7.206,27.652 18.186,16.717 33.316,9.947 50,9.947 c 16.684,0 31.814,6.771 42.794,17.706 0.059,0.059 0.117,0.117 0.176,0.176 L 100,20.799 C 99.941,20.74 99.883,20.681 99.824,20.622 z" /><circle
     sodipodi:ry="8"
     sodipodi:rx="8"
     sodipodi:cy="70.839996"
     sodipodi:cx="50.058998"
     d="m 58.058998,70.839996 c 0,4.418278 -3.581722,8 -8,8 -4.418278,0 -8,-3.581722 -8,-8 0,-4.418278 3.581722,-8 8,-8 4.418278,0 8,3.581722 8,8 z"
     id="circle9"
     r="8"
     cy="70.839996"
     cx="50.058998" /></g></svg>