<?xml version="1.0" encoding="UTF-8" standalone="no"?>
<!-- Generator: Adobe Illustrator 14.0.0, SVG Export Plug-In . SVG Version: 6.00 Build 43363)  -->

<svg
   xmlns:dc="http://purl.org/dc/elements/1.1/"
   xmlns:cc="http://creativecommons.org/ns#"
   xmlns:rdf="http://www.w3.org/1999/02/22-rdf-syntax-ns#"
   xmlns:svg="http://www.w3.org/2000/svg"
   xmlns="http://www.w3.org/2000/svg"
   xmlns:sodipodi="http://sodipodi.sourceforge.net/DTD/sodipodi-0.dtd"
   xmlns:inkscape="http://www.inkscape.org/namespaces/inkscape"
   version="1.0"
   id="Layer_1"
   x="0px"
   y="0px"
   width="48"
   height="48"
   viewBox="0 0 47.999999 47.999999"
   enable-background="new 0 0 98.635 100"
   xml:space="preserve"
   inkscape:version="0.48.3.1 r9886"
   sodipodi:docname="preferences.svg"
   inkscape:export-filename="/home/dennis/marble/src-git/src/qt-components/marble-touch/icons/preferences.png"
   inkscape:export-xdpi="90"
   inkscape:export-ydpi="90"><metadata
   id="metadata13"><rdf:RDF><cc:Work
       rdf:about=""><dc:format>image/svg+xml</dc:format><dc:type
         rdf:resource="http://purl.org/dc/dcmitype/StillImage" /><dc:title></dc:title></cc:Work></rdf:RDF></metadata><defs
   id="defs11" /><sodipodi:namedview
   pagecolor="#ffffff"
   bordercolor="#666666"
   borderopacity="1"
   objecttolerance="10"
   gridtolerance="10"
   guidetolerance="10"
   inkscape:pageopacity="0"
   inkscape:pageshadow="2"
   inkscape:window-width="1250"
   inkscape:window-height="854"
   id="namedview9"
   showgrid="false"
   inkscape:zoom="6.6875"
   inkscape:cx="4.1755787"
   inkscape:cy="29.762614"
   inkscape:window-x="30"
   inkscape:window-y="160"
   inkscape:window-maximized="0"
   inkscape:current-layer="Layer_1"
   fit-margin-top="0"
   fit-margin-left="0"
   fit-margin-right="0"
   fit-margin-bottom="0"
   showguides="false"
   inkscape:guide-bbox="true"><sodipodi:guide
     orientation="1,0"
     position="3.9626168,23.028037"
     id="guide3770" /><sodipodi:guide
     orientation="1,0"
     position="44.037383,40.149533"
     id="guide3772" /><inkscape:grid
     type="xygrid"
     id="grid3774" /></sodipodi:namedview>



<path
   inkscape:connector-curvature="0"
   d="m 40.994993,9.1523659 -23.999999,0 c -0.05607,-2.152366 -0.755572,-3.152366 -2,-3.152366 -1.244428,0 -1.962617,1 -2,3.152366 l -6.0000003,0 c -1.0373832,0 -1.0105968,4.0000001 0,4.0000001 l 6.0000003,0 c 0,3 0.79815,3 2,3 1.20185,0 2,0 2,-3 l 23.999999,0 c 1.037383,0 1.037383,-4.0000001 0,-4.0000001 z"
   id="path3"
   sodipodi:nodetypes="sczcssczcss" /><path
   inkscape:connector-curvature="0"
   d="m 40.994993,22 -3.999998,0 c 0,-3 -0.79815,-3 -2,-3 -1.20185,0 -2,0 -2,3 L 6.9949942,22 c -1.0373831,0 -1.0105966,4 0,4 l 26.0000008,0 c 0,3 0.79815,3 2,3 1.20185,0 2,0 2,-3 l 3.999998,0 c 1.037383,0 1.037383,-4 0,-4 z"
   id="path3-7"
   sodipodi:nodetypes="sczcssczcss" /><path
   inkscape:connector-curvature="0"
   d="m 40.994992,34.847633 -15.999998,0 c 0,-3 -0.79815,-3 -2,-3 -1.20185,0 -2,0 -2,3 l -13.9999993,0 c -1.0373832,0 -1.0105967,4 0,4 l 13.9999993,0 c 0,3 0.79815,3 2,3 1.20185,0 2,0 2,-3 l 15.999998,0 c 1.037383,0 1.037383,-4 0,-4 z"
   id="path3-9"
   sodipodi:nodetypes="sczcssczcss" /></svg>