<?xml version="1.0" encoding="UTF-8" standalone="no"?>
<svg
   xmlns:dc="http://purl.org/dc/elements/1.1/"
   xmlns:cc="http://creativecommons.org/ns#"
   xmlns:rdf="http://www.w3.org/1999/02/22-rdf-syntax-ns#"
   xmlns:svg="http://www.w3.org/2000/svg"
   xmlns="http://www.w3.org/2000/svg"
   xmlns:sodipodi="http://sodipodi.sourceforge.net/DTD/sodipodi-0.dtd"
   xmlns:inkscape="http://www.inkscape.org/namespaces/inkscape"
   version="1.1"
   height="32"
   width="44.36039"
   id="svg2"
   inkscape:version="0.48.2 r9819"
   sodipodi:docname="routing-bike.svg">
  <metadata
     id="metadata14">
    <rdf:RDF>
      <cc:Work
         rdf:about="">
        <dc:format>image/svg+xml</dc:format>
        <dc:type
           rdf:resource="http://purl.org/dc/dcmitype/StillImage" />
      </cc:Work>
    </rdf:RDF>
  </metadata>
  <defs
     id="defs12" />
  <sodipodi:namedview
     pagecolor="#ffffff"
     bordercolor="#666666"
     borderopacity="1"
     objecttolerance="10"
     gridtolerance="10"
     guidetolerance="10"
     inkscape:pageopacity="0"
     inkscape:pageshadow="2"
     inkscape:window-width="1295"
     inkscape:window-height="829"
     id="namedview10"
     showgrid="false"
     fit-margin-top="0"
     fit-margin-left="0"
     fit-margin-right="0"
     fit-margin-bottom="0"
     inkscape:zoom="3.4139999"
     inkscape:cx="21.668953"
     inkscape:cy="-3.1749791"
     inkscape:window-x="495"
     inkscape:window-y="252"
     inkscape:window-maximized="0"
     inkscape:current-layer="svg2" />
  <g
     id="g2991"
     transform="matrix(0.047343,0,0,0.047343,-1.609662,4.0676307)">
    <circle
       id="circle4"
       style="fill:none;stroke:#000000;stroke-width:40px"
       r="161"
       cy="409"
       cx="215"
       d="m 376,409 c 0,88.91784 -72.08216,161 -161,161 -88.91784,0 -161,-72.08216 -161,-161 0,-88.91784 72.08216,-161 161,-161 88.91784,0 161,72.08216 161,161 z"
       sodipodi:cx="215"
       sodipodi:cy="409"
       sodipodi:rx="161"
       sodipodi:ry="161" />
    <circle
       id="circle6"
       style="fill:none;stroke:#000000;stroke-width:40px"
       r="161"
       cy="406"
       cx="790"
       d="m 951,406 c 0,88.91784 -72.08216,161 -161,161 -88.91784,0 -161,-72.08216 -161,-161 0,-88.91784 72.08216,-161 161,-161 88.91784,0 161,72.08216 161,161 z"
       sodipodi:cx="790"
       sodipodi:cy="406"
       sodipodi:rx="161"
       sodipodi:ry="161" />
    <path
       id="path8"
       d="M 429.48437,15.467118 C 296.9179,16.75919 319.39993,1.7711686 248.07762,230.98455 189.97511,414.12586 196.30387,394.15363 196,407 c -0.21296,9.98022 7.84333,17.89312 17.96694,18.57043 21.0536,-2.12877 12.19798,2.27698 85.19054,-224.38965 266.71215,281.35562 166.64844,235.73116 310.18316,241.44498 188.64235,-1.8089 203.97493,9.81974 206.21452,-17.83058 -0.25842,-9.38905 -4.65145,-14.98802 -134.11696,-303.11983 l 12.40388,-34.110675 42.63834,-0.775242 -1.55048,-35.661158 -158.92473,0 c -14.0405,19.208788 5.68512,19.12265 76.74902,34.885915 l -12.40388,34.88591 -317.07421,0.77525 c 21.36224,-74.595562 9.30291,-69.944107 105.43299,-69.771832 l 0.77524,-36.4364 z M 314.11415,159.91012 624.37752,159.36001 534.70921,400.30922 314.11415,159.91012 z m 347.67101,14.30292 -88.01798,231.04719 192.53932,0.55011 -104.52134,-231.5973 z"
       style="fill:#000000;fill-rule:evenodd;stroke:none"
       inkscape:connector-curvature="0" />
  </g>
</svg>
