<?xml version="1.0" encoding="UTF-8" standalone="no"?>
<svg
   xmlns:dc="http://purl.org/dc/elements/1.1/"
   xmlns:cc="http://creativecommons.org/ns#"
   xmlns:rdf="http://www.w3.org/1999/02/22-rdf-syntax-ns#"
   xmlns:svg="http://www.w3.org/2000/svg"
   xmlns="http://www.w3.org/2000/svg"
   xmlns:sodipodi="http://sodipodi.sourceforge.net/DTD/sodipodi-0.dtd"
   xmlns:inkscape="http://www.inkscape.org/namespaces/inkscape"
   version="1.1"
   x="0px"
   y="0px"
   width="86.74424"
   height="32"
   viewBox="0 33.947 86.74424 32.000001"
   enable-background="new 0 33.947 100 36.669"
   xml:space="preserve"
   id="svg2"
   inkscape:version="0.48.2 r9819"
   sodipodi:docname="noun_project_996.svg"><metadata
   id="metadata17"><rdf:RDF><cc:Work
       rdf:about=""><dc:format>image/svg+xml</dc:format><dc:type
         rdf:resource="http://purl.org/dc/dcmitype/StillImage" /></cc:Work></rdf:RDF></metadata><defs
   id="defs15" /><sodipodi:namedview
   pagecolor="#ffffff"
   bordercolor="#666666"
   borderopacity="1"
   objecttolerance="10"
   gridtolerance="10"
   guidetolerance="10"
   inkscape:pageopacity="0"
   inkscape:pageshadow="2"
   inkscape:window-width="1038"
   inkscape:window-height="635"
   id="namedview13"
   showgrid="false"
   fit-margin-top="0"
   fit-margin-left="0"
   fit-margin-right="0"
   fit-margin-bottom="0"
   inkscape:zoom="1"
   inkscape:cx="49.703725"
   inkscape:cy="18.336499"
   inkscape:window-x="534"
   inkscape:window-y="337"
   inkscape:window-maximized="0"
   inkscape:current-layer="svg2" />
<g
   id="Layer_1"
   display="none"
   style="display:none"
   transform="translate(-0.29627478,-4.6709987)">
	<g
   id="St9YL3_1_"
   display="inline"
   style="opacity:0.38999999;display:inline">
		
			</g>
</g>
<g
   id="Layer_2"
   transform="matrix(-0.8726223,0,0,0.8726223,87.002773,4.3241594)">
	<path
   d="m 15.524,55.357 c -4.213,0 -7.629,3.418 -7.629,7.631 0,4.213 3.416,7.63 7.629,7.63 4.215,0 7.63,-3.417 7.63,-7.63 0,-4.213 -3.416,-7.631 -7.63,-7.631 z m 0,10.832 c -1.778,0 -3.219,-1.441 -3.219,-3.22 0,-1.779 1.441,-3.221 3.219,-3.221 1.777,0 3.219,1.442 3.219,3.221 -10e-4,1.779 -1.442,3.22 -3.219,3.22 z"
   id="path7"
   inkscape:connector-curvature="0" />
	<path
   d="m 82.53,55.355 c -4.215,0 -7.632,3.417 -7.632,7.629 0,4.214 3.417,7.631 7.632,7.631 4.212,0 7.63,-3.417 7.63,-7.631 0,-4.212 -3.418,-7.629 -7.63,-7.629 z m 0,10.834 c -1.778,0 -3.222,-1.441 -3.222,-3.22 0,-1.779 1.443,-3.221 3.222,-3.221 1.779,0 3.223,1.442 3.223,3.221 0,1.779 -1.444,3.22 -3.223,3.22 z"
   id="path9"
   inkscape:connector-curvature="0" />
	<path
   d="m 78.23,44.515 c 0,0 -18.764,-8.75 -24.754,-10.018 -5.987,-1.268 -26.597,-0.115 -28.554,1.151 l -11.515,5.64 -11.282,5.527 -1.827,10.65 c 0,0 -0.05,6.318 0.388,7.773 h 5.527 l 0.071,-2.25 c 0,-5.103 4.138,-9.24 9.243,-9.24 5.103,0 9.238,4.138 9.238,9.24 l 0.158,2.25 h 48.359 l 0.007,-2.83 c 0,-5.103 3.856,-8.87 8.959,-8.87 5.103,0 9.523,3.768 9.523,8.87 l 0.19,2.616 c 0,0 5.845,0.33 7.688,-0.361 0,0 0.69,-9.787 -2.878,-13.357 C 93.603,48.308 87.213,46.44 78.23,44.515 z m -52.274,1.381 c 0,0 2.363,-5.01 4.943,-6.924 1.911,-1.627 12.446,-1.583 12.446,-1.583 l 0.389,9.715 -17.778,-1.208 z M 71.613,48.198 46.915,47.22 46.338,37.374 c 9.154,-0.344 19.576,4.549 25.563,8.06 5.989,3.512 -0.288,2.764 -0.288,2.764 z"
   id="path11"
   inkscape:connector-curvature="0" />
</g>
</svg>