/* XPM */
static char * globe_xpm[] = {
"16 16 146 2",
"  	c None",
". 	c #A3A3AA",
"+ 	c #97999E",
"@ 	c #9B9CA1",
"# 	c #A4A5AB",
"$ 	c #AEAFB5",
"% 	c #B7B7BE",
"& 	c #A7A8AE",
"* 	c #8B8D92",
"= 	c #46474A",
"- 	c #797A80",
"; 	c #BCBDC4",
"> 	c #CBCCD2",
", 	c #BABABF",
"' 	c #A5A6AA",
") 	c #BCBDC2",
"! 	c #9B9CA3",
"~ 	c #4B4B4E",
"{ 	c #BBBBC4",
"] 	c #98A9B5",
"^ 	c #8FA7B1",
"/ 	c #9FB7C1",
"( 	c #B1CDDA",
"_ 	c #B7CAD3",
": 	c #C6D2DB",
"< 	c #E3E3E8",
"[ 	c #E1E1E7",
"} 	c #ABAEB4",
"| 	c #A5A8AF",
"1 	c #3F4044",
"2 	c #8CA4AF",
"3 	c #736F76",
"4 	c #897077",
"5 	c #85ABBD",
"6 	c #9CD5EB",
"7 	c #ACDDEF",
"8 	c #BDDDE9",
"9 	c #CED1D1",
"0 	c #D7DFE2",
"a 	c #CDD9DF",
"b 	c #BDBEC4",
"c 	c #B2B5BC",
"d 	c #8E9097",
"e 	c #809EA8",
"f 	c #76868C",
"g 	c #7D9DA9",
"h 	c #6E6A78",
"i 	c #7B6374",
"j 	c #B8ABB0",
"k 	c #B8D8E6",
"l 	c #C4E2ED",
"m 	c #D6D7D8",
"n 	c #E2E2E2",
"o 	c #EEEEEE",
"p 	c #F5F7F7",
"q 	c #A5A9B1",
"r 	c #727B83",
"s 	c #98CEE3",
"t 	c #7FCAE4",
"u 	c #8BCDE6",
"v 	c #92D3EA",
"w 	c #6B5864",
"x 	c #A27374",
"y 	c #B38686",
"z 	c #CDC3C4",
"A 	c #D7D7D7",
"B 	c #DADADA",
"C 	c #DBDBDB",
"D 	c #8594A1",
"E 	c #93A2AD",
"F 	c #B5E1F0",
"G 	c #AADCEF",
"H 	c #A0D9EE",
"I 	c #A6DCF0",
"J 	c #A6C6D2",
"K 	c #ACACB0",
"L 	c #BCBCBC",
"M 	c #9E7D7E",
"N 	c #C2B8B9",
"O 	c #C9C9C9",
"P 	c #C4C4C4",
"Q 	c #A0A0A0",
"R 	c #8394A2",
"S 	c #494B52",
"T 	c #7D848D",
"U 	c #8EA4B0",
"V 	c #E8F6FB",
"W 	c #E1F3FA",
"X 	c #B3C9D1",
"Y 	c #A8AEB1",
"Z 	c #AEBABE",
"` 	c #ACC4CC",
" .	c #989FA1",
"..	c #9B8888",
"+.	c #A09B9D",
"@.	c #8EB8C7",
"#.	c #86A6B7",
"$.	c #8595A3",
"%.	c #6C737C",
"&.	c #9EA1AA",
"*.	c #B2BEC6",
"=.	c #DCECF3",
"-.	c #E5E5E6",
";.	c #CFCFCF",
">.	c #B5B5B5",
",.	c #A5A5A5",
"'.	c #A4A4A4",
").	c #9AA2A5",
"!.	c #928D90",
"~.	c #99B0C2",
"{.	c #A6ABB6",
"].	c #888F97",
"^.	c #4A4B4E",
"/.	c #959AA4",
"(.	c #C0C3CC",
"_.	c #B4B9BF",
":.	c #BDC4CC",
"<.	c #B9C3CB",
"[.	c #ADB7BE",
"}.	c #A7A9AC",
"|.	c #ABADB3",
"1.	c #AFB2BA",
"2.	c #B3B7C1",
"3.	c #CFCFD7",
"4.	c #B5B8C1",
"5.	c #5B5C61",
"6.	c #5B5B5F",
"7.	c #ACACB2",
"8.	c #ABB6C1",
"9.	c #9BA5B1",
"0.	c #8E9099",
"a.	c #9698A0",
"b.	c #A0A2AA",
"c.	c #AAABB3",
"d.	c #B6B7C1",
"e.	c #C4C7D0",
"f.	c #C4C4CC",
"g.	c #696A6D",
"h.	c #6A6A6E",
"i.	c #7E7F85",
"j.	c #7B7C84",
"k.	c #8E8F98",
"l.	c #999BA2",
"m.	c #9899A0",
"n.	c #919197",
"o.	c #747478",
"                                ",
"                                ",
"          . + @ # $ %           ",
"      & * = - & ; > , ' )       ",
"    ! ~ { ] ^ / ( _ : < [ }     ",
"  | 1 2 3 4 5 6 7 8 9 0 a b c   ",
"  d e f g h i j k l m n o p q   ",
"  r s t u v w x y z A B C A D   ",
"  E F G H I J K L M N O P Q R S ",
"  T U V W X Y Z `  ...+.@.#.$.  ",
"  %.&.*.=.-.;.>.,.'.).!.~.{.].  ",
"  ^./.(._.:.<.[.}.|.1.2.3.4.5.  ",
"    6.7.8.9.0.a.b.c.d.e.f.g.    ",
"        h.i.j.k.l.m.n.o.        ",
"                                ",
"                                "};
