<svg xmlns="http://www.w3.org/2000/svg" fill="none" viewBox="0 0 24 24">
  <defs>
    <style type="text/css" id="current-color-scheme">
      .ColorScheme-Text { color: #232629; }
    </style>
  </defs>
  <path fill-rule="evenodd" d="M5 4a3 3 0 0 1 3-3h8a3 3 0 0 1 3 3v10c0 .779-.297 1.489-.784 2.022l3.616 5.423a1 1 0 0 1-1.664 1.11l-3.725-5.587A3.027 3.027 0 0 1 16 17h-3a1 1 0 1 1-2 0H8a3.09 3.09 0 0 1-.443-.032l-3.725 5.587a1 1 0 0 1-1.664-1.11l3.616-5.423A2.99 2.99 0 0 1 5 14zm1 0a1 1 0 0 1 1-1h4v6H7a1 1 0 0 1-1-1zm11-1h-4v6h4a1 1 0 0 0 1-1V4a1 1 0 0 0-1-1m-8 9.5a1.5 1.5 0 1 1-3 0 1.5 1.5 0 0 1 3 0m7.5 1.5a1.5 1.5 0 1 0 0-3 1.5 1.5 0 0 0 0 3M13 20a1 1 0 1 0-2 0v2a1 1 0 1 0 2 0z" clip-rule="evenodd" style="fill:currentColor" class="ColorScheme-Text"/>
</svg>