<svg xmlns="http://www.w3.org/2000/svg" fill="none" viewBox="0 0 24 24">
  <defs>
    <style type="text/css" id="current-color-scheme">
      .ColorScheme-Text { color: #232629; }
    </style>
  </defs>
  <path fill-rule="evenodd" d="M9.781 3a1 1 0 0 1 1-1h2a1 1 0 0 1 1 1v1H18a1 1 0 0 1 1 1v4.604l.745.166a1 1 0 0 1 .745 1.25l-1.596 5.588a1 1 0 0 1-.465.594l-2.299 1.313a4.378 4.378 0 0 1-.1-.077l-1.21-.968-1.239.93c-.741.556-1.33.725-1.8.725-.469 0-1.058-.169-1.8-.725l-1.387-1.04-1.158 1.157-2.3-1.315a1 1 0 0 1-.466-.593L3.073 11.02a1 1 0 0 1 .745-1.251L5 9.507V5a1 1 0 0 1 1-1h3.781zM17 9.16l-5.002-1.112a1 1 0 0 0-.434 0L7 9.062V6h10zM9.382 19.2l-.694-.52-.613.613c-.747.746-1.697.957-2.543.957a5.448 5.448 0 0 1-1.354-.176 2.701 2.701 0 0 1-.071-.02l-.01-.003-.315.949-.316.949h.003l.005.002.012.005.039.011.126.037a7.445 7.445 0 0 0 1.88.246c.965 0 2.204-.202 3.317-.999.934.564 1.914.874 2.934.874 1.038 0 2.036-.322 2.985-.905a6.334 6.334 0 0 0 3.452 1.03c.557 0 1.023-.074 1.356-.15a4.946 4.946 0 0 0 .518-.149l.02-.007.017-.007.014-.005.005-.002h.002l.001-.001-.37-.929a46.17 46.17 0 0 1-.37-.929h.002l.002-.002h.002l-.005.001a2.843 2.843 0 0 1-.284.08c-.214.05-.529.1-.91.1-.75 0-1.77-.196-2.813-1.03l-.605-.485-.62.465c-.87.653-1.665.925-2.4.925-.734 0-1.529-.272-2.4-.925" clip-rule="evenodd" style="fill:currentColor" class="ColorScheme-Text"/>
</svg>