<svg xmlns="http://www.w3.org/2000/svg" fill="none" viewBox="0 0 24 24">
  <defs>
    <style type="text/css" id="current-color-scheme">
      .ColorScheme-Text { color: #232629; }
    </style>
  </defs>
  <path fill-rule="evenodd" d="M21.217 4.976a1 1 0 0 0-.434-1.952L14.77 4.361A.998.998 0 0 0 14 4h-4a1 1 0 0 0-1 1v.642L2.783 7.024a1 1 0 1 0 .434 1.952L9.231 7.64A1 1 0 0 0 10 8h1v2H5a3 3 0 0 0-3 3v5a3 3 0 0 0 3 3h14a3 3 0 0 0 3-3v-5a3 3 0 0 0-3-3h-6V8h1a1 1 0 0 0 1-1v-.642zM5 12a1 1 0 0 0-1 1v2a1 1 0 0 0 1 1h2a1 1 0 0 0 1-1v-2a1 1 0 0 0-1-1zm6 0a1 1 0 0 0-1 1v2a1 1 0 0 0 1 1h2a1 1 0 0 0 1-1v-2a1 1 0 0 0-1-1zm-4 6.5a.5.5 0 0 1 .5-.5h9a.5.5 0 1 1 0 1h-9a.5.5 0 0 1-.5-.5M17 12a1 1 0 0 0-1 1v2a1 1 0 0 0 1 1h2a1 1 0 0 0 1-1v-2a1 1 0 0 0-1-1z" clip-rule="evenodd" style="fill:currentColor" class="ColorScheme-Text"/>
</svg>