<?xml version="1.0" encoding="UTF-8" standalone="no"?>
<svg
   xmlns:dc="http://purl.org/dc/elements/1.1/"
   xmlns:cc="http://creativecommons.org/ns#"
   xmlns:rdf="http://www.w3.org/1999/02/22-rdf-syntax-ns#"
   xmlns:svg="http://www.w3.org/2000/svg"
   xmlns="http://www.w3.org/2000/svg"
   xmlns:sodipodi="http://sodipodi.sourceforge.net/DTD/sodipodi-0.dtd"
   xmlns:inkscape="http://www.inkscape.org/namespaces/inkscape"
   version="1.1"
   x="0px"
   y="0px"
   viewBox="0 0 93.580696 96.417"
   enable-background="new 0 0 100 100"
   xml:space="preserve"
   id="svg8"
   sodipodi:docname="101965-inline-skater.svg"
   width="93.580696"
   height="96.417"
   inkscape:version="0.92.0 r"><metadata
     id="metadata14"><rdf:RDF><cc:Work
         rdf:about=""><dc:format>image/svg+xml</dc:format><dc:type
           rdf:resource="http://purl.org/dc/dcmitype/StillImage" /><dc:title></dc:title><cc:license
           rdf:resource="http://creativecommons.org/licenses/by/4.0/" /><dc:source>https://thenounproject.com/icon/101965/</dc:source><dc:creator><cc:Agent><dc:title>Simon Child</dc:title></cc:Agent></dc:creator></cc:Work><cc:License
         rdf:about="http://creativecommons.org/licenses/by/4.0/"><cc:permits
           rdf:resource="http://creativecommons.org/ns#Reproduction" /><cc:permits
           rdf:resource="http://creativecommons.org/ns#Distribution" /><cc:requires
           rdf:resource="http://creativecommons.org/ns#Notice" /><cc:requires
           rdf:resource="http://creativecommons.org/ns#Attribution" /><cc:permits
           rdf:resource="http://creativecommons.org/ns#DerivativeWorks" /></cc:License></rdf:RDF></metadata><defs
     id="defs12" /><sodipodi:namedview
     pagecolor="#ffffff"
     bordercolor="#666666"
     borderopacity="1"
     objecttolerance="10"
     gridtolerance="10"
     guidetolerance="10"
     inkscape:pageopacity="0"
     inkscape:pageshadow="2"
     inkscape:window-width="1920"
     inkscape:window-height="1135"
     id="namedview10"
     showgrid="false"
     fit-margin-top="0"
     fit-margin-left="0"
     fit-margin-right="0"
     fit-margin-bottom="0"
     inkscape:zoom="1.888"
     inkscape:cx="-93.058926"
     inkscape:cy="35.225"
     inkscape:window-x="0"
     inkscape:window-y="36"
     inkscape:window-maximized="1"
     inkscape:current-layer="svg8" /><path
     d="m 5.7259206,71.772 c -0.249,1.57 -1.725,2.645 -3.295,2.396 -1.57200004,-0.25 -2.64400004,-1.728 -2.39500004,-3.297 0.249,-1.572 1.72500004,-2.645 3.29500004,-2.396 1.571,0.251 2.644,1.727 2.395,3.297 z M 66.077921,16.754 c 4.628,0 8.378,-3.75 8.378,-8.377 0,-4.627 -3.75,-8.377 -8.378,-8.377 -4.626,0 -8.376,3.75 -8.376,8.377 0,4.627 3.75,8.377 8.376,8.377 z M 4.9059206,58.538 c -1.572,-0.248 -3.047,0.823 -3.295,2.396 -0.249,1.57 0.823,3.046 2.394,3.295 1.572,0.249 3.047,-0.824 3.296,-2.395 0.248,-1.572 -0.824,-3.046 -2.395,-3.296 z M 62.880921,90.654 c -1.591,0 -2.881,1.29 -2.881,2.882 0,1.59 1.29,2.881 2.881,2.881 1.59,0 2.881,-1.291 2.881,-2.881 0,-1.592 -1.291,-2.882 -2.881,-2.882 z m 10.061,0 c -1.591,0 -2.88,1.29 -2.88,2.882 0,1.59 1.289,2.881 2.88,2.881 1.591,0 2.881,-1.291 2.881,-2.881 0,-1.592 -1.29,-2.882 -2.881,-2.882 z m 13.935,-61.644 -11.188,3.65 -13.679,-13.978 c -1.25,-1.311 -2.775,-2.197 -4.988,-2.197 0,0 -23.284,-0.094 -23.338,-0.092 -1.917,0.064 -3.313,1.035 -4.274,2.917 l -6.687,13.172 c -3.079,6.059 6.008,10.676 9.087,4.617 l 5.337,-10.505 6.683,0.026 -5.313,18.92 c -0.137,0.446 -0.209,0.923 -0.209,1.413 0,0.997 0.302,1.923 0.827,2.734 l -7.017,10.47 -18.735,-0.982 c -1.321,-0.066 -2.405,0.263 -3.244,0.84 -1.0310004,0.697 -1.8200004,1.838 -2.0780004,3.466 l -1.24,7.825 c -1.063,6.714 9.0040004,8.308 10.0670004,1.597 l 0.525,-3.315 17.486,0.885 c 1.773,0 3.147,-0.92 4.162,-2.379 l 8.253,-12.309 13.646,9.678 -1.585,18.114 c -0.085,0.492 -0.105,0.998 -0.061,1.497 0.082,1.205 0.531,2.186 1.199,2.924 0.713,0.827 1.732,1.426 3.062,1.6 0.438,0.07 0.884,0.086 1.326,0.052 h 7.409 c 6.795,0 6.795,-10.192 0.002,-10.196 h -2.336 c 0.58,-6.509 1.466,-16.43 1.466,-16.552 0,-1.651 -0.827,-3.104 -2.12,-3.997 -0.625,-0.436 -10.745,-7.628 -16.33,-11.588 l 9.262,-13.81 c 0,0 8.592,8.758 8.772,8.912 0.823,0.733 1.948,1.176 3.155,1.176 0.475,0 0.933,-0.068 1.365,-0.196 0.137,-0.04 14.488,-4.694 14.488,-4.694 6.463,-2.112 3.304,-11.802 -3.157,-9.695 z"
     id="path2"
     inkscape:connector-curvature="0"
     style="fill:#000000" /></svg>