<svg xmlns="http://www.w3.org/2000/svg" fill="none" viewBox="0 0 24 24">
  <defs>
    <style type="text/css" id="current-color-scheme">
      .ColorScheme-Text { color: #232629; }
    </style>
  </defs>
  <path fill-rule="evenodd" d="M19.39 20.39a.53.53 0 0 0 .767-.01 11 11 0 1 0-16.314 0 .53.53 0 0 0 .768.01.575.575 0 0 0 .01-.79 9.9 9.9 0 1 1 14.757 0 .575.575 0 0 0 .011.79M8 6a3 3 0 0 0-3 3v10a3 3 0 0 0 3 3h8a3 3 0 0 0 3-3V9a3 3 0 0 0-3-3zM7 8a1 1 0 0 0-1 1v4a1 1 0 0 0 1 1h4V8zm6 0h4a1 1 0 0 1 1 1v4a1 1 0 0 1-1 1h-4zM7.5 19a1.5 1.5 0 1 0 0-3 1.5 1.5 0 0 0 0 3M18 17.5a1.5 1.5 0 1 1-3 0 1.5 1.5 0 0 1 3 0" clip-rule="evenodd" style="fill:currentColor" class="ColorScheme-Text"/>
</svg>