<svg xmlns="http://www.w3.org/2000/svg" fill="none" viewBox="0 0 24 24">
  <defs>
    <style type="text/css" id="current-color-scheme">
      .ColorScheme-Text { color: #232629; }
    </style>
  </defs>
  <path fill-rule="evenodd" d="M7 3a1 1 0 0 0-1 1H3a1 1 0 0 0 0 2v9a1 1 0 0 0 1 1h2.5v2.222l-2.782.819a1 1 0 0 0 .564 1.918l17-5a1 1 0 0 0-.564-1.918L17 15.134V14h3a1 1 0 0 0 1-1V6a1 1 0 1 0 0-2h-3a1 1 0 0 0-1-1zm8 11h-2v1a1 1 0 0 1-1 1H8.5v1.634l6.5-1.912zm-4-7v4a1 1 0 0 1-1 1H6a1 1 0 0 1-1-1V7a1 1 0 0 1 1-1h4a1 1 0 0 1 1 1m3 4a1 1 0 0 1-1-1V7a1 1 0 0 1 1-1h4a1 1 0 0 1 1 1v3a1 1 0 0 1-1 1z" clip-rule="evenodd" style="fill:currentColor" class="ColorScheme-Text"/>
</svg>