<svg xmlns="http://www.w3.org/2000/svg" fill="none" viewBox="0 0 24 24">
  <defs>
    <style type="text/css" id="current-color-scheme">
      .ColorScheme-Text { color: #232629; }
    </style>
  </defs>
  <path fill-rule="evenodd" d="M6.016 4.758A1.25 1.25 0 0 1 7.165 4h9.67c.5 0 .952.298 1.15.758l2.688 6.273A.5.5 0 0 1 21 11.5v8a.5.5 0 0 1-.5.5h-2a.5.5 0 0 1-.5-.5V17H6v2.5a.5.5 0 0 1-.5.5h-2a.5.5 0 0 1-.5-.5v-8a.5.5 0 0 1 .328-.47zM16.34 6l2.142 5H5.518L7.66 6zM8 13.5a1.5 1.5 0 1 1-3 0 1.5 1.5 0 0 1 3 0m11 0a1.5 1.5 0 1 1-3 0 1.5 1.5 0 0 1 3 0" clip-rule="evenodd" style="fill:currentColor" class="ColorScheme-Text"/>
</svg>