<svg xmlns="http://www.w3.org/2000/svg" fill="none" viewBox="0 0 24 24">
  <defs>
    <style type="text/css" id="current-color-scheme">
      .ColorScheme-Text { color: #232629; }
    </style>
  </defs>
  <path fill-rule="evenodd" d="M12 2a2 2 0 0 0-2 2v5.5a.5.5 0 0 1-.2.4l-6.6 4.95a.5.5 0 0 0-.2.4v2.11a.5.5 0 0 0 .621.485l5.758-1.44a.5.5 0 0 1 .621.485v.86a.5.5 0 0 1-.2.4l-3.6 2.7a.5.5 0 0 0-.2.4v.25a.5.5 0 0 0 .5.5h11a.5.5 0 0 0 .5-.5v-.25a.5.5 0 0 0-.2-.4l-3.6-2.7a.5.5 0 0 1-.2-.4v-.86a.5.5 0 0 1 .621-.485l5.758 1.44A.5.5 0 0 0 21 17.36v-2.11a.5.5 0 0 0-.2-.4L14.2 9.9a.5.5 0 0 1-.2-.4V4a2 2 0 0 0-2-2" clip-rule="evenodd" style="fill:currentColor" class="ColorScheme-Text"/>
</svg>