<svg xmlns="http://www.w3.org/2000/svg" fill="none" viewBox="0 0 24 24">
  <defs>
    <style type="text/css" id="current-color-scheme">
      .ColorScheme-Text { color: #232629; }
    </style>
  </defs>
  <path fill-rule="evenodd" d="M5 4a3 3 0 0 1 3-3h8a3 3 0 0 1 3 3v10c0 .779-.297 1.489-.784 2.022l3.616 5.423a1 1 0 0 1-1.664 1.11l-.2-.301A1 1 0 0 1 19 23H5a1 1 0 0 1-.967-.746l-.2.3a1 1 0 0 1-1.665-1.109l3.616-5.423A2.99 2.99 0 0 1 5 14zm-.138 17.01A.897.897 0 0 1 5 21h14c.047 0 .093.003.138.01l-.73-1.096A.997.997 0 0 1 18 20H6a.997.997 0 0 1-.407-.086zm11.581-4.043L17.132 18H6.869l.688-1.032c.145.02.293.032.443.032h8c.15 0 .299-.011.443-.032M6 4a1 1 0 0 1 1-1h4v6H7a1 1 0 0 1-1-1zm11-1h-4v6h4a1 1 0 0 0 1-1V4a1 1 0 0 0-1-1m-8 9.5a1.5 1.5 0 1 1-3 0 1.5 1.5 0 0 1 3 0m7.5 1.5a1.5 1.5 0 1 0 0-3 1.5 1.5 0 0 0 0 3" clip-rule="evenodd" style="fill:currentColor" class="ColorScheme-Text"/>
</svg>