<?xml version="1.0" encoding="UTF-8" standalone="no"?>
<!-- Created with Inkscape (http://www.inkscape.org/) -->
<svg
   xmlns:svg="http://www.w3.org/2000/svg"
   xmlns="http://www.w3.org/2000/svg"
   version="1.0"
   width="128"
   height="128"
   id="svg1655">
  <defs
     id="defs1658" />
  <g
     id="layer4" />
  <g
     style="display:inline"
     id="layer2" />
  <path
     d="M 64.000002,7.8827703 L 75.899275,52.095786 L 120.09371,64.00006 L 75.899275,75.904337 L 64.000006,120.11735 L 52.100734,75.904336 L 7.9063054,64.000063 L 52.100734,52.095786 L 64.000002,7.8827703 z "
     style="fill:#ffffff;fill-opacity:0;fill-rule:evenodd;stroke:#ffffcb;stroke-width:0;stroke-linecap:butt;stroke-linejoin:miter;stroke-miterlimit:4;stroke-dasharray:none;stroke-opacity:1;display:inline"
     id="path2637" />
  <path
     d="M 63.665636,110.97634 L 85.80358,119.10598 L 85.80358,108.69673 C 79.930229,103.27967 72.818792,98.88107 72.818792,98.88107 L 72.879293,75.268038 L 119.17945,91.064754 L 119.17945,78.424973 C 98.03539,62.386241 72.858155,47.548805 72.858155,47.548805 L 72.918656,25.094793 C 72.171139,14.473119 64.151822,8.4604309 63.665636,8.4604309 C 63.17945,8.4604309 55.160133,14.473119 54.412616,25.094793 L 54.473117,47.548805 C 54.473117,47.548805 29.295884,62.386241 8.1518216,78.424973 L 8.1518216,91.064754 L 54.451979,75.268038 L 54.51248,98.88107 C 54.51248,98.88107 47.401043,103.27967 41.527692,108.69673 L 41.527692,119.10598 L 63.665636,110.97634 z "
     style="opacity:0.99494952;fill:#000000;fill-opacity:1;stroke:none;stroke-width:0.62237155;stroke-linecap:round;stroke-linejoin:round;stroke-miterlimit:4;stroke-opacity:1"
     id="path2455" />
</svg>
