<svg xmlns="http://www.w3.org/2000/svg" viewBox="0 0 48.000001 48.000001" height="48" width="48"><path d="M37.45 44.597c-2.566 1.663-11.086-5.524-14.144-5.528-2.804-.004-10.617 7.265-12.795 5.498-2.374-1.926 1.83-12.25.887-15.16-.864-2.667-10.19-7.85-9.183-10.47 1.098-2.852 12.215-2.046 14.69-3.84 2.27-1.646 4.32-12.12 7.12-11.97 3.053.163 5.722 10.985 8.193 12.785 2.267 1.65 12.86.363 13.584 3.072.79 2.955-8.678 8.836-9.626 11.743-.87 2.666 3.63 12.343 1.275 13.87z" fill="#ffe680" stroke="#fc0" stroke-width="2.9999358" stroke-linejoin="round"/></svg>