<?xml version="1.0" encoding="UTF-8" standalone="no"?>
<!-- Created with Inkscape (http://www.inkscape.org/) -->

<svg
   xmlns:dc="http://purl.org/dc/elements/1.1/"
   xmlns:cc="http://creativecommons.org/ns#"
   xmlns:rdf="http://www.w3.org/1999/02/22-rdf-syntax-ns#"
   xmlns:svg="http://www.w3.org/2000/svg"
   xmlns="http://www.w3.org/2000/svg"
   xmlns:sodipodi="http://sodipodi.sourceforge.net/DTD/sodipodi-0.dtd"
   xmlns:inkscape="http://www.inkscape.org/namespaces/inkscape"
   inkscape:export-ydpi="90"
   inkscape:export-xdpi="90"
   inkscape:export-filename="/home/dennis/marble/src/data/android/drawable-xxxhdpi/busy_indicator.png"
   sodipodi:docname="busy_indicator.svg"
   viewBox="0 0 72 72"
   height="72"
   width="72"
   inkscape:version="0.91 r13725"
   version="1.1"
   id="svg2">
  <sodipodi:namedview
     showguides="true"
     inkscape:current-layer="svg2"
     inkscape:window-maximized="1"
     inkscape:window-y="30"
     inkscape:window-x="-4"
     inkscape:cy="35.430623"
     inkscape:cx="8.4374983"
     inkscape:zoom="7.9999999"
     showgrid="false"
     id="namedview4"
     inkscape:window-height="1021"
     inkscape:window-width="1920"
     inkscape:pageshadow="2"
     inkscape:pageopacity="0"
     guidetolerance="10"
     gridtolerance="10"
     objecttolerance="10"
     borderopacity="1"
     bordercolor="#666666"
     pagecolor="#ffffff"
     inkscape:guide-bbox="true">
    <sodipodi:guide
       position="6.9384854,19.091883"
       orientation="0,1"
       id="guide5393" />
    <sodipodi:guide
       position="18.959301,45.652582"
       orientation="1,0"
       id="guide5395" />
    <sodipodi:guide
       position="50.558135,12.109204"
       orientation="0,1"
       id="guide5397" />
    <sodipodi:guide
       position="11.932427,63.551223"
       orientation="1,0"
       id="guide5399" />
  </sodipodi:namedview>
  <metadata
     id="metadata8">
    <rdf:RDF>
      <cc:Work
         rdf:about="">
        <dc:format>image/svg+xml</dc:format>
        <dc:type
           rdf:resource="http://purl.org/dc/dcmitype/StillImage" />
        <dc:title />
      </cc:Work>
    </rdf:RDF>
  </metadata>
  <defs
     id="defs6" />
  <path
     style="fill:#ff2a2a;stroke:none;stroke-width:1;stroke-miterlimit:4;stroke-dasharray:none;opacity:0"
     d="M 60,36 A 24,24 0 0 1 36,60 24,24 0 0 1 12,36 24,24 0 0 1 36,12 24,24 0 0 1 60,36 Z"
     id="path5272"
     inkscape:connector-curvature="0" />
  <path
     inkscape:connector-curvature="0"
     id="path3338-3"
     d="M 44.026375,59.857863 A 8.0263745,8.0263745 0 0 1 36,67.884238 8.0263745,8.0263745 0 0 1 27.973625,59.857863 8.0263745,8.0263745 0 0 1 36,51.831489 a 8.0263745,8.0263745 0 0 1 8.026375,8.026374 z"
     style="opacity:1;fill:#666666;stroke:none;stroke-width:2.11362147" />
  <path
     inkscape:connector-curvature="0"
     id="path3338-3-1"
     d="m 27.029869,52.819729 a 8.0263744,8.0263744 0 0 1 -8.026374,8.026375 8.0263744,8.0263744 0 0 1 -8.026374,-8.026375 8.0263744,8.0263744 0 0 1 8.026374,-8.026374 8.0263744,8.0263744 0 0 1 8.026374,8.026374 z"
     style="opacity:1;fill:#333333;stroke:none;stroke-width:2.11362147" />
  <path
     inkscape:connector-curvature="0"
     id="path3338"
     d="m 19.929291,35.999999 a 8.0263744,8.0263744 0 0 1 -8.026375,8.026375 8.0263744,8.0263744 0 0 1 -8.0263748,-8.026375 8.0263744,8.0263744 0 0 1 8.0263748,-8.026374 8.0263744,8.0263744 0 0 1 8.026375,8.026374 z"
     style="opacity:1;fill:#000000;stroke:none;stroke-width:2.11362147" />
</svg>
