<?xml version="1.0" encoding="UTF-8" standalone="no"?>
<svg
   xmlns:dc="http://purl.org/dc/elements/1.1/"
   xmlns:cc="http://creativecommons.org/ns#"
   xmlns:rdf="http://www.w3.org/1999/02/22-rdf-syntax-ns#"
   xmlns:svg="http://www.w3.org/2000/svg"
   xmlns="http://www.w3.org/2000/svg"
   xmlns:xlink="http://www.w3.org/1999/xlink"
   xmlns:sodipodi="http://sodipodi.sourceforge.net/DTD/sodipodi-0.dtd"
   xmlns:inkscape="http://www.inkscape.org/namespaces/inkscape"
   fill="#000000"
   height="48"
   viewBox="0 0 24 24"
   width="48"
   id="svg2985"
   version="1.1"
   inkscape:version="0.48.3.1 r9886"
   sodipodi:docname="ic_place_departure.svg">
  <metadata
     id="metadata2995">
    <rdf:RDF>
      <cc:Work
         rdf:about="">
        <dc:format>image/svg+xml</dc:format>
        <dc:type
           rdf:resource="http://purl.org/dc/dcmitype/StillImage" />
        <dc:title />
      </cc:Work>
    </rdf:RDF>
  </metadata>
  <defs
     id="defs2993" />
  <sodipodi:namedview
     pagecolor="#ffffff"
     bordercolor="#666666"
     borderopacity="1"
     objecttolerance="10"
     gridtolerance="10"
     guidetolerance="10"
     inkscape:pageopacity="0"
     inkscape:pageshadow="2"
     inkscape:window-width="1600"
     inkscape:window-height="845"
     id="namedview2991"
     showgrid="false"
     inkscape:zoom="6.8333333"
     inkscape:cx="5.0415236"
     inkscape:cy="11.453563"
     inkscape:window-x="-2"
     inkscape:window-y="-3"
     inkscape:window-maximized="1"
     inkscape:current-layer="svg2985" />
  <path
     d="M0 0h24v24H0z"
     fill="none"
     id="path2989" />
  <g
     id="g5455">
    <path
       d="m 12,1.375 c -4.2125009,9e-7 -7.6249991,3.4124986 -7.625,7.625 0,2.907317 1.8159658,6.17757 3.59375,8.8125 1.7777842,2.63493 3.5625,4.625 3.5625,4.625 a 0.63527731,0.63527731 0 0 0 0.9375,0 c 0,0 1.784716,-1.99007 3.5625,-4.625 C 17.809034,15.17757 19.625,11.907317 19.625,9 19.625,4.787499 16.212501,1.3750001 12,1.375 z"
       id="path5383"
       style="color:#000000;fill:#ffffff;fill-opacity:1;fill-rule:nonzero;stroke:none;stroke-width:1;marker:none;visibility:visible;display:inline;overflow:visible;enable-background:accumulate"
       inkscape:original="M 12 2 C 8.13 2.0000008 5.0000008 5.1299996 5 9 C 5 14.249999 12 22 12 22 C 12 22 19 14.25 19 9 C 19 5.1300002 15.87 2.0000001 12 2 z "
       inkscape:radius="0.63521379"
       sodipodi:type="inkscape:offset" />
    <path
       d="m 12,2 c -3.87,8e-7 -6.9999992,3.1299995 -7,7 0,5.249999 7,13 7,13 0,0 7,-7.75 7,-13 0,-3.8699996 -3.13,-6.9999999 -7,-7 z"
       inkscape:href="#path3003"
       id="path5361"
       style="color:#000000;fill:#00316e;fill-opacity:1;fill-rule:nonzero;stroke:none;stroke-width:1;marker:none;visibility:visible;display:inline;overflow:visible;enable-background:accumulate"
       xlink:href="#path3003"
       inkscape:original="M 12 2 C 8.13 2.0000008 5.0000008 5.1299995 5 9 C 5 14.249999 12 22 12 22 C 12 22 19 14.25 19 9 C 19 5.1300004 15.87 2.0000001 12 2 z "
       inkscape:radius="0"
       sodipodi:type="inkscape:offset" />
    <path
       id="path3003"
       d="M 12,2 C 8.13,2.0000008 5.0000007,5.1300001 4.9999999,9.0000006 4.9999999,14.25 12,22 12,22 12,22 19,14.25 19,8.9999998 19,5.1300002 15.87,2.0000001 12,2 z"
       style="color:#000000;fill:#00316e;fill-opacity:1;fill-rule:nonzero;stroke:none;stroke-width:1;marker:none;visibility:visible;display:inline;overflow:visible;enable-background:accumulate"
       inkscape:connector-curvature="0" />
    <path
       inkscape:transform-center-y="0.1034779"
       inkscape:transform-center-x="-8.0282744"
       inkscape:connector-curvature="0"
       id="path4104"
       d="m 17.646921,8.9571094 -3.309209,1.9105726 0,-3.8211455 z"
       style="color:#000000;fill:#ffffff;fill-opacity:1;fill-rule:nonzero;stroke:none;stroke-width:1;marker:none;visibility:visible;display:inline;overflow:visible;enable-background:accumulate" />
    <path
       inkscape:transform-center-y="0.1034778"
       inkscape:transform-center-x="0.87629109"
       inkscape:connector-curvature="0"
       id="path4102"
       d="m 9.4140192,8.9571089 c 4e-7,-1.3799995 1.1199998,-2.4999992 2.4999998,-2.4999995 0.682173,5e-7 1.300812,0.2736828 1.752033,0.7171662 l -0.01667,3.5818964 c -0.449731,0.43392 -1.061556,0.700938 -1.735367,0.700937 -1.38,10e-7 -2.4999995,-1.119999 -2.4999995,-2.4999994 z"
       style="color:#000000;fill:#ffffff;fill-opacity:1;fill-rule:nonzero;stroke:none;stroke-width:1;marker:none;visibility:visible;display:inline;overflow:visible;enable-background:accumulate" />
  </g>
</svg>
