<?xml version="1.0" encoding="UTF-8" standalone="no"?>
<svg
   xmlns:dc="http://purl.org/dc/elements/1.1/"
   xmlns:cc="http://creativecommons.org/ns#"
   xmlns:rdf="http://www.w3.org/1999/02/22-rdf-syntax-ns#"
   xmlns:svg="http://www.w3.org/2000/svg"
   xmlns="http://www.w3.org/2000/svg"
   xmlns:sodipodi="http://sodipodi.sourceforge.net/DTD/sodipodi-0.dtd"
   xmlns:inkscape="http://www.inkscape.org/namespaces/inkscape"
   fill="#000000"
   height="48"
   viewBox="0 0 24 24"
   width="48"
   id="svg2985"
   version="1.1"
   inkscape:version="0.48.3.1 r9886"
   sodipodi:docname="ic_place_arrival.svg"
   inkscape:export-filename="/home/tackat/ic_place_departure.png"
   inkscape:export-xdpi="90"
   inkscape:export-ydpi="90">
  <metadata
     id="metadata2995">
    <rdf:RDF>
      <cc:Work
         rdf:about="">
        <dc:format>image/svg+xml</dc:format>
        <dc:type
           rdf:resource="http://purl.org/dc/dcmitype/StillImage" />
        <dc:title></dc:title>
      </cc:Work>
    </rdf:RDF>
  </metadata>
  <defs
     id="defs2993" />
  <sodipodi:namedview
     pagecolor="#ffffff"
     bordercolor="#666666"
     borderopacity="1"
     objecttolerance="10"
     gridtolerance="10"
     guidetolerance="10"
     inkscape:pageopacity="0"
     inkscape:pageshadow="2"
     inkscape:window-width="1600"
     inkscape:window-height="845"
     id="namedview2991"
     showgrid="false"
     inkscape:zoom="3.4166667"
     inkscape:cx="-11.907915"
     inkscape:cy="-34.073564"
     inkscape:window-x="-2"
     inkscape:window-y="-3"
     inkscape:window-maximized="1"
     inkscape:current-layer="svg2985" />
  <path
     sodipodi:type="inkscape:offset"
     inkscape:radius="0.63521379"
     inkscape:original="M 12 2 C 8.13 2.0000008 5.0000008 5.1299996 5 9 C 5 14.249999 12 22 12 22 C 12 22 19 14.25 19 9 C 19 5.1300002 15.87 2.0000001 12 2 z "
     style="color:#000000;fill:#ffffff;fill-opacity:1;fill-rule:nonzero;stroke:none;stroke-width:1;marker:none;visibility:visible;display:inline;overflow:visible;enable-background:accumulate"
     id="path5383"
     d="m 12,1.375 c -4.2125009,9e-7 -7.6249991,3.4124986 -7.625,7.625 0,2.907317 1.8159658,6.17757 3.59375,8.8125 1.7777842,2.63493 3.5625,4.625 3.5625,4.625 a 0.63527731,0.63527731 0 0 0 0.9375,0 c 0,0 1.784716,-1.99007 3.5625,-4.625 C 17.809034,15.17757 19.625,11.907317 19.625,9 19.625,4.787499 16.212501,1.3750001 12,1.375 z" />
  <path
     style="fill:#00316e"
     d="M 12,2 C 8.13,2 5,5.13 5,9 c 0,5.25 7,13 7,13 0,0 7,-7.75 7,-13 0,-3.87 -3.13,-7 -7,-7 z"
     id="path4321"
     inkscape:connector-curvature="0" />
  <path
     style="fill:#ffffff"
     d="m 12.046875,6.546875 c 1.38,5e-7 2.5,1.1200005 2.5,2.5 0,1.380001 -1.12,2.500001 -2.5,2.5 -0.682172,10e-7 -1.298778,-0.275266 -1.75,-0.71875 L 10.3125,9.671875 11.09375,9.0625 10.3125,8.484375 10.3125,7.25 c 0.44973,-0.4339205 1.060563,-0.7031245 1.734375,-0.703125 z"
     id="path4319"
     inkscape:connector-curvature="0" />
  <path
     style="fill:#ffffff"
     d="m 7.0625,7.3125 3.015625,1.75 L 7.0625,10.78125 C 6.8720715,10.236666 6.765625,9.6408175 6.765625,9.03125 6.765625,8.4267845 6.8751085,7.853203 7.0625,7.3125 z"
     id="path4134"
     inkscape:connector-curvature="0" />
  <path
     d="M0 0h24v24H0z"
     fill="none"
     id="path2989" />
</svg>
