<?xml version="1.0" encoding="UTF-8" standalone="no"?>
<!-- Created with Inkscape (http://www.inkscape.org/) -->
<svg
   xmlns:svg="http://www.w3.org/2000/svg"
   xmlns="http://www.w3.org/2000/svg"
   version="1.0"
   width="2700"
   height="1350"
   id="svg2729">
  <defs
     id="defs2732" />
  <path
     d="M 1515.9408,549.13383 L 1505.0536,553.05324 L 1493.7308,553.92422 L 1482.8436,552.61775 L 1471.0853,549.56932 L 1463.682,549.13383 L 1456.2787,542.60148 L 1438.4236,533.45618 L 1417.9556,524.31089 L 1408.8103,514.73011 L 1404.4554,497.31051 L 1409.6812,481.19738 L 1408.3748,470.31013 L 1401.8424,461.16484 L 1400.1005,452.01955 L 1403.5844,446.35818 L 1409.6812,435.47093 L 1414.0361,435.03544 L 1419.6975,436.34191 L 1425.7944,432.85799 L 1424.0524,424.14819 L 1427.5363,420.22878 L 1432.3267,411.08348 L 1431.4557,407.59956 L 1438.4236,403.68015 L 1443.214,394.09937 L 1449.7463,391.48643 L 1457.5851,391.92192 L 1470.2144,390.61545 L 1475.0047,394.09937 L 1490.2469,402.80917 L 1495.0373,401.93819 L 1498.9567,410.2125 L 1509.4085,417.61584 L 1517.2473,417.61584 L 1529.441,410.64799 L 1534.2314,408.47054 L 1547.2961,406.29309 L 1554.2639,402.80917 L 1562.9737,404.98662 L 1570.8126,411.95446 L 1568.1996,420.66427 L 1563.8447,428.0676 L 1561.2318,436.34191 L 1563.4092,447.22916 L 1570.8126,450.71308 L 1578.6514,452.01955 L 1579.9578,457.24543 L 1576.4739,466.39072 L 1579.9578,472.92307 L 1587.7967,475.10052 L 1584.7482,482.93934 L 1576.9094,482.50385 L 1572.5545,482.50385 L 1572.99,492.08463 L 1576.0384,501.66541 L 1572.99,506.89129 L 1572.119,513.42364 L 1579.5224,514.73011 L 1578.2159,522.56893 L 1571.248,529.97226 L 1569.0706,528.66579 L 1569.0706,536.9401 L 1574.732,539.98854 L 1584.3127,541.7305 L 1592.5871,547.39187 L 1598.6839,556.10167 L 1603.9098,560.45657 L 1608.2647,560.45657 L 1609.5712,556.53716 L 1607.8292,550.00481 L 1607.3937,543.03697 L 1608.7002,536.50461 L 1608.7002,529.97226 L 1611.7486,527.79481 L 1617.8455,529.53677 L 1625.6843,536.50461 L 1630.4747,545.64991 L 1633.9586,547.82736 L 1636.5716,544.34344 L 1636.1361,539.11756 L 1639.1845,533.02069 L 1644.8459,532.5852 L 1650.9427,531.27873 L 1659.217,531.71422 L 1665.7494,534.76265 L 1665.7494,538.68207 L 1660.5235,542.60148 L 1656.1686,544.34344 L 1652.6847,547.82736 L 1648.3298,549.56932 L 1646.5878,553.92422 L 1649.2008,556.97265 L 1650.9427,562.63402 L 1650.0717,571.34382 L 1653.5557,578.31166 L 1657.9106,580.9246 L 1659.217,586.15048 L 1665.7494,586.58597 L 1674.8947,585.71499 L 1680.9915,587.89244 L 1677.0721,593.11832 L 1684.04,593.11832 L 1691.4433,594.86028 L 1694.4917,595.73126 L 1686.6529,600.95714 L 1681.427,600.52165 L 1677.5076,599.65067 L 1670.5398,601.39263 L 1668.7978,604.87655 L 1666.1849,615.32831 L 1660.5235,617.50576 L 1657.9106,616.19929 L 1654.8621,618.81223 L 1653.9912,624.90909 L 1660.088,624.4736 L 1665.3139,624.03811 L 1668.7978,620.55419 L 1675.3302,620.55419 L 1689.2658,611.84439 L 1697.5402,611.4089 L 1706.25,609.23145 L 1715.3952,612.71537 L 1722.7986,622.73164 L 1732.3794,634.48987 L 1742.3956,635.36085 L 1747.6215,641.8932 L 1755.0248,647.11908 L 1764.6056,651.90947 L 1773.3154,658.00633 L 1775.0574,663.23222 L 1782.8962,655.82888 L 1790.2995,656.26437 L 1797.2674,661.49025 L 1795.5254,666.28065 L 1791.606,667.58712 L 1799.4448,672.813 L 1808.1546,671.07104 L 1811.2031,667.15163 L 1816.4289,663.66771 L 1824.2678,664.1032 L 1826.8807,659.74829 L 1833.413,656.69986 L 1842.1228,651.90947 L 1842.9938,648.42555 L 1854.7521,652.78045 L 1859.107,654.52241 L 1862.5909,658.87731 L 1863.4619,663.66771 L 1862.5909,668.89359 L 1856.0585,667.58712 L 1849.0907,669.76457 L 1845.6068,679.34535 L 1839.9454,681.08731 L 1832.1066,678.47437 L 1815.9934,675.42594 L 1813.816,685.00672 L 1809.0256,697.20044 L 1814.2515,701.55534 L 1816.8644,707.21671 L 1820.7838,714.18455 L 1820.3483,720.28141 L 1813.816,723.76533 L 1802.9287,724.63631 L 1793.7835,731.60415 L 1792.0415,738.57199 L 1795.0899,756.42708 L 1799.8803,762.52394 L 1795.0899,777.76609 L 1782.8962,795.1857 L 1788.9931,815.21824 L 1782.4607,818.70216 L 1777.2348,819.13765 L 1772.8799,815.21824 L 1768.9605,812.6053 L 1761.1217,816.08922 L 1761.5572,821.3151 L 1760.6862,829.58941 L 1756.7668,835.25078 L 1741.9601,838.7347 L 1731.5084,844.83156 L 1730.6374,840.04117 L 1731.0729,833.94431 L 1728.0245,825.67 L 1724.105,820.87961 L 1725.847,812.16981 L 1725.847,806.50844 L 1738.4762,797.36315 L 1743.7021,793.00825 L 1748.4925,788.21786 L 1752.4119,778.63707 L 1748.4925,772.9757 L 1741.9601,769.05629 L 1739.3472,776.45962 L 1734.5568,774.71766 L 1728.4599,774.28217 L 1723.2341,776.89511 L 1715.3952,769.05629 L 1706.25,758.60453 L 1701.8951,761.21747 L 1700.5886,768.18531 L 1699.2821,774.28217 L 1694.4917,772.10472 L 1690.1368,766.87884 L 1679.6851,759.04002 L 1677.0721,757.29806 L 1677.0721,752.50767 L 1676.6366,745.10434 L 1674.8947,739.44297 L 1668.3623,733.7816 L 1661.83,728.55572 L 1657.0396,721.15239 L 1660.5235,714.62004 L 1669.6688,714.62004 L 1674.4592,717.66847 L 1679.2496,715.49102 L 1674.0237,709.82965 L 1668.3623,705.03926 L 1665.7494,698.9424 L 1656.6041,696.32946 L 1670.9753,678.47437 L 1669.2333,671.50653 L 1659.217,674.99045 L 1653.5557,677.60339 L 1643.9749,673.68398 L 1641.3619,667.58712 L 1637.4425,673.24849 L 1632.2167,674.55496 L 1630.0392,669.32908 L 1624.3778,670.20006 L 1618.7165,673.24849 L 1616.1035,670.20006 L 1616.9745,663.66771 L 1610.4421,661.92574 L 1603.9098,661.49025 L 1600.8614,657.13535 L 1593.8935,663.23222 L 1594.329,668.4581 L 1594.7645,671.94202 L 1588.6676,672.813 L 1587.3612,675.86143 L 1588.2322,678.47437 L 1587.3612,682.82927 L 1583.4418,682.82927 L 1580.3933,695.45848 L 1579.0869,700.24887 L 1580.3933,703.2973 L 1584.3127,713.74906 L 1581.6998,719.41043 L 1579.0869,725.0718 L 1581.6998,731.60415 L 1587.3612,732.03964 L 1590.4096,734.65258 L 1599.5549,749.02375 L 1608.2647,752.94316 L 1618.7165,758.16904 L 1627.4263,761.21747 L 1634.3941,767.74982 L 1643.5394,770.36276 L 1649.2008,773.41119 L 1650.5072,780.37903 L 1647.4588,787.78237 L 1645.2814,795.1857 L 1647.8943,803.02452 L 1650.5072,817.39569 L 1650.9427,821.75059 L 1643.1039,824.79902 L 1638.3135,825.67 L 1630.4747,823.92804 L 1626.1198,828.71843 L 1620.4584,832.20235 L 1613.4906,829.15392 L 1605.6518,823.05706 L 1595.2,820.87961 L 1586.9257,820.00863 L 1580.3933,824.36353 L 1575.1675,820.00863 L 1567.7641,812.16981 L 1563.8447,803.02452 L 1568.6351,795.62119 L 1572.119,789.52433 L 1573.861,784.73393 L 1579.9578,779.94354 L 1586.0547,779.94354 L 1591.7161,776.89511 L 1597.8129,769.49178 L 1596.5065,765.57237 L 1587.3612,761.21747 L 1582.5708,755.5561 L 1577.3449,751.2012 L 1574.2965,752.50767 L 1569.0706,759.04002 L 1563.8447,759.911 L 1548.6026,748.15277 L 1538.1508,745.97532 L 1528.57,744.23336 L 1525.9571,734.21709 L 1522.9087,718.97494 L 1525.9571,712.0071 L 1528.1345,708.08769 L 1531.6185,704.60377 L 1534.6669,703.2973 L 1540.7637,707.21671 L 1543.8122,702.86181 L 1542.5057,698.9424 L 1536.8443,688.49064 L 1539.8928,684.57123 L 1533.7959,682.82927 L 1527.699,683.70025 L 1524.6506,681.5228 L 1522.4732,684.57123 L 1519.8602,688.49064 L 1514.6343,680.21633 L 1508.102,678.47437 L 1502.0051,677.60339 L 1494.1663,677.1679 L 1489.8114,673.24849 L 1487.1985,661.05476 L 1481.9726,654.52241 L 1479.3596,653.21594 L 1474.1338,655.82888 L 1474.5693,664.97418 L 1472.8273,668.02261 L 1468.4724,665.84516 L 1465.8595,659.3128 L 1465.424,653.21594 L 1466.2949,647.55457 L 1470.2144,644.94163 L 1477.1822,644.50614 L 1483.2791,642.76418 L 1488.9404,632.31242 L 1486.3275,627.08654 L 1484.5855,622.29615 L 1482.8436,614.89282 L 1481.5371,610.10243 L 1485.021,606.18302 L 1488.0694,605.74753 L 1490.6824,600.95714 L 1485.021,598.77969 L 1479.7951,595.29577 L 1475.4402,589.6344 L 1468.0369,583.53754 L 1474.1338,581.36009 L 1482.4081,584.40852 L 1484.5855,577.44068 L 1490.2469,578.31166 L 1495.0373,580.48911 L 1500.6987,579.18264 L 1501.1342,573.08578 L 1503.3116,568.29539 L 1508.5375,564.37598 L 1516.3763,555.66618 L 1518.1183,552.18226 L 1515.9408,549.13383 z"
     id="path2814"
     style="fill:#000000;fill-opacity:1;fill-rule:evenodd;stroke:none;stroke-width:1px;stroke-linecap:butt;stroke-linejoin:miter;stroke-opacity:1" />
  <path
     d="M 1733.6858,530.40775 L 1738.4762,539.98854 L 1731.5084,545.64991 L 1728.4599,549.13383 L 1734.9923,551.31128 L 1733.6858,559.1501 L 1731.0729,561.76304 L 1725.4115,563.505 L 1723.6696,567.42441 L 1728.8954,574.39225 L 1741.0892,579.18264 L 1745.0086,580.05362 L 1750.6699,583.97303 L 1755.4603,587.45695 L 1758.5088,594.42479 L 1769.396,599.21518 L 1774.6219,604.00557 L 1789.4286,601.82812 L 1794.6544,599.21518 L 1801.1868,599.65067 L 1809.8966,598.77969 L 1812.074,596.16675 L 1818.6064,593.9893 L 1823.8323,591.37636 L 1829.9291,584.84401 L 1836.026,581.79558 L 1838.2034,577.44068 L 1838.2034,572.65029 L 1839.9454,566.98892 L 1845.1713,565.68245 L 1853.4456,566.55343 L 1866.9458,566.55343 L 1870.4297,562.63402 L 1869.5587,556.97265 L 1865.6393,550.4403 L 1868.6877,538.24658 L 1870.4297,530.84324 L 1869.1232,526.92383 L 1864.3328,531.27873 L 1859.107,528.2303 L 1850.8326,521.26246 L 1845.6068,516.03658 L 1843.8648,508.19776 L 1838.2034,506.89129 L 1834.284,511.24619 L 1826.4452,509.50423 L 1819.4774,503.40737 L 1820.7838,496.00404 L 1809.8966,491.64914 L 1807.2836,494.69757 L 1806.4127,499.48796 L 1799.4448,498.61698 L 1796.8319,494.26208 L 1792.477,493.82659 L 1788.1221,499.48796 L 1772.8799,505.14933 L 1763.2992,506.02031 L 1752.8474,507.32678 L 1742.8311,516.47207 L 1737.1697,515.60109 L 1735.8633,523.8754 L 1732.8148,526.92383 L 1733.6858,530.40775 z"
     id="path3586"
     style="fill:#000000;fill-opacity:1;fill-rule:evenodd;stroke:none;stroke-width:1px;stroke-linecap:butt;stroke-linejoin:miter;stroke-opacity:1" />
  <path
     d="M 1996.7218,645.81261 L 2001.9477,642.32869 L 2008.9155,643.19967 L 2015.8834,645.37712 L 2021.1093,646.68359 L 2026.3351,644.94163 L 2031.561,644.07065 L 2037.2224,644.50614 L 2042.8838,647.55457 L 2041.1418,651.47398 L 2037.2224,651.03849 L 2036.7869,658.00633 L 2038.9643,661.49025 L 2045.4967,669.76457 L 2048.5451,677.60339 L 2047.6741,685.8777 L 2052.029,689.79711 L 2055.9485,690.2326 L 2050.2871,695.02299 L 2047.2387,697.20044 L 2042.4483,698.50691 L 2039.3998,694.5875 L 2031.561,685.44221 L 2029.3836,681.5228 L 2027.2061,679.78084 L 2022.4157,684.13574 L 2018.0608,688.49064 L 2012.8349,689.36162 L 2007.6091,688.05515 L 2004.1251,690.2326 L 2004.1251,695.45848 L 2005.4316,704.16828 L 2012.8349,703.2973 L 2017.6253,704.60377 L 2007.1736,708.08769 L 2007.6091,712.87808 L 2009.351,718.53945 L 2011.964,720.7169 L 2014.1414,723.32984 L 2013.7059,728.99121 L 2013.7059,732.91062 L 2011.093,735.52356 L 2006.7381,734.21709 L 2003.2542,730.29768 L 1998.0283,725.94278 L 1993.2379,725.0718 L 1984.9636,729.86219 L 1980.6087,729.4267 L 1977.5602,727.24925 L 1966.673,715.05553 L 1963.6246,711.57161 L 1958.8342,702.86181 L 1958.8342,698.50691 L 1961.0116,686.31319 L 1958.3987,678.90986 L 1961.8826,674.55496 L 1969.7214,673.24849 L 1974.5118,671.07104 L 1977.9957,670.63555 L 1982.3506,675.86143 L 1987.5765,679.78084 L 1991.4959,678.90986 L 1993.2379,675.86143 L 1998.8993,673.68398 L 1999.7702,671.50653 L 1998.4638,668.02261 L 1996.2863,665.84516 L 1994.1089,666.71614 L 1991.0604,669.76457 L 1987.5765,671.07104 L 1986.27,669.32908 L 1988.4475,664.53869 L 1990.1895,663.23222 L 1991.4959,659.3128 L 1989.754,655.82888 L 1988.012,651.47398 L 1987.141,647.11908 L 1992.8024,646.2481 L 1996.7218,645.81261 z"
     id="path3588"
     style="fill:#000000;fill-opacity:1;fill-rule:evenodd;stroke:none;stroke-width:1px;stroke-linecap:butt;stroke-linejoin:miter;stroke-opacity:1" />
  <path
     d="M 2080.3359,471.6166 L 2081.2069,474.66503 L 2082.9488,475.9715 L 2085.5618,477.27797 L 2088.6102,478.14895 L 2090.3522,477.27797 L 2092.9651,475.10052 L 2093.8361,474.22954 L 2095.1426,471.6166 L 2092.9651,466.39072 L 2092.5296,464.21327 L 2090.3522,462.9068 L 2083.3843,464.21327 L 2081.2069,467.2617 L 2080.3359,471.6166 z"
     id="path3590"
     style="fill:#000000;fill-opacity:1;fill-rule:evenodd;stroke:none;stroke-width:1px;stroke-linecap:butt;stroke-linejoin:miter;stroke-opacity:1" />
  <path
     d="M 2018.4963,572.65029 L 2012.3995,567.8599 L 2011.5285,560.45657 L 2017.1898,554.35971 L 2020.6738,553.48873 L 2025.0287,555.66618 L 2028.0771,557.84363 L 2027.2061,565.24696 L 2025.0287,572.2148 L 2026.3351,575.69872 L 2032.8675,575.26323 L 2034.174,571.34382 L 2034.174,566.98892 L 2035.4804,563.94049 L 2040.2708,565.24696 L 2043.3192,569.60186 L 2038.5289,577.44068 L 2036.7869,580.48911 L 2043.3192,580.05362 L 2046.8032,578.31166 L 2052.4645,582.23107 L 2052.029,587.89244 L 2043.3192,590.94087 L 2038.5289,588.76342 L 2032.432,588.32793 L 2028.0771,589.6344 L 2021.1093,587.89244 L 2020.2383,587.02146 L 2016.7544,586.15048 L 2013.7059,588.76342 L 2010.6575,596.16675 L 2005.8671,599.21518 C 2005.8671,599.21518 2004.5606,598.77969 2002.8187,597.90871 C 2001.0767,597.03773 1996.7218,594.86028 1996.7218,594.86028 L 1995.8508,591.37636 L 1988.012,588.32793 L 1982.3506,589.6344 L 1977.9957,590.06989 L 1968.415,594.42479 L 1962.7536,593.11832 L 1960.5761,587.02146 L 1957.5277,583.97303 L 1949.6889,578.31166 L 1947.0759,571.34382 L 1945.7695,568.29539 L 1945.334,561.76304 L 1947.9469,560.02108 L 1952.3018,564.37598 L 1954.9148,566.55343 L 1959.2697,568.29539 L 1964.931,567.42441 L 1967.544,566.55343 L 1970.5924,558.71461 L 1969.2859,556.10167 L 1967.544,553.92422 L 1965.3665,545.21442 L 1967.544,542.16599 L 1970.1569,540.42403 L 1979.7377,540.85952 L 1981.4797,538.24658 L 1984.9636,538.68207 L 1988.883,539.98854 L 1988.4475,543.03697 L 1988.883,545.64991 L 1993.6734,546.52089 L 1994.9798,549.56932 L 1990.6249,554.7952 L 1986.7055,553.92422 L 1984.9636,553.48873 L 1987.141,560.89206 L 1989.754,562.63402 L 1993.6734,560.45657 L 1997.1573,556.53716 L 2000.2057,555.66618 L 2004.1251,557.40814 L 2006.3026,564.37598 L 2008.0446,570.03735 L 2011.964,572.2148 L 2015.4479,573.52127 L 2018.4963,572.65029 z"
     id="path3592"
     style="fill:#000000;fill-opacity:1;fill-rule:evenodd;stroke:none;stroke-width:1px;stroke-linecap:butt;stroke-linejoin:miter;stroke-opacity:1" />
  <path
     d="M 1910.0593,249.95217 L 1920.0756,245.59727 L 1927.0434,240.80688 L 1936.6242,235.581 L 1940.9791,235.14551 L 1946.205,232.96806 L 1947.9469,228.61316 L 1950.9954,225.56473 L 1955.7857,226.8712 L 1959.2697,231.2261 L 1959.2697,236.01649 L 1963.1891,237.75845 L 1968.415,238.62943 L 1970.1569,240.37139 L 1973.2053,243.41982 L 1982.7861,248.6457 L 1991.4959,247.33923 L 1999.7702,248.21021 L 2003.6897,245.59727 L 2011.5285,247.33923 L 2009.7865,249.51668 L 2005.8671,250.82315 L 2001.9477,254.30707 L 2001.5122,257.3555 L 2001.5122,260.40393 L 1993.6734,259.96844 L 1988.4475,258.66197 L 1982.7861,259.09746 L 1975.3828,261.27491 L 1971.0279,262.14589 L 1966.673,259.53295 L 1961.8826,256.48452 L 1954.4793,256.48452 L 1951.8663,259.09746 L 1957.0922,263.45236 L 1959.2697,269.98471 L 1950.5599,272.59765 L 1935.7532,265.19432 L 1928.7854,268.24275 L 1921.382,266.0653 L 1916.1562,260.40393 L 1911.3658,256.04903 L 1910.0593,249.95217 z"
     id="path3594"
     style="fill:#000000;fill-opacity:1;fill-rule:evenodd;stroke:none;stroke-width:1px;stroke-linecap:butt;stroke-linejoin:miter;stroke-opacity:1" />
  <path
     d="M 2314.1537,824.04197 L 2312.922,822.50228 L 2311.6902,821.27053 L 2307.687,820.34671 L 2303.3759,820.96259 L 2299.9886,822.50228 L 2298.141,829.58485 L 2299.0648,832.35629 L 2300.6045,833.89598 L 2303.9918,835.74361 L 2306.7632,836.35949 L 2312.3061,842.21031 L 2313.8458,844.67381 L 2321.8522,848.36907 L 2324.9316,847.44525 L 2327.3951,846.2135 L 2329.5506,844.36587 L 2331.3983,837.59124 L 2333.8618,835.74361 L 2336.3253,832.35629 L 2337.557,829.89279 L 2336.6332,828.04516 L 2334.7856,825.27372 L 2332.3221,822.81022 L 2330.1665,819.11496 L 2327.703,817.57527 L 2322.4681,816.9594 L 2320.0046,813.88002 L 2318.4649,815.72764 L 2317.2331,819.4229 L 2315.6934,821.57847 L 2318.4649,823.73403 L 2320.6204,824.65785 L 2321.5443,826.50547 L 2319.6966,829.89279 L 2316.0014,831.12454 L 2312.922,829.89279 L 2311.9982,828.3531 L 2311.3823,826.81341 L 2312.3061,825.8896 L 2314.1537,824.04197 z"
     id="path3596"
     style="fill:#000000;fill-opacity:1;fill-rule:evenodd;stroke:none;stroke-width:1px;stroke-linecap:butt;stroke-linejoin:miter;stroke-opacity:1" />
  <path
     d="M 2448.7226,457.28786 L 2443.1797,463.75456 L 2440.1004,466.83394 L 2437.3289,468.06569 L 2433.6337,478.22764 L 2434.5575,480.69115 L 2435.7892,483.15465 L 2442.2559,485.00228 L 2444.4115,483.46259 L 2447.4909,480.99909 L 2450.8782,479.4594 L 2454.2655,477.61177 L 2458.5766,477.61177 L 2462.8878,482.53878 L 2461.0402,484.3864 L 2458.2687,485.92609 L 2455.4973,490.54516 L 2462.8878,491.77691 L 2470.2783,493.93248 L 2473.3577,491.46898 L 2474.8974,488.69753 L 2477.6688,481.30702 L 2482.2879,489.31341 L 2484.4434,494.54836 L 2486.2911,496.39598 L 2488.7546,496.70392 L 2491.2181,492.70073 L 2491.8339,488.69753 L 2490.6022,485.31022 L 2487.2149,480.07527 L 2485.0593,477.61177 L 2485.0593,474.53239 L 2489.3704,473.60857 L 2493.6816,470.83713 L 2494.9133,468.68157 L 2493.6816,462.83075 L 2492.4498,459.44343 L 2492.7578,456.67199 L 2490.2943,453.59261 L 2486.599,448.6656 L 2483.2117,444.35447 L 2481.3641,442.1989 L 2479.5164,448.97354 L 2475.8212,448.6656 L 2471.51,445.27828 L 2472.7418,442.81478 L 2469.0465,440.04334 L 2460.1163,444.66241 L 2461.656,451.74498 L 2460.1163,455.1323 L 2457.6528,456.36405 L 2452.4179,455.74817 L 2448.7226,457.28786 z"
     id="path3598"
     style="fill:#000000;fill-opacity:1;fill-rule:evenodd;stroke:none;stroke-width:1px;stroke-linecap:butt;stroke-linejoin:miter;stroke-opacity:1" />
  <path
     d="M 2595.3011,906.56934 L 2599.6122,905.95347 L 2603.9234,906.56934 L 2607.0027,908.10903 L 2612.5456,912.42016 L 2613.7774,907.49316 L 2614.0853,905.02965 L 2616.8568,913.03604 L 2620.2441,912.42016 L 2621.4758,914.57573 L 2620.552,920.73449 L 2617.4726,920.11861 L 2615.0091,918.88686 L 2612.2377,921.96624 L 2612.2377,925.04562 L 2615.0091,928.125 L 2617.4726,924.12181 L 2619.9361,926.27737 L 2623.0155,935.82345 L 2619.0123,935.20757 L 2615.0091,933.97582 L 2610.698,930.89644 L 2607.9266,929.97263 L 2603.6154,931.51232 L 2600.536,931.82025 L 2589.1423,932.43613 L 2583.2915,929.35675 L 2575.901,926.58531 L 2570.6661,926.58531 L 2564.5073,924.42974 C 2564.5073,924.42974 2564.3696,917.16046 2565.6865,916.65824 L 2569.7422,913.95985 L 2574.3613,917.96305 L 2571.5899,921.35036 L 2576.2089,918.57892 L 2579.2883,917.03923 L 2582.0598,913.95985 L 2585.1391,908.41697 L 2589.4503,909.03285 L 2592.8376,907.80109 L 2595.3011,906.56934 z"
     id="path3600"
     style="fill:#000000;fill-opacity:1;fill-rule:evenodd;stroke:none;stroke-width:1px;stroke-linecap:butt;stroke-linejoin:miter;stroke-opacity:1" />
  <path
     d="M 2641.1839,800.33075 L 2638.4124,804.026 L 2639.6442,808.95301 L 2643.3394,809.87682 L 2646.1109,810.4927 L 2650.7299,811.10858 L 2653.1934,809.26095 L 2656.2728,806.79744 L 2658.1204,803.71806 L 2659.3522,801.25456 L 2657.1966,801.5625 L 2654.7331,800.94662 L 2654.1173,800.63868 L 2651.9617,801.87044 L 2650.1141,799.71487 L 2648.8823,797.25137 L 2647.0347,795.0958 L 2645.495,794.17199 L 2643.9553,794.17199 L 2642.4156,795.71168 L 2643.0315,796.63549 L 2643.6474,797.55931 L 2641.1839,800.33075 z"
     id="path3602"
     style="fill:#000000;fill-opacity:1;fill-rule:evenodd;stroke:none;stroke-width:1px;stroke-linecap:butt;stroke-linejoin:miter;stroke-opacity:1" />
  <path
     d="M 2583.5995,1013.1159 L 2583.2915,1009.1127 L 2585.755,1007.2651 L 2591.9138,1003.8777 L 2595.3011,1004.1857 L 2600.2281,1008.8047 L 2601.4599,1014.3476 L 2597.7646,1017.427 L 2591.6058,1018.3508 L 2586.9868,1018.3508 L 2585.4471,1022.0461 L 2583.9074,1026.3572 L 2577.1328,1030.6683 L 2571.5899,1031.5922 L 2568.2026,1030.0525 L 2566.047,1022.354 L 2566.047,1017.427 L 2568.2026,1013.7318 L 2566.9708,1010.0365 L 2567.2787,1005.1095 L 2569.4343,1003.5698 L 2571.2819,1002.9539 L 2574.3613,1004.1857 L 2576.2089,1005.7254 L 2575.2851,1009.7286 L 2576.8248,1012.1921 L 2578.6725,1013.4238 L 2583.5995,1013.1159 z"
     id="path3604"
     style="fill:#000000;fill-opacity:1;fill-rule:evenodd;stroke:none;stroke-width:1px;stroke-linecap:butt;stroke-linejoin:miter;stroke-opacity:1" />
  <path
     d="M 2568.5105,932.12819 L 2571.2819,939.5187 L 2570.974,942.90602 L 2570.974,943.5219 L 2573.4375,944.75365 L 2575.901,943.82983 L 2580.5201,944.13777 L 2586.063,941.98221 L 2586.9868,941.67427 L 2590.0662,943.21396 L 2590.0662,946.90921 L 2590.0662,948.75684 L 2590.0662,952.4521 L 2592.5297,953.99179 L 2598.3805,958.30292 L 2602.9995,958.30292 L 2608.2345,956.14735 L 2609.4662,953.99179 L 2610.698,952.76004 L 2612.2377,948.75684 L 2612.2377,945.36952 L 2611.6218,942.59808 L 2610.3901,939.21077 L 2608.2345,937.0552 L 2605.1551,935.82345 L 2602.3837,937.36314 L 2599.9202,937.67108 L 2596.2249,936.74726 L 2593.4535,937.0552 L 2590.682,936.43932 L 2586.063,937.97901 L 2582.6756,939.5187 L 2579.5963,939.5187 L 2575.901,935.20757 L 2575.901,932.74407 L 2573.4375,930.89644 L 2570.974,930.28056 L 2568.5105,932.12819 z"
     id="path3606"
     style="fill:#000000;fill-opacity:1;fill-rule:evenodd;stroke:none;stroke-width:1px;stroke-linecap:butt;stroke-linejoin:miter;stroke-opacity:1" />
  <path
     d="M 2665.511,525.34215 L 2667.6665,524.72628 L 2670.13,525.03421 L 2671.9777,526.5739 L 2671.6697,528.72947 L 2675.6729,530.5771 L 2675.9808,533.0406 L 2675.365,534.27235 L 2672.2856,533.65648 L 2668.2824,534.27235 L 2667.0506,536.73586 L 2666.4348,538.89142 L 2666.1268,541.9708 L 2664.2792,541.04699 L 2662.1236,537.04379 L 2661.8157,534.27235 L 2661.8157,531.19297 L 2662.1236,529.34534 L 2662.1236,528.11359 L 2665.511,525.34215 z"
     id="path3608"
     style="fill:#000000;fill-opacity:1;fill-rule:evenodd;stroke:none;stroke-width:1px;stroke-linecap:butt;stroke-linejoin:miter;stroke-opacity:1" />
  <path
     d="M 2291.6743,928.125 L 2293.8298,927.50912 L 2295.6775,927.20119 L 2297.833,927.20119 L 2299.6807,927.81706 L 2301.5283,927.50912 L 2302.4521,925.04562 L 2300.6045,923.19799 L 2296.6013,921.6583 L 2292.2902,922.58212 L 2291.3663,923.19799 L 2290.7505,925.96943 L 2291.6743,928.125 z"
     id="path3610"
     style="fill:#000000;fill-opacity:1;fill-rule:evenodd;stroke:none;stroke-width:1px;stroke-linecap:butt;stroke-linejoin:miter;stroke-opacity:1" />
  <path
     d="M 2376.6652,1003.2619 L 2372.662,1008.4968 L 2371.7381,1010.6524 L 2374.5096,1015.8873 L 2377.8969,1018.3508 L 2384.3636,1019.5826 L 2386.8271,1017.427 L 2388.3668,1014.3476 L 2389.5985,1010.6524 L 2388.9827,1008.1889 L 2387.7509,1005.4174 L 2385.5954,1003.2619 L 2383.1318,1002.0301 L 2380.0525,1002.0301 L 2376.6652,1003.2619 z"
     id="path3612"
     style="fill:#000000;fill-opacity:1;fill-rule:evenodd;stroke:none;stroke-width:1px;stroke-linecap:butt;stroke-linejoin:miter;stroke-opacity:1" />
  <path
     d="M 2105.3718,438.81159 L 2102.2924,435.42427 L 2094.594,431.11314 L 2095.5178,429.26551 L 2098.5972,427.72582 L 2101.3686,427.41788 C 2101.3686,427.41788 2104.7559,428.95757 2105.9877,429.57345 C 2107.2194,430.18932 2111.8385,431.72901 2111.8385,431.72901 L 2113.0703,430.8052 L 2114.6099,430.8052 C 2114.6099,430.8052 2119.537,431.11314 2120.7687,431.72901 C 2122.0005,432.34489 2122.9243,433.88458 2122.9243,433.88458 L 2122.9243,434.19252 L 2122.3084,436.34808 L 2121.0766,440.04334 L 2121.0766,440.65921 L 2121.6925,444.97034 C 2121.6925,444.97034 2124.464,445.89416 2126.0037,446.51003 C 2127.5433,447.12591 2129.083,447.12591 2129.083,447.12591 L 2132.7783,447.74179 L 2138.3212,449.28148 L 2138.937,449.58941 L 2140.1688,451.43704 L 2140.7847,443.43066 L 2142.3244,441.89097 L 2148.1752,440.35128 L 2162.3403,448.35766 L 2161.7245,456.97993 L 2152.4863,460.98312 L 2148.7911,459.13549 L 2145.0958,457.5958 L 2140.7847,459.44343 L 2136.7815,461.90693 L 2136.1656,468.06569 L 2135.8577,469.29744 L 2132.7783,471.14507 L 2128.1592,471.14507 L 2123.5402,470.5292 L 2117.9973,468.68157 L 2117.0735,465.60219 L 2113.6861,462.52281 L 2110.9147,460.67518 L 2108.4512,460.98312 L 2105.0639,464.0625 L 2103.2162,464.98631 L 2101.3686,464.0625 L 2097.3654,461.29106 L 2092.7464,457.90374 L 2087.5114,456.97993 L 2084.432,456.67199 L 2080.4288,455.44024 L 2078.5812,453.90055 L 2078.5812,452.97673 L 2078.2733,450.20529 L 2079.1971,448.35766 L 2081.3527,446.81797 L 2085.6638,443.73859 L 2091.5146,441.58303 L 2093.6702,441.58303 L 2097.6734,442.81478 L 2102.2924,444.35447 L 2104.7559,445.58622 L 2108.1433,445.27828 L 2109.0671,442.1989 L 2108.4512,440.96715 L 2105.3718,438.81159 z"
     id="path3614"
     style="fill:#000000;fill-opacity:1;fill-rule:evenodd;stroke:none;stroke-width:1px;stroke-linecap:butt;stroke-linejoin:miter;stroke-opacity:1" />
  <path
     d="M 2125.6957,483.46259 L 2124.7719,489.00547 L 2127.5433,491.46898 L 2129.391,492.08485 L 2132.7783,490.54516 L 2135.5497,488.69753 L 2136.4735,487.46578 L 2138.6291,485.92609 L 2139.8609,485.31022 L 2140.7847,483.15465 L 2139.8609,480.69115 L 2138.3212,479.15146 L 2136.7815,478.84352 L 2134.318,480.07527 L 2132.7783,479.76733 L 2129.6989,477.91971 L 2128.4672,477.61177 L 2126.3116,480.38321 L 2125.6957,483.46259 z"
     id="path3616"
     style="fill:#000000;fill-opacity:1;fill-rule:evenodd;stroke:none;stroke-width:1px;stroke-linecap:butt;stroke-linejoin:miter;stroke-opacity:1" />
  <path
     d="M 2122.9243,860.68659 L 2121.0766,862.22628 L 2120.7687,865.30566 L 2120.7687,867.15328 L 2121.6925,869.30885 L 2122.0005,869.92473 L 2125.3878,871.15648 L 2126.3116,871.77235 L 2128.1592,874.85173 L 2126.3116,877.62317 L 2125.0798,880.39462 L 2123.8481,882.55018 L 2125.0798,884.70575 L 2126.6195,886.55337 L 2128.4672,887.78513 L 2133.3942,888.401 L 2134.9339,885.9375 L 2133.7021,879.4708 L 2134.6259,876.69936 L 2133.7021,873.0041 L 2131.8545,870.5406 L 2130.6227,868.69297 L 2129.083,867.46122 L 2126.6195,867.76916 L 2125.6957,867.46122 L 2125.3878,864.38184 L 2127.8513,860.99452 L 2126.9275,859.45483 L 2122.9243,860.68659 z"
     id="path3618"
     style="fill:#000000;fill-opacity:1;fill-rule:evenodd;stroke:none;stroke-width:1px;stroke-linecap:butt;stroke-linejoin:miter;stroke-opacity:1" />
  <path
     d="M 2028.3873,908.10903 L 2030.2349,907.80109 L 2031.7746,906.2614 L 2032.6985,905.64553 L 2034.854,906.56934 L 2037.0096,907.49316 L 2039.781,909.34078 L 2041.3207,911.18841 L 2045.3239,914.57573 L 2049.0192,917.65511 L 2050.2509,918.57892 L 2053.6382,918.57892 L 2054.2541,918.88686 L 2057.0256,921.6583 L 2060.4129,924.12181 L 2061.9526,926.89325 L 2064.1081,929.97263 L 2065.3399,930.28056 L 2067.8034,930.5885 L 2069.3431,930.5885 L 2071.8066,930.89644 L 2074.2701,932.12819 L 2081.0447,934.5917 L 2082.8923,937.36314 L 2083.8162,941.05839 L 2085.0479,943.5219 L 2086.2797,945.67746 L 2089.9749,946.90921 L 2092.7464,947.21715 L 2095.2099,945.67746 L 2098.9051,945.36952 L 2102.6004,946.29334 L 2104.448,948.14097 L 2104.7559,952.14416 L 2102.2924,954.60766 L 2098.2892,956.45529 L 2096.1337,956.14735 L 2093.6702,954.60766 L 2092.1305,952.4521 L 2088.7432,949.68066 L 2085.6638,948.75684 L 2083.2003,949.98859 L 2080.7368,952.76004 L 2076.1177,952.76004 L 2072.7304,951.52828 L 2070.5748,947.83303 L 2065.0319,953.99179 L 2057.0256,952.4521 L 2053.6382,951.22035 L 2049.635,952.14416 L 2044.0922,952.76004 L 2039.4731,950.91241 L 2036.3937,949.37272 L 2033.6223,944.44571 L 2034.5461,941.67427 L 2036.7016,938.90283 L 2041.3207,935.82345 L 2045.6318,932.74407 L 2047.7874,930.28056 L 2048.7112,927.20119 L 2046.5557,925.6615 L 2040.089,926.58531 L 2028.6953,924.42974 L 2025,924.12181 L 2022.2286,918.27098 L 2025.6159,916.73129 L 2028.3873,917.03923 L 2032.0826,916.73129 L 2033.0064,915.1916 L 2032.0826,912.42016 L 2029.3111,910.57254 L 2028.3873,908.10903 z"
     id="path3620"
     style="fill:#000000;fill-opacity:1;fill-rule:evenodd;stroke:none;stroke-width:1px;stroke-linecap:butt;stroke-linejoin:miter;stroke-opacity:1" />
  <path
     d="M 2066.8796,986.01733 L 2063.1843,990.6364 L 2063.4922,994.33166 L 2068.4193,996.79516 L 2072.4224,996.48723 L 2074.2701,995.87135 L 2076.1177,994.33166 L 2077.3495,992.48403 L 2077.3495,990.32847 L 2076.4256,987.86496 L 2075.1939,985.7094 L 2071.8066,984.47765 L 2069.651,985.40146 L 2066.8796,986.01733 z"
     id="path3622"
     style="fill:#000000;fill-opacity:1;fill-rule:evenodd;stroke:none;stroke-width:1px;stroke-linecap:butt;stroke-linejoin:miter;stroke-opacity:1" />
  <path
     d="M 2007.1396,934.5917 L 2004.3682,938.59489 L 2002.8285,943.21396 L 2001.2888,944.75365 L 1995.438,945.36952 L 1996.9777,946.90921 L 1996.0538,949.06478 L 1993.8983,949.06478 L 1992.3586,948.14097 L 1992.0506,945.67746 L 1990.8189,944.13777 L 1988.0474,942.59808 L 1986.1998,939.5187 L 1987.4316,937.67108 L 1989.5871,935.82345 L 1990.203,933.35994 L 1990.203,930.89644 L 1990.8189,929.66469 L 1992.6665,928.125 L 1999.4412,924.42974 L 1994.8221,922.27418 L 1994.5141,920.73449 L 1999.4412,919.1948 L 2003.1364,919.1948 L 2005.9079,920.42655 L 2007.1396,923.19799 L 2006.5237,926.89325 L 2006.5237,929.66469 L 2007.1396,934.5917 z"
     id="path3624"
     style="fill:#000000;fill-opacity:1;fill-rule:evenodd;stroke:none;stroke-width:1px;stroke-linecap:butt;stroke-linejoin:miter;stroke-opacity:1" />
  <path
     d="M 2019.4571,913.95985 L 2017.3016,913.95985 L 2016.6857,915.80748 L 2017.9174,917.03923 L 2020.9968,917.34717 L 2022.8444,915.49954 L 2023.7683,913.34398 L 2024.6921,910.2646 L 2022.8444,908.41697 L 2020.6889,907.18522 L 2018.8412,907.80109 L 2018.2254,908.72491 L 2018.2254,911.18841 L 2019.4571,913.95985 z"
     id="path3626"
     style="fill:#000000;fill-opacity:1;fill-rule:evenodd;stroke:none;stroke-width:1px;stroke-linecap:butt;stroke-linejoin:miter;stroke-opacity:1" />
  <path
     d="M 2045.3239,487.15784 L 2043.4763,483.15465 L 2040.7048,480.69115 L 2037.6255,481.61496 L 2035.162,483.15465 L 2034.5461,486.54197 L 2034.854,488.69753 L 2036.0858,491.46898 L 2038.2413,493.00867 L 2041.0128,494.24042 L 2043.1683,495.16423 L 2045.3239,495.16423 L 2049.3271,494.24042 C 2049.3271,494.24042 2050.5589,493.93248 2052.4065,493.3166 C 2054.2541,492.70073 2056.4097,492.39279 2056.4097,492.39279 L 2058.8732,491.77691 L 2059.797,489.92929 L 2061.0287,486.84991 L 2061.0287,483.15465 L 2060.4129,478.53558 L 2058.8732,476.68795 L 2055.7938,474.84033 L 2053.3303,472.9927 L 2049.943,471.14507 L 2046.5557,471.45301 L 2043.7842,472.06889 L 2042.8604,472.68476 L 2042.8604,475.14826 L 2043.4763,475.76414 L 2046.2477,476.38002 L 2048.0954,476.99589 C 2048.0954,476.99589 2049.635,477.91971 2050.8668,478.22764 C 2052.0985,478.53558 2053.3303,479.15146 2053.3303,479.15146 L 2054.562,482.53878 L 2053.3303,484.69434 L 2051.7906,486.54197 L 2048.0954,489.62135 L 2045.3239,487.15784 z"
     id="path3628"
     style="fill:#000000;fill-opacity:1;fill-rule:evenodd;stroke:none;stroke-width:1px;stroke-linecap:butt;stroke-linejoin:miter;stroke-opacity:1" />
  <path
     d="M 1944.9361,969.38869 L 1950.1711,969.38869 L 1952.3266,968.46487 L 1954.1743,965.69343 L 1954.7902,962.92199 L 1952.0187,959.53467 L 1947.3996,960.15055 L 1944.6282,960.45848 L 1940.625,960.76642 L 1940.3171,962.92199 L 1941.2409,965.07755 L 1941.8568,966.00137 L 1944.9361,969.38869 z"
     id="path3630"
     style="fill:#000000;fill-opacity:1;fill-rule:evenodd;stroke:none;stroke-width:1px;stroke-linecap:butt;stroke-linejoin:miter;stroke-opacity:1" />
  <path
     d="M 1929.5392,997.41104 L 1920.609,995.87135 L 1917.2217,997.41104 L 1913.8344,1000.7984 L 1912.2947,1003.8777 L 1912.6027,1009.1127 L 1914.7582,1011.2682 L 1920.917,1012.1921 L 1924.6122,1012.8079 L 1929.2313,1012.1921 L 1931.6948,1009.7286 L 1932.3107,1004.8016 L 1932.0027,1002.9539 L 1931.0789,999.87454 L 1929.5392,997.41104 z"
     id="path3632"
     style="fill:#000000;fill-opacity:1;fill-rule:evenodd;stroke:none;stroke-width:1px;stroke-linecap:butt;stroke-linejoin:miter;stroke-opacity:1" />
  <path
     d="M 1948.6314,893.02007 L 1944.3203,889.94069 L 1942.7806,887.16925 L 1940.0091,884.39781 L 1941.5488,893.32801 L 1944.9361,896.09945 L 1947.7076,897.94708 L 1949.8631,898.56296 L 1952.6346,898.25502 C 1952.6346,898.25502 1953.5584,897.94708 1955.406,897.63914 C 1957.2537,897.3312 1959.1013,897.3312 1959.1013,897.3312 L 1959.7172,895.79151 L 1953.2505,893.32801 L 1951.7108,893.32801 L 1948.6314,893.02007 z"
     id="path3634"
     style="fill:#000000;fill-opacity:1;fill-rule:evenodd;stroke:none;stroke-width:1px;stroke-linecap:butt;stroke-linejoin:miter;stroke-opacity:1" />
  <path
     d="M 1972.0347,869.00091 L 1969.8791,868.0771 L 1970.187,866.84535 L 1972.0347,865.92153 L 1975.7299,867.15328 L 1977.2696,869.92473 L 1975.1141,872.38823 L 1972.3426,872.08029 L 1972.0347,869.00091 z"
     id="path3636"
     style="fill:#000000;fill-opacity:1;fill-rule:evenodd;stroke:none;stroke-width:1px;stroke-linecap:butt;stroke-linejoin:miter;stroke-opacity:1" />
  <path
     d="M 1980.6569,603.86633 L 1975.422,606.32983 L 1975.1141,610.02509 L 1979.1172,614.9521 L 1981.5808,616.79972 L 1988.3554,621.11086 L 1992.0506,618.33941 L 1995.438,610.02509 L 1992.9745,605.71396 L 1992.3586,600.17108 L 1989.2792,598.93932 L 1984.6601,597.0917 L 1982.8125,597.0917 L 1980.6569,598.32345 L 1980.0411,600.17108 L 1980.6569,603.86633 z"
     id="path3638"
     style="fill:#000000;fill-opacity:1;fill-rule:evenodd;stroke:none;stroke-width:1px;stroke-linecap:butt;stroke-linejoin:miter;stroke-opacity:1" />
  <path
     d="M 1995.7459,511.79288 L 1995.7459,506.25 L 1995.438,504.09443 L 1997.5935,501.63093 L 2003.7523,499.7833 L 2006.8317,500.39918 L 2010.219,504.09443 L 2008.9872,506.55794 L 2008.6793,511.17701 L 2006.8317,513.02463 L 2003.7523,515.48814 L 1999.1332,517.02783 L 1997.5935,515.48814 L 1995.7459,511.79288 z"
     id="path3640"
     style="fill:#000000;fill-opacity:1;fill-rule:evenodd;stroke:none;stroke-width:1px;stroke-linecap:butt;stroke-linejoin:miter;stroke-opacity:1" />
  <path
     d="M 1922.4567,567.83759 L 1919.0693,564.14233 L 1916.6058,561.06295 L 1915.0662,558.90739 L 1915.99,556.44389 L 1918.1455,555.21213 L 1922.4567,556.13595 L 1924.3043,562.60264 L 1928.3075,566.91378 L 1930.4631,566.91378 L 1931.3869,564.75821 L 1931.3869,562.29471 L 1933.2345,561.98677 L 1934.7742,564.14233 L 1935.3901,565.68202 L 1938.1615,566.60584 L 1932.9266,569.99316 L 1931.3869,572.45666 L 1932.0027,576.15191 L 1933.5424,577.38367 L 1935.698,578.92336 C 1935.698,578.92336 1938.7774,580.15511 1940.0091,580.15511 C 1941.2409,580.15511 1944.3203,579.84717 1944.3203,579.84717 L 1946.4758,580.46305 L 1947.7076,583.54243 L 1944.3203,585.69799 L 1939.7012,584.46624 L 1936.3139,583.85036 L 1932.6186,582.92655 L 1928.9234,580.15511 L 1927.0757,579.23129 L 1926.4599,576.45985 L 1926.1519,572.14872 L 1924.6122,569.68522 L 1922.4567,567.83759 z"
     id="path3642"
     style="fill:#000000;fill-opacity:1;fill-rule:evenodd;stroke:none;stroke-width:1px;stroke-linecap:butt;stroke-linejoin:miter;stroke-opacity:1" />
  <path
     d="M 1887.3517,616.49179 L 1885.5041,607.56159 L 1883.0406,606.32983 L 1880.885,601.09489 L 1884.2724,600.78695 L 1886.4279,601.71076 L 1891.047,605.40602 L 1891.047,606.63777 L 1891.6629,609.71715 L 1892.2787,614.64416 L 1893.2026,616.79972 L 1895.0502,619.26323 L 1903.3645,622.65055 L 1906.136,623.8823 L 1909.8312,626.3458 L 1906.7518,630.34899 L 1904.5963,630.65693 L 1896.5899,627.57755 L 1890.1232,625.72993 L 1890.7391,629.11724 L 1894.1264,635.89188 L 1888.5835,637.12363 L 1883.3485,641.43476 L 1880.2692,638.66332 L 1878.4215,634.04425 L 1877.4977,630.34899 C 1877.4977,630.34899 1875.6501,626.65374 1875.0342,625.11405 C 1874.4183,623.57436 1873.4945,621.41879 1873.4945,621.41879 L 1871.339,619.26323 L 1869.4913,617.4156 L 1867.6437,616.49179 L 1866.7199,619.57117 L 1866.7199,622.34261 L 1867.6437,624.80611 L 1868.2596,627.26962 L 1868.2596,631.27281 C 1868.2596,631.27281 1868.2596,631.58075 1869.1834,633.42837 C 1870.1072,635.276 1870.7231,636.81569 1870.7231,636.81569 L 1871.031,638.97126 L 1870.1072,640.51095 L 1868.8755,641.12682 L 1866.104,641.43476 L 1864.5643,637.43157 L 1862.1008,635.58394 L 1860.2532,634.66013 L 1859.9453,632.19662 L 1859.0214,627.88549 L 1855.6341,628.80931 L 1853.1706,634.04425 L 1848.2436,631.27281 L 1849.7833,638.35538 L 1851.0151,640.51095 L 1853.4786,642.97445 L 1853.4786,644.2062 L 1854.0944,647.28558 L 1852.2468,648.51733 L 1848.2436,646.36177 L 1846.0881,644.51414 L 1844.8563,640.51095 L 1840.8531,629.42518 L 1839.9293,627.26962 L 1842.3928,625.42199 L 1845.7801,623.8823 L 1851.6309,617.4156 L 1853.1706,616.18385 L 1855.6341,613.72035 L 1856.8659,614.33622 L 1859.6373,617.10766 L 1861.7929,616.49179 L 1863.0246,612.79653 C 1863.0246,612.79653 1863.3326,613.10447 1862.7167,611.25684 C 1862.1008,609.40921 1862.4088,608.4854 1862.4088,608.4854 L 1869.7993,609.10128 L 1871.031,610.64097 L 1873.4945,614.02828 L 1877.4977,616.79972 L 1881.193,619.26323 L 1883.6565,620.18704 L 1886.12,620.18704 L 1888.2756,620.18704 L 1887.3517,616.49179 z"
     id="path3644"
     style="fill:#000000;fill-opacity:1;fill-rule:evenodd;stroke:none;stroke-width:1px;stroke-linecap:butt;stroke-linejoin:miter;stroke-opacity:1" />
  <path
     d="M 1831.615,623.8823 L 1830.9991,620.49498 L 1829.4594,618.95529 L 1827.3038,617.4156 L 1823.9165,617.4156 L 1822.6848,618.33941 L 1821.453,620.80292 L 1821.453,622.34261 L 1821.761,624.19024 L 1822.9927,625.11405 L 1825.7641,626.3458 L 1827.3038,626.96168 L 1829.7673,626.96168 L 1830.3832,626.3458 L 1831.615,623.8823 z"
     id="path3646"
     style="fill:#000000;fill-opacity:1;fill-rule:evenodd;stroke:none;stroke-width:1px;stroke-linecap:butt;stroke-linejoin:miter;stroke-opacity:1" />
  <path
     d="M 1866.104,588.16149 L 1866.7199,584.46624 L 1867.9516,582.92655 L 1869.7993,581.38686 L 1871.031,580.15511 L 1872.8787,580.15511 L 1874.4183,580.77098 L 1876.8818,582.00274 L 1877.1898,582.92655 L 1877.1898,584.77418 L 1876.8818,587.23768 L 1876.5739,587.85356 L 1875.3422,590.625 L 1873.8025,590.93294 L 1871.031,590.31706 L 1868.2596,590.93294 L 1867.6437,590.625 L 1866.104,588.16149 z"
     id="path3648"
     style="fill:#000000;fill-opacity:1;fill-rule:evenodd;stroke:none;stroke-width:1px;stroke-linecap:butt;stroke-linejoin:miter;stroke-opacity:1" />
  <path
     d="M 1873.1866,646.66971 L 1871.031,642.97445 L 1872.2628,641.12682 L 1872.8787,639.89507 L 1874.1104,639.2792 L 1875.6501,639.2792 L 1877.1898,640.20301 L 1878.1136,640.81889 L 1878.7295,642.66651 L 1879.0374,643.28239 L 1878.4215,644.82208 L 1877.4977,646.05383 L 1875.6501,647.59352 L 1873.1866,646.66971 z"
     id="path3650"
     style="fill:#000000;fill-opacity:1;fill-rule:evenodd;stroke:none;stroke-width:1px;stroke-linecap:butt;stroke-linejoin:miter;stroke-opacity:1" />
  <path
     d="M 202.0073,955.83942 L 198.92792,952.76004 L 197.69617,941.67427 L 197.69617,939.82664 L 202.0073,937.97901 L 206.31843,936.13139 L 208.16606,934.28376 L 213.09307,935.51551 L 216.17245,936.74726 L 221.09945,937.36314 L 222.94708,937.36314 L 224.79471,938.59489 L 225.41058,940.44252 L 224.17883,947.21715 L 222.94708,951.52828 L 222.94708,952.14416 L 217.4042,953.99179 L 212.47719,952.76004 L 209.39781,954.60766 L 207.55018,954.60766 L 202.0073,955.83942 z"
     id="path3652"
     style="fill:#000000;fill-opacity:1;fill-rule:evenodd;stroke:none;stroke-width:1px;stroke-linecap:butt;stroke-linejoin:miter;stroke-opacity:1" />
  <path
     d="M 171.2135,984.16971 L 177.98814,983.55383 L 182.29927,982.93796 L 185.99453,982.32208 L 189.68978,982.93796 L 192.76916,982.93796 L 201.39142,984.16971 L 209.39781,990.32847 L 218.63595,987.24909 L 224.79471,988.48084 L 222.3312,992.79197 L 205.08668,994.02372 L 201.39142,992.79197 L 195.23266,997.71898 L 190.92153,997.1031 L 186.6104,994.6396 L 180.45164,1000.1825 L 177.98814,993.40785 L 171.2135,994.02372 L 167.51825,992.17609 L 163.20712,992.17609 L 163.20712,987.86496 L 160.74361,984.78558 L 158.89599,980.47445 L 163.20712,980.47445 L 171.2135,984.16971 z"
     id="path3654"
     style="fill:#000000;fill-opacity:1;fill-rule:evenodd;stroke:none;stroke-width:1px;stroke-linecap:butt;stroke-linejoin:miter;stroke-opacity:1" />
  <path
     d="M 96.692518,982.32208 L 91.765511,977.39507 L 86.222628,974.31569 L 79.447993,974.93157 L 76.368613,979.2427 L 76.984489,984.16971 L 80.679745,990.32847 L 91.765511,993.40785 L 95.460767,989.09671 L 96.692518,982.32208 z"
     id="path3656"
     style="fill:#000000;fill-opacity:1;fill-rule:evenodd;stroke:none;stroke-width:1px;stroke-linecap:butt;stroke-linejoin:miter;stroke-opacity:1" />
  <path
     d="M 607.5086,826.54098 L 609.25056,823.92804 L 614.04095,830.89588 L 614.04095,833.07333 L 617.08938,835.68627 L 620.5733,843.0896 L 625.79918,846.57352 L 630.15408,850.49293 L 632.76702,853.10587 L 637.9929,859.20273 L 645.83172,859.20273 L 647.13819,858.76724 L 646.26721,853.54136 L 644.96074,850.05744 L 645.39623,844.39607 L 649.75113,848.31548 L 650.62211,850.92842 L 657.15446,856.1543 L 665.42877,855.28332 L 667.60622,845.26705 L 668.91269,839.17019 L 668.4772,830.0249 L 669.34818,823.49255 L 669.78367,815.65373 L 666.73524,808.2504 L 662.81583,805.63746 L 657.15446,803.8955 L 651.92858,803.46001 L 641.91231,791.70178 L 640.17035,786.0404 L 635.37996,789.52433 L 634.07349,794.31472 L 629.71859,796.92766 L 624.9282,796.05668 L 616.2184,797.79864 L 612.29899,799.97609 L 607.5086,809.55687 L 601.41174,815.21824 L 601.41174,818.70216 L 604.46017,825.67 L 607.5086,826.54098 z"
     id="path3658"
     style="fill:#000000;fill-opacity:1;fill-rule:evenodd;stroke:none;stroke-width:1px;stroke-linecap:butt;stroke-linejoin:miter;stroke-opacity:1" />
  <path
     d="M 705.92935,805.20197 L 700.26798,801.71805 L 698.52602,798.23413 L 701.13896,797.36315 L 704.18739,797.79864 L 703.7519,791.26629 L 701.57445,787.78237 L 697.65504,786.0404 L 695.0421,782.99197 L 689.38073,771.23374 L 694.17112,768.18531 L 697.65504,760.78198 L 700.26798,758.16904 L 700.70347,765.13688 L 701.57445,770.79825 L 701.57445,773.84668 L 707.23582,784.29844 L 708.54229,786.0404 L 712.02621,791.26629 L 712.89719,797.36315 L 712.02621,803.02452 L 712.89719,806.50844 L 715.51013,809.55687 L 719.42954,812.6053 L 722.91346,816.08922 L 725.96189,822.18608 L 723.78444,824.79902 L 722.04248,825.67 L 722.47797,837.86372 L 722.04248,838.29921 L 717.25209,838.29921 L 713.76817,835.68627 L 709.84876,832.63784 L 713.33268,830.0249 L 715.94562,826.10549 L 715.07464,821.3151 L 712.02621,814.78275 L 709.84876,811.29883 L 708.54229,809.55687 L 705.92935,805.20197 z"
     id="path3660"
     style="fill:#000000;fill-opacity:1;fill-rule:evenodd;stroke:none;stroke-width:1px;stroke-linecap:butt;stroke-linejoin:miter;stroke-opacity:1" />
  <path
     d="M 622.31526,889.25154 L 614.04095,887.07409 L 609.68605,890.9935 L 604.89566,890.12252 L 605.76664,886.20311 L 609.25056,884.02566 L 609.25056,877.05782 L 610.55703,876.62233 L 614.91193,876.18684 L 618.83134,877.49331 L 624.49271,879.67076 L 627.97663,880.54174 L 633.638,883.59017 L 638.86388,888.38056 L 642.3478,890.9935 L 641.47682,893.60644 L 640.17035,894.91291 L 636.25094,894.91291 L 632.33153,894.04193 L 627.97663,892.73546 L 626.23467,891.86448 L 622.31526,889.25154 z"
     id="path3662"
     style="fill:#000000;fill-opacity:1;fill-rule:evenodd;stroke:none;stroke-width:1px;stroke-linecap:butt;stroke-linejoin:miter;stroke-opacity:1" />
  <path
     d="M 845.28616,799.10511 L 845.72165,805.20197 L 849.20557,806.50844 L 852.68949,806.07295 L 853.56047,802.15354 L 851.38302,797.79864 L 848.77008,797.36315 L 845.28616,799.10511 z"
     id="path3664"
     style="fill:#000000;fill-opacity:1;fill-rule:evenodd;stroke:none;stroke-width:1px;stroke-linecap:butt;stroke-linejoin:miter;stroke-opacity:1" />
  <path
     d="M 796.07578,688.05515 L 793.46284,691.97456 L 791.72088,691.97456 L 788.67245,690.2326 L 786.495,692.41005 L 786.495,695.02299 L 789.10794,697.63593 L 792.15637,698.50691 L 794.33382,698.50691 L 798.25323,696.76495 L 799.5597,693.28103 L 799.99519,691.10358 L 799.5597,690.2326 L 796.07578,688.05515 z"
     id="path3666"
     style="fill:#000000;fill-opacity:1;fill-rule:evenodd;stroke:none;stroke-width:1px;stroke-linecap:butt;stroke-linejoin:miter;stroke-opacity:1" />
  <path
     d="M 840.06028,691.97456 L 840.49577,700.24887 L 836.14087,701.55534 L 833.52793,702.42632 L 824.81813,711.13612 L 823.07617,715.49102 L 822.20519,718.53945 L 822.64068,723.76533 L 824.38264,725.94278 L 827.43107,729.4267 L 829.17303,733.34611 C 829.17303,733.34611 830.91499,734.65258 832.65695,735.08807 C 834.39891,735.52356 842.67322,734.65258 842.67322,734.65258 L 845.72165,734.21709 L 849.64106,732.47513 L 853.56047,728.55572 L 855.30243,723.76533 L 857.04439,719.41043 L 857.47988,714.62004 L 857.04439,708.95867 L 855.30243,706.34573 L 852.254,698.9424 L 853.12498,694.15201 L 852.254,691.53907 L 847.46361,689.36162 L 843.10871,688.92613 L 840.06028,691.97456 z"
     id="path3668"
     style="fill:#000000;fill-opacity:1;fill-rule:evenodd;stroke:none;stroke-width:1px;stroke-linecap:butt;stroke-linejoin:miter;stroke-opacity:1" />
  <path
     d="M 1367.8604,362.75091 L 1385.7208,350.43339 L 1389.4161,354.12865 L 1394.9589,355.3604 L 1402.3495,361.51916 L 1411.5876,367.67792 L 1412.8193,372.60493 L 1414.0511,384.92244 L 1409.74,392.92883 L 1406.0447,398.47171 L 1402.3495,420.64325 L 1400.5018,424.3385 L 1397.4224,438.50365 L 1396.1907,442.1989 L 1390.6478,460.05931 L 1383.8732,471.14507 L 1381.4097,476.68795 L 1377.7144,482.84671 L 1366.0128,508.09763 L 1350.6159,499.47536 L 1338.9142,489.00547 L 1335.8349,486.54197 L 1330.9078,482.84671 L 1324.1332,466.21806 L 1324.7491,463.75456 L 1329.6761,458.21168 L 1330.9078,456.36405 L 1334.6031,455.74817 C 1334.6031,455.74817 1341.3777,455.74817 1343.8412,456.36405 C 1346.3047,456.97993 1353.6953,459.44343 1353.6953,459.44343 L 1363.5493,463.13868 L 1367.2445,461.90693 L 1370.3239,456.97993 L 1370.9398,451.43704 L 1372.1715,444.66241 L 1372.7874,434.19252 L 1368.4763,424.3385 L 1365.3969,419.41149 L 1360.4699,413.25274 C 1360.4699,413.25274 1356.7746,410.78923 1356.7746,407.70985 C 1356.7746,404.63047 1356.7746,400.93522 1356.7746,400.93522 L 1357.3905,394.77646 L 1359.2381,377.53193 L 1360.4699,375.06843 L 1364.781,368.90967 L 1367.8604,362.75091 z"
     id="path3672"
     style="fill:#000000;fill-opacity:1;fill-rule:evenodd;stroke:none;stroke-width:1px;stroke-linecap:butt;stroke-linejoin:miter;stroke-opacity:1" />
  <path
     d="M 1268.0885,298.08394 L 1279.7901,300.54744 L 1287.7965,300.54744 L 1294.5712,297.46806 L 1295.8029,294.38868 L 1297.6505,286.99817 L 1297.6505,285.76642 L 1293.9553,282.07117 L 1288.4124,278.99179 L 1283.4854,277.14416 L 1277.9425,277.14416 L 1271.1679,278.99179 L 1267.4726,282.07117 L 1263.7774,286.99817 L 1263.1615,290.07755 L 1263.1615,293.15693 L 1268.0885,298.08394 z"
     id="path3674"
     style="fill:#000000;fill-opacity:1;fill-rule:evenodd;stroke:none;stroke-width:1px;stroke-linecap:butt;stroke-linejoin:miter;stroke-opacity:1" />
  <path
     d="M 1240.3741,269.13777 L 1251.4599,259.89963 L 1261.9297,255.5885 L 1264.3933,253.74087 L 1283.4854,246.96624 C 1283.4854,246.96624 1293.3394,246.35036 1295.8029,246.96624 C 1298.2664,247.58212 1315.511,253.125 1315.511,253.125 C 1315.511,253.125 1317.3586,253.74087 1320.438,254.35675 C 1323.5173,254.97263 1332.1396,257.43613 1332.1396,257.43613 C 1332.1396,257.43613 1357.3905,266.67427 1361.7016,269.13777 C 1366.0128,271.60128 1361.7016,277.76003 1361.7016,277.76003 L 1372.7874,286.99817 L 1395.5748,290.69343 L 1399.886,276.52828 L 1399.886,252.50912 L 1397.4224,248.81387 L 1369.0922,229.10584 L 1356.1588,216.17244 L 1340.7619,209.39781 L 1322.9015,210.62956 L 1302.5776,221.09945 L 1280.406,220.48357 L 1277.3266,203.23905 C 1277.3266,203.23905 1270.552,188.45803 1266.2409,185.37865 C 1261.9297,182.29927 1240.3741,174.29288 1237.9106,173.67701 C 1235.4471,173.06113 1213.8914,176.14051 1213.8914,176.14051 L 1205.885,179.21989 L 1200.958,186.6104 L 1197.8787,190.92153 L 1193.5675,200.77555 L 1187.4088,203.23905 L 1176.9389,203.85493 C 1176.9389,203.85493 1155.9991,208.16606 1147.9927,210.01368 C 1139.9863,211.86131 1122.1259,208.78193 1122.1259,208.78193 L 1097.4909,203.85493 L 1080.8622,205.70255 L 1086.4051,213.70894 L 1093.7956,216.78832 L 1102.4179,218.02007 L 1115.3513,222.94708 C 1115.3513,222.94708 1117.8148,224.79471 1120.2783,226.02646 C 1122.7418,227.25821 1133.8276,234.64872 1133.8276,234.64872 C 1133.8276,234.64872 1135.6752,235.2646 1138.7546,236.49635 C 1141.8339,237.7281 1147.9927,239.57573 1147.9927,239.57573 C 1147.9927,239.57573 1151.688,239.57573 1155.3832,240.80748 C 1159.0785,242.03923 1162.7737,243.27098 1162.7737,243.27098 L 1167.7007,244.50274 C 1167.7007,244.50274 1172.0119,245.11861 1175.0912,246.35036 C 1178.1706,247.58212 1182.4818,248.81387 1182.4818,248.81387 L 1196.031,253.125 L 1205.885,256.20438 C 1205.885,256.20438 1211.4279,254.35675 1212.6597,256.82025 C 1213.8914,259.28376 1216.9708,262.97901 1216.9708,262.97901 L 1225.5931,268.5219 L 1234.8312,272.83303 L 1240.3741,269.13777 z"
     id="path3676"
     style="fill:#000000;fill-opacity:1;fill-rule:evenodd;stroke:none;stroke-width:1px;stroke-linecap:butt;stroke-linejoin:miter;stroke-opacity:1" />
  <path
     d="M 1016.8111,258.66788 L 1021.1223,261.74726 L 1027.8969,266.67427 C 1027.8969,266.67427 1036.5192,272.83303 1038.9827,274.06478 C 1041.4462,275.29653 1046.3732,277.14416 1046.3732,277.14416 L 1049.4526,277.14416 L 1056.2272,276.52828 L 1063.0018,276.52828 L 1071.0082,275.91241 C 1071.0082,275.91241 1074.7035,275.91241 1077.7828,274.68066 C 1080.8622,273.4489 1088.8686,271.60128 1088.8686,271.60128 L 1093.1797,269.75365 L 1099.9544,265.44252 L 1103.0338,262.36314 L 1104.8814,259.89963 L 1098.7226,256.20438 L 1092.5639,254.35675 L 1087.021,250.04562 L 1076.5511,245.73449 L 1064.8495,246.96624 L 1051.3002,245.11861 L 1042.062,246.96624 L 1029.1287,251.27737 L 1022.9699,253.125 L 1016.8111,258.66788 z"
     id="path3678"
     style="fill:#000000;fill-opacity:1;fill-rule:evenodd;stroke:none;stroke-width:1px;stroke-linecap:butt;stroke-linejoin:miter;stroke-opacity:1" />
  <path
     d="M 1762.021,264.21076 L 1758.3257,269.13777 L 1754.6305,272.83303 L 1754.0146,274.06478 L 1755.2464,275.91241 L 1759.5575,278.37591 L 1765.1004,280.22354 L 1768.7956,279.60766 L 1774.9544,279.60766 L 1778.6496,282.07117 L 1784.1925,283.91879 L 1790.9672,284.53467 L 1793.4307,282.68704 L 1794.6624,278.37591 L 1795.8942,272.21715 L 1795.8942,268.5219 L 1794.6624,264.82664 L 1786.656,262.36314 L 1782.9608,261.13139 L 1773.1068,261.74726 L 1770.0274,261.74726 L 1762.021,264.21076 z"
     id="path3680"
     style="fill:#000000;fill-opacity:1;fill-rule:evenodd;stroke:none;stroke-width:1px;stroke-linecap:butt;stroke-linejoin:miter;stroke-opacity:1" />
  <path
     d="M 1473.1752,248.81387 L 1461.4735,238.34398 L 1453.4672,239.57573 L 1451.6195,246.96624 L 1450.3878,252.50912 L 1448.5401,262.36314 L 1446.6925,269.13777 L 1446.6925,277.76003 L 1447.3084,281.45529 L 1436.8385,293.77281 L 1430.6797,298.08394 L 1418.3622,311.63321 L 1417.1305,315.32847 L 1424.521,319.6396 L 1430.6797,321.48722 L 1439.9179,322.71898 L 1452.2354,328.26186 L 1457.7783,319.6396 C 1457.7783,319.6396 1458.3942,314.71259 1458.3942,312.24909 C 1458.3942,309.78558 1462.7053,298.08394 1462.7053,298.08394 L 1462.7053,293.15693 L 1468.2482,289.46168 L 1481.1816,286.3823 L 1486.1086,286.99817 L 1515.6706,302.39507 L 1516.2865,302.39507 L 1524.2929,303.62682 L 1532.2993,303.62682 L 1538.458,318.40785 L 1533.531,328.87774 L 1527.9881,342.42701 C 1527.9881,342.42701 1527.9881,352.8969 1527.3723,355.3604 C 1526.7564,357.8239 1523.0611,361.51916 1523.0611,361.51916 L 1515.0547,367.06204 L 1514.4389,374.45255 L 1515.6706,378.14781 L 1516.9024,385.53832 L 1520.5976,389.23358 L 1527.9881,393.54471 C 1527.9881,393.54471 1537.2263,394.16058 1540.3057,394.16058 C 1543.385,394.16058 1557.5502,396.62409 1557.5502,396.62409 L 1584.0328,409.55748 L 1587.7281,415.71624 L 1597.5821,424.3385 L 1608.052,429.88139 L 1612.3631,431.72901 L 1616.0584,431.72901 L 1620.9854,429.88139 L 1625.9124,424.95438 L 1634.5347,424.3385 C 1634.5347,424.3385 1638.8458,426.18613 1641.3093,425.57025 C 1643.7728,424.95438 1649.9316,422.49087 1649.9316,422.49087 L 1646.8522,416.33212 L 1636.9982,394.16058 L 1638.2299,384.92244 C 1638.2299,384.92244 1627.76,375.06843 1624.6807,376.30018 C 1621.6013,377.53193 1608.6679,381.84306 1608.6679,381.84306 C 1608.6679,381.84306 1600.0456,388.00182 1596.9662,387.38595 C 1593.8869,386.77007 1573.563,370.7573 1573.563,370.7573 L 1571.0995,355.3604 L 1579.1058,343.65876 L 1609.8996,308.55383 L 1619.1378,290.69343 L 1632.0712,279.60766 L 1629.6077,264.21076 L 1617.906,254.97263 L 1576.6423,240.1916 L 1548.9279,229.72171 C 1548.9279,229.72171 1524.9088,235.88047 1521.8294,236.49635 C 1518.75,237.11222 1489.188,241.42336 1489.188,241.42336 L 1473.1752,248.81387 z"
     id="path3682"
     style="fill:#000000;fill-opacity:1;fill-rule:evenodd;stroke:none;stroke-width:1px;stroke-linecap:butt;stroke-linejoin:miter;stroke-opacity:1" />
  <path
     d="M 1346.9206,573.99635 L 1348.1524,587.54562 L 1351.8476,590.625 L 1356.7746,593.70438 L 1362.9334,594.93613 L 1374.635,597.39963 L 1377.7144,599.24726 L 1383.2573,604.79014 L 1383.8732,613.41241 L 1389.4161,617.10766 L 1398.0383,615.26004 L 1407.2765,617.72354 L 1410.9717,617.72354 L 1425.7527,619.57117 L 1430.0639,614.64416 L 1433.7591,608.4854 L 1433.1433,601.09489 L 1434.9909,595.55201 L 1438.6861,590.00912 L 1448.5401,590.625 L 1452.8513,593.0885 L 1456.5465,593.0885 L 1456.5465,582.00274 L 1460.8577,579.53923 L 1463.937,572.14872 L 1462.0894,567.83759 L 1454.6989,558.59945 L 1451.6195,554.9042 L 1444.229,553.05657 L 1438.0703,552.44069 L 1429.448,552.44069 L 1412.8193,545.05018 L 1406.6606,545.05018 L 1408.5082,550.59306 L 1415.8987,554.28832 L 1422.0575,558.59945 L 1424.521,559.8312 L 1426.9845,562.91058 L 1426.9845,564.14233 L 1428.8321,569.68522 L 1428.2162,574.61223 L 1425.1369,576.45985 L 1420.8257,576.45985 L 1414.0511,572.14872 L 1409.74,567.83759 L 1403.5812,562.29471 L 1396.1907,554.9042 L 1386.9526,548.12956 L 1397.4224,538.89142 L 1402.9653,536.42792 L 1409.74,536.42792 L 1410.9717,531.50091 L 1404.1971,527.80566 L 1398.0383,529.65328 L 1385.7208,533.96441 L 1380.1779,527.80566 L 1377.7144,525.95803 L 1374.0192,532.11679 L 1375.2509,536.42792 L 1375.8668,543.20255 L 1372.7874,544.43431 L 1364.781,538.89142 L 1360.4699,546.89781 L 1354.3111,556.13595 L 1350.6159,559.21533 L 1348.1524,570.91697 L 1346.9206,573.99635 z"
     id="path3684"
     style="fill:#000000;fill-opacity:1;fill-rule:evenodd;stroke:none;stroke-width:1px;stroke-linecap:butt;stroke-linejoin:miter;stroke-opacity:1" />
  <path
     d="M 1337.0666,652.21259 L 1330.9078,663.91423 L 1330.9078,670.07299 L 1332.1396,676.23175 L 1334.6031,681.15876 L 1335.8349,683.62226 L 1341.9936,686.08577 L 1347.5365,687.93339 L 1351.2318,682.39051 L 1358.6223,677.4635 L 1360.4699,675.61587 L 1366.6287,670.07299 L 1364.781,662.68248 L 1363.5493,654.67609 L 1366.6287,642.97445 L 1367.2445,636.81569 L 1364.1651,624.49817 L 1358.6223,626.3458 L 1356.7746,631.88868 L 1356.7746,642.97445 L 1353.0794,647.90146 L 1346.3047,651.59671 L 1341.3777,649.74909 L 1337.0666,652.21259 z"
     id="path3686"
     style="fill:#000000;fill-opacity:1;fill-rule:evenodd;stroke:none;stroke-width:1px;stroke-linecap:butt;stroke-linejoin:miter;stroke-opacity:1" />
  <path
     d="M 1842.0849,344.89051 L 1836.542,345.50639 L 1834.0785,346.12226 L 1831.615,347.35401 L 1830.9991,349.20164 L 1831.615,351.66514 L 1831.615,352.28102 L 1838.3896,355.3604 L 1840.2372,356.59215 L 1846.396,357.20803 L 1848.8595,356.59215 L 1847.6277,352.8969 L 1848.2436,352.28102 L 1853.7865,351.04927 L 1855.0183,348.58576 L 1853.7865,346.12226 L 1849.4754,341.19525 L 1842.0849,344.89051 z"
     id="path3688"
     style="fill:#000000;fill-opacity:1;fill-rule:evenodd;stroke:none;stroke-width:1px;stroke-linecap:butt;stroke-linejoin:miter;stroke-opacity:1" />
  <path
     d="M 1912.9106,1022.9699 L 1906.136,1029.1286 L 1903.6724,1031.5922 L 1900.5931,1037.7509 L 1899.9772,1039.5985 L 1901.2089,1045.1414 L 1903.0566,1046.9891 L 1905.5201,1048.8367 L 1909.2153,1053.1478 L 1912.2947,1059.9224 L 1908.5995,1062.3859 L 1899.9772,1064.2336 L 1885.1962,1066.0812 L 1886.4279,1076.5511 L 1888.2756,1080.8622 L 1891.3549,1092.5639 L 1896.8978,1093.1797 L 1906.136,1095.0274 L 1909.8312,1096.2591 L 1912.9106,1098.1068 L 1914.7582,1103.6496 L 1913.5265,1104.2655 L 1907.3677,1107.9608 L 1906.7518,1109.1925 C 1906.7518,1109.1925 1906.136,1112.8878 1908.5995,1114.7354 C 1911.063,1116.583 1916.6058,1116.583 1916.6058,1116.583 L 1922.1487,1113.5036 L 1933.2345,1109.1925 L 1936.3139,1101.802 L 1947.3996,1091.3321 L 1952.3266,1086.4051 L 1956.6378,1082.7099 L 1953.5584,1077.7828 L 1944.3203,1069.7765 L 1945.552,1053.1478 L 1933.8504,1055.6113 L 1928.9234,1056.2272 L 1924.6122,1055.6113 L 1921.5328,1039.5985 L 1922.7646,1036.5192 L 1926.4599,1030.9763 L 1933.2345,1026.0493 L 1936.9297,1021.1223 L 1936.9297,1016.1953 L 1933.8504,1015.5794 L 1926.4599,1021.1223 L 1925.2281,1022.354 C 1925.2281,1022.354 1925.2281,1022.9699 1922.1487,1022.354 C 1919.0693,1021.7381 1914.7582,1022.9699 1912.9106,1022.9699 z"
     id="path3690"
     style="fill:#000000;fill-opacity:1;fill-rule:evenodd;stroke:none;stroke-width:1px;stroke-linecap:butt;stroke-linejoin:miter;stroke-opacity:1" />
  <path
     d="M 1968.3394,1046.3732 L 1961.5648,1055.6113 L 1964.6442,1061.7701 L 1972.0347,1072.24 L 1966.4918,1078.3987 L 1963.4124,1083.9416 L 1968.3394,1090.7162 L 1975.7299,1090.7162 L 1981.8887,1087.021 L 1983.7363,1082.094 L 1983.7363,1077.7828 L 1986.1998,1075.9352 L 1991.1268,1072.8558 L 2002.2126,1062.3859 L 2006.5237,1057.4589 L 2007.7555,1051.9161 L 2003.4443,1046.9891 L 1998.5173,1044.5255 L 1990.511,1040.8303 L 1983.7363,1039.5985 L 1976.3458,1040.8303 L 1968.3394,1046.3732 z"
     id="path3692"
     style="fill:#000000;fill-opacity:1;fill-rule:evenodd;stroke:none;stroke-width:1px;stroke-linecap:butt;stroke-linejoin:miter;stroke-opacity:1" />
  <path
     d="M 2014.5301,942.29015 L 2008.3714,952.14416 L 2007.1396,957.68704 L 2007.7555,963.22993 L 2007.1396,967.54106 L 2007.7555,969.38869 L 2009.6031,980.47445 L 2006.5237,984.16971 L 1994.8221,983.55383 L 1990.511,982.32208 L 1984.3522,978.01095 L 1972.6506,963.22993 L 1968.3394,965.69343 L 1962.1807,971.23631 L 1955.406,973.69982 L 1951.7108,976.16332 L 1947.3996,977.39507 L 1947.3996,981.09033 L 1954.1743,983.55383 L 1970.8029,989.09671 L 1979.4252,992.17609 L 1986.1998,993.40785 L 1987.4316,994.02372 L 1991.7427,997.71898 L 2001.5967,1002.0301 L 2019.4571,1005.1095 L 2033.6223,1018.6588 L 2052.7144,1024.8175 L 2059.4891,1032.8239 L 2065.6478,1036.5192 L 2073.6542,1043.2938 L 2074.2701,1044.5255 L 2079.813,1046.9891 L 2086.5876,1045.1414 L 2084.1241,1038.9827 L 2081.0447,1025.4334 L 2085.9717,1018.6588 L 2093.3622,1002.0301 L 2117.3814,1005.7254 L 2121.0766,998.95073 L 2117.3814,990.32847 L 2113.0703,984.16971 L 2108.1433,978.01095 L 2095.8257,974.93157 L 2088.4352,982.93796 L 2081.6606,994.02372 L 2069.9589,1002.646 L 2049.635,995.87135 L 2050.8668,988.48084 L 2057.0256,980.47445 L 2061.3367,972.46807 L 2057.6414,964.46168 L 2050.2509,959.53467 L 2044.0922,956.45529 L 2026.2318,949.06478 L 2020.6889,943.5219 L 2014.5301,942.29015 z"
     id="path3694"
     style="fill:#000000;fill-opacity:1;fill-rule:evenodd;stroke:none;stroke-width:1px;stroke-linecap:butt;stroke-linejoin:miter;stroke-opacity:1" />
  <path
     d="M 2100.7527,1096.875 L 2110.6068,1101.1861 L 2121.0766,1104.8814 L 2136.4735,1109.8084 L 2142.0164,1110.4243 L 2148.1752,1109.8084 L 2153.7181,1107.9608 L 2167.2673,1105.4973 L 2175.8896,1103.0338 L 2183.896,1101.1861 L 2179.5849,1107.9608 L 2166.0356,1121.51 L 2162.3403,1123.9735 L 2126.0037,1128.2847 L 2117.9973,1125.2053 L 2108.1433,1116.583 L 2100.7527,1112.2719 L 2090.2829,1104.2655 L 2082.8923,1100.5703 L 2082.8923,1095.6432 L 2089.0511,1093.7956 L 2100.7527,1096.875 z"
     id="path3696"
     style="fill:#000000;fill-opacity:1;fill-rule:evenodd;stroke:none;stroke-width:1px;stroke-linecap:butt;stroke-linejoin:miter;stroke-opacity:1" />
  <path
     d="M 2065.6478,1110.4243 L 2061.9526,1113.5036 L 2057.6414,1121.51 L 2061.3367,1123.3577 L 2071.8066,1126.437 L 2077.9653,1124.5894 L 2081.0447,1121.51 L 2082.8923,1117.8148 L 2079.813,1114.1195 L 2074.886,1110.4243 L 2065.6478,1110.4243 z"
     id="path3698"
     style="fill:#000000;fill-opacity:1;fill-rule:evenodd;stroke:none;stroke-width:1px;stroke-linecap:butt;stroke-linejoin:miter;stroke-opacity:1" />
  <path
     d="M 2014.5301,1131.3641 L 2002.2126,1133.8276 L 2000.365,1138.1387 L 2002.8285,1139.9863 L 2008.3714,1142.4498 L 2014.5301,1142.4498 L 2018.8412,1140.6022 L 2022.5365,1135.6752 L 2020.6889,1133.2117 L 2017.6095,1131.3641 L 2014.5301,1131.3641 z"
     id="path3700"
     style="fill:#000000;fill-opacity:1;fill-rule:evenodd;stroke:none;stroke-width:1px;stroke-linecap:butt;stroke-linejoin:miter;stroke-opacity:1" />
  <path
     d="M 961.99818,1010.6524 L 955.83942,1018.6588 L 955.22354,1024.2016 L 953.37591,1025.4334 L 958.9188,1026.6651 L 964.46168,1024.8175 L 965.07756,1019.8905 L 967.54106,1014.9635 L 968.77281,1013.1159 L 965.69343,1010.6524 L 961.99818,1010.6524 z"
     id="path3702"
     style="fill:#000000;fill-opacity:1;fill-rule:evenodd;stroke:none;stroke-width:1px;stroke-linecap:butt;stroke-linejoin:miter;stroke-opacity:1" />
  <path
     d="M 1013.7318,951.52828 L 1024.8175,963.22993 L 1029.7445,966.30931 L 1035.9033,968.15693 L 1042.062,963.22993 L 1043.9097,958.30292 L 1045.7573,947.83303 L 1048.2208,942.90602 L 1049.4526,935.51551 L 1043.2938,934.89963 L 1037.135,935.51551 L 1027.8969,927.50912 L 1023.5858,925.04562 L 1018.6588,923.19799 L 1013.7318,925.04562 L 1011.8841,927.50912 L 1005.7254,943.5219 L 1000.7984,948.4489 L 997.1031,951.52828 L 992.1761,953.99179 L 988.48084,957.07117 L 986.01734,961.99817 L 989.09672,961.99817 L 992.1761,959.53467 L 998.33486,957.07117 L 1003.8777,955.83942 L 1006.3412,955.22354 L 1007.573,953.99179 L 1013.7318,951.52828 z"
     id="path3704"
     style="fill:#000000;fill-opacity:1;fill-rule:evenodd;stroke:none;stroke-width:1px;stroke-linecap:butt;stroke-linejoin:miter;stroke-opacity:1" />
  <path
     d="M 933.05201,984.16971 L 915.19161,993.40785 L 918.27099,995.87135 L 915.80748,1002.0301 L 915.80748,1004.4936 L 920.73449,1006.9571 L 925.04562,1005.7254 L 928.125,1003.2619 L 930.58851,1001.4142 L 934.89964,999.56661 L 939.21077,999.56661 L 945.9854,997.71898 L 949.06478,995.87135 L 949.68066,993.40785 L 945.36953,990.32847 L 941.67427,989.09671 L 939.82664,987.24909 L 933.05201,984.16971 z"
     id="path3706"
     style="fill:#000000;fill-opacity:1;fill-rule:evenodd;stroke:none;stroke-width:1px;stroke-linecap:butt;stroke-linejoin:miter;stroke-opacity:1" />
  <path
     d="M 966.92518,958.30292 L 962.61405,960.15055 L 958.30292,963.22993 L 959.53467,965.07755 L 966.30931,966.30931 L 969.38869,965.07755 L 973.08394,963.22993 L 972.46807,962.61405 L 966.92518,958.30292 z"
     id="path3708"
     style="fill:#000000;fill-opacity:1;fill-rule:evenodd;stroke:none;stroke-width:1px;stroke-linecap:butt;stroke-linejoin:miter;stroke-opacity:1" />
  <path
     d="M 278.37591,1062.3859 L 277.14416,1067.9288 L 279.60766,1069.7765 L 283.30292,1071.6241 L 289.46168,1069.1606 L 288.22993,1063.0018 L 287.61405,1061.1542 L 282.68704,1060.5383 L 278.37591,1062.3859 z"
     id="path3710"
     style="fill:#000000;fill-opacity:1;fill-rule:evenodd;stroke:none;stroke-width:1px;stroke-linecap:butt;stroke-linejoin:miter;stroke-opacity:1" />
  <path
     d="M 84.990876,949.06478 L 84.990876,949.06478 z"
     id="path3712"
     style="fill:#000000;fill-opacity:1;fill-rule:evenodd;stroke:none;stroke-width:1px;stroke-linecap:butt;stroke-linejoin:miter;stroke-opacity:1" />
  <path
     d="M 89.917883,952.76004 L 92.997263,957.07117 L 97.308394,960.15055 L 101.00365,960.76642 L 103.46715,960.15055 L 102.85128,955.22354 L 95.460767,949.68066 L 92.997263,943.5219 L 92.381387,937.36314 L 92.381387,935.51551 L 91.149635,931.82025 L 85.606752,929.97263 L 81.911496,935.51551 L 80.063869,940.44252 L 80.063869,941.05839 L 81.911496,942.90602 L 84.375,946.60128 L 84.990876,947.83303 L 89.917883,952.76004 z"
     id="path3714"
     style="fill:#000000;fill-opacity:1;fill-rule:evenodd;stroke:none;stroke-width:1px;stroke-linecap:butt;stroke-linejoin:miter;stroke-opacity:1" />
  <path
     d="M 2443.9701,949.78466 L 2449.196,949.78466 L 2454.4218,951.52662 L 2458.7767,952.3976 L 2462.2607,951.09113 L 2464.8736,944.55878 L 2460.0832,940.63937 L 2454.4218,938.02643 L 2460.9542,931.49408 L 2464.4381,934.978 L 2470.0995,935.41349 L 2470.9705,929.75212 L 2466.1801,925.83271 L 2463.5671,921.47781 L 2457.0348,919.30036 L 2453.5509,924.52624 L 2447.454,928.44565 L 2443.0991,929.31663 L 2440.4862,932.80055 L 2439.6152,935.41349 L 2439.1797,938.46192 L 2439.6152,941.07486 L 2440.4862,943.25231 L 2441.7926,945.42976 L 2443.9701,949.78466 z"
     id="path3716"
     style="fill:#000000;fill-opacity:1;fill-rule:evenodd;stroke:none;stroke-width:1px;stroke-linecap:butt;stroke-linejoin:miter;stroke-opacity:1" />
  <path
     d="M 766.89795,539.11756 L 768.63991,549.56932 L 774.30128,558.27912 L 778.22069,567.42441 L 779.96265,570.47284 L 784.75304,583.97303 C 784.75304,583.97303 791.28539,587.89244 793.02735,588.32793 C 794.76931,588.76342 800.86617,597.03773 800.86617,597.03773 L 806.09205,595.29577 L 814.36637,591.81185 L 810.44695,585.2795 L 806.09205,581.79558 L 802.60813,575.69872 L 803.9146,570.90833 L 808.2695,568.29539 L 813.49539,568.29539 L 816.10833,576.13421 L 816.97931,578.31166 L 823.94715,583.97303 L 825.25362,584.40852 L 832.22146,584.84401 C 832.22146,584.84401 835.26989,584.40852 837.44734,584.84401 C 839.62479,585.2795 840.49577,586.15048 840.49577,586.15048 L 840.49577,595.73126 L 841.80224,597.03773 L 844.41518,600.08616 C 844.41518,600.08616 848.33459,605.31204 849.64106,607.054 C 850.94753,608.79596 851.81851,609.66694 851.81851,609.66694 L 858.78635,613.15086 L 862.27027,613.58635 L 867.06066,620.1187 L 852.254,623.16713 L 847.8991,623.16713 L 848.77008,628.39301 C 848.77008,628.39301 850.51204,631.44144 852.254,632.31242 C 853.99596,633.1834 856.6089,634.48987 856.6089,634.48987 C 856.6089,634.48987 855.30243,632.31242 858.35086,635.79634 C 861.39929,639.28026 868.36713,651.47398 868.36713,651.47398 L 873.15752,665.84516 L 867.49615,668.02261 L 863.14125,674.11947 C 863.14125,674.11947 864.44772,676.73241 864.88321,678.47437 C 865.3187,680.21633 871.85105,685.44221 874.46399,686.74868 C 877.07693,688.05515 888.39967,692.84554 888.39967,692.84554 L 891.88359,694.5875 L 894.93202,698.50691 L 897.54496,703.73279 C 897.54496,703.73279 910.60966,713.74906 912.78711,715.05553 C 914.96456,716.362 916.70652,717.23298 916.70652,717.23298 L 920.62593,725.0718 L 920.19044,729.4267 L 920.19044,731.60415 L 923.23887,743.79787 L 926.72279,748.15277 L 923.67436,756.86257 L 925.85181,761.21747 L 929.77122,765.13688 C 929.77122,765.13688 931.07769,766.87884 932.81965,767.74982 C 934.56161,768.6208 935.86808,769.92727 937.61005,770.36276 C 939.35201,770.79825 940.65848,771.23374 940.65848,771.23374 L 943.70691,771.66923 L 946.31985,770.36276 L 948.06181,767.31433 L 950.23926,760.78198 L 951.54573,758.60453 L 953.72318,756.42708 L 958.07808,751.2012 L 961.12651,749.45924 L 963.30396,749.45924 L 968.09435,749.89473 L 972.44925,752.07218 L 973.32023,752.94316 L 975.06219,757.73355 L 975.49768,758.60453 L 976.36866,761.21747 L 976.36866,762.08845 L 980.28807,768.18531 L 983.77199,772.10472 L 989.43336,776.02413 L 992.91728,777.3306 L 995.53022,777.3306 L 997.70767,774.28217 L 996.4012,769.92727 L 995.53022,766.00786 L 995.09473,760.34649 L 996.4012,757.29806 L 998.14316,755.12061 L 1009.0304,756.86257 L 1011.6434,759.04002 C 1011.6434,759.04002 1015.1273,761.65296 1016.8692,762.52394 C 1018.6112,763.39492 1024.2726,765.57237 1024.2726,765.57237 C 1024.2726,765.57237 1025.579,766.44335 1027.321,766.87884 C 1029.063,767.31433 1041.2567,766.87884 1041.2567,766.87884 L 1042.9986,765.13688 L 1046.4826,759.47551 L 1058.6763,759.04002 L 1058.2408,767.31433 L 1061.7247,778.20158 L 1069.5635,782.12099 L 1076.0959,785.60491 L 1069.999,798.23413 L 1068.6925,799.5406 L 1068.6925,806.50844 L 1066.0796,813.47628 L 1056.9343,819.13765 L 1053.4504,819.57314 L 1039.9502,817.83118 L 1033.8533,817.39569 L 1015.9983,844.39607 L 1013.8208,855.71881 L 1012.0788,860.07371 L 1012.0788,866.17057 L 1012.5143,874.00939 L 1015.5628,878.36429 L 1016.8692,890.12252 L 1017.7402,895.78389 L 1018.1757,899.26781 L 1020.3532,900.57428 L 1025.1435,901.88075 L 1028.192,901.88075 L 1029.4984,895.78389 L 1027.7565,889.25154 L 1034.2888,886.6386 L 1043.4341,894.91291 L 1048.66,897.09036 C 1048.66,897.09036 1056.4988,902.31624 1059.1118,902.75173 C 1061.7247,903.18722 1067.3861,904.92918 1067.3861,904.92918 C 1067.3861,904.92918 1069.128,905.36467 1071.741,905.36467 C 1074.3539,905.36467 1087.8541,901.44526 1087.8541,901.44526 L 1094.3865,896.21938 L 1096.9994,890.12252 L 1096.5639,887.07409 L 1100.0478,876.18684 C 1100.0478,876.18684 1099.6123,874.88037 1101.7898,875.31586 C 1103.9672,875.75135 1110.9351,877.49331 1115.29,879.67076 C 1119.6449,881.84821 1121.3868,882.2837 1121.3868,882.2837 L 1122.2578,888.81605 L 1114.8545,907.10663 L 1107.0157,917.99389 L 1103.9672,921.47781 L 1103.5317,927.13918 L 1107.8866,932.36506 C 1107.8866,932.36506 1113.548,934.54251 1115.29,934.978 C 1117.0319,935.41349 1127.0482,934.978 1127.0482,934.978 L 1149.2582,940.20388 C 1149.2582,940.20388 1151.8711,937.15545 1153.6131,936.71996 C 1155.3551,936.28447 1170.1617,928.44565 1172.7747,927.57467 C 1175.3876,926.70369 1176.6941,924.52624 1176.6941,924.52624 L 1176.2586,918.86487 L 1172.7747,914.50997 L 1164.0649,911.89702 L 1155.7906,910.59055 L 1151.0002,907.54212 L 1145.7743,906.23565 L 1143.5968,901.44526 L 1154.0486,893.17095 C 1154.0486,893.17095 1156.6615,892.29997 1158.4035,892.73546 C 1160.1455,893.17095 1186.2749,897.09036 1186.2749,897.09036 L 1194.9847,896.65487 C 1194.9847,896.65487 1196.7266,898.83232 1199.775,899.26781 C 1202.8235,899.7033 1208.0494,901.00977 1208.0494,901.00977 L 1211.0978,896.65487 L 1214.1462,894.47742 L 1218.9366,891.86448 L 1225.0335,891.42899 L 1228.5174,892.29997 L 1232.0013,894.91291 L 1241.1466,905.36467 L 1243.7595,906.67114 L 1251.1629,907.54212 L 1256.3888,905.80016 L 1258.5662,900.13879 L 1257.2597,897.52585 L 1254.6468,892.29997 L 1255.0823,887.50958 L 1264.2276,880.97723 L 1268.147,882.71919 L 1271.1954,883.59017 L 1274.6793,881.41272 L 1279.9052,878.36429 L 1282.9536,877.9288 L 1289.9215,887.50958 L 1299.5023,888.38056 L 1299.5023,880.54174 L 1299.5023,870.52547 L 1300.8087,868.34802 L 1304.2927,863.99312 L 1306.4701,857.02528 L 1299.5023,846.57352 L 1290.7925,836.55725 L 1289.0505,828.71843 L 1289.0505,822.62157 C 1289.0505,822.62157 1287.744,817.83118 1288.615,815.65373 C 1289.486,813.47628 1292.5344,806.07295 1292.5344,806.07295 L 1300.3732,802.58903 L 1309.083,793.44374 L 1308.6476,787.78237 L 1310.3895,778.20158 L 1309.083,774.28217 L 1307.7766,770.36276 L 1304.2927,769.49178 C 1304.2927,769.49178 1301.2442,770.79825 1299.5023,770.79825 C 1297.7603,770.79825 1292.9699,770.79825 1292.9699,770.79825 L 1281.2117,761.65296 L 1283.3891,756.42708 L 1286.8731,751.2012 L 1288.615,746.41081 L 1277.7278,735.95905 L 1274.6793,723.76533 L 1271.1954,718.97494 L 1271.1954,712.87808 L 1270.3244,708.95867 L 1265.9695,704.16828 L 1259.8727,701.55534 L 1252.0339,698.07142 C 1252.0339,698.07142 1245.937,698.07142 1244.6305,699.81338 C 1243.324,701.55534 1242.8886,703.73279 1242.8886,703.73279 C 1242.8886,703.73279 1246.3725,714.62004 1246.808,716.362 C 1247.2435,718.10396 1247.6789,718.53945 1248.1144,720.28141 C 1248.5499,722.02337 1249.4209,725.50729 1249.4209,725.50729 L 1249.8564,732.47513 L 1248.9854,735.95905 L 1246.808,740.31395 L 1245.937,744.23336 L 1246.808,749.02375 L 1250.7274,759.47551 L 1251.1629,766.87884 L 1249.8564,772.10472 L 1250.2919,775.15315 L 1238.5337,778.20158 L 1235.9207,773.41119 L 1226.3399,755.5561 L 1208.9203,746.41081 L 1201.9525,740.74944 L 1198.4686,734.65258 L 1190.6298,725.94278 L 1190.1943,722.45886 L 1193.6782,712.44259 L 1196.7266,707.6522 L 1208.0494,702.42632 L 1208.9203,693.28103 L 1208.0494,690.2326 L 1199.3396,670.63555 L 1192.8072,668.4581 L 1189.3233,676.73241 L 1184.9684,678.47437 L 1175.8231,681.08731 L 1166.6778,686.74868 L 1164.9358,688.92613 L 1165.8068,706.78122 L 1166.2423,710.70063 L 1158.4035,722.02337 L 1144.0323,737.70101 L 1142.7259,744.66885 L 1144.9033,755.99159 L 1151.4357,775.58864 L 1161.4519,777.3306 L 1172.7747,777.3306 L 1183.2264,780.81452 L 1180.6135,798.23413 L 1177.5651,805.63746 L 1167.9843,818.26667 L 1154.4841,830.46039 L 1136.1935,848.75097 L 1135.758,853.10587 L 1137.9355,860.07371 L 1142.2904,872.70292 L 1144.0323,875.31586 L 1149.2582,884.89664 L 1147.0808,889.68703 L 1135.758,887.94507 L 1124.8708,870.96096 L 1123.5643,867.04155 L 1104.4027,847.87999 L 1102.6608,844.39607 L 1100.9188,835.25078 L 1103.5317,826.97647 L 1109.1931,821.75059 L 1114.419,818.26667 L 1125.7417,813.47628 L 1130.9676,811.73432 L 1137.5,809.55687 L 1142.2904,807.81491 L 1146.6453,793.00825 L 1144.9033,789.08884 L 1138.371,777.76609 L 1133.1451,768.18531 L 1136.629,752.94316 L 1131.8386,748.58826 L 1125.7417,740.74944 L 1123.5643,728.99121 L 1129.6612,715.92651 L 1134.0161,714.18455 L 1138.8064,715.49102 L 1144.0323,715.05553 L 1151.0002,712.0071 L 1152.3066,711.13612 L 1153.1776,708.08769 L 1153.6131,704.16828 L 1149.6937,701.11985 L 1144.0323,701.55534 L 1134.887,691.10358 L 1141.8549,688.92613 L 1141.8549,681.5228 L 1138.371,678.47437 L 1131.8386,673.24849 L 1125.3063,668.89359 L 1114.419,658.00633 L 1111.8061,651.03849 L 1117.4674,637.5383 L 1120.5159,631.87693 L 1134.887,626.21556 L 1140.1129,624.03811 L 1144.0323,603.57008 L 1139.2419,599.65067 L 1125.3063,587.45695 L 1120.0804,571.77931 L 1122.2578,565.24696 L 1118.3384,554.7952 L 1143.5968,550.00481 L 1149.6937,544.34344 L 1156.226,538.24658 L 1161.4519,538.24658 L 1168.8553,538.68207 L 1176.6941,540.85952 L 1195.8556,545.21442 L 1208.9203,546.52089 C 1208.9203,546.52089 1213.2752,546.0854 1215.4527,546.52089 C 1217.6301,546.95638 1230.6948,550.87579 1236.7917,552.18226 C 1242.8886,553.48873 1249.4209,554.7952 1252.0339,555.66618 C 1254.6468,556.53716 1253.7758,556.10167 1255.9533,556.53716 C 1258.1307,556.97265 1265.9695,560.89206 1265.9695,560.89206 L 1268.147,571.77931 L 1268.147,578.74715 L 1275.5503,593.55381 L 1279.4697,603.13459 L 1285.1311,613.15086 L 1282.0827,617.07027 L 1276.8568,629.69948 L 1275.1148,632.74791 L 1272.9374,640.58673 L 1269.8889,645.37712 L 1264.2276,644.94163 L 1251.1629,634.92536 L 1241.5821,631.44144 L 1237.6627,632.74791 L 1233.3078,644.94163 C 1233.3078,644.94163 1233.7433,647.99006 1233.3078,649.73202 C 1232.8723,651.47398 1235.0497,670.63555 1235.0497,670.63555 L 1238.0982,672.813 L 1243.324,678.47437 L 1254.2113,682.82927 L 1269.018,693.28103 L 1274.2438,691.97456 L 1281.2117,687.61966 L 1285.5666,679.34535 C 1285.5666,679.34535 1286.4376,676.73241 1289.486,674.11947 C 1292.5344,671.50653 1308.2121,662.79673 1308.2121,662.79673 L 1324.7607,661.05476 L 1328.2446,653.65143 L 1323.4542,635.79634 L 1319.0993,624.4736 L 1325.6317,611.84439 L 1329.9866,604.00557 L 1334.3415,595.29577 L 1335.6479,587.45695 L 1334.3415,582.66656 L 1330.8575,577.87617 L 1323.4542,572.65029 L 1309.5185,571.77931 L 1302.5507,564.81147 L 1296.0183,558.71461 L 1289.486,558.27912 C 1289.486,558.27912 1281.2117,558.71461 1279.4697,558.27912 C 1277.7278,557.84363 1274.2438,554.7952 1274.2438,554.7952 L 1281.2117,552.18226 L 1286.4376,549.56932 L 1301.6797,540.85952 L 1317.3574,531.71422 L 1325.6317,523.8754 L 1322.1477,516.03658 L 1330.8575,511.24619 L 1323.0187,504.71384 L 1309.083,506.4558 L 1300.3732,501.22992 L 1283.3891,488.60071 L 1282.5182,478.58444 L 1285.5666,465.95523 L 1294.2764,462.03582 L 1316.0509,447.66465 L 1320.4058,435.03544 L 1321.2768,428.50309 L 1336.9544,401.5027 L 1347.8417,381.03467 L 1354.8095,360.13115 L 1355.245,348.37292 L 1348.2771,340.96959 L 1345.6642,333.56626 L 1338.2609,321.80803 L 1332.5995,319.63058 L 1329.1156,315.27568 L 1318.6638,310.92078 L 1293.4054,310.48529 L 1283.8246,307.43686 L 1267.7115,309.61431 L 1258.1307,304.38843 C 1258.1307,304.38843 1235.9207,295.24314 1233.7433,293.93667 C 1231.5658,292.6302 1211.5333,296.9851 1211.5333,296.9851 L 1182.7909,305.25941 L 1160.5809,311.79176 L 1165.3713,323.98548 L 1158.4035,329.64685 L 1145.7743,321.80803 L 1127.9192,318.32411 L 1113.1125,318.32411 L 1091.338,323.54999 L 1081.7572,330.51783 L 1080.4508,339.22763 L 1080.8863,344.889 L 1085.2412,357.08272 L 1090.467,364.05056 L 1097.8704,370.14742 L 1092.6445,380.59918 L 1068.2571,393.22839 L 1054.7569,408.47054 L 1028.6275,402.80917 L 1015.5628,404.11564 L 1004.6755,398.01878 L 1001.1916,379.29271 L 995.53022,361.87311 L 997.70767,354.03429 L 990.73983,345.32449 L 983.3365,331.8243 L 981.59454,329.21136 L 984.64297,323.54999 L 988.12689,321.37254 L 1002.0626,314.84019 L 1013.8208,312.66274 L 1020.3532,310.92078 L 1038.6437,304.82392 L 1034.7243,300.03353 L 1020.7886,291.75922 L 999.88512,284.35588 L 995.09473,281.74294 L 972.44925,266.50079 L 967.22337,270.85569 L 965.04592,273.03314 L 967.22337,278.25902 L 965.04592,283.4849 C 965.04592,283.4849 948.4973,288.2753 946.31985,288.71079 C 944.1424,289.14628 925.41632,292.6302 925.41632,292.6302 L 925.41632,297.42059 L 933.25514,303.95294 L 948.06181,308.30784 L 951.11024,310.92078 L 961.562,330.95332 L 957.64259,336.61469 L 932.81965,347.06645 L 910.60966,337.48567 C 910.60966,337.48567 884.04477,326.59842 882.30281,326.16293 C 880.56085,325.72744 880.12536,325.29195 880.12536,325.29195 L 876.64144,313.53372 L 880.56085,310.92078 L 894.06104,305.6949 L 902.77084,303.08196 L 903.64182,293.93667 C 903.64182,293.93667 877.51242,269.11373 874.0285,266.50079 C 870.54458,263.88785 863.57674,278.69451 863.57674,278.69451 L 859.65733,270.85569 L 854.43145,262.58138 L 849.20557,257.79099 L 842.23773,254.74256 L 836.14087,257.79099 L 834.8344,260.40393 L 834.39891,263.88785 L 826.56009,261.27491 L 822.64068,257.79099 L 812.18891,253.43609 L 807.83401,251.69413 L 803.47911,249.95217 L 799.99519,249.95217 L 799.12421,256.48452 L 798.25323,266.50079 L 793.89833,271.29118 L 794.33382,275.21059 C 794.33382,275.21059 801.30166,282.17843 802.17264,284.35588 C 803.04362,286.53333 803.9146,290.01726 803.9146,290.01726 L 807.39852,293.50118 L 813.93088,298.29157 L 799.99519,295.67863 L 794.33382,299.16255 L 783.01108,304.38843 L 781.70461,311.35627 L 782.57559,313.53372 L 785.18853,319.63058 L 789.54343,325.29195 L 779.09167,325.72744 L 776.47873,323.1145 L 774.30128,321.80803 L 770.38187,326.16293 L 769.51089,331.38881 L 768.20442,342.27606 L 768.63991,349.67939 L 767.76893,354.03429 L 772.12383,358.82468 L 776.47873,359.69566 L 783.01108,359.69566 L 786.495,358.82468 L 790.8499,357.9537 L 793.46284,358.82468 L 793.89833,366.22801 L 795.64029,370.14742 L 799.5597,373.19585 L 796.94676,383.21212 L 793.89833,383.64761 L 780.39814,379.29271 L 771.25285,380.59918 L 765.59148,380.59918 L 760.3656,381.47016 L 759.05913,385.82506 L 761.23658,391.48643 L 760.80109,397.58329 C 760.80109,397.58329 760.80109,398.88976 759.93011,400.63172 C 759.05913,402.37368 758.62364,404.55113 759.05913,406.29309 C 759.49462,408.03505 760.80109,409.34152 760.80109,409.34152 L 765.59148,409.34152 L 768.63991,406.72858 L 771.68834,403.68015 L 775.17226,401.5027 L 777.34971,401.06721 L 779.52716,401.5027 L 775.17226,409.34152 L 776.91422,411.51897 L 775.60775,415.87388 L 772.55932,419.79329 L 769.0754,421.53525 L 766.89795,421.97074 L 762.54305,423.27721 L 760.80109,421.53525 L 756.88168,417.61584 L 752.09129,417.61584 L 749.91384,420.22878 L 750.34933,424.58368 L 750.34933,426.32564 L 747.3009,436.7774 L 748.60737,438.08387 L 752.96227,437.21289 L 755.57521,436.34191 L 752.09129,444.18073 L 744.68796,450.27759 L 739.89757,455.06798 L 731.62326,456.80994 L 728.57483,456.37445 L 725.09091,455.06798 L 722.91346,457.68092 L 722.91346,458.98739 L 724.21993,466.82621 L 723.78444,470.31013 L 726.83287,472.92307 L 731.62326,479.01993 L 732.92973,484.24581 L 733.36522,485.11679 L 740.33306,490.34267 L 741.63953,497.31051 L 742.946,501.22992 L 747.3009,502.97188 L 751.22031,504.27835 L 753.83325,504.27835 L 759.05913,502.53639 L 764.28501,499.92345 L 769.94638,498.18149 L 778.65618,497.31051 L 781.26912,497.746 L 787.36598,496.43953 L 792.59186,490.34267 L 793.02735,487.29424 L 794.33382,479.01993 L 793.46284,474.22954 L 790.8499,471.18111 L 780.39814,469.43915 L 775.17226,475.10052 L 771.68834,481.63287 L 757.75266,492.08463 L 753.83325,495.56855 L 751.6558,491.64914 L 762.10756,470.74562 L 758.62364,464.21327 L 760.3656,452.01955 L 766.89795,453.32602 L 773.4303,452.01955 L 777.34971,450.27759 L 782.57559,453.76151 L 787.36598,454.63249 L 789.10794,454.197 L 796.94676,454.63249 L 798.68872,458.5519 C 798.68872,458.5519 801.30166,462.47131 801.73715,464.21327 C 802.17264,465.95523 802.17264,473.79405 802.17264,473.79405 L 804.78558,477.71346 L 810.88244,483.37483 L 813.49539,485.11679 L 823.94715,489.0362 L 826.99558,494.26208 C 826.99558,494.26208 826.99558,494.26208 827.86656,496.00404 C 828.73754,497.746 830.04401,502.1009 830.04401,502.1009 C 830.04401,502.1009 830.04401,502.97188 830.4795,504.71384 C 830.91499,506.4558 833.52793,511.68168 833.96342,513.42364 C 834.39891,515.1656 832.65695,517.77854 832.65695,517.77854 L 830.4795,523.8754 L 828.30205,526.05285 L 824.81813,528.2303 L 823.94715,524.31089 L 823.07617,516.47207 L 823.07617,512.98815 L 821.7697,509.06874 L 818.72127,504.71384 L 813.49539,502.53639 C 813.49539,502.53639 812.62441,501.66541 810.44695,501.66541 C 808.2695,501.66541 804.78558,503.40737 804.78558,503.40737 L 797.81774,510.8107 L 798.68872,515.60109 L 795.2048,523.43991 L 790.8499,525.61736 L 789.54343,526.92383 L 779.09167,524.31089 L 775.60775,521.26246 L 773.4303,518.64952 L 772.12383,508.19776 L 772.55932,507.32678 L 762.97854,515.1656 L 758.62364,520.82697 L 754.26874,521.69795 L 753.83325,523.43991 L 756.0107,525.61736 L 759.05913,526.05285 L 762.10756,524.74638 L 764.28501,524.31089 L 766.02697,525.18187 L 769.0754,529.97226 L 770.38187,533.02069 L 766.89795,539.11756 z M 1048.66,553.05324 L 1049.531,567.8599 L 1054.7569,580.05362 L 1054.7569,585.2795 L 1049.531,597.47322 L 1049.531,614.89282 L 1041.6922,624.4736 L 1041.6922,626.21556 L 1055.6278,636.66732 L 1063.4667,640.15124 L 1073.0474,643.63516 L 1073.0474,647.11908 L 1079.1443,658.44183 L 1080.0153,658.44183 L 1089.5961,633.1834 L 1091.338,622.73164 L 1093.08,607.92498 L 1093.951,595.73126 L 1091.338,585.2795 L 1081.7572,573.95676 L 1065.2086,546.95638 L 1050.402,526.92383 L 1037.3373,510.37521 L 1032.1114,503.40737 L 1046.0471,498.18149 L 1032.9824,463.34229 L 1000.7561,450.27759 L 991.17532,447.66465 L 982.46552,452.01955 L 978.9816,457.24543 L 974.6267,470.31013 L 968.52984,488.60071 C 968.52984,488.60071 966.78788,491.21365 965.9169,494.69757 C 965.04592,498.18149 964.17494,506.89129 964.17494,506.89129 L 967.65886,513.85913 L 977.23964,525.18187 L 1002.4981,543.47246 L 1011.2079,538.24658 L 1018.1757,533.0207 L 1032.1114,535.63364 L 1035.5953,547.82736 L 1048.66,553.05324 z"
     id="path3670"
     style="fill:#000000;fill-opacity:1;fill-rule:evenodd;stroke:none;stroke-width:1px;stroke-linecap:butt;stroke-linejoin:miter;stroke-opacity:1" />
</svg>
