<?xml version="1.0" encoding="iso-8859-1"?>
<!-- Generator: Adobe Illustrator 9.0, SVG Export Plug-In  -->
<!DOCTYPE svg PUBLIC "-//W3C//DTD SVG 20000303 Stylable//EN"   "http://www.w3.org/TR/2000/03/WD-SVG-20000303/DTD/svg-20000303-stylable.dtd" [
	<!ENTITY st0 "fill-rule:nonzero;clip-rule:nonzero;fill:#19191C;stroke:#FFFFFF;stroke-width:0;stroke-miterlimit:4;">
	<!ENTITY st1 "stroke:none;">
]>
<svg  width="287.22754pt" height="60.25pt" viewBox="0 0 287.22754 60.25" xml:space="preserve">
	<g id="Layer_x0020_1" style="&st0;">
		<path style="&st1;" d="M66.87109,58.47461c0,0.60156-0.30078,0.90039-0.89844,0.90039h-6.19922c-0.59961,0-0.89844-0.29883-0.89844-0.90039l-0.26953-46.5293h-0.18164c-1.26172,2.57813-3.21094,6.47656-5.85156,11.69336l-8.01563,15.74219
			c-4.02344,7.91602-6.99414,14.09375-8.91602,18.53125C34.98047,59.4707,34.43945,60.25,34.02148,60.25c-0.18164,0-0.33203,0-0.45117,0h0.35938l-0.81836-0.62891c-0.66602-1.97852-3.33008-7.88477-7.99414-17.7207l-8.17773-17.36133
			c-1.27344-2.87891-3.21094-7.19531-5.81445-12.95313c-0.59766,9.04297-1.10352,19.61328-1.52148,31.70898L9.15625,53.89453c0,1.01953-0.06055,2.51563-0.17969,4.49219c-0.06055,0.59961-0.53711,0.92969-1.43164,0.98828
			c0.5957-0.05859-0.0918-0.08984-2.06055-0.08984c-0.59766,0-0.89453-0.32813-0.89453-0.98828c0,0.06055,0.11914-1.49609,0.36133-4.66992l0.90234-10.95898C6.39453,35.42188,7.02734,24.49414,7.75,9.88086V8.5332c0.05859-2.15625-0.24219-3.65234-0.90234-4.49023
			S4.77539,2.63672,2.61328,2.33594C2.07227,2.2168,1.50195,2.11133,0.90039,2.02148S0,1.61719,0,1.07813C0,0.41992,0.32813,0.06055,0.98828,0c-0.35938,0,0.75,0,3.33008,0C5.1582,0,6.41797,0,8.09961,0c1.61914,0,2.84961,0,3.68945,0
			c0.35938,0,0.62891,0.17969,0.81055,0.53906l17.54883,34.8125c1.32031,2.75977,3.39063,6.86719,6.21094,12.32422h0.17969c1.25977-2.1543,3.57031-6.64258,6.92969-13.4668L60.20898,0.53906C60.38867,0.17969,60.6582,0,61.01953,0c1.37891,0,3.38867,0,6.0293,0
			c2.69922,0,4.71094,0,6.03125,0c0.66016,0,0.99023,0.33008,0.99023,0.99023c0,0.59961-0.48047,0.98828-1.43945,1.16797c-0.7207,0.0625-1.44141,0.12305-2.16016,0.18164c-2.2207,0.35938-3.66016,1.13867-4.32031,2.33789
			c-0.48047,0.90039-0.7207,2.58008-0.7207,5.03906v0.98828c0,2.87891,0.31445,14.03516,0.94531,33.4668c0.33008,9.65625,0.49609,14.42383,0.49609,14.30273z"/>
		<g style="&st1;">
			<path d="M98.94238,10.45947c-0.8335,0.8335-1.82129,1.58594-2.93701,2.23633c-0.40576,0.20166-0.64258,0.56641-0.64258,1.01367c-0.18115,1.19629-0.60889,2.71533-1.26709,4.45313L78.58789,58.37207l-0.00049,0.07959c0,0.6709,0.45459,1.07178,1.21631,1.07178
				c2.50342,0,3.14697-0.3042,3.34375-0.76123c0.00195-0.00488,1.95313-4.9917,1.95313-4.9917l4.02588-10.92725c0.35889-1.06885,0.61328-1.42725,0.73389-1.54785c0.08154-0.08203,0.37402-0.27197,1.32031-0.27197h11.375c1.06592,0,1.71484,0.47754,2.04199,1.50293
				l5.32959,16.20068c0.14209,0.5,0.52734,0.79639,1.05225,0.79639h5.11133c0.71729,0,1.146-0.40088,1.146-1.07178c0-0.12402,0-0.21387-7.22314-20.85742c-5.0415-14.47852-7.70117-22.21436-8.13086-23.64746c0.00146,0.00537-0.23828-0.83252-0.23828-0.83252
				l-0.33643-1.17578c-0.479-1.31641-0.95703-1.89063-1.55908-1.89063l-0.80664,0.41162z M93.77539,28.61377c1.61523-4.41162,2.69824-7.2041,3.29297-8.51904c0.53711,1.31592,1.51074,4.07031,2.95898,8.39795c2.26318,6.76172,2.60498,8.18848,2.60693,8.4375
				c0,0.34131-0.94238,0.36768-1.23096,0.36768h-9.86328c-0.54932,0-0.65137-0.12256-0.65186-0.12354c0,0-0.00293-0.02588-0.00293-0.02686c0.00488-0.20947,0.29688-1.45996,2.89014-8.53369z"/>
			<path d="M128.42041,11.14014l-3.13916,0.06982c-1.72021,0.11621-2.57764,0.6709-2.57764,1.6499c0,0.43311,0.16943,1.18506,1.30469,1.35791l1.7666,0.21777c1.05127,0.12646,1.77637,0.49512,2.14111,1.09473c0.30225,0.47314,0.49951,1.35156,0.59131,2.61816
				l0.07129,4.2915v35.9375c0,0.71777,0.42725,1.146,1.14209,1.146h4.44141c0.71484,0,1.14209-0.42822,1.14209-1.146V39.18604c0-0.92871,0.38525-1.06982,0.51221-1.11621c0.01221-0.00049,0.31006-0.04639,1.72461-0.04639c1.48389,0,2.55859,0.0918,3.19385,0.27295
				c0.854,0.25732,1.62451,0.88037,2.28467,1.84961l8.84375,13.48047c3.02002,4.57422,3.54883,5.32178,3.67236,5.46289c0.25,0.2876,0.54004,0.43408,0.86084,0.43408h5.54102c1.12842,0,1.21631-0.7666,1.21631-1.00146c0-0.22754,0-0.48584-7.16504-11.07617
				c-6.30518-9.31641-7.00879-11.07275-7.01855-11.39551c0,0,0.01172-0.07129,0.02344-0.14209c5.9209-2.56543,8.93555-6.70313,8.93555-12.31592c0-8.40674-6.17969-12.66943-18.3667-12.66943c-4.19678,0-7.9458,0.07324-11.14209,0.21729z M135.3042,32.73877V15.90088
				c0-0.96191,0.11768-1.23242,0.15381-1.29248c0.05762-0.09082,0.54932-0.58496,4.0791-0.58496c3.31104,0,6.00928,0.96533,8.02002,2.86963c2.00488,1.90088,3.02148,4.52051,3.02148,7.78711c0,6.97656-3.44727,10.36768-10.53955,10.36768
				c-2.82178,0-4.02832-0.14111-4.57471-0.2793c-0.10059-0.4502-0.16016-1.10156-0.16016-2.02979z"/>
			<path d="M173.53613,11.22559c-0.01514,0-2.87939,0-2.87939,0c-1.68506,0.17236-2.51709,0.72656-2.51709,1.6499c0,0.52588,0.28613,1.20117,1.64795,1.4292c0.01416,0.00195,2.09424,0.28857,2.09424,0.28857c1.3335,0.29395,2.11963,1.03467,2.37207,2.25879
				c0.05322,0.21484,0.13574,1.00781,0.13574,4.09375v37.46484c0,0.65869,0.40186,1.07568,1.10254,1.14404c0.02979,0.00146,3.91846,0.07422,3.91846,0.07422l7.17969,0.14453c5.4126,0,9.85693-0.98926,13.20996-2.94043
				c4.19092-2.4751,6.31494-6.33252,6.31494-11.46729c0-3.15723-0.896-5.86621-2.66309-8.05078c-1.76563-2.17822-4.19531-3.65771-7.22168-4.39746c-0.48975-0.10938-0.74658-0.28467-0.88867-0.49072c4.81348-2.4082,7.27344-5.78271,7.27344-10.05127
				c0-7.59912-6.06641-11.45264-18.03076-11.45264c-4.1582,0-7.87451,0.10205-11.04834,0.30273z M181.35059,31.94092c-0.03906-0.03906-0.23535-0.2915-0.23535-1.42676V15.90088c0-1.09033,0.44141-1.3833,0.77344-1.5083
				c0.64941-0.24512,1.70703-0.36914,3.14307-0.36914c3.11084,0,5.59814,0.78857,7.39355,2.34326c1.9707,1.59619,2.96436,3.93164,2.96436,6.9502c0,3.55811-1.20459,5.93115-3.68311,7.25391c-1.86426,1.06787-4.83643,1.60596-8.84473,1.60596
				c-1.21191,0-1.47119-0.19678-1.51123-0.23584z M181.11523,47.22705V36.56299c0-0.76709,0.34473-1.19531,1.11719-1.38818c0.11816-0.01807,0.66748-0.05957,2.6333-0.05957c4.20166,0,7.55273,0.93994,9.96143,2.79443c2.6123,2.01904,3.9375,5.08105,3.9375,9.10059
				c0,6.50195-3.55713,9.6626-10.87549,9.6626c-2.97705,0-4.87891-0.8457-5.81494-2.58447c-0.63623-1.23047-0.95898-3.53857-0.95898-6.86133z"/>
			<path d="M220.33984,11.17285h-7.63477c-0.78857,0.0708-1.21826,0.54004-1.21826,1.28857c0,0.45361,0.23438,1.04395,1.35107,1.2793c0.04883,0.00732,1.67969,0.08154,1.67969,0.08154c1.68115,0.26318,2.82422,0.8042,3.33301,1.60205
				c0.22754,0.39844,0.51172,1.41113,0.51172,3.875v39.08008c0,0.71631,0.42773,1.14404,1.14355,1.14404h26.24805c0.30957,0,0.75488-0.13477,1.12305-0.77637c0.25586-0.44678,0.37988-0.83789,0.37988-1.1958c0-0.70654-0.42773-1.12842-1.14551-1.12842h-12.0918
				c-5.02637,0-6.85449-0.80811-7.50293-1.48584c-0.94824-0.99121-1.42969-3.51904-1.42969-7.5127V12.31689c0-0.71631-0.42773-1.14404-1.14551-1.14404h-3.60156z"/>
			<path d="M279.4707,11.04834l-3.32422,0.12451h-16.56055l-7.55859-0.25c-0.36621,0-1.21777,0.13965-1.21777,1.43311c0,0.36963,0.14551,1.02246,1.12207,1.24268l1.60156,0.32813c1.33887,0.30225,2.23828,0.83838,2.65625,1.58936
				c0.39844,0.62305,0.59473,1.7085,0.59473,3.25l-0.07031,39.61035c0,0.71875,0.42773,1.14697,1.14551,1.14697h27.79102c0.45313,0,0.84375-0.29199,1.16309-0.86768c0.27832-0.50098,0.41406-0.92188,0.41406-1.28613c0-0.46582-0.24512-1.06152-1.41602-1.25195
				l-0.03711-0.00586c-0.03027-0.00586-0.04297-0.02441-0.07617-0.02783c0,0,0.03125,0.02783,0.03613,0.03174c-0.03711,0.00391-0.08691,0.00879-0.08691,0.00879l-1.72559,0.02881c-15.69434,0-18.79102-0.79639-19.24023-1.271
				c-0.55469-0.58447-1.21582-2.2251-1.21582-6.72754V37.56885c0-1.15869,0.25977-1.34033,0.29004-1.35693c0.06055-0.0376,0.32129-0.16113,1.66211-0.16113h13.46484c0.48145,0,1.28809-0.25195,1.28809-1.93701c0-1.29346-0.80078-1.43311-1.14551-1.43311h-13.60742
				c-1.47266,0-1.74805-0.15723-1.77441-0.17529c0.00391,0.00098-0.17773-0.21094-0.17773-1.41504V16.11572c0-1.21338,0.12207-1.45508,0.13574-1.479c0.14648-0.2793,0.54883-0.40039,1.16797-0.40039h6.4082c2.96973,0,5.0166,0.14063,6.08496,0.41797
				c2.17871,0.54492,3.65918,2.0332,4.52832,4.55127c0.00098,0.00098,0.46582,1.50195,0.46582,1.50195c0.22363,0.70117,0.71289,1.0874,1.37793,1.0874c0.85254,0,1.36035-0.48486,1.36035-1.29639c0-0.68262-0.10645-2.15674-0.32617-4.50635
				c-0.29688-3.1499-0.4873-3.89844-0.60547-4.1875c-0.31445-0.76709-0.85449-0.88184-1.14941-0.88184l-3.44336,0.12549z"/>
		</g>
	</g>
</svg>
