<?xml version="1.0" encoding="UTF-8" standalone="no"?>
<!-- Created with Inkscape (http://www.inkscape.org/) -->
<svg
   xmlns:svg="http://www.w3.org/2000/svg"
   xmlns="http://www.w3.org/2000/svg"
   version="1.0"
   width="128"
   height="128"
   id="svg1655">
  <defs
     id="defs1658" />
  <g
     id="layer4" />
  <g
     style="display:inline"
     id="layer2" />
  <path
     d="M 46.117669,18.88027 C 45.116517,18.963819 44.213058,19.510316 43.687669,20.378263 C 43.162279,21.246211 43.077854,22.331703 43.457804,23.274384 L 48.613344,36.789614 L 35.412534,41.982659 C 33.789377,42.626128 32.971699,44.465018 33.606452,46.110463 C 34.241206,47.755908 36.088025,48.584814 37.711182,47.941344 L 50.911993,42.7483 L 63.521723,75.670868 L 29.567398,89.885162 L 10.882669,89.885162 C 9.7457879,89.868863 8.6974224,90.487563 8.1242902,91.483022 C 7.551158,92.478482 7.551158,93.683283 8.1242902,94.678741 C 8.6974224,95.674198 9.7457879,96.2929 10.882669,96.276601 L 116.55483,96.276601 C 117.69171,96.2929 118.74008,95.674201 119.31321,94.678741 C 119.88634,93.683281 119.88634,92.47848 119.31321,91.483022 C 118.74008,90.487565 117.69171,89.868863 116.55483,89.885162 L 95.637129,89.885162 C 104.65835,75.668907 108.01699,57.029172 108.01699,57.029171 L 69.33402,73.207501 L 56.789966,40.418088 L 68.939966,35.624508 C 70.379771,35.082455 71.227101,33.559448 70.943074,32.029324 C 70.659045,30.4992 69.326324,29.407264 67.790642,29.432802 C 67.407605,29.441061 67.029259,29.520025 66.674155,29.665823 L 54.491317,34.459402 L 49.335777,20.977461 C 48.851845,19.623112 47.534005,18.764296 46.117669,18.88027 z "
     style="fill:#000000;fill-opacity:1;fill-rule:evenodd;stroke:none;stroke-width:6;stroke-linecap:round;stroke-linejoin:miter;stroke-miterlimit:4;stroke-dasharray:none;stroke-opacity:1"
     id="path2275" />
</svg>
