<?xml version="1.0" encoding="UTF-8" standalone="no"?>
<!-- Created with Inkscape (http://www.inkscape.org/) -->
<svg
   xmlns:svg="http://www.w3.org/2000/svg"
   xmlns="http://www.w3.org/2000/svg"
   version="1.0"
   width="128"
   height="128"
   id="svg1655">
  <defs
     id="defs1658" />
  <g
     id="layer4" />
  <g
     style="display:inline"
     id="layer2" />
  <g
     id="g3291">
    <path
       d="M 64,9.0625 C 63.014684,9.0642107 62.132384,9.6731221 61.78125,10.59375 L 21.3125,115.90625 C 21.024073,116.63944 21.117341,117.46787 21.561571,118.11857 C 22.005802,118.76928 22.74337,119.15785 23.53125,119.15625 L 104.46875,119.15625 C 105.25663,119.15785 105.9942,118.76928 106.43843,118.11857 C 106.88266,117.46787 106.97593,116.63944 106.6875,115.90625 L 66.21875,10.59375 C 65.867616,9.6731221 64.985316,9.0642107 64,9.0625 z "
       style="fill:#e85752;fill-opacity:1;fill-rule:evenodd;stroke:none;stroke-width:4.75767469;stroke-linecap:butt;stroke-linejoin:round;stroke-miterlimit:4;stroke-dasharray:none;stroke-opacity:1"
       id="path3289" />
    <path
       d="M 64,9.0625 C 63.014684,9.0642107 62.132384,9.6731221 61.78125,10.59375 L 21.3125,115.90625 C 21.024073,116.63944 21.117341,117.46787 21.561571,118.11857 C 22.005802,118.76928 22.74337,119.15785 23.53125,119.15625 L 104.46875,119.15625 C 105.25663,119.15785 105.9942,118.76928 106.43843,118.11857 C 106.88266,117.46787 106.97593,116.63944 106.6875,115.90625 L 66.21875,10.59375 C 65.867616,9.6731221 64.985316,9.0642107 64,9.0625 z M 64,18.09375 L 101,114.375 L 27,114.375 L 64,18.09375 z "
       style="fill:#000000;fill-opacity:1;fill-rule:evenodd;stroke:none;stroke-width:4.75767469;stroke-linecap:butt;stroke-linejoin:round;stroke-miterlimit:4;stroke-dasharray:none;stroke-opacity:1"
       id="path2224" />
  </g>
</svg>
