<?xml version="1.0" encoding="UTF-8" standalone="no"?>
<!-- Created with Inkscape (http://www.inkscape.org/) -->

<svg
   xmlns:dc="http://purl.org/dc/elements/1.1/"
   xmlns:cc="http://creativecommons.org/ns#"
   xmlns:rdf="http://www.w3.org/1999/02/22-rdf-syntax-ns#"
   xmlns:svg="http://www.w3.org/2000/svg"
   xmlns="http://www.w3.org/2000/svg"
   xmlns:sodipodi="http://sodipodi.sourceforge.net/DTD/sodipodi-0.dtd"
   xmlns:inkscape="http://www.inkscape.org/namespaces/inkscape"
   width="64"
   height="64"
   id="svg4076"
   version="1.1"
   inkscape:version="0.48.2 r9819"
   sodipodi:docname="turn-roundabout-far.svg">
  <defs
     id="defs4078">
    <filter
       color-interpolation-filters="sRGB"
       id="filter5108"
       inkscape:label="Drop shadow"
       width="1.5"
       height="1.5"
       x="-0.25"
       y="-0.25">
      <feGaussianBlur
         id="feGaussianBlur5110"
         in="SourceAlpha"
         stdDeviation="0.500000"
         result="blur" />
      <feColorMatrix
         id="feColorMatrix5112"
         result="bluralpha"
         type="matrix"
         values="1 0 0 0 0 0 1 0 0 0 0 0 1 0 0 0 0 0 0.500000 0 " />
      <feOffset
         id="feOffset5114"
         in="bluralpha"
         dx="1.000000"
         dy="1.000000"
         result="offsetBlur" />
      <feMerge
         id="feMerge5116">
        <feMergeNode
           id="feMergeNode5118"
           in="offsetBlur" />
        <feMergeNode
           id="feMergeNode5120"
           in="SourceGraphic" />
      </feMerge>
    </filter>
    <filter
       color-interpolation-filters="sRGB"
       id="filter5991"
       inkscape:label="Drop shadow"
       width="1.5"
       height="1.5"
       x="-0.25"
       y="-0.25">
      <feGaussianBlur
         id="feGaussianBlur5993"
         in="SourceAlpha"
         stdDeviation="1,000000"
         result="blur" />
      <feColorMatrix
         id="feColorMatrix5995"
         result="bluralpha"
         type="matrix"
         values="1 0 0 0 0 0 1 0 0 0 0 0 1 0 0 0 0 0 0,500000 0 " />
      <feOffset
         id="feOffset5997"
         in="bluralpha"
         dx="1,500000"
         dy="1,500000"
         result="offsetBlur" />
      <feMerge
         id="feMerge5999">
        <feMergeNode
           id="feMergeNode6001"
           in="offsetBlur" />
        <feMergeNode
           id="feMergeNode6003"
           in="SourceGraphic" />
      </feMerge>
    </filter>
    <filter
       color-interpolation-filters="sRGB"
       id="filter4227"
       inkscape:label="Drop shadow"
       width="1.5"
       height="1.5"
       x="-0.25"
       y="-0.25">
      <feGaussianBlur
         id="feGaussianBlur4229"
         in="SourceAlpha"
         stdDeviation="1,000000"
         result="blur" />
      <feColorMatrix
         id="feColorMatrix4231"
         result="bluralpha"
         type="matrix"
         values="1 0 0 0 0 0 1 0 0 0 0 0 1 0 0 0 0 0 0,500000 0 " />
      <feOffset
         id="feOffset4233"
         in="bluralpha"
         dx="1,500000"
         dy="1,500000"
         result="offsetBlur" />
      <feMerge
         id="feMerge4235">
        <feMergeNode
           id="feMergeNode4237"
           in="offsetBlur" />
        <feMergeNode
           id="feMergeNode4239"
           in="SourceGraphic" />
      </feMerge>
    </filter>
    <filter
       color-interpolation-filters="sRGB"
       id="filter4241"
       inkscape:label="Drop shadow"
       width="1.5"
       height="1.5"
       x="-0.25"
       y="-0.25">
      <feGaussianBlur
         id="feGaussianBlur4243"
         in="SourceAlpha"
         stdDeviation="1,000000"
         result="blur" />
      <feColorMatrix
         id="feColorMatrix4245"
         result="bluralpha"
         type="matrix"
         values="1 0 0 0 0 0 1 0 0 0 0 0 1 0 0 0 0 0 0,500000 0 " />
      <feOffset
         id="feOffset4247"
         in="bluralpha"
         dx="1,500000"
         dy="1,500000"
         result="offsetBlur" />
      <feMerge
         id="feMerge4249">
        <feMergeNode
           id="feMergeNode4251"
           in="offsetBlur" />
        <feMergeNode
           id="feMergeNode4253"
           in="SourceGraphic" />
      </feMerge>
    </filter>
    <filter
       color-interpolation-filters="sRGB"
       id="filter4255"
       inkscape:label="Drop shadow"
       width="1.5"
       height="1.5"
       x="-0.25"
       y="-0.25">
      <feGaussianBlur
         id="feGaussianBlur4257"
         in="SourceAlpha"
         stdDeviation="1,000000"
         result="blur" />
      <feColorMatrix
         id="feColorMatrix4259"
         result="bluralpha"
         type="matrix"
         values="1 0 0 0 0 0 1 0 0 0 0 0 1 0 0 0 0 0 0,500000 0 " />
      <feOffset
         id="feOffset4261"
         in="bluralpha"
         dx="1,500000"
         dy="1,500000"
         result="offsetBlur" />
      <feMerge
         id="feMerge4263">
        <feMergeNode
           id="feMergeNode4265"
           in="offsetBlur" />
        <feMergeNode
           id="feMergeNode4267"
           in="SourceGraphic" />
      </feMerge>
    </filter>
    <filter
       color-interpolation-filters="sRGB"
       id="filter4269"
       inkscape:label="Drop shadow"
       width="1.5"
       height="1.5"
       x="-0.25"
       y="-0.25">
      <feGaussianBlur
         id="feGaussianBlur4271"
         in="SourceAlpha"
         stdDeviation="1,000000"
         result="blur" />
      <feColorMatrix
         id="feColorMatrix4273"
         result="bluralpha"
         type="matrix"
         values="1 0 0 0 0 0 1 0 0 0 0 0 1 0 0 0 0 0 0,500000 0 " />
      <feOffset
         id="feOffset4275"
         in="bluralpha"
         dx="1,500000"
         dy="1,500000"
         result="offsetBlur" />
      <feMerge
         id="feMerge4277">
        <feMergeNode
           id="feMergeNode4279"
           in="offsetBlur" />
        <feMergeNode
           id="feMergeNode4281"
           in="SourceGraphic" />
      </feMerge>
    </filter>
  </defs>
  <sodipodi:namedview
     id="base"
     pagecolor="#ffffff"
     bordercolor="#666666"
     borderopacity="1.0"
     inkscape:pageopacity="0.0"
     inkscape:pageshadow="2"
     inkscape:zoom="11.21875"
     inkscape:cx="0.40111421"
     inkscape:cy="16"
     inkscape:document-units="px"
     inkscape:current-layer="layer1"
     showgrid="false"
     inkscape:window-width="1258"
     inkscape:window-height="858"
     inkscape:window-x="307"
     inkscape:window-y="53"
     inkscape:window-maximized="0" />
  <metadata
     id="metadata4081">
    <rdf:RDF>
      <cc:Work
         rdf:about="">
        <dc:format>image/svg+xml</dc:format>
        <dc:type
           rdf:resource="http://purl.org/dc/dcmitype/StillImage" />
        <dc:title />
      </cc:Work>
    </rdf:RDF>
  </metadata>
  <g
     inkscape:label="Layer 1"
     inkscape:groupmode="layer"
     id="layer1"
     transform="translate(0,-988.3622)">
    <g
       transform="matrix(2,0,0,2,-321.22893,564.00963)"
       id="g4606"
       style="filter:url(#filter5108)">
      <path
         inkscape:connector-curvature="0"
         sodipodi:nodetypes="cccccccc"
         id="path5696-5"
         d="m 164.48812,226.27503 2.82843,-2.82842 1.25953,1.25953 3.51344,-3.51344 -1.25954,-1.25953 2.82843,-2.82843 -8.04334,1.10486 c 0,0 -0.67608,5.37992 -1.12695,8.06543 z"
         style="font-size:medium;font-style:normal;font-variant:normal;font-weight:normal;font-stretch:normal;text-indent:0;text-align:start;text-decoration:none;line-height:normal;letter-spacing:normal;word-spacing:normal;text-transform:none;direction:ltr;block-progression:tb;writing-mode:lr-tb;text-anchor:start;color:#000000;fill:#eeeeec;fill-opacity:1;fill-rule:nonzero;stroke:none;stroke-width:5;marker:none;visibility:visible;display:inline;overflow:visible;filter:url(#filter5991);enable-background:accumulate;font-family:Bitstream Vera Sans;-inkscape-font-specification:Bitstream Vera Sans" />
      <path
         inkscape:connector-curvature="0"
         id="rect5009-6-6-9"
         d="m 174.06323,237.30481 c 1e-5,1.4167 0,2.83364 0,4.25 l 4.96875,0 0,-4.25 -4.96875,0 z"
         style="font-size:medium;font-style:normal;font-variant:normal;font-weight:normal;font-stretch:normal;text-indent:0;text-align:start;text-decoration:none;line-height:normal;letter-spacing:normal;word-spacing:normal;text-transform:none;direction:ltr;block-progression:tb;writing-mode:lr-tb;text-anchor:start;color:#000000;fill:#eeeeec;fill-opacity:1;fill-rule:nonzero;stroke:none;stroke-width:5;marker:none;visibility:visible;display:inline;overflow:visible;filter:url(#filter5991);enable-background:accumulate;font-family:Bitstream Vera Sans;-inkscape-font-specification:Bitstream Vera Sans" />
      <path
         inkscape:connector-curvature="0"
         id="path5831"
         d="m 170.05225,231.0616 c -0.21286,-0.66027 -0.32784,-1.36449 -0.32784,-2.09557 0,-3.76835 3.05485,-6.82319 6.82319,-6.82319 1.09017,0 2.12063,0.25567 3.03469,0.71032"
         style="fill:none;stroke:#eeeeec;stroke-width:4.35362482;stroke-miterlimit:4;stroke-opacity:1;stroke-dasharray:none;filter:url(#filter5991)" />
      <path
         inkscape:connector-curvature="0"
         id="path5802"
         d="m 183.34837,228.40892 c 0.0149,0.18375 0.0224,0.36954 0.0224,0.55711 l 0,0 c 0,3.76834 -3.05485,6.82318 -6.82319,6.82318 -1.66723,0 -3.19481,-0.59797 -4.37994,-1.59115"
         style="fill:none;stroke:#eeeeec;stroke-width:4.35362482;stroke-miterlimit:4;stroke-opacity:1;stroke-dasharray:none;filter:url(#filter5991)" />
      <path
         inkscape:connector-curvature="0"
         sodipodi:nodetypes="cc"
         id="path5680-09"
         d="m 179.76979,222.94691 c 2.08824,1.03869 3.35018,2.77219 3.54733,5.21201"
         style="opacity:0.54017861;fill:none;stroke:#eeeeec;stroke-width:4.35362482;stroke-miterlimit:4;stroke-opacity:1;stroke-dasharray:none;filter:url(#filter5991)" />
      <path
         inkscape:connector-curvature="0"
         transform="translate(14.987215,1.4563891)"
         id="path4596"
         d="m 152.95399,230.01223 c -0.30399,-1.04432 -0.4305,-2.61584 -0.29056,-3.60932 0.14784,-1.04953 0.42445,-1.95281 0.88133,-2.87803 0.13786,-0.27917 0.20651,-0.47096 0.15256,-0.42618 -0.0846,0.0702 -0.1834,-0.004 -0.71969,-0.53786 l -0.6216,-0.61927 -1.41309,1.4054 c -0.97836,0.97304 -1.40214,1.35733 -1.37748,1.24915 0.0566,-0.24853 0.64392,-4.37532 0.87391,-6.14097 0.11532,-0.88535 0.22617,-1.62622 0.24633,-1.64638 0.0359,-0.0359 7.51917,-1.08253 7.76421,-1.08592 0.0853,-0.001 -0.3128,0.43587 -1.26596,1.38974 l -1.39043,1.39147 0.62285,0.62051 0.62285,0.62052 0.61186,-0.29082 c 1.33755,-0.63574 2.40792,-0.87696 3.8931,-0.87734 1.36169,-3.5e-4 2.30294,0.17946 3.41383,0.65217 l 0.44508,0.18939 -0.84446,1.96714 c -0.69874,1.62771 -0.86182,1.95934 -0.94508,1.92191 -0.0553,-0.0249 -0.33968,-0.13099 -0.63187,-0.2358 -0.49512,-0.17761 -0.59076,-0.19067 -1.40625,-0.19209 -0.79122,-0.001 -0.92608,0.0152 -1.40851,0.17307 -0.8977,0.29378 -1.57531,0.74793 -2.20366,1.47697 -0.38659,0.44853 -0.83276,1.35745 -0.95564,1.94678 -0.12454,0.59731 -0.12343,1.54306 0.002,2.0859 0.0545,0.23492 0.0915,0.43243 0.0822,0.43892 -0.0143,0.01 -1.06015,0.30266 -3.5892,1.00434 l -0.50984,0.14145 -0.0393,-0.13485 0,0 z"
         style="fill:#0057ae;fill-opacity:1;stroke:#0057ae;stroke-width:0.3125;stroke-linecap:round;stroke-linejoin:round;stroke-miterlimit:4;stroke-opacity:1;stroke-dasharray:none;stroke-dashoffset:0" />
      <path
         inkscape:connector-curvature="0"
         transform="translate(14.987215,1.4563891)"
         id="path4598"
         d="m 159.10668,238.11047 0,-1.98565 -0.4536,-0.1408 c -0.76058,-0.2361 -2.38173,-1.13262 -2.66476,-1.47365 -0.0434,-0.0523 0.29584,-0.54038 1.15784,-1.66597 0.67057,-0.87562 1.25591,-1.62968 1.30076,-1.67569 0.0678,-0.0696 0.13345,-0.0464 0.39048,0.13828 0.86834,0.62384 1.76733,0.87999 2.92553,0.83359 1.30729,-0.0524 2.15881,-0.42581 3.10237,-1.36051 0.47103,-0.46661 0.57988,-0.61802 0.85366,-1.1875 0.36251,-0.75401 0.44993,-1.08728 0.50451,-1.92323 l 0.0395,-0.60447 1.71875,-0.0721 c 2.63353,-0.11048 2.48981,-0.11526 2.53994,0.0845 0.0559,0.22274 -0.075,1.7384 -0.20129,2.33138 -0.63429,2.97724 -2.88394,5.53067 -5.76036,6.5382 l -0.51546,0.18055 -1.7e-4,1.98438 -1.6e-4,1.98437 -2.46875,0 -2.46875,0 0,-1.98565 z"
         style="fill:#0057ae;fill-opacity:1;stroke:#0057ae;stroke-width:0.3125;stroke-linecap:round;stroke-linejoin:round;stroke-miterlimit:4;stroke-opacity:1;stroke-dasharray:none;stroke-dashoffset:0" />
    </g>
  </g>
</svg>
