<?xml version="1.0" encoding="UTF-8" standalone="no"?>
<!-- Created with Inkscape (http://www.inkscape.org/) -->

<svg
   xmlns:dc="http://purl.org/dc/elements/1.1/"
   xmlns:cc="http://creativecommons.org/ns#"
   xmlns:rdf="http://www.w3.org/1999/02/22-rdf-syntax-ns#"
   xmlns:svg="http://www.w3.org/2000/svg"
   xmlns="http://www.w3.org/2000/svg"
   xmlns:sodipodi="http://sodipodi.sourceforge.net/DTD/sodipodi-0.dtd"
   xmlns:inkscape="http://www.inkscape.org/namespaces/inkscape"
   width="64"
   height="64"
   id="svg4076"
   version="1.1"
   inkscape:version="0.48.2 r9819"
   sodipodi:docname="turn-roundabout-first.svg">
  <defs
     id="defs4078">
    <filter
       color-interpolation-filters="sRGB"
       id="filter5150"
       inkscape:label="Drop shadow"
       width="1.5"
       height="1.5"
       x="-0.25"
       y="-0.25">
      <feGaussianBlur
         id="feGaussianBlur5152"
         in="SourceAlpha"
         stdDeviation="0.500000"
         result="blur" />
      <feColorMatrix
         id="feColorMatrix5154"
         result="bluralpha"
         type="matrix"
         values="1 0 0 0 0 0 1 0 0 0 0 0 1 0 0 0 0 0 0.500000 0 " />
      <feOffset
         id="feOffset5156"
         in="bluralpha"
         dx="1.000000"
         dy="1.000000"
         result="offsetBlur" />
      <feMerge
         id="feMerge5158">
        <feMergeNode
           id="feMergeNode5160"
           in="offsetBlur" />
        <feMergeNode
           id="feMergeNode5162"
           in="SourceGraphic" />
      </feMerge>
    </filter>
    <filter
       color-interpolation-filters="sRGB"
       id="filter6033"
       inkscape:label="Drop shadow"
       width="1.5"
       height="1.5"
       x="-0.25"
       y="-0.25">
      <feGaussianBlur
         id="feGaussianBlur6035"
         in="SourceAlpha"
         stdDeviation="1,000000"
         result="blur" />
      <feColorMatrix
         id="feColorMatrix6037"
         result="bluralpha"
         type="matrix"
         values="1 0 0 0 0 0 1 0 0 0 0 0 1 0 0 0 0 0 0,500000 0 " />
      <feOffset
         id="feOffset6039"
         in="bluralpha"
         dx="1,500000"
         dy="1,500000"
         result="offsetBlur" />
      <feMerge
         id="feMerge6041">
        <feMergeNode
           id="feMergeNode6043"
           in="offsetBlur" />
        <feMergeNode
           id="feMergeNode6045"
           in="SourceGraphic" />
      </feMerge>
    </filter>
  </defs>
  <sodipodi:namedview
     id="base"
     pagecolor="#ffffff"
     bordercolor="#666666"
     borderopacity="1.0"
     inkscape:pageopacity="0.0"
     inkscape:pageshadow="2"
     inkscape:zoom="11.21875"
     inkscape:cx="0.40111421"
     inkscape:cy="16"
     inkscape:document-units="px"
     inkscape:current-layer="layer1"
     showgrid="false"
     inkscape:window-width="1024"
     inkscape:window-height="827"
     inkscape:window-x="382"
     inkscape:window-y="85"
     inkscape:window-maximized="0" />
  <metadata
     id="metadata4081">
    <rdf:RDF>
      <cc:Work
         rdf:about="">
        <dc:format>image/svg+xml</dc:format>
        <dc:type
           rdf:resource="http://purl.org/dc/dcmitype/StillImage" />
        <dc:title />
      </cc:Work>
    </rdf:RDF>
  </metadata>
  <g
     inkscape:label="Layer 1"
     inkscape:groupmode="layer"
     id="layer1"
     transform="translate(0,-988.3622)">
    <g
       transform="matrix(2,0,0,2,-34.253234,560.16743)"
       id="g4632"
       style="filter:url(#filter5150)">
      <g
         transform="translate(-2,-0.56636456)"
         style="filter:url(#filter6033)"
         id="g5942">
        <path
           inkscape:connector-curvature="0"
           style="font-size:medium;font-style:normal;font-variant:normal;font-weight:normal;font-stretch:normal;text-indent:0;text-align:start;text-decoration:none;line-height:normal;letter-spacing:normal;word-spacing:normal;text-transform:none;direction:ltr;block-progression:tb;writing-mode:lr-tb;text-anchor:start;color:#000000;fill:#eeeeec;fill-opacity:1;fill-rule:nonzero;stroke:none;stroke-width:5;marker:none;visibility:visible;display:inline;overflow:visible;enable-background:accumulate;font-family:Bitstream Vera Sans;-inkscape-font-specification:Bitstream Vera Sans"
           d="m 42.396699,222.38499 0,4 -1.78125,0 0,4.96875 1.78125,0 0,4 4.90625,-6.46875 c 0,0 -3.32612,-4.28224 -4.90625,-6.5 z"
           id="path5696"
           sodipodi:nodetypes="cccccccc" />
        <path
           inkscape:connector-curvature="0"
           style="font-size:medium;font-style:normal;font-variant:normal;font-weight:normal;font-stretch:normal;text-indent:0;text-align:start;text-decoration:none;line-height:normal;letter-spacing:normal;word-spacing:normal;text-transform:none;direction:ltr;block-progression:tb;writing-mode:lr-tb;text-anchor:start;color:#000000;fill:#eeeeec;fill-opacity:1;fill-rule:nonzero;stroke:none;stroke-width:5;marker:none;visibility:visible;display:inline;overflow:visible;enable-background:accumulate;font-family:Bitstream Vera Sans;-inkscape-font-specification:Bitstream Vera Sans"
           d="m 29.46591,237.20814 c 7e-6,1.4167 0,2.83364 0,4.25 l 4.96875,0 0,-4.25 -4.96875,0 z"
           id="rect5009-6-6" />
        <path
           inkscape:connector-curvature="0"
           style="fill:none;stroke:#eeeeec;stroke-width:4.35362482;stroke-miterlimit:4;stroke-opacity:1;stroke-dasharray:none"
           d="m 26.833486,233.38327 c -1.061978,-1.2029 -1.706389,-2.78315 -1.706389,-4.51391 0,-3.76834 3.054845,-6.82319 6.823188,-6.82319 3.768342,0 6.823187,3.05485 6.823187,6.82319 l 0,0 c 0,3.76834 -3.054845,6.82319 -6.823187,6.82319 -1.039133,0 -2.024011,-0.23229 -2.905541,-0.64778"
           id="path5878" />
      </g>
      <path
         inkscape:connector-curvature="0"
         transform="translate(14.987215,1.4563891)"
         id="path4604"
         d="m 12.52911,237.39321 0,-1.98021 -0.506608,-0.15179 c -0.278635,-0.0835 -0.533044,-0.22067 -0.565353,-0.30487 -0.07146,-0.18623 1.388107,-3.77265 1.532232,-3.76496 0.05623,0.003 0.352905,0.0786 0.659286,0.16802 0.326429,0.0953 0.974551,0.14475 1.565466,0.11954 0.831923,-0.0355 1.152769,-0.11411 1.833265,-0.44926 0.979381,-0.48234 1.747972,-1.26832 2.209402,-2.25936 0.283296,-0.60846 0.330614,-0.87836 0.332551,-1.8969 0.002,-1.07166 -0.03547,-1.26675 -0.38456,-2 -0.491792,-1.03299 -1.26841,-1.8094 -2.300681,-2.30006 -0.722322,-0.34333 -0.937361,-0.38604 -1.9375,-0.38485 -0.954331,0.001 -1.23333,0.0518 -1.839085,0.33408 -0.949394,0.44237 -1.517399,0.90745 -2.031472,1.66333 -1.072734,1.57734 -1.078604,3.73391 -0.01437,5.28102 l 0.410968,0.59745 -1.6818373,1.23455 -1.6818375,1.23456 -0.2960611,-0.36129 c -0.4645811,-0.56694 -1.2448877,-2.15656 -1.4965766,-3.04879 -0.1665851,-0.59054 -0.2292877,-1.23934 -0.229527,-2.375 -2.831e-4,-1.34353 0.044477,-1.69679 0.3194025,-2.52083 1.0431656,-3.12668 3.576027,-5.44056 6.696121,-6.11721 0.931275,-0.20197 2.767851,-0.19962 3.711424,0.005 2.883494,0.62452 5.697052,3.08122 6.52316,5.6958 l 0.197476,0.625 0.984073,-0.0407 0.984072,-0.0407 0.03454,-1.79845 0.03454,-1.79845 2.243019,2.96412 c 1.23366,1.63026 2.243756,3.04849 2.244657,3.15161 8.75e-4,0.10313 -1.008456,1.51588 -2.243017,3.13945 l -2.244659,2.95195 -0.0625,-1.82695 -0.0625,-1.82695 -0.968969,-0.0625 c -0.761927,-0.0491 -0.968922,-0.0264 -0.96875,0.10658 5e-4,0.34349 -0.980055,2.23003 -1.549516,2.98137 -0.932809,1.23074 -2.749489,2.5431 -4.044015,2.92138 l -0.53125,0.15525 0,1.98021 0,1.98021 -2.4375,0 -2.4375,0 0,-1.98021 z"
         style="fill:#0057ae;fill-opacity:1;stroke:#0057ae;stroke-width:0.625;stroke-linecap:round;stroke-linejoin:round;stroke-miterlimit:4;stroke-opacity:1;stroke-dasharray:none;stroke-dashoffset:0" />
    </g>
  </g>
</svg>
