<?xml version="1.0" encoding="UTF-8" standalone="no"?>
<svg
   xmlns:dc="http://purl.org/dc/elements/1.1/"
   xmlns:cc="http://creativecommons.org/ns#"
   xmlns:rdf="http://www.w3.org/1999/02/22-rdf-syntax-ns#"
   xmlns:svg="http://www.w3.org/2000/svg"
   xmlns="http://www.w3.org/2000/svg"
   xmlns:sodipodi="http://sodipodi.sourceforge.net/DTD/sodipodi-0.dtd"
   xmlns:inkscape="http://www.inkscape.org/namespaces/inkscape"
   fill="#000000"
   height="48"
   viewBox="0 0 24 24"
   width="48"
   id="svg3103"
   version="1.1"
   inkscape:version="0.91 r"
   sodipodi:docname="ic_turn-roundabout-ccw-first.svg"
   inkscape:export-filename="/home/tackat/TURN/final/ic_turn-roundabout-first.png"
   inkscape:export-xdpi="270"
   inkscape:export-ydpi="270">
  <sodipodi:namedview
     pagecolor="#dfdfdf"
     bordercolor="#666666"
     borderopacity="1"
     objecttolerance="10"
     gridtolerance="10"
     guidetolerance="10"
     inkscape:pageopacity="0"
     inkscape:pageshadow="2"
     inkscape:window-width="1600"
     inkscape:window-height="845"
     id="namedview3109"
     showgrid="false"
     inkscape:zoom="8.0000004"
     inkscape:cx="36.418456"
     inkscape:cy="17.645004"
     inkscape:window-x="-2"
     inkscape:window-y="-3"
     inkscape:window-maximized="1"
     inkscape:current-layer="svg3103"
     showguides="true"
     inkscape:guide-bbox="true" />
  <metadata
     id="metadata3113">
    <rdf:RDF>
      <cc:Work
         rdf:about="">
        <dc:format>image/svg+xml</dc:format>
        <dc:type
           rdf:resource="http://purl.org/dc/dcmitype/StillImage" />
        <dc:title></dc:title>
      </cc:Work>
    </rdf:RDF>
  </metadata>
  <defs
     id="defs3111" />
  <rect
     style="color:#000000;display:inline;overflow:visible;visibility:visible;opacity:1;fill:none;fill-opacity:1;fill-rule:nonzero;stroke:none;stroke-width:0.25;stroke-linecap:round;stroke-linejoin:round;stroke-miterlimit:4;stroke-dasharray:none;stroke-opacity:1;marker:none;enable-background:accumulate"
     id="rect5271"
     width="24"
     height="24"
     x="-24"
     y="-1.6829257e-15"
     inkscape:export-xdpi="270"
     inkscape:export-ydpi="270"
     transform="scale(-1,1)" />
  <path
     style="fill:none"
     inkscape:connector-curvature="0"
     d="m 22.559842,3.249554 24,0 0,24 -24,0 z"
     id="path3107" />
  <g
     id="g8773"
     transform="matrix(1.05,0,0,1.05,-1.6846904,-1.6621308)"
     inkscape:export-xdpi="270"
     inkscape:export-ydpi="270">
    <path
       id="path8112-0"
       d="M 10.598633,4.2333986 C 10.0202,4.2204246 9.7876447,4.2390141 9.319336,4.3369142 7.026033,4.8163451 5.1694195,6.7025206 4.5566406,9.1777346 4.3959726,9.8267145 4.3650663,10.105536 4.3652344,10.898437 c 1.1e-4,0.56429 0.0094,0.764397 0.043945,0.984375 0.120259,0.765647 0.3332872,1.451059 0.6445311,2.073242 0.05346,0.106864 0.1014455,0.198702 0.106445,0.204102 0.00495,0.0054 0.1572535,-0.103039 0.3388675,-0.241211 C 5.680637,13.780773 6.2794805,13.32501 6.8300775,12.90625 7.3806745,12.487489 7.836773,12.137529 7.842773,12.127929 7.848733,12.118329 7.810558,12.023382 7.758789,11.917969 7.541112,11.474773 7.4415025,11.020847 7.441406,10.478515 7.4413115,9.900917 7.5530595,9.434366 7.8154295,8.9218751 c 0.676211,-1.32085 2.1391047,-1.9575065 3.4355475,-1.4941405 0.936066,0.334563 1.608631,1.1457645 1.846679,2.2197264 0.0064,0.03446 0.0041,0.03599 0.01269,0.076172 0.01544,0.072379 0.02097,0.153586 0.03027,0.231445 0.0057,0.097993 0.0082,0.213593 0.0078,0.379883 -10e-4,0.406705 -0.0078,0.48483 -0.06445,0.725586 -0.281496,1.196237 -1.113602,2.088337 -2.224604,2.386718 -0.252681,0.06786 -0.785307,0.08496 -1.0800783,0.03711 -0.060054,-0.01173 -0.119947,-0.02369 -0.1796875,-0.04004 -0.0026,-7e-4 -0.0052,-0.0013 -0.00781,-0.002 C 9.27512,13.361892 8.9556345,13.221682 8.705079,13.043948 L 8.5566415,12.938479 8.203126,13.46094 c -0.342789,0.506107 -0.997172,1.467001 -1.432617,2.105469 l -0.212891,0.3125 0.1044925,0.0918 c 0.158857,0.140503 0.749219,0.525667 0.991211,0.646484 0.2309725,0.115316 0.47072,0.20969 0.7128905,0.292969 l -0.01367,0.04687 -0.100586,2.407227 c -0.05547,1.324196 -0.09652,2.412268 -0.09082,2.417968 0.00571,0.0057 0.859977,0.01074 1.898438,0.01074 l 1.888671,0 0.01563,-0.868165 c 0.0087,-0.477359 0.01561,-1.214153 0.01563,-1.637694 2e-5,-0.423542 0.0069,-1.117115 0.01563,-1.541016 l 0.0166,-0.770508 0.253906,-0.102539 c 0.805821,-0.325309 1.400798,-0.72424 2.055664,-1.378906 0.684461,-0.684248 1.127892,-1.36338 1.497071,-2.290038 0.07943,-0.199383 0.265625,-0.765873 0.265625,-0.808593 0,-0.0058 0.377844,-0.01074 0.839844,-0.01074 l 0.839844,0 0,0.101562 c -1.4e-4,0.146343 -0.04166,0.692672 -0.09766,1.290039 -0.04184,0.446386 -0.07486,0.724324 -0.192382,1.618165 -0.01202,0.09138 -0.0176,0.170881 -0.0127,0.175781 0.0093,0.0093 4.190421,-4.994486 4.238281,-5.072266 0.02474,-0.04021 -0.223118,-0.295994 -2.302734,-2.3730464 -1.281981,-1.2804 -2.334668,-2.331161 -2.338868,-2.334961 -0.0042,-0.0038 0.02854,0.142222 0.07324,0.324219 0.147256,0.599533 0.464574,2.2788405 0.464843,2.4609375 5.8e-5,0.0391 -0.05276,0.04199 -0.773437,0.04199 l -0.773438,0 -0.07813,0.021485 C 15.754597,7.8730016 15.413756,7.1573216 14.972657,6.5664061 14.214198,5.5503436 13.289643,4.8690935 12.154297,4.4902345 11.608633,4.3081445 11.240914,4.2478086 10.598633,4.2333986 Z"
       style="fill:#2b71c6;stroke:#ffffff;stroke-width:0.75;stroke-linecap:round;stroke-linejoin:round;stroke-miterlimit:4;stroke-dasharray:none"
       inkscape:connector-curvature="0" />
    <path
       style="fill:#2b71c6"
       d="M 9.5374027,17.183722 C 8.8976525,17.109992 8.2514995,16.915632 7.6534035,16.617027 7.4114115,16.49621 6.8204885,16.110979 6.6616315,15.970476 l -0.103772,-0.09178 0.212788,-0.312 c 0.435445,-0.638468 1.089259,-1.600052 1.432048,-2.106159 l 0.353661,-0.522159 0.148524,0.105357 c 0.291352,0.206674 0.6761452,0.368045 1.0410342,0.436577 0.2872793,0.05396 0.8528223,0.03729 1.1138873,-0.03282 1.111002,-0.298381 1.942281,-1.190619 2.223782,-2.386856 0.05666,-0.240756 0.06365,-0.319231 0.06467,-0.725936 9e-4,-0.3531075 -0.0087,-0.5020305 -0.04243,-0.6599995 C 12.873403,8.5866956 12.195693,7.7656776 11.251437,7.4281876 9.9549947,6.9648216 8.4918185,7.6008436 7.8156075,8.9216936 7.5532375,9.4341845 7.4408965,9.9011015 7.4409915,10.4787 c 9.6e-5,0.542332 0.100434,0.996466 0.318111,1.439661 0.05177,0.105414 0.08926,0.199549 0.0833,0.209188 -0.006,0.0096 -0.46132,0.360148 -1.011917,0.778909 -0.550597,0.41876 -1.14968,0.874432 -1.331294,1.012604 -0.181614,0.138172 -0.334259,0.246815 -0.33921,0.24143 -0.005,-0.0054 -0.05274,-0.09723 -0.1062,-0.204094 -0.311244,-0.622183 -0.524492,-1.308051 -0.644751,-2.073698 -0.03455,-0.219978 -0.04338,-0.41971 -0.04349,-0.984 -1.68e-4,-0.792901 0.03086,-1.0715575 0.191528,-1.7205374 0.612779,-2.475214 2.468505,-4.36195 4.761808,-4.841381 0.4683092,-0.0979 0.7014035,-0.116816 1.2798365,-0.103842 0.642281,0.01441 1.009495,0.07514 1.555159,0.25723 1.135346,0.378859 2.060726,1.060468 2.819184,2.076531 0.687027,0.920372 1.133837,2.142097 1.238602,3.3867439 0.0492,0.5845555 0.0053,1.3732635 -0.109184,1.9594885 -0.256217,1.312478 -0.879915,2.519544 -1.784838,3.454269 -1.014573,1.047983 -2.223802,1.651902 -3.640236,1.818028 -0.250702,0.0294 -0.8790183,0.02857 -1.1400003,-0.0015 z"
       id="path8112"
       inkscape:connector-curvature="0" />
    <path
       inkscape:connector-curvature="0"
       id="path8011"
       d="m 8.1613248,21.78242 c -0.0057,-0.0057 0.03501,-1.093803 0.09048,-2.417999 l 0.10085,-2.407631 0.121944,-0.408 c 0.06707,-0.2244 0.21431,-0.7212 0.327203,-1.104 0.23744,-0.80512 0.6088369,-2.034945 0.6170029,-2.043111 0.0031,-0.0031 0.08097,0.01532 0.173106,0.04087 1.3811213,0.382973 2.8713643,-0.484704 3.3928603,-1.975455 0.187613,-0.536312 0.237119,-1.221766 0.125904,-1.7432535 -0.0292,-0.13692 -0.04805,-0.253986 -0.04189,-0.260146 0.01311,-0.01311 0.241982,-0.07921 1.142908,-0.3300428 0.363002,-0.101066 0.924831,-0.258707 1.248513,-0.350311 l 0.588511,-0.166555 0.773489,0 c 0.72068,0 0.773484,-0.0029 0.773427,-0.042 -2.69e-4,-0.182097 -0.317216,-1.861371 -0.464471,-2.460904 -0.0447,-0.181997 -0.07784,-0.327797 -0.07363,-0.324 0.0042,0.0038 1.056538,1.054504 2.338519,2.334904 2.079616,2.0770523 2.327885,2.3328573 2.303142,2.3730683 -0.04786,0.07778 -4.229013,5.081412 -4.238347,5.072078 -0.0049,-0.0049 9.5e-4,-0.08363 0.01297,-0.175008 0.117518,-0.893841 0.150565,-1.171753 0.192408,-1.618139 0.056,-0.597367 0.09723,-1.143657 0.09737,-1.29 l 9.7e-5,-0.102 -0.840001,0 c -0.462,0 -0.84,0.0048 -0.84,0.01061 0,0.04272 -0.185984,0.609569 -0.265417,0.808952 -0.369179,0.926658 -0.812993,1.605204 -1.497453,2.289454 -0.654866,0.654666 -1.249497,1.053604 -2.055318,1.378913 l -0.254188,0.102616 -0.01577,0.77073 c -0.0087,0.423901 -0.01579,1.117263 -0.01581,1.540805 -2.2e-5,0.423541 -0.0072,1.160641 -0.01593,1.638 l -0.01589,0.867924 -1.888109,0 c -1.0384602,0 -1.8927752,-0.0047 -1.8984782,-0.01037 z"
       style="fill:#00438a" />
    <path
       id="path8112-0-4"
       d="M 10.598633,4.2333984 C 10.0202,4.2204244 9.7876449,4.2390139 9.3193359,4.336914 7.0260331,4.8163448 5.1694195,6.7025204 4.5566406,9.1777345 c -0.160668,0.64898 -0.1915743,0.9278015 -0.1914062,1.7207025 1.1e-4,0.56429 0.0094,0.764397 0.043945,0.984375 0.120259,0.765647 0.3332872,1.451059 0.6445312,2.073242 0.05346,0.106864 0.1014455,0.198702 0.1064449,0.204102 0.00495,0.0054 0.1572535,-0.103039 0.3388676,-0.241211 0.1816139,-0.138172 0.7804575,-0.593935 1.3310545,-1.012695 0.550597,-0.418761 1.0066955,-0.768721 1.0126955,-0.778321 0.00596,-0.0096 -0.032215,-0.104547 -0.083984,-0.20996 C 7.5411121,11.474773 7.4415026,11.020847 7.4414061,10.478515 7.4413116,9.900917 7.5530596,9.434366 7.8154296,8.921875 8.4916405,7.6010249 9.9545344,6.9643684 11.250977,7.4277344 c 0.936066,0.334563 1.608631,1.1457645 1.846679,2.2197266 0.0064,0.03446 0.0041,0.03599 0.01269,0.076172 0.01544,0.072379 0.02097,0.153586 0.03027,0.231445 0.0057,0.097993 0.0082,0.213593 0.0078,0.379883 -10e-4,0.406705 -0.0078,0.48483 -0.06445,0.725586 -0.281496,1.196237 -1.113602,2.088337 -2.224604,2.386718 -0.252681,0.06786 -0.785307,0.08496 -1.0800781,0.03711 -0.060054,-0.01173 -0.119947,-0.02369 -0.1796875,-0.04004 -0.0026,-7e-4 -0.0052,-0.0013 -0.00781,-0.002 C 9.2751199,13.361892 8.9556345,13.221682 8.705079,13.043948 L 8.5566415,12.938479 8.203126,13.46094 c -0.342789,0.506107 -0.997172,1.467001 -1.432617,2.105469 l -0.212891,0.3125 0.1044925,0.0918 c 0.158857,0.140503 0.749219,0.525667 0.991211,0.646484 0.2309725,0.115316 0.47072,0.20969 0.7128905,0.292969 l -0.01367,0.04687 -0.100586,2.407227 c -0.05547,1.324196 -0.09652,2.412268 -0.09082,2.417968 0.00571,0.0057 0.8599769,0.01074 1.898438,0.01074 l 1.888671,0 0.01563,-0.868165 c 0.0087,-0.477359 0.01561,-1.214153 0.01563,-1.637694 2e-5,-0.423542 0.0069,-1.117115 0.01563,-1.541016 l 0.0166,-0.770508 0.253906,-0.102539 c 0.805821,-0.325309 1.400798,-0.72424 2.055664,-1.378906 0.684461,-0.684248 1.127892,-1.36338 1.497071,-2.290038 0.07943,-0.199383 0.265625,-0.765873 0.265625,-0.808593 0,-0.0058 0.377844,-0.01074 0.839844,-0.01074 l 0.839844,0 0,0.101562 c -1.4e-4,0.146343 -0.04166,0.692672 -0.09766,1.290039 -0.04184,0.446386 -0.07486,0.724324 -0.192382,1.618165 -0.01202,0.09138 -0.0176,0.170881 -0.0127,0.175781 0.0093,0.0093 4.190421,-4.994486 4.238281,-5.072266 0.02474,-0.04021 -0.223118,-0.295994 -2.302734,-2.3730467 -1.281981,-1.2804 -2.334668,-2.331161 -2.338868,-2.334961 -0.0042,-0.0038 0.02854,0.142222 0.07324,0.324219 0.147256,0.599533 0.464574,2.2788405 0.464843,2.4609375 5.8e-5,0.0391 -0.05276,0.04199 -0.773437,0.04199 l -0.773438,0 -0.07813,0.021485 C 15.754597,7.8730013 15.413756,7.1573213 14.972657,6.5664059 14.214198,5.5503433 13.289643,4.8690932 12.154297,4.4902342 11.608633,4.3081443 11.240914,4.2478084 10.598633,4.2333984 Z"
       style="fill:none;stroke:#ffffff;stroke-width:0.25;stroke-linecap:round;stroke-linejoin:round;stroke-miterlimit:4;stroke-dasharray:none"
       inkscape:connector-curvature="0" />
  </g>
</svg>
