<?xml version="1.0" encoding="UTF-8" standalone="no"?>
<svg
   xmlns:dc="http://purl.org/dc/elements/1.1/"
   xmlns:cc="http://creativecommons.org/ns#"
   xmlns:rdf="http://www.w3.org/1999/02/22-rdf-syntax-ns#"
   xmlns:svg="http://www.w3.org/2000/svg"
   xmlns="http://www.w3.org/2000/svg"
   xmlns:sodipodi="http://sodipodi.sourceforge.net/DTD/sodipodi-0.dtd"
   xmlns:inkscape="http://www.inkscape.org/namespaces/inkscape"
   fill="#000000"
   height="48"
   viewBox="0 0 24 24"
   width="48"
   id="svg3103"
   version="1.1"
   inkscape:version="0.91 r"
   sodipodi:docname="ic_turn-continue.svg"
   inkscape:export-filename="/home/tackat/TURN/final/192/ic_turn-continue.png"
   inkscape:export-xdpi="360"
   inkscape:export-ydpi="360">
  <sodipodi:namedview
     pagecolor="#dfdfdf"
     bordercolor="#666666"
     borderopacity="1"
     objecttolerance="10"
     gridtolerance="10"
     guidetolerance="10"
     inkscape:pageopacity="0"
     inkscape:pageshadow="2"
     inkscape:window-width="1600"
     inkscape:window-height="845"
     id="namedview3109"
     showgrid="false"
     inkscape:zoom="5.6568545"
     inkscape:cx="-28.204047"
     inkscape:cy="13.659414"
     inkscape:window-x="-2"
     inkscape:window-y="-3"
     inkscape:window-maximized="1"
     inkscape:current-layer="svg3103"
     showguides="true"
     inkscape:guide-bbox="true" />
  <metadata
     id="metadata3113">
    <rdf:RDF>
      <cc:Work
         rdf:about="">
        <dc:format>image/svg+xml</dc:format>
        <dc:type
           rdf:resource="http://purl.org/dc/dcmitype/StillImage" />
        <dc:title></dc:title>
      </cc:Work>
    </rdf:RDF>
  </metadata>
  <defs
     id="defs3111" />
  <rect
     style="color:#000000;display:inline;overflow:visible;visibility:visible;opacity:1;fill:none;fill-opacity:1;fill-rule:nonzero;stroke:none;stroke-width:0.25;stroke-linecap:round;stroke-linejoin:round;stroke-miterlimit:4;stroke-dasharray:none;stroke-opacity:1;marker:none;enable-background:accumulate"
     id="rect5271"
     width="24"
     height="24"
     x="-24"
     y="-1.6829257e-15"
     inkscape:export-xdpi="270"
     inkscape:export-ydpi="270"
     transform="scale(-1,1)" />
  <path
     style="fill:none"
     inkscape:connector-curvature="0"
     d="m 22.559842,3.249554 24,0 0,24 -24,0 z"
     id="path3107" />
  <path
     style="fill:#00438a;stroke:#ffffff;stroke-width:0.78750002;stroke-linecap:round;stroke-linejoin:round;stroke-miterlimit:4;stroke-dasharray:none;stroke-opacity:1"
     d="m 9.9083759,15.080701 c 0,-3.47193 -0.00335,-6.3126 -0.00735,-6.3126 -0.0041,0 -0.2223622,0.02228 -0.4851006,0.04951 C 8.2007938,8.94355 6.8485461,9.1538575 5.6023305,9.410719 5.3614909,9.460364 5.155315,9.497669 5.1441598,9.493637 5.1330088,9.489637 6.6709995,7.93839 8.5619245,6.0464997 l 3.4380455,-3.4398015 3.438058,3.4398 c 1.890932,1.8918903 3.428948,3.4431013 3.417814,3.4471373 -0.01113,0.004 -0.217295,-0.033275 -0.458135,-0.082918 -1.246215,-0.2568615 -2.598463,-0.467169 -3.813594,-0.5931085 -0.262738,-0.027225 -0.481033,-0.04951 -0.4851,-0.04951 -0.0041,0 -0.0074,2.84067 -0.0074,6.3126 l 0,6.312599 -2.0916,0 -2.0915986,0 0,-6.312598 z"
     id="path6281-9"
     inkscape:connector-curvature="0"
     inkscape:export-xdpi="270"
     inkscape:export-ydpi="270" />
  <path
     style="fill:#00438a;stroke-width:0.2625;stroke-miterlimit:4;stroke-dasharray:none;stroke:#ffffff;stroke-opacity:1;stroke-linejoin:round;stroke-linecap:round"
     d="m 9.9083759,15.080701 c 0,-3.47193 -0.00335,-6.3126 -0.00735,-6.3126 -0.0041,0 -0.2223621,0.02228 -0.4851004,0.04951 C 8.2007939,8.94355 6.8485463,9.1538575 5.6023306,9.410719 5.361491,9.460364 5.1553151,9.497669 5.1441599,9.493637 5.1330089,9.489637 6.6709997,7.93839 8.5619247,6.0464998 l 3.4380453,-3.4398015 3.438058,3.4398 c 1.890932,1.8918902 3.428948,3.4431012 3.417814,3.4471372 -0.01113,0.004 -0.217295,-0.033275 -0.458135,-0.082918 -1.246215,-0.2568615 -2.598463,-0.467169 -3.813594,-0.5931085 -0.262738,-0.027225 -0.481033,-0.04951 -0.4851,-0.04951 -0.0041,0 -0.0074,2.84067 -0.0074,6.3126 l 0,6.3126 -2.0916,0 -2.0915986,0 0,-6.312599 z"
     id="path6281"
     inkscape:connector-curvature="0"
     inkscape:export-xdpi="270"
     inkscape:export-ydpi="270" />
</svg>
