<?xml version="1.0" encoding="UTF-8" standalone="no"?>
<svg
   xmlns:dc="http://purl.org/dc/elements/1.1/"
   xmlns:cc="http://creativecommons.org/ns#"
   xmlns:rdf="http://www.w3.org/1999/02/22-rdf-syntax-ns#"
   xmlns:svg="http://www.w3.org/2000/svg"
   xmlns="http://www.w3.org/2000/svg"
   xmlns:sodipodi="http://sodipodi.sourceforge.net/DTD/sodipodi-0.dtd"
   xmlns:inkscape="http://www.inkscape.org/namespaces/inkscape"
   fill="#000000"
   height="48"
   viewBox="0 0 24 24"
   width="48"
   id="svg3103"
   version="1.1"
   inkscape:version="0.91 r"
   sodipodi:docname="ic_turn-roundabout-cw-third.svg"
   inkscape:export-filename="/home/tackat/TURN/final/192/ic_turn-roundabout-cw-third.png"
   inkscape:export-xdpi="360"
   inkscape:export-ydpi="360">
  <sodipodi:namedview
     pagecolor="#dfdfdf"
     bordercolor="#666666"
     borderopacity="1"
     objecttolerance="10"
     gridtolerance="10"
     guidetolerance="10"
     inkscape:pageopacity="0"
     inkscape:pageshadow="2"
     inkscape:window-width="1600"
     inkscape:window-height="845"
     id="namedview3109"
     showgrid="false"
     inkscape:zoom="11.313709"
     inkscape:cx="-0.39788257"
     inkscape:cy="24.197259"
     inkscape:window-x="-2"
     inkscape:window-y="-3"
     inkscape:window-maximized="1"
     inkscape:current-layer="svg3103"
     showguides="true"
     inkscape:guide-bbox="true" />
  <metadata
     id="metadata3113">
    <rdf:RDF>
      <cc:Work
         rdf:about="">
        <dc:format>image/svg+xml</dc:format>
        <dc:type
           rdf:resource="http://purl.org/dc/dcmitype/StillImage" />
        <dc:title></dc:title>
      </cc:Work>
    </rdf:RDF>
  </metadata>
  <defs
     id="defs3111" />
  <rect
     style="color:#000000;display:inline;overflow:visible;visibility:visible;opacity:1;fill:none;fill-opacity:1;fill-rule:nonzero;stroke:none;stroke-width:0.25;stroke-linecap:round;stroke-linejoin:round;stroke-miterlimit:4;stroke-dasharray:none;stroke-opacity:1;marker:none;enable-background:accumulate"
     id="rect5271"
     width="24"
     height="24"
     x="0"
     y="-1.6829257e-15"
     inkscape:export-xdpi="270"
     inkscape:export-ydpi="270" />
  <path
     style="fill:none"
     inkscape:connector-curvature="0"
     d="m 22.559842,3.249554 24,0 0,24 -24,0 z"
     id="path3107" />
  <g
     id="g11083"
     transform="matrix(-1,0,0,1,23.993488,2.4161791e-7)">
    <path
       id="path10328-4"
       d="m 12.137012,2.4882806 0,0.7138672 c -2e-4,0.392796 -0.0085,0.7273241 -0.01856,0.7431641 -0.0041,0.00654 -0.06586,0.028475 -0.09668,0.042969 -0.48036,0.1578118 -0.939913,0.3730867 -1.377929,0.663086 C 9.6220618,5.3278654 8.7946393,6.3729924 8.3215823,7.5830073 8.2550553,7.7531823 8.1809798,7.9543728 8.1575198,8.0302728 l -0.04199,0.1376955 -0.6699215,0 c -0.6257851,0 -0.6680766,-0.0027 -0.6572266,-0.04199 0.00638,-0.0231 0.017965,-0.096109 0.026365,-0.1621095 0.057118,-0.447608 0.4331765,-2.3080904 0.5322266,-2.6347654 0.00913,-0.03011 -3.2519757,3.2194104 -4.7128907,4.6962886 -0.00317,0.0032 0.1888258,0.242791 0.4267578,0.532227 0.237921,0.289435 0.8361976,1.017564 1.3291016,1.618164 0.492904,0.600599 1.1526147,1.405286 1.4667967,1.788086 0.314182,0.3828 0.6798785,0.825975 0.8115235,0.984375 l 0.239258,0.288086 -0.0166,-0.120117 c -0.024385,-0.178424 -0.1276665,-1.022576 -0.1572265,-1.28418 -0.03137,-0.277575 -0.094889,-1.075972 -0.1113285,-1.404297 -0.00661,-0.132 -0.01686,-0.290816 -0.02246,-0.353515 l -0.00976,-0.114258 0.7294926,0 0.7304685,0 0.038085,-0.01367 c 0.052697,0.211312 0.112224,0.421251 0.1845705,0.629883 0.163744,0.472201 0.5176415,1.21582 0.5791015,1.21582 0.013455,0 0.123961,-0.07895 0.245117,-0.175781 0.12115,-0.09683 0.6955625,-0.552271 1.2763627,-1.011719 0.580799,-0.459447 1.064058,-0.842663 1.074218,-0.851563 0.01015,-0.0089 -0.03451,-0.117702 -0.09961,-0.242187 -0.118932,-0.227419 -0.205252,-0.471819 -0.273438,-0.731445 1.64e-4,-0.03934 -0.004,-0.101736 -0.02637,-0.211914 -0.06595,-0.324883 -0.0716,-0.8690572 -0.0127,-1.1923832 0.145185,-0.796937 0.565085,-1.511856 1.145508,-1.949219 0.500511,-0.3771464 0.977872,-0.5368619 1.607422,-0.5390619 0.303418,-0.00105 0.381149,0.00737 0.611328,0.06543 0.486972,0.122838 0.981362,0.4054609 1.329102,0.7597654 1.094463,1.115124 1.273391,2.8832617 0.421875,4.1757817 -0.155734,0.236389 -0.519302,0.612593 -0.739258,0.764649 -0.351295,0.24285 -0.749233,0.403707 -1.140625,0.460936 -0.281003,0.04108 -0.728563,0.01877 -1.004882,-0.04981 -0.08006,-0.01986 -0.109154,-0.02242 -0.150391,-0.02929 -0.263106,-0.08045 -0.516976,-0.198556 -0.749023,-0.357422 -0.08928,-0.06112 -0.165146,-0.107616 -0.168946,-0.103516 -0.03273,0.03529 -1.860352,2.949867 -1.860352,2.966797 0,0.03068 0.161112,0.15973 0.431641,0.344727 0.437409,0.299113 0.893696,0.523166 1.375,0.69043 l -0.0127,0.05273 0,2.442383 10e-4,2.441406 1.914063,0 1.915039,0 -0.0078,-0.173828 c -0.0228,-0.562969 -0.149439,-4.427219 -0.149439,-4.556647 l 0,-0.15625 0.290039,-0.117187 c 0.310984,-0.12552 0.80886,-0.401423 1.101562,-0.610352 1.287456,-0.918979 2.168018,-2.322529 2.510742,-3.955077 0.02355,-0.01369 0.319106,-0.02149 0.806641,-0.02149 0.447242,0 0.819372,-0.0095 0.826172,-0.02051 0.01199,-0.0194 -0.288634,-3.5607842 -0.311524,-3.6699217 l -0.01172,-0.053711 -0.767578,0 -0.754883,0 C 19.23365,7.3759228 18.853838,6.6683909 18.328419,6.0078119 18.110221,5.7334839 17.588818,5.2074334 17.340138,5.0107414 16.764548,4.5554836 16.12251,4.2119893 15.44756,3.9892572 c -0.0346,-0.014219 -0.100878,-0.037066 -0.106446,-0.041992 -0.01391,-0.01231 -0.03394,-0.321321 -0.04785,-0.734375 l -0.02441,-0.7128908 -1.565429,-0.00586 -1.566407,-0.00586 z"
       style="fill:#2c72c7;stroke:#ffffff;stroke-width:0.75;stroke-linecap:round;stroke-linejoin:round;stroke-miterlimit:4;stroke-dasharray:none"
       inkscape:connector-curvature="0" />
    <path
       style="fill:#2c72c7"
       d="m 13.349263,16.863112 c -0.961454,-0.125468 -1.795023,-0.441561 -2.58,-0.978353 -0.270529,-0.184997 -0.432,-0.313725 -0.432,-0.344401 0,-0.01693 1.827344,-2.932231 1.860076,-2.96752 0.0038,-0.0041 0.08003,0.04248 0.169309,0.1036 0.659815,0.451727 1.490216,0.59417 2.235118,0.3834 0.264128,-0.07473 0.689883,-0.284009 0.896257,-0.440543 0.340538,-0.258295 0.677124,-0.665517 0.875249,-1.058928 0.233251,-0.46316 0.323296,-0.828144 0.341146,-1.38278 0.01456,-0.4525902 -0.01721,-0.7262912 -0.129197,-1.1129612 -0.3033,-1.047205 -1.127645,-1.889211 -2.107958,-2.153119 -0.219791,-0.05917 -0.277386,-0.06461 -0.684,-0.06461 -0.404307,0 -0.464824,0.0056 -0.676939,0.06308 -1.048079,0.283838 -1.826637,1.15033 -2.086705,2.322387 -0.07904,0.356196 -0.07954,1.0224502 -0.0011,1.3845222 0.07049,0.32516 0.175221,0.61837 0.319267,0.893812 0.0651,0.124485 0.110055,0.233651 0.0999,0.242595 -0.01016,0.0089 -0.493666,0.39217 -1.074466,0.851616 -0.5808002,0.459448 -1.1551272,0.91458 -1.2762822,1.011406 -0.121156,0.09683 -0.23129,0.176049 -0.244744,0.176049 -0.06146,0 -0.416064,-0.743532 -0.579808,-1.215733 -0.963363,-2.7781222 -0.16881,-5.8553402 1.9613052,-7.5959202 0.44063,-0.360052 1.13714,-0.753217 1.650858,-0.931873 0.118431,-0.04119 0.223566,-0.08784 0.233632,-0.10368 0.01007,-0.01584 0.01847,-0.350172 0.01867,-0.742968 l 3.68e-4,-0.714174 1.566,0.0062 1.566,0.0062 0.024,0.712851 c 0.01391,0.413054 0.03409,0.721785 0.048,0.734095 0.0132,0.01168 0.1266,0.05689 0.252,0.100467 0.2991,0.103929 0.794803,0.340898 1.08,0.516291 0.573842,0.352907 1.230576,0.935988 1.640309,1.456348 0.396909,0.504074 0.768261,1.148474 0.986555,1.711948 0.06136,0.1584 0.12705,0.3231 0.145966,0.366 l 0.03439,0.078 0.767932,0 0.767931,0 0.01132,0.054 c 0.02289,0.109138 0.323144,3.6505432 0.311156,3.6699392 -0.0068,0.01103 -0.378323,0.02006 -0.825565,0.02006 -0.499936,0 -0.818714,0.009 -0.827567,0.0233 -0.0079,0.01281 -0.04572,0.145115 -0.08399,0.294001 -0.560351,2.179796 -2.129163,3.871756 -4.120977,4.444466 -0.500922,0.144031 -0.815928,0.187308 -1.423468,0.195563 -0.297,0.004 -0.6156,-0.0025 -0.708,-0.01459 z"
       id="path10328"
       inkscape:connector-curvature="0" />
    <path
       inkscape:connector-curvature="0"
       id="path10259"
       d="m 12.131341,19.069991 -5.5e-4,-2.441999 0.449015,-1.800001 c 0.246959,-0.989998 0.452334,-1.804423 0.456389,-1.809828 0.0041,-0.0054 0.107351,0.01498 0.229545,0.0453 0.27632,0.06857 0.724007,0.09064 1.00501,0.04956 0.391392,-0.05723 0.7889,-0.217841 1.140195,-0.460691 0.219956,-0.152055 0.583711,-0.528159 0.739445,-0.764548 0.851515,-1.292519 0.673096,-3.0606692 -0.421367,-4.1757932 -0.34774,-0.354305 -0.842138,-0.6369148 -1.32911,-0.7597528 -0.230179,-0.05806 -0.308582,-0.06644 -0.612,-0.06541 -0.62955,0.0022 -1.106655,0.162286 -1.607167,0.5394328 -0.580423,0.437363 -1.000199,1.151424 -1.145384,1.948361 -0.0589,0.323326 -0.053,0.8676012 0.01295,1.1924842 0.02803,0.138114 0.04301,0.257657 0.03329,0.26565 -0.0097,0.008 -0.168881,0.06984 -0.353681,0.137428 -0.1848,0.06759 -0.8630202,0.317949 -1.5071542,0.556349 l -1.171154,0.433454 -0.729716,0 -0.7297151,0 0.01017,0.114 c 0.0056,0.0627 0.01558,0.222 0.02219,0.354 0.01644,0.328326 0.07941,1.126425 0.110778,1.404 0.02956,0.261604 0.133038,1.105576 0.157423,1.284 l 0.0164,0.12 -0.239353,-0.288 c -0.131645,-0.1584 -0.496412,-0.6012 -0.810594,-0.984 -0.314182,-0.3828 -0.974525,-1.1874 -1.467429,-1.788 -0.492904,-0.6006 -1.090851,-1.328811 -1.328772,-1.618246 -0.237932,-0.289436 -0.430005,-0.528864 -0.42684,-0.532063 1.460915,-1.4768782 4.7215211,-4.726217 4.7123921,-4.696109 -0.09905,0.326675 -0.4742431,2.1868098 -0.5313611,2.6344178 -0.0084,0.066 -0.02053,0.1389 -0.02691,0.162 -0.01085,0.03927 0.03185,0.042 0.6576351,0.042 l 0.669234,0 0.04265,-0.138 c 0.02346,-0.0759 0.09709,-0.277235 0.163617,-0.44741 0.473057,-1.2100148 1.301064,-2.2549718 2.3228502,-2.9314708 0.691116,-0.45757 1.427872,-0.747812 2.232577,-0.879512 0.427891,-0.07003 1.214443,-0.07553 1.63107,-0.01142 1.018008,0.156671 1.994231,0.587659 2.832,1.250285 0.248681,0.196692 0.770557,0.723196 0.988755,0.997524 0.794676,0.999101 1.261147,2.1009698 1.473241,3.4799998 0.05156,0.33527 0.07098,1.2173702 0.03539,1.6080002 -0.181509,1.992265 -1.135771,3.726988 -2.641384,4.801688 -0.292702,0.208928 -0.790861,0.484915 -1.101845,0.610433 l -0.290155,0.117113 0,0.155729 c 0,0.129428 0.127119,3.994074 0.149894,4.557037 l 0.007,0.174 -1.914466,0 -1.914467,0 -5.5e-4,-2.442 z"
       style="fill:#00438a" />
    <path
       style="fill:none;stroke-width:0.25;stroke-miterlimit:4;stroke-dasharray:none"
       d="m 13.349263,16.863112 c -0.961454,-0.125468 -1.795023,-0.441561 -2.58,-0.978353 -0.270529,-0.184997 -0.432,-0.313725 -0.432,-0.344401 0,-0.01693 1.827344,-2.932231 1.860076,-2.96752 0.0038,-0.0041 0.08003,0.04248 0.169309,0.1036 0.659815,0.451727 1.490216,0.59417 2.235118,0.3834 0.264128,-0.07473 0.689883,-0.284009 0.896257,-0.440543 0.340538,-0.258295 0.677124,-0.665517 0.875249,-1.058928 0.233251,-0.46316 0.323296,-0.828144 0.341146,-1.38278 0.01456,-0.4525902 -0.01721,-0.7262912 -0.129197,-1.1129612 -0.3033,-1.047205 -1.127645,-1.889211 -2.107958,-2.153119 -0.219791,-0.05917 -0.277386,-0.06461 -0.684,-0.06461 -0.404307,0 -0.464824,0.0056 -0.676939,0.06308 -1.048079,0.283838 -1.826637,1.15033 -2.086705,2.322387 -0.07904,0.356196 -0.07954,1.0224502 -0.0011,1.3845222 0.07049,0.32516 0.175221,0.61837 0.319267,0.893812 0.0651,0.124485 0.110055,0.233651 0.0999,0.242595 -0.01016,0.0089 -0.493666,0.39217 -1.074466,0.851616 -0.5808002,0.459448 -1.1551272,0.91458 -1.2762822,1.011406 -0.121156,0.09683 -0.23129,0.176049 -0.244744,0.176049 -0.06146,0 -0.416064,-0.743532 -0.579808,-1.215733 -0.963363,-2.7781222 -0.16881,-5.8553402 1.9613052,-7.5959202 0.44063,-0.360052 1.13714,-0.753217 1.650858,-0.931873 0.118431,-0.04119 0.223566,-0.08784 0.233632,-0.10368 0.01007,-0.01584 0.01847,-0.350172 0.01867,-0.742968 l 3.68e-4,-0.714174 1.566,0.0062 1.566,0.0062 0.024,0.712851 c 0.01391,0.413054 0.03409,0.721785 0.048,0.734095 0.0132,0.01168 0.1266,0.05689 0.252,0.100467 0.2991,0.103929 0.794803,0.340898 1.08,0.516291 0.573842,0.352907 1.230576,0.935988 1.640309,1.456348 0.396909,0.504074 0.768261,1.148474 0.986555,1.711948 0.06136,0.1584 0.12705,0.3231 0.145966,0.366 l 0.03439,0.078 0.767932,0 0.767931,0 0.01132,0.054 c 0.02289,0.109138 0.323144,3.6505432 0.311156,3.6699392 -0.0068,0.01103 -0.378323,0.02006 -0.825565,0.02006 -0.499936,0 -0.818714,0.009 -0.827567,0.0233 -0.0079,0.01281 -0.04572,0.145115 -0.08399,0.294001 -0.560351,2.179796 -2.129163,3.871756 -4.120977,4.444466 -0.500922,0.144031 -0.815928,0.187308 -1.423468,0.195563 -0.297,0.004 -0.6156,-0.0025 -0.708,-0.01459 z"
       id="path10328-42"
       inkscape:connector-curvature="0" />
    <path
       inkscape:connector-curvature="0"
       id="path10259-5"
       d="m 12.131341,19.069991 -5.5e-4,-2.441999 0.449015,-1.800001 c 0.246959,-0.989998 0.452334,-1.804423 0.456389,-1.809828 0.0041,-0.0054 0.107351,0.01498 0.229545,0.0453 0.27632,0.06857 0.724007,0.09064 1.00501,0.04956 0.391392,-0.05723 0.7889,-0.217841 1.140195,-0.460691 0.219956,-0.152055 0.583711,-0.528159 0.739445,-0.764548 0.851515,-1.292519 0.673096,-3.0606692 -0.421367,-4.1757932 -0.34774,-0.354305 -0.842138,-0.6369148 -1.32911,-0.7597528 -0.230179,-0.05806 -0.308582,-0.06644 -0.612,-0.06541 -0.62955,0.0022 -1.106655,0.162286 -1.607167,0.5394328 -0.580423,0.437363 -1.000199,1.151424 -1.145384,1.948361 -0.0589,0.323326 -0.053,0.8676012 0.01295,1.1924842 0.02803,0.138114 0.04301,0.257657 0.03329,0.26565 -0.0097,0.008 -0.168881,0.06984 -0.353681,0.137428 -0.1848,0.06759 -0.8630202,0.317949 -1.5071542,0.556349 l -1.171154,0.433454 -0.729716,0 -0.7297151,0 0.01017,0.114 c 0.0056,0.0627 0.01558,0.222 0.02219,0.354 0.01644,0.328326 0.07941,1.126425 0.110778,1.404 0.02956,0.261604 0.133038,1.105576 0.157423,1.284 l 0.0164,0.12 -0.239353,-0.288 c -0.131645,-0.1584 -0.496412,-0.6012 -0.810594,-0.984 -0.314182,-0.3828 -0.974525,-1.1874 -1.467429,-1.788 -0.492904,-0.6006 -1.090851,-1.328811 -1.328772,-1.618246 -0.237932,-0.289436 -0.430005,-0.528864 -0.42684,-0.532063 1.460915,-1.4768782 4.7215211,-4.726217 4.7123921,-4.696109 -0.09905,0.326675 -0.4742431,2.1868098 -0.5313611,2.6344178 -0.0084,0.066 -0.02053,0.1389 -0.02691,0.162 -0.01085,0.03927 0.03185,0.042 0.6576351,0.042 l 0.669234,0 0.04265,-0.138 c 0.02346,-0.0759 0.09709,-0.277235 0.163617,-0.44741 0.473057,-1.2100148 1.301064,-2.2549718 2.3228502,-2.9314708 0.691116,-0.45757 1.427872,-0.747812 2.232577,-0.879512 0.427891,-0.07003 1.214443,-0.07553 1.63107,-0.01142 1.018008,0.156671 1.994231,0.587659 2.832,1.250285 0.248681,0.196692 0.770557,0.723196 0.988755,0.997524 0.794676,0.999101 1.261147,2.1009698 1.473241,3.4799998 0.05156,0.33527 0.07098,1.2173702 0.03539,1.6080002 -0.181509,1.992265 -1.135771,3.726988 -2.641384,4.801688 -0.292702,0.208928 -0.790861,0.484915 -1.101845,0.610433 l -0.290155,0.117113 0,0.155729 c 0,0.129428 0.127119,3.994074 0.149894,4.557037 l 0.007,0.174 -1.914466,0 -1.914467,0 -5.5e-4,-2.442 z"
       style="fill:none;stroke-width:0.25;stroke-miterlimit:4;stroke-dasharray:none" />
    <path
       id="path10328-4-2"
       d="m 12.137012,2.4882806 0,0.7138672 c -2e-4,0.392796 -0.0085,0.7273241 -0.01856,0.7431641 -0.0041,0.00654 -0.06586,0.028475 -0.09668,0.042969 -0.48036,0.1578118 -0.939913,0.3730867 -1.377929,0.663086 C 9.6220618,5.3278654 8.7946393,6.3729924 8.3215823,7.5830073 8.2550553,7.7531823 8.1809798,7.9543728 8.1575198,8.0302728 l -0.04199,0.1376955 -0.6699215,0 c -0.6257851,0 -0.6680766,-0.0027 -0.6572266,-0.04199 0.00638,-0.0231 0.017965,-0.096109 0.026365,-0.1621095 0.057118,-0.447608 0.4331765,-2.3080904 0.5322266,-2.6347654 0.00913,-0.03011 -3.2519757,3.2194104 -4.7128907,4.6962886 -0.00317,0.0032 0.1888258,0.242791 0.4267578,0.532227 0.237921,0.289435 0.8361976,1.017564 1.3291016,1.618164 0.492904,0.600599 1.1526147,1.405286 1.4667967,1.788086 0.314182,0.3828 0.6798785,0.825975 0.8115235,0.984375 l 0.239258,0.288086 -0.0166,-0.120117 c -0.024385,-0.178424 -0.1276665,-1.022576 -0.1572265,-1.28418 -0.03137,-0.277575 -0.094889,-1.075972 -0.1113285,-1.404297 -0.00661,-0.132 -0.01686,-0.290816 -0.02246,-0.353515 l -0.00976,-0.114258 0.7294926,0 0.7304685,0 0.038085,-0.01367 c 0.052697,0.211312 0.112224,0.421251 0.1845705,0.629883 0.163744,0.472201 0.5176415,1.21582 0.5791015,1.21582 0.013455,0 0.123961,-0.07895 0.245117,-0.175781 0.12115,-0.09683 0.6955625,-0.552271 1.2763627,-1.011719 0.580799,-0.459447 1.064058,-0.842663 1.074218,-0.851563 0.01015,-0.0089 -0.03451,-0.117702 -0.09961,-0.242187 -0.118932,-0.227419 -0.205252,-0.471819 -0.273438,-0.731445 1.64e-4,-0.03934 -0.004,-0.101736 -0.02637,-0.211914 -0.06595,-0.324883 -0.0716,-0.8690572 -0.0127,-1.1923832 0.145185,-0.796937 0.565085,-1.511856 1.145508,-1.949219 0.500511,-0.3771464 0.977872,-0.5368619 1.607422,-0.5390619 0.303418,-0.00105 0.381149,0.00737 0.611328,0.06543 0.486972,0.122838 0.981362,0.4054609 1.329102,0.7597654 1.094463,1.115124 1.273391,2.8832617 0.421875,4.1757817 -0.155734,0.236389 -0.519302,0.612593 -0.739258,0.764649 -0.351295,0.24285 -0.749233,0.403707 -1.140625,0.460936 -0.281003,0.04108 -0.728563,0.01877 -1.004882,-0.04981 -0.08006,-0.01986 -0.109154,-0.02242 -0.150391,-0.02929 -0.263106,-0.08045 -0.516976,-0.198556 -0.749023,-0.357422 -0.08928,-0.06112 -0.165146,-0.107616 -0.168946,-0.103516 -0.03273,0.03529 -1.860352,2.949867 -1.860352,2.966797 0,0.03068 0.161112,0.15973 0.431641,0.344727 0.437409,0.299113 0.893696,0.523166 1.375,0.69043 l -0.0127,0.05273 0,2.442383 10e-4,2.441406 1.914063,0 1.915039,0 -0.0078,-0.173828 c -0.0228,-0.562969 -0.149439,-4.427219 -0.149439,-4.556647 l 0,-0.15625 0.290039,-0.117187 c 0.310984,-0.12552 0.80886,-0.401423 1.101562,-0.610352 1.287456,-0.918979 2.168018,-2.322529 2.510742,-3.955077 0.02355,-0.01369 0.319106,-0.02149 0.806641,-0.02149 0.447242,0 0.819372,-0.0095 0.826172,-0.02051 0.01199,-0.0194 -0.288634,-3.5607842 -0.311524,-3.6699217 l -0.01172,-0.053711 -0.767578,0 -0.754883,0 C 19.23365,7.3759228 18.853838,6.6683909 18.328419,6.0078119 18.110221,5.7334839 17.588818,5.2074334 17.340138,5.0107414 16.764548,4.5554836 16.12251,4.2119893 15.44756,3.9892572 c -0.0346,-0.014219 -0.100878,-0.037066 -0.106446,-0.041992 -0.01391,-0.01231 -0.03394,-0.321321 -0.04785,-0.734375 l -0.02441,-0.7128908 -1.565429,-0.00586 -1.566407,-0.00586 z"
       style="fill:none;stroke:#ffffff;stroke-width:0.25;stroke-linecap:round;stroke-linejoin:round;stroke-miterlimit:4;stroke-dasharray:none"
       inkscape:connector-curvature="0" />
  </g>
</svg>
