<?xml version="1.0" encoding="UTF-8" standalone="no"?>
<svg
   xmlns:dc="http://purl.org/dc/elements/1.1/"
   xmlns:cc="http://creativecommons.org/ns#"
   xmlns:rdf="http://www.w3.org/1999/02/22-rdf-syntax-ns#"
   xmlns:svg="http://www.w3.org/2000/svg"
   xmlns="http://www.w3.org/2000/svg"
   xmlns:sodipodi="http://sodipodi.sourceforge.net/DTD/sodipodi-0.dtd"
   xmlns:inkscape="http://www.inkscape.org/namespaces/inkscape"
   fill="#000000"
   height="48"
   viewBox="0 0 24 24"
   width="48"
   id="svg3103"
   version="1.1"
   inkscape:version="0.91 r"
   sodipodi:docname="ic_turn-roundabout-cw-far.svg"
   inkscape:export-filename="/home/tackat/TURN/final/192/ic_turn-roundabout-cw-far.png"
   inkscape:export-xdpi="360"
   inkscape:export-ydpi="360">
  <sodipodi:namedview
     pagecolor="#dfdfdf"
     bordercolor="#666666"
     borderopacity="1"
     objecttolerance="10"
     gridtolerance="10"
     guidetolerance="10"
     inkscape:pageopacity="0"
     inkscape:pageshadow="2"
     inkscape:window-width="1600"
     inkscape:window-height="845"
     id="namedview3109"
     showgrid="false"
     inkscape:zoom="8.0000004"
     inkscape:cx="-19.292745"
     inkscape:cy="29.567839"
     inkscape:window-x="-2"
     inkscape:window-y="-3"
     inkscape:window-maximized="1"
     inkscape:current-layer="svg3103"
     showguides="true"
     inkscape:guide-bbox="true" />
  <metadata
     id="metadata3113">
    <rdf:RDF>
      <cc:Work
         rdf:about="">
        <dc:format>image/svg+xml</dc:format>
        <dc:type
           rdf:resource="http://purl.org/dc/dcmitype/StillImage" />
        <dc:title></dc:title>
      </cc:Work>
    </rdf:RDF>
  </metadata>
  <defs
     id="defs3111" />
  <rect
     style="color:#000000;display:inline;overflow:visible;visibility:visible;opacity:1;fill:none;fill-opacity:1;fill-rule:nonzero;stroke:none;stroke-width:0.25;stroke-linecap:round;stroke-linejoin:round;stroke-miterlimit:4;stroke-dasharray:none;stroke-opacity:1;marker:none;enable-background:accumulate"
     id="rect5271"
     width="24"
     height="24"
     x="0"
     y="-1.6829257e-15"
     inkscape:export-xdpi="270"
     inkscape:export-ydpi="270" />
  <path
     style="fill:none"
     inkscape:connector-curvature="0"
     d="m 22.559842,3.249554 24,0 0,24 -24,0 z"
     id="path3107" />
  <path
     inkscape:connector-curvature="0"
     style="fill:#2c72c7;stroke:#ffffff;stroke-width:0.75;stroke-linecap:round;stroke-linejoin:round;stroke-miterlimit:4;stroke-dasharray:none;stroke-opacity:1"
     d="m 15.702148,2.003906 c 2.239262,0 2.944336,0.00687 2.944336,0.02832 0,0.062222 0.407639,6.0897105 0.420899,6.2236325 l 0.01465,0.144532 L 18.822265,8.015625 C 18.351402,7.320614 17.397081,6.0438067 17.329101,6.0175778 c -0.0093,-0.0036 -0.256018,0.2609149 -0.547851,0.5878909 -0.291833,0.3269763 -0.550616,0.6113078 -0.575196,0.6318358 -7.5e-4,6.5e-4 -0.04024,0.022255 -0.04199,0.023435 0.205958,0.3912225 0.390331,0.812805 0.5,1.174805 0.06255,0.206484 0.207032,0.7741565 0.207032,0.8134765 0,0.01176 -0.110794,0.03837 -0.246094,0.05957 -0.1353,0.0212 -0.418683,0.066139 -0.629883,0.099609 -0.2112,0.033465 -0.735063,0.1147745 -1.164063,0.180664 -0.429,0.065891 -0.839509,0.128845 -0.912109,0.140625 -0.0726,0.01176 -0.135448,0.01855 -0.139648,0.01465 -0.0041,-0.00395 -0.02367,-0.076316 -0.04297,-0.160156 C 13.639999,9.165448 13.475341,8.8001325 13.251954,8.471678 13.206244,8.40352 13.161604,8.33539 13.109376,8.270507 13.060576,8.209843 13.00501,8.1533255 12.951173,8.095702 12.891573,8.032467 12.833946,7.96695 12.769532,7.9091785 c -0.01688,-0.01528 -0.03463,-0.029175 -0.05176,-0.043945 -0.100011,-0.085749 -0.203456,-0.1650155 -0.310547,-0.234375 -0.01155,-0.00739 -0.02256,-0.01625 -0.03418,-0.023435 -0.112847,-0.07065 -0.229257,-0.1276945 -0.344727,-0.1757815 -0.02154,-0.00929 -0.04274,-0.01867 -0.06445,-0.027345 -0.2856,-0.109363 -0.57301,-0.1722285 -0.859375,-0.1845705 -0.146125,-0.0063 -0.291672,5e-4 -0.436523,0.01953 -0.0046,5.5e-4 -0.0091,0.00135 -0.01367,0.00195 -0.144736,0.019825 -0.289204,0.051508 -0.431641,0.09668 -0.138903,0.04405 -0.239403,0.082087 -0.333008,0.123047 -0.01957,0.00891 -0.03918,0.017945 -0.05859,0.027345 -0.08548,0.04065 -0.164808,0.082701 -0.255859,0.141602 -0.05561,0.035975 -0.07396,0.0454 -0.107422,0.065429 C 9.23642,7.8541565 9.022798,8.0520645 8.834968,8.288083 8.533117,8.667375 8.333314,9.081628 8.218757,9.5332 c -0.0057,0.025035 -0.0042,0.02638 -0.01172,0.055664 -0.03556,0.137951 -0.05956,0.2858415 -0.0752,0.4375 -0.0015,0.01416 -0.0035,0.02776 -0.0049,0.04199 -0.04359,0.482588 0.01104,1.008146 0.15918,1.447266 0.0013,0.0037 0.0016,0.008 0.003,0.01172 8e-4,0.0023 0.0021,0.0045 0.003,0.0068 0.02364,0.06855 0.05172,0.135617 0.08008,0.202147 0.01294,0.03027 0.0252,0.06102 0.03907,0.09082 0.02789,0.06005 0.0583,0.118768 0.08984,0.176758 0.02182,0.03998 0.04479,0.07917 0.06836,0.118164 0.02891,0.04804 0.05852,0.09534 0.08984,0.141602 0.03141,0.0461 0.06466,0.09126 0.09863,0.135742 0.02829,0.03731 0.05611,0.07547 0.08594,0.111328 0.06649,0.07933 0.135938,0.156192 0.210937,0.229492 0.0011,0.0011 0.0017,0.0027 0.003,0.0039 3.29e-4,3.21e-4 6.5e-4,6.5e-4 10e-4,0.001 0.07764,0.07559 0.157219,0.141412 0.237305,0.205079 0.04868,0.03806 0.0987,0.07394 0.149414,0.108398 0.02889,0.01994 0.05842,0.03898 0.08789,0.05762 0.06595,0.04113 0.133404,0.08055 0.202148,0.115235 0.0015,7e-4 0.0024,0.0022 0.0039,0.003 0.0022,0.0011 0.0046,0.0018 0.0068,0.003 0.10761,0.05366 0.224148,0.102045 0.341797,0.143555 0.01737,0.006 0.03509,0.01184 0.05273,0.01758 0.095,0.03158 0.187686,0.05564 0.277344,0.0752 0.04608,0.0087 0.08806,0.01928 0.139648,0.02539 7e-4,8.3e-5 0.0013,-8.2e-5 0.002,0 0.0012,1.64e-4 0.0026,-1.62e-4 0.0039,0 0.08581,0.01 0.177697,0.0159 0.270508,0.01855 0.01913,3.14e-4 0.03822,1.7e-5 0.05762,0 0.05761,7e-4 0.114468,-7e-4 0.170898,-0.003 0.06364,-0.0031 0.126277,-0.0082 0.186524,-0.01465 0.02681,-0.0029 0.05282,-0.0061 0.07813,-0.0098 0.05617,-0.0077 0.10692,-0.01663 0.154297,-0.02735 0.318715,-0.07229 0.6524,-0.210093 0.915877,-0.383806 0.12949,-0.08537 0.236758,-0.155273 0.239258,-0.155273 0.0068,0 1.85669,2.901638 1.9375,3.039062 0.01816,0.03087 -0.336852,0.30814 -0.666016,0.520509 -0.340351,0.219584 -0.776726,0.41986 -1.206055,0.571289 -1.07e-4,0.0014 0.0052,0.01997 0.0049,0.02051 -0.007,0.01139 -0.0022,0.02392 0.0098,0.02832 0.01255,0.0046 0.02884,1.036398 0.03907,2.450195 l 0.01758,2.442383 -1.923828,0 -1.922851,0 0,-0.154297 c 0,-0.308388 0.119362,-4.635851 0.129883,-4.709961 l 0.0098,-0.06836 c -0.06379,-0.02536 -0.129821,-0.05239 -0.241211,-0.0957 -0.09778,-0.03802 -0.191423,-0.08771 -0.287109,-0.131836 -0.02831,-0.01337 -0.0553,-0.02292 -0.08399,-0.03711 -0.323195,-0.15594 -0.631886,-0.346274 -0.924804,-0.566406 -0.0584,-0.0427 -0.120471,-0.0847 -0.174805,-0.12793 -0.0072,-0.0057 -0.02761,-0.02612 -0.03613,-0.03321 -0.269437,-0.22201 -0.51879,-0.472997 -0.751954,-0.743164 -0.03094,-0.03547 -0.06266,-0.07032 -0.09277,-0.106446 C 6.395402,15.126699 6.320686,15.02867 6.24725,14.928701 6.19505,14.858081 6.144178,14.786626 6.094906,14.713857 6.034876,14.624937 5.976098,14.535607 5.920101,14.443349 5.871761,14.363619 5.826431,14.282194 5.781429,14.200185 5.723949,14.095924 5.667614,13.99162 5.615414,13.883779 5.591524,13.833999 5.569764,13.782932 5.547054,13.732412 5.496954,13.622101 5.442981,13.513954 5.398617,13.40038 5.247055,13.012381 5.135923,12.605528 5.055843,12.189443 c -0.03465,-0.180038 -0.06381,-0.361716 -0.08496,-0.544922 -0.0022,-0.01779 -0.0057,-0.03489 -0.0078,-0.05273 -0.0013,-0.01131 -7e-4,-0.04205 -0.0019,-0.05469 -0.051,-0.505963 -0.05355,-1.020121 -0.001,-1.530273 0.0017,-0.016091 0.0011,-0.05773 0.003,-0.07129 0.0091,-0.068225 0.02214,-0.1282805 0.03223,-0.194336 0.0198,-0.1421495 0.0433,-0.283032 0.07129,-0.423828 0.0047,-0.023245 0.0098,-0.046315 0.01465,-0.069336 C 5.10259,9.1453075 5.12069,9.042193 5.14656,8.9404625 5.540575,7.390981 6.419847,6.0784147 7.595773,5.1953452 7.802834,5.0398512 8.018631,4.8982022 8.243234,4.7705407 c 0.0143,-0.00821 0.02862,-0.016336 0.04297,-0.024414 C 8.387443,4.6896797 8.490345,4.6364736 8.594797,4.58597 8.628972,4.569352 8.662922,4.552058 8.697336,4.5361655 8.801136,4.488417 8.907062,4.4450969 9.013742,4.403353 9.036032,4.394662 9.057772,4.3844045 9.080149,4.376009 9.238357,4.3162631 9.398492,4.2608988 9.5625,4.2148435 9.948934,4.1063253 10.226222,4.0593821 10.61914,4.041992 c 0.193304,-0.013975 0.387141,-0.022008 0.583008,-0.015625 0.04868,0.00159 0.09449,0.00899 0.142578,0.011719 0.22489,0.005 0.384538,0.016179 0.582032,0.050781 0.150259,0.026327 0.296679,0.062503 0.442382,0.099609 0.0055,0.00139 0.01112,0.0025 0.0166,0.00391 0.192335,0.049569 0.379602,0.1096573 0.563477,0.17773 0.257396,0.095291 0.506574,0.2072047 0.746094,0.3378906 l 0.09863,0.049805 0.08008,-0.092773 c 0.0443,-0.050702 0.294198,-0.317545 0.55469,-0.59375 L 14.902344,3.5683591 14.740235,3.4394528 C 14.28576,3.0744123 13.677594,2.6280179 13.104492,2.2392576 l -0.345703,-0.2353516 2.943359,0 z"
     id="path6977-1"
     inkscape:export-xdpi="270"
     inkscape:export-ydpi="270" />
  <g
     id="g6979"
     transform="matrix(-1,0,0,1,23.51722,0.1516398)"
     inkscape:export-xdpi="270"
     inkscape:export-ydpi="270">
    <path
       inkscape:connector-curvature="0"
       id="path6977"
       d="m 12.286291,17.211472 c -0.1518,-0.0096 -0.3408,-0.02905 -0.42,-0.04326 -0.0792,-0.01421 -0.203401,-0.03615 -0.276001,-0.04876 -0.613883,-0.106594 -1.426922,-0.429709 -1.9814055,-0.787446 -0.329164,-0.212368 -0.683951,-0.489852 -0.665794,-0.520729 0.08081,-0.137424 1.9303275,-3.038927 1.9371165,-3.038927 0.0025,0 0.110503,0.06985 0.239993,0.155225 0.28195,0.185892 0.64467,0.333694 0.983154,0.400617 0.315137,0.06231 0.815616,0.0506 1.104199,-0.02583 0.496367,-0.131459 0.882901,-0.350724 1.251657,-0.710013 0.674386,-0.657073 1.009277,-1.566015 0.946157,-2.567999 -0.04498,-0.7140844 -0.282797,-1.3353574 -0.722777,-1.8882154 -1.027357,-1.290927 -2.836742,-1.438152 -3.996361,-0.325173 -0.458864,0.44041 -0.7564835,0.973333 -0.9057355,1.621829 -0.0193,0.08384 -0.03849,0.155661 -0.04264,0.159597 -0.0042,0.0039 -0.06696,-0.0025 -0.139559,-0.01426 -0.0726,-0.01178 -0.483,-0.07533 -0.912,-0.141221 -0.429,-0.06589 -0.9528,-0.14719 -1.164,-0.180657 -0.2112,-0.03347 -0.4947,-0.07819 -0.63,-0.09939 -0.1353,-0.0212 -0.246,-0.04816 -0.246,-0.05992 0,-0.03932 0.144243,-0.606116 0.206798,-0.8126 0.172116,-0.568124 0.52097,-1.293099 0.864014,-1.795558 0.95082,-1.392674 2.2886625,-2.274051 3.8731875,-2.551674 0.281614,-0.04934 0.399352,-0.05666 0.9,-0.05598 0.641972,8.79e-4 0.956838,0.04014 1.464,0.182561 2.145464,0.602475 3.824618,2.398984 4.416016,4.72465 0.376474,1.4804804 0.285951,3.0833034 -0.251899,4.4602044 -0.64752,1.657655 -1.919003,2.981699 -3.426192,3.567822 -0.155059,0.0603 -0.306233,0.119835 -0.335943,0.132298 -0.174565,0.07323 -0.954677,0.233081 -1.222461,0.250486 -0.407563,0.02649 -0.582611,0.02903 -0.847521,0.01231 z"
       style="fill:#2c72c7" />
    <path
       inkscape:connector-curvature="0"
       id="path6910"
       d="m 10.761557,19.40235 c 0.01023,-1.413797 0.0268,-2.44539 0.03935,-2.45005 0.01192,-0.0044 0.01592,-0.01737 0.0089,-0.02876 -0.007,-0.01139 0.03688,-0.207571 0.0976,-0.435951 0.06072,-0.228379 0.196578,-0.739234 0.301901,-1.135234 0.318264,-1.196629 0.39834,-1.498885 0.478462,-1.806 0.04218,-0.1617 0.08438,-0.294 0.09378,-0.294 0.0094,0 0.102508,0.02253 0.20692,0.05007 0.27166,0.07165 0.769041,0.08865 1.048777,0.03585 0.233466,-0.04406 0.509491,-0.139248 0.741165,-0.25558 0.656968,-0.329889 1.195688,-0.964078 1.449691,-1.706595 0.202745,-0.592678 0.234886,-1.347706 0.08253,-1.9388226 -0.02539,-0.0985 -0.04256,-0.182682 -0.03816,-0.187078 0.0044,-0.0044 0.117534,0.04057 0.251417,0.09994 l 0.243424,0.107928 -0.01439,-0.67085 c -0.0079,-0.368968 -0.0085,-0.67085 -0.0012,-0.67085 0.0072,0 0.301419,0.09727 0.65373,0.21616 0.35231,0.118887 0.643741,0.212983 0.647622,0.209101 0.0039,-0.0039 -0.0034,-0.07685 -0.01608,-0.16216 -0.01272,-0.0853 -0.03993,-0.279301 -0.06046,-0.431101 -0.02053,-0.1518 -0.0526,-0.37793 -0.07126,-0.5025101 -0.01866,-0.1245804 -0.03021,-0.2302232 -0.02567,-0.2347618 0.0045,-0.00454 0.147409,-0.023775 0.31749,-0.042749 0.170081,-0.018973 0.353686,-0.039825 0.408012,-0.046337 l 0.09877,-0.01184 0.156428,0.3170986 c 0.363827,0.7375271 0.572405,1.4463151 0.69363,2.3570991 0.04119,0.3094268 0.04164,1.3072968 7.59e-4,1.6559998 -0.189909,1.619765 -0.853017,3.025683 -1.926949,4.085509 -0.163579,0.16143 -0.373016,0.353655 -0.465416,0.427166 -0.435462,0.346445 -1.018135,0.685865 -1.480201,0.862251 l -0.232202,0.08864 0.01082,0.07622 c 0.01052,0.07411 0.12958,4.40158 0.12958,4.709968 l 0,0.154249 -1.923204,0 -1.923204,0 0.01767,-2.442 z M 9.8021303,8.4848184 c -0.131911,-0.07454 -0.331639,-0.185975 -0.443839,-0.247627 -0.775185,-0.425957 -2.010007,-1.1205668 -2.047077,-1.1515179 -0.02458,-0.020528 -0.283474,-0.3048492 -0.575307,-0.6318252 -0.291833,-0.3269758 -0.538188,-0.5915758 -0.547457,-0.588 -0.06798,0.026229 -1.02223,1.3034911 -1.493093,1.9985021 l -0.260156,0.384 0.01426,-0.144 c 0.01326,-0.133922 0.420829,-6.1615777 0.420829,-6.2237994 0,-0.021448 0.70504,-0.028201 2.944302,-0.028201 l 2.9443017,0 -0.346302,0.2349118 C 9.8394903,2.4760221 9.2311423,2.9222885 8.7766683,3.287329 l -0.161623,0.1298174 0.473623,0.5021906 c 0.260492,0.276205 0.509864,0.5436744 0.55416,0.5943766 l 0.08054,0.092186 0.2794627,-0.1391542 c 0.75762,-0.3772461 1.491624,-0.5651618 2.31196,-0.5918947 1.177777,-0.038381 2.317665,0.2937497 3.317772,0.9667042 0.272308,0.1832313 0.37373,0.2602785 0.37373,0.2839108 0,0.00738 -0.1431,0.057541 -0.318,0.1114652 -0.461297,0.1422244 -0.434749,0.1265671 -0.417607,0.2462913 0.06393,0.4464879 0.137315,1.0794204 0.126424,1.0903111 -0.0073,0.00735 -0.259228,-0.00393 -0.559728,-0.025072 -0.3005,-0.02114 -0.55336,-0.030713 -0.561912,-0.021274 -0.01677,0.01851 -0.05008,0.2518416 -0.09323,0.6531629 -0.03419,0.3179213 -0.0475,0.4080003 -0.06028,0.4080003 -0.0056,0 -0.08645,-0.04935 -0.179684,-0.1096623 -0.205788,-0.1331234 -0.349149,-0.1978675 -0.647977,-0.2926358 -0.578891,-0.1835861 -1.180866,-0.1576419 -1.772561,0.076395 -0.518715,0.205171 -1.039753,0.6633205 -1.346412,1.1839035 -0.05637,0.0957 -0.109439,0.174 -0.117923,0.174 -0.0085,0 -0.1233527,-0.06099 -0.2552647,-0.135532 z"
       style="fill:#00438a" />
  </g>
  <path
     inkscape:connector-curvature="0"
     style="fill:none;stroke:#ffffff;stroke-width:0.25;stroke-linecap:round;stroke-linejoin:round;stroke-miterlimit:4;stroke-dasharray:none;stroke-opacity:1"
     d="m 15.702148,2.0039058 c 2.239262,0 2.944336,0.00687 2.944336,0.02832 0,0.062222 0.407639,6.0897107 0.420899,6.2236327 l 0.01465,0.144532 L 18.822265,8.015625 C 18.351402,7.320614 17.397081,6.0438064 17.329101,6.0175775 c -0.0093,-0.0036 -0.256018,0.2609149 -0.547851,0.5878909 -0.291833,0.3269761 -0.550616,0.6113076 -0.575196,0.6318356 -7.5e-4,6.5e-4 -0.04024,0.022255 -0.04199,0.023435 0.205958,0.3912225 0.390331,0.8128055 0.5,1.174805 0.06255,0.206484 0.207032,0.7741565 0.207032,0.8134765 0,0.01176 -0.110794,0.03837 -0.246094,0.059571 -0.1353,0.0212 -0.418683,0.066139 -0.629883,0.099608 -0.2112,0.033465 -0.735063,0.1147745 -1.164063,0.180664 -0.429,0.065891 -0.839509,0.128845 -0.912109,0.140625 -0.0726,0.01176 -0.135448,0.01855 -0.139648,0.01465 -0.0041,-0.00395 -0.02367,-0.076316 -0.04297,-0.160156 -0.09633,-0.418535 -0.260988,-0.7838505 -0.484375,-1.112305 -0.04571,-0.068158 -0.09035,-0.136288 -0.142578,-0.201171 -0.0488,-0.060664 -0.104366,-0.1171815 -0.158203,-0.174805 -0.0596,-0.063235 -0.117227,-0.128752 -0.181641,-0.1865235 -0.01688,-0.01528 -0.03463,-0.029175 -0.05176,-0.043945 -0.100011,-0.085749 -0.203456,-0.1650155 -0.310547,-0.234375 -0.01155,-0.00739 -0.02256,-0.01625 -0.03418,-0.023435 -0.112847,-0.07065 -0.229257,-0.1276945 -0.344727,-0.1757815 -0.02154,-0.00929 -0.04274,-0.01867 -0.06445,-0.027345 -0.2856,-0.109363 -0.57301,-0.1722285 -0.859375,-0.1845705 -0.146125,-0.0063 -0.291672,5e-4 -0.436523,0.01953 -0.0046,5.5e-4 -0.0091,0.00135 -0.01367,0.00195 -0.144736,0.019825 -0.289204,0.051508 -0.431641,0.09668 C 10.083756,7.381936 9.983256,7.419973 9.889651,7.460933 9.870081,7.469843 9.850471,7.478878 9.831061,7.488278 9.745581,7.528928 9.666253,7.570979 9.575202,7.62988 9.519592,7.665855 9.501242,7.67528 9.46778,7.695309 9.23642,7.854156 9.022798,8.052064 8.834968,8.2880825 c -0.301851,0.379292 -0.501654,0.793545 -0.616211,1.245117 -0.0057,0.025035 -0.0042,0.02638 -0.01172,0.055664 -0.03556,0.137951 -0.05956,0.2858415 -0.0752,0.4375005 -0.0015,0.01416 -0.0035,0.02776 -0.0049,0.04199 -0.04359,0.482588 0.01104,1.008146 0.15918,1.447266 0.0013,0.0037 0.0016,0.008 0.003,0.01172 8e-4,0.0023 0.0021,0.0045 0.003,0.0068 0.02364,0.06855 0.05172,0.135616 0.08008,0.202147 0.01294,0.03027 0.0252,0.06102 0.03907,0.09082 0.02789,0.06005 0.0583,0.118768 0.08984,0.176758 0.02182,0.03998 0.04479,0.07917 0.06836,0.118164 0.02891,0.04804 0.05852,0.09534 0.08984,0.141602 0.03141,0.0461 0.06466,0.09126 0.09863,0.135742 0.02829,0.03731 0.05611,0.07547 0.08594,0.111328 0.06649,0.07933 0.135938,0.156192 0.210937,0.229492 0.0011,0.0011 0.0017,0.0027 0.003,0.0039 3.29e-4,3.21e-4 6.5e-4,6.5e-4 10e-4,0.001 0.07764,0.07559 0.157219,0.141412 0.237305,0.205079 0.04868,0.03806 0.0987,0.07394 0.149414,0.108398 0.02889,0.01994 0.05842,0.03898 0.08789,0.05762 0.06595,0.04113 0.133404,0.08055 0.202148,0.115235 0.0015,7e-4 0.0024,0.0022 0.0039,0.003 0.0022,0.0011 0.0046,0.0018 0.0068,0.003 0.10761,0.05366 0.224148,0.102045 0.341797,0.143555 0.01737,0.006 0.03509,0.01184 0.05273,0.01758 0.095,0.03158 0.187686,0.05564 0.277344,0.0752 0.04608,0.0087 0.08806,0.01928 0.139648,0.02539 7e-4,8.3e-5 0.0013,-8.2e-5 0.002,0 0.0012,1.64e-4 0.0026,-1.62e-4 0.0039,0 0.08581,0.01 0.177697,0.0159 0.270508,0.01855 0.01913,3.14e-4 0.03822,1.7e-5 0.05762,0 0.05761,7e-4 0.114468,-7e-4 0.170898,-0.003 0.06364,-0.0031 0.126277,-0.0082 0.186524,-0.01465 0.02681,-0.0029 0.05282,-0.0061 0.07813,-0.0098 0.05617,-0.0077 0.10692,-0.01663 0.154297,-0.02735 0.318715,-0.07229 0.6524,-0.210093 0.915877,-0.383806 0.12949,-0.08537 0.236758,-0.155273 0.239258,-0.155273 0.0068,0 1.85669,2.901638 1.9375,3.039062 0.01816,0.03087 -0.336851,0.30814 -0.666016,0.520509 -0.340351,0.219584 -0.776726,0.41986 -1.206055,0.571289 -1.07e-4,0.0014 0.0052,0.01997 0.0049,0.02051 -0.007,0.01139 -0.0022,0.02392 0.0098,0.02832 0.01255,0.0046 0.02884,1.036397 0.03907,2.450195 l 0.01758,2.442383 -1.923828,0 -1.922852,0 0,-0.154297 c 0,-0.308388 0.119363,-4.635851 0.129883,-4.709961 l 0.0098,-0.06836 c -0.06379,-0.02536 -0.129821,-0.05239 -0.241211,-0.0957 -0.09778,-0.03802 -0.191423,-0.08771 -0.287108,-0.131836 -0.02831,-0.01337 -0.0553,-0.02292 -0.08399,-0.03711 -0.323195,-0.15594 -0.631886,-0.346274 -0.924804,-0.566406 -0.0584,-0.0427 -0.120471,-0.0847 -0.174805,-0.12793 -0.0072,-0.0057 -0.02761,-0.02612 -0.03613,-0.03321 C 7.049099,15.849269 6.799747,15.598282 6.566582,15.328115 6.535642,15.292645 6.503922,15.257795 6.473812,15.221669 6.395402,15.126699 6.320685,15.02867 6.24725,14.928701 6.19505,14.858081 6.144178,14.786626 6.094906,14.713857 6.034876,14.624937 5.976098,14.535607 5.920101,14.443349 5.871761,14.363619 5.826431,14.282194 5.781429,14.200185 5.723949,14.095924 5.667614,13.99162 5.615414,13.883779 5.591524,13.833999 5.569764,13.782932 5.547054,13.732412 5.496954,13.622101 5.442981,13.513954 5.398617,13.40038 5.247055,13.012381 5.135923,12.605528 5.055843,12.189443 c -0.03465,-0.180038 -0.06381,-0.361716 -0.08496,-0.544922 -0.0022,-0.01779 -0.0057,-0.03489 -0.0078,-0.05273 -0.0013,-0.01131 -7e-4,-0.04205 -0.0019,-0.05469 -0.051,-0.505963 -0.05355,-1.020121 -0.001,-1.530273 0.0017,-0.01609 0.0011,-0.05773 0.003,-0.07129 0.0091,-0.068225 0.02214,-0.1282805 0.03223,-0.194336 0.0198,-0.1421495 0.0433,-0.283032 0.07129,-0.423828 0.0047,-0.023245 0.0098,-0.046315 0.01465,-0.069336 C 5.102588,9.1453065 5.120688,9.042192 5.14656,8.940462 5.540575,7.3909805 6.419847,6.078414 7.595773,5.1953445 7.802834,5.0398505 8.018631,4.8982015 8.243234,4.77054 8.257534,4.76233 8.271854,4.754204 8.286204,4.746126 8.387443,4.689679 8.490345,4.6364729 8.594797,4.5859693 c 0.03417,-0.016618 0.06813,-0.033912 0.102539,-0.049805 0.1038,-0.047748 0.209726,-0.091069 0.316406,-0.1328125 0.02229,-0.00869 0.04403,-0.018949 0.06641,-0.027344 0.158205,-0.059745 0.31834,-0.1151097 0.482348,-0.161165 0.386434,-0.1085182 0.663722,-0.1554614 1.05664,-0.1728515 0.193304,-0.013975 0.387141,-0.022008 0.583008,-0.015625 0.04868,0.00159 0.09449,0.00899 0.142578,0.011719 0.22489,0.005 0.384538,0.016179 0.582032,0.050781 0.150259,0.026327 0.296679,0.062503 0.442382,0.099609 0.0055,0.00139 0.01112,0.0025 0.0166,0.00391 0.192335,0.049569 0.379602,0.1096573 0.563477,0.17773 0.257396,0.095291 0.506574,0.2072047 0.746094,0.3378906 l 0.09863,0.049805 0.08008,-0.092773 c 0.0443,-0.050702 0.294198,-0.317545 0.55469,-0.59375 L 14.902344,3.5683588 14.740235,3.4394525 C 14.28576,3.0744121 13.677594,2.6280177 13.104492,2.2392574 l -0.345703,-0.2353516 2.943359,0 z"
     id="path6977-1-0"
     inkscape:export-xdpi="270"
     inkscape:export-ydpi="270" />
</svg>
