<?xml version="1.0" encoding="UTF-8" standalone="no"?>
<svg
   xmlns:dc="http://purl.org/dc/elements/1.1/"
   xmlns:cc="http://creativecommons.org/ns#"
   xmlns:rdf="http://www.w3.org/1999/02/22-rdf-syntax-ns#"
   xmlns:svg="http://www.w3.org/2000/svg"
   xmlns="http://www.w3.org/2000/svg"
   xmlns:sodipodi="http://sodipodi.sourceforge.net/DTD/sodipodi-0.dtd"
   xmlns:inkscape="http://www.inkscape.org/namespaces/inkscape"
   fill="#000000"
   height="48"
   viewBox="0 0 24 24"
   width="48"
   id="svg3103"
   version="1.1"
   inkscape:version="0.91 r"
   sodipodi:docname="ic_turn-sharp-right.svg"
   inkscape:export-filename="/home/tackat/TURN/final/192/ic_turn-sharp-right.png"
   inkscape:export-xdpi="360"
   inkscape:export-ydpi="360">
  <sodipodi:namedview
     pagecolor="#dfdfdf"
     bordercolor="#666666"
     borderopacity="1"
     objecttolerance="10"
     gridtolerance="10"
     guidetolerance="10"
     inkscape:pageopacity="0"
     inkscape:pageshadow="2"
     inkscape:window-width="1600"
     inkscape:window-height="845"
     id="namedview3109"
     showgrid="false"
     inkscape:zoom="5.6568545"
     inkscape:cx="-69.12785"
     inkscape:cy="13.659414"
     inkscape:window-x="-2"
     inkscape:window-y="-3"
     inkscape:window-maximized="1"
     inkscape:current-layer="svg3103"
     showguides="true"
     inkscape:guide-bbox="true" />
  <metadata
     id="metadata3113">
    <rdf:RDF>
      <cc:Work
         rdf:about="">
        <dc:format>image/svg+xml</dc:format>
        <dc:type
           rdf:resource="http://purl.org/dc/dcmitype/StillImage" />
        <dc:title></dc:title>
      </cc:Work>
    </rdf:RDF>
  </metadata>
  <defs
     id="defs3111" />
  <rect
     style="color:#000000;display:inline;overflow:visible;visibility:visible;opacity:1;fill:none;fill-opacity:1;fill-rule:nonzero;stroke:none;stroke-width:0.25;stroke-linecap:round;stroke-linejoin:round;stroke-miterlimit:4;stroke-dasharray:none;stroke-opacity:1;marker:none;enable-background:accumulate"
     id="rect5271"
     width="24"
     height="24"
     x="-24"
     y="-1.6829257e-15"
     inkscape:export-xdpi="270"
     inkscape:export-ydpi="270"
     transform="scale(-1,1)" />
  <path
     style="fill:none"
     inkscape:connector-curvature="0"
     d="m 22.559842,3.249554 24,0 0,24 -24,0 z"
     id="path3107" />
  <path
     style="fill:#00438a;stroke:#ffffff;stroke-width:0.75;stroke-linecap:round;stroke-linejoin:round;stroke-miterlimit:4;stroke-dasharray:none"
     d="m 4.6920198,20.368154 c 0,-0.119162 0.839249,-13.1334541 0.864062,-13.3990711 0.08549,-0.915187 0.48,-1.751113 1.126991,-2.388 0.616004,-0.606384 1.368565,-0.947877 2.196947,-0.996918 0.844429,-0.04999 1.7046222,0.255828 2.3186652,0.824338 0.09313,0.08623 0.597733,0.605796 1.121334,1.154598 0.5236,0.548802 1.195001,1.25186 1.492001,1.562353 0.297,0.310492 0.960847,1.007128 1.475216,1.5480801 0.514369,0.540952 1.011822,1.062974 1.105451,1.160049 l 0.170235,0.176499 0.262548,-0.380353 C 17.455921,8.7164 18.084932,7.7065949 18.569894,6.8292589 l 0.156888,-0.283823 0.01509,0.163823 c 0.0226,0.245347 0.566153,8.7253051 0.566111,8.8318581 l -4.8e-5,0.09197 -4.271963,0.0069 c -2.34958,0.0038 -4.2715,-0.0016 -4.270934,-0.012 5.5e-4,-0.01037 0.127465,-0.111775 0.281999,-0.225347 0.356087,-0.261699 1.157302,-0.900138 1.625364,-1.295154 0.367139,-0.309842 1.330723,-1.1734 1.412863,-1.266199 0.04481,-0.05062 0.04435,-0.05214 -0.04632,-0.15364 C 13.932784,12.5688 12.391261,10.868261 11.53134,9.92136 11.207565,9.564836 10.566444,8.857334 10.106626,8.3491339 c -0.4598192,-0.5082 -0.8624142,-0.9483 -0.8946572,-0.978 -0.07073,-0.06515 -0.178038,-0.06999 -0.231909,-0.01046 -0.03523,0.03893 -0.05966,0.696377 -0.23079,6.2100001 -0.105264,3.391554 -0.19833,6.320362 -0.206813,6.508462 l -0.01543,0.342 -1.917505,0 -1.917505,0 0,-0.05293 z"
     id="path6037-9"
     inkscape:connector-curvature="0" />
  <path
     style="fill:#00438a;stroke:#ffffff;stroke-width:0.25;stroke-miterlimit:4;stroke-dasharray:none;stroke-linejoin:round;stroke-linecap:round"
     d="m 4.6920198,20.368154 c 0,-0.119162 0.839249,-13.1334543 0.864062,-13.3990713 0.08549,-0.915187 0.48,-1.751113 1.126991,-2.388 0.616004,-0.606384 1.368565,-0.947877 2.196947,-0.996918 0.844429,-0.04999 1.7046222,0.255828 2.3186652,0.824338 0.09313,0.08623 0.597733,0.605796 1.121334,1.154598 0.5236,0.548802 1.195001,1.25186 1.492001,1.562353 0.297,0.310492 0.960847,1.007128 1.475216,1.54808 0.514369,0.540952 1.011822,1.062974 1.105451,1.160049 l 0.170235,0.1764993 0.262548,-0.3803533 c 0.630451,-0.913329 1.259462,-1.923134 1.744424,-2.80047 l 0.156888,-0.283823 0.01509,0.163823 c 0.0226,0.245347 0.566153,8.7253053 0.566111,8.8318583 l -4.8e-5,0.09197 -4.271963,0.0069 c -2.34958,0.0038 -4.2715,-0.0016 -4.270934,-0.012 5.66e-4,-0.01037 0.127465,-0.111775 0.281999,-0.225347 0.356087,-0.261699 1.157302,-0.900138 1.625364,-1.295154 0.367139,-0.309842 1.330723,-1.1734 1.412863,-1.266199 0.04481,-0.05062 0.04435,-0.05214 -0.04632,-0.15364 -0.10616,-0.118847 -1.647683,-1.819386 -2.507604,-2.7662873 -0.323775,-0.356524 -0.964896,-1.064026 -1.424714,-1.572226 -0.4598192,-0.5082 -0.8624142,-0.9483 -0.8946572,-0.978 -0.07073,-0.06515 -0.178038,-0.06999 -0.231909,-0.01046 -0.03523,0.03893 -0.05966,0.696377 -0.23079,6.2100003 -0.105264,3.391554 -0.19833,6.320362 -0.206813,6.508462 l -0.01543,0.342 -1.917505,0 -1.917505,0 0,-0.05293 z"
     id="path6037"
     inkscape:connector-curvature="0" />
</svg>
