<?xml version="1.0" encoding="UTF-8" standalone="no"?>
<!-- Created with Inkscape (http://www.inkscape.org/) -->
<svg
   xmlns:svg="http://www.w3.org/2000/svg"
   xmlns="http://www.w3.org/2000/svg"
   version="1.0"
   width="725.85449pt"
   height="362.7959pt"
   viewBox="0 0 725.85449 362.7959"
   id="svg2412"
   xml:space="preserve"><defs
   id="defs2624" />
	<g
   style="fill-rule:nonzero;stroke:#ffffff;stroke-width:0;stroke-miterlimit:4"
   id="Layer_x0020_1">
		<path
   d="M 351.8125,80.91064 L 355.5625,80.24414 L 355.9375,79.11914 L 358.0625,79.74414 L 364.4375,78.86914 L 366.0625,77.99414 L 365.5625,77.24414 L 366.1875,76.24414 L 366.1875,74.74414 L 364.1875,73.86914 L 358.3125,68.24414 L 356.4375,67.99414 L 358.5625,66.74414 L 358.6875,64.86914 L 356.8125,64.61914 L 355.0625,65.49414 L 356.4375,63.36914 L 352.8125,63.36914 L 352.0625,64.24414 L 352.0625,66.11914 L 351.0625,66.99414 L 353.4375,69.11914 L 352.5625,70.61914 L 356.3125,71.11914 L 357.0625,71.74414 L 357.0625,72.74414 L 355.0625,73.99414 L 354.3125,75.24414 L 352.6875,76.49414 L 354.22949,77.57764 L 356.9375,77.74414 L 353.6875,78.49414 L 351.8125,80.91064 z "
   style="stroke:none"
   id="path2415" />
		<path
   d="M 342.9375,77.61914 L 346.6875,77.74414 L 350.3125,75.86914 L 351.3125,74.24414 L 350.4375,73.49414 L 350.4375,72.61914 L 351.9375,71.86914 L 350.9375,70.11914 L 347.9375,69.24414 L 346.0625,69.99414 L 345.6875,72.36914 L 343.8125,71.36914 L 342.9375,71.99414 L 343.5625,72.49414 L 343.0625,73.49414 L 345.0625,74.11914 L 343.8125,74.86914 L 344.3125,75.49414 L 343.0625,76.36914 L 342.9375,77.61914 z "
   style="stroke:none"
   id="path2417" />
		<path
   d="M 317.4375,52.99414 L 322.5625,54.11914 L 327.3125,53.99414 L 336.3125,50.86914 L 331.4375,47.99414 L 328.3125,48.86914 L 321.9375,48.99414 L 320.1875,50.11914 L 318.8125,47.99414 L 316.8125,47.99414 L 315.3125,48.99414 L 315.3125,49.49414 L 318.5625,49.99414 L 318.9375,51.49414 L 317.4375,52.99414 z "
   style="stroke:none"
   id="path2419" />
		<path
   d="M 453.0625,214.16016 L 458.72949,212.49414 L 459.89551,210.49414 L 461.5625,208.82812 L 461.5625,206.49414 L 462.5625,206.66016 L 463.5625,207.66016 L 465.39551,212.49414 L 464.0625,213.16016 L 463.22949,213.82813 L 464.22949,214.82813 L 458.0625,232.16016 L 454.89551,233.32813 L 451.72949,232.16016 L 450.0625,226.82813 L 452.39551,221.66016 L 451.89551,215.66016 L 453.0625,214.16016 z "
   style="stroke:none"
   id="path2421" />
		<path
   d="M 524.89551,161.82764 L 523.5625,166.32764 L 524.5625,168.99414 L 527.39551,169.16064 L 528.22949,167.49414 L 527.89551,165.66064 L 524.89551,161.82763 L 524.89551,161.82764 z "
   style="stroke:none"
   id="path2423" />
		<path
   d="M 555.39551,171.66064 L 556.72949,173.66064 L 559.72949,175.49414 L 560.22949,177.16064 L 562.72949,178.82763 L 563.22949,181.49413 L 564.5625,182.16015 L 566.5625,186.66015 L 567.89551,188.49413 L 573.5625,193.32811 L 576.22949,193.16014 L 576.89551,188.16014 L 574.22949,185.32811 L 573.72949,183.82811 L 571.72949,183.66014 L 571.89551,180.82811 L 570.39551,180.16063 L 569.39551,178.99413 L 565.72949,177.66063 L 562.39551,173.66063 L 561.22949,173.49413 L 561.22949,172.16063 L 559.39551,170.99413 L 556.5625,170.49413 L 555.39551,171.66063 L 555.39551,171.66064 z "
   style="stroke:none"
   id="path2425" />
		<path
   d="M 368.5625,101.74414 L 369.4375,102.86914 L 370.0625,102.36914 L 369.9375,101.11914 L 368.6875,100.99414 L 368.5625,101.74414 z "
   style="stroke:none"
   id="path2427" />
		<path
   d="M 379.72949,100.91064 L 380.39551,101.49414 L 380.39551,102.32764 L 379.64551,102.82764 L 379.8125,103.32764 L 381.22949,103.32764 L 381.5625,102.57764 L 382.64551,102.57764 L 382.5625,99.74414 L 381.97949,99.16064 L 379.72949,99.16064 L 379.72949,100.91064 z "
   style="stroke:none"
   id="path2429" />
		<path
   d="M 380.47949,97.07764 L 381.3125,98.16065 L 381.89551,98.07764 L 381.89551,95.66065 L 380.47949,95.82764 L 380.47949,97.07764 z "
   style="stroke:none"
   id="path2431" />
		<path
   d="M 388.0625,105.24414 L 393.89551,104.91064 L 393.89551,105.49414 L 393.3125,106.16064 L 393.8125,106.66064 L 393.89551,107.74414 L 392.5625,107.66064 L 391.0625,107.16064 L 390.5625,106.49414 L 387.97949,105.66064 L 388.0625,105.24414 z "
   style="stroke:none"
   id="path2433" />
		<path
   d="M 410.47949,110.07764 L 410.39551,110.74414 L 414.89551,110.82764 L 414.97949,109.99414 L 410.47949,110.07764 z "
   style="stroke:none"
   id="path2435" />
		<path
   d="M 595.5625,171.49414 L 597.5625,169.36914 L 598.0625,168.11914 L 599.6875,168.24414 L 601.1875,169.86914 L 602.8125,170.86914 L 603.1875,171.61914 L 601.8125,171.86914 L 601.5625,173.24414 L 600.1875,173.49414 L 601.1875,174.49414 L 599.5625,174.61914 L 600.4375,176.11914 L 600.9375,178.11914 L 602.4375,179.24414 L 602.3125,179.99414 L 600.3125,179.99414 L 599.8125,183.74414 L 597.9375,184.49414 L 598.0625,187.24414 L 596.3125,189.74414 L 594.4375,189.61914 L 593.1875,188.36914 L 592.0625,188.99414 L 591.3125,188.11914 L 590.3125,188.86914 L 585.0625,188.11914 L 584.4375,185.61914 L 585.1875,184.74414 L 582.6875,182.86914 L 583.4375,181.86914 L 583.0625,180.49414 L 582.9375,178.36914 L 583.9375,176.99414 L 585.8125,178.74414 L 586.9375,178.99414 L 587.5625,177.24414 L 592.5625,173.49414 L 592.8125,171.49414 L 593.9375,172.11914 L 594.6875,171.11914 L 595.5625,171.49414 z "
   style="stroke:none"
   id="path2437" />
		<path
   d="M 604.1875,193.36914 L 603.6875,188.99414 L 602.4375,188.74414 L 602.5625,186.99414 L 603.8125,185.61914 L 604.0625,184.11914 L 604.6875,182.86914 L 604.0625,181.99414 L 605.6875,180.11914 L 607.3125,179.36914 L 613.5625,179.61914 L 614.3125,178.49414 L 615.5625,178.36914 L 615.6875,179.36914 L 613.6875,180.86914 L 605.6875,181.86914 L 605.5625,183.74414 L 606.1875,184.24414 L 610.0625,183.86914 L 609.0625,184.86914 L 607.5625,185.61914 L 609.9375,187.86914 L 610.0625,189.74414 L 610.6875,190.11914 L 610.3125,190.99414 L 611.6875,191.86914 L 611.4375,192.86914 L 610.0625,192.86914 L 609.5625,191.36914 L 608.3125,190.74414 L 606.9375,188.86914 L 606.5625,187.36914 L 605.3125,187.74414 L 606.1875,188.74414 L 605.5625,190.86914 L 606.1875,193.61914 L 605.3125,193.36914 L 604.9375,192.74414 L 604.1875,193.36914 z "
   style="stroke:none"
   id="path2439" />
		<path
   d="M 576.3125,194.36914 L 578.8125,193.49414 L 581.9375,194.36914 L 583.0625,195.74414 L 586.0625,195.61914 L 586.8125,195.11914 L 588.9375,195.61914 L 592.0625,195.61914 L 590.3125,196.99414 L 594.4375,197.36914 L 593.5625,198.36914 L 595.1875,197.86914 L 595.8125,198.24414 L 595.6875,199.49414 L 594.4375,199.86914 L 594.0625,198.99414 L 593.1875,199.36914 L 590.9375,198.49414 L 578.1875,197.11914 L 577.1875,195.61914 L 576.3125,195.11914 L 576.3125,194.36914 z "
   style="stroke:none"
   id="path2441" />
		<path
   d="M 597.0625,199.11914 L 598.8125,200.24414 L 600.6875,200.24414 L 600.1875,198.74414 L 597.6875,198.36914 L 597.0625,199.11914 z "
   style="stroke:none"
   id="path2443" />
		<path
   d="M 603.1875,200.99414 L 604.6875,202.11914 L 605.5625,202.24414 L 606.3125,201.74414 L 604.9375,200.49414 L 603.1875,200.99414 z "
   style="stroke:none"
   id="path2445" />
		<path
   d="M 612.1875,201.11914 L 612.3125,202.24414 L 614.6875,202.49414 L 618.9375,198.99414 L 617.0625,198.61914 L 612.1875,201.11914 z "
   style="stroke:none"
   id="path2447" />
		<path
   d="M 626.83789,184.49414 L 629.5625,185.61914 L 630.9375,186.99414 L 630.1875,187.86914 L 631.1875,189.49414 L 634.9375,189.99414 L 636.5625,191.49414 L 639.0625,191.24414 L 642.8125,194.74414 L 643.5625,196.11914 L 641.3125,197.24414 L 640.6875,198.49414 L 643.3125,198.61914 L 644.5625,197.99414 L 647.1875,199.99414 L 651.9375,200.24414 L 653.8125,197.36914 L 656.4375,197.36914 L 657.9375,198.24414 L 658.1875,199.24414 L 660.9375,202.36914 L 665.0625,202.99414 L 666.6875,202.86914 L 665.4375,201.86914 L 665.0625,200.74414 L 663.1875,199.99414 L 659.5625,195.99414 L 660.6875,194.74414 L 659.6875,193.61914 L 658.1875,193.36914 L 657.1875,192.49414 L 656.9375,190.99414 L 653.8125,188.86914 L 641.0625,184.49414 L 639.6875,186.11914 L 638.1875,186.61914 L 636.1875,188.24414 L 633.9375,187.61914 L 633.5625,184.74414 L 632.6875,182.99414 L 626.83789,183.61914 L 626.83789,184.49414 z "
   style="stroke:none"
   id="path2449" />
		<path
   d="M 662.4375,193.24414 L 664.0625,194.11914 L 667.5625,193.74414 L 669.9375,192.61914 L 669.9375,190.36914 L 668.8125,190.36914 L 668.9375,191.49414 L 667.5625,192.49414 L 662.8125,192.61914 L 662.4375,193.24414 z "
   style="stroke:none"
   id="path2451" />
		<path
   d="M 619.9375,179.74414 L 620.6875,182.11914 L 621.5625,180.86914 L 622.3125,181.24414 L 622.6875,179.99414 L 622.4375,178.49414 L 621.5625,179.11914 L 620.9375,177.74414 L 620.1875,178.86914 L 619.9375,179.74414 z "
   style="stroke:none"
   id="path2453" />
		<path
   d="M 621.9375,187.49414 L 625.8125,187.24414 L 626.83789,188.36914 L 626.83789,188.99414 L 624.5625,188.36914 L 622.8125,188.99414 L 621.4375,188.11914 L 621.3125,187.36914 L 621.9375,187.49414 z "
   style="stroke:none"
   id="path2455" />
		<path
   d="M 609.5625,167.24414 L 610.6875,166.49414 L 613.5625,166.61914 L 613.0625,167.74414 L 613.9375,169.11914 L 615.8125,169.61914 L 616.5625,170.11914 L 616.4375,168.74414 L 615.9375,167.36914 L 616.8125,167.36914 L 618.39551,167.82764 L 618.0625,165.36914 L 617.1875,164.24414 L 617.4375,162.86914 L 616.4375,162.24414 L 614.4375,163.74414 L 613.5625,165.49414 L 611.9375,164.49414 L 610.3125,165.36914 L 609.0625,165.61914 L 609.5625,167.24414 z "
   style="stroke:none"
   id="path2457" />
		<path
   d="M 599.5625,164.99414 L 603.1875,161.99414 L 604.6875,159.86914 L 603.5625,159.49414 L 599.5625,164.99414 z "
   style="stroke:none"
   id="path2459" />
		<path
   d="M 617.4375,188.24414 L 619.4375,188.36914 L 618.3125,189.74414 L 617.4375,188.24414 z "
   style="stroke:none"
   id="path2461" />
		<path
   d="M 675.1875,193.49414 L 676.0625,195.86914 L 677.1875,195.74414 L 677.3125,194.61914 L 675.1875,193.49414 z "
   style="stroke:none"
   id="path2463" />
		<path
   d="M 649.9375,203.99414 L 648.9375,206.86914 L 649.5625,207.49414 L 648.1875,209.61914 L 648.9375,211.36914 L 646.4375,217.36914 L 644.5625,217.36914 L 639.6875,213.61914 L 637.0625,212.86914 L 636.0625,211.11914 L 638.5625,208.36914 L 638.3125,206.24414 L 632.9375,205.36914 L 631.1875,204.61914 L 629.8125,206.99414 L 628.9375,206.24414 L 626.83789,206.49414 L 624.4375,210.49414 L 625.3125,211.86914 L 624.5625,213.11914 L 623.9375,211.49414 L 622.4375,211.61914 L 621.6875,213.11914 L 620.4375,209.99414 L 616.8125,210.61914 L 615.3125,212.49414 L 613.5625,213.24414 L 613.9375,214.74414 L 612.6875,214.36914 L 612.1875,215.11914 L 612.8125,215.99414 L 611.6875,216.86914 L 611.1875,215.36914 L 609.3125,217.11914 L 609.9375,218.36914 L 607.8125,220.86914 L 602.1875,222.36914 L 600.5625,223.36914 L 597.0625,223.74414 L 593.9375,226.24414 L 592.9375,225.74414 L 592.0625,230.86914 L 592.8125,233.36914 L 591.3125,235.36914 L 593.1875,233.99414 L 593.5625,235.36914 L 592.3125,235.86914 L 596.9375,247.24414 L 594.9375,250.99414 L 598.1875,252.74414 L 601.9375,252.36914 L 604.1875,250.74414 L 612.5625,249.74414 L 617.4375,246.74414 L 628.4375,245.49414 L 633.3125,247.36914 L 634.0625,248.86914 L 635.4375,249.24414 L 636.4375,251.86914 L 639.5625,250.11914 L 641.3125,248.11914 L 641.5625,249.49414 L 640.1875,251.24414 L 639.5625,252.49414 L 640.8125,252.49414 L 641.9375,251.11914 L 642.5625,252.86914 L 644.1875,252.11914 L 643.9375,253.61914 L 644.8125,257.49414 L 651.9375,259.99414 L 654.1875,258.86914 L 655.3125,259.11914 L 655.3125,257.99414 L 657.5625,260.11914 L 660.5625,259.11914 L 661.4375,257.74414 L 665.5625,257.74414 L 665.9375,254.74414 L 667.4375,251.36914 L 670.5625,247.24414 L 672.5625,240.36914 L 672.5625,238.36914 L 671.0625,236.24414 L 672.0625,234.61914 L 670.5625,232.11914 L 667.0625,229.36914 L 666.6875,227.24414 L 665.6875,226.49414 L 664.8125,227.36914 L 664.1875,224.86914 L 662.3125,222.24414 L 657.9375,219.49414 L 656.1875,212.24414 L 654.5625,210.74414 L 652.8125,210.36914 L 651.0625,203.74414 L 649.9375,203.99414 L 649.9375,203.99414 z "
   style="stroke:none"
   id="path2465" />
		<path
   d="M 655.0625,263.99414 L 655.4375,265.49414 L 656.6875,266.61914 L 655.8125,267.74414 L 658.5625,270.11914 L 659.5625,269.99414 L 659.9375,268.49414 L 661.8125,268.24414 L 662.4375,266.49414 L 662.1875,263.86914 L 659.5625,264.74414 L 655.0625,263.99414 z "
   style="stroke:none"
   id="path2467" />
		<path
   d="M 605.5625,134.24414 L 605.6875,136.61914 L 606.4375,137.11914 L 609.1875,131.36914 L 607.3125,131.11914 L 606.6875,132.61914 L 605.4375,133.49414 L 605.5625,134.24414 z "
   style="stroke:none"
   id="path2469" />
		<path
   d="M 606.4375,144.99414 L 605.4375,147.11914 L 605.6875,148.36914 L 604.9375,149.61914 L 604.8125,151.86914 L 606.9375,152.49414 L 606.4375,153.36914 L 606.8125,154.24414 L 606.1875,155.49414 L 607.1875,157.24414 L 608.0625,155.61914 L 607.8125,153.74414 L 609.1875,153.86914 L 609.5625,154.49414 L 610.1875,153.86914 L 612.6875,155.74414 L 613.6875,155.74414 L 612.6875,154.61914 L 612.0625,153.49414 L 608.5625,152.74414 L 607.9375,150.74414 L 609.1875,149.11914 L 610.0625,148.99414 L 609.9375,146.11914 L 609.0625,145.36914 L 609.8125,144.99414 L 608.3125,144.24414 L 606.4375,144.99414 z "
   style="stroke:none"
   id="path2471" />
		<path
   d="M 609.3125,158.61914 L 609.3125,160.49414 L 610.8125,161.11914 L 610.0625,162.36914 L 611.0625,163.36914 L 611.6875,161.61914 L 613.0625,161.61914 L 613.5625,160.99414 L 611.1875,159.24414 L 610.4375,158.24414 L 609.3125,158.61914 z "
   style="stroke:none"
   id="path2473" />
		<path
   d="M 613.8125,157.11914 L 615.1875,158.11914 L 613.6875,159.61914 L 614.8125,160.99414 L 615.9375,160.99414 L 615.3125,160.11914 L 615.5625,159.24414 L 616.3125,159.74414 L 616.6875,158.99414 L 615.9375,158.11914 L 615.6875,156.74414 L 613.8125,157.11914 z "
   style="stroke:none"
   id="path2475" />
		<path
   d="M 649.9375,72.11914 L 650.5625,73.24414 L 649.0625,74.49414 L 649.9375,80.36914 L 649.0625,82.86914 L 649.8125,85.36914 L 649.0625,87.11914 L 649.3125,88.24414 L 650.5625,88.36914 L 650.9375,87.61914 L 652.0625,88.49414 L 652.3125,89.11914 L 652.8125,88.61914 L 651.8125,86.86914 L 650.5625,85.86914 L 651.1875,83.36914 L 651.6875,82.36914 L 654.0625,82.24414 L 651.9375,78.11914 L 651.1875,71.86914 L 649.9375,72.11914 z "
   style="stroke:none"
   id="path2477" />
		<path
   d="M 649.1875,89.99414 L 647.8125,94.36914 L 645.4375,95.24414 L 645.4375,97.99414 L 646.8125,98.49414 L 645.1875,99.86914 L 644.6875,103.74414 L 642.6875,106.24414 L 641.6875,106.36914 L 638.6875,107.49414 L 636.8125,109.74414 L 630.9375,110.11914 L 628.1875,112.24414 L 626.83789,112.86914 L 626.83789,113.99414 L 625.1875,114.24414 L 625.0625,116.11914 L 626.83789,115.49414 L 625.5625,117.86914 L 626.83789,118.99414 L 628.0625,117.74414 L 628.9375,115.36914 L 627.9375,113.49414 L 629.9375,113.24414 L 629.9375,114.49414 L 631.1875,115.36914 L 632.8125,114.24414 L 634.3125,113.74414 L 633.6875,112.74414 L 630.6875,112.74414 L 634.4375,111.61914 L 635.6875,112.11914 L 635.8125,113.61914 L 638.3125,113.74414 L 638.8125,110.86914 L 640.1875,111.61914 L 642.5625,111.11914 L 643.6875,111.74414 L 646.8125,110.49414 L 647.3125,109.61914 L 646.6875,108.49414 L 648.4375,103.61914 L 649.8125,101.99414 L 648.0625,99.74414 L 647.9375,98.11914 L 646.5625,97.24414 L 648.0625,95.99414 L 651.3125,96.99414 L 653.8125,95.36914 L 655.6875,94.86914 L 656.0625,93.86914 L 657.5625,93.36914 L 658.0625,92.36914 L 656.8125,92.24414 L 655.4375,92.74414 L 652.6875,92.74414 L 651.4375,91.36914 L 649.1875,89.99414 z "
   style="stroke:none"
   id="path2479" />
		<path
   d="M 660.9375,89.86914 L 659.4375,91.99414 L 660.3125,92.24414 L 662.5625,90.49414 L 662.3125,89.36914 L 660.9375,89.86914 z "
   style="stroke:none"
   id="path2481" />
		<path
   d="M 694.5625,223.49414 L 696.5625,225.74414 L 697.5625,226.11914 L 699.3125,226.24414 L 698.8125,225.11914 L 697.3125,224.86914 L 696.0625,223.49414 L 694.5625,223.49414 z "
   style="stroke:none"
   id="path2483" />
		<path
   d="M 721.6875,216.86914 L 720.6875,217.86914 L 721.8125,218.99414 L 723.0625,218.49414 L 723.0625,217.49414 L 721.6875,216.86914 z "
   style="stroke:none"
   id="path2485" />
		<path
   d="M 711.1875,251.61914 L 713.5625,254.99414 L 714.8125,255.24414 L 715.6875,258.11914 L 713.4375,261.36914 L 716.4375,262.86914 L 715.5625,264.49414 L 716.3125,265.49414 L 717.6875,265.36914 L 720.5625,260.86914 L 721.8125,260.61914 L 722.5625,258.74414 L 723.1875,258.24414 L 722.0625,257.24414 L 720.9375,257.86914 L 718.0625,257.74414 L 717.6875,256.49414 L 716.0625,256.11914 L 715.8125,254.99414 L 715.0625,253.86914 L 714.8125,252.49414 L 713.5625,252.36914 L 711.8125,250.99414 L 711.1875,251.61914 L 711.1875,251.61914 z "
   style="stroke:none"
   id="path2487" />
		<path
   d="M 711.1875,263.11914 L 708.5625,267.74414 L 704.1875,270.24414 L 702.0625,270.61914 L 701.4375,271.99414 L 699.6875,272.99414 L 699.4375,275.24414 L 702.8125,275.61914 L 703.8125,275.99414 L 705.4375,275.24414 L 707.0625,274.99414 L 708.0625,273.36914 L 708.4375,271.36914 L 710.8125,269.86914 L 712.1875,270.24414 L 711.8125,268.86914 L 713.9375,266.99414 L 713.9375,264.61914 L 712.8125,264.86914 L 712.1875,265.49414 L 711.6875,263.24414 L 711.1875,263.11914 z "
   style="stroke:none"
   id="path2489" />
		<path
   d="M 576.39551,184.49414 L 575.89551,185.32812 L 578.72949,188.32812 L 578.5625,186.82812 L 576.39551,184.49414 L 576.39551,184.49414 z "
   style="stroke:none"
   id="path2491" />
		<path
   d="M 646.0625,33.16064 L 649.22949,33.82763 L 651.22949,33.16064 L 646.89551,32.16064 L 645.72949,32.16064 L 646.0625,33.16064 z "
   style="stroke:none"
   id="path2493" />
		<path
   d="M 640.0625,30.49414 L 649.89551,30.82764 L 651.22949,30.16065 L 652.72949,30.66065 L 654.39551,30.32764 L 655.72949,29.16065 L 647.89551,28.66065 L 646.39551,29.16065 L 644.22949,28.32764 L 639.89551,28.49414 L 639.0625,29.32764 L 640.0625,30.49414 z "
   style="stroke:none"
   id="path2495" />
		<path
   d="M 657.5625,29.49414 L 659.39551,30.82764 L 667.39551,30.82764 L 667.39551,29.99414 L 659.22949,29.66064 L 658.39551,28.82763 L 657.5625,29.49413 L 657.5625,29.49414 z "
   style="stroke:none"
   id="path2497" />
		<path
   d="M 564.89551,24.32764 L 574.89551,23.49414 L 573.5625,22.16064 L 569.72949,21.82763 L 567.5625,22.32763 L 564.72949,23.66064 L 564.89551,24.32763 L 564.89551,24.32764 z "
   style="stroke:none"
   id="path2499" />
		<path
   d="M 550.89551,21.49414 L 560.39551,23.16064 L 563.0625,22.82763 L 564.39551,20.99413 L 562.39551,19.99413 L 560.0625,20.49413 L 560.22949,18.66063 L 557.72949,18.16063 L 550.72949,18.66063 L 548.5625,19.66063 L 553.22949,20.49413 L 550.89551,21.49413 L 550.89551,21.49414 z "
   style="stroke:none"
   id="path2501" />
		<path
   d="M 472.0625,32.99414 L 469.89551,34.49414 L 469.72949,35.82764 L 466.5625,36.82764 L 468.72949,37.66065 L 470.5625,37.49415 L 471.5625,38.82765 L 475.39551,38.99415 L 477.0625,39.82765 L 477.72949,38.16066 L 476.39551,37.66066 L 474.39551,36.16066 L 475.22949,34.99416 L 476.22949,34.99416 L 476.22949,34.16066 L 474.0625,34.16066 L 472.72949,32.82765 L 472.0625,32.99415 L 472.0625,32.99414 z "
   style="stroke:none"
   id="path2503" />
		<path
   d="M 474.5625,33.16064 L 476.72949,33.49414 L 479.22949,32.49414 L 480.5625,31.49414 L 484.72949,31.16064 L 484.89551,29.99414 L 499.89551,28.16064 L 501.5625,27.32763 L 500.72949,26.82763 L 477.72949,29.82763 L 477.0625,31.16064 L 475.39551,31.32763 L 474.39551,31.99413 L 474.5625,33.16063 L 474.5625,33.16064 z "
   style="stroke:none"
   id="path2505" />
		<path
   d="M 454.89551,19.16064 L 458.72949,19.99414 L 461.0625,19.82764 L 460.89551,18.66065 L 455.39551,18.32764 L 454.89551,19.16065 L 454.89551,19.16064 z "
   style="stroke:none"
   id="path2507" />
		<path
   d="M 400.39551,20.49414 L 403.22949,21.66064 L 414.89551,21.99414 L 417.0625,20.66064 L 413.22949,19.32763 L 412.5625,20.32763 L 409.5625,19.32763 L 408.0625,19.99413 L 404.39551,19.32763 L 400.39551,20.49413 L 400.39551,20.49414 z "
   style="stroke:none"
   id="path2509" />
		<path
   d="M 396.39551,20.16064 L 402.0625,22.16064 L 405.72949,22.66064 L 407.22949,23.32763 L 405.0625,23.99413 L 402.5625,23.16063 L 400.22949,24.16063 L 398.5625,25.99413 L 396.0625,26.82763 L 391.72949,26.16064 L 393.22949,24.82763 L 387.22949,22.82763 L 387.89551,21.99413 L 386.0625,22.16063 L 385.89551,20.99413 L 387.89551,20.66063 L 389.0625,21.49413 L 391.72949,21.49413 L 392.39551,20.66063 L 393.89551,21.82762 L 395.5625,22.32762 L 396.22949,20.99412 L 396.39551,20.16062 L 396.39551,20.16064 z "
   style="stroke:none"
   id="path2511" />
		<path
   d="M 386.0625,69.99414 L 387.39551,70.66064 L 387.72949,69.49414 L 386.5625,68.66064 L 386.0625,69.99414 z "
   style="stroke:none"
   id="path2513" />
		<path
   d="M 428.39551,111.49414 L 430.72949,111.66064 L 431.5625,110.82763 L 431.0625,110.16064 L 429.39551,110.49414 L 428.39551,111.49414 z "
   style="stroke:none"
   id="path2515" />
		<path
   d="M 234.9375,27.86914 L 242.9375,29.11914 L 246.0625,30.74414 L 248.1875,30.86914 L 248.4375,32.24414 L 250.0625,32.36914 L 250.1875,33.61914 L 253.1875,35.74414 L 253.0625,36.61914 L 251.8125,36.11914 L 250.8125,36.99414 L 251.4375,37.36914 L 254.4375,37.49414 L 255.6875,36.99414 L 256.8125,37.61914 L 259.1875,37.86914 L 260.4375,38.86914 L 260.4375,39.61914 L 254.8125,38.86914 L 252.9375,39.36914 L 255.6875,39.74414 L 255.8125,40.24414 L 253.5625,40.86914 L 256.5625,41.86914 L 257.6875,41.74414 L 256.9375,40.86914 L 261.5625,40.74414 L 260.5625,41.74414 L 261.1875,42.61914 L 260.5625,43.74414 L 261.1875,45.24414 L 260.0625,45.74414 L 260.4375,46.86914 L 258.8125,46.24414 L 258.4375,43.49414 L 256.8125,43.61914 L 257.0625,44.36914 L 256.8125,45.61914 L 256.9375,47.11914 L 258.3125,47.36914 L 255.4375,48.49414 L 256.5625,49.74414 L 257.6875,49.99414 L 258.3125,51.24414 L 259.3125,51.74414 L 260.1875,50.99414 L 262.8125,50.99414 L 258.9375,53.11914 L 261.0625,53.61914 L 262.0625,54.49414 L 261.5625,55.36914 L 262.3125,56.36914 L 264.0625,56.86914 L 265.9375,58.74414 L 268.5625,59.49414 L 270.4375,58.74414 L 272.6875,59.49414 L 272.8125,60.99414 L 276.6875,60.86914 L 276.9375,58.11914 L 277.6875,56.99414 L 277.9375,55.49414 L 279.3125,55.11914 L 279.5625,53.86914 L 281.0625,53.61914 L 281.3125,52.61914 L 280.3125,50.99414 L 281.6875,50.24414 L 285.3125,49.24414 L 286.9375,48.11914 L 287.5625,49.49414 L 294.5625,47.61914 L 295.9375,46.11914 L 296.0625,44.99414 L 298.1875,44.61914 L 298.5625,43.49414 L 300.5625,44.74414 L 302.6875,43.74414 L 303.8125,44.11914 L 310.6875,43.36914 L 317.5625,40.86914 L 311.9375,39.49414 L 311.4375,37.61914 L 315.3125,38.86914 L 316.4375,39.49414 L 319.6875,39.61914 L 319.5625,37.99414 L 317.9375,36.99414 L 317.8125,38.11914 L 315.9375,36.74414 L 317.5625,35.86914 L 319.3125,35.86914 L 319.0625,34.61914 L 315.8125,33.99414 L 322.0625,33.61914 L 320.0625,32.36914 L 318.4375,32.61914 L 318.6875,31.49414 L 324.3125,29.86914 L 322.4375,28.11914 L 318.6875,27.24414 L 320.8125,26.24414 L 322.6875,26.99414 L 326.9375,26.86914 L 326.0625,25.99414 L 323.0625,25.74414 L 319.0625,24.49414 L 320.4375,22.74414 L 324.1875,22.49414 L 323.1875,21.11914 L 321.8125,20.49414 L 323.4375,20.36914 L 324.6875,21.11914 L 326.4375,20.99414 L 326.8125,19.61914 L 334.0625,18.74414 L 337.0625,17.74414 L 334.5625,16.61914 L 327.3125,16.49414 L 324.3125,18.11914 L 321.4375,17.11914 L 314.8125,19.36914 L 317.5625,16.99414 L 315.9375,16.74414 L 312.0625,17.11914 L 306.0625,16.49414 L 300.1875,17.24414 L 298.9375,16.61914 L 301.6875,15.74414 L 319.5625,15.49414 L 311.6875,14.74414 L 310.1875,13.61914 L 286.5625,13.74414 L 282.5625,15.86914 L 281.0625,15.61914 L 282.4375,14.49414 L 272.5625,14.61914 L 273.9375,15.24414 L 273.1875,16.99414 L 264.4375,15.74414 L 261.8125,15.99414 L 261.0625,16.99414 L 259.3125,16.49414 L 256.0625,16.36914 L 255.6875,17.11914 L 254.4375,17.11914 L 253.6875,15.86914 L 247.1875,15.74414 L 246.9375,17.49414 L 243.1875,16.49414 L 240.8125,18.11914 L 235.4375,18.49414 L 233.8125,17.99414 L 226.9375,20.11914 L 233.0625,20.61914 L 230.3125,22.61914 L 216.6875,23.24414 L 216.4375,24.74414 L 221.1875,25.36914 L 222.5625,24.86914 L 224.0625,25.36914 L 228.8125,24.99414 L 229.8125,25.86914 L 220.3125,26.61914 L 225.1875,27.36914 L 223.8125,28.11914 L 228.8125,28.86914 L 232.9375,27.74414 L 234.9375,27.86914 z "
   style="stroke:none"
   id="path2517" />
		<path
   d="M 255.1875,44.86914 L 254.5625,46.11914 L 255.5625,46.49414 L 256.0625,45.49414 L 255.1875,44.86914 z "
   style="stroke:none"
   id="path2519" />
		<path
   d="M 321.4375,31.74414 L 322.9375,32.24414 L 324.5625,31.86914 L 323.3125,31.24414 L 321.4375,31.74414 z "
   style="stroke:none"
   id="path2521" />
		<path
   d="M 0,351.68164 L 76.0498,352.69434 L 56.05322,351.20508 L 56.55322,347.72852 L 51.30371,346.23926 L 53.30371,344.99805 L 70.30078,345.2461 L 73.05029,344.75001 L 66.80127,342.51563 L 47.80469,341.0254 L 50.0542,339.2881 L 44.30518,338.79103 L 46.30469,337.54982 L 53.55371,337.54982 L 55.05322,338.04689 L 57.55273,337.05373 L 69.30078,337.79787 L 68.80078,335.81252 L 70.05078,334.57033 L 86.04834,333.57814 L 90.29736,331.83986 L 131.79052,332.33595 L 131.79052,330.84669 L 133.79003,330.59864 L 136.53954,333.08106 L 138.53954,332.83301 L 138.53954,331.83985 L 144.53856,332.83301 L 147.03807,332.08789 L 159.28612,333.3291 L 158.28612,332.33594 L 158.28612,330.84668 L 162.03563,330.35059 L 156.53612,329.60547 L 154.53661,330.84668 L 154.53661,328.11621 L 156.28661,328.11621 L 158.53612,328.86035 L 177.5327,329.10937 L 178.7827,329.60546 L 180.28221,329.60546 L 183.53172,328.6123 L 187.03123,328.86035 L 188.53123,329.60547 L 190.28074,329.10938 L 199.77928,330.59864 L 201.77879,329.35743 L 204.0283,330.10157 L 207.77781,330.10157 L 209.52732,330.59864 L 228.27439,328.11622 L 224.52488,321.90919 L 228.02439,321.90919 L 227.02439,320.66798 L 228.02439,318.4336 L 226.27488,317.44044 L 223.77537,318.68165 L 224.02488,317.44044 L 225.52488,316.44728 L 226.77439,315.95119 L 227.77439,317.1924 L 229.7739,317.1924 L 230.5239,315.20607 L 234.02341,313.96486 L 233.77341,312.22658 L 236.02292,312.22658 L 237.27292,312.9717 L 238.27292,311.97854 L 240.77243,311.48245 L 241.27243,310.48929 L 246.02145,309.74417 L 246.27145,310.61331 L 247.02145,311.1094 L 247.27096,311.97854 L 246.39645,311.97854 L 246.02145,311.35745 L 244.89645,311.23343 L 245.02145,311.85452 L 238.77243,312.84768 L 238.89743,313.71682 L 237.27292,314.33694 L 240.27243,315.08206 L 240.27243,315.8262 L 234.39841,316.32327 L 230.7739,318.43362 L 231.3989,319.92288 L 236.02292,320.17093 L 236.14792,321.16409 L 237.27292,321.66116 L 237.64792,323.52249 L 238.64743,323.77151 L 239.52243,324.8887 L 238.77243,325.63284 L 240.27243,326.25393 L 241.02243,327.12307 L 240.27243,327.99221 L 241.02243,328.73635 L 240.89743,329.72951 L 239.52243,331.96389 L 236.89792,332.83303 L 235.77292,332.21194 L 235.64792,333.45315 L 233.52341,334.69534 L 191.53025,336.92972 L 192.90525,337.92191 L 206.65281,339.90824 L 206.65281,340.40531 L 199.15427,340.65336 L 199.40427,341.64652 L 200.77878,342.26664 L 203.02878,341.64652 L 209.65232,341.77054 L 209.27732,342.39163 L 202.15378,343.13577 L 243.39694,348.10159 L 245.89645,349.21878 L 301.63717,344.00491 L 301.38717,342.63968 L 300.88717,341.77054 L 304.13668,341.39847 L 301.51217,340.77738 L 292.13863,340.65336 L 291.26363,339.78422 L 293.76363,338.04692 L 305.38668,336.06059 L 306.51119,335.19145 L 321.00875,333.82622 L 325.75826,332.33599 L 329.75728,332.08794 L 330.88179,331.09478 L 329.50728,330.35064 L 339.88082,327.37115 L 339.75582,326.25396 L 339.00582,325.2608 L 340.25582,325.2608 L 340.63082,325.75787 L 341.63082,326.00592 L 342.38082,324.63971 L 343.87984,325.50885 L 345.62984,325.75787 L 345.87984,326.37799 L 346.50484,327.12311 L 347.87984,325.26081 L 350.25386,324.39167 L 352.75386,325.50886 L 358.12788,325.38484 L 359.12788,325.88191 L 361.2519,325.38484 L 363.5019,326.00593 L 377.99897,323.15046 L 379.74897,323.77155 L 381.62397,322.90241 L 386.87299,324.63971 L 388.74799,323.15045 L 426.74115,322.03326 L 429.99115,321.28814 L 430.86517,320.17095 L 433.24017,319.79888 L 436.11419,322.03326 L 441.11419,322.9024 L 443.48821,322.53033 L 444.11321,320.29595 L 453.73626,318.68169 L 457.23626,317.19243 L 459.36126,318.18559 L 465.23431,316.9434 L 464.61029,315.95121 L 467.48431,315.08207 L 477.10736,315.33012 L 478.98236,316.19926 L 478.10736,316.9434 L 503.47845,318.92973 L 504.22845,319.79887 L 503.35345,320.79203 L 501.97845,321.53715 L 500.10443,321.90922 L 500.72845,324.01957 L 506.22845,325.3848 L 507.97747,325.13675 L 508.60247,324.01956 L 507.60247,323.52249 L 517.22649,321.90921 L 520.72551,319.67483 L 528.09953,318.80569 L 528.09953,317.31643 L 537.84758,316.81936 L 541.09758,315.45413 L 544.5966,316.32327 L 550.22062,315.45413 L 551.59562,316.44729 L 553.34464,316.44729 L 554.34464,315.70217 L 556.34464,316.32326 L 562.46866,315.57814 L 561.84366,314.58498 L 563.34366,314.08889 L 565.71768,314.83401 L 572.3417,314.21292 L 582.71475,316.4473 L 589.96377,313.96488 L 600.21182,316.81937 L 609.33584,315.70218 L 611.46084,316.4473 L 613.83486,315.82621 L 615.58486,316.4473 L 617.83388,315.70218 L 621.20888,316.81937 L 624.3329,317.06839 L 626.73329,315.20609 L 639.45595,314.95804 L 649.829,317.06839 L 651.954,315.9512 L 654.95302,317.19241 L 657.32802,318.80569 L 667.57607,319.67483 L 668.82607,320.66799 L 672.70009,320.54397 L 673.57509,319.55081 L 678.07411,321.41311 L 684.44813,321.78518 L 687.19813,323.02639 L 705.56922,325.38479 L 707.31922,326.12991 L 706.31922,327.74319 L 704.8202,329.23342 L 693.57215,332.08791 L 692.82215,332.58498 L 691.19715,331.96389 L 690.57215,333.45315 L 691.44715,334.07424 L 690.94715,335.19143 L 691.44715,337.17776 L 693.07215,337.30178 L 694.32117,337.9219 L 694.07117,339.16409 L 699.32019,339.66018 L 698.44617,340.4053 L 685.94812,341.39846 L 686.19812,342.63967 L 687.69714,344.12893 L 687.19812,345.37014 L 688.57214,346.3633 L 724.69128,351.32912 L 725.84362,351.90041 L 725.81628,362.74904 L 0.00684,362.7959 L 0,351.68164 z "
   style="stroke:none"
   id="path2523" />
		<path
   d="M 253.146,345.11816 L 273.08643,344.07714 L 275.91358,343.333 L 275.46729,341.84472 L 270.25879,340.95214 L 273.23535,340.05859 L 270.55664,339.16601 L 264.15771,339.31542 L 257.46142,340.80272 L 255.229,341.99315 L 254.48535,342.8867 L 253.29443,343.18358 L 253.14599,345.11815 L 253.146,345.11816 z "
   style="stroke:none"
   id="path2525" />
		<path
   d="M 236.479,344.67188 L 237.81836,345.11817 L 241.6875,344.96973 L 241.98535,343.33301 L 236.77685,343.92774 L 236.479,344.67188 z "
   style="stroke:none"
   id="path2527" />
		<path
   d="M 219.8125,341.54688 L 222.04443,342.14258 L 223.83056,341.25 L 225.6162,340.95215 L 226.36034,340.20801 L 222.34227,340.0586 L 222.34227,341.10059 L 220.25877,340.95215 L 219.81248,341.54688 L 219.8125,341.54688 z "
   style="stroke:none"
   id="path2529" />
		<path
   d="M 201.21143,337.5293 L 204.78272,338.86817 L 214.15772,339.16602 L 214.90186,337.97559 L 213.71143,337.38086 L 201.21143,337.5293 L 201.21143,337.5293 z "
   style="stroke:none"
   id="path2531" />
		<path
   d="M 210.4375,329.19629 L 211.479,328.60059 L 212.81836,328.45215 L 213.26465,329.34473 L 212.521,329.79102 L 210.28858,329.79102 L 210.43751,329.19629 L 210.4375,329.19629 z "
   style="stroke:none"
   id="path2533" />
		<path
   d="M 210.13965,322.94629 L 212.22315,322.94629 L 211.47901,321.45801 L 210.13965,322.94629 z "
   style="stroke:none"
   id="path2535" />
		<path
   d="M 212.22314,325.77344 L 216.6875,324.58301 L 219.8125,324.58301 L 219.66357,323.24317 L 217.87793,321.9043 L 218.02686,320.86231 L 220.55665,319.96973 L 223.53272,322.5 L 223.53272,323.54102 L 224.87208,324.4336 L 225.46729,325.92188 L 223.83057,328.1543 L 217.87793,328.30274 L 220.70557,327.11231 L 218.47315,326.21973 L 216.98536,326.96387 L 212.521,326.96387 L 212.22315,325.77344 L 212.22314,325.77344 z "
   style="stroke:none"
   id="path2537" />
		<path
   d="M 205.52686,328.1543 L 204.48536,328.89844 L 205.37794,329.19629 L 206.41944,328.75 L 205.52686,328.1543 z "
   style="stroke:none"
   id="path2539" />
		<path
   d="M 32.68115,341.3877 L 33.13525,341.78516 L 35.51953,342.06934 L 35.68994,342.4668 L 40.91308,342.63672 L 41.02685,341.78516 L 40.06152,341.55762 L 40.00488,340.9336 L 36.93896,340.99024 L 36.9956,340.30958 L 33.93017,340.36622 L 33.8164,340.9336 L 32.62402,341.04688 L 32.68115,341.3877 L 32.68115,341.3877 z "
   style="stroke:none"
   id="path2541" />
		<path
   d="M 192.229,137.66064 L 193.89599,135.66064 L 196.39599,134.82763 L 199.56249,134.99413 L 203.39599,135.99413 L 207.89599,138.66063 L 209.39599,139.16063 L 210.56249,140.32762 L 212.56249,140.49412 L 212.72899,142.16062 L 206.39598,141.82761 L 207.06248,140.49411 L 203.89598,138.49411 L 197.39598,137.16061 L 198.06248,136.16061 L 196.39598,135.99411 L 193.56248,137.82761 L 192.22898,137.66062 L 192.229,137.66064 z "
   style="stroke:none"
   id="path2543" />
		<path
   d="M 215.396,142.16064 L 217.22901,144.49414 L 216.396,145.32764 L 218.396,145.66065 L 219.5625,145.49415 L 220.729,144.32765 L 225.229,144.66066 L 223.729,143.32765 L 222.0625,142.99415 L 222.0625,141.82765 L 218.0625,141.32765 L 215.396,142.16066 L 215.396,142.16064 z "
   style="stroke:none"
   id="path2545" />
		<path
   d="M 214.229,143.82764 L 213.229,144.16065 L 213.229,145.32764 L 214.729,145.32764 L 215.5625,143.99414 L 214.229,143.82764 z "
   style="stroke:none"
   id="path2547" />
		<path
   d="M 205.0625,144.16064 L 208.729,144.49414 L 207.0625,146.16064 L 205.0625,144.99414 L 205.0625,144.16064 z "
   style="stroke:none"
   id="path2549" />
		<path
   d="M 227.0625,144.82764 L 229.0625,145.82764 L 230.5625,145.16065 L 229.729,144.49415 L 227.0625,144.82765 L 227.0625,144.82764 z "
   style="stroke:none"
   id="path2551" />
		<path
   d="M 239.896,158.99414 L 238.896,160.49414 L 240.22901,160.82764 L 239.896,158.99414 z "
   style="stroke:none"
   id="path2553" />
		<path
   d="M 241.229,285.32715 L 240.5625,286.66113 L 241.396,287.49414 L 243.0625,287.16113 L 245.0625,287.32715 L 245.396,286.16113 L 246.5625,285.82715 L 245.729,284.99414 L 244.229,284.66113 L 243.5625,286.16113 L 242.5625,286.49414 L 242.229,285.49414 L 241.229,285.32715 z "
   style="stroke:none"
   id="path2555" />
		<path
   d="M 234.0625,268.66016 L 235.229,266.99414 L 234.0625,266.66016 L 233.396,267.32813 L 234.0625,268.66016 z "
   style="stroke:none"
   id="path2557" />
		<path
   d="M 94.5625,73.49414 L 95.0625,74.74414 L 96.3125,74.74414 L 97.5625,75.24414 L 97.8125,74.24414 L 96.5625,73.49414 L 97.3125,72.99414 L 94.5625,72.74414 L 94.5625,73.49414 z "
   style="stroke:none"
   id="path2559" />
		<path
   d="M 53.0625,65.11914 L 51.0625,66.36914 L 51.8125,67.24414 L 54.9375,66.74414 L 55.8125,65.49414 L 55.1875,64.99414 L 53.0625,65.11914 z "
   style="stroke:none"
   id="path2561" />
		<path
   d="M 31.5625,71.24414 L 31.5625,71.74414 L 33.9375,71.99414 L 33.9375,71.11914 L 31.5625,71.24414 z "
   style="stroke:none"
   id="path2563" />
		<path
   d="M 26.5625,72.86914 L 25.6875,73.49414 L 25.6875,74.36914 L 27.4375,74.36914 L 28.0625,73.36914 L 27.6875,72.61914 L 26.5625,72.86914 z "
   style="stroke:none"
   id="path2565" />
		<path
   d="M 25.4375,60.49414 L 27.4375,61.61914 L 29.0625,61.61914 L 28.8125,60.24414 L 26.4375,59.86914 L 25.4375,60.49414 z "
   style="stroke:none"
   id="path2567" />
		<path
   d="M 16.5625,54.11914 L 21.1875,55.11914 L 22.8125,54.61914 L 22.9375,53.86914 L 19.3125,52.99414 L 16.9375,53.24414 L 16.5625,54.11914 z "
   style="stroke:none"
   id="path2569" />
		<path
   d="M 0,50.59814 L 1.0625,49.36914 L 1.0625,47.99414 L 2.4375,47.86914 L 2.8125,49.61914 L 8.1875,49.86914 L 8.8125,50.86914 L 10.5625,51.61914 L 13.5625,51.74414 L 15.8125,50.74414 L 15.9375,49.49414 L 19.5625,49.24414 L 19.6875,48.24414 L 16.1875,46.74414 L 10.9375,46.74414 L 11.9375,47.99414 L 11.0625,48.11914 L 8.9375,46.24414 L 9.1875,45.11914 L 2.9375,43.74414 L 1.6875,42.86914 L 0.4585,42.53564 L 0.4375,41.45263 L 0.021,41.30663 L 0,50.59814 z "
   style="stroke:none"
   id="path2571" />
		<path
   d="M 0.021,37.59814 L 0.04151,39.11914 L 0.54151,39.14014 L 1.06251,38.24414 L 4.18751,38.24414 L 4.06251,37.49414 L 0.02101,37.59814 L 0.021,37.59814 z "
   style="stroke:none"
   id="path2573" />
		<path
   d="M 189.896,49.49414 L 189.72901,52.16064 L 188.06251,52.99414 L 190.72901,53.16064 L 191.06251,54.82763 L 193.56251,53.49413 L 195.89601,52.82763 L 198.39601,53.82763 L 200.39601,53.82763 L 197.22902,51.32763 L 193.89601,50.32763 L 192.72902,49.49413 L 191.89601,50.49413 L 190.89601,49.49413 L 189.89601,49.49413 L 189.896,49.49414 z "
   style="stroke:none"
   id="path2575" />
		<path
   d="M 194.5625,54.49414 L 194.0625,55.99414 L 195.0625,56.49414 L 196.5625,55.99414 L 197.396,54.99414 L 194.5625,54.49414 z "
   style="stroke:none"
   id="path2577" />
		<path
   d="M 207.229,45.99414 L 210.89599,45.66064 L 211.89599,44.66064 L 210.89599,44.16064 L 208.06249,44.32763 L 207.39599,45.16064 L 207.229,45.99414 z "
   style="stroke:none"
   id="path2579" />
		<path
   d="M 255.729,84.99414 L 254.729,86.16064 L 255.229,86.99414 L 256.729,86.82764 L 257.0625,85.16065 L 255.729,84.99415 L 255.729,84.99414 z "
   style="stroke:none"
   id="path2581" />
		<path
   d="M 240.229,86.82764 L 239.229,88.66065 L 239.729,89.66065 L 241.89599,89.32764 L 241.06249,88.16065 L 241.89599,87.49415 L 241.56249,86.82765 L 240.22899,86.82765 L 240.229,86.82764 z "
   style="stroke:none"
   id="path2583" />
		<path
   d="M 233.0625,81.49414 L 235.5625,82.49414 L 238.396,82.49414 L 237.72901,81.82764 L 234.56251,81.32764 L 234.06251,80.66065 L 233.06251,81.49415 L 233.0625,81.49414 z "
   style="stroke:none"
   id="path2585" />
		<path
   d="M 206.0625,27.66064 L 205.896,25.99414 L 204.396,26.66064 L 204.5625,25.16064 L 208.729,24.49414 L 210.39599,22.99414 L 212.229,23.32764 L 213.0625,20.99414 L 215.396,21.66064 L 216.896,20.66064 L 220.0625,20.66064 L 223.5625,19.16064 L 229.229,18.32763 L 226.89599,17.66064 L 237.89599,15.99414 L 237.06249,15.16064 L 221.89599,13.82763 L 213.89599,14.82763 L 209.39599,14.16064 L 207.89599,14.32763 L 209.229,15.49413 L 207.39599,14.99413 L 196.89599,14.82763 L 196.56249,16.66064 L 194.22899,15.82763 L 180.56249,16.66064 L 186.06249,17.49414 L 186.89599,18.32764 L 195.729,19.66065 L 188.5625,21.66065 L 186.0625,19.49415 L 184.396,20.49415 L 182.396,19.49415 L 177.72901,18.66065 L 177.56251,17.82764 L 173.06251,18.16065 L 171.39601,19.49415 L 169.39601,19.66065 L 168.89601,20.66065 L 171.72902,21.49415 L 180.56252,22.16065 L 173.89602,22.32764 L 175.89602,23.66065 L 181.22903,23.99415 L 182.22903,22.82765 L 183.56253,23.49415 L 184.72903,23.49415 L 184.89602,22.32765 L 188.39602,23.49415 L 193.56252,24.16065 L 191.72902,25.32764 L 186.39601,24.82764 L 187.89601,25.99414 L 183.89601,26.16064 L 182.89601,27.16064 L 184.39601,27.49414 L 186.22902,27.32764 L 186.72902,26.82764 L 187.56252,26.99414 L 187.56252,27.49414 L 195.06252,27.82764 L 195.56252,26.99414 L 196.22902,27.82764 L 197.22902,26.66065 L 200.06252,28.16065 L 206.06252,27.66065 L 206.0625,27.66064 z "
   style="stroke:none"
   id="path2587" />
		<path
   d="M 178.229,27.16064 L 178.89599,28.32763 L 189.06249,29.99413 L 190.89599,29.16063 L 201.89599,29.16063 L 202.06249,29.99413 L 201.06249,31.32763 L 195.22899,30.82763 L 194.06249,30.49413 L 193.22899,31.16063 L 185.06249,31.49413 L 184.22899,30.82763 L 183.39598,31.49413 L 179.39598,31.16063 L 177.89598,30.66063 L 177.72899,28.99413 L 176.06249,27.82763 L 178.22899,27.16064 L 178.229,27.16064 z "
   style="stroke:none"
   id="path2589" />
		<path
   d="M 172.229,28.82764 L 170.0625,29.99414 L 168.729,29.99414 L 168.729,31.16064 L 172.229,30.66064 L 173.39599,31.49414 L 174.56249,31.32764 L 173.89599,29.99414 L 172.229,28.82764 z "
   style="stroke:none"
   id="path2591" />
		<path
   d="M 168.896,26.32764 L 169.0625,27.82764 L 174.5625,27.99414 L 173.896,27.16064 L 171.896,26.16064 L 168.896,26.32763 L 168.896,26.32764 z "
   style="stroke:none"
   id="path2593" />
		<path
   d="M 166.396,24.82764 L 170.896,24.66065 L 170.896,23.49415 L 169.396,22.99415 L 166.0625,22.99415 L 166.396,24.82765 L 166.396,24.82764 z "
   style="stroke:none"
   id="path2595" />
		<path
   d="M 160.229,32.49414 L 167.0625,32.49414 L 165.0625,34.32764 L 166.896,35.16065 L 168.396,35.16065 L 168.396,36.32764 L 166.896,37.16065 L 164.896,36.49415 L 164.22901,37.82765 L 159.896,35.99415 L 157.22901,35.66065 L 156.396,33.99415 L 158.22901,33.99415 L 158.72901,35.16065 L 160.06251,34.99415 L 161.56251,33.82765 L 160.06251,33.66066 L 160.22901,32.49416 L 160.229,32.49414 z "
   style="stroke:none"
   id="path2597" />
		<path
   d="M 161.0625,30.99414 L 163.729,29.66064 L 167.0625,29.66064 L 166.5625,28.82763 L 164.896,27.32763 L 160.22901,26.82763 L 161.22901,27.99413 L 158.896,27.99413 L 160.72901,29.66063 L 161.06251,30.99413 L 161.0625,30.99414 z "
   style="stroke:none"
   id="path2599" />
		<path
   d="M 152.896,24.16064 L 162.896,24.49414 L 161.896,23.16064 L 156.72901,22.32763 L 153.896,20.99413 L 150.22901,21.49413 L 150.896,22.82763 L 151.896,22.82763 L 153.22901,22.16064 L 154.06251,22.66064 L 152.39601,23.49414 L 152.89601,24.16064 L 152.896,24.16064 z "
   style="stroke:none"
   id="path2601" />
		<path
   d="M 130.5625,27.49414 L 135.729,27.49414 L 138.5625,29.16064 L 141.5625,28.49414 L 140.896,27.82764 L 142.396,27.16065 L 144.22901,27.16065 L 144.396,28.32764 L 145.72901,29.32764 L 149.396,28.49414 L 149.22901,30.49414 L 132.896,31.32764 L 133.5625,30.16065 L 131.5625,29.82764 L 131.0625,30.82764 L 127.729,30.49414 L 128.729,29.49414 L 130.89599,28.99414 L 129.89599,28.32764 L 130.56249,27.49414 L 130.5625,27.49414 z "
   style="stroke:none"
   id="path2603" />
		<path
   d="M 126.396,27.16064 L 127.396,27.82763 L 128.22901,27.49413 L 128.56251,25.99413 L 129.89601,25.82763 L 127.22902,25.16064 L 115.72902,27.99414 L 121.89601,28.66064 L 124.22902,27.16064 L 126.39601,27.16064 L 126.396,27.16064 z "
   style="stroke:none"
   id="path2605" />
		<path
   d="M 149.0625,32.66064 L 151.729,32.99414 L 151.5625,34.49414 L 150.229,34.99414 L 151.729,36.99414 L 155.729,39.82764 L 158.0625,39.82764 L 159.396,41.16065 L 154.729,41.16065 L 154.5625,42.49415 L 148.896,42.99415 L 148.72901,41.49415 L 144.06251,43.16065 L 134.89601,43.32764 L 134.06251,42.32764 L 127.72901,41.66065 L 126.06251,40.66065 L 136.56251,39.99415 L 134.06251,38.99415 L 125.56251,39.32765 L 124.72901,38.32765 L 130.22901,37.66066 L 123.56251,36.66066 L 126.39601,34.32765 L 122.39601,34.99415 L 118.89601,37.99415 L 114.56251,38.16065 L 109.56251,36.66065 L 112.39601,33.66065 L 114.06251,33.32764 L 112.22901,32.32764 L 112.396,31.32764 L 127.896,32.32764 L 130.0625,33.16065 L 128.396,34.32764 L 130.72901,34.49414 L 131.72901,33.66064 L 133.396,35.16064 L 135.0625,34.49414 L 136.896,34.32764 L 137.5625,35.49414 L 139.229,35.99414 L 140.729,34.49414 L 144.89599,35.99414 L 145.39599,37.66064 L 146.89599,36.99414 L 146.729,35.82764 L 144.89599,33.82764 L 148.89599,34.16065 L 149.06249,32.66065 L 149.0625,32.66064 z "
   style="stroke:none"
   id="path2607" />
		<path
   d="M 423.5625,60.82764 L 428.72949,60.99414 L 433.39551,57.99414 L 435.0625,59.16064 L 436.5625,58.66064 L 438.39551,60.32763 L 438.39551,58.99413 L 436.39551,57.49413 L 435.22949,55.66063 L 433.72949,55.99413 L 432.5625,55.49413 L 433.0625,57.16063 L 429.72949,58.99413 L 426.39551,57.99413 L 424.39551,57.82763 L 424.72949,58.99413 L 425.22949,59.82763 L 423.39551,59.66064 L 423.5625,60.82763 L 423.5625,60.82764 z "
   style="stroke:none"
   id="path2609" />
		<path
   d="M 344.4375,94.74414 L 347.1875,93.74414 L 352.1875,93.74414 L 354.3125,94.49414 L 358.1875,94.49414 L 360.0625,93.49414 L 360.8125,90.36914 L 360.6875,88.61914 L 356.5625,85.86914 L 353.4375,85.24414 L 355.3125,83.11914 L 357.1875,83.36914 L 357.8125,84.11914 L 360.1875,83.99414 L 359.5625,82.36914 L 359.9375,81.99414 L 363.6875,82.49414 L 364.8125,80.99414 L 366.0625,80.36914 L 368.4375,77.86914 L 368.9375,78.49414 L 369.8125,77.24414 L 370.8125,77.99414 L 374.4375,77.11914 L 373.0625,76.24414 L 371.8125,75.99414 L 374.1875,74.49414 L 378.4375,73.49414 L 380.1875,74.11914 L 381.3125,72.99414 L 380.1875,71.24414 L 380.4375,69.86914 L 379.9375,69.11914 L 379.9375,67.49414 L 382.0625,66.36914 L 383.6875,65.99414 L 384.4375,66.11914 L 383.4375,67.61914 L 383.5625,69.24414 L 384.8125,70.11914 L 382.9375,70.74414 L 383.6875,71.74414 L 385.0625,71.74414 L 386.0625,71.24414 L 386.1875,72.49414 L 387.3125,72.86914 L 388.5625,71.86914 L 389.6875,71.86914 L 392.1875,73.36914 L 395.1875,72.11914 L 400.5625,71.49414 L 400.9375,72.74414 L 403.9375,70.49414 L 404.9375,71.11914 L 405.9375,70.99414 L 405.4375,69.86914 L 406.1875,69.24414 L 404.5625,68.49414 L 407.4375,65.86914 L 407.6875,63.99414 L 408.8125,62.99414 L 409.8125,64.36914 L 408.5625,64.99414 L 410.1875,66.61914 L 412.0625,66.74414 L 412.0625,65.24414 L 410.9375,63.24414 L 411.0625,62.24414 L 420.4375,61.24414 L 421.8125,60.24414 L 420.1875,59.11914 L 409.9375,60.74414 L 409.3125,59.74414 L 408.8125,60.49414 L 406.1875,59.74414 L 406.9375,58.49414 L 406.8125,56.99414 L 406.3125,56.24414 L 406.3125,54.74414 L 414.0625,50.36914 L 412.4375,49.11914 L 411.5625,46.99414 L 410.1875,48.61914 L 407.5625,49.11914 L 405.1875,52.86914 L 397.8125,55.74414 L 398.6875,57.24414 L 397.8125,58.99414 L 401.5625,60.99414 L 400.0625,62.74414 L 397.6875,63.11914 L 395.1875,69.11914 L 392.6875,68.74414 L 391.9375,70.61914 L 389.0625,70.24414 L 388.6875,67.86914 L 386.5625,65.86914 L 387.5625,65.11914 L 384.1875,62.61914 L 381.3125,63.11914 L 380.6875,64.24414 L 376.3125,64.24414 L 374.6875,63.36914 L 375.4375,62.36914 L 373.8125,61.86914 L 374.5625,60.86914 L 373.9375,59.86914 L 374.3125,59.11914 L 373.3125,58.49414 L 374.5625,57.74414 L 373.4375,57.11914 L 374.5625,56.24414 L 375.6875,56.61914 L 376.9375,56.24414 L 377.0625,55.11914 L 383.4375,53.49414 L 382.6875,52.61914 L 387.3125,50.61914 L 390.0625,48.36914 L 390.3125,46.61914 L 393.0625,45.74414 L 394.0625,44.49414 L 393.0625,43.61914 L 394.1875,42.49414 L 395.1875,42.99414 L 394.6875,43.86914 L 395.5625,44.61914 L 398.3125,43.86914 L 399.5625,41.99414 L 402.5625,41.11914 L 404.5625,41.74414 L 405.5625,40.74414 L 407.8125,39.74414 L 409.5625,40.36914 L 413.3125,38.74414 L 414.3125,38.99414 L 413.3125,40.36914 L 414.3125,40.49414 L 416.4375,38.86914 L 417.5625,39.61914 L 419.5625,38.24414 L 420.8125,39.49414 L 422.6875,38.86914 L 444.5625,44.74414 L 446.4375,45.99414 L 444.8125,47.61914 L 440.8125,48.74414 L 430.5625,47.24414 L 432.8125,49.11914 L 433.1875,51.49414 L 436.0625,52.61914 L 438.8125,52.99414 L 439.9375,51.99414 L 437.4375,51.24414 L 437.5625,50.24414 L 443.3125,51.11914 L 444.8125,51.74414 L 445.9375,51.24414 L 444.3125,50.11914 L 444.3125,48.86914 L 448.1875,47.99414 L 450.9375,48.49414 L 451.8125,48.24414 L 451.5625,43.61914 L 456.6875,43.74414 L 457.1875,44.74414 L 454.3125,45.86914 L 455.3125,46.99414 L 459.1875,46.99414 L 459.5625,45.86914 L 462.3125,45.61914 L 462.8125,44.36914 L 467.1875,43.36914 L 468.0625,43.74414 L 467.8125,44.74414 L 467.6875,47.11914 L 468.9375,45.24414 L 481.5625,42.99414 L 484.6875,43.36914 L 485.5625,42.24414 L 484.6875,41.11914 L 490.4375,40.99414 L 500.6875,44.11914 L 502.3125,43.99414 L 502.5625,42.74414 L 498.3125,40.86914 L 498.3125,38.99414 L 497.3125,38.49414 L 500.9375,37.49414 L 503.0625,34.61914 L 504.9375,33.74414 L 507.1875,34.11914 L 505.8125,34.86914 L 509.3125,35.61914 L 508.0625,37.86914 L 509.8125,38.99414 L 509.4375,41.61914 L 511.4375,43.74414 L 508.4375,46.36914 L 505.9375,47.49414 L 509.1875,47.74414 L 512.8125,46.11914 L 514.4375,43.74414 L 512.0625,42.24414 L 512.6875,40.36914 L 512.3125,38.86914 L 510.5625,37.99414 L 513.5625,36.86914 L 514.1875,34.61914 L 515.4375,35.74414 L 516.1875,38.24414 L 520.3125,38.99414 L 519.1875,37.61914 L 516.5625,36.86914 L 518.9375,36.11914 L 519.6875,35.11914 L 527.6875,36.74414 L 526.0625,35.49414 L 525.1875,34.11914 L 531.8125,32.74414 L 537.6875,33.36914 L 537.3125,31.86914 L 540.0625,30.11914 L 561.8125,27.99414 L 563.3125,29.36914 L 564.6875,29.74414 L 564.9375,28.61914 L 563.4375,27.74414 L 566.4375,27.61914 L 567.4375,26.36914 L 572.5625,24.99414 L 576.9375,25.86914 L 575.6875,27.11914 L 579.4375,27.74414 L 583.0625,27.11914 L 587.4375,27.24414 L 592.5625,28.61914 L 591.6875,30.24414 L 589.0625,30.86914 L 591.3125,31.86914 L 588.4375,32.11914 L 586.9375,31.74414 L 580.6875,33.11914 L 585.3125,33.61914 L 586.8125,32.61914 L 589.0625,33.24414 L 601.8125,33.49414 L 610.0625,36.24414 L 608.8125,38.36914 L 609.4375,38.61914 L 612.8125,36.61914 L 611.3125,35.49414 L 615.8125,35.11914 L 618.5625,36.61914 L 620.3125,35.86914 L 622.9375,36.86914 L 623.9375,36.74414 L 625.3125,38.61914 L 626.83789,38.99414 L 630.4375,36.86914 L 633.5625,38.11914 L 635.8125,37.49414 L 641.4375,37.86914 L 645.9375,35.86914 L 647.0625,34.11914 L 649.8125,34.99414 L 656.0625,35.36914 L 657.3125,36.49414 L 660.9375,35.99414 L 663.8125,36.24414 L 663.5625,37.86914 L 659.6875,39.36914 L 659.5625,42.86914 L 661.3125,40.11914 L 665.3125,38.11914 L 666.1875,38.11914 L 670.8125,39.11914 L 679.6875,38.36914 L 684.3125,38.99414 L 686.0625,41.11914 L 687.9375,41.49414 L 688.0625,42.74414 L 689.8125,41.11914 L 695.4375,40.74414 L 698.3125,41.86914 L 701.6875,40.36914 L 703.5625,40.61914 L 702.0625,41.61914 L 705.3125,43.24414 L 707.0625,43.11914 L 707.0625,41.74414 L 706.8125,40.61914 L 710.9375,40.36914 L 712.9375,40.99414 L 725.85449,41.18164 L 725.83301,50.95264 L 723.4375,51.61914 L 721.1875,50.99414 L 722.6875,52.49414 L 722.5625,53.99414 L 724.3125,54.11914 L 725.4375,54.99414 L 723.6875,56.49414 L 721.8125,56.24414 L 720.6875,54.74414 L 719.1875,56.24414 L 716.1875,56.36914 L 706.3125,60.61914 L 704.0625,59.24414 L 702.0625,59.99414 L 699.5625,60.24414 L 697.9375,61.61914 L 697.9375,59.99414 L 693.3125,61.24414 L 693.0625,62.61914 L 694.4375,62.36914 L 693.9375,64.11914 L 692.3125,63.24414 L 690.4375,64.49414 L 689.6875,65.24414 L 691.5625,66.11914 L 692.6875,68.61914 L 690.4375,68.61914 L 689.3125,71.24414 L 683.3125,75.49414 L 681.1875,77.86914 L 679.8125,78.86914 L 678.5625,77.99414 L 677.0625,71.74414 L 677.1875,68.61914 L 679.9375,65.24414 L 694.0625,58.49414 L 694.0625,56.49414 L 696.1875,55.61914 L 692.5625,55.24414 L 691.3125,57.49414 L 688.9375,58.24414 L 686.0625,59.99414 L 684.9375,59.36914 L 686.3125,57.49414 L 684.4375,57.61914 L 681.3125,56.74414 L 673.6875,61.74414 L 674.5625,61.99414 L 675.6875,61.36914 L 676.1875,62.11914 L 675.1875,62.99414 L 667.6875,62.61914 L 669.0625,61.49414 L 650.1875,62.86914 L 636.1875,71.24414 L 639.0625,71.61914 L 639.1875,73.11914 L 640.6875,73.36914 L 643.3125,71.86914 L 645.6875,72.11914 L 645.3125,73.11914 L 643.8125,74.36914 L 644.6875,76.24414 L 637.1875,80.11914 L 637.8125,81.24414 L 638.8125,81.49414 L 639.9375,79.99414 L 642.8125,78.36914 L 645.4375,77.86914 L 646.4375,77.24414 L 645.8125,75.24414 L 645.8125,73.86914 L 647.0625,73.61914 L 647.6875,75.24414 L 645.9375,83.36914 L 634.6875,94.36914 L 631.5625,95.86914 L 629.6875,94.74414 L 624.9375,97.99414 L 624.4375,99.86914 L 619.5625,102.49414 L 622.5625,104.61914 L 624.1875,106.99414 L 623.9375,110.49414 L 620.6875,111.86914 L 617.6875,112.24414 L 618.1875,109.49414 L 618.8125,108.86914 L 617.3125,107.74414 L 617.6875,105.86914 L 616.3125,104.86914 L 615.5625,105.99414 L 614.9375,104.86914 L 615.9375,102.86914 L 613.5625,101.11914 L 610.0625,102.99414 L 607.5625,103.36914 L 608.8125,101.99414 L 609.8125,100.11914 L 607.9375,98.86914 L 602.6875,102.74414 L 600.0625,103.11914 L 600.3125,104.36914 L 604.5625,106.86914 L 606.1875,105.74414 L 607.6875,105.74414 L 609.4375,106.74414 L 603.4375,111.49414 L 606.1875,113.61914 L 606.4375,115.36914 L 608.4375,117.11914 L 607.4375,118.61914 L 608.3125,119.99414 L 606.9375,120.74414 L 608.4375,121.74414 L 609.0625,122.49414 L 607.6875,123.99414 L 608.5625,125.11914 L 606.9375,125.36914 L 605.9375,126.99414 L 603.9375,127.74414 L 604.9375,128.74414 L 603.5625,131.49414 L 601.1875,132.36914 L 600.5625,133.61914 L 598.1875,134.49414 L 597.9375,135.49414 L 593.8125,136.24414 L 592.1875,135.74414 L 591.4375,136.99414 L 591.3125,137.86914 L 585.5625,138.86914 L 587.1875,141.74414 L 584.6875,145.11914 L 583.5625,145.49414 L 582.0625,144.24414 L 582.9375,142.36914 L 585.5625,141.24414 L 584.3125,140.24414 L 584.1875,137.74414 L 582.1875,137.74414 L 577.6875,141.11914 L 576.1875,143.36914 L 578.0625,144.99414 L 579.4375,147.24414 L 582.1875,149.86914 L 583.1875,152.36914 L 583.6875,155.49414 L 582.1875,159.11914 L 577.6875,162.24414 L 576.0625,163.99414 L 574.5625,164.11914 L 574.1875,161.24414 L 570.8125,159.61914 L 569.0625,156.86914 L 565.8125,154.74414 L 564.9375,156.11914 L 562.9375,161.49414 L 565.9375,166.24414 L 571.8125,172.11914 L 572.0625,176.61914 L 572.9375,178.61914 L 571.4375,179.11914 L 566.8125,175.61914 L 564.0625,168.11914 L 561.1875,164.24414 L 562.0625,154.99414 L 558.6875,146.99414 L 557.6875,148.24414 L 556.1875,148.61914 L 555.8125,150.11914 L 554.6875,149.49414 L 554.0625,149.99414 L 553.0625,148.86914 L 553.8125,146.24414 L 552.8125,143.36914 L 551.1875,143.24414 L 552.0625,142.24414 L 550.0625,141.11914 L 546.4375,135.36914 L 545.5625,134.86914 L 544.9375,137.74414 L 544.0625,137.36914 L 542.8125,137.86914 L 540.4375,137.61914 L 538.8125,138.49414 L 538.4375,140.61914 L 534.8125,142.36914 L 532.5625,145.49414 L 529.1875,147.24414 L 529.0625,148.36914 L 526.6875,149.11914 L 526.3125,150.24414 L 524.4375,151.24414 L 525.1875,154.99414 L 524.5625,157.99414 L 523.5625,158.61914 L 524.5625,159.74414 L 524.3125,161.11914 L 522.3125,162.24414 L 522.8125,162.99414 L 520.9375,163.61914 L 519.9375,165.49414 L 518.5625,165.24414 L 517.0625,162.99414 L 516.6875,160.36914 L 514.0625,156.36914 L 509.6875,141.74414 L 510.1875,139.99414 L 509.4375,138.86914 L 510.1875,138.24414 L 507.9375,137.24414 L 508.0625,138.86914 L 505.9375,140.24414 L 502.4375,137.36914 L 504.9375,136.11914 L 501.9375,135.24414 L 499.8125,133.86914 L 499.6875,131.99414 L 497.3125,131.24414 L 495.8125,130.11914 L 493.5625,131.36914 L 492.1875,130.11914 L 490.5625,131.24414 L 479.8125,130.49414 L 478.1875,128.49414 L 477.6875,126.74414 L 476.6875,126.86914 L 475.3125,128.11914 L 471.4375,127.99414 L 466.6875,125.24414 L 464.5625,121.49414 L 463.3125,120.61914 L 461.0625,121.24414 L 460.3125,122.61914 L 461.1875,124.74414 L 464.6875,128.61914 L 463.8125,129.61914 L 465.0625,130.74414 L 466.4375,130.49414 L 466.0625,128.99414 L 467.4375,129.24414 L 467.5625,131.36914 L 467.0625,132.49414 L 468.9375,133.86914 L 472.1875,133.86914 L 476.1875,128.86914 L 476.9375,131.74414 L 479.8125,134.24414 L 482.4375,135.49414 L 484.1875,137.24414 L 481.5625,139.99414 L 479.5625,141.11914 L 479.1875,143.99414 L 477.5625,144.24414 L 476.8125,145.36914 L 474.4375,146.11914 L 474.4375,147.74414 L 470.5625,148.11914 L 468.1875,150.61914 L 464.0625,151.61914 L 461.6875,153.61914 L 454.6875,155.74414 L 451.4375,155.74414 L 450.3125,154.36914 L 450.1875,152.36914 L 448.9375,151.11914 L 449.6875,149.61914 L 448.6875,146.61914 L 442.0625,138.99414 L 441.8125,136.11914 L 440.5625,133.74414 L 438.3125,132.74414 L 438.1875,130.74414 L 434.8125,125.49414 L 433.4375,124.99414 L 433.6875,123.24414 L 432.1875,124.49414 L 432.1875,125.74414 L 429.9375,123.61914 L 430.8125,126.24414 L 431.4375,127.11914 L 432.0625,129.24414 L 434.8125,133.11914 L 435.9375,135.61914 L 438.3125,138.24414 L 438.6875,144.36914 L 441.1875,144.99414 L 443.3125,150.74414 L 450.3125,155.99414 L 450.5625,158.61914 L 453.3125,160.61914 L 455.5625,159.86914 L 457.1875,160.24414 L 465.3125,157.11914 L 466.8125,158.61914 L 466.0625,160.24414 L 466.6875,160.86914 L 460.0625,172.86914 L 454.8125,177.99414 L 451.3125,179.99414 L 445.9375,186.49414 L 444.4375,187.24414 L 441.5625,192.74414 L 441.4375,194.36914 L 442.8125,193.24414 L 443.0625,193.99414 L 442.4375,194.99414 L 443.0625,201.86914 L 445.0625,203.49414 L 444.4375,205.11914 L 445.0625,207.36914 L 445.1875,210.61914 L 445.8125,211.24414 L 443.6875,214.99414 L 437.5625,217.99414 L 437.4375,219.11914 L 436.5625,219.61914 L 435.6875,218.24414 L 435.4375,220.11914 L 433.3125,222.74414 L 434.5625,225.36914 L 434.6875,228.61914 L 433.6875,231.61914 L 428.6875,234.24414 L 429.1875,235.74414 L 427.8125,239.86914 L 423.5625,245.11914 L 418.6875,248.86914 L 402.4375,251.86914 L 400.0625,250.99414 L 399.3125,248.49414 L 399.9375,246.36914 L 394.6875,237.86914 L 391.6875,228.11914 L 391.4375,225.49414 L 388.8125,220.36914 L 387.1875,219.49414 L 386.0625,215.86914 L 388.1875,209.36914 L 390.9375,205.86914 L 389.5625,200.24414 L 390.3125,198.49414 L 386.6875,191.74414 L 382.1875,186.36914 L 380.6875,183.36914 L 382.6875,180.99414 L 382.0625,179.36914 L 383.0625,177.74414 L 382.5625,176.74414 L 383.9375,176.11914 L 382.5625,173.24414 L 381.5625,173.99414 L 380.0625,171.99414 L 377.5625,172.61914 L 374.9375,171.86914 L 372.1875,168.86914 L 366.6875,169.24414 L 359.3125,172.11914 L 354.9375,170.99414 L 347.8125,172.99414 L 337.6875,166.99414 L 336.1875,164.36914 L 336.6875,163.49414 L 335.6875,162.86914 L 335.0625,161.49414 L 332.5625,159.49414 L 332.4375,158.61914 L 328.8125,156.49414 L 329.4375,155.61914 L 328.0625,151.99414 L 330.5625,149.61914 L 332.5625,148.99414 L 330.1875,148.61914 L 328.8125,149.24414 L 330.4375,146.49414 L 330.9375,144.61914 L 329.8125,142.61914 L 330.1875,140.36914 L 328.3125,139.11914 L 337.0625,125.49414 L 340.9375,123.99414 L 343.6875,121.11914 L 343.1875,118.74414 L 344.8125,115.49414 L 349.4375,113.11914 L 351.5625,109.61914 L 354.6875,110.86914 L 356.9375,110.49414 L 358.8125,110.86914 L 361.3125,109.36914 L 364.4375,108.74414 L 365.14551,107.91064 L 371.6875,106.99414 L 374.0625,107.86914 L 380.3125,106.74414 L 381.8125,107.36914 L 382.5625,106.49414 L 384.1875,106.74414 L 384.9375,107.61914 L 384.5625,109.16064 L 385.64551,110.49414 L 383.4375,112.99414 L 386.4375,114.36914 L 387.3125,115.61914 L 394.0625,116.36914 L 395.0625,117.99414 L 401.9375,120.36914 L 403.9375,119.61914 L 404.5625,116.49414 L 406.6875,115.49414 L 420.4375,119.11914 L 423.6875,118.74414 L 425.4375,118.99414 L 427.4375,118.36914 L 428.9375,119.61914 L 431.0625,119.11914 L 433.3125,116.86914 L 433.1875,114.24414 L 435.0625,113.36914 L 435.1875,109.36914 L 435.6875,107.49414 L 429.5625,109.24414 L 426.0625,107.24414 L 423.5625,108.86914 L 420.5625,107.36914 L 419.1875,107.86914 L 417.4375,105.11914 L 415.5625,104.61914 L 417.0625,103.24414 L 415.8125,101.74414 L 416.6875,100.49414 L 418.1875,100.49414 L 432.4375,97.36914 L 433.3125,96.74414 L 434.8125,97.49414 L 436.1875,97.74414 L 436.9375,98.61914 L 442.6875,98.99414 L 445.9375,98.49414 L 447.0625,96.74414 L 439.4375,91.49414 L 437.6875,91.24414 L 440.3125,89.11914 L 440.0625,87.99414 L 440.4375,87.11914 L 436.4375,87.49414 L 434.0625,88.61914 L 434.1875,89.86914 L 436.4375,90.36914 L 431.4375,92.11914 L 430.1875,90.86914 L 429.1875,90.24414 L 430.6875,88.99414 L 428.0625,88.24414 L 427.4375,86.74414 L 425.9375,87.61914 L 424.6875,89.24414 L 422.4375,89.74414 L 423.1875,90.61914 L 421.9375,90.99414 L 420.9375,93.74414 L 418.8125,95.61914 L 419.9375,97.36914 L 421.6875,98.11914 L 416.8125,99.74414 L 414.0625,98.99414 L 411.1875,100.86914 L 409.4375,100.36914 L 409.5625,102.49414 L 411.1875,104.36914 L 409.8125,105.49414 L 410.5625,106.11914 L 409.3125,107.11914 L 409.9375,107.74414 L 408.4375,107.86914 L 405.9375,105.49414 L 407.0625,104.49414 L 403.3125,101.99414 L 402.3125,100.49414 L 402.1875,97.36914 L 396.9375,94.49414 L 395.3125,94.36914 L 394.1875,92.61914 L 393.9375,91.36914 L 392.3125,90.74414 L 391.1875,91.86914 L 389.6875,89.99414 L 387.3125,90.86914 L 393.9375,97.24414 L 396.1875,98.61914 L 398.5625,98.99414 L 400.3125,100.24414 L 400.6875,101.24414 L 398.5625,100.74414 L 396.9375,100.99414 L 396.8125,101.99414 L 398.1875,102.86914 L 396.5625,103.74414 L 396.4375,104.86914 L 394.9375,104.99414 L 395.8125,103.49414 L 394.4375,100.99414 L 388.0625,97.86914 L 383.4375,94.11914 L 383.3125,92.86914 L 379.9375,91.99414 L 378.3125,93.49414 L 375.5625,95.11914 L 370.9375,93.74414 L 369.4375,94.99414 L 369.4375,96.74414 L 366.9375,98.61914 L 364.5625,99.61914 L 362.6875,101.36914 L 363.3125,103.86914 L 360.9375,106.36914 L 358.5625,107.49414 L 353.1875,108.49414 L 350.5625,108.11914 L 349.6875,106.74414 L 347.9375,107.11914 L 345.4375,106.86914 L 344.8125,104.36914 L 343.8125,103.49414 L 345.0625,101.61914 L 346.0625,98.74414 L 344.6875,97.24414 L 346.1875,96.36914 L 344.4375,94.74414 L 344.4375,94.74414 z M 427.5625,187.49414 L 432.22949,185.99414 L 430.0625,185.49414 L 432.0625,184.16016 L 431.0625,182.99414 L 432.5625,182.82812 L 432.72949,180.49414 L 431.39551,180.99414 L 429.39551,179.82764 L 426.72949,183.16016 L 426.5625,185.82813 L 427.5625,187.49415 L 427.5625,187.49414 z M 388.89551,63.82764 L 390.89551,63.82764 L 391.5625,61.99414 L 390.22949,61.82764 L 388.89551,63.82764 z M 463.22949,99.99414 L 462.72949,102.32764 L 461.22949,103.49414 L 462.39551,105.32764 L 463.39551,106.16065 L 464.89551,106.66065 L 466.5625,107.82764 L 472.22949,106.99414 L 471.39551,105.82764 L 472.5625,104.66065 L 470.89551,102.49415 L 471.5625,101.16065 L 470.0625,100.66065 L 469.89551,98.82764 L 471.22949,98.99414 L 472.0625,99.82764 L 473.22949,99.16065 L 471.22949,96.82764 L 469.72949,96.49414 L 468.39551,96.66064 L 468.89551,95.49414 L 466.39551,94.32764 L 465.39551,92.49414 L 467.39551,91.82764 L 466.39551,90.82764 L 470.89551,90.32764 L 469.89551,88.99414 L 470.22949,87.66064 L 469.39551,86.66064 L 465.39551,86.66064 L 458.5625,89.99414 L 457.72949,91.66064 L 459.22949,93.49414 L 459.5625,95.99414 L 463.22949,99.99414 z M 480.0625,91.16064 L 482.0625,95.32763 L 483.22949,93.82763 L 484.72949,94.32763 L 486.22949,92.66064 L 485.89551,91.49414 L 487.72949,90.66064 L 486.39551,89.66064 L 486.89551,87.82763 L 483.72949,87.99413 L 480.0625,91.16063 L 480.0625,91.16064 z M 572.39551,77.82764 L 576.22949,78.49414 L 579.39551,75.82764 L 582.22949,74.49414 L 582.89551,72.99414 L 584.39551,72.16064 L 584.39551,69.82763 L 582.72949,70.99413 L 577.22949,76.82763 L 574.39551,76.99413 L 572.39551,77.82763 L 572.39551,77.82764 z "
   style="stroke:none"
   id="path2611" />
		<path
   d="M 231.5625,292.49414 L 228.229,292.32715 L 225.89599,293.99414 L 224.06249,294.16113 L 222.39599,293.66113 L 225.56249,292.66113 L 221.06249,291.82715 L 221.72899,290.32715 L 222.89598,289.66113 L 221.72899,288.66113 L 221.56249,287.32715 L 220.22899,287.82715 L 220.06249,289.99414 L 218.89599,290.66113 L 218.06249,289.99414 L 219.39599,288.66113 L 218.06249,288.82715 L 216.72899,290.99414 L 215.72899,290.16113 L 216.22899,288.66113 L 215.22899,288.66113 L 214.72899,287.49414 L 216.06249,287.16113 L 217.22899,288.32715 L 217.06249,285.99414 L 215.06249,285.49414 L 213.39599,284.49414 L 213.229,282.99414 L 215.0625,284.16113 L 214.396,283.16113 L 213.5625,280.99414 L 214.896,277.66113 L 214.22901,277.32715 L 213.72901,278.32715 L 212.896,278.16113 L 213.5625,277.16113 L 213.229,275.99414 L 212.229,275.82715 L 211.39599,275.49414 L 212.89599,274.49414 L 214.56249,275.32715 L 216.22899,273.32715 L 214.72899,272.66113 L 216.22899,271.49414 L 215.22899,271.16016 L 216.22899,270.66016 L 215.72899,269.66016 L 216.72899,267.32813 L 217.06249,265.16016 L 215.89599,265.32813 L 215.06249,266.66016 L 214.72899,268.99414 L 213.39598,269.32812 L 213.22899,267.32812 L 215.72899,261.16015 L 215.06249,258.99413 L 215.06249,257.82811 L 216.06249,256.16014 L 217.39599,251.82811 L 219.229,248.49413 L 219.39599,247.32811 L 218.729,246.49413 L 219.5625,237.99413 L 220.729,235.49413 L 221.0625,230.82811 L 221.729,229.99413 L 221.0625,228.99413 L 221.729,218.82811 L 211.729,212.99413 L 209.89599,210.16015 L 210.06249,208.82812 L 208.22899,207.82812 L 202.22899,194.99414 L 200.06249,194.32812 L 199.39599,191.82812 L 199.39599,190.66015 L 202.39599,187.49413 L 200.06249,186.66015 L 200.56249,185.49413 L 199.72899,184.16015 L 202.06249,179.82763 L 203.39599,179.82763 L 203.89599,178.49413 L 205.229,178.82763 L 205.39599,177.16064 L 206.89599,175.32763 L 207.39599,173.16064 L 206.56249,170.49414 L 208.06249,169.66064 L 207.06249,167.99414 L 205.06249,166.32764 L 205.22899,164.49414 L 203.22899,163.82764 L 201.89598,164.49414 L 201.22899,166.82764 L 200.22899,166.82764 L 196.72899,164.82764 L 195.72899,165.99414 L 194.72899,164.82764 L 193.89598,162.99414 L 192.39598,162.66064 L 192.39598,161.16064 L 190.39598,161.82763 L 189.72899,159.32763 L 187.39598,156.32763 L 187.39598,154.49413 L 184.39598,154.99413 L 181.06248,153.66063 L 178.56248,153.32762 L 174.72898,149.82762 L 171.89597,148.32762 L 170.56247,149.82762 L 166.56247,149.66063 L 152.72897,143.49413 L 150.56247,141.82763 L 150.39597,139.66064 L 150.89597,137.99414 L 150.39597,136.49414 L 146.72898,133.32764 L 146.56248,131.82764 L 145.39598,131.99414 L 143.06248,129.32764 L 142.89598,128.16065 L 140.89598,127.82764 L 140.56248,126.16065 L 137.39598,123.99415 L 135.56248,118.99415 L 133.72898,117.66065 L 132.06248,117.32764 L 131.56248,120.16065 L 134.22898,122.49415 L 134.89597,124.16065 L 137.56247,127.32764 L 139.72897,131.82764 L 143.06247,134.82764 L 142.06247,135.99414 L 137.56247,132.32764 L 136.39597,129.32764 L 131.56247,126.99414 L 133.22897,124.32764 L 130.06247,121.99414 L 125.06247,113.32764 L 123.72897,112.66065 L 119.56247,112.16065 L 119.39597,110.49415 L 118.56247,109.99415 L 113.72897,102.99415 L 112.22897,96.66065 L 113.39596,88.82764 L 113.89596,87.49414 L 112.39596,85.66064 L 111.56246,82.32763 L 110.39596,82.82763 L 104.56246,79.82763 L 106.22896,79.32763 L 106.89595,78.32763 L 105.72896,77.66064 L 107.22896,75.66064 L 105.72896,75.82763 L 104.72896,75.16064 L 103.56246,73.32763 L 103.06246,73.99413 L 102.06246,73.66063 L 100.89596,72.66063 L 101.89596,71.99413 L 100.22897,72.16063 L 101.22897,69.99413 L 99.39596,71.16063 L 99.72897,68.82762 L 98.22897,69.32762 L 97.39596,67.82762 L 95.22897,66.82762 L 95.56247,69.66063 L 97.06247,68.82762 L 96.89597,70.16063 L 97.06247,71.66063 L 95.39597,70.82762 L 93.06247,67.66063 L 94.89597,65.66063 L 93.72898,65.16063 L 93.39597,64.49413 L 92.06247,66.82763 L 91.72897,65.32763 L 90.56247,64.49413 L 91.89597,64.16063 L 90.89597,62.99413 L 89.56247,63.16063 L 88.39597,62.82762 L 89.22898,64.16063 L 90.39597,67.66063 L 87.39597,63.82762 L 85.56247,63.49412 L 84.72897,62.49412 L 81.39596,61.99412 L 80.39596,60.82762 L 78.72897,61.82762 L 78.06247,60.82762 L 72.229,60.82762 L 71.5625,58.82762 L 69.896,59.66063 L 67.729,58.32764 L 65.5625,58.99414 L 63.729,58.16064 L 64.729,60.49414 L 59.39599,62.32764 L 57.39599,61.82764 L 57.89599,60.32764 L 59.56249,59.49414 L 59.72899,57.99414 L 54.06249,60.32764 L 55.06249,61.16065 L 52.06249,62.49415 L 53.56249,63.49415 L 40.72899,69.82765 L 36.72899,70.16066 L 34.89598,70.99416 L 36.56248,68.99416 L 44.06248,66.32766 L 45.89598,64.49416 L 45.72899,62.49416 L 44.39598,63.32766 L 43.72899,62.32766 L 43.39598,63.49416 L 41.72899,62.66066 L 39.72899,62.66066 L 39.06249,63.66066 L 36.39599,63.49416 L 37.229,61.82766 L 34.729,60.66067 L 33.89599,61.16067 L 31.56249,60.49417 L 28.22899,56.99417 L 31.56249,55.49417 L 33.72899,56.99417 L 36.72899,57.99417 L 35.72899,56.32767 L 31.56249,54.82767 L 31.56249,53.82767 L 32.89599,53.82767 L 34.06249,54.82767 L 34.56249,54.16068 L 38.89599,53.82767 L 37.729,52.32767 L 38.5625,50.49417 L 36.729,51.16067 L 28.5625,51.66067 L 24.5625,49.16067 L 33.5625,47.32766 L 31.5625,48.49416 L 32.896,49.16066 L 38.22901,48.49416 L 40.06251,47.49416 L 37.72901,46.66066 L 33.396,46.32764 L 26.729,44.16064 L 28.229,43.16064 L 32.89599,43.32763 L 35.56249,40.82763 L 45.72899,37.99413 L 48.06249,38.49413 L 49.22899,39.32763 L 50.06249,38.16064 L 86.06249,42.99414 L 91.89599,41.32764 L 93.229,41.32764 L 96.39599,42.66065 L 95.89599,40.99415 L 98.06249,41.66065 L 100.06249,41.32764 L 98.22899,40.49414 L 101.22899,40.49414 L 102.06249,41.66064 L 102.72899,40.66064 L 104.22899,41.66064 L 104.89598,40.49414 L 106.72899,40.49414 L 109.89598,41.99414 L 111.72899,40.49414 L 111.89598,41.99414 L 114.22899,41.99414 L 114.72899,40.66064 L 131.22899,42.82763 L 132.72899,43.49413 L 130.39598,44.49413 L 144.56248,45.99413 L 145.89598,48.16063 L 147.56248,47.16063 L 146.39598,45.16063 L 144.72899,43.99413 L 148.89598,42.99413 L 148.39598,44.32763 L 150.06248,43.82763 L 152.56248,44.99413 L 165.56248,44.49413 L 166.22898,43.49413 L 164.56248,42.99413 L 163.39598,42.32763 L 165.22899,41.32763 L 166.89598,41.49413 L 170.39598,42.99413 L 167.39598,43.66063 L 169.56248,44.49413 L 168.89598,46.32763 L 170.56248,46.66064 L 170.72898,44.49414 L 173.56248,44.32764 L 174.89598,42.66065 L 172.72899,42.82764 L 174.22899,41.32764 L 169.56249,40.82764 L 168.72899,38.49414 L 171.56249,37.49414 L 171.06249,35.99414 L 171.06249,34.82764 L 170.06249,33.32764 L 172.72899,32.49414 L 180.56249,33.16064 L 177.89599,34.99414 L 174.89599,34.82764 L 173.06249,36.16065 L 174.89599,37.49415 L 174.56249,38.32765 L 177.89599,39.82765 L 176.89599,41.99415 L 180.229,42.82765 L 181.0625,44.49415 L 182.229,44.32765 L 183.89599,42.16066 L 186.229,43.66066 L 184.89599,44.49416 L 186.39599,46.32766 L 188.06249,46.66067 L 190.39599,43.82766 L 192.56249,43.32766 L 190.89599,41.32766 L 193.89599,40.99416 L 193.89599,40.16066 L 189.89599,39.82765 L 187.729,39.16066 L 186.0625,40.16066 L 182.729,37.99416 L 182.0625,35.99416 L 183.396,33.82766 L 187.396,32.82766 L 191.22901,32.82766 L 191.72901,33.32766 L 188.896,34.66067 L 188.72901,36.49417 L 189.896,36.49417 L 192.396,38.49417 L 192.896,37.99417 L 190.396,35.66067 L 191.896,35.82766 L 192.396,36.49416 L 193.396,36.49416 L 192.72901,35.32766 L 193.56251,34.82766 L 192.72901,33.82766 L 196.396,32.99416 L 198.22901,33.16066 L 200.22901,34.49416 L 200.72901,35.66066 L 205.896,36.82765 L 205.22901,35.32765 L 202.72901,34.99415 L 200.896,33.99415 L 200.72901,32.66065 L 208.06251,33.66065 L 208.72901,34.82764 L 211.396,36.16065 L 212.22901,37.99415 L 213.06251,36.99415 L 214.89601,36.99415 L 215.06251,37.99415 L 216.06251,38.16065 L 217.06251,36.99415 L 219.22901,37.32765 L 218.06251,38.32765 L 220.22901,39.99415 L 219.896,38.16065 L 220.896,38.32764 L 222.0625,39.66065 L 222.729,38.82764 L 224.729,38.66065 L 224.229,40.32764 L 225.89599,39.99414 L 228.06249,40.82764 L 222.06249,41.16065 L 226.89599,44.16065 L 227.89599,43.32764 L 229.56249,44.82764 L 230.39599,44.16065 L 233.56249,45.32764 L 233.06249,46.16065 L 235.22899,46.99415 L 236.22899,46.16065 L 236.72899,46.99415 L 238.22899,45.82765 L 239.39598,46.66066 L 235.22899,50.16066 L 233.39598,49.82765 L 227.06248,47.16066 L 226.56248,48.66066 L 225.06248,48.82765 L 227.39598,49.32765 L 227.56248,50.32765 L 231.39598,50.82765 L 229.89598,51.99415 L 232.89598,52.49415 L 232.72899,53.16065 L 231.72899,54.99415 L 228.89598,54.66065 L 225.89598,52.66065 L 225.72899,54.32764 L 229.89598,56.49414 L 224.56248,55.82764 L 223.06248,54.99414 L 218.56248,54.49414 L 220.06248,53.32764 L 212.56248,51.32764 L 211.06248,52.32764 L 207.89598,52.16065 L 204.72899,51.16065 L 206.06249,50.16065 L 210.06249,50.32764 L 211.39599,51.16065 L 212.39599,50.32764 L 215.39599,49.99414 L 214.06249,47.99414 L 218.39599,46.32764 L 217.06249,44.49414 L 214.72899,44.16064 L 207.89598,39.99414 L 207.22899,40.82764 L 204.06249,38.32764 L 202.72899,40.16065 L 195.06249,41.32764 L 199.06249,42.49414 L 196.72899,43.32764 L 199.06249,45.16065 L 198.39599,46.66065 L 195.229,47.82764 L 194.39599,47.16065 L 192.39599,48.16065 L 189.89599,47.32764 L 189.56249,48.32764 L 187.22899,49.49414 L 186.22899,51.99414 L 182.22899,52.32764 L 179.72899,54.99414 L 175.06249,55.99414 L 175.06249,57.66064 L 173.56249,59.16064 L 172.56249,58.82763 L 171.72899,61.82763 L 170.72899,62.66064 L 172.39598,62.82763 L 173.22899,63.66064 L 174.89598,62.82763 L 176.22899,65.32763 L 176.22899,66.82763 L 183.22899,66.66064 L 190.72899,69.82763 L 197.56249,70.32763 L 197.06249,75.32763 L 200.39599,77.49413 L 201.729,78.99413 L 203.229,77.99413 L 204.5625,78.66063 L 204.729,76.82762 L 205.729,75.99412 L 204.0625,74.66062 L 204.729,72.82761 L 202.0625,71.66062 L 209.229,69.16062 L 209.5625,66.32761 L 205.5625,63.66062 L 205.229,62.82761 L 207.39599,59.49411 L 206.06249,58.99411 L 206.89599,58.16061 L 205.89599,57.16061 L 206.729,55.49411 L 208.5625,55.32761 L 208.896,56.32761 L 213.22901,56.16062 L 214.22901,55.49412 L 217.72901,57.49412 L 223.06251,58.49412 L 222.89601,60.16062 L 222.06251,61.16062 L 222.39601,62.32761 L 221.22902,62.99411 L 222.06252,63.82761 L 223.22902,63.32761 L 225.22902,63.49411 L 224.22902,64.82761 L 225.06252,65.32761 L 226.06252,64.16062 L 229.22902,63.99412 L 231.72902,62.49412 L 231.72902,59.82762 L 233.39601,59.99412 L 235.39601,63.16062 L 234.22902,64.49412 L 236.39601,63.82762 L 236.22902,64.82762 L 237.39601,65.32762 L 238.39601,66.16063 L 238.56251,67.66063 L 240.72901,69.66063 L 246.896,71.32762 L 241.0625,73.99412 L 242.229,74.49412 L 247.39599,72.49412 L 251.06249,74.82762 L 249.72899,75.66063 L 251.39598,76.66063 L 249.22899,77.49413 L 250.89598,79.16063 L 248.56248,81.49413 L 251.06248,80.99413 L 250.22898,82.66063 L 250.89597,82.16063 L 254.72898,81.66063 L 254.39597,82.99413 L 256.06247,84.16063 L 254.56247,84.99413 L 252.56247,86.99413 L 251.06247,86.82763 L 249.39597,85.32763 L 248.06247,85.82763 L 247.22897,85.32763 L 244.06247,85.16064 L 245.22897,84.32763 L 244.39596,83.32763 L 245.89596,83.32763 L 246.22897,80.66064 L 248.72897,79.32763 L 248.22897,77.66064 L 246.396,77.66064 L 243.0625,79.66064 L 228.729,80.49414 L 227.729,81.82764 L 225.5625,81.99414 L 222.896,83.82764 L 221.0625,86.99414 L 225.229,83.49414 L 228.5625,83.49414 L 232.396,82.32764 L 233.72901,83.32764 L 232.896,84.16065 L 228.896,84.99415 L 231.5625,85.66065 L 231.229,86.82764 L 232.729,86.99414 L 233.229,88.49414 L 234.0625,87.32764 L 235.5625,88.16065 L 234.229,88.82764 L 235.0625,89.49414 L 236.896,89.82764 L 237.0625,88.49414 L 239.0625,90.49414 L 238.229,90.99414 L 234.729,91.99414 L 233.5625,91.49414 L 232.896,93.32764 L 229.896,93.49414 L 230.896,91.82764 L 232.0625,91.16065 L 231.896,89.49415 L 231.0625,90.49415 L 227.396,90.66065 L 227.22901,91.66065 L 222.06251,93.32764 L 219.72901,95.82764 L 221.06251,96.82764 L 218.56251,96.99414 L 216.89601,99.49414 L 215.22902,99.32764 L 213.89601,97.49414 L 213.72902,100.82764 L 211.56252,104.49414 L 210.39602,104.82764 L 209.39602,104.32764 L 209.22903,105.99414 L 208.22903,106.66064 L 210.06253,107.32763 L 209.72903,109.82763 L 208.39602,109.99413 L 208.56252,111.16063 L 206.06252,111.49413 L 206.39602,112.99413 L 199.72903,117.32763 L 198.56253,119.32763 L 201.72903,127.82763 L 201.56253,130.82763 L 200.22903,130.99413 L 196.56253,126.32763 L 196.22903,123.32763 L 195.06253,121.82763 L 192.89603,121.16064 L 190.89603,121.99414 L 191.39603,120.49414 L 188.39603,120.49414 L 187.89603,119.49414 L 187.06253,120.49414 L 186.06253,119.49414 L 184.89603,120.32764 L 182.39603,121.32764 L 181.22904,120.32764 L 179.89603,120.99414 L 181.56253,122.66064 L 179.39603,122.32763 L 178.56253,120.99413 L 177.39603,121.66063 L 172.39603,121.82762 L 171.22904,123.16063 L 169.72904,123.32762 L 167.22904,125.32762 L 166.06254,137.16063 L 167.39604,140.66063 L 168.56254,142.49413 L 172.22904,144.82763 L 175.06254,144.82763 L 177.72904,144.16064 L 178.39603,144.99414 L 179.06253,143.32764 L 180.06253,143.32764 L 181.06253,139.49414 L 185.39603,138.32764 L 186.06253,138.99414 L 187.56253,137.99414 L 188.39603,139.16064 L 186.89603,141.16064 L 185.39603,147.32763 L 184.39603,147.49413 L 185.06253,149.49413 L 187.72903,149.82763 L 190.39602,149.32763 L 195.22903,150.49413 L 194.22903,159.82763 L 196.39602,161.82763 L 196.56252,162.99413 L 199.06252,164.49413 L 200.06252,163.49413 L 202.39602,161.99413 L 206.72903,163.66063 L 207.39602,165.16063 L 209.06252,163.66063 L 210.22902,163.49413 L 212.06252,161.66063 L 211.72902,160.82762 L 210.39601,159.82762 L 210.89601,159.16063 L 212.39601,159.82762 L 213.39601,158.99412 L 216.06251,158.49412 L 219.06251,156.99412 L 218.89601,157.99412 L 217.72902,158.49412 L 218.56252,159.82762 L 220.56252,159.66063 L 222.06252,158.49413 L 221.22902,157.49413 L 222.22902,157.16063 L 223.39601,158.66063 L 225.06251,158.99413 L 224.72901,159.99413 L 229.396,160.32763 L 229.5625,161.16064 L 236.229,160.66064 L 236.229,163.82763 L 231.729,165.16064 L 230.729,166.32763 L 232.5625,166.49413 L 235.229,165.32763 L 237.0625,165.16064 L 238.896,163.99414 L 237.72901,162.82764 L 239.06251,161.82764 L 240.22901,162.99414 L 239.896,163.82764 L 243.22901,164.82764 L 244.72901,166.32764 L 245.396,168.82764 L 245.896,168.16065 L 247.72901,170.32764 L 252.896,169.66065 L 254.22901,170.82764 L 255.72901,170.16065 L 257.396,171.66065 L 259.72901,172.99415 L 260.56251,174.82765 L 260.06251,177.49415 L 262.72901,178.66065 L 259.72901,181.82813 L 259.06251,183.49415 L 258.39601,184.16017 L 255.06251,184.82814 L 258.06251,185.32814 L 259.56251,186.99416 L 260.72901,186.32814 L 261.896,184.49416 L 260.22901,183.82814 L 261.56251,181.99416 L 265.56251,182.66018 L 262.72901,185.82815 L 265.56251,185.32815 L 266.22901,182.99417 L 267.22901,183.82815 L 267.56251,182.99417 L 273.06251,185.32815 L 272.22901,185.99417 L 273.22901,187.32815 L 274.72901,186.82815 L 282.56251,187.49417 L 286.56251,189.82815 L 287.72901,191.49417 L 291.72901,192.16019 L 292.396,194.49417 L 292.5625,199.16019 L 291.229,200.49417 L 290.5625,202.16019 L 289.396,201.99417 L 288.72901,203.66019 L 287.396,204.99417 L 286.5625,206.82815 L 285.396,207.82815 L 284.396,207.99417 L 284.5625,216.99417 L 283.5625,217.99417 L 282.729,221.66019 L 281.39599,222.99417 L 280.729,226.16019 L 278.5625,227.32816 L 273.0625,228.32816 L 271.396,229.82816 L 266.396,231.99418 L 265.22901,232.1602 L 264.72901,238.82817 L 261.72901,242.49419 L 260.396,242.49419 L 259.72901,244.16021 L 258.396,243.82818 L 257.396,247.82818 L 254.396,250.82818 L 251.5625,251.9942 L 249.0625,251.16022 L 246.896,252.16022 L 248.22901,254.66022 L 248.22901,256.66022 L 245.896,258.82819 L 240.0625,259.99421 L 237.229,261.16023 L 238.229,262.3282 L 235.89599,264.66023 L 233.39599,264.3282 L 232.06249,263.66023 L 232.72899,268.8282 L 230.39598,272.32722 L 227.72899,272.99421 L 226.72899,274.99421 L 230.22899,277.1612 L 230.39598,279.1612 L 227.06248,280.32722 L 226.39598,282.6612 L 223.89598,284.49421 L 224.56248,286.49421 L 223.89598,287.32722 L 226.56248,290.1612 L 231.72898,291.6612 L 231.56248,292.49421 L 231.5625,292.49414 z M 179.396,87.49414 L 182.0625,87.66064 L 183.229,86.82763 L 184.5625,87.66064 L 185.896,86.66064 L 186.22901,87.99414 L 193.22901,87.49414 L 192.06251,85.99414 L 190.39601,84.82764 L 188.89601,83.16065 L 185.39601,83.32764 L 179.39601,86.32764 L 179.39601,87.49414 L 179.396,87.49414 z M 187.5625,89.16064 L 186.5625,90.99414 L 187.5625,92.16064 L 186.229,93.32763 L 186.39599,96.99413 L 187.229,96.66063 L 188.5625,97.49413 L 189.5625,96.16063 L 188.729,94.99413 L 188.89599,92.99413 L 190.729,90.32763 L 192.0625,90.16064 L 194.896,90.66064 L 194.896,91.82763 L 194.22901,93.16064 L 195.396,93.16064 L 196.22901,93.82763 L 196.396,95.66064 L 195.22901,97.66064 L 196.72901,98.66064 L 202.22901,96.99414 L 203.56251,95.82764 L 205.22901,96.66065 L 203.72901,94.99415 L 208.896,93.99415 L 209.72901,92.66065 L 211.396,91.16065 L 216.896,88.16065 L 220.22901,87.49415 L 218.72901,87.16065 L 214.06251,88.66065 L 208.39601,92.16065 L 204.72902,93.16065 L 201.39601,95.66065 L 197.72902,96.66065 L 196.39601,97.32764 L 198.06251,94.66065 L 199.39601,90.82764 L 201.22902,91.16065 L 202.39601,90.99415 L 200.06251,89.16065 L 198.56251,88.49415 L 192.06251,88.82765 L 189.72901,89.82765 L 188.72901,89.82765 L 187.56251,89.16066 L 187.5625,89.16064 z M 161.729,73.49414 L 161.39599,74.66064 L 162.729,74.99414 L 165.0625,76.99414 L 166.229,76.32764 L 167.229,77.66065 L 167.729,79.16065 L 168.89599,78.99415 L 165.729,73.49415 L 161.729,73.49415 L 161.729,73.49414 z M 128.729,59.16064 L 132.729,59.49414 L 133.5625,58.32764 L 136.5625,60.32764 L 137.5625,61.82764 L 135.396,61.66065 L 137.22901,63.16065 L 138.896,62.49415 L 138.22901,59.82765 L 136.06251,58.82765 L 135.56251,57.82765 L 137.89601,57.32765 L 138.22902,55.82765 L 136.22902,56.49415 L 133.72902,56.66065 L 131.56252,55.99415 L 129.22902,58.32765 L 128.72902,59.16066 L 128.729,59.16064 z M 115.396,51.16064 L 117.5625,50.82763 L 119.0625,49.66064 L 119.0625,51.16064 L 121.0625,50.66064 L 122.896,49.49414 L 125.396,48.99414 L 125.396,47.82764 L 120.72901,47.66065 L 122.22901,46.49415 L 119.396,46.32765 L 117.896,47.32765 L 113.72901,47.16066 L 111.22901,48.49416 L 116.56251,48.32766 L 115.22901,49.66067 L 115.396,51.16067 L 115.396,51.16064 z "
   style="stroke:none"
   id="path2613" />
		<path
   d="M 158.0625,327.49414 L 170.3125,327.24414 L 168.5625,325.74414 L 166.0625,325.74414 L 158.0625,327.49414 z "
   style="stroke:none"
   id="path2615" />
		<path
   d="M 480.89551,39.82764 L 482.39551,41.49414 L 484.0625,41.16064 L 483.89551,39.99414 L 482.72949,39.49414 L 480.89551,39.82764 z "
   style="stroke:none"
   id="path2617" />
		<path
   d="M 725.84766,362.7959 L 0.00684,362.7959 L 0.00684,0 L 725.84766,0 L 725.84766,362.7959 z "
   style="fill:none;stroke:none"
   id="path2619" />
		<path
   d="M 699.17773,337.67969 L 700.2998,339.06153 L 700.99023,338.28419 L 703.23437,337.85255 L 702.88867,337.33497 L 699.52246,337.07618 L 699.17773,337.6797 L 699.17773,337.67969 z "
   style="stroke:none"
   id="path2621" />
	</g>
</svg>