<?xml version="1.0" encoding="UTF-8" standalone="no"?>
<!-- Created with Inkscape (http://www.inkscape.org/) -->
<svg
   xmlns:dc="http://purl.org/dc/elements/1.1/"
   xmlns:cc="http://web.resource.org/cc/"
   xmlns:rdf="http://www.w3.org/1999/02/22-rdf-syntax-ns#"
   xmlns:svg="http://www.w3.org/2000/svg"
   xmlns="http://www.w3.org/2000/svg"
   xmlns:xlink="http://www.w3.org/1999/xlink"
   xmlns:sodipodi="http://sodipodi.sourceforge.net/DTD/sodipodi-0.dtd"
   xmlns:inkscape="http://www.inkscape.org/namespaces/inkscape"
   width="216.00000px"
   height="108.00000px"
   id="svg2"
   sodipodi:version="0.32"
   inkscape:version="0.45"
   sodipodi:docbase="/home/tackat/marble/data/vectorsource"
   sodipodi:docname="islands.svg"
   inkscape:output_extension="org.inkscape.output.svg.inkscape"
   sodipodi:modified="true">
  <defs
     id="defs4">
    <marker
       inkscape:stockid="Arrow1Lstart"
       orient="auto"
       refY="0.0"
       refX="0.0"
       id="Arrow1Lstart"
       style="overflow:visible">
      <path
         id="path3375"
         d="M 0.0,0.0 L 5.0,-5.0 L -12.5,0.0 L 5.0,5.0 L 0.0,0.0 z "
         style="fill-rule:evenodd;stroke:#000000;stroke-width:1.0pt;marker-start:none"
         transform="scale(0.8) translate(12.5,0)" />
    </marker>
    <marker
       inkscape:stockid="Arrow2Lend"
       orient="auto"
       refY="0.0"
       refX="0.0"
       id="Arrow2Lend"
       style="overflow:visible;">
      <path
         sodipodi:nodetypes="cccc"
         id="path2582"
         style="font-size:12.0;fill-rule:evenodd;stroke-width:0.62500000;stroke-linejoin:round;"
         d="M 8.7185878,4.0337352 L -2.2072895,0.016013256 L 8.7185884,-4.0017078 C 6.9730900,-1.6296469 6.9831476,1.6157441 8.7185878,4.0337352 z "
         transform="scale(1.1) rotate(180) translate(-5,0)" />
    </marker>
  </defs>
  <sodipodi:namedview
     id="base"
     pagecolor="#ffffff"
     bordercolor="#666666"
     borderopacity="1.0"
     inkscape:pageopacity="0.0"
     inkscape:pageshadow="2"
     inkscape:zoom="256"
     inkscape:cx="282.76172"
     inkscape:cy="-25.316406"
     inkscape:document-units="px"
     inkscape:current-layer="layer1"
     inkscape:window-width="1024"
     inkscape:window-height="698"
     inkscape:window-x="0"
     inkscape:window-y="0"
     showguides="true"
     inkscape:guide-bbox="true">
    <sodipodi:guide
       orientation="horizontal"
       position="71.285782"
       id="guide2149" />
    <sodipodi:guide
       orientation="vertical"
       position="230.84888"
       id="guide2151" />
    <sodipodi:guide
       orientation="vertical"
       position="232.79976"
       id="guide2153" />
    <sodipodi:guide
       orientation="horizontal"
       position="70.058616"
       id="guide2155" />
  </sodipodi:namedview>
  <metadata
     id="metadata7">
    <rdf:RDF>
      <cc:Work
         rdf:about="">
        <dc:format>image/svg+xml</dc:format>
        <dc:type
           rdf:resource="http://purl.org/dc/dcmitype/StillImage" />
      </cc:Work>
    </rdf:RDF>
  </metadata>
  <g
     inkscape:label="Ebene 1"
     inkscape:groupmode="layer"
     id="layer1"
     style="display:inline">
    <image
       id="image1367"
       height="216"
       width="432"
       sodipodi:absref="/home/tackat/BlueMarblePhoto/world.topo.bathy.200407.3x5400x2700.jpg"
       xlink:href="/home/tackat/BlueMarblePhoto/world.topo.bathy.200407.3x5400x2700.jpg"
       x="0"
       y="0"
       sodipodi:insensitive="true" />
<!--    
    <image
	  id="image1367"
	  height="216.00000"
	  width="432.00000"
      sodipodi:absref="/home/tackat/BlueMarblePhotoworld.topo.bathy.200407.3x5400x2700"
      xlink:href="/home/tackat/BlueMarblePhoto/world.topo.bathy.200407.3x5400x2700"
	  x="0.0000000000"
	  y="0.0000000000"
	  sodipodi:insensitive="true" /> -->    <path
       style="opacity:1;color:#000000;fill:#ff0000;fill-opacity:0.50196078;fill-rule:evenodd;stroke:#000000;stroke-width:0.01;stroke-linecap:butt;stroke-linejoin:miter;marker:none;marker-start:none;marker-mid:none;marker-end:none;stroke-miterlimit:4;stroke-dasharray:none;stroke-dashoffset:0;stroke-opacity:1;visibility:visible;display:inline;overflow:visible"
       d="M 222.18524,45.168752 L 222.15278,45.183062 L 222.15008,45.225991 L 222.18254,45.257472 L 222.215,45.240301 L 222.33944,45.266058 L 222.42872,45.308989 L 222.48825,45.331884 L 222.59916,45.317575 L 222.64245,45.248888 L 222.62892,45.225991 L 222.68033,45.200234 L 222.7182,45.203096 L 222.79936,45.154443 L 222.87782,45.15158 L 222.9698,45.085754 L 222.99415,45.008481 L 222.95357,44.94838 L 222.81289,44.939794 L 222.74796,44.911174 L 222.64245,44.939794 L 222.59105,44.976999 L 222.54776,44.971275 L 222.5126,45.031378 L 222.18524,45.168752 z "
       id="path2936" />
    <path
       style="opacity:1;color:#000000;fill:#ff0000;fill-opacity:0.50196078;fill-rule:evenodd;stroke:#000000;stroke-width:0.01;stroke-linecap:butt;stroke-linejoin:miter;marker:none;marker-start:none;marker-mid:none;marker-end:none;stroke-miterlimit:4;stroke-dasharray:none;stroke-dashoffset:0;stroke-opacity:1;visibility:visible;display:inline;overflow:visible"
       d="M 221.82543,44.178508 L 221.65499,44.335918 L 221.63876,44.364538 L 221.64147,44.398881 L 221.66311,44.430363 L 221.72534,44.433225 L 221.79026,44.370262 L 221.82543,44.370262 L 221.84978,44.321608 L 221.87412,44.307298 L 221.87412,44.230025 L 221.85249,44.221439 L 221.84978,44.189957 L 221.82543,44.178508 z "
       id="path2938" />
    <path
       style="opacity:1;color:#000000;fill:#ff0000;fill-opacity:0.50196078;fill-rule:evenodd;stroke:#000000;stroke-width:0.01;stroke-linecap:butt;stroke-linejoin:miter;marker:none;marker-start:none;marker-mid:none;marker-end:none;stroke-miterlimit:4;stroke-dasharray:none;stroke-dashoffset:0;stroke-opacity:1;visibility:visible;display:inline;overflow:visible"
       d="M 222.18794,43.972448 L 222.23664,43.983894 L 222.31781,43.946689 L 222.38814,43.949551 L 222.46119,43.918069 L 222.55317,43.900897 L 222.66139,43.875139 L 222.67221,43.852244 L 222.56399,43.863692 L 222.38814,43.909484 L 222.30158,43.915207 L 222.19066,43.943827 L 222.18794,43.972448 z "
       id="path2942" />
    <path
       style="fill:#ff0000;fill-opacity:0.5;fill-rule:evenodd;stroke:#000000;stroke-width:0.01;stroke-linecap:butt;stroke-linejoin:miter;marker-start:none;marker-end:none;stroke-miterlimit:4;stroke-dasharray:none;stroke-opacity:1"
       d="M 221.84375,44.128906 L 221.84766,44.148437 L 221.89453,44.15625 L 221.90625,44.140625 L 221.92578,44.125 L 221.98828,44.082031 L 222.02734,44.074219 L 222.07813,44.042969 L 222.12109,44.042969 L 222.09766,44.027344 L 222.0625,44.023437 L 221.96094,44.074219 L 221.84375,44.128906 z "
       id="path6194" />
    <path
       style="fill:#ff0000;fill-opacity:0.5;fill-rule:evenodd;stroke:#000000;stroke-width:0.01;stroke-linecap:butt;stroke-linejoin:miter;marker-start:none;marker-end:none;stroke-miterlimit:4;stroke-dasharray:none;stroke-opacity:1"
       d="M 222.76172,43.828125 L 222.73438,43.855469 L 222.76172,43.878906 L 222.8125,43.882812 L 222.85938,43.859375 L 222.98828,43.867187 L 223.12891,43.84375 L 223.09375,43.820312 L 223.00781,43.820312 L 222.87891,43.84375 L 222.76172,43.828125 z "
       id="path7167" />
    <path
       style="fill:#ff0000;fill-opacity:0.50196078;fill-rule:evenodd;stroke:#000000;stroke-width:0.01022176;stroke-linecap:butt;stroke-linejoin:miter;marker-start:none;marker-end:none;stroke-miterlimit:4;stroke-dasharray:none;stroke-opacity:1"
       d="M 223.58998,43.777447 L 223.5081,43.769656 L 223.37712,43.793026 L 223.33619,43.793026 L 223.328,43.824185 L 223.33619,43.855344 L 223.36893,43.824185 L 223.44261,43.824185 L 223.46717,43.808616 L 223.58998,43.777447 z "
       id="path9111"
       sodipodi:nodetypes="cccccccccc" />
    <path
       style="fill:#ff0000;fill-opacity:0.50196078;fill-rule:evenodd;stroke:#000000;stroke-width:0.01;stroke-linecap:butt;stroke-linejoin:miter;marker-start:none;marker-end:none;stroke-miterlimit:4;stroke-dasharray:none;stroke-opacity:1;display:inline"
       d="M 224.51133,43.515464 L 224.51914,43.538901 L 224.56992,43.534995 L 224.61679,43.523276 L 224.63633,43.538901 L 224.70664,43.523276 L 224.73008,43.527183 L 224.77695,43.515464 L 224.75742,43.492026 L 224.58945,43.495933 L 224.51133,43.515464 z "
       id="path12029" />
    <path
       style="opacity:0.65053759;fill:#ff0000;fill-opacity:0.50196078;stroke:#000000;stroke-width:0.01;marker-start:none;marker-end:none;stroke-miterlimit:4;stroke-dasharray:none;stroke-opacity:1;display:inline"
       d="M 225.15976,43.437339 L 225.13242,43.45687 L 225.14804,43.472495 L 225.17929,43.45687 L 225.25351,43.45687 L 225.28867,43.452964 L 225.31211,43.437339 L 225.15976,43.437339 z "
       id="path13000" />
    <path
       style="opacity:0.99494952;fill:#ff0000;fill-opacity:0.50196078;stroke:#000000;stroke-width:0.01;marker-start:none;marker-end:none;stroke-miterlimit:4;stroke-dasharray:none;stroke-opacity:1;display:inline"
       d="M 224.06601,43.636558 L 224.02695,43.656089 L 224.00351,43.656089 L 223.95664,43.659995 L 223.95664,43.687339 L 223.99179,43.70687 L 224.02695,43.702964 L 224.06211,43.714683 L 224.03867,43.687339 L 224.03476,43.67562 L 224.0582,43.663901 L 224.10898,43.659995 L 224.06601,43.636558 z "
       id="path17125" />
    <path
       style="opacity:0.65053759;fill:#ff0000;fill-opacity:0.50196078;stroke:#000000;stroke-width:0.01;marker-start:none;marker-end:none;stroke-miterlimit:4;stroke-dasharray:none;stroke-opacity:1;display:inline"
       d="M 224.9371,43.460777 L 224.90976,43.472495 L 224.91367,43.499839 L 224.9332,43.515464 L 224.94101,43.499839 L 224.95664,43.495933 L 224.97226,43.476401 L 224.98398,43.492026 L 225.03867,43.476401 L 225.07383,43.492026 L 225.10508,43.484214 L 225.06601,43.45687 L 224.9371,43.460777 z "
       id="path13020"
       sodipodi:nodetypes="ccccccccccccc" />
    <path
       style="opacity:0.99494952;fill:#ff0000;fill-opacity:0.50196078;stroke:#000000;stroke-width:0.01;stroke-miterlimit:4;stroke-dasharray:none;stroke-opacity:1"
       d="M 282.45703,133.14062 L 282.45703,133.07812 L 282.51953,133.07812 L 282.5625,133.05469 L 282.64844,133.01562 L 282.70312,133.04688 L 282.78906,133.04297 L 282.84375,133.07812 L 282.87891,133.07422 L 282.91016,133.10156 L 282.92188,133.15625 L 282.92188,133.19141 L 282.96094,133.22656 L 282.97656,133.26562 L 283.03125,133.34375 L 283.08984,133.35938 L 283.08984,133.40625 L 283.08203,133.43359 L 283.07422,133.46875 L 283.0625,133.51953 L 283.05859,133.60156 L 283.04297,133.625 L 282.96484,133.64844 L 282.89453,133.65625 L 282.83594,133.67578 L 282.82031,133.64844 L 282.75391,133.66406 L 282.73047,133.62891 L 282.6875,133.62109 L 282.65625,133.59766 L 282.59766,133.58203 L 282.58984,133.55469 L 282.51953,133.53516 L 282.49219,133.48438 L 282.45312,133.44141 L 282.47266,133.40234 L 282.44141,133.37109 L 282.4375,133.33984 L 282.39062,133.29297 L 282.39453,133.25391 L 282.38281,133.22656 L 282.40625,133.19141 L 282.44531,133.18359 L 282.45703,133.14062 z "
       id="path3852" />
  </g>
  <g
     inkscape:groupmode="layer"
     id="layer2"
     inkscape:label="1"
     style="display:inline">
    <image
       y="131.52425"
       x="282.07751"
       id="image2605"
       height="2.4423552"
       width="3.8423305"
       sodipodi:absref="/home/tackat/BlueMarblePhoto/mauritius.jpg"
       xlink:href="/home/tackat/BlueMarblePhoto/mauritius.jpg"
       style="opacity:0.71505372;display:inline" />
    <image
       y="71.959839"
       x="193.9147"
       id="image2268"
       height="3.8976588"
       width="6.5553107"
       sodipodi:absref="/home/tackat/BlueMarblePhoto/canarian.jpg"
       xlink:href="/home/tackat/BlueMarblePhoto/canarian.jpg"
       style="opacity:0.70967742" />
    <image
       y="41.550884"
       x="225.56873"
       id="image3222"
       height="2.295542"
       width="4.1426649"
       sodipodi:absref="/home/tackat/BlueMarblePhoto/sh.jpg"
       xlink:href="/home/tackat/BlueMarblePhoto/sh.jpg"
       style="opacity:0.67741939" />
    <path
       style="opacity:0.65053759;fill:#ff0000;fill-opacity:0.50196078;stroke:#000000;stroke-width:0.01;marker-start:none;marker-end:none;stroke-miterlimit:4;stroke-dasharray:none;stroke-opacity:1"
       d="M 226.03125,42.355469 L 226.09766,42.363281 L 226.12891,42.378906 L 226.22656,42.382812 L 226.25391,42.34375 L 226.28125,42.332031 L 226.26172,42.304687 L 226.20703,42.285156 L 226.17969,42.296875 L 226.09375,42.300781 L 226.05469,42.3125 L 226.03125,42.355469 z "
       id="path13002" />
    <path
       style="opacity:0.65053759;fill:#ff0000;fill-opacity:0.50196078;stroke:#000000;stroke-width:0.01;marker-start:none;marker-end:none;stroke-miterlimit:4;stroke-dasharray:none;stroke-opacity:1"
       d="M 227.60547,41.910156 L 227.53906,41.941406 L 227.55859,41.957031 L 227.58984,41.941406 L 227.61719,41.953125 L 227.58203,41.972656 L 227.73438,42.003906 L 227.73047,42.027344 L 227.8125,42.058594 L 227.79688,42.082031 L 227.76172,42.078125 L 227.70703,42.042969 L 227.69531,42.054687 L 227.73438,42.117187 L 227.79297,42.132812 L 227.84375,42.117187 L 227.98438,42.160156 L 228.0625,42.144531 L 228.03906,42.09375 L 227.94531,42.011719 L 227.87109,41.984375 L 227.80078,41.945312 L 227.75,41.929687 L 227.60547,41.910156 z "
       id="path13008" />
    <path
       style="opacity:0.65053759;fill:#ff0000;fill-opacity:0.50196078;stroke:#000000;stroke-width:0.01;marker-start:none;marker-end:none;stroke-miterlimit:4;stroke-dasharray:none;stroke-opacity:1"
       d="M 226.34375,42.125 L 226.1875,42.132812 L 226.11719,42.148437 L 226.04297,42.152344 L 225.97656,42.121094 L 225.98828,42.078125 L 225.96094,42.066406 L 225.97265,42.046875 L 226.01172,42.011719 L 226.04687,41.992188 L 226.07813,41.964844 L 226.03516,41.953125 L 226.10156,41.945312 L 226.04297,41.925781 L 226.00391,41.941406 L 225.92188,42.078125 L 225.89453,42.128906 L 225.87891,42.195312 L 225.88281,42.300781 L 225.91016,42.308594 L 225.90235,42.265625 L 225.90234,42.210937 L 225.90625,42.167969 L 225.93359,42.164062 L 225.96094,42.136719 L 225.99219,42.167969 L 226.05469,42.179687 L 226.13672,42.160156 L 226.26172,42.148437 L 226.28906,42.136719 L 226.33594,42.144531 L 226.34375,42.125 z "
       id="path13012"
       sodipodi:nodetypes="cccccccccccccccccccccccccccccccc" />
    <path
       style="opacity:0.65053759;fill:#ff0000;fill-opacity:0.50196078;stroke:#000000;stroke-width:0.01;marker-start:none;marker-end:none;stroke-miterlimit:4;stroke-dasharray:none;stroke-opacity:1"
       d="M 194.62891,73.832031 L 194.6875,73.765625 L 194.75,73.628906 L 194.73047,73.574219 L 194.74219,73.519531 L 194.77734,73.492187 L 194.78516,73.460937 L 194.75781,73.457031 L 194.71094,73.371094 L 194.68359,73.355469 L 194.62891,73.367187 L 194.5625,73.339844 L 194.52344,73.375 L 194.48047,73.398437 L 194.44922,73.460937 L 194.50391,73.546875 L 194.54297,73.636719 L 194.58984,73.71875 L 194.62891,73.832031 z "
       id="path14002" />
    <path
       style="opacity:0.65053759;fill:#ff0000;fill-opacity:0.50196078;stroke:#000000;stroke-width:0.01;marker-start:none;marker-end:none;stroke-miterlimit:4;stroke-dasharray:none;stroke-opacity:1"
       d="M 198.68359,74.269531 L 198.625,74.253906 L 198.59766,74.289062 L 198.64063,74.316406 L 198.69141,74.296875 L 198.73047,74.324219 L 198.77344,74.328125 L 198.82812,74.332031 L 198.92188,74.246094 L 198.95703,74.179687 L 199.00391,74.191406 L 199.10938,74.136719 L 199.19531,74.121094 L 199.19141,74.128906 L 199.24609,74.097656 L 199.26953,74.113281 L 199.3125,74.066406 L 199.32422,74.011719 L 199.39844,73.890624 L 199.375,73.847656 L 199.36719,73.789062 L 199.40234,73.773437 L 199.42969,73.722656 L 199.42578,73.632812 L 199.40625,73.503906 L 199.34766,73.453125 L 199.19922,73.503906 L 199.19922,73.558594 L 199.17188,73.609375 L 199.16797,73.664062 L 199.10547,73.738281 L 199.07422,73.828125 L 199.02734,73.851562 L 199.01953,73.953125 L 198.96094,74.023437 L 198.95313,74.089844 L 198.91406,74.152344 L 198.8125,74.226562 L 198.68359,74.269531 z "
       id="path14004"
       sodipodi:nodetypes="ccccccccccccccccccccccccccccccccccccccc" />
    <path
       style="opacity:0.65053759;fill:#ff0000;fill-opacity:0.50196078;stroke:#000000;stroke-width:0.01;marker-start:none;marker-end:none;stroke-miterlimit:4;stroke-dasharray:none;stroke-opacity:1"
       d="M 199.34375,73.300781 L 199.37891,73.339844 L 199.40625,73.351562 L 199.43359,73.328125 L 199.48438,73.355469 L 199.53516,73.277344 L 199.58594,73.257812 L 199.61328,73.277344 L 199.67969,73.246094 L 199.72266,73.203125 L 199.75,73.21875 L 199.84375,73.144531 L 199.84375,73.085937 L 199.85938,73.027344 L 199.85547,72.992187 L 199.875,72.960938 L 199.89844,72.902344 L 199.89063,72.875 L 199.82813,72.867187 L 199.79688,72.894531 L 199.77734,72.988281 L 199.73828,73.011719 L 199.69922,72.988281 L 199.65625,73.003906 L 199.62891,72.992187 L 199.5625,73.0625 L 199.51172,73.054687 L 199.45703,73.097656 L 199.40625,73.148437 L 199.40625,73.238281 L 199.34375,73.300781 z "
       id="path14006"
       sodipodi:nodetypes="ccccccccccccccccccccccccccccccc" />
    <path
       style="opacity:0.65053759;fill:#ff0000;fill-opacity:0.50196078;stroke:#000000;stroke-width:0.01;marker-start:none;marker-end:none;stroke-miterlimit:4;stroke-dasharray:none;stroke-opacity:1"
       d="M 194.28125,74.667969 L 194.25,74.683594 L 194.24219,74.707031 L 194.24609,74.746094 L 194.33203,74.765625 L 194.38281,74.769531 L 194.46094,74.824219 L 194.47656,74.824219 L 194.48047,74.773437 L 194.52344,74.734375 L 194.54297,74.667969 L 194.57813,74.652344 L 194.58984,74.621094 L 194.56641,74.570312 L 194.53125,74.5625 L 194.50391,74.589844 L 194.45313,74.601562 L 194.44531,74.625 L 194.39453,74.671875 L 194.33984,74.679687 L 194.28125,74.667969 z "
       id="path14008" />
    <path
       style="opacity:0.65053759;fill:#ff0000;fill-opacity:0.50196078;stroke:#000000;stroke-width:0.01;marker-start:none;marker-end:none;stroke-miterlimit:4;stroke-dasharray:none;stroke-opacity:1"
       d="M 284.74609,132.48438 L 284.74609,132.51953 L 284.83984,132.58594 L 284.86719,132.57031 L 284.96094,132.60156 L 285.00781,132.58984 L 285.09375,132.57031 L 285.10547,132.54688 L 285.16797,132.54688 L 285.21094,132.47266 L 285.19922,132.44531 L 285.25391,132.375 L 285.28906,132.37109 L 285.27344,132.33203 L 285.28906,132.28516 L 285.30469,132.22656 L 285.27344,132.16016 L 285.24219,132.13672 L 285.24219,132.09375 L 285.23438,132.0625 L 285.21484,132.06641 L 285.16797,131.98828 L 285.16797,131.94531 L 285.11719,131.9375 L 285.07031,131.91016 L 285.05078,131.94141 L 285.02734,131.9375 L 285.01172,131.96094 L 284.98828,131.96484 L 284.96875,132.0625 L 284.96094,132.09766 L 284.94531,132.13672 L 284.91797,132.13281 L 284.86328,132.17578 L 284.80469,132.29297 L 284.82031,132.32422 L 284.80859,132.34375 L 284.79688,132.40625 L 284.82422,132.42578 L 284.8125,132.45312 L 284.78125,132.49219 L 284.74609,132.48438 z "
       id="path14012" />
    <image
       y="67.841698"
       x="194.95609"
       id="image14071"
       height="1.5142789"
       width="2.1566362"
       sodipodi:absref="/home/tackat/BlueMarblePhoto/funchal.jpg"
       xlink:href="/home/tackat/BlueMarblePhoto/funchal.jpg"
       style="opacity:0.7020202" />
    <image
       y="88.079727"
       x="185.77489"
       id="image15100"
       height="2.7017469"
       width="4.2108727"
       sodipodi:absref="/home/tackat/BlueMarblePhoto/capverde.jpg"
       xlink:href="/home/tackat/BlueMarblePhoto/capverde.jpg"
       style="opacity:0.94444442" />
    <path
       style="opacity:0.94444442;fill:#ff0000;fill-opacity:0.50196078;stroke:#000000;stroke-width:0.01;marker-start:none;marker-end:none;stroke-miterlimit:4;stroke-dasharray:none;stroke-opacity:1"
       d="M 188.66406,88.488281 L 188.64844,88.527344 L 188.58984,88.535156 L 188.53125,88.496094 L 188.50781,88.507812 L 188.51953,88.539062 L 188.50391,88.566406 L 188.52734,88.597656 L 188.51953,88.652344 L 188.48828,88.65625 L 188.47266,88.707031 L 188.48047,88.753906 L 188.51562,88.78125 L 188.55469,88.785156 L 188.57812,88.804688 L 188.65625,88.808594 L 188.70312,88.785156 L 188.73828,88.738281 L 188.78516,88.722656 L 188.80078,88.691406 L 188.80078,88.636719 L 188.82031,88.609375 L 188.77344,88.554688 L 188.72656,88.523438 L 188.66406,88.488281 z "
       id="path17041" />
    <path
       style="opacity:0.94444442;fill:#ff0000;fill-opacity:0.50196078;stroke:#000000;stroke-width:0.01;marker-start:none;marker-end:none;stroke-miterlimit:4;stroke-dasharray:none;stroke-opacity:1"
       d="M 187.68359,89.742188 L 187.65234,89.75 L 187.62891,89.707031 L 187.64844,89.691406 L 187.62109,89.667969 L 187.58984,89.652344 L 187.5625,89.652344 L 187.56641,89.679688 L 187.54688,89.695312 L 187.55078,89.738281 L 187.57422,89.742188 L 187.57031,89.769531 L 187.55078,89.792969 L 187.54688,89.835938 L 187.53125,89.839844 L 187.53125,89.871094 L 187.55078,89.898438 L 187.53125,89.929688 L 187.52734,89.976562 L 187.55078,89.984375 L 187.54688,90.023438 L 187.59375,90.042969 L 187.58984,90.070312 L 187.65234,90.140625 L 187.71094,90.179688 L 187.78906,90.167969 L 187.875,90.175781 L 187.89062,90.101562 L 187.91406,90.089844 L 187.89453,90.015625 L 187.87109,89.980469 L 187.79688,89.878906 L 187.77344,89.871094 L 187.74219,89.820312 L 187.68359,89.742188 z "
       id="path17045" />
    <path
       style="opacity:0.94444442;fill:#ff0000;fill-opacity:0.50196078;stroke:#000000;stroke-width:0.01;marker-start:none;marker-end:none;stroke-miterlimit:4;stroke-dasharray:none;stroke-opacity:1"
       d="M 186.71875,90.066406 L 186.69531,90.152344 L 186.72266,90.238281 L 186.79297,90.292969 L 186.875,90.308594 L 186.95312,90.21875 L 186.95312,90.136719 L 186.9375,90.113281 L 186.95703,90.082031 L 186.9375,90.050781 L 186.88672,90.011719 L 186.85156,90 L 186.79297,90.039062 L 186.71875,90.066406 z "
       id="path17047" />
    <path
       style="opacity:0.94444442;fill:#ff0000;fill-opacity:0.50196078;stroke:#000000;stroke-width:0.01;marker-start:none;marker-end:none;stroke-miterlimit:4;stroke-dasharray:none;stroke-opacity:1"
       d="M 188.18359,89.699219 L 188.15625,89.695312 L 188.13672,89.738281 L 188.16406,89.738281 L 188.16016,89.757812 L 188.14844,89.777344 L 188.16797,89.796875 L 188.13672,89.832031 L 188.16406,89.890625 L 188.24219,89.898438 L 188.28906,89.871094 L 188.30859,89.820312 L 188.29297,89.722656 L 188.26953,89.652344 L 188.25,89.671875 L 188.22656,89.644531 L 188.20312,89.652344 L 188.18359,89.699219 z "
       id="path17049" />
    <image
       y="86.308968"
       x="184.31909"
       id="image17106"
       height="2.719034"
       width="3.8724489"
       sodipodi:absref="/home/tackat/BlueMarblePhoto/capverde2.jpg"
       xlink:href="/home/tackat/BlueMarblePhoto/capverde2.jpg"
       style="opacity:0.99494952" />
    <path
       style="opacity:0.99494952;fill:#ff0000;fill-opacity:0.50196078;stroke:#000000;stroke-width:0.01;marker-start:none;marker-end:none;stroke-miterlimit:4;stroke-dasharray:none;stroke-opacity:1"
       d="M 185.69531,87.441406 L 185.63672,87.5 L 185.63281,87.535156 L 185.6875,87.585937 L 185.6875,87.679687 L 185.70703,87.699219 L 185.73438,87.683594 L 185.83984,87.671875 L 185.85938,87.640625 L 185.92969,87.574219 L 186.01563,87.519531 L 186.04297,87.484375 L 186.03125,87.4375 L 186.00391,87.421875 L 185.97656,87.371094 L 185.91016,87.34375 L 185.85547,87.371094 L 185.77734,87.390625 L 185.72266,87.441406 L 185.69531,87.441406 z "
       id="path17109" />
    <path
       style="opacity:0.99494952;fill:#ff0000;fill-opacity:0.50196078;stroke:#000000;stroke-width:0.01;marker-start:none;marker-end:none;stroke-miterlimit:4;stroke-dasharray:none;stroke-opacity:1"
       d="M 225.98047,42.464844 L 226.01172,42.4375 L 225.96094,42.375 L 225.96484,42.355469 L 225.91797,42.367188 L 225.91406,42.410157 L 225.98047,42.464844 z "
       id="path17113"
       sodipodi:nodetypes="ccccccc" />
    <path
       style="opacity:0.99494952;fill:#ff0000;fill-opacity:0.50196078;stroke:#000000;stroke-width:0.01;stroke-miterlimit:4;stroke-dasharray:none;stroke-opacity:1"
       d="M 225.6875,43.511719 L 225.6875,43.511719 z "
       id="path17119" />
    <path
       style="opacity:0.99494952;fill:#ff0000;fill-opacity:0.50196078;stroke:#000000;stroke-width:0.01;marker-start:none;marker-end:none;stroke-miterlimit:4;stroke-dasharray:none;stroke-opacity:1"
       d="M 225.69141,43.496094 L 225.68359,43.519531 L 225.72266,43.519531 L 225.75391,43.503906 L 225.73828,43.480469 L 225.69141,43.496094 z "
       id="path17121" />
    <path
       style="opacity:0.99494952;fill:#ff0000;fill-opacity:0.50196078;stroke:#000000;stroke-width:0.01;marker-start:none;marker-end:none;stroke-miterlimit:4;stroke-dasharray:none;stroke-opacity:1"
       d="M 195.23438,74.214844 L 195.23828,74.285156 L 195.28906,74.339844 L 195.34375,74.375 L 195.37891,74.351562 L 195.41797,74.359375 L 195.49219,74.308594 L 195.51562,74.285156 L 195.51953,74.234375 L 195.5,74.199219 L 195.46094,74.203125 L 195.42578,74.179688 L 195.40625,74.148438 L 195.37109,74.148438 L 195.33203,74.125 L 195.26953,74.15625 L 195.23438,74.214844 z "
       id="path17129" />
    <path
       style="opacity:0.99494952;fill:#ff0000;fill-opacity:0.50196078;stroke:#000000;stroke-width:0.01;marker-start:none;marker-end:none;stroke-miterlimit:4;stroke-dasharray:none;stroke-opacity:1"
       d="M 199.75781,72.871094 L 199.77344,72.890625 L 199.79297,72.875 L 199.83984,72.828125 L 199.81641,72.816406 L 199.78906,72.816406 L 199.77734,72.851562 L 199.75781,72.871094 z "
       id="path17135" />
    <path
       style="opacity:0.99494952;fill:#ff0000;fill-opacity:0.50196078;stroke:#000000;stroke-width:0.01;marker-start:none;marker-end:none;stroke-miterlimit:4;stroke-dasharray:none;stroke-opacity:1"
       d="M 195.32031,68.625 L 195.38672,68.558594 L 195.43359,68.550781 L 195.48828,68.605469 L 195.57422,68.632812 L 195.64844,68.605469 L 195.67578,68.601562 L 195.72656,68.597656 L 195.78906,68.632812 L 195.84375,68.675781 L 195.91797,68.695312 L 196.01172,68.707031 L 195.91797,68.742187 L 195.89453,68.800781 L 195.85156,68.84375 L 195.80859,68.882812 L 195.75391,68.882812 L 195.63281,68.882812 L 195.59766,68.839844 L 195.48438,68.820312 L 195.44141,68.785156 L 195.38672,68.742187 L 195.32031,68.625 z "
       id="path17137" />
    <path
       style="opacity:0.99494952;fill:#ff0000;fill-opacity:0.50196078;stroke:#000000;stroke-width:0.01;marker-start:none;marker-end:none;stroke-miterlimit:4;stroke-dasharray:none;stroke-opacity:1"
       d="M 185.94531,87.734375 L 185.92969,87.816406 L 185.99609,87.847656 L 186.03516,87.878906 L 186.0625,87.84375 L 186.125,87.828125 L 186.14844,87.75 L 186.10156,87.738281 L 186.08984,87.679687 L 186.06641,87.699219 L 186.04297,87.691406 L 186,87.710937 L 186.00391,87.738281 L 185.94531,87.734375 z "
       id="path17139"
       sodipodi:nodetypes="cccccccccccccc" />
  </g>
</svg>
