<?xml version="1.0" encoding="UTF-8" standalone="no"?>
<!-- Created with Inkscape (http://www.inkscape.org/) -->
<svg
   xmlns:dc="http://purl.org/dc/elements/1.1/"
   xmlns:cc="http://web.resource.org/cc/"
   xmlns:rdf="http://www.w3.org/1999/02/22-rdf-syntax-ns#"
   xmlns:svg="http://www.w3.org/2000/svg"
   xmlns="http://www.w3.org/2000/svg"
   xmlns:xlink="http://www.w3.org/1999/xlink"
   xmlns:sodipodi="http://sodipodi.sourceforge.net/DTD/sodipodi-0.dtd"
   xmlns:inkscape="http://www.inkscape.org/namespaces/inkscape"
   width="216.00000px"
   height="108.00000px"
   id="svg2"
   sodipodi:version="0.32"
   inkscape:version="0.45.1"
   sodipodi:docbase="/home/tackat/marble/data/vectorsource"
   sodipodi:docname="lakes.svg"
   inkscape:output_extension="org.inkscape.output.svg.inkscape">
  <defs
     id="defs4">
    <marker
       inkscape:stockid="Arrow2Lend"
       orient="auto"
       refY="0.0"
       refX="0.0"
       id="Arrow2Lend"
       style="overflow:visible;">
      <path
         sodipodi:nodetypes="cccc"
         id="path2582"
         style="font-size:12.0;fill-rule:evenodd;stroke-width:0.62500000;stroke-linejoin:round;"
         d="M 8.7185878,4.0337352 L -2.2072895,0.016013256 L 8.7185884,-4.0017078 C 6.9730900,-1.6296469 6.9831476,1.6157441 8.7185878,4.0337352 z "
         transform="scale(1.1) rotate(180) translate(-5,0)" />
    </marker>
  </defs>
  <sodipodi:namedview
     id="base"
     pagecolor="#ffffff"
     bordercolor="#666666"
     borderopacity="1.0"
     inkscape:pageopacity="0.0"
     inkscape:pageshadow="2"
     inkscape:zoom="256"
     inkscape:cx="232.54447"
     inkscape:cy="70.037725"
     inkscape:document-units="px"
     inkscape:current-layer="layer1"
     inkscape:window-width="1024"
     inkscape:window-height="695"
     inkscape:window-x="0"
     inkscape:window-y="0"
     showguides="true"
     inkscape:guide-bbox="true">
    <sodipodi:guide
       orientation="horizontal"
       position="71.285782"
       id="guide2149" />
    <sodipodi:guide
       orientation="vertical"
       position="230.84888"
       id="guide2151" />
    <sodipodi:guide
       orientation="vertical"
       position="230.40219"
       id="guide2153" />
    <sodipodi:guide
       orientation="horizontal"
       position="70.058616"
       id="guide2155" />
    <sodipodi:guide
       orientation="horizontal"
       position="56.929688"
       id="guide2230" />
    <sodipodi:guide
       orientation="vertical"
       position="226.54688"
       id="guide2232" />
    <sodipodi:guide
       orientation="vertical"
       position="226.65234"
       id="guide2179" />
    <sodipodi:guide
       orientation="horizontal"
       position="56.976562"
       id="guide2181" />
    <sodipodi:guide
       orientation="vertical"
       position="234.05727"
       id="guide2182" />
    <sodipodi:guide
       orientation="horizontal"
       position="69.762033"
       id="guide2184" />
  </sodipodi:namedview>
  <metadata
     id="metadata7">
    <rdf:RDF>
      <cc:Work
         rdf:about="">
        <dc:format>image/svg+xml</dc:format>
        <dc:type
           rdf:resource="http://purl.org/dc/dcmitype/StillImage" />
      </cc:Work>
    </rdf:RDF>
  </metadata>
  <g
     inkscape:label="Ebene 1"
     inkscape:groupmode="layer"
     id="layer1"
     style="display:inline">
    <image
       id="image1367"
       height="108.00000"
       width="216.00000"
       sodipodi:absref="/home/tackat/globepedia-data/world.topo.bathy.200407.3x10800x5400.B.jpg"
       xlink:href="/home/tackat/globepedia-data/world.topo.bathy.200407.3x10800x5400.B.jpg"
       x="216.00000"
       y="0.0000000"
       sodipodi:insensitive="true" />
    <image
       y="33.626244"
       x="229.38185"
       id="image2259"
       height="6.9521465"
       width="6.9521465"
       sodipodi:absref="/home/tackat/.marble/data/maps/earth/bluemarble/5/000005/000005_000034.jpg"
       xlink:href="/home/tackat/.marble/data/maps/earth/bluemarble/5/000005/000005_000034.jpg" />
<!--    
    <image
	  id="image1367"
	  height="108.00000"
	  width="216.00000"
	  sodipodi:absref="/home/tackat/globepedia-data/world.topo.bathy.200407.3x10800x5400.B.jpg"
	  xlink:href="/home/tackat/globepedia-data/world.topo.bathy.200407.3x10800x5400.B.jpg"
	  x="216.0000000000"
	  y="0.0000000000"
	  sodipodi:insensitive="true" /> -->    <path
       style="opacity:1;color:#000000;fill:#ff0000;fill-opacity:0.50196078;fill-rule:evenodd;stroke:#000000;stroke-width:0.01005681;stroke-linecap:butt;stroke-linejoin:miter;marker:none;marker-start:none;marker-mid:none;marker-end:none;stroke-miterlimit:4;stroke-dasharray:none;stroke-dashoffset:0;stroke-opacity:1;visibility:visible;display:inline;overflow:visible"
       d="M 231.80659,37.765726 L 231.90968,37.7581 L 231.995,37.62343 L 232.08326,37.600731 L 232.11039,37.561704 L 232.14295,37.56747 L 232.1538,37.584769 L 232.26777,37.532873 L 232.34759,37.568739 L 232.40405,37.565311 L 232.49929,37.53215 L 232.43013,37.527124 L 232.36743,37.506372 L 232.47683,37.467869 L 232.4197,37.409061 L 232.34233,37.366175 L 232.42536,37.341577 L 232.52483,37.371908 L 232.57167,37.388715 L 232.59338,37.394482 L 232.60966,37.411781 L 232.64223,37.371417 L 232.62595,37.354118 L 232.66936,37.296456 L 232.72109,37.250748 L 232.75841,37.200188 L 232.7058,37.160737 L 232.76162,37.158065 L 232.78875,37.123468 L 232.79961,37.100402 L 232.77247,37.111935 L 232.7779,37.083104 L 232.72363,37.100402 L 232.67324,37.076492 L 232.69684,37.102652 L 232.69827,37.054764 L 232.74058,37.000686 L 232.87848,36.926638 L 232.83328,36.88986 L 232.72905,36.938947 L 232.75619,36.90435 L 232.72363,36.840921 L 232.72363,36.823622 L 232.71278,36.817856 L 232.66936,36.823622 L 232.65308,36.789024 L 232.62052,36.76596 L 232.61509,36.806324 L 232.61509,36.829388 L 232.58795,36.829388 L 232.57711,36.806324 L 232.5554,36.800557 L 232.53369,36.823622 L 232.52283,36.806324 L 232.53911,36.783258 L 232.49027,36.789024 L 232.45771,36.760193 L 232.44143,36.76596 L 232.45771,36.800557 L 232.41972,36.754427 L 232.41429,36.731362 L 232.28114,36.720742 L 232.27607,36.798668 L 232.22299,36.827189 L 232.21417,36.853273 L 232.16878,36.867168 L 232.13894,36.809617 L 232.0901,36.808958 L 232.0792,36.765301 L 232.03043,36.73094 L 231.98358,36.76153 L 231.90417,36.754427 L 231.8809,36.774397 L 231.89619,36.787266 L 231.92875,36.811667 L 231.81733,36.829388 L 231.77392,36.800557 L 231.76162,36.749997 L 231.71622,36.77707 L 231.73593,36.852453 L 231.7305,36.875519 L 231.69794,36.863986 L 231.6708,36.852453 L 231.69251,36.887051 L 231.71964,36.938947 L 231.8539,37.121107 L 231.87561,37.2249 L 231.86133,37.326443 L 231.84848,37.429677 L 231.79233,37.381788 L 231.76749,37.317271 L 231.71964,37.279157 L 231.68166,37.233027 L 231.6491,37.221494 L 231.66538,37.175364 L 231.63825,37.158065 L 231.58941,37.123468 L 231.55684,37.123468 L 231.48297,37.140766 L 231.46669,37.117701 L 231.4287,37.129234 L 231.40157,37.117701 L 231.41242,37.094637 L 231.40157,37.077338 L 231.37444,37.094637 L 231.34729,37.065805 L 231.32559,37.077338 L 231.33102,37.117701 L 231.31474,37.140766 L 231.29303,37.123468 L 231.30388,37.094637 L 231.28218,37.094637 L 231.24961,37.123468 L 231.21705,37.106169 L 231.20077,37.111935 L 231.22248,37.158065 L 231.1682,37.186897 L 231.17906,37.209961 L 231.13022,37.273391 L 231.1465,37.284923 L 231.12479,37.31952 L 231.13565,37.342586 L 231.10851,37.359884 L 231.08681,37.354118 L 231.08681,37.394482 L 231.05967,37.394482 L 231.01082,37.38295 L 231.0054,37.354118 L 231.02711,37.296456 L 230.98369,37.261858 L 230.92943,37.221494 L 230.91314,37.24456 L 230.9457,37.273391 L 230.97827,37.325287 L 230.98369,37.400248 L 230.95656,37.406015 L 230.94028,37.377183 L 230.91314,37.377183 L 230.91314,37.411781 L 230.94028,37.457911 L 230.98912,37.429079 L 231.01626,37.429079 L 230.95711,37.484493 L 230.96254,37.556359 L 231.02468,37.59806 L 231.11394,37.584769 L 231.13565,37.590535 L 231.01626,37.694328 L 230.95113,37.769289 L 230.88059,37.786587 L 230.87709,37.8117 L 230.79984,37.856155 L 230.7345,37.890939 L 230.78659,37.927396 L 230.92943,37.917911 L 231.00931,37.869176 L 231.0651,37.826951 L 231.08681,37.792354 L 231.14107,37.780822 L 231.10851,37.821186 L 231.18449,37.821186 L 231.2659,37.809653 L 231.2876,37.780822 L 231.37986,37.775055 L 231.43413,37.75199 L 231.46669,37.682795 L 231.58397,37.630899 L 231.62196,37.642431 L 231.66538,37.596301 L 231.6491,37.56747 L 231.7305,37.532873 L 231.8322,37.536937 L 231.85933,37.5773 L 231.82134,37.640729 L 231.78336,37.698392 L 231.76707,37.704158 L 231.76707,37.742662 L 231.80659,37.765726 z "
       id="path2158"
       sodipodi:nodetypes="cccccccccccccccccccccccccccccccccccccccccccccccccccccccccccccccccccccccccccccccccccccccccccccccccccccccccccccccccccccccccccccccccccccccccccccccccccccccccccccccccccccccccccccccccc" />
    <path
       style="opacity:1;color:#000000;fill:#ff0000;fill-opacity:0.50196078;fill-rule:evenodd;stroke:#000000;stroke-width:0.01119777;stroke-linecap:butt;stroke-linejoin:miter;marker:none;marker-start:none;marker-mid:none;marker-end:none;stroke-miterlimit:4;stroke-dasharray:none;stroke-dashoffset:0;stroke-opacity:1;visibility:visible;display:inline;overflow:visible"
       d="M 232.95041,38.425145 L 232.94208,38.544558 L 232.98517,38.58835 L 232.99841,38.62813 L 233.04425,38.655404 L 233.10203,38.648322 L 233.1313,38.647238 L 233.13765,38.567889 L 233.20122,38.464124 L 233.28384,38.40919 L 233.3347,38.390878 L 233.42099,38.310938 L 233.46182,38.232179 L 233.49995,38.171142 L 233.55716,38.134518 L 233.55716,38.104 L 233.54445,38.079584 L 233.5953,38.030754 L 233.57623,37.988027 L 233.64615,37.914781 L 233.78483,37.834841 L 233.84203,37.847049 L 233.90038,37.835433 L 233.99573,37.774394 L 234.05929,37.74998 L 233.99573,37.74998 L 234.02751,37.701149 L 233.92581,37.701149 L 233.86226,37.682837 L 233.95123,37.627903 L 233.95123,37.554657 L 233.99573,37.481412 L 234.00208,37.438685 L 233.97665,37.438685 L 233.94488,37.450892 L 233.9576,37.395958 L 233.93853,37.383751 L 233.90675,37.408166 L 233.88132,37.395958 L 233.81141,37.432582 L 233.78597,37.487516 L 233.60165,37.579073 L 233.46182,37.627903 L 233.44275,37.664526 L 233.45546,37.688941 L 233.43005,37.713356 L 233.4364,37.762187 L 233.39825,37.804913 L 233.36013,37.792706 L 233.32198,37.811017 L 233.35376,37.84764 L 233.29656,37.872055 L 233.20757,37.994132 L 233.1313,38.049065 L 233.09952,38.110104 L 233.11223,38.12231 L 233.06138,38.146726 L 233.06138,38.244387 L 232.99782,38.378671 L 232.95041,38.425145 z "
       id="path2160"
       sodipodi:nodetypes="cccccccccccccccccccccccccccccccccccccccccccccccccccccccccccc" />
    <path
       style="opacity:1.0000000;color:#000000;fill:#ff0000;fill-opacity:0.50196081;fill-rule:evenodd;stroke:#000000;stroke-width:0.010000003;stroke-linecap:butt;stroke-linejoin:miter;marker:none;marker-start:none;marker-mid:none;marker-end:none;stroke-miterlimit:4.0000000;stroke-dasharray:none;stroke-dashoffset:0.0000000;stroke-opacity:1.0000000;visibility:visible;display:inline;overflow:visible"
       d="M 222.06351,44.521946 L 222.11219,44.584909 L 222.13654,44.627839 L 222.12573,44.662183 L 222.13654,44.705112 L 222.15278,44.728008 L 222.20689,44.736594 L 222.22583,44.722284 L 222.27723,44.722284 L 222.32592,44.739456 L 222.33133,44.788109 L 222.29616,44.808143 L 222.25829,44.848211 L 222.19878,44.873968 L 222.15549,44.888278 L 222.10409,44.865382 L 222.03374,44.865382 L 222.01751,44.894002 L 222.03916,44.962689 L 222.06621,44.991309 L 222.09597,45.034239 L 222.05809,45.085754 L 222.05539,45.114374 L 222.09056,45.122961 L 222.03374,45.165889 L 222.02292,45.191647 L 221.97422,45.197372 L 221.97693,45.220267 L 222.04727,45.240301 L 222.10679,45.243163 L 222.16089,45.263197 L 222.18794,45.286092 L 222.26911,45.274645 L 222.33133,45.291817 L 222.36921,45.326161 L 222.42872,45.334746 L 222.49366,45.363365 L 222.61540,45.337609 L 222.67761,45.251749 L 222.79666,45.191647 L 222.90487,45.165889 L 222.99685,45.091478 L 223.01579,45.031378 L 223.01579,44.985585 L 222.99144,44.948380 L 222.98873,44.914036 L 222.91298,44.902588 L 222.79936,44.905450 L 222.74255,44.885416 L 222.69656,44.836763 L 222.68033,44.765213 L 222.69656,44.713698 L 222.78583,44.627839 L 222.76148,44.602081 L 222.72091,44.602081 L 222.70738,44.613529 L 222.64516,44.627839 L 222.57211,44.613529 L 222.55317,44.599219 L 222.45849,44.602081 L 222.41520,44.567738 L 222.42331,44.541980 L 222.46661,44.524808 L 222.48013,44.461845 L 222.46931,44.373123 L 222.43414,44.358814 L 222.42602,44.330194 L 222.33944,44.361676 L 222.22583,44.424639 L 222.06351,44.521946 z "
       id="path2934" />
    <path
       style="opacity:1;color:#000000;fill:#ff0000;fill-opacity:0.50196078;fill-rule:evenodd;stroke:#000000;stroke-width:0.00999999;stroke-linecap:butt;stroke-linejoin:miter;marker:none;marker-start:none;marker-mid:none;marker-end:none;stroke-miterlimit:4;stroke-dasharray:none;stroke-dashoffset:0;stroke-opacity:1;visibility:visible;display:inline;overflow:visible"
       d="M 227.07006,50.815855 L 227.21678,50.869584 L 227.28498,50.902648 L 227.30358,50.939845 L 227.35524,50.96051 L 227.36144,50.97291 L 227.38624,50.981176 L 227.40277,50.999774 L 227.46683,51.003907 L 227.48336,50.981176 L 227.50609,50.981176 L 227.53916,50.999774 L 227.55362,50.995641 L 227.58255,50.977043 L 227.59702,50.995641 L 227.63628,50.989442 L 227.65901,50.968777 L 227.69415,50.970843 L 227.70861,50.96051 L 227.65488,50.92538 L 227.64042,50.935712 L 227.62389,50.91918 L 227.52056,50.890249 L 227.49163,50.892316 L 227.4441,50.855119 L 227.44203,50.834453 L 227.41103,50.815855 L 227.37797,50.815855 L 227.31391,50.793123 L 227.24571,50.799323 L 227.12172,50.743527 L 227.09899,50.702197 L 227.01633,50.673266 L 226.99567,50.650534 L 226.90267,50.621603 L 226.89027,50.627803 L 226.90474,50.638135 L 226.94607,50.671199 L 227.04113,50.704263 L 227.05973,50.749727 L 227.08246,50.768325 L 227.09279,50.78899 L 227.07626,50.801389 L 227.04733,50.79519 L 226.9936,50.782791 L 226.9688,50.755926 L 226.84274,50.70633 L 226.86134,50.731128 L 226.81795,50.714596 L 226.78901,50.716662 L 226.78282,50.720795 L 226.85101,50.755926 L 226.84894,50.768325 L 226.76008,50.809655 L 226.71875,50.809655 L 226.72495,50.817921 L 226.74975,50.822054 L 226.82621,50.807589 L 226.86341,50.78899 L 226.95434,50.78899 L 226.9812,50.799323 L 227.00806,50.797256 L 227.07006,50.815855 z "
       id="path1384" />
    <path
       style="opacity:1.0000000;color:#000000;fill:#ff0000;fill-opacity:0.50196081;fill-rule:evenodd;stroke:#000000;stroke-width:0.0099999877;stroke-linecap:butt;stroke-linejoin:miter;marker:none;marker-start:none;marker-mid:none;marker-end:none;stroke-miterlimit:4.0000000;stroke-dasharray:none;stroke-dashoffset:0.0000000;stroke-opacity:1.0000000;visibility:visible;display:inline;overflow:visible"
       d="M 223.71843,52.245320 L 223.62130,52.245320 L 223.58824,52.286650 L 223.56964,52.288717 L 223.43738,52.429239 L 223.39399,52.540831 L 223.40845,52.544964 L 223.56964,52.354845 L 223.59444,52.354845 L 223.63164,52.348646 L 223.65850,52.379643 L 223.69156,52.377577 L 223.71430,52.356912 L 223.78663,52.340379 L 223.81969,52.307315 L 223.88995,52.315581 L 223.95608,52.296983 L 224.12553,52.303182 L 224.19579,52.325914 L 224.30532,52.313515 L 224.30325,52.286650 L 224.12760,52.228788 L 224.02841,52.218455 L 224.01394,52.199857 L 223.89408,52.179192 L 223.78869,52.195724 L 223.71843,52.245320 z "
       id="path1386" />
  </g>
</svg>
