<?xml version="1.0" encoding="UTF-8" standalone="no"?>
<!-- Created with Inkscape (http://www.inkscape.org/) -->
<svg
   xmlns:dc="http://purl.org/dc/elements/1.1/"
   xmlns:cc="http://web.resource.org/cc/"
   xmlns:rdf="http://www.w3.org/1999/02/22-rdf-syntax-ns#"
   xmlns:svg="http://www.w3.org/2000/svg"
   xmlns="http://www.w3.org/2000/svg"
   xmlns:xlink="http://www.w3.org/1999/xlink"
   xmlns:sodipodi="http://inkscape.sourceforge.net/DTD/sodipodi-0.dtd"
   xmlns:inkscape="http://www.inkscape.org/namespaces/inkscape"
   width="216.00000px"
   height="108.00000px"
   id="svg2"
   sodipodi:version="0.32"
   inkscape:version="0.42.2"
   sodipodi:docbase="/home/tackat/globepedia/data/vectorsource"
   sodipodi:docname="lakes.svg">
  <defs
     id="defs4">
    <marker
       inkscape:stockid="Arrow2Lend"
       orient="auto"
       refY="0.0"
       refX="0.0"
       id="Arrow2Lend"
       style="overflow:visible;">
      <path
         sodipodi:nodetypes="cccc"
         id="path2582"
         style="font-size:12.0;fill-rule:evenodd;stroke-width:0.62500000;stroke-linejoin:round;"
         d="M 8.7185878,4.0337352 L -2.2072895,0.016013256 L 8.7185884,-4.0017078 C 6.9730900,-1.6296469 6.9831476,1.6157441 8.7185878,4.0337352 z "
         transform="scale(1.1) rotate(180) translate(-5,0)" />
    </marker>
  </defs>
  <sodipodi:namedview
     id="base"
     pagecolor="#ffffff"
     bordercolor="#666666"
     borderopacity="1.0"
     inkscape:pageopacity="0.0"
     inkscape:pageshadow="2"
     inkscape:zoom="20.113208"
     inkscape:cx="219.62256"
     inkscape:cy="69.982399"
     inkscape:document-units="px"
     inkscape:current-layer="layer1"
     inkscape:window-width="1024"
     inkscape:window-height="699"
     inkscape:window-x="0"
     inkscape:window-y="0"
     showguides="false"
     inkscape:guide-bbox="true">
    <sodipodi:guide
       orientation="horizontal"
       position="71.285782"
       id="guide2149" />
    <sodipodi:guide
       orientation="vertical"
       position="230.84888"
       id="guide2151" />
    <sodipodi:guide
       orientation="vertical"
       position="232.79976"
       id="guide2153" />
    <sodipodi:guide
       orientation="horizontal"
       position="70.058616"
       id="guide2155" />
  </sodipodi:namedview>
  <metadata
     id="metadata7">
    <rdf:RDF>
      <cc:Work
         rdf:about="">
        <dc:format>image/svg+xml</dc:format>
        <dc:type
           rdf:resource="http://purl.org/dc/dcmitype/StillImage" />
      </cc:Work>
    </rdf:RDF>
  </metadata>
  <g
     inkscape:label="Ebene 1"
     inkscape:groupmode="layer"
     id="layer1"
     style="display:inline">
    <image
       id="image1367"
       height="108.00000"
       width="216.00000"
       sodipodi:absref="/home/tackat/globepedia-data/world.topo.bathy.200407.3x10800x5400.B.jpg"
       xlink:href="/home/tackat/globepedia-data/world.topo.bathy.200407.3x10800x5400.B.jpg"
       x="216.00000"
       y="0.0000000"
       sodipodi:insensitive="true" />
<!--    
    <image
	  id="image1367"
	  height="108.00000"
	  width="216.00000"
	  sodipodi:absref="/home/tackat/globepedia-data/world.topo.bathy.200407.3x10800x5400.B.jpg"
	  xlink:href="/home/tackat/globepedia-data/world.topo.bathy.200407.3x10800x5400.B.jpg"
	  x="216.0000000000"
	  y="0.0000000000"
	  sodipodi:insensitive="true" /> -->    <path
       style="opacity:1.0000000;color:#000000;fill:#ff0000;fill-opacity:0.50196081;fill-rule:evenodd;stroke:#000000;stroke-width:0.0099999998;stroke-linecap:butt;stroke-linejoin:miter;marker:none;marker-start:none;marker-mid:none;marker-end:none;stroke-miterlimit:4.0000000;stroke-dasharray:none;stroke-dashoffset:0.0000000;stroke-opacity:1.0000000;visibility:visible;display:inline;overflow:visible"
       d="M 231.79721,37.763309 L 231.90289,37.752184 L 231.98633,37.629811 L 232.11427,37.607561 L 232.14208,37.574187 L 232.17545,37.579749 L 232.18658,37.596437 L 232.30339,37.546375 L 232.32564,37.535250 L 232.34789,37.579749 L 232.49807,37.513000 L 232.54257,37.507438 L 232.59263,37.462938 L 232.57595,37.429564 L 232.61488,37.407314 L 232.63713,37.412877 L 232.65382,37.429564 L 232.68720,37.390627 L 232.67051,37.373940 L 232.71501,37.318316 L 232.73170,37.257129 L 232.69276,37.212630 L 232.72057,37.195942 L 232.80957,37.184817 L 232.83738,37.151443 L 232.84851,37.129193 L 232.82069,37.140318 L 232.82626,37.112506 L 232.80957,37.073569 L 232.78176,37.079131 L 232.77063,37.129193 L 232.68720,37.140318 L 232.67051,37.157005 L 232.65382,37.123631 L 232.64270,37.101381 L 232.67051,37.051319 L 232.71501,37.045757 L 232.77619,36.973445 L 232.80401,36.940071 L 232.77063,36.878884 L 232.77063,36.862197 L 232.75951,36.856635 L 232.71501,36.862197 L 232.69832,36.828822 L 232.66495,36.806573 L 232.65938,36.845510 L 232.65938,36.867759 L 232.63157,36.867759 L 232.62045,36.845510 L 232.59820,36.839947 L 232.57595,36.862197 L 232.56482,36.845510 L 232.58151,36.823260 L 232.53145,36.828822 L 232.49807,36.801010 L 232.48139,36.806573 L 232.49807,36.839947 L 232.43689,36.845510 L 232.42576,36.812135 L 232.45914,36.795448 L 232.45357,36.773198 L 232.35345,36.784323 L 232.34789,36.756511 L 232.25333,36.767636 L 232.20883,36.789886 L 232.15877,36.801010 L 232.11427,36.817698 L 232.04196,36.789886 L 232.00302,36.806573 L 231.93071,36.795448 L 231.87508,36.823260 L 231.88621,36.839947 L 231.91958,36.867759 L 231.84171,36.867759 L 231.79721,36.839947 L 231.80277,36.795448 L 231.74715,36.834385 L 231.75827,36.890009 L 231.75271,36.912259 L 231.71933,36.901134 L 231.69152,36.890009 L 231.71377,36.923384 L 231.74158,36.973445 L 231.84171,37.157005 L 231.86396,37.257129 L 231.90289,37.301628 L 231.85840,37.329440 L 231.83615,37.335003 L 231.81946,37.301628 L 231.78608,37.312753 L 231.74158,37.301628 L 231.70265,37.257129 L 231.66927,37.246004 L 231.68596,37.201505 L 231.65815,37.184817 L 231.60809,37.151443 L 231.57471,37.151443 L 231.55802,37.168130 L 231.54134,37.145880 L 231.50240,37.157005 L 231.47459,37.145880 L 231.48571,37.123631 L 231.47459,37.106944 L 231.44678,37.123631 L 231.41896,37.095819 L 231.39671,37.106944 L 231.40228,37.145880 L 231.38559,37.168130 L 231.36334,37.151443 L 231.37446,37.123631 L 231.35222,37.123631 L 231.31884,37.151443 L 231.28547,37.134756 L 231.26878,37.140318 L 231.29103,37.184817 L 231.23540,37.212630 L 231.24653,37.234879 L 231.19647,37.296066 L 231.21315,37.307191 L 231.19090,37.340565 L 231.20203,37.362815 L 231.17422,37.379502 L 231.15197,37.373940 L 231.15197,37.412877 L 231.12416,37.412877 L 231.07409,37.401752 L 231.06853,37.373940 L 231.09078,37.318316 L 231.04628,37.284941 L 230.99066,37.246004 L 230.97397,37.268254 L 231.00734,37.296066 L 231.04072,37.346128 L 231.04628,37.418439 L 231.01847,37.424002 L 231.00178,37.396189 L 230.97397,37.396189 L 230.97397,37.429564 L 231.00178,37.474063 L 231.05184,37.446251 L 231.07966,37.446251 L 231.04628,37.474063 L 231.05184,37.551937 L 231.10191,37.596437 L 231.17978,37.596437 L 231.20203,37.601999 L 231.07966,37.702123 L 231.01291,37.774434 L 230.94060,37.791121 L 230.88497,37.807809 L 230.87385,37.835621 L 230.83491,37.857870 L 230.86828,37.896807 L 230.99066,37.880120 L 231.06853,37.874558 L 231.12972,37.830058 L 231.15197,37.796684 L 231.20759,37.785559 L 231.17422,37.824496 L 231.13528,37.880120 L 231.07966,37.902370 L 231.11303,37.919057 L 231.15753,37.913495 L 231.27434,37.852308 L 231.25209,37.824496 L 231.33553,37.813371 L 231.35778,37.785559 L 231.45234,37.779996 L 231.50796,37.757747 L 231.54134,37.690998 L 231.60252,37.640936 L 231.64146,37.652061 L 231.73046,37.635374 L 231.71933,37.601999 L 231.68596,37.607561 L 231.66927,37.579749 L 231.75271,37.546375 L 231.81946,37.546375 L 231.84727,37.585312 L 231.80833,37.646498 L 231.76940,37.702123 L 231.75271,37.707685 L 231.75271,37.741060 L 231.79721,37.763309 z "
       id="path2158"
       sodipodi:nodetypes="cccccccccccccccccccccccccccccccccccccccccccccccccccccccccccccccccccccccccccccccccccccccccccccccccccccccccccccccccccccccccccccccccccccccccccccccccccccccccccccccccccccccccccccccccccccccc" />
    <path
       style="opacity:1.0000000;color:#000000;fill:#ff0000;fill-opacity:0.50196081;fill-rule:evenodd;stroke:#000000;stroke-width:0.0099999998;stroke-linecap:butt;stroke-linejoin:miter;marker:none;marker-start:none;marker-mid:none;marker-end:none;stroke-miterlimit:4.0000000;stroke-dasharray:none;stroke-dashoffset:0.0000000;stroke-opacity:1.0000000;visibility:visible;display:inline;overflow:visible"
       d="M 232.94863,38.441925 L 232.95976,38.508674 L 233.00426,38.525361 L 233.02651,38.608797 L 233.08213,38.631047 L 233.12107,38.603235 L 233.15444,38.614360 L 233.16000,38.542048 L 233.21563,38.447487 L 233.28794,38.397425 L 233.33244,38.380738 L 233.37694,38.291739 L 233.44369,38.236115 L 233.47706,38.180491 L 233.52712,38.147116 L 233.52712,38.119304 L 233.51600,38.097054 L 233.56050,38.052555 L 233.54381,38.013618 L 233.60500,37.946869 L 233.74962,37.857870 L 233.79968,37.868995 L 233.82749,37.874558 L 233.91093,37.818933 L 233.96655,37.796684 L 233.91093,37.796684 L 233.93874,37.752184 L 233.84974,37.752184 L 233.79412,37.735497 L 233.87199,37.685435 L 233.87199,37.618686 L 233.91093,37.551937 L 233.91649,37.513000 L 233.89424,37.513000 L 233.86643,37.524125 L 233.87756,37.474063 L 233.94431,37.435126 L 233.88312,37.424001 L 233.87199,37.390627 L 233.84974,37.401752 L 233.86087,37.462938 L 233.83306,37.485188 L 233.81081,37.474063 L 233.74962,37.507438 L 233.72737,37.557500 L 233.56606,37.640936 L 233.44369,37.685435 L 233.42700,37.718810 L 233.43812,37.741059 L 233.41588,37.763309 L 233.42144,37.807809 L 233.38806,37.846745 L 233.35469,37.835621 L 233.32131,37.852308 L 233.34913,37.885682 L 233.29906,37.907932 L 233.22119,38.019181 L 233.15444,38.069242 L 233.12663,38.124867 L 233.13775,38.135991 L 233.09325,38.158241 L 233.09325,38.247240 L 233.02094,38.347363 L 233.03763,38.369613 L 232.94863,38.441925 z "
       id="path2160"
       sodipodi:nodetypes="ccccccccccccccccccccccccccccccccccccccccccccccccccccccccccccccccc" />
    <path
       style="opacity:1.0000000;color:#000000;fill:#ff0000;fill-opacity:0.50196081;fill-rule:evenodd;stroke:#000000;stroke-width:0.010000003;stroke-linecap:butt;stroke-linejoin:miter;marker:none;marker-start:none;marker-mid:none;marker-end:none;stroke-miterlimit:4.0000000;stroke-dasharray:none;stroke-dashoffset:0.0000000;stroke-opacity:1.0000000;visibility:visible;display:inline;overflow:visible"
       d="M 222.06351,44.521946 L 222.11219,44.584909 L 222.13654,44.627839 L 222.12573,44.662183 L 222.13654,44.705112 L 222.15278,44.728008 L 222.20689,44.736594 L 222.22583,44.722284 L 222.27723,44.722284 L 222.32592,44.739456 L 222.33133,44.788109 L 222.29616,44.808143 L 222.25829,44.848211 L 222.19878,44.873968 L 222.15549,44.888278 L 222.10409,44.865382 L 222.03374,44.865382 L 222.01751,44.894002 L 222.03916,44.962689 L 222.06621,44.991309 L 222.09597,45.034239 L 222.05809,45.085754 L 222.05539,45.114374 L 222.09056,45.122961 L 222.03374,45.165889 L 222.02292,45.191647 L 221.97422,45.197372 L 221.97693,45.220267 L 222.04727,45.240301 L 222.10679,45.243163 L 222.16089,45.263197 L 222.18794,45.286092 L 222.26911,45.274645 L 222.33133,45.291817 L 222.36921,45.326161 L 222.42872,45.334746 L 222.49366,45.363365 L 222.61540,45.337609 L 222.67761,45.251749 L 222.79666,45.191647 L 222.90487,45.165889 L 222.99685,45.091478 L 223.01579,45.031378 L 223.01579,44.985585 L 222.99144,44.948380 L 222.98873,44.914036 L 222.91298,44.902588 L 222.79936,44.905450 L 222.74255,44.885416 L 222.69656,44.836763 L 222.68033,44.765213 L 222.69656,44.713698 L 222.78583,44.627839 L 222.76148,44.602081 L 222.72091,44.602081 L 222.70738,44.613529 L 222.64516,44.627839 L 222.57211,44.613529 L 222.55317,44.599219 L 222.45849,44.602081 L 222.41520,44.567738 L 222.42331,44.541980 L 222.46661,44.524808 L 222.48013,44.461845 L 222.46931,44.373123 L 222.43414,44.358814 L 222.42602,44.330194 L 222.33944,44.361676 L 222.22583,44.424639 L 222.06351,44.521946 z "
       id="path2934" />
    <path
       style="opacity:1.0000000;color:#000000;fill:#ff0000;fill-opacity:0.50196081;fill-rule:evenodd;stroke:#000000;stroke-width:0.0099999877;stroke-linecap:butt;stroke-linejoin:miter;marker:none;marker-start:none;marker-mid:none;marker-end:none;stroke-miterlimit:4.0000000;stroke-dasharray:none;stroke-dashoffset:0.0000000;stroke-opacity:1.0000000;visibility:visible;display:inline;overflow:visible"
       d="M 226.89672,50.883491 L 227.04344,50.937220 L 227.11164,50.970284 L 227.13024,51.007481 L 227.18190,51.028146 L 227.18810,51.040546 L 227.21290,51.048812 L 227.22943,51.067410 L 227.29349,51.071543 L 227.31002,51.048812 L 227.33275,51.048812 L 227.36582,51.067410 L 227.38028,51.063277 L 227.40921,51.044679 L 227.42368,51.063277 L 227.46294,51.057078 L 227.48567,51.036413 L 227.52081,51.038479 L 227.53527,51.028146 L 227.48154,50.993016 L 227.46708,51.003348 L 227.45055,50.986816 L 227.34722,50.957885 L 227.31829,50.959952 L 227.27076,50.922755 L 227.26869,50.902089 L 227.23769,50.883491 L 227.20463,50.883491 L 227.14057,50.860759 L 227.07237,50.866959 L 226.94838,50.811163 L 226.92565,50.769833 L 226.84299,50.740902 L 226.82233,50.718170 L 226.72933,50.689239 L 226.71693,50.695439 L 226.73140,50.705771 L 226.77273,50.738835 L 226.86779,50.771899 L 226.88639,50.817363 L 226.90912,50.835961 L 226.91945,50.856626 L 226.90292,50.869025 L 226.87399,50.862826 L 226.82026,50.850427 L 226.79546,50.823562 L 226.66940,50.773966 L 226.68800,50.798764 L 226.64461,50.782232 L 226.61567,50.784298 L 226.60948,50.788431 L 226.67767,50.823562 L 226.67560,50.835961 L 226.58674,50.877291 L 226.54541,50.877291 L 226.55161,50.885557 L 226.57641,50.889690 L 226.65287,50.875225 L 226.69007,50.856626 L 226.78100,50.856626 L 226.80786,50.866959 L 226.83472,50.864892 L 226.89672,50.883491 z "
       id="path1384" />
    <path
       style="opacity:1.0000000;color:#000000;fill:#ff0000;fill-opacity:0.50196081;fill-rule:evenodd;stroke:#000000;stroke-width:0.0099999877;stroke-linecap:butt;stroke-linejoin:miter;marker:none;marker-start:none;marker-mid:none;marker-end:none;stroke-miterlimit:4.0000000;stroke-dasharray:none;stroke-dashoffset:0.0000000;stroke-opacity:1.0000000;visibility:visible;display:inline;overflow:visible"
       d="M 223.71843,52.245320 L 223.62130,52.245320 L 223.58824,52.286650 L 223.56964,52.288717 L 223.43738,52.429239 L 223.39399,52.540831 L 223.40845,52.544964 L 223.56964,52.354845 L 223.59444,52.354845 L 223.63164,52.348646 L 223.65850,52.379643 L 223.69156,52.377577 L 223.71430,52.356912 L 223.78663,52.340379 L 223.81969,52.307315 L 223.88995,52.315581 L 223.95608,52.296983 L 224.12553,52.303182 L 224.19579,52.325914 L 224.30532,52.313515 L 224.30325,52.286650 L 224.12760,52.228788 L 224.02841,52.218455 L 224.01394,52.199857 L 223.89408,52.179192 L 223.78869,52.195724 L 223.71843,52.245320 z "
       id="path1386" />
  </g>
</svg>
