<?xml version="1.0" encoding="UTF-8" standalone="no"?>
<svg
   xmlns:dc="http://purl.org/dc/elements/1.1/"
   xmlns:cc="http://creativecommons.org/ns#"
   xmlns:rdf="http://www.w3.org/1999/02/22-rdf-syntax-ns#"
   xmlns:svg="http://www.w3.org/2000/svg"
   xmlns="http://www.w3.org/2000/svg"
   version="1.1"
   id="svg2"
   viewBox="0 0 12 12"
   height="100%"
   width="100%">
  <metadata
     id="metadata10">
    <rdf:RDF>
      <cc:Work
         rdf:about="">
        <dc:format>image/svg+xml</dc:format>
        <dc:type
           rdf:resource="http://purl.org/dc/dcmitype/StillImage" />
      </cc:Work>
    </rdf:RDF>
  </metadata>
  <defs
     id="defs8" />
  <path
     id="path4-2"
     d="m 6,0.711864 c -0.6569239,0 -0.8813559,1.7627119 -0.8813559,1.7627119 l 0,1.7351695 -4.40677969,3.1122881 0,0.8813559 4.40677969,-1.1016949 0,2.1207627 -1.7627119,1.1843228 0,0.881356 L 6,10.627119 l 2.644,0.661 0,-0.881356 -1.7627119,-1.1843228 0,-2.1207627 4.406,1.101 0,-0.8813559 -4.4067801,-3.1122881 0,-1.7351695 c 0,0 -0.224432,-1.7627119 -0.8813559,-1.7627119 z"
     style="fill:#8461c4;fill-opacity:1;fill-rule:evenodd;stroke:#ffffff;stroke-width:0.6;stroke-miterlimit:4;stroke-dasharray:none;stroke-linejoin:round;stroke-linecap:round" />
  <path
     id="path4"
     d="m 6,0.71186441 c -0.6569239,0 -0.8813559,1.76271189 -0.8813559,1.76271189 l 0,1.7351695 -4.40677969,3.1122881 0,0.8813559 4.40677969,-1.1016949 0,2.1207627 -1.7627119,1.1843224 0,0.881356 L 6,10.627119 l 2.644,0.661 0,-0.881356 -1.7627119,-1.1843224 0,-2.1207627 4.406,1.101 0,-0.8813559 -4.4067801,-3.1122881 0,-1.7351695 c 0,0 -0.224432,-1.76271189 -0.8813559,-1.76271189 z"
     style="fill:#8461c4;fill-opacity:1;fill-rule:evenodd" />
</svg>
