<?xml version="1.0" encoding="UTF-8" standalone="no"?>
<svg
   xmlns:dc="http://purl.org/dc/elements/1.1/"
   xmlns:cc="http://creativecommons.org/ns#"
   xmlns:rdf="http://www.w3.org/1999/02/22-rdf-syntax-ns#"
   xmlns:svg="http://www.w3.org/2000/svg"
   xmlns="http://www.w3.org/2000/svg"
   version="1.1"
   id="svg2"
   viewBox="0 0 16 16"
   height="100%"
   width="100%">
  <metadata
     id="metadata10">
    <rdf:RDF>
      <cc:Work
         rdf:about="">
        <dc:format>image/svg+xml</dc:format>
        <dc:type
           rdf:resource="http://purl.org/dc/dcmitype/StillImage" />
      </cc:Work>
    </rdf:RDF>
  </metadata>
  <defs
     id="defs8" />
  <path
     id="path4-9"
     d="m 8,0.771186 c -3.9923635,0 -7.22881356,3.2364844 -7.22881356,7.2288136 0,3.9923294 3.236,7.228 7.228,7.228 3.992364,0 7.228814,-3.236485 7.228814,-7.2288144 C 15.22,4.007 11.99,0.771 8,0.771186 Z m 0,0.9638418 c 3.460048,0 6.264,2.804 6.264,6.264 0,3.4600484 -2.804924,6.2649724 -6.264972,6.2649724 -3.4600484,0 -6.2649718,-2.804924 -6.2649718,-6.2649724 C 1.735,4.539 4.539,1.735 8,1.7350278 Z m -2.8915254,1.4457628 -0.7228814,0.7228813 0,8.1926561 c 0,9.6e-5 0.722,0.722 0.722,0.722 l 0.9638418,0 0,-3.8553676 3.8553672,0 0,3.8553676 0.9638414,0 0.722882,-0.722881 0,-8.1926561 -0.722882,-0.7228813 -0.9638414,0 0,3.8553672 -3.8553672,0 0,-3.8553672 -0.9638418,0 z"
     style="fill:#8461c4;fill-opacity:1;fill-rule:evenodd;stroke:#ffffff;stroke-width:0.6;stroke-miterlimit:4;stroke-dasharray:none;stroke-linejoin:round;stroke-linecap:round" />
  <path
     id="path4"
     d="M 8,0.77118644 C 4.007,0.771 0.771,4.007 0.77118644,8 c 0,3.992329 3.236,7.228 7.228,7.228 3.992364,0 7.228814,-3.236485 7.228814,-7.228814 C 15.22,4.007 11.99,0.771 8,0.77118644 Z M 8,1.7350282 c 3.460048,0 6.264,2.804 6.264,6.264 0,3.460048 -2.804924,6.264972 -6.264972,6.264972 C 4.539,14.26 1.735,11.46 1.7350282,8 1.735,4.539 4.539,1.735 8,1.7350282 Z M 5.108,3.180 4.385,3.903 l 0,8.1926557 c 0,9.6e-5 0.722,0.722 0.722,0.722 l 0.9638418,0 0,-3.8553672 3.8553672,0 0,3.8553672 0.9638414,0 0.722882,-0.722881 0,-8.1926557 -0.722882,-0.7228813 -0.9638414,0 0,3.8553672 -3.8553672,0 0,-3.8553672 -0.9638418,0 z"
     style="fill-rule:evenodd;fill:#8461c4;fill-opacity:1" />
</svg>
