<?xml version="1.0" encoding="UTF-8" standalone="no"?>
<!-- Created with Inkscape (http://www.inkscape.org/) -->

<svg
   xmlns:dc="http://purl.org/dc/elements/1.1/"
   xmlns:cc="http://creativecommons.org/ns#"
   xmlns:rdf="http://www.w3.org/1999/02/22-rdf-syntax-ns#"
   xmlns:svg="http://www.w3.org/2000/svg"
   xmlns="http://www.w3.org/2000/svg"
   xmlns:sodipodi="http://sodipodi.sourceforge.net/DTD/sodipodi-0.dtd"
   xmlns:inkscape="http://www.inkscape.org/namespaces/inkscape"
   version="1.1"
   width="100%"
   height="100%"
   viewBox="0 0 16 16"
   id="svg2"
   inkscape:version="0.91 r"
   sodipodi:docname="buddhist.16.svg">
  <metadata
     id="metadata10">
    <rdf:RDF>
      <cc:Work
         rdf:about="">
        <dc:format>image/svg+xml</dc:format>
        <dc:type
           rdf:resource="http://purl.org/dc/dcmitype/StillImage" />
      </cc:Work>
    </rdf:RDF>
  </metadata>
  <defs
     id="defs8" />
  <sodipodi:namedview
     pagecolor="#dadada"
     bordercolor="#666666"
     borderopacity="1"
     objecttolerance="10"
     gridtolerance="10"
     guidetolerance="10"
     inkscape:pageopacity="0"
     inkscape:pageshadow="2"
     inkscape:window-width="706"
     inkscape:window-height="412"
     id="namedview6"
     showgrid="false"
     inkscape:zoom="14.75"
     inkscape:cx="8"
     inkscape:cy="8"
     inkscape:window-x="0"
     inkscape:window-y="0"
     inkscape:window-maximized="0"
     inkscape:current-layer="svg2" />
  <path
     inkscape:connector-curvature="0"
     d="m 8,1.0312503 c -0.2461425,-0.00213 -0.48457,0.3250143 -0.5,0.96875 -2.8970155,0.2545513 -5.2436847,2.6023818 -5.5,5.5 -1.27039522,0 -1.28747147,0.96914 0,1 0.2283193,2.9165627 2.584827,5.2192557 5.5,5.4687497 0,1.404649 1,1.356045 1,0 2.935396,-0.222296 5.24644,-2.531918 5.46875,-5.4687497 1.394629,0 1.355936,-1 0,-1 C 13.719146,4.582245 11.417031,2.2268295 8.5,2.0000003 8.5,1.3648027 8.2461425,1.0333848 8,1.0312503 Z m -0.5,2.28125 0,3.5 -2.46875,-2.46875 C 5.7197423,3.7836124 6.5677817,3.4152095 7.5,3.3125003 Z m 1,0 c 0.9313705,0.098765 1.774011,0.4754302 2.46875,1.03125 L 8.5,6.8125003 l 0,-3.5 z m 3.1875,1.71875 c 0.558746,0.6876469 0.928206,1.536661 1.03125,2.46875 l -3.5,0 2.46875,-2.46875 z m -7.34375,0.03125 2.4375,2.4375 -3.46875,0 C 3.4201833,6.5853204 3.7953862,5.7436901 4.34375,5.0625003 Z M 8,7.2500003 c 0.4142135,0 0.75,0.3357863 0.75,0.75 0,0.4142135 -0.3357865,0.75 -0.75,0.75 -0.4142135,0 -0.75,-0.3357865 -0.75,-0.75 0,-0.4142137 0.3357865,-0.75 0.75,-0.75 z m -4.6875,1.25 3.53125,0 L 4.34375,11 C 3.7799209,10.302758 3.4094553,9.4411265 3.3125,8.5000003 Z m 5.84375,0 3.5625,0 C 12.618588,9.4519804 12.225082,10.301539 11.65625,11 l -2.5,-2.4999997 z M 7.5,9.2187503 7.5,12.71875 C 6.567911,12.615706 5.7188969,12.246246 5.03125,11.6875 L 7.5,9.2187503 Z m 1,0 2.46875,2.4999997 c -0.687689,0.544344 -1.5388332,0.905241 -2.46875,1 l 0,-3.4999997 z"
     id="path4-3"
     style="stroke:#ffffff;stroke-width:0.6;stroke-miterlimit:4;stroke-dasharray:none;stroke-linejoin:round;stroke-linecap:round" />
  <path
     inkscape:connector-curvature="0"
     d="m 8,1.0312504 c -0.2461425,-0.00213 -0.48457,0.3250143 -0.5,0.96875 -2.8970155,0.2545513 -5.2436847,2.6023818 -5.5,5.5 -1.27039522,0 -1.28747147,0.96914 0,1 0.2283193,2.9165626 2.584827,5.2192556 5.5,5.4687496 0,1.404649 1,1.356045 1,0 2.935396,-0.222296 5.24644,-2.531918 5.46875,-5.4687496 1.394629,0 1.355936,-1 0,-1 C 13.719146,4.5822451 11.417031,2.2268296 8.5,2.0000004 8.5,1.3648028 8.2461425,1.0333849 8,1.0312504 Z m -0.5,2.28125 0,3.5 -2.46875,-2.46875 C 5.7197423,3.7836125 6.5677817,3.4152096 7.5,3.3125004 Z m 1,0 c 0.9313705,0.098765 1.774011,0.4754302 2.46875,1.03125 L 8.5,6.8125004 l 0,-3.5 z m 3.1875,1.71875 c 0.558746,0.6876469 0.928206,1.536661 1.03125,2.46875 l -3.5,0 2.46875,-2.46875 z m -7.34375,0.03125 2.4375,2.4375 -3.46875,0 C 3.4201833,6.5853205 3.7953862,5.7436902 4.34375,5.0625004 Z M 8,7.2500004 c 0.4142135,0 0.75,0.3357863 0.75,0.75 0,0.4142135 -0.3357865,0.75 -0.75,0.75 -0.4142135,0 -0.75,-0.3357865 -0.75,-0.75 0,-0.4142137 0.3357865,-0.75 0.75,-0.75 z m -4.6875,1.25 3.53125,0 L 4.34375,11 C 3.7799209,10.302758 3.4094553,9.4411266 3.3125,8.5000004 Z m 5.84375,0 3.5625,0 C 12.618588,9.4519805 12.225082,10.301539 11.65625,11 l -2.5,-2.4999996 z M 7.5,9.2187504 7.5,12.71875 C 6.567911,12.615706 5.7188969,12.246246 5.03125,11.6875 L 7.5,9.2187504 Z m 1,0 2.46875,2.4999996 c -0.687689,0.544344 -1.5388332,0.905241 -2.46875,1 l 0,-3.4999996 z"
     id="path4" />
</svg>
