<?xml version="1.0" encoding="UTF-8" standalone="no"?>
<svg
   xmlns:dc="http://purl.org/dc/elements/1.1/"
   xmlns:cc="http://creativecommons.org/ns#"
   xmlns:rdf="http://www.w3.org/1999/02/22-rdf-syntax-ns#"
   xmlns:svg="http://www.w3.org/2000/svg"
   xmlns="http://www.w3.org/2000/svg"
   version="1.1"
   width="100%"
   height="100%"
   viewBox="0 0 16 16"
   id="svg2">
  <metadata
     id="metadata10">
    <rdf:RDF>
      <cc:Work
         rdf:about="">
        <dc:format>image/svg+xml</dc:format>
        <dc:type
           rdf:resource="http://purl.org/dc/dcmitype/StillImage" />
      </cc:Work>
    </rdf:RDF>
  </metadata>
  <defs
     id="defs8" />
  <path
     d="m 8,1.0312503 c -0.2461425,-0.00213 -0.48457,0.3250143 -0.5,0.96875 -2.8970155,0.2545513 -5.2436847,2.6023818 -5.5,5.5 -1.27039522,0 -1.28747147,0.96914 0,1 0.228,2.916 2.584,5.219 5.5,5.4687497 0,1.404649 1,1.356045 1,0 2.935396,-0.222296 5.24644,-2.531918 5.46875,-5.4687497 1.394629,0 1.355936,-1 0,-1 C 13.71,4.582 11.41,2.226 8.5,2.0000003 8.5,1.3648027 8.246,1.033 8,1.0312503 Z m -0.5,2.28125 0,3.5 -2.46875,-2.46875 C 5.719,3.783 6.567,3.415 7.5,3.3125003 Z m 1,0 c 0.931,0.098 1.774,0.475 2.468,1.031 L 8.5,6.8125003 l 0,-3.5 z m 3.187,1.718 c 0.558,0.687 0.928,1.536 1.031,2.468 l -3.5,0 2.46875,-2.46875 z m -7.34375,0.03125 2.437,2.437 -3.46875,0 C 3.420,6.585 3.795,5.743 4.343,5.062 Z M 8,7.2500003 c 0.4142135,0 0.75,0.3357863 0.75,0.75 0,0.4142135 -0.3357865,0.75 -0.75,0.75 -0.4142135,0 -0.75,-0.3357865 -0.75,-0.75 0,-0.4142137 0.3357865,-0.75 0.75,-0.75 z m -4.6875,1.25 3.53125,0 L 4.34375,11 C 3.779,10.30 3.409,9.441 3.312,8.500 Z m 5.84375,0 3.5625,0 C 12.61,9.451 12.22,10.30 11.65625,11 l -2.5,-2.4999997 z M 7.5,9.2187503 7.5,12.71875 C 6.567,12.61 5.718,12.24 5.031,11.68 L 7.5,9.2187503 Z m 1,0 2.468,2.499 c -0.687689,0.544344 -1.5388332,0.905241 -2.46875,1 l 0,-3.4999997 z"
     id="path4-3"
     style="stroke:#ffffff;stroke-width:0.6;stroke-miterlimit:4;stroke-dasharray:none;stroke-linejoin:round;stroke-linecap:round" />
  <path
     d="m 8,1.0312504 c -0.2461425,-0.00213 -0.48457,0.3250143 -0.5,0.96875 -2.8970155,0.2545513 -5.2436847,2.6023818 -5.5,5.5 -1.27039522,0 -1.28747147,0.96914 0,1 0.228,2.916 2.584,5.219 5.5,5.4687496 0,1.404649 1,1.356045 1,0 2.935396,-0.222296 5.24644,-2.531918 5.46875,-5.4687496 1.394629,0 1.355936,-1 0,-1 C 13.71,4.582 11.41,2.226 8.5,2.0000004 8.5,1.3648028 8.246,1.033 8,1.0312504 Z m -0.5,2.28125 0,3.5 -2.46875,-2.46875 C 5.719,3.783 6.567,3.415 7.5,3.3125004 Z m 1,0 c 0.931,0.098 1.774,0.475 2.468,1.031 L 8.5,6.8125004 l 0,-3.5 z m 3.187,1.718 c 0.558,0.687 0.928,1.536 1.031,2.468 l -3.5,0 2.46875,-2.46875 z m -7.34375,0.03125 2.437,2.437 -3.46875,0 C 3.420,6.585 3.795,5.743 4.343,5.062 Z M 8,7.2500004 c 0.4142135,0 0.75,0.3357863 0.75,0.75 0,0.4142135 -0.3357865,0.75 -0.75,0.75 -0.4142135,0 -0.75,-0.3357865 -0.75,-0.75 0,-0.4142137 0.3357865,-0.75 0.75,-0.75 z m -4.6875,1.25 3.53125,0 L 4.34375,11 C 3.779,10.30 3.409,9.441 3.312,8.500 Z m 5.84375,0 3.5625,0 C 12.61,9.451 12.22,10.30 11.65625,11 l -2.5,-2.4999996 z M 7.5,9.2187504 7.5,12.71875 C 6.567,12.61 5.718,12.24 5.031,11.68 L 7.5,9.2187504 Z m 1,0 2.468,2.499 c -0.687689,0.544344 -1.5388332,0.905241 -2.46875,1 l 0,-3.4999996 z"
     id="path4" />
</svg>
