<?xml version="1.0" encoding="UTF-8" standalone="no"?>
<svg
   xmlns:dc="http://purl.org/dc/elements/1.1/"
   xmlns:cc="http://creativecommons.org/ns#"
   xmlns:rdf="http://www.w3.org/1999/02/22-rdf-syntax-ns#"
   xmlns:svg="http://www.w3.org/2000/svg"
   xmlns="http://www.w3.org/2000/svg"
   version="1.1"
   width="100%"
   height="100%"
   viewBox="0 0 16 16"
   id="svg2">
  <metadata
     id="metadata10">
    <rdf:RDF>
      <cc:Work
         rdf:about="">
        <dc:format>image/svg+xml</dc:format>
        <dc:type
           rdf:resource="http://purl.org/dc/dcmitype/StillImage" />
      </cc:Work>
    </rdf:RDF>
  </metadata>
  <defs
     id="defs8" />
  <path
     d="M 7.999999,1 C 6.999998,1 7,2 7,2 l -1e-6,3 -4,0 0,2 4,0 L 7,15 9.000001,15 9,7 13,7 13,5 9,5 9,2 C 9,2 9,1 7.999999,1 Z"
     id="path4-1"
     style="stroke:#ffffff;stroke-width:0.6;stroke-miterlimit:4;stroke-dasharray:none;stroke-linejoin:round;stroke-linecap:round" />
  <path
     d="M 7.999999,1 C 6.999998,1 7,2 7,2 l -1e-6,3 -4,0 0,2 4,0 L 7,15 9.000001,15 9,7 13,7 13,5 9,5 9,2 C 9,2 9,1 7.999999,1 Z"
     id="path4" />
</svg>
