<?xml version="1.0" encoding="UTF-8" standalone="no"?>
<svg
   xmlns:dc="http://purl.org/dc/elements/1.1/"
   xmlns:cc="http://creativecommons.org/ns#"
   xmlns:rdf="http://www.w3.org/1999/02/22-rdf-syntax-ns#"
   xmlns:svg="http://www.w3.org/2000/svg"
   xmlns="http://www.w3.org/2000/svg"
   version="1.1"
   width="100%"
   height="100%"
   viewBox="0 0 16 16"
   id="svg2">
  <metadata
     id="metadata10">
    <rdf:RDF>
      <cc:Work
         rdf:about="">
        <dc:format>image/svg+xml</dc:format>
        <dc:type
           rdf:resource="http://purl.org/dc/dcmitype/StillImage" />
      </cc:Work>
    </rdf:RDF>
  </metadata>
  <defs
     id="defs8" />
  <path
     d="M 7,3 C 7,3 8.598,5.820 11,3.5 11.330985,4 12,5 12,5 12,5 8.556,7.355 7,3 Z M 2,5 C 2.288,5.608 2.660,6.357 3,7 3.5044529,6 5,6 5,6 6,6 6.733,6.391 6.733,7.027 6.733,7.662 6,8 5,8 5,8 5,9 5,9.5 6.310,9.251 7.002,10.28 6.682,11.00 6.074,12.36 2.503,12.52 1,10 c 0,3.987823 3.4414924,4 4,4 2,0 3,-2 3,-4 0.520,0.543 1.354,0.545 2,0 0.904803,-0.7652747 1.258697,-2.0101204 2.5,-2 1.513,0.012 1.5,3 0.5,4 -1,1 -3.3940417,0.644701 -4,-1 0,1 0,3.001353 3,3 3,-0.0014 3.608129,-3.383953 2.5,-6 C 13.81,6.383 12.53,5.949 11.15,6.378 10.08,6.709 10.13,7.182 9.5,8 9.170,8.395 9,9 8,9 7.6528812,9 7.228,8.725 7,8.5 8.238,7.615 8.055,5.912 7,5 5.612,3.799 3.159,4.045 2,5 Z M 8,3 9,2 10,3 9,4 Z"
     id="path4-4"
     style="stroke:#ffffff;stroke-width:0.6;stroke-miterlimit:4;stroke-dasharray:none;stroke-linejoin:round;stroke-linecap:round" />
  <path
     d="M 7,3 C 7,3 8.598,5.820 11,3.5 11.330985,4 12,5 12,5 12,5 8.556,7.355 7,3 Z M 2,5 C 2.288,5.608 2.660,6.357 3,7 3.5044529,6 5,6 5,6 6,6 6.733,6.391 6.733,7.027 6.733,7.662 6,8 5,8 5,8 5,9 5,9.5 6.310,9.251 7.002,10.28 6.682,11.00 6.074,12.36 2.503,12.52 1,10 c 0,3.987823 3.4414924,4 4,4 2,0 3,-2 3,-4 0.520,0.543 1.354,0.545 2,0 0.904803,-0.7652747 1.258697,-2.0101204 2.5,-2 1.513,0.012 1.5,3 0.5,4 -1,1 -3.3940417,0.644701 -4,-1 0,1 0,3.001353 3,3 3,-0.0014 3.608129,-3.383953 2.5,-6 C 13.81,6.383 12.53,5.949 11.15,6.378 10.08,6.709 10.13,7.182 9.5,8 9.170,8.395 9,9 8,9 7.6528812,9 7.228,8.725 7,8.5 8.238,7.615 8.055,5.912 7,5 5.612,3.799 3.159,4.045 2,5 Z M 8,3 9,2 10,3 9,4 Z"
     id="path4" />
</svg>
