<?xml version="1.0" encoding="UTF-8" standalone="no"?>
<!-- Created with Inkscape (http://www.inkscape.org/) -->

<svg
   xmlns:dc="http://purl.org/dc/elements/1.1/"
   xmlns:cc="http://creativecommons.org/ns#"
   xmlns:rdf="http://www.w3.org/1999/02/22-rdf-syntax-ns#"
   xmlns:svg="http://www.w3.org/2000/svg"
   xmlns="http://www.w3.org/2000/svg"
   xmlns:sodipodi="http://sodipodi.sourceforge.net/DTD/sodipodi-0.dtd"
   xmlns:inkscape="http://www.inkscape.org/namespaces/inkscape"
   version="1.1"
   width="100%"
   height="100%"
   viewBox="0 0 16 16"
   id="svg2"
   inkscape:version="0.91 r"
   sodipodi:docname="jewish.16.svg">
  <metadata
     id="metadata10">
    <rdf:RDF>
      <cc:Work
         rdf:about="">
        <dc:format>image/svg+xml</dc:format>
        <dc:type
           rdf:resource="http://purl.org/dc/dcmitype/StillImage" />
      </cc:Work>
    </rdf:RDF>
  </metadata>
  <defs
     id="defs8" />
  <sodipodi:namedview
     pagecolor="#dadada"
     bordercolor="#666666"
     borderopacity="1"
     objecttolerance="10"
     gridtolerance="10"
     guidetolerance="10"
     inkscape:pageopacity="0"
     inkscape:pageshadow="2"
     inkscape:window-width="706"
     inkscape:window-height="412"
     id="namedview6"
     showgrid="false"
     inkscape:zoom="14.75"
     inkscape:cx="8"
     inkscape:cy="8"
     inkscape:window-x="0"
     inkscape:window-y="0"
     inkscape:window-maximized="0"
     inkscape:current-layer="svg2" />
  <path
     inkscape:connector-curvature="0"
     d="M 8.03125,1.34375 6,4.875 l -4,0 2,3.5 -2,3.5 4,0 2.03125,3.53125 2,-3.53125 3.96875,0 -1.96875,-3.5 1.96875,-3.5 -3.96875,0 -2,-3.53125 z m 0,2.5 0.59375,1.03125 -1.1875,0 0.59375,-1.03125 z m -3.90625,2.1875 1.21875,0 -0.625,1.0625 L 4.125,6.03125 Z m 2.65625,0 2.5,0 1.3125,2.34375 -1.3125,2.34375 -2.5,0 L 5.46875,8.375 6.78125,6.03125 Z m 3.90625,0 1.25,0 -0.625,1.09375 -0.625,-1.09375 z m 0.625,3.59375 0.625,1.09375 -1.25,0 0.625,-1.09375 z m -6.59375,0.03125 0.625,1.0625 -1.21875,0 0.59375,-1.0625 z M 7.4375,11.875 8.625,11.875 8.03125,12.90625 7.4375,11.875 Z"
     id="path4-6"
     style="stroke:#ffffff;stroke-width:0.6;stroke-miterlimit:4;stroke-dasharray:none;stroke-linejoin:round;stroke-linecap:round" />
  <path
     inkscape:connector-curvature="0"
     d="M 8.03125,1.34375 6,4.875 l -4,0 2,3.5 -2,3.5 4,0 2.03125,3.53125 2,-3.53125 3.96875,0 -1.96875,-3.5 1.96875,-3.5 -3.96875,0 -2,-3.53125 z m 0,2.5 0.59375,1.03125 -1.1875,0 0.59375,-1.03125 z m -3.90625,2.1875 1.21875,0 -0.625,1.0625 L 4.125,6.03125 Z m 2.65625,0 2.5,0 1.3125,2.34375 -1.3125,2.34375 -2.5,0 L 5.46875,8.375 6.78125,6.03125 Z m 3.90625,0 1.25,0 -0.625,1.09375 -0.625,-1.09375 z m 0.625,3.59375 0.625,1.09375 -1.25,0 0.625,-1.09375 z m -6.59375,0.03125 0.625,1.0625 -1.21875,0 0.59375,-1.0625 z M 7.4375,11.875 8.625,11.875 8.03125,12.90625 7.4375,11.875 Z"
     id="path4" />
</svg>
