<?xml version="1.0" encoding="UTF-8" standalone="no"?>
<svg
   xmlns:dc="http://purl.org/dc/elements/1.1/"
   xmlns:cc="http://creativecommons.org/ns#"
   xmlns:rdf="http://www.w3.org/1999/02/22-rdf-syntax-ns#"
   xmlns:svg="http://www.w3.org/2000/svg"
   xmlns="http://www.w3.org/2000/svg"
   version="1.1"
   width="100%"
   height="100%"
   viewBox="0 0 16 16"
   id="svg2">
  <metadata
     id="metadata10">
    <rdf:RDF>
      <cc:Work
         rdf:about="">
        <dc:format>image/svg+xml</dc:format>
        <dc:type
           rdf:resource="http://purl.org/dc/dcmitype/StillImage" />
      </cc:Work>
    </rdf:RDF>
  </metadata>
  <defs
     id="defs8" />
  <path
     d="M 7.5,1 C 6.6715729,1 6,1.6715729 6,2.5 6,3.3284271 6.671573,4 7.5,4 8.3284271,4 9,3.3284271 9,2.5 9,1.6715729 8.328427,1 7.5,1 Z M 2.167,5.573 3.5,8 l 3,-1 1,4 -2,2 c -0.2711864,0.305085 -0.4661017,0.45872 -0.5,1 0,1 1,1 1,1 l 6,0 c 0,0 1,0 1,-1 0,-1 -1,-1 -1,-1 l -3,0 1,-1 c 1,-1 0.928985,-1.472666 0.8125,-2 L 10,6 C 9.760,5.106 9.137,4.670 8,4.85 L 7,5 4,6.5 3,5 C 2.558,4.412 1.816,4.918 2.167,5.573 Z"
     id="path4-6"
     style="stroke:#ffffff;stroke-width:0.6;stroke-miterlimit:4;stroke-dasharray:none;stroke-linejoin:round;stroke-linecap:round" />
  <path
     d="M 7.5,1 C 6.6715729,1 6,1.6715729 6,2.5 6,3.3284271 6.671573,4 7.5,4 8.3284271,4 9,3.3284271 9,2.5 9,1.6715729 8.328427,1 7.5,1 Z M 2.167,5.573 3.5,8 l 3,-1 1,4 -2,2 c -0.2711864,0.305085 -0.4661017,0.45872 -0.5,1 0,1 1,1 1,1 l 6,0 c 0,0 1,0 1,-1 0,-1 -1,-1 -1,-1 l -3,0 1,-1 c 1,-1 0.928985,-1.472666 0.8125,-2 L 10,6 C 9.760,5.106 9.137,4.670 8,4.85 L 7,5 4,6.5 3,5 C 2.558,4.412 1.816,4.918 2.167,5.573 Z"
     id="path4" />
</svg>
