<?xml version="1.0" encoding="UTF-8" standalone="no"?>
<svg
   xmlns:dc="http://purl.org/dc/elements/1.1/"
   xmlns:cc="http://creativecommons.org/ns#"
   xmlns:rdf="http://www.w3.org/1999/02/22-rdf-syntax-ns#"
   xmlns:svg="http://www.w3.org/2000/svg"
   xmlns="http://www.w3.org/2000/svg"
   version="1.1"
   width="100%"
   height="100%"
   viewBox="0 0 16 16"
   id="svg2">
  <metadata
     id="metadata8">
    <rdf:RDF>
      <cc:Work
         rdf:about="">
        <dc:format>image/svg+xml</dc:format>
        <dc:type
           rdf:resource="http://purl.org/dc/dcmitype/StillImage" />
        <dc:title />
      </cc:Work>
    </rdf:RDF>
  </metadata>
  <defs
     id="defs6" />
  <rect
     width="16"
     height="16"
     x="0"
     y="0"
     id="canvas"
     style="visibility:hidden;fill:none;stroke:none" />
  <path
     d="m 12.71,1.500 c -0.710267,-0.1006686 -2.512962,1.0161034 -4.6875,3.09375 0.722,0.038 1.439,0.775 1.375,1.4375 2.145291,-2.0497032 3.389568,-3.7839427 3.3125,-4.53125 z m -9.78125,2.75 C 2.327,4.271 1.874,4.353 1.656,4.5312504 1.961,5.180 3.850,6.073 6.781,6.7500004 6.416,6.125 6.660,5.122 7.249,4.812 5.442,4.395 3.953,4.213 2.937,4.250 Z m 5.0625,1.25 c -0.276142,0 -0.5,0.2238576 -0.5,0.5 0,0.2761424 0.223858,0.5 0.5,0.5 0.276142,0 0.5,-0.2238576 0.5,-0.5 0,-0.2761424 -0.223858,-0.5 -0.5,-0.5 z m 1.312,1.031 C 9.110,7.165 8.146,7.562 7.468,7.312 8.646,10.07 9.869,11.78 10.56,11.96 10.92,11.31 10.47,9.261 9.312,6.531 Z M 7.406,8.7500004 6.99975,14 l -2,0 0,1 6,0 0,-1 -2,0 L 8.781,11.21875 C 8.332,10.48 7.878,9.672 7.406,8.7500004 Z"
     id="power-wind-7"
     style="fill:#1a1a1a;fill-opacity:1;stroke:#ffffff;stroke-width:0.6;stroke-miterlimit:4;stroke-dasharray:none;stroke-linejoin:round;stroke-linecap:round" />
  <path
     d="M 12.7185,1.5 C 12.00,1.399 10.20,2.516 8.031,4.59375 8.753,4.631 9.470,5.368 9.406,6.03125 11.55,3.981 12.79,2.247 12.7185,1.5 Z M 2.93725,4.25 C 2.327,4.271 1.874,4.353 1.656,4.53125 1.961,5.180 3.850,6.073 6.781,6.75 6.416,6.125 6.660,5.122 7.249,4.812 5.442,4.395 3.953,4.213 2.93725,4.25 Z m 5.0625,1.25 c -0.276142,0 -0.5,0.2238576 -0.5,0.5 0,0.2761424 0.223858,0.5 0.5,0.5 0.276142,0 0.5,-0.2238576 0.5,-0.5 0,-0.2761424 -0.223858,-0.5 -0.5,-0.5 z m 1.312,1.031 C 9.110,7.165 8.146,7.562 7.468,7.312 c 1.177,2.767 2.401,4.468 3.093,4.656 0.365764,-0.656219 -0.08787,-2.707481 -1.25,-5.4375 z M 7.406,8.75 6.99975,14 l -2,0 0,1 6,0 0,-1 -2,0 L 8.781,11.21875 C 8.332,10.48 7.878,9.672 7.406,8.75 Z"
     id="power-wind"
     style="fill:#1a1a1a;fill-opacity:1;stroke:none" />
</svg>
