<?xml version="1.0" encoding="UTF-8" standalone="no"?>
<svg
   xmlns:dc="http://purl.org/dc/elements/1.1/"
   xmlns:cc="http://creativecommons.org/ns#"
   xmlns:rdf="http://www.w3.org/1999/02/22-rdf-syntax-ns#"
   xmlns:svg="http://www.w3.org/2000/svg"
   xmlns="http://www.w3.org/2000/svg"
   version="1.1"
   width="100%"
   height="100%"
   viewBox="0 0 16 16"
   id="svg2">
  <metadata
     id="metadata10">
    <rdf:RDF>
      <cc:Work
         rdf:about="">
        <dc:format>image/svg+xml</dc:format>
        <dc:type
           rdf:resource="http://purl.org/dc/dcmitype/StillImage" />
      </cc:Work>
    </rdf:RDF>
  </metadata>
  <defs
     id="defs8" />
  <path
     d="m 1,1 c 0,1 0.654,1.654 1,2 0.345,0.345 0.842,0.212 0.842,0.472 0,0 0.157,0.527 0.657,0.527 l 1.2500001,0 c 0,0.2876366 0.2500001,0.5 0.2500001,0.5 0,0 -0.2500001,0.1404543 -0.2500001,0.5000002 l -1.2500001,0 c -0.5,0 -0.5,0.2499999 -0.5,0.5 0,0.5273339 0,0.9999999 0,0.9999999 0,0.2396973 0.2311002,0.5 0.5,0.5 0.2689,0 1.2500003,0 1.2500001,0 l 0,1 -0.7499999,0 c 0,0.4060258 0.270,0.731 0.749,0.999 0,0.3163531 0,5.5000001 0,5.5000001 0,0.658649 1.499,0.715 1.4999999,0 l 0,-7.5 L 9.75,7 l 0,7.5 c 0,0.691758 1.5,0.643818 1.5,0 0,0 -10e-7,-5.183647 0,-5.5000001 C 11.72,8.688 12,8.4074852 12,8 l -0.75,0 0,-1 c 0,0 0.981099,0 1.25,0 0.220961,0 0.5,-0.2603027 0.5,-0.5 0,0 0,-0.4999999 0,-0.9999999 0,-0.5 -0.274339,-0.5 -0.5,-0.5 l -1.25,0 c 0.02397,-0.2636668 -0.25,-0.5 -0.25,-0.5 0,0 0.25,-0.2123634 0.25,-0.5000002 l 1.25,0 c 0.5,0 0.5,-0.5 0.5,-0.5 C 13,3.2636669 13.58,3.361 14,3 14.41,2.638 15,2 15,1 8.9999999,2 6,2 1,1 Z m 5.249,2.999 c -1.463e-4,0 1.0000002,0 1.0000002,0 l 0,1.0000002 -1.0000002,0 C 6.249,4.712 6,4.4999999 6,4.4999999 c 0,0 0.2499999,-0.1883936 0.2499999,-0.5 z m 2.5000001,0 1,0 c 0,0.2647543 0.2499999,0.5 0.2499999,0.5 0,0 -0.2499999,0.2363334 -0.2499999,0.5000002 l -1,0 z"
     id="path4-2"
     style="stroke:#ffffff;stroke-width:0.6;stroke-miterlimit:4;stroke-dasharray:none;stroke-linejoin:round;stroke-linecap:round" />
  <path
     d="m 1,1 c 0,1 0.654,1.654 1,2 0.345,0.345 0.842,0.212 0.842,0.472 0,0 0.157,0.527 0.657,0.527 l 1.2500001,0 c 0,0.2876366 0.2500001,0.5 0.2500001,0.5 0,0 -0.2500001,0.1404543 -0.2500001,0.5000002 l -1.2500001,0 c -0.5,0 -0.5,0.2499999 -0.5,0.5 0,0.5273339 0,0.9999999 0,0.9999999 0,0.2396973 0.2311002,0.5 0.5,0.5 0.2689,0 1.2500003,0 1.2500001,0 l 0,1 -0.7499999,0 c 0,0.4060258 0.270,0.731 0.749,0.999 0,0.3163531 0,5.5000001 0,5.5000001 0,0.658649 1.499,0.715 1.4999999,0 l 0,-7.5 L 9.75,7 l 0,7.5 c 0,0.691758 1.5,0.643818 1.5,0 0,0 -10e-7,-5.183647 0,-5.5000001 C 11.72,8.688 12,8.4074852 12,8 l -0.75,0 0,-1 c 0,0 0.981099,0 1.25,0 0.220961,0 0.5,-0.2603027 0.5,-0.5 0,0 0,-0.4999999 0,-0.9999999 0,-0.5 -0.274339,-0.5 -0.5,-0.5 l -1.25,0 c 0.02397,-0.2636668 -0.25,-0.5 -0.25,-0.5 0,0 0.25,-0.2123634 0.25,-0.5000002 l 1.25,0 c 0.5,0 0.5,-0.5 0.5,-0.5 C 13,3.2636669 13.58,3.361 14,3 14.41,2.638 15,2 15,1 8.9999999,2 6,2 1,1 Z m 5.249,2.999 c -1.463e-4,0 1.0000002,0 1.0000002,0 l 0,1.0000002 -1.0000002,0 C 6.249,4.712 6,4.4999999 6,4.4999999 c 0,0 0.2499999,-0.1883936 0.2499999,-0.5 z m 2.5000001,0 1,0 c 0,0.2647543 0.2499999,0.5 0.2499999,0.5 0,0 -0.2499999,0.2363334 -0.2499999,0.5000002 l -1,0 z"
     id="path4" />
</svg>
