<?xml version="1.0" encoding="UTF-8" standalone="no"?>
<!-- Created with Inkscape (http://www.inkscape.org/) -->

<svg
   xmlns:dc="http://purl.org/dc/elements/1.1/"
   xmlns:cc="http://creativecommons.org/ns#"
   xmlns:rdf="http://www.w3.org/1999/02/22-rdf-syntax-ns#"
   xmlns:svg="http://www.w3.org/2000/svg"
   xmlns="http://www.w3.org/2000/svg"
   xmlns:sodipodi="http://sodipodi.sourceforge.net/DTD/sodipodi-0.dtd"
   xmlns:inkscape="http://www.inkscape.org/namespaces/inkscape"
   version="1.1"
   width="100%"
   height="100%"
   viewBox="0 0 16 16"
   id="svg2"
   inkscape:version="0.91 r"
   sodipodi:docname="shintoist.16.svg">
  <metadata
     id="metadata10">
    <rdf:RDF>
      <cc:Work
         rdf:about="">
        <dc:format>image/svg+xml</dc:format>
        <dc:type
           rdf:resource="http://purl.org/dc/dcmitype/StillImage" />
      </cc:Work>
    </rdf:RDF>
  </metadata>
  <defs
     id="defs8" />
  <sodipodi:namedview
     pagecolor="#dadada"
     bordercolor="#666666"
     borderopacity="1"
     objecttolerance="10"
     gridtolerance="10"
     guidetolerance="10"
     inkscape:pageopacity="0"
     inkscape:pageshadow="2"
     inkscape:window-width="706"
     inkscape:window-height="480"
     id="namedview6"
     showgrid="false"
     inkscape:zoom="14.75"
     inkscape:cx="8"
     inkscape:cy="8"
     inkscape:window-x="0"
     inkscape:window-y="0"
     inkscape:window-maximized="0"
     inkscape:current-layer="svg2" />
  <path
     inkscape:connector-curvature="0"
     d="m 1,1 c 0,1 0.6545446,1.654855 1,2 0.3454553,0.345145 0.8426782,0.2121799 0.8426782,0.4724826 0,0 0.1573217,0.5275173 0.6573217,0.5275173 l 1.2500001,0 c 0,0.2876366 0.2500001,0.5 0.2500001,0.5 0,0 -0.2500001,0.1404543 -0.2500001,0.5000002 l -1.2500001,0 c -0.5,0 -0.5,0.2499999 -0.5,0.5 0,0.5273339 0,0.9999999 0,0.9999999 0,0.2396973 0.2311002,0.5 0.5,0.5 0.2689,0 1.2500003,0 1.2500001,0 l 0,1 -0.7499999,0 c 0,0.4060258 0.2706055,0.7315864 0.7499999,0.9999999 0,0.3163531 0,5.5000001 0,5.5000001 0,0.658649 1.4999999,0.715727 1.4999999,0 l 0,-7.5 L 9.75,7 l 0,7.5 c 0,0.691758 1.5,0.643818 1.5,0 0,0 -10e-7,-5.183647 0,-5.5000001 C 11.729394,8.6883936 12,8.4074852 12,8 l -0.75,0 0,-1 c 0,0 0.981099,0 1.25,0 0.220961,0 0.5,-0.2603027 0.5,-0.5 0,0 0,-0.4999999 0,-0.9999999 0,-0.5 -0.274339,-0.5 -0.5,-0.5 l -1.25,0 c 0.02397,-0.2636668 -0.25,-0.5 -0.25,-0.5 0,0 0.25,-0.2123634 0.25,-0.5000002 l 1.25,0 c 0.5,0 0.5,-0.5 0.5,-0.5 C 13,3.2636669 13.582844,3.3613872 14,3 14.417156,2.6386128 15,2 15,1 8.9999999,2 6,2 1,1 Z m 5.2499999,2.9999999 c -1.463e-4,0 1.0000002,0 1.0000002,0 l 0,1.0000002 -1.0000002,0 C 6.2499999,4.7123635 6,4.4999999 6,4.4999999 c 0,0 0.2499999,-0.1883936 0.2499999,-0.5 z m 2.5000001,0 1,0 c 0,0.2647543 0.2499999,0.5 0.2499999,0.5 0,0 -0.2499999,0.2363334 -0.2499999,0.5000002 l -1,0 z"
     id="path4-2"
     style="stroke:#ffffff;stroke-width:0.6;stroke-miterlimit:4;stroke-dasharray:none;stroke-linejoin:round;stroke-linecap:round" />
  <path
     inkscape:connector-curvature="0"
     d="m 1,1 c 0,1 0.6545446,1.654855 1,2 0.3454553,0.345145 0.8426782,0.2121799 0.8426782,0.4724826 0,0 0.1573217,0.5275173 0.6573217,0.5275173 l 1.2500001,0 c 0,0.2876366 0.2500001,0.5 0.2500001,0.5 0,0 -0.2500001,0.1404543 -0.2500001,0.5000002 l -1.2500001,0 c -0.5,0 -0.5,0.2499999 -0.5,0.5 0,0.5273339 0,0.9999999 0,0.9999999 0,0.2396973 0.2311002,0.5 0.5,0.5 0.2689,0 1.2500003,0 1.2500001,0 l 0,1 -0.7499999,0 c 0,0.4060258 0.2706055,0.7315864 0.7499999,0.9999999 0,0.3163531 0,5.5000001 0,5.5000001 0,0.658649 1.4999999,0.715727 1.4999999,0 l 0,-7.5 L 9.75,7 l 0,7.5 c 0,0.691758 1.5,0.643818 1.5,0 0,0 -10e-7,-5.183647 0,-5.5000001 C 11.729394,8.6883936 12,8.4074852 12,8 l -0.75,0 0,-1 c 0,0 0.981099,0 1.25,0 0.220961,0 0.5,-0.2603027 0.5,-0.5 0,0 0,-0.4999999 0,-0.9999999 0,-0.5 -0.274339,-0.5 -0.5,-0.5 l -1.25,0 c 0.02397,-0.2636668 -0.25,-0.5 -0.25,-0.5 0,0 0.25,-0.2123634 0.25,-0.5000002 l 1.25,0 c 0.5,0 0.5,-0.5 0.5,-0.5 C 13,3.2636669 13.582844,3.3613872 14,3 14.417156,2.6386128 15,2 15,1 8.9999999,2 6,2 1,1 Z m 5.2499999,2.9999999 c -1.463e-4,0 1.0000002,0 1.0000002,0 l 0,1.0000002 -1.0000002,0 C 6.2499999,4.7123635 6,4.4999999 6,4.4999999 c 0,0 0.2499999,-0.1883936 0.2499999,-0.5 z m 2.5000001,0 1,0 c 0,0.2647543 0.2499999,0.5 0.2499999,0.5 0,0 -0.2499999,0.2363334 -0.2499999,0.5000002 l -1,0 z"
     id="path4" />
</svg>
