<?xml version="1.0" encoding="UTF-8" standalone="no"?>
<svg
   xmlns:dc="http://purl.org/dc/elements/1.1/"
   xmlns:cc="http://creativecommons.org/ns#"
   xmlns:rdf="http://www.w3.org/1999/02/22-rdf-syntax-ns#"
   xmlns:svg="http://www.w3.org/2000/svg"
   xmlns="http://www.w3.org/2000/svg"
   version="1.1"
   width="100%"
   height="100%"
   viewBox="0 0 16 16"
   id="svg2">
  <metadata
     id="metadata10">
    <rdf:RDF>
      <cc:Work
         rdf:about="">
        <dc:format>image/svg+xml</dc:format>
        <dc:type
           rdf:resource="http://purl.org/dc/dcmitype/StillImage" />
      </cc:Work>
    </rdf:RDF>
  </metadata>
  <defs
     id="defs8" />
  <path
     d="M 7.9843342,1 6.9817232,2 C 7.044,2.436 7.060,2.774 7.107,3.156 5.882,3.536 4.976,4.653 4.9765013,6 c 0,1.3565494 0.922,2.472 2.161,2.843 C 7.087,9.219 7.053,9.573 6.9817232,10 l 0.5013055,0.5 0,0.40625 C 6.561,10.28 5.581,9.595 4.9765013,9 2.9436865,7 3.4803233,3.5 5.9791123,2 3.9800811,2.5 2,4.3084098 2,7 c 0,2.9999999 2.9765013,4 2.9765013,5 l 1.002611,-1 1.284,0.718 C 6.649,12.09 5.9791123,12.5 5.9791123,12.5 l 0.5013055,0.5 1.0652741,-0.59375 0,0.71875 C 7.220,13.29 6.981,13.61 6.9817232,14 c 0,0.552285 0.4488843,1 1.002611,1 0.5537267,0 1.002611,-0.447715 1.002611,-1 0,-0.389194 -0.2072042,-0.709749 -0.5326371,-0.875 l 0,-0.71875 L 9.4882507,13 9.9895561,12.5 c 0,0 -0.7067165,-0.44273 -1.2532637,-0.78125 L 9.9895561,11 10.992167,12 C 10.992167,11 14,9.9999999 14,7 14,4.3084098 11.994778,2.5 9.9895561,2 12.496084,3.5 13.031277,7 10.992167,9 10.37,9.603 9.420,10.31 8.485,10.93 l 0,-0.4375 L 8.9869452,10 C 8.917,9.585 8.880,9.225 8.830,8.843 10.06,8.472 10.99,7.356 10.992167,6 c 0,-1.3565494 -0.9229,-2.4727975 -2.1618798,-2.84375 C 8.880,2.774 8.917,2.414 8.9869452,2 L 7.9843342,1 Z M 8.7049608,4.125 C 9.458,4.412 9.989,5.147 9.9895561,6 c 0,0.8525897 -0.5312638,1.5872258 -1.2845953,1.875 -0.1212607,-1.2890411 -0.1212607,-2.4609588 0,-3.75 z M 7.201,4.156 c 0.009,-0.0038 0.022,0.003 0.031332,0 C 7.367,5.546 7.383,6.638 7.2637076,7.875 6.510,7.587 5.979,6.852 5.9791123,6 c 0,-0.8284273 0.5022278,-1.5401335 1.2219321,-1.84375 z M 5.4778068,13 c -0.2768634,0 -0.5013055,0.223858 -0.5013055,0.5 0,0.276142 0.2244421,0.5 0.5013055,0.5 0.2768634,0 0.5013055,-0.223858 0.5013055,-0.5 0,-0.276142 -0.2244421,-0.5 -0.5013055,-0.5 z m 5.0130552,0 c -0.276863,0 -0.5013059,0.223858 -0.5013059,0.5 0,0.276142 0.2244429,0.5 0.5013059,0.5 0.276863,0 0.501305,-0.223858 0.501305,-0.5 0,-0.276142 -0.224442,-0.5 -0.501305,-0.5 z"
     id="path4-7"
     style="stroke:#ffffff;stroke-width:0.6;stroke-miterlimit:4;stroke-dasharray:none;stroke-linejoin:round;stroke-linecap:round" />
  <path
     d="M 7.9843342,1 6.9817232,2 C 7.044,2.436 7.060,2.774 7.107,3.156 5.882,3.536 4.976,4.653 4.9765013,6 c 0,1.3565494 0.922,2.472 2.161,2.843 C 7.087,9.219 7.053,9.573 6.9817232,10 l 0.5013055,0.5 0,0.40625 C 6.561,10.28 5.581,9.595 4.9765013,9 2.9436865,7 3.4803233,3.5 5.9791123,2 3.9800811,2.5 2,4.3084098 2,7 c 0,2.9999999 2.9765013,4 2.9765013,5 l 1.002611,-1 1.284,0.718 C 6.649,12.09 5.9791123,12.5 5.9791123,12.5 l 0.5013055,0.5 1.0652741,-0.59375 0,0.71875 C 7.220,13.29 6.981,13.61 6.9817232,14 c 0,0.552285 0.4488843,1 1.002611,1 0.5537267,0 1.002611,-0.447715 1.002611,-1 0,-0.389194 -0.2072042,-0.709749 -0.5326371,-0.875 l 0,-0.71875 L 9.4882507,13 9.9895561,12.5 c 0,0 -0.7067165,-0.44273 -1.2532637,-0.78125 L 9.9895561,11 10.992167,12 C 10.992167,11 14,9.9999999 14,7 14,4.3084098 11.994778,2.5 9.9895561,2 12.496084,3.5 13.031277,7 10.992167,9 10.37,9.603 9.420,10.31 8.485,10.93 l 0,-0.4375 L 8.9869452,10 C 8.917,9.585 8.880,9.225 8.830,8.843 10.06,8.472 10.99,7.356 10.992167,6 c 0,-1.3565494 -0.9229,-2.4727975 -2.1618798,-2.84375 C 8.880,2.774 8.917,2.414 8.9869452,2 L 7.9843342,1 Z M 8.7049608,4.125 C 9.458,4.412 9.989,5.147 9.9895561,6 c 0,0.8525897 -0.5312638,1.5872258 -1.2845953,1.875 -0.1212607,-1.2890411 -0.1212607,-2.4609588 0,-3.75 z M 7.201,4.156 c 0.009,-0.0038 0.022,0.003 0.031332,0 C 7.367,5.546 7.383,6.638 7.2637076,7.875 6.510,7.587 5.979,6.852 5.9791123,6 c 0,-0.8284273 0.5022278,-1.5401335 1.2219321,-1.84375 z M 5.4778068,13 c -0.2768634,0 -0.5013055,0.223858 -0.5013055,0.5 0,0.276142 0.2244421,0.5 0.5013055,0.5 0.2768634,0 0.5013055,-0.223858 0.5013055,-0.5 0,-0.276142 -0.2244421,-0.5 -0.5013055,-0.5 z m 5.0130552,0 c -0.276863,0 -0.5013059,0.223858 -0.5013059,0.5 0,0.276142 0.2244429,0.5 0.5013059,0.5 0.276863,0 0.501305,-0.223858 0.501305,-0.5 0,-0.276142 -0.224442,-0.5 -0.501305,-0.5 z"
     id="path4" />
</svg>
