<?xml version="1.0" encoding="UTF-8" standalone="no"?>
<svg
   xmlns:dc="http://purl.org/dc/elements/1.1/"
   xmlns:cc="http://creativecommons.org/ns#"
   xmlns:rdf="http://www.w3.org/1999/02/22-rdf-syntax-ns#"
   xmlns:svg="http://www.w3.org/2000/svg"
   xmlns="http://www.w3.org/2000/svg"
   xmlns:sodipodi="http://sodipodi.sourceforge.net/DTD/sodipodi-0.dtd"
   xmlns:inkscape="http://www.inkscape.org/namespaces/inkscape"
   version="1.1"
   width="100%"
   height="100%"
   viewBox="0 0 16 16"
   id="svg2"
   inkscape:version="0.91 r"
   sodipodi:docname="archaeological_site.16.svg">
  <sodipodi:namedview
     pagecolor="#dadada"
     bordercolor="#666666"
     borderopacity="1"
     objecttolerance="10"
     gridtolerance="10"
     guidetolerance="10"
     inkscape:pageopacity="0"
     inkscape:pageshadow="2"
     inkscape:window-width="1600"
     inkscape:window-height="845"
     id="namedview7"
     showgrid="false"
     inkscape:zoom="14.75"
     inkscape:cx="8"
     inkscape:cy="8"
     inkscape:window-x="-2"
     inkscape:window-y="-3"
     inkscape:window-maximized="1"
     inkscape:current-layer="svg2" />
  <metadata
     id="metadata8">
    <rdf:RDF>
      <cc:Work
         rdf:about="">
        <dc:format>image/svg+xml</dc:format>
        <dc:type
           rdf:resource="http://purl.org/dc/dcmitype/StillImage" />
        <dc:title />
      </cc:Work>
    </rdf:RDF>
  </metadata>
  <defs
     id="defs6" />
  <rect
     width="16"
     height="16"
     x="0"
     y="0"
     id="canvas"
     style="visibility:hidden;fill:none;stroke:none" />
  <path
     inkscape:connector-curvature="0"
     d="M 4,1 4,2 5,2 C 5.5988688,2 5.8411383,3.0430706 5.9375,3.90625 4.9652283,3.1499026 4.0249855,2.8795933 3.21875,3.03125 2.1884439,3.2250555 1.5,4.1743045 1.5,5.25 c 0,0.8419164 0.3121164,1.5788561 0.84375,2.34375 0.464621,0.6684787 1.1198438,1.4400576 1.9375,2.375 C 4.6476993,11.327756 5.3223039,12.572304 6,13.25 L 6,14 5,14.5 5,15 l 6,0 0,-0.5 -1,-0.5 0,-0.75 c 0.677696,-0.677696 1.352301,-1.922244 1.71875,-3.28125 0.817656,-0.9349424 1.472879,-1.7065213 1.9375,-2.375 C 14.187884,6.8288561 14.5,6.0919164 14.5,5.25 14.5,4.1743045 13.811556,3.2250555 12.78125,3.03125 11.975015,2.8795933 11.034772,3.1499026 10.0625,3.90625 10.158862,3.0430706 10.401131,2 11,2 L 12,2 12,1 4,1 Z M 3.375,4.03125 c 0.5098367,-0.095903 1.3604039,0.1012462 2.34375,1 C 4.603741,5.1696287 4,6.1495633 4,8 4,8.031196 3.9995172,8.062438 4,8.09375 3.6594765,7.6981019 3.3761871,7.3476871 3.15625,7.03125 2.6878836,6.3573824 2.5,5.8627724 2.5,5.25 2.5,4.5496757 2.8109254,4.1373551 3.375,4.03125 Z m 8.75,0 c 0.188111,-0.027114 0.358981,-0.026526 0.5,0 C 13.189075,4.1373551 13.5,4.5496757 13.5,5.25 13.5,5.8627724 13.312116,6.3573824 12.84375,7.03125 12.623813,7.3476871 12.340524,7.6981019 12,8.09375 12.000483,8.0624382 12,8.0311958 12,8 12,6.1495633 11.396259,5.1696287 10.28125,5.03125 c 0.711357,-0.6501623 1.351767,-0.9290858 1.84375,-1 z"
     id="archaeological-site-4"
     style="fill:#734a08;fill-opacity:1;stroke:#ffffff;stroke-width:0.6;stroke-miterlimit:4;stroke-dasharray:none;stroke-linejoin:round;stroke-linecap:round" />
  <path
     inkscape:connector-curvature="0"
     d="M 4,1 4,2 5,2 C 5.5988688,2 5.8411383,3.0430706 5.9375,3.90625 4.9652283,3.1499026 4.0249855,2.8795933 3.21875,3.03125 2.1884439,3.2250555 1.5,4.1743045 1.5,5.25 c 0,0.8419164 0.3121164,1.5788561 0.84375,2.34375 0.464621,0.6684787 1.1198438,1.4400576 1.9375,2.375 C 4.6476993,11.327756 5.3223039,12.572304 6,13.25 L 6,14 5,14.5 5,15 l 6,0 0,-0.5 -1,-0.5 0,-0.75 c 0.677696,-0.677696 1.352301,-1.922244 1.71875,-3.28125 0.817656,-0.9349424 1.472879,-1.7065213 1.9375,-2.375 C 14.187884,6.8288561 14.5,6.0919164 14.5,5.25 14.5,4.1743045 13.811556,3.2250555 12.78125,3.03125 11.975015,2.8795933 11.034772,3.1499026 10.0625,3.90625 10.158862,3.0430706 10.401131,2 11,2 L 12,2 12,1 4,1 Z M 3.375,4.03125 c 0.5098367,-0.095903 1.3604039,0.1012462 2.34375,1 C 4.603741,5.1696287 4,6.1495633 4,8 4,8.0311958 3.9995172,8.0624382 4,8.09375 3.6594765,7.6981019 3.3761871,7.3476871 3.15625,7.03125 2.6878836,6.3573824 2.5,5.8627724 2.5,5.25 2.5,4.5496757 2.8109254,4.1373551 3.375,4.03125 Z m 8.75,0 c 0.188111,-0.027114 0.358981,-0.026526 0.5,0 C 13.189075,4.1373551 13.5,4.5496757 13.5,5.25 13.5,5.8627724 13.312116,6.3573824 12.84375,7.03125 12.623813,7.3476871 12.340524,7.6981019 12,8.09375 12.000483,8.0624382 12,8.0311958 12,8 12,6.1495633 11.396259,5.1696287 10.28125,5.03125 c 0.711357,-0.6501623 1.351767,-0.9290858 1.84375,-1 z"
     id="archaeological-site"
     style="fill:#734a08;fill-opacity:1;stroke:none" />
</svg>
