<?xml version="1.0" encoding="UTF-8" standalone="no"?>
<svg
   xmlns:dc="http://purl.org/dc/elements/1.1/"
   xmlns:cc="http://creativecommons.org/ns#"
   xmlns:rdf="http://www.w3.org/1999/02/22-rdf-syntax-ns#"
   xmlns:svg="http://www.w3.org/2000/svg"
   xmlns="http://www.w3.org/2000/svg"
   id="svg2"
   viewBox="0 0 16 16"
   height="100%"
   width="100%"
   version="1.1">
  <metadata
     id="metadata8">
    <rdf:RDF>
      <cc:Work
         rdf:about="">
        <dc:format>image/svg+xml</dc:format>
        <dc:type
           rdf:resource="http://purl.org/dc/dcmitype/StillImage" />
        <dc:title />
      </cc:Work>
    </rdf:RDF>
  </metadata>
  <defs
     id="defs6" />
  <rect
     style="visibility:hidden;fill:none;stroke:none"
     id="canvas"
     y="0"
     x="0"
     height="16"
     width="16" />
  <path
     style="fill:#734a08;fill-opacity:1;stroke:#ffffff;stroke-width:0.6;stroke-miterlimit:4;stroke-dasharray:none;stroke-linejoin:round;stroke-linecap:round"
     id="archaeological-site-4"
     d="M 4,1 4,2 5,2 C 5.5988688,2 5.841,3.043 5.937,3.906 4.965,3.149 4.024,2.879 3.218,3.031 2.188,3.225 1.5,4.1743045 1.5,5.25 c 0,0.8419164 0.312,1.578 0.843,2.343 0.464,0.668 1.119,1.440 1.9375,2.375 C 4.647,11.32 5.322,12.57 6,13.25 L 6,14 5,14.5 5,15 l 6,0 0,-0.5 -1,-0.5 0,-0.75 c 0.677696,-0.677696 1.352301,-1.922244 1.71875,-3.28125 0.817656,-0.9349424 1.472879,-1.7065213 1.9375,-2.375 C 14.18,6.828 14.5,6.0919164 14.5,5.25 14.5,4.1743045 13.81,3.225 12.78,3.031 11.97,2.879 11.03,3.149 10.06,3.906 10.15,3.043 10.401131,2 11,2 L 12,2 12,1 4,1 Z M 3.375,4.03125 c 0.5098367,-0.095903 1.360,0.101 2.34375,1 C 4.603,5.169 4,6.1495633 4,8 4,8.031196 3.999,8.062 4,8.09375 3.659,7.698 3.376,7.347 3.156,7.031 2.687,6.357 2.5,5.8627724 2.5,5.25 2.5,4.5496757 2.810,4.137 3.375,4.03125 Z m 8.75,0 c 0.188111,-0.027114 0.358981,-0.026526 0.5,0 C 13.18,4.137 13.5,4.5496757 13.5,5.25 13.5,5.8627724 13.31,6.357 12.84,7.031 12.62,7.347 12.34,7.698 12,8.09375 12.00,8.062 12,8.0311958 12,8 12,6.1495633 11.39,5.169 10.28,5.031 c 0.711357,-0.6501623 1.351767,-0.9290858 1.84375,-1 z" />
  <path
     style="fill:#734a08;fill-opacity:1;stroke:none"
     id="archaeological-site"
     d="M 4,1 4,2 5,2 C 5.5988688,2 5.841,3.043 5.937,3.906 4.965,3.149 4.024,2.879 3.218,3.031 2.188,3.225 1.5,4.1743045 1.5,5.25 c 0,0.8419164 0.312,1.578 0.843,2.343 0.464,0.668 1.119,1.440 1.9375,2.375 C 4.647,11.32 5.322,12.57 6,13.25 L 6,14 5,14.5 5,15 l 6,0 0,-0.5 -1,-0.5 0,-0.75 c 0.677696,-0.677696 1.352301,-1.922244 1.71875,-3.28125 0.817656,-0.9349424 1.472879,-1.7065213 1.9375,-2.375 C 14.18,6.828 14.5,6.0919164 14.5,5.25 14.5,4.1743045 13.81,3.225 12.78,3.031 11.97,2.879 11.03,3.149 10.06,3.906 10.15,3.043 10.401131,2 11,2 L 12,2 12,1 4,1 Z M 3.375,4.03125 c 0.5098367,-0.095903 1.360,0.101 2.34375,1 C 4.603,5.169 4,6.1495633 4,8 4,8.0311958 3.999,8.062 4,8.09375 3.659,7.698 3.376,7.347 3.156,7.031 2.687,6.357 2.5,5.8627724 2.5,5.25 2.5,4.5496757 2.810,4.137 3.375,4.03125 Z m 8.75,0 c 0.188111,-0.027114 0.358981,-0.026526 0.5,0 C 13.18,4.137 13.5,4.5496757 13.5,5.25 13.5,5.8627724 13.31,6.357 12.84,7.031 12.62,7.347 12.34,7.698 12,8.09375 12.00,8.062 12,8.0311958 12,8 12,6.1495633 11.39,5.169 10.28,5.031 c 0.711357,-0.6501623 1.351767,-0.9290858 1.84375,-1 z" />
</svg>
