<?xml version="1.0" encoding="UTF-8" standalone="no"?>
<svg
   xmlns:dc="http://purl.org/dc/elements/1.1/"
   xmlns:cc="http://creativecommons.org/ns#"
   xmlns:rdf="http://www.w3.org/1999/02/22-rdf-syntax-ns#"
   xmlns:svg="http://www.w3.org/2000/svg"
   xmlns="http://www.w3.org/2000/svg"
   id="svg2"
   viewBox="0 0 16 16"
   height="100%"
   width="100%"
   version="1.1">
  <metadata
     id="metadata30">
    <rdf:RDF>
      <cc:Work
         rdf:about="">
        <dc:format>image/svg+xml</dc:format>
        <dc:type
           rdf:resource="http://purl.org/dc/dcmitype/StillImage" />
        <dc:title></dc:title>
      </cc:Work>
    </rdf:RDF>
  </metadata>
  <defs
     id="defs28" />
  <path
     style="fill:#734a08;fill-opacity:1;stroke:#ffffff;stroke-width:0.6;stroke-miterlimit:4;stroke-dasharray:none"
     d="m 8.0677966,1.427323 c -0.6627,0 -1.1992,0.51718 -1.1992,1.15625 0,0.63907 0.5365,1.15625 1.1992,1.15625 0.6628,0 1.1991997,-0.51718 1.1991997,-1.15625 0,-0.63907 -0.5363997,-1.15625 -1.1991997,-1.15625 z m -1.1992,3.00976 c -0.4219,0 -0.8008,0.37419 -0.8008,0.7793 0,0.77976 1.4004,3.13121 1.4004,3.89844 l 0,2.33984 1.1992,0 0,-2.33984 c 0,-0.75205 1.4003994,-3.11868 1.4003994,-3.89844 0,-0.43151 -0.3596997,-0.7793 -0.8007997,-0.7793 l -2.3983997,0 z m -0.8008,8 c -0.6666,0 -0.666,0.66732 -0.666,1.33399 l -0.668,0 -0.666,0.66601 7.9999994,0 -0.666,-0.66601 -0.668,0 c 0,-0.66667 7e-4,-1.33399 -0.666,-1.33399 l -3.9999994,0 z"
     id="monument-0" />
  <path
     style="fill:#734a08;fill-opacity:1;stroke:none"
     d="m 8.0677966,1.4273234 c -0.6627,0 -1.1992,0.51718 -1.1992,1.15625 0,0.63907 0.5365,1.15625 1.1992,1.15625 0.6628,0 1.1991997,-0.51718 1.1991997,-1.15625 0,-0.63907 -0.5363997,-1.15625 -1.1991997,-1.15625 z m -1.1992,3.00976 c -0.4219,0 -0.8008,0.37419 -0.8008,0.7793 0,0.77976 1.4004,3.13121 1.4004,3.89844 l 0,2.3398396 1.1992,0 0,-2.3398396 c 0,-0.75205 1.4003994,-3.11868 1.4003994,-3.89844 0,-0.43151 -0.3596997,-0.7793 -0.8007997,-0.7793 l -2.3983997,0 z m -0.8008,7.9999996 c -0.6666,0 -0.666,0.66732 -0.666,1.33399 l -0.668,0 -0.666,0.66601 7.9999994,0 -0.666,-0.66601 -0.668,0 c 0,-0.66667 7e-4,-1.33399 -0.666,-1.33399 l -3.9999994,0 z"
     id="monument" />
</svg>
