<?xml version="1.0" encoding="UTF-8" standalone="no"?>
<svg
   xmlns:dc="http://purl.org/dc/elements/1.1/"
   xmlns:cc="http://creativecommons.org/ns#"
   xmlns:rdf="http://www.w3.org/1999/02/22-rdf-syntax-ns#"
   xmlns:svg="http://www.w3.org/2000/svg"
   xmlns="http://www.w3.org/2000/svg"
   id="svg2"
   viewBox="0 0 16 16"
   height="100%"
   width="100%"
   version="1.1">
  <metadata
     id="metadata10">
    <rdf:RDF>
      <cc:Work
         rdf:about="">
        <dc:format>image/svg+xml</dc:format>
        <dc:type
           rdf:resource="http://purl.org/dc/dcmitype/StillImage" />
      </cc:Work>
    </rdf:RDF>
  </metadata>
  <defs
     id="defs8" />
  <path
     style="fill:#734a08;fill-opacity:1;stroke:#ffffff;stroke-width:0.6;stroke-miterlimit:4;stroke-dasharray:none;stroke-linejoin:round;stroke-linecap:round"
     id="path4-0"
     d="M 2,1 C 1.4576271,1 1,1.4576271 1,2 l 0,2 c 0,0.559322 0.4886174,1 1,1 l 0,-2 12,0 0,2 c 0.511382,0 1,-0.4857094 1,-1 L 15,2 C 15,1.4576271 14.508475,1 14,1 Z m 1,3 0,8 c 0,0.599243 0.400757,1 1,1 l 8,0 c 0.527334,0 1,-0.448696 1,-1 l 0,-8 -1,0 0,6 c -1,0 -2,1 -2,2 L 6,12 C 6,11 5,10 4,10 L 4,4 Z M 8,5 C 6.4292037,5 5,5.9528024 5,7 5,8.0471976 6.4292037,9 8,9 9.5707963,9 11,8.0471976 11,7 11,5.9528024 9.5707963,5 8,5 Z M 3,13.5 C 3,14.554668 3.4247267,15 4,15 l 8,0 c 0.527334,0 1,-0.445332 1,-1.5 -0.305085,0.271186 -0.496636,0.49272 -1,0.46875 l -8,0.0625 C 3.520,14.00 3.305,13.80 3,13.5 Z" />
  <path
     style="fill:#734a08;fill-opacity:1"
     id="path4"
     d="M 2,1 C 1.4576271,1 1,1.4576271 1,2 l 0,2 c 0,0.559322 0.4886174,1 1,1 l 0,-2 12,0 0,2 c 0.511382,0 1,-0.4857094 1,-1 L 15,2 C 15,1.4576271 14.508475,1 14,1 Z m 1,3 0,8 c 0,0.599243 0.400757,1 1,1 l 8,0 c 0.527334,0 1,-0.448696 1,-1 l 0,-8 -1,0 0,6 c -1,0 -2,1 -2,2 L 6,12 C 6,11 5,10 4,10 L 4,4 Z M 8,5 C 6.4292037,5 5,5.9528024 5,7 5,8.0471976 6.4292037,9 8,9 9.5707963,9 11,8.0471976 11,7 11,5.9528024 9.5707963,5 8,5 Z M 3,13.5 C 3,14.554668 3.4247267,15 4,15 l 8,0 c 0.527334,0 1,-0.445332 1,-1.5 -0.305085,0.271186 -0.496636,0.49272 -1,0.46875 l -8,0.0625 C 3.520,14.00 3.305,13.80 3,13.5 Z" />
</svg>
