<?xml version="1.0" encoding="UTF-8" standalone="no"?>
<!-- Created with Inkscape (http://www.inkscape.org/) -->

<svg
   xmlns:dc="http://purl.org/dc/elements/1.1/"
   xmlns:cc="http://creativecommons.org/ns#"
   xmlns:rdf="http://www.w3.org/1999/02/22-rdf-syntax-ns#"
   xmlns:svg="http://www.w3.org/2000/svg"
   xmlns="http://www.w3.org/2000/svg"
   xmlns:sodipodi="http://sodipodi.sourceforge.net/DTD/sodipodi-0.dtd"
   xmlns:inkscape="http://www.inkscape.org/namespaces/inkscape"
   version="1.1"
   width="100%"
   height="100%"
   viewBox="0 0 16 16"
   id="svg2"
   inkscape:version="0.91 r"
   sodipodi:docname="bank.16.svg">
  <metadata
     id="metadata10">
    <rdf:RDF>
      <cc:Work
         rdf:about="">
        <dc:format>image/svg+xml</dc:format>
        <dc:type
           rdf:resource="http://purl.org/dc/dcmitype/StillImage" />
      </cc:Work>
    </rdf:RDF>
  </metadata>
  <defs
     id="defs8" />
  <sodipodi:namedview
     pagecolor="#dadada"
     bordercolor="#666666"
     borderopacity="1"
     objecttolerance="10"
     gridtolerance="10"
     guidetolerance="10"
     inkscape:pageopacity="0"
     inkscape:pageshadow="2"
     inkscape:window-width="1600"
     inkscape:window-height="845"
     id="namedview6"
     showgrid="false"
     inkscape:zoom="14.75"
     inkscape:cx="8"
     inkscape:cy="8"
     inkscape:window-x="-2"
     inkscape:window-y="-3"
     inkscape:window-maximized="1"
     inkscape:current-layer="svg2" />
  <path
     inkscape:connector-curvature="0"
     d="m 1,3 0,7 c 0,0.627119 0.4237288,1 1,1 l 12,0 c 0.576271,0 1,-0.423729 1,-1 L 15,3 1,3 Z m 3,1 8,0 c 0,1 1,2 2,2 l 0,2 c -1,0 -2,1 -2,2 L 4,10 C 4,9 3,8 2,8 L 2,6 C 3,6 4,5 4,4 Z M 8,5 C 6.3431459,5 5,5.8954305 5,7 5,8.1045695 6.3431459,9 8,9 9.6568547,9 11,8.1045695 11,7 11,5.8954305 9.6568547,5 8,5 Z M 1,11.5 C 1,12.626577 1.4486964,13 2,13 l 12,0 c 0.551304,0 1,-0.445333 1,-1.5 -0.288136,0.271186 -0.559322,0.5 -1,0.5 L 2,12 C 1.559322,12 1.2711864,11.754237 1,11.5 Z"
     id="path4-7"
     style="fill:#734a08;fill-opacity:1;stroke:#ffffff;stroke-width:0.6;stroke-miterlimit:4;stroke-dasharray:none;stroke-linejoin:round;stroke-linecap:round" />
  <path
     inkscape:connector-curvature="0"
     d="m 1,3 0,7 c 0,0.627119 0.4237288,1 1,1 l 12,0 c 0.576271,0 1,-0.423729 1,-1 L 15,3 1,3 Z m 3,1 8,0 c 0,1 1,2 2,2 l 0,2 c -1,0 -2,1 -2,2 L 4,10 C 4,9 3,8 2,8 L 2,6 C 3,6 4,5 4,4 Z M 8,5 C 6.3431459,5 5,5.8954305 5,7 5,8.1045695 6.3431459,9 8,9 9.6568547,9 11,8.1045695 11,7 11,5.8954305 9.6568547,5 8,5 Z M 1,11.5 C 1,12.626577 1.4486964,13 2,13 l 12,0 c 0.551304,0 1,-0.445333 1,-1.5 -0.288136,0.271186 -0.559322,0.5 -1,0.5 L 2,12 C 1.559322,12 1.2711864,11.754237 1,11.5 Z"
     id="path4"
     style="fill:#734a08;fill-opacity:1" />
</svg>
