<?xml version="1.0" encoding="UTF-8" standalone="no"?>
<svg
   xmlns:dc="http://purl.org/dc/elements/1.1/"
   xmlns:cc="http://creativecommons.org/ns#"
   xmlns:rdf="http://www.w3.org/1999/02/22-rdf-syntax-ns#"
   xmlns:svg="http://www.w3.org/2000/svg"
   xmlns="http://www.w3.org/2000/svg"
   id="svg2"
   viewBox="0 0 16 16"
   height="100%"
   width="100%"
   version="1.1">
  <metadata
     id="metadata10">
    <rdf:RDF>
      <cc:Work
         rdf:about="">
        <dc:format>image/svg+xml</dc:format>
        <dc:type
           rdf:resource="http://purl.org/dc/dcmitype/StillImage" />
      </cc:Work>
    </rdf:RDF>
  </metadata>
  <defs
     id="defs8" />
  <path
     style="fill:#734a08;fill-opacity:1;stroke:#ffffff;stroke-width:0.6;stroke-miterlimit:4;stroke-dasharray:none;stroke-linejoin:round;stroke-linecap:round"
     id="path4-7"
     d="m 1,3 0,7 c 0,0.627119 0.4237288,1 1,1 l 12,0 c 0.576271,0 1,-0.423729 1,-1 L 15,3 1,3 Z m 3,1 8,0 c 0,1 1,2 2,2 l 0,2 c -1,0 -2,1 -2,2 L 4,10 C 4,9 3,8 2,8 L 2,6 C 3,6 4,5 4,4 Z M 8,5 C 6.3431459,5 5,5.8954305 5,7 5,8.1045695 6.3431459,9 8,9 9.6568547,9 11,8.1045695 11,7 11,5.8954305 9.6568547,5 8,5 Z M 1,11.5 C 1,12.626577 1.4486964,13 2,13 l 12,0 c 0.551304,0 1,-0.445333 1,-1.5 -0.288136,0.271186 -0.559322,0.5 -1,0.5 L 2,12 C 1.559322,12 1.271,11.75 1,11.5 Z" />
  <path
     style="fill:#734a08;fill-opacity:1"
     id="path4"
     d="m 1,3 0,7 c 0,0.627119 0.4237288,1 1,1 l 12,0 c 0.576271,0 1,-0.423729 1,-1 L 15,3 1,3 Z m 3,1 8,0 c 0,1 1,2 2,2 l 0,2 c -1,0 -2,1 -2,2 L 4,10 C 4,9 3,8 2,8 L 2,6 C 3,6 4,5 4,4 Z M 8,5 C 6.3431459,5 5,5.8954305 5,7 5,8.1045695 6.3431459,9 8,9 9.6568547,9 11,8.1045695 11,7 11,5.8954305 9.6568547,5 8,5 Z M 1,11.5 C 1,12.626577 1.4486964,13 2,13 l 12,0 c 0.551304,0 1,-0.445333 1,-1.5 -0.288136,0.271186 -0.559322,0.5 -1,0.5 L 2,12 C 1.559322,12 1.271,11.75 1,11.5 Z" />
</svg>
