<?xml version="1.0" encoding="UTF-8" standalone="no"?>
<!-- Created with Inkscape (http://www.inkscape.org/) -->

<svg
   xmlns:dc="http://purl.org/dc/elements/1.1/"
   xmlns:cc="http://creativecommons.org/ns#"
   xmlns:rdf="http://www.w3.org/1999/02/22-rdf-syntax-ns#"
   xmlns:svg="http://www.w3.org/2000/svg"
   xmlns="http://www.w3.org/2000/svg"
   xmlns:sodipodi="http://sodipodi.sourceforge.net/DTD/sodipodi-0.dtd"
   xmlns:inkscape="http://www.inkscape.org/namespaces/inkscape"
   version="1.1"
   width="100%"
   height="100%"
   viewBox="0 0 16 16"
   id="svg2"
   inkscape:version="0.91 r"
   sodipodi:docname="cafe.16.svg">
  <metadata
     id="metadata10">
    <rdf:RDF>
      <cc:Work
         rdf:about="">
        <dc:format>image/svg+xml</dc:format>
        <dc:type
           rdf:resource="http://purl.org/dc/dcmitype/StillImage" />
      </cc:Work>
    </rdf:RDF>
  </metadata>
  <defs
     id="defs8" />
  <sodipodi:namedview
     pagecolor="#dadada"
     bordercolor="#666666"
     borderopacity="1"
     objecttolerance="10"
     gridtolerance="10"
     guidetolerance="10"
     inkscape:pageopacity="0"
     inkscape:pageshadow="2"
     inkscape:window-width="1600"
     inkscape:window-height="845"
     id="namedview6"
     showgrid="false"
     inkscape:zoom="14.75"
     inkscape:cx="8"
     inkscape:cy="8"
     inkscape:window-x="-2"
     inkscape:window-y="-3"
     inkscape:window-maximized="1"
     inkscape:current-layer="svg2" />
  <path
     inkscape:connector-curvature="0"
     d="m 2,2 0,6 c 0,2 2,3 4.5,3 C 9,11 11,10 11,8 l 2,0 c 1,0 2,-1 2,-2 L 15,5 C 15,4 14,3 13,3 l -2,0 0,-1 z m 9,2.25 1.75,0 c 0.667788,0 1,0.5628359 1,1.25 0,0.6871641 -0.388201,1.25 -1,1.25 L 11,6.75 Z M 1,12 c 0,1 1,2 2,2 l 7,0 c 1,0 2,-1 2,-2 z"
     id="path4-7"
     style="fill:#734a08;fill-opacity:1;stroke:#ffffff;stroke-width:0.6;stroke-miterlimit:4;stroke-dasharray:none;stroke-linejoin:round;stroke-linecap:round" />
  <path
     inkscape:connector-curvature="0"
     d="m 2,2 0,6 c 0,2 2,3 4.5,3 C 9,11 11,10 11,8 l 2,0 c 1,0 2,-1 2,-2 L 15,5 C 15,4 14,3 13,3 l -2,0 0,-1 z m 9,2.25 1.75,0 c 0.667788,0 1,0.5628359 1,1.25 0,0.6871641 -0.388201,1.25 -1,1.25 L 11,6.75 Z M 1,12 c 0,1 1,2 2,2 l 7,0 c 1,0 2,-1 2,-2 z"
     id="path4"
     style="fill:#734a08;fill-opacity:1" />
</svg>
