<?xml version="1.0" encoding="UTF-8" standalone="no"?>
<svg
   xmlns:dc="http://purl.org/dc/elements/1.1/"
   xmlns:cc="http://creativecommons.org/ns#"
   xmlns:rdf="http://www.w3.org/1999/02/22-rdf-syntax-ns#"
   xmlns:svg="http://www.w3.org/2000/svg"
   xmlns="http://www.w3.org/2000/svg"
   id="svg2"
   viewBox="0 0 16 16"
   height="100%"
   width="100%"
   version="1.1">
  <metadata
     id="metadata30">
    <rdf:RDF>
      <cc:Work
         rdf:about="">
        <dc:format>image/svg+xml</dc:format>
        <dc:type
           rdf:resource="http://purl.org/dc/dcmitype/StillImage" />
        <dc:title></dc:title>
      </cc:Work>
    </rdf:RDF>
  </metadata>
  <defs
     id="defs28" />
  <path
     id="path4290-2"
     style="fill:#734a08;fill-opacity:1;fill-rule:evenodd;stroke:none;stroke-opacity:1"
     d="m 5.9999999,3.2033898 -2,3 -1,0 2,-3 z m 3.9999997,0 2.0000004,3 1,0 -2,-3 z m -2.4999996,0 0.9999996,0 0,3 -0.9999996,0 z m -0.5,-2 -2.0000001,1 6.0000001,0 -2.0000004,-1 z m -2.0000001,6 -1,3.0000002 c -0.472666,0 -1,0.384295 -1,1 l 0,3 1,0 c 0,0 0,1 1,1 1,0 1,-1 1,-1 l 3.9999997,0 c 0,0 0,1 1.0000004,1 1,0 1,-1 1,-1 l 1,0 0,-3 c 0,-0.520606 -0.455425,-1 -1,-1 l -1,-3.0000002 -6.0000001,0 z m 1,1 3.9999997,0 0.6250004,2.0000002 -5.2500001,0 0.625,-2.0000002 z m -1,3.2500002 c 0.414214,0 0.75,0.335786 0.75,0.75 0,0.414214 -0.335786,0.75 -0.75,0.75 -0.414214,0 -0.75,-0.335786 -0.75,-0.75 0,-0.414214 0.335786,-0.75 0.75,-0.75 z m 6.0000001,0 c 0.414214,0 0.75,0.335786 0.75,0.75 0,0.414214 -0.335786,0.75 -0.75,0.75 -0.414214,0 -0.75,-0.335786 -0.75,-0.75 0,-0.414214 0.335786,-0.75 0.75,-0.75 z" />
</svg>
