<?xml version="1.0" encoding="UTF-8" standalone="no"?>
<svg
   xmlns:dc="http://purl.org/dc/elements/1.1/"
   xmlns:cc="http://creativecommons.org/ns#"
   xmlns:rdf="http://www.w3.org/1999/02/22-rdf-syntax-ns#"
   xmlns:svg="http://www.w3.org/2000/svg"
   xmlns="http://www.w3.org/2000/svg"
   id="svg2"
   viewBox="0 0 16 16"
   height="100%"
   width="100%"
   version="1.1">
  <metadata
     id="metadata30">
    <rdf:RDF>
      <cc:Work
         rdf:about="">
        <dc:format>image/svg+xml</dc:format>
        <dc:type
           rdf:resource="http://purl.org/dc/dcmitype/StillImage" />
        <dc:title></dc:title>
      </cc:Work>
    </rdf:RDF>
  </metadata>
  <defs
     id="defs28" />
  <path
     id="path4185-3"
     style="fill:#734a08;fill-opacity:1;fill-rule:evenodd;stroke:#ffffff;stroke-opacity:1;stroke-width:0.6;stroke-miterlimit:4;stroke-dasharray:none"
     d="M 4,11.5 C 4,10.5 6,7.5 7.976371,7.5000697 10,7.5 12,10.5 12,11.5 l -4,0 z m 4,-7 c -3,0 -7,3.9999997 -7,7 l 1,0 c 0,-3.0000003 4,-6 6,-6 2,0 6,2.9999997 6,6 l 1,0 c 0,-3.0000003 -4,-7 -7,-7 z" />
  <rect
     style="visibility:hidden;fill:none;stroke:none"
     id="canvas"
     y="-7.6101694"
     x="-20.220339"
     height="14"
     width="14" />
  <path
     id="path4185"
     style="fill:#734a08;fill-opacity:1;fill-rule:evenodd;stroke:none;stroke-opacity:1"
     d="M 4,11.5 C 4,10.5 6,7.5000001 7.976371,7.5000698 10,7.5000001 12,10.5 12,11.5 l -4,0 z M 8,4.5000001 c -3,0 -7,3.9999997 -7,6.9999999 l 1,0 C 2,8.4999998 6,5.5000001 8,5.5000001 c 2,0 6,2.9999997 6,5.9999999 l 1,0 C 15,8.4999998 11,4.5000001 8,4.5000001 Z" />
</svg>
