<?xml version="1.0" encoding="UTF-8" standalone="no"?>
<svg
   xmlns:dc="http://purl.org/dc/elements/1.1/"
   xmlns:cc="http://creativecommons.org/ns#"
   xmlns:rdf="http://www.w3.org/1999/02/22-rdf-syntax-ns#"
   xmlns:svg="http://www.w3.org/2000/svg"
   xmlns="http://www.w3.org/2000/svg"
   version="1.1"
   width="100%"
   height="100%"
   viewBox="0 0 14 14"
   id="svg2">
  <metadata
     id="metadata8">
    <rdf:RDF>
      <cc:Work
         rdf:about="">
        <dc:format>image/svg+xml</dc:format>
        <dc:type
           rdf:resource="http://purl.org/dc/dcmitype/StillImage" />
        <dc:title />
      </cc:Work>
    </rdf:RDF>
  </metadata>
  <defs
     id="defs6" />
  <rect
     width="14"
     height="14"
     x="0"
     y="0"
     id="canvas"
     style="visibility:hidden;fill:none;stroke:none" />
  <path
     id="path4139-0-6"
     style="fill:#734a08;fill-opacity:1;fill-rule:evenodd;stroke:#ffffff;stroke-opacity:1;stroke-width:0.6;stroke-miterlimit:4;stroke-dasharray:none;stroke-linejoin:round;stroke-linecap:round"
     d="m 11.01,2.957 c 0,0.7441802 -0.592622,1.3474576 -1.3236577,1.3474576 -0.7310361,0 -1.3236582,-0.6032774 -1.3236582,-1.3474576 0,-0.7441803 0.5926221,-1.3474576 1.3236582,-1.3474576 0.7310357,0 1.323,0.603 1.323,1.347 z m -7.6117933,3.1440678 1.7966101,0 0,2.6949153 -1.7966101,0 z M 5.628,2.957 c 0,0.7441802 -0.5926221,1.3474576 -1.3236582,1.3474576 -0.7310361,0 -1.3236581,-0.6032774 -1.3236581,-1.3474576 0,-0.7441803 0.592622,-1.3474576 1.3236581,-1.3474576 0.7310361,0 1.323,0.603 1.323,1.347 z m -4.91687849,2.2457627 6.28813559,0 0,0.8983051 -6.28813559,0 z m 0.898,7.186 1.7966102,-3.5932213 0.898305,0 -1.7966101,3.5932213 z m 5.3898305,0 -1.7966102,-3.5932213 -0.8983051,0 1.796,3.593 z m 1.7966102,-6.2881366 1.7966098,0 0,2.6949153 -1.7966098,0 z M 7,5.2033893 l 6.288136,0 0,0.8983051 -6.288136,0 z m 0,7.1864417 1.7966102,-3.5932213 0.8983051,0 -1.7966102,3.5932213 z m 5.389831,0 -1.796611,-3.5932213 -0.8983047,0 1.796,3.593 z" />
  <path
     id="path4139-0"
     style="fill:#734a08;fill-opacity:1;fill-rule:evenodd;stroke:none;stroke-opacity:1"
     d="m 11.01,2.957 c 0,0.7441802 -0.592622,1.3474576 -1.3236577,1.3474576 -0.7310361,0 -1.3236582,-0.6032774 -1.3236582,-1.3474576 0,-0.7441803 0.5926221,-1.3474576 1.3236582,-1.3474576 0.7310357,0 1.323,0.603 1.323,1.347 z m -7.6117933,3.1440678 1.7966101,0 0,2.6949153 -1.7966101,0 z M 5.628,2.957 c 0,0.7441802 -0.5926221,1.3474576 -1.3236582,1.3474576 -0.7310361,0 -1.3236581,-0.6032774 -1.3236581,-1.3474576 0,-0.7441803 0.592622,-1.3474576 1.3236581,-1.3474576 0.7310361,0 1.323,0.603 1.323,1.347 z m -4.91687849,2.2457627 6.28813559,0 0,0.8983051 -6.28813559,0 z m 0.898,7.186 1.7966102,-3.5932208 0.898305,0 -1.7966101,3.5932208 z m 5.3898305,0 -1.7966102,-3.5932208 -0.8983051,0 1.796,3.593 z m 1.7966102,-6.2881361 1.7966098,0 0,2.6949153 -1.7966098,0 z M 7,5.2033898 l 6.288136,0 0,0.8983051 -6.288136,0 z m 0,7.1864412 1.7966102,-3.5932208 0.8983051,0 -1.7966102,3.5932208 z m 5.389831,0 -1.796611,-3.5932208 -0.8983047,0 1.796,3.593 z" />
</svg>
