<?xml version="1.0" encoding="UTF-8" standalone="no"?>
<svg
   xmlns:dc="http://purl.org/dc/elements/1.1/"
   xmlns:cc="http://creativecommons.org/ns#"
   xmlns:rdf="http://www.w3.org/1999/02/22-rdf-syntax-ns#"
   xmlns:svg="http://www.w3.org/2000/svg"
   xmlns="http://www.w3.org/2000/svg"
   id="svg2"
   viewBox="0 0 16 16"
   height="100%"
   width="100%"
   version="1.1">
  <metadata
     id="metadata8">
    <rdf:RDF>
      <cc:Work
         rdf:about="">
        <dc:format>image/svg+xml</dc:format>
        <dc:type
           rdf:resource="http://purl.org/dc/dcmitype/StillImage" />
        <dc:title />
      </cc:Work>
    </rdf:RDF>
  </metadata>
  <defs
     id="defs6" />
  <rect
     style="visibility:hidden;fill:none;stroke:none"
     id="canvas"
     y="0"
     x="0"
     height="16"
     width="16" />
  <path
     style="fill:#734a08;fill-opacity:1;stroke:#ffffff;stroke-width:0.6;stroke-miterlimit:4;stroke-dasharray:none;stroke-linejoin:round;stroke-linecap:round"
     id="courthouse-8"
     d="M 8,1 C 7,1 7,2 7,2 L 3.25,3 3.25,4 1,9 c 0,1 0.792008,2 2.5,2 C 5.207992,11 6,10 6,9 L 3.75,4 7,4 7,14 3,14 2,15 14,15 13,14 9,14 9,4 12.25,4 10,9 c 0,1 0.77294,2 2.5,2 1.72706,0 2.5,-1 2.5,-2 L 12.75,4 12.75,3 9,2 C 9,2 9,1 8,1 Z M 3.5,5 5.25,9 1.75,9 Z m 9,0 1.75,4 -3.5,0 z" />
  <path
     style="fill:#734a08;fill-opacity:1"
     id="courthouse"
     d="M 8,1 C 7,1 7,2 7,2 L 3.25,3 3.25,4 1,9 c 0,1 0.792008,2 2.5,2 C 5.207992,11 6,10 6,9 L 3.75,4 7,4 7,14 3,14 2,15 14,15 13,14 9,14 9,4 12.25,4 10,9 c 0,1 0.77294,2 2.5,2 1.72706,0 2.5,-1 2.5,-2 L 12.75,4 12.75,3 9,2 C 9,2 9,1 8,1 Z M 3.5,5 5.25,9 1.75,9 Z m 9,0 1.75,4 -3.5,0 z" />
</svg>
