<?xml version="1.0" encoding="UTF-8" standalone="no"?>
<!-- Created with Inkscape (http://www.inkscape.org/) -->

<svg
   xmlns:dc="http://purl.org/dc/elements/1.1/"
   xmlns:cc="http://creativecommons.org/ns#"
   xmlns:rdf="http://www.w3.org/1999/02/22-rdf-syntax-ns#"
   xmlns:svg="http://www.w3.org/2000/svg"
   xmlns="http://www.w3.org/2000/svg"
   xmlns:sodipodi="http://sodipodi.sourceforge.net/DTD/sodipodi-0.dtd"
   xmlns:inkscape="http://www.inkscape.org/namespaces/inkscape"
   version="1.1"
   width="100%"
   height="100%"
   viewBox="0 0 16 16"
   id="svg2"
   inkscape:version="0.91 r"
   sodipodi:docname="drinking_water.16.svg">
  <metadata
     id="metadata10">
    <rdf:RDF>
      <cc:Work
         rdf:about="">
        <dc:format>image/svg+xml</dc:format>
        <dc:type
           rdf:resource="http://purl.org/dc/dcmitype/StillImage" />
      </cc:Work>
    </rdf:RDF>
  </metadata>
  <defs
     id="defs8" />
  <sodipodi:namedview
     pagecolor="#dadada"
     bordercolor="#666666"
     borderopacity="1"
     objecttolerance="10"
     gridtolerance="10"
     guidetolerance="10"
     inkscape:pageopacity="0"
     inkscape:pageshadow="2"
     inkscape:window-width="1600"
     inkscape:window-height="845"
     id="namedview6"
     showgrid="false"
     inkscape:zoom="14.75"
     inkscape:cx="8"
     inkscape:cy="8"
     inkscape:window-x="-2"
     inkscape:window-y="-3"
     inkscape:window-maximized="1"
     inkscape:current-layer="svg2" />
  <path
     inkscape:connector-curvature="0"
     d="m 2,7 1.5,8 5,0 L 10,7 Z M 3.18,8 8.81,8 8.44,10 3.55,10 M 5,6 C 5,4 6,3 8,3 L 9,3 9,2 8,2 C 7,2 7,1 8,1 l 3,0 c 1,0 1,1 0,1 l -1,0 0,1 4,0 0,1.5 -6,0 C 6.9152599,4.4911116 6.5,4.9824765 6.5,6 Z"
     id="path4-9"
     style="fill:#734a08;fill-opacity:1;stroke:#ffffff;stroke-width:0.6;stroke-miterlimit:4;stroke-dasharray:none;stroke-linejoin:round;stroke-linecap:round" />
  <path
     inkscape:connector-curvature="0"
     d="m 2,7 1.5,8 5,0 L 10,7 Z M 3.18,8 8.81,8 8.44,10 3.55,10 M 5,6 C 5,4 6,3 8,3 L 9,3 9,2 8,2 C 7,2 7,1 8,1 l 3,0 c 1,0 1,1 0,1 l -1,0 0,1 4,0 0,1.5 -6,0 C 6.9152599,4.4911116 6.5,4.9824765 6.5,6 Z"
     id="path4"
     style="fill:#734a08;fill-opacity:1" />
</svg>
