<?xml version="1.0" encoding="UTF-8" standalone="no"?>
<svg
   xmlns:dc="http://purl.org/dc/elements/1.1/"
   xmlns:cc="http://creativecommons.org/ns#"
   xmlns:rdf="http://www.w3.org/1999/02/22-rdf-syntax-ns#"
   xmlns:svg="http://www.w3.org/2000/svg"
   xmlns="http://www.w3.org/2000/svg"
   xmlns:sodipodi="http://sodipodi.sourceforge.net/DTD/sodipodi-0.dtd"
   xmlns:inkscape="http://www.inkscape.org/namespaces/inkscape"
   version="1.1"
   width="100%"
   height="100%"
   viewBox="0 0 16 16"
   id="svg2"
   inkscape:version="0.91 r"
   sodipodi:docname="emergency_phone.16.svg">
  <sodipodi:namedview
     pagecolor="#dadada"
     bordercolor="#666666"
     borderopacity="1"
     objecttolerance="10"
     gridtolerance="10"
     guidetolerance="10"
     inkscape:pageopacity="0"
     inkscape:pageshadow="2"
     inkscape:window-width="1600"
     inkscape:window-height="845"
     id="namedview7"
     showgrid="false"
     inkscape:zoom="14.75"
     inkscape:cx="8"
     inkscape:cy="8"
     inkscape:window-x="-2"
     inkscape:window-y="-3"
     inkscape:window-maximized="1"
     inkscape:current-layer="svg2" />
  <metadata
     id="metadata8">
    <rdf:RDF>
      <cc:Work
         rdf:about="">
        <dc:format>image/svg+xml</dc:format>
        <dc:type
           rdf:resource="http://purl.org/dc/dcmitype/StillImage" />
        <dc:title />
      </cc:Work>
    </rdf:RDF>
  </metadata>
  <defs
     id="defs6" />
  <rect
     width="16"
     height="16"
     x="0"
     y="0"
     id="canvas"
     style="visibility:hidden;fill:none;stroke:none" />
  <path
     inkscape:connector-curvature="0"
     d="M 3,2 C 2,2 1,3 1,4 l 0,1 4,0 1,-1 4,0 1,1 4,0 0,-1 C 15,3 14,2 13,2 Z M 1,5.75 1,6.25 C 1,6.25 1.3703755,7 2,7 L 4,7 C 4.5663545,6.9811215 5,6.25 5,6.25 l 0,-0.5 z m 10,0 0,0.5 c 0,0 0.433715,0.75 1,0.75 l 2,0 c 0.566673,0 1,-0.75 1,-0.75 l 0,-0.5 z M 2.5,9 C 1.7076271,9 1,9.573533 1,10.5 1,11.478901 1.7224576,12 2.5,12 l 1,0 C 3.5,12 4,12 4,12.5 4,13 3.5,13 3.5,13 l -2,0 0,1 2,0 C 4.2775424,14 5,13.396919 5,12.46875 5,11.593015 4.2627119,11 3.5,11 l -1,0 C 2.5,11 2,11 2,10.5 2,10 2.5,10 2.5,10 l 2,0 0,-1 z m 5,0 C 6,9 6,10.5 6,10.5 l 0,2 c 0,0 0,1.5 1.5,1.5 l 1,0 C 10,14 10,12.5 10,12.5 l 0,-2 C 10,10.5 10,9 8.5,9 Z m 5,0 C 11.707627,9 11,9.573533 11,10.5 c 0,0.978901 0.722458,1.5 1.5,1.5 l 1,0 c 0,0 0.5,0 0.5,0.5 0,0.5 -0.5,0.5 -0.5,0.5 l -2,0 0,1 2,0 C 14.277542,14 15,13.396919 15,12.46875 15,11.593015 14.262712,11 13.5,11 l -1,0 C 12.5,11 12,11 12,10.5 12,10 12.5,10 12.5,10 l 2,0 0,-1 z M 7,10.75 C 7,10.75 7,10 7.75,10 l 0.5,0 C 9,10 9,10.75 9,10.75 l 0,1.5 C 9,12.25 9,13 8.25,13 l -0.5,0 C 7,13 7,12.25 7,12.25 Z"
     id="emergency-phone-5"
     style="color:#000000;display:inline;overflow:visible;visibility:visible;fill:#734a08;fill-opacity:1;stroke-width:0.6;marker:none;enable-background:accumulate;stroke:#ffffff;stroke-miterlimit:4;stroke-dasharray:none;stroke-linejoin:round;stroke-linecap:round" />
  <path
     inkscape:connector-curvature="0"
     d="M 3,2 C 2,2 1,3 1,4 l 0,1 4,0 1,-1 4,0 1,1 4,0 0,-1 C 15,3 14,2 13,2 Z M 1,5.75 1,6.25 C 1,6.25 1.3703755,7 2,7 L 4,7 C 4.5663545,6.9811215 5,6.25 5,6.25 l 0,-0.5 z m 10,0 0,0.5 c 0,0 0.433715,0.75 1,0.75 l 2,0 c 0.566673,0 1,-0.75 1,-0.75 l 0,-0.5 z M 2.5,9 C 1.7076271,9 1,9.573533 1,10.5 1,11.478901 1.7224576,12 2.5,12 l 1,0 C 3.5,12 4,12 4,12.5 4,13 3.5,13 3.5,13 l -2,0 0,1 2,0 C 4.2775424,14 5,13.396919 5,12.46875 5,11.593015 4.2627119,11 3.5,11 l -1,0 C 2.5,11 2,11 2,10.5 2,10 2.5,10 2.5,10 l 2,0 0,-1 z m 5,0 C 6,9 6,10.5 6,10.5 l 0,2 c 0,0 0,1.5 1.5,1.5 l 1,0 C 10,14 10,12.5 10,12.5 l 0,-2 C 10,10.5 10,9 8.5,9 Z m 5,0 C 11.707627,9 11,9.573533 11,10.5 c 0,0.978901 0.722458,1.5 1.5,1.5 l 1,0 c 0,0 0.5,0 0.5,0.5 0,0.5 -0.5,0.5 -0.5,0.5 l -2,0 0,1 2,0 C 14.277542,14 15,13.396919 15,12.46875 15,11.593015 14.262712,11 13.5,11 l -1,0 C 12.5,11 12,11 12,10.5 12,10 12.5,10 12.5,10 l 2,0 0,-1 z M 7,10.75 C 7,10.75 7,10 7.75,10 l 0.5,0 C 9,10 9,10.75 9,10.75 l 0,1.5 C 9,12.25 9,13 8.25,13 l -0.5,0 C 7,13 7,12.25 7,12.25 Z"
     id="emergency-phone"
     style="color:#000000;display:inline;overflow:visible;visibility:visible;fill:#734a08;fill-opacity:1;stroke-width:1;marker:none;enable-background:accumulate" />
</svg>
