<?xml version="1.0" encoding="UTF-8" standalone="no"?>
<svg
   xmlns:dc="http://purl.org/dc/elements/1.1/"
   xmlns:cc="http://creativecommons.org/ns#"
   xmlns:rdf="http://www.w3.org/1999/02/22-rdf-syntax-ns#"
   xmlns:svg="http://www.w3.org/2000/svg"
   xmlns="http://www.w3.org/2000/svg"
   id="svg2"
   viewBox="0 0 16 16"
   height="100%"
   width="100%"
   version="1.1">
  <metadata
     id="metadata10">
    <rdf:RDF>
      <cc:Work
         rdf:about="">
        <dc:format>image/svg+xml</dc:format>
        <dc:type
           rdf:resource="http://purl.org/dc/dcmitype/StillImage" />
      </cc:Work>
    </rdf:RDF>
  </metadata>
  <defs
     id="defs8" />
  <path
     style="fill:#734a08;fill-opacity:1;stroke:#ffffff;stroke-width:0.6;stroke-miterlimit:4;stroke-dasharray:none;stroke-linejoin:round;stroke-linecap:round"
     id="path4-7"
     d="M 6,4 C 3,4 1.960,6.000 2,7 L 2,8 14,8 14,7 C 14,6 13,4 10,4 Z M 2,9 c -1,0 -1,1 0,1 l 12,0 c 1,0 1,-1 0,-1 z m 0,2.03125 0,0.625 C 2,12.34045 2.81579,13 3.5,13 l 9,0 c 0.68421,0 1.5,-0.65955 1.5,-1.34375 l 0,-0.625 z" />
  <path
     style="fill:#734a08;fill-opacity:1"
     id="path4"
     d="M 6,4 C 3,4 1.960,6.000 2,7 L 2,8 14,8 14,7 C 14,6 13,4 10,4 Z M 2,9 c -1,0 -1,1 0,1 l 12,0 c 1,0 1,-1 0,-1 z m 0,2.03125 0,0.625 C 2,12.34045 2.81579,13 3.5,13 l 9,0 c 0.68421,0 1.5,-0.65955 1.5,-1.34375 l 0,-0.625 z" />
</svg>
