<?xml version="1.0" encoding="UTF-8" standalone="no"?>
<!-- Created with Inkscape (http://www.inkscape.org/) -->

<svg
   xmlns:dc="http://purl.org/dc/elements/1.1/"
   xmlns:cc="http://creativecommons.org/ns#"
   xmlns:rdf="http://www.w3.org/1999/02/22-rdf-syntax-ns#"
   xmlns:svg="http://www.w3.org/2000/svg"
   xmlns="http://www.w3.org/2000/svg"
   xmlns:sodipodi="http://sodipodi.sourceforge.net/DTD/sodipodi-0.dtd"
   xmlns:inkscape="http://www.inkscape.org/namespaces/inkscape"
   version="1.1"
   width="100%"
   height="100%"
   viewBox="0 0 16 16"
   id="svg2"
   inkscape:version="0.91 r"
   sodipodi:docname="fast_food.16.svg">
  <metadata
     id="metadata10">
    <rdf:RDF>
      <cc:Work
         rdf:about="">
        <dc:format>image/svg+xml</dc:format>
        <dc:type
           rdf:resource="http://purl.org/dc/dcmitype/StillImage" />
      </cc:Work>
    </rdf:RDF>
  </metadata>
  <defs
     id="defs8" />
  <sodipodi:namedview
     pagecolor="#dadada"
     bordercolor="#666666"
     borderopacity="1"
     objecttolerance="10"
     gridtolerance="10"
     guidetolerance="10"
     inkscape:pageopacity="0"
     inkscape:pageshadow="2"
     inkscape:window-width="706"
     inkscape:window-height="480"
     id="namedview6"
     showgrid="false"
     inkscape:zoom="14.75"
     inkscape:cx="8"
     inkscape:cy="8"
     inkscape:window-x="0"
     inkscape:window-y="0"
     inkscape:window-maximized="0"
     inkscape:current-layer="svg2" />
  <path
     inkscape:connector-curvature="0"
     d="M 6,4 C 3,4 1.960032,6.000799 2,7 L 2,8 14,8 14,7 C 14,6 13,4 10,4 Z M 2,9 c -1,0 -1,1 0,1 l 12,0 c 1,0 1,-1 0,-1 z m 0,2.03125 0,0.625 C 2,12.34045 2.81579,13 3.5,13 l 9,0 c 0.68421,0 1.5,-0.65955 1.5,-1.34375 l 0,-0.625 z"
     id="path4-7"
     style="fill:#734a08;fill-opacity:1;stroke:#ffffff;stroke-width:0.6;stroke-miterlimit:4;stroke-dasharray:none;stroke-linejoin:round;stroke-linecap:round" />
  <path
     inkscape:connector-curvature="0"
     d="M 6,4 C 3,4 1.960032,6.000799 2,7 L 2,8 14,8 14,7 C 14,6 13,4 10,4 Z M 2,9 c -1,0 -1,1 0,1 l 12,0 c 1,0 1,-1 0,-1 z m 0,2.03125 0,0.625 C 2,12.34045 2.81579,13 3.5,13 l 9,0 c 0.68421,0 1.5,-0.65955 1.5,-1.34375 l 0,-0.625 z"
     id="path4"
     style="fill:#734a08;fill-opacity:1" />
</svg>
