<?xml version="1.0" encoding="UTF-8" standalone="no"?>
<svg
   xmlns:dc="http://purl.org/dc/elements/1.1/"
   xmlns:cc="http://creativecommons.org/ns#"
   xmlns:rdf="http://www.w3.org/1999/02/22-rdf-syntax-ns#"
   xmlns:svg="http://www.w3.org/2000/svg"
   xmlns="http://www.w3.org/2000/svg"
   id="svg2"
   viewBox="0 0 16 16"
   height="100%"
   width="100%"
   version="1.1">
  <metadata
     id="metadata10">
    <rdf:RDF>
      <cc:Work
         rdf:about="">
        <dc:format>image/svg+xml</dc:format>
        <dc:type
           rdf:resource="http://purl.org/dc/dcmitype/StillImage" />
      </cc:Work>
    </rdf:RDF>
  </metadata>
  <defs
     id="defs8" />
  <path
     style="fill:#734a08;fill-opacity:1;stroke:#ffffff;stroke-width:0.6;stroke-miterlimit:4;stroke-dasharray:none;stroke-linejoin:round;stroke-linecap:round"
     id="path4-3"
     d="M 8,1 C 4.424,2.241 3,6 3,9 3,12 4.744,14.25 7,15 5,11.741416 5,9 8,7 c -0.5049218,1.3528175 0,4 1,5 0.431455,-0.400757 1,-1.424727 1,-2 2,2 0.562,3.633 0,5 1.08818,-0.559102 3,-2 3,-5 C 13,7 11,6 11,3 9.616,3.599 9,5 9,6 8.047,5.443 7,3.2464256 8,1 Z" />
  <path
     style="fill:#734a08;fill-opacity:1"
     id="path4"
     d="M 8,1 C 4.424,2.241 3,6 3,9 3,12 4.744,14.25 7,15 5,11.741416 5,9 8,7 c -0.5049218,1.3528175 0,4 1,5 0.431455,-0.400757 1,-1.424727 1,-2 2,2 0.562,3.633 0,5 1.08818,-0.559102 3,-2 3,-5 C 13,7 11,6 11,3 9.616,3.599 9,5 9,6 8.047,5.443 7,3.2464256 8,1 Z" />
</svg>
