<?xml version="1.0" encoding="UTF-8" standalone="no"?>
<svg
   xmlns:dc="http://purl.org/dc/elements/1.1/"
   xmlns:cc="http://creativecommons.org/ns#"
   xmlns:rdf="http://www.w3.org/1999/02/22-rdf-syntax-ns#"
   xmlns:svg="http://www.w3.org/2000/svg"
   xmlns="http://www.w3.org/2000/svg"
   version="1.1"
   width="100%"
   height="100%"
   viewBox="0 0 16 16"
   id="svg2">
  <metadata
     id="metadata10">
    <rdf:RDF>
      <cc:Work
         rdf:about="">
        <dc:format>image/svg+xml</dc:format>
        <dc:type
           rdf:resource="http://purl.org/dc/dcmitype/StillImage" />
        <dc:title></dc:title>
      </cc:Work>
    </rdf:RDF>
  </metadata>
  <defs
     id="defs8" />
  <path
     style="fill:#734a08;stroke-width:0.6;stroke-miterlimit:4;stroke-dasharray:none;stroke:#ffffff"
     id="path4176"
     d="M 3.5917971,1.9392506 C 3.3932803,1.9472506 3.1959,1.9869456 3.0000002,2.0622975 l 0,7.9999995 c 0,0 3.1874999,-0.1249999 3.9999999,3.000001 l 0,-8.4003911 C 6.3800101,3.3563083 4.9814151,1.8832527 3.5917971,1.9392506 Z m 3.408203,11.1230474 c -2.0625,-1.593751 -4.9999998,-2.000001 -4.9999998,-2.000001 l 0,-7.5996089 -1,-0.4003906 0,9.0000005 5.9999998,2 2.0000001,0 5.9999998,-2 0,-9.0000005 -1,0.4003906 0,7.9999999 -4.9999998,1.59961 c -0.666667,-0.25468 -1.443819,-0.209363 -2.0000001,0 z M 13,2.0622975 C 11.00748,1.9557471 8.7073052,3.1519793 7.5000001,4.1814381 l 0,8.4648439 C 8.6147711,11.721642 10.613583,10.505008 13,10.261516 Z" />
  <path
     style="fill:#734a08;stroke-width:0.60000002;stroke-miterlimit:4;stroke-dasharray:none"
     id="path4176-2"
     d="M 3.5917971,1.9392507 C 3.3932803,1.9472507 3.1959,1.9869457 3.0000002,2.0622976 l 0,7.9999994 c 0,0 3.1874999,-0.1249998 3.9999999,3.000001 l 0,-8.400391 C 6.3800101,3.3563084 4.9814151,1.8832528 3.5917971,1.9392507 Z m 3.408203,11.1230473 c -2.0625,-1.593751 -4.9999998,-2.000001 -4.9999998,-2.000001 l 0,-7.5996088 -1,-0.4003906 0,9.0000004 5.9999998,2 2.0000001,0 5.9999998,-2 0,-9.0000004 -1,0.4003906 0,7.9999998 -4.9999998,1.59961 c -0.666667,-0.25468 -1.443819,-0.209363 -2.0000001,0 z M 13,2.0622976 C 11.00748,1.9557472 8.7073052,3.1519794 7.5000001,4.1814382 l 0,8.4648438 C 8.6147711,11.721642 10.613583,10.505008 13,10.261516 Z" />
</svg>
