<?xml version="1.0" encoding="UTF-8" standalone="no"?>
<svg
   xmlns:dc="http://purl.org/dc/elements/1.1/"
   xmlns:cc="http://creativecommons.org/ns#"
   xmlns:rdf="http://www.w3.org/1999/02/22-rdf-syntax-ns#"
   xmlns:svg="http://www.w3.org/2000/svg"
   xmlns="http://www.w3.org/2000/svg"
   id="svg2"
   viewBox="0 0 16 16"
   height="100%"
   width="100%"
   version="1.1">
  <metadata
     id="metadata10">
    <rdf:RDF>
      <cc:Work
         rdf:about="">
        <dc:format>image/svg+xml</dc:format>
        <dc:type
           rdf:resource="http://purl.org/dc/dcmitype/StillImage" />
        <dc:title />
      </cc:Work>
    </rdf:RDF>
  </metadata>
  <defs
     id="defs8" />
  <path
     id="rect6414-6-4"
     d="m 7.905,0.747 -6.1480666,3.5102137 0,0.2492459 -0.034618,-0.039233 c -0.7222332,0.4814889 -0.4106817,2.5362132 0,3.0601863 l 6.824,7.823 c -0.017638,-0.02073 -0.031523,-0.05116 -0.048465,-0.07385 l 0.103,0.120 6.0834475,-3.590987 0,-0.270017 -0.493876,-0.567726 c -0.170273,-0.59551 -0.192853,-1.4325533 0.09,-1.9362723 l 0.403871,-0.2307833 0,-0.2700164 -6.7804133,-7.78432009 z"
     style="color:#000000;display:inline;overflow:visible;visibility:visible;opacity:1;fill:#734a08;fill-opacity:1;fill-rule:nonzero;stroke:#ffffff;stroke-width:0.708;stroke-linecap:round;stroke-linejoin:round;stroke-miterlimit:4;stroke-dasharray:none;stroke-opacity:1;marker:none;enable-background:accumulate" />
  <path
     id="rect6414-6"
     d="m 7.905,3.751 -6.1480666,3.5102137 0,0.2686083 6.845,7.867 6.083447,-3.59097 0,-0.270913 z"
     style="color:#000000;display:inline;overflow:visible;visibility:visible;opacity:1;fill:#734a08;fill-opacity:1;fill-rule:nonzero;stroke:#ffffff;stroke-width:0.295;stroke-linecap:round;stroke-linejoin:round;stroke-miterlimit:4;stroke-dasharray:none;stroke-opacity:1;marker:none;enable-background:accumulate" />
  <path
     id="path6478-2"
     d="m 14.54,8.725 c -0.722233,0.4814889 -0.244991,2.5666233 0.165,3.090 l -6.2699372,3.549735 c -0.5664515,-0.665588 -0.685302,-2.556764 0.093577,-3.236512 z"
     style="fill:#734a08;fill-opacity:1;fill-rule:evenodd;stroke:#ffffff;stroke-width:0.295;stroke-linecap:round;stroke-linejoin:round;stroke-miterlimit:4;stroke-dasharray:none;stroke-opacity:1" />
  <path
     id="rect6414"
     d="m 7.905,0.747 -6.1480666,3.5102137 0,0.2686083 6.780,7.784 6.1480663,-3.507906 0,-0.2709162 z"
     style="color:#000000;display:inline;overflow:visible;visibility:visible;opacity:1;fill:#734a08;fill-opacity:1;fill-rule:nonzero;stroke:#ffffff;stroke-width:0.295;stroke-linecap:round;stroke-linejoin:round;stroke-miterlimit:4;stroke-dasharray:none;stroke-opacity:1;marker:none;enable-background:accumulate" />
  <path
     id="path6478"
     d="m 1.721,4.467 c -0.72223325,0.4814889 -0.4106817,2.5348971 0,3.0588702 L 8.546,15.35 C 7.979,14.68 7.762,12.97 8.541,12.29 Z"
     style="fill:#734a08;fill-opacity:1;fill-rule:evenodd;stroke:#ffffff;stroke-width:0.295;stroke-linecap:round;stroke-linejoin:round;stroke-miterlimit:4;stroke-dasharray:none;stroke-opacity:1" />
  <path
     id="path6607"
     d="M 8.691,14.35 14.12,11.22"
     style="fill:none;fill-rule:evenodd;stroke:#ffffff;stroke-width:0.295;stroke-linecap:round;stroke-linejoin:round;stroke-miterlimit:4;stroke-dasharray:none;stroke-opacity:1" />
  <path
     id="path6607-1"
     d="M 8.599,13.67 14.03,10.53"
     style="fill:none;fill-rule:evenodd;stroke:#ffffff;stroke-width:0.295;stroke-linecap:round;stroke-linejoin:round;stroke-miterlimit:4;stroke-dasharray:none;stroke-opacity:1" />
  <path
     id="path6607-1-0"
     d="M 8.691,12.88 14.12,9.749"
     style="fill:none;fill-rule:evenodd;stroke:#ffffff;stroke-width:0.295;stroke-linecap:round;stroke-linejoin:round;stroke-miterlimit:4;stroke-dasharray:none;stroke-opacity:1" />
</svg>
