<?xml version="1.0" encoding="UTF-8" standalone="no"?>
<svg
   xmlns:dc="http://purl.org/dc/elements/1.1/"
   xmlns:cc="http://creativecommons.org/ns#"
   xmlns:rdf="http://www.w3.org/1999/02/22-rdf-syntax-ns#"
   xmlns:svg="http://www.w3.org/2000/svg"
   xmlns="http://www.w3.org/2000/svg"
   id="svg2"
   viewBox="0 0 16 16"
   height="100%"
   width="100%"
   version="1.1">
  <metadata
     id="metadata8">
    <rdf:RDF>
      <cc:Work
         rdf:about="">
        <dc:format>image/svg+xml</dc:format>
        <dc:type
           rdf:resource="http://purl.org/dc/dcmitype/StillImage" />
        <dc:title />
      </cc:Work>
    </rdf:RDF>
  </metadata>
  <defs
     id="defs6" />
  <rect
     style="visibility:hidden;fill:none;stroke:none"
     id="canvas"
     y="0"
     x="0"
     height="16"
     width="16" />
  <path
     style="fill:#734a08;fill-opacity:1;stroke:#ffffff;stroke-width:0.6;stroke-miterlimit:4;stroke-dasharray:none;stroke-linejoin:round;stroke-linecap:round"
     id="monument-9"
     d="M 8,1 C 8,1 6,2.4966359 6,3 l 0,8 4,0 0,-8 C 10,2.5206056 8,1 8,1 Z M 5,12 c -1,0 -1,1 -1,2 l -1,0 -1,1 12,0 -1,-1 -1,0 c 0,-1 0,-2 -1,-2 z" />
  <path
     style="fill:#734a08;fill-opacity:1;stroke:none"
     id="monument"
     d="M 8,1 C 8,1 6,2.4966359 6,3 l 0,8 4,0 0,-8 C 10,2.5206056 8,1 8,1 Z M 5,12 c -1,0 -1,1 -1,2 l -1,0 -1,1 12,0 -1,-1 -1,0 c 0,-1 0,-2 -1,-2 z" />
</svg>
