<?xml version="1.0" encoding="UTF-8" standalone="no"?>
<!-- Created with Inkscape (http://www.inkscape.org/) -->

<svg
   xmlns:dc="http://purl.org/dc/elements/1.1/"
   xmlns:cc="http://creativecommons.org/ns#"
   xmlns:rdf="http://www.w3.org/1999/02/22-rdf-syntax-ns#"
   xmlns:svg="http://www.w3.org/2000/svg"
   xmlns="http://www.w3.org/2000/svg"
   xmlns:sodipodi="http://sodipodi.sourceforge.net/DTD/sodipodi-0.dtd"
   xmlns:inkscape="http://www.inkscape.org/namespaces/inkscape"
   version="1.1"
   width="100%"
   height="100%"
   viewBox="0 0 16 16"
   id="svg2"
   inkscape:version="0.91 r13725"
   sodipodi:docname="mountain_rescue.16.svg">
  <metadata
     id="metadata10">
    <rdf:RDF>
      <cc:Work
         rdf:about="">
        <dc:format>image/svg+xml</dc:format>
        <dc:type
           rdf:resource="http://purl.org/dc/dcmitype/StillImage" />
        <dc:title></dc:title>
      </cc:Work>
    </rdf:RDF>
  </metadata>
  <defs
     id="defs8" />
  <sodipodi:namedview
     pagecolor="#dadada"
     bordercolor="#666666"
     borderopacity="1"
     objecttolerance="10"
     gridtolerance="10"
     guidetolerance="10"
     inkscape:pageopacity="0"
     inkscape:pageshadow="2"
     inkscape:window-width="1920"
     inkscape:window-height="1135"
     id="namedview6"
     showgrid="false"
     inkscape:zoom="42.338019"
     inkscape:cx="6.402527"
     inkscape:cy="6.7262871"
     inkscape:window-x="1920"
     inkscape:window-y="36"
     inkscape:window-maximized="1"
     inkscape:current-layer="svg2" />
  <g
     transform="matrix(1.0982464,0,0,1.0982464,-0.7387569,-1.5588083)"
     id="g4146"
     style="stroke:#ffffff;stroke-opacity:1;stroke-width:0.54632549;stroke-miterlimit:4;stroke-dasharray:none;fill:#734a08;fill-opacity:1">
    <path
       inkscape:connector-curvature="0"
       d="m 1.826513,6.4353945 c -0.3697,0.6363389 -0.139692,0.7754898 1.37302,1.6710554 L 5.011818,5.0452945 C 3.499107,4.149729 3.266477,4.0149787 2.886376,4.6451655 Z M 2.44565,5.8883828 2.704548,5.4510751 3.141855,5.7099731 3.400753,5.2726648 3.838062,5.5315627 3.579163,5.9688711 4.016471,6.227769 3.757574,6.6650766 3.320266,6.4061786 3.061367,6.843487 2.624059,6.584589 2.882957,6.1472807 Z"
       id="path4148"
       style="fill:#734a08;fill-opacity:1;stroke:#ffffff;stroke-opacity:1;stroke-width:0.54632549;stroke-miterlimit:4;stroke-dasharray:none"
       sodipodi:nodetypes="cccccccccccccccccc" />
    <path
       inkscape:connector-curvature="0"
       style="font-style:normal;font-variant:normal;font-weight:normal;font-stretch:normal;font-size:40px;line-height:125%;font-family:NPSPICT3;-inkscape-font-specification:NPSPICT3;text-align:start;writing-mode:lr-tb;text-anchor:start;fill:#734a08;fill-opacity:1;stroke:#ffffff;stroke-width:0.54632549;stroke-linecap:butt;stroke-linejoin:miter;stroke-opacity:1;stroke-miterlimit:4;stroke-dasharray:none"
       d="m 6.830884,10.831926 0.284573,1.799417 c 0.04024,0.299826 0.22021,0.474598 0.539873,0.524313 0.219903,0.0302 0.412291,-0.03215 0.577159,-0.187123 0.164845,-0.154942 0.232332,-0.342372 0.202446,-0.562289 L 8.089969,10.232581 C 8.05,10.002605 7.925102,9.8426281 7.715262,9.752641 L 6.156045,9.0480689 7.145651,7.3241383 7.640229,7.953684 c 0.03997,0.060122 0.100041,0.1050805 0.18026,0.1349664 l 1.873997,0.5398728 c 0.04973,0.019809 0.09455,0.029781 0.134506,0.029713 0.139988,6.8e-6 0.260015,-0.054961 0.360066,-0.1649363 0.100041,-0.1099454 0.15006,-0.2349276 0.150067,-0.3749364 -7e-6,-0.249797 -0.120034,-0.4146568 -0.360066,-0.4945723 L 8.359902,7.144311 7.130557,5.6596664 C 6.960654,5.4598915 6.720768,5.3349895 6.410878,5.2849604 5.871313,5.2050518 5.466559,5.3949227 5.196626,5.8545659 L 3.832315,8.2084958 C 3.742325,8.3585699 3.702371,8.5434044 3.712442,8.7630086 l 0.04484,2.9834684 -1.034453,2.218964 c -0.03997,0.08997 -0.0648,0.164852 -0.07458,0.224639 -0.0302,0.190018 0.0098,0.357472 0.119644,0.502356 0.109957,0.144877 0.259938,0.232416 0.449962,0.26261 0.319656,0.04973 0.544448,-0.06026 0.674386,-0.329867 l 1.139672,-2.428963 c 0.03997,-0.08998 0.05991,-0.184835 0.05991,-0.284572 l -0.01506,-1.844258 1.754125,0.764513 z m 6.356744,-7.4657682 -0.614899,2.7885691 -1.049546,0.4346391 -0.914578,2.5634695 0.869738,1.9641235 -0.239739,0.764513 -2.024057,0.599805 -0.119866,0.899479 -3.223216,0.794705 0.02971,0.53942 7.870674,0 c 0.139989,-7e-6 0.257491,-0.04743 0.352521,-0.14229 0.095,-0.09486 0.142499,-0.212287 0.142513,-0.35229 l 0,-10.6144036 -1.079285,-0.2397396 z M 7.025784,5.1500149 C 7.29571,5.1500288 7.530574,5.0525719 7.730363,4.8576654 7.930138,4.662773 8.030028,4.4254744 8.030036,4.1457631 8.030028,3.8758443 7.930146,3.6409032 7.730363,3.4409609 7.530574,3.2410396 7.29571,3.141072 7.025784,3.1410581 6.74578,3.141072 6.508327,3.2410402 6.313428,3.4409609 6.118521,3.6409032 6.021072,3.8758443 6.021078,4.1457631 c -6e-6,0.2797113 0.09745,0.5170099 0.29235,0.7119023 0.194899,0.1949066 0.432352,0.2923634 0.712356,0.2923495 z"
       id="path4150"
       sodipodi:nodetypes="ccccccccccccccccccccccccccccccccccccccccccccccccccsccccccc" />
  </g>
  <g
     id="g4142"
     transform="matrix(1.0982464,0,0,1.0982464,-0.7387569,-1.5588083)">
    <path
       sodipodi:nodetypes="cccccccccccccccccc"
       style="fill:#734a08;fill-opacity:1"
       id="path4"
       d="m 1.826513,6.4353945 c -0.3697,0.6363389 -0.139692,0.7754898 1.37302,1.6710554 L 5.011818,5.0452945 C 3.499107,4.149729 3.266477,4.0149787 2.886376,4.6451655 Z M 2.44565,5.8883828 2.704548,5.4510751 3.141855,5.7099731 3.400753,5.2726648 3.838062,5.5315627 3.579163,5.9688711 4.016471,6.227769 3.757574,6.6650766 3.320266,6.4061786 3.061367,6.843487 2.624059,6.584589 2.882957,6.1472807 Z"
       inkscape:connector-curvature="0" />
    <path
       sodipodi:nodetypes="ccccccccccccccccccccccccccccccccccccccccccccccccccsccccccc"
       id="flowRoot3192"
       d="m 6.830884,10.831926 0.284573,1.799417 c 0.04024,0.299826 0.22021,0.474598 0.539873,0.524313 0.219903,0.0302 0.412291,-0.03215 0.577159,-0.187123 0.164845,-0.154942 0.232332,-0.342372 0.202446,-0.562289 L 8.089969,10.232581 C 8.05,10.002605 7.925102,9.8426281 7.715262,9.752641 L 6.156045,9.0480689 7.145651,7.3241383 7.640229,7.953684 c 0.03997,0.060122 0.100041,0.1050805 0.18026,0.1349664 l 1.873997,0.5398728 c 0.04973,0.019809 0.09455,0.029781 0.134506,0.029713 0.139988,6.8e-6 0.260015,-0.054961 0.360066,-0.1649363 0.100041,-0.1099454 0.15006,-0.2349276 0.150067,-0.3749364 -7e-6,-0.249797 -0.120034,-0.4146568 -0.360066,-0.4945723 L 8.359902,7.144311 7.130557,5.6596664 C 6.960654,5.4598915 6.720768,5.3349895 6.410878,5.2849604 5.871313,5.2050518 5.466559,5.3949227 5.196626,5.8545659 L 3.832315,8.2084958 C 3.742325,8.3585699 3.702371,8.5434044 3.712442,8.7630086 l 0.04484,2.9834684 -1.034453,2.218964 c -0.03997,0.08997 -0.0648,0.164852 -0.07458,0.224639 -0.0302,0.190018 0.0098,0.357472 0.119644,0.502356 0.109957,0.144877 0.259938,0.232416 0.449962,0.26261 0.319656,0.04973 0.544448,-0.06026 0.674386,-0.329867 l 1.139672,-2.428963 c 0.03997,-0.08998 0.05991,-0.184835 0.05991,-0.284572 l -0.01506,-1.844258 1.754125,0.764513 z m 6.356744,-7.4657682 -0.614899,2.7885691 -1.049546,0.4346391 -0.914578,2.5634695 0.869738,1.9641235 -0.239739,0.764513 -2.024057,0.599805 -0.119866,0.899479 -3.223216,0.794705 0.02971,0.53942 7.870674,0 c 0.139989,-7e-6 0.257491,-0.04743 0.352521,-0.14229 0.095,-0.09486 0.142499,-0.212287 0.142513,-0.35229 l 0,-10.6144036 -1.079285,-0.2397396 z M 7.025784,5.1500149 C 7.29571,5.1500288 7.530574,5.0525719 7.730363,4.8576654 7.930138,4.662773 8.030028,4.4254744 8.030036,4.1457631 8.030028,3.8758443 7.930146,3.6409032 7.730363,3.4409609 7.530574,3.2410396 7.29571,3.141072 7.025784,3.1410581 6.74578,3.141072 6.508327,3.2410402 6.313428,3.4409609 6.118521,3.6409032 6.021072,3.8758443 6.021078,4.1457631 c -6e-6,0.2797113 0.09745,0.5170099 0.29235,0.7119023 0.194899,0.1949066 0.432352,0.2923634 0.712356,0.2923495 z"
       style="font-style:normal;font-variant:normal;font-weight:normal;font-stretch:normal;font-size:40px;line-height:125%;font-family:NPSPICT3;-inkscape-font-specification:NPSPICT3;text-align:start;writing-mode:lr-tb;text-anchor:start;fill:#734a08;fill-opacity:1;stroke:none;stroke-width:1px;stroke-linecap:butt;stroke-linejoin:miter;stroke-opacity:1"
       inkscape:connector-curvature="0" />
  </g>
</svg>
