<?xml version="1.0" encoding="UTF-8" standalone="no"?>
<svg
   xmlns:dc="http://purl.org/dc/elements/1.1/"
   xmlns:cc="http://creativecommons.org/ns#"
   xmlns:rdf="http://www.w3.org/1999/02/22-rdf-syntax-ns#"
   xmlns:svg="http://www.w3.org/2000/svg"
   xmlns="http://www.w3.org/2000/svg"
   id="svg2"
   viewBox="0 0 16 16"
   height="100%"
   width="100%"
   version="1.1">
  <metadata
     id="metadata10">
    <rdf:RDF>
      <cc:Work
         rdf:about="">
        <dc:format>image/svg+xml</dc:format>
        <dc:type
           rdf:resource="http://purl.org/dc/dcmitype/StillImage" />
      </cc:Work>
    </rdf:RDF>
  </metadata>
  <defs
     id="defs8" />
  <path
     style="fill:#734a08;fill-opacity:1;stroke:#ffffff;stroke-width:0.6;stroke-miterlimit:4;stroke-dasharray:none;stroke-linejoin:round;stroke-linecap:round"
     id="path4-1"
     d="M 8,2 2,4 2,5 14,5 14,4 Z m -6,4 0,1 1,0 0,5 -1,0 -1,2 14,0 -1,-2 -1,0 0,-5 1,0 0,-1 z M 6,7 C 6.4973717,7 7,7.5325904 7,8 L 7,12 5,12 5,8 C 5,7.4726661 5.5026283,7 6,7 Z m 4,0 c 0.503364,0 1,0.4726661 1,1 l 0,4 -2,0 0,-4 C 9,7.4726661 9.4966359,7 10,7 Z" />
  <path
     style="fill:#734a08;fill-opacity:1"
     id="path4"
     d="M 8,2 2,4 2,5 14,5 14,4 Z m -6,4 0,1 1,0 0,5 -1,0 -1,2 14,0 -1,-2 -1,0 0,-5 1,0 0,-1 z M 6,7 C 6.4973717,7 7,7.5325904 7,8 L 7,12 5,12 5,8 C 5,7.4726661 5.5026283,7 6,7 Z m 4,0 c 0.503364,0 1,0.4726661 1,1 l 0,4 -2,0 0,-4 C 9,7.4726661 9.4966359,7 10,7 Z" />
</svg>
