<?xml version="1.0" encoding="UTF-8" standalone="no"?>
<svg
   xmlns:dc="http://purl.org/dc/elements/1.1/"
   xmlns:cc="http://creativecommons.org/ns#"
   xmlns:rdf="http://www.w3.org/1999/02/22-rdf-syntax-ns#"
   xmlns:svg="http://www.w3.org/2000/svg"
   xmlns="http://www.w3.org/2000/svg"
   id="svg2"
   viewBox="0 0 18 18"
   height="100%"
   width="100%"
   version="1.1">
  <metadata
     id="metadata8">
    <rdf:RDF>
      <cc:Work
         rdf:about="">
        <dc:format>image/svg+xml</dc:format>
        <dc:type
           rdf:resource="http://purl.org/dc/dcmitype/StillImage" />
        <dc:title />
      </cc:Work>
    </rdf:RDF>
  </metadata>
  <defs
     id="defs6" />
  <rect
     style="visibility:hidden;fill:none;stroke:none"
     id="canvas"
     y="0"
     x="0"
     height="18"
     width="18" />
  <g
     style="fill:#734a08;fill-opacity:1;stroke:#ffffff;stroke-width:0.6;stroke-miterlimit:4;stroke-dasharray:none;stroke-linejoin:round;stroke-linecap:round"
     id="nightclub-8">
    <path
       style="opacity:0.3;fill:#734a08;fill-opacity:1;fill-rule:nonzero;stroke:#ffffff;stroke-width:0.6;stroke-miterlimit:4;stroke-dasharray:none;stroke-opacity:1;stroke-linejoin:round;stroke-linecap:round"
       id="halo-4"
       d="m 15.00,2.003 -10.0000002,2 0,8.5624997 c -0.385369,-0.06933 -0.7875721,-0.07549 -1.1875,0.03125 -1.1547814,0.308194 -2.0133171,1.387352 -1.78125,2.25 0.232,0.862 1.501,1.370 2.656,1.062 1.1547814,-0.308194 1.8125,-1.336236 1.8125,-2.25 l 0,-6.9687497 7.0000002,-1.375 0,5.6249997 c -0.385334,-0.06124 -0.787622,-0.04422 -1.1875,0.0625 -1.154637,0.308156 -2.013061,1.35615 -1.78125,2.21875 0.232,0.862 1.501,1.370 2.656,1.062 1.154637,-0.308156 1.8125,-1.28125 1.8125,-2.28125 z" />
    <path
       style="fill:#734a08;fill-opacity:1;fill-rule:nonzero;stroke:#ffffff;stroke-width:0.6;stroke-miterlimit:4;stroke-dasharray:none;stroke-linejoin:round;stroke-linecap:round"
       id="icon-4"
       d="m 15.00,2.003 -10,2 0,8.5624997 c -0.385369,-0.06933 -0.787572,-0.07549 -1.1875,0.03125 -1.154782,0.308194 -2.013317,1.387352 -1.78125,2.25 0.232,0.862 1.501,1.370 2.656,1.062 1.154781,-0.308194 1.8125,-1.336236 1.8125,-2.25 l 0,-6.9687497 7,-1.375 0,5.6249997 c -0.385334,-0.06124 -0.787622,-0.04422 -1.1875,0.0625 -1.154637,0.308156 -2.013061,1.35615 -1.78125,2.21875 0.232,0.862 1.501,1.370 2.656,1.062 1.154637,-0.308156 1.8125,-1.28125 1.8125,-2.28125 z" />
  </g>
  <g
     style="fill:#734a08;fill-opacity:1;stroke:none"
     id="nightclub">
    <path
       style="opacity:0.3;fill:#734a08;fill-opacity:1;fill-rule:nonzero;stroke:none;stroke-width:2;stroke-miterlimit:4;stroke-dasharray:none;stroke-opacity:1"
       id="halo"
       d="m 15.00,2.003 -10.0000002,2 0,8.5624997 c -0.385369,-0.06933 -0.7875721,-0.07549 -1.1875,0.03125 -1.1547814,0.308194 -2.0133171,1.387352 -1.78125,2.25 0.232,0.862 1.501,1.370 2.656,1.062 1.1547814,-0.308194 1.8125,-1.336236 1.8125,-2.25 l 0,-6.9687497 7.0000002,-1.375 0,5.6249997 c -0.385334,-0.06124 -0.787622,-0.04422 -1.1875,0.0625 -1.154637,0.308156 -2.013061,1.35615 -1.78125,2.21875 0.232,0.862 1.501,1.370 2.656,1.062 1.154637,-0.308156 1.8125,-1.28125 1.8125,-2.28125 z" />
    <path
       style="fill:#734a08;fill-opacity:1;fill-rule:nonzero;stroke:none"
       id="icon"
       d="m 15.00,2.003 -10,2 0,8.5624997 c -0.385369,-0.06933 -0.787572,-0.07549 -1.1875,0.03125 -1.154782,0.308194 -2.013317,1.387352 -1.78125,2.25 0.232,0.862 1.501,1.370 2.656,1.062 1.154781,-0.308194 1.8125,-1.336236 1.8125,-2.25 l 0,-6.9687497 7,-1.375 0,5.6249997 c -0.385334,-0.06124 -0.787622,-0.04422 -1.1875,0.0625 -1.154637,0.308156 -2.013061,1.35615 -1.78125,2.21875 0.232,0.862 1.501,1.370 2.656,1.062 1.154637,-0.308156 1.8125,-1.28125 1.8125,-2.28125 z" />
  </g>
</svg>
