<?xml version="1.0" encoding="UTF-8" standalone="no"?>
<svg
   xmlns:dc="http://purl.org/dc/elements/1.1/"
   xmlns:cc="http://creativecommons.org/ns#"
   xmlns:rdf="http://www.w3.org/1999/02/22-rdf-syntax-ns#"
   xmlns:svg="http://www.w3.org/2000/svg"
   xmlns="http://www.w3.org/2000/svg"
   id="svg2"
   viewBox="0 0 16 16"
   height="100%"
   width="100%"
   version="1.1">
  <metadata
     id="metadata10">
    <rdf:RDF>
      <cc:Work
         rdf:about="">
        <dc:format>image/svg+xml</dc:format>
        <dc:type
           rdf:resource="http://purl.org/dc/dcmitype/StillImage" />
      </cc:Work>
    </rdf:RDF>
  </metadata>
  <defs
     id="defs8" />
  <path
     style="fill:#734a08;fill-opacity:1;stroke-width:0.6;stroke-miterlimit:4;stroke-dasharray:none;stroke:#ffffff;stroke-linejoin:round;stroke-linecap:round"
     id="path4-2"
     d="M 4,3 C 2.6779661,3 2.6779661,4.5 4,4.5 l 8,0 C 13.33909,4.5 13.338983,3 12,3 L 4,3 Z M 5,5 4.25,8 2,8 C 0.67796613,8 0.67796613,9.5 2,9.5 L 3.875,9.5 3,13 4.5,13 5.375,9.5 10.625,9.5 11.5,13 13,13 12.125,9.5 14,9.5 C 15.33909,9.5 15.338983,8 14,8 L 11.75,8 11,5 9.5,5 10.25,8 5.75,8 6.5,5 5,5 Z" />
  <path
     style="fill:#734a08;fill-opacity:1"
     id="path4"
     d="M 4,3 C 2.6779661,3 2.6779661,4.5 4,4.5 l 8,0 C 13.33909,4.5 13.338983,3 12,3 L 4,3 Z M 5,5 4.25,8 2,8 C 0.67796612,8 0.67796612,9.5 2,9.5 L 3.875,9.5 3,13 4.5,13 5.375,9.5 10.625,9.5 11.5,13 13,13 12.125,9.5 14,9.5 C 15.33909,9.5 15.338983,8 14,8 L 11.75,8 11,5 9.5,5 10.25,8 5.75,8 6.5,5 5,5 Z" />
</svg>
