<?xml version="1.0" encoding="UTF-8" standalone="no"?>
<svg
   xmlns:dc="http://purl.org/dc/elements/1.1/"
   xmlns:cc="http://creativecommons.org/ns#"
   xmlns:rdf="http://www.w3.org/1999/02/22-rdf-syntax-ns#"
   xmlns:svg="http://www.w3.org/2000/svg"
   xmlns="http://www.w3.org/2000/svg"
   id="svg2"
   viewBox="0 0 16 16"
   height="100%"
   width="100%"
   version="1.1">
  <metadata
     id="metadata8">
    <rdf:RDF>
      <cc:Work
         rdf:about="">
        <dc:format>image/svg+xml</dc:format>
        <dc:type
           rdf:resource="http://purl.org/dc/dcmitype/StillImage" />
      </cc:Work>
    </rdf:RDF>
  </metadata>
  <defs
     id="defs6" />
  <path
     style="fill:#734a08;fill-opacity:1;stroke:#ffffff;stroke-width:0.6;stroke-miterlimit:4;stroke-dasharray:none;stroke-linejoin:round;stroke-linecap:round"
     id="path4885-6"
     d="m 4.406,2.000 c -0.75363,0.047193 -1.4077261,0.7448953 -1.40625,1.5 2.867e-4,0.7852156 0.714,1.499 1.5,1.4994517 0.7852156,0 1.4997133,-0.7142361 1.5,-1.4994517 0.0016,-0.8176455 -0.7777016,-1.5511045 -1.59375,-1.5 z m 8,3 c -0.75363,0.047193 -1.407726,0.7448953 -1.40625,1.5 2.87e-4,0.7852156 0.714,1.499 1.5,1.4994517 0.785216,0 1.499713,-0.7142361 1.5,-1.4994517 0.0016,-0.8176455 -0.777702,-1.5511044 -1.59375,-1.5 z M 4,5.5000004 c -1.4709898,0 -1.8658352,1.8734067 -1.96875,2.875 L 1,8.0000004 l 0,1 L 6.968,11.12 6,15 10,15 9.062,11.87 15,14 15,13 14.06,12.65 C 14.22,11.79 14.75,8.5000004 13,8.5000004 c -1.638462,0 -1.915209,2.2445006 -1.96875,3.0937496 L 5.093,9.468 C 5.285,8.337 5.614,5.5000004 4,5.5000004 Z" />
  <path
     style="fill:#734a08;fill-opacity:1;stroke:none"
     id="path4885"
     d="m 4.406,2.000 c -0.75363,0.047193 -1.4077261,0.7448953 -1.40625,1.5 2.867e-4,0.7852156 0.714,1.499 1.5,1.4994517 0.7852156,0 1.4997133,-0.7142361 1.5,-1.4994517 0.0016,-0.8176455 -0.7777016,-1.5511045 -1.59375,-1.5 z m 8,3 c -0.75363,0.047193 -1.407726,0.7448953 -1.40625,1.5 2.87e-4,0.7852156 0.714,1.499 1.5,1.4994517 0.785216,0 1.499713,-0.7142361 1.5,-1.4994517 0.0016,-0.8176455 -0.777702,-1.5511044 -1.59375,-1.5 z M 4,5.5000004 c -1.4709898,0 -1.8658352,1.8734067 -1.96875,2.875 L 1,8.0000004 l 0,1 L 6.968,11.12 6,15 10,15 9.062,11.87 15,14 15,13 14.06,12.65 C 14.22,11.79 14.75,8.5000004 13,8.5000004 c -1.638462,0 -1.915209,2.2445006 -1.96875,3.0937496 L 5.093,9.468 C 5.285,8.337 5.614,5.5000004 4,5.5000004 Z" />
</svg>
