<?xml version="1.0" encoding="UTF-8" standalone="no"?>
<svg
   xmlns:dc="http://purl.org/dc/elements/1.1/"
   xmlns:cc="http://creativecommons.org/ns#"
   xmlns:rdf="http://www.w3.org/1999/02/22-rdf-syntax-ns#"
   xmlns:svg="http://www.w3.org/2000/svg"
   xmlns="http://www.w3.org/2000/svg"
   id="svg2"
   viewBox="0 0 16 16"
   height="100%"
   width="100%"
   version="1.1">
  <metadata
     id="metadata10">
    <rdf:RDF>
      <cc:Work
         rdf:about="">
        <dc:format>image/svg+xml</dc:format>
        <dc:type
           rdf:resource="http://purl.org/dc/dcmitype/StillImage" />
      </cc:Work>
    </rdf:RDF>
  </metadata>
  <defs
     id="defs8" />
  <path
     style="fill:#734a08;fill-opacity:1;stroke:#ffffff;stroke-width:0.6;stroke-miterlimit:4;stroke-dasharray:none;stroke-linejoin:round;stroke-linecap:round"
     id="path4-6"
     d="M 6,1 5,2 5,3 11,3 11,2 10,1 Z M 5,4 C 4.966,4.168 5,4.3395259 5,4.5185186 5,5.9503556 6.61931,7 8,7 9.38069,7 11,5.9503556 11,4.5185186 11,4.3395259 11,4 11,4 Z M 5,8 C 3.5810939,8 3.014,9.876 3,11 L 3,15 4.53125,15 10,8 Z M 11.5,8 6.03125,15 13,15 13,11 C 13,9.8764743 12.727158,8 11.5,8 Z" />
  <path
     style="fill:#734a08;fill-opacity:1"
     id="path4"
     d="M 6,1 5,2 5,3 11,3 11,2 10,1 Z M 5,4 C 4.966,4.168 5,4.3395259 5,4.5185186 5,5.9503556 6.61931,7 8,7 9.38069,7 11,5.9503556 11,4.5185186 11,4.3395259 11,4 11,4 Z M 5,8 C 3.5810939,8 3.014,9.876 3,11 L 3,15 4.53125,15 10,8 Z M 11.5,8 6.03125,15 13,15 13,11 C 13,9.8764743 12.727158,8 11.5,8 Z" />
</svg>
