<?xml version="1.0" encoding="UTF-8" standalone="no"?>
<!-- Created with Inkscape (http://www.inkscape.org/) -->

<svg
   xmlns:dc="http://purl.org/dc/elements/1.1/"
   xmlns:cc="http://creativecommons.org/ns#"
   xmlns:rdf="http://www.w3.org/1999/02/22-rdf-syntax-ns#"
   xmlns:svg="http://www.w3.org/2000/svg"
   xmlns="http://www.w3.org/2000/svg"
   xmlns:sodipodi="http://sodipodi.sourceforge.net/DTD/sodipodi-0.dtd"
   xmlns:inkscape="http://www.inkscape.org/namespaces/inkscape"
   version="1.1"
   width="100%"
   height="100%"
   viewBox="0 0 16 16"
   id="svg2"
   inkscape:version="0.91 r"
   sodipodi:docname="police.16.svg">
  <metadata
     id="metadata10">
    <rdf:RDF>
      <cc:Work
         rdf:about="">
        <dc:format>image/svg+xml</dc:format>
        <dc:type
           rdf:resource="http://purl.org/dc/dcmitype/StillImage" />
      </cc:Work>
    </rdf:RDF>
  </metadata>
  <defs
     id="defs8" />
  <sodipodi:namedview
     pagecolor="#dadada"
     bordercolor="#666666"
     borderopacity="1"
     objecttolerance="10"
     gridtolerance="10"
     guidetolerance="10"
     inkscape:pageopacity="0"
     inkscape:pageshadow="2"
     inkscape:window-width="706"
     inkscape:window-height="480"
     id="namedview6"
     showgrid="false"
     inkscape:zoom="14.75"
     inkscape:cx="8"
     inkscape:cy="8"
     inkscape:window-x="0"
     inkscape:window-y="0"
     inkscape:window-maximized="0"
     inkscape:current-layer="svg2" />
  <path
     inkscape:connector-curvature="0"
     d="M 6,1 5,2 5,3 11,3 11,2 10,1 Z M 5,4 C 4.9667,4.168726 5,4.3395259 5,4.5185186 5,5.9503556 6.61931,7 8,7 9.38069,7 11,5.9503556 11,4.5185186 11,4.3395259 11,4 11,4 Z M 5,8 C 3.5810939,8 3.01415,9.876578 3,11 L 3,15 4.53125,15 10,8 Z M 11.5,8 6.03125,15 13,15 13,11 C 13,9.8764743 12.727158,8 11.5,8 Z"
     id="path4-6"
     style="fill:#734a08;fill-opacity:1;stroke:#ffffff;stroke-width:0.6;stroke-miterlimit:4;stroke-dasharray:none;stroke-linejoin:round;stroke-linecap:round" />
  <path
     inkscape:connector-curvature="0"
     d="M 6,1 5,2 5,3 11,3 11,2 10,1 Z M 5,4 C 4.9667,4.168726 5,4.3395259 5,4.5185186 5,5.9503556 6.61931,7 8,7 9.38069,7 11,5.9503556 11,4.5185186 11,4.3395259 11,4 11,4 Z M 5,8 C 3.5810939,8 3.01415,9.876578 3,11 L 3,15 4.53125,15 10,8 Z M 11.5,8 6.03125,15 13,15 13,11 C 13,9.8764743 12.727158,8 11.5,8 Z"
     id="path4"
     style="fill:#734a08;fill-opacity:1" />
</svg>
