<?xml version="1.0" encoding="UTF-8" standalone="no"?>
<svg
   xmlns:dc="http://purl.org/dc/elements/1.1/"
   xmlns:cc="http://creativecommons.org/ns#"
   xmlns:rdf="http://www.w3.org/1999/02/22-rdf-syntax-ns#"
   xmlns:svg="http://www.w3.org/2000/svg"
   xmlns="http://www.w3.org/2000/svg"
   id="svg2"
   viewBox="0 0 12 12"
   height="100%"
   width="100%"
   version="1.1">
  <metadata
     id="metadata8">
    <rdf:RDF>
      <cc:Work
         rdf:about="">
        <dc:format>image/svg+xml</dc:format>
        <dc:type
           rdf:resource="http://purl.org/dc/dcmitype/StillImage" />
        <dc:title />
      </cc:Work>
    </rdf:RDF>
  </metadata>
  <defs
     id="defs6" />
  <rect
     style="visibility:hidden;fill:none;stroke:none"
     id="canvas"
     y="0"
     x="2.0230222e-14"
     height="12"
     width="12" />
  <path
     style="fill:#734a08;fill-opacity:1;stroke:#ffffff;stroke-width:0.6;stroke-miterlimit:4;stroke-dasharray:none;stroke-linejoin:round;stroke-linecap:round"
     id="path4258-7"
     d="m 1.762,0.915 c -0.4596381,0 -0.84745773,0.3878196 -0.84745764,0.8474576 l 1.6e-7,0.8474577 c 9e-8,0.4740017 0.414,0.847 0.847,0.847 l 0,-1.6949152 8.4745762,0 0,1.6949152 c 0.433375,0 0.847458,-0.4116181 0.847458,-0.8474576 l 0,-0.8474577 c 0,-0.459638 -0.416547,-0.8474576 -0.847458,-0.8474576 z m 5.508,10.15 -4.6610055,0.01035 0,-8.4745767 4.6421879,-0.010328 -2.5329578,4.2429225 z m 2.118,0.010 -0.847472,-0.01317 -2.5517754,-4.2316328 2.5329578,-4.2429228 0.866,0.013 z" />
  <path
     style="fill:#734a08;fill-opacity:1"
     id="path4258"
     d="m 1.762,0.915 c -0.4596381,0 -0.84745773,0.38781956 -0.84745764,0.84745756 l 1.6e-7,0.8474577 c 9e-8,0.4740017 0.414,0.847 0.847,0.847 l 0,-1.6949152 8.4745762,0 0,1.6949152 c 0.433375,0 0.847458,-0.4116181 0.847458,-0.8474576 l 0,-0.8474577 c 0,-0.459638 -0.416547,-0.84745756 -0.847458,-0.84745756 z M 7.271,11.07 l -4.6610055,0.01035 0,-8.4745765 4.6421879,-0.010328 -2.5329578,4.2429225 z m 2.118,0.010 -0.847472,-0.01317 -2.5517754,-4.2316326 2.5329578,-4.2429228 0.866,0.013 z" />
</svg>
