<?xml version="1.0" encoding="UTF-8" standalone="no"?>
<svg
   xmlns:dc="http://purl.org/dc/elements/1.1/"
   xmlns:cc="http://creativecommons.org/ns#"
   xmlns:rdf="http://www.w3.org/1999/02/22-rdf-syntax-ns#"
   xmlns:svg="http://www.w3.org/2000/svg"
   xmlns="http://www.w3.org/2000/svg"
   xmlns:sodipodi="http://sodipodi.sourceforge.net/DTD/sodipodi-0.dtd"
   xmlns:inkscape="http://www.inkscape.org/namespaces/inkscape"
   version="1.1"
   width="100%"
   height="100%"
   viewBox="0 0 12 12"
   id="svg2"
   inkscape:version="0.91 r"
   sodipodi:docname="post_box-12.svg">
  <sodipodi:namedview
     pagecolor="#dadada"
     bordercolor="#666666"
     borderopacity="1"
     objecttolerance="10"
     gridtolerance="10"
     guidetolerance="10"
     inkscape:pageopacity="0"
     inkscape:pageshadow="2"
     inkscape:window-width="706"
     inkscape:window-height="480"
     id="namedview7"
     showgrid="false"
     inkscape:zoom="19.666667"
     inkscape:cx="6.0000001"
     inkscape:cy="6.0000001"
     inkscape:window-x="0"
     inkscape:window-y="0"
     inkscape:window-maximized="0"
     inkscape:current-layer="svg2" />
  <metadata
     id="metadata8">
    <rdf:RDF>
      <cc:Work
         rdf:about="">
        <dc:format>image/svg+xml</dc:format>
        <dc:type
           rdf:resource="http://purl.org/dc/dcmitype/StillImage" />
        <dc:title />
      </cc:Work>
    </rdf:RDF>
  </metadata>
  <defs
     id="defs6" />
  <rect
     width="12"
     height="12"
     x="2.0230222e-14"
     y="0"
     id="canvas"
     style="visibility:hidden;fill:none;stroke:none" />
  <path
     inkscape:connector-curvature="0"
     d="m 1.7627117,0.915254 c -0.4596381,0 -0.84745773,0.3878196 -0.84745764,0.8474576 l 1.6e-7,0.8474577 c 9e-8,0.4740017 0.41408218,0.8474576 0.84745758,0.8474576 l 0,-1.6949152 8.4745762,0 0,1.6949152 c 0.433375,0 0.847458,-0.4116181 0.847458,-0.8474576 l 0,-0.8474577 c 0,-0.459638 -0.416547,-0.8474576 -0.847458,-0.8474576 z m 5.5084633,10.159143 -4.6610055,0.01035 0,-8.4745767 4.6421879,-0.010328 -2.5329578,4.2429225 z m 2.1186553,0.01035 -0.847472,-0.01317 -2.5517754,-4.2316328 2.5329578,-4.2429228 0.8662896,0.013151 z"
     id="path4258-7"
     style="fill:#734a08;fill-opacity:1;stroke:#ffffff;stroke-width:0.6;stroke-miterlimit:4;stroke-dasharray:none;stroke-linejoin:round;stroke-linecap:round" />
  <path
     inkscape:connector-curvature="0"
     d="m 1.7627117,0.91525424 c -0.4596381,0 -0.84745773,0.38781956 -0.84745764,0.84745756 l 1.6e-7,0.8474577 c 9e-8,0.4740017 0.41408218,0.8474576 0.84745758,0.8474576 l 0,-1.6949152 8.4745762,0 0,1.6949152 c 0.433375,0 0.847458,-0.4116181 0.847458,-0.8474576 l 0,-0.8474577 c 0,-0.459638 -0.416547,-0.84745756 -0.847458,-0.84745756 z M 7.271175,11.074397 l -4.6610055,0.01035 0,-8.4745765 4.6421879,-0.010328 -2.5329578,4.2429225 z m 2.1186553,0.01035 -0.847472,-0.01317 -2.5517754,-4.2316326 2.5329578,-4.2429228 0.8662896,0.013151 z"
     id="path4258"
     style="fill:#734a08;fill-opacity:1" />
</svg>
