<?xml version="1.0" encoding="UTF-8" standalone="no"?>
<!-- Created with Inkscape (http://www.inkscape.org/) -->

<svg
   xmlns:dc="http://purl.org/dc/elements/1.1/"
   xmlns:cc="http://creativecommons.org/ns#"
   xmlns:rdf="http://www.w3.org/1999/02/22-rdf-syntax-ns#"
   xmlns:svg="http://www.w3.org/2000/svg"
   xmlns="http://www.w3.org/2000/svg"
   xmlns:sodipodi="http://sodipodi.sourceforge.net/DTD/sodipodi-0.dtd"
   xmlns:inkscape="http://www.inkscape.org/namespaces/inkscape"
   version="1.1"
   width="100%"
   height="100%"
   viewBox="0 0 16 16"
   id="svg2"
   inkscape:version="0.91 r"
   sodipodi:docname="prison.16.svg">
  <metadata
     id="metadata10">
    <rdf:RDF>
      <cc:Work
         rdf:about="">
        <dc:format>image/svg+xml</dc:format>
        <dc:type
           rdf:resource="http://purl.org/dc/dcmitype/StillImage" />
      </cc:Work>
    </rdf:RDF>
  </metadata>
  <defs
     id="defs8" />
  <sodipodi:namedview
     pagecolor="#dadada"
     bordercolor="#666666"
     borderopacity="1"
     objecttolerance="10"
     gridtolerance="10"
     guidetolerance="10"
     inkscape:pageopacity="0"
     inkscape:pageshadow="2"
     inkscape:window-width="706"
     inkscape:window-height="480"
     id="namedview6"
     showgrid="false"
     inkscape:zoom="14.75"
     inkscape:cx="8"
     inkscape:cy="8"
     inkscape:window-x="0"
     inkscape:window-y="0"
     inkscape:window-maximized="0"
     inkscape:current-layer="svg2" />
  <path
     inkscape:connector-curvature="0"
     d="M 1,1 1,15 15,15 15,1 1,1 Z m 1,1 3,0 0,12 -0.5,0 0,-4.21875 C 4.2009277,10.13501 4,10.5625 4,11 L 4,14 2,14 2,2 Z m 4,0 4,0 0,12 -0.5,0 0,-5 -3,0 0,5 L 6,14 6,2 Z m 5,0 3,0 0,12 -2,0 0,-3 C 12,10.5625 11.799072,10.13501 11.5,9.78125 L 11.5,14 11,14 11,2 Z M 8,4 C 7.3991523,4 6.8666154,4.2680514 6.5,4.6875 l 0,2.625 C 6.8666154,7.7319486 7.3991523,8 8,8 8.6008474,8 9.1333845,7.7319486 9.5,7.3125 l 0,-2.625 C 9.1333845,4.2680514 8.6008474,4 8,4 Z"
     id="path4-6"
     style="fill:#734a08;fill-opacity:1;stroke:#ffffff;stroke-width:0.6;stroke-miterlimit:4;stroke-dasharray:none;stroke-linejoin:round;stroke-linecap:round" />
  <path
     inkscape:connector-curvature="0"
     d="M 1,1 1,15 15,15 15,1 1,1 Z m 1,1 3,0 0,12 -0.5,0 0,-4.21875 C 4.2009277,10.13501 4,10.5625 4,11 L 4,14 2,14 2,2 Z m 4,0 4,0 0,12 -0.5,0 0,-5 -3,0 0,5 L 6,14 6,2 Z m 5,0 3,0 0,12 -2,0 0,-3 C 12,10.5625 11.799072,10.13501 11.5,9.78125 L 11.5,14 11,14 11,2 Z M 8,4 C 7.3991523,4 6.8666154,4.2680514 6.5,4.6875 l 0,2.625 C 6.8666154,7.7319486 7.3991523,8 8,8 8.6008474,8 9.1333845,7.7319486 9.5,7.3125 l 0,-2.625 C 9.1333845,4.2680514 8.6008474,4 8,4 Z"
     id="path4"
     style="fill:#734a08;fill-opacity:1" />
</svg>
