<?xml version="1.0" encoding="UTF-8" standalone="no"?>
<svg
   xmlns:dc="http://purl.org/dc/elements/1.1/"
   xmlns:cc="http://creativecommons.org/ns#"
   xmlns:rdf="http://www.w3.org/1999/02/22-rdf-syntax-ns#"
   xmlns:svg="http://www.w3.org/2000/svg"
   xmlns="http://www.w3.org/2000/svg"
   id="svg2"
   viewBox="0 0 16 16"
   height="100%"
   width="100%"
   version="1.1">
  <metadata
     id="metadata10">
    <rdf:RDF>
      <cc:Work
         rdf:about="">
        <dc:format>image/svg+xml</dc:format>
        <dc:type
           rdf:resource="http://purl.org/dc/dcmitype/StillImage" />
      </cc:Work>
    </rdf:RDF>
  </metadata>
  <defs
     id="defs8" />
  <path
     style="fill:#734a08;fill-opacity:1;stroke:#ffffff;stroke-width:0.6;stroke-miterlimit:4;stroke-dasharray:none;stroke-linejoin:round;stroke-linecap:round"
     id="path4-1"
     d="M 6.111,9.690 4.513,6.804 1.3,6.8040473 2.606,7.588 1.798,9.031 C 1.729,9.161 1.695,9.298 1.695,9.441 c -2.9e-6,0.1424558 0.034,0.279 0.103,0.409 l 1.271,2.298 c 0.057331,-0.166376 0.1146592,-0.309011 0.171995,-0.427902 L 4.822,8.906 6.111,9.690 Z M 3.723,12.00 c -0.091944,0.154416 -0.1379139,0.320611 -0.1379099,0.498585 -4e-6,0.273307 0.094,0.504 0.283,0.694 0.189,0.189 0.415,0.284 0.678,0.284 l 3.1619632,0 0,-2.654413 -3.333432,0 c -0.023082,0.04749 -0.109074,0.201902 -0.2579918,0.463243 l -0.3948518,0.712811 z m 4.2783511,-6.5745951 3.196047,0 1.615066,-2.8860366 -1.305686,0.7840355 -0.808057,-1.4435622 C 10.54,1.613 10.32,1.477 10.01,1.477 l -2.5432048,0 C 7.571,1.595 7.657,1.714 7.726,1.833 L 9.289,4.648 9.032,4.808 8.001,5.432 Z M 6.437,1.619 C 6.071,1.619 5.796,1.785 5.612,2.118 L 4.015,4.969 C 4.622,5.337 5.360,5.776 6.231,6.287 6.746,5.372 7.302,4.375 7.898,3.294 L 7.262,2.118 C 7.079,1.785 6.804,1.619 6.437,1.619 l 0,0 z m 4.106,9.175 0,-0.320793 0,-1.2287947 L 8.946,12.13 10.544679,15 l 0,-1.55013 1.597761,0 c 0.309366,0 0.54411,-0.136653 0.704231,-0.409962 l 1.271602,-2.298279 c -0.171656,0.04749 -0.314811,0.07123 -0.42946,0.07123 l -3.144134,-0.01795 z m 2.37121,-4.8814697 c -0.05735,0.035533 -0.79636,0.4750321 -2.217045,1.3185066 0.710,1.270 1.271,2.274 1.684,3.011 l 1.288383,0 c 0.378233,2e-6 0.658946,-0.166373 0.842142,-0.4991317 0.171629,-0.3207878 0.165862,-0.6473788 -0.01731,-0.9797736 l -1.58045,-2.8506944 z" />
  <path
     style="fill:#734a08;fill-opacity:1"
     id="path4"
     d="M 6.111,9.690 4.513,6.804 1.3,6.8040473 2.606,7.588 1.798,9.031 C 1.729,9.161 1.695,9.298 1.695,9.441 c -2.9e-6,0.1424558 0.034,0.279 0.103,0.409 l 1.271,2.298 c 0.057331,-0.166376 0.1146592,-0.309011 0.171995,-0.427902 L 4.822,8.906 6.111,9.690 Z M 3.723,12.00 c -0.091944,0.154416 -0.1379139,0.320611 -0.1379099,0.498585 -4e-6,0.273307 0.094,0.504 0.283,0.694 0.189,0.189 0.415,0.284 0.678,0.284 l 3.1619632,0 0,-2.654413 -3.333432,0 c -0.023082,0.04749 -0.109074,0.201902 -0.2579918,0.463243 l -0.3948518,0.712811 z m 4.2783511,-6.5745951 3.196047,0 1.615066,-2.8860366 -1.305686,0.7840355 -0.808057,-1.4435622 C 10.54,1.613 10.32,1.477 10.01,1.477 l -2.5432048,0 C 7.571,1.595 7.657,1.714 7.726,1.833 L 9.289,4.648 9.032,4.808 8.001,5.432 Z M 6.437,1.619 C 6.071,1.619 5.796,1.785 5.612,2.118 L 4.015,4.969 C 4.622,5.337 5.360,5.776 6.231,6.287 6.746,5.372 7.302,4.375 7.898,3.294 L 7.262,2.118 C 7.079,1.785 6.804,1.619 6.437,1.619 l 0,0 z m 4.106,9.175 0,-0.320793 0,-1.2287947 L 8.946,12.13 10.544679,15 l 0,-1.55013 1.597761,0 c 0.309366,0 0.54411,-0.136653 0.704231,-0.409962 l 1.271602,-2.298279 c -0.171656,0.04749 -0.314811,0.07123 -0.42946,0.07123 l -3.144134,-0.01795 z m 2.37121,-4.8814697 c -0.05735,0.035533 -0.79636,0.4750321 -2.217045,1.3185066 0.710,1.270 1.271,2.274 1.684,3.011 l 1.288383,0 c 0.378233,2e-6 0.658946,-0.166373 0.842142,-0.4991317 0.171629,-0.3207878 0.165862,-0.6473788 -0.01731,-0.9797736 l -1.58045,-2.8506944 z" />
</svg>
