<?xml version="1.0" encoding="UTF-8" standalone="no"?>
<!-- Created with Inkscape (http://www.inkscape.org/) -->

<svg
   xmlns:dc="http://purl.org/dc/elements/1.1/"
   xmlns:cc="http://creativecommons.org/ns#"
   xmlns:rdf="http://www.w3.org/1999/02/22-rdf-syntax-ns#"
   xmlns:svg="http://www.w3.org/2000/svg"
   xmlns="http://www.w3.org/2000/svg"
   xmlns:sodipodi="http://sodipodi.sourceforge.net/DTD/sodipodi-0.dtd"
   xmlns:inkscape="http://www.inkscape.org/namespaces/inkscape"
   version="1.1"
   width="100%"
   height="100%"
   viewBox="0 0 16 16"
   id="svg2"
   inkscape:version="0.91 r"
   sodipodi:docname="recycling.16.svg">
  <metadata
     id="metadata10">
    <rdf:RDF>
      <cc:Work
         rdf:about="">
        <dc:format>image/svg+xml</dc:format>
        <dc:type
           rdf:resource="http://purl.org/dc/dcmitype/StillImage" />
      </cc:Work>
    </rdf:RDF>
  </metadata>
  <defs
     id="defs8" />
  <sodipodi:namedview
     pagecolor="#dadada"
     bordercolor="#666666"
     borderopacity="1"
     objecttolerance="10"
     gridtolerance="10"
     guidetolerance="10"
     inkscape:pageopacity="0"
     inkscape:pageshadow="2"
     inkscape:window-width="706"
     inkscape:window-height="480"
     id="namedview6"
     showgrid="false"
     inkscape:zoom="14.75"
     inkscape:cx="8"
     inkscape:cy="8"
     inkscape:window-x="0"
     inkscape:window-y="0"
     inkscape:window-maximized="0"
     inkscape:current-layer="svg2" />
  <path
     inkscape:connector-curvature="0"
     d="M 6.1111131,9.6906283 4.5133516,6.8040473 1.3,6.8040473 2.6062101,7.588084 1.7986781,9.0311019 C 1.7298071,9.161961 1.6953738,9.2986135 1.6953767,9.4410635 c -2.9e-6,0.1424558 0.03443,0.2791098 0.1033014,0.4099598 l 1.2710773,2.2982817 c 0.057331,-0.166376 0.1146592,-0.309011 0.171995,-0.427902 L 4.8227305,8.9065918 6.1111131,9.6906283 Z M 3.7231229,12.006852 c -0.091944,0.154416 -0.1379139,0.320611 -0.1379099,0.498585 -4e-6,0.273307 0.094563,0.504931 0.2836852,0.694868 0.189119,0.189939 0.4152978,0.284906 0.6785371,0.284906 l 3.1619632,0 0,-2.654413 -3.333432,0 c -0.023082,0.04749 -0.109074,0.201902 -0.2579918,0.463243 l -0.3948518,0.712811 z m 4.2783511,-6.5745951 3.196047,0 1.615066,-2.8860366 -1.305686,0.7840355 -0.808057,-1.4435622 C 10.549912,1.6137612 10.320934,1.4772896 10.011916,1.477277 l -2.5432048,0 C 7.5718315,1.5958196 7.6578273,1.7145298 7.7267029,1.8334101 L 9.2898557,4.6482202 9.032389,4.8086157 8.001474,5.4322569 Z M 6.4377974,1.6197309 C 6.0710797,1.6197424 5.7961336,1.7859377 5.6129601,2.1183166 L 4.0151984,4.9690112 C 4.6220663,5.3372944 5.3609057,5.7767967 6.2317187,6.2875188 6.746994,5.3729993 7.3024778,4.3752846 7.8981728,3.2943706 L 7.2626345,2.1183166 C 7.0794458,1.7859377 6.8045007,1.6197424 6.4377974,1.6197309 l 0,0 z m 4.1068816,9.1751821 0,-0.320793 0,-1.2287947 L 8.9463931,12.131363 10.544679,15 l 0,-1.55013 1.597761,0 c 0.309366,0 0.54411,-0.136653 0.704231,-0.409962 l 1.271602,-2.298279 c -0.171656,0.04749 -0.314811,0.07123 -0.42946,0.07123 l -3.144134,-0.01795 z m 2.37121,-4.8814697 c -0.05735,0.035533 -0.79636,0.4750321 -2.217045,1.3185066 0.710337,1.2708481 1.271764,2.2745434 1.684282,3.0110931 l 1.288383,0 c 0.378233,2e-6 0.658946,-0.166373 0.842142,-0.4991317 0.171629,-0.3207878 0.165862,-0.6473788 -0.01731,-0.9797736 l -1.58045,-2.8506944 z"
     id="path4-1"
     style="fill:#734a08;fill-opacity:1;stroke:#ffffff;stroke-width:0.6;stroke-miterlimit:4;stroke-dasharray:none;stroke-linejoin:round;stroke-linecap:round" />
  <path
     inkscape:connector-curvature="0"
     d="M 6.1111131,9.6906283 4.5133516,6.8040473 1.3,6.8040473 2.6062101,7.588084 1.7986781,9.0311019 C 1.7298071,9.161961 1.6953738,9.2986135 1.6953767,9.4410635 c -2.9e-6,0.1424558 0.03443,0.2791098 0.1033014,0.4099598 l 1.2710773,2.2982817 c 0.057331,-0.166376 0.1146592,-0.309011 0.171995,-0.427902 L 4.8227305,8.9065918 6.1111131,9.6906283 Z M 3.7231229,12.006852 c -0.091944,0.154416 -0.1379139,0.320611 -0.1379099,0.498585 -4e-6,0.273307 0.094563,0.504931 0.2836852,0.694868 0.189119,0.189939 0.4152978,0.284906 0.6785371,0.284906 l 3.1619632,0 0,-2.654413 -3.333432,0 c -0.023082,0.04749 -0.109074,0.201902 -0.2579918,0.463243 l -0.3948518,0.712811 z m 4.2783511,-6.5745951 3.196047,0 1.615066,-2.8860366 -1.305686,0.7840355 -0.808057,-1.4435622 C 10.549912,1.6137612 10.320934,1.4772896 10.011916,1.477277 l -2.5432048,0 C 7.5718315,1.5958196 7.6578273,1.7145298 7.7267029,1.8334101 L 9.2898557,4.6482202 9.032389,4.8086157 8.001474,5.4322569 Z M 6.4377974,1.6197309 C 6.0710797,1.6197424 5.7961336,1.7859377 5.6129601,2.1183166 L 4.0151984,4.9690112 C 4.6220663,5.3372944 5.3609057,5.7767967 6.2317187,6.2875188 6.746994,5.3729993 7.3024778,4.3752846 7.8981728,3.2943706 L 7.2626345,2.1183166 C 7.0794458,1.7859377 6.8045007,1.6197424 6.4377974,1.6197309 l 0,0 z m 4.1068816,9.1751821 0,-0.320793 0,-1.2287947 L 8.9463931,12.131363 10.544679,15 l 0,-1.55013 1.597761,0 c 0.309366,0 0.54411,-0.136653 0.704231,-0.409962 l 1.271602,-2.298279 c -0.171656,0.04749 -0.314811,0.07123 -0.42946,0.07123 l -3.144134,-0.01795 z m 2.37121,-4.8814697 c -0.05735,0.035533 -0.79636,0.4750321 -2.217045,1.3185066 0.710337,1.2708481 1.271764,2.2745434 1.684282,3.0110931 l 1.288383,0 c 0.378233,2e-6 0.658946,-0.166373 0.842142,-0.4991317 0.171629,-0.3207878 0.165862,-0.6473788 -0.01731,-0.9797736 l -1.58045,-2.8506944 z"
     id="path4"
     style="fill:#734a08;fill-opacity:1" />
</svg>
