<?xml version="1.0" encoding="UTF-8" standalone="no"?>
<svg
   xmlns:dc="http://purl.org/dc/elements/1.1/"
   xmlns:cc="http://creativecommons.org/ns#"
   xmlns:rdf="http://www.w3.org/1999/02/22-rdf-syntax-ns#"
   xmlns:svg="http://www.w3.org/2000/svg"
   xmlns="http://www.w3.org/2000/svg"
   id="svg2"
   viewBox="0 0 16 16"
   height="100%"
   width="100%"
   version="1.1">
  <metadata
     id="metadata10">
    <rdf:RDF>
      <cc:Work
         rdf:about="">
        <dc:format>image/svg+xml</dc:format>
        <dc:type
           rdf:resource="http://purl.org/dc/dcmitype/StillImage" />
      </cc:Work>
    </rdf:RDF>
  </metadata>
  <defs
     id="defs8" />
  <path
     style="fill:#734a08;fill-opacity:1;stroke:#ffffff;stroke-width:0.6;stroke-miterlimit:4;stroke-dasharray:none;stroke-linejoin:round;stroke-linecap:round"
     id="path4-1"
     d="M 5,1 C 4,1 2,3 2,6 c 0,3 2.25,4 2.25,4 l -0.5,5 2.5,0 -0.5,-5 C 5.75,10 8,9 8,6 8,3 6,1 5,1 Z M 9,1.75 9,8 c 0,1 1.75,1 1.75,2 l -0.5,5 2.5,0 -0.5,-5 C 12.25,9 14,9 14,8 l 0,-6.25 c 0,-1 -1,-1 -1,0 L 13,7 c 0,0.5632885 -1,0.5632884 -1,0 l 0,-5.25 c 0,-1 -1,-1 -1,0 L 11,7 c 0,0.5273339 -1,0.5273339 -1,0 l 0,-5.25 c 0,-1 -1,-1 -1,0 z" />
  <path
     style="fill:#734a08;fill-opacity:1"
     id="path4"
     d="M 5,1 C 4,1 2,3 2,6 c 0,3 2.25,4 2.25,4 l -0.5,5 2.5,0 -0.5,-5 C 5.75,10 8,9 8,6 8,3 6,1 5,1 Z M 9,1.75 9,8 c 0,1 1.75,1 1.75,2 l -0.5,5 2.5,0 -0.5,-5 C 12.25,9 14,9 14,8 l 0,-6.25 c 0,-1 -1,-1 -1,0 L 13,7 c 0,0.5632885 -1,0.5632884 -1,0 l 0,-5.25 c 0,-1 -1,-1 -1,0 L 11,7 c 0,0.5273339 -1,0.5273339 -1,0 l 0,-5.25 c 0,-1 -1,-1 -1,0 z" />
</svg>
