<?xml version="1.0" encoding="UTF-8" standalone="no"?>
<!-- Created with Inkscape (http://www.inkscape.org/) -->

<svg
   xmlns:dc="http://purl.org/dc/elements/1.1/"
   xmlns:cc="http://creativecommons.org/ns#"
   xmlns:rdf="http://www.w3.org/1999/02/22-rdf-syntax-ns#"
   xmlns:svg="http://www.w3.org/2000/svg"
   xmlns="http://www.w3.org/2000/svg"
   xmlns:sodipodi="http://sodipodi.sourceforge.net/DTD/sodipodi-0.dtd"
   xmlns:inkscape="http://www.inkscape.org/namespaces/inkscape"
   version="1.1"
   width="100%"
   height="100%"
   viewBox="0 0 16 16"
   id="svg2"
   inkscape:version="0.91 r"
   sodipodi:docname="restaurant.16.svg">
  <metadata
     id="metadata10">
    <rdf:RDF>
      <cc:Work
         rdf:about="">
        <dc:format>image/svg+xml</dc:format>
        <dc:type
           rdf:resource="http://purl.org/dc/dcmitype/StillImage" />
      </cc:Work>
    </rdf:RDF>
  </metadata>
  <defs
     id="defs8" />
  <sodipodi:namedview
     pagecolor="#dadada"
     bordercolor="#666666"
     borderopacity="1"
     objecttolerance="10"
     gridtolerance="10"
     guidetolerance="10"
     inkscape:pageopacity="0"
     inkscape:pageshadow="2"
     inkscape:window-width="1600"
     inkscape:window-height="845"
     id="namedview6"
     showgrid="false"
     inkscape:zoom="14.75"
     inkscape:cx="-1.6949153"
     inkscape:cy="8"
     inkscape:window-x="-2"
     inkscape:window-y="-3"
     inkscape:window-maximized="1"
     inkscape:current-layer="svg2" />
  <path
     inkscape:connector-curvature="0"
     d="M 5,1 C 4,1 2,3 2,6 c 0,3 2.25,4 2.25,4 l -0.5,5 2.5,0 -0.5,-5 C 5.75,10 8,9 8,6 8,3 6,1 5,1 Z M 9,1.75 9,8 c 0,1 1.75,1 1.75,2 l -0.5,5 2.5,0 -0.5,-5 C 12.25,9 14,9 14,8 l 0,-6.25 c 0,-1 -1,-1 -1,0 L 13,7 c 0,0.5632885 -1,0.5632884 -1,0 l 0,-5.25 c 0,-1 -1,-1 -1,0 L 11,7 c 0,0.5273339 -1,0.5273339 -1,0 l 0,-5.25 c 0,-1 -1,-1 -1,0 z"
     id="path4-1"
     style="fill:#734a08;fill-opacity:1;stroke:#ffffff;stroke-width:0.6;stroke-miterlimit:4;stroke-dasharray:none;stroke-linejoin:round;stroke-linecap:round" />
  <path
     inkscape:connector-curvature="0"
     d="M 5,1 C 4,1 2,3 2,6 c 0,3 2.25,4 2.25,4 l -0.5,5 2.5,0 -0.5,-5 C 5.75,10 8,9 8,6 8,3 6,1 5,1 Z M 9,1.75 9,8 c 0,1 1.75,1 1.75,2 l -0.5,5 2.5,0 -0.5,-5 C 12.25,9 14,9 14,8 l 0,-6.25 c 0,-1 -1,-1 -1,0 L 13,7 c 0,0.5632885 -1,0.5632884 -1,0 l 0,-5.25 c 0,-1 -1,-1 -1,0 L 11,7 c 0,0.5273339 -1,0.5273339 -1,0 l 0,-5.25 c 0,-1 -1,-1 -1,0 z"
     id="path4"
     style="fill:#734a08;fill-opacity:1" />
</svg>
