<svg xmlns="http://www.w3.org/2000/svg" viewBox="0 0 14 14"><path d="M4.008 0l-1 2h.47l1.045-2h-.515zm4 0l-1 2h.47l1.045-2h-.515zm4 0l-1 2h.47l1.045-2h-.515zM1 2L0 4h.47l1.048-2H1zm4.008 0l-1 2h.47l1.045-2h-.515zm4 0l-1 2h.47l1.045-2h-.515zm4 0l-1 2h.47l1.045-2h-.515zM2.5 4l-1 2h.47l1.048-2H2.5zm7.982 0l-1 2h.47L11 4h-.518zM7 5L0 9h2l1-.4V13.5a.5.5 0 0 0 .24.428.5.5 0 0 0 .504.008A.5.5 0 0 0 4 13.5V8.2L7 7l3 1.2v5.3a.5.5 0 0 0 .24.428.5.5 0 0 0 .504.008A.5.5 0 0 0 11 13.5V8.6l1 .4h2L7 5z" fill-rule="evenodd"/></svg>