<?xml version="1.0" encoding="UTF-8" standalone="no"?>
<svg
   xmlns:dc="http://purl.org/dc/elements/1.1/"
   xmlns:cc="http://creativecommons.org/ns#"
   xmlns:rdf="http://www.w3.org/1999/02/22-rdf-syntax-ns#"
   xmlns:svg="http://www.w3.org/2000/svg"
   xmlns="http://www.w3.org/2000/svg"
   version="1.1"
   width="100%"
   height="100%"
   viewBox="0 0 16 16"
   id="svg2">
  <metadata
     id="metadata10">
    <rdf:RDF>
      <cc:Work
         rdf:about="">
        <dc:format>image/svg+xml</dc:format>
        <dc:type
           rdf:resource="http://purl.org/dc/dcmitype/StillImage" />
        <dc:title></dc:title>
      </cc:Work>
    </rdf:RDF>
  </metadata>
  <defs
     id="defs8" />
  <path
     style="fill:#734a08;fill-opacity:1;fill-rule:evenodd;stroke:#ffffff;stroke-opacity:1;stroke-width:0.6;stroke-miterlimit:4;stroke-dasharray:none"
     d="m 8.0078125,1.020508 c -0.8281493,-1e-7 -1.4996072,0.6522233 -1.5,1.4570313 -7.175e-4,0.8055707 0.6710656,1.4589846 1.5,1.4589843 0.8289346,3e-7 1.5007176,-0.6534136 1.4999996,-1.4589843 C 9.5074201,1.6727313 8.8359621,1.0205079 8.0078125,1.020508 Z M 2.5,2.4794924 a 0.5,0.5 0 0 0 -0.5,0.5 l 0,6 c 0,1 -5.771e-4,1 1.1679688,1.9999996 0.8314542,1 0.8320312,1 0.8320312,2 l 0,2 3,0 0,-3 c 0,-0.789129 -0.4132351,-0.737378 -1,-1 C 4.2611238,9.9794924 3,8.9794924 3,7.9794924 l 0,-5 a 0.5,0.5 0 0 0 -0.5,-0.5 z m 11,0 a 0.5,0.5 0 0 0 -0.5,0.5 l 0,5 c 0,1.0000002 -1.261124,2 -3,2.9999996 -0.5867649,0.262622 -0.9999999,0.210871 -0.9999999,1 l 0,3 2.9999999,0 0,-2 c 0,-1 5.77e-4,-1 0.832031,-2 C 14.000577,9.9794924 14,9.9794924 14,8.9794924 l 0,-6 a 0.5,0.5 0 0 0 -0.5,-0.5 z m -5.5,2.5 c -2,0 -2,1 -2,2 l 0,3 4,0 0,-3 c 0,-1 0,-2 -2,-2 z"
     id="path5687-9" />
  <rect
     width="14"
     height="14"
     x="2.7627118"
     y="-5.1694913"
     id="canvas"
     style="visibility:hidden;fill:none;stroke:none" />
  <path
     style="fill:#734a08;fill-opacity:1;fill-rule:evenodd;stroke:none;stroke-opacity:1"
     d="m 8.0078125,1.0205078 c -0.8281493,-1e-7 -1.4996072,0.6522233 -1.5,1.4570313 -7.175e-4,0.8055707 0.6710656,1.4589846 1.5,1.4589843 0.8289346,3e-7 1.5007176,-0.6534136 1.4999996,-1.4589843 -3.92e-4,-0.804808 -0.67185,-1.4570314 -1.4999996,-1.4570313 z M 2.5,2.4794922 a 0.5,0.5 0 0 0 -0.5,0.5 l 0,6 c 0,1 -5.771e-4,1 1.1679688,1.9999998 0.8314542,1 0.8320312,1 0.8320312,2 l 0,2 3,0 0,-3 c 0,-0.789129 -0.4132351,-0.737378 -1,-1 C 4.2611238,9.9794922 3,8.9794922 3,7.9794922 l 0,-5 a 0.5,0.5 0 0 0 -0.5,-0.5 z m 11,0 a 0.5,0.5 0 0 0 -0.5,0.5 l 0,5 c 0,1.0000002 -1.261124,2 -3,2.9999998 -0.5867649,0.262622 -0.9999999,0.210871 -0.9999999,1 l 0,3 2.9999999,0 0,-2 c 0,-1 5.77e-4,-1 0.832031,-2 C 14.000577,9.9794922 14,9.9794922 14,8.9794922 l 0,-6 a 0.5,0.5 0 0 0 -0.5,-0.5 z m -5.5,2.5 c -2,0 -2,1 -2,2 l 0,3 4,0 0,-3 c 0,-1 0,-2 -2,-2 z"
     id="path5687" />
</svg>
