<?xml version="1.0" encoding="UTF-8" standalone="no"?>
<svg
   xmlns:dc="http://purl.org/dc/elements/1.1/"
   xmlns:cc="http://creativecommons.org/ns#"
   xmlns:rdf="http://www.w3.org/1999/02/22-rdf-syntax-ns#"
   xmlns:svg="http://www.w3.org/2000/svg"
   xmlns="http://www.w3.org/2000/svg"
   id="svg2"
   viewBox="0 0 16 16"
   height="100%"
   width="100%"
   version="1.1">
  <metadata
     id="metadata8">
    <rdf:RDF>
      <cc:Work
         rdf:about="">
        <dc:format>image/svg+xml</dc:format>
        <dc:type
           rdf:resource="http://purl.org/dc/dcmitype/StillImage" />
        <dc:title />
      </cc:Work>
    </rdf:RDF>
  </metadata>
  <defs
     id="defs6" />
  <rect
     style="visibility:hidden;fill:none;stroke:none"
     id="canvas"
     y="0"
     x="0"
     height="16"
     width="16" />
  <path
     style="color:#000000;display:inline;overflow:visible;visibility:visible;fill:#734a08;fill-opacity:1;stroke-width:0.6;marker:none;enable-background:accumulate;stroke:#ffffff;stroke-miterlimit:4;stroke-dasharray:none;stroke-linejoin:round;stroke-linecap:round"
     id="telephone-0"
     d="M 3,8.9999996 C 2.011,9.988 1.560,11.57 2.548,12.55 L 3,13 6,9.9999996 l 0,-1.5 2.5,-2.5 1.5,0 3,-3 -0.510593,-0.487288 C 11.51,1.581 9.980,2.019 9,2.9999996 Z m 0.545,4.537 0.338,0.352 c 0,0 0.850,0.075 1.2889221,-0.356167 L 6.566,12.16 C 6.948,11.75 6.873,10.85 6.873,10.85 L 6.535,10.50 Z m 7.0078988,-7.0172277 0.338,0.352 c 0,0 0.869,0.157 1.264351,-0.2310704 l 1.393699,-1.372494 C 13.94,4.880 13.87,3.861 13.87,3.861 L 13.53,3.508 Z" />
  <path
     style="color:#000000;display:inline;overflow:visible;visibility:visible;fill:#734a08;fill-opacity:1;stroke-width:1;marker:none;enable-background:accumulate"
     id="telephone"
     d="M 3,9 C 2.011,9.988 1.560,11.57 2.548,12.55 L 3,13 6,10 6,8.5 8.5,6 10,6 13,3 12.48,2.512 C 11.51,1.581 9.980,2.019 9,3 Z m 0.545,4.537 0.338,0.352 c 0,0 0.850,0.075 1.2889221,-0.356167 L 6.566,12.16 C 6.948,11.75 6.873,10.85 6.873,10.85 L 6.535,10.50 Z m 7.0078988,-7.0172273 0.338,0.352 c 0,0 0.869,0.157 1.264351,-0.2310704 l 1.393699,-1.372494 C 13.94,4.880 13.87,3.861 13.87,3.861 L 13.53,3.508 Z" />
</svg>
