<?xml version="1.0" encoding="UTF-8" standalone="no"?>
<svg
   xmlns:dc="http://purl.org/dc/elements/1.1/"
   xmlns:cc="http://creativecommons.org/ns#"
   xmlns:rdf="http://www.w3.org/1999/02/22-rdf-syntax-ns#"
   xmlns:svg="http://www.w3.org/2000/svg"
   xmlns="http://www.w3.org/2000/svg"
   xmlns:sodipodi="http://sodipodi.sourceforge.net/DTD/sodipodi-0.dtd"
   xmlns:inkscape="http://www.inkscape.org/namespaces/inkscape"
   version="1.1"
   width="100%"
   height="100%"
   viewBox="0 0 16 16"
   id="svg2"
   inkscape:version="0.91 r"
   sodipodi:docname="telephone.16.svg">
  <sodipodi:namedview
     pagecolor="#dadada"
     bordercolor="#666666"
     borderopacity="1"
     objecttolerance="10"
     gridtolerance="10"
     guidetolerance="10"
     inkscape:pageopacity="0"
     inkscape:pageshadow="2"
     inkscape:window-width="706"
     inkscape:window-height="480"
     id="namedview7"
     showgrid="false"
     inkscape:zoom="14.75"
     inkscape:cx="8"
     inkscape:cy="8"
     inkscape:window-x="0"
     inkscape:window-y="0"
     inkscape:window-maximized="0"
     inkscape:current-layer="svg2" />
  <metadata
     id="metadata8">
    <rdf:RDF>
      <cc:Work
         rdf:about="">
        <dc:format>image/svg+xml</dc:format>
        <dc:type
           rdf:resource="http://purl.org/dc/dcmitype/StillImage" />
        <dc:title />
      </cc:Work>
    </rdf:RDF>
  </metadata>
  <defs
     id="defs6" />
  <rect
     width="16"
     height="16"
     x="0"
     y="0"
     id="canvas"
     style="visibility:hidden;fill:none;stroke:none" />
  <path
     inkscape:connector-curvature="0"
     d="M 3,8.9999996 C 2.0118212,9.9881784 1.5600486,11.573569 2.5487288,12.552966 L 3,13 6,9.9999996 l 0,-1.5 2.5,-2.5 1.5,0 3,-3 -0.510593,-0.487288 C 11.513874,1.5817051 9.9807634,2.0192362 9,2.9999996 Z m 0.5451482,4.5375584 0.3387857,0.352887 c 0,0 0.8501688,0.07591 1.2889221,-0.356167 L 6.5665554,12.161784 C 6.9484277,11.759801 6.8738707,10.857225 6.8738707,10.857225 L 6.5350852,10.504338 Z m 7.0078988,-7.0172277 0.338786,0.3528862 c 0,0 0.869736,0.1575408 1.264351,-0.2310704 l 1.393699,-1.372494 C 13.944768,4.8807749 13.87203,3.8612791 13.87203,3.8612791 L 13.533244,3.5083929 Z"
     id="telephone-0"
     style="color:#000000;display:inline;overflow:visible;visibility:visible;fill:#734a08;fill-opacity:1;stroke-width:0.6;marker:none;enable-background:accumulate;stroke:#ffffff;stroke-miterlimit:4;stroke-dasharray:none;stroke-linejoin:round;stroke-linecap:round" />
  <path
     inkscape:connector-curvature="0"
     d="M 3,9 C 2.0118212,9.9881788 1.5600486,11.573569 2.5487288,12.552966 L 3,13 6,10 6,8.5 8.5,6 10,6 13,3 12.489407,2.512712 C 11.513874,1.5817055 9.9807634,2.0192366 9,3 Z m 0.5451482,4.537558 0.3387857,0.352887 c 0,0 0.8501688,0.07591 1.2889221,-0.356167 L 6.5665554,12.161784 C 6.9484277,11.759801 6.8738707,10.857225 6.8738707,10.857225 L 6.5350852,10.504338 Z m 7.0078988,-7.0172273 0.338786,0.3528862 c 0,0 0.869736,0.1575408 1.264351,-0.2310704 l 1.393699,-1.372494 C 13.944768,4.8807753 13.87203,3.8612795 13.87203,3.8612795 L 13.533244,3.5083933 Z"
     id="telephone"
     style="color:#000000;display:inline;overflow:visible;visibility:visible;fill:#734a08;fill-opacity:1;stroke-width:1;marker:none;enable-background:accumulate" />
</svg>
