<?xml version="1.0" encoding="UTF-8" standalone="no"?>
<svg
   xmlns:dc="http://purl.org/dc/elements/1.1/"
   xmlns:cc="http://creativecommons.org/ns#"
   xmlns:rdf="http://www.w3.org/1999/02/22-rdf-syntax-ns#"
   xmlns:svg="http://www.w3.org/2000/svg"
   xmlns="http://www.w3.org/2000/svg"
   id="svg2"
   viewBox="0 0 16 16"
   height="100%"
   width="100%"
   version="1.1">
  <metadata
     id="metadata8">
    <rdf:RDF>
      <cc:Work
         rdf:about="">
        <dc:format>image/svg+xml</dc:format>
        <dc:type
           rdf:resource="http://purl.org/dc/dcmitype/StillImage" />
        <dc:title />
      </cc:Work>
    </rdf:RDF>
  </metadata>
  <defs
     id="defs6" />
  <rect
     style="visibility:hidden;fill:none;stroke:none"
     id="canvas"
     y="0"
     x="0"
     height="16"
     width="16" />
  <path
     style="fill:#734a08;fill-opacity:1;stroke:#ffffff;stroke-width:0.6;stroke-miterlimit:4;stroke-dasharray:none;stroke-linejoin:round;stroke-linecap:round"
     id="theatre-4"
     d="m 1,1 0,7 c 0,0 0,4 4,4 0.4876943,0 0.9052288,-0.08308 1.28125,-0.1875 C 6.222,11.32 6.25,11 6.25,11 l 0,-0.21875 C 5.906,10.91 5.4900129,11 5,11 2,11 2,8 2,8 L 2,2.5 c 2,0.9520605 4,0.9520605 6,0 L 8,3.65625 C 8.334,3.789 8.676,3.913 9,4 L 9,1 C 6,2.3728814 4,2.3050847 1,1 Z m 2.5,3 c -0.5522847,0 -1,0.4477153 -1,1 0,0.5522847 0.4477153,1 1,1 0.5522847,0 1,-0.4477153 1,-1 0,-0.5522847 -0.4477153,-1 -1,-1 z M 7,4 7,11 c 0,0 0,4 4,4 4,0 4,-4 4,-4 L 15,4 C 12,5.3728814 10,5.3050847 7,4 Z m 2.5,3 c 0.552285,0 1,0.4477153 1,1 0,0.5522847 -0.447715,1 -1,1 -0.5522847,0 -1,-0.4477153 -1,-1 0,-0.5522847 0.4477153,-1 1,-1 z m 3,0 c 0.552285,0 1,0.4477153 1,1 0,0.5522847 -0.447715,1 -1,1 -0.552285,0 -1,-0.4477153 -1,-1 0,-0.5522847 0.447715,-1 1,-1 z M 5,7.5 c -1.4622401,0 -2,1.016949 -2,2 l 3.25,0 0,-1.65625 C 5.945,7.622 5.5458781,7.5 5,7.5 Z m 4,3.5 4,0 c 0,1 -1,2 -2,2 -1,0 -2,-1 -2,-2 z" />
  <path
     style="fill:#734a08;fill-opacity:1;stroke:none"
     id="theatre"
     d="m 1,1 0,7 c 0,0 0,4 4,4 0.4876943,0 0.9052288,-0.08308 1.28125,-0.1875 C 6.222,11.32 6.25,11 6.25,11 l 0,-0.21875 C 5.906,10.91 5.4900129,11 5,11 2,11 2,8 2,8 L 2,2.5 c 2,0.9520605 4,0.9520605 6,0 L 8,3.65625 C 8.334,3.789 8.676,3.913 9,4 L 9,1 C 6,2.3728814 4,2.3050847 1,1 Z m 2.5,3 c -0.5522847,0 -1,0.4477153 -1,1 0,0.5522847 0.4477153,1 1,1 0.5522847,0 1,-0.4477153 1,-1 0,-0.5522847 -0.4477153,-1 -1,-1 z M 7,4 7,11 c 0,0 0,4 4,4 4,0 4,-4 4,-4 L 15,4 C 12,5.3728814 10,5.3050847 7,4 Z m 2.5,3 c 0.552285,0 1,0.4477153 1,1 0,0.5522847 -0.447715,1 -1,1 -0.5522847,0 -1,-0.4477153 -1,-1 0,-0.5522847 0.4477153,-1 1,-1 z m 3,0 c 0.552285,0 1,0.4477153 1,1 0,0.5522847 -0.447715,1 -1,1 -0.552285,0 -1,-0.4477153 -1,-1 0,-0.5522847 0.447715,-1 1,-1 z M 5,7.5 c -1.4622401,0 -2,1.016949 -2,2 l 3.25,0 0,-1.65625 C 5.945,7.622 5.5458781,7.5 5,7.5 Z m 4,3.5 4,0 c 0,1 -1,2 -2,2 -1,0 -2,-1 -2,-2 z" />
</svg>
