<?xml version="1.0" encoding="UTF-8" standalone="no"?>
<svg
   xmlns:dc="http://purl.org/dc/elements/1.1/"
   xmlns:cc="http://creativecommons.org/ns#"
   xmlns:rdf="http://www.w3.org/1999/02/22-rdf-syntax-ns#"
   xmlns:svg="http://www.w3.org/2000/svg"
   xmlns="http://www.w3.org/2000/svg"
   id="svg2"
   viewBox="0 0 16 16"
   height="100%"
   width="100%"
   version="1.1">
  <metadata
     id="metadata10">
    <rdf:RDF>
      <cc:Work
         rdf:about="">
        <dc:format>image/svg+xml</dc:format>
        <dc:type
           rdf:resource="http://purl.org/dc/dcmitype/StillImage" />
      </cc:Work>
    </rdf:RDF>
  </metadata>
  <defs
     id="defs8" />
  <path
     style="fill:#734a08;fill-opacity:1;stroke:#ffffff;stroke-width:0.6;stroke-miterlimit:4;stroke-dasharray:none;stroke-linejoin:round;stroke-linecap:round"
     id="path4-7"
     d="M 6,2 C 5,2 4,3 4,4 l 0,8 8,0 0,-8 C 12,3 11,2 10,2 Z M 7,4 9,4 9,5 7,5 Z m -2,2 6,0 0,1 -6,0 z m 1,2 4,0 0,1 -4,0 z m -3,5 -1,1 0,1 12,0 0,-1 -1,-1 z" />
  <path
     style="fill:#734a08;fill-opacity:1"
     id="path4"
     d="M 6,2 C 5,2 4,3 4,4 l 0,8 8,0 0,-8 C 12,3 11,2 10,2 Z M 7,4 9,4 9,5 7,5 Z m -2,2 6,0 0,1 -6,0 z m 1,2 4,0 0,1 -4,0 z m -3,5 -1,1 0,1 12,0 0,-1 -1,-1 z" />
</svg>
