<?xml version="1.0" encoding="UTF-8" standalone="no"?>
<svg
   xmlns:dc="http://purl.org/dc/elements/1.1/"
   xmlns:cc="http://creativecommons.org/ns#"
   xmlns:rdf="http://www.w3.org/1999/02/22-rdf-syntax-ns#"
   xmlns:svg="http://www.w3.org/2000/svg"
   xmlns="http://www.w3.org/2000/svg"
   id="svg2"
   viewBox="0 0 16 16"
   height="100%"
   width="100%"
   version="1.1">
  <metadata
     id="metadata10">
    <rdf:RDF>
      <cc:Work
         rdf:about="">
        <dc:format>image/svg+xml</dc:format>
        <dc:type
           rdf:resource="http://purl.org/dc/dcmitype/StillImage" />
      </cc:Work>
    </rdf:RDF>
  </metadata>
  <defs
     id="defs8" />
  <path
     style="fill:#734a08;fill-opacity:1;stroke:#ffffff;stroke-width:0.6;stroke-miterlimit:4;stroke-dasharray:none;stroke-linejoin:round;stroke-linecap:round"
     id="path4-3"
     d="m 8,1.0000004 c -0.25,0.0032 -0.5,0.1644239 -0.5,0.5 l 0,3.875 -5.5,2.625 12,0 -5.5,-2.625 0,-3.875 c 0,-0.3483591 -0.25,-0.50319568 -0.5,-0.5 z m 1,0 0,3 4,0 -2,-1.5 2,-1.5 z m -7,8 L 2,10 l 1,0 0,4 -1,0 0,1 12,0 0,-1 -1,0 0,-4 1,0 0,-0.9999996 z M 8,10.5 c 1,0 2,0.5 2,1.5 l 0,2 -4,0 0,-2 c 0,-1 1,-1.5 2,-1.5 z" />
  <path
     style="fill:#734a08;fill-opacity:1"
     id="path4"
     d="m 8,1.0000004 c -0.25,0.0032 -0.5,0.1644239 -0.5,0.5 l 0,3.875 -5.5,2.625 12,0 -5.5,-2.625 0,-3.875 c 0,-0.3483591 -0.25,-0.50319571 -0.5,-0.5 z m 1,0 0,3 4,0 -2,-1.5 2,-1.5 z m -7,8 L 2,10 l 1,0 0,4 -1,0 0,1 12,0 0,-1 -1,0 0,-4 1,0 0,-0.9999996 z M 8,10.5 c 1,0 2,0.5 2,1.5 l 0,2 -4,0 0,-2 c 0,-1 1,-1.5 2,-1.5 z" />
</svg>
