<?xml version="1.0" encoding="UTF-8" standalone="no"?>
<svg
   xmlns:dc="http://purl.org/dc/elements/1.1/"
   xmlns:cc="http://creativecommons.org/ns#"
   xmlns:rdf="http://www.w3.org/1999/02/22-rdf-syntax-ns#"
   xmlns:svg="http://www.w3.org/2000/svg"
   xmlns="http://www.w3.org/2000/svg"
   id="svg2"
   viewBox="0 0 16 16"
   height="100%"
   width="100%"
   version="1.1">
  <metadata
     id="metadata8">
    <rdf:RDF>
      <cc:Work
         rdf:about="">
        <dc:format>image/svg+xml</dc:format>
        <dc:type
           rdf:resource="http://purl.org/dc/dcmitype/StillImage" />
        <dc:title />
      </cc:Work>
    </rdf:RDF>
  </metadata>
  <defs
     id="defs6" />
  <rect
     style="visibility:hidden;fill:none;stroke:none"
     id="canvas"
     y="0"
     x="0"
     height="16"
     width="16" />
  <path
     style="fill:#734a08;fill-opacity:1;stroke:#ffffff;stroke-width:0.600;stroke-miterlimit:4;stroke-dasharray:none"
     id="viewpoint-9"
     d="m 10.65,1.593 c -0.302473,0.046264 -0.573949,0.2485719 -0.75,0.5 -0.4147175,0.5605033 -0.5216269,1.2541787 -0.71875,1.90625 -0.2212397,0.8420605 -0.4352942,1.7006473 -0.5625,2.5625 -0.0206,0.2481582 0.167,0.301 0.406,0.062 0.8251761,-0.7684517 1.637743,-1.5802595 2.4375,-2.375 0.19432,-0.2064873 0.389197,-0.4102199 0.53125,-0.65625 0.22114,-0.3696454 0.325018,-0.8581921 0.09375,-1.25 -0.238762,-0.3960416 -0.675926,-0.6652283 -1.125,-0.75 -0.103738,-0.019757 -0.211676,-0.015421 -0.3125,0 z m -5.4375,0.0625 C 4.756,1.664 4.298,1.903 4,2.2500002 3.723,2.569 3.733,3.035 3.906,3.406 c 0.277,0.639 0.815,1.096 1.281,1.593 0.617,0.613 1.255,1.208 1.9375,1.75 0.204,0.142 0.337,0.013 0.25,-0.3125 C 7.123,5.338 6.849,4.246 6.562,3.156 6.481,2.884 6.391,2.589 6.25,2.3437502 6.040,1.967 5.673,1.652 5.218,1.656 Z m -3.21875,5 c -0.3271411,0.057138 -0.6441892,0.2344185 -0.8125,0.53125 -0.22434961,0.4043816 -0.24407638,0.9121758 -0.09375,1.34375 0.138,0.399 0.561,0.651 0.968,0.687 0.692,0.080 1.336439,-0.189654 2,-0.34375 0.8402885,-0.2278768 1.6894195,-0.4619844 2.5,-0.78125 C 6.787,7.987 6.732,7.774 6.406,7.687 5.328,7.355 4.243,7.047 3.156,6.750 2.880,6.684 2.596,6.656 2.312,6.656 2.204,6.654 2.109,6.637 2,6.6562502 Z m 11.6875,0 c -0.284095,5.322e-4 -0.567889,0.028193 -0.84375,0.09375 -1.087595,0.2972518 -2.17253,0.6051066 -3.25,0.9375 -0.3265386,0.087496 -0.38166,0.3004301 -0.15625,0.40625 0.810,0.319 1.659,0.553 2.5,0.78125 0.663,0.154 1.307,0.423 2,0.34375 0.407624,-0.03642 0.830451,-0.2883717 0.96875,-0.6875 0.150318,-0.4315742 0.130602,-0.9393684 -0.09375,-1.34375 -0.224413,-0.3957753 -0.694321,-0.53871 -1.125,-0.53125 z m -6.40625,2.40625 C 7.241,9.064 7.176,9.089 7.125,9.1250002 6.442,9.666 5.805,10.29 5.187,10.90 4.721,11.40 4.183,11.82 3.906,12.46 3.733,12.83 3.723,13.30 4,13.625 4.298,13.97 4.756,14.24 5.21875,14.25 5.673,14.25 6.040,13.90 6.25,13.53125 6.391,13.28 6.481,13.02 6.5625,12.75 6.849,11.65 7.123,10.53 7.375,9.4375002 7.440,9.192 7.401,9.055 7.281,9.062 Z m 1.468,0.062 c -0.073591,0.013699 -0.1353,0.09467 -0.125,0.21875 0.127,0.861 0.341,1.689 0.562,2.531 0.197,0.652 0.304,1.376 0.718,1.937 0.234,0.335 0.647,0.547 1.062,0.468 0.449074,-0.08477 0.886238,-0.353959 1.125,-0.75 C 12.32,13.13 12.22,12.65 12,12.28125 11.85,12.03 11.66,11.83 11.46,11.62 10.66,10.83 9.856,10.04 9.031,9.281 8.911,9.161 8.823,9.111 8.75,9.1250002 Z" />
  <path
     style="fill:#734a08;fill-opacity:1"
     id="viewpoint"
     d="m 10.65,1.593 c -0.302473,0.046264 -0.573949,0.2485719 -0.75,0.5 C 9.491,2.654 9.384,3.347 9.1875,4 8.966,4.842 8.752,5.700 8.625,6.5625 8.604,6.810 8.792,6.864 9.03125,6.625 9.856,5.856 10.66,5.044 11.46875,4.25 11.66,4.043 11.85,3.839 12,3.59375 c 0.22114,-0.3696454 0.325018,-0.8581921 0.09375,-1.25 -0.238762,-0.3960416 -0.675926,-0.6652283 -1.125,-0.75 -0.103738,-0.019757 -0.211676,-0.015421 -0.3125,0 z m -5.4375,0.0625 C 4.756,1.664 4.298,1.903 4,2.25 3.723,2.569 3.733,3.035 3.906,3.406 4.183,4.045 4.721,4.502 5.1875,5 5.805,5.613 6.442,6.208 7.125,6.75 7.329,6.892 7.462,6.763 7.375,6.4375 7.123,5.338 6.849,4.246 6.562,3.156 6.481,2.884 6.391,2.589 6.25,2.34375 6.040,1.967 5.673,1.652 5.218,1.656 Z M 2,6.65625 C 1.672,6.713 1.355,6.890 1.187,7.187 0.963,7.591 0.943,8.099 1.093,8.531 1.232,8.930 1.654,9.182 2.062,9.218 2.755,9.298 3.398,9.029 4.0625,8.875 4.902,8.647 5.751,8.413 6.562,8.093 6.787,7.987 6.732,7.774 6.406,7.687 5.328,7.355 4.243,7.047 3.15625,6.75 2.880,6.684 2.596,6.656 2.312,6.656 2.204,6.654 2.109,6.637 2,6.65625 Z m 11.6875,0 C 13.40,6.656 13.11,6.684 12.84375,6.75 11.75,7.047 10.67,7.355 9.593,7.687 9.267,7.774 9.212,7.987 9.437,8.093 c 0.810,0.319 1.659,0.553 2.5,0.78125 0.663,0.154 1.307,0.423 2,0.34375 0.407624,-0.03642 0.830451,-0.2883717 0.96875,-0.6875 C 15.05,8.099 15.03,7.591 14.81,7.187 14.58,6.791 14.11,6.648 13.68,6.656 Z M 7.281,9.062 C 7.241,9.064 7.176,9.089 7.125,9.125 6.442,9.666 5.805,10.29 5.187,10.90 4.721,11.40 4.183,11.82 3.906,12.46 3.733,12.83 3.723,13.30 4,13.625 4.298,13.97 4.756,14.24 5.21875,14.25 5.673,14.25 6.040,13.90 6.25,13.53125 6.391,13.28 6.481,13.02 6.5625,12.75 6.849,11.65 7.123,10.53 7.375,9.4375 7.440,9.192 7.401,9.055 7.281,9.062 Z M 8.75,9.125 C 8.676,9.138 8.614,9.219 8.625,9.34375 c 0.127,0.861 0.341,1.689 0.562,2.531 0.197,0.652 0.304,1.376 0.718,1.937 0.234,0.335 0.647,0.547 1.062,0.468 0.449074,-0.08477 0.886238,-0.353959 1.125,-0.75 C 12.32,13.13 12.22,12.65 12,12.28125 11.85,12.03 11.66,11.83 11.46,11.62 10.66,10.83 9.856,10.04 9.031,9.281 8.911,9.161 8.823,9.111 8.75,9.125 Z" />
</svg>
