<?xml version="1.0" encoding="UTF-8" standalone="no"?>
<svg
   xmlns:dc="http://purl.org/dc/elements/1.1/"
   xmlns:cc="http://creativecommons.org/ns#"
   xmlns:rdf="http://www.w3.org/1999/02/22-rdf-syntax-ns#"
   xmlns:svg="http://www.w3.org/2000/svg"
   xmlns="http://www.w3.org/2000/svg"
   xmlns:sodipodi="http://sodipodi.sourceforge.net/DTD/sodipodi-0.dtd"
   xmlns:inkscape="http://www.inkscape.org/namespaces/inkscape"
   version="1.1"
   width="100%"
   height="100%"
   viewBox="0 0 16 16"
   id="svg2"
   inkscape:version="0.91 r"
   sodipodi:docname="viewpoint.16.svg">
  <sodipodi:namedview
     pagecolor="#dadada"
     bordercolor="#666666"
     borderopacity="1"
     objecttolerance="10"
     gridtolerance="10"
     guidetolerance="10"
     inkscape:pageopacity="0"
     inkscape:pageshadow="2"
     inkscape:window-width="706"
     inkscape:window-height="480"
     id="namedview7"
     showgrid="false"
     inkscape:zoom="14.75"
     inkscape:cx="8"
     inkscape:cy="8"
     inkscape:window-x="0"
     inkscape:window-y="0"
     inkscape:window-maximized="0"
     inkscape:current-layer="svg2" />
  <metadata
     id="metadata8">
    <rdf:RDF>
      <cc:Work
         rdf:about="">
        <dc:format>image/svg+xml</dc:format>
        <dc:type
           rdf:resource="http://purl.org/dc/dcmitype/StillImage" />
        <dc:title />
      </cc:Work>
    </rdf:RDF>
  </metadata>
  <defs
     id="defs6" />
  <rect
     width="16"
     height="16"
     x="0"
     y="0"
     id="canvas"
     style="visibility:hidden;fill:none;stroke:none" />
  <path
     inkscape:connector-curvature="0"
     d="m 10.65625,1.5937502 c -0.302473,0.046264 -0.573949,0.2485719 -0.75,0.5 -0.4147175,0.5605033 -0.5216269,1.2541787 -0.71875,1.90625 -0.2212397,0.8420605 -0.4352942,1.7006473 -0.5625,2.5625 -0.0206,0.2481582 0.1676492,0.3019805 0.40625,0.0625 0.8251761,-0.7684517 1.637743,-1.5802595 2.4375,-2.375 0.19432,-0.2064873 0.389197,-0.4102199 0.53125,-0.65625 0.22114,-0.3696454 0.325018,-0.8581921 0.09375,-1.25 -0.238762,-0.3960416 -0.675926,-0.6652283 -1.125,-0.75 -0.103738,-0.019757 -0.211676,-0.015421 -0.3125,0 z m -5.4375,0.0625 C 4.756376,1.6644352 4.298377,1.9038404 4,2.2500002 3.7236959,2.5695063 3.7337489,3.0351338 3.90625,3.4062502 c 0.2772685,0.6397469 0.815708,1.0964301 1.28125,1.59375 0.6178738,0.6133884 1.2553785,1.2080755 1.9375,1.75 0.2044366,0.1421706 0.3377003,0.013969 0.25,-0.3125 C 7.1234386,5.3383436 6.8495515,4.2465822 6.5625,3.1562502 6.48117,2.8846209 6.3917386,2.5899616 6.25,2.3437502 6.0409086,1.9671581 5.6737053,1.6524281 5.21875,1.6562502 Z m -3.21875,5 c -0.3271411,0.057138 -0.6441892,0.2344185 -0.8125,0.53125 -0.22434961,0.4043816 -0.24407638,0.9121758 -0.09375,1.34375 0.138299,0.3991283 0.5611261,0.6510802 0.96875,0.6875 0.6926236,0.080182 1.336439,-0.189654 2,-0.34375 0.8402885,-0.2278768 1.6894195,-0.4619844 2.5,-0.78125 C 6.787908,7.987927 6.7327889,7.774996 6.40625,7.6875002 5.3287785,7.3551068 4.2438454,7.047252 3.15625,6.7500002 2.8803888,6.6844432 2.596594,6.6567822 2.3125,6.6562502 2.2048302,6.6543802 2.109047,6.6372042 2,6.6562502 Z m 11.6875,0 c -0.284095,5.322e-4 -0.567889,0.028193 -0.84375,0.09375 -1.087595,0.2972518 -2.17253,0.6051066 -3.25,0.9375 -0.3265386,0.087496 -0.38166,0.3004301 -0.15625,0.40625 0.810581,0.3192656 1.659711,0.5533732 2.5,0.78125 0.663559,0.154096 1.307371,0.4239353 2,0.34375 0.407624,-0.03642 0.830451,-0.2883717 0.96875,-0.6875 0.150318,-0.4315742 0.130602,-0.9393684 -0.09375,-1.34375 -0.224413,-0.3957753 -0.694321,-0.53871 -1.125,-0.53125 z m -6.40625,2.40625 C 7.24107,9.0647202 7.1761092,9.0894572 7.125,9.1250002 6.4428785,9.6669266 5.8053738,10.292865 5.1875,10.906251 4.721958,11.403572 4.1835185,11.829001 3.90625,12.46875 3.7337489,12.839865 3.7236959,13.305494 4,13.625 4.298377,13.97116 4.756376,14.241771 5.21875,14.25 5.6737053,14.2538 6.0409086,13.90784 6.25,13.53125 6.3917386,13.285037 6.48117,13.02163 6.5625,12.75 6.8495515,11.659668 7.1234386,10.536658 7.375,9.4375002 7.440775,9.192648 7.40179,9.0558358 7.28125,9.0625002 Z m 1.46875,0.0625 c -0.073591,0.013699 -0.1353,0.09467 -0.125,0.21875 0.1272058,0.8618538 0.3412603,1.6891888 0.5625,2.5312498 0.1971231,0.652072 0.3040361,1.376995 0.71875,1.9375 0.234734,0.335235 0.64755,0.54778 1.0625,0.46875 0.449074,-0.08477 0.886238,-0.353959 1.125,-0.75 C 12.325022,13.139441 12.22114,12.650893 12,12.28125 11.857947,12.035219 11.66307,11.831485 11.46875,11.625 10.668993,10.830257 9.8564261,10.049699 9.03125,9.2812502 8.9119496,9.1615104 8.8235913,9.1113007 8.75,9.1250002 Z"
     id="viewpoint-9"
     style="fill:#734a08;fill-opacity:1;stroke:#ffffff;stroke-width:0.60000002;stroke-miterlimit:4;stroke-dasharray:none" />
  <path
     inkscape:connector-curvature="0"
     d="m 10.65625,1.59375 c -0.302473,0.046264 -0.573949,0.2485719 -0.75,0.5 C 9.4915325,2.6542533 9.3846231,3.3479287 9.1875,4 8.9662603,4.8420605 8.7522058,5.7006473 8.625,6.5625 8.6044,6.8106582 8.7926492,6.8644805 9.03125,6.625 9.8564261,5.8565483 10.668993,5.0447405 11.46875,4.25 11.66307,4.0435127 11.857947,3.8397801 12,3.59375 c 0.22114,-0.3696454 0.325018,-0.8581921 0.09375,-1.25 -0.238762,-0.3960416 -0.675926,-0.6652283 -1.125,-0.75 -0.103738,-0.019757 -0.211676,-0.015421 -0.3125,0 z m -5.4375,0.0625 C 4.756376,1.664435 4.298377,1.9038402 4,2.25 3.7236959,2.5695061 3.7337489,3.0351336 3.90625,3.40625 4.1835185,4.0459969 4.721958,4.5026801 5.1875,5 5.8053738,5.6133884 6.4428785,6.2080755 7.125,6.75 7.3294366,6.8921706 7.4627003,6.7639689 7.375,6.4375 7.1234386,5.3383434 6.8495515,4.246582 6.5625,3.15625 6.4811703,2.8846207 6.3917386,2.5899614 6.25,2.34375 6.0409086,1.9671579 5.6737053,1.6524279 5.21875,1.65625 Z M 2,6.65625 C 1.6728589,6.7133884 1.3558108,6.8906685 1.1875,7.1875 0.96315039,7.5918816 0.94342362,8.0996758 1.09375,8.53125 1.232049,8.9303783 1.6548761,9.1823302 2.0625,9.21875 2.7551236,9.2989321 3.398939,9.029096 4.0625,8.875 4.9027885,8.6471232 5.7519195,8.4130156 6.5625,8.09375 6.787908,7.9879268 6.7327889,7.7749958 6.40625,7.6875 5.3287785,7.3551066 4.2438454,7.0472518 3.15625,6.75 2.8803888,6.6844434 2.596594,6.6567822 2.3125,6.65625 2.2048302,6.6543848 2.109047,6.6372039 2,6.65625 Z m 11.6875,0 C 13.403405,6.6567822 13.119611,6.684443 12.84375,6.75 11.756155,7.0472518 10.67122,7.3551066 9.59375,7.6875 9.2672114,7.7749958 9.21209,7.9879301 9.4375,8.09375 c 0.810581,0.3192656 1.659711,0.5533732 2.5,0.78125 0.663559,0.154096 1.307371,0.4239353 2,0.34375 0.407624,-0.03642 0.830451,-0.2883717 0.96875,-0.6875 C 15.056568,8.0996758 15.036852,7.5918816 14.8125,7.1875 14.588087,6.7917247 14.118179,6.64879 13.6875,6.65625 Z M 7.28125,9.0625 C 7.24107,9.0647215 7.1761092,9.0894573 7.125,9.125 6.4428785,9.6669264 5.8053738,10.292864 5.1875,10.90625 4.721958,11.403571 4.1835185,11.829001 3.90625,12.46875 3.7337489,12.839865 3.7236959,13.305494 4,13.625 4.298377,13.97116 4.756376,14.241771 5.21875,14.25 5.6737053,14.253823 6.0409086,13.90784 6.25,13.53125 6.3917386,13.285037 6.48117,13.02163 6.5625,12.75 6.8495515,11.659668 7.1234386,10.536657 7.375,9.4375 7.4407752,9.1926478 7.4017899,9.0558356 7.28125,9.0625 Z M 8.75,9.125 C 8.676409,9.138699 8.6147,9.21967 8.625,9.34375 c 0.1272058,0.861853 0.3412603,1.689188 0.5625,2.53125 0.1971231,0.652072 0.3040361,1.376995 0.71875,1.9375 0.234734,0.335235 0.64755,0.54778 1.0625,0.46875 0.449074,-0.08477 0.886238,-0.353959 1.125,-0.75 C 12.325022,13.139441 12.22114,12.650893 12,12.28125 11.857947,12.035219 11.66307,11.831485 11.46875,11.625 10.668993,10.830256 9.8564261,10.049698 9.03125,9.28125 8.9119496,9.1615102 8.8235913,9.1113005 8.75,9.125 Z"
     id="viewpoint"
     style="fill:#734a08;fill-opacity:1" />
</svg>
