<?xml version="1.0" encoding="UTF-8" standalone="no"?>
<svg
   xmlns:dc="http://purl.org/dc/elements/1.1/"
   xmlns:cc="http://creativecommons.org/ns#"
   xmlns:rdf="http://www.w3.org/1999/02/22-rdf-syntax-ns#"
   xmlns:svg="http://www.w3.org/2000/svg"
   xmlns="http://www.w3.org/2000/svg"
   id="svg2"
   viewBox="0 0 16 16"
   height="100%"
   width="100%"
   version="1.1">
  <metadata
     id="metadata8">
    <rdf:RDF>
      <cc:Work
         rdf:about="">
        <dc:format>image/svg+xml</dc:format>
        <dc:type
           rdf:resource="http://purl.org/dc/dcmitype/StillImage" />
        <dc:title />
      </cc:Work>
    </rdf:RDF>
  </metadata>
  <defs
     id="defs6" />
  <rect
     style="visibility:hidden;fill:none;stroke:none"
     id="canvas"
     y="0"
     x="0"
     height="16"
     width="16" />
  <path
     style="fill:#734a08;fill-opacity:1;stroke:#ffffff;stroke-width:0.6;stroke-miterlimit:4;stroke-dasharray:none;stroke-linejoin:round;stroke-linecap:round"
     id="swimming-8"
     d="M 9.281,2.906 C 9.187,2.913 9.096,2.944 9,2.9999997 l -3.03125,1.625 c -0.38453,0.182 -0.53485,0.75215 -0.28125,1.09375 l 0.812,1.281 -3.5,2 0.03125,0.625 c 0,0 0.4679074,-0.375 0.96875,-0.375 0.4737861,0 1.4232286,0.75 2,0.75 0.5033641,0 1.4961991,-0.75 2,-0.75 0.5243377,0 1.4756623,0.75 2,0.75 l 0.34375,0 -2.84375,-4.5 2.09375,-1.09375 C 10.04,4.147 10.18,3.698 10,3.3749997 9.827,3.076 9.563,2.883 9.281,2.906 Z M 11,5.4999997 c -0.82843,0 -1.5,0.6716 -1.5,1.5 0,0.8284 0.67157,1.5 1.5,1.5 0.82843,0 1.5,-0.6716 1.5,-1.5 0,-0.8284 -0.67157,-1.5 -1.5,-1.5 z M 4,10.75 c -0.533898,0 -1.492285,0.75 -2,0.75 L 2,13 c 0.537184,0 1.525424,-0.75 2,-0.75 0.504237,0 1.466102,0.75 2,0.75 0.475502,0 1.492285,-0.75 2,-0.75 0.504237,0 1.52173,0.75 2,0.75 0.504237,0 1.525424,-0.75 2,-0.75 0.474576,0 1.495763,0.75 2,0.75 l 0,-1.5 c -0.415254,0 -1.466102,-0.779661 -2,-0.75 -0.47827,0 -1.465278,0.75 -2,0.75 -0.444915,0 -1.495763,-0.75 -2,-0.75 -0.504237,0 -1.554097,0.75 -2,0.75 -0.475502,0 -1.466102,-0.75 -2,-0.75 z" />
  <path
     style="fill:#734a08;fill-opacity:1"
     id="swimming"
     d="M 9.281,2.906 C 9.187,2.913 9.096,2.944 9,3 L 5.96875,4.625 C 5.58422,4.807 5.433,5.377 5.687,5.718 L 6.5,7 3,9 3.03125,9.625 C 3.03125,9.625 3.4991574,9.25 4,9.25 4.4737861,9.25 5.4232286,10 6,10 6.5033641,10 7.4961991,9.25 8,9.25 8.5243377,9.25 9.4756623,10 10,10 L 10.34375,10 7.5,5.5 9.593,4.406 C 10.04,4.147 10.18,3.698 10,3.375 9.827,3.076 9.563,2.883 9.281,2.906 Z M 11,5.5 C 10.17157,5.5 9.5,6.1716 9.5,7 9.5,7.8284 10.17157,8.5 11,8.5 11.82843,8.5 12.5,7.8284 12.5,7 12.5,6.1716 11.82843,5.5 11,5.5 Z m -7,5.25 c -0.533898,0 -1.492285,0.75 -2,0.75 L 2,13 c 0.537184,0 1.525424,-0.75 2,-0.75 0.504237,0 1.466102,0.75 2,0.75 0.475502,0 1.492285,-0.75 2,-0.75 0.504237,0 1.52173,0.75 2,0.75 0.504237,0 1.525424,-0.75 2,-0.75 0.474576,0 1.495763,0.75 2,0.75 l 0,-1.5 c -0.415254,0 -1.466102,-0.779661 -2,-0.75 -0.47827,0 -1.465278,0.75 -2,0.75 -0.444915,0 -1.495763,-0.75 -2,-0.75 -0.504237,0 -1.554097,0.75 -2,0.75 -0.475502,0 -1.466102,-0.75 -2,-0.75 z" />
</svg>
