<?xml version="1.0" encoding="UTF-8" standalone="no"?>
<!-- Created with Inkscape (http://www.inkscape.org/) -->

<svg
   xmlns:dc="http://purl.org/dc/elements/1.1/"
   xmlns:cc="http://creativecommons.org/ns#"
   xmlns:rdf="http://www.w3.org/1999/02/22-rdf-syntax-ns#"
   xmlns:svg="http://www.w3.org/2000/svg"
   xmlns="http://www.w3.org/2000/svg"
   xmlns:sodipodi="http://sodipodi.sourceforge.net/DTD/sodipodi-0.dtd"
   xmlns:inkscape="http://www.inkscape.org/namespaces/inkscape"
   version="1.1"
   width="100%"
   height="100%"
   viewBox="0 0 16 16"
   id="svg2"
   inkscape:version="0.91 r"
   sodipodi:docname="water_tower.16.svg">
  <sodipodi:namedview
     pagecolor="#dadada"
     bordercolor="#666666"
     borderopacity="1"
     objecttolerance="10"
     gridtolerance="10"
     guidetolerance="10"
     inkscape:pageopacity="0"
     inkscape:pageshadow="2"
     inkscape:window-width="706"
     inkscape:window-height="480"
     id="namedview7"
     showgrid="false"
     inkscape:zoom="14.75"
     inkscape:cx="8"
     inkscape:cy="8"
     inkscape:window-x="0"
     inkscape:window-y="0"
     inkscape:window-maximized="0"
     inkscape:current-layer="svg2" />
  <metadata
     id="metadata8">
    <rdf:RDF>
      <cc:Work
         rdf:about="">
        <dc:format>image/svg+xml</dc:format>
        <dc:type
           rdf:resource="http://purl.org/dc/dcmitype/StillImage" />
        <dc:title />
      </cc:Work>
    </rdf:RDF>
  </metadata>
  <defs
     id="defs6" />
  <rect
     width="16"
     height="16"
     x="0"
     y="0"
     id="canvas"
     style="visibility:hidden;fill:none;stroke:none" />
  <path
     inkscape:connector-curvature="0"
     d="M 3,1 3,4.5 C 3,5.9469172 3.7905512,6.9802716 4.90625,7.625 L 4,15 5.5,15 5.6875,13.53125 8,12 10.3125,13.5625 10.5,15 12,15 11.09375,7.65625 C 12.21821,7.0132746 13,5.9628112 13,4.5 l 0,-3.5 -1.5,0 0,1.5 -0.5,0 C 9.8728814,3 9,3 8,2.5 7,2 6.0381356,2 5,2.5 l -0.5,0 0,-1.5 z m 3.34375,7.1875 c 1.069224,0.2671613 2.2426846,0.2935662 3.3125,0.03125 L 9.84375,9.78125 8,11 6.15625,9.78125 Z m -0.3125,2.5 L 7.25,11.5 5.8125,12.46875 Z m 3.9375,0 0.21875,1.78125 L 8.75,11.5 Z"
     id="water-tower-3"
     style="fill:#734a08;fill-opacity:1;stroke:#ffffff;stroke-width:0.6;stroke-miterlimit:4;stroke-dasharray:none;stroke-linejoin:round;stroke-linecap:round" />
  <path
     inkscape:connector-curvature="0"
     d="M 3,1 3,4.5 C 3,5.9469172 3.7905512,6.9802716 4.90625,7.625 L 4,15 5.5,15 5.6875,13.53125 8,12 10.3125,13.5625 10.5,15 12,15 11.09375,7.65625 C 12.21821,7.0132746 13,5.9628112 13,4.5 l 0,-3.5 -1.5,0 0,1.5 -0.5,0 C 9.8728814,3 9,3 8,2.5 7,2 6.0381356,2 5,2.5 l -0.5,0 0,-1.5 z m 3.34375,7.1875 c 1.069224,0.2671613 2.2426846,0.2935662 3.3125,0.03125 L 9.84375,9.78125 8,11 6.15625,9.78125 Z m -0.3125,2.5 L 7.25,11.5 5.8125,12.46875 Z m 3.9375,0 0.21875,1.78125 L 8.75,11.5 Z"
     id="water-tower"
     style="fill:#734a08;fill-opacity:1;stroke:none" />
</svg>
