<?xml version="1.0" encoding="UTF-8" standalone="no"?>
<svg
   xmlns:dc="http://purl.org/dc/elements/1.1/"
   xmlns:cc="http://creativecommons.org/ns#"
   xmlns:rdf="http://www.w3.org/1999/02/22-rdf-syntax-ns#"
   xmlns:svg="http://www.w3.org/2000/svg"
   xmlns="http://www.w3.org/2000/svg"
   id="svg2"
   viewBox="0 0 16 16"
   height="100%"
   width="100%"
   version="1.1">
  <metadata
     id="metadata8">
    <rdf:RDF>
      <cc:Work
         rdf:about="">
        <dc:format>image/svg+xml</dc:format>
        <dc:type
           rdf:resource="http://purl.org/dc/dcmitype/StillImage" />
        <dc:title />
      </cc:Work>
    </rdf:RDF>
  </metadata>
  <defs
     id="defs6" />
  <rect
     style="visibility:hidden;fill:none;stroke:none"
     id="canvas"
     y="0"
     x="0"
     height="16"
     width="16" />
  <path
     style="fill:#734a08;fill-opacity:1;stroke:#ffffff;stroke-width:0.6;stroke-miterlimit:4;stroke-dasharray:none;stroke-linejoin:round;stroke-linecap:round"
     id="water-tower-3"
     d="M 3,1 3,4.5 C 3,5.9469172 3.790,6.980 4.90625,7.625 L 4,15 5.5,15 5.687,13.53 8,12 10.31,13.56 10.5,15 12,15 11.09,7.656 C 12.21,7.013 13,5.9628112 13,4.5 l 0,-3.5 -1.5,0 0,1.5 -0.5,0 C 9.8728814,3 9,3 8,2.5 7,2 6.0381356,2 5,2.5 l -0.5,0 0,-1.5 z m 3.343,7.187 c 1.069,0.267 2.242,0.293 3.312,0.031 L 9.843,9.781 8,11 6.156,9.781 Z m -0.3125,2.5 L 7.25,11.5 5.812,12.46 Z m 3.9375,0 0.218,1.781 L 8.75,11.5 Z" />
  <path
     style="fill:#734a08;fill-opacity:1;stroke:none"
     id="water-tower"
     d="M 3,1 3,4.5 C 3,5.9469172 3.790,6.980 4.90625,7.625 L 4,15 5.5,15 5.687,13.53 8,12 10.31,13.56 10.5,15 12,15 11.09,7.656 C 12.21,7.013 13,5.9628112 13,4.5 l 0,-3.5 -1.5,0 0,1.5 -0.5,0 C 9.8728814,3 9,3 8,2.5 7,2 6.0381356,2 5,2.5 l -0.5,0 0,-1.5 z m 3.343,7.187 c 1.069,0.267 2.242,0.293 3.312,0.031 L 9.843,9.781 8,11 6.156,9.781 Z m -0.3125,2.5 L 7.25,11.5 5.812,12.46 Z m 3.9375,0 0.218,1.781 L 8.75,11.5 Z" />
</svg>
