<?xml version="1.0" encoding="UTF-8" standalone="no"?>
<svg
   xmlns:dc="http://purl.org/dc/elements/1.1/"
   xmlns:cc="http://creativecommons.org/ns#"
   xmlns:rdf="http://www.w3.org/1999/02/22-rdf-syntax-ns#"
   xmlns:svg="http://www.w3.org/2000/svg"
   xmlns="http://www.w3.org/2000/svg"
   xmlns:sodipodi="http://sodipodi.sourceforge.net/DTD/sodipodi-0.dtd"
   xmlns:inkscape="http://www.inkscape.org/namespaces/inkscape"
   version="1.1"
   width="100%"
   height="100%"
   viewBox="0 0 16 16"
   id="svg2"
   inkscape:version="0.91 r"
   sodipodi:docname="windmill.16.svg">
  <sodipodi:namedview
     pagecolor="#dadada"
     bordercolor="#666666"
     borderopacity="1"
     objecttolerance="10"
     gridtolerance="10"
     guidetolerance="10"
     inkscape:pageopacity="0"
     inkscape:pageshadow="2"
     inkscape:window-width="706"
     inkscape:window-height="412"
     id="namedview7"
     showgrid="false"
     inkscape:zoom="14.75"
     inkscape:cx="8"
     inkscape:cy="8"
     inkscape:window-x="0"
     inkscape:window-y="0"
     inkscape:window-maximized="0"
     inkscape:current-layer="svg2" />
  <metadata
     id="metadata8">
    <rdf:RDF>
      <cc:Work
         rdf:about="">
        <dc:format>image/svg+xml</dc:format>
        <dc:type
           rdf:resource="http://purl.org/dc/dcmitype/StillImage" />
        <dc:title />
      </cc:Work>
    </rdf:RDF>
  </metadata>
  <defs
     id="defs6" />
  <rect
     width="16"
     height="16"
     x="0"
     y="0"
     id="canvas"
     style="visibility:hidden;fill:none;stroke:none" />
  <path
     inkscape:connector-curvature="0"
     d="M 3.71875,1 2,2.71875 6.96875,7 2,11.28125 3.71875,13 8,8.03125 12.28125,13 14,11.28125 9.03125,7 14,2.71875 12.28125,1 8,5.96875 3.71875,1 Z M 8,3 C 7.5846058,3 7.2371923,3.0902004 6.9375,3.21875 L 8,4.4375 9.0625,3.21875 C 8.7644902,3.0832701 8.4104059,3 8,3 Z M 8,6.5 C 8.2761424,6.5 8.5,6.7238576 8.5,7 8.5,7.2761424 8.2761424,7.5 8,7.5 7.7238576,7.5 7.5,7.2761424 7.5,7 7.5,6.7238576 7.7238576,6.5 8,6.5 Z M 5.1875,6.78125 5.15625,7.25 5.4375,7 5.1875,6.78125 Z m 5.625,0 L 10.5625,7 10.84375,7.25 10.8125,6.78125 Z M 8,9.5625 4.625,13.46875 4.5,15 11.5,15 11.375,13.46875 8,9.5625 Z"
     id="windmill-8"
     style="fill:#734a08;fill-opacity:1;stroke:#ffffff;stroke-width:0.6;stroke-miterlimit:4;stroke-dasharray:none;stroke-linejoin:round;stroke-linecap:round" />
  <path
     inkscape:connector-curvature="0"
     d="M 3.71875,1 2,2.71875 6.96875,7 2,11.28125 3.71875,13 8,8.03125 12.28125,13 14,11.28125 9.03125,7 14,2.71875 12.28125,1 8,5.96875 3.71875,1 Z M 8,3 C 7.5846058,3 7.2371923,3.0902004 6.9375,3.21875 L 8,4.4375 9.0625,3.21875 C 8.7644902,3.0832701 8.4104059,3 8,3 Z M 8,6.5 C 8.2761424,6.5 8.5,6.7238576 8.5,7 8.5,7.2761424 8.2761424,7.5 8,7.5 7.7238576,7.5 7.5,7.2761424 7.5,7 7.5,6.7238576 7.7238576,6.5 8,6.5 Z M 5.1875,6.78125 5.15625,7.25 5.4375,7 5.1875,6.78125 Z m 5.625,0 L 10.5625,7 10.84375,7.25 10.8125,6.78125 Z M 8,9.5625 4.625,13.46875 4.5,15 11.5,15 11.375,13.46875 8,9.5625 Z"
     id="windmill"
     style="fill:#734a08;fill-opacity:1" />
</svg>
