<?xml version="1.0" encoding="UTF-8" standalone="no"?>
<svg
   xmlns:dc="http://purl.org/dc/elements/1.1/"
   xmlns:cc="http://creativecommons.org/ns#"
   xmlns:rdf="http://www.w3.org/1999/02/22-rdf-syntax-ns#"
   xmlns:svg="http://www.w3.org/2000/svg"
   xmlns="http://www.w3.org/2000/svg"
   id="svg2"
   viewBox="0 0 16 16"
   height="100%"
   width="100%"
   version="1.1">
  <metadata
     id="metadata8">
    <rdf:RDF>
      <cc:Work
         rdf:about="">
        <dc:format>image/svg+xml</dc:format>
        <dc:type
           rdf:resource="http://purl.org/dc/dcmitype/StillImage" />
        <dc:title />
      </cc:Work>
    </rdf:RDF>
  </metadata>
  <defs
     id="defs6" />
  <rect
     style="visibility:hidden;fill:none;stroke:none"
     id="canvas"
     y="0"
     x="0"
     height="16"
     width="16" />
  <path
     style="fill:#734a08;fill-opacity:1;stroke:#ffffff;stroke-width:0.6;stroke-miterlimit:4;stroke-dasharray:none;stroke-linejoin:round;stroke-linecap:round"
     id="windmill-8"
     d="M 3.71875,1 2,2.71875 6.96875,7 2,11.28125 3.71875,13 8,8.03125 12.28125,13 14,11.28125 9.03125,7 14,2.71875 12.28125,1 8,5.96875 3.71875,1 Z M 8,3 C 7.5846058,3 7.237,3.090 6.937,3.218 L 8,4.4375 9.062,3.218 C 8.764,3.083 8.4104059,3 8,3 Z M 8,6.5 C 8.2761424,6.5 8.5,6.7238576 8.5,7 8.5,7.2761424 8.2761424,7.5 8,7.5 7.7238576,7.5 7.5,7.2761424 7.5,7 7.5,6.7238576 7.7238576,6.5 8,6.5 Z M 5.187,6.781 5.15625,7.25 5.4375,7 5.187,6.781 Z m 5.625,0 L 10.5625,7 10.84375,7.25 10.81,6.781 Z M 8,9.5625 4.625,13.46875 4.5,15 11.5,15 11.37,13.46 8,9.5625 Z" />
  <path
     style="fill:#734a08;fill-opacity:1"
     id="windmill"
     d="M 3.71875,1 2,2.71875 6.96875,7 2,11.28125 3.71875,13 8,8.03125 12.28125,13 14,11.28125 9.03125,7 14,2.71875 12.28125,1 8,5.96875 3.71875,1 Z M 8,3 C 7.5846058,3 7.237,3.090 6.937,3.218 L 8,4.4375 9.062,3.218 C 8.764,3.083 8.4104059,3 8,3 Z M 8,6.5 C 8.2761424,6.5 8.5,6.7238576 8.5,7 8.5,7.2761424 8.2761424,7.5 8,7.5 7.7238576,7.5 7.5,7.2761424 7.5,7 7.5,6.7238576 7.7238576,6.5 8,6.5 Z M 5.187,6.781 5.15625,7.25 5.4375,7 5.187,6.781 Z m 5.625,0 L 10.5625,7 10.84375,7.25 10.81,6.781 Z M 8,9.5625 4.625,13.46875 4.5,15 11.5,15 11.37,13.46 8,9.5625 Z" />
</svg>
