<?xml version="1.0" encoding="UTF-8" standalone="no"?>
<svg
   xmlns:dc="http://purl.org/dc/elements/1.1/"
   xmlns:cc="http://creativecommons.org/ns#"
   xmlns:rdf="http://www.w3.org/1999/02/22-rdf-syntax-ns#"
   xmlns:svg="http://www.w3.org/2000/svg"
   xmlns="http://www.w3.org/2000/svg"
   id="svg2"
   viewBox="0 0 16 16"
   height="100%"
   width="100%"
   version="1.1">
  <metadata
     id="metadata10">
    <rdf:RDF>
      <cc:Work
         rdf:about="">
        <dc:format>image/svg+xml</dc:format>
        <dc:type
           rdf:resource="http://purl.org/dc/dcmitype/StillImage" />
      </cc:Work>
    </rdf:RDF>
  </metadata>
  <defs
     id="defs8" />
  <path
     style="stroke:#ffffff;stroke-width:0.6;stroke-miterlimit:4;stroke-dasharray:none;stroke-linejoin:round;stroke-linecap:round"
     id="path4-3"
     d="M 5,1.40625 C 3.2327602,2.1855669 1.96875,3.9521023 1.96875,6 1.96875,8.0478977 3.2327602,9.8144331 5,10.59375 L 5,9.4375 C 3.8044698,8.7467087 3,7.4881502 3,6 3,4.5118498 3.8044698,3.2532914 5,2.5625 L 5,1.40625 Z m 6,0 0,1.15625 C 12.19553,3.2532914 13,4.5118498 13,6 13,7.4881502 12.19553,8.7467087 11,9.4375 l 0,1.15625 C 12.76724,9.8144331 14.03125,8.0478977 14.03125,6 14.03125,3.9521023 12.76724,2.1855669 11,1.40625 Z M 6,3.1875 C 4.8429537,3.6043642 4,4.7033306 4,6 4,7.2966694 4.8429537,8.3956358 6,8.8125 L 6,7.71875 C 5.4030811,7.3740292 5,6.7435697 5,6 5,5.2564303 5.4030811,4.6259708 6,4.28125 L 6,3.1875 Z m 4,0 0,1.09375 C 10.596919,4.6259708 11,5.2564303 11,6 11,6.7435697 10.596919,7.3740292 10,7.71875 L 10,8.8125 C 11.157046,8.3956358 12,7.2966694 12,6 12,4.7033306 11.157046,3.6043642 10,3.1875 Z M 7.84375,5 C 7.5625,5.046875 7,5.25 7,6 l 0,8 -3,0 0,1 8,0 0,-1 -3,0 0,-8 C 9,5 8,5 8,5 8,5 7.9375,4.984375 7.84375,5 Z" />
  <path
     id="path4"
     d="M 5,1.40625 C 3.2327602,2.1855669 1.96875,3.9521023 1.96875,6 1.96875,8.0478977 3.2327602,9.8144331 5,10.59375 L 5,9.4375 C 3.8044698,8.7467087 3,7.4881502 3,6 3,4.5118498 3.8044698,3.2532914 5,2.5625 L 5,1.40625 Z m 6,0 0,1.15625 C 12.19553,3.2532914 13,4.5118498 13,6 13,7.4881502 12.19553,8.7467087 11,9.4375 l 0,1.15625 C 12.76724,9.8144331 14.03125,8.0478977 14.03125,6 14.03125,3.9521023 12.76724,2.1855669 11,1.40625 Z M 6,3.1875 C 4.8429537,3.6043642 4,4.7033306 4,6 4,7.2966694 4.8429537,8.3956358 6,8.8125 L 6,7.71875 C 5.4030811,7.3740292 5,6.7435697 5,6 5,5.2564303 5.4030811,4.6259708 6,4.28125 L 6,3.1875 Z m 4,0 0,1.09375 C 10.596919,4.6259708 11,5.2564303 11,6 11,6.7435697 10.596919,7.3740292 10,7.71875 L 10,8.8125 C 11.157046,8.3956358 12,7.2966694 12,6 12,4.7033306 11.157046,3.6043642 10,3.1875 Z M 7.84375,5 C 7.5625,5.046875 7,5.25 7,6 l 0,8 -3,0 0,1 8,0 0,-1 -3,0 0,-8 C 9,5 8,5 8,5 8,5 7.9375,4.984375 7.84375,5 Z" />
</svg>
