<?xml version="1.0" encoding="UTF-8" standalone="no"?>
<svg
   xmlns:dc="http://purl.org/dc/elements/1.1/"
   xmlns:cc="http://creativecommons.org/ns#"
   xmlns:rdf="http://www.w3.org/1999/02/22-rdf-syntax-ns#"
   xmlns:svg="http://www.w3.org/2000/svg"
   xmlns="http://www.w3.org/2000/svg"
   id="svg2"
   viewBox="0 0 16 16"
   height="100%"
   width="100%"
   version="1.1">
  <metadata
     id="metadata8">
    <rdf:RDF>
      <cc:Work
         rdf:about="">
        <dc:format>image/svg+xml</dc:format>
        <dc:type
           rdf:resource="http://purl.org/dc/dcmitype/StillImage" />
        <dc:title />
      </cc:Work>
    </rdf:RDF>
  </metadata>
  <defs
     id="defs6" />
  <rect
     style="visibility:hidden;fill:none;stroke:none"
     id="canvas"
     y="0"
     x="0"
     height="16"
     width="16" />
  <path
     style="fill:#1a1a1a;fill-opacity:1;stroke:#ffffff;stroke-width:0.6;stroke-miterlimit:4;stroke-dasharray:none;stroke-linejoin:round;stroke-linecap:round"
     id="hunting-stand-7"
     d="m 4,1 0,1.25 8,2 L 12,3 Z M 5,3.5 5,8 11,8 11,5 Z M 4,9 l 0,1 1,0 -1,5 1.5,0 1,-5 3,0 1.03125,5 1.5,0 L 11,10 l 1,0 0,-1 z" />
  <path
     style="fill:#1a1a1a;fill-opacity:1;stroke:none"
     id="hunting-stand"
     d="m 4,1 0,1.25 8,2 L 12,3 Z M 5,3.5 5,8 11,8 11,5 Z M 4,9 l 0,1 1,0 -1,5 1.5,0 1,-5 3,0 1.03125,5 1.5,0 L 11,10 l 1,0 0,-1 z" />
</svg>
