<?xml version="1.0" encoding="UTF-8" standalone="no"?>
<!-- Created with Inkscape (http://www.inkscape.org/) -->

<svg
   xmlns:dc="http://purl.org/dc/elements/1.1/"
   xmlns:cc="http://creativecommons.org/ns#"
   xmlns:rdf="http://www.w3.org/1999/02/22-rdf-syntax-ns#"
   xmlns:svg="http://www.w3.org/2000/svg"
   xmlns="http://www.w3.org/2000/svg"
   xmlns:sodipodi="http://sodipodi.sourceforge.net/DTD/sodipodi-0.dtd"
   xmlns:inkscape="http://www.inkscape.org/namespaces/inkscape"
   width="75"
   height="75"
   id="svg2"
   version="1.1"
   inkscape:version="0.48.0 r9654"
   sodipodi:docname="compass-atom.svg">
  <defs
     id="defs4" />
  <sodipodi:namedview
     id="base"
     pagecolor="#ffffff"
     bordercolor="#666666"
     borderopacity="1.0"
     inkscape:pageopacity="0.0"
     inkscape:pageshadow="2"
     inkscape:zoom="5.546353"
     inkscape:cx="11.933143"
     inkscape:cy="32.888282"
     inkscape:document-units="px"
     inkscape:current-layer="g3015"
     showgrid="false"
     inkscape:window-width="1280"
     inkscape:window-height="969"
     inkscape:window-x="-3"
     inkscape:window-y="32"
     inkscape:window-maximized="1"
     fit-margin-top="5"
     fit-margin-left="5"
     fit-margin-right="5"
     fit-margin-bottom="5"
     showguides="true"
     inkscape:guide-bbox="true" />
  <metadata
     id="metadata7">
    <rdf:RDF>
      <cc:Work
         rdf:about="">
        <dc:format>image/svg+xml</dc:format>
        <dc:type
           rdf:resource="http://purl.org/dc/dcmitype/StillImage" />
        <dc:title />
      </cc:Work>
    </rdf:RDF>
  </metadata>
  <g
     inkscape:label="Layer 1"
     inkscape:groupmode="layer"
     id="layer1"
     transform="translate(-74.589922,-802.55496)">
    <g
       id="g3015"
       transform="matrix(0.11036443,0,0,0.11036443,71.29354,776.25593)">
      <g
         id="g3833"
         transform="translate(2.4610978,-2.4611266)">
        <g
           id="g3510"
           transform="matrix(0.18769715,0,0,0.91193349,296.46862,126.58721)">
          <path
             d="m 697.00525,497.78842 c 0,176.85171 -143.36664,320.21835 -320.21835,320.21835 -176.85172,0 -320.218358,-143.36664 -320.218358,-320.21835 0,-176.85171 143.366638,-320.21835 320.218358,-320.21835 176.85171,0 320.21835,143.36664 320.21835,320.21835 z"
             sodipodi:ry="320.21835"
             sodipodi:rx="320.21835"
             sodipodi:cy="497.78842"
             sodipodi:cx="376.7869"
             id="path3498"
             style="fill:#000000"
             sodipodi:type="arc" />
          <path
             transform="matrix(1.2976458,0,0,1.3020072,-75.837335,-71.301438)"
             d="m 561.64481,437.17929 c 0,116.5994 -94.52249,211.12189 -211.12189,211.12189 -116.5994,0 -211.12189,-94.52249 -211.12189,-211.12189 0,-116.5994 94.52249,-211.12189 211.12189,-211.12189 116.5994,0 211.12189,94.52249 211.12189,211.12189 z"
             sodipodi:ry="211.12189"
             sodipodi:rx="211.12189"
             sodipodi:cy="437.17929"
             sodipodi:cx="350.52292"
             id="path3500"
             style="fill:#ffffff"
             sodipodi:type="arc" />
        </g>
        <g
           transform="matrix(0,-0.18769715,0.91193349,0,-86.759486,651.25897)"
           id="g3779">
          <path
             sodipodi:type="arc"
             style="fill:#000000"
             id="path3781"
             sodipodi:cx="376.7869"
             sodipodi:cy="497.78842"
             sodipodi:rx="320.21835"
             sodipodi:ry="320.21835"
             d="m 697.00525,497.78842 c 0,176.85171 -143.36664,320.21835 -320.21835,320.21835 -176.85172,0 -320.218358,-143.36664 -320.218358,-320.21835 0,-176.85171 143.366638,-320.21835 320.218358,-320.21835 176.85171,0 320.21835,143.36664 320.21835,320.21835 z" />
          <path
             sodipodi:type="arc"
             style="fill:#ffffff"
             id="path3783"
             sodipodi:cx="350.52292"
             sodipodi:cy="437.17929"
             sodipodi:rx="211.12189"
             sodipodi:ry="211.12189"
             d="m 561.64481,437.17929 c 0,116.5994 -94.52249,211.12189 -211.12189,211.12189 -116.5994,0 -211.12189,-94.52249 -211.12189,-211.12189 0,-116.5994 94.52249,-211.12189 211.12189,-211.12189 116.5994,0 211.12189,94.52249 211.12189,211.12189 z"
             transform="matrix(1.2976458,0,0,1.3020072,-75.837335,-71.301438)" />
        </g>
        <g
           id="g3785"
           transform="matrix(0.13272193,-0.13272193,0.64483435,0.64483435,-3.8085121,309.55395)">
          <path
             d="m 697.00525,497.78842 c 0,176.85171 -143.36664,320.21835 -320.21835,320.21835 -176.85172,0 -320.218358,-143.36664 -320.218358,-320.21835 0,-176.85171 143.366638,-320.21835 320.218358,-320.21835 176.85171,0 320.21835,143.36664 320.21835,320.21835 z"
             sodipodi:ry="320.21835"
             sodipodi:rx="320.21835"
             sodipodi:cy="497.78842"
             sodipodi:cx="376.7869"
             id="path3787"
             style="fill:#000000"
             sodipodi:type="arc" />
          <path
             transform="matrix(1.2976458,0,0,1.3020072,-75.837335,-71.301438)"
             d="m 561.64481,437.17929 c 0,116.5994 -94.52249,211.12189 -211.12189,211.12189 -116.5994,0 -211.12189,-94.52249 -211.12189,-211.12189 0,-116.5994 94.52249,-211.12189 211.12189,-211.12189 116.5994,0 211.12189,94.52249 211.12189,211.12189 z"
             sodipodi:ry="211.12189"
             sodipodi:rx="211.12189"
             sodipodi:cy="437.17929"
             sodipodi:cx="350.52292"
             id="path3789"
             style="fill:#ffffff"
             sodipodi:type="arc" />
        </g>
        <g
           transform="matrix(-0.13272193,-0.13272193,-0.64483435,0.64483435,738.1894,309.55395)"
           id="g3791">
          <path
             sodipodi:type="arc"
             style="fill:#000000"
             id="path3793"
             sodipodi:cx="376.7869"
             sodipodi:cy="497.78842"
             sodipodi:rx="320.21835"
             sodipodi:ry="320.21835"
             d="m 697.00525,497.78842 c 0,176.85171 -143.36664,320.21835 -320.21835,320.21835 -176.85172,0 -320.218358,-143.36664 -320.218358,-320.21835 0,-176.85171 143.366638,-320.21835 320.218358,-320.21835 176.85171,0 320.21835,143.36664 320.21835,320.21835 z" />
          <path
             sodipodi:type="arc"
             style="fill:#ffffff"
             id="path3795"
             sodipodi:cx="350.52292"
             sodipodi:cy="437.17929"
             sodipodi:rx="211.12189"
             sodipodi:ry="211.12189"
             d="m 561.64481,437.17929 c 0,116.5994 -94.52249,211.12189 -211.12189,211.12189 -116.5994,0 -211.12189,-94.52249 -211.12189,-211.12189 0,-116.5994 94.52249,-211.12189 211.12189,-211.12189 116.5994,0 211.12189,94.52249 211.12189,211.12189 z"
             transform="matrix(1.2976458,0,0,1.3020072,-75.837335,-71.301438)" />
        </g>
        <path
           style="fill:none;stroke:#000000;stroke-width:1px;stroke-linecap:butt;stroke-linejoin:miter;stroke-opacity:1"
           d="m 359.28571,498.43361 92.14286,90"
           id="path3797"
           inkscape:connector-curvature="0" />
        <path
           style="fill:none;stroke:#000000;stroke-width:9.44540119;stroke-linecap:butt;stroke-linejoin:miter;stroke-miterlimit:4;stroke-opacity:1;stroke-dasharray:none"
           d="m 363.09413,500.09917 87.38317,88.09746"
           id="path3799"
           inkscape:connector-curvature="0" />
        <path
           inkscape:connector-curvature="0"
           id="path4569"
           d="m 289.5227,577.95631 87.38317,88.09746"
           style="fill:none;stroke:#000000;stroke-width:9.44540119;stroke-linecap:butt;stroke-linejoin:miter;stroke-miterlimit:4;stroke-opacity:1;stroke-dasharray:none" />
        <path
           sodipodi:nodetypes="cc"
           style="fill:none;stroke:#000000;stroke-width:10.74813557;stroke-linecap:butt;stroke-linejoin:miter;stroke-miterlimit:4;stroke-opacity:1;stroke-dasharray:none"
           d="m 374.9079,520.06034 120.82618,10.474"
           id="path4571"
           inkscape:connector-curvature="0" />
        <path
           sodipodi:nodetypes="cc"
           inkscape:connector-curvature="0"
           id="path4573"
           d="m 365.98325,521.08139 -120.92828,9.45295"
           style="fill:none;stroke:#000000;stroke-width:10.74621582;stroke-linecap:butt;stroke-linejoin:miter;stroke-miterlimit:4;stroke-opacity:1;stroke-dasharray:none" />
        <path
           sodipodi:nodetypes="cc"
           style="fill:none;stroke:#000000;stroke-width:10.7280941;stroke-linecap:butt;stroke-linejoin:miter;stroke-miterlimit:4;stroke-opacity:1;stroke-dasharray:none"
           d="m 358.89413,521.53858 24.35188,-0.86517"
           id="path4575"
           inkscape:connector-curvature="0" />
        <path
           style="fill:none;stroke:#000000;stroke-width:12.71383858;stroke-linecap:butt;stroke-linejoin:miter;stroke-miterlimit:4;stroke-opacity:1;stroke-dasharray:none"
           d="m 244.06058,628.23114 c 21.56502,18.17052 238.94321,1.85926 238.93661,1.86322 l -2.50647,1.52964"
           id="path4577"
           inkscape:connector-curvature="0"
           sodipodi:nodetypes="ccc" />
        <path
           style="fill:none;stroke:#000000;stroke-width:10.5;stroke-linecap:butt;stroke-linejoin:miter;stroke-miterlimit:4;stroke-opacity:1;stroke-dasharray:none"
           d="m 417.03939,705.49868 3.33768,-51.76558"
           id="path4581"
           inkscape:connector-curvature="0" />
        <path
           inkscape:connector-curvature="0"
           id="path4583"
           d="M 317.51993,705.49868 314.18225,653.7331"
           style="fill:none;stroke:#000000;stroke-width:10.5;stroke-linecap:butt;stroke-linejoin:miter;stroke-miterlimit:4;stroke-opacity:1;stroke-dasharray:none" />
        <path
           sodipodi:type="arc"
           id="path4587"
           style="fill:#000000;stroke:none"
           sodipodi:cx="422.5"
           sodipodi:cy="657.00507"
           sodipodi:rx="1.5"
           sodipodi:ry="1.5"
           d="m 424,657.00507 c 0,0.82842 -0.67157,1.5 -1.5,1.5 -0.82843,0 -1.5,-0.67158 -1.5,-1.5 0,-0.82843 0.67157,-1.5 1.5,-1.5 0.82843,0 1.5,0.67157 1.5,1.5 z" />
        <path
           style="fill:none;stroke:#000000;stroke-width:10.5;stroke-linecap:butt;stroke-linejoin:miter;stroke-miterlimit:4;stroke-opacity:1;stroke-dasharray:none"
           d="m 420.14718,658.11998 2.91993,-39.72988"
           id="path4599"
           inkscape:connector-curvature="0" />
        <path
           inkscape:connector-curvature="0"
           id="path4613"
           d="M 314.47571,658.11998 311.55578,618.3901"
           style="fill:none;stroke:#000000;stroke-width:10.5;stroke-linecap:butt;stroke-linejoin:miter;stroke-miterlimit:4;stroke-opacity:1;stroke-dasharray:none" />
        <path
           sodipodi:type="arc"
           id="path4615"
           style="fill:#000000;stroke:none"
           sodipodi:cx="424.28571"
           sodipodi:cy="626.64789"
           sodipodi:rx="1.5"
           sodipodi:ry="1.5"
           d="m 425.78571,626.64789 c 0,0.82843 -0.67158,1.5 -1.5,1.5 -0.82843,0 -1.5,-0.67157 -1.5,-1.5 0,-0.82843 0.67157,-1.5 1.5,-1.5 0.82842,0 1.5,0.67157 1.5,1.5 z" />
        <path
           style="fill:none;stroke:#000000;stroke-width:10.25;stroke-linecap:butt;stroke-linejoin:miter;stroke-miterlimit:4;stroke-opacity:1;stroke-dasharray:none"
           d="m 422.85714,622.36218 5,-60"
           id="path4617"
           inkscape:connector-curvature="0" />
        <path
           sodipodi:nodetypes="cc"
           inkscape:connector-curvature="0"
           id="path4619"
           d="m 422.85714,622.36218 3.16213,-59.18317"
           style="fill:none;stroke:#000000;stroke-width:10.25;stroke-linecap:butt;stroke-linejoin:miter;stroke-miterlimit:4;stroke-opacity:1;stroke-dasharray:none" />
        <path
           sodipodi:nodetypes="cc"
           style="fill:none;stroke:#000000;stroke-width:10.25;stroke-linecap:butt;stroke-linejoin:miter;stroke-miterlimit:4;stroke-opacity:1;stroke-dasharray:none"
           d="M 311.93864,623.79164 310.20597,565.2211"
           id="path4621"
           inkscape:connector-curvature="0" />
        <path
           style="fill:none;stroke:#000000;stroke-width:10;stroke-linecap:butt;stroke-linejoin:miter;stroke-miterlimit:4;stroke-opacity:1;stroke-dasharray:none"
           d="m 426.42857,568.79075 -7.14286,-110"
           id="path4623"
           inkscape:connector-curvature="0" />
        <path
           inkscape:connector-curvature="0"
           id="path4625"
           d="m 426.42857,568.79075 -7.14286,-110"
           style="fill:none;stroke:#000000;stroke-width:10;stroke-linecap:butt;stroke-linejoin:miter;stroke-miterlimit:4;stroke-opacity:1;stroke-dasharray:none" />
        <path
           style="fill:none;stroke:#000000;stroke-width:10;stroke-linecap:butt;stroke-linejoin:miter;stroke-miterlimit:4;stroke-opacity:1;stroke-dasharray:none"
           d="m 310,568.79075 7.14286,-110"
           id="path4627"
           inkscape:connector-curvature="0" />
      </g>
    </g>
  </g>
</svg>
