<?xml version="1.0" encoding="UTF-8" standalone="no"?>
<!-- Created with Inkscape (http://www.inkscape.org/) -->

<svg
   xmlns:dc="http://purl.org/dc/elements/1.1/"
   xmlns:cc="http://creativecommons.org/ns#"
   xmlns:rdf="http://www.w3.org/1999/02/22-rdf-syntax-ns#"
   xmlns:svg="http://www.w3.org/2000/svg"
   xmlns="http://www.w3.org/2000/svg"
   xmlns:sodipodi="http://sodipodi.sourceforge.net/DTD/sodipodi-0.dtd"
   xmlns:inkscape="http://www.inkscape.org/namespaces/inkscape"
   version="1.1"
   width="100%"
   height="100%"
   viewBox="0 0 16 16"
   id="svg2"
   inkscape:version="0.91 r"
   sodipodi:docname="dentist.16.svg">
  <metadata
     id="metadata10">
    <rdf:RDF>
      <cc:Work
         rdf:about="">
        <dc:format>image/svg+xml</dc:format>
        <dc:type
           rdf:resource="http://purl.org/dc/dcmitype/StillImage" />
      </cc:Work>
    </rdf:RDF>
  </metadata>
  <defs
     id="defs8" />
  <sodipodi:namedview
     pagecolor="#dadada"
     bordercolor="#666666"
     borderopacity="1"
     objecttolerance="10"
     gridtolerance="10"
     guidetolerance="10"
     inkscape:pageopacity="0"
     inkscape:pageshadow="2"
     inkscape:window-width="706"
     inkscape:window-height="480"
     id="namedview6"
     showgrid="false"
     inkscape:zoom="14.75"
     inkscape:cx="8"
     inkscape:cy="8"
     inkscape:window-x="0"
     inkscape:window-y="0"
     inkscape:window-maximized="0"
     inkscape:current-layer="svg2" />
  <path
     inkscape:connector-curvature="0"
     d="m 8,9 c 2,0 2,1 2,3 0,1 -1.0091211,3 0,3 1,0 1.751359,-1.142963 2,-3 0.248641,-1.857037 0,-3 0,-4 C 12,6 13,4 13,3 13,2 12.599761,1.21742 12,1 10,1 10,2 8,2 6,2 6,1 4,1 3.400799,1.21742 3,2 3,3 c 0,1 1,3 1,5 0,1 -0.1223902,2.57334 0,4 0.1223902,1.42666 1,3 2,3 1.008702,0 0,-2 0,-3 0,-2 0,-3 2,-3 z"
     id="path4-1"
     style="fill:#da0092;fill-opacity:1;stroke:#ffffff;stroke-width:0.6;stroke-miterlimit:4;stroke-dasharray:none;stroke-linejoin:round;stroke-linecap:round" />
  <path
     inkscape:connector-curvature="0"
     d="m 8,9 c 2,0 2,1 2,3 0,1 -1.0091211,3 0,3 1,0 1.751359,-1.142963 2,-3 0.248641,-1.857037 0,-3 0,-4 C 12,6 13,4 13,3 13,2 12.599761,1.21742 12,1 10,1 10,2 8,2 6,2 6,1 4,1 3.400799,1.21742 3,2 3,3 c 0,1 1,3 1,5 0,1 -0.1223902,2.57334 0,4 0.1223902,1.42666 1,3 2,3 1.008702,0 0,-2 0,-3 0,-2 0,-3 2,-3 z"
     id="path4"
     style="fill:#da0092;fill-opacity:1" />
</svg>
