<?xml version="1.0" encoding="UTF-8" standalone="no"?>
<!-- Created with Inkscape (http://www.inkscape.org/) -->

<svg
   xmlns:dc="http://purl.org/dc/elements/1.1/"
   xmlns:cc="http://creativecommons.org/ns#"
   xmlns:rdf="http://www.w3.org/1999/02/22-rdf-syntax-ns#"
   xmlns:svg="http://www.w3.org/2000/svg"
   xmlns="http://www.w3.org/2000/svg"
   xmlns:sodipodi="http://sodipodi.sourceforge.net/DTD/sodipodi-0.dtd"
   xmlns:inkscape="http://www.inkscape.org/namespaces/inkscape"
   version="1.1"
   width="100%"
   height="100%"
   viewBox="0 0 16 16"
   id="svg2"
   inkscape:version="0.91 r"
   sodipodi:docname="doctors.16.svg">
  <metadata
     id="metadata10">
    <rdf:RDF>
      <cc:Work
         rdf:about="">
        <dc:format>image/svg+xml</dc:format>
        <dc:type
           rdf:resource="http://purl.org/dc/dcmitype/StillImage" />
      </cc:Work>
    </rdf:RDF>
  </metadata>
  <defs
     id="defs8" />
  <sodipodi:namedview
     pagecolor="#dadada"
     bordercolor="#666666"
     borderopacity="1"
     objecttolerance="10"
     gridtolerance="10"
     guidetolerance="10"
     inkscape:pageopacity="0"
     inkscape:pageshadow="2"
     inkscape:window-width="706"
     inkscape:window-height="480"
     id="namedview6"
     showgrid="false"
     inkscape:zoom="14.75"
     inkscape:cx="8"
     inkscape:cy="8"
     inkscape:window-x="0"
     inkscape:window-y="0"
     inkscape:window-maximized="0"
     inkscape:current-layer="svg2" />
  <path
     inkscape:connector-curvature="0"
     d="M 8,2 C 6.83929,2 5.6678336,2.5047052 4.875,3.5 4.1875142,4.3630449 4,5 3.90625,6.0000004 1.01009,6.0238004 1,7.0817104 1,14 l 14,0 C 15,7.0817104 14.9899,6.0237504 12.09375,6.0000004 12,5 11.795537,4.3460958 11.125,3.5 10.334655,2.5027279 9.16071,2 8,2 Z m 0,2 c 1.281412,-0.00489 2,1 2.0625,2.0000004 l -4.125,0 C 6,5 6.718588,4.0048937 8,4 Z m -1,3.0000004 2,0 L 9,9 l 2,0 0,2 -2,0 0,2 -2,0 0,-2 -2,0 0,-2 2,0 z"
     id="path4-3"
     style="fill:#da0092;fill-opacity:1;stroke:#ffffff;stroke-width:0.6;stroke-miterlimit:4;stroke-dasharray:none;stroke-linejoin:round;stroke-linecap:round" />
  <path
     inkscape:connector-curvature="0"
     d="M 8,2 C 6.83929,2 5.6678336,2.5047052 4.875,3.5 4.1875142,4.3630449 4,5 3.90625,6.0000004 1.01009,6.0238004 1,7.0817104 1,14 l 14,0 C 15,7.0817104 14.9899,6.0237504 12.09375,6.0000004 12,5 11.795537,4.3460958 11.125,3.5 10.334655,2.5027279 9.16071,2 8,2 Z m 0,2 c 1.281412,-0.00489 2,1 2.0625,2.0000004 l -4.125,0 C 6,5 6.718588,4.0048937 8,4 Z m -1,3.0000004 2,0 L 9,9 l 2,0 0,2 -2,0 0,2 -2,0 0,-2 -2,0 0,-2 2,0 z"
     id="path4"
     style="fill:#da0092;fill-opacity:1" />
</svg>
