<?xml version="1.0" encoding="UTF-8" standalone="no"?>
<!-- Created with Inkscape (http://www.inkscape.org/) -->

<svg
   xmlns:dc="http://purl.org/dc/elements/1.1/"
   xmlns:cc="http://creativecommons.org/ns#"
   xmlns:rdf="http://www.w3.org/1999/02/22-rdf-syntax-ns#"
   xmlns:svg="http://www.w3.org/2000/svg"
   xmlns="http://www.w3.org/2000/svg"
   xmlns:sodipodi="http://sodipodi.sourceforge.net/DTD/sodipodi-0.dtd"
   xmlns:inkscape="http://www.inkscape.org/namespaces/inkscape"
   version="1.1"
   width="100%"
   height="100%"
   viewBox="0 0 14 14"
   id="svg2"
   inkscape:version="0.91 r"
   sodipodi:docname="veterinary-14.svg">
  <sodipodi:namedview
     pagecolor="#dadada"
     bordercolor="#666666"
     borderopacity="1"
     objecttolerance="10"
     gridtolerance="10"
     guidetolerance="10"
     inkscape:pageopacity="0"
     inkscape:pageshadow="2"
     inkscape:window-width="1600"
     inkscape:window-height="845"
     id="namedview7"
     showgrid="false"
     inkscape:zoom="16.857143"
     inkscape:cx="7.0000001"
     inkscape:cy="7.0000001"
     inkscape:window-x="-2"
     inkscape:window-y="-3"
     inkscape:window-maximized="1"
     inkscape:current-layer="svg2" />
  <metadata
     id="metadata8">
    <rdf:RDF>
      <cc:Work
         rdf:about="">
        <dc:format>image/svg+xml</dc:format>
        <dc:type
           rdf:resource="http://purl.org/dc/dcmitype/StillImage" />
        <dc:title />
      </cc:Work>
    </rdf:RDF>
  </metadata>
  <defs
     id="defs6" />
  <rect
     width="14"
     height="14"
     x="0"
     y="0"
     id="canvas"
     style="visibility:hidden;fill:none;stroke:none" />
  <path
     inkscape:connector-curvature="0"
     d="m 5.0391193,0.76901778 c -1.3451705,0 -1.5594543,1.79868732 -1.2144833,2.70785682 0.218908,0.5804528 0.8856727,1.1411765 1.5699419,0.902619 C 6.2794729,3.9494629 6.529494,2.8468235 6.2832242,1.9919209 6.163801,1.4224201 5.701598,0.76901778 5.0391193,0.76901778 Z m 3.7619363,0 c -0.662479,0 -1.1246813,0.65340232 -1.2441049,1.22290312 -0.2462693,0.8549026 0.00375,1.957542 0.8886463,2.3875727 C 9.1298661,4.6180511 9.7966306,4.0573274 10.015538,3.4768746 10.360509,2.5677051 10.146226,0.76901778 8.8010556,0.76901778 Z M 1.1868123,3.6515751 C 0.65544411,4.1738878 0.72502725,5.6769513 1.6903785,6.3011984 2.3160625,6.616479 2.9510899,6.2088243 3.1714558,5.7188636 3.5436006,5.0229841 3.4413345,4.0338419 2.7863757,3.5351081 2.1594629,3.1238112 1.6779028,3.1688537 1.1868123,3.6515751 Z M 11.198894,3.5351081 c -0.457052,0.2593816 -0.757225,1.487876 -0.38508,2.1837555 0.220366,0.4899612 0.885015,0.8976154 1.510699,0.5823348 C 13.289864,5.6769513 13.340219,4.1841039 12.798457,3.6515751 12.294232,3.2367033 11.697351,3.252228 11.198894,3.5351081 Z M 6.9926351,4.8453614 c -2.355772,0 -4.2655025,1.8771852 -4.2655025,4.1928106 0,2.315625 1.9097305,4.19281 4.2655025,4.19281 2.3557716,0 4.2655019,-1.877185 4.2655019,-4.19281 0,-2.3156254 -1.9097303,-4.1928106 -4.2655019,-4.1928106 z m -0.9478894,1.3976036 1.8957788,0 0,1.8634713 1.8957789,0 0,1.8634712 -1.8957789,0.029117 0,1.8343545 -1.8957788,0 0,-1.8634717 -1.8957789,0 0,-1.8634712 1.8957789,0 z"
     id="veterinary-5"
     style="fill:#da0092;fill-opacity:1;stroke:#ffffff;stroke-width:0.56386673;stroke-linecap:round;stroke-linejoin:round;stroke-miterlimit:4;stroke-dasharray:none" />
  <path
     inkscape:connector-curvature="0"
     d="m 5.038892,0.76901777 c -1.3451705,0 -1.5594543,1.79868733 -1.2144833,2.70785683 0.218908,0.5804528 0.8856727,1.1411765 1.5699419,0.902619 C 6.2792456,3.9494629 6.5292667,2.8468235 6.2829969,1.9919209 6.1635737,1.42242 5.7013707,0.76901777 5.038892,0.76901777 Z m 3.7619363,0 c -0.662479,0 -1.1246813,0.65340223 -1.2441049,1.22290313 -0.2462693,0.8549026 0.00375,1.957542 0.8886463,2.3875727 C 9.1296388,4.6180511 9.7964033,4.0573274 10.015312,3.4768746 10.360283,2.5677051 10.146,0.76901777 8.8008283,0.76901777 Z M 1.186585,3.6515751 C 0.65521678,4.1738878 0.72479992,5.6769513 1.6901512,6.3011984 2.3158352,6.616479 2.9508626,6.2088243 3.1712285,5.7188636 3.5433733,5.0229841 3.4411072,4.0338419 2.7861484,3.5351081 2.1592356,3.1238112 1.6776755,3.1688537 1.186585,3.6515751 Z m 10.012083,-0.116467 c -0.457052,0.2593816 -0.757225,1.487876 -0.38508,2.1837555 0.220366,0.4899612 0.885015,0.8976154 1.510699,0.5823348 C 13.289638,5.6769513 13.339993,4.1841039 12.798231,3.6515751 12.294006,3.2367033 11.697125,3.252228 11.198668,3.5351081 Z M 6.9924078,4.8453614 c -2.355772,0 -4.2655025,1.8771852 -4.2655025,4.1928106 0,2.315625 1.9097305,4.19281 4.2655025,4.19281 2.3557716,0 4.2655032,-1.877185 4.2655032,-4.19281 0,-2.3156254 -1.9097316,-4.1928106 -4.2655032,-4.1928106 z m -0.9478894,1.3976036 1.8957788,0 0,1.8634713 1.8957789,0 0,1.8634712 -1.8957789,0.029117 0,1.8343545 -1.8957788,0 0,-1.8634715 -1.8957789,0 0,-1.8634712 1.8957789,0 z"
     id="veterinary"
     style="fill:#da0092;fill-opacity:1;stroke:none" />
</svg>
